solid OpenSCAD_Model
  facet normal -1 0 0
    outer loop
      vertex -17 -15 0
      vertex -17 -15 4
      vertex -17 38 0
    endloop
  endfacet
  facet normal -1 0 0
    outer loop
      vertex -17 38 0
      vertex -17 -15 4
      vertex -17 38 4
    endloop
  endfacet
  facet normal 0 -1 0
    outer loop
      vertex -17 -15 4
      vertex -17 -15 0
      vertex 17 -15 0
    endloop
  endfacet
  facet normal 0 -1 0
    outer loop
      vertex 17 -15 4
      vertex -17 -15 4
      vertex 17 -15 0
    endloop
  endfacet
  facet normal 0 0 -1
    outer loop
      vertex 9.03326 10.0325 0
      vertex -17 38 0
      vertex 17 38 0
    endloop
  endfacet
  facet normal 0 0 -1
    outer loop
      vertex -17 -15 0
      vertex -17 38 0
      vertex -13.5 0 0
    endloop
  endfacet
  facet normal 0 0 -1
    outer loop
      vertex -4.17173 12.8393 0
      vertex -17 38 0
      vertex -1.41113 13.426 0
    endloop
  endfacet
  facet normal 0 0 -1
    outer loop
      vertex -17 -15 0
      vertex -13.5 0 0
      vertex -13.205 -2.80681 0
    endloop
  endfacet
  facet normal 0 0 -1
    outer loop
      vertex -17 -15 0
      vertex -13.205 -2.80681 0
      vertex -12.3329 -5.49094 0
    endloop
  endfacet
  facet normal 0 0 -1
    outer loop
      vertex -17 -15 0
      vertex -12.3329 -5.49094 0
      vertex -10.9217 -7.9351 0
    endloop
  endfacet
  facet normal 0 0 -1
    outer loop
      vertex -17 -15 0
      vertex -10.9217 -7.9351 0
      vertex -9.03326 -10.0325 0
    endloop
  endfacet
  facet normal 0 0 -1
    outer loop
      vertex -17 -15 0
      vertex -9.03326 -10.0325 0
      vertex -6.75 -11.6913 0
    endloop
  endfacet
  facet normal 0 0 -1
    outer loop
      vertex -17 -15 0
      vertex -6.75 -11.6913 0
      vertex -4.17173 -12.8393 0
    endloop
  endfacet
  facet normal 0 0 -1
    outer loop
      vertex -17 -15 0
      vertex -4.17173 -12.8393 0
      vertex -1.41113 -13.426 0
    endloop
  endfacet
  facet normal 0 0 -1
    outer loop
      vertex -17 -15 0
      vertex -1.41113 -13.426 0
      vertex 17 -15 0
    endloop
  endfacet
  facet normal 0 0 -1
    outer loop
      vertex -1.41113 -13.426 0
      vertex 1.41113 -13.426 0
      vertex 17 -15 0
    endloop
  endfacet
  facet normal 0 0 -1
    outer loop
      vertex 6.75 -11.6913 0
      vertex 17 -15 0
      vertex 4.17173 -12.8393 0
    endloop
  endfacet
  facet normal 0 0 -1
    outer loop
      vertex 9.03326 -10.0325 0
      vertex 17 -15 0
      vertex 6.75 -11.6913 0
    endloop
  endfacet
  facet normal 0 0 -1
    outer loop
      vertex 12.3329 -5.49094 0
      vertex 17 -15 0
      vertex 10.9217 -7.9351 0
    endloop
  endfacet
  facet normal 0 0 -1
    outer loop
      vertex 9.03326 -10.0325 0
      vertex 10.9217 -7.9351 0
      vertex 17 -15 0
    endloop
  endfacet
  facet normal 0 0 -1
    outer loop
      vertex 13.205 2.80681 0
      vertex 17 38 0
      vertex 13.5 0 0
    endloop
  endfacet
  facet normal 0 0 -1
    outer loop
      vertex 17 -15 0
      vertex 12.3329 -5.49094 0
      vertex 13.205 -2.80681 0
    endloop
  endfacet
  facet normal 0 0 -1
    outer loop
      vertex 17 -15 0
      vertex 13.205 -2.80681 0
      vertex 13.5 0 0
    endloop
  endfacet
  facet normal 0 0 -1
    outer loop
      vertex 17 -15 0
      vertex 13.5 0 0
      vertex 17 38 0
    endloop
  endfacet
  facet normal 0 0 -1
    outer loop
      vertex -1.41113 13.426 0
      vertex -17 38 0
      vertex 1.41113 13.426 0
    endloop
  endfacet
  facet normal 0 0 -1
    outer loop
      vertex 6.75 11.6913 0
      vertex -17 38 0
      vertex 9.03326 10.0325 0
    endloop
  endfacet
  facet normal 0 0 -1
    outer loop
      vertex 13.205 2.80681 0
      vertex 12.3329 5.49094 0
      vertex 17 38 0
    endloop
  endfacet
  facet normal 0 0 -1
    outer loop
      vertex 4.17173 12.8393 0
      vertex -17 38 0
      vertex 6.75 11.6913 0
    endloop
  endfacet
  facet normal 0 0 -1
    outer loop
      vertex 12.3329 5.49094 0
      vertex 10.9217 7.9351 0
      vertex 17 38 0
    endloop
  endfacet
  facet normal 0 0 -1
    outer loop
      vertex 10.9217 7.9351 0
      vertex 9.03326 10.0325 0
      vertex 17 38 0
    endloop
  endfacet
  facet normal 0 0 -1
    outer loop
      vertex 1.41113 13.426 0
      vertex -17 38 0
      vertex 4.17173 12.8393 0
    endloop
  endfacet
  facet normal 0 0 -1
    outer loop
      vertex -6.75 11.6913 0
      vertex -17 38 0
      vertex -4.17173 12.8393 0
    endloop
  endfacet
  facet normal 0 0 -1
    outer loop
      vertex -9.03326 10.0325 0
      vertex -17 38 0
      vertex -6.75 11.6913 0
    endloop
  endfacet
  facet normal 0 0 -1
    outer loop
      vertex -10.9217 7.9351 0
      vertex -17 38 0
      vertex -9.03326 10.0325 0
    endloop
  endfacet
  facet normal 0 0 -1
    outer loop
      vertex -12.3329 5.49094 0
      vertex -17 38 0
      vertex -10.9217 7.9351 0
    endloop
  endfacet
  facet normal 0 0 -1
    outer loop
      vertex -13.205 2.80681 0
      vertex -17 38 0
      vertex -12.3329 5.49094 0
    endloop
  endfacet
  facet normal 0 0 -1
    outer loop
      vertex -13.5 0 0
      vertex -17 38 0
      vertex -13.205 2.80681 0
    endloop
  endfacet
  facet normal 0 0 -1
    outer loop
      vertex 4.17173 -12.8393 0
      vertex 17 -15 0
      vertex 1.41113 -13.426 0
    endloop
  endfacet
  facet normal 0 1 0
    outer loop
      vertex -17 38 0
      vertex -17 38 4
      vertex 17 38 0
    endloop
  endfacet
  facet normal 0 1 0
    outer loop
      vertex 17 38 0
      vertex -17 38 4
      vertex 17 38 4
    endloop
  endfacet
  facet normal 0 0 1
    outer loop
      vertex 1.41113 -13.426 4
      vertex -17 -15 4
      vertex 17 -15 4
    endloop
  endfacet
  facet normal 0 0 1
    outer loop
      vertex -13.5 0 4
      vertex -17 -15 4
      vertex -13.205 -2.80681 4
    endloop
  endfacet
  facet normal 0 0 1
    outer loop
      vertex -1.41113 13.426 4
      vertex 1.41113 13.426 4
      vertex -17 38 4
    endloop
  endfacet
  facet normal 0 0 1
    outer loop
      vertex -17 38 4
      vertex -17 -15 4
      vertex -13.5 0 4
    endloop
  endfacet
  facet normal 0 0 1
    outer loop
      vertex -1.41113 -13.426 4
      vertex -4.17173 -12.8393 4
      vertex -17 -15 4
    endloop
  endfacet
  facet normal 0 0 1
    outer loop
      vertex -17 38 4
      vertex -13.205 2.80681 4
      vertex -12.3329 5.49094 4
    endloop
  endfacet
  facet normal 0 0 1
    outer loop
      vertex 9.03326 -10.0325 4
      vertex 6.75 -11.6913 4
      vertex 17 -15 4
    endloop
  endfacet
  facet normal 0 0 1
    outer loop
      vertex -17 38 4
      vertex -12.3329 5.49094 4
      vertex -10.9217 7.9351 4
    endloop
  endfacet
  facet normal 0 0 1
    outer loop
      vertex -17 38 4
      vertex -10.9217 7.9351 4
      vertex -9.03326 10.0325 4
    endloop
  endfacet
  facet normal 0 0 1
    outer loop
      vertex -17 38 4
      vertex -9.03326 10.0325 4
      vertex -6.75 11.6913 4
    endloop
  endfacet
  facet normal 0 0 1
    outer loop
      vertex -17 38 4
      vertex -6.75 11.6913 4
      vertex -4.17173 12.8393 4
    endloop
  endfacet
  facet normal 0 0 1
    outer loop
      vertex 13.205 2.80681 4
      vertex 13.5 0 4
      vertex 17 -15 4
    endloop
  endfacet
  facet normal 0 0 1
    outer loop
      vertex -17 38 4
      vertex -4.17173 12.8393 4
      vertex -1.41113 13.426 4
    endloop
  endfacet
  facet normal 0 0 1
    outer loop
      vertex 17 38 4
      vertex -17 38 4
      vertex 1.41113 13.426 4
    endloop
  endfacet
  facet normal 0 0 1
    outer loop
      vertex 17 38 4
      vertex 1.41113 13.426 4
      vertex 4.17173 12.8393 4
    endloop
  endfacet
  facet normal 0 0 1
    outer loop
      vertex 17 38 4
      vertex 4.17173 12.8393 4
      vertex 6.75 11.6913 4
    endloop
  endfacet
  facet normal 0 0 1
    outer loop
      vertex 12.3329 -5.49094 4
      vertex 10.9217 -7.9351 4
      vertex 17 -15 4
    endloop
  endfacet
  facet normal 0 0 1
    outer loop
      vertex 17 38 4
      vertex 6.75 11.6913 4
      vertex 9.03326 10.0325 4
    endloop
  endfacet
  facet normal 0 0 1
    outer loop
      vertex 17 38 4
      vertex 9.03326 10.0325 4
      vertex 10.9217 7.9351 4
    endloop
  endfacet
  facet normal 0 0 1
    outer loop
      vertex 13.5 0 4
      vertex 13.205 -2.80681 4
      vertex 17 -15 4
    endloop
  endfacet
  facet normal 0 0 1
    outer loop
      vertex 17 38 4
      vertex 10.9217 7.9351 4
      vertex 12.3329 5.49094 4
    endloop
  endfacet
  facet normal 0 0 1
    outer loop
      vertex 17 38 4
      vertex 13.205 2.80681 4
      vertex 17 -15 4
    endloop
  endfacet
  facet normal 0 0 1
    outer loop
      vertex 17 38 4
      vertex 12.3329 5.49094 4
      vertex 13.205 2.80681 4
    endloop
  endfacet
  facet normal 0 0 1
    outer loop
      vertex 6.75 -11.6913 4
      vertex 4.17173 -12.8393 4
      vertex 17 -15 4
    endloop
  endfacet
  facet normal 0 0 1
    outer loop
      vertex 4.17173 -12.8393 4
      vertex 1.41113 -13.426 4
      vertex 17 -15 4
    endloop
  endfacet
  facet normal 0 0 1
    outer loop
      vertex -1.41113 -13.426 4
      vertex -17 -15 4
      vertex 1.41113 -13.426 4
    endloop
  endfacet
  facet normal 0 0 1
    outer loop
      vertex -6.75 -11.6913 4
      vertex -17 -15 4
      vertex -4.17173 -12.8393 4
    endloop
  endfacet
  facet normal 0 0 1
    outer loop
      vertex -9.03326 -10.0325 4
      vertex -17 -15 4
      vertex -6.75 -11.6913 4
    endloop
  endfacet
  facet normal 0 0 1
    outer loop
      vertex -10.9217 -7.9351 4
      vertex -17 -15 4
      vertex -9.03326 -10.0325 4
    endloop
  endfacet
  facet normal 0 0 1
    outer loop
      vertex -12.3329 -5.49094 4
      vertex -17 -15 4
      vertex -10.9217 -7.9351 4
    endloop
  endfacet
  facet normal 0 0 1
    outer loop
      vertex -13.205 -2.80681 4
      vertex -17 -15 4
      vertex -12.3329 -5.49094 4
    endloop
  endfacet
  facet normal 0 0 1
    outer loop
      vertex -13.5 0 4
      vertex -13.205 2.80681 4
      vertex -17 38 4
    endloop
  endfacet
  facet normal 0 0 1
    outer loop
      vertex 13.205 -2.80681 4
      vertex 12.3329 -5.49094 4
      vertex 17 -15 4
    endloop
  endfacet
  facet normal 0 0 1
    outer loop
      vertex 10.9217 -7.9351 4
      vertex 9.03326 -10.0325 4
      vertex 17 -15 4
    endloop
  endfacet
  facet normal 1 0 0
    outer loop
      vertex 17 -15 4
      vertex 17 -15 0
      vertex 17 38 0
    endloop
  endfacet
  facet normal 1 0 0
    outer loop
      vertex 17 38 4
      vertex 17 -15 4
      vertex 17 38 0
    endloop
  endfacet
  facet normal 0.994522 -0.104528 0
    outer loop
      vertex -13.205 2.80681 0
      vertex -13.205 2.80681 4
      vertex -13.5 0 4
    endloop
  endfacet
  facet normal 0.994522 -0.104528 0
    outer loop
      vertex -13.5 0 0
      vertex -13.205 2.80681 0
      vertex -13.5 0 4
    endloop
  endfacet
  facet normal 0.994522 0.104528 0
    outer loop
      vertex -13.5 0 4
      vertex -13.205 -2.80681 4
      vertex -13.205 -2.80681 0
    endloop
  endfacet
  facet normal 0.994522 0.104528 0
    outer loop
      vertex -13.5 0 0
      vertex -13.5 0 4
      vertex -13.205 -2.80681 0
    endloop
  endfacet
  facet normal 0.951057 -0.309017 0
    outer loop
      vertex -12.3329 5.49094 0
      vertex -12.3329 5.49094 4
      vertex -13.205 2.80681 4
    endloop
  endfacet
  facet normal 0.951057 -0.309017 0
    outer loop
      vertex -13.205 2.80681 0
      vertex -12.3329 5.49094 0
      vertex -13.205 2.80681 4
    endloop
  endfacet
  facet normal 0.866025 -0.5 0
    outer loop
      vertex -10.9217 7.9351 0
      vertex -10.9217 7.9351 4
      vertex -12.3329 5.49094 4
    endloop
  endfacet
  facet normal 0.866025 -0.5 0
    outer loop
      vertex -12.3329 5.49094 0
      vertex -10.9217 7.9351 0
      vertex -12.3329 5.49094 4
    endloop
  endfacet
  facet normal 0.743145 -0.669131 0
    outer loop
      vertex -9.03326 10.0325 0
      vertex -9.03326 10.0325 4
      vertex -10.9217 7.9351 4
    endloop
  endfacet
  facet normal 0.743145 -0.669131 0
    outer loop
      vertex -10.9217 7.9351 0
      vertex -9.03326 10.0325 0
      vertex -10.9217 7.9351 4
    endloop
  endfacet
  facet normal 0.587785 -0.809017 0
    outer loop
      vertex -6.75 11.6913 0
      vertex -6.75 11.6913 4
      vertex -9.03326 10.0325 4
    endloop
  endfacet
  facet normal 0.587785 -0.809017 0
    outer loop
      vertex -9.03326 10.0325 0
      vertex -6.75 11.6913 0
      vertex -9.03326 10.0325 4
    endloop
  endfacet
  facet normal 0.406737 -0.913545 0
    outer loop
      vertex -4.17173 12.8393 0
      vertex -4.17173 12.8393 4
      vertex -6.75 11.6913 4
    endloop
  endfacet
  facet normal 0.406737 -0.913545 0
    outer loop
      vertex -6.75 11.6913 0
      vertex -4.17173 12.8393 0
      vertex -6.75 11.6913 4
    endloop
  endfacet
  facet normal 0.207912 -0.978148 0
    outer loop
      vertex -1.41113 13.426 0
      vertex -1.41113 13.426 4
      vertex -4.17173 12.8393 4
    endloop
  endfacet
  facet normal 0.207912 -0.978148 0
    outer loop
      vertex -4.17173 12.8393 0
      vertex -1.41113 13.426 0
      vertex -4.17173 12.8393 4
    endloop
  endfacet
  facet normal 0 -1 0
    outer loop
      vertex 1.41113 13.426 0
      vertex 1.41113 13.426 4
      vertex -1.41113 13.426 4
    endloop
  endfacet
  facet normal 0 -1 0
    outer loop
      vertex -1.41113 13.426 0
      vertex 1.41113 13.426 0
      vertex -1.41113 13.426 4
    endloop
  endfacet
  facet normal -0.207912 -0.978148 0
    outer loop
      vertex 4.17173 12.8393 0
      vertex 4.17173 12.8393 4
      vertex 1.41113 13.426 4
    endloop
  endfacet
  facet normal -0.207912 -0.978148 0
    outer loop
      vertex 1.41113 13.426 0
      vertex 4.17173 12.8393 0
      vertex 1.41113 13.426 4
    endloop
  endfacet
  facet normal -0.406737 -0.913545 0
    outer loop
      vertex 6.75 11.6913 0
      vertex 6.75 11.6913 4
      vertex 4.17173 12.8393 4
    endloop
  endfacet
  facet normal -0.406737 -0.913545 0
    outer loop
      vertex 4.17173 12.8393 0
      vertex 6.75 11.6913 0
      vertex 4.17173 12.8393 4
    endloop
  endfacet
  facet normal -0.587785 -0.809017 0
    outer loop
      vertex 9.03326 10.0325 0
      vertex 9.03326 10.0325 4
      vertex 6.75 11.6913 4
    endloop
  endfacet
  facet normal -0.587785 -0.809017 0
    outer loop
      vertex 6.75 11.6913 0
      vertex 9.03326 10.0325 0
      vertex 6.75 11.6913 4
    endloop
  endfacet
  facet normal -0.743145 -0.669131 0
    outer loop
      vertex 10.9217 7.9351 4
      vertex 9.03326 10.0325 4
      vertex 10.9217 7.9351 0
    endloop
  endfacet
  facet normal -0.743145 -0.669131 0
    outer loop
      vertex 10.9217 7.9351 0
      vertex 9.03326 10.0325 4
      vertex 9.03326 10.0325 0
    endloop
  endfacet
  facet normal -0.866025 -0.5 0
    outer loop
      vertex 12.3329 5.49094 4
      vertex 10.9217 7.9351 4
      vertex 12.3329 5.49094 0
    endloop
  endfacet
  facet normal -0.866025 -0.5 0
    outer loop
      vertex 12.3329 5.49094 0
      vertex 10.9217 7.9351 4
      vertex 10.9217 7.9351 0
    endloop
  endfacet
  facet normal -0.951057 -0.309017 0
    outer loop
      vertex 13.205 2.80681 4
      vertex 12.3329 5.49094 4
      vertex 13.205 2.80681 0
    endloop
  endfacet
  facet normal -0.951057 -0.309017 0
    outer loop
      vertex 13.205 2.80681 0
      vertex 12.3329 5.49094 4
      vertex 12.3329 5.49094 0
    endloop
  endfacet
  facet normal -0.994522 -0.104528 0
    outer loop
      vertex 13.5 0 4
      vertex 13.205 2.80681 4
      vertex 13.5 0 0
    endloop
  endfacet
  facet normal -0.994522 -0.104528 0
    outer loop
      vertex 13.5 0 0
      vertex 13.205 2.80681 4
      vertex 13.205 2.80681 0
    endloop
  endfacet
  facet normal -0.994522 0.104528 0
    outer loop
      vertex 13.5 0 4
      vertex 13.5 0 0
      vertex 13.205 -2.80681 4
    endloop
  endfacet
  facet normal -0.994522 0.104528 0
    outer loop
      vertex 13.205 -2.80681 4
      vertex 13.5 0 0
      vertex 13.205 -2.80681 0
    endloop
  endfacet
  facet normal -0.951057 0.309017 0
    outer loop
      vertex 13.205 -2.80681 4
      vertex 13.205 -2.80681 0
      vertex 12.3329 -5.49094 4
    endloop
  endfacet
  facet normal -0.951057 0.309017 0
    outer loop
      vertex 12.3329 -5.49094 4
      vertex 13.205 -2.80681 0
      vertex 12.3329 -5.49094 0
    endloop
  endfacet
  facet normal -0.866025 0.5 0
    outer loop
      vertex 12.3329 -5.49094 4
      vertex 12.3329 -5.49094 0
      vertex 10.9217 -7.9351 4
    endloop
  endfacet
  facet normal -0.866025 0.5 0
    outer loop
      vertex 10.9217 -7.9351 4
      vertex 12.3329 -5.49094 0
      vertex 10.9217 -7.9351 0
    endloop
  endfacet
  facet normal -0.743145 0.669131 0
    outer loop
      vertex 10.9217 -7.9351 4
      vertex 10.9217 -7.9351 0
      vertex 9.03326 -10.0325 4
    endloop
  endfacet
  facet normal -0.743145 0.669131 0
    outer loop
      vertex 9.03326 -10.0325 4
      vertex 10.9217 -7.9351 0
      vertex 9.03326 -10.0325 0
    endloop
  endfacet
  facet normal -0.587785 0.809017 0
    outer loop
      vertex 9.03326 -10.0325 4
      vertex 9.03326 -10.0325 0
      vertex 6.75 -11.6913 4
    endloop
  endfacet
  facet normal -0.587785 0.809017 0
    outer loop
      vertex 6.75 -11.6913 4
      vertex 9.03326 -10.0325 0
      vertex 6.75 -11.6913 0
    endloop
  endfacet
  facet normal -0.406737 0.913545 0
    outer loop
      vertex 6.75 -11.6913 4
      vertex 6.75 -11.6913 0
      vertex 4.17173 -12.8393 4
    endloop
  endfacet
  facet normal -0.406737 0.913545 0
    outer loop
      vertex 4.17173 -12.8393 4
      vertex 6.75 -11.6913 0
      vertex 4.17173 -12.8393 0
    endloop
  endfacet
  facet normal -0.207912 0.978148 0
    outer loop
      vertex 4.17173 -12.8393 4
      vertex 4.17173 -12.8393 0
      vertex 1.41113 -13.426 4
    endloop
  endfacet
  facet normal -0.207912 0.978148 0
    outer loop
      vertex 1.41113 -13.426 4
      vertex 4.17173 -12.8393 0
      vertex 1.41113 -13.426 0
    endloop
  endfacet
  facet normal 0 1 0
    outer loop
      vertex 1.41113 -13.426 4
      vertex 1.41113 -13.426 0
      vertex -1.41113 -13.426 4
    endloop
  endfacet
  facet normal 0 1 0
    outer loop
      vertex -1.41113 -13.426 4
      vertex 1.41113 -13.426 0
      vertex -1.41113 -13.426 0
    endloop
  endfacet
  facet normal 0.207912 0.978148 0
    outer loop
      vertex -1.41113 -13.426 4
      vertex -1.41113 -13.426 0
      vertex -4.17173 -12.8393 4
    endloop
  endfacet
  facet normal 0.207912 0.978148 0
    outer loop
      vertex -4.17173 -12.8393 4
      vertex -1.41113 -13.426 0
      vertex -4.17173 -12.8393 0
    endloop
  endfacet
  facet normal 0.406737 0.913545 0
    outer loop
      vertex -4.17173 -12.8393 4
      vertex -4.17173 -12.8393 0
      vertex -6.75 -11.6913 4
    endloop
  endfacet
  facet normal 0.406737 0.913545 0
    outer loop
      vertex -6.75 -11.6913 4
      vertex -4.17173 -12.8393 0
      vertex -6.75 -11.6913 0
    endloop
  endfacet
  facet normal 0.587785 0.809017 0
    outer loop
      vertex -6.75 -11.6913 4
      vertex -6.75 -11.6913 0
      vertex -9.03326 -10.0325 4
    endloop
  endfacet
  facet normal 0.587785 0.809017 0
    outer loop
      vertex -9.03326 -10.0325 4
      vertex -6.75 -11.6913 0
      vertex -9.03326 -10.0325 0
    endloop
  endfacet
  facet normal 0.743145 0.669131 0
    outer loop
      vertex -10.9217 -7.9351 4
      vertex -9.03326 -10.0325 4
      vertex -9.03326 -10.0325 0
    endloop
  endfacet
  facet normal 0.743145 0.669131 0
    outer loop
      vertex -10.9217 -7.9351 0
      vertex -10.9217 -7.9351 4
      vertex -9.03326 -10.0325 0
    endloop
  endfacet
  facet normal 0.866025 0.5 0
    outer loop
      vertex -12.3329 -5.49094 4
      vertex -10.9217 -7.9351 4
      vertex -10.9217 -7.9351 0
    endloop
  endfacet
  facet normal 0.866025 0.5 0
    outer loop
      vertex -12.3329 -5.49094 0
      vertex -12.3329 -5.49094 4
      vertex -10.9217 -7.9351 0
    endloop
  endfacet
  facet normal 0.951057 0.309017 0
    outer loop
      vertex -13.205 -2.80681 4
      vertex -12.3329 -5.49094 4
      vertex -12.3329 -5.49094 0
    endloop
  endfacet
  facet normal 0.951057 0.309017 0
    outer loop
      vertex -13.205 -2.80681 0
      vertex -13.205 -2.80681 4
      vertex -12.3329 -5.49094 0
    endloop
  endfacet
endsolid OpenSCAD_Model
