solid OpenSCAD_Model
  facet normal -1 0 0
    outer loop
      vertex -38 -38 0
      vertex -38 -38 6
      vertex -38 38 0
    endloop
  endfacet
  facet normal -1 0 0
    outer loop
      vertex -38 38 0
      vertex -38 -38 6
      vertex -38 38 6
    endloop
  endfacet
  facet normal 0 -1 0
    outer loop
      vertex -38 -38 6
      vertex -38 -38 0
      vertex 38 -38 0
    endloop
  endfacet
  facet normal 0 -1 0
    outer loop
      vertex 38 -38 6
      vertex -38 -38 6
      vertex 38 -38 0
    endloop
  endfacet
  facet normal 0 0 -1
    outer loop
      vertex -35.75 -35.75 0
      vertex 35.75 -35.75 0
      vertex 38 -38 0
    endloop
  endfacet
  facet normal 0 0 -1
    outer loop
      vertex -35.75 35.75 0
      vertex -38 38 0
      vertex 38 38 0
    endloop
  endfacet
  facet normal 0 0 -1
    outer loop
      vertex -38 -38 0
      vertex -38 38 0
      vertex -35.75 35.75 0
    endloop
  endfacet
  facet normal 0 0 -1
    outer loop
      vertex 35.75 35.75 0
      vertex -35.75 35.75 0
      vertex 38 38 0
    endloop
  endfacet
  facet normal 0 0 -1
    outer loop
      vertex -38 -38 0
      vertex -35.75 35.75 0
      vertex -35.75 -35.75 0
    endloop
  endfacet
  facet normal 0 0 -1
    outer loop
      vertex -38 -38 0
      vertex -35.75 -35.75 0
      vertex 38 -38 0
    endloop
  endfacet
  facet normal 0 0 -1
    outer loop
      vertex 38 -38 0
      vertex 35.75 -35.75 0
      vertex 38 38 0
    endloop
  endfacet
  facet normal 0 0 -1
    outer loop
      vertex 35.75 -35.75 0
      vertex 35.75 35.75 0
      vertex 38 38 0
    endloop
  endfacet
  facet normal 0 1 0
    outer loop
      vertex -38 38 0
      vertex -38 38 6
      vertex 38 38 0
    endloop
  endfacet
  facet normal 0 1 0
    outer loop
      vertex 38 38 0
      vertex -38 38 6
      vertex 38 38 6
    endloop
  endfacet
  facet normal 0 0 1
    outer loop
      vertex 5.80076 -24.5848 6
      vertex -38 -38 6
      vertex 38 -38 6
    endloop
  endfacet
  facet normal 0 0 1
    outer loop
      vertex -36.5691 0 6
      vertex -38 -38 6
      vertex -35.8618 -5.37452 6
    endloop
  endfacet
  facet normal 0 0 1
    outer loop
      vertex -38 38 6
      vertex -38 -38 6
      vertex -36.5691 0 6
    endloop
  endfacet
  facet normal 0 0 1
    outer loop
      vertex -31.445 -32.9499 6
      vertex -32.8019 -31.8678 6
      vertex -38 -38 6
    endloop
  endfacet
  facet normal 0 0 1
    outer loop
      vertex -38 38 6
      vertex -35.8618 5.37452 6
      vertex -33.7708 10.5141 6
    endloop
  endfacet
  facet normal 0 0 1
    outer loop
      vertex -38 38 6
      vertex -33.7708 10.5141 6
      vertex -30.3874 15.1942 6
    endloop
  endfacet
  facet normal 0 0 1
    outer loop
      vertex -38 38 6
      vertex -30.3874 15.1942 6
      vertex -25.8596 19.2103 6
    endloop
  endfacet
  facet normal 0 0 1
    outer loop
      vertex 38 38 6
      vertex -38 38 6
      vertex -14.2036 24.5848 6
    endloop
  endfacet
  facet normal 0 0 1
    outer loop
      vertex 17.4568 -19.2103 6
      vertex 29.1981 -31.8678 6
      vertex 29.1981 -30.1322 6
    endloop
  endfacet
  facet normal 0 0 1
    outer loop
      vertex 38 38 6
      vertex -7.58476 25.7084 6
      vertex -0.818065 25.7084 6
    endloop
  endfacet
  facet normal 0 0 1
    outer loop
      vertex 32.247 -32.5637 6
      vertex 30.555 -32.9499 6
      vertex 38 -38 6
    endloop
  endfacet
  facet normal 0 0 1
    outer loop
      vertex 38 38 6
      vertex -0.818065 25.7084 6
      vertex 5.80076 24.5848 6
    endloop
  endfacet
  facet normal 0 0 1
    outer loop
      vertex 38 38 6
      vertex 5.80076 24.5848 6
      vertex 11.9824 22.3868 6
    endloop
  endfacet
  facet normal 0 0 1
    outer loop
      vertex 25.368 -10.5141 6
      vertex 32.247 -29.4363 6
      vertex 38 -38 6
    endloop
  endfacet
  facet normal 0 0 1
    outer loop
      vertex 29.1981 30.1322 6
      vertex 11.9824 22.3868 6
      vertex 17.4568 19.2103 6
    endloop
  endfacet
  facet normal 0 0 1
    outer loop
      vertex 30.555 32.9499 6
      vertex 32.247 32.5637 6
      vertex 38 38 6
    endloop
  endfacet
  facet normal 0 0 1
    outer loop
      vertex 27.459 -5.37452 6
      vertex 25.368 -10.5141 6
      vertex 38 -38 6
    endloop
  endfacet
  facet normal 0 0 1
    outer loop
      vertex 32.247 29.4363 6
      vertex 21.9846 15.1942 6
      vertex 25.368 10.5141 6
    endloop
  endfacet
  facet normal 0 0 1
    outer loop
      vertex 38 38 6
      vertex 27.459 5.37452 6
      vertex 38 -38 6
    endloop
  endfacet
  facet normal 0 0 1
    outer loop
      vertex 38 38 6
      vertex 25.368 10.5141 6
      vertex 27.459 5.37452 6
    endloop
  endfacet
  facet normal 0 0 1
    outer loop
      vertex 27.459 5.37452 6
      vertex 28.1663 0 6
      vertex 38 -38 6
    endloop
  endfacet
  facet normal 0 0 1
    outer loop
      vertex 30.555 -29.0501 6
      vertex 32.247 -29.4363 6
      vertex 21.9846 -15.1942 6
    endloop
  endfacet
  facet normal 0 0 1
    outer loop
      vertex 29.1981 -31.8678 6
      vertex 11.9824 -22.3868 6
      vertex 30.555 -32.9499 6
    endloop
  endfacet
  facet normal 0 0 1
    outer loop
      vertex -0.818065 -25.7084 6
      vertex -38 -38 6
      vertex 5.80076 -24.5848 6
    endloop
  endfacet
  facet normal 0 0 1
    outer loop
      vertex -7.58476 -25.7084 6
      vertex -38 -38 6
      vertex -0.818065 -25.7084 6
    endloop
  endfacet
  facet normal 0 0 1
    outer loop
      vertex -14.2036 -24.5848 6
      vertex -38 -38 6
      vertex -7.58476 -25.7084 6
    endloop
  endfacet
  facet normal 0 0 1
    outer loop
      vertex -29.753 -32.5637 6
      vertex -38 -38 6
      vertex -14.2036 -24.5848 6
    endloop
  endfacet
  facet normal 0 0 1
    outer loop
      vertex -30.3874 -15.1942 6
      vertex -38 -38 6
      vertex -25.8596 -19.2103 6
    endloop
  endfacet
  facet normal 0 0 1
    outer loop
      vertex -33.7708 -10.5141 6
      vertex -38 -38 6
      vertex -30.3874 -15.1942 6
    endloop
  endfacet
  facet normal 0 0 1
    outer loop
      vertex -35.8618 -5.37452 6
      vertex -38 -38 6
      vertex -33.7708 -10.5141 6
    endloop
  endfacet
  facet normal 0 0 1
    outer loop
      vertex -32.8019 -30.1322 6
      vertex -38 -38 6
      vertex -32.8019 -31.8678 6
    endloop
  endfacet
  facet normal 0 0 1
    outer loop
      vertex -25.8596 -19.2103 6
      vertex -38 -38 6
      vertex -32.8019 -30.1322 6
    endloop
  endfacet
  facet normal 0 0 1
    outer loop
      vertex -29.753 -29.4363 6
      vertex -29 -31 6
      vertex -20.3853 -22.3868 6
    endloop
  endfacet
  facet normal 0 0 1
    outer loop
      vertex -25.8596 -19.2103 6
      vertex -32.8019 -30.1322 6
      vertex -31.445 -29.0501 6
    endloop
  endfacet
  facet normal 0 0 1
    outer loop
      vertex -25.8596 -19.2103 6
      vertex -29.753 -29.4363 6
      vertex -20.3853 -22.3868 6
    endloop
  endfacet
  facet normal 0 0 1
    outer loop
      vertex -20.3853 -22.3868 6
      vertex -29 -31 6
      vertex -14.2036 -24.5848 6
    endloop
  endfacet
  facet normal 0 0 1
    outer loop
      vertex -31.445 -29.0501 6
      vertex -29.753 -29.4363 6
      vertex -25.8596 -19.2103 6
    endloop
  endfacet
  facet normal 0 0 1
    outer loop
      vertex -29 -31 6
      vertex -29.753 -32.5637 6
      vertex -14.2036 -24.5848 6
    endloop
  endfacet
  facet normal 0 0 1
    outer loop
      vertex -31.445 -32.9499 6
      vertex -38 -38 6
      vertex -29.753 -32.5637 6
    endloop
  endfacet
  facet normal 0 0 1
    outer loop
      vertex -32.8019 31.8678 6
      vertex -31.445 32.9499 6
      vertex -38 38 6
    endloop
  endfacet
  facet normal 0 0 1
    outer loop
      vertex -38 38 6
      vertex -25.8596 19.2103 6
      vertex -32.8019 30.1322 6
    endloop
  endfacet
  facet normal 0 0 1
    outer loop
      vertex -38 38 6
      vertex -32.8019 30.1322 6
      vertex -32.8019 31.8678 6
    endloop
  endfacet
  facet normal 0 0 1
    outer loop
      vertex -29.753 29.4363 6
      vertex -31.445 29.0501 6
      vertex -25.8596 19.2103 6
    endloop
  endfacet
  facet normal 0 0 1
    outer loop
      vertex -29.753 32.5637 6
      vertex -38 38 6
      vertex -31.445 32.9499 6
    endloop
  endfacet
  facet normal 0 0 1
    outer loop
      vertex -29 31 6
      vertex -29.753 29.4363 6
      vertex -20.3853 22.3868 6
    endloop
  endfacet
  facet normal 0 0 1
    outer loop
      vertex -14.2036 24.5848 6
      vertex -38 38 6
      vertex -29.753 32.5637 6
    endloop
  endfacet
  facet normal 0 0 1
    outer loop
      vertex -14.2036 24.5848 6
      vertex -29 31 6
      vertex -20.3853 22.3868 6
    endloop
  endfacet
  facet normal 0 0 1
    outer loop
      vertex 25.368 -10.5141 6
      vertex 21.9846 -15.1942 6
      vertex 32.247 -29.4363 6
    endloop
  endfacet
  facet normal 0 0 1
    outer loop
      vertex 29.1981 -30.1322 6
      vertex 21.9846 -15.1942 6
      vertex 17.4568 -19.2103 6
    endloop
  endfacet
  facet normal 0 0 1
    outer loop
      vertex 32.247 -29.4363 6
      vertex 33 -31 6
      vertex 38 -38 6
    endloop
  endfacet
  facet normal 0 0 1
    outer loop
      vertex 29.1981 -30.1322 6
      vertex 30.555 -29.0501 6
      vertex 21.9846 -15.1942 6
    endloop
  endfacet
  facet normal 0 0 1
    outer loop
      vertex 30.555 29.0501 6
      vertex 29.1981 30.1322 6
      vertex 17.4568 19.2103 6
    endloop
  endfacet
  facet normal 0 0 1
    outer loop
      vertex 33 -31 6
      vertex 32.247 -32.5637 6
      vertex 38 -38 6
    endloop
  endfacet
  facet normal 0 0 1
    outer loop
      vertex 30.555 -32.9499 6
      vertex 11.9824 -22.3868 6
      vertex 38 -38 6
    endloop
  endfacet
  facet normal 0 0 1
    outer loop
      vertex -14.2036 24.5848 6
      vertex -7.58476 25.7084 6
      vertex 38 38 6
    endloop
  endfacet
  facet normal 0 0 1
    outer loop
      vertex 28.1663 0 6
      vertex 27.459 -5.37452 6
      vertex 38 -38 6
    endloop
  endfacet
  facet normal 0 0 1
    outer loop
      vertex 11.9824 -22.3868 6
      vertex 5.80076 -24.5848 6
      vertex 38 -38 6
    endloop
  endfacet
  facet normal 0 0 1
    outer loop
      vertex 29.1981 31.8678 6
      vertex 11.9824 22.3868 6
      vertex 29.1981 30.1322 6
    endloop
  endfacet
  facet normal 0 0 1
    outer loop
      vertex 33 31 6
      vertex 32.247 29.4363 6
      vertex 38 38 6
    endloop
  endfacet
  facet normal 0 0 1
    outer loop
      vertex 30.555 32.9499 6
      vertex 11.9824 22.3868 6
      vertex 29.1981 31.8678 6
    endloop
  endfacet
  facet normal 0 0 1
    outer loop
      vertex 38 38 6
      vertex 11.9824 22.3868 6
      vertex 30.555 32.9499 6
    endloop
  endfacet
  facet normal 0 0 1
    outer loop
      vertex 32.247 29.4363 6
      vertex 30.555 29.0501 6
      vertex 21.9846 15.1942 6
    endloop
  endfacet
  facet normal 0 0 1
    outer loop
      vertex 38 38 6
      vertex 32.247 32.5637 6
      vertex 33 31 6
    endloop
  endfacet
  facet normal 0 0 1
    outer loop
      vertex 38 38 6
      vertex 32.247 29.4363 6
      vertex 25.368 10.5141 6
    endloop
  endfacet
  facet normal 0 0 1
    outer loop
      vertex -36.5691 0 6
      vertex -35.8618 5.37452 6
      vertex -38 38 6
    endloop
  endfacet
  facet normal 0 0 1
    outer loop
      vertex -25.8596 19.2103 6
      vertex -31.445 29.0501 6
      vertex -32.8019 30.1322 6
    endloop
  endfacet
  facet normal 0 0 1
    outer loop
      vertex 30.555 29.0501 6
      vertex 17.4568 19.2103 6
      vertex 21.9846 15.1942 6
    endloop
  endfacet
  facet normal 0 0 1
    outer loop
      vertex -29.753 32.5637 6
      vertex -29 31 6
      vertex -14.2036 24.5848 6
    endloop
  endfacet
  facet normal 0 0 1
    outer loop
      vertex -25.8596 19.2103 6
      vertex -20.3853 22.3868 6
      vertex -29.753 29.4363 6
    endloop
  endfacet
  facet normal 0 0 1
    outer loop
      vertex 17.4568 -19.2103 6
      vertex 11.9824 -22.3868 6
      vertex 29.1981 -31.8678 6
    endloop
  endfacet
  facet normal 1 0 0
    outer loop
      vertex 38 -38 6
      vertex 38 -38 0
      vertex 38 38 0
    endloop
  endfacet
  facet normal 1 0 0
    outer loop
      vertex 38 38 6
      vertex 38 -38 6
      vertex 38 38 0
    endloop
  endfacet
  facet normal 1 0 0
    outer loop
      vertex -35.75 35.75 0
      vertex -35.75 35.75 3
      vertex -35.75 -35.75 3
    endloop
  endfacet
  facet normal 1 0 0
    outer loop
      vertex -35.75 -35.75 0
      vertex -35.75 35.75 0
      vertex -35.75 -35.75 3
    endloop
  endfacet
  facet normal 0 -1 0
    outer loop
      vertex 35.75 35.75 0
      vertex 35.75 35.75 3
      vertex -35.75 35.75 3
    endloop
  endfacet
  facet normal 0 -1 0
    outer loop
      vertex -35.75 35.75 0
      vertex 35.75 35.75 0
      vertex -35.75 35.75 3
    endloop
  endfacet
  facet normal -1 0 0
    outer loop
      vertex 35.75 35.75 3
      vertex 35.75 35.75 0
      vertex 35.75 -35.75 3
    endloop
  endfacet
  facet normal -1 0 0
    outer loop
      vertex 35.75 -35.75 3
      vertex 35.75 35.75 0
      vertex 35.75 -35.75 0
    endloop
  endfacet
  facet normal 0 1 0
    outer loop
      vertex 35.75 -35.75 3
      vertex 35.75 -35.75 0
      vertex -35.75 -35.75 3
    endloop
  endfacet
  facet normal 0 1 0
    outer loop
      vertex -35.75 -35.75 3
      vertex 35.75 -35.75 0
      vertex -35.75 -35.75 0
    endloop
  endfacet
  facet normal -0.79426 -0.104529 -0.598518
    outer loop
      vertex -37.5318 0 7.27759
      vertex -36.5691 0 6
      vertex -37.0807 -5.37452 7.61754
    endloop
  endfacet
  facet normal -0.79426 -0.104529 -0.598518
    outer loop
      vertex -37.0807 -5.37452 7.61754
      vertex -36.5691 0 6
      vertex -35.8618 -5.37452 6
    endloop
  endfacet
  facet normal -0.759548 -0.309017 -0.57236
    outer loop
      vertex -37.0807 -5.37452 7.61754
      vertex -35.8618 -5.37452 6
      vertex -35.747 -10.5141 8.62255
    endloop
  endfacet
  facet normal -0.759548 -0.309017 -0.57236
    outer loop
      vertex -35.747 -10.5141 8.62255
      vertex -35.8618 -5.37452 6
      vertex -33.7708 -10.5141 6
    endloop
  endfacet
  facet normal -0.691639 -0.5 -0.521187
    outer loop
      vertex -35.747 -10.5141 8.62255
      vertex -33.7708 -10.5141 6
      vertex -33.5891 -15.1942 10.2487
    endloop
  endfacet
  facet normal -0.691639 -0.5 -0.521187
    outer loop
      vertex -33.5891 -15.1942 10.2487
      vertex -33.7708 -10.5141 6
      vertex -30.3874 -15.1942 6
    endloop
  endfacet
  facet normal -0.593502 -0.669131 -0.447236
    outer loop
      vertex -30.7011 -19.2103 12.4249
      vertex -33.5891 -15.1942 10.2487
      vertex -30.3874 -15.1942 6
    endloop
  endfacet
  facet normal -0.593502 -0.669131 -0.447236
    outer loop
      vertex -25.8596 -19.2103 6
      vertex -30.7011 -19.2103 12.4249
      vertex -30.3874 -15.1942 6
    endloop
  endfacet
  facet normal -0.469426 -0.809017 -0.353738
    outer loop
      vertex -27.2095 -22.3868 15.056
      vertex -30.7011 -19.2103 12.4249
      vertex -25.8596 -19.2103 6
    endloop
  endfacet
  facet normal -0.469426 -0.809017 -0.353738
    outer loop
      vertex -20.3853 -22.3868 6
      vertex -27.2095 -22.3868 15.056
      vertex -25.8596 -19.2103 6
    endloop
  endfacet
  facet normal -0.324834 -0.913545 -0.24478
    outer loop
      vertex -23.2667 -24.5848 18.0272
      vertex -27.2095 -22.3868 15.056
      vertex -20.3853 -22.3868 6
    endloop
  endfacet
  facet normal -0.324834 -0.913545 -0.24478
    outer loop
      vertex -14.2036 -24.5848 6
      vertex -23.2667 -24.5848 18.0272
      vertex -20.3853 -22.3868 6
    endloop
  endfacet
  facet normal -0.166046 -0.978148 -0.125124
    outer loop
      vertex -19.0451 -25.7084 21.2084
      vertex -23.2667 -24.5848 18.0272
      vertex -14.2036 -24.5848 6
    endloop
  endfacet
  facet normal -0.166046 -0.978148 -0.125124
    outer loop
      vertex -7.58476 -25.7084 6
      vertex -19.0451 -25.7084 21.2084
      vertex -14.2036 -24.5848 6
    endloop
  endfacet
  facet normal 0 -1 0
    outer loop
      vertex -14.7292 -25.7084 24.4606
      vertex -19.0451 -25.7084 21.2084
      vertex -7.58476 -25.7084 6
    endloop
  endfacet
  facet normal 0 -1 0
    outer loop
      vertex -0.818065 -25.7084 6
      vertex -14.7292 -25.7084 24.4606
      vertex -7.58476 -25.7084 6
    endloop
  endfacet
  facet normal 0.166046 -0.978148 0.125124
    outer loop
      vertex -10.5075 -24.5848 27.6419
      vertex -14.7292 -25.7084 24.4606
      vertex -0.818065 -25.7084 6
    endloop
  endfacet
  facet normal 0.166046 -0.978148 0.125124
    outer loop
      vertex 5.80076 -24.5848 6
      vertex -10.5075 -24.5848 27.6419
      vertex -0.818065 -25.7084 6
    endloop
  endfacet
  facet normal 0.324834 -0.913545 0.24478
    outer loop
      vertex -6.56476 -22.3868 30.613
      vertex -10.5075 -24.5848 27.6419
      vertex 5.80076 -24.5848 6
    endloop
  endfacet
  facet normal 0.324834 -0.913545 0.24478
    outer loop
      vertex 11.9824 -22.3868 6
      vertex -6.56476 -22.3868 30.613
      vertex 5.80076 -24.5848 6
    endloop
  endfacet
  facet normal 0.469426 -0.809017 0.353738
    outer loop
      vertex -3.0731 -19.2103 33.2441
      vertex -6.56476 -22.3868 30.613
      vertex 11.9824 -22.3868 6
    endloop
  endfacet
  facet normal 0.469426 -0.809017 0.353738
    outer loop
      vertex 17.4568 -19.2103 6
      vertex -3.0731 -19.2103 33.2441
      vertex 11.9824 -22.3868 6
    endloop
  endfacet
  facet normal 0.593502 -0.669131 0.447236
    outer loop
      vertex -0.185186 -15.1942 35.4203
      vertex -3.0731 -19.2103 33.2441
      vertex 17.4568 -19.2103 6
    endloop
  endfacet
  facet normal 0.593502 -0.669131 0.447236
    outer loop
      vertex 21.9846 -15.1942 6
      vertex -0.185186 -15.1942 35.4203
      vertex 17.4568 -19.2103 6
    endloop
  endfacet
  facet normal 0.691639 -0.5 0.521187
    outer loop
      vertex 1.97278 -10.5141 37.0465
      vertex -0.185186 -15.1942 35.4203
      vertex 21.9846 -15.1942 6
    endloop
  endfacet
  facet normal 0.691639 -0.5 0.521187
    outer loop
      vertex 25.368 -10.5141 6
      vertex 1.97278 -10.5141 37.0465
      vertex 21.9846 -15.1942 6
    endloop
  endfacet
  facet normal 0.759548 -0.309017 0.57236
    outer loop
      vertex 3.30647 -5.37452 38.0515
      vertex 1.97278 -10.5141 37.0465
      vertex 25.368 -10.5141 6
    endloop
  endfacet
  facet normal 0.759548 -0.309017 0.57236
    outer loop
      vertex 27.459 -5.37452 6
      vertex 3.30647 -5.37452 38.0515
      vertex 25.368 -10.5141 6
    endloop
  endfacet
  facet normal 0.79426 -0.104529 0.598518
    outer loop
      vertex 3.75761 0 38.3914
      vertex 3.30647 -5.37452 38.0515
      vertex 27.459 -5.37452 6
    endloop
  endfacet
  facet normal 0.79426 -0.104529 0.598518
    outer loop
      vertex 28.1663 0 6
      vertex 3.75761 0 38.3914
      vertex 27.459 -5.37452 6
    endloop
  endfacet
  facet normal 0.79426 0.104529 0.598518
    outer loop
      vertex 27.459 5.37452 6
      vertex 3.30647 5.37452 38.0515
      vertex 3.75761 0 38.3914
    endloop
  endfacet
  facet normal 0.79426 0.104529 0.598518
    outer loop
      vertex 28.1663 0 6
      vertex 27.459 5.37452 6
      vertex 3.75761 0 38.3914
    endloop
  endfacet
  facet normal 0.759548 0.309017 0.57236
    outer loop
      vertex 25.368 10.5141 6
      vertex 1.97278 10.5141 37.0465
      vertex 3.30647 5.37452 38.0515
    endloop
  endfacet
  facet normal 0.759548 0.309017 0.57236
    outer loop
      vertex 27.459 5.37452 6
      vertex 25.368 10.5141 6
      vertex 3.30647 5.37452 38.0515
    endloop
  endfacet
  facet normal 0.691639 0.5 0.521187
    outer loop
      vertex 21.9846 15.1942 6
      vertex -0.185186 15.1942 35.4203
      vertex 1.97278 10.5141 37.0465
    endloop
  endfacet
  facet normal 0.691639 0.5 0.521187
    outer loop
      vertex 25.368 10.5141 6
      vertex 21.9846 15.1942 6
      vertex 1.97278 10.5141 37.0465
    endloop
  endfacet
  facet normal 0.593502 0.669131 0.447236
    outer loop
      vertex -3.0731 19.2103 33.2441
      vertex -0.185186 15.1942 35.4203
      vertex 17.4568 19.2103 6
    endloop
  endfacet
  facet normal 0.593502 0.669131 0.447236
    outer loop
      vertex 17.4568 19.2103 6
      vertex -0.185186 15.1942 35.4203
      vertex 21.9846 15.1942 6
    endloop
  endfacet
  facet normal 0.469426 0.809017 0.353738
    outer loop
      vertex -6.56476 22.3868 30.613
      vertex -3.0731 19.2103 33.2441
      vertex 11.9824 22.3868 6
    endloop
  endfacet
  facet normal 0.469426 0.809017 0.353738
    outer loop
      vertex 11.9824 22.3868 6
      vertex -3.0731 19.2103 33.2441
      vertex 17.4568 19.2103 6
    endloop
  endfacet
  facet normal 0.324834 0.913545 0.24478
    outer loop
      vertex -10.5075 24.5848 27.6419
      vertex -6.56476 22.3868 30.613
      vertex 5.80076 24.5848 6
    endloop
  endfacet
  facet normal 0.324834 0.913545 0.24478
    outer loop
      vertex 5.80076 24.5848 6
      vertex -6.56476 22.3868 30.613
      vertex 11.9824 22.3868 6
    endloop
  endfacet
  facet normal 0.166046 0.978148 0.125124
    outer loop
      vertex -14.7292 25.7084 24.4606
      vertex -10.5075 24.5848 27.6419
      vertex -0.818065 25.7084 6
    endloop
  endfacet
  facet normal 0.166046 0.978148 0.125124
    outer loop
      vertex -0.818065 25.7084 6
      vertex -10.5075 24.5848 27.6419
      vertex 5.80076 24.5848 6
    endloop
  endfacet
  facet normal 0 1 0
    outer loop
      vertex -19.0451 25.7084 21.2084
      vertex -14.7292 25.7084 24.4606
      vertex -7.58476 25.7084 6
    endloop
  endfacet
  facet normal 0 1 0
    outer loop
      vertex -7.58476 25.7084 6
      vertex -14.7292 25.7084 24.4606
      vertex -0.818065 25.7084 6
    endloop
  endfacet
  facet normal -0.166046 0.978148 -0.125124
    outer loop
      vertex -23.2667 24.5848 18.0272
      vertex -19.0451 25.7084 21.2084
      vertex -14.2036 24.5848 6
    endloop
  endfacet
  facet normal -0.166046 0.978148 -0.125124
    outer loop
      vertex -14.2036 24.5848 6
      vertex -19.0451 25.7084 21.2084
      vertex -7.58476 25.7084 6
    endloop
  endfacet
  facet normal -0.324834 0.913545 -0.24478
    outer loop
      vertex -27.2095 22.3868 15.056
      vertex -23.2667 24.5848 18.0272
      vertex -20.3853 22.3868 6
    endloop
  endfacet
  facet normal -0.324834 0.913545 -0.24478
    outer loop
      vertex -20.3853 22.3868 6
      vertex -23.2667 24.5848 18.0272
      vertex -14.2036 24.5848 6
    endloop
  endfacet
  facet normal -0.469426 0.809017 -0.353738
    outer loop
      vertex -30.7011 19.2103 12.4249
      vertex -27.2095 22.3868 15.056
      vertex -25.8596 19.2103 6
    endloop
  endfacet
  facet normal -0.469426 0.809017 -0.353738
    outer loop
      vertex -25.8596 19.2103 6
      vertex -27.2095 22.3868 15.056
      vertex -20.3853 22.3868 6
    endloop
  endfacet
  facet normal -0.593502 0.669131 -0.447236
    outer loop
      vertex -33.5891 15.1942 10.2487
      vertex -30.7011 19.2103 12.4249
      vertex -30.3874 15.1942 6
    endloop
  endfacet
  facet normal -0.593502 0.669131 -0.447236
    outer loop
      vertex -30.3874 15.1942 6
      vertex -30.7011 19.2103 12.4249
      vertex -25.8596 19.2103 6
    endloop
  endfacet
  facet normal -0.691639 0.5 -0.521187
    outer loop
      vertex -35.747 10.5141 8.62255
      vertex -33.5891 15.1942 10.2487
      vertex -33.7708 10.5141 6
    endloop
  endfacet
  facet normal -0.691639 0.5 -0.521187
    outer loop
      vertex -33.7708 10.5141 6
      vertex -33.5891 15.1942 10.2487
      vertex -30.3874 15.1942 6
    endloop
  endfacet
  facet normal -0.759548 0.309017 -0.57236
    outer loop
      vertex -37.0807 5.37452 7.61754
      vertex -35.747 10.5141 8.62255
      vertex -35.8618 5.37452 6
    endloop
  endfacet
  facet normal -0.759548 0.309017 -0.57236
    outer loop
      vertex -35.8618 5.37452 6
      vertex -35.747 10.5141 8.62255
      vertex -33.7708 10.5141 6
    endloop
  endfacet
  facet normal -0.79426 0.104529 -0.598518
    outer loop
      vertex -37.5318 0 7.27759
      vertex -37.0807 5.37452 7.61754
      vertex -36.5691 0 6
    endloop
  endfacet
  facet normal -0.79426 0.104529 -0.598518
    outer loop
      vertex -36.5691 0 6
      vertex -37.0807 5.37452 7.61754
      vertex -35.8618 5.37452 6
    endloop
  endfacet
  facet normal 1 0 0
    outer loop
      vertex -32.8019 -30.1322 3
      vertex -32.8019 -30.1322 6
      vertex -32.8019 -31.8678 6
    endloop
  endfacet
  facet normal 1 0 0
    outer loop
      vertex -32.8019 -31.8678 3
      vertex -32.8019 -30.1322 3
      vertex -32.8019 -31.8678 6
    endloop
  endfacet
  facet normal 0.62349 0.781831 0
    outer loop
      vertex -31.445 -32.9499 6
      vertex -31.445 -32.9499 3
      vertex -32.8019 -31.8678 6
    endloop
  endfacet
  facet normal 0.62349 0.781831 0
    outer loop
      vertex -32.8019 -31.8678 6
      vertex -31.445 -32.9499 3
      vertex -32.8019 -31.8678 3
    endloop
  endfacet
  facet normal -0.222521 0.974928 0
    outer loop
      vertex -29.753 -32.5637 6
      vertex -29.753 -32.5637 3
      vertex -31.445 -32.9499 6
    endloop
  endfacet
  facet normal -0.222521 0.974928 0
    outer loop
      vertex -31.445 -32.9499 6
      vertex -29.753 -32.5637 3
      vertex -31.445 -32.9499 3
    endloop
  endfacet
  facet normal -0.900969 0.433884 0
    outer loop
      vertex -29 -31 6
      vertex -29 -31 3
      vertex -29.753 -32.5637 6
    endloop
  endfacet
  facet normal -0.900969 0.433884 0
    outer loop
      vertex -29.753 -32.5637 6
      vertex -29 -31 3
      vertex -29.753 -32.5637 3
    endloop
  endfacet
  facet normal -0.900969 -0.433884 0
    outer loop
      vertex -29 -31 6
      vertex -29.753 -29.4363 6
      vertex -29 -31 3
    endloop
  endfacet
  facet normal -0.900969 -0.433884 0
    outer loop
      vertex -29 -31 3
      vertex -29.753 -29.4363 6
      vertex -29.753 -29.4363 3
    endloop
  endfacet
  facet normal -0.222521 -0.974928 0
    outer loop
      vertex -29.753 -29.4363 3
      vertex -29.753 -29.4363 6
      vertex -31.445 -29.0501 6
    endloop
  endfacet
  facet normal -0.222521 -0.974928 0
    outer loop
      vertex -31.445 -29.0501 3
      vertex -29.753 -29.4363 3
      vertex -31.445 -29.0501 6
    endloop
  endfacet
  facet normal 0.62349 -0.781831 0
    outer loop
      vertex -31.445 -29.0501 3
      vertex -31.445 -29.0501 6
      vertex -32.8019 -30.1322 6
    endloop
  endfacet
  facet normal 0.62349 -0.781831 0
    outer loop
      vertex -32.8019 -30.1322 3
      vertex -31.445 -29.0501 3
      vertex -32.8019 -30.1322 6
    endloop
  endfacet
  facet normal 1 0 0
    outer loop
      vertex -32.8019 31.8678 3
      vertex -32.8019 31.8678 6
      vertex -32.8019 30.1322 6
    endloop
  endfacet
  facet normal 1 0 0
    outer loop
      vertex -32.8019 30.1322 3
      vertex -32.8019 31.8678 3
      vertex -32.8019 30.1322 6
    endloop
  endfacet
  facet normal 0.62349 0.781831 0
    outer loop
      vertex -31.445 29.0501 6
      vertex -31.445 29.0501 3
      vertex -32.8019 30.1322 6
    endloop
  endfacet
  facet normal 0.62349 0.781831 0
    outer loop
      vertex -32.8019 30.1322 6
      vertex -31.445 29.0501 3
      vertex -32.8019 30.1322 3
    endloop
  endfacet
  facet normal -0.222521 0.974928 0
    outer loop
      vertex -29.753 29.4363 6
      vertex -29.753 29.4363 3
      vertex -31.445 29.0501 6
    endloop
  endfacet
  facet normal -0.222521 0.974928 0
    outer loop
      vertex -31.445 29.0501 6
      vertex -29.753 29.4363 3
      vertex -31.445 29.0501 3
    endloop
  endfacet
  facet normal -0.900969 0.433884 0
    outer loop
      vertex -29 31 6
      vertex -29 31 3
      vertex -29.753 29.4363 6
    endloop
  endfacet
  facet normal -0.900969 0.433884 0
    outer loop
      vertex -29.753 29.4363 6
      vertex -29 31 3
      vertex -29.753 29.4363 3
    endloop
  endfacet
  facet normal -0.900969 -0.433884 0
    outer loop
      vertex -29 31 6
      vertex -29.753 32.5637 6
      vertex -29 31 3
    endloop
  endfacet
  facet normal -0.900969 -0.433884 0
    outer loop
      vertex -29 31 3
      vertex -29.753 32.5637 6
      vertex -29.753 32.5637 3
    endloop
  endfacet
  facet normal -0.222521 -0.974928 0
    outer loop
      vertex -29.753 32.5637 3
      vertex -29.753 32.5637 6
      vertex -31.445 32.9499 6
    endloop
  endfacet
  facet normal -0.222521 -0.974928 0
    outer loop
      vertex -31.445 32.9499 3
      vertex -29.753 32.5637 3
      vertex -31.445 32.9499 6
    endloop
  endfacet
  facet normal 0.62349 -0.781831 0
    outer loop
      vertex -31.445 32.9499 3
      vertex -31.445 32.9499 6
      vertex -32.8019 31.8678 6
    endloop
  endfacet
  facet normal 0.62349 -0.781831 0
    outer loop
      vertex -32.8019 31.8678 3
      vertex -31.445 32.9499 3
      vertex -32.8019 31.8678 6
    endloop
  endfacet
  facet normal 1 0 0
    outer loop
      vertex 29.1981 -30.1322 3
      vertex 29.1981 -30.1322 6
      vertex 29.1981 -31.8678 6
    endloop
  endfacet
  facet normal 1 0 0
    outer loop
      vertex 29.1981 -31.8678 3
      vertex 29.1981 -30.1322 3
      vertex 29.1981 -31.8678 6
    endloop
  endfacet
  facet normal 0.62349 0.781831 0
    outer loop
      vertex 30.555 -32.9499 6
      vertex 30.555 -32.9499 3
      vertex 29.1981 -31.8678 6
    endloop
  endfacet
  facet normal 0.62349 0.781831 0
    outer loop
      vertex 29.1981 -31.8678 6
      vertex 30.555 -32.9499 3
      vertex 29.1981 -31.8678 3
    endloop
  endfacet
  facet normal -0.222521 0.974928 0
    outer loop
      vertex 32.247 -32.5637 6
      vertex 32.247 -32.5637 3
      vertex 30.555 -32.9499 6
    endloop
  endfacet
  facet normal -0.222521 0.974928 0
    outer loop
      vertex 30.555 -32.9499 6
      vertex 32.247 -32.5637 3
      vertex 30.555 -32.9499 3
    endloop
  endfacet
  facet normal -0.900969 0.433884 0
    outer loop
      vertex 33 -31 6
      vertex 33 -31 3
      vertex 32.247 -32.5637 6
    endloop
  endfacet
  facet normal -0.900969 0.433884 0
    outer loop
      vertex 32.247 -32.5637 6
      vertex 33 -31 3
      vertex 32.247 -32.5637 3
    endloop
  endfacet
  facet normal -0.900969 -0.433884 0
    outer loop
      vertex 33 -31 6
      vertex 32.247 -29.4363 6
      vertex 33 -31 3
    endloop
  endfacet
  facet normal -0.900969 -0.433884 0
    outer loop
      vertex 33 -31 3
      vertex 32.247 -29.4363 6
      vertex 32.247 -29.4363 3
    endloop
  endfacet
  facet normal -0.222521 -0.974928 0
    outer loop
      vertex 32.247 -29.4363 3
      vertex 32.247 -29.4363 6
      vertex 30.555 -29.0501 6
    endloop
  endfacet
  facet normal -0.222521 -0.974928 0
    outer loop
      vertex 30.555 -29.0501 3
      vertex 32.247 -29.4363 3
      vertex 30.555 -29.0501 6
    endloop
  endfacet
  facet normal 0.62349 -0.781831 0
    outer loop
      vertex 30.555 -29.0501 3
      vertex 30.555 -29.0501 6
      vertex 29.1981 -30.1322 6
    endloop
  endfacet
  facet normal 0.62349 -0.781831 0
    outer loop
      vertex 29.1981 -30.1322 3
      vertex 30.555 -29.0501 3
      vertex 29.1981 -30.1322 6
    endloop
  endfacet
  facet normal 1 0 0
    outer loop
      vertex 29.1981 31.8678 3
      vertex 29.1981 31.8678 6
      vertex 29.1981 30.1322 6
    endloop
  endfacet
  facet normal 1 0 0
    outer loop
      vertex 29.1981 30.1322 3
      vertex 29.1981 31.8678 3
      vertex 29.1981 30.1322 6
    endloop
  endfacet
  facet normal 0.62349 0.781831 0
    outer loop
      vertex 30.555 29.0501 6
      vertex 30.555 29.0501 3
      vertex 29.1981 30.1322 6
    endloop
  endfacet
  facet normal 0.62349 0.781831 0
    outer loop
      vertex 29.1981 30.1322 6
      vertex 30.555 29.0501 3
      vertex 29.1981 30.1322 3
    endloop
  endfacet
  facet normal -0.222521 0.974928 0
    outer loop
      vertex 32.247 29.4363 6
      vertex 32.247 29.4363 3
      vertex 30.555 29.0501 6
    endloop
  endfacet
  facet normal -0.222521 0.974928 0
    outer loop
      vertex 30.555 29.0501 6
      vertex 32.247 29.4363 3
      vertex 30.555 29.0501 3
    endloop
  endfacet
  facet normal -0.900969 0.433884 0
    outer loop
      vertex 33 31 6
      vertex 33 31 3
      vertex 32.247 29.4363 6
    endloop
  endfacet
  facet normal -0.900969 0.433884 0
    outer loop
      vertex 32.247 29.4363 6
      vertex 33 31 3
      vertex 32.247 29.4363 3
    endloop
  endfacet
  facet normal -0.900969 -0.433884 0
    outer loop
      vertex 33 31 6
      vertex 32.247 32.5637 6
      vertex 33 31 3
    endloop
  endfacet
  facet normal -0.900969 -0.433884 0
    outer loop
      vertex 33 31 3
      vertex 32.247 32.5637 6
      vertex 32.247 32.5637 3
    endloop
  endfacet
  facet normal -0.222521 -0.974928 0
    outer loop
      vertex 32.247 32.5637 3
      vertex 32.247 32.5637 6
      vertex 30.555 32.9499 6
    endloop
  endfacet
  facet normal -0.222521 -0.974928 0
    outer loop
      vertex 30.555 32.9499 3
      vertex 32.247 32.5637 3
      vertex 30.555 32.9499 6
    endloop
  endfacet
  facet normal 0.62349 -0.781831 0
    outer loop
      vertex 30.555 32.9499 3
      vertex 30.555 32.9499 6
      vertex 29.1981 31.8678 6
    endloop
  endfacet
  facet normal 0.62349 -0.781831 0
    outer loop
      vertex 29.1981 31.8678 3
      vertex 30.555 32.9499 3
      vertex 29.1981 31.8678 6
    endloop
  endfacet
  facet normal 0 0 -1
    outer loop
      vertex -32.8019 31.8678 3
      vertex -35.75 35.75 3
      vertex -31.445 32.9499 3
    endloop
  endfacet
  facet normal 0 0 -1
    outer loop
      vertex -31.445 -32.9499 3
      vertex 35.75 -35.75 3
      vertex -35.75 -35.75 3
    endloop
  endfacet
  facet normal 0 0 -1
    outer loop
      vertex -32.8019 30.1322 3
      vertex -35.75 35.75 3
      vertex -32.8019 31.8678 3
    endloop
  endfacet
  facet normal 0 0 -1
    outer loop
      vertex -35.75 35.75 3
      vertex -32.8019 -31.8678 3
      vertex -35.75 -35.75 3
    endloop
  endfacet
  facet normal 0 0 -1
    outer loop
      vertex -29.753 -32.5637 3
      vertex 35.75 -35.75 3
      vertex -31.445 -32.9499 3
    endloop
  endfacet
  facet normal 0 0 -1
    outer loop
      vertex -32.8019 -31.8678 3
      vertex -31.445 -32.9499 3
      vertex -35.75 -35.75 3
    endloop
  endfacet
  facet normal 0 0 -1
    outer loop
      vertex 30.555 -32.9499 3
      vertex 35.75 -35.75 3
      vertex -29 -31 3
    endloop
  endfacet
  facet normal 0 0 -1
    outer loop
      vertex 30.5 -25.5 3
      vertex 32.247 -29.4363 3
      vertex 30.555 -29.0501 3
    endloop
  endfacet
  facet normal 0 0 -1
    outer loop
      vertex -30.5 -25.5 3
      vertex -29.753 -29.4363 3
      vertex -31.445 -29.0501 3
    endloop
  endfacet
  facet normal 0 0 -1
    outer loop
      vertex -35.75 35.75 3
      vertex -31.445 -29.0501 3
      vertex -32.8019 -30.1322 3
    endloop
  endfacet
  facet normal 0 0 -1
    outer loop
      vertex -35.75 35.75 3
      vertex -32.8019 -30.1322 3
      vertex -32.8019 -31.8678 3
    endloop
  endfacet
  facet normal 0 0 -1
    outer loop
      vertex 35.75 35.75 3
      vertex -29 31 3
      vertex -29.753 32.5637 3
    endloop
  endfacet
  facet normal 0 0 -1
    outer loop
      vertex 35.75 35.75 3
      vertex -29.753 32.5637 3
      vertex -35.75 35.75 3
    endloop
  endfacet
  facet normal 0 0 -1
    outer loop
      vertex -29.753 32.5637 3
      vertex -31.445 32.9499 3
      vertex -35.75 35.75 3
    endloop
  endfacet
  facet normal 0 0 -1
    outer loop
      vertex -30.5 -25.5 3
      vertex -35.75 35.75 3
      vertex -32.8019 30.1322 3
    endloop
  endfacet
  facet normal 0 0 -1
    outer loop
      vertex -30.5 -25.5 3
      vertex -32.8019 30.1322 3
      vertex -30.5 25.5 3
    endloop
  endfacet
  facet normal 0 0 -1
    outer loop
      vertex -35.75 35.75 3
      vertex -30.5 -25.5 3
      vertex -31.445 -29.0501 3
    endloop
  endfacet
  facet normal 0 0 -1
    outer loop
      vertex 35.75 35.75 3
      vertex 35.75 -35.75 3
      vertex 30.5 -25.5 3
    endloop
  endfacet
  facet normal 0 0 -1
    outer loop
      vertex 35.75 35.75 3
      vertex 30.5 -25.5 3
      vertex 30.5 25.5 3
    endloop
  endfacet
  facet normal 0 0 -1
    outer loop
      vertex 29.1981 30.1322 3
      vertex 30.5 25.5 3
      vertex -29 31 3
    endloop
  endfacet
  facet normal 0 0 -1
    outer loop
      vertex 33 -31 3
      vertex 35.75 -35.75 3
      vertex 32.247 -32.5637 3
    endloop
  endfacet
  facet normal 0 0 -1
    outer loop
      vertex 29.1981 -31.8678 3
      vertex 30.555 -32.9499 3
      vertex -29 -31 3
    endloop
  endfacet
  facet normal 0 0 -1
    outer loop
      vertex 30.5 -25.5 3
      vertex 35.75 -35.75 3
      vertex 33 -31 3
    endloop
  endfacet
  facet normal 0 0 -1
    outer loop
      vertex -30.5 25.5 3
      vertex -29 31 3
      vertex 30.5 25.5 3
    endloop
  endfacet
  facet normal 0 0 -1
    outer loop
      vertex 30.5 -25.5 3
      vertex 33 -31 3
      vertex 32.247 -29.4363 3
    endloop
  endfacet
  facet normal 0 0 -1
    outer loop
      vertex -30.5 25.5 3
      vertex -29.753 29.4363 3
      vertex -29 31 3
    endloop
  endfacet
  facet normal 0 0 -1
    outer loop
      vertex 32.247 32.5637 3
      vertex 35.75 35.75 3
      vertex 33 31 3
    endloop
  endfacet
  facet normal 0 0 -1
    outer loop
      vertex 30.555 29.0501 3
      vertex 30.5 25.5 3
      vertex 29.1981 30.1322 3
    endloop
  endfacet
  facet normal 0 0 -1
    outer loop
      vertex 29.1981 31.8678 3
      vertex 29.1981 30.1322 3
      vertex -29 31 3
    endloop
  endfacet
  facet normal 0 0 -1
    outer loop
      vertex 32.247 29.4363 3
      vertex 30.5 25.5 3
      vertex 30.555 29.0501 3
    endloop
  endfacet
  facet normal 0 0 -1
    outer loop
      vertex 35.75 35.75 3
      vertex 30.5 25.5 3
      vertex 32.247 29.4363 3
    endloop
  endfacet
  facet normal 0 0 -1
    outer loop
      vertex 35.75 35.75 3
      vertex 32.247 29.4363 3
      vertex 33 31 3
    endloop
  endfacet
  facet normal 0 0 -1
    outer loop
      vertex 30.555 32.9499 3
      vertex 35.75 35.75 3
      vertex 32.247 32.5637 3
    endloop
  endfacet
  facet normal 0 0 -1
    outer loop
      vertex 35.75 35.75 3
      vertex 30.555 32.9499 3
      vertex -29 31 3
    endloop
  endfacet
  facet normal 0 0 -1
    outer loop
      vertex 30.555 32.9499 3
      vertex 29.1981 31.8678 3
      vertex -29 31 3
    endloop
  endfacet
  facet normal 0 0 -1
    outer loop
      vertex -29 -31 3
      vertex 35.75 -35.75 3
      vertex -29.753 -32.5637 3
    endloop
  endfacet
  facet normal 0 0 -1
    outer loop
      vertex 30.5 -25.5 3
      vertex 30.555 -29.0501 3
      vertex 29.1981 -30.1322 3
    endloop
  endfacet
  facet normal 0 0 -1
    outer loop
      vertex 29.1981 -30.1322 3
      vertex 29.1981 -31.8678 3
      vertex -29 -31 3
    endloop
  endfacet
  facet normal 0 0 -1
    outer loop
      vertex 30.5 -25.5 3
      vertex 29.1981 -30.1322 3
      vertex -29 -31 3
    endloop
  endfacet
  facet normal 0 0 -1
    outer loop
      vertex 30.5 -25.5 3
      vertex -29 -31 3
      vertex -29.753 -29.4363 3
    endloop
  endfacet
  facet normal 0 0 -1
    outer loop
      vertex 30.5 -25.5 3
      vertex -29.753 -29.4363 3
      vertex -30.5 -25.5 3
    endloop
  endfacet
  facet normal 0 0 -1
    outer loop
      vertex -30.5 25.5 3
      vertex -32.8019 30.1322 3
      vertex -31.445 29.0501 3
    endloop
  endfacet
  facet normal 0 0 -1
    outer loop
      vertex -30.5 25.5 3
      vertex -31.445 29.0501 3
      vertex -29.753 29.4363 3
    endloop
  endfacet
  facet normal 0 0 -1
    outer loop
      vertex 32.247 -32.5637 3
      vertex 35.75 -35.75 3
      vertex 30.555 -32.9499 3
    endloop
  endfacet
  facet normal -0.601815 0 0.798636
    outer loop
      vertex -37.0807 5.37452 7.61754
      vertex -37.5318 0 7.27759
      vertex -37.0807 -5.37452 7.61754
    endloop
  endfacet
  facet normal -0.601815 0 0.798636
    outer loop
      vertex -33.5891 -15.1942 10.2487
      vertex -37.0807 5.37452 7.61754
      vertex -35.747 -10.5141 8.62255
    endloop
  endfacet
  facet normal -0.601815 0 0.798636
    outer loop
      vertex -35.747 -10.5141 8.62255
      vertex -37.0807 5.37452 7.61754
      vertex -37.0807 -5.37452 7.61754
    endloop
  endfacet
  facet normal -0.601815 0 0.798636
    outer loop
      vertex -30.7011 -19.2103 12.4249
      vertex -37.0807 5.37452 7.61754
      vertex -33.5891 -15.1942 10.2487
    endloop
  endfacet
  facet normal -0.601815 0 0.798636
    outer loop
      vertex -34.2305 -4.75078 9.76531
      vertex -37.0807 5.37452 7.61754
      vertex -30.7011 -19.2103 12.4249
    endloop
  endfacet
  facet normal -0.601815 0 0.798636
    outer loop
      vertex 1.46955 -4.75078 36.6672
      vertex 0.290635 -9.29393 35.7789
      vertex 3.30647 -5.37452 38.0515
    endloop
  endfacet
  facet normal -0.601815 0 0.798636
    outer loop
      vertex -25.5049 19.7887 16.3405
      vertex -22.0197 21.7316 18.9668
      vertex -19.0451 25.7084 21.2084
    endloop
  endfacet
  facet normal -0.601815 0 0.798636
    outer loop
      vertex -18.288 22.7248 21.7789
      vertex -14.473 22.7248 24.6537
      vertex -14.7292 25.7084 24.4606
    endloop
  endfacet
  facet normal -0.601815 0 0.798636
    outer loop
      vertex -27.2095 22.3868 15.056
      vertex -37.0807 5.37452 7.61754
      vertex -23.2667 24.5848 18.0272
    endloop
  endfacet
  facet normal -0.601815 0 0.798636
    outer loop
      vertex -30.7011 19.2103 12.4249
      vertex -37.0807 5.37452 7.61754
      vertex -27.2095 22.3868 15.056
    endloop
  endfacet
  facet normal -0.601815 0 0.798636
    outer loop
      vertex -33.5891 15.1942 10.2487
      vertex -37.0807 5.37452 7.61754
      vertex -30.7011 19.2103 12.4249
    endloop
  endfacet
  facet normal -0.601815 0 0.798636
    outer loop
      vertex -35.747 10.5141 8.62255
      vertex -37.0807 5.37452 7.61754
      vertex -33.5891 15.1942 10.2487
    endloop
  endfacet
  facet normal -0.601815 0 0.798636
    outer loop
      vertex -33.0516 -9.29393 10.6537
      vertex -34.2305 -4.75078 9.76531
      vertex -30.7011 -19.2103 12.4249
    endloop
  endfacet
  facet normal -0.601815 0 0.798636
    outer loop
      vertex -1.61689 -13.4309 34.3415
      vertex -4.16965 -16.9809 32.4178
      vertex -0.185186 -15.1942 35.4203
    endloop
  endfacet
  facet normal -0.601815 0 0.798636
    outer loop
      vertex 0.290635 -9.29393 35.7789
      vertex -1.61689 -13.4309 34.3415
      vertex 1.97278 -10.5141 37.0465
    endloop
  endfacet
  facet normal -0.601815 0 0.798636
    outer loop
      vertex -14.473 22.7248 24.6537
      vertex -10.7413 21.7316 27.4657
      vertex -10.5075 24.5848 27.6419
    endloop
  endfacet
  facet normal -0.601815 0 0.798636
    outer loop
      vertex 1.46955 4.75078 36.6672
      vertex 1.86833 0 36.9677
      vertex 3.75761 0 38.3914
    endloop
  endfacet
  facet normal -0.601815 0 0.798636
    outer loop
      vertex -23.2667 24.5848 18.0272
      vertex -37.0807 5.37452 7.61754
      vertex -31.1441 13.4309 12.0911
    endloop
  endfacet
  facet normal -0.601815 0 0.798636
    outer loop
      vertex -23.2667 24.5848 18.0272
      vertex -28.5913 16.9809 14.0147
      vertex -19.0451 25.7084 21.2084
    endloop
  endfacet
  facet normal -0.601815 0 0.798636
    outer loop
      vertex -23.2667 24.5848 18.0272
      vertex -31.1441 13.4309 12.0911
      vertex -28.5913 16.9809 14.0147
    endloop
  endfacet
  facet normal -0.601815 0 0.798636
    outer loop
      vertex -28.5913 16.9809 14.0147
      vertex -25.5049 19.7887 16.3405
      vertex -19.0451 25.7084 21.2084
    endloop
  endfacet
  facet normal -0.601815 0 0.798636
    outer loop
      vertex -19.0451 25.7084 21.2084
      vertex -22.0197 21.7316 18.9668
      vertex -14.7292 25.7084 24.4606
    endloop
  endfacet
  facet normal -0.601815 0 0.798636
    outer loop
      vertex -22.0197 21.7316 18.9668
      vertex -18.288 22.7248 21.7789
      vertex -14.7292 25.7084 24.4606
    endloop
  endfacet
  facet normal -0.601815 0 0.798636
    outer loop
      vertex -14.7292 25.7084 24.4606
      vertex -14.473 22.7248 24.6537
      vertex -10.5075 24.5848 27.6419
    endloop
  endfacet
  facet normal -0.601815 0 0.798636
    outer loop
      vertex -33.0516 9.29393 10.6537
      vertex -31.1441 13.4309 12.0911
      vertex -37.0807 5.37452 7.61754
    endloop
  endfacet
  facet normal -0.601815 0 0.798636
    outer loop
      vertex -10.5075 24.5848 27.6419
      vertex -10.7413 21.7316 27.4657
      vertex -6.56476 22.3868 30.613
    endloop
  endfacet
  facet normal -0.601815 0 0.798636
    outer loop
      vertex -6.56476 22.3868 30.613
      vertex -7.25608 19.7887 30.092
      vertex -3.0731 19.2103 33.2441
    endloop
  endfacet
  facet normal -0.601815 0 0.798636
    outer loop
      vertex -3.0731 19.2103 33.2441
      vertex -4.16965 16.9809 32.4178
      vertex -0.185186 15.1942 35.4203
    endloop
  endfacet
  facet normal -0.601815 0 0.798636
    outer loop
      vertex -0.185186 15.1942 35.4203
      vertex -1.61689 13.4309 34.3415
      vertex 1.97278 10.5141 37.0465
    endloop
  endfacet
  facet normal -0.601815 0 0.798636
    outer loop
      vertex 1.97278 10.5141 37.0465
      vertex 0.290635 9.29393 35.7789
      vertex 3.30647 5.37452 38.0515
    endloop
  endfacet
  facet normal -0.601815 0 0.798636
    outer loop
      vertex 3.30647 5.37452 38.0515
      vertex 1.46955 4.75078 36.6672
      vertex 3.75761 0 38.3914
    endloop
  endfacet
  facet normal -0.601815 0 0.798636
    outer loop
      vertex 3.75761 0 38.3914
      vertex 1.86833 0 36.9677
      vertex 3.30647 -5.37452 38.0515
    endloop
  endfacet
  facet normal -0.601815 0 0.798636
    outer loop
      vertex 1.86833 0 36.9677
      vertex 1.46955 -4.75078 36.6672
      vertex 3.30647 -5.37452 38.0515
    endloop
  endfacet
  facet normal -0.601815 0 0.798636
    outer loop
      vertex 3.30647 -5.37452 38.0515
      vertex 0.290635 -9.29393 35.7789
      vertex 1.97278 -10.5141 37.0465
    endloop
  endfacet
  facet normal -0.601815 0 0.798636
    outer loop
      vertex -10.7413 21.7316 27.4657
      vertex -7.25608 19.7887 30.092
      vertex -6.56476 22.3868 30.613
    endloop
  endfacet
  facet normal -0.601815 0 0.798636
    outer loop
      vertex 1.97278 -10.5141 37.0465
      vertex -1.61689 -13.4309 34.3415
      vertex -0.185186 -15.1942 35.4203
    endloop
  endfacet
  facet normal -0.601815 0 0.798636
    outer loop
      vertex -7.25608 19.7887 30.092
      vertex -4.16965 16.9809 32.4178
      vertex -3.0731 19.2103 33.2441
    endloop
  endfacet
  facet normal -0.601815 0 0.798636
    outer loop
      vertex -0.185186 -15.1942 35.4203
      vertex -4.16965 -16.9809 32.4178
      vertex -3.0731 -19.2103 33.2441
    endloop
  endfacet
  facet normal -0.601815 0 0.798636
    outer loop
      vertex -4.16965 16.9809 32.4178
      vertex -1.61689 13.4309 34.3415
      vertex -0.185186 15.1942 35.4203
    endloop
  endfacet
  facet normal -0.601815 0 0.798636
    outer loop
      vertex -3.0731 -19.2103 33.2441
      vertex -7.25608 -19.7887 30.092
      vertex -6.56476 -22.3868 30.613
    endloop
  endfacet
  facet normal -0.601815 0 0.798636
    outer loop
      vertex -1.61689 13.4309 34.3415
      vertex 0.290635 9.29393 35.7789
      vertex 1.97278 10.5141 37.0465
    endloop
  endfacet
  facet normal -0.601815 0 0.798636
    outer loop
      vertex -6.56476 -22.3868 30.613
      vertex -10.7413 -21.7316 27.4657
      vertex -10.5075 -24.5848 27.6419
    endloop
  endfacet
  facet normal -0.601815 0 0.798636
    outer loop
      vertex 0.290635 9.29393 35.7789
      vertex 1.46955 4.75078 36.6672
      vertex 3.30647 5.37452 38.0515
    endloop
  endfacet
  facet normal -0.601815 0 0.798636
    outer loop
      vertex -10.5075 -24.5848 27.6419
      vertex -14.473 -22.7248 24.6537
      vertex -14.7292 -25.7084 24.4606
    endloop
  endfacet
  facet normal -0.601815 0 0.798636
    outer loop
      vertex -14.7292 -25.7084 24.4606
      vertex -18.288 -22.7248 21.7789
      vertex -19.0451 -25.7084 21.2084
    endloop
  endfacet
  facet normal -0.601815 0 0.798636
    outer loop
      vertex -22.0197 -21.7316 18.9668
      vertex -25.5049 -19.7887 16.3405
      vertex -23.2667 -24.5848 18.0272
    endloop
  endfacet
  facet normal -0.601815 0 0.798636
    outer loop
      vertex -19.0451 -25.7084 21.2084
      vertex -22.0197 -21.7316 18.9668
      vertex -23.2667 -24.5848 18.0272
    endloop
  endfacet
  facet normal -0.601815 0 0.798636
    outer loop
      vertex -34.2305 4.75078 9.76531
      vertex -33.0516 9.29393 10.6537
      vertex -37.0807 5.37452 7.61754
    endloop
  endfacet
  facet normal -0.601815 0 0.798636
    outer loop
      vertex -23.2667 -24.5848 18.0272
      vertex -25.5049 -19.7887 16.3405
      vertex -27.2095 -22.3868 15.056
    endloop
  endfacet
  facet normal -0.601815 0 0.798636
    outer loop
      vertex -25.5049 -19.7887 16.3405
      vertex -28.5913 -16.9809 14.0147
      vertex -27.2095 -22.3868 15.056
    endloop
  endfacet
  facet normal -0.601815 0 0.798636
    outer loop
      vertex -27.2095 -22.3868 15.056
      vertex -31.1441 -13.4309 12.0911
      vertex -30.7011 -19.2103 12.4249
    endloop
  endfacet
  facet normal -0.601815 0 0.798636
    outer loop
      vertex -31.1441 -13.4309 12.0911
      vertex -33.0516 -9.29393 10.6537
      vertex -30.7011 -19.2103 12.4249
    endloop
  endfacet
  facet normal -0.601815 0 0.798636
    outer loop
      vertex -34.2305 -4.75078 9.76531
      vertex -34.6293 0 9.4648
      vertex -37.0807 5.37452 7.61754
    endloop
  endfacet
  facet normal -0.601815 0 0.798636
    outer loop
      vertex -4.16965 -16.9809 32.4178
      vertex -7.25608 -19.7887 30.092
      vertex -3.0731 -19.2103 33.2441
    endloop
  endfacet
  facet normal -0.601815 0 0.798636
    outer loop
      vertex -7.25608 -19.7887 30.092
      vertex -10.7413 -21.7316 27.4657
      vertex -6.56476 -22.3868 30.613
    endloop
  endfacet
  facet normal -0.601815 0 0.798636
    outer loop
      vertex -10.7413 -21.7316 27.4657
      vertex -14.473 -22.7248 24.6537
      vertex -10.5075 -24.5848 27.6419
    endloop
  endfacet
  facet normal -0.601815 0 0.798636
    outer loop
      vertex -14.473 -22.7248 24.6537
      vertex -18.288 -22.7248 21.7789
      vertex -14.7292 -25.7084 24.4606
    endloop
  endfacet
  facet normal -0.601815 0 0.798636
    outer loop
      vertex -18.288 -22.7248 21.7789
      vertex -22.0197 -21.7316 18.9668
      vertex -19.0451 -25.7084 21.2084
    endloop
  endfacet
  facet normal -0.601815 0 0.798636
    outer loop
      vertex -28.5913 -16.9809 14.0147
      vertex -31.1441 -13.4309 12.0911
      vertex -27.2095 -22.3868 15.056
    endloop
  endfacet
  facet normal -0.601815 0 0.798636
    outer loop
      vertex -34.6293 0 9.4648
      vertex -34.2305 4.75078 9.76531
      vertex -37.0807 5.37452 7.61754
    endloop
  endfacet
  facet normal 0 -1 0
    outer loop
      vertex -30.5 -25.5 3
      vertex -30.5 -25.5 0
      vertex 30.5 -25.5 0
    endloop
  endfacet
  facet normal 0 -1 0
    outer loop
      vertex 30.5 -25.5 3
      vertex -30.5 -25.5 3
      vertex 30.5 -25.5 0
    endloop
  endfacet
  facet normal -1 0 0
    outer loop
      vertex -30.5 -25.5 0
      vertex -30.5 -25.5 3
      vertex -30.5 25.5 0
    endloop
  endfacet
  facet normal -1 0 0
    outer loop
      vertex -30.5 25.5 0
      vertex -30.5 -25.5 3
      vertex -30.5 25.5 3
    endloop
  endfacet
  facet normal 0 1 0
    outer loop
      vertex -30.5 25.5 0
      vertex -30.5 25.5 3
      vertex 30.5 25.5 0
    endloop
  endfacet
  facet normal 0 1 0
    outer loop
      vertex 30.5 25.5 0
      vertex -30.5 25.5 3
      vertex 30.5 25.5 3
    endloop
  endfacet
  facet normal 1 0 0
    outer loop
      vertex 30.5 -25.5 3
      vertex 30.5 -25.5 0
      vertex 30.5 25.5 0
    endloop
  endfacet
  facet normal 1 0 0
    outer loop
      vertex 30.5 25.5 3
      vertex 30.5 -25.5 3
      vertex 30.5 25.5 0
    endloop
  endfacet
  facet normal 0.794261 0.104528 0.598518
    outer loop
      vertex -34.2305 -4.75078 9.76531
      vertex -26.8718 -4.75078 0
      vertex -27.4971 0 0
    endloop
  endfacet
  facet normal 0.794261 0.104528 0.598518
    outer loop
      vertex -34.6293 0 9.4648
      vertex -34.2305 -4.75078 9.76531
      vertex -27.4971 0 0
    endloop
  endfacet
  facet normal 0.759548 0.309017 0.57236
    outer loop
      vertex -33.0516 -9.29393 10.6537
      vertex -25.0235 -9.29393 0
      vertex -26.8718 -4.75078 0
    endloop
  endfacet
  facet normal 0.759548 0.309017 0.57236
    outer loop
      vertex -34.2305 -4.75078 9.76531
      vertex -33.0516 -9.29393 10.6537
      vertex -26.8718 -4.75078 0
    endloop
  endfacet
  facet normal 0.691639 0.5 0.521187
    outer loop
      vertex -31.1441 -13.4309 12.0911
      vertex -22.0328 -13.4309 0
      vertex -25.0235 -9.29393 0
    endloop
  endfacet
  facet normal 0.691639 0.5 0.521187
    outer loop
      vertex -33.0516 -9.29393 10.6537
      vertex -31.1441 -13.4309 12.0911
      vertex -25.0235 -9.29393 0
    endloop
  endfacet
  facet normal 0.593502 0.669131 0.447236
    outer loop
      vertex -18.0305 -16.9809 0
      vertex -22.0328 -13.4309 0
      vertex -28.5913 -16.9809 14.0147
    endloop
  endfacet
  facet normal 0.593502 0.669131 0.447236
    outer loop
      vertex -28.5913 -16.9809 14.0147
      vertex -22.0328 -13.4309 0
      vertex -31.1441 -13.4309 12.0911
    endloop
  endfacet
  facet normal 0.469426 0.809017 0.353738
    outer loop
      vertex -13.1914 -19.7887 0
      vertex -18.0305 -16.9809 0
      vertex -25.5049 -19.7887 16.3405
    endloop
  endfacet
  facet normal 0.469426 0.809017 0.353738
    outer loop
      vertex -25.5049 -19.7887 16.3405
      vertex -18.0305 -16.9809 0
      vertex -28.5913 -16.9809 14.0147
    endloop
  endfacet
  facet normal 0.324834 0.913545 0.24478
    outer loop
      vertex -7.72715 -21.7316 0
      vertex -13.1914 -19.7887 0
      vertex -22.0197 -21.7316 18.9668
    endloop
  endfacet
  facet normal 0.324834 0.913545 0.24478
    outer loop
      vertex -22.0197 -21.7316 18.9668
      vertex -13.1914 -19.7887 0
      vertex -25.5049 -19.7887 16.3405
    endloop
  endfacet
  facet normal 0.166046 0.978148 0.125124
    outer loop
      vertex -1.87647 -22.7248 0
      vertex -7.72715 -21.7316 0
      vertex -18.288 -22.7248 21.7789
    endloop
  endfacet
  facet normal 0.166046 0.978148 0.125124
    outer loop
      vertex -18.288 -22.7248 21.7789
      vertex -7.72715 -21.7316 0
      vertex -22.0197 -21.7316 18.9668
    endloop
  endfacet
  facet normal 0 1 0
    outer loop
      vertex 4.10492 -22.7248 0
      vertex -1.87647 -22.7248 0
      vertex -14.473 -22.7248 24.6537
    endloop
  endfacet
  facet normal 0 1 0
    outer loop
      vertex -14.473 -22.7248 24.6537
      vertex -1.87647 -22.7248 0
      vertex -18.288 -22.7248 21.7789
    endloop
  endfacet
  facet normal -0.166046 0.978148 -0.125124
    outer loop
      vertex 9.9556 -21.7316 0
      vertex 4.10492 -22.7248 0
      vertex -10.7413 -21.7316 27.4657
    endloop
  endfacet
  facet normal -0.166046 0.978148 -0.125124
    outer loop
      vertex -10.7413 -21.7316 27.4657
      vertex 4.10492 -22.7248 0
      vertex -14.473 -22.7248 24.6537
    endloop
  endfacet
  facet normal -0.324834 0.913545 -0.24478
    outer loop
      vertex 15.4199 -19.7887 0
      vertex 9.9556 -21.7316 0
      vertex -7.25608 -19.7887 30.092
    endloop
  endfacet
  facet normal -0.324834 0.913545 -0.24478
    outer loop
      vertex -7.25608 -19.7887 30.092
      vertex 9.9556 -21.7316 0
      vertex -10.7413 -21.7316 27.4657
    endloop
  endfacet
  facet normal -0.469426 0.809017 -0.353738
    outer loop
      vertex 20.2589 -16.9809 0
      vertex 15.4199 -19.7887 0
      vertex -4.16965 -16.9809 32.4178
    endloop
  endfacet
  facet normal -0.469426 0.809017 -0.353738
    outer loop
      vertex -4.16965 -16.9809 32.4178
      vertex 15.4199 -19.7887 0
      vertex -7.25608 -19.7887 30.092
    endloop
  endfacet
  facet normal -0.593502 0.669131 -0.447236
    outer loop
      vertex 24.2613 -13.4309 0
      vertex 20.2589 -16.9809 0
      vertex -1.61689 -13.4309 34.3415
    endloop
  endfacet
  facet normal -0.593502 0.669131 -0.447236
    outer loop
      vertex -1.61689 -13.4309 34.3415
      vertex 20.2589 -16.9809 0
      vertex -4.16965 -16.9809 32.4178
    endloop
  endfacet
  facet normal -0.691639 0.5 -0.521187
    outer loop
      vertex 27.2519 -9.29393 0
      vertex 24.2613 -13.4309 0
      vertex 0.290635 -9.29393 35.7789
    endloop
  endfacet
  facet normal -0.691639 0.5 -0.521187
    outer loop
      vertex 0.290635 -9.29393 35.7789
      vertex 24.2613 -13.4309 0
      vertex -1.61689 -13.4309 34.3415
    endloop
  endfacet
  facet normal -0.759548 0.309017 -0.57236
    outer loop
      vertex 29.1003 -4.75078 0
      vertex 27.2519 -9.29393 0
      vertex 1.46955 -4.75078 36.6672
    endloop
  endfacet
  facet normal -0.759548 0.309017 -0.57236
    outer loop
      vertex 1.46955 -4.75078 36.6672
      vertex 27.2519 -9.29393 0
      vertex 0.290635 -9.29393 35.7789
    endloop
  endfacet
  facet normal -0.794261 0.104528 -0.598518
    outer loop
      vertex 29.7255 0 0
      vertex 29.1003 -4.75078 0
      vertex 1.86833 0 36.9677
    endloop
  endfacet
  facet normal -0.794261 0.104528 -0.598518
    outer loop
      vertex 1.86833 0 36.9677
      vertex 29.1003 -4.75078 0
      vertex 1.46955 -4.75078 36.6672
    endloop
  endfacet
  facet normal -0.794261 -0.104528 -0.598518
    outer loop
      vertex 29.7255 0 0
      vertex 1.86833 0 36.9677
      vertex 29.1003 4.75078 0
    endloop
  endfacet
  facet normal -0.794261 -0.104528 -0.598518
    outer loop
      vertex 29.1003 4.75078 0
      vertex 1.86833 0 36.9677
      vertex 1.46955 4.75078 36.6672
    endloop
  endfacet
  facet normal -0.759548 -0.309017 -0.57236
    outer loop
      vertex 29.1003 4.75078 0
      vertex 1.46955 4.75078 36.6672
      vertex 27.2519 9.29393 0
    endloop
  endfacet
  facet normal -0.759548 -0.309017 -0.57236
    outer loop
      vertex 27.2519 9.29393 0
      vertex 1.46955 4.75078 36.6672
      vertex 0.290635 9.29393 35.7789
    endloop
  endfacet
  facet normal -0.691639 -0.5 -0.521187
    outer loop
      vertex 27.2519 9.29393 0
      vertex 0.290635 9.29393 35.7789
      vertex 24.2613 13.4309 0
    endloop
  endfacet
  facet normal -0.691639 -0.5 -0.521187
    outer loop
      vertex 24.2613 13.4309 0
      vertex 0.290635 9.29393 35.7789
      vertex -1.61689 13.4309 34.3415
    endloop
  endfacet
  facet normal -0.593502 -0.669131 -0.447236
    outer loop
      vertex 20.2589 16.9809 0
      vertex 24.2613 13.4309 0
      vertex -1.61689 13.4309 34.3415
    endloop
  endfacet
  facet normal -0.593502 -0.669131 -0.447236
    outer loop
      vertex -4.16965 16.9809 32.4178
      vertex 20.2589 16.9809 0
      vertex -1.61689 13.4309 34.3415
    endloop
  endfacet
  facet normal -0.469426 -0.809017 -0.353738
    outer loop
      vertex 15.4199 19.7887 0
      vertex 20.2589 16.9809 0
      vertex -4.16965 16.9809 32.4178
    endloop
  endfacet
  facet normal -0.469426 -0.809017 -0.353738
    outer loop
      vertex -7.25608 19.7887 30.092
      vertex 15.4199 19.7887 0
      vertex -4.16965 16.9809 32.4178
    endloop
  endfacet
  facet normal -0.324834 -0.913545 -0.24478
    outer loop
      vertex 9.9556 21.7316 0
      vertex 15.4199 19.7887 0
      vertex -7.25608 19.7887 30.092
    endloop
  endfacet
  facet normal -0.324834 -0.913545 -0.24478
    outer loop
      vertex -10.7413 21.7316 27.4657
      vertex 9.9556 21.7316 0
      vertex -7.25608 19.7887 30.092
    endloop
  endfacet
  facet normal -0.166046 -0.978148 -0.125124
    outer loop
      vertex 4.10492 22.7248 0
      vertex 9.9556 21.7316 0
      vertex -10.7413 21.7316 27.4657
    endloop
  endfacet
  facet normal -0.166046 -0.978148 -0.125124
    outer loop
      vertex -14.473 22.7248 24.6537
      vertex 4.10492 22.7248 0
      vertex -10.7413 21.7316 27.4657
    endloop
  endfacet
  facet normal 0 -1 0
    outer loop
      vertex -1.87647 22.7248 0
      vertex 4.10492 22.7248 0
      vertex -14.473 22.7248 24.6537
    endloop
  endfacet
  facet normal 0 -1 0
    outer loop
      vertex -18.288 22.7248 21.7789
      vertex -1.87647 22.7248 0
      vertex -14.473 22.7248 24.6537
    endloop
  endfacet
  facet normal 0.166046 -0.978148 0.125124
    outer loop
      vertex -7.72715 21.7316 0
      vertex -1.87647 22.7248 0
      vertex -18.288 22.7248 21.7789
    endloop
  endfacet
  facet normal 0.166046 -0.978148 0.125124
    outer loop
      vertex -22.0197 21.7316 18.9668
      vertex -7.72715 21.7316 0
      vertex -18.288 22.7248 21.7789
    endloop
  endfacet
  facet normal 0.324834 -0.913545 0.24478
    outer loop
      vertex -13.1914 19.7887 0
      vertex -7.72715 21.7316 0
      vertex -22.0197 21.7316 18.9668
    endloop
  endfacet
  facet normal 0.324834 -0.913545 0.24478
    outer loop
      vertex -25.5049 19.7887 16.3405
      vertex -13.1914 19.7887 0
      vertex -22.0197 21.7316 18.9668
    endloop
  endfacet
  facet normal 0.469426 -0.809017 0.353738
    outer loop
      vertex -18.0305 16.9809 0
      vertex -13.1914 19.7887 0
      vertex -25.5049 19.7887 16.3405
    endloop
  endfacet
  facet normal 0.469426 -0.809017 0.353738
    outer loop
      vertex -28.5913 16.9809 14.0147
      vertex -18.0305 16.9809 0
      vertex -25.5049 19.7887 16.3405
    endloop
  endfacet
  facet normal 0.593502 -0.669131 0.447236
    outer loop
      vertex -22.0328 13.4309 0
      vertex -18.0305 16.9809 0
      vertex -28.5913 16.9809 14.0147
    endloop
  endfacet
  facet normal 0.593502 -0.669131 0.447236
    outer loop
      vertex -31.1441 13.4309 12.0911
      vertex -22.0328 13.4309 0
      vertex -28.5913 16.9809 14.0147
    endloop
  endfacet
  facet normal 0.691639 -0.5 0.521187
    outer loop
      vertex -25.0235 9.29393 0
      vertex -22.0328 13.4309 0
      vertex -31.1441 13.4309 12.0911
    endloop
  endfacet
  facet normal 0.691639 -0.5 0.521187
    outer loop
      vertex -33.0516 9.29393 10.6537
      vertex -25.0235 9.29393 0
      vertex -31.1441 13.4309 12.0911
    endloop
  endfacet
  facet normal 0.759548 -0.309017 0.57236
    outer loop
      vertex -26.8718 4.75078 0
      vertex -25.0235 9.29393 0
      vertex -33.0516 9.29393 10.6537
    endloop
  endfacet
  facet normal 0.759548 -0.309017 0.57236
    outer loop
      vertex -34.2305 4.75078 9.76531
      vertex -26.8718 4.75078 0
      vertex -33.0516 9.29393 10.6537
    endloop
  endfacet
  facet normal 0.794261 -0.104528 0.598518
    outer loop
      vertex -27.4971 0 0
      vertex -26.8718 4.75078 0
      vertex -34.2305 4.75078 9.76531
    endloop
  endfacet
  facet normal 0.794261 -0.104528 0.598518
    outer loop
      vertex -34.6293 0 9.4648
      vertex -27.4971 0 0
      vertex -34.2305 4.75078 9.76531
    endloop
  endfacet
  facet normal 0 0 -1
    outer loop
      vertex 4.10492 22.7248 0
      vertex -30.5 25.5 0
      vertex 30.5 25.5 0
    endloop
  endfacet
  facet normal 0 0 -1
    outer loop
      vertex -30.5 -25.5 0
      vertex -30.5 25.5 0
      vertex -27.4971 0 0
    endloop
  endfacet
  facet normal 0 0 -1
    outer loop
      vertex -30.5 -25.5 0
      vertex -27.4971 0 0
      vertex -26.8718 -4.75078 0
    endloop
  endfacet
  facet normal 0 0 -1
    outer loop
      vertex -30.5 -25.5 0
      vertex -26.8718 -4.75078 0
      vertex -25.0235 -9.29393 0
    endloop
  endfacet
  facet normal 0 0 -1
    outer loop
      vertex -30.5 -25.5 0
      vertex -25.0235 -9.29393 0
      vertex -22.0328 -13.4309 0
    endloop
  endfacet
  facet normal 0 0 -1
    outer loop
      vertex -30.5 -25.5 0
      vertex -22.0328 -13.4309 0
      vertex -18.0305 -16.9809 0
    endloop
  endfacet
  facet normal 0 0 -1
    outer loop
      vertex -30.5 -25.5 0
      vertex -18.0305 -16.9809 0
      vertex -13.1914 -19.7887 0
    endloop
  endfacet
  facet normal 0 0 -1
    outer loop
      vertex -30.5 -25.5 0
      vertex -13.1914 -19.7887 0
      vertex -7.72715 -21.7316 0
    endloop
  endfacet
  facet normal 0 0 -1
    outer loop
      vertex -30.5 -25.5 0
      vertex -7.72715 -21.7316 0
      vertex -1.87647 -22.7248 0
    endloop
  endfacet
  facet normal 0 0 -1
    outer loop
      vertex -30.5 -25.5 0
      vertex -1.87647 -22.7248 0
      vertex 30.5 -25.5 0
    endloop
  endfacet
  facet normal 0 0 -1
    outer loop
      vertex 9.9556 -21.7316 0
      vertex 30.5 -25.5 0
      vertex 4.10492 -22.7248 0
    endloop
  endfacet
  facet normal 0 0 -1
    outer loop
      vertex 15.4199 -19.7887 0
      vertex 30.5 -25.5 0
      vertex 9.9556 -21.7316 0
    endloop
  endfacet
  facet normal 0 0 -1
    outer loop
      vertex 20.2589 -16.9809 0
      vertex 30.5 -25.5 0
      vertex 15.4199 -19.7887 0
    endloop
  endfacet
  facet normal 0 0 -1
    outer loop
      vertex 24.2613 -13.4309 0
      vertex 30.5 -25.5 0
      vertex 20.2589 -16.9809 0
    endloop
  endfacet
  facet normal 0 0 -1
    outer loop
      vertex 29.1003 4.75078 0
      vertex 30.5 25.5 0
      vertex 29.7255 0 0
    endloop
  endfacet
  facet normal 0 0 -1
    outer loop
      vertex 30.5 -25.5 0
      vertex 24.2613 -13.4309 0
      vertex 27.2519 -9.29393 0
    endloop
  endfacet
  facet normal 0 0 -1
    outer loop
      vertex 30.5 -25.5 0
      vertex 27.2519 -9.29393 0
      vertex 29.1003 -4.75078 0
    endloop
  endfacet
  facet normal 0 0 -1
    outer loop
      vertex 30.5 -25.5 0
      vertex 29.1003 -4.75078 0
      vertex 29.7255 0 0
    endloop
  endfacet
  facet normal 0 0 -1
    outer loop
      vertex 30.5 -25.5 0
      vertex 29.7255 0 0
      vertex 30.5 25.5 0
    endloop
  endfacet
  facet normal 0 0 -1
    outer loop
      vertex 27.2519 9.29393 0
      vertex 30.5 25.5 0
      vertex 29.1003 4.75078 0
    endloop
  endfacet
  facet normal 0 0 -1
    outer loop
      vertex -22.0328 13.4309 0
      vertex -30.5 25.5 0
      vertex -18.0305 16.9809 0
    endloop
  endfacet
  facet normal 0 0 -1
    outer loop
      vertex -1.87647 22.7248 0
      vertex -30.5 25.5 0
      vertex 4.10492 22.7248 0
    endloop
  endfacet
  facet normal 0 0 -1
    outer loop
      vertex 27.2519 9.29393 0
      vertex 24.2613 13.4309 0
      vertex 30.5 25.5 0
    endloop
  endfacet
  facet normal 0 0 -1
    outer loop
      vertex 24.2613 13.4309 0
      vertex 20.2589 16.9809 0
      vertex 30.5 25.5 0
    endloop
  endfacet
  facet normal 0 0 -1
    outer loop
      vertex -13.1914 19.7887 0
      vertex -30.5 25.5 0
      vertex -7.72715 21.7316 0
    endloop
  endfacet
  facet normal 0 0 -1
    outer loop
      vertex 20.2589 16.9809 0
      vertex 15.4199 19.7887 0
      vertex 30.5 25.5 0
    endloop
  endfacet
  facet normal 0 0 -1
    outer loop
      vertex -7.72715 21.7316 0
      vertex -30.5 25.5 0
      vertex -1.87647 22.7248 0
    endloop
  endfacet
  facet normal 0 0 -1
    outer loop
      vertex 15.4199 19.7887 0
      vertex 9.9556 21.7316 0
      vertex 30.5 25.5 0
    endloop
  endfacet
  facet normal 0 0 -1
    outer loop
      vertex 9.9556 21.7316 0
      vertex 4.10492 22.7248 0
      vertex 30.5 25.5 0
    endloop
  endfacet
  facet normal 0 0 -1
    outer loop
      vertex -18.0305 16.9809 0
      vertex -30.5 25.5 0
      vertex -13.1914 19.7887 0
    endloop
  endfacet
  facet normal 0 0 -1
    outer loop
      vertex -25.0235 9.29393 0
      vertex -30.5 25.5 0
      vertex -22.0328 13.4309 0
    endloop
  endfacet
  facet normal 0 0 -1
    outer loop
      vertex -26.8718 4.75078 0
      vertex -30.5 25.5 0
      vertex -25.0235 9.29393 0
    endloop
  endfacet
  facet normal 0 0 -1
    outer loop
      vertex -27.4971 0 0
      vertex -30.5 25.5 0
      vertex -26.8718 4.75078 0
    endloop
  endfacet
  facet normal 0 0 -1
    outer loop
      vertex 4.10492 -22.7248 0
      vertex 30.5 -25.5 0
      vertex -1.87647 -22.7248 0
    endloop
  endfacet
endsolid OpenSCAD_Model
