solid OpenSCAD_Model
  facet normal -1 0 0
    outer loop
      vertex -36 -40.5 0
      vertex -36 -40.5 7
      vertex -36 40.5 0
    endloop
  endfacet
  facet normal -1 0 0
    outer loop
      vertex -36 40.5 0
      vertex -36 -40.5 7
      vertex -36 40.5 7
    endloop
  endfacet
  facet normal 0 -1 0
    outer loop
      vertex -36 -40.5 7
      vertex -36 -40.5 0
      vertex 41 -40.5 0
    endloop
  endfacet
  facet normal 0 -1 0
    outer loop
      vertex 41 -40.5 7
      vertex -36 -40.5 7
      vertex 41 -40.5 0
    endloop
  endfacet
  facet normal 0 0 -1
    outer loop
      vertex -15.5179 38.9708 0
      vertex -36 40.5 0
      vertex 41 40.5 0
    endloop
  endfacet
  facet normal 0 0 -1
    outer loop
      vertex -36 -40.5 0
      vertex -36 40.5 0
      vertex -28.7 0 0
    endloop
  endfacet
  facet normal 0 0 -1
    outer loop
      vertex -36 -40.5 0
      vertex -28.7 0 0
      vertex -28.0728 -5.96707 0
    endloop
  endfacet
  facet normal 0 0 -1
    outer loop
      vertex 23.2188 -16.8694 0
      vertex 30.4821 -30.0292 0
      vertex 19.204 -21.3283 0
    endloop
  endfacet
  facet normal 0 0 -1
    outer loop
      vertex -36 -40.5 0
      vertex -28.0728 -5.96707 0
      vertex -26.2188 -11.6733 0
    endloop
  endfacet
  facet normal 0 0 -1
    outer loop
      vertex -36 -40.5 0
      vertex -26.2188 -11.6733 0
      vertex -23.2188 -16.8694 0
    endloop
  endfacet
  facet normal 0 0 -1
    outer loop
      vertex 14.35 -24.8549 0
      vertex 26.1162 -33.0427 0
      vertex 8.86879 -27.2953 0
    endloop
  endfacet
  facet normal 0 0 -1
    outer loop
      vertex -36 -40.5 0
      vertex -23.2188 -16.8694 0
      vertex -19.204 -21.3283 0
    endloop
  endfacet
  facet normal 0 0 -1
    outer loop
      vertex -36 -40.5 0
      vertex -19.204 -21.3283 0
      vertex -14.35 -24.8549 0
    endloop
  endfacet
  facet normal 0 0 -1
    outer loop
      vertex 28.5816 -37.7401 0
      vertex -2.99997 -28.5428 0
      vertex 27.006 -36.6525 0
    endloop
  endfacet
  facet normal 0 0 -1
    outer loop
      vertex -15.5179 -30.0292 0
      vertex -14.35 -24.8549 0
      vertex -8.86879 -27.2953 0
    endloop
  endfacet
  facet normal 0 0 -1
    outer loop
      vertex 27.006 -36.6525 0
      vertex 2.99997 -28.5428 0
      vertex 26.1162 -34.9573 0
    endloop
  endfacet
  facet normal 0 0 -1
    outer loop
      vertex -19.8838 -33.0427 0
      vertex -36 -40.5 0
      vertex -18.994 -31.3475 0
    endloop
  endfacet
  facet normal 0 0 -1
    outer loop
      vertex 28.5816 -30.2599 0
      vertex 19.204 -21.3283 0
      vertex 30.4821 -30.0292 0
    endloop
  endfacet
  facet normal 0 0 -1
    outer loop
      vertex -23.2188 16.8694 0
      vertex -36 40.5 0
      vertex -19.204 21.3283 0
    endloop
  endfacet
  facet normal 0 0 -1
    outer loop
      vertex 28.7 0 0
      vertex 41 40.5 0
      vertex 28.0728 -5.96707 0
    endloop
  endfacet
  facet normal 0 0 -1
    outer loop
      vertex 41 -40.5 0
      vertex 23.2188 -16.8694 0
      vertex 26.2188 -11.6733 0
    endloop
  endfacet
  facet normal 0 0 -1
    outer loop
      vertex 41 -40.5 0
      vertex 26.2188 -11.6733 0
      vertex 28.0728 -5.96707 0
    endloop
  endfacet
  facet normal 0 0 -1
    outer loop
      vertex 41 -40.5 0
      vertex 28.0728 -5.96707 0
      vertex 41 40.5 0
    endloop
  endfacet
  facet normal 0 0 -1
    outer loop
      vertex 28.0728 5.96707 0
      vertex 41 40.5 0
      vertex 28.7 0 0
    endloop
  endfacet
  facet normal 0 0 -1
    outer loop
      vertex -19.204 21.3283 0
      vertex -36 40.5 0
      vertex -14.35 24.8549 0
    endloop
  endfacet
  facet normal 0 0 -1
    outer loop
      vertex -14.35 24.8549 0
      vertex -17.4184 31.2599 0
      vertex -8.86879 27.2953 0
    endloop
  endfacet
  facet normal 0 0 -1
    outer loop
      vertex 28.0728 5.96707 0
      vertex 26.2188 11.6733 0
      vertex 41 40.5 0
    endloop
  endfacet
  facet normal 0 0 -1
    outer loop
      vertex 26.2188 11.6733 0
      vertex 23.2188 16.8694 0
      vertex 41 40.5 0
    endloop
  endfacet
  facet normal 0 0 -1
    outer loop
      vertex -17.4184 31.2599 0
      vertex -36 40.5 0
      vertex -18.994 32.3475 0
    endloop
  endfacet
  facet normal 0 0 -1
    outer loop
      vertex 34 35 0
      vertex 41 40.5 0
      vertex 33.5418 33.1411 0
    endloop
  endfacet
  facet normal 0 0 -1
    outer loop
      vertex -18.994 32.3475 0
      vertex -36 40.5 0
      vertex -19.8838 34.0427 0
    endloop
  endfacet
  facet normal 0 0 -1
    outer loop
      vertex 30.4821 31.0292 0
      vertex 19.204 21.3283 0
      vertex 28.5816 31.2599 0
    endloop
  endfacet
  facet normal 0 0 -1
    outer loop
      vertex 28.5816 31.2599 0
      vertex 14.35 24.8549 0
      vertex 27.006 32.3475 0
    endloop
  endfacet
  facet normal 0 0 -1
    outer loop
      vertex -12.4582 33.1411 0
      vertex -2.99997 28.5428 0
      vertex -13.7277 31.7081 0
    endloop
  endfacet
  facet normal 0 0 -1
    outer loop
      vertex -15.5179 31.0292 0
      vertex -8.86879 27.2953 0
      vertex -17.4184 31.2599 0
    endloop
  endfacet
  facet normal 0 0 -1
    outer loop
      vertex -19.8838 34.0427 0
      vertex -36 40.5 0
      vertex -19.8838 35.9573 0
    endloop
  endfacet
  facet normal 0 0 -1
    outer loop
      vertex -26.2188 11.6733 0
      vertex -36 40.5 0
      vertex -23.2188 16.8694 0
    endloop
  endfacet
  facet normal 0 0 -1
    outer loop
      vertex -28.0728 5.96707 0
      vertex -36 40.5 0
      vertex -26.2188 11.6733 0
    endloop
  endfacet
  facet normal 0 0 -1
    outer loop
      vertex -28.7 0 0
      vertex -36 40.5 0
      vertex -28.0728 5.96707 0
    endloop
  endfacet
  facet normal 0 0 -1
    outer loop
      vertex -13.7277 -37.2919 0
      vertex 41 -40.5 0
      vertex -15.5179 -37.9708 0
    endloop
  endfacet
  facet normal 0 0 -1
    outer loop
      vertex -36 -40.5 0
      vertex -19.8838 -33.0427 0
      vertex -19.8838 -34.9573 0
    endloop
  endfacet
  facet normal 0 0 -1
    outer loop
      vertex -36 -40.5 0
      vertex -19.8838 -34.9573 0
      vertex -18.994 -36.6525 0
    endloop
  endfacet
  facet normal 0 0 -1
    outer loop
      vertex -36 -40.5 0
      vertex -18.994 -36.6525 0
      vertex -17.4184 -37.7401 0
    endloop
  endfacet
  facet normal 0 0 -1
    outer loop
      vertex -36 -40.5 0
      vertex -17.4184 -37.7401 0
      vertex -15.5179 -37.9708 0
    endloop
  endfacet
  facet normal 0 0 -1
    outer loop
      vertex -36 -40.5 0
      vertex -15.5179 -37.9708 0
      vertex 41 -40.5 0
    endloop
  endfacet
  facet normal 0 0 -1
    outer loop
      vertex -12.4582 -35.8589 0
      vertex 41 -40.5 0
      vertex -13.7277 -37.2919 0
    endloop
  endfacet
  facet normal 0 0 -1
    outer loop
      vertex -12 -34 0
      vertex 41 -40.5 0
      vertex -12.4582 -35.8589 0
    endloop
  endfacet
  facet normal 0 0 -1
    outer loop
      vertex -12.4582 -32.1411 0
      vertex -8.86879 -27.2953 0
      vertex -12 -34 0
    endloop
  endfacet
  facet normal 0 0 -1
    outer loop
      vertex -15.5179 -30.0292 0
      vertex -8.86879 -27.2953 0
      vertex -13.7277 -30.7081 0
    endloop
  endfacet
  facet normal 0 0 -1
    outer loop
      vertex -13.7277 -30.7081 0
      vertex -8.86879 -27.2953 0
      vertex -12.4582 -32.1411 0
    endloop
  endfacet
  facet normal 0 0 -1
    outer loop
      vertex -17.4184 -30.2599 0
      vertex -14.35 -24.8549 0
      vertex -15.5179 -30.0292 0
    endloop
  endfacet
  facet normal 0 0 -1
    outer loop
      vertex -36 -40.5 0
      vertex -14.35 -24.8549 0
      vertex -17.4184 -30.2599 0
    endloop
  endfacet
  facet normal 0 0 -1
    outer loop
      vertex -36 -40.5 0
      vertex -17.4184 -30.2599 0
      vertex -18.994 -31.3475 0
    endloop
  endfacet
  facet normal 0 0 -1
    outer loop
      vertex -12 35 0
      vertex 2.99997 28.5428 0
      vertex -12.4582 33.1411 0
    endloop
  endfacet
  facet normal 0 0 -1
    outer loop
      vertex -14.35 24.8549 0
      vertex -36 40.5 0
      vertex -17.4184 31.2599 0
    endloop
  endfacet
  facet normal 0 0 -1
    outer loop
      vertex -12 35 0
      vertex 8.86879 27.2953 0
      vertex 2.99997 28.5428 0
    endloop
  endfacet
  facet normal 0 0 -1
    outer loop
      vertex -13.7277 31.7081 0
      vertex -8.86879 27.2953 0
      vertex -15.5179 31.0292 0
    endloop
  endfacet
  facet normal 0 0 -1
    outer loop
      vertex -12.4582 36.8589 0
      vertex 41 40.5 0
      vertex -12 35 0
    endloop
  endfacet
  facet normal 0 0 -1
    outer loop
      vertex 30.4821 38.9708 0
      vertex -12 35 0
      vertex 41 40.5 0
    endloop
  endfacet
  facet normal 0 0 -1
    outer loop
      vertex 26.1162 -33.0427 0
      vertex 14.35 -24.8549 0
      vertex 27.006 -31.3475 0
    endloop
  endfacet
  facet normal 0 0 -1
    outer loop
      vertex -18.994 37.6525 0
      vertex -36 40.5 0
      vertex -17.4184 38.7401 0
    endloop
  endfacet
  facet normal 0 0 -1
    outer loop
      vertex 34 -34 0
      vertex 41 -40.5 0
      vertex 33.5418 -35.8589 0
    endloop
  endfacet
  facet normal 0 0 -1
    outer loop
      vertex -12.4582 36.8589 0
      vertex -13.7277 38.2919 0
      vertex 41 40.5 0
    endloop
  endfacet
  facet normal 0 0 -1
    outer loop
      vertex -17.4184 38.7401 0
      vertex -36 40.5 0
      vertex -15.5179 38.9708 0
    endloop
  endfacet
  facet normal 0 0 -1
    outer loop
      vertex -13.7277 38.2919 0
      vertex -15.5179 38.9708 0
      vertex 41 40.5 0
    endloop
  endfacet
  facet normal 0 0 -1
    outer loop
      vertex -19.8838 35.9573 0
      vertex -36 40.5 0
      vertex -18.994 37.6525 0
    endloop
  endfacet
  facet normal 0 0 -1
    outer loop
      vertex 23.2188 -16.8694 0
      vertex 32.2723 -30.7081 0
      vertex 30.4821 -30.0292 0
    endloop
  endfacet
  facet normal 0 0 -1
    outer loop
      vertex 26.1162 -34.9573 0
      vertex 8.86879 -27.2953 0
      vertex 26.1162 -33.0427 0
    endloop
  endfacet
  facet normal 0 0 -1
    outer loop
      vertex 33.5418 -35.8589 0
      vertex 41 -40.5 0
      vertex 32.2723 -37.2919 0
    endloop
  endfacet
  facet normal 0 0 -1
    outer loop
      vertex -12 -34 0
      vertex -8.86879 -27.2953 0
      vertex 28.5816 -37.7401 0
    endloop
  endfacet
  facet normal 0 0 -1
    outer loop
      vertex -12 -34 0
      vertex 28.5816 -37.7401 0
      vertex 41 -40.5 0
    endloop
  endfacet
  facet normal 0 0 -1
    outer loop
      vertex 32.2723 -37.2919 0
      vertex 41 -40.5 0
      vertex 30.4821 -37.9708 0
    endloop
  endfacet
  facet normal 0 0 -1
    outer loop
      vertex 28.5816 -37.7401 0
      vertex 30.4821 -37.9708 0
      vertex 41 -40.5 0
    endloop
  endfacet
  facet normal 0 0 -1
    outer loop
      vertex 26.1162 34.0427 0
      vertex 8.86879 27.2953 0
      vertex 26.1162 35.9573 0
    endloop
  endfacet
  facet normal 0 0 -1
    outer loop
      vertex 27.006 -31.3475 0
      vertex 19.204 -21.3283 0
      vertex 28.5816 -30.2599 0
    endloop
  endfacet
  facet normal 0 0 -1
    outer loop
      vertex -8.86879 27.2953 0
      vertex -13.7277 31.7081 0
      vertex -2.99997 28.5428 0
    endloop
  endfacet
  facet normal 0 0 -1
    outer loop
      vertex 33.5418 -32.1411 0
      vertex 41 -40.5 0
      vertex 34 -34 0
    endloop
  endfacet
  facet normal 0 0 -1
    outer loop
      vertex -2.99997 28.5428 0
      vertex -12.4582 33.1411 0
      vertex 2.99997 28.5428 0
    endloop
  endfacet
  facet normal 0 0 -1
    outer loop
      vertex 41 -40.5 0
      vertex 33.5418 -32.1411 0
      vertex 23.2188 -16.8694 0
    endloop
  endfacet
  facet normal 0 0 -1
    outer loop
      vertex 33.5418 -32.1411 0
      vertex 32.2723 -30.7081 0
      vertex 23.2188 -16.8694 0
    endloop
  endfacet
  facet normal 0 0 -1
    outer loop
      vertex 14.35 -24.8549 0
      vertex 19.204 -21.3283 0
      vertex 27.006 -31.3475 0
    endloop
  endfacet
  facet normal 0 0 -1
    outer loop
      vertex 8.86879 27.2953 0
      vertex -12 35 0
      vertex 26.1162 35.9573 0
    endloop
  endfacet
  facet normal 0 0 -1
    outer loop
      vertex 14.35 24.8549 0
      vertex 8.86879 27.2953 0
      vertex 26.1162 34.0427 0
    endloop
  endfacet
  facet normal 0 0 -1
    outer loop
      vertex 14.35 24.8549 0
      vertex 26.1162 34.0427 0
      vertex 27.006 32.3475 0
    endloop
  endfacet
  facet normal 0 0 -1
    outer loop
      vertex 33.5418 36.8589 0
      vertex 41 40.5 0
      vertex 34 35 0
    endloop
  endfacet
  facet normal 0 0 -1
    outer loop
      vertex 19.204 21.3283 0
      vertex 14.35 24.8549 0
      vertex 28.5816 31.2599 0
    endloop
  endfacet
  facet normal 0 0 -1
    outer loop
      vertex 23.2188 16.8694 0
      vertex 19.204 21.3283 0
      vertex 30.4821 31.0292 0
    endloop
  endfacet
  facet normal 0 0 -1
    outer loop
      vertex 23.2188 16.8694 0
      vertex 30.4821 31.0292 0
      vertex 32.2723 31.7081 0
    endloop
  endfacet
  facet normal 0 0 -1
    outer loop
      vertex 23.2188 16.8694 0
      vertex 32.2723 31.7081 0
      vertex 41 40.5 0
    endloop
  endfacet
  facet normal 0 0 -1
    outer loop
      vertex 32.2723 31.7081 0
      vertex 33.5418 33.1411 0
      vertex 41 40.5 0
    endloop
  endfacet
  facet normal 0 0 -1
    outer loop
      vertex 32.2723 38.2919 0
      vertex 41 40.5 0
      vertex 33.5418 36.8589 0
    endloop
  endfacet
  facet normal 0 0 -1
    outer loop
      vertex 27.006 37.6525 0
      vertex -12 35 0
      vertex 28.5816 38.7401 0
    endloop
  endfacet
  facet normal 0 0 -1
    outer loop
      vertex 28.5816 38.7401 0
      vertex -12 35 0
      vertex 30.4821 38.9708 0
    endloop
  endfacet
  facet normal 0 0 -1
    outer loop
      vertex 32.2723 38.2919 0
      vertex 30.4821 38.9708 0
      vertex 41 40.5 0
    endloop
  endfacet
  facet normal 0 0 -1
    outer loop
      vertex 26.1162 35.9573 0
      vertex -12 35 0
      vertex 27.006 37.6525 0
    endloop
  endfacet
  facet normal 0 0 -1
    outer loop
      vertex 28.5816 -37.7401 0
      vertex -8.86879 -27.2953 0
      vertex -2.99997 -28.5428 0
    endloop
  endfacet
  facet normal 0 0 -1
    outer loop
      vertex 2.99997 -28.5428 0
      vertex 27.006 -36.6525 0
      vertex -2.99997 -28.5428 0
    endloop
  endfacet
  facet normal 0 0 -1
    outer loop
      vertex 8.86879 -27.2953 0
      vertex 26.1162 -34.9573 0
      vertex 2.99997 -28.5428 0
    endloop
  endfacet
  facet normal 0 1 0
    outer loop
      vertex -36 40.5 0
      vertex -36 40.5 7
      vertex 41 40.5 0
    endloop
  endfacet
  facet normal 0 1 0
    outer loop
      vertex 41 40.5 0
      vertex -36 40.5 7
      vertex 41 40.5 7
    endloop
  endfacet
  facet normal 0 0 1
    outer loop
      vertex -15.5179 -37.9708 7
      vertex -36 -40.5 7
      vertex 41 -40.5 7
    endloop
  endfacet
  facet normal 0 0 1
    outer loop
      vertex -36 40.5 7
      vertex -36 -40.5 7
      vertex -29.3444 -6.23735 7
    endloop
  endfacet
  facet normal 0 0 1
    outer loop
      vertex 27.006 32.3475 7
      vertex 26.1162 34.0427 7
      vertex 15 25.9808 7
    endloop
  endfacet
  facet normal 0 0 1
    outer loop
      vertex -36 40.5 7
      vertex -29.3444 -6.23735 7
      vertex -30 0 7
    endloop
  endfacet
  facet normal 0 0 1
    outer loop
      vertex 26.1162 35.9573 7
      vertex -2.5 29.8357 7
      vertex -2.5 28.5428 7
    endloop
  endfacet
  facet normal 0 0 1
    outer loop
      vertex -36 40.5 7
      vertex -30 0 7
      vertex -29.3444 6.23735 7
    endloop
  endfacet
  facet normal 0 0 1
    outer loop
      vertex 26.1162 35.9573 7
      vertex -3.13585 29.8357 7
      vertex -2.5 29.8357 7
    endloop
  endfacet
  facet normal 0 0 1
    outer loop
      vertex -36 40.5 7
      vertex -29.3444 6.23735 7
      vertex -27.4064 12.2021 7
    endloop
  endfacet
  facet normal 0 0 1
    outer loop
      vertex -36 40.5 7
      vertex -27.4064 12.2021 7
      vertex -24.2705 17.6336 7
    endloop
  endfacet
  facet normal 0 0 1
    outer loop
      vertex 24.2705 -17.6336 7
      vertex 32.2723 -30.7081 7
      vertex 41 -40.5 7
    endloop
  endfacet
  facet normal 0 0 1
    outer loop
      vertex -36 40.5 7
      vertex -24.2705 17.6336 7
      vertex -20.0739 22.2943 7
    endloop
  endfacet
  facet normal 0 0 1
    outer loop
      vertex -17.4184 31.2599 7
      vertex -36 40.5 7
      vertex -15 25.9808 7
    endloop
  endfacet
  facet normal 0 0 1
    outer loop
      vertex 30.4821 38.9708 7
      vertex 32.2723 38.2919 7
      vertex 41 40.5 7
    endloop
  endfacet
  facet normal 0 0 1
    outer loop
      vertex 3.13585 29.8357 7
      vertex 9.27051 28.5317 7
      vertex 26.1162 35.9573 7
    endloop
  endfacet
  facet normal 0 0 1
    outer loop
      vertex 32.2723 38.2919 7
      vertex 33.5418 36.8589 7
      vertex 41 40.5 7
    endloop
  endfacet
  facet normal 0 0 1
    outer loop
      vertex 2.5 29.8357 7
      vertex -2.5 28.5428 7
      vertex 2.5 28.5428 7
    endloop
  endfacet
  facet normal 0 0 1
    outer loop
      vertex 30 0 7
      vertex 29.3444 -6.23735 7
      vertex 41 -40.5 7
    endloop
  endfacet
  facet normal 0 0 1
    outer loop
      vertex 27.4064 -12.2021 7
      vertex 24.2705 -17.6336 7
      vertex 41 -40.5 7
    endloop
  endfacet
  facet normal 0 0 1
    outer loop
      vertex 26.1162 34.0427 7
      vertex 9.27051 28.5317 7
      vertex 15 25.9808 7
    endloop
  endfacet
  facet normal 0 0 1
    outer loop
      vertex 28.5816 31.2599 7
      vertex 15 25.9808 7
      vertex 20.0739 22.2943 7
    endloop
  endfacet
  facet normal 0 0 1
    outer loop
      vertex 29.3444 -6.23735 7
      vertex 27.4064 -12.2021 7
      vertex 41 -40.5 7
    endloop
  endfacet
  facet normal 0 0 1
    outer loop
      vertex 32.2723 31.7081 7
      vertex 20.0739 22.2943 7
      vertex 24.2705 17.6336 7
    endloop
  endfacet
  facet normal 0 0 1
    outer loop
      vertex 41 40.5 7
      vertex 24.2705 17.6336 7
      vertex 27.4064 12.2021 7
    endloop
  endfacet
  facet normal 0 0 1
    outer loop
      vertex 41 40.5 7
      vertex 29.3444 6.23735 7
      vertex 41 -40.5 7
    endloop
  endfacet
  facet normal 0 0 1
    outer loop
      vertex 41 40.5 7
      vertex 27.4064 12.2021 7
      vertex 29.3444 6.23735 7
    endloop
  endfacet
  facet normal 0 0 1
    outer loop
      vertex -12 -34 7
      vertex -12.4582 -35.8589 7
      vertex 9.27051 -28.5317 7
    endloop
  endfacet
  facet normal 0 0 1
    outer loop
      vertex 26.1162 35.9573 7
      vertex 2.5 29.8357 7
      vertex 3.13585 29.8357 7
    endloop
  endfacet
  facet normal 0 0 1
    outer loop
      vertex -20.0739 -22.2943 7
      vertex -36 -40.5 7
      vertex -15 -25.9808 7
    endloop
  endfacet
  facet normal 0 0 1
    outer loop
      vertex -24.2705 -17.6336 7
      vertex -36 -40.5 7
      vertex -20.0739 -22.2943 7
    endloop
  endfacet
  facet normal 0 0 1
    outer loop
      vertex -27.4064 -12.2021 7
      vertex -36 -40.5 7
      vertex -24.2705 -17.6336 7
    endloop
  endfacet
  facet normal 0 0 1
    outer loop
      vertex -29.3444 -6.23735 7
      vertex -36 -40.5 7
      vertex -27.4064 -12.2021 7
    endloop
  endfacet
  facet normal 0 0 1
    outer loop
      vertex -18.994 32.3475 7
      vertex -19.8838 34.0427 7
      vertex -36 40.5 7
    endloop
  endfacet
  facet normal 0 0 1
    outer loop
      vertex -12.4582 -32.1411 7
      vertex -12 -34 7
      vertex 3.13585 -29.8357 7
    endloop
  endfacet
  facet normal 0 0 1
    outer loop
      vertex -13.7277 -30.7081 7
      vertex -12.4582 -32.1411 7
      vertex -9.27051 -28.5317 7
    endloop
  endfacet
  facet normal 0 0 1
    outer loop
      vertex -18.994 -31.3475 7
      vertex -36 -40.5 7
      vertex -19.8838 -33.0427 7
    endloop
  endfacet
  facet normal 0 0 1
    outer loop
      vertex -15.5179 -30.0292 7
      vertex -13.7277 -30.7081 7
      vertex -9.27051 -28.5317 7
    endloop
  endfacet
  facet normal 0 0 1
    outer loop
      vertex -15 -25.9808 7
      vertex -36 -40.5 7
      vertex -18.994 -31.3475 7
    endloop
  endfacet
  facet normal 0 0 1
    outer loop
      vertex -15 -25.9808 7
      vertex -17.4184 -30.2599 7
      vertex -9.27051 -28.5317 7
    endloop
  endfacet
  facet normal 0 0 1
    outer loop
      vertex -17.4184 -30.2599 7
      vertex -15.5179 -30.0292 7
      vertex -9.27051 -28.5317 7
    endloop
  endfacet
  facet normal 0 0 1
    outer loop
      vertex -12.4582 -32.1411 7
      vertex 3.13585 -29.8357 7
      vertex -3.13585 -29.8357 7
    endloop
  endfacet
  facet normal 0 0 1
    outer loop
      vertex -18.994 -31.3475 7
      vertex -17.4184 -30.2599 7
      vertex -15 -25.9808 7
    endloop
  endfacet
  facet normal 0 0 1
    outer loop
      vertex -9.27051 -28.5317 7
      vertex -12.4582 -32.1411 7
      vertex -3.13585 -29.8357 7
    endloop
  endfacet
  facet normal 0 0 1
    outer loop
      vertex 3.13585 -29.8357 7
      vertex -12 -34 7
      vertex 9.27051 -28.5317 7
    endloop
  endfacet
  facet normal 0 0 1
    outer loop
      vertex -19.8838 -34.9573 7
      vertex -19.8838 -33.0427 7
      vertex -36 -40.5 7
    endloop
  endfacet
  facet normal 0 0 1
    outer loop
      vertex 30.4821 -37.9708 7
      vertex -12.4582 -35.8589 7
      vertex 41 -40.5 7
    endloop
  endfacet
  facet normal 0 0 1
    outer loop
      vertex 28.5816 -37.7401 7
      vertex 27.006 -36.6525 7
      vertex -12.4582 -35.8589 7
    endloop
  endfacet
  facet normal 0 0 1
    outer loop
      vertex -12.4582 -35.8589 7
      vertex -13.7277 -37.2919 7
      vertex 41 -40.5 7
    endloop
  endfacet
  facet normal 0 0 1
    outer loop
      vertex -13.7277 -37.2919 7
      vertex -15.5179 -37.9708 7
      vertex 41 -40.5 7
    endloop
  endfacet
  facet normal 0 0 1
    outer loop
      vertex -17.4184 -37.7401 7
      vertex -18.994 -36.6525 7
      vertex -36 -40.5 7
    endloop
  endfacet
  facet normal 0 0 1
    outer loop
      vertex 26.1162 35.9573 7
      vertex -2.5 28.5428 7
      vertex 2.5 29.8357 7
    endloop
  endfacet
  facet normal 0 0 1
    outer loop
      vertex 26.1162 -34.9573 7
      vertex 26.1162 -33.0427 7
      vertex 9.27051 -28.5317 7
    endloop
  endfacet
  facet normal 0 0 1
    outer loop
      vertex -19.8838 35.9573 7
      vertex -36 40.5 7
      vertex -19.8838 34.0427 7
    endloop
  endfacet
  facet normal 0 0 1
    outer loop
      vertex -18.994 37.6525 7
      vertex -36 40.5 7
      vertex -19.8838 35.9573 7
    endloop
  endfacet
  facet normal 0 0 1
    outer loop
      vertex -17.4184 38.7401 7
      vertex -36 40.5 7
      vertex -18.994 37.6525 7
    endloop
  endfacet
  facet normal 0 0 1
    outer loop
      vertex -15.5179 38.9708 7
      vertex -36 40.5 7
      vertex -17.4184 38.7401 7
    endloop
  endfacet
  facet normal 0 0 1
    outer loop
      vertex -13.7277 38.2919 7
      vertex -12.4582 36.8589 7
      vertex 41 40.5 7
    endloop
  endfacet
  facet normal 0 0 1
    outer loop
      vertex 41 40.5 7
      vertex -36 40.5 7
      vertex -15.5179 38.9708 7
    endloop
  endfacet
  facet normal 0 0 1
    outer loop
      vertex -12.4582 36.8589 7
      vertex -12 35 7
      vertex 41 40.5 7
    endloop
  endfacet
  facet normal 0 0 1
    outer loop
      vertex -12 35 7
      vertex -12.4582 33.1411 7
      vertex 41 40.5 7
    endloop
  endfacet
  facet normal 0 0 1
    outer loop
      vertex -13.7277 31.7081 7
      vertex -15.5179 31.0292 7
      vertex -9.27051 28.5317 7
    endloop
  endfacet
  facet normal 0 0 1
    outer loop
      vertex 27.006 37.6525 7
      vertex -12.4582 33.1411 7
      vertex -9.27051 28.5317 7
    endloop
  endfacet
  facet normal 0 0 1
    outer loop
      vertex -12.4582 33.1411 7
      vertex -13.7277 31.7081 7
      vertex -9.27051 28.5317 7
    endloop
  endfacet
  facet normal 0 0 1
    outer loop
      vertex -9.27051 28.5317 7
      vertex -15.5179 31.0292 7
      vertex -15 25.9808 7
    endloop
  endfacet
  facet normal 0 0 1
    outer loop
      vertex -15.5179 38.9708 7
      vertex -13.7277 38.2919 7
      vertex 41 40.5 7
    endloop
  endfacet
  facet normal 0 0 1
    outer loop
      vertex -15.5179 31.0292 7
      vertex -17.4184 31.2599 7
      vertex -15 25.9808 7
    endloop
  endfacet
  facet normal 0 0 1
    outer loop
      vertex -18.994 32.3475 7
      vertex -36 40.5 7
      vertex -17.4184 31.2599 7
    endloop
  endfacet
  facet normal 0 0 1
    outer loop
      vertex 26.1162 -33.0427 7
      vertex 27.006 -31.3475 7
      vertex 15 -25.9808 7
    endloop
  endfacet
  facet normal 0 0 1
    outer loop
      vertex 9.27051 -28.5317 7
      vertex -12.4582 -35.8589 7
      vertex 26.1162 -34.9573 7
    endloop
  endfacet
  facet normal 0 0 1
    outer loop
      vertex 28.5816 -30.2599 7
      vertex 30.4821 -30.0292 7
      vertex 20.0739 -22.2943 7
    endloop
  endfacet
  facet normal 0 0 1
    outer loop
      vertex -15.5179 -37.9708 7
      vertex -17.4184 -37.7401 7
      vertex -36 -40.5 7
    endloop
  endfacet
  facet normal 0 0 1
    outer loop
      vertex -18.994 -36.6525 7
      vertex -19.8838 -34.9573 7
      vertex -36 -40.5 7
    endloop
  endfacet
  facet normal 0 0 1
    outer loop
      vertex 34 -34 7
      vertex 33.5418 -35.8589 7
      vertex 41 -40.5 7
    endloop
  endfacet
  facet normal 0 0 1
    outer loop
      vertex -3.13585 29.8357 7
      vertex 27.006 37.6525 7
      vertex -9.27051 28.5317 7
    endloop
  endfacet
  facet normal 0 0 1
    outer loop
      vertex 20.0739 -22.2943 7
      vertex 27.006 -31.3475 7
      vertex 28.5816 -30.2599 7
    endloop
  endfacet
  facet normal 0 0 1
    outer loop
      vertex 26.1162 35.9573 7
      vertex 27.006 37.6525 7
      vertex -3.13585 29.8357 7
    endloop
  endfacet
  facet normal 0 0 1
    outer loop
      vertex 32.2723 -30.7081 7
      vertex 33.5418 -32.1411 7
      vertex 41 -40.5 7
    endloop
  endfacet
  facet normal 0 0 1
    outer loop
      vertex 15 -25.9808 7
      vertex 9.27051 -28.5317 7
      vertex 26.1162 -33.0427 7
    endloop
  endfacet
  facet normal 0 0 1
    outer loop
      vertex 32.2723 -37.2919 7
      vertex 30.4821 -37.9708 7
      vertex 41 -40.5 7
    endloop
  endfacet
  facet normal 0 0 1
    outer loop
      vertex 28.5816 -37.7401 7
      vertex -12.4582 -35.8589 7
      vertex 30.4821 -37.9708 7
    endloop
  endfacet
  facet normal 0 0 1
    outer loop
      vertex 26.1162 -34.9573 7
      vertex -12.4582 -35.8589 7
      vertex 27.006 -36.6525 7
    endloop
  endfacet
  facet normal 0 0 1
    outer loop
      vertex 33.5418 36.8589 7
      vertex 34 35 7
      vertex 41 40.5 7
    endloop
  endfacet
  facet normal 0 0 1
    outer loop
      vertex 34 35 7
      vertex 33.5418 33.1411 7
      vertex 41 40.5 7
    endloop
  endfacet
  facet normal 0 0 1
    outer loop
      vertex 29.3444 6.23735 7
      vertex 30 0 7
      vertex 41 -40.5 7
    endloop
  endfacet
  facet normal 0 0 1
    outer loop
      vertex 28.5816 38.7401 7
      vertex -12.4582 33.1411 7
      vertex 27.006 37.6525 7
    endloop
  endfacet
  facet normal 0 0 1
    outer loop
      vertex 41 40.5 7
      vertex -12.4582 33.1411 7
      vertex 28.5816 38.7401 7
    endloop
  endfacet
  facet normal 0 0 1
    outer loop
      vertex 41 40.5 7
      vertex 28.5816 38.7401 7
      vertex 30.4821 38.9708 7
    endloop
  endfacet
  facet normal 0 0 1
    outer loop
      vertex 26.1162 34.0427 7
      vertex 26.1162 35.9573 7
      vertex 9.27051 28.5317 7
    endloop
  endfacet
  facet normal 0 0 1
    outer loop
      vertex 41 40.5 7
      vertex 33.5418 33.1411 7
      vertex 24.2705 17.6336 7
    endloop
  endfacet
  facet normal 0 0 1
    outer loop
      vertex 33.5418 33.1411 7
      vertex 32.2723 31.7081 7
      vertex 24.2705 17.6336 7
    endloop
  endfacet
  facet normal 0 0 1
    outer loop
      vertex 30.4821 31.0292 7
      vertex 28.5816 31.2599 7
      vertex 20.0739 22.2943 7
    endloop
  endfacet
  facet normal 0 0 1
    outer loop
      vertex 32.2723 31.7081 7
      vertex 30.4821 31.0292 7
      vertex 20.0739 22.2943 7
    endloop
  endfacet
  facet normal 0 0 1
    outer loop
      vertex 28.5816 31.2599 7
      vertex 27.006 32.3475 7
      vertex 15 25.9808 7
    endloop
  endfacet
  facet normal 0 0 1
    outer loop
      vertex 33.5418 -35.8589 7
      vertex 32.2723 -37.2919 7
      vertex 41 -40.5 7
    endloop
  endfacet
  facet normal 0 0 1
    outer loop
      vertex 20.0739 -22.2943 7
      vertex 15 -25.9808 7
      vertex 27.006 -31.3475 7
    endloop
  endfacet
  facet normal 0 0 1
    outer loop
      vertex -20.0739 22.2943 7
      vertex -15 25.9808 7
      vertex -36 40.5 7
    endloop
  endfacet
  facet normal 0 0 1
    outer loop
      vertex 24.2705 -17.6336 7
      vertex 30.4821 -30.0292 7
      vertex 32.2723 -30.7081 7
    endloop
  endfacet
  facet normal 0 0 1
    outer loop
      vertex 33.5418 -32.1411 7
      vertex 34 -34 7
      vertex 41 -40.5 7
    endloop
  endfacet
  facet normal 0 0 1
    outer loop
      vertex 24.2705 -17.6336 7
      vertex 20.0739 -22.2943 7
      vertex 30.4821 -30.0292 7
    endloop
  endfacet
  facet normal 1 0 0
    outer loop
      vertex 41 -40.5 7
      vertex 41 -40.5 0
      vertex 41 40.5 0
    endloop
  endfacet
  facet normal 1 0 0
    outer loop
      vertex 41 40.5 7
      vertex 41 -40.5 7
      vertex 41 40.5 0
    endloop
  endfacet
  facet normal 0.994522 -0.104528 0
    outer loop
      vertex -28.0728 5.96707 0
      vertex -28.0728 5.96707 3
      vertex -28.7 0 3
    endloop
  endfacet
  facet normal 0.994522 -0.104528 0
    outer loop
      vertex -28.7 0 0
      vertex -28.0728 5.96707 0
      vertex -28.7 0 3
    endloop
  endfacet
  facet normal 0.994522 0.104528 0
    outer loop
      vertex -28.7 0 3
      vertex -28.0728 -5.96707 3
      vertex -28.0728 -5.96707 0
    endloop
  endfacet
  facet normal 0.994522 0.104528 0
    outer loop
      vertex -28.7 0 0
      vertex -28.7 0 3
      vertex -28.0728 -5.96707 0
    endloop
  endfacet
  facet normal 0.951057 -0.309017 0
    outer loop
      vertex -26.2188 11.6733 0
      vertex -26.2188 11.6733 3
      vertex -28.0728 5.96707 3
    endloop
  endfacet
  facet normal 0.951057 -0.309017 0
    outer loop
      vertex -28.0728 5.96707 0
      vertex -26.2188 11.6733 0
      vertex -28.0728 5.96707 3
    endloop
  endfacet
  facet normal 0.866025 -0.5 0
    outer loop
      vertex -23.2188 16.8694 0
      vertex -23.2188 16.8694 3
      vertex -26.2188 11.6733 3
    endloop
  endfacet
  facet normal 0.866025 -0.5 0
    outer loop
      vertex -26.2188 11.6733 0
      vertex -23.2188 16.8694 0
      vertex -26.2188 11.6733 3
    endloop
  endfacet
  facet normal 0.743145 -0.669131 0
    outer loop
      vertex -19.204 21.3283 0
      vertex -19.204 21.3283 3
      vertex -23.2188 16.8694 3
    endloop
  endfacet
  facet normal 0.743145 -0.669131 0
    outer loop
      vertex -23.2188 16.8694 0
      vertex -19.204 21.3283 0
      vertex -23.2188 16.8694 3
    endloop
  endfacet
  facet normal 0.587785 -0.809017 0
    outer loop
      vertex -14.35 24.8549 0
      vertex -14.35 24.8549 3
      vertex -19.204 21.3283 3
    endloop
  endfacet
  facet normal 0.587785 -0.809017 0
    outer loop
      vertex -19.204 21.3283 0
      vertex -14.35 24.8549 0
      vertex -19.204 21.3283 3
    endloop
  endfacet
  facet normal 0.406737 -0.913545 0
    outer loop
      vertex -8.86879 27.2953 0
      vertex -8.86879 27.2953 3
      vertex -14.35 24.8549 3
    endloop
  endfacet
  facet normal 0.406737 -0.913545 0
    outer loop
      vertex -14.35 24.8549 0
      vertex -8.86879 27.2953 0
      vertex -14.35 24.8549 3
    endloop
  endfacet
  facet normal 0.207912 -0.978148 0
    outer loop
      vertex -2.99997 28.5428 0
      vertex -2.99997 28.5428 3
      vertex -8.86879 27.2953 3
    endloop
  endfacet
  facet normal 0.207912 -0.978148 0
    outer loop
      vertex -8.86879 27.2953 0
      vertex -2.99997 28.5428 0
      vertex -8.86879 27.2953 3
    endloop
  endfacet
  facet normal 0 -1 0
    outer loop
      vertex 2.99997 28.5428 0
      vertex 2.99997 28.5428 3
      vertex -2.99997 28.5428 3
    endloop
  endfacet
  facet normal 0 -1 0
    outer loop
      vertex -2.99997 28.5428 0
      vertex 2.99997 28.5428 0
      vertex -2.99997 28.5428 3
    endloop
  endfacet
  facet normal -0.207912 -0.978148 0
    outer loop
      vertex 8.86879 27.2953 0
      vertex 8.86879 27.2953 3
      vertex 2.99997 28.5428 3
    endloop
  endfacet
  facet normal -0.207912 -0.978148 0
    outer loop
      vertex 2.99997 28.5428 0
      vertex 8.86879 27.2953 0
      vertex 2.99997 28.5428 3
    endloop
  endfacet
  facet normal -0.406737 -0.913545 0
    outer loop
      vertex 14.35 24.8549 0
      vertex 14.35 24.8549 3
      vertex 8.86879 27.2953 3
    endloop
  endfacet
  facet normal -0.406737 -0.913545 0
    outer loop
      vertex 8.86879 27.2953 0
      vertex 14.35 24.8549 0
      vertex 8.86879 27.2953 3
    endloop
  endfacet
  facet normal -0.587785 -0.809017 0
    outer loop
      vertex 19.204 21.3283 0
      vertex 19.204 21.3283 3
      vertex 14.35 24.8549 3
    endloop
  endfacet
  facet normal -0.587785 -0.809017 0
    outer loop
      vertex 14.35 24.8549 0
      vertex 19.204 21.3283 0
      vertex 14.35 24.8549 3
    endloop
  endfacet
  facet normal -0.743145 -0.669131 0
    outer loop
      vertex 23.2188 16.8694 3
      vertex 19.204 21.3283 3
      vertex 23.2188 16.8694 0
    endloop
  endfacet
  facet normal -0.743145 -0.669131 0
    outer loop
      vertex 23.2188 16.8694 0
      vertex 19.204 21.3283 3
      vertex 19.204 21.3283 0
    endloop
  endfacet
  facet normal -0.866025 -0.5 0
    outer loop
      vertex 26.2188 11.6733 3
      vertex 23.2188 16.8694 3
      vertex 26.2188 11.6733 0
    endloop
  endfacet
  facet normal -0.866025 -0.5 0
    outer loop
      vertex 26.2188 11.6733 0
      vertex 23.2188 16.8694 3
      vertex 23.2188 16.8694 0
    endloop
  endfacet
  facet normal -0.951057 -0.309017 0
    outer loop
      vertex 28.0728 5.96707 3
      vertex 26.2188 11.6733 3
      vertex 28.0728 5.96707 0
    endloop
  endfacet
  facet normal -0.951057 -0.309017 0
    outer loop
      vertex 28.0728 5.96707 0
      vertex 26.2188 11.6733 3
      vertex 26.2188 11.6733 0
    endloop
  endfacet
  facet normal -0.994522 -0.104528 0
    outer loop
      vertex 28.7 0 3
      vertex 28.0728 5.96707 3
      vertex 28.7 0 0
    endloop
  endfacet
  facet normal -0.994522 -0.104528 0
    outer loop
      vertex 28.7 0 0
      vertex 28.0728 5.96707 3
      vertex 28.0728 5.96707 0
    endloop
  endfacet
  facet normal -0.994522 0.104528 0
    outer loop
      vertex 28.7 0 3
      vertex 28.7 0 0
      vertex 28.0728 -5.96707 3
    endloop
  endfacet
  facet normal -0.994522 0.104528 0
    outer loop
      vertex 28.0728 -5.96707 3
      vertex 28.7 0 0
      vertex 28.0728 -5.96707 0
    endloop
  endfacet
  facet normal -0.951057 0.309017 0
    outer loop
      vertex 28.0728 -5.96707 3
      vertex 28.0728 -5.96707 0
      vertex 26.2188 -11.6733 3
    endloop
  endfacet
  facet normal -0.951057 0.309017 0
    outer loop
      vertex 26.2188 -11.6733 3
      vertex 28.0728 -5.96707 0
      vertex 26.2188 -11.6733 0
    endloop
  endfacet
  facet normal -0.866025 0.5 0
    outer loop
      vertex 26.2188 -11.6733 3
      vertex 26.2188 -11.6733 0
      vertex 23.2188 -16.8694 3
    endloop
  endfacet
  facet normal -0.866025 0.5 0
    outer loop
      vertex 23.2188 -16.8694 3
      vertex 26.2188 -11.6733 0
      vertex 23.2188 -16.8694 0
    endloop
  endfacet
  facet normal -0.743145 0.669131 0
    outer loop
      vertex 23.2188 -16.8694 3
      vertex 23.2188 -16.8694 0
      vertex 19.204 -21.3283 3
    endloop
  endfacet
  facet normal -0.743145 0.669131 0
    outer loop
      vertex 19.204 -21.3283 3
      vertex 23.2188 -16.8694 0
      vertex 19.204 -21.3283 0
    endloop
  endfacet
  facet normal -0.587785 0.809017 0
    outer loop
      vertex 19.204 -21.3283 3
      vertex 19.204 -21.3283 0
      vertex 14.35 -24.8549 3
    endloop
  endfacet
  facet normal -0.587785 0.809017 0
    outer loop
      vertex 14.35 -24.8549 3
      vertex 19.204 -21.3283 0
      vertex 14.35 -24.8549 0
    endloop
  endfacet
  facet normal -0.406737 0.913545 0
    outer loop
      vertex 14.35 -24.8549 3
      vertex 14.35 -24.8549 0
      vertex 8.86879 -27.2953 3
    endloop
  endfacet
  facet normal -0.406737 0.913545 0
    outer loop
      vertex 8.86879 -27.2953 3
      vertex 14.35 -24.8549 0
      vertex 8.86879 -27.2953 0
    endloop
  endfacet
  facet normal -0.207912 0.978148 0
    outer loop
      vertex 8.86879 -27.2953 3
      vertex 8.86879 -27.2953 0
      vertex 2.99997 -28.5428 3
    endloop
  endfacet
  facet normal -0.207912 0.978148 0
    outer loop
      vertex 2.99997 -28.5428 3
      vertex 8.86879 -27.2953 0
      vertex 2.99997 -28.5428 0
    endloop
  endfacet
  facet normal 0 1 0
    outer loop
      vertex 2.99997 -28.5428 3
      vertex 2.99997 -28.5428 0
      vertex -2.99997 -28.5428 3
    endloop
  endfacet
  facet normal 0 1 0
    outer loop
      vertex -2.99997 -28.5428 3
      vertex 2.99997 -28.5428 0
      vertex -2.99997 -28.5428 0
    endloop
  endfacet
  facet normal 0.207912 0.978148 0
    outer loop
      vertex -2.99997 -28.5428 3
      vertex -2.99997 -28.5428 0
      vertex -8.86879 -27.2953 3
    endloop
  endfacet
  facet normal 0.207912 0.978148 0
    outer loop
      vertex -8.86879 -27.2953 3
      vertex -2.99997 -28.5428 0
      vertex -8.86879 -27.2953 0
    endloop
  endfacet
  facet normal 0.406737 0.913545 0
    outer loop
      vertex -8.86879 -27.2953 3
      vertex -8.86879 -27.2953 0
      vertex -14.35 -24.8549 3
    endloop
  endfacet
  facet normal 0.406737 0.913545 0
    outer loop
      vertex -14.35 -24.8549 3
      vertex -8.86879 -27.2953 0
      vertex -14.35 -24.8549 0
    endloop
  endfacet
  facet normal 0.587785 0.809017 0
    outer loop
      vertex -14.35 -24.8549 3
      vertex -14.35 -24.8549 0
      vertex -19.204 -21.3283 3
    endloop
  endfacet
  facet normal 0.587785 0.809017 0
    outer loop
      vertex -19.204 -21.3283 3
      vertex -14.35 -24.8549 0
      vertex -19.204 -21.3283 0
    endloop
  endfacet
  facet normal 0.743145 0.669131 0
    outer loop
      vertex -23.2188 -16.8694 3
      vertex -19.204 -21.3283 3
      vertex -19.204 -21.3283 0
    endloop
  endfacet
  facet normal 0.743145 0.669131 0
    outer loop
      vertex -23.2188 -16.8694 0
      vertex -23.2188 -16.8694 3
      vertex -19.204 -21.3283 0
    endloop
  endfacet
  facet normal 0.866025 0.5 0
    outer loop
      vertex -26.2188 -11.6733 3
      vertex -23.2188 -16.8694 3
      vertex -23.2188 -16.8694 0
    endloop
  endfacet
  facet normal 0.866025 0.5 0
    outer loop
      vertex -26.2188 -11.6733 0
      vertex -26.2188 -11.6733 3
      vertex -23.2188 -16.8694 0
    endloop
  endfacet
  facet normal 0.951057 0.309017 0
    outer loop
      vertex -28.0728 -5.96707 3
      vertex -26.2188 -11.6733 3
      vertex -26.2188 -11.6733 0
    endloop
  endfacet
  facet normal 0.951057 0.309017 0
    outer loop
      vertex -28.0728 -5.96707 0
      vertex -28.0728 -5.96707 3
      vertex -26.2188 -11.6733 0
    endloop
  endfacet
  facet normal 1 0 0
    outer loop
      vertex -19.8838 -33.0427 0
      vertex -19.8838 -33.0427 7
      vertex -19.8838 -34.9573 7
    endloop
  endfacet
  facet normal 1 0 0
    outer loop
      vertex -19.8838 -34.9573 0
      vertex -19.8838 -33.0427 0
      vertex -19.8838 -34.9573 7
    endloop
  endfacet
  facet normal 0.885456 -0.464723 0
    outer loop
      vertex -18.994 -31.3475 0
      vertex -18.994 -31.3475 7
      vertex -19.8838 -33.0427 7
    endloop
  endfacet
  facet normal 0.885456 -0.464723 0
    outer loop
      vertex -19.8838 -33.0427 0
      vertex -18.994 -31.3475 0
      vertex -19.8838 -33.0427 7
    endloop
  endfacet
  facet normal 0.568065 -0.822984 0
    outer loop
      vertex -17.4184 -30.2599 0
      vertex -17.4184 -30.2599 7
      vertex -18.994 -31.3475 7
    endloop
  endfacet
  facet normal 0.568065 -0.822984 0
    outer loop
      vertex -18.994 -31.3475 0
      vertex -17.4184 -30.2599 0
      vertex -18.994 -31.3475 7
    endloop
  endfacet
  facet normal 0.120536 -0.992709 0
    outer loop
      vertex -15.5179 -30.0292 0
      vertex -15.5179 -30.0292 7
      vertex -17.4184 -30.2599 7
    endloop
  endfacet
  facet normal 0.120536 -0.992709 0
    outer loop
      vertex -17.4184 -30.2599 0
      vertex -15.5179 -30.0292 0
      vertex -17.4184 -30.2599 7
    endloop
  endfacet
  facet normal -0.354605 -0.935016 0
    outer loop
      vertex -13.7277 -30.7081 0
      vertex -13.7277 -30.7081 7
      vertex -15.5179 -30.0292 7
    endloop
  endfacet
  facet normal -0.354605 -0.935016 0
    outer loop
      vertex -15.5179 -30.0292 0
      vertex -13.7277 -30.7081 0
      vertex -15.5179 -30.0292 7
    endloop
  endfacet
  facet normal -0.748511 -0.663123 0
    outer loop
      vertex -12.4582 -32.1411 7
      vertex -13.7277 -30.7081 7
      vertex -12.4582 -32.1411 0
    endloop
  endfacet
  facet normal -0.748511 -0.663123 0
    outer loop
      vertex -12.4582 -32.1411 0
      vertex -13.7277 -30.7081 7
      vertex -13.7277 -30.7081 0
    endloop
  endfacet
  facet normal -0.970942 -0.239316 0
    outer loop
      vertex -12 -34 7
      vertex -12.4582 -32.1411 7
      vertex -12 -34 0
    endloop
  endfacet
  facet normal -0.970942 -0.239316 0
    outer loop
      vertex -12 -34 0
      vertex -12.4582 -32.1411 7
      vertex -12.4582 -32.1411 0
    endloop
  endfacet
  facet normal -0.970942 0.239316 0
    outer loop
      vertex -12 -34 7
      vertex -12 -34 0
      vertex -12.4582 -35.8589 7
    endloop
  endfacet
  facet normal -0.970942 0.239316 0
    outer loop
      vertex -12.4582 -35.8589 7
      vertex -12 -34 0
      vertex -12.4582 -35.8589 0
    endloop
  endfacet
  facet normal -0.748511 0.663123 0
    outer loop
      vertex -12.4582 -35.8589 7
      vertex -12.4582 -35.8589 0
      vertex -13.7277 -37.2919 7
    endloop
  endfacet
  facet normal -0.748511 0.663123 0
    outer loop
      vertex -13.7277 -37.2919 7
      vertex -12.4582 -35.8589 0
      vertex -13.7277 -37.2919 0
    endloop
  endfacet
  facet normal -0.354605 0.935016 0
    outer loop
      vertex -13.7277 -37.2919 7
      vertex -13.7277 -37.2919 0
      vertex -15.5179 -37.9708 7
    endloop
  endfacet
  facet normal -0.354605 0.935016 0
    outer loop
      vertex -15.5179 -37.9708 7
      vertex -13.7277 -37.2919 0
      vertex -15.5179 -37.9708 0
    endloop
  endfacet
  facet normal 0.120536 0.992709 0
    outer loop
      vertex -15.5179 -37.9708 7
      vertex -15.5179 -37.9708 0
      vertex -17.4184 -37.7401 7
    endloop
  endfacet
  facet normal 0.120536 0.992709 0
    outer loop
      vertex -17.4184 -37.7401 7
      vertex -15.5179 -37.9708 0
      vertex -17.4184 -37.7401 0
    endloop
  endfacet
  facet normal 0.568065 0.822984 0
    outer loop
      vertex -17.4184 -37.7401 7
      vertex -17.4184 -37.7401 0
      vertex -18.994 -36.6525 7
    endloop
  endfacet
  facet normal 0.568065 0.822984 0
    outer loop
      vertex -18.994 -36.6525 7
      vertex -17.4184 -37.7401 0
      vertex -18.994 -36.6525 0
    endloop
  endfacet
  facet normal 0.885456 0.464723 0
    outer loop
      vertex -19.8838 -34.9573 7
      vertex -18.994 -36.6525 7
      vertex -18.994 -36.6525 0
    endloop
  endfacet
  facet normal 0.885456 0.464723 0
    outer loop
      vertex -19.8838 -34.9573 0
      vertex -19.8838 -34.9573 7
      vertex -18.994 -36.6525 0
    endloop
  endfacet
  facet normal 1 0 0
    outer loop
      vertex -19.8838 35.9573 0
      vertex -19.8838 35.9573 7
      vertex -19.8838 34.0427 7
    endloop
  endfacet
  facet normal 1 0 0
    outer loop
      vertex -19.8838 34.0427 0
      vertex -19.8838 35.9573 0
      vertex -19.8838 34.0427 7
    endloop
  endfacet
  facet normal 0.885456 -0.464723 0
    outer loop
      vertex -18.994 37.6525 0
      vertex -18.994 37.6525 7
      vertex -19.8838 35.9573 7
    endloop
  endfacet
  facet normal 0.885456 -0.464723 0
    outer loop
      vertex -19.8838 35.9573 0
      vertex -18.994 37.6525 0
      vertex -19.8838 35.9573 7
    endloop
  endfacet
  facet normal 0.568065 -0.822984 0
    outer loop
      vertex -17.4184 38.7401 0
      vertex -17.4184 38.7401 7
      vertex -18.994 37.6525 7
    endloop
  endfacet
  facet normal 0.568065 -0.822984 0
    outer loop
      vertex -18.994 37.6525 0
      vertex -17.4184 38.7401 0
      vertex -18.994 37.6525 7
    endloop
  endfacet
  facet normal 0.120536 -0.992709 0
    outer loop
      vertex -15.5179 38.9708 0
      vertex -15.5179 38.9708 7
      vertex -17.4184 38.7401 7
    endloop
  endfacet
  facet normal 0.120536 -0.992709 0
    outer loop
      vertex -17.4184 38.7401 0
      vertex -15.5179 38.9708 0
      vertex -17.4184 38.7401 7
    endloop
  endfacet
  facet normal -0.354605 -0.935016 0
    outer loop
      vertex -13.7277 38.2919 0
      vertex -13.7277 38.2919 7
      vertex -15.5179 38.9708 7
    endloop
  endfacet
  facet normal -0.354605 -0.935016 0
    outer loop
      vertex -15.5179 38.9708 0
      vertex -13.7277 38.2919 0
      vertex -15.5179 38.9708 7
    endloop
  endfacet
  facet normal -0.748511 -0.663123 0
    outer loop
      vertex -12.4582 36.8589 7
      vertex -13.7277 38.2919 7
      vertex -12.4582 36.8589 0
    endloop
  endfacet
  facet normal -0.748511 -0.663123 0
    outer loop
      vertex -12.4582 36.8589 0
      vertex -13.7277 38.2919 7
      vertex -13.7277 38.2919 0
    endloop
  endfacet
  facet normal -0.970942 -0.239316 0
    outer loop
      vertex -12 35 7
      vertex -12.4582 36.8589 7
      vertex -12 35 0
    endloop
  endfacet
  facet normal -0.970942 -0.239316 0
    outer loop
      vertex -12 35 0
      vertex -12.4582 36.8589 7
      vertex -12.4582 36.8589 0
    endloop
  endfacet
  facet normal -0.970942 0.239316 0
    outer loop
      vertex -12 35 7
      vertex -12 35 0
      vertex -12.4582 33.1411 7
    endloop
  endfacet
  facet normal -0.970942 0.239316 0
    outer loop
      vertex -12.4582 33.1411 7
      vertex -12 35 0
      vertex -12.4582 33.1411 0
    endloop
  endfacet
  facet normal -0.748511 0.663123 0
    outer loop
      vertex -12.4582 33.1411 7
      vertex -12.4582 33.1411 0
      vertex -13.7277 31.7081 7
    endloop
  endfacet
  facet normal -0.748511 0.663123 0
    outer loop
      vertex -13.7277 31.7081 7
      vertex -12.4582 33.1411 0
      vertex -13.7277 31.7081 0
    endloop
  endfacet
  facet normal -0.354605 0.935016 0
    outer loop
      vertex -13.7277 31.7081 7
      vertex -13.7277 31.7081 0
      vertex -15.5179 31.0292 7
    endloop
  endfacet
  facet normal -0.354605 0.935016 0
    outer loop
      vertex -15.5179 31.0292 7
      vertex -13.7277 31.7081 0
      vertex -15.5179 31.0292 0
    endloop
  endfacet
  facet normal 0.120536 0.992709 0
    outer loop
      vertex -15.5179 31.0292 7
      vertex -15.5179 31.0292 0
      vertex -17.4184 31.2599 7
    endloop
  endfacet
  facet normal 0.120536 0.992709 0
    outer loop
      vertex -17.4184 31.2599 7
      vertex -15.5179 31.0292 0
      vertex -17.4184 31.2599 0
    endloop
  endfacet
  facet normal 0.568065 0.822984 0
    outer loop
      vertex -17.4184 31.2599 7
      vertex -17.4184 31.2599 0
      vertex -18.994 32.3475 7
    endloop
  endfacet
  facet normal 0.568065 0.822984 0
    outer loop
      vertex -18.994 32.3475 7
      vertex -17.4184 31.2599 0
      vertex -18.994 32.3475 0
    endloop
  endfacet
  facet normal 0.885456 0.464723 0
    outer loop
      vertex -19.8838 34.0427 7
      vertex -18.994 32.3475 7
      vertex -18.994 32.3475 0
    endloop
  endfacet
  facet normal 0.885456 0.464723 0
    outer loop
      vertex -19.8838 34.0427 0
      vertex -19.8838 34.0427 7
      vertex -18.994 32.3475 0
    endloop
  endfacet
  facet normal 1 0 0
    outer loop
      vertex 26.1162 -33.0427 0
      vertex 26.1162 -33.0427 7
      vertex 26.1162 -34.9573 7
    endloop
  endfacet
  facet normal 1 0 0
    outer loop
      vertex 26.1162 -34.9573 0
      vertex 26.1162 -33.0427 0
      vertex 26.1162 -34.9573 7
    endloop
  endfacet
  facet normal 0.885456 -0.464723 0
    outer loop
      vertex 27.006 -31.3475 0
      vertex 27.006 -31.3475 7
      vertex 26.1162 -33.0427 7
    endloop
  endfacet
  facet normal 0.885456 -0.464723 0
    outer loop
      vertex 26.1162 -33.0427 0
      vertex 27.006 -31.3475 0
      vertex 26.1162 -33.0427 7
    endloop
  endfacet
  facet normal 0.568065 -0.822984 0
    outer loop
      vertex 28.5816 -30.2599 0
      vertex 28.5816 -30.2599 7
      vertex 27.006 -31.3475 7
    endloop
  endfacet
  facet normal 0.568065 -0.822984 0
    outer loop
      vertex 27.006 -31.3475 0
      vertex 28.5816 -30.2599 0
      vertex 27.006 -31.3475 7
    endloop
  endfacet
  facet normal 0.120536 -0.992709 0
    outer loop
      vertex 30.4821 -30.0292 0
      vertex 30.4821 -30.0292 7
      vertex 28.5816 -30.2599 7
    endloop
  endfacet
  facet normal 0.120536 -0.992709 0
    outer loop
      vertex 28.5816 -30.2599 0
      vertex 30.4821 -30.0292 0
      vertex 28.5816 -30.2599 7
    endloop
  endfacet
  facet normal -0.354605 -0.935016 0
    outer loop
      vertex 32.2723 -30.7081 0
      vertex 32.2723 -30.7081 7
      vertex 30.4821 -30.0292 7
    endloop
  endfacet
  facet normal -0.354605 -0.935016 0
    outer loop
      vertex 30.4821 -30.0292 0
      vertex 32.2723 -30.7081 0
      vertex 30.4821 -30.0292 7
    endloop
  endfacet
  facet normal -0.748511 -0.663123 0
    outer loop
      vertex 33.5418 -32.1411 7
      vertex 32.2723 -30.7081 7
      vertex 33.5418 -32.1411 0
    endloop
  endfacet
  facet normal -0.748511 -0.663123 0
    outer loop
      vertex 33.5418 -32.1411 0
      vertex 32.2723 -30.7081 7
      vertex 32.2723 -30.7081 0
    endloop
  endfacet
  facet normal -0.970942 -0.239316 0
    outer loop
      vertex 34 -34 7
      vertex 33.5418 -32.1411 7
      vertex 34 -34 0
    endloop
  endfacet
  facet normal -0.970942 -0.239316 0
    outer loop
      vertex 34 -34 0
      vertex 33.5418 -32.1411 7
      vertex 33.5418 -32.1411 0
    endloop
  endfacet
  facet normal -0.970942 0.239316 0
    outer loop
      vertex 34 -34 7
      vertex 34 -34 0
      vertex 33.5418 -35.8589 7
    endloop
  endfacet
  facet normal -0.970942 0.239316 0
    outer loop
      vertex 33.5418 -35.8589 7
      vertex 34 -34 0
      vertex 33.5418 -35.8589 0
    endloop
  endfacet
  facet normal -0.748511 0.663123 0
    outer loop
      vertex 33.5418 -35.8589 7
      vertex 33.5418 -35.8589 0
      vertex 32.2723 -37.2919 7
    endloop
  endfacet
  facet normal -0.748511 0.663123 0
    outer loop
      vertex 32.2723 -37.2919 7
      vertex 33.5418 -35.8589 0
      vertex 32.2723 -37.2919 0
    endloop
  endfacet
  facet normal -0.354605 0.935016 0
    outer loop
      vertex 32.2723 -37.2919 7
      vertex 32.2723 -37.2919 0
      vertex 30.4821 -37.9708 7
    endloop
  endfacet
  facet normal -0.354605 0.935016 0
    outer loop
      vertex 30.4821 -37.9708 7
      vertex 32.2723 -37.2919 0
      vertex 30.4821 -37.9708 0
    endloop
  endfacet
  facet normal 0.120536 0.992709 0
    outer loop
      vertex 30.4821 -37.9708 7
      vertex 30.4821 -37.9708 0
      vertex 28.5816 -37.7401 7
    endloop
  endfacet
  facet normal 0.120536 0.992709 0
    outer loop
      vertex 28.5816 -37.7401 7
      vertex 30.4821 -37.9708 0
      vertex 28.5816 -37.7401 0
    endloop
  endfacet
  facet normal 0.568065 0.822984 0
    outer loop
      vertex 28.5816 -37.7401 7
      vertex 28.5816 -37.7401 0
      vertex 27.006 -36.6525 7
    endloop
  endfacet
  facet normal 0.568065 0.822984 0
    outer loop
      vertex 27.006 -36.6525 7
      vertex 28.5816 -37.7401 0
      vertex 27.006 -36.6525 0
    endloop
  endfacet
  facet normal 0.885456 0.464723 0
    outer loop
      vertex 26.1162 -34.9573 7
      vertex 27.006 -36.6525 7
      vertex 27.006 -36.6525 0
    endloop
  endfacet
  facet normal 0.885456 0.464723 0
    outer loop
      vertex 26.1162 -34.9573 0
      vertex 26.1162 -34.9573 7
      vertex 27.006 -36.6525 0
    endloop
  endfacet
  facet normal 1 0 0
    outer loop
      vertex 26.1162 35.9573 0
      vertex 26.1162 35.9573 7
      vertex 26.1162 34.0427 7
    endloop
  endfacet
  facet normal 1 0 0
    outer loop
      vertex 26.1162 34.0427 0
      vertex 26.1162 35.9573 0
      vertex 26.1162 34.0427 7
    endloop
  endfacet
  facet normal 0.885456 -0.464723 0
    outer loop
      vertex 27.006 37.6525 0
      vertex 27.006 37.6525 7
      vertex 26.1162 35.9573 7
    endloop
  endfacet
  facet normal 0.885456 -0.464723 0
    outer loop
      vertex 26.1162 35.9573 0
      vertex 27.006 37.6525 0
      vertex 26.1162 35.9573 7
    endloop
  endfacet
  facet normal 0.568065 -0.822984 0
    outer loop
      vertex 28.5816 38.7401 0
      vertex 28.5816 38.7401 7
      vertex 27.006 37.6525 7
    endloop
  endfacet
  facet normal 0.568065 -0.822984 0
    outer loop
      vertex 27.006 37.6525 0
      vertex 28.5816 38.7401 0
      vertex 27.006 37.6525 7
    endloop
  endfacet
  facet normal 0.120536 -0.992709 0
    outer loop
      vertex 30.4821 38.9708 0
      vertex 30.4821 38.9708 7
      vertex 28.5816 38.7401 7
    endloop
  endfacet
  facet normal 0.120536 -0.992709 0
    outer loop
      vertex 28.5816 38.7401 0
      vertex 30.4821 38.9708 0
      vertex 28.5816 38.7401 7
    endloop
  endfacet
  facet normal -0.354605 -0.935016 0
    outer loop
      vertex 32.2723 38.2919 0
      vertex 32.2723 38.2919 7
      vertex 30.4821 38.9708 7
    endloop
  endfacet
  facet normal -0.354605 -0.935016 0
    outer loop
      vertex 30.4821 38.9708 0
      vertex 32.2723 38.2919 0
      vertex 30.4821 38.9708 7
    endloop
  endfacet
  facet normal -0.748511 -0.663123 0
    outer loop
      vertex 33.5418 36.8589 7
      vertex 32.2723 38.2919 7
      vertex 33.5418 36.8589 0
    endloop
  endfacet
  facet normal -0.748511 -0.663123 0
    outer loop
      vertex 33.5418 36.8589 0
      vertex 32.2723 38.2919 7
      vertex 32.2723 38.2919 0
    endloop
  endfacet
  facet normal -0.970942 -0.239316 0
    outer loop
      vertex 34 35 7
      vertex 33.5418 36.8589 7
      vertex 34 35 0
    endloop
  endfacet
  facet normal -0.970942 -0.239316 0
    outer loop
      vertex 34 35 0
      vertex 33.5418 36.8589 7
      vertex 33.5418 36.8589 0
    endloop
  endfacet
  facet normal -0.970942 0.239316 0
    outer loop
      vertex 34 35 7
      vertex 34 35 0
      vertex 33.5418 33.1411 7
    endloop
  endfacet
  facet normal -0.970942 0.239316 0
    outer loop
      vertex 33.5418 33.1411 7
      vertex 34 35 0
      vertex 33.5418 33.1411 0
    endloop
  endfacet
  facet normal -0.748511 0.663123 0
    outer loop
      vertex 33.5418 33.1411 7
      vertex 33.5418 33.1411 0
      vertex 32.2723 31.7081 7
    endloop
  endfacet
  facet normal -0.748511 0.663123 0
    outer loop
      vertex 32.2723 31.7081 7
      vertex 33.5418 33.1411 0
      vertex 32.2723 31.7081 0
    endloop
  endfacet
  facet normal -0.354605 0.935016 0
    outer loop
      vertex 32.2723 31.7081 7
      vertex 32.2723 31.7081 0
      vertex 30.4821 31.0292 7
    endloop
  endfacet
  facet normal -0.354605 0.935016 0
    outer loop
      vertex 30.4821 31.0292 7
      vertex 32.2723 31.7081 0
      vertex 30.4821 31.0292 0
    endloop
  endfacet
  facet normal 0.120536 0.992709 0
    outer loop
      vertex 30.4821 31.0292 7
      vertex 30.4821 31.0292 0
      vertex 28.5816 31.2599 7
    endloop
  endfacet
  facet normal 0.120536 0.992709 0
    outer loop
      vertex 28.5816 31.2599 7
      vertex 30.4821 31.0292 0
      vertex 28.5816 31.2599 0
    endloop
  endfacet
  facet normal 0.568065 0.822984 0
    outer loop
      vertex 28.5816 31.2599 7
      vertex 28.5816 31.2599 0
      vertex 27.006 32.3475 7
    endloop
  endfacet
  facet normal 0.568065 0.822984 0
    outer loop
      vertex 27.006 32.3475 7
      vertex 28.5816 31.2599 0
      vertex 27.006 32.3475 0
    endloop
  endfacet
  facet normal 0.885456 0.464723 0
    outer loop
      vertex 26.1162 34.0427 7
      vertex 27.006 32.3475 7
      vertex 27.006 32.3475 0
    endloop
  endfacet
  facet normal 0.885456 0.464723 0
    outer loop
      vertex 26.1162 34.0427 0
      vertex 26.1162 34.0427 7
      vertex 27.006 32.3475 0
    endloop
  endfacet
  facet normal -0.951057 -0.309017 0
    outer loop
      vertex -29.3444 -6.23735 7
      vertex -27.4064 -12.2021 7
      vertex -29.3444 -6.23735 10.35
    endloop
  endfacet
  facet normal -0.951057 -0.309017 0
    outer loop
      vertex -29.3444 -6.23735 10.35
      vertex -27.4064 -12.2021 7
      vertex -27.4064 -12.2021 10.35
    endloop
  endfacet
  facet normal -0.994522 -0.104528 0
    outer loop
      vertex -30 0 7
      vertex -29.3444 -6.23735 7
      vertex -30 0 10.35
    endloop
  endfacet
  facet normal -0.994522 -0.104528 0
    outer loop
      vertex -30 0 10.35
      vertex -29.3444 -6.23735 7
      vertex -29.3444 -6.23735 10.35
    endloop
  endfacet
  facet normal -0.866025 -0.5 0
    outer loop
      vertex -27.4064 -12.2021 7
      vertex -24.2705 -17.6336 7
      vertex -27.4064 -12.2021 10.35
    endloop
  endfacet
  facet normal -0.866025 -0.5 0
    outer loop
      vertex -27.4064 -12.2021 10.35
      vertex -24.2705 -17.6336 7
      vertex -24.2705 -17.6336 10.35
    endloop
  endfacet
  facet normal -0.743145 -0.669131 0
    outer loop
      vertex -24.2705 -17.6336 7
      vertex -20.0739 -22.2943 7
      vertex -24.2705 -17.6336 10.35
    endloop
  endfacet
  facet normal -0.743145 -0.669131 0
    outer loop
      vertex -24.2705 -17.6336 10.35
      vertex -20.0739 -22.2943 7
      vertex -20.0739 -22.2943 10.35
    endloop
  endfacet
  facet normal -0.587785 -0.809017 0
    outer loop
      vertex -20.0739 -22.2943 10.35
      vertex -20.0739 -22.2943 7
      vertex -15 -25.9808 7
    endloop
  endfacet
  facet normal -0.587785 -0.809017 0
    outer loop
      vertex -15 -25.9808 10.35
      vertex -20.0739 -22.2943 10.35
      vertex -15 -25.9808 7
    endloop
  endfacet
  facet normal -0.406737 -0.913545 0
    outer loop
      vertex -15 -25.9808 10.35
      vertex -15 -25.9808 7
      vertex -9.27051 -28.5317 7
    endloop
  endfacet
  facet normal -0.406737 -0.913545 0
    outer loop
      vertex -9.27051 -28.5317 10.35
      vertex -15 -25.9808 10.35
      vertex -9.27051 -28.5317 7
    endloop
  endfacet
  facet normal -0.207912 -0.978148 0
    outer loop
      vertex -9.27051 -28.5317 10.35
      vertex -9.27051 -28.5317 7
      vertex -3.13585 -29.8357 7
    endloop
  endfacet
  facet normal -0.207912 -0.978148 0
    outer loop
      vertex -3.13585 -29.8357 10.35
      vertex -9.27051 -28.5317 10.35
      vertex -3.13585 -29.8357 7
    endloop
  endfacet
  facet normal 0 -1 0
    outer loop
      vertex -3.13585 -29.8357 10.35
      vertex -3.13585 -29.8357 7
      vertex 3.13585 -29.8357 7
    endloop
  endfacet
  facet normal 0 -1 0
    outer loop
      vertex 3.13585 -29.8357 10.35
      vertex -3.13585 -29.8357 10.35
      vertex 3.13585 -29.8357 7
    endloop
  endfacet
  facet normal 0.207912 -0.978148 0
    outer loop
      vertex 3.13585 -29.8357 10.35
      vertex 3.13585 -29.8357 7
      vertex 9.27051 -28.5317 7
    endloop
  endfacet
  facet normal 0.207912 -0.978148 0
    outer loop
      vertex 9.27051 -28.5317 10.35
      vertex 3.13585 -29.8357 10.35
      vertex 9.27051 -28.5317 7
    endloop
  endfacet
  facet normal 0.406737 -0.913545 0
    outer loop
      vertex 9.27051 -28.5317 10.35
      vertex 9.27051 -28.5317 7
      vertex 15 -25.9808 7
    endloop
  endfacet
  facet normal 0.406737 -0.913545 0
    outer loop
      vertex 15 -25.9808 10.35
      vertex 9.27051 -28.5317 10.35
      vertex 15 -25.9808 7
    endloop
  endfacet
  facet normal 0.587785 -0.809017 0
    outer loop
      vertex 15 -25.9808 10.35
      vertex 15 -25.9808 7
      vertex 20.0739 -22.2943 7
    endloop
  endfacet
  facet normal 0.587785 -0.809017 0
    outer loop
      vertex 20.0739 -22.2943 10.35
      vertex 15 -25.9808 10.35
      vertex 20.0739 -22.2943 7
    endloop
  endfacet
  facet normal 0.743145 -0.669131 0
    outer loop
      vertex 20.0739 -22.2943 10.35
      vertex 20.0739 -22.2943 7
      vertex 24.2705 -17.6336 7
    endloop
  endfacet
  facet normal 0.743145 -0.669131 0
    outer loop
      vertex 24.2705 -17.6336 10.35
      vertex 20.0739 -22.2943 10.35
      vertex 24.2705 -17.6336 7
    endloop
  endfacet
  facet normal 0.866025 -0.5 0
    outer loop
      vertex 24.2705 -17.6336 10.35
      vertex 24.2705 -17.6336 7
      vertex 27.4064 -12.2021 7
    endloop
  endfacet
  facet normal 0.866025 -0.5 0
    outer loop
      vertex 27.4064 -12.2021 10.35
      vertex 24.2705 -17.6336 10.35
      vertex 27.4064 -12.2021 7
    endloop
  endfacet
  facet normal 0.951057 -0.309017 0
    outer loop
      vertex 27.4064 -12.2021 10.35
      vertex 27.4064 -12.2021 7
      vertex 29.3444 -6.23735 7
    endloop
  endfacet
  facet normal 0.951057 -0.309017 0
    outer loop
      vertex 29.3444 -6.23735 10.35
      vertex 27.4064 -12.2021 10.35
      vertex 29.3444 -6.23735 7
    endloop
  endfacet
  facet normal 0.994522 -0.104528 0
    outer loop
      vertex 29.3444 -6.23735 10.35
      vertex 29.3444 -6.23735 7
      vertex 30 0 7
    endloop
  endfacet
  facet normal 0.994522 -0.104528 0
    outer loop
      vertex 30 0 10.35
      vertex 29.3444 -6.23735 10.35
      vertex 30 0 7
    endloop
  endfacet
  facet normal 0.994522 0.104528 0
    outer loop
      vertex 29.3444 6.23735 10.35
      vertex 30 0 10.35
      vertex 30 0 7
    endloop
  endfacet
  facet normal 0.994522 0.104528 0
    outer loop
      vertex 29.3444 6.23735 7
      vertex 29.3444 6.23735 10.35
      vertex 30 0 7
    endloop
  endfacet
  facet normal 0.951057 0.309017 0
    outer loop
      vertex 27.4064 12.2021 10.35
      vertex 29.3444 6.23735 10.35
      vertex 29.3444 6.23735 7
    endloop
  endfacet
  facet normal 0.951057 0.309017 0
    outer loop
      vertex 27.4064 12.2021 7
      vertex 27.4064 12.2021 10.35
      vertex 29.3444 6.23735 7
    endloop
  endfacet
  facet normal 0.866025 0.5 0
    outer loop
      vertex 24.2705 17.6336 10.35
      vertex 27.4064 12.2021 10.35
      vertex 27.4064 12.2021 7
    endloop
  endfacet
  facet normal 0.866025 0.5 0
    outer loop
      vertex 24.2705 17.6336 7
      vertex 24.2705 17.6336 10.35
      vertex 27.4064 12.2021 7
    endloop
  endfacet
  facet normal 0.743145 0.669131 0
    outer loop
      vertex 20.0739 22.2943 10.35
      vertex 24.2705 17.6336 10.35
      vertex 24.2705 17.6336 7
    endloop
  endfacet
  facet normal 0.743145 0.669131 0
    outer loop
      vertex 20.0739 22.2943 7
      vertex 20.0739 22.2943 10.35
      vertex 24.2705 17.6336 7
    endloop
  endfacet
  facet normal 0.587785 0.809017 0
    outer loop
      vertex 20.0739 22.2943 10.35
      vertex 20.0739 22.2943 7
      vertex 15 25.9808 10.35
    endloop
  endfacet
  facet normal 0.587785 0.809017 0
    outer loop
      vertex 15 25.9808 10.35
      vertex 20.0739 22.2943 7
      vertex 15 25.9808 7
    endloop
  endfacet
  facet normal 0.406737 0.913545 0
    outer loop
      vertex 15 25.9808 10.35
      vertex 15 25.9808 7
      vertex 9.27051 28.5317 10.35
    endloop
  endfacet
  facet normal 0.406737 0.913545 0
    outer loop
      vertex 9.27051 28.5317 10.35
      vertex 15 25.9808 7
      vertex 9.27051 28.5317 7
    endloop
  endfacet
  facet normal 0.207912 0.978148 0
    outer loop
      vertex 9.27051 28.5317 10.35
      vertex 9.27051 28.5317 7
      vertex 3.13585 29.8357 10.35
    endloop
  endfacet
  facet normal 0.207912 0.978148 0
    outer loop
      vertex 3.13585 29.8357 10.35
      vertex 9.27051 28.5317 7
      vertex 3.13585 29.8357 7
    endloop
  endfacet
  facet normal 0 1 0
    outer loop
      vertex 3.13585 29.8357 10.35
      vertex 3.13585 29.8357 7
      vertex 2.5 29.8357 10.35
    endloop
  endfacet
  facet normal 0 1 0
    outer loop
      vertex 2.5 29.8357 10.35
      vertex 3.13585 29.8357 7
      vertex 2.5 29.8357 7
    endloop
  endfacet
  facet normal -1 0 0
    outer loop
      vertex 2.5 29.8357 10.35
      vertex 2.5 29.8357 7
      vertex 2.5 27.8466 10.35
    endloop
  endfacet
  facet normal -1 0 0
    outer loop
      vertex 2.5 27.8466 10.35
      vertex 2.5 29.8357 7
      vertex 2.5 28.5428 7
    endloop
  endfacet
  facet normal -1 0 0
    outer loop
      vertex 2.5 27.8466 10.35
      vertex 2.5 28.5428 7
      vertex 2.5 28.5428 4.35
    endloop
  endfacet
  facet normal -1 0 0
    outer loop
      vertex 2.5 27.8466 10.35
      vertex 2.5 28.5428 4.35
      vertex 2.5 27.8466 4.35
    endloop
  endfacet
  facet normal 0 -1 0
    outer loop
      vertex 2.5 28.5428 4.35
      vertex 2.5 28.5428 7
      vertex -2.5 28.5428 7
    endloop
  endfacet
  facet normal 0 -1 0
    outer loop
      vertex -2.5 28.5428 4.35
      vertex 2.5 28.5428 4.35
      vertex -2.5 28.5428 7
    endloop
  endfacet
  facet normal 1 0 0
    outer loop
      vertex -2.5 29.8357 10.35
      vertex -2.5 28.5428 7
      vertex -2.5 29.8357 7
    endloop
  endfacet
  facet normal 1 0 0
    outer loop
      vertex -2.5 27.8466 10.35
      vertex -2.5 28.5428 7
      vertex -2.5 29.8357 10.35
    endloop
  endfacet
  facet normal 1 0 0
    outer loop
      vertex -2.5 28.5428 4.35
      vertex -2.5 28.5428 7
      vertex -2.5 27.8466 10.35
    endloop
  endfacet
  facet normal 1 0 0
    outer loop
      vertex -2.5 27.8466 4.35
      vertex -2.5 28.5428 4.35
      vertex -2.5 27.8466 10.35
    endloop
  endfacet
  facet normal 0 1 0
    outer loop
      vertex -2.5 29.8357 10.35
      vertex -2.5 29.8357 7
      vertex -3.13585 29.8357 10.35
    endloop
  endfacet
  facet normal 0 1 0
    outer loop
      vertex -3.13585 29.8357 10.35
      vertex -2.5 29.8357 7
      vertex -3.13585 29.8357 7
    endloop
  endfacet
  facet normal -0.207912 0.978148 0
    outer loop
      vertex -3.13585 29.8357 10.35
      vertex -3.13585 29.8357 7
      vertex -9.27051 28.5317 10.35
    endloop
  endfacet
  facet normal -0.207912 0.978148 0
    outer loop
      vertex -9.27051 28.5317 10.35
      vertex -3.13585 29.8357 7
      vertex -9.27051 28.5317 7
    endloop
  endfacet
  facet normal -0.406737 0.913545 0
    outer loop
      vertex -9.27051 28.5317 10.35
      vertex -9.27051 28.5317 7
      vertex -15 25.9808 10.35
    endloop
  endfacet
  facet normal -0.406737 0.913545 0
    outer loop
      vertex -15 25.9808 10.35
      vertex -9.27051 28.5317 7
      vertex -15 25.9808 7
    endloop
  endfacet
  facet normal -0.587785 0.809017 0
    outer loop
      vertex -15 25.9808 10.35
      vertex -15 25.9808 7
      vertex -20.0739 22.2943 10.35
    endloop
  endfacet
  facet normal -0.587785 0.809017 0
    outer loop
      vertex -20.0739 22.2943 10.35
      vertex -15 25.9808 7
      vertex -20.0739 22.2943 7
    endloop
  endfacet
  facet normal -0.743145 0.669131 0
    outer loop
      vertex -20.0739 22.2943 10.35
      vertex -20.0739 22.2943 7
      vertex -24.2705 17.6336 10.35
    endloop
  endfacet
  facet normal -0.743145 0.669131 0
    outer loop
      vertex -24.2705 17.6336 10.35
      vertex -20.0739 22.2943 7
      vertex -24.2705 17.6336 7
    endloop
  endfacet
  facet normal -0.866025 0.5 0
    outer loop
      vertex -24.2705 17.6336 10.35
      vertex -24.2705 17.6336 7
      vertex -27.4064 12.2021 10.35
    endloop
  endfacet
  facet normal -0.866025 0.5 0
    outer loop
      vertex -27.4064 12.2021 10.35
      vertex -24.2705 17.6336 7
      vertex -27.4064 12.2021 7
    endloop
  endfacet
  facet normal -0.951057 0.309017 0
    outer loop
      vertex -27.4064 12.2021 10.35
      vertex -27.4064 12.2021 7
      vertex -29.3444 6.23735 10.35
    endloop
  endfacet
  facet normal -0.951057 0.309017 0
    outer loop
      vertex -29.3444 6.23735 10.35
      vertex -27.4064 12.2021 7
      vertex -29.3444 6.23735 7
    endloop
  endfacet
  facet normal -0.994522 0.104528 0
    outer loop
      vertex -29.3444 6.23735 10.35
      vertex -29.3444 6.23735 7
      vertex -30 0 10.35
    endloop
  endfacet
  facet normal -0.994522 0.104528 0
    outer loop
      vertex -30 0 10.35
      vertex -29.3444 6.23735 7
      vertex -30 0 7
    endloop
  endfacet
  facet normal 0 0 -1
    outer loop
      vertex -28.7 0 3
      vertex -28.0728 5.96707 3
      vertex -28.0728 -5.96707 3
    endloop
  endfacet
  facet normal 0 0 -1
    outer loop
      vertex -27.3881 5.82153 3
      vertex -28.0728 5.96707 3
      vertex -26.2188 11.6733 3
    endloop
  endfacet
  facet normal 0 0 -1
    outer loop
      vertex -25.5793 11.3886 3
      vertex -26.2188 11.6733 3
      vertex -23.2188 16.8694 3
    endloop
  endfacet
  facet normal 0 0 -1
    outer loop
      vertex -22.6525 16.458 3
      vertex -23.2188 16.8694 3
      vertex -19.204 21.3283 3
    endloop
  endfacet
  facet normal 0 0 -1
    outer loop
      vertex -18.7357 20.8081 3
      vertex -19.204 21.3283 3
      vertex -14.35 24.8549 3
    endloop
  endfacet
  facet normal 0 0 -1
    outer loop
      vertex -14 24.2487 3
      vertex -14.35 24.8549 3
      vertex -8.86879 27.2953 3
    endloop
  endfacet
  facet normal 0 0 -1
    outer loop
      vertex -8.65248 26.6296 3
      vertex -8.86879 27.2953 3
      vertex -2.99997 28.5428 3
    endloop
  endfacet
  facet normal 0 0 -1
    outer loop
      vertex -2.9268 27.8466 3
      vertex -2.99997 28.5428 3
      vertex 2.99997 28.5428 3
    endloop
  endfacet
  facet normal 0 0 -1
    outer loop
      vertex 2.9268 27.8466 3
      vertex 2.99997 28.5428 3
      vertex 8.86879 27.2953 3
    endloop
  endfacet
  facet normal 0 0 -1
    outer loop
      vertex 8.65248 26.6296 3
      vertex 8.86879 27.2953 3
      vertex 14.35 24.8549 3
    endloop
  endfacet
  facet normal 0 0 -1
    outer loop
      vertex 14 24.2487 3
      vertex 14.35 24.8549 3
      vertex 19.204 21.3283 3
    endloop
  endfacet
  facet normal 0 0 -1
    outer loop
      vertex 18.7357 20.8081 3
      vertex 19.204 21.3283 3
      vertex 23.2188 16.8694 3
    endloop
  endfacet
  facet normal 0 0 -1
    outer loop
      vertex 22.6525 16.458 3
      vertex 23.2188 16.8694 3
      vertex 26.2188 11.6733 3
    endloop
  endfacet
  facet normal 0 0 -1
    outer loop
      vertex 25.5793 11.3886 3
      vertex 26.2188 11.6733 3
      vertex 28.0728 5.96707 3
    endloop
  endfacet
  facet normal 0 0 -1
    outer loop
      vertex 28 0 3
      vertex 28.0728 5.96707 3
      vertex 28.7 0 3
    endloop
  endfacet
  facet normal 0 0 -1
    outer loop
      vertex 27.3881 -5.82153 3
      vertex 28.7 0 3
      vertex 28.0728 -5.96707 3
    endloop
  endfacet
  facet normal 0 0 -1
    outer loop
      vertex 25.5793 -11.3886 3
      vertex 28.0728 -5.96707 3
      vertex 26.2188 -11.6733 3
    endloop
  endfacet
  facet normal 0 0 -1
    outer loop
      vertex 22.6525 -16.458 3
      vertex 26.2188 -11.6733 3
      vertex 23.2188 -16.8694 3
    endloop
  endfacet
  facet normal 0 0 -1
    outer loop
      vertex 18.7357 -20.8081 3
      vertex 23.2188 -16.8694 3
      vertex 19.204 -21.3283 3
    endloop
  endfacet
  facet normal 0 0 -1
    outer loop
      vertex 14 -24.2487 3
      vertex 19.204 -21.3283 3
      vertex 14.35 -24.8549 3
    endloop
  endfacet
  facet normal 0 0 -1
    outer loop
      vertex 8.65248 -26.6296 3
      vertex 14.35 -24.8549 3
      vertex 8.86879 -27.2953 3
    endloop
  endfacet
  facet normal 0 0 -1
    outer loop
      vertex 2.9268 -27.8466 3
      vertex 8.86879 -27.2953 3
      vertex 2.99997 -28.5428 3
    endloop
  endfacet
  facet normal 0 0 -1
    outer loop
      vertex -2.9268 -27.8466 3
      vertex 2.99997 -28.5428 3
      vertex -2.99997 -28.5428 3
    endloop
  endfacet
  facet normal 0 0 -1
    outer loop
      vertex -8.65248 -26.6296 3
      vertex -2.99997 -28.5428 3
      vertex -8.86879 -27.2953 3
    endloop
  endfacet
  facet normal 0 0 -1
    outer loop
      vertex -14 -24.2487 3
      vertex -8.86879 -27.2953 3
      vertex -14.35 -24.8549 3
    endloop
  endfacet
  facet normal 0 0 -1
    outer loop
      vertex -18.7357 -20.8081 3
      vertex -14.35 -24.8549 3
      vertex -19.204 -21.3283 3
    endloop
  endfacet
  facet normal 0 0 -1
    outer loop
      vertex -22.6525 -16.458 3
      vertex -19.204 -21.3283 3
      vertex -23.2188 -16.8694 3
    endloop
  endfacet
  facet normal 0 0 -1
    outer loop
      vertex -28.0728 -5.96707 3
      vertex -23.2188 -16.8694 3
      vertex -26.2188 -11.6733 3
    endloop
  endfacet
  facet normal 0 0 -1
    outer loop
      vertex -28.0728 -5.96707 3
      vertex -28.0728 5.96707 3
      vertex -28 0 3
    endloop
  endfacet
  facet normal 0 0 -1
    outer loop
      vertex -8.65248 -26.6296 3
      vertex -8.86879 -27.2953 3
      vertex -14 -24.2487 3
    endloop
  endfacet
  facet normal 0 0 -1
    outer loop
      vertex -25.5793 -11.3886 3
      vertex -28.0728 -5.96707 3
      vertex -27.3881 -5.82153 3
    endloop
  endfacet
  facet normal 0 0 -1
    outer loop
      vertex -18.7357 -20.8081 3
      vertex -19.204 -21.3283 3
      vertex -22.6525 -16.458 3
    endloop
  endfacet
  facet normal 0 0 -1
    outer loop
      vertex -28.0728 -5.96707 3
      vertex -25.5793 -11.3886 3
      vertex -23.2188 -16.8694 3
    endloop
  endfacet
  facet normal 0 0 -1
    outer loop
      vertex -25.5793 -11.3886 3
      vertex -22.6525 -16.458 3
      vertex -23.2188 -16.8694 3
    endloop
  endfacet
  facet normal 0 0 -1
    outer loop
      vertex 27.3881 5.82153 3
      vertex 28.0728 5.96707 3
      vertex 28 0 3
    endloop
  endfacet
  facet normal 0 0 -1
    outer loop
      vertex 22.6525 16.458 3
      vertex 26.2188 11.6733 3
      vertex 25.5793 11.3886 3
    endloop
  endfacet
  facet normal 0 0 -1
    outer loop
      vertex 25.5793 11.3886 3
      vertex 28.0728 5.96707 3
      vertex 27.3881 5.82153 3
    endloop
  endfacet
  facet normal 0 0 -1
    outer loop
      vertex 28 0 3
      vertex 28.7 0 3
      vertex 27.3881 -5.82153 3
    endloop
  endfacet
  facet normal 0 0 -1
    outer loop
      vertex 27.3881 -5.82153 3
      vertex 28.0728 -5.96707 3
      vertex 25.5793 -11.3886 3
    endloop
  endfacet
  facet normal 0 0 -1
    outer loop
      vertex 25.5793 -11.3886 3
      vertex 26.2188 -11.6733 3
      vertex 22.6525 -16.458 3
    endloop
  endfacet
  facet normal 0 0 -1
    outer loop
      vertex 22.6525 -16.458 3
      vertex 23.2188 -16.8694 3
      vertex 18.7357 -20.8081 3
    endloop
  endfacet
  facet normal 0 0 -1
    outer loop
      vertex 18.7357 -20.8081 3
      vertex 19.204 -21.3283 3
      vertex 14 -24.2487 3
    endloop
  endfacet
  facet normal 0 0 -1
    outer loop
      vertex 14 -24.2487 3
      vertex 14.35 -24.8549 3
      vertex 8.65248 -26.6296 3
    endloop
  endfacet
  facet normal 0 0 -1
    outer loop
      vertex 8.65248 -26.6296 3
      vertex 8.86879 -27.2953 3
      vertex 2.9268 -27.8466 3
    endloop
  endfacet
  facet normal 0 0 -1
    outer loop
      vertex 2.9268 -27.8466 3
      vertex 2.99997 -28.5428 3
      vertex -2.9268 -27.8466 3
    endloop
  endfacet
  facet normal 0 0 -1
    outer loop
      vertex -2.9268 -27.8466 3
      vertex -2.99997 -28.5428 3
      vertex -8.65248 -26.6296 3
    endloop
  endfacet
  facet normal 0 0 -1
    outer loop
      vertex -28 0 3
      vertex -28.0728 5.96707 3
      vertex -27.3881 5.82153 3
    endloop
  endfacet
  facet normal 0 0 -1
    outer loop
      vertex -27.3881 -5.82153 3
      vertex -28.0728 -5.96707 3
      vertex -28 0 3
    endloop
  endfacet
  facet normal 0 0 -1
    outer loop
      vertex -27.3881 5.82153 3
      vertex -26.2188 11.6733 3
      vertex -25.5793 11.3886 3
    endloop
  endfacet
  facet normal 0 0 -1
    outer loop
      vertex -25.5793 11.3886 3
      vertex -23.2188 16.8694 3
      vertex -22.6525 16.458 3
    endloop
  endfacet
  facet normal 0 0 -1
    outer loop
      vertex -22.6525 16.458 3
      vertex -19.204 21.3283 3
      vertex -18.7357 20.8081 3
    endloop
  endfacet
  facet normal 0 0 -1
    outer loop
      vertex -18.7357 20.8081 3
      vertex -14.35 24.8549 3
      vertex -14 24.2487 3
    endloop
  endfacet
  facet normal 0 0 -1
    outer loop
      vertex -14 24.2487 3
      vertex -8.86879 27.2953 3
      vertex -8.65248 26.6296 3
    endloop
  endfacet
  facet normal 0 0 -1
    outer loop
      vertex -8.65248 26.6296 3
      vertex -2.99997 28.5428 3
      vertex -2.9268 27.8466 3
    endloop
  endfacet
  facet normal 0 0 -1
    outer loop
      vertex -2.9268 27.8466 3
      vertex 2.99997 28.5428 3
      vertex 2.9268 27.8466 3
    endloop
  endfacet
  facet normal 0 0 -1
    outer loop
      vertex 2.9268 27.8466 3
      vertex 8.86879 27.2953 3
      vertex 8.65248 26.6296 3
    endloop
  endfacet
  facet normal 0 0 -1
    outer loop
      vertex 8.65248 26.6296 3
      vertex 14.35 24.8549 3
      vertex 14 24.2487 3
    endloop
  endfacet
  facet normal 0 0 -1
    outer loop
      vertex 14 24.2487 3
      vertex 19.204 21.3283 3
      vertex 18.7357 20.8081 3
    endloop
  endfacet
  facet normal 0 0 -1
    outer loop
      vertex 18.7357 20.8081 3
      vertex 23.2188 16.8694 3
      vertex 22.6525 16.458 3
    endloop
  endfacet
  facet normal 0 0 -1
    outer loop
      vertex -14 -24.2487 3
      vertex -14.35 -24.8549 3
      vertex -18.7357 -20.8081 3
    endloop
  endfacet
  facet normal 0 0 1
    outer loop
      vertex -29.3444 6.23735 10.35
      vertex -30 0 10.35
      vertex -29.3444 -6.23735 10.35
    endloop
  endfacet
  facet normal 0 0 1
    outer loop
      vertex -27.3881 -5.82153 10.35
      vertex -29.3444 6.23735 10.35
      vertex -27.4064 -12.2021 10.35
    endloop
  endfacet
  facet normal 0 0 1
    outer loop
      vertex -27.4064 -12.2021 10.35
      vertex -29.3444 6.23735 10.35
      vertex -29.3444 -6.23735 10.35
    endloop
  endfacet
  facet normal 0 0 1
    outer loop
      vertex -27.3881 -5.82153 10.35
      vertex -28 0 10.35
      vertex -29.3444 6.23735 10.35
    endloop
  endfacet
  facet normal 0 0 1
    outer loop
      vertex -25.5793 -11.3886 10.35
      vertex -27.3881 -5.82153 10.35
      vertex -24.2705 -17.6336 10.35
    endloop
  endfacet
  facet normal 0 0 1
    outer loop
      vertex -18.7357 -20.8081 10.35
      vertex -22.6525 -16.458 10.35
      vertex -20.0739 -22.2943 10.35
    endloop
  endfacet
  facet normal 0 0 1
    outer loop
      vertex -14 -24.2487 10.35
      vertex -18.7357 -20.8081 10.35
      vertex -15 -25.9808 10.35
    endloop
  endfacet
  facet normal 0 0 1
    outer loop
      vertex -8.65248 -26.6296 10.35
      vertex -14 -24.2487 10.35
      vertex -9.27051 -28.5317 10.35
    endloop
  endfacet
  facet normal 0 0 1
    outer loop
      vertex -2.9268 -27.8466 10.35
      vertex -8.65248 -26.6296 10.35
      vertex -3.13585 -29.8357 10.35
    endloop
  endfacet
  facet normal 0 0 1
    outer loop
      vertex 2.9268 -27.8466 10.35
      vertex -2.9268 -27.8466 10.35
      vertex 3.13585 -29.8357 10.35
    endloop
  endfacet
  facet normal 0 0 1
    outer loop
      vertex 8.65248 -26.6296 10.35
      vertex 2.9268 -27.8466 10.35
      vertex 9.27051 -28.5317 10.35
    endloop
  endfacet
  facet normal 0 0 1
    outer loop
      vertex 14 -24.2487 10.35
      vertex 8.65248 -26.6296 10.35
      vertex 15 -25.9808 10.35
    endloop
  endfacet
  facet normal 0 0 1
    outer loop
      vertex 18.7357 -20.8081 10.35
      vertex 14 -24.2487 10.35
      vertex 20.0739 -22.2943 10.35
    endloop
  endfacet
  facet normal 0 0 1
    outer loop
      vertex 22.6525 -16.458 10.35
      vertex 18.7357 -20.8081 10.35
      vertex 24.2705 -17.6336 10.35
    endloop
  endfacet
  facet normal 0 0 1
    outer loop
      vertex 27.3881 5.82153 10.35
      vertex 28 0 10.35
      vertex 30 0 10.35
    endloop
  endfacet
  facet normal 0 0 1
    outer loop
      vertex 25.5793 11.3886 10.35
      vertex 27.3881 5.82153 10.35
      vertex 29.3444 6.23735 10.35
    endloop
  endfacet
  facet normal 0 0 1
    outer loop
      vertex 22.6525 16.458 10.35
      vertex 25.5793 11.3886 10.35
      vertex 27.4064 12.2021 10.35
    endloop
  endfacet
  facet normal 0 0 1
    outer loop
      vertex 18.7357 20.8081 10.35
      vertex 22.6525 16.458 10.35
      vertex 24.2705 17.6336 10.35
    endloop
  endfacet
  facet normal 0 0 1
    outer loop
      vertex 14 24.2487 10.35
      vertex 18.7357 20.8081 10.35
      vertex 20.0739 22.2943 10.35
    endloop
  endfacet
  facet normal 0 0 1
    outer loop
      vertex 8.65248 26.6296 10.35
      vertex 14 24.2487 10.35
      vertex 15 25.9808 10.35
    endloop
  endfacet
  facet normal 0 0 1
    outer loop
      vertex 2.9268 27.8466 10.35
      vertex 8.65248 26.6296 10.35
      vertex 9.27051 28.5317 10.35
    endloop
  endfacet
  facet normal 0 0 1
    outer loop
      vertex 3.13585 29.8357 10.35
      vertex 2.5 27.8466 10.35
      vertex 9.27051 28.5317 10.35
    endloop
  endfacet
  facet normal 0 0 1
    outer loop
      vertex 2.5 27.8466 10.35
      vertex 2.9268 27.8466 10.35
      vertex 9.27051 28.5317 10.35
    endloop
  endfacet
  facet normal 0 0 1
    outer loop
      vertex -2.5 27.8466 10.35
      vertex -2.5 29.8357 10.35
      vertex -2.9268 27.8466 10.35
    endloop
  endfacet
  facet normal 0 0 1
    outer loop
      vertex 9.27051 28.5317 10.35
      vertex 8.65248 26.6296 10.35
      vertex 15 25.9808 10.35
    endloop
  endfacet
  facet normal 0 0 1
    outer loop
      vertex 15 25.9808 10.35
      vertex 14 24.2487 10.35
      vertex 20.0739 22.2943 10.35
    endloop
  endfacet
  facet normal 0 0 1
    outer loop
      vertex 20.0739 22.2943 10.35
      vertex 18.7357 20.8081 10.35
      vertex 24.2705 17.6336 10.35
    endloop
  endfacet
  facet normal 0 0 1
    outer loop
      vertex 24.2705 17.6336 10.35
      vertex 22.6525 16.458 10.35
      vertex 27.4064 12.2021 10.35
    endloop
  endfacet
  facet normal 0 0 1
    outer loop
      vertex 27.4064 12.2021 10.35
      vertex 25.5793 11.3886 10.35
      vertex 29.3444 6.23735 10.35
    endloop
  endfacet
  facet normal 0 0 1
    outer loop
      vertex 29.3444 6.23735 10.35
      vertex 27.3881 5.82153 10.35
      vertex 30 0 10.35
    endloop
  endfacet
  facet normal 0 0 1
    outer loop
      vertex 30 0 10.35
      vertex 28 0 10.35
      vertex 29.3444 -6.23735 10.35
    endloop
  endfacet
  facet normal 0 0 1
    outer loop
      vertex 28 0 10.35
      vertex 27.3881 -5.82153 10.35
      vertex 29.3444 -6.23735 10.35
    endloop
  endfacet
  facet normal 0 0 1
    outer loop
      vertex 29.3444 -6.23735 10.35
      vertex 25.5793 -11.3886 10.35
      vertex 27.4064 -12.2021 10.35
    endloop
  endfacet
  facet normal 0 0 1
    outer loop
      vertex 27.4064 -12.2021 10.35
      vertex 22.6525 -16.458 10.35
      vertex 24.2705 -17.6336 10.35
    endloop
  endfacet
  facet normal 0 0 1
    outer loop
      vertex 24.2705 -17.6336 10.35
      vertex 18.7357 -20.8081 10.35
      vertex 20.0739 -22.2943 10.35
    endloop
  endfacet
  facet normal 0 0 1
    outer loop
      vertex 20.0739 -22.2943 10.35
      vertex 14 -24.2487 10.35
      vertex 15 -25.9808 10.35
    endloop
  endfacet
  facet normal 0 0 1
    outer loop
      vertex 15 -25.9808 10.35
      vertex 8.65248 -26.6296 10.35
      vertex 9.27051 -28.5317 10.35
    endloop
  endfacet
  facet normal 0 0 1
    outer loop
      vertex 9.27051 -28.5317 10.35
      vertex 2.9268 -27.8466 10.35
      vertex 3.13585 -29.8357 10.35
    endloop
  endfacet
  facet normal 0 0 1
    outer loop
      vertex 3.13585 -29.8357 10.35
      vertex -2.9268 -27.8466 10.35
      vertex -3.13585 -29.8357 10.35
    endloop
  endfacet
  facet normal 0 0 1
    outer loop
      vertex -3.13585 -29.8357 10.35
      vertex -8.65248 -26.6296 10.35
      vertex -9.27051 -28.5317 10.35
    endloop
  endfacet
  facet normal 0 0 1
    outer loop
      vertex -9.27051 -28.5317 10.35
      vertex -14 -24.2487 10.35
      vertex -15 -25.9808 10.35
    endloop
  endfacet
  facet normal 0 0 1
    outer loop
      vertex -15 -25.9808 10.35
      vertex -18.7357 -20.8081 10.35
      vertex -20.0739 -22.2943 10.35
    endloop
  endfacet
  facet normal 0 0 1
    outer loop
      vertex -20.0739 -22.2943 10.35
      vertex -22.6525 -16.458 10.35
      vertex -24.2705 -17.6336 10.35
    endloop
  endfacet
  facet normal 0 0 1
    outer loop
      vertex -22.6525 -16.458 10.35
      vertex -25.5793 -11.3886 10.35
      vertex -24.2705 -17.6336 10.35
    endloop
  endfacet
  facet normal 0 0 1
    outer loop
      vertex -24.2705 -17.6336 10.35
      vertex -27.3881 -5.82153 10.35
      vertex -27.4064 -12.2021 10.35
    endloop
  endfacet
  facet normal 0 0 1
    outer loop
      vertex -27.3881 5.82153 10.35
      vertex -25.5793 11.3886 10.35
      vertex -29.3444 6.23735 10.35
    endloop
  endfacet
  facet normal 0 0 1
    outer loop
      vertex 25.5793 -11.3886 10.35
      vertex 22.6525 -16.458 10.35
      vertex 27.4064 -12.2021 10.35
    endloop
  endfacet
  facet normal 0 0 1
    outer loop
      vertex -22.6525 16.458 10.35
      vertex -29.3444 6.23735 10.35
      vertex -25.5793 11.3886 10.35
    endloop
  endfacet
  facet normal 0 0 1
    outer loop
      vertex -20.0739 22.2943 10.35
      vertex -29.3444 6.23735 10.35
      vertex -22.6525 16.458 10.35
    endloop
  endfacet
  facet normal 0 0 1
    outer loop
      vertex -15 25.9808 10.35
      vertex -22.6525 16.458 10.35
      vertex -18.7357 20.8081 10.35
    endloop
  endfacet
  facet normal 0 0 1
    outer loop
      vertex -2.9268 27.8466 10.35
      vertex -2.5 29.8357 10.35
      vertex -8.65248 26.6296 10.35
    endloop
  endfacet
  facet normal 0 0 1
    outer loop
      vertex -9.27051 28.5317 10.35
      vertex -18.7357 20.8081 10.35
      vertex -14 24.2487 10.35
    endloop
  endfacet
  facet normal 0 0 1
    outer loop
      vertex -2.5 29.8357 10.35
      vertex -14 24.2487 10.35
      vertex -8.65248 26.6296 10.35
    endloop
  endfacet
  facet normal 0 0 1
    outer loop
      vertex -3.13585 29.8357 10.35
      vertex -14 24.2487 10.35
      vertex -2.5 29.8357 10.35
    endloop
  endfacet
  facet normal 0 0 1
    outer loop
      vertex -9.27051 28.5317 10.35
      vertex -14 24.2487 10.35
      vertex -3.13585 29.8357 10.35
    endloop
  endfacet
  facet normal 0 0 1
    outer loop
      vertex -15 25.9808 10.35
      vertex -18.7357 20.8081 10.35
      vertex -9.27051 28.5317 10.35
    endloop
  endfacet
  facet normal 0 0 1
    outer loop
      vertex -20.0739 22.2943 10.35
      vertex -22.6525 16.458 10.35
      vertex -15 25.9808 10.35
    endloop
  endfacet
  facet normal 0 0 1
    outer loop
      vertex -24.2705 17.6336 10.35
      vertex -29.3444 6.23735 10.35
      vertex -20.0739 22.2943 10.35
    endloop
  endfacet
  facet normal 0 0 1
    outer loop
      vertex -27.4064 12.2021 10.35
      vertex -29.3444 6.23735 10.35
      vertex -24.2705 17.6336 10.35
    endloop
  endfacet
  facet normal 0 0 1
    outer loop
      vertex 2.5 29.8357 10.35
      vertex 2.5 27.8466 10.35
      vertex 3.13585 29.8357 10.35
    endloop
  endfacet
  facet normal 0 0 1
    outer loop
      vertex 27.3881 -5.82153 10.35
      vertex 25.5793 -11.3886 10.35
      vertex 29.3444 -6.23735 10.35
    endloop
  endfacet
  facet normal 0 0 1
    outer loop
      vertex -28 0 10.35
      vertex -27.3881 5.82153 10.35
      vertex -29.3444 6.23735 10.35
    endloop
  endfacet
  facet normal 0 -1 0
    outer loop
      vertex 2.9268 27.8466 3
      vertex 2.9268 27.8466 10.35
      vertex 2.5 27.8466 10.35
    endloop
  endfacet
  facet normal 0 -1 0
    outer loop
      vertex -2.5 27.8466 4.35
      vertex 2.9268 27.8466 3
      vertex 2.5 27.8466 4.35
    endloop
  endfacet
  facet normal 0 -1 0
    outer loop
      vertex 2.5 27.8466 4.35
      vertex 2.9268 27.8466 3
      vertex 2.5 27.8466 10.35
    endloop
  endfacet
  facet normal 0 -1 0
    outer loop
      vertex -2.9268 27.8466 3
      vertex 2.9268 27.8466 3
      vertex -2.5 27.8466 4.35
    endloop
  endfacet
  facet normal 0 -1 0
    outer loop
      vertex -2.9268 27.8466 10.35
      vertex -2.5 27.8466 4.35
      vertex -2.5 27.8466 10.35
    endloop
  endfacet
  facet normal 0 -1 0
    outer loop
      vertex -2.9268 27.8466 3
      vertex -2.5 27.8466 4.35
      vertex -2.9268 27.8466 10.35
    endloop
  endfacet
  facet normal 0 0 1
    outer loop
      vertex 2.5 27.8466 4.35
      vertex 2.5 28.5428 4.35
      vertex -2.5 28.5428 4.35
    endloop
  endfacet
  facet normal 0 0 1
    outer loop
      vertex -2.5 27.8466 4.35
      vertex 2.5 27.8466 4.35
      vertex -2.5 28.5428 4.35
    endloop
  endfacet
  facet normal 0.994522 -0.104528 0
    outer loop
      vertex -27.3881 5.82153 3
      vertex -27.3881 5.82153 10.35
      vertex -28 0 10.35
    endloop
  endfacet
  facet normal 0.994522 -0.104528 0
    outer loop
      vertex -28 0 3
      vertex -27.3881 5.82153 3
      vertex -28 0 10.35
    endloop
  endfacet
  facet normal 0.994522 0.104528 0
    outer loop
      vertex -28 0 10.35
      vertex -27.3881 -5.82153 10.35
      vertex -27.3881 -5.82153 3
    endloop
  endfacet
  facet normal 0.994522 0.104528 0
    outer loop
      vertex -28 0 3
      vertex -28 0 10.35
      vertex -27.3881 -5.82153 3
    endloop
  endfacet
  facet normal 0.951057 -0.309017 0
    outer loop
      vertex -25.5793 11.3886 3
      vertex -25.5793 11.3886 10.35
      vertex -27.3881 5.82153 10.35
    endloop
  endfacet
  facet normal 0.951057 -0.309017 0
    outer loop
      vertex -27.3881 5.82153 3
      vertex -25.5793 11.3886 3
      vertex -27.3881 5.82153 10.35
    endloop
  endfacet
  facet normal 0.866025 -0.5 0
    outer loop
      vertex -22.6525 16.458 3
      vertex -22.6525 16.458 10.35
      vertex -25.5793 11.3886 10.35
    endloop
  endfacet
  facet normal 0.866025 -0.5 0
    outer loop
      vertex -25.5793 11.3886 3
      vertex -22.6525 16.458 3
      vertex -25.5793 11.3886 10.35
    endloop
  endfacet
  facet normal 0.743145 -0.669131 0
    outer loop
      vertex -18.7357 20.8081 3
      vertex -18.7357 20.8081 10.35
      vertex -22.6525 16.458 10.35
    endloop
  endfacet
  facet normal 0.743145 -0.669131 0
    outer loop
      vertex -22.6525 16.458 3
      vertex -18.7357 20.8081 3
      vertex -22.6525 16.458 10.35
    endloop
  endfacet
  facet normal 0.587785 -0.809017 0
    outer loop
      vertex -14 24.2487 3
      vertex -14 24.2487 10.35
      vertex -18.7357 20.8081 10.35
    endloop
  endfacet
  facet normal 0.587785 -0.809017 0
    outer loop
      vertex -18.7357 20.8081 3
      vertex -14 24.2487 3
      vertex -18.7357 20.8081 10.35
    endloop
  endfacet
  facet normal 0.406737 -0.913545 0
    outer loop
      vertex -8.65248 26.6296 3
      vertex -8.65248 26.6296 10.35
      vertex -14 24.2487 10.35
    endloop
  endfacet
  facet normal 0.406737 -0.913545 0
    outer loop
      vertex -14 24.2487 3
      vertex -8.65248 26.6296 3
      vertex -14 24.2487 10.35
    endloop
  endfacet
  facet normal 0.207912 -0.978148 0
    outer loop
      vertex -2.9268 27.8466 3
      vertex -2.9268 27.8466 10.35
      vertex -8.65248 26.6296 10.35
    endloop
  endfacet
  facet normal 0.207912 -0.978148 0
    outer loop
      vertex -8.65248 26.6296 3
      vertex -2.9268 27.8466 3
      vertex -8.65248 26.6296 10.35
    endloop
  endfacet
  facet normal -0.207912 -0.978148 0
    outer loop
      vertex 8.65248 26.6296 3
      vertex 8.65248 26.6296 10.35
      vertex 2.9268 27.8466 10.35
    endloop
  endfacet
  facet normal -0.207912 -0.978148 0
    outer loop
      vertex 2.9268 27.8466 3
      vertex 8.65248 26.6296 3
      vertex 2.9268 27.8466 10.35
    endloop
  endfacet
  facet normal -0.406737 -0.913545 0
    outer loop
      vertex 14 24.2487 3
      vertex 14 24.2487 10.35
      vertex 8.65248 26.6296 10.35
    endloop
  endfacet
  facet normal -0.406737 -0.913545 0
    outer loop
      vertex 8.65248 26.6296 3
      vertex 14 24.2487 3
      vertex 8.65248 26.6296 10.35
    endloop
  endfacet
  facet normal -0.587785 -0.809017 0
    outer loop
      vertex 18.7357 20.8081 3
      vertex 18.7357 20.8081 10.35
      vertex 14 24.2487 10.35
    endloop
  endfacet
  facet normal -0.587785 -0.809017 0
    outer loop
      vertex 14 24.2487 3
      vertex 18.7357 20.8081 3
      vertex 14 24.2487 10.35
    endloop
  endfacet
  facet normal -0.743145 -0.669131 0
    outer loop
      vertex 22.6525 16.458 10.35
      vertex 18.7357 20.8081 10.35
      vertex 22.6525 16.458 3
    endloop
  endfacet
  facet normal -0.743145 -0.669131 0
    outer loop
      vertex 22.6525 16.458 3
      vertex 18.7357 20.8081 10.35
      vertex 18.7357 20.8081 3
    endloop
  endfacet
  facet normal -0.866025 -0.5 0
    outer loop
      vertex 25.5793 11.3886 10.35
      vertex 22.6525 16.458 10.35
      vertex 25.5793 11.3886 3
    endloop
  endfacet
  facet normal -0.866025 -0.5 0
    outer loop
      vertex 25.5793 11.3886 3
      vertex 22.6525 16.458 10.35
      vertex 22.6525 16.458 3
    endloop
  endfacet
  facet normal -0.951057 -0.309017 0
    outer loop
      vertex 27.3881 5.82153 10.35
      vertex 25.5793 11.3886 10.35
      vertex 27.3881 5.82153 3
    endloop
  endfacet
  facet normal -0.951057 -0.309017 0
    outer loop
      vertex 27.3881 5.82153 3
      vertex 25.5793 11.3886 10.35
      vertex 25.5793 11.3886 3
    endloop
  endfacet
  facet normal -0.994522 -0.104528 0
    outer loop
      vertex 28 0 10.35
      vertex 27.3881 5.82153 10.35
      vertex 28 0 3
    endloop
  endfacet
  facet normal -0.994522 -0.104528 0
    outer loop
      vertex 28 0 3
      vertex 27.3881 5.82153 10.35
      vertex 27.3881 5.82153 3
    endloop
  endfacet
  facet normal -0.994522 0.104528 0
    outer loop
      vertex 28 0 10.35
      vertex 28 0 3
      vertex 27.3881 -5.82153 10.35
    endloop
  endfacet
  facet normal -0.994522 0.104528 0
    outer loop
      vertex 27.3881 -5.82153 10.35
      vertex 28 0 3
      vertex 27.3881 -5.82153 3
    endloop
  endfacet
  facet normal -0.951057 0.309017 0
    outer loop
      vertex 27.3881 -5.82153 10.35
      vertex 27.3881 -5.82153 3
      vertex 25.5793 -11.3886 10.35
    endloop
  endfacet
  facet normal -0.951057 0.309017 0
    outer loop
      vertex 25.5793 -11.3886 10.35
      vertex 27.3881 -5.82153 3
      vertex 25.5793 -11.3886 3
    endloop
  endfacet
  facet normal -0.866025 0.5 0
    outer loop
      vertex 25.5793 -11.3886 10.35
      vertex 25.5793 -11.3886 3
      vertex 22.6525 -16.458 10.35
    endloop
  endfacet
  facet normal -0.866025 0.5 0
    outer loop
      vertex 22.6525 -16.458 10.35
      vertex 25.5793 -11.3886 3
      vertex 22.6525 -16.458 3
    endloop
  endfacet
  facet normal -0.743145 0.669131 0
    outer loop
      vertex 22.6525 -16.458 10.35
      vertex 22.6525 -16.458 3
      vertex 18.7357 -20.8081 10.35
    endloop
  endfacet
  facet normal -0.743145 0.669131 0
    outer loop
      vertex 18.7357 -20.8081 10.35
      vertex 22.6525 -16.458 3
      vertex 18.7357 -20.8081 3
    endloop
  endfacet
  facet normal -0.587785 0.809017 0
    outer loop
      vertex 18.7357 -20.8081 10.35
      vertex 18.7357 -20.8081 3
      vertex 14 -24.2487 10.35
    endloop
  endfacet
  facet normal -0.587785 0.809017 0
    outer loop
      vertex 14 -24.2487 10.35
      vertex 18.7357 -20.8081 3
      vertex 14 -24.2487 3
    endloop
  endfacet
  facet normal -0.406737 0.913545 0
    outer loop
      vertex 14 -24.2487 10.35
      vertex 14 -24.2487 3
      vertex 8.65248 -26.6296 10.35
    endloop
  endfacet
  facet normal -0.406737 0.913545 0
    outer loop
      vertex 8.65248 -26.6296 10.35
      vertex 14 -24.2487 3
      vertex 8.65248 -26.6296 3
    endloop
  endfacet
  facet normal -0.207912 0.978148 0
    outer loop
      vertex 8.65248 -26.6296 10.35
      vertex 8.65248 -26.6296 3
      vertex 2.9268 -27.8466 10.35
    endloop
  endfacet
  facet normal -0.207912 0.978148 0
    outer loop
      vertex 2.9268 -27.8466 10.35
      vertex 8.65248 -26.6296 3
      vertex 2.9268 -27.8466 3
    endloop
  endfacet
  facet normal 0 1 0
    outer loop
      vertex 2.9268 -27.8466 10.35
      vertex 2.9268 -27.8466 3
      vertex -2.9268 -27.8466 10.35
    endloop
  endfacet
  facet normal 0 1 0
    outer loop
      vertex -2.9268 -27.8466 10.35
      vertex 2.9268 -27.8466 3
      vertex -2.9268 -27.8466 3
    endloop
  endfacet
  facet normal 0.207912 0.978148 0
    outer loop
      vertex -2.9268 -27.8466 10.35
      vertex -2.9268 -27.8466 3
      vertex -8.65248 -26.6296 10.35
    endloop
  endfacet
  facet normal 0.207912 0.978148 0
    outer loop
      vertex -8.65248 -26.6296 10.35
      vertex -2.9268 -27.8466 3
      vertex -8.65248 -26.6296 3
    endloop
  endfacet
  facet normal 0.406737 0.913545 0
    outer loop
      vertex -8.65248 -26.6296 10.35
      vertex -8.65248 -26.6296 3
      vertex -14 -24.2487 10.35
    endloop
  endfacet
  facet normal 0.406737 0.913545 0
    outer loop
      vertex -14 -24.2487 10.35
      vertex -8.65248 -26.6296 3
      vertex -14 -24.2487 3
    endloop
  endfacet
  facet normal 0.587785 0.809017 0
    outer loop
      vertex -14 -24.2487 10.35
      vertex -14 -24.2487 3
      vertex -18.7357 -20.8081 10.35
    endloop
  endfacet
  facet normal 0.587785 0.809017 0
    outer loop
      vertex -18.7357 -20.8081 10.35
      vertex -14 -24.2487 3
      vertex -18.7357 -20.8081 3
    endloop
  endfacet
  facet normal 0.743145 0.669131 0
    outer loop
      vertex -22.6525 -16.458 10.35
      vertex -18.7357 -20.8081 10.35
      vertex -18.7357 -20.8081 3
    endloop
  endfacet
  facet normal 0.743145 0.669131 0
    outer loop
      vertex -22.6525 -16.458 3
      vertex -22.6525 -16.458 10.35
      vertex -18.7357 -20.8081 3
    endloop
  endfacet
  facet normal 0.866025 0.5 0
    outer loop
      vertex -25.5793 -11.3886 10.35
      vertex -22.6525 -16.458 10.35
      vertex -22.6525 -16.458 3
    endloop
  endfacet
  facet normal 0.866025 0.5 0
    outer loop
      vertex -25.5793 -11.3886 3
      vertex -25.5793 -11.3886 10.35
      vertex -22.6525 -16.458 3
    endloop
  endfacet
  facet normal 0.951057 0.309017 0
    outer loop
      vertex -27.3881 -5.82153 10.35
      vertex -25.5793 -11.3886 10.35
      vertex -25.5793 -11.3886 3
    endloop
  endfacet
  facet normal 0.951057 0.309017 0
    outer loop
      vertex -27.3881 -5.82153 3
      vertex -27.3881 -5.82153 10.35
      vertex -25.5793 -11.3886 3
    endloop
  endfacet
endsolid OpenSCAD_Model
