solid OpenSCAD_Model
  facet normal -1 0 0
    outer loop
      vertex -36.075 -40.6 0
      vertex -36.075 -40.6 15
      vertex -36.075 40.6 0
    endloop
  endfacet
  facet normal -1 0 0
    outer loop
      vertex -36.075 40.6 0
      vertex -36.075 -40.6 15
      vertex -36.075 40.6 15
    endloop
  endfacet
  facet normal 0 -1 0
    outer loop
      vertex -36.075 -40.6 15
      vertex -36.075 -40.6 0
      vertex 41.075 -40.6 0
    endloop
  endfacet
  facet normal 0 -1 0
    outer loop
      vertex 41.075 -40.6 15
      vertex -36.075 -40.6 15
      vertex 41.075 -40.6 0
    endloop
  endfacet
  facet normal 0 0 -1
    outer loop
      vertex -15.5118 39.0705 0
      vertex -36.075 40.6 0
      vertex 41.075 40.6 0
    endloop
  endfacet
  facet normal 0 0 -1
    outer loop
      vertex -36.075 -40.6 0
      vertex -36.075 40.6 0
      vertex -32 -36.5 0
    endloop
  endfacet
  facet normal 0 0 -1
    outer loop
      vertex -13.6993 -37.3831 0
      vertex 41.075 -40.6 0
      vertex -15.5118 -38.0705 0
    endloop
  endfacet
  facet normal 0 0 -1
    outer loop
      vertex -9.5 -36.5 0
      vertex -11.95 -34.05 0
      vertex -12.4139 -32.1679 0
    endloop
  endfacet
  facet normal 0 0 -1
    outer loop
      vertex -17.4361 -37.8368 0
      vertex -32 -36.5 0
      vertex -19.0315 -36.7356 0
    endloop
  endfacet
  facet normal 0 0 -1
    outer loop
      vertex -13.6993 -30.7169 0
      vertex -22 -27.5 0
      vertex -9.5 -27.5 0
    endloop
  endfacet
  facet normal 0 0 -1
    outer loop
      vertex 26.0677 -35.0192 0
      vertex 26.9685 -36.7356 0
      vertex 23.5 -36.5 0
    endloop
  endfacet
  facet normal 0 0 -1
    outer loop
      vertex -12.4139 -32.1679 0
      vertex -13.6993 -30.7169 0
      vertex -9.5 -27.5 0
    endloop
  endfacet
  facet normal 0 0 -1
    outer loop
      vertex 37 -27.5 0
      vertex 30.4882 -30.0295 0
      vertex 28.5638 -30.2632 0
    endloop
  endfacet
  facet normal 0 0 -1
    outer loop
      vertex -9.5 -36.5 0
      vertex 41.075 -40.6 0
      vertex -13.6993 -37.3831 0
    endloop
  endfacet
  facet normal 0 0 -1
    outer loop
      vertex 32.3007 -37.3831 0
      vertex 41.075 -40.6 0
      vertex 30.4882 -38.0705 0
    endloop
  endfacet
  facet normal 0 0 -1
    outer loop
      vertex -9.5 -36.5 0
      vertex -12.4139 -32.1679 0
      vertex -9.5 -27.5 0
    endloop
  endfacet
  facet normal 0 0 -1
    outer loop
      vertex 23.5 36.5 0
      vertex 26.0677 34.0808 0
      vertex 26.9685 32.3644 0
    endloop
  endfacet
  facet normal 0 0 -1
    outer loop
      vertex 41.075 -40.6 0
      vertex 37 -27.5 0
      vertex 41.075 40.6 0
    endloop
  endfacet
  facet normal 0 0 -1
    outer loop
      vertex 37 -27.5 0
      vertex 37 27.5 0
      vertex 41.075 40.6 0
    endloop
  endfacet
  facet normal 0 0 -1
    outer loop
      vertex -17.4361 31.2632 0
      vertex -9.5 27.5 0
      vertex -22 27.5 0
    endloop
  endfacet
  facet normal 0 0 -1
    outer loop
      vertex 30.4882 39.0705 0
      vertex -9.5 36.5 0
      vertex 41.075 40.6 0
    endloop
  endfacet
  facet normal 0 0 -1
    outer loop
      vertex -19.0315 -36.7356 0
      vertex -22 -36.5 0
      vertex -19.9323 -35.0192 0
    endloop
  endfacet
  facet normal 0 0 -1
    outer loop
      vertex -22 -36.5 0
      vertex -22 -27.5 0
      vertex -19.9323 -33.0808 0
    endloop
  endfacet
  facet normal 0 0 -1
    outer loop
      vertex -13.6993 38.3831 0
      vertex 41.075 40.6 0
      vertex -12.4139 36.9321 0
    endloop
  endfacet
  facet normal 0 0 -1
    outer loop
      vertex -22 -36.5 0
      vertex -19.9323 -33.0808 0
      vertex -19.9323 -35.0192 0
    endloop
  endfacet
  facet normal 0 0 -1
    outer loop
      vertex -32 -36.5 0
      vertex -22 -36.5 0
      vertex -19.0315 -36.7356 0
    endloop
  endfacet
  facet normal 0 0 -1
    outer loop
      vertex -19.9323 36.0192 0
      vertex -22 36.5 0
      vertex -19.0315 37.7356 0
    endloop
  endfacet
  facet normal 0 0 -1
    outer loop
      vertex -36.075 -40.6 0
      vertex -32 -36.5 0
      vertex -17.4361 -37.8368 0
    endloop
  endfacet
  facet normal 0 0 -1
    outer loop
      vertex -12.4139 -35.9321 0
      vertex -9.5 -36.5 0
      vertex -13.6993 -37.3831 0
    endloop
  endfacet
  facet normal 0 0 -1
    outer loop
      vertex -36.075 -40.6 0
      vertex -17.4361 -37.8368 0
      vertex -15.5118 -38.0705 0
    endloop
  endfacet
  facet normal 0 0 -1
    outer loop
      vertex -36.075 -40.6 0
      vertex -15.5118 -38.0705 0
      vertex 41.075 -40.6 0
    endloop
  endfacet
  facet normal 0 0 -1
    outer loop
      vertex -11.95 -34.05 0
      vertex -9.5 -36.5 0
      vertex -12.4139 -35.9321 0
    endloop
  endfacet
  facet normal 0 0 -1
    outer loop
      vertex -17.4361 -30.2632 0
      vertex -22 -27.5 0
      vertex -15.5118 -30.0295 0
    endloop
  endfacet
  facet normal 0 0 -1
    outer loop
      vertex 23.5 -27.5 0
      vertex 26.0677 -33.0808 0
      vertex 26.0677 -35.0192 0
    endloop
  endfacet
  facet normal 0 0 -1
    outer loop
      vertex -19.0315 -31.3644 0
      vertex -22 -27.5 0
      vertex -17.4361 -30.2632 0
    endloop
  endfacet
  facet normal 0 0 -1
    outer loop
      vertex -15.5118 -30.0295 0
      vertex -22 -27.5 0
      vertex -13.6993 -30.7169 0
    endloop
  endfacet
  facet normal 0 0 -1
    outer loop
      vertex -19.0315 37.7356 0
      vertex -36.075 40.6 0
      vertex -17.4361 38.8368 0
    endloop
  endfacet
  facet normal 0 0 -1
    outer loop
      vertex -19.9323 -33.0808 0
      vertex -22 -27.5 0
      vertex -19.0315 -31.3644 0
    endloop
  endfacet
  facet normal 0 0 -1
    outer loop
      vertex -9.5 27.5 0
      vertex -11.95 35.05 0
      vertex -9.5 36.5 0
    endloop
  endfacet
  facet normal 0 0 -1
    outer loop
      vertex -15.5118 31.0295 0
      vertex -9.5 27.5 0
      vertex -17.4361 31.2632 0
    endloop
  endfacet
  facet normal 0 0 -1
    outer loop
      vertex -13.6993 31.7169 0
      vertex -9.5 27.5 0
      vertex -15.5118 31.0295 0
    endloop
  endfacet
  facet normal 0 0 -1
    outer loop
      vertex -12.4139 36.9321 0
      vertex -9.5 36.5 0
      vertex -11.95 35.05 0
    endloop
  endfacet
  facet normal 0 0 -1
    outer loop
      vertex -22 36.5 0
      vertex -19.9323 34.0808 0
      vertex -19.0315 32.3644 0
    endloop
  endfacet
  facet normal 0 0 -1
    outer loop
      vertex -9.5 27.5 0
      vertex -12.4139 33.1679 0
      vertex -11.95 35.05 0
    endloop
  endfacet
  facet normal 0 0 -1
    outer loop
      vertex -9.5 36.5 0
      vertex -12.4139 36.9321 0
      vertex 41.075 40.6 0
    endloop
  endfacet
  facet normal 0 0 -1
    outer loop
      vertex 30.4882 -38.0705 0
      vertex 41.075 -40.6 0
      vertex 28.5638 -37.8368 0
    endloop
  endfacet
  facet normal 0 0 -1
    outer loop
      vertex -19.0315 37.7356 0
      vertex -32 36.5 0
      vertex -36.075 40.6 0
    endloop
  endfacet
  facet normal 0 0 -1
    outer loop
      vertex -17.4361 38.8368 0
      vertex -36.075 40.6 0
      vertex -15.5118 39.0705 0
    endloop
  endfacet
  facet normal 0 0 -1
    outer loop
      vertex -13.6993 38.3831 0
      vertex -15.5118 39.0705 0
      vertex 41.075 40.6 0
    endloop
  endfacet
  facet normal 0 0 -1
    outer loop
      vertex 28.5638 -37.8368 0
      vertex 23.5 -36.5 0
      vertex 26.9685 -36.7356 0
    endloop
  endfacet
  facet normal 0 0 -1
    outer loop
      vertex 26.9685 -31.3644 0
      vertex 23.5 -27.5 0
      vertex 28.5638 -30.2632 0
    endloop
  endfacet
  facet normal 0 0 -1
    outer loop
      vertex 37 -27.5 0
      vertex 32.3007 -30.7169 0
      vertex 30.4882 -30.0295 0
    endloop
  endfacet
  facet normal 0 0 -1
    outer loop
      vertex 23.5 -27.5 0
      vertex 26.0677 -35.0192 0
      vertex 23.5 -36.5 0
    endloop
  endfacet
  facet normal 0 0 -1
    outer loop
      vertex 37 -27.5 0
      vertex 28.5638 -30.2632 0
      vertex 23.5 -27.5 0
    endloop
  endfacet
  facet normal 0 0 -1
    outer loop
      vertex 33.5861 -35.9321 0
      vertex 41.075 -40.6 0
      vertex 32.3007 -37.3831 0
    endloop
  endfacet
  facet normal 0 0 -1
    outer loop
      vertex 26.0677 36.0192 0
      vertex 23.5 36.5 0
      vertex 26.9685 37.7356 0
    endloop
  endfacet
  facet normal 0 0 -1
    outer loop
      vertex 34.05 -34.05 0
      vertex 41.075 -40.6 0
      vertex 33.5861 -35.9321 0
    endloop
  endfacet
  facet normal 0 0 -1
    outer loop
      vertex 23.5 -36.5 0
      vertex 28.5638 -37.8368 0
      vertex -9.5 -36.5 0
    endloop
  endfacet
  facet normal 0 0 -1
    outer loop
      vertex 33.5861 -32.1679 0
      vertex 41.075 -40.6 0
      vertex 34.05 -34.05 0
    endloop
  endfacet
  facet normal 0 0 -1
    outer loop
      vertex 26.9685 32.3644 0
      vertex 28.5638 31.2632 0
      vertex 23.5 27.5 0
    endloop
  endfacet
  facet normal 0 0 -1
    outer loop
      vertex 41.075 -40.6 0
      vertex 33.5861 -32.1679 0
      vertex 37 -27.5 0
    endloop
  endfacet
  facet normal 0 0 -1
    outer loop
      vertex 28.5638 31.2632 0
      vertex 37 27.5 0
      vertex 23.5 27.5 0
    endloop
  endfacet
  facet normal 0 0 -1
    outer loop
      vertex 33.5861 -32.1679 0
      vertex 32.3007 -30.7169 0
      vertex 37 -27.5 0
    endloop
  endfacet
  facet normal 0 0 -1
    outer loop
      vertex 28.5638 -37.8368 0
      vertex 41.075 -40.6 0
      vertex -9.5 -36.5 0
    endloop
  endfacet
  facet normal 0 0 -1
    outer loop
      vertex 26.0677 -33.0808 0
      vertex 23.5 -27.5 0
      vertex 26.9685 -31.3644 0
    endloop
  endfacet
  facet normal 0 0 -1
    outer loop
      vertex -9.5 27.5 0
      vertex -13.6993 31.7169 0
      vertex -12.4139 33.1679 0
    endloop
  endfacet
  facet normal 0 0 -1
    outer loop
      vertex 30.4882 31.0295 0
      vertex 37 27.5 0
      vertex 28.5638 31.2632 0
    endloop
  endfacet
  facet normal 0 0 -1
    outer loop
      vertex -22 36.5 0
      vertex -32 36.5 0
      vertex -19.0315 37.7356 0
    endloop
  endfacet
  facet normal 0 0 -1
    outer loop
      vertex -19.9323 34.0808 0
      vertex -22 36.5 0
      vertex -19.9323 36.0192 0
    endloop
  endfacet
  facet normal 0 0 -1
    outer loop
      vertex 32.3007 31.7169 0
      vertex 37 27.5 0
      vertex 30.4882 31.0295 0
    endloop
  endfacet
  facet normal 0 0 -1
    outer loop
      vertex 32.3007 38.3831 0
      vertex 41.075 40.6 0
      vertex 33.5861 36.9321 0
    endloop
  endfacet
  facet normal 0 0 -1
    outer loop
      vertex 37 27.5 0
      vertex 32.3007 31.7169 0
      vertex 41.075 40.6 0
    endloop
  endfacet
  facet normal 0 0 -1
    outer loop
      vertex 32.3007 31.7169 0
      vertex 33.5861 33.1679 0
      vertex 41.075 40.6 0
    endloop
  endfacet
  facet normal 0 0 -1
    outer loop
      vertex 33.5861 33.1679 0
      vertex 34.05 35.05 0
      vertex 41.075 40.6 0
    endloop
  endfacet
  facet normal 0 0 -1
    outer loop
      vertex 34.05 35.05 0
      vertex 33.5861 36.9321 0
      vertex 41.075 40.6 0
    endloop
  endfacet
  facet normal 0 0 -1
    outer loop
      vertex 26.0677 34.0808 0
      vertex 23.5 36.5 0
      vertex 26.0677 36.0192 0
    endloop
  endfacet
  facet normal 0 0 -1
    outer loop
      vertex 30.4882 39.0705 0
      vertex 41.075 40.6 0
      vertex 32.3007 38.3831 0
    endloop
  endfacet
  facet normal 0 0 -1
    outer loop
      vertex 28.5638 38.8368 0
      vertex -9.5 36.5 0
      vertex 30.4882 39.0705 0
    endloop
  endfacet
  facet normal 0 0 -1
    outer loop
      vertex 26.9685 37.7356 0
      vertex 23.5 36.5 0
      vertex 28.5638 38.8368 0
    endloop
  endfacet
  facet normal 0 0 -1
    outer loop
      vertex 23.5 36.5 0
      vertex -9.5 36.5 0
      vertex 28.5638 38.8368 0
    endloop
  endfacet
  facet normal 0 0 -1
    outer loop
      vertex -32 -36.5 0
      vertex -36.075 40.6 0
      vertex -32 36.5 0
    endloop
  endfacet
  facet normal 0 0 -1
    outer loop
      vertex 23.5 36.5 0
      vertex 26.9685 32.3644 0
      vertex 23.5 27.5 0
    endloop
  endfacet
  facet normal 0 0 -1
    outer loop
      vertex -19.0315 32.3644 0
      vertex -17.4361 31.2632 0
      vertex -22 27.5 0
    endloop
  endfacet
  facet normal 0 0 -1
    outer loop
      vertex -22 36.5 0
      vertex -19.0315 32.3644 0
      vertex -22 27.5 0
    endloop
  endfacet
  facet normal 0 1 0
    outer loop
      vertex -36.075 40.6 0
      vertex -36.075 40.6 15
      vertex 41.075 40.6 0
    endloop
  endfacet
  facet normal 0 1 0
    outer loop
      vertex 41.075 40.6 0
      vertex -36.075 40.6 15
      vertex 41.075 40.6 15
    endloop
  endfacet
  facet normal 0 0 1
    outer loop
      vertex -15.5118 -38.0705 15
      vertex -36.075 -40.6 15
      vertex 41.075 -40.6 15
    endloop
  endfacet
  facet normal 0 0 1
    outer loop
      vertex -15.5118 -38.0705 15
      vertex -17.4361 -37.8368 15
      vertex -36.075 -40.6 15
    endloop
  endfacet
  facet normal 0 0 1
    outer loop
      vertex -36.075 40.6 15
      vertex -36.075 -40.6 15
      vertex -19.9323 -35.0192 15
    endloop
  endfacet
  facet normal 0 0 1
    outer loop
      vertex -36.075 40.6 15
      vertex -19.9323 -35.0192 15
      vertex -19.9323 -33.0808 15
    endloop
  endfacet
  facet normal 0 0 1
    outer loop
      vertex -36.075 40.6 15
      vertex -19.9323 -33.0808 15
      vertex -19.0315 -31.3644 15
    endloop
  endfacet
  facet normal 0 0 1
    outer loop
      vertex -12.4139 -32.1679 15
      vertex -11.95 -34.05 15
      vertex 41.075 -40.6 15
    endloop
  endfacet
  facet normal 0 0 1
    outer loop
      vertex -36.075 40.6 15
      vertex -19.0315 -31.3644 15
      vertex -17.4361 -30.2632 15
    endloop
  endfacet
  facet normal 0 0 1
    outer loop
      vertex 28.5638 -37.8368 15
      vertex -15.5118 -30.0295 15
      vertex 41.075 -40.6 15
    endloop
  endfacet
  facet normal 0 0 1
    outer loop
      vertex -36.075 40.6 15
      vertex -17.4361 -30.2632 15
      vertex -15.5118 -30.0295 15
    endloop
  endfacet
  facet normal 0 0 1
    outer loop
      vertex -15.5118 -30.0295 15
      vertex -13.6993 -30.7169 15
      vertex 41.075 -40.6 15
    endloop
  endfacet
  facet normal 0 0 1
    outer loop
      vertex -12.4139 -35.9321 15
      vertex -13.6993 -37.3831 15
      vertex 41.075 -40.6 15
    endloop
  endfacet
  facet normal 0 0 1
    outer loop
      vertex -13.6993 -37.3831 15
      vertex -15.5118 -38.0705 15
      vertex 41.075 -40.6 15
    endloop
  endfacet
  facet normal 0 0 1
    outer loop
      vertex -17.4361 -37.8368 15
      vertex -19.0315 -36.7356 15
      vertex -36.075 -40.6 15
    endloop
  endfacet
  facet normal 0 0 1
    outer loop
      vertex -15.5118 39.0705 15
      vertex -13.6993 38.3831 15
      vertex 41.075 40.6 15
    endloop
  endfacet
  facet normal 0 0 1
    outer loop
      vertex -19.9323 -35.0192 15
      vertex -36.075 -40.6 15
      vertex -19.0315 -36.7356 15
    endloop
  endfacet
  facet normal 0 0 1
    outer loop
      vertex -19.9323 36.0192 15
      vertex -36.075 40.6 15
      vertex -19.9323 34.0808 15
    endloop
  endfacet
  facet normal 0 0 1
    outer loop
      vertex -19.0315 37.7356 15
      vertex -36.075 40.6 15
      vertex -19.9323 36.0192 15
    endloop
  endfacet
  facet normal 0 0 1
    outer loop
      vertex -17.4361 38.8368 15
      vertex -36.075 40.6 15
      vertex -19.0315 37.7356 15
    endloop
  endfacet
  facet normal 0 0 1
    outer loop
      vertex -15.5118 39.0705 15
      vertex -36.075 40.6 15
      vertex -17.4361 38.8368 15
    endloop
  endfacet
  facet normal 0 0 1
    outer loop
      vertex -13.6993 38.3831 15
      vertex -12.4139 36.9321 15
      vertex 41.075 40.6 15
    endloop
  endfacet
  facet normal 0 0 1
    outer loop
      vertex 41.075 40.6 15
      vertex -36.075 40.6 15
      vertex -15.5118 39.0705 15
    endloop
  endfacet
  facet normal 0 0 1
    outer loop
      vertex -12.4139 36.9321 15
      vertex -11.95 35.05 15
      vertex 41.075 40.6 15
    endloop
  endfacet
  facet normal 0 0 1
    outer loop
      vertex -11.95 35.05 15
      vertex -12.4139 33.1679 15
      vertex 41.075 40.6 15
    endloop
  endfacet
  facet normal 0 0 1
    outer loop
      vertex 26.0677 34.0808 15
      vertex -12.4139 33.1679 15
      vertex 41.075 -40.6 15
    endloop
  endfacet
  facet normal 0 0 1
    outer loop
      vertex -12.4139 33.1679 15
      vertex -13.6993 31.7169 15
      vertex 41.075 -40.6 15
    endloop
  endfacet
  facet normal 0 0 1
    outer loop
      vertex -13.6993 31.7169 15
      vertex -15.5118 31.0295 15
      vertex 41.075 -40.6 15
    endloop
  endfacet
  facet normal 0 0 1
    outer loop
      vertex 4.5 4.5 15
      vertex 32.3007 -30.7169 15
      vertex 41.075 -40.6 15
    endloop
  endfacet
  facet normal 0 0 1
    outer loop
      vertex -19.9323 34.0808 15
      vertex -36.075 40.6 15
      vertex -19.0315 32.3644 15
    endloop
  endfacet
  facet normal 0 0 1
    outer loop
      vertex -36.075 40.6 15
      vertex -15.5118 -30.0295 15
      vertex -4.5 -4.5 15
    endloop
  endfacet
  facet normal 0 0 1
    outer loop
      vertex 26.9685 -36.7356 15
      vertex 26.0677 -35.0192 15
      vertex -15.5118 -30.0295 15
    endloop
  endfacet
  facet normal 0 0 1
    outer loop
      vertex -36.075 40.6 15
      vertex -4.5 -4.5 15
      vertex -4.5 4.5 15
    endloop
  endfacet
  facet normal 0 0 1
    outer loop
      vertex -15.5118 31.0295 15
      vertex 4.5 4.5 15
      vertex 41.075 -40.6 15
    endloop
  endfacet
  facet normal 0 0 1
    outer loop
      vertex -15.5118 31.0295 15
      vertex -17.4361 31.2632 15
      vertex 4.5 4.5 15
    endloop
  endfacet
  facet normal 0 0 1
    outer loop
      vertex 28.5638 -37.8368 15
      vertex 26.9685 -36.7356 15
      vertex -15.5118 -30.0295 15
    endloop
  endfacet
  facet normal 0 0 1
    outer loop
      vertex -4.5 -4.5 15
      vertex -15.5118 -30.0295 15
      vertex 26.0677 -35.0192 15
    endloop
  endfacet
  facet normal 0 0 1
    outer loop
      vertex 32.3007 38.3831 15
      vertex 33.5861 36.9321 15
      vertex 41.075 40.6 15
    endloop
  endfacet
  facet normal 0 0 1
    outer loop
      vertex -4.5 -4.5 15
      vertex 26.0677 -35.0192 15
      vertex 26.0677 -33.0808 15
    endloop
  endfacet
  facet normal 0 0 1
    outer loop
      vertex -4.5 -4.5 15
      vertex 26.0677 -33.0808 15
      vertex 26.9685 -31.3644 15
    endloop
  endfacet
  facet normal 0 0 1
    outer loop
      vertex 33.5861 -35.9321 15
      vertex 32.3007 -37.3831 15
      vertex 41.075 -40.6 15
    endloop
  endfacet
  facet normal 0 0 1
    outer loop
      vertex 4.5 -4.5 15
      vertex -4.5 -4.5 15
      vertex 28.5638 -30.2632 15
    endloop
  endfacet
  facet normal 0 0 1
    outer loop
      vertex 4.5 4.5 15
      vertex 4.5 -4.5 15
      vertex 30.4882 -30.0295 15
    endloop
  endfacet
  facet normal 0 0 1
    outer loop
      vertex 32.3007 -30.7169 15
      vertex 33.5861 -32.1679 15
      vertex 41.075 -40.6 15
    endloop
  endfacet
  facet normal 0 0 1
    outer loop
      vertex 33.5861 -32.1679 15
      vertex 34.05 -34.05 15
      vertex 41.075 -40.6 15
    endloop
  endfacet
  facet normal 0 0 1
    outer loop
      vertex 34.05 -34.05 15
      vertex 33.5861 -35.9321 15
      vertex 41.075 -40.6 15
    endloop
  endfacet
  facet normal 0 0 1
    outer loop
      vertex 32.3007 -37.3831 15
      vertex 30.4882 -38.0705 15
      vertex 41.075 -40.6 15
    endloop
  endfacet
  facet normal 0 0 1
    outer loop
      vertex 30.4882 -38.0705 15
      vertex 28.5638 -37.8368 15
      vertex 41.075 -40.6 15
    endloop
  endfacet
  facet normal 0 0 1
    outer loop
      vertex 30.4882 39.0705 15
      vertex 32.3007 38.3831 15
      vertex 41.075 40.6 15
    endloop
  endfacet
  facet normal 0 0 1
    outer loop
      vertex 26.9685 -31.3644 15
      vertex 28.5638 -30.2632 15
      vertex -4.5 -4.5 15
    endloop
  endfacet
  facet normal 0 0 1
    outer loop
      vertex 26.9685 32.3644 15
      vertex 26.0677 34.0808 15
      vertex 41.075 -40.6 15
    endloop
  endfacet
  facet normal 0 0 1
    outer loop
      vertex 26.0677 36.0192 15
      vertex -12.4139 33.1679 15
      vertex 26.0677 34.0808 15
    endloop
  endfacet
  facet normal 0 0 1
    outer loop
      vertex 34.05 35.05 15
      vertex 33.5861 33.1679 15
      vertex 41.075 -40.6 15
    endloop
  endfacet
  facet normal 0 0 1
    outer loop
      vertex 26.9685 37.7356 15
      vertex -12.4139 33.1679 15
      vertex 26.0677 36.0192 15
    endloop
  endfacet
  facet normal 0 0 1
    outer loop
      vertex 28.5638 38.8368 15
      vertex -12.4139 33.1679 15
      vertex 26.9685 37.7356 15
    endloop
  endfacet
  facet normal 0 0 1
    outer loop
      vertex 41.075 40.6 15
      vertex -12.4139 33.1679 15
      vertex 28.5638 38.8368 15
    endloop
  endfacet
  facet normal 0 0 1
    outer loop
      vertex 41.075 40.6 15
      vertex 28.5638 38.8368 15
      vertex 30.4882 39.0705 15
    endloop
  endfacet
  facet normal 0 0 1
    outer loop
      vertex 41.075 40.6 15
      vertex 34.05 35.05 15
      vertex 41.075 -40.6 15
    endloop
  endfacet
  facet normal 0 0 1
    outer loop
      vertex 41.075 40.6 15
      vertex 33.5861 36.9321 15
      vertex 34.05 35.05 15
    endloop
  endfacet
  facet normal 0 0 1
    outer loop
      vertex 33.5861 33.1679 15
      vertex 32.3007 31.7169 15
      vertex 41.075 -40.6 15
    endloop
  endfacet
  facet normal 0 0 1
    outer loop
      vertex 32.3007 31.7169 15
      vertex 30.4882 31.0295 15
      vertex 41.075 -40.6 15
    endloop
  endfacet
  facet normal 0 0 1
    outer loop
      vertex 30.4882 31.0295 15
      vertex 28.5638 31.2632 15
      vertex 41.075 -40.6 15
    endloop
  endfacet
  facet normal 0 0 1
    outer loop
      vertex 28.5638 31.2632 15
      vertex 26.9685 32.3644 15
      vertex 41.075 -40.6 15
    endloop
  endfacet
  facet normal 0 0 1
    outer loop
      vertex -13.6993 -30.7169 15
      vertex -12.4139 -32.1679 15
      vertex 41.075 -40.6 15
    endloop
  endfacet
  facet normal 0 0 1
    outer loop
      vertex -11.95 -34.05 15
      vertex -12.4139 -35.9321 15
      vertex 41.075 -40.6 15
    endloop
  endfacet
  facet normal 0 0 1
    outer loop
      vertex 4.5 4.5 15
      vertex 30.4882 -30.0295 15
      vertex 32.3007 -30.7169 15
    endloop
  endfacet
  facet normal 0 0 1
    outer loop
      vertex 28.5638 -30.2632 15
      vertex 30.4882 -30.0295 15
      vertex 4.5 -4.5 15
    endloop
  endfacet
  facet normal 0 0 1
    outer loop
      vertex -4.5 4.5 15
      vertex -19.0315 32.3644 15
      vertex -36.075 40.6 15
    endloop
  endfacet
  facet normal 0 0 1
    outer loop
      vertex -4.5 4.5 15
      vertex -17.4361 31.2632 15
      vertex -19.0315 32.3644 15
    endloop
  endfacet
  facet normal 0 0 1
    outer loop
      vertex -4.5 4.5 15
      vertex 4.5 4.5 15
      vertex -17.4361 31.2632 15
    endloop
  endfacet
  facet normal 1 0 0
    outer loop
      vertex 41.075 -40.6 15
      vertex 41.075 -40.6 0
      vertex 41.075 40.6 0
    endloop
  endfacet
  facet normal 1 0 0
    outer loop
      vertex 41.075 40.6 15
      vertex 41.075 -40.6 15
      vertex 41.075 40.6 0
    endloop
  endfacet
  facet normal 1 0 0
    outer loop
      vertex -32 36.5 0
      vertex -32 36.5 12.9
      vertex -32 -36.5 12.9
    endloop
  endfacet
  facet normal 1 0 0
    outer loop
      vertex -32 -36.5 0
      vertex -32 36.5 0
      vertex -32 -36.5 12.9
    endloop
  endfacet
  facet normal 0 -1 0
    outer loop
      vertex -22 36.5 0
      vertex -22 36.5 12.9
      vertex -32 36.5 12.9
    endloop
  endfacet
  facet normal 0 -1 0
    outer loop
      vertex -32 36.5 0
      vertex -22 36.5 0
      vertex -32 36.5 12.9
    endloop
  endfacet
  facet normal -1 0 0
    outer loop
      vertex -22 36.5 12.9
      vertex -22 36.5 0
      vertex -22 27.5 12.9
    endloop
  endfacet
  facet normal -1 0 0
    outer loop
      vertex -22 27.5 12.9
      vertex -22 36.5 0
      vertex -22 27.5 0
    endloop
  endfacet
  facet normal 0 -1 0
    outer loop
      vertex -9.5 27.5 0
      vertex -9.5 27.5 12.9
      vertex -22 27.5 12.9
    endloop
  endfacet
  facet normal 0 -1 0
    outer loop
      vertex -22 27.5 0
      vertex -9.5 27.5 0
      vertex -22 27.5 12.9
    endloop
  endfacet
  facet normal 1 0 0
    outer loop
      vertex -9.5 36.5 0
      vertex -9.5 36.5 12.9
      vertex -9.5 27.5 12.9
    endloop
  endfacet
  facet normal 1 0 0
    outer loop
      vertex -9.5 27.5 0
      vertex -9.5 36.5 0
      vertex -9.5 27.5 12.9
    endloop
  endfacet
  facet normal 0 -1 0
    outer loop
      vertex 23.5 36.5 0
      vertex 23.5 36.5 12.9
      vertex -9.5 36.5 12.9
    endloop
  endfacet
  facet normal 0 -1 0
    outer loop
      vertex -9.5 36.5 0
      vertex 23.5 36.5 0
      vertex -9.5 36.5 12.9
    endloop
  endfacet
  facet normal -1 0 0
    outer loop
      vertex 23.5 36.5 12.9
      vertex 23.5 36.5 0
      vertex 23.5 27.5 12.9
    endloop
  endfacet
  facet normal -1 0 0
    outer loop
      vertex 23.5 27.5 12.9
      vertex 23.5 36.5 0
      vertex 23.5 27.5 0
    endloop
  endfacet
  facet normal 0 -1 0
    outer loop
      vertex 37 27.5 0
      vertex 37 27.5 12.9
      vertex 23.5 27.5 12.9
    endloop
  endfacet
  facet normal 0 -1 0
    outer loop
      vertex 23.5 27.5 0
      vertex 37 27.5 0
      vertex 23.5 27.5 12.9
    endloop
  endfacet
  facet normal -1 0 0
    outer loop
      vertex 37 27.5 12.9
      vertex 37 27.5 0
      vertex 37 -27.5 12.9
    endloop
  endfacet
  facet normal -1 0 0
    outer loop
      vertex 37 -27.5 12.9
      vertex 37 27.5 0
      vertex 37 -27.5 0
    endloop
  endfacet
  facet normal 0 1 0
    outer loop
      vertex 37 -27.5 12.9
      vertex 37 -27.5 0
      vertex 23.5 -27.5 12.9
    endloop
  endfacet
  facet normal 0 1 0
    outer loop
      vertex 23.5 -27.5 12.9
      vertex 37 -27.5 0
      vertex 23.5 -27.5 0
    endloop
  endfacet
  facet normal -1 0 0
    outer loop
      vertex 23.5 -27.5 12.9
      vertex 23.5 -27.5 0
      vertex 23.5 -36.5 12.9
    endloop
  endfacet
  facet normal -1 0 0
    outer loop
      vertex 23.5 -36.5 12.9
      vertex 23.5 -27.5 0
      vertex 23.5 -36.5 0
    endloop
  endfacet
  facet normal 0 1 0
    outer loop
      vertex 23.5 -36.5 12.9
      vertex 23.5 -36.5 0
      vertex -9.5 -36.5 12.9
    endloop
  endfacet
  facet normal 0 1 0
    outer loop
      vertex -9.5 -36.5 12.9
      vertex 23.5 -36.5 0
      vertex -9.5 -36.5 0
    endloop
  endfacet
  facet normal 1 0 0
    outer loop
      vertex -9.5 -27.5 0
      vertex -9.5 -27.5 12.9
      vertex -9.5 -36.5 12.9
    endloop
  endfacet
  facet normal 1 0 0
    outer loop
      vertex -9.5 -36.5 0
      vertex -9.5 -27.5 0
      vertex -9.5 -36.5 12.9
    endloop
  endfacet
  facet normal 0 1 0
    outer loop
      vertex -9.5 -27.5 12.9
      vertex -9.5 -27.5 0
      vertex -22 -27.5 12.9
    endloop
  endfacet
  facet normal 0 1 0
    outer loop
      vertex -22 -27.5 12.9
      vertex -9.5 -27.5 0
      vertex -22 -27.5 0
    endloop
  endfacet
  facet normal -1 0 0
    outer loop
      vertex -22 -27.5 12.9
      vertex -22 -27.5 0
      vertex -22 -36.5 12.9
    endloop
  endfacet
  facet normal -1 0 0
    outer loop
      vertex -22 -36.5 12.9
      vertex -22 -27.5 0
      vertex -22 -36.5 0
    endloop
  endfacet
  facet normal 0 1 0
    outer loop
      vertex -22 -36.5 12.9
      vertex -22 -36.5 0
      vertex -32 -36.5 12.9
    endloop
  endfacet
  facet normal 0 1 0
    outer loop
      vertex -32 -36.5 12.9
      vertex -22 -36.5 0
      vertex -32 -36.5 0
    endloop
  endfacet
  facet normal 0.885456 -0.464723 0
    outer loop
      vertex -19.0315 -31.3644 0
      vertex -19.0315 -31.3644 15
      vertex -19.9323 -33.0808 15
    endloop
  endfacet
  facet normal 0.885456 -0.464723 0
    outer loop
      vertex -19.9323 -33.0808 0
      vertex -19.0315 -31.3644 0
      vertex -19.9323 -33.0808 15
    endloop
  endfacet
  facet normal 1 0 0
    outer loop
      vertex -19.9323 -33.0808 0
      vertex -19.9323 -33.0808 15
      vertex -19.9323 -35.0192 15
    endloop
  endfacet
  facet normal 1 0 0
    outer loop
      vertex -19.9323 -35.0192 0
      vertex -19.9323 -33.0808 0
      vertex -19.9323 -35.0192 15
    endloop
  endfacet
  facet normal 0.568065 -0.822984 0
    outer loop
      vertex -17.4361 -30.2632 0
      vertex -17.4361 -30.2632 15
      vertex -19.0315 -31.3644 15
    endloop
  endfacet
  facet normal 0.568065 -0.822984 0
    outer loop
      vertex -19.0315 -31.3644 0
      vertex -17.4361 -30.2632 0
      vertex -19.0315 -31.3644 15
    endloop
  endfacet
  facet normal 0.120537 -0.992709 0
    outer loop
      vertex -15.5118 -30.0295 0
      vertex -15.5118 -30.0295 15
      vertex -17.4361 -30.2632 15
    endloop
  endfacet
  facet normal 0.120537 -0.992709 0
    outer loop
      vertex -17.4361 -30.2632 0
      vertex -15.5118 -30.0295 0
      vertex -17.4361 -30.2632 15
    endloop
  endfacet
  facet normal -0.354605 -0.935016 0
    outer loop
      vertex -13.6993 -30.7169 0
      vertex -13.6993 -30.7169 15
      vertex -15.5118 -30.0295 15
    endloop
  endfacet
  facet normal -0.354605 -0.935016 0
    outer loop
      vertex -15.5118 -30.0295 0
      vertex -13.6993 -30.7169 0
      vertex -15.5118 -30.0295 15
    endloop
  endfacet
  facet normal -0.748511 -0.663123 0
    outer loop
      vertex -12.4139 -32.1679 15
      vertex -13.6993 -30.7169 15
      vertex -12.4139 -32.1679 0
    endloop
  endfacet
  facet normal -0.748511 -0.663123 0
    outer loop
      vertex -12.4139 -32.1679 0
      vertex -13.6993 -30.7169 15
      vertex -13.6993 -30.7169 0
    endloop
  endfacet
  facet normal -0.970942 -0.239316 0
    outer loop
      vertex -11.95 -34.05 15
      vertex -12.4139 -32.1679 15
      vertex -11.95 -34.05 0
    endloop
  endfacet
  facet normal -0.970942 -0.239316 0
    outer loop
      vertex -11.95 -34.05 0
      vertex -12.4139 -32.1679 15
      vertex -12.4139 -32.1679 0
    endloop
  endfacet
  facet normal -0.970942 0.239316 0
    outer loop
      vertex -11.95 -34.05 15
      vertex -11.95 -34.05 0
      vertex -12.4139 -35.9321 15
    endloop
  endfacet
  facet normal -0.970942 0.239316 0
    outer loop
      vertex -12.4139 -35.9321 15
      vertex -11.95 -34.05 0
      vertex -12.4139 -35.9321 0
    endloop
  endfacet
  facet normal -0.748511 0.663123 0
    outer loop
      vertex -12.4139 -35.9321 15
      vertex -12.4139 -35.9321 0
      vertex -13.6993 -37.3831 15
    endloop
  endfacet
  facet normal -0.748511 0.663123 0
    outer loop
      vertex -13.6993 -37.3831 15
      vertex -12.4139 -35.9321 0
      vertex -13.6993 -37.3831 0
    endloop
  endfacet
  facet normal -0.354605 0.935016 0
    outer loop
      vertex -13.6993 -37.3831 15
      vertex -13.6993 -37.3831 0
      vertex -15.5118 -38.0705 15
    endloop
  endfacet
  facet normal -0.354605 0.935016 0
    outer loop
      vertex -15.5118 -38.0705 15
      vertex -13.6993 -37.3831 0
      vertex -15.5118 -38.0705 0
    endloop
  endfacet
  facet normal 0.120537 0.992709 0
    outer loop
      vertex -15.5118 -38.0705 15
      vertex -15.5118 -38.0705 0
      vertex -17.4361 -37.8368 15
    endloop
  endfacet
  facet normal 0.120537 0.992709 0
    outer loop
      vertex -17.4361 -37.8368 15
      vertex -15.5118 -38.0705 0
      vertex -17.4361 -37.8368 0
    endloop
  endfacet
  facet normal 0.568065 0.822984 0
    outer loop
      vertex -17.4361 -37.8368 15
      vertex -17.4361 -37.8368 0
      vertex -19.0315 -36.7356 15
    endloop
  endfacet
  facet normal 0.568065 0.822984 0
    outer loop
      vertex -19.0315 -36.7356 15
      vertex -17.4361 -37.8368 0
      vertex -19.0315 -36.7356 0
    endloop
  endfacet
  facet normal 0.885456 0.464723 0
    outer loop
      vertex -19.9323 -35.0192 15
      vertex -19.0315 -36.7356 15
      vertex -19.0315 -36.7356 0
    endloop
  endfacet
  facet normal 0.885456 0.464723 0
    outer loop
      vertex -19.9323 -35.0192 0
      vertex -19.9323 -35.0192 15
      vertex -19.0315 -36.7356 0
    endloop
  endfacet
  facet normal 0.885456 -0.464723 0
    outer loop
      vertex -19.0315 37.7356 0
      vertex -19.0315 37.7356 15
      vertex -19.9323 36.0192 15
    endloop
  endfacet
  facet normal 0.885456 -0.464723 0
    outer loop
      vertex -19.9323 36.0192 0
      vertex -19.0315 37.7356 0
      vertex -19.9323 36.0192 15
    endloop
  endfacet
  facet normal 1 0 0
    outer loop
      vertex -19.9323 36.0192 0
      vertex -19.9323 36.0192 15
      vertex -19.9323 34.0808 15
    endloop
  endfacet
  facet normal 1 0 0
    outer loop
      vertex -19.9323 34.0808 0
      vertex -19.9323 36.0192 0
      vertex -19.9323 34.0808 15
    endloop
  endfacet
  facet normal 0.568065 -0.822984 0
    outer loop
      vertex -17.4361 38.8368 0
      vertex -17.4361 38.8368 15
      vertex -19.0315 37.7356 15
    endloop
  endfacet
  facet normal 0.568065 -0.822984 0
    outer loop
      vertex -19.0315 37.7356 0
      vertex -17.4361 38.8368 0
      vertex -19.0315 37.7356 15
    endloop
  endfacet
  facet normal 0.120537 -0.992709 0
    outer loop
      vertex -15.5118 39.0705 0
      vertex -15.5118 39.0705 15
      vertex -17.4361 38.8368 15
    endloop
  endfacet
  facet normal 0.120537 -0.992709 0
    outer loop
      vertex -17.4361 38.8368 0
      vertex -15.5118 39.0705 0
      vertex -17.4361 38.8368 15
    endloop
  endfacet
  facet normal -0.354605 -0.935016 0
    outer loop
      vertex -13.6993 38.3831 0
      vertex -13.6993 38.3831 15
      vertex -15.5118 39.0705 15
    endloop
  endfacet
  facet normal -0.354605 -0.935016 0
    outer loop
      vertex -15.5118 39.0705 0
      vertex -13.6993 38.3831 0
      vertex -15.5118 39.0705 15
    endloop
  endfacet
  facet normal -0.748511 -0.663123 0
    outer loop
      vertex -12.4139 36.9321 15
      vertex -13.6993 38.3831 15
      vertex -12.4139 36.9321 0
    endloop
  endfacet
  facet normal -0.748511 -0.663123 0
    outer loop
      vertex -12.4139 36.9321 0
      vertex -13.6993 38.3831 15
      vertex -13.6993 38.3831 0
    endloop
  endfacet
  facet normal -0.970942 -0.239316 0
    outer loop
      vertex -11.95 35.05 15
      vertex -12.4139 36.9321 15
      vertex -11.95 35.05 0
    endloop
  endfacet
  facet normal -0.970942 -0.239316 0
    outer loop
      vertex -11.95 35.05 0
      vertex -12.4139 36.9321 15
      vertex -12.4139 36.9321 0
    endloop
  endfacet
  facet normal -0.970942 0.239316 0
    outer loop
      vertex -11.95 35.05 15
      vertex -11.95 35.05 0
      vertex -12.4139 33.1679 15
    endloop
  endfacet
  facet normal -0.970942 0.239316 0
    outer loop
      vertex -12.4139 33.1679 15
      vertex -11.95 35.05 0
      vertex -12.4139 33.1679 0
    endloop
  endfacet
  facet normal -0.748511 0.663123 0
    outer loop
      vertex -12.4139 33.1679 15
      vertex -12.4139 33.1679 0
      vertex -13.6993 31.7169 15
    endloop
  endfacet
  facet normal -0.748511 0.663123 0
    outer loop
      vertex -13.6993 31.7169 15
      vertex -12.4139 33.1679 0
      vertex -13.6993 31.7169 0
    endloop
  endfacet
  facet normal -0.354605 0.935016 0
    outer loop
      vertex -13.6993 31.7169 15
      vertex -13.6993 31.7169 0
      vertex -15.5118 31.0295 15
    endloop
  endfacet
  facet normal -0.354605 0.935016 0
    outer loop
      vertex -15.5118 31.0295 15
      vertex -13.6993 31.7169 0
      vertex -15.5118 31.0295 0
    endloop
  endfacet
  facet normal 0.120537 0.992709 0
    outer loop
      vertex -15.5118 31.0295 15
      vertex -15.5118 31.0295 0
      vertex -17.4361 31.2632 15
    endloop
  endfacet
  facet normal 0.120537 0.992709 0
    outer loop
      vertex -17.4361 31.2632 15
      vertex -15.5118 31.0295 0
      vertex -17.4361 31.2632 0
    endloop
  endfacet
  facet normal 0.568065 0.822984 0
    outer loop
      vertex -17.4361 31.2632 15
      vertex -17.4361 31.2632 0
      vertex -19.0315 32.3644 15
    endloop
  endfacet
  facet normal 0.568065 0.822984 0
    outer loop
      vertex -19.0315 32.3644 15
      vertex -17.4361 31.2632 0
      vertex -19.0315 32.3644 0
    endloop
  endfacet
  facet normal 0.885456 0.464723 0
    outer loop
      vertex -19.9323 34.0808 15
      vertex -19.0315 32.3644 15
      vertex -19.0315 32.3644 0
    endloop
  endfacet
  facet normal 0.885456 0.464723 0
    outer loop
      vertex -19.9323 34.0808 0
      vertex -19.9323 34.0808 15
      vertex -19.0315 32.3644 0
    endloop
  endfacet
  facet normal 0.885456 -0.464723 0
    outer loop
      vertex 26.9685 -31.3644 0
      vertex 26.9685 -31.3644 15
      vertex 26.0677 -33.0808 15
    endloop
  endfacet
  facet normal 0.885456 -0.464723 0
    outer loop
      vertex 26.0677 -33.0808 0
      vertex 26.9685 -31.3644 0
      vertex 26.0677 -33.0808 15
    endloop
  endfacet
  facet normal 1 0 0
    outer loop
      vertex 26.0677 -33.0808 0
      vertex 26.0677 -33.0808 15
      vertex 26.0677 -35.0192 15
    endloop
  endfacet
  facet normal 1 0 0
    outer loop
      vertex 26.0677 -35.0192 0
      vertex 26.0677 -33.0808 0
      vertex 26.0677 -35.0192 15
    endloop
  endfacet
  facet normal 0.568065 -0.822984 0
    outer loop
      vertex 28.5638 -30.2632 0
      vertex 28.5638 -30.2632 15
      vertex 26.9685 -31.3644 15
    endloop
  endfacet
  facet normal 0.568065 -0.822984 0
    outer loop
      vertex 26.9685 -31.3644 0
      vertex 28.5638 -30.2632 0
      vertex 26.9685 -31.3644 15
    endloop
  endfacet
  facet normal 0.120537 -0.992709 0
    outer loop
      vertex 30.4882 -30.0295 0
      vertex 30.4882 -30.0295 15
      vertex 28.5638 -30.2632 15
    endloop
  endfacet
  facet normal 0.120537 -0.992709 0
    outer loop
      vertex 28.5638 -30.2632 0
      vertex 30.4882 -30.0295 0
      vertex 28.5638 -30.2632 15
    endloop
  endfacet
  facet normal -0.354605 -0.935016 0
    outer loop
      vertex 32.3007 -30.7169 0
      vertex 32.3007 -30.7169 15
      vertex 30.4882 -30.0295 15
    endloop
  endfacet
  facet normal -0.354605 -0.935016 0
    outer loop
      vertex 30.4882 -30.0295 0
      vertex 32.3007 -30.7169 0
      vertex 30.4882 -30.0295 15
    endloop
  endfacet
  facet normal -0.748511 -0.663123 0
    outer loop
      vertex 33.5861 -32.1679 15
      vertex 32.3007 -30.7169 15
      vertex 33.5861 -32.1679 0
    endloop
  endfacet
  facet normal -0.748511 -0.663123 0
    outer loop
      vertex 33.5861 -32.1679 0
      vertex 32.3007 -30.7169 15
      vertex 32.3007 -30.7169 0
    endloop
  endfacet
  facet normal -0.970942 -0.239316 0
    outer loop
      vertex 34.05 -34.05 15
      vertex 33.5861 -32.1679 15
      vertex 34.05 -34.05 0
    endloop
  endfacet
  facet normal -0.970942 -0.239316 0
    outer loop
      vertex 34.05 -34.05 0
      vertex 33.5861 -32.1679 15
      vertex 33.5861 -32.1679 0
    endloop
  endfacet
  facet normal -0.970942 0.239316 0
    outer loop
      vertex 34.05 -34.05 15
      vertex 34.05 -34.05 0
      vertex 33.5861 -35.9321 15
    endloop
  endfacet
  facet normal -0.970942 0.239316 0
    outer loop
      vertex 33.5861 -35.9321 15
      vertex 34.05 -34.05 0
      vertex 33.5861 -35.9321 0
    endloop
  endfacet
  facet normal -0.748511 0.663123 0
    outer loop
      vertex 33.5861 -35.9321 15
      vertex 33.5861 -35.9321 0
      vertex 32.3007 -37.3831 15
    endloop
  endfacet
  facet normal -0.748511 0.663123 0
    outer loop
      vertex 32.3007 -37.3831 15
      vertex 33.5861 -35.9321 0
      vertex 32.3007 -37.3831 0
    endloop
  endfacet
  facet normal -0.354605 0.935016 0
    outer loop
      vertex 32.3007 -37.3831 15
      vertex 32.3007 -37.3831 0
      vertex 30.4882 -38.0705 15
    endloop
  endfacet
  facet normal -0.354605 0.935016 0
    outer loop
      vertex 30.4882 -38.0705 15
      vertex 32.3007 -37.3831 0
      vertex 30.4882 -38.0705 0
    endloop
  endfacet
  facet normal 0.120537 0.992709 0
    outer loop
      vertex 30.4882 -38.0705 15
      vertex 30.4882 -38.0705 0
      vertex 28.5638 -37.8368 15
    endloop
  endfacet
  facet normal 0.120537 0.992709 0
    outer loop
      vertex 28.5638 -37.8368 15
      vertex 30.4882 -38.0705 0
      vertex 28.5638 -37.8368 0
    endloop
  endfacet
  facet normal 0.568065 0.822984 0
    outer loop
      vertex 28.5638 -37.8368 15
      vertex 28.5638 -37.8368 0
      vertex 26.9685 -36.7356 15
    endloop
  endfacet
  facet normal 0.568065 0.822984 0
    outer loop
      vertex 26.9685 -36.7356 15
      vertex 28.5638 -37.8368 0
      vertex 26.9685 -36.7356 0
    endloop
  endfacet
  facet normal 0.885456 0.464723 0
    outer loop
      vertex 26.0677 -35.0192 15
      vertex 26.9685 -36.7356 15
      vertex 26.9685 -36.7356 0
    endloop
  endfacet
  facet normal 0.885456 0.464723 0
    outer loop
      vertex 26.0677 -35.0192 0
      vertex 26.0677 -35.0192 15
      vertex 26.9685 -36.7356 0
    endloop
  endfacet
  facet normal 0.885456 -0.464723 0
    outer loop
      vertex 26.9685 37.7356 0
      vertex 26.9685 37.7356 15
      vertex 26.0677 36.0192 15
    endloop
  endfacet
  facet normal 0.885456 -0.464723 0
    outer loop
      vertex 26.0677 36.0192 0
      vertex 26.9685 37.7356 0
      vertex 26.0677 36.0192 15
    endloop
  endfacet
  facet normal 1 0 0
    outer loop
      vertex 26.0677 36.0192 0
      vertex 26.0677 36.0192 15
      vertex 26.0677 34.0808 15
    endloop
  endfacet
  facet normal 1 0 0
    outer loop
      vertex 26.0677 34.0808 0
      vertex 26.0677 36.0192 0
      vertex 26.0677 34.0808 15
    endloop
  endfacet
  facet normal 0.568065 -0.822984 0
    outer loop
      vertex 28.5638 38.8368 0
      vertex 28.5638 38.8368 15
      vertex 26.9685 37.7356 15
    endloop
  endfacet
  facet normal 0.568065 -0.822984 0
    outer loop
      vertex 26.9685 37.7356 0
      vertex 28.5638 38.8368 0
      vertex 26.9685 37.7356 15
    endloop
  endfacet
  facet normal 0.120537 -0.992709 0
    outer loop
      vertex 30.4882 39.0705 0
      vertex 30.4882 39.0705 15
      vertex 28.5638 38.8368 15
    endloop
  endfacet
  facet normal 0.120537 -0.992709 0
    outer loop
      vertex 28.5638 38.8368 0
      vertex 30.4882 39.0705 0
      vertex 28.5638 38.8368 15
    endloop
  endfacet
  facet normal -0.354605 -0.935016 0
    outer loop
      vertex 32.3007 38.3831 0
      vertex 32.3007 38.3831 15
      vertex 30.4882 39.0705 15
    endloop
  endfacet
  facet normal -0.354605 -0.935016 0
    outer loop
      vertex 30.4882 39.0705 0
      vertex 32.3007 38.3831 0
      vertex 30.4882 39.0705 15
    endloop
  endfacet
  facet normal -0.748511 -0.663123 0
    outer loop
      vertex 33.5861 36.9321 15
      vertex 32.3007 38.3831 15
      vertex 33.5861 36.9321 0
    endloop
  endfacet
  facet normal -0.748511 -0.663123 0
    outer loop
      vertex 33.5861 36.9321 0
      vertex 32.3007 38.3831 15
      vertex 32.3007 38.3831 0
    endloop
  endfacet
  facet normal -0.970942 -0.239316 0
    outer loop
      vertex 34.05 35.05 15
      vertex 33.5861 36.9321 15
      vertex 34.05 35.05 0
    endloop
  endfacet
  facet normal -0.970942 -0.239316 0
    outer loop
      vertex 34.05 35.05 0
      vertex 33.5861 36.9321 15
      vertex 33.5861 36.9321 0
    endloop
  endfacet
  facet normal -0.970942 0.239316 0
    outer loop
      vertex 34.05 35.05 15
      vertex 34.05 35.05 0
      vertex 33.5861 33.1679 15
    endloop
  endfacet
  facet normal -0.970942 0.239316 0
    outer loop
      vertex 33.5861 33.1679 15
      vertex 34.05 35.05 0
      vertex 33.5861 33.1679 0
    endloop
  endfacet
  facet normal -0.748511 0.663123 0
    outer loop
      vertex 33.5861 33.1679 15
      vertex 33.5861 33.1679 0
      vertex 32.3007 31.7169 15
    endloop
  endfacet
  facet normal -0.748511 0.663123 0
    outer loop
      vertex 32.3007 31.7169 15
      vertex 33.5861 33.1679 0
      vertex 32.3007 31.7169 0
    endloop
  endfacet
  facet normal -0.354605 0.935016 0
    outer loop
      vertex 32.3007 31.7169 15
      vertex 32.3007 31.7169 0
      vertex 30.4882 31.0295 15
    endloop
  endfacet
  facet normal -0.354605 0.935016 0
    outer loop
      vertex 30.4882 31.0295 15
      vertex 32.3007 31.7169 0
      vertex 30.4882 31.0295 0
    endloop
  endfacet
  facet normal 0.120537 0.992709 0
    outer loop
      vertex 30.4882 31.0295 15
      vertex 30.4882 31.0295 0
      vertex 28.5638 31.2632 15
    endloop
  endfacet
  facet normal 0.120537 0.992709 0
    outer loop
      vertex 28.5638 31.2632 15
      vertex 30.4882 31.0295 0
      vertex 28.5638 31.2632 0
    endloop
  endfacet
  facet normal 0.568065 0.822984 0
    outer loop
      vertex 28.5638 31.2632 15
      vertex 28.5638 31.2632 0
      vertex 26.9685 32.3644 15
    endloop
  endfacet
  facet normal 0.568065 0.822984 0
    outer loop
      vertex 26.9685 32.3644 15
      vertex 28.5638 31.2632 0
      vertex 26.9685 32.3644 0
    endloop
  endfacet
  facet normal 0.885456 0.464723 0
    outer loop
      vertex 26.0677 34.0808 15
      vertex 26.9685 32.3644 15
      vertex 26.9685 32.3644 0
    endloop
  endfacet
  facet normal 0.885456 0.464723 0
    outer loop
      vertex 26.0677 34.0808 0
      vertex 26.0677 34.0808 15
      vertex 26.9685 32.3644 0
    endloop
  endfacet
  facet normal 1 0 0
    outer loop
      vertex -4.5 4.5 12.9
      vertex -4.5 4.5 15
      vertex -4.5 -4.5 15
    endloop
  endfacet
  facet normal 1 0 0
    outer loop
      vertex -4.5 -4.5 12.9
      vertex -4.5 4.5 12.9
      vertex -4.5 -4.5 15
    endloop
  endfacet
  facet normal 0 1 0
    outer loop
      vertex 4.5 -4.5 15
      vertex 4.5 -4.5 12.9
      vertex -4.5 -4.5 15
    endloop
  endfacet
  facet normal 0 1 0
    outer loop
      vertex -4.5 -4.5 15
      vertex 4.5 -4.5 12.9
      vertex -4.5 -4.5 12.9
    endloop
  endfacet
  facet normal -1 0 0
    outer loop
      vertex 4.5 4.5 15
      vertex 4.5 4.5 12.9
      vertex 4.5 -4.5 15
    endloop
  endfacet
  facet normal -1 0 0
    outer loop
      vertex 4.5 -4.5 15
      vertex 4.5 4.5 12.9
      vertex 4.5 -4.5 12.9
    endloop
  endfacet
  facet normal 0 -1 0
    outer loop
      vertex 4.5 4.5 12.9
      vertex 4.5 4.5 15
      vertex -4.5 4.5 15
    endloop
  endfacet
  facet normal 0 -1 0
    outer loop
      vertex -4.5 4.5 12.9
      vertex 4.5 4.5 12.9
      vertex -4.5 4.5 15
    endloop
  endfacet
  facet normal 0 0 -1
    outer loop
      vertex -22 36.5 12.9
      vertex -22 27.5 12.9
      vertex -32 36.5 12.9
    endloop
  endfacet
  facet normal 0 0 -1
    outer loop
      vertex -4.5 4.5 12.9
      vertex -22 27.5 12.9
      vertex 4.5 4.5 12.9
    endloop
  endfacet
  facet normal 0 0 -1
    outer loop
      vertex 23.5 36.5 12.9
      vertex -9.5 27.5 12.9
      vertex -9.5 36.5 12.9
    endloop
  endfacet
  facet normal 0 0 -1
    outer loop
      vertex 23.5 27.5 12.9
      vertex -9.5 27.5 12.9
      vertex 23.5 36.5 12.9
    endloop
  endfacet
  facet normal 0 0 -1
    outer loop
      vertex 4.5 4.5 12.9
      vertex -9.5 27.5 12.9
      vertex 37 -27.5 12.9
    endloop
  endfacet
  facet normal 0 0 -1
    outer loop
      vertex 37 -27.5 12.9
      vertex 23.5 27.5 12.9
      vertex 37 27.5 12.9
    endloop
  endfacet
  facet normal 0 0 -1
    outer loop
      vertex -9.5 27.5 12.9
      vertex 23.5 27.5 12.9
      vertex 37 -27.5 12.9
    endloop
  endfacet
  facet normal 0 0 -1
    outer loop
      vertex 4.5 -4.5 12.9
      vertex 37 -27.5 12.9
      vertex 23.5 -27.5 12.9
    endloop
  endfacet
  facet normal 0 0 -1
    outer loop
      vertex -9.5 -27.5 12.9
      vertex 23.5 -36.5 12.9
      vertex -9.5 -36.5 12.9
    endloop
  endfacet
  facet normal 0 0 -1
    outer loop
      vertex -4.5 -4.5 12.9
      vertex 23.5 -36.5 12.9
      vertex -9.5 -27.5 12.9
    endloop
  endfacet
  facet normal 0 0 -1
    outer loop
      vertex -4.5 -4.5 12.9
      vertex -32 36.5 12.9
      vertex -4.5 4.5 12.9
    endloop
  endfacet
  facet normal 0 0 -1
    outer loop
      vertex -32 36.5 12.9
      vertex -22 -27.5 12.9
      vertex -22 -36.5 12.9
    endloop
  endfacet
  facet normal 0 0 -1
    outer loop
      vertex -32 36.5 12.9
      vertex -22 -36.5 12.9
      vertex -32 -36.5 12.9
    endloop
  endfacet
  facet normal 0 0 -1
    outer loop
      vertex 4.5 -4.5 12.9
      vertex 23.5 -27.5 12.9
      vertex 23.5 -36.5 12.9
    endloop
  endfacet
  facet normal 0 0 -1
    outer loop
      vertex -32 36.5 12.9
      vertex -4.5 -4.5 12.9
      vertex -9.5 -27.5 12.9
    endloop
  endfacet
  facet normal 0 0 -1
    outer loop
      vertex 4.5 4.5 12.9
      vertex 37 -27.5 12.9
      vertex 4.5 -4.5 12.9
    endloop
  endfacet
  facet normal 0 0 -1
    outer loop
      vertex -22 27.5 12.9
      vertex -9.5 27.5 12.9
      vertex 4.5 4.5 12.9
    endloop
  endfacet
  facet normal 0 0 -1
    outer loop
      vertex -4.5 4.5 12.9
      vertex -32 36.5 12.9
      vertex -22 27.5 12.9
    endloop
  endfacet
  facet normal 0 0 -1
    outer loop
      vertex 4.5 -4.5 12.9
      vertex 23.5 -36.5 12.9
      vertex -4.5 -4.5 12.9
    endloop
  endfacet
  facet normal 0 0 -1
    outer loop
      vertex -22 -27.5 12.9
      vertex -32 36.5 12.9
      vertex -9.5 -27.5 12.9
    endloop
  endfacet
endsolid OpenSCAD_Model
