solid OpenSCAD_Model
  facet normal 0 0 -1
    outer loop
      vertex -27 0 0
      vertex -26.41 5.61362 0
      vertex -26.41 -5.61362 0
    endloop
  endfacet
  facet normal 0 0 -1
    outer loop
      vertex -26.41 -5.61362 0
      vertex -26.41 5.61362 0
      vertex -24.6657 10.9819 0
    endloop
  endfacet
  facet normal 0 0 -1
    outer loop
      vertex -26.41 -5.61362 0
      vertex -24.6657 10.9819 0
      vertex -21.8435 15.8702 0
    endloop
  endfacet
  facet normal 0 0 -1
    outer loop
      vertex -26.41 -5.61362 0
      vertex -21.8435 15.8702 0
      vertex -18.0665 20.0649 0
    endloop
  endfacet
  facet normal 0 0 -1
    outer loop
      vertex -20.098 8.94821 0
      vertex -18.0665 20.0649 0
      vertex -13.5 23.3827 0
    endloop
  endfacet
  facet normal 0 0 -1
    outer loop
      vertex -14.7209 16.3492 0
      vertex -13.5 23.3827 0
      vertex -8.34346 25.6785 0
    endloop
  endfacet
  facet normal 0 0 -1
    outer loop
      vertex -11 19.0526 0
      vertex -8.34346 25.6785 0
      vertex -2.82227 26.8521 0
    endloop
  endfacet
  facet normal 0 0 -1
    outer loop
      vertex -2.29963 21.8795 0
      vertex -2.82227 26.8521 0
      vertex 2.82227 26.8521 0
    endloop
  endfacet
  facet normal 0 0 -1
    outer loop
      vertex 2.29963 21.8795 0
      vertex 2.82227 26.8521 0
      vertex 8.34346 25.6785 0
    endloop
  endfacet
  facet normal 0 0 -1
    outer loop
      vertex 6.79837 20.9232 0
      vertex 8.34346 25.6785 0
      vertex 13.5 23.3827 0
    endloop
  endfacet
  facet normal 0 0 -1
    outer loop
      vertex 11 19.0526 0
      vertex 13.5 23.3827 0
      vertex 18.0665 20.0649 0
    endloop
  endfacet
  facet normal 0 0 -1
    outer loop
      vertex 14.7209 16.3492 0
      vertex 18.0665 20.0649 0
      vertex 21.8435 15.8702 0
    endloop
  endfacet
  facet normal 0 0 -1
    outer loop
      vertex 17.7984 12.9313 0
      vertex 21.8435 15.8702 0
      vertex 24.6657 10.9819 0
    endloop
  endfacet
  facet normal 0 0 -1
    outer loop
      vertex 20.098 8.94821 0
      vertex 24.6657 10.9819 0
      vertex 26.41 5.61362 0
    endloop
  endfacet
  facet normal 0 0 -1
    outer loop
      vertex 22 0 0
      vertex 26.41 5.61362 0
      vertex 27 0 0
    endloop
  endfacet
  facet normal 0 0 -1
    outer loop
      vertex 21.5192 -4.57406 0
      vertex 27 0 0
      vertex 26.41 -5.61362 0
    endloop
  endfacet
  facet normal 0 0 -1
    outer loop
      vertex 20.098 -8.94821 0
      vertex 26.41 -5.61362 0
      vertex 24.6657 -10.9819 0
    endloop
  endfacet
  facet normal 0 0 -1
    outer loop
      vertex 17.7984 -12.9313 0
      vertex 24.6657 -10.9819 0
      vertex 21.8435 -15.8702 0
    endloop
  endfacet
  facet normal 0 0 -1
    outer loop
      vertex 14.7209 -16.3492 0
      vertex 21.8435 -15.8702 0
      vertex 18.0665 -20.0649 0
    endloop
  endfacet
  facet normal 0 0 -1
    outer loop
      vertex 11 -19.0526 0
      vertex 18.0665 -20.0649 0
      vertex 13.5 -23.3827 0
    endloop
  endfacet
  facet normal 0 0 -1
    outer loop
      vertex 2.29963 -21.8795 0
      vertex 13.5 -23.3827 0
      vertex 8.34346 -25.6785 0
    endloop
  endfacet
  facet normal 0 0 -1
    outer loop
      vertex -2.29963 -21.8795 0
      vertex 8.34346 -25.6785 0
      vertex 2.82227 -26.8521 0
    endloop
  endfacet
  facet normal 0 0 -1
    outer loop
      vertex -11 -19.0526 0
      vertex 2.82227 -26.8521 0
      vertex -2.82227 -26.8521 0
    endloop
  endfacet
  facet normal 0 0 -1
    outer loop
      vertex -14.7209 -16.3492 0
      vertex -2.82227 -26.8521 0
      vertex -8.34346 -25.6785 0
    endloop
  endfacet
  facet normal 0 0 -1
    outer loop
      vertex -26.41 -5.61362 0
      vertex -8.34346 -25.6785 0
      vertex -13.5 -23.3827 0
    endloop
  endfacet
  facet normal 0 0 -1
    outer loop
      vertex -26.41 -5.61362 0
      vertex -13.5 -23.3827 0
      vertex -18.0665 -20.0649 0
    endloop
  endfacet
  facet normal 0 0 -1
    outer loop
      vertex -26.41 -5.61362 0
      vertex -18.0665 -20.0649 0
      vertex -21.8435 -15.8702 0
    endloop
  endfacet
  facet normal 0 0 -1
    outer loop
      vertex -26.41 -5.61362 0
      vertex -21.8435 -15.8702 0
      vertex -24.6657 -10.9819 0
    endloop
  endfacet
  facet normal 0 0 -1
    outer loop
      vertex -21.5192 -4.57406 0
      vertex -26.41 -5.61362 0
      vertex -22 0 0
    endloop
  endfacet
  facet normal 0 0 -1
    outer loop
      vertex 17.7984 -12.9313 0
      vertex 21.8435 -15.8702 0
      vertex 14.7209 -16.3492 0
    endloop
  endfacet
  facet normal 0 0 -1
    outer loop
      vertex -20.098 -8.94821 0
      vertex -26.41 -5.61362 0
      vertex -21.5192 -4.57406 0
    endloop
  endfacet
  facet normal 0 0 -1
    outer loop
      vertex -17.7984 -12.9313 0
      vertex -26.41 -5.61362 0
      vertex -20.098 -8.94821 0
    endloop
  endfacet
  facet normal 0 0 -1
    outer loop
      vertex -14.7209 -16.3492 0
      vertex -26.41 -5.61362 0
      vertex -17.7984 -12.9313 0
    endloop
  endfacet
  facet normal 0 0 -1
    outer loop
      vertex -11 -19.0526 0
      vertex -2.82227 -26.8521 0
      vertex -14.7209 -16.3492 0
    endloop
  endfacet
  facet normal 0 0 -1
    outer loop
      vertex -26.41 -5.61362 0
      vertex -14.7209 -16.3492 0
      vertex -8.34346 -25.6785 0
    endloop
  endfacet
  facet normal 0 0 -1
    outer loop
      vertex -6.79837 -20.9232 0
      vertex 2.82227 -26.8521 0
      vertex -11 -19.0526 0
    endloop
  endfacet
  facet normal 0 0 -1
    outer loop
      vertex -2.29963 -21.8795 0
      vertex 2.82227 -26.8521 0
      vertex -6.79837 -20.9232 0
    endloop
  endfacet
  facet normal 0 0 -1
    outer loop
      vertex 6.79837 -20.9232 0
      vertex 13.5 -23.3827 0
      vertex 2.29963 -21.8795 0
    endloop
  endfacet
  facet normal 0 0 -1
    outer loop
      vertex 11 -19.0526 0
      vertex 13.5 -23.3827 0
      vertex 6.79837 -20.9232 0
    endloop
  endfacet
  facet normal 0 0 -1
    outer loop
      vertex 2.29963 -21.8795 0
      vertex 8.34346 -25.6785 0
      vertex -2.29963 -21.8795 0
    endloop
  endfacet
  facet normal 0 0 -1
    outer loop
      vertex 21.5192 4.57406 0
      vertex 26.41 5.61362 0
      vertex 22 0 0
    endloop
  endfacet
  facet normal 0 0 -1
    outer loop
      vertex 17.7984 12.9313 0
      vertex 24.6657 10.9819 0
      vertex 20.098 8.94821 0
    endloop
  endfacet
  facet normal 0 0 -1
    outer loop
      vertex 20.098 8.94821 0
      vertex 26.41 5.61362 0
      vertex 21.5192 4.57406 0
    endloop
  endfacet
  facet normal 0 0 -1
    outer loop
      vertex 22 0 0
      vertex 27 0 0
      vertex 21.5192 -4.57406 0
    endloop
  endfacet
  facet normal 0 0 -1
    outer loop
      vertex 21.5192 -4.57406 0
      vertex 26.41 -5.61362 0
      vertex 20.098 -8.94821 0
    endloop
  endfacet
  facet normal 0 0 -1
    outer loop
      vertex 20.098 -8.94821 0
      vertex 24.6657 -10.9819 0
      vertex 17.7984 -12.9313 0
    endloop
  endfacet
  facet normal 0 0 -1
    outer loop
      vertex -6.79837 20.9232 0
      vertex -2.82227 26.8521 0
      vertex -2.29963 21.8795 0
    endloop
  endfacet
  facet normal 0 0 -1
    outer loop
      vertex -11 19.0526 0
      vertex -2.82227 26.8521 0
      vertex -6.79837 20.9232 0
    endloop
  endfacet
  facet normal 0 0 -1
    outer loop
      vertex -2.29963 21.8795 0
      vertex 2.82227 26.8521 0
      vertex 2.29963 21.8795 0
    endloop
  endfacet
  facet normal 0 0 -1
    outer loop
      vertex -17.7984 12.9313 0
      vertex -13.5 23.3827 0
      vertex -14.7209 16.3492 0
    endloop
  endfacet
  facet normal 0 0 -1
    outer loop
      vertex -26.41 -5.61362 0
      vertex -18.0665 20.0649 0
      vertex -20.098 8.94821 0
    endloop
  endfacet
  facet normal 0 0 -1
    outer loop
      vertex -21.5192 4.57406 0
      vertex -26.41 -5.61362 0
      vertex -20.098 8.94821 0
    endloop
  endfacet
  facet normal 0 0 -1
    outer loop
      vertex 2.29963 21.8795 0
      vertex 8.34346 25.6785 0
      vertex 6.79837 20.9232 0
    endloop
  endfacet
  facet normal 0 0 -1
    outer loop
      vertex -22 0 0
      vertex -26.41 -5.61362 0
      vertex -21.5192 4.57406 0
    endloop
  endfacet
  facet normal 0 0 -1
    outer loop
      vertex -20.098 8.94821 0
      vertex -13.5 23.3827 0
      vertex -17.7984 12.9313 0
    endloop
  endfacet
  facet normal 0 0 -1
    outer loop
      vertex -14.7209 16.3492 0
      vertex -8.34346 25.6785 0
      vertex -11 19.0526 0
    endloop
  endfacet
  facet normal 0 0 -1
    outer loop
      vertex 6.79837 20.9232 0
      vertex 13.5 23.3827 0
      vertex 11 19.0526 0
    endloop
  endfacet
  facet normal 0 0 -1
    outer loop
      vertex 11 19.0526 0
      vertex 18.0665 20.0649 0
      vertex 14.7209 16.3492 0
    endloop
  endfacet
  facet normal 0 0 -1
    outer loop
      vertex 14.7209 16.3492 0
      vertex 21.8435 15.8702 0
      vertex 17.7984 12.9313 0
    endloop
  endfacet
  facet normal 0 0 -1
    outer loop
      vertex 14.7209 -16.3492 0
      vertex 18.0665 -20.0649 0
      vertex 11 -19.0526 0
    endloop
  endfacet
  facet normal -0.994522 0.104528 0
    outer loop
      vertex -27 0 0
      vertex -27 0 2.5
      vertex -26.41 5.61362 0
    endloop
  endfacet
  facet normal -0.994522 0.104528 0
    outer loop
      vertex -26.41 5.61362 0
      vertex -27 0 2.5
      vertex -26.41 5.61362 2.5
    endloop
  endfacet
  facet normal -0.994522 -0.104528 0
    outer loop
      vertex -27 0 0
      vertex -26.41 -5.61362 0
      vertex -27 0 2.5
    endloop
  endfacet
  facet normal -0.994522 -0.104528 0
    outer loop
      vertex -27 0 2.5
      vertex -26.41 -5.61362 0
      vertex -26.41 -5.61362 2.5
    endloop
  endfacet
  facet normal -0.951056 -0.309017 0
    outer loop
      vertex -26.41 -5.61362 0
      vertex -24.6657 -10.9819 0
      vertex -26.41 -5.61362 2.5
    endloop
  endfacet
  facet normal -0.951056 -0.309017 0
    outer loop
      vertex -26.41 -5.61362 2.5
      vertex -24.6657 -10.9819 0
      vertex -24.6657 -10.9819 2.5
    endloop
  endfacet
  facet normal -0.866025 -0.5 0
    outer loop
      vertex -24.6657 -10.9819 0
      vertex -21.8435 -15.8702 0
      vertex -24.6657 -10.9819 2.5
    endloop
  endfacet
  facet normal -0.866025 -0.5 0
    outer loop
      vertex -24.6657 -10.9819 2.5
      vertex -21.8435 -15.8702 0
      vertex -21.8435 -15.8702 2.5
    endloop
  endfacet
  facet normal -0.743145 -0.669131 0
    outer loop
      vertex -21.8435 -15.8702 0
      vertex -18.0665 -20.0649 0
      vertex -21.8435 -15.8702 2.5
    endloop
  endfacet
  facet normal -0.743145 -0.669131 0
    outer loop
      vertex -21.8435 -15.8702 2.5
      vertex -18.0665 -20.0649 0
      vertex -18.0665 -20.0649 2.5
    endloop
  endfacet
  facet normal -0.587785 -0.809017 0
    outer loop
      vertex -18.0665 -20.0649 2.5
      vertex -18.0665 -20.0649 0
      vertex -13.5 -23.3827 0
    endloop
  endfacet
  facet normal -0.587785 -0.809017 0
    outer loop
      vertex -13.5 -23.3827 2.5
      vertex -18.0665 -20.0649 2.5
      vertex -13.5 -23.3827 0
    endloop
  endfacet
  facet normal -0.406737 -0.913545 0
    outer loop
      vertex -13.5 -23.3827 2.5
      vertex -13.5 -23.3827 0
      vertex -8.34346 -25.6785 0
    endloop
  endfacet
  facet normal -0.406737 -0.913545 0
    outer loop
      vertex -8.34346 -25.6785 2.5
      vertex -13.5 -23.3827 2.5
      vertex -8.34346 -25.6785 0
    endloop
  endfacet
  facet normal -0.207912 -0.978148 0
    outer loop
      vertex -8.34346 -25.6785 2.5
      vertex -8.34346 -25.6785 0
      vertex -2.82227 -26.8521 0
    endloop
  endfacet
  facet normal -0.207912 -0.978148 0
    outer loop
      vertex -2.82227 -26.8521 2.5
      vertex -8.34346 -25.6785 2.5
      vertex -2.82227 -26.8521 0
    endloop
  endfacet
  facet normal 0 -1 0
    outer loop
      vertex -2.82227 -26.8521 2.5
      vertex -2.82227 -26.8521 0
      vertex 2.82227 -26.8521 0
    endloop
  endfacet
  facet normal 0 -1 0
    outer loop
      vertex 2.82227 -26.8521 2.5
      vertex -2.82227 -26.8521 2.5
      vertex 2.82227 -26.8521 0
    endloop
  endfacet
  facet normal 0.207912 -0.978148 0
    outer loop
      vertex 2.82227 -26.8521 2.5
      vertex 2.82227 -26.8521 0
      vertex 8.34346 -25.6785 0
    endloop
  endfacet
  facet normal 0.207912 -0.978148 0
    outer loop
      vertex 8.34346 -25.6785 2.5
      vertex 2.82227 -26.8521 2.5
      vertex 8.34346 -25.6785 0
    endloop
  endfacet
  facet normal 0.406737 -0.913545 0
    outer loop
      vertex 8.34346 -25.6785 2.5
      vertex 8.34346 -25.6785 0
      vertex 13.5 -23.3827 0
    endloop
  endfacet
  facet normal 0.406737 -0.913545 0
    outer loop
      vertex 13.5 -23.3827 2.5
      vertex 8.34346 -25.6785 2.5
      vertex 13.5 -23.3827 0
    endloop
  endfacet
  facet normal 0.587785 -0.809017 0
    outer loop
      vertex 13.5 -23.3827 2.5
      vertex 13.5 -23.3827 0
      vertex 18.0665 -20.0649 0
    endloop
  endfacet
  facet normal 0.587785 -0.809017 0
    outer loop
      vertex 18.0665 -20.0649 2.5
      vertex 13.5 -23.3827 2.5
      vertex 18.0665 -20.0649 0
    endloop
  endfacet
  facet normal 0.743145 -0.669131 0
    outer loop
      vertex 18.0665 -20.0649 2.5
      vertex 18.0665 -20.0649 0
      vertex 21.8435 -15.8702 0
    endloop
  endfacet
  facet normal 0.743145 -0.669131 0
    outer loop
      vertex 21.8435 -15.8702 2.5
      vertex 18.0665 -20.0649 2.5
      vertex 21.8435 -15.8702 0
    endloop
  endfacet
  facet normal 0.866025 -0.5 0
    outer loop
      vertex 21.8435 -15.8702 2.5
      vertex 21.8435 -15.8702 0
      vertex 24.6657 -10.9819 0
    endloop
  endfacet
  facet normal 0.866025 -0.5 0
    outer loop
      vertex 24.6657 -10.9819 2.5
      vertex 21.8435 -15.8702 2.5
      vertex 24.6657 -10.9819 0
    endloop
  endfacet
  facet normal 0.951056 -0.309017 0
    outer loop
      vertex 24.6657 -10.9819 2.5
      vertex 24.6657 -10.9819 0
      vertex 26.41 -5.61362 0
    endloop
  endfacet
  facet normal 0.951056 -0.309017 0
    outer loop
      vertex 26.41 -5.61362 2.5
      vertex 24.6657 -10.9819 2.5
      vertex 26.41 -5.61362 0
    endloop
  endfacet
  facet normal 0.994522 -0.104528 0
    outer loop
      vertex 26.41 -5.61362 2.5
      vertex 26.41 -5.61362 0
      vertex 27 0 0
    endloop
  endfacet
  facet normal 0.994522 -0.104528 0
    outer loop
      vertex 27 0 2.5
      vertex 26.41 -5.61362 2.5
      vertex 27 0 0
    endloop
  endfacet
  facet normal 0.994522 0.104528 0
    outer loop
      vertex 27 0 0
      vertex 26.41 5.61362 0
      vertex 26.41 5.61362 2.5
    endloop
  endfacet
  facet normal 0.994522 0.104528 0
    outer loop
      vertex 27 0 2.5
      vertex 27 0 0
      vertex 26.41 5.61362 2.5
    endloop
  endfacet
  facet normal 0.951056 0.309017 0
    outer loop
      vertex 26.41 5.61362 0
      vertex 24.6657 10.9819 0
      vertex 24.6657 10.9819 2.5
    endloop
  endfacet
  facet normal 0.951056 0.309017 0
    outer loop
      vertex 26.41 5.61362 2.5
      vertex 26.41 5.61362 0
      vertex 24.6657 10.9819 2.5
    endloop
  endfacet
  facet normal 0.866025 0.5 0
    outer loop
      vertex 24.6657 10.9819 0
      vertex 21.8435 15.8702 0
      vertex 21.8435 15.8702 2.5
    endloop
  endfacet
  facet normal 0.866025 0.5 0
    outer loop
      vertex 24.6657 10.9819 2.5
      vertex 24.6657 10.9819 0
      vertex 21.8435 15.8702 2.5
    endloop
  endfacet
  facet normal 0.743145 0.669131 0
    outer loop
      vertex 21.8435 15.8702 0
      vertex 18.0665 20.0649 0
      vertex 18.0665 20.0649 2.5
    endloop
  endfacet
  facet normal 0.743145 0.669131 0
    outer loop
      vertex 21.8435 15.8702 2.5
      vertex 21.8435 15.8702 0
      vertex 18.0665 20.0649 2.5
    endloop
  endfacet
  facet normal 0.587785 0.809017 0
    outer loop
      vertex 13.5 23.3827 0
      vertex 13.5 23.3827 2.5
      vertex 18.0665 20.0649 0
    endloop
  endfacet
  facet normal 0.587785 0.809017 0
    outer loop
      vertex 18.0665 20.0649 0
      vertex 13.5 23.3827 2.5
      vertex 18.0665 20.0649 2.5
    endloop
  endfacet
  facet normal 0.406737 0.913545 0
    outer loop
      vertex 8.34346 25.6785 0
      vertex 8.34346 25.6785 2.5
      vertex 13.5 23.3827 0
    endloop
  endfacet
  facet normal 0.406737 0.913545 0
    outer loop
      vertex 13.5 23.3827 0
      vertex 8.34346 25.6785 2.5
      vertex 13.5 23.3827 2.5
    endloop
  endfacet
  facet normal 0.207912 0.978148 0
    outer loop
      vertex 2.82227 26.8521 0
      vertex 2.82227 26.8521 2.5
      vertex 8.34346 25.6785 0
    endloop
  endfacet
  facet normal 0.207912 0.978148 0
    outer loop
      vertex 8.34346 25.6785 0
      vertex 2.82227 26.8521 2.5
      vertex 8.34346 25.6785 2.5
    endloop
  endfacet
  facet normal 0 1 0
    outer loop
      vertex -2.82227 26.8521 0
      vertex -2.82227 26.8521 2.5
      vertex 2.82227 26.8521 0
    endloop
  endfacet
  facet normal 0 1 0
    outer loop
      vertex 2.82227 26.8521 0
      vertex -2.82227 26.8521 2.5
      vertex 2.82227 26.8521 2.5
    endloop
  endfacet
  facet normal -0.207912 0.978148 0
    outer loop
      vertex -8.34346 25.6785 0
      vertex -8.34346 25.6785 2.5
      vertex -2.82227 26.8521 0
    endloop
  endfacet
  facet normal -0.207912 0.978148 0
    outer loop
      vertex -2.82227 26.8521 0
      vertex -8.34346 25.6785 2.5
      vertex -2.82227 26.8521 2.5
    endloop
  endfacet
  facet normal -0.406737 0.913545 0
    outer loop
      vertex -13.5 23.3827 0
      vertex -13.5 23.3827 2.5
      vertex -8.34346 25.6785 0
    endloop
  endfacet
  facet normal -0.406737 0.913545 0
    outer loop
      vertex -8.34346 25.6785 0
      vertex -13.5 23.3827 2.5
      vertex -8.34346 25.6785 2.5
    endloop
  endfacet
  facet normal -0.587785 0.809017 0
    outer loop
      vertex -18.0665 20.0649 0
      vertex -18.0665 20.0649 2.5
      vertex -13.5 23.3827 0
    endloop
  endfacet
  facet normal -0.587785 0.809017 0
    outer loop
      vertex -13.5 23.3827 0
      vertex -18.0665 20.0649 2.5
      vertex -13.5 23.3827 2.5
    endloop
  endfacet
  facet normal -0.743145 0.669131 0
    outer loop
      vertex -21.8435 15.8702 0
      vertex -21.8435 15.8702 2.5
      vertex -18.0665 20.0649 0
    endloop
  endfacet
  facet normal -0.743145 0.669131 0
    outer loop
      vertex -18.0665 20.0649 0
      vertex -21.8435 15.8702 2.5
      vertex -18.0665 20.0649 2.5
    endloop
  endfacet
  facet normal -0.866025 0.5 0
    outer loop
      vertex -24.6657 10.9819 0
      vertex -24.6657 10.9819 2.5
      vertex -21.8435 15.8702 0
    endloop
  endfacet
  facet normal -0.866025 0.5 0
    outer loop
      vertex -21.8435 15.8702 0
      vertex -24.6657 10.9819 2.5
      vertex -21.8435 15.8702 2.5
    endloop
  endfacet
  facet normal -0.951056 0.309017 0
    outer loop
      vertex -26.41 5.61362 0
      vertex -26.41 5.61362 2.5
      vertex -24.6657 10.9819 0
    endloop
  endfacet
  facet normal -0.951056 0.309017 0
    outer loop
      vertex -24.6657 10.9819 0
      vertex -26.41 5.61362 2.5
      vertex -24.6657 10.9819 2.5
    endloop
  endfacet
  facet normal 0.994522 0.104529 0
    outer loop
      vertex -22 0 2.5
      vertex -21.5192 -4.57406 2.5
      vertex -21.5192 -4.57406 0
    endloop
  endfacet
  facet normal 0.994522 0.104529 0
    outer loop
      vertex -22 0 0
      vertex -22 0 2.5
      vertex -21.5192 -4.57406 0
    endloop
  endfacet
  facet normal 0.994522 -0.104529 0
    outer loop
      vertex -21.5192 4.57406 0
      vertex -21.5192 4.57406 2.5
      vertex -22 0 2.5
    endloop
  endfacet
  facet normal 0.994522 -0.104529 0
    outer loop
      vertex -22 0 0
      vertex -21.5192 4.57406 0
      vertex -22 0 2.5
    endloop
  endfacet
  facet normal 0.951057 -0.309017 0
    outer loop
      vertex -20.098 8.94821 0
      vertex -20.098 8.94821 2.5
      vertex -21.5192 4.57406 2.5
    endloop
  endfacet
  facet normal 0.951057 -0.309017 0
    outer loop
      vertex -21.5192 4.57406 0
      vertex -20.098 8.94821 0
      vertex -21.5192 4.57406 2.5
    endloop
  endfacet
  facet normal 0.866025 -0.5 0
    outer loop
      vertex -17.7984 12.9313 0
      vertex -17.7984 12.9313 2.5
      vertex -20.098 8.94821 2.5
    endloop
  endfacet
  facet normal 0.866025 -0.5 0
    outer loop
      vertex -20.098 8.94821 0
      vertex -17.7984 12.9313 0
      vertex -20.098 8.94821 2.5
    endloop
  endfacet
  facet normal 0.743145 -0.669131 0
    outer loop
      vertex -14.7209 16.3492 0
      vertex -14.7209 16.3492 2.5
      vertex -17.7984 12.9313 2.5
    endloop
  endfacet
  facet normal 0.743145 -0.669131 0
    outer loop
      vertex -17.7984 12.9313 0
      vertex -14.7209 16.3492 0
      vertex -17.7984 12.9313 2.5
    endloop
  endfacet
  facet normal 0.587785 -0.809017 0
    outer loop
      vertex -11 19.0526 0
      vertex -11 19.0526 2.5
      vertex -14.7209 16.3492 2.5
    endloop
  endfacet
  facet normal 0.587785 -0.809017 0
    outer loop
      vertex -14.7209 16.3492 0
      vertex -11 19.0526 0
      vertex -14.7209 16.3492 2.5
    endloop
  endfacet
  facet normal 0.406737 -0.913545 0
    outer loop
      vertex -6.79837 20.9232 0
      vertex -6.79837 20.9232 2.5
      vertex -11 19.0526 2.5
    endloop
  endfacet
  facet normal 0.406737 -0.913545 0
    outer loop
      vertex -11 19.0526 0
      vertex -6.79837 20.9232 0
      vertex -11 19.0526 2.5
    endloop
  endfacet
  facet normal 0.207912 -0.978148 0
    outer loop
      vertex -2.29963 21.8795 0
      vertex -2.29963 21.8795 2.5
      vertex -6.79837 20.9232 2.5
    endloop
  endfacet
  facet normal 0.207912 -0.978148 0
    outer loop
      vertex -6.79837 20.9232 0
      vertex -2.29963 21.8795 0
      vertex -6.79837 20.9232 2.5
    endloop
  endfacet
  facet normal 0 -1 0
    outer loop
      vertex 2.29963 21.8795 0
      vertex 2.29963 21.8795 2.5
      vertex -2.29963 21.8795 2.5
    endloop
  endfacet
  facet normal 0 -1 0
    outer loop
      vertex -2.29963 21.8795 0
      vertex 2.29963 21.8795 0
      vertex -2.29963 21.8795 2.5
    endloop
  endfacet
  facet normal -0.207912 -0.978148 0
    outer loop
      vertex 6.79837 20.9232 0
      vertex 6.79837 20.9232 2.5
      vertex 2.29963 21.8795 2.5
    endloop
  endfacet
  facet normal -0.207912 -0.978148 0
    outer loop
      vertex 2.29963 21.8795 0
      vertex 6.79837 20.9232 0
      vertex 2.29963 21.8795 2.5
    endloop
  endfacet
  facet normal -0.406737 -0.913545 0
    outer loop
      vertex 11 19.0526 0
      vertex 11 19.0526 2.5
      vertex 6.79837 20.9232 2.5
    endloop
  endfacet
  facet normal -0.406737 -0.913545 0
    outer loop
      vertex 6.79837 20.9232 0
      vertex 11 19.0526 0
      vertex 6.79837 20.9232 2.5
    endloop
  endfacet
  facet normal -0.587785 -0.809017 0
    outer loop
      vertex 14.7209 16.3492 0
      vertex 14.7209 16.3492 2.5
      vertex 11 19.0526 2.5
    endloop
  endfacet
  facet normal -0.587785 -0.809017 0
    outer loop
      vertex 11 19.0526 0
      vertex 14.7209 16.3492 0
      vertex 11 19.0526 2.5
    endloop
  endfacet
  facet normal -0.743145 -0.669131 0
    outer loop
      vertex 17.7984 12.9313 2.5
      vertex 14.7209 16.3492 2.5
      vertex 17.7984 12.9313 0
    endloop
  endfacet
  facet normal -0.743145 -0.669131 0
    outer loop
      vertex 17.7984 12.9313 0
      vertex 14.7209 16.3492 2.5
      vertex 14.7209 16.3492 0
    endloop
  endfacet
  facet normal -0.866025 -0.5 0
    outer loop
      vertex 20.098 8.94821 2.5
      vertex 17.7984 12.9313 2.5
      vertex 20.098 8.94821 0
    endloop
  endfacet
  facet normal -0.866025 -0.5 0
    outer loop
      vertex 20.098 8.94821 0
      vertex 17.7984 12.9313 2.5
      vertex 17.7984 12.9313 0
    endloop
  endfacet
  facet normal -0.951057 -0.309017 0
    outer loop
      vertex 21.5192 4.57406 2.5
      vertex 20.098 8.94821 2.5
      vertex 21.5192 4.57406 0
    endloop
  endfacet
  facet normal -0.951057 -0.309017 0
    outer loop
      vertex 21.5192 4.57406 0
      vertex 20.098 8.94821 2.5
      vertex 20.098 8.94821 0
    endloop
  endfacet
  facet normal -0.994522 -0.104529 0
    outer loop
      vertex 22 0 2.5
      vertex 21.5192 4.57406 2.5
      vertex 22 0 0
    endloop
  endfacet
  facet normal -0.994522 -0.104529 0
    outer loop
      vertex 22 0 0
      vertex 21.5192 4.57406 2.5
      vertex 21.5192 4.57406 0
    endloop
  endfacet
  facet normal -0.994522 0.104529 0
    outer loop
      vertex 22 0 2.5
      vertex 22 0 0
      vertex 21.5192 -4.57406 2.5
    endloop
  endfacet
  facet normal -0.994522 0.104529 0
    outer loop
      vertex 21.5192 -4.57406 2.5
      vertex 22 0 0
      vertex 21.5192 -4.57406 0
    endloop
  endfacet
  facet normal -0.951057 0.309017 0
    outer loop
      vertex 21.5192 -4.57406 2.5
      vertex 21.5192 -4.57406 0
      vertex 20.098 -8.94821 2.5
    endloop
  endfacet
  facet normal -0.951057 0.309017 0
    outer loop
      vertex 20.098 -8.94821 2.5
      vertex 21.5192 -4.57406 0
      vertex 20.098 -8.94821 0
    endloop
  endfacet
  facet normal -0.866025 0.5 0
    outer loop
      vertex 20.098 -8.94821 2.5
      vertex 20.098 -8.94821 0
      vertex 17.7984 -12.9313 2.5
    endloop
  endfacet
  facet normal -0.866025 0.5 0
    outer loop
      vertex 17.7984 -12.9313 2.5
      vertex 20.098 -8.94821 0
      vertex 17.7984 -12.9313 0
    endloop
  endfacet
  facet normal -0.743145 0.669131 0
    outer loop
      vertex 17.7984 -12.9313 2.5
      vertex 17.7984 -12.9313 0
      vertex 14.7209 -16.3492 2.5
    endloop
  endfacet
  facet normal -0.743145 0.669131 0
    outer loop
      vertex 14.7209 -16.3492 2.5
      vertex 17.7984 -12.9313 0
      vertex 14.7209 -16.3492 0
    endloop
  endfacet
  facet normal -0.587785 0.809017 0
    outer loop
      vertex 14.7209 -16.3492 2.5
      vertex 14.7209 -16.3492 0
      vertex 11 -19.0526 2.5
    endloop
  endfacet
  facet normal -0.587785 0.809017 0
    outer loop
      vertex 11 -19.0526 2.5
      vertex 14.7209 -16.3492 0
      vertex 11 -19.0526 0
    endloop
  endfacet
  facet normal -0.406737 0.913545 0
    outer loop
      vertex 11 -19.0526 2.5
      vertex 11 -19.0526 0
      vertex 6.79837 -20.9232 2.5
    endloop
  endfacet
  facet normal -0.406737 0.913545 0
    outer loop
      vertex 6.79837 -20.9232 2.5
      vertex 11 -19.0526 0
      vertex 6.79837 -20.9232 0
    endloop
  endfacet
  facet normal -0.207912 0.978148 0
    outer loop
      vertex 6.79837 -20.9232 2.5
      vertex 6.79837 -20.9232 0
      vertex 2.29963 -21.8795 2.5
    endloop
  endfacet
  facet normal -0.207912 0.978148 0
    outer loop
      vertex 2.29963 -21.8795 2.5
      vertex 6.79837 -20.9232 0
      vertex 2.29963 -21.8795 0
    endloop
  endfacet
  facet normal 0 1 0
    outer loop
      vertex 2.29963 -21.8795 2.5
      vertex 2.29963 -21.8795 0
      vertex -2.29963 -21.8795 2.5
    endloop
  endfacet
  facet normal 0 1 0
    outer loop
      vertex -2.29963 -21.8795 2.5
      vertex 2.29963 -21.8795 0
      vertex -2.29963 -21.8795 0
    endloop
  endfacet
  facet normal 0.207912 0.978148 0
    outer loop
      vertex -2.29963 -21.8795 2.5
      vertex -2.29963 -21.8795 0
      vertex -6.79837 -20.9232 2.5
    endloop
  endfacet
  facet normal 0.207912 0.978148 0
    outer loop
      vertex -6.79837 -20.9232 2.5
      vertex -2.29963 -21.8795 0
      vertex -6.79837 -20.9232 0
    endloop
  endfacet
  facet normal 0.406737 0.913545 0
    outer loop
      vertex -6.79837 -20.9232 2.5
      vertex -6.79837 -20.9232 0
      vertex -11 -19.0526 2.5
    endloop
  endfacet
  facet normal 0.406737 0.913545 0
    outer loop
      vertex -11 -19.0526 2.5
      vertex -6.79837 -20.9232 0
      vertex -11 -19.0526 0
    endloop
  endfacet
  facet normal 0.587785 0.809017 0
    outer loop
      vertex -11 -19.0526 2.5
      vertex -11 -19.0526 0
      vertex -14.7209 -16.3492 2.5
    endloop
  endfacet
  facet normal 0.587785 0.809017 0
    outer loop
      vertex -14.7209 -16.3492 2.5
      vertex -11 -19.0526 0
      vertex -14.7209 -16.3492 0
    endloop
  endfacet
  facet normal 0.743145 0.669131 0
    outer loop
      vertex -17.7984 -12.9313 2.5
      vertex -14.7209 -16.3492 2.5
      vertex -14.7209 -16.3492 0
    endloop
  endfacet
  facet normal 0.743145 0.669131 0
    outer loop
      vertex -17.7984 -12.9313 0
      vertex -17.7984 -12.9313 2.5
      vertex -14.7209 -16.3492 0
    endloop
  endfacet
  facet normal 0.866025 0.5 0
    outer loop
      vertex -20.098 -8.94821 2.5
      vertex -17.7984 -12.9313 2.5
      vertex -17.7984 -12.9313 0
    endloop
  endfacet
  facet normal 0.866025 0.5 0
    outer loop
      vertex -20.098 -8.94821 0
      vertex -20.098 -8.94821 2.5
      vertex -17.7984 -12.9313 0
    endloop
  endfacet
  facet normal 0.951057 0.309017 0
    outer loop
      vertex -21.5192 -4.57406 2.5
      vertex -20.098 -8.94821 2.5
      vertex -20.098 -8.94821 0
    endloop
  endfacet
  facet normal 0.951057 0.309017 0
    outer loop
      vertex -21.5192 -4.57406 0
      vertex -21.5192 -4.57406 2.5
      vertex -20.098 -8.94821 0
    endloop
  endfacet
  facet normal 0 0 1
    outer loop
      vertex -26.41 5.61362 2.5
      vertex -27 0 2.5
      vertex -26.41 -5.61362 2.5
    endloop
  endfacet
  facet normal 0 0 1
    outer loop
      vertex -21.8435 -15.8702 2.5
      vertex -26.41 5.61362 2.5
      vertex -24.6657 -10.9819 2.5
    endloop
  endfacet
  facet normal 0 0 1
    outer loop
      vertex -24.6657 -10.9819 2.5
      vertex -26.41 5.61362 2.5
      vertex -26.41 -5.61362 2.5
    endloop
  endfacet
  facet normal 0 0 1
    outer loop
      vertex -18.0665 -20.0649 2.5
      vertex -26.41 5.61362 2.5
      vertex -21.8435 -15.8702 2.5
    endloop
  endfacet
  facet normal 0 0 1
    outer loop
      vertex -20.098 -8.94821 2.5
      vertex -26.41 5.61362 2.5
      vertex -18.0665 -20.0649 2.5
    endloop
  endfacet
  facet normal 0 0 1
    outer loop
      vertex 6.79837 20.9232 2.5
      vertex 11 19.0526 2.5
      vertex 13.5 23.3827 2.5
    endloop
  endfacet
  facet normal 0 0 1
    outer loop
      vertex -2.29963 21.8795 2.5
      vertex 2.29963 21.8795 2.5
      vertex 8.34346 25.6785 2.5
    endloop
  endfacet
  facet normal 0 0 1
    outer loop
      vertex -6.79837 20.9232 2.5
      vertex -2.29963 21.8795 2.5
      vertex 2.82227 26.8521 2.5
    endloop
  endfacet
  facet normal 0 0 1
    outer loop
      vertex -13.5 23.3827 2.5
      vertex -26.41 5.61362 2.5
      vertex -8.34346 25.6785 2.5
    endloop
  endfacet
  facet normal 0 0 1
    outer loop
      vertex -18.0665 20.0649 2.5
      vertex -26.41 5.61362 2.5
      vertex -13.5 23.3827 2.5
    endloop
  endfacet
  facet normal 0 0 1
    outer loop
      vertex -21.8435 15.8702 2.5
      vertex -26.41 5.61362 2.5
      vertex -18.0665 20.0649 2.5
    endloop
  endfacet
  facet normal 0 0 1
    outer loop
      vertex -24.6657 10.9819 2.5
      vertex -26.41 5.61362 2.5
      vertex -21.8435 15.8702 2.5
    endloop
  endfacet
  facet normal 0 0 1
    outer loop
      vertex 11 -19.0526 2.5
      vertex 6.79837 -20.9232 2.5
      vertex 13.5 -23.3827 2.5
    endloop
  endfacet
  facet normal 0 0 1
    outer loop
      vertex 17.7984 -12.9313 2.5
      vertex 14.7209 -16.3492 2.5
      vertex 21.8435 -15.8702 2.5
    endloop
  endfacet
  facet normal 0 0 1
    outer loop
      vertex 11 19.0526 2.5
      vertex 14.7209 16.3492 2.5
      vertex 18.0665 20.0649 2.5
    endloop
  endfacet
  facet normal 0 0 1
    outer loop
      vertex -14.7209 16.3492 2.5
      vertex -11 19.0526 2.5
      vertex -2.82227 26.8521 2.5
    endloop
  endfacet
  facet normal 0 0 1
    outer loop
      vertex -8.34346 25.6785 2.5
      vertex -14.7209 16.3492 2.5
      vertex -2.82227 26.8521 2.5
    endloop
  endfacet
  facet normal 0 0 1
    outer loop
      vertex -8.34346 25.6785 2.5
      vertex -26.41 5.61362 2.5
      vertex -14.7209 16.3492 2.5
    endloop
  endfacet
  facet normal 0 0 1
    outer loop
      vertex -2.82227 26.8521 2.5
      vertex -11 19.0526 2.5
      vertex 2.82227 26.8521 2.5
    endloop
  endfacet
  facet normal 0 0 1
    outer loop
      vertex -11 19.0526 2.5
      vertex -6.79837 20.9232 2.5
      vertex 2.82227 26.8521 2.5
    endloop
  endfacet
  facet normal 0 0 1
    outer loop
      vertex 2.82227 26.8521 2.5
      vertex -2.29963 21.8795 2.5
      vertex 8.34346 25.6785 2.5
    endloop
  endfacet
  facet normal 0 0 1
    outer loop
      vertex -17.7984 12.9313 2.5
      vertex -14.7209 16.3492 2.5
      vertex -26.41 5.61362 2.5
    endloop
  endfacet
  facet normal 0 0 1
    outer loop
      vertex 8.34346 25.6785 2.5
      vertex 2.29963 21.8795 2.5
      vertex 13.5 23.3827 2.5
    endloop
  endfacet
  facet normal 0 0 1
    outer loop
      vertex 2.29963 21.8795 2.5
      vertex 6.79837 20.9232 2.5
      vertex 13.5 23.3827 2.5
    endloop
  endfacet
  facet normal 0 0 1
    outer loop
      vertex 13.5 23.3827 2.5
      vertex 11 19.0526 2.5
      vertex 18.0665 20.0649 2.5
    endloop
  endfacet
  facet normal 0 0 1
    outer loop
      vertex 2.29963 -21.8795 2.5
      vertex -2.29963 -21.8795 2.5
      vertex 2.82227 -26.8521 2.5
    endloop
  endfacet
  facet normal 0 0 1
    outer loop
      vertex 18.0665 20.0649 2.5
      vertex 14.7209 16.3492 2.5
      vertex 21.8435 15.8702 2.5
    endloop
  endfacet
  facet normal 0 0 1
    outer loop
      vertex -20.098 8.94821 2.5
      vertex -17.7984 12.9313 2.5
      vertex -26.41 5.61362 2.5
    endloop
  endfacet
  facet normal 0 0 1
    outer loop
      vertex 21.8435 15.8702 2.5
      vertex 17.7984 12.9313 2.5
      vertex 24.6657 10.9819 2.5
    endloop
  endfacet
  facet normal 0 0 1
    outer loop
      vertex 24.6657 10.9819 2.5
      vertex 20.098 8.94821 2.5
      vertex 26.41 5.61362 2.5
    endloop
  endfacet
  facet normal 0 0 1
    outer loop
      vertex 26.41 5.61362 2.5
      vertex 21.5192 4.57406 2.5
      vertex 27 0 2.5
    endloop
  endfacet
  facet normal 0 0 1
    outer loop
      vertex 27 0 2.5
      vertex 22 0 2.5
      vertex 26.41 -5.61362 2.5
    endloop
  endfacet
  facet normal 0 0 1
    outer loop
      vertex 22 0 2.5
      vertex 21.5192 -4.57406 2.5
      vertex 26.41 -5.61362 2.5
    endloop
  endfacet
  facet normal 0 0 1
    outer loop
      vertex 26.41 -5.61362 2.5
      vertex 20.098 -8.94821 2.5
      vertex 24.6657 -10.9819 2.5
    endloop
  endfacet
  facet normal 0 0 1
    outer loop
      vertex 24.6657 -10.9819 2.5
      vertex 17.7984 -12.9313 2.5
      vertex 21.8435 -15.8702 2.5
    endloop
  endfacet
  facet normal 0 0 1
    outer loop
      vertex 14.7209 16.3492 2.5
      vertex 17.7984 12.9313 2.5
      vertex 21.8435 15.8702 2.5
    endloop
  endfacet
  facet normal 0 0 1
    outer loop
      vertex 21.8435 -15.8702 2.5
      vertex 14.7209 -16.3492 2.5
      vertex 18.0665 -20.0649 2.5
    endloop
  endfacet
  facet normal 0 0 1
    outer loop
      vertex 17.7984 12.9313 2.5
      vertex 20.098 8.94821 2.5
      vertex 24.6657 10.9819 2.5
    endloop
  endfacet
  facet normal 0 0 1
    outer loop
      vertex 18.0665 -20.0649 2.5
      vertex 11 -19.0526 2.5
      vertex 13.5 -23.3827 2.5
    endloop
  endfacet
  facet normal 0 0 1
    outer loop
      vertex 20.098 8.94821 2.5
      vertex 21.5192 4.57406 2.5
      vertex 26.41 5.61362 2.5
    endloop
  endfacet
  facet normal 0 0 1
    outer loop
      vertex 13.5 -23.3827 2.5
      vertex 6.79837 -20.9232 2.5
      vertex 8.34346 -25.6785 2.5
    endloop
  endfacet
  facet normal 0 0 1
    outer loop
      vertex 21.5192 4.57406 2.5
      vertex 22 0 2.5
      vertex 27 0 2.5
    endloop
  endfacet
  facet normal 0 0 1
    outer loop
      vertex 8.34346 -25.6785 2.5
      vertex 2.29963 -21.8795 2.5
      vertex 2.82227 -26.8521 2.5
    endloop
  endfacet
  facet normal 0 0 1
    outer loop
      vertex 21.5192 -4.57406 2.5
      vertex 20.098 -8.94821 2.5
      vertex 26.41 -5.61362 2.5
    endloop
  endfacet
  facet normal 0 0 1
    outer loop
      vertex 2.82227 -26.8521 2.5
      vertex -2.29963 -21.8795 2.5
      vertex -2.82227 -26.8521 2.5
    endloop
  endfacet
  facet normal 0 0 1
    outer loop
      vertex -2.29963 -21.8795 2.5
      vertex -6.79837 -20.9232 2.5
      vertex -2.82227 -26.8521 2.5
    endloop
  endfacet
  facet normal 0 0 1
    outer loop
      vertex -2.82227 -26.8521 2.5
      vertex -11 -19.0526 2.5
      vertex -8.34346 -25.6785 2.5
    endloop
  endfacet
  facet normal 0 0 1
    outer loop
      vertex 14.7209 -16.3492 2.5
      vertex 11 -19.0526 2.5
      vertex 18.0665 -20.0649 2.5
    endloop
  endfacet
  facet normal 0 0 1
    outer loop
      vertex -8.34346 -25.6785 2.5
      vertex -14.7209 -16.3492 2.5
      vertex -13.5 -23.3827 2.5
    endloop
  endfacet
  facet normal 0 0 1
    outer loop
      vertex -14.7209 -16.3492 2.5
      vertex -17.7984 -12.9313 2.5
      vertex -13.5 -23.3827 2.5
    endloop
  endfacet
  facet normal 0 0 1
    outer loop
      vertex -13.5 -23.3827 2.5
      vertex -20.098 -8.94821 2.5
      vertex -18.0665 -20.0649 2.5
    endloop
  endfacet
  facet normal 0 0 1
    outer loop
      vertex -20.098 -8.94821 2.5
      vertex -21.5192 -4.57406 2.5
      vertex -26.41 5.61362 2.5
    endloop
  endfacet
  facet normal 0 0 1
    outer loop
      vertex -17.7984 -12.9313 2.5
      vertex -20.098 -8.94821 2.5
      vertex -13.5 -23.3827 2.5
    endloop
  endfacet
  facet normal 0 0 1
    outer loop
      vertex -21.5192 -4.57406 2.5
      vertex -22 0 2.5
      vertex -26.41 5.61362 2.5
    endloop
  endfacet
  facet normal 0 0 1
    outer loop
      vertex 6.79837 -20.9232 2.5
      vertex 2.29963 -21.8795 2.5
      vertex 8.34346 -25.6785 2.5
    endloop
  endfacet
  facet normal 0 0 1
    outer loop
      vertex -11 -19.0526 2.5
      vertex -14.7209 -16.3492 2.5
      vertex -8.34346 -25.6785 2.5
    endloop
  endfacet
  facet normal 0 0 1
    outer loop
      vertex -6.79837 -20.9232 2.5
      vertex -11 -19.0526 2.5
      vertex -2.82227 -26.8521 2.5
    endloop
  endfacet
  facet normal 0 0 1
    outer loop
      vertex -22 0 2.5
      vertex -21.5192 4.57406 2.5
      vertex -26.41 5.61362 2.5
    endloop
  endfacet
  facet normal 0 0 1
    outer loop
      vertex 20.098 -8.94821 2.5
      vertex 17.7984 -12.9313 2.5
      vertex 24.6657 -10.9819 2.5
    endloop
  endfacet
  facet normal 0 0 1
    outer loop
      vertex -21.5192 4.57406 2.5
      vertex -20.098 8.94821 2.5
      vertex -26.41 5.61362 2.5
    endloop
  endfacet
endsolid OpenSCAD_Model
