solid OpenSCAD_Model
  facet normal -1 0 0
    outer loop
      vertex -32.5 -32.5 0
      vertex -32.5 -32.5 16
      vertex -32.5 32.5 0
    endloop
  endfacet
  facet normal -1 0 0
    outer loop
      vertex -32.5 32.5 0
      vertex -32.5 -32.5 16
      vertex -32.5 32.5 16
    endloop
  endfacet
  facet normal 0 -1 0
    outer loop
      vertex -10 -32.5 9
      vertex -32.5 -32.5 0
      vertex 32.5 -32.5 0
    endloop
  endfacet
  facet normal 0 -1 0
    outer loop
      vertex -32.5 -32.5 16
      vertex -32.5 -32.5 0
      vertex -10 -32.5 9
    endloop
  endfacet
  facet normal 0 -1 0
    outer loop
      vertex -10 -32.5 10
      vertex 10 -32.5 10
      vertex -32.5 -32.5 16
    endloop
  endfacet
  facet normal 0 -1 0
    outer loop
      vertex -32.5 -32.5 16
      vertex -10 -32.5 9
      vertex -10 -32.5 10
    endloop
  endfacet
  facet normal 0 -1 0
    outer loop
      vertex 32.5 -32.5 16
      vertex 10 -32.5 10
      vertex 32.5 -32.5 0
    endloop
  endfacet
  facet normal 0 -1 0
    outer loop
      vertex 32.5 -32.5 16
      vertex -32.5 -32.5 16
      vertex 10 -32.5 10
    endloop
  endfacet
  facet normal 0 -1 0
    outer loop
      vertex 10 -32.5 10
      vertex 10 -32.5 9
      vertex 32.5 -32.5 0
    endloop
  endfacet
  facet normal 0 -1 0
    outer loop
      vertex 10 -32.5 9
      vertex -10 -32.5 9
      vertex 32.5 -32.5 0
    endloop
  endfacet
  facet normal 0 0 -1
    outer loop
      vertex -28.0365 27.0734 0
      vertex -28.0365 -27.0734 0
      vertex -29.7135 27.6183 0
    endloop
  endfacet
  facet normal 0 0 -1
    outer loop
      vertex -28.0365 29.9266 0
      vertex -32.5 32.5 0
      vertex 32.5 32.5 0
    endloop
  endfacet
  facet normal 0 0 -1
    outer loop
      vertex -32.5 -32.5 0
      vertex -32.5 32.5 0
      vertex -29.7135 -27.6183 0
    endloop
  endfacet
  facet normal 0 0 -1
    outer loop
      vertex 27.2865 -27.6183 0
      vertex -28.0365 27.0734 0
      vertex -27 28.5 0
    endloop
  endfacet
  facet normal 0 0 -1
    outer loop
      vertex -32.5 -32.5 0
      vertex -29.7135 -27.6183 0
      vertex -29.7135 -29.3817 0
    endloop
  endfacet
  facet normal 0 0 -1
    outer loop
      vertex -32.5 -32.5 0
      vertex -29.7135 -29.3817 0
      vertex -28.0365 -29.9266 0
    endloop
  endfacet
  facet normal 0 0 -1
    outer loop
      vertex -32.5 -32.5 0
      vertex -28.0365 -29.9266 0
      vertex 32.5 -32.5 0
    endloop
  endfacet
  facet normal 0 0 -1
    outer loop
      vertex -28.0365 -27.0734 0
      vertex 32.5 -32.5 0
      vertex -27 -28.5 0
    endloop
  endfacet
  facet normal 0 0 -1
    outer loop
      vertex -29.7135 -27.6183 0
      vertex -32.5 32.5 0
      vertex -28.0365 -27.0734 0
    endloop
  endfacet
  facet normal 0 0 -1
    outer loop
      vertex -29.7135 29.3817 0
      vertex -32.5 32.5 0
      vertex -28.0365 29.9266 0
    endloop
  endfacet
  facet normal 0 0 -1
    outer loop
      vertex -29.7135 27.6183 0
      vertex -32.5 32.5 0
      vertex -29.7135 29.3817 0
    endloop
  endfacet
  facet normal 0 0 -1
    outer loop
      vertex 27.2865 -27.6183 0
      vertex -27 28.5 0
      vertex 28.9635 -27.0734 0
    endloop
  endfacet
  facet normal 0 0 -1
    outer loop
      vertex -28.0365 -27.0734 0
      vertex -32.5 32.5 0
      vertex -29.7135 27.6183 0
    endloop
  endfacet
  facet normal 0 0 -1
    outer loop
      vertex 30 -28.5 0
      vertex 32.5 -32.5 0
      vertex 28.9635 -29.9266 0
    endloop
  endfacet
  facet normal 0 0 -1
    outer loop
      vertex 27.2865 29.3817 0
      vertex -27 28.5 0
      vertex 32.5 32.5 0
    endloop
  endfacet
  facet normal 0 0 -1
    outer loop
      vertex 28.9635 27.0734 0
      vertex 28.9635 -27.0734 0
      vertex 27.2865 27.6183 0
    endloop
  endfacet
  facet normal 0 0 -1
    outer loop
      vertex -27 28.5 0
      vertex -28.0365 29.9266 0
      vertex 32.5 32.5 0
    endloop
  endfacet
  facet normal 0 0 -1
    outer loop
      vertex -28.0365 -27.0734 0
      vertex -28.0365 27.0734 0
      vertex 27.2865 -27.6183 0
    endloop
  endfacet
  facet normal 0 0 -1
    outer loop
      vertex -28.0365 -27.0734 0
      vertex 27.2865 -27.6183 0
      vertex 27.2865 -29.3817 0
    endloop
  endfacet
  facet normal 0 0 -1
    outer loop
      vertex -28.0365 -27.0734 0
      vertex 27.2865 -29.3817 0
      vertex 32.5 -32.5 0
    endloop
  endfacet
  facet normal 0 0 -1
    outer loop
      vertex 27.2865 -29.3817 0
      vertex 28.9635 -29.9266 0
      vertex 32.5 -32.5 0
    endloop
  endfacet
  facet normal 0 0 -1
    outer loop
      vertex 32.5 -32.5 0
      vertex 30 -28.5 0
      vertex 32.5 32.5 0
    endloop
  endfacet
  facet normal 0 0 -1
    outer loop
      vertex 30 -28.5 0
      vertex 28.9635 -27.0734 0
      vertex 32.5 32.5 0
    endloop
  endfacet
  facet normal 0 0 -1
    outer loop
      vertex 27.2865 27.6183 0
      vertex -27 28.5 0
      vertex 27.2865 29.3817 0
    endloop
  endfacet
  facet normal 0 0 -1
    outer loop
      vertex 28.9635 29.9266 0
      vertex 27.2865 29.3817 0
      vertex 32.5 32.5 0
    endloop
  endfacet
  facet normal 0 0 -1
    outer loop
      vertex 28.9635 -27.0734 0
      vertex -27 28.5 0
      vertex 27.2865 27.6183 0
    endloop
  endfacet
  facet normal 0 0 -1
    outer loop
      vertex 28.9635 29.9266 0
      vertex 32.5 32.5 0
      vertex 30 28.5 0
    endloop
  endfacet
  facet normal 0 0 -1
    outer loop
      vertex 28.9635 -27.0734 0
      vertex 28.9635 27.0734 0
      vertex 30 28.5 0
    endloop
  endfacet
  facet normal 0 0 -1
    outer loop
      vertex 28.9635 -27.0734 0
      vertex 30 28.5 0
      vertex 32.5 32.5 0
    endloop
  endfacet
  facet normal 0 0 -1
    outer loop
      vertex -27 -28.5 0
      vertex 32.5 -32.5 0
      vertex -28.0365 -29.9266 0
    endloop
  endfacet
  facet normal 0 1 0
    outer loop
      vertex -32.5 32.5 0
      vertex -32.5 32.5 16
      vertex 32.5 32.5 0
    endloop
  endfacet
  facet normal 0 1 0
    outer loop
      vertex 32.5 32.5 0
      vertex -32.5 32.5 16
      vertex 32.5 32.5 16
    endloop
  endfacet
  facet normal 0 0 1
    outer loop
      vertex -28.0365 -29.9266 16
      vertex -32.5 -32.5 16
      vertex 32.5 -32.5 16
    endloop
  endfacet
  facet normal 0 0 1
    outer loop
      vertex 28.3663 -6.02944 16
      vertex 26.4928 -11.7954 16
      vertex 32.5 -32.5 16
    endloop
  endfacet
  facet normal 0 0 1
    outer loop
      vertex -32.5 32.5 16
      vertex -32.5 -32.5 16
      vertex -29.7135 -29.3817 16
    endloop
  endfacet
  facet normal 0 0 1
    outer loop
      vertex -27 -28.5 16
      vertex -28.0365 -29.9266 16
      vertex 32.5 -32.5 16
    endloop
  endfacet
  facet normal 0 0 1
    outer loop
      vertex -32.5 32.5 16
      vertex -29.7135 -29.3817 16
      vertex -29.7135 -27.6183 16
    endloop
  endfacet
  facet normal 0 0 1
    outer loop
      vertex -3.03132 -28.8411 16
      vertex -28.0365 -27.0734 16
      vertex 32.5 -32.5 16
    endloop
  endfacet
  facet normal 0 0 1
    outer loop
      vertex -32.5 32.5 16
      vertex -29.7135 -27.6183 16
      vertex -28.0365 -27.0734 16
    endloop
  endfacet
  facet normal 0 0 1
    outer loop
      vertex -28.3663 -6.02944 16
      vertex -29 0 16
      vertex -28.0365 -27.0734 16
    endloop
  endfacet
  facet normal 0 0 1
    outer loop
      vertex -29.7135 -29.3817 16
      vertex -32.5 -32.5 16
      vertex -28.0365 -29.9266 16
    endloop
  endfacet
  facet normal 0 0 1
    outer loop
      vertex 23.4615 -17.0458 16
      vertex 27.2865 -27.6183 16
      vertex 28.9635 -27.0734 16
    endloop
  endfacet
  facet normal 0 0 1
    outer loop
      vertex -23.4615 17.0458 16
      vertex -28.0365 27.0734 16
      vertex -29.7135 27.6183 16
    endloop
  endfacet
  facet normal 0 0 1
    outer loop
      vertex -32.5 32.5 16
      vertex -29.7135 27.6183 16
      vertex -29.7135 29.3817 16
    endloop
  endfacet
  facet normal 0 0 1
    outer loop
      vertex 32.5 32.5 16
      vertex -32.5 32.5 16
      vertex -28.0365 29.9266 16
    endloop
  endfacet
  facet normal 0 0 1
    outer loop
      vertex -3.03132 28.8411 16
      vertex 3.03132 28.8411 16
      vertex 32.5 32.5 16
    endloop
  endfacet
  facet normal 0 0 1
    outer loop
      vertex -3.03132 -28.8411 16
      vertex -8.96149 -27.5806 16
      vertex -28.0365 -27.0734 16
    endloop
  endfacet
  facet normal 0 0 1
    outer loop
      vertex -29 0 16
      vertex -28.3663 6.02944 16
      vertex -29.7135 27.6183 16
    endloop
  endfacet
  facet normal 0 0 1
    outer loop
      vertex -32.5 32.5 16
      vertex -29 0 16
      vertex -29.7135 27.6183 16
    endloop
  endfacet
  facet normal 0 0 1
    outer loop
      vertex -32.5 32.5 16
      vertex -28.0365 -27.0734 16
      vertex -29 0 16
    endloop
  endfacet
  facet normal 0 0 1
    outer loop
      vertex -29.7135 27.6183 16
      vertex -28.3663 6.02944 16
      vertex -26.4928 11.7954 16
    endloop
  endfacet
  facet normal 0 0 1
    outer loop
      vertex -29.7135 27.6183 16
      vertex -26.4928 11.7954 16
      vertex -23.4615 17.0458 16
    endloop
  endfacet
  facet normal 0 0 1
    outer loop
      vertex 28.9635 -29.9266 16
      vertex 27.2865 -29.3817 16
      vertex 32.5 -32.5 16
    endloop
  endfacet
  facet normal 0 0 1
    outer loop
      vertex -14.5 25.1147 16
      vertex -28.0365 29.9266 16
      vertex -19.4048 21.5512 16
    endloop
  endfacet
  facet normal 0 0 1
    outer loop
      vertex -8.96149 27.5806 16
      vertex -28.0365 29.9266 16
      vertex -14.5 25.1147 16
    endloop
  endfacet
  facet normal 0 0 1
    outer loop
      vertex -3.03132 28.8411 16
      vertex -28.0365 29.9266 16
      vertex -8.96149 27.5806 16
    endloop
  endfacet
  facet normal 0 0 1
    outer loop
      vertex 3.03132 28.8411 16
      vertex 8.96149 27.5806 16
      vertex 32.5 32.5 16
    endloop
  endfacet
  facet normal 0 0 1
    outer loop
      vertex 32.5 32.5 16
      vertex -28.0365 29.9266 16
      vertex -3.03132 28.8411 16
    endloop
  endfacet
  facet normal 0 0 1
    outer loop
      vertex 8.96149 27.5806 16
      vertex 14.5 25.1147 16
      vertex 32.5 32.5 16
    endloop
  endfacet
  facet normal 0 0 1
    outer loop
      vertex 29 0 16
      vertex 28.3663 -6.02944 16
      vertex 32.5 -32.5 16
    endloop
  endfacet
  facet normal 0 0 1
    outer loop
      vertex 26.4928 -11.7954 16
      vertex 23.4615 -17.0458 16
      vertex 32.5 -32.5 16
    endloop
  endfacet
  facet normal 0 0 1
    outer loop
      vertex 27.2865 29.3817 16
      vertex 14.5 25.1147 16
      vertex 19.4048 21.5512 16
    endloop
  endfacet
  facet normal 0 0 1
    outer loop
      vertex 27.2865 27.6183 16
      vertex 19.4048 21.5512 16
      vertex 23.4615 17.0458 16
    endloop
  endfacet
  facet normal 0 0 1
    outer loop
      vertex 32.5 32.5 16
      vertex 23.4615 17.0458 16
      vertex 26.4928 11.7954 16
    endloop
  endfacet
  facet normal 0 0 1
    outer loop
      vertex 32.5 32.5 16
      vertex 28.3663 6.02944 16
      vertex 32.5 -32.5 16
    endloop
  endfacet
  facet normal 0 0 1
    outer loop
      vertex 32.5 32.5 16
      vertex 26.4928 11.7954 16
      vertex 28.3663 6.02944 16
    endloop
  endfacet
  facet normal 0 0 1
    outer loop
      vertex 28.3663 6.02944 16
      vertex 29 0 16
      vertex 32.5 -32.5 16
    endloop
  endfacet
  facet normal 0 0 1
    outer loop
      vertex 14.5 -25.1147 16
      vertex 8.96149 -27.5806 16
      vertex 32.5 -32.5 16
    endloop
  endfacet
  facet normal 0 0 1
    outer loop
      vertex 8.96149 -27.5806 16
      vertex 3.03132 -28.8411 16
      vertex 32.5 -32.5 16
    endloop
  endfacet
  facet normal 0 0 1
    outer loop
      vertex 3.03132 -28.8411 16
      vertex -3.03132 -28.8411 16
      vertex 32.5 -32.5 16
    endloop
  endfacet
  facet normal 0 0 1
    outer loop
      vertex 27.2865 -29.3817 16
      vertex 27.2865 -27.6183 16
      vertex 19.4048 -21.5512 16
    endloop
  endfacet
  facet normal 0 0 1
    outer loop
      vertex -19.4048 -21.5512 16
      vertex -28.0365 -27.0734 16
      vertex -14.5 -25.1147 16
    endloop
  endfacet
  facet normal 0 0 1
    outer loop
      vertex -23.4615 -17.0458 16
      vertex -28.0365 -27.0734 16
      vertex -19.4048 -21.5512 16
    endloop
  endfacet
  facet normal 0 0 1
    outer loop
      vertex -26.4928 -11.7954 16
      vertex -28.0365 -27.0734 16
      vertex -23.4615 -17.0458 16
    endloop
  endfacet
  facet normal 0 0 1
    outer loop
      vertex -28.3663 -6.02944 16
      vertex -28.0365 -27.0734 16
      vertex -26.4928 -11.7954 16
    endloop
  endfacet
  facet normal 0 0 1
    outer loop
      vertex -8.96149 -27.5806 16
      vertex -14.5 -25.1147 16
      vertex -28.0365 -27.0734 16
    endloop
  endfacet
  facet normal 0 0 1
    outer loop
      vertex 23.4615 -17.0458 16
      vertex 19.4048 -21.5512 16
      vertex 27.2865 -27.6183 16
    endloop
  endfacet
  facet normal 0 0 1
    outer loop
      vertex 27.2865 27.6183 16
      vertex 27.2865 29.3817 16
      vertex 19.4048 21.5512 16
    endloop
  endfacet
  facet normal 0 0 1
    outer loop
      vertex 30 -28.5 16
      vertex 28.9635 -29.9266 16
      vertex 32.5 -32.5 16
    endloop
  endfacet
  facet normal 0 0 1
    outer loop
      vertex 23.4615 -17.0458 16
      vertex 30 -28.5 16
      vertex 32.5 -32.5 16
    endloop
  endfacet
  facet normal 0 0 1
    outer loop
      vertex 23.4615 -17.0458 16
      vertex 28.9635 -27.0734 16
      vertex 30 -28.5 16
    endloop
  endfacet
  facet normal 0 0 1
    outer loop
      vertex 28.9635 27.0734 16
      vertex 27.2865 27.6183 16
      vertex 23.4615 17.0458 16
    endloop
  endfacet
  facet normal 0 0 1
    outer loop
      vertex 32.5 32.5 16
      vertex 14.5 25.1147 16
      vertex 27.2865 29.3817 16
    endloop
  endfacet
  facet normal 0 0 1
    outer loop
      vertex 28.9635 29.9266 16
      vertex 30 28.5 16
      vertex 32.5 32.5 16
    endloop
  endfacet
  facet normal 0 0 1
    outer loop
      vertex 32.5 32.5 16
      vertex 27.2865 29.3817 16
      vertex 28.9635 29.9266 16
    endloop
  endfacet
  facet normal 0 0 1
    outer loop
      vertex 32.5 32.5 16
      vertex 30 28.5 16
      vertex 23.4615 17.0458 16
    endloop
  endfacet
  facet normal 0 0 1
    outer loop
      vertex 30 28.5 16
      vertex 28.9635 27.0734 16
      vertex 23.4615 17.0458 16
    endloop
  endfacet
  facet normal 0 0 1
    outer loop
      vertex -28.0365 -27.0734 16
      vertex -27 -28.5 16
      vertex 32.5 -32.5 16
    endloop
  endfacet
  facet normal 0 0 1
    outer loop
      vertex -29.7135 29.3817 16
      vertex -28.0365 29.9266 16
      vertex -32.5 32.5 16
    endloop
  endfacet
  facet normal 0 0 1
    outer loop
      vertex -23.4615 17.0458 16
      vertex -27 28.5 16
      vertex -28.0365 27.0734 16
    endloop
  endfacet
  facet normal 0 0 1
    outer loop
      vertex -27 28.5 16
      vertex -19.4048 21.5512 16
      vertex -28.0365 29.9266 16
    endloop
  endfacet
  facet normal 0 0 1
    outer loop
      vertex -23.4615 17.0458 16
      vertex -19.4048 21.5512 16
      vertex -27 28.5 16
    endloop
  endfacet
  facet normal 0 0 1
    outer loop
      vertex 27.2865 -29.3817 16
      vertex 14.5 -25.1147 16
      vertex 32.5 -32.5 16
    endloop
  endfacet
  facet normal 0 0 1
    outer loop
      vertex 19.4048 -21.5512 16
      vertex 14.5 -25.1147 16
      vertex 27.2865 -29.3817 16
    endloop
  endfacet
  facet normal 1 0 0
    outer loop
      vertex 32.5 -32.5 16
      vertex 32.5 -32.5 0
      vertex 32.5 32.5 0
    endloop
  endfacet
  facet normal 1 0 0
    outer loop
      vertex 32.5 32.5 16
      vertex 32.5 -32.5 16
      vertex 32.5 32.5 0
    endloop
  endfacet
  facet normal 1 0 0
    outer loop
      vertex -10 -24.3967 9
      vertex -10 -24.3967 10
      vertex -10 -32.5 10
    endloop
  endfacet
  facet normal 1 0 0
    outer loop
      vertex -10 -32.5 9
      vertex -10 -24.3967 9
      vertex -10 -32.5 10
    endloop
  endfacet
  facet normal 0 0 1
    outer loop
      vertex -2.77 -26.3548 9
      vertex -8.18895 -25.203 9
      vertex 10 -32.5 9
    endloop
  endfacet
  facet normal 0 0 1
    outer loop
      vertex 10 -32.5 9
      vertex 10 -24.3967 9
      vertex 8.18895 -25.203 9
    endloop
  endfacet
  facet normal 0 0 1
    outer loop
      vertex -8.18895 -25.203 9
      vertex -10 -32.5 9
      vertex 10 -32.5 9
    endloop
  endfacet
  facet normal 0 0 1
    outer loop
      vertex 2.77 -26.3548 9
      vertex 10 -32.5 9
      vertex 8.18895 -25.203 9
    endloop
  endfacet
  facet normal 0 0 1
    outer loop
      vertex 2.77 -26.3548 9
      vertex -2.77 -26.3548 9
      vertex 10 -32.5 9
    endloop
  endfacet
  facet normal 0 0 1
    outer loop
      vertex -10 -24.3967 9
      vertex -10 -32.5 9
      vertex -8.18895 -25.203 9
    endloop
  endfacet
  facet normal -1 0 0
    outer loop
      vertex 10 -24.3967 10
      vertex 10 -24.3967 9
      vertex 10 -32.5 10
    endloop
  endfacet
  facet normal -1 0 0
    outer loop
      vertex 10 -32.5 10
      vertex 10 -24.3967 9
      vertex 10 -32.5 9
    endloop
  endfacet
  facet normal 0 0 -1
    outer loop
      vertex -8.18895 -25.203 10
      vertex -2.77 -26.3548 10
      vertex 10 -32.5 10
    endloop
  endfacet
  facet normal 0 0 -1
    outer loop
      vertex 10 -32.5 10
      vertex 2.77 -26.3548 10
      vertex 8.18895 -25.203 10
    endloop
  endfacet
  facet normal 0 0 -1
    outer loop
      vertex 10 -32.5 10
      vertex 8.18895 -25.203 10
      vertex 10 -24.3967 10
    endloop
  endfacet
  facet normal 0 0 -1
    outer loop
      vertex -2.77 -26.3548 10
      vertex 2.77 -26.3548 10
      vertex 10 -32.5 10
    endloop
  endfacet
  facet normal 0 0 -1
    outer loop
      vertex -8.18895 -25.203 10
      vertex 10 -32.5 10
      vertex -10 -32.5 10
    endloop
  endfacet
  facet normal 0 0 -1
    outer loop
      vertex -8.18895 -25.203 10
      vertex -10 -32.5 10
      vertex -10 -24.3967 10
    endloop
  endfacet
  facet normal 0.309017 -0.951056 0
    outer loop
      vertex -28.0365 -27.0734 0
      vertex -28.0365 -27.0734 16
      vertex -29.7135 -27.6183 16
    endloop
  endfacet
  facet normal 0.309017 -0.951056 0
    outer loop
      vertex -29.7135 -27.6183 0
      vertex -28.0365 -27.0734 0
      vertex -29.7135 -27.6183 16
    endloop
  endfacet
  facet normal 1 0 0
    outer loop
      vertex -29.7135 -27.6183 0
      vertex -29.7135 -27.6183 16
      vertex -29.7135 -29.3817 16
    endloop
  endfacet
  facet normal 1 0 0
    outer loop
      vertex -29.7135 -29.3817 0
      vertex -29.7135 -27.6183 0
      vertex -29.7135 -29.3817 16
    endloop
  endfacet
  facet normal -0.809017 -0.587785 0
    outer loop
      vertex -27 -28.5 16
      vertex -28.0365 -27.0734 16
      vertex -27 -28.5 0
    endloop
  endfacet
  facet normal -0.809017 -0.587785 0
    outer loop
      vertex -27 -28.5 0
      vertex -28.0365 -27.0734 16
      vertex -28.0365 -27.0734 0
    endloop
  endfacet
  facet normal -0.809017 0.587785 0
    outer loop
      vertex -27 -28.5 16
      vertex -27 -28.5 0
      vertex -28.0365 -29.9266 16
    endloop
  endfacet
  facet normal -0.809017 0.587785 0
    outer loop
      vertex -28.0365 -29.9266 16
      vertex -27 -28.5 0
      vertex -28.0365 -29.9266 0
    endloop
  endfacet
  facet normal 0.309017 0.951056 0
    outer loop
      vertex -28.0365 -29.9266 16
      vertex -28.0365 -29.9266 0
      vertex -29.7135 -29.3817 16
    endloop
  endfacet
  facet normal 0.309017 0.951056 0
    outer loop
      vertex -29.7135 -29.3817 16
      vertex -28.0365 -29.9266 0
      vertex -29.7135 -29.3817 0
    endloop
  endfacet
  facet normal 0.309017 -0.951056 0
    outer loop
      vertex -28.0365 29.9266 0
      vertex -28.0365 29.9266 16
      vertex -29.7135 29.3817 16
    endloop
  endfacet
  facet normal 0.309017 -0.951056 0
    outer loop
      vertex -29.7135 29.3817 0
      vertex -28.0365 29.9266 0
      vertex -29.7135 29.3817 16
    endloop
  endfacet
  facet normal 1 0 0
    outer loop
      vertex -29.7135 29.3817 0
      vertex -29.7135 29.3817 16
      vertex -29.7135 27.6183 16
    endloop
  endfacet
  facet normal 1 0 0
    outer loop
      vertex -29.7135 27.6183 0
      vertex -29.7135 29.3817 0
      vertex -29.7135 27.6183 16
    endloop
  endfacet
  facet normal -0.809017 -0.587785 0
    outer loop
      vertex -27 28.5 16
      vertex -28.0365 29.9266 16
      vertex -27 28.5 0
    endloop
  endfacet
  facet normal -0.809017 -0.587785 0
    outer loop
      vertex -27 28.5 0
      vertex -28.0365 29.9266 16
      vertex -28.0365 29.9266 0
    endloop
  endfacet
  facet normal -0.809017 0.587785 0
    outer loop
      vertex -27 28.5 16
      vertex -27 28.5 0
      vertex -28.0365 27.0734 16
    endloop
  endfacet
  facet normal -0.809017 0.587785 0
    outer loop
      vertex -28.0365 27.0734 16
      vertex -27 28.5 0
      vertex -28.0365 27.0734 0
    endloop
  endfacet
  facet normal 0.309017 0.951056 0
    outer loop
      vertex -28.0365 27.0734 16
      vertex -28.0365 27.0734 0
      vertex -29.7135 27.6183 16
    endloop
  endfacet
  facet normal 0.309017 0.951056 0
    outer loop
      vertex -29.7135 27.6183 16
      vertex -28.0365 27.0734 0
      vertex -29.7135 27.6183 0
    endloop
  endfacet
  facet normal 0.309017 -0.951056 0
    outer loop
      vertex 28.9635 -27.0734 0
      vertex 28.9635 -27.0734 16
      vertex 27.2865 -27.6183 16
    endloop
  endfacet
  facet normal 0.309017 -0.951056 0
    outer loop
      vertex 27.2865 -27.6183 0
      vertex 28.9635 -27.0734 0
      vertex 27.2865 -27.6183 16
    endloop
  endfacet
  facet normal 1 0 0
    outer loop
      vertex 27.2865 -27.6183 0
      vertex 27.2865 -27.6183 16
      vertex 27.2865 -29.3817 16
    endloop
  endfacet
  facet normal 1 0 0
    outer loop
      vertex 27.2865 -29.3817 0
      vertex 27.2865 -27.6183 0
      vertex 27.2865 -29.3817 16
    endloop
  endfacet
  facet normal -0.809017 -0.587785 0
    outer loop
      vertex 30 -28.5 16
      vertex 28.9635 -27.0734 16
      vertex 30 -28.5 0
    endloop
  endfacet
  facet normal -0.809017 -0.587785 0
    outer loop
      vertex 30 -28.5 0
      vertex 28.9635 -27.0734 16
      vertex 28.9635 -27.0734 0
    endloop
  endfacet
  facet normal -0.809017 0.587785 0
    outer loop
      vertex 30 -28.5 16
      vertex 30 -28.5 0
      vertex 28.9635 -29.9266 16
    endloop
  endfacet
  facet normal -0.809017 0.587785 0
    outer loop
      vertex 28.9635 -29.9266 16
      vertex 30 -28.5 0
      vertex 28.9635 -29.9266 0
    endloop
  endfacet
  facet normal 0.309017 0.951056 0
    outer loop
      vertex 28.9635 -29.9266 16
      vertex 28.9635 -29.9266 0
      vertex 27.2865 -29.3817 16
    endloop
  endfacet
  facet normal 0.309017 0.951056 0
    outer loop
      vertex 27.2865 -29.3817 16
      vertex 28.9635 -29.9266 0
      vertex 27.2865 -29.3817 0
    endloop
  endfacet
  facet normal 0.309017 -0.951056 0
    outer loop
      vertex 28.9635 29.9266 0
      vertex 28.9635 29.9266 16
      vertex 27.2865 29.3817 16
    endloop
  endfacet
  facet normal 0.309017 -0.951056 0
    outer loop
      vertex 27.2865 29.3817 0
      vertex 28.9635 29.9266 0
      vertex 27.2865 29.3817 16
    endloop
  endfacet
  facet normal 1 0 0
    outer loop
      vertex 27.2865 29.3817 0
      vertex 27.2865 29.3817 16
      vertex 27.2865 27.6183 16
    endloop
  endfacet
  facet normal 1 0 0
    outer loop
      vertex 27.2865 27.6183 0
      vertex 27.2865 29.3817 0
      vertex 27.2865 27.6183 16
    endloop
  endfacet
  facet normal -0.809017 -0.587785 0
    outer loop
      vertex 30 28.5 16
      vertex 28.9635 29.9266 16
      vertex 30 28.5 0
    endloop
  endfacet
  facet normal -0.809017 -0.587785 0
    outer loop
      vertex 30 28.5 0
      vertex 28.9635 29.9266 16
      vertex 28.9635 29.9266 0
    endloop
  endfacet
  facet normal -0.809017 0.587785 0
    outer loop
      vertex 30 28.5 16
      vertex 30 28.5 0
      vertex 28.9635 27.0734 16
    endloop
  endfacet
  facet normal -0.809017 0.587785 0
    outer loop
      vertex 28.9635 27.0734 16
      vertex 30 28.5 0
      vertex 28.9635 27.0734 0
    endloop
  endfacet
  facet normal 0.309017 0.951056 0
    outer loop
      vertex 28.9635 27.0734 16
      vertex 28.9635 27.0734 0
      vertex 27.2865 27.6183 16
    endloop
  endfacet
  facet normal 0.309017 0.951056 0
    outer loop
      vertex 27.2865 27.6183 16
      vertex 28.9635 27.0734 0
      vertex 27.2865 27.6183 0
    endloop
  endfacet
  facet normal -0.994522 -0.104529 0
    outer loop
      vertex -29 0 16
      vertex -28.3663 -6.02944 16
      vertex -29 0 18
    endloop
  endfacet
  facet normal -0.994522 -0.104529 0
    outer loop
      vertex -29 0 18
      vertex -28.3663 -6.02944 16
      vertex -28.3663 -6.02944 18
    endloop
  endfacet
  facet normal -0.951057 -0.309017 0
    outer loop
      vertex -28.3663 -6.02944 16
      vertex -26.4928 -11.7954 16
      vertex -28.3663 -6.02944 18
    endloop
  endfacet
  facet normal -0.951057 -0.309017 0
    outer loop
      vertex -28.3663 -6.02944 18
      vertex -26.4928 -11.7954 16
      vertex -26.4928 -11.7954 18
    endloop
  endfacet
  facet normal -0.866025 -0.5 0
    outer loop
      vertex -26.4928 -11.7954 16
      vertex -23.4615 -17.0458 16
      vertex -26.4928 -11.7954 18
    endloop
  endfacet
  facet normal -0.866025 -0.5 0
    outer loop
      vertex -26.4928 -11.7954 18
      vertex -23.4615 -17.0458 16
      vertex -23.4615 -17.0458 18
    endloop
  endfacet
  facet normal -0.743145 -0.669131 0
    outer loop
      vertex -23.4615 -17.0458 16
      vertex -19.4048 -21.5512 16
      vertex -23.4615 -17.0458 18
    endloop
  endfacet
  facet normal -0.743145 -0.669131 0
    outer loop
      vertex -23.4615 -17.0458 18
      vertex -19.4048 -21.5512 16
      vertex -19.4048 -21.5512 18
    endloop
  endfacet
  facet normal -0.587785 -0.809017 0
    outer loop
      vertex -19.4048 -21.5512 18
      vertex -19.4048 -21.5512 16
      vertex -14.5 -25.1147 16
    endloop
  endfacet
  facet normal -0.587785 -0.809017 0
    outer loop
      vertex -14.5 -25.1147 18
      vertex -19.4048 -21.5512 18
      vertex -14.5 -25.1147 16
    endloop
  endfacet
  facet normal -0.406737 -0.913545 0
    outer loop
      vertex -14.5 -25.1147 18
      vertex -14.5 -25.1147 16
      vertex -8.96149 -27.5806 16
    endloop
  endfacet
  facet normal -0.406737 -0.913545 0
    outer loop
      vertex -8.96149 -27.5806 18
      vertex -14.5 -25.1147 18
      vertex -8.96149 -27.5806 16
    endloop
  endfacet
  facet normal -0.207912 -0.978148 0
    outer loop
      vertex -8.96149 -27.5806 18
      vertex -8.96149 -27.5806 16
      vertex -3.03132 -28.8411 16
    endloop
  endfacet
  facet normal -0.207912 -0.978148 0
    outer loop
      vertex -3.03132 -28.8411 18
      vertex -8.96149 -27.5806 18
      vertex -3.03132 -28.8411 16
    endloop
  endfacet
  facet normal 0 -1 0
    outer loop
      vertex -3.03132 -28.8411 18
      vertex -3.03132 -28.8411 16
      vertex 3.03132 -28.8411 16
    endloop
  endfacet
  facet normal 0 -1 0
    outer loop
      vertex 3.03132 -28.8411 18
      vertex -3.03132 -28.8411 18
      vertex 3.03132 -28.8411 16
    endloop
  endfacet
  facet normal 0.207912 -0.978148 0
    outer loop
      vertex 3.03132 -28.8411 18
      vertex 3.03132 -28.8411 16
      vertex 8.96149 -27.5806 16
    endloop
  endfacet
  facet normal 0.207912 -0.978148 0
    outer loop
      vertex 8.96149 -27.5806 18
      vertex 3.03132 -28.8411 18
      vertex 8.96149 -27.5806 16
    endloop
  endfacet
  facet normal 0.406737 -0.913545 0
    outer loop
      vertex 8.96149 -27.5806 18
      vertex 8.96149 -27.5806 16
      vertex 14.5 -25.1147 16
    endloop
  endfacet
  facet normal 0.406737 -0.913545 0
    outer loop
      vertex 14.5 -25.1147 18
      vertex 8.96149 -27.5806 18
      vertex 14.5 -25.1147 16
    endloop
  endfacet
  facet normal 0.587785 -0.809017 0
    outer loop
      vertex 14.5 -25.1147 18
      vertex 14.5 -25.1147 16
      vertex 19.4048 -21.5512 16
    endloop
  endfacet
  facet normal 0.587785 -0.809017 0
    outer loop
      vertex 19.4048 -21.5512 18
      vertex 14.5 -25.1147 18
      vertex 19.4048 -21.5512 16
    endloop
  endfacet
  facet normal 0.743145 -0.669131 0
    outer loop
      vertex 19.4048 -21.5512 18
      vertex 19.4048 -21.5512 16
      vertex 23.4615 -17.0458 16
    endloop
  endfacet
  facet normal 0.743145 -0.669131 0
    outer loop
      vertex 23.4615 -17.0458 18
      vertex 19.4048 -21.5512 18
      vertex 23.4615 -17.0458 16
    endloop
  endfacet
  facet normal 0.866025 -0.5 0
    outer loop
      vertex 23.4615 -17.0458 18
      vertex 23.4615 -17.0458 16
      vertex 26.4928 -11.7954 16
    endloop
  endfacet
  facet normal 0.866025 -0.5 0
    outer loop
      vertex 26.4928 -11.7954 18
      vertex 23.4615 -17.0458 18
      vertex 26.4928 -11.7954 16
    endloop
  endfacet
  facet normal 0.951057 -0.309017 0
    outer loop
      vertex 26.4928 -11.7954 18
      vertex 26.4928 -11.7954 16
      vertex 28.3663 -6.02944 16
    endloop
  endfacet
  facet normal 0.951057 -0.309017 0
    outer loop
      vertex 28.3663 -6.02944 18
      vertex 26.4928 -11.7954 18
      vertex 28.3663 -6.02944 16
    endloop
  endfacet
  facet normal 0.994522 -0.104529 0
    outer loop
      vertex 28.3663 -6.02944 18
      vertex 28.3663 -6.02944 16
      vertex 29 0 16
    endloop
  endfacet
  facet normal 0.994522 -0.104529 0
    outer loop
      vertex 29 0 18
      vertex 28.3663 -6.02944 18
      vertex 29 0 16
    endloop
  endfacet
  facet normal 0.994522 0.104529 0
    outer loop
      vertex 29 0 16
      vertex 28.3663 6.02944 16
      vertex 28.3663 6.02944 18
    endloop
  endfacet
  facet normal 0.994522 0.104529 0
    outer loop
      vertex 29 0 18
      vertex 29 0 16
      vertex 28.3663 6.02944 18
    endloop
  endfacet
  facet normal 0.951057 0.309017 0
    outer loop
      vertex 28.3663 6.02944 16
      vertex 26.4928 11.7954 16
      vertex 26.4928 11.7954 18
    endloop
  endfacet
  facet normal 0.951057 0.309017 0
    outer loop
      vertex 28.3663 6.02944 18
      vertex 28.3663 6.02944 16
      vertex 26.4928 11.7954 18
    endloop
  endfacet
  facet normal 0.866025 0.5 0
    outer loop
      vertex 26.4928 11.7954 16
      vertex 23.4615 17.0458 16
      vertex 23.4615 17.0458 18
    endloop
  endfacet
  facet normal 0.866025 0.5 0
    outer loop
      vertex 26.4928 11.7954 18
      vertex 26.4928 11.7954 16
      vertex 23.4615 17.0458 18
    endloop
  endfacet
  facet normal 0.743145 0.669131 0
    outer loop
      vertex 23.4615 17.0458 16
      vertex 19.4048 21.5512 16
      vertex 19.4048 21.5512 18
    endloop
  endfacet
  facet normal 0.743145 0.669131 0
    outer loop
      vertex 23.4615 17.0458 18
      vertex 23.4615 17.0458 16
      vertex 19.4048 21.5512 18
    endloop
  endfacet
  facet normal 0.587785 0.809017 0
    outer loop
      vertex 14.5 25.1147 16
      vertex 14.5 25.1147 18
      vertex 19.4048 21.5512 16
    endloop
  endfacet
  facet normal 0.587785 0.809017 0
    outer loop
      vertex 19.4048 21.5512 16
      vertex 14.5 25.1147 18
      vertex 19.4048 21.5512 18
    endloop
  endfacet
  facet normal 0.406737 0.913545 0
    outer loop
      vertex 8.96149 27.5806 16
      vertex 8.96149 27.5806 18
      vertex 14.5 25.1147 16
    endloop
  endfacet
  facet normal 0.406737 0.913545 0
    outer loop
      vertex 14.5 25.1147 16
      vertex 8.96149 27.5806 18
      vertex 14.5 25.1147 18
    endloop
  endfacet
  facet normal 0.207912 0.978148 0
    outer loop
      vertex 3.03132 28.8411 16
      vertex 3.03132 28.8411 18
      vertex 8.96149 27.5806 16
    endloop
  endfacet
  facet normal 0.207912 0.978148 0
    outer loop
      vertex 8.96149 27.5806 16
      vertex 3.03132 28.8411 18
      vertex 8.96149 27.5806 18
    endloop
  endfacet
  facet normal 0 1 0
    outer loop
      vertex -3.03132 28.8411 16
      vertex -3.03132 28.8411 18
      vertex 3.03132 28.8411 16
    endloop
  endfacet
  facet normal 0 1 0
    outer loop
      vertex 3.03132 28.8411 16
      vertex -3.03132 28.8411 18
      vertex 3.03132 28.8411 18
    endloop
  endfacet
  facet normal -0.207912 0.978148 0
    outer loop
      vertex -8.96149 27.5806 16
      vertex -8.96149 27.5806 18
      vertex -3.03132 28.8411 16
    endloop
  endfacet
  facet normal -0.207912 0.978148 0
    outer loop
      vertex -3.03132 28.8411 16
      vertex -8.96149 27.5806 18
      vertex -3.03132 28.8411 18
    endloop
  endfacet
  facet normal -0.406737 0.913545 0
    outer loop
      vertex -14.5 25.1147 16
      vertex -14.5 25.1147 18
      vertex -8.96149 27.5806 16
    endloop
  endfacet
  facet normal -0.406737 0.913545 0
    outer loop
      vertex -8.96149 27.5806 16
      vertex -14.5 25.1147 18
      vertex -8.96149 27.5806 18
    endloop
  endfacet
  facet normal -0.587785 0.809017 0
    outer loop
      vertex -19.4048 21.5512 16
      vertex -19.4048 21.5512 18
      vertex -14.5 25.1147 16
    endloop
  endfacet
  facet normal -0.587785 0.809017 0
    outer loop
      vertex -14.5 25.1147 16
      vertex -19.4048 21.5512 18
      vertex -14.5 25.1147 18
    endloop
  endfacet
  facet normal -0.743145 0.669131 0
    outer loop
      vertex -23.4615 17.0458 16
      vertex -23.4615 17.0458 18
      vertex -19.4048 21.5512 16
    endloop
  endfacet
  facet normal -0.743145 0.669131 0
    outer loop
      vertex -19.4048 21.5512 16
      vertex -23.4615 17.0458 18
      vertex -19.4048 21.5512 18
    endloop
  endfacet
  facet normal -0.866025 0.5 0
    outer loop
      vertex -26.4928 11.7954 16
      vertex -26.4928 11.7954 18
      vertex -23.4615 17.0458 16
    endloop
  endfacet
  facet normal -0.866025 0.5 0
    outer loop
      vertex -23.4615 17.0458 16
      vertex -26.4928 11.7954 18
      vertex -23.4615 17.0458 18
    endloop
  endfacet
  facet normal -0.951057 0.309017 0
    outer loop
      vertex -28.3663 6.02944 16
      vertex -28.3663 6.02944 18
      vertex -26.4928 11.7954 16
    endloop
  endfacet
  facet normal -0.951057 0.309017 0
    outer loop
      vertex -26.4928 11.7954 16
      vertex -28.3663 6.02944 18
      vertex -26.4928 11.7954 18
    endloop
  endfacet
  facet normal -0.994522 0.104529 0
    outer loop
      vertex -29 0 16
      vertex -29 0 18
      vertex -28.3663 6.02944 16
    endloop
  endfacet
  facet normal -0.994522 0.104529 0
    outer loop
      vertex -28.3663 6.02944 16
      vertex -29 0 18
      vertex -28.3663 6.02944 18
    endloop
  endfacet
  facet normal 0.406737 0.913545 0
    outer loop
      vertex -8.18895 -25.203 18
      vertex -8.18895 -25.203 10
      vertex -13.25 -22.9497 18
    endloop
  endfacet
  facet normal 0.406737 0.913545 0
    outer loop
      vertex -13.25 -22.9497 18
      vertex -8.18895 -25.203 10
      vertex -10 -24.3967 10
    endloop
  endfacet
  facet normal 0.406737 0.913545 0
    outer loop
      vertex -13.25 -22.9497 18
      vertex -10 -24.3967 10
      vertex -10 -24.3967 9
    endloop
  endfacet
  facet normal 0.406737 0.913545 0
    outer loop
      vertex -10 -24.3967 9
      vertex -8.18895 -25.203 9
      vertex -8.18895 -25.203 2
    endloop
  endfacet
  facet normal 0.406737 0.913545 0
    outer loop
      vertex -10 -24.3967 9
      vertex -8.18895 -25.203 2
      vertex -13.25 -22.9497 18
    endloop
  endfacet
  facet normal 0.406737 0.913545 0
    outer loop
      vertex -13.25 -22.9497 18
      vertex -8.18895 -25.203 2
      vertex -13.25 -22.9497 2
    endloop
  endfacet
  facet normal 0.207912 0.978148 0
    outer loop
      vertex -2.77 -26.3548 9
      vertex -2.77 -26.3548 2
      vertex -8.18895 -25.203 9
    endloop
  endfacet
  facet normal 0.207912 0.978148 0
    outer loop
      vertex -8.18895 -25.203 9
      vertex -2.77 -26.3548 2
      vertex -8.18895 -25.203 2
    endloop
  endfacet
  facet normal 0 1 0
    outer loop
      vertex 2.77 -26.3548 9
      vertex 2.77 -26.3548 2
      vertex -2.77 -26.3548 9
    endloop
  endfacet
  facet normal 0 1 0
    outer loop
      vertex -2.77 -26.3548 9
      vertex 2.77 -26.3548 2
      vertex -2.77 -26.3548 2
    endloop
  endfacet
  facet normal -0.207912 0.978148 0
    outer loop
      vertex 8.18895 -25.203 9
      vertex 8.18895 -25.203 2
      vertex 2.77 -26.3548 9
    endloop
  endfacet
  facet normal -0.207912 0.978148 0
    outer loop
      vertex 2.77 -26.3548 9
      vertex 8.18895 -25.203 2
      vertex 2.77 -26.3548 2
    endloop
  endfacet
  facet normal -0.406737 0.913545 0
    outer loop
      vertex 8.18895 -25.203 18
      vertex 10 -24.3967 10
      vertex 8.18895 -25.203 10
    endloop
  endfacet
  facet normal -0.406737 0.913545 0
    outer loop
      vertex 13.25 -22.9497 18
      vertex 10 -24.3967 10
      vertex 8.18895 -25.203 18
    endloop
  endfacet
  facet normal -0.406737 0.913545 0
    outer loop
      vertex 10 -24.3967 9
      vertex 10 -24.3967 10
      vertex 13.25 -22.9497 18
    endloop
  endfacet
  facet normal -0.406737 0.913545 0
    outer loop
      vertex 10 -24.3967 9
      vertex 13.25 -22.9497 18
      vertex 13.25 -22.9497 2
    endloop
  endfacet
  facet normal -0.406737 0.913545 0
    outer loop
      vertex 10 -24.3967 9
      vertex 13.25 -22.9497 2
      vertex 8.18895 -25.203 9
    endloop
  endfacet
  facet normal -0.406737 0.913545 0
    outer loop
      vertex 13.25 -22.9497 2
      vertex 8.18895 -25.203 2
      vertex 8.18895 -25.203 9
    endloop
  endfacet
  facet normal -0.207912 0.978148 0
    outer loop
      vertex 8.18895 -25.203 18
      vertex 8.18895 -25.203 10
      vertex 2.77 -26.3548 18
    endloop
  endfacet
  facet normal -0.207912 0.978148 0
    outer loop
      vertex 2.77 -26.3548 18
      vertex 8.18895 -25.203 10
      vertex 2.77 -26.3548 10
    endloop
  endfacet
  facet normal 0 1 0
    outer loop
      vertex 2.77 -26.3548 18
      vertex 2.77 -26.3548 10
      vertex -2.77 -26.3548 18
    endloop
  endfacet
  facet normal 0 1 0
    outer loop
      vertex -2.77 -26.3548 18
      vertex 2.77 -26.3548 10
      vertex -2.77 -26.3548 10
    endloop
  endfacet
  facet normal 0.207912 0.978148 0
    outer loop
      vertex -2.77 -26.3548 18
      vertex -2.77 -26.3548 10
      vertex -8.18895 -25.203 18
    endloop
  endfacet
  facet normal 0.207912 0.978148 0
    outer loop
      vertex -8.18895 -25.203 18
      vertex -2.77 -26.3548 10
      vertex -8.18895 -25.203 10
    endloop
  endfacet
  facet normal 0 0 1
    outer loop
      vertex -28.3663 6.02944 18
      vertex -29 0 18
      vertex -28.3663 -6.02944 18
    endloop
  endfacet
  facet normal 0 0 1
    outer loop
      vertex -25.9209 -5.50966 18
      vertex -28.3663 6.02944 18
      vertex -26.4928 -11.7954 18
    endloop
  endfacet
  facet normal 0 0 1
    outer loop
      vertex -26.4928 -11.7954 18
      vertex -28.3663 6.02944 18
      vertex -28.3663 -6.02944 18
    endloop
  endfacet
  facet normal 0 0 1
    outer loop
      vertex -25.9209 5.50966 18
      vertex -24.209 10.7785 18
      vertex -28.3663 6.02944 18
    endloop
  endfacet
  facet normal 0 0 1
    outer loop
      vertex -17.732 -19.6933 18
      vertex -21.4389 -15.5763 18
      vertex -19.4048 -21.5512 18
    endloop
  endfacet
  facet normal 0 0 1
    outer loop
      vertex 24.209 10.7785 18
      vertex 25.9209 5.50966 18
      vertex 28.3663 6.02944 18
    endloop
  endfacet
  facet normal 0 0 1
    outer loop
      vertex 21.4389 15.5763 18
      vertex 24.209 10.7785 18
      vertex 26.4928 11.7954 18
    endloop
  endfacet
  facet normal 0 0 1
    outer loop
      vertex 17.732 19.6933 18
      vertex 21.4389 15.5763 18
      vertex 23.4615 17.0458 18
    endloop
  endfacet
  facet normal 0 0 1
    outer loop
      vertex 13.25 22.9497 18
      vertex 17.732 19.6933 18
      vertex 19.4048 21.5512 18
    endloop
  endfacet
  facet normal 0 0 1
    outer loop
      vertex 8.18895 25.203 18
      vertex 13.25 22.9497 18
      vertex 14.5 25.1147 18
    endloop
  endfacet
  facet normal 0 0 1
    outer loop
      vertex 2.77 26.3548 18
      vertex 8.18895 25.203 18
      vertex 8.96149 27.5806 18
    endloop
  endfacet
  facet normal 0 0 1
    outer loop
      vertex 25.9209 5.50966 18
      vertex 26.5 0 18
      vertex 29 0 18
    endloop
  endfacet
  facet normal 0 0 1
    outer loop
      vertex -13.25 22.9497 18
      vertex -8.18895 25.203 18
      vertex -8.96149 27.5806 18
    endloop
  endfacet
  facet normal 0 0 1
    outer loop
      vertex -23.4615 17.0458 18
      vertex -28.3663 6.02944 18
      vertex -19.4048 21.5512 18
    endloop
  endfacet
  facet normal 0 0 1
    outer loop
      vertex -26.4928 11.7954 18
      vertex -28.3663 6.02944 18
      vertex -23.4615 17.0458 18
    endloop
  endfacet
  facet normal 0 0 1
    outer loop
      vertex -23.4615 -17.0458 18
      vertex -25.9209 -5.50966 18
      vertex -26.4928 -11.7954 18
    endloop
  endfacet
  facet normal 0 0 1
    outer loop
      vertex 21.4389 -15.5763 18
      vertex 17.732 -19.6933 18
      vertex 23.4615 -17.0458 18
    endloop
  endfacet
  facet normal 0 0 1
    outer loop
      vertex 24.209 -10.7785 18
      vertex 21.4389 -15.5763 18
      vertex 26.4928 -11.7954 18
    endloop
  endfacet
  facet normal 0 0 1
    outer loop
      vertex -8.18895 25.203 18
      vertex -2.77 26.3548 18
      vertex -3.03132 28.8411 18
    endloop
  endfacet
  facet normal 0 0 1
    outer loop
      vertex -21.4389 15.5763 18
      vertex -17.732 19.6933 18
      vertex -14.5 25.1147 18
    endloop
  endfacet
  facet normal 0 0 1
    outer loop
      vertex -19.4048 21.5512 18
      vertex -21.4389 15.5763 18
      vertex -14.5 25.1147 18
    endloop
  endfacet
  facet normal 0 0 1
    outer loop
      vertex -19.4048 21.5512 18
      vertex -28.3663 6.02944 18
      vertex -21.4389 15.5763 18
    endloop
  endfacet
  facet normal 0 0 1
    outer loop
      vertex -14.5 25.1147 18
      vertex -17.732 19.6933 18
      vertex -8.96149 27.5806 18
    endloop
  endfacet
  facet normal 0 0 1
    outer loop
      vertex -17.732 19.6933 18
      vertex -13.25 22.9497 18
      vertex -8.96149 27.5806 18
    endloop
  endfacet
  facet normal 0 0 1
    outer loop
      vertex -8.96149 27.5806 18
      vertex -8.18895 25.203 18
      vertex -3.03132 28.8411 18
    endloop
  endfacet
  facet normal 0 0 1
    outer loop
      vertex -24.209 10.7785 18
      vertex -21.4389 15.5763 18
      vertex -28.3663 6.02944 18
    endloop
  endfacet
  facet normal 0 0 1
    outer loop
      vertex -3.03132 28.8411 18
      vertex -2.77 26.3548 18
      vertex 3.03132 28.8411 18
    endloop
  endfacet
  facet normal 0 0 1
    outer loop
      vertex 3.03132 28.8411 18
      vertex 2.77 26.3548 18
      vertex 8.96149 27.5806 18
    endloop
  endfacet
  facet normal 0 0 1
    outer loop
      vertex 8.96149 27.5806 18
      vertex 8.18895 25.203 18
      vertex 14.5 25.1147 18
    endloop
  endfacet
  facet normal 0 0 1
    outer loop
      vertex 14.5 25.1147 18
      vertex 13.25 22.9497 18
      vertex 19.4048 21.5512 18
    endloop
  endfacet
  facet normal 0 0 1
    outer loop
      vertex 19.4048 21.5512 18
      vertex 17.732 19.6933 18
      vertex 23.4615 17.0458 18
    endloop
  endfacet
  facet normal 0 0 1
    outer loop
      vertex 23.4615 17.0458 18
      vertex 21.4389 15.5763 18
      vertex 26.4928 11.7954 18
    endloop
  endfacet
  facet normal 0 0 1
    outer loop
      vertex 26.4928 11.7954 18
      vertex 24.209 10.7785 18
      vertex 28.3663 6.02944 18
    endloop
  endfacet
  facet normal 0 0 1
    outer loop
      vertex 28.3663 6.02944 18
      vertex 25.9209 5.50966 18
      vertex 29 0 18
    endloop
  endfacet
  facet normal 0 0 1
    outer loop
      vertex 29 0 18
      vertex 26.5 0 18
      vertex 28.3663 -6.02944 18
    endloop
  endfacet
  facet normal 0 0 1
    outer loop
      vertex 28.3663 -6.02944 18
      vertex 25.9209 -5.50966 18
      vertex 26.4928 -11.7954 18
    endloop
  endfacet
  facet normal 0 0 1
    outer loop
      vertex -2.77 26.3548 18
      vertex 2.77 26.3548 18
      vertex 3.03132 28.8411 18
    endloop
  endfacet
  facet normal 0 0 1
    outer loop
      vertex 25.9209 -5.50966 18
      vertex 24.209 -10.7785 18
      vertex 26.4928 -11.7954 18
    endloop
  endfacet
  facet normal 0 0 1
    outer loop
      vertex 26.4928 -11.7954 18
      vertex 21.4389 -15.5763 18
      vertex 23.4615 -17.0458 18
    endloop
  endfacet
  facet normal 0 0 1
    outer loop
      vertex 23.4615 -17.0458 18
      vertex 17.732 -19.6933 18
      vertex 19.4048 -21.5512 18
    endloop
  endfacet
  facet normal 0 0 1
    outer loop
      vertex 19.4048 -21.5512 18
      vertex 13.25 -22.9497 18
      vertex 14.5 -25.1147 18
    endloop
  endfacet
  facet normal 0 0 1
    outer loop
      vertex 14.5 -25.1147 18
      vertex 8.18895 -25.203 18
      vertex 8.96149 -27.5806 18
    endloop
  endfacet
  facet normal 0 0 1
    outer loop
      vertex 8.96149 -27.5806 18
      vertex 2.77 -26.3548 18
      vertex 3.03132 -28.8411 18
    endloop
  endfacet
  facet normal 0 0 1
    outer loop
      vertex 3.03132 -28.8411 18
      vertex -2.77 -26.3548 18
      vertex -3.03132 -28.8411 18
    endloop
  endfacet
  facet normal 0 0 1
    outer loop
      vertex -3.03132 -28.8411 18
      vertex -8.18895 -25.203 18
      vertex -8.96149 -27.5806 18
    endloop
  endfacet
  facet normal 0 0 1
    outer loop
      vertex -8.96149 -27.5806 18
      vertex -13.25 -22.9497 18
      vertex -14.5 -25.1147 18
    endloop
  endfacet
  facet normal 0 0 1
    outer loop
      vertex 26.5 0 18
      vertex 25.9209 -5.50966 18
      vertex 28.3663 -6.02944 18
    endloop
  endfacet
  facet normal 0 0 1
    outer loop
      vertex -14.5 -25.1147 18
      vertex -17.732 -19.6933 18
      vertex -19.4048 -21.5512 18
    endloop
  endfacet
  facet normal 0 0 1
    outer loop
      vertex -19.4048 -21.5512 18
      vertex -21.4389 -15.5763 18
      vertex -23.4615 -17.0458 18
    endloop
  endfacet
  facet normal 0 0 1
    outer loop
      vertex -21.4389 -15.5763 18
      vertex -24.209 -10.7785 18
      vertex -23.4615 -17.0458 18
    endloop
  endfacet
  facet normal 0 0 1
    outer loop
      vertex -25.9209 -5.50966 18
      vertex -26.5 0 18
      vertex -28.3663 6.02944 18
    endloop
  endfacet
  facet normal 0 0 1
    outer loop
      vertex -24.209 -10.7785 18
      vertex -25.9209 -5.50966 18
      vertex -23.4615 -17.0458 18
    endloop
  endfacet
  facet normal 0 0 1
    outer loop
      vertex 17.732 -19.6933 18
      vertex 13.25 -22.9497 18
      vertex 19.4048 -21.5512 18
    endloop
  endfacet
  facet normal 0 0 1
    outer loop
      vertex 13.25 -22.9497 18
      vertex 8.18895 -25.203 18
      vertex 14.5 -25.1147 18
    endloop
  endfacet
  facet normal 0 0 1
    outer loop
      vertex 8.18895 -25.203 18
      vertex 2.77 -26.3548 18
      vertex 8.96149 -27.5806 18
    endloop
  endfacet
  facet normal 0 0 1
    outer loop
      vertex 2.77 -26.3548 18
      vertex -2.77 -26.3548 18
      vertex 3.03132 -28.8411 18
    endloop
  endfacet
  facet normal 0 0 1
    outer loop
      vertex -2.77 -26.3548 18
      vertex -8.18895 -25.203 18
      vertex -3.03132 -28.8411 18
    endloop
  endfacet
  facet normal 0 0 1
    outer loop
      vertex -8.18895 -25.203 18
      vertex -13.25 -22.9497 18
      vertex -8.96149 -27.5806 18
    endloop
  endfacet
  facet normal 0 0 1
    outer loop
      vertex -13.25 -22.9497 18
      vertex -17.732 -19.6933 18
      vertex -14.5 -25.1147 18
    endloop
  endfacet
  facet normal 0 0 1
    outer loop
      vertex -26.5 0 18
      vertex -25.9209 5.50966 18
      vertex -28.3663 6.02944 18
    endloop
  endfacet
  facet normal 0.587785 0.809017 0
    outer loop
      vertex -13.25 -22.9497 18
      vertex -13.25 -22.9497 2
      vertex -17.732 -19.6933 18
    endloop
  endfacet
  facet normal 0.587785 0.809017 0
    outer loop
      vertex -17.732 -19.6933 18
      vertex -13.25 -22.9497 2
      vertex -17.732 -19.6933 2
    endloop
  endfacet
  facet normal 0 0 1
    outer loop
      vertex -25.9209 -5.50966 2
      vertex -24.209 -10.7785 2
      vertex -21.4389 -15.5763 2
    endloop
  endfacet
  facet normal 0 0 1
    outer loop
      vertex -13.25 -22.9497 2
      vertex -25.9209 -5.50966 2
      vertex -17.732 -19.6933 2
    endloop
  endfacet
  facet normal 0 0 1
    outer loop
      vertex -17.732 -19.6933 2
      vertex -25.9209 -5.50966 2
      vertex -21.4389 -15.5763 2
    endloop
  endfacet
  facet normal 0 0 1
    outer loop
      vertex -8.18895 -25.203 2
      vertex -25.9209 -5.50966 2
      vertex -13.25 -22.9497 2
    endloop
  endfacet
  facet normal 0 0 1
    outer loop
      vertex -2.77 -26.3548 2
      vertex -25.9209 -5.50966 2
      vertex -8.18895 -25.203 2
    endloop
  endfacet
  facet normal 0 0 1
    outer loop
      vertex 2.77 -26.3548 2
      vertex -25.9209 -5.50966 2
      vertex -2.77 -26.3548 2
    endloop
  endfacet
  facet normal 0 0 1
    outer loop
      vertex 8.18895 -25.203 2
      vertex -25.9209 -5.50966 2
      vertex 2.77 -26.3548 2
    endloop
  endfacet
  facet normal 0 0 1
    outer loop
      vertex 13.25 -22.9497 2
      vertex -25.9209 -5.50966 2
      vertex 8.18895 -25.203 2
    endloop
  endfacet
  facet normal 0 0 1
    outer loop
      vertex 17.732 -19.6933 2
      vertex -25.9209 -5.50966 2
      vertex 13.25 -22.9497 2
    endloop
  endfacet
  facet normal 0 0 1
    outer loop
      vertex 21.4389 -15.5763 2
      vertex -25.9209 -5.50966 2
      vertex 17.732 -19.6933 2
    endloop
  endfacet
  facet normal 0 0 1
    outer loop
      vertex 24.209 -10.7785 2
      vertex -25.9209 -5.50966 2
      vertex 21.4389 -15.5763 2
    endloop
  endfacet
  facet normal 0 0 1
    outer loop
      vertex 25.9209 -5.50966 2
      vertex -25.9209 -5.50966 2
      vertex 24.209 -10.7785 2
    endloop
  endfacet
  facet normal 0 0 1
    outer loop
      vertex 13 -4.5 2
      vertex -25.9209 -5.50966 2
      vertex 25.9209 -5.50966 2
    endloop
  endfacet
  facet normal 0 0 1
    outer loop
      vertex 13 14.5 2
      vertex 13 -4.5 2
      vertex 26.5 0 2
    endloop
  endfacet
  facet normal 0 0 1
    outer loop
      vertex 13 14.5 2
      vertex 26.5 0 2
      vertex 25.9209 5.50966 2
    endloop
  endfacet
  facet normal 0 0 1
    outer loop
      vertex 13 14.5 2
      vertex 25.9209 5.50966 2
      vertex 24.209 10.7785 2
    endloop
  endfacet
  facet normal 0 0 1
    outer loop
      vertex -13.25 22.9497 2
      vertex -25.9209 -5.50966 2
      vertex -8.18895 25.203 2
    endloop
  endfacet
  facet normal 0 0 1
    outer loop
      vertex -17.732 19.6933 2
      vertex -25.9209 -5.50966 2
      vertex -13.25 22.9497 2
    endloop
  endfacet
  facet normal 0 0 1
    outer loop
      vertex -21.4389 15.5763 2
      vertex -25.9209 -5.50966 2
      vertex -17.732 19.6933 2
    endloop
  endfacet
  facet normal 0 0 1
    outer loop
      vertex -24.209 10.7785 2
      vertex -25.9209 -5.50966 2
      vertex -21.4389 15.5763 2
    endloop
  endfacet
  facet normal 0 0 1
    outer loop
      vertex -25.9209 5.50966 2
      vertex -25.9209 -5.50966 2
      vertex -24.209 10.7785 2
    endloop
  endfacet
  facet normal 0 0 1
    outer loop
      vertex -26.5 0 2
      vertex -25.9209 -5.50966 2
      vertex -25.9209 5.50966 2
    endloop
  endfacet
  facet normal 0 0 1
    outer loop
      vertex -8.18895 25.203 2
      vertex -13 14.5 2
      vertex -2.77 26.3548 2
    endloop
  endfacet
  facet normal 0 0 1
    outer loop
      vertex -8.18895 25.203 2
      vertex -25.9209 -5.50966 2
      vertex -13 14.5 2
    endloop
  endfacet
  facet normal 0 0 1
    outer loop
      vertex 17.732 19.6933 2
      vertex 13 14.5 2
      vertex 21.4389 15.5763 2
    endloop
  endfacet
  facet normal 0 0 1
    outer loop
      vertex 26.5 0 2
      vertex 13 -4.5 2
      vertex 25.9209 -5.50966 2
    endloop
  endfacet
  facet normal 0 0 1
    outer loop
      vertex -13 -4.5 2
      vertex -25.9209 -5.50966 2
      vertex 13 -4.5 2
    endloop
  endfacet
  facet normal 0 0 1
    outer loop
      vertex -13 14.5 2
      vertex 2.77 26.3548 2
      vertex -2.77 26.3548 2
    endloop
  endfacet
  facet normal 0 0 1
    outer loop
      vertex -13 14.5 2
      vertex 8.18895 25.203 2
      vertex 2.77 26.3548 2
    endloop
  endfacet
  facet normal 0 0 1
    outer loop
      vertex -13 14.5 2
      vertex 13.25 22.9497 2
      vertex 8.18895 25.203 2
    endloop
  endfacet
  facet normal 0 0 1
    outer loop
      vertex -13 14.5 2
      vertex 17.732 19.6933 2
      vertex 13.25 22.9497 2
    endloop
  endfacet
  facet normal 0 0 1
    outer loop
      vertex -13 14.5 2
      vertex 13 14.5 2
      vertex 17.732 19.6933 2
    endloop
  endfacet
  facet normal 0 0 1
    outer loop
      vertex 13 14.5 2
      vertex 24.209 10.7785 2
      vertex 21.4389 15.5763 2
    endloop
  endfacet
  facet normal 0 0 1
    outer loop
      vertex -13 -4.5 2
      vertex -13 14.5 2
      vertex -25.9209 -5.50966 2
    endloop
  endfacet
  facet normal -0.587785 0.809017 0
    outer loop
      vertex 17.732 -19.6933 18
      vertex 17.732 -19.6933 2
      vertex 13.25 -22.9497 18
    endloop
  endfacet
  facet normal -0.587785 0.809017 0
    outer loop
      vertex 13.25 -22.9497 18
      vertex 17.732 -19.6933 2
      vertex 13.25 -22.9497 2
    endloop
  endfacet
  facet normal 0.994522 0.104529 0
    outer loop
      vertex -26.5 0 18
      vertex -25.9209 -5.50966 18
      vertex -25.9209 -5.50966 2
    endloop
  endfacet
  facet normal 0.994522 0.104529 0
    outer loop
      vertex -26.5 0 2
      vertex -26.5 0 18
      vertex -25.9209 -5.50966 2
    endloop
  endfacet
  facet normal 0.951057 0.309017 0
    outer loop
      vertex -25.9209 -5.50966 18
      vertex -24.209 -10.7785 18
      vertex -24.209 -10.7785 2
    endloop
  endfacet
  facet normal 0.951057 0.309017 0
    outer loop
      vertex -25.9209 -5.50966 2
      vertex -25.9209 -5.50966 18
      vertex -24.209 -10.7785 2
    endloop
  endfacet
  facet normal 0.866025 0.5 0
    outer loop
      vertex -24.209 -10.7785 18
      vertex -21.4389 -15.5763 18
      vertex -21.4389 -15.5763 2
    endloop
  endfacet
  facet normal 0.866025 0.5 0
    outer loop
      vertex -24.209 -10.7785 2
      vertex -24.209 -10.7785 18
      vertex -21.4389 -15.5763 2
    endloop
  endfacet
  facet normal 0.743145 0.669131 0
    outer loop
      vertex -21.4389 -15.5763 18
      vertex -17.732 -19.6933 18
      vertex -17.732 -19.6933 2
    endloop
  endfacet
  facet normal 0.743145 0.669131 0
    outer loop
      vertex -21.4389 -15.5763 2
      vertex -21.4389 -15.5763 18
      vertex -17.732 -19.6933 2
    endloop
  endfacet
  facet normal -0.743145 0.669131 0
    outer loop
      vertex 21.4389 -15.5763 18
      vertex 21.4389 -15.5763 2
      vertex 17.732 -19.6933 18
    endloop
  endfacet
  facet normal -0.743145 0.669131 0
    outer loop
      vertex 17.732 -19.6933 18
      vertex 21.4389 -15.5763 2
      vertex 17.732 -19.6933 2
    endloop
  endfacet
  facet normal -0.866025 0.5 0
    outer loop
      vertex 24.209 -10.7785 18
      vertex 24.209 -10.7785 2
      vertex 21.4389 -15.5763 18
    endloop
  endfacet
  facet normal -0.866025 0.5 0
    outer loop
      vertex 21.4389 -15.5763 18
      vertex 24.209 -10.7785 2
      vertex 21.4389 -15.5763 2
    endloop
  endfacet
  facet normal -0.951057 0.309017 0
    outer loop
      vertex 25.9209 -5.50966 18
      vertex 25.9209 -5.50966 2
      vertex 24.209 -10.7785 18
    endloop
  endfacet
  facet normal -0.951057 0.309017 0
    outer loop
      vertex 24.209 -10.7785 18
      vertex 25.9209 -5.50966 2
      vertex 24.209 -10.7785 2
    endloop
  endfacet
  facet normal -0.994522 0.104529 0
    outer loop
      vertex 26.5 0 18
      vertex 26.5 0 2
      vertex 25.9209 -5.50966 18
    endloop
  endfacet
  facet normal -0.994522 0.104529 0
    outer loop
      vertex 25.9209 -5.50966 18
      vertex 26.5 0 2
      vertex 25.9209 -5.50966 2
    endloop
  endfacet
  facet normal -0.994522 -0.104529 0
    outer loop
      vertex 26.5 0 18
      vertex 25.9209 5.50966 18
      vertex 26.5 0 2
    endloop
  endfacet
  facet normal -0.994522 -0.104529 0
    outer loop
      vertex 26.5 0 2
      vertex 25.9209 5.50966 18
      vertex 25.9209 5.50966 2
    endloop
  endfacet
  facet normal -0.951057 -0.309017 0
    outer loop
      vertex 25.9209 5.50966 18
      vertex 24.209 10.7785 18
      vertex 25.9209 5.50966 2
    endloop
  endfacet
  facet normal -0.951057 -0.309017 0
    outer loop
      vertex 25.9209 5.50966 2
      vertex 24.209 10.7785 18
      vertex 24.209 10.7785 2
    endloop
  endfacet
  facet normal -0.866025 -0.5 0
    outer loop
      vertex 24.209 10.7785 18
      vertex 21.4389 15.5763 18
      vertex 24.209 10.7785 2
    endloop
  endfacet
  facet normal -0.866025 -0.5 0
    outer loop
      vertex 24.209 10.7785 2
      vertex 21.4389 15.5763 18
      vertex 21.4389 15.5763 2
    endloop
  endfacet
  facet normal -0.743145 -0.669131 0
    outer loop
      vertex 21.4389 15.5763 18
      vertex 17.732 19.6933 18
      vertex 21.4389 15.5763 2
    endloop
  endfacet
  facet normal -0.743145 -0.669131 0
    outer loop
      vertex 21.4389 15.5763 2
      vertex 17.732 19.6933 18
      vertex 17.732 19.6933 2
    endloop
  endfacet
  facet normal -0.587785 -0.809017 0
    outer loop
      vertex 17.732 19.6933 2
      vertex 17.732 19.6933 18
      vertex 13.25 22.9497 18
    endloop
  endfacet
  facet normal -0.587785 -0.809017 0
    outer loop
      vertex 13.25 22.9497 2
      vertex 17.732 19.6933 2
      vertex 13.25 22.9497 18
    endloop
  endfacet
  facet normal -0.406737 -0.913545 0
    outer loop
      vertex 13.25 22.9497 2
      vertex 13.25 22.9497 18
      vertex 8.18895 25.203 18
    endloop
  endfacet
  facet normal -0.406737 -0.913545 0
    outer loop
      vertex 8.18895 25.203 2
      vertex 13.25 22.9497 2
      vertex 8.18895 25.203 18
    endloop
  endfacet
  facet normal -0.207912 -0.978148 0
    outer loop
      vertex 8.18895 25.203 2
      vertex 8.18895 25.203 18
      vertex 2.77 26.3548 18
    endloop
  endfacet
  facet normal -0.207912 -0.978148 0
    outer loop
      vertex 2.77 26.3548 2
      vertex 8.18895 25.203 2
      vertex 2.77 26.3548 18
    endloop
  endfacet
  facet normal 0 -1 0
    outer loop
      vertex 2.77 26.3548 2
      vertex 2.77 26.3548 18
      vertex -2.77 26.3548 18
    endloop
  endfacet
  facet normal 0 -1 0
    outer loop
      vertex -2.77 26.3548 2
      vertex 2.77 26.3548 2
      vertex -2.77 26.3548 18
    endloop
  endfacet
  facet normal 0.207912 -0.978148 0
    outer loop
      vertex -2.77 26.3548 2
      vertex -2.77 26.3548 18
      vertex -8.18895 25.203 18
    endloop
  endfacet
  facet normal 0.207912 -0.978148 0
    outer loop
      vertex -8.18895 25.203 2
      vertex -2.77 26.3548 2
      vertex -8.18895 25.203 18
    endloop
  endfacet
  facet normal 0.406737 -0.913545 0
    outer loop
      vertex -8.18895 25.203 2
      vertex -8.18895 25.203 18
      vertex -13.25 22.9497 18
    endloop
  endfacet
  facet normal 0.406737 -0.913545 0
    outer loop
      vertex -13.25 22.9497 2
      vertex -8.18895 25.203 2
      vertex -13.25 22.9497 18
    endloop
  endfacet
  facet normal 0.587785 -0.809017 0
    outer loop
      vertex -13.25 22.9497 2
      vertex -13.25 22.9497 18
      vertex -17.732 19.6933 18
    endloop
  endfacet
  facet normal 0.587785 -0.809017 0
    outer loop
      vertex -17.732 19.6933 2
      vertex -13.25 22.9497 2
      vertex -17.732 19.6933 18
    endloop
  endfacet
  facet normal 0.743145 -0.669131 0
    outer loop
      vertex -17.732 19.6933 2
      vertex -17.732 19.6933 18
      vertex -21.4389 15.5763 18
    endloop
  endfacet
  facet normal 0.743145 -0.669131 0
    outer loop
      vertex -21.4389 15.5763 2
      vertex -17.732 19.6933 2
      vertex -21.4389 15.5763 18
    endloop
  endfacet
  facet normal 0.866025 -0.5 0
    outer loop
      vertex -21.4389 15.5763 2
      vertex -21.4389 15.5763 18
      vertex -24.209 10.7785 18
    endloop
  endfacet
  facet normal 0.866025 -0.5 0
    outer loop
      vertex -24.209 10.7785 2
      vertex -21.4389 15.5763 2
      vertex -24.209 10.7785 18
    endloop
  endfacet
  facet normal 0.951057 -0.309017 0
    outer loop
      vertex -24.209 10.7785 2
      vertex -24.209 10.7785 18
      vertex -25.9209 5.50966 18
    endloop
  endfacet
  facet normal 0.951057 -0.309017 0
    outer loop
      vertex -25.9209 5.50966 2
      vertex -24.209 10.7785 2
      vertex -25.9209 5.50966 18
    endloop
  endfacet
  facet normal 0.994522 -0.104529 0
    outer loop
      vertex -25.9209 5.50966 2
      vertex -25.9209 5.50966 18
      vertex -26.5 0 18
    endloop
  endfacet
  facet normal 0.994522 -0.104529 0
    outer loop
      vertex -26.5 0 2
      vertex -25.9209 5.50966 2
      vertex -26.5 0 18
    endloop
  endfacet
  facet normal -1 0 0
    outer loop
      vertex -13 -4.5 2
      vertex -13 -4.5 5
      vertex -13 14.5 2
    endloop
  endfacet
  facet normal -1 0 0
    outer loop
      vertex -13 14.5 2
      vertex -13 -4.5 5
      vertex -13 14.5 5
    endloop
  endfacet
  facet normal 0 1 0
    outer loop
      vertex -13 14.5 2
      vertex -13 14.5 5
      vertex 13 14.5 2
    endloop
  endfacet
  facet normal 0 1 0
    outer loop
      vertex 13 14.5 2
      vertex -13 14.5 5
      vertex 13 14.5 5
    endloop
  endfacet
  facet normal 0 -1 0
    outer loop
      vertex -13 -4.5 5
      vertex -13 -4.5 2
      vertex 13 -4.5 2
    endloop
  endfacet
  facet normal 0 -1 0
    outer loop
      vertex 13 -4.5 5
      vertex -13 -4.5 5
      vertex 13 -4.5 2
    endloop
  endfacet
  facet normal 1 0 0
    outer loop
      vertex 13 -4.5 5
      vertex 13 -4.5 2
      vertex 13 14.5 2
    endloop
  endfacet
  facet normal 1 0 0
    outer loop
      vertex 13 14.5 5
      vertex 13 -4.5 5
      vertex 13 14.5 2
    endloop
  endfacet
  facet normal 0 0 1
    outer loop
      vertex -10.5365 -3.42658 5
      vertex -13 -4.5 5
      vertex 13 -4.5 5
    endloop
  endfacet
  facet normal 0 0 1
    outer loop
      vertex 9.78647 -2.88168 5
      vertex -9.5 12 5
      vertex -10.5365 10.5734 5
    endloop
  endfacet
  facet normal 0 0 1
    outer loop
      vertex 11.4635 -3.42658 5
      vertex 9.78647 -2.88168 5
      vertex 13 -4.5 5
    endloop
  endfacet
  facet normal 0 0 1
    outer loop
      vertex -13 14.5 5
      vertex -13 -4.5 5
      vertex -12.2135 -2.88168 5
    endloop
  endfacet
  facet normal 0 0 1
    outer loop
      vertex -9.5 -2 5
      vertex -10.5365 -3.42658 5
      vertex 13 -4.5 5
    endloop
  endfacet
  facet normal 0 0 1
    outer loop
      vertex -13 14.5 5
      vertex -12.2135 -2.88168 5
      vertex -12.2135 -1.11832 5
    endloop
  endfacet
  facet normal 0 0 1
    outer loop
      vertex 9.78647 -2.88168 5
      vertex -10.5365 -0.573415 5
      vertex 13 -4.5 5
    endloop
  endfacet
  facet normal 0 0 1
    outer loop
      vertex -13 14.5 5
      vertex -12.2135 -1.11832 5
      vertex -10.5365 -0.573415 5
    endloop
  endfacet
  facet normal 0 0 1
    outer loop
      vertex 12.5 -2 5
      vertex 11.4635 -3.42658 5
      vertex 13 -4.5 5
    endloop
  endfacet
  facet normal 0 0 1
    outer loop
      vertex -12.2135 -2.88168 5
      vertex -13 -4.5 5
      vertex -10.5365 -3.42658 5
    endloop
  endfacet
  facet normal 0 0 1
    outer loop
      vertex -13 14.5 5
      vertex -10.5365 -0.573415 5
      vertex -12.2135 11.1183 5
    endloop
  endfacet
  facet normal 0 0 1
    outer loop
      vertex -13 14.5 5
      vertex -12.2135 11.1183 5
      vertex -12.2135 12.8817 5
    endloop
  endfacet
  facet normal 0 0 1
    outer loop
      vertex 13 14.5 5
      vertex -13 14.5 5
      vertex -10.5365 13.4266 5
    endloop
  endfacet
  facet normal 0 0 1
    outer loop
      vertex 9.78647 -2.88168 5
      vertex -10.5365 10.5734 5
      vertex -12.2135 11.1183 5
    endloop
  endfacet
  facet normal 0 0 1
    outer loop
      vertex 12.5 12 5
      vertex 11.4635 10.5734 5
      vertex 9.78647 -1.11832 5
    endloop
  endfacet
  facet normal 0 0 1
    outer loop
      vertex -12.2135 11.1183 5
      vertex -10.5365 -0.573415 5
      vertex 9.78647 -2.88168 5
    endloop
  endfacet
  facet normal 0 0 1
    outer loop
      vertex 9.78647 11.1183 5
      vertex -10.5365 13.4266 5
      vertex 9.78647 -1.11832 5
    endloop
  endfacet
  facet normal 0 0 1
    outer loop
      vertex 12.5 12 5
      vertex 9.78647 -1.11832 5
      vertex 11.4635 -0.573415 5
    endloop
  endfacet
  facet normal 0 0 1
    outer loop
      vertex 13 14.5 5
      vertex 12.5 -2 5
      vertex 13 -4.5 5
    endloop
  endfacet
  facet normal 0 0 1
    outer loop
      vertex 13 14.5 5
      vertex 11.4635 -0.573415 5
      vertex 12.5 -2 5
    endloop
  endfacet
  facet normal 0 0 1
    outer loop
      vertex 11.4635 13.4266 5
      vertex 12.5 12 5
      vertex 13 14.5 5
    endloop
  endfacet
  facet normal 0 0 1
    outer loop
      vertex 9.78647 -2.88168 5
      vertex -10.5365 13.4266 5
      vertex -9.5 12 5
    endloop
  endfacet
  facet normal 0 0 1
    outer loop
      vertex 11.4635 10.5734 5
      vertex 9.78647 11.1183 5
      vertex 9.78647 -1.11832 5
    endloop
  endfacet
  facet normal 0 0 1
    outer loop
      vertex 9.78647 12.8817 5
      vertex -10.5365 13.4266 5
      vertex 9.78647 11.1183 5
    endloop
  endfacet
  facet normal 0 0 1
    outer loop
      vertex 13 14.5 5
      vertex -10.5365 13.4266 5
      vertex 9.78647 12.8817 5
    endloop
  endfacet
  facet normal 0 0 1
    outer loop
      vertex 13 14.5 5
      vertex 9.78647 12.8817 5
      vertex 11.4635 13.4266 5
    endloop
  endfacet
  facet normal 0 0 1
    outer loop
      vertex 13 14.5 5
      vertex 12.5 12 5
      vertex 11.4635 -0.573415 5
    endloop
  endfacet
  facet normal 0 0 1
    outer loop
      vertex -10.5365 -0.573415 5
      vertex -9.5 -2 5
      vertex 13 -4.5 5
    endloop
  endfacet
  facet normal 0 0 1
    outer loop
      vertex -12.2135 12.8817 5
      vertex -10.5365 13.4266 5
      vertex -13 14.5 5
    endloop
  endfacet
  facet normal 0 0 1
    outer loop
      vertex 9.78647 -2.88168 5
      vertex 9.78647 -1.11832 5
      vertex -10.5365 13.4266 5
    endloop
  endfacet
  facet normal 1 0 0
    outer loop
      vertex -12.2135 -1.11832 2
      vertex -12.2135 -1.11832 5
      vertex -12.2135 -2.88168 5
    endloop
  endfacet
  facet normal 1 0 0
    outer loop
      vertex -12.2135 -2.88168 2
      vertex -12.2135 -1.11832 2
      vertex -12.2135 -2.88168 5
    endloop
  endfacet
  facet normal 0.309017 0.951056 0
    outer loop
      vertex -10.5365 -3.42658 5
      vertex -10.5365 -3.42658 2
      vertex -12.2135 -2.88168 5
    endloop
  endfacet
  facet normal 0.309017 0.951056 0
    outer loop
      vertex -12.2135 -2.88168 5
      vertex -10.5365 -3.42658 2
      vertex -12.2135 -2.88168 2
    endloop
  endfacet
  facet normal -0.809017 0.587785 0
    outer loop
      vertex -9.5 -2 5
      vertex -9.5 -2 2
      vertex -10.5365 -3.42658 5
    endloop
  endfacet
  facet normal -0.809017 0.587785 0
    outer loop
      vertex -10.5365 -3.42658 5
      vertex -9.5 -2 2
      vertex -10.5365 -3.42658 2
    endloop
  endfacet
  facet normal -0.809017 -0.587785 0
    outer loop
      vertex -9.5 -2 5
      vertex -10.5365 -0.573415 5
      vertex -9.5 -2 2
    endloop
  endfacet
  facet normal -0.809017 -0.587785 0
    outer loop
      vertex -9.5 -2 2
      vertex -10.5365 -0.573415 5
      vertex -10.5365 -0.573415 2
    endloop
  endfacet
  facet normal 0.309017 -0.951056 0
    outer loop
      vertex -10.5365 -0.573415 2
      vertex -10.5365 -0.573415 5
      vertex -12.2135 -1.11832 5
    endloop
  endfacet
  facet normal 0.309017 -0.951056 0
    outer loop
      vertex -12.2135 -1.11832 2
      vertex -10.5365 -0.573415 2
      vertex -12.2135 -1.11832 5
    endloop
  endfacet
  facet normal 1 0 0
    outer loop
      vertex -12.2135 12.8817 2
      vertex -12.2135 12.8817 5
      vertex -12.2135 11.1183 5
    endloop
  endfacet
  facet normal 1 0 0
    outer loop
      vertex -12.2135 11.1183 2
      vertex -12.2135 12.8817 2
      vertex -12.2135 11.1183 5
    endloop
  endfacet
  facet normal 0.309017 0.951056 0
    outer loop
      vertex -10.5365 10.5734 5
      vertex -10.5365 10.5734 2
      vertex -12.2135 11.1183 5
    endloop
  endfacet
  facet normal 0.309017 0.951056 0
    outer loop
      vertex -12.2135 11.1183 5
      vertex -10.5365 10.5734 2
      vertex -12.2135 11.1183 2
    endloop
  endfacet
  facet normal -0.809017 0.587785 0
    outer loop
      vertex -9.5 12 5
      vertex -9.5 12 2
      vertex -10.5365 10.5734 5
    endloop
  endfacet
  facet normal -0.809017 0.587785 0
    outer loop
      vertex -10.5365 10.5734 5
      vertex -9.5 12 2
      vertex -10.5365 10.5734 2
    endloop
  endfacet
  facet normal -0.809017 -0.587785 0
    outer loop
      vertex -9.5 12 5
      vertex -10.5365 13.4266 5
      vertex -9.5 12 2
    endloop
  endfacet
  facet normal -0.809017 -0.587785 0
    outer loop
      vertex -9.5 12 2
      vertex -10.5365 13.4266 5
      vertex -10.5365 13.4266 2
    endloop
  endfacet
  facet normal 0.309017 -0.951056 0
    outer loop
      vertex -10.5365 13.4266 2
      vertex -10.5365 13.4266 5
      vertex -12.2135 12.8817 5
    endloop
  endfacet
  facet normal 0.309017 -0.951056 0
    outer loop
      vertex -12.2135 12.8817 2
      vertex -10.5365 13.4266 2
      vertex -12.2135 12.8817 5
    endloop
  endfacet
  facet normal 0.309017 0.951056 0
    outer loop
      vertex 11.4635 -3.42658 5
      vertex 11.4635 -3.42658 2
      vertex 9.78647 -2.88168 5
    endloop
  endfacet
  facet normal 0.309017 0.951056 0
    outer loop
      vertex 9.78647 -2.88168 5
      vertex 11.4635 -3.42658 2
      vertex 9.78647 -2.88168 2
    endloop
  endfacet
  facet normal 1 0 0
    outer loop
      vertex 9.78647 -1.11832 2
      vertex 9.78647 -1.11832 5
      vertex 9.78647 -2.88168 5
    endloop
  endfacet
  facet normal 1 0 0
    outer loop
      vertex 9.78647 -2.88168 2
      vertex 9.78647 -1.11832 2
      vertex 9.78647 -2.88168 5
    endloop
  endfacet
  facet normal -0.809017 0.587785 0
    outer loop
      vertex 12.5 -2 5
      vertex 12.5 -2 2
      vertex 11.4635 -3.42658 5
    endloop
  endfacet
  facet normal -0.809017 0.587785 0
    outer loop
      vertex 11.4635 -3.42658 5
      vertex 12.5 -2 2
      vertex 11.4635 -3.42658 2
    endloop
  endfacet
  facet normal -0.809017 -0.587785 0
    outer loop
      vertex 12.5 -2 5
      vertex 11.4635 -0.573415 5
      vertex 12.5 -2 2
    endloop
  endfacet
  facet normal -0.809017 -0.587785 0
    outer loop
      vertex 12.5 -2 2
      vertex 11.4635 -0.573415 5
      vertex 11.4635 -0.573415 2
    endloop
  endfacet
  facet normal 0.309017 -0.951056 0
    outer loop
      vertex 11.4635 -0.573415 2
      vertex 11.4635 -0.573415 5
      vertex 9.78647 -1.11832 5
    endloop
  endfacet
  facet normal 0.309017 -0.951056 0
    outer loop
      vertex 9.78647 -1.11832 2
      vertex 11.4635 -0.573415 2
      vertex 9.78647 -1.11832 5
    endloop
  endfacet
  facet normal 1 0 0
    outer loop
      vertex 9.78647 12.8817 2
      vertex 9.78647 12.8817 5
      vertex 9.78647 11.1183 5
    endloop
  endfacet
  facet normal 1 0 0
    outer loop
      vertex 9.78647 11.1183 2
      vertex 9.78647 12.8817 2
      vertex 9.78647 11.1183 5
    endloop
  endfacet
  facet normal 0.309017 0.951056 0
    outer loop
      vertex 11.4635 10.5734 5
      vertex 11.4635 10.5734 2
      vertex 9.78647 11.1183 5
    endloop
  endfacet
  facet normal 0.309017 0.951056 0
    outer loop
      vertex 9.78647 11.1183 5
      vertex 11.4635 10.5734 2
      vertex 9.78647 11.1183 2
    endloop
  endfacet
  facet normal -0.809017 0.587785 0
    outer loop
      vertex 12.5 12 5
      vertex 12.5 12 2
      vertex 11.4635 10.5734 5
    endloop
  endfacet
  facet normal -0.809017 0.587785 0
    outer loop
      vertex 11.4635 10.5734 5
      vertex 12.5 12 2
      vertex 11.4635 10.5734 2
    endloop
  endfacet
  facet normal -0.809017 -0.587785 0
    outer loop
      vertex 12.5 12 5
      vertex 11.4635 13.4266 5
      vertex 12.5 12 2
    endloop
  endfacet
  facet normal -0.809017 -0.587785 0
    outer loop
      vertex 12.5 12 2
      vertex 11.4635 13.4266 5
      vertex 11.4635 13.4266 2
    endloop
  endfacet
  facet normal 0.309017 -0.951056 0
    outer loop
      vertex 11.4635 13.4266 2
      vertex 11.4635 13.4266 5
      vertex 9.78647 12.8817 5
    endloop
  endfacet
  facet normal 0.309017 -0.951056 0
    outer loop
      vertex 9.78647 12.8817 2
      vertex 11.4635 13.4266 2
      vertex 9.78647 12.8817 5
    endloop
  endfacet
  facet normal 0 0 1
    outer loop
      vertex -10.5365 -3.42658 2
      vertex -9.5 -2 2
      vertex -10.5365 -0.573415 2
    endloop
  endfacet
  facet normal 0 0 1
    outer loop
      vertex -12.2135 -2.88168 2
      vertex -10.5365 -3.42658 2
      vertex -12.2135 -1.11832 2
    endloop
  endfacet
  facet normal 0 0 1
    outer loop
      vertex -12.2135 -1.11832 2
      vertex -10.5365 -3.42658 2
      vertex -10.5365 -0.573415 2
    endloop
  endfacet
  facet normal 0 0 1
    outer loop
      vertex -10.5365 10.5734 2
      vertex -9.5 12 2
      vertex -10.5365 13.4266 2
    endloop
  endfacet
  facet normal 0 0 1
    outer loop
      vertex -12.2135 11.1183 2
      vertex -10.5365 10.5734 2
      vertex -12.2135 12.8817 2
    endloop
  endfacet
  facet normal 0 0 1
    outer loop
      vertex -12.2135 12.8817 2
      vertex -10.5365 10.5734 2
      vertex -10.5365 13.4266 2
    endloop
  endfacet
  facet normal 0 0 1
    outer loop
      vertex 11.4635 -3.42658 2
      vertex 12.5 -2 2
      vertex 11.4635 -0.573415 2
    endloop
  endfacet
  facet normal 0 0 1
    outer loop
      vertex 9.78647 -2.88168 2
      vertex 11.4635 -3.42658 2
      vertex 9.78647 -1.11832 2
    endloop
  endfacet
  facet normal 0 0 1
    outer loop
      vertex 9.78647 -1.11832 2
      vertex 11.4635 -3.42658 2
      vertex 11.4635 -0.573415 2
    endloop
  endfacet
  facet normal 0 0 1
    outer loop
      vertex 11.4635 10.5734 2
      vertex 12.5 12 2
      vertex 11.4635 13.4266 2
    endloop
  endfacet
  facet normal 0 0 1
    outer loop
      vertex 9.78647 11.1183 2
      vertex 11.4635 10.5734 2
      vertex 9.78647 12.8817 2
    endloop
  endfacet
  facet normal 0 0 1
    outer loop
      vertex 9.78647 12.8817 2
      vertex 11.4635 10.5734 2
      vertex 11.4635 13.4266 2
    endloop
  endfacet
endsolid OpenSCAD_Model
