solid OpenSCAD_Model
  facet normal 0 0 -1
    outer loop
      vertex -14.75 0 0
      vertex -14.4277 3.0667 0
      vertex -14.4277 -3.0667 0
    endloop
  endfacet
  facet normal 0 0 -1
    outer loop
      vertex -14.4277 -3.0667 0
      vertex -14.4277 3.0667 0
      vertex -13.4748 5.99937 0
    endloop
  endfacet
  facet normal 0 0 -1
    outer loop
      vertex -14.4277 -3.0667 0
      vertex -13.4748 5.99937 0
      vertex -11.933 8.66983 0
    endloop
  endfacet
  facet normal 0 0 -1
    outer loop
      vertex -14.4277 -3.0667 0
      vertex -11.933 8.66983 0
      vertex -9.86968 10.9614 0
    endloop
  endfacet
  facet normal 0 0 -1
    outer loop
      vertex -14.4277 -3.0667 0
      vertex -9.86968 10.9614 0
      vertex -7.375 12.7739 0
    endloop
  endfacet
  facet normal 0 0 -1
    outer loop
      vertex -14.4277 -3.0667 0
      vertex -7.375 12.7739 0
      vertex -4.558 14.0281 0
    endloop
  endfacet
  facet normal 0 0 -1
    outer loop
      vertex -14.4277 -3.0667 0
      vertex -4.558 14.0281 0
      vertex -1.5418 14.6692 0
    endloop
  endfacet
  facet normal 0 0 -1
    outer loop
      vertex -14.4277 -3.0667 0
      vertex -1.5418 14.6692 0
      vertex 1.5418 14.6692 0
    endloop
  endfacet
  facet normal 0 0 -1
    outer loop
      vertex -14.4277 -3.0667 0
      vertex 1.5418 14.6692 0
      vertex 4.558 14.0281 0
    endloop
  endfacet
  facet normal 0 0 -1
    outer loop
      vertex -14.4277 -3.0667 0
      vertex 4.558 14.0281 0
      vertex 7.375 12.7739 0
    endloop
  endfacet
  facet normal 0 0 -1
    outer loop
      vertex -2.375 4.11362 0
      vertex 7.375 12.7739 0
      vertex 9.86968 10.9614 0
    endloop
  endfacet
  facet normal 0 0 -1
    outer loop
      vertex 1.46783 4.51752 0
      vertex 9.86968 10.9614 0
      vertex 11.933 8.66983 0
    endloop
  endfacet
  facet normal 0 0 -1
    outer loop
      vertex 3.17837 3.52994 0
      vertex 11.933 8.66983 0
      vertex 13.4748 5.99937 0
    endloop
  endfacet
  facet normal 0 0 -1
    outer loop
      vertex 4.33934 1.932 0
      vertex 13.4748 5.99937 0
      vertex 14.4277 3.0667 0
    endloop
  endfacet
  facet normal 0 0 -1
    outer loop
      vertex 4.75 0 0
      vertex 14.4277 3.0667 0
      vertex 14.75 0 0
    endloop
  endfacet
  facet normal 0 0 -1
    outer loop
      vertex 4.33934 -1.932 0
      vertex 14.75 0 0
      vertex 14.4277 -3.0667 0
    endloop
  endfacet
  facet normal 0 0 -1
    outer loop
      vertex 1.46783 -4.51752 0
      vertex 14.4277 -3.0667 0
      vertex 13.4748 -5.99937 0
    endloop
  endfacet
  facet normal 0 0 -1
    outer loop
      vertex -0.49651 -4.72398 0
      vertex 13.4748 -5.99937 0
      vertex 11.933 -8.66983 0
    endloop
  endfacet
  facet normal 0 0 -1
    outer loop
      vertex -14.4277 -3.0667 0
      vertex 11.933 -8.66983 0
      vertex 9.86968 -10.9614 0
    endloop
  endfacet
  facet normal 0 0 -1
    outer loop
      vertex -14.4277 -3.0667 0
      vertex 9.86968 -10.9614 0
      vertex 7.375 -12.7739 0
    endloop
  endfacet
  facet normal 0 0 -1
    outer loop
      vertex -14.4277 -3.0667 0
      vertex 7.375 -12.7739 0
      vertex 4.558 -14.0281 0
    endloop
  endfacet
  facet normal 0 0 -1
    outer loop
      vertex -14.4277 -3.0667 0
      vertex 4.558 -14.0281 0
      vertex 1.5418 -14.6692 0
    endloop
  endfacet
  facet normal 0 0 -1
    outer loop
      vertex -14.4277 -3.0667 0
      vertex 1.5418 -14.6692 0
      vertex -1.5418 -14.6692 0
    endloop
  endfacet
  facet normal 0 0 -1
    outer loop
      vertex -14.4277 -3.0667 0
      vertex -1.5418 -14.6692 0
      vertex -4.558 -14.0281 0
    endloop
  endfacet
  facet normal 0 0 -1
    outer loop
      vertex -14.4277 -3.0667 0
      vertex -4.558 -14.0281 0
      vertex -7.375 -12.7739 0
    endloop
  endfacet
  facet normal 0 0 -1
    outer loop
      vertex -14.4277 -3.0667 0
      vertex -7.375 -12.7739 0
      vertex -9.86968 -10.9614 0
    endloop
  endfacet
  facet normal 0 0 -1
    outer loop
      vertex -14.4277 -3.0667 0
      vertex -9.86968 -10.9614 0
      vertex -11.933 -8.66983 0
    endloop
  endfacet
  facet normal 0 0 -1
    outer loop
      vertex -14.4277 -3.0667 0
      vertex -11.933 -8.66983 0
      vertex -13.4748 -5.99937 0
    endloop
  endfacet
  facet normal 0 0 -1
    outer loop
      vertex -4.6462 -0.987581 0
      vertex -14.4277 -3.0667 0
      vertex -4.6462 0.987581 0
    endloop
  endfacet
  facet normal 0 0 -1
    outer loop
      vertex -3.84283 -2.79198 0
      vertex -14.4277 -3.0667 0
      vertex -4.6462 -0.987581 0
    endloop
  endfacet
  facet normal 0 0 -1
    outer loop
      vertex -2.375 -4.11362 0
      vertex -14.4277 -3.0667 0
      vertex -3.84283 -2.79198 0
    endloop
  endfacet
  facet normal 0 0 -1
    outer loop
      vertex 4.33934 -1.932 0
      vertex 14.4277 -3.0667 0
      vertex 3.17837 -3.52994 0
    endloop
  endfacet
  facet normal 0 0 -1
    outer loop
      vertex 1.46783 -4.51752 0
      vertex 13.4748 -5.99937 0
      vertex -0.49651 -4.72398 0
    endloop
  endfacet
  facet normal 0 0 -1
    outer loop
      vertex -14.4277 -3.0667 0
      vertex -0.49651 -4.72398 0
      vertex 11.933 -8.66983 0
    endloop
  endfacet
  facet normal 0 0 -1
    outer loop
      vertex 3.17837 -3.52994 0
      vertex 14.4277 -3.0667 0
      vertex 1.46783 -4.51752 0
    endloop
  endfacet
  facet normal 0 0 -1
    outer loop
      vertex -0.49651 -4.72398 0
      vertex -14.4277 -3.0667 0
      vertex -2.375 -4.11362 0
    endloop
  endfacet
  facet normal 0 0 -1
    outer loop
      vertex 4.75 0 0
      vertex 14.75 0 0
      vertex 4.33934 -1.932 0
    endloop
  endfacet
  facet normal 0 0 -1
    outer loop
      vertex 4.33934 1.932 0
      vertex 14.4277 3.0667 0
      vertex 4.75 0 0
    endloop
  endfacet
  facet normal 0 0 -1
    outer loop
      vertex 1.46783 4.51752 0
      vertex 11.933 8.66983 0
      vertex 3.17837 3.52994 0
    endloop
  endfacet
  facet normal 0 0 -1
    outer loop
      vertex -0.49651 4.72398 0
      vertex 9.86968 10.9614 0
      vertex 1.46783 4.51752 0
    endloop
  endfacet
  facet normal 0 0 -1
    outer loop
      vertex -14.4277 -3.0667 0
      vertex 7.375 12.7739 0
      vertex -2.375 4.11362 0
    endloop
  endfacet
  facet normal 0 0 -1
    outer loop
      vertex -3.84283 2.79198 0
      vertex -14.4277 -3.0667 0
      vertex -2.375 4.11362 0
    endloop
  endfacet
  facet normal 0 0 -1
    outer loop
      vertex 3.17837 3.52994 0
      vertex 13.4748 5.99937 0
      vertex 4.33934 1.932 0
    endloop
  endfacet
  facet normal 0 0 -1
    outer loop
      vertex -4.6462 0.987581 0
      vertex -14.4277 -3.0667 0
      vertex -3.84283 2.79198 0
    endloop
  endfacet
  facet normal 0 0 -1
    outer loop
      vertex -2.375 4.11362 0
      vertex 9.86968 10.9614 0
      vertex -0.49651 4.72398 0
    endloop
  endfacet
  facet normal -0.994522 0.104529 0
    outer loop
      vertex -14.75 0 0
      vertex -14.75 0 23.55
      vertex -14.4277 3.0667 0
    endloop
  endfacet
  facet normal -0.994522 0.104529 0
    outer loop
      vertex -14.4277 3.0667 0
      vertex -14.75 0 23.55
      vertex -14.4277 3.0667 23.55
    endloop
  endfacet
  facet normal -0.994522 -0.104529 0
    outer loop
      vertex -14.75 0 0
      vertex -14.4277 -3.0667 0
      vertex -14.75 0 23.55
    endloop
  endfacet
  facet normal -0.994522 -0.104529 0
    outer loop
      vertex -14.75 0 23.55
      vertex -14.4277 -3.0667 0
      vertex -14.4277 -3.0667 23.55
    endloop
  endfacet
  facet normal -0.951057 -0.309017 0
    outer loop
      vertex -14.4277 -3.0667 0
      vertex -13.4748 -5.99937 0
      vertex -14.4277 -3.0667 23.55
    endloop
  endfacet
  facet normal -0.951057 -0.309017 0
    outer loop
      vertex -14.4277 -3.0667 23.55
      vertex -13.4748 -5.99937 0
      vertex -13.4748 -5.99937 23.55
    endloop
  endfacet
  facet normal -0.866025 -0.5 0
    outer loop
      vertex -13.4748 -5.99937 0
      vertex -11.933 -8.66983 0
      vertex -13.4748 -5.99937 23.55
    endloop
  endfacet
  facet normal -0.866025 -0.5 0
    outer loop
      vertex -13.4748 -5.99937 23.55
      vertex -11.933 -8.66983 0
      vertex -11.933 -8.66983 23.55
    endloop
  endfacet
  facet normal -0.743145 -0.669131 0
    outer loop
      vertex -11.933 -8.66983 0
      vertex -9.86968 -10.9614 0
      vertex -11.933 -8.66983 23.55
    endloop
  endfacet
  facet normal -0.743145 -0.669131 0
    outer loop
      vertex -11.933 -8.66983 23.55
      vertex -9.86968 -10.9614 0
      vertex -9.86968 -10.9614 23.55
    endloop
  endfacet
  facet normal -0.587785 -0.809017 0
    outer loop
      vertex -9.86968 -10.9614 23.55
      vertex -9.86968 -10.9614 0
      vertex -7.375 -12.7739 0
    endloop
  endfacet
  facet normal -0.587785 -0.809017 0
    outer loop
      vertex -7.375 -12.7739 23.55
      vertex -9.86968 -10.9614 23.55
      vertex -7.375 -12.7739 0
    endloop
  endfacet
  facet normal -0.406737 -0.913545 0
    outer loop
      vertex -7.375 -12.7739 23.55
      vertex -7.375 -12.7739 0
      vertex -4.558 -14.0281 0
    endloop
  endfacet
  facet normal -0.406737 -0.913545 0
    outer loop
      vertex -4.558 -14.0281 23.55
      vertex -7.375 -12.7739 23.55
      vertex -4.558 -14.0281 0
    endloop
  endfacet
  facet normal -0.207912 -0.978148 0
    outer loop
      vertex -4.558 -14.0281 23.55
      vertex -4.558 -14.0281 0
      vertex -1.5418 -14.6692 0
    endloop
  endfacet
  facet normal -0.207912 -0.978148 0
    outer loop
      vertex -1.5418 -14.6692 23.55
      vertex -4.558 -14.0281 23.55
      vertex -1.5418 -14.6692 0
    endloop
  endfacet
  facet normal 0 -1 0
    outer loop
      vertex -1.5418 -14.6692 23.55
      vertex -1.5418 -14.6692 0
      vertex 1.5418 -14.6692 0
    endloop
  endfacet
  facet normal 0 -1 0
    outer loop
      vertex 1.5418 -14.6692 23.55
      vertex -1.5418 -14.6692 23.55
      vertex 1.5418 -14.6692 0
    endloop
  endfacet
  facet normal 0.207912 -0.978148 0
    outer loop
      vertex 1.5418 -14.6692 23.55
      vertex 1.5418 -14.6692 0
      vertex 4.558 -14.0281 0
    endloop
  endfacet
  facet normal 0.207912 -0.978148 0
    outer loop
      vertex 4.558 -14.0281 23.55
      vertex 1.5418 -14.6692 23.55
      vertex 4.558 -14.0281 0
    endloop
  endfacet
  facet normal 0.406737 -0.913545 0
    outer loop
      vertex 4.558 -14.0281 23.55
      vertex 4.558 -14.0281 0
      vertex 7.375 -12.7739 0
    endloop
  endfacet
  facet normal 0.406737 -0.913545 0
    outer loop
      vertex 7.375 -12.7739 23.55
      vertex 4.558 -14.0281 23.55
      vertex 7.375 -12.7739 0
    endloop
  endfacet
  facet normal 0.587785 -0.809017 0
    outer loop
      vertex 7.375 -12.7739 23.55
      vertex 7.375 -12.7739 0
      vertex 9.86968 -10.9614 0
    endloop
  endfacet
  facet normal 0.587785 -0.809017 0
    outer loop
      vertex 9.86968 -10.9614 23.55
      vertex 7.375 -12.7739 23.55
      vertex 9.86968 -10.9614 0
    endloop
  endfacet
  facet normal 0.743145 -0.669131 0
    outer loop
      vertex 9.86968 -10.9614 23.55
      vertex 9.86968 -10.9614 0
      vertex 11.933 -8.66983 0
    endloop
  endfacet
  facet normal 0.743145 -0.669131 0
    outer loop
      vertex 11.933 -8.66983 23.55
      vertex 9.86968 -10.9614 23.55
      vertex 11.933 -8.66983 0
    endloop
  endfacet
  facet normal 0.866025 -0.5 0
    outer loop
      vertex 11.933 -8.66983 23.55
      vertex 11.933 -8.66983 0
      vertex 13.4748 -5.99937 0
    endloop
  endfacet
  facet normal 0.866025 -0.5 0
    outer loop
      vertex 13.4748 -5.99937 23.55
      vertex 11.933 -8.66983 23.55
      vertex 13.4748 -5.99937 0
    endloop
  endfacet
  facet normal 0.951057 -0.309017 0
    outer loop
      vertex 13.4748 -5.99937 23.55
      vertex 13.4748 -5.99937 0
      vertex 14.4277 -3.0667 0
    endloop
  endfacet
  facet normal 0.951057 -0.309017 0
    outer loop
      vertex 14.4277 -3.0667 23.55
      vertex 13.4748 -5.99937 23.55
      vertex 14.4277 -3.0667 0
    endloop
  endfacet
  facet normal 0.994522 -0.104529 0
    outer loop
      vertex 14.4277 -3.0667 23.55
      vertex 14.4277 -3.0667 0
      vertex 14.75 0 0
    endloop
  endfacet
  facet normal 0.994522 -0.104529 0
    outer loop
      vertex 14.75 0 23.55
      vertex 14.4277 -3.0667 23.55
      vertex 14.75 0 0
    endloop
  endfacet
  facet normal 0.994522 0.104529 0
    outer loop
      vertex 14.75 0 0
      vertex 14.4277 3.0667 0
      vertex 14.4277 3.0667 23.55
    endloop
  endfacet
  facet normal 0.994522 0.104529 0
    outer loop
      vertex 14.75 0 23.55
      vertex 14.75 0 0
      vertex 14.4277 3.0667 23.55
    endloop
  endfacet
  facet normal 0.951057 0.309017 0
    outer loop
      vertex 14.4277 3.0667 0
      vertex 13.4748 5.99937 0
      vertex 13.4748 5.99937 23.55
    endloop
  endfacet
  facet normal 0.951057 0.309017 0
    outer loop
      vertex 14.4277 3.0667 23.55
      vertex 14.4277 3.0667 0
      vertex 13.4748 5.99937 23.55
    endloop
  endfacet
  facet normal 0.866025 0.5 0
    outer loop
      vertex 13.4748 5.99937 0
      vertex 11.933 8.66983 0
      vertex 11.933 8.66983 23.55
    endloop
  endfacet
  facet normal 0.866025 0.5 0
    outer loop
      vertex 13.4748 5.99937 23.55
      vertex 13.4748 5.99937 0
      vertex 11.933 8.66983 23.55
    endloop
  endfacet
  facet normal 0.743145 0.669131 0
    outer loop
      vertex 11.933 8.66983 0
      vertex 9.86968 10.9614 0
      vertex 9.86968 10.9614 23.55
    endloop
  endfacet
  facet normal 0.743145 0.669131 0
    outer loop
      vertex 11.933 8.66983 23.55
      vertex 11.933 8.66983 0
      vertex 9.86968 10.9614 23.55
    endloop
  endfacet
  facet normal 0.587785 0.809017 0
    outer loop
      vertex 7.375 12.7739 0
      vertex 7.375 12.7739 23.55
      vertex 9.86968 10.9614 0
    endloop
  endfacet
  facet normal 0.587785 0.809017 0
    outer loop
      vertex 9.86968 10.9614 0
      vertex 7.375 12.7739 23.55
      vertex 9.86968 10.9614 23.55
    endloop
  endfacet
  facet normal 0.406737 0.913545 0
    outer loop
      vertex 4.558 14.0281 0
      vertex 4.558 14.0281 23.55
      vertex 7.375 12.7739 0
    endloop
  endfacet
  facet normal 0.406737 0.913545 0
    outer loop
      vertex 7.375 12.7739 0
      vertex 4.558 14.0281 23.55
      vertex 7.375 12.7739 23.55
    endloop
  endfacet
  facet normal 0.207912 0.978148 0
    outer loop
      vertex 1.5418 14.6692 0
      vertex 1.5418 14.6692 23.55
      vertex 4.558 14.0281 0
    endloop
  endfacet
  facet normal 0.207912 0.978148 0
    outer loop
      vertex 4.558 14.0281 0
      vertex 1.5418 14.6692 23.55
      vertex 4.558 14.0281 23.55
    endloop
  endfacet
  facet normal 0 1 0
    outer loop
      vertex -1.5418 14.6692 0
      vertex -1.5418 14.6692 23.55
      vertex 1.5418 14.6692 0
    endloop
  endfacet
  facet normal 0 1 0
    outer loop
      vertex 1.5418 14.6692 0
      vertex -1.5418 14.6692 23.55
      vertex 1.5418 14.6692 23.55
    endloop
  endfacet
  facet normal -0.207912 0.978148 0
    outer loop
      vertex -4.558 14.0281 0
      vertex -4.558 14.0281 23.55
      vertex -1.5418 14.6692 0
    endloop
  endfacet
  facet normal -0.207912 0.978148 0
    outer loop
      vertex -1.5418 14.6692 0
      vertex -4.558 14.0281 23.55
      vertex -1.5418 14.6692 23.55
    endloop
  endfacet
  facet normal -0.406737 0.913545 0
    outer loop
      vertex -7.375 12.7739 0
      vertex -7.375 12.7739 23.55
      vertex -4.558 14.0281 0
    endloop
  endfacet
  facet normal -0.406737 0.913545 0
    outer loop
      vertex -4.558 14.0281 0
      vertex -7.375 12.7739 23.55
      vertex -4.558 14.0281 23.55
    endloop
  endfacet
  facet normal -0.587785 0.809017 0
    outer loop
      vertex -9.86968 10.9614 0
      vertex -9.86968 10.9614 23.55
      vertex -7.375 12.7739 0
    endloop
  endfacet
  facet normal -0.587785 0.809017 0
    outer loop
      vertex -7.375 12.7739 0
      vertex -9.86968 10.9614 23.55
      vertex -7.375 12.7739 23.55
    endloop
  endfacet
  facet normal -0.743145 0.669131 0
    outer loop
      vertex -11.933 8.66983 0
      vertex -11.933 8.66983 23.55
      vertex -9.86968 10.9614 0
    endloop
  endfacet
  facet normal -0.743145 0.669131 0
    outer loop
      vertex -9.86968 10.9614 0
      vertex -11.933 8.66983 23.55
      vertex -9.86968 10.9614 23.55
    endloop
  endfacet
  facet normal -0.866025 0.5 0
    outer loop
      vertex -13.4748 5.99937 0
      vertex -13.4748 5.99937 23.55
      vertex -11.933 8.66983 0
    endloop
  endfacet
  facet normal -0.866025 0.5 0
    outer loop
      vertex -11.933 8.66983 0
      vertex -13.4748 5.99937 23.55
      vertex -11.933 8.66983 23.55
    endloop
  endfacet
  facet normal -0.951057 0.309017 0
    outer loop
      vertex -14.4277 3.0667 0
      vertex -14.4277 3.0667 23.55
      vertex -13.4748 5.99937 0
    endloop
  endfacet
  facet normal -0.951057 0.309017 0
    outer loop
      vertex -13.4748 5.99937 0
      vertex -14.4277 3.0667 23.55
      vertex -13.4748 5.99937 23.55
    endloop
  endfacet
  facet normal 0.913545 -0.406737 0
    outer loop
      vertex -3.84283 2.79198 0
      vertex -3.84283 2.79198 12.75
      vertex -4.6462 0.987581 12.75
    endloop
  endfacet
  facet normal 0.913545 -0.406737 0
    outer loop
      vertex -4.6462 0.987581 0
      vertex -3.84283 2.79198 0
      vertex -4.6462 0.987581 12.75
    endloop
  endfacet
  facet normal 1 0 0
    outer loop
      vertex -4.6462 0.987581 0
      vertex -4.6462 0.987581 12.75
      vertex -4.6462 -0.987581 12.75
    endloop
  endfacet
  facet normal 1 0 0
    outer loop
      vertex -4.6462 -0.987581 0
      vertex -4.6462 0.987581 0
      vertex -4.6462 -0.987581 12.75
    endloop
  endfacet
  facet normal 0.669131 -0.743145 0
    outer loop
      vertex -2.375 4.11362 0
      vertex -2.375 4.11362 12.75
      vertex -3.84283 2.79198 12.75
    endloop
  endfacet
  facet normal 0.669131 -0.743145 0
    outer loop
      vertex -3.84283 2.79198 0
      vertex -2.375 4.11362 0
      vertex -3.84283 2.79198 12.75
    endloop
  endfacet
  facet normal 0.309017 -0.951057 0
    outer loop
      vertex -0.49651 4.72398 0
      vertex -0.49651 4.72398 12.75
      vertex -2.375 4.11362 12.75
    endloop
  endfacet
  facet normal 0.309017 -0.951057 0
    outer loop
      vertex -2.375 4.11362 0
      vertex -0.49651 4.72398 0
      vertex -2.375 4.11362 12.75
    endloop
  endfacet
  facet normal -0.104529 -0.994522 0
    outer loop
      vertex 1.46783 4.51752 0
      vertex 1.46783 4.51752 12.75
      vertex -0.49651 4.72398 12.75
    endloop
  endfacet
  facet normal -0.104529 -0.994522 0
    outer loop
      vertex -0.49651 4.72398 0
      vertex 1.46783 4.51752 0
      vertex -0.49651 4.72398 12.75
    endloop
  endfacet
  facet normal -0.5 -0.866025 0
    outer loop
      vertex 3.17837 3.52994 0
      vertex 3.17837 3.52994 12.75
      vertex 1.46783 4.51752 12.75
    endloop
  endfacet
  facet normal -0.5 -0.866025 0
    outer loop
      vertex 1.46783 4.51752 0
      vertex 3.17837 3.52994 0
      vertex 1.46783 4.51752 12.75
    endloop
  endfacet
  facet normal -0.809017 -0.587785 0
    outer loop
      vertex 4.33934 1.932 12.75
      vertex 3.17837 3.52994 12.75
      vertex 4.33934 1.932 0
    endloop
  endfacet
  facet normal -0.809017 -0.587785 0
    outer loop
      vertex 4.33934 1.932 0
      vertex 3.17837 3.52994 12.75
      vertex 3.17837 3.52994 0
    endloop
  endfacet
  facet normal -0.978148 -0.207912 0
    outer loop
      vertex 4.75 0 12.75
      vertex 4.33934 1.932 12.75
      vertex 4.75 0 0
    endloop
  endfacet
  facet normal -0.978148 -0.207912 0
    outer loop
      vertex 4.75 0 0
      vertex 4.33934 1.932 12.75
      vertex 4.33934 1.932 0
    endloop
  endfacet
  facet normal -0.978148 0.207912 0
    outer loop
      vertex 4.75 0 12.75
      vertex 4.75 0 0
      vertex 4.33934 -1.932 12.75
    endloop
  endfacet
  facet normal -0.978148 0.207912 0
    outer loop
      vertex 4.33934 -1.932 12.75
      vertex 4.75 0 0
      vertex 4.33934 -1.932 0
    endloop
  endfacet
  facet normal -0.809017 0.587785 0
    outer loop
      vertex 4.33934 -1.932 12.75
      vertex 4.33934 -1.932 0
      vertex 3.17837 -3.52994 12.75
    endloop
  endfacet
  facet normal -0.809017 0.587785 0
    outer loop
      vertex 3.17837 -3.52994 12.75
      vertex 4.33934 -1.932 0
      vertex 3.17837 -3.52994 0
    endloop
  endfacet
  facet normal -0.5 0.866025 0
    outer loop
      vertex 3.17837 -3.52994 12.75
      vertex 3.17837 -3.52994 0
      vertex 1.46783 -4.51752 12.75
    endloop
  endfacet
  facet normal -0.5 0.866025 0
    outer loop
      vertex 1.46783 -4.51752 12.75
      vertex 3.17837 -3.52994 0
      vertex 1.46783 -4.51752 0
    endloop
  endfacet
  facet normal -0.104529 0.994522 0
    outer loop
      vertex 1.46783 -4.51752 12.75
      vertex 1.46783 -4.51752 0
      vertex -0.49651 -4.72398 12.75
    endloop
  endfacet
  facet normal -0.104529 0.994522 0
    outer loop
      vertex -0.49651 -4.72398 12.75
      vertex 1.46783 -4.51752 0
      vertex -0.49651 -4.72398 0
    endloop
  endfacet
  facet normal 0.309017 0.951057 0
    outer loop
      vertex -0.49651 -4.72398 12.75
      vertex -0.49651 -4.72398 0
      vertex -2.375 -4.11362 12.75
    endloop
  endfacet
  facet normal 0.309017 0.951057 0
    outer loop
      vertex -2.375 -4.11362 12.75
      vertex -0.49651 -4.72398 0
      vertex -2.375 -4.11362 0
    endloop
  endfacet
  facet normal 0.669131 0.743145 0
    outer loop
      vertex -2.375 -4.11362 12.75
      vertex -2.375 -4.11362 0
      vertex -3.84283 -2.79198 12.75
    endloop
  endfacet
  facet normal 0.669131 0.743145 0
    outer loop
      vertex -3.84283 -2.79198 12.75
      vertex -2.375 -4.11362 0
      vertex -3.84283 -2.79198 0
    endloop
  endfacet
  facet normal 0.913545 0.406737 0
    outer loop
      vertex -4.6462 -0.987581 12.75
      vertex -3.84283 -2.79198 12.75
      vertex -3.84283 -2.79198 0
    endloop
  endfacet
  facet normal 0.913545 0.406737 0
    outer loop
      vertex -4.6462 -0.987581 0
      vertex -4.6462 -0.987581 12.75
      vertex -3.84283 -2.79198 0
    endloop
  endfacet
  facet normal 0 0 1
    outer loop
      vertex -14.4277 3.0667 23.55
      vertex -14.75 0 23.55
      vertex -14.4277 -3.0667 23.55
    endloop
  endfacet
  facet normal 0 0 1
    outer loop
      vertex -11.933 -8.66983 23.55
      vertex -14.4277 3.0667 23.55
      vertex -13.4748 -5.99937 23.55
    endloop
  endfacet
  facet normal 0 0 1
    outer loop
      vertex -13.4748 -5.99937 23.55
      vertex -14.4277 3.0667 23.55
      vertex -14.4277 -3.0667 23.55
    endloop
  endfacet
  facet normal 0 0 1
    outer loop
      vertex -9.86968 -10.9614 23.55
      vertex -14.4277 3.0667 23.55
      vertex -11.933 -8.66983 23.55
    endloop
  endfacet
  facet normal 0 0 1
    outer loop
      vertex -12.4714 -2.65087 23.55
      vertex -14.4277 3.0667 23.55
      vertex -9.86968 -10.9614 23.55
    endloop
  endfacet
  facet normal 0 0 1
    outer loop
      vertex -12.4714 2.65087 23.55
      vertex -11.6477 5.18589 23.55
      vertex -14.4277 3.0667 23.55
    endloop
  endfacet
  facet normal 0 0 1
    outer loop
      vertex -3.93997 -12.126 23.55
      vertex -6.375 -11.0418 23.55
      vertex -4.558 -14.0281 23.55
    endloop
  endfacet
  facet normal 0 0 1
    outer loop
      vertex 11.6477 5.18589 23.55
      vertex 12.4714 2.65087 23.55
      vertex 14.4277 3.0667 23.55
    endloop
  endfacet
  facet normal 0 0 1
    outer loop
      vertex 10.315 7.49426 23.55
      vertex 11.6477 5.18589 23.55
      vertex 13.4748 5.99937 23.55
    endloop
  endfacet
  facet normal 0 0 1
    outer loop
      vertex 8.53141 9.4751 23.55
      vertex 10.315 7.49426 23.55
      vertex 11.933 8.66983 23.55
    endloop
  endfacet
  facet normal 0 0 1
    outer loop
      vertex 6.375 11.0418 23.55
      vertex 8.53141 9.4751 23.55
      vertex 9.86968 10.9614 23.55
    endloop
  endfacet
  facet normal 0 0 1
    outer loop
      vertex -6.375 11.0418 23.55
      vertex -3.93997 12.126 23.55
      vertex -1.5418 14.6692 23.55
    endloop
  endfacet
  facet normal 0 0 1
    outer loop
      vertex -1.33274 12.6802 23.55
      vertex 1.33274 12.6802 23.55
      vertex 1.5418 14.6692 23.55
    endloop
  endfacet
  facet normal 0 0 1
    outer loop
      vertex -7.375 12.7739 23.55
      vertex -14.4277 3.0667 23.55
      vertex -4.558 14.0281 23.55
    endloop
  endfacet
  facet normal 0 0 1
    outer loop
      vertex -9.86968 10.9614 23.55
      vertex -14.4277 3.0667 23.55
      vertex -7.375 12.7739 23.55
    endloop
  endfacet
  facet normal 0 0 1
    outer loop
      vertex -11.933 8.66983 23.55
      vertex -14.4277 3.0667 23.55
      vertex -9.86968 10.9614 23.55
    endloop
  endfacet
  facet normal 0 0 1
    outer loop
      vertex -13.4748 5.99937 23.55
      vertex -14.4277 3.0667 23.55
      vertex -11.933 8.66983 23.55
    endloop
  endfacet
  facet normal 0 0 1
    outer loop
      vertex -11.6477 -5.18589 23.55
      vertex -12.4714 -2.65087 23.55
      vertex -9.86968 -10.9614 23.55
    endloop
  endfacet
  facet normal 0 0 1
    outer loop
      vertex 11.6477 -5.18589 23.55
      vertex 10.315 -7.49426 23.55
      vertex 13.4748 -5.99937 23.55
    endloop
  endfacet
  facet normal 0 0 1
    outer loop
      vertex 1.33274 12.6802 23.55
      vertex 3.93997 12.126 23.55
      vertex 4.558 14.0281 23.55
    endloop
  endfacet
  facet normal 0 0 1
    outer loop
      vertex 12.4714 2.65087 23.55
      vertex 12.75 0 23.55
      vertex 14.75 0 23.55
    endloop
  endfacet
  facet normal 0 0 1
    outer loop
      vertex -4.558 14.0281 23.55
      vertex -14.4277 3.0667 23.55
      vertex -10.315 7.49426 23.55
    endloop
  endfacet
  facet normal 0 0 1
    outer loop
      vertex -4.558 14.0281 23.55
      vertex -8.53141 9.4751 23.55
      vertex -1.5418 14.6692 23.55
    endloop
  endfacet
  facet normal 0 0 1
    outer loop
      vertex -4.558 14.0281 23.55
      vertex -10.315 7.49426 23.55
      vertex -8.53141 9.4751 23.55
    endloop
  endfacet
  facet normal 0 0 1
    outer loop
      vertex -8.53141 9.4751 23.55
      vertex -6.375 11.0418 23.55
      vertex -1.5418 14.6692 23.55
    endloop
  endfacet
  facet normal 0 0 1
    outer loop
      vertex -1.5418 14.6692 23.55
      vertex -3.93997 12.126 23.55
      vertex 1.5418 14.6692 23.55
    endloop
  endfacet
  facet normal 0 0 1
    outer loop
      vertex -3.93997 12.126 23.55
      vertex -1.33274 12.6802 23.55
      vertex 1.5418 14.6692 23.55
    endloop
  endfacet
  facet normal 0 0 1
    outer loop
      vertex 1.5418 14.6692 23.55
      vertex 1.33274 12.6802 23.55
      vertex 4.558 14.0281 23.55
    endloop
  endfacet
  facet normal 0 0 1
    outer loop
      vertex -11.6477 5.18589 23.55
      vertex -10.315 7.49426 23.55
      vertex -14.4277 3.0667 23.55
    endloop
  endfacet
  facet normal 0 0 1
    outer loop
      vertex 4.558 14.0281 23.55
      vertex 3.93997 12.126 23.55
      vertex 7.375 12.7739 23.55
    endloop
  endfacet
  facet normal 0 0 1
    outer loop
      vertex 7.375 12.7739 23.55
      vertex 6.375 11.0418 23.55
      vertex 9.86968 10.9614 23.55
    endloop
  endfacet
  facet normal 0 0 1
    outer loop
      vertex 9.86968 10.9614 23.55
      vertex 8.53141 9.4751 23.55
      vertex 11.933 8.66983 23.55
    endloop
  endfacet
  facet normal 0 0 1
    outer loop
      vertex 11.933 8.66983 23.55
      vertex 10.315 7.49426 23.55
      vertex 13.4748 5.99937 23.55
    endloop
  endfacet
  facet normal 0 0 1
    outer loop
      vertex 13.4748 5.99937 23.55
      vertex 11.6477 5.18589 23.55
      vertex 14.4277 3.0667 23.55
    endloop
  endfacet
  facet normal 0 0 1
    outer loop
      vertex 14.4277 3.0667 23.55
      vertex 12.4714 2.65087 23.55
      vertex 14.75 0 23.55
    endloop
  endfacet
  facet normal 0 0 1
    outer loop
      vertex 14.75 0 23.55
      vertex 12.75 0 23.55
      vertex 14.4277 -3.0667 23.55
    endloop
  endfacet
  facet normal 0 0 1
    outer loop
      vertex 14.4277 -3.0667 23.55
      vertex 12.4714 -2.65087 23.55
      vertex 13.4748 -5.99937 23.55
    endloop
  endfacet
  facet normal 0 0 1
    outer loop
      vertex 3.93997 12.126 23.55
      vertex 6.375 11.0418 23.55
      vertex 7.375 12.7739 23.55
    endloop
  endfacet
  facet normal 0 0 1
    outer loop
      vertex 12.4714 -2.65087 23.55
      vertex 11.6477 -5.18589 23.55
      vertex 13.4748 -5.99937 23.55
    endloop
  endfacet
  facet normal 0 0 1
    outer loop
      vertex 13.4748 -5.99937 23.55
      vertex 10.315 -7.49426 23.55
      vertex 11.933 -8.66983 23.55
    endloop
  endfacet
  facet normal 0 0 1
    outer loop
      vertex 11.933 -8.66983 23.55
      vertex 8.53141 -9.4751 23.55
      vertex 9.86968 -10.9614 23.55
    endloop
  endfacet
  facet normal 0 0 1
    outer loop
      vertex 9.86968 -10.9614 23.55
      vertex 6.375 -11.0418 23.55
      vertex 7.375 -12.7739 23.55
    endloop
  endfacet
  facet normal 0 0 1
    outer loop
      vertex 7.375 -12.7739 23.55
      vertex 3.93997 -12.126 23.55
      vertex 4.558 -14.0281 23.55
    endloop
  endfacet
  facet normal 0 0 1
    outer loop
      vertex 4.558 -14.0281 23.55
      vertex 1.33274 -12.6802 23.55
      vertex 1.5418 -14.6692 23.55
    endloop
  endfacet
  facet normal 0 0 1
    outer loop
      vertex 1.5418 -14.6692 23.55
      vertex -1.33274 -12.6802 23.55
      vertex -1.5418 -14.6692 23.55
    endloop
  endfacet
  facet normal 0 0 1
    outer loop
      vertex 12.75 0 23.55
      vertex 12.4714 -2.65087 23.55
      vertex 14.4277 -3.0667 23.55
    endloop
  endfacet
  facet normal 0 0 1
    outer loop
      vertex -1.5418 -14.6692 23.55
      vertex -3.93997 -12.126 23.55
      vertex -4.558 -14.0281 23.55
    endloop
  endfacet
  facet normal 0 0 1
    outer loop
      vertex -4.558 -14.0281 23.55
      vertex -6.375 -11.0418 23.55
      vertex -7.375 -12.7739 23.55
    endloop
  endfacet
  facet normal 0 0 1
    outer loop
      vertex -6.375 -11.0418 23.55
      vertex -8.53141 -9.4751 23.55
      vertex -7.375 -12.7739 23.55
    endloop
  endfacet
  facet normal 0 0 1
    outer loop
      vertex -7.375 -12.7739 23.55
      vertex -10.315 -7.49426 23.55
      vertex -9.86968 -10.9614 23.55
    endloop
  endfacet
  facet normal 0 0 1
    outer loop
      vertex -10.315 -7.49426 23.55
      vertex -11.6477 -5.18589 23.55
      vertex -9.86968 -10.9614 23.55
    endloop
  endfacet
  facet normal 0 0 1
    outer loop
      vertex -12.4714 -2.65087 23.55
      vertex -12.75 0 23.55
      vertex -14.4277 3.0667 23.55
    endloop
  endfacet
  facet normal 0 0 1
    outer loop
      vertex 10.315 -7.49426 23.55
      vertex 8.53141 -9.4751 23.55
      vertex 11.933 -8.66983 23.55
    endloop
  endfacet
  facet normal 0 0 1
    outer loop
      vertex 8.53141 -9.4751 23.55
      vertex 6.375 -11.0418 23.55
      vertex 9.86968 -10.9614 23.55
    endloop
  endfacet
  facet normal 0 0 1
    outer loop
      vertex 6.375 -11.0418 23.55
      vertex 3.93997 -12.126 23.55
      vertex 7.375 -12.7739 23.55
    endloop
  endfacet
  facet normal 0 0 1
    outer loop
      vertex 3.93997 -12.126 23.55
      vertex 1.33274 -12.6802 23.55
      vertex 4.558 -14.0281 23.55
    endloop
  endfacet
  facet normal 0 0 1
    outer loop
      vertex 1.33274 -12.6802 23.55
      vertex -1.33274 -12.6802 23.55
      vertex 1.5418 -14.6692 23.55
    endloop
  endfacet
  facet normal 0 0 1
    outer loop
      vertex -1.33274 -12.6802 23.55
      vertex -3.93997 -12.126 23.55
      vertex -1.5418 -14.6692 23.55
    endloop
  endfacet
  facet normal 0 0 1
    outer loop
      vertex -8.53141 -9.4751 23.55
      vertex -10.315 -7.49426 23.55
      vertex -7.375 -12.7739 23.55
    endloop
  endfacet
  facet normal 0 0 1
    outer loop
      vertex -12.75 0 23.55
      vertex -12.4714 2.65087 23.55
      vertex -14.4277 3.0667 23.55
    endloop
  endfacet
  facet normal 0 0 1
    outer loop
      vertex -12.4714 -2.65087 12.75
      vertex -11.6477 -5.18589 12.75
      vertex -10.315 -7.49426 12.75
    endloop
  endfacet
  facet normal 0 0 1
    outer loop
      vertex -6.375 -11.0418 12.75
      vertex -12.4714 -2.65087 12.75
      vertex -8.53141 -9.4751 12.75
    endloop
  endfacet
  facet normal 0 0 1
    outer loop
      vertex -8.53141 -9.4751 12.75
      vertex -12.4714 -2.65087 12.75
      vertex -10.315 -7.49426 12.75
    endloop
  endfacet
  facet normal 0 0 1
    outer loop
      vertex -3.93997 -12.126 12.75
      vertex -12.4714 -2.65087 12.75
      vertex -6.375 -11.0418 12.75
    endloop
  endfacet
  facet normal 0 0 1
    outer loop
      vertex -1.33274 -12.6802 12.75
      vertex -12.4714 -2.65087 12.75
      vertex -3.93997 -12.126 12.75
    endloop
  endfacet
  facet normal 0 0 1
    outer loop
      vertex 1.33274 -12.6802 12.75
      vertex -12.4714 -2.65087 12.75
      vertex -1.33274 -12.6802 12.75
    endloop
  endfacet
  facet normal 0 0 1
    outer loop
      vertex 3.93997 -12.126 12.75
      vertex -12.4714 -2.65087 12.75
      vertex 1.33274 -12.6802 12.75
    endloop
  endfacet
  facet normal 0 0 1
    outer loop
      vertex 6.375 -11.0418 12.75
      vertex -12.4714 -2.65087 12.75
      vertex 3.93997 -12.126 12.75
    endloop
  endfacet
  facet normal 0 0 1
    outer loop
      vertex 8.53141 -9.4751 12.75
      vertex -12.4714 -2.65087 12.75
      vertex 6.375 -11.0418 12.75
    endloop
  endfacet
  facet normal 0 0 1
    outer loop
      vertex 10.315 -7.49426 12.75
      vertex -12.4714 -2.65087 12.75
      vertex 8.53141 -9.4751 12.75
    endloop
  endfacet
  facet normal 0 0 1
    outer loop
      vertex -0.49651 -4.72398 12.75
      vertex -12.4714 -2.65087 12.75
      vertex 10.315 -7.49426 12.75
    endloop
  endfacet
  facet normal 0 0 1
    outer loop
      vertex -2.375 -4.11362 12.75
      vertex -3.84283 -2.79198 12.75
      vertex -12.4714 -2.65087 12.75
    endloop
  endfacet
  facet normal 0 0 1
    outer loop
      vertex -0.49651 4.72398 12.75
      vertex 1.46783 4.51752 12.75
      vertex 8.53141 9.4751 12.75
    endloop
  endfacet
  facet normal 0 0 1
    outer loop
      vertex 1.46783 4.51752 12.75
      vertex 3.17837 3.52994 12.75
      vertex 10.315 7.49426 12.75
    endloop
  endfacet
  facet normal 0 0 1
    outer loop
      vertex 3.93997 12.126 12.75
      vertex -12.4714 -2.65087 12.75
      vertex 6.375 11.0418 12.75
    endloop
  endfacet
  facet normal 0 0 1
    outer loop
      vertex 1.33274 12.6802 12.75
      vertex -12.4714 -2.65087 12.75
      vertex 3.93997 12.126 12.75
    endloop
  endfacet
  facet normal 0 0 1
    outer loop
      vertex -1.33274 12.6802 12.75
      vertex -12.4714 -2.65087 12.75
      vertex 1.33274 12.6802 12.75
    endloop
  endfacet
  facet normal 0 0 1
    outer loop
      vertex -3.93997 12.126 12.75
      vertex -12.4714 -2.65087 12.75
      vertex -1.33274 12.6802 12.75
    endloop
  endfacet
  facet normal 0 0 1
    outer loop
      vertex -6.375 11.0418 12.75
      vertex -12.4714 -2.65087 12.75
      vertex -3.93997 12.126 12.75
    endloop
  endfacet
  facet normal 0 0 1
    outer loop
      vertex -8.53141 9.4751 12.75
      vertex -12.4714 -2.65087 12.75
      vertex -6.375 11.0418 12.75
    endloop
  endfacet
  facet normal 0 0 1
    outer loop
      vertex -10.315 7.49426 12.75
      vertex -12.4714 -2.65087 12.75
      vertex -8.53141 9.4751 12.75
    endloop
  endfacet
  facet normal 0 0 1
    outer loop
      vertex -11.6477 5.18589 12.75
      vertex -12.4714 -2.65087 12.75
      vertex -10.315 7.49426 12.75
    endloop
  endfacet
  facet normal 0 0 1
    outer loop
      vertex -12.4714 2.65087 12.75
      vertex -12.4714 -2.65087 12.75
      vertex -11.6477 5.18589 12.75
    endloop
  endfacet
  facet normal 0 0 1
    outer loop
      vertex -12.75 0 12.75
      vertex -12.4714 -2.65087 12.75
      vertex -12.4714 2.65087 12.75
    endloop
  endfacet
  facet normal 0 0 1
    outer loop
      vertex 3.17837 3.52994 12.75
      vertex 4.33934 1.932 12.75
      vertex 11.6477 5.18589 12.75
    endloop
  endfacet
  facet normal 0 0 1
    outer loop
      vertex -2.375 4.11362 12.75
      vertex -0.49651 4.72398 12.75
      vertex 6.375 11.0418 12.75
    endloop
  endfacet
  facet normal 0 0 1
    outer loop
      vertex 4.33934 1.932 12.75
      vertex 4.75 0 12.75
      vertex 12.4714 2.65087 12.75
    endloop
  endfacet
  facet normal 0 0 1
    outer loop
      vertex -2.375 4.11362 12.75
      vertex -12.4714 -2.65087 12.75
      vertex -3.84283 2.79198 12.75
    endloop
  endfacet
  facet normal 0 0 1
    outer loop
      vertex 6.375 11.0418 12.75
      vertex -12.4714 -2.65087 12.75
      vertex -2.375 4.11362 12.75
    endloop
  endfacet
  facet normal 0 0 1
    outer loop
      vertex 6.375 11.0418 12.75
      vertex -0.49651 4.72398 12.75
      vertex 8.53141 9.4751 12.75
    endloop
  endfacet
  facet normal 0 0 1
    outer loop
      vertex 8.53141 9.4751 12.75
      vertex 1.46783 4.51752 12.75
      vertex 10.315 7.49426 12.75
    endloop
  endfacet
  facet normal 0 0 1
    outer loop
      vertex 10.315 7.49426 12.75
      vertex 3.17837 3.52994 12.75
      vertex 11.6477 5.18589 12.75
    endloop
  endfacet
  facet normal 0 0 1
    outer loop
      vertex -4.6462 0.987581 12.75
      vertex -3.84283 2.79198 12.75
      vertex -12.4714 -2.65087 12.75
    endloop
  endfacet
  facet normal 0 0 1
    outer loop
      vertex 11.6477 5.18589 12.75
      vertex 4.33934 1.932 12.75
      vertex 12.4714 2.65087 12.75
    endloop
  endfacet
  facet normal 0 0 1
    outer loop
      vertex 12.4714 2.65087 12.75
      vertex 4.75 0 12.75
      vertex 12.75 0 12.75
    endloop
  endfacet
  facet normal 0 0 1
    outer loop
      vertex 12.75 0 12.75
      vertex 4.33934 -1.932 12.75
      vertex 12.4714 -2.65087 12.75
    endloop
  endfacet
  facet normal 0 0 1
    outer loop
      vertex 12.4714 -2.65087 12.75
      vertex 3.17837 -3.52994 12.75
      vertex 11.6477 -5.18589 12.75
    endloop
  endfacet
  facet normal 0 0 1
    outer loop
      vertex 11.6477 -5.18589 12.75
      vertex 1.46783 -4.51752 12.75
      vertex 10.315 -7.49426 12.75
    endloop
  endfacet
  facet normal 0 0 1
    outer loop
      vertex 1.46783 -4.51752 12.75
      vertex -0.49651 -4.72398 12.75
      vertex 10.315 -7.49426 12.75
    endloop
  endfacet
  facet normal 0 0 1
    outer loop
      vertex -2.375 -4.11362 12.75
      vertex -12.4714 -2.65087 12.75
      vertex -0.49651 -4.72398 12.75
    endloop
  endfacet
  facet normal 0 0 1
    outer loop
      vertex -3.84283 -2.79198 12.75
      vertex -4.6462 -0.987581 12.75
      vertex -12.4714 -2.65087 12.75
    endloop
  endfacet
  facet normal 0 0 1
    outer loop
      vertex 3.17837 -3.52994 12.75
      vertex 1.46783 -4.51752 12.75
      vertex 11.6477 -5.18589 12.75
    endloop
  endfacet
  facet normal 0 0 1
    outer loop
      vertex 4.33934 -1.932 12.75
      vertex 3.17837 -3.52994 12.75
      vertex 12.4714 -2.65087 12.75
    endloop
  endfacet
  facet normal 0 0 1
    outer loop
      vertex 4.75 0 12.75
      vertex 4.33934 -1.932 12.75
      vertex 12.75 0 12.75
    endloop
  endfacet
  facet normal 0 0 1
    outer loop
      vertex -4.6462 -0.987581 12.75
      vertex -4.6462 0.987581 12.75
      vertex -12.4714 -2.65087 12.75
    endloop
  endfacet
  facet normal 0.994522 0.104528 0
    outer loop
      vertex -12.75 0 23.55
      vertex -12.4714 -2.65087 23.55
      vertex -12.4714 -2.65087 22.55
    endloop
  endfacet
  facet normal 0.994522 0.104528 0
    outer loop
      vertex -12.75 0 22.55
      vertex -12.75 0 23.55
      vertex -12.4714 -2.65087 22.55
    endloop
  endfacet
  facet normal 0.951057 0.309017 0
    outer loop
      vertex -12.4714 -2.65087 23.55
      vertex -11.6477 -5.18589 23.55
      vertex -11.6477 -5.18589 22.55
    endloop
  endfacet
  facet normal 0.951057 0.309017 0
    outer loop
      vertex -12.4714 -2.65087 22.55
      vertex -12.4714 -2.65087 23.55
      vertex -11.6477 -5.18589 22.55
    endloop
  endfacet
  facet normal 0.866025 0.5 0
    outer loop
      vertex -11.6477 -5.18589 23.55
      vertex -10.315 -7.49426 23.55
      vertex -10.315 -7.49426 22.55
    endloop
  endfacet
  facet normal 0.866025 0.5 0
    outer loop
      vertex -11.6477 -5.18589 22.55
      vertex -11.6477 -5.18589 23.55
      vertex -10.315 -7.49426 22.55
    endloop
  endfacet
  facet normal 0.743145 0.669131 0
    outer loop
      vertex -10.315 -7.49426 23.55
      vertex -8.53141 -9.4751 23.55
      vertex -8.53141 -9.4751 22.55
    endloop
  endfacet
  facet normal 0.743145 0.669131 0
    outer loop
      vertex -10.315 -7.49426 22.55
      vertex -10.315 -7.49426 23.55
      vertex -8.53141 -9.4751 22.55
    endloop
  endfacet
  facet normal 0.587785 0.809017 0
    outer loop
      vertex -6.375 -11.0418 23.55
      vertex -6.375 -11.0418 22.55
      vertex -8.53141 -9.4751 23.55
    endloop
  endfacet
  facet normal 0.587785 0.809017 0
    outer loop
      vertex -8.53141 -9.4751 23.55
      vertex -6.375 -11.0418 22.55
      vertex -8.53141 -9.4751 22.55
    endloop
  endfacet
  facet normal 0.406737 0.913545 0
    outer loop
      vertex -3.93997 -12.126 23.55
      vertex -3.93997 -12.126 22.55
      vertex -6.375 -11.0418 23.55
    endloop
  endfacet
  facet normal 0.406737 0.913545 0
    outer loop
      vertex -6.375 -11.0418 23.55
      vertex -3.93997 -12.126 22.55
      vertex -6.375 -11.0418 22.55
    endloop
  endfacet
  facet normal 0.207911 0.978148 0
    outer loop
      vertex -1.33274 -12.6802 23.55
      vertex -1.33274 -12.6802 22.55
      vertex -3.93997 -12.126 23.55
    endloop
  endfacet
  facet normal 0.207911 0.978148 0
    outer loop
      vertex -3.93997 -12.126 23.55
      vertex -1.33274 -12.6802 22.55
      vertex -3.93997 -12.126 22.55
    endloop
  endfacet
  facet normal 0 1 0
    outer loop
      vertex 1.33274 -12.6802 23.55
      vertex 1.33274 -12.6802 22.55
      vertex -1.33274 -12.6802 23.55
    endloop
  endfacet
  facet normal 0 1 0
    outer loop
      vertex -1.33274 -12.6802 23.55
      vertex 1.33274 -12.6802 22.55
      vertex -1.33274 -12.6802 22.55
    endloop
  endfacet
  facet normal -0.207911 0.978148 0
    outer loop
      vertex 3.93997 -12.126 23.55
      vertex 3.93997 -12.126 22.55
      vertex 1.33274 -12.6802 23.55
    endloop
  endfacet
  facet normal -0.207911 0.978148 0
    outer loop
      vertex 1.33274 -12.6802 23.55
      vertex 3.93997 -12.126 22.55
      vertex 1.33274 -12.6802 22.55
    endloop
  endfacet
  facet normal -0.406737 0.913545 0
    outer loop
      vertex 6.375 -11.0418 23.55
      vertex 6.375 -11.0418 22.55
      vertex 3.93997 -12.126 23.55
    endloop
  endfacet
  facet normal -0.406737 0.913545 0
    outer loop
      vertex 3.93997 -12.126 23.55
      vertex 6.375 -11.0418 22.55
      vertex 3.93997 -12.126 22.55
    endloop
  endfacet
  facet normal -0.587785 0.809017 0
    outer loop
      vertex 8.53141 -9.4751 23.55
      vertex 8.53141 -9.4751 22.55
      vertex 6.375 -11.0418 23.55
    endloop
  endfacet
  facet normal -0.587785 0.809017 0
    outer loop
      vertex 6.375 -11.0418 23.55
      vertex 8.53141 -9.4751 22.55
      vertex 6.375 -11.0418 22.55
    endloop
  endfacet
  facet normal -0.743145 0.669131 0
    outer loop
      vertex 10.315 -7.49426 23.55
      vertex 10.315 -7.49426 22.55
      vertex 8.53141 -9.4751 23.55
    endloop
  endfacet
  facet normal -0.743145 0.669131 0
    outer loop
      vertex 8.53141 -9.4751 23.55
      vertex 10.315 -7.49426 22.55
      vertex 8.53141 -9.4751 22.55
    endloop
  endfacet
  facet normal -0.866025 0.5 0
    outer loop
      vertex 11.6477 -5.18589 23.55
      vertex 11.6477 -5.18589 22.55
      vertex 10.315 -7.49426 23.55
    endloop
  endfacet
  facet normal -0.866025 0.5 0
    outer loop
      vertex 10.315 -7.49426 23.55
      vertex 11.6477 -5.18589 22.55
      vertex 10.315 -7.49426 22.55
    endloop
  endfacet
  facet normal -0.951057 0.309017 0
    outer loop
      vertex 12.4714 -2.65087 23.55
      vertex 12.4714 -2.65087 22.55
      vertex 11.6477 -5.18589 23.55
    endloop
  endfacet
  facet normal -0.951057 0.309017 0
    outer loop
      vertex 11.6477 -5.18589 23.55
      vertex 12.4714 -2.65087 22.55
      vertex 11.6477 -5.18589 22.55
    endloop
  endfacet
  facet normal -0.994522 0.104528 0
    outer loop
      vertex 12.75 0 23.55
      vertex 12.75 0 22.55
      vertex 12.4714 -2.65087 23.55
    endloop
  endfacet
  facet normal -0.994522 0.104528 0
    outer loop
      vertex 12.4714 -2.65087 23.55
      vertex 12.75 0 22.55
      vertex 12.4714 -2.65087 22.55
    endloop
  endfacet
  facet normal -0.994522 -0.104528 0
    outer loop
      vertex 12.75 0 23.55
      vertex 12.4714 2.65087 23.55
      vertex 12.75 0 22.55
    endloop
  endfacet
  facet normal -0.994522 -0.104528 0
    outer loop
      vertex 12.75 0 22.55
      vertex 12.4714 2.65087 23.55
      vertex 12.4714 2.65087 22.55
    endloop
  endfacet
  facet normal -0.951057 -0.309017 0
    outer loop
      vertex 12.4714 2.65087 23.55
      vertex 11.6477 5.18589 23.55
      vertex 12.4714 2.65087 22.55
    endloop
  endfacet
  facet normal -0.951057 -0.309017 0
    outer loop
      vertex 12.4714 2.65087 22.55
      vertex 11.6477 5.18589 23.55
      vertex 11.6477 5.18589 22.55
    endloop
  endfacet
  facet normal -0.866025 -0.5 0
    outer loop
      vertex 11.6477 5.18589 23.55
      vertex 10.315 7.49426 23.55
      vertex 11.6477 5.18589 22.55
    endloop
  endfacet
  facet normal -0.866025 -0.5 0
    outer loop
      vertex 11.6477 5.18589 22.55
      vertex 10.315 7.49426 23.55
      vertex 10.315 7.49426 22.55
    endloop
  endfacet
  facet normal -0.743145 -0.669131 0
    outer loop
      vertex 10.315 7.49426 23.55
      vertex 8.53141 9.4751 23.55
      vertex 10.315 7.49426 22.55
    endloop
  endfacet
  facet normal -0.743145 -0.669131 0
    outer loop
      vertex 10.315 7.49426 22.55
      vertex 8.53141 9.4751 23.55
      vertex 8.53141 9.4751 22.55
    endloop
  endfacet
  facet normal -0.587785 -0.809017 0
    outer loop
      vertex 8.53141 9.4751 22.55
      vertex 8.53141 9.4751 23.55
      vertex 6.375 11.0418 23.55
    endloop
  endfacet
  facet normal -0.587785 -0.809017 0
    outer loop
      vertex 6.375 11.0418 22.55
      vertex 8.53141 9.4751 22.55
      vertex 6.375 11.0418 23.55
    endloop
  endfacet
  facet normal -0.406737 -0.913545 0
    outer loop
      vertex 6.375 11.0418 22.55
      vertex 6.375 11.0418 23.55
      vertex 3.93997 12.126 23.55
    endloop
  endfacet
  facet normal -0.406737 -0.913545 0
    outer loop
      vertex 3.93997 12.126 22.55
      vertex 6.375 11.0418 22.55
      vertex 3.93997 12.126 23.55
    endloop
  endfacet
  facet normal -0.207911 -0.978148 0
    outer loop
      vertex 3.93997 12.126 22.55
      vertex 3.93997 12.126 23.55
      vertex 1.33274 12.6802 23.55
    endloop
  endfacet
  facet normal -0.207911 -0.978148 0
    outer loop
      vertex 1.33274 12.6802 22.55
      vertex 3.93997 12.126 22.55
      vertex 1.33274 12.6802 23.55
    endloop
  endfacet
  facet normal 0 -1 0
    outer loop
      vertex 1.33274 12.6802 22.55
      vertex 1.33274 12.6802 23.55
      vertex -1.33274 12.6802 23.55
    endloop
  endfacet
  facet normal 0 -1 0
    outer loop
      vertex -1.33274 12.6802 22.55
      vertex 1.33274 12.6802 22.55
      vertex -1.33274 12.6802 23.55
    endloop
  endfacet
  facet normal 0.207911 -0.978148 0
    outer loop
      vertex -1.33274 12.6802 22.55
      vertex -1.33274 12.6802 23.55
      vertex -3.93997 12.126 23.55
    endloop
  endfacet
  facet normal 0.207911 -0.978148 0
    outer loop
      vertex -3.93997 12.126 22.55
      vertex -1.33274 12.6802 22.55
      vertex -3.93997 12.126 23.55
    endloop
  endfacet
  facet normal 0.406737 -0.913545 0
    outer loop
      vertex -3.93997 12.126 22.55
      vertex -3.93997 12.126 23.55
      vertex -6.375 11.0418 23.55
    endloop
  endfacet
  facet normal 0.406737 -0.913545 0
    outer loop
      vertex -6.375 11.0418 22.55
      vertex -3.93997 12.126 22.55
      vertex -6.375 11.0418 23.55
    endloop
  endfacet
  facet normal 0.587785 -0.809017 0
    outer loop
      vertex -6.375 11.0418 22.55
      vertex -6.375 11.0418 23.55
      vertex -8.53141 9.4751 23.55
    endloop
  endfacet
  facet normal 0.587785 -0.809017 0
    outer loop
      vertex -8.53141 9.4751 22.55
      vertex -6.375 11.0418 22.55
      vertex -8.53141 9.4751 23.55
    endloop
  endfacet
  facet normal 0.743145 -0.669131 0
    outer loop
      vertex -8.53141 9.4751 22.55
      vertex -8.53141 9.4751 23.55
      vertex -10.315 7.49426 23.55
    endloop
  endfacet
  facet normal 0.743145 -0.669131 0
    outer loop
      vertex -10.315 7.49426 22.55
      vertex -8.53141 9.4751 22.55
      vertex -10.315 7.49426 23.55
    endloop
  endfacet
  facet normal 0.866025 -0.5 0
    outer loop
      vertex -10.315 7.49426 22.55
      vertex -10.315 7.49426 23.55
      vertex -11.6477 5.18589 23.55
    endloop
  endfacet
  facet normal 0.866025 -0.5 0
    outer loop
      vertex -11.6477 5.18589 22.55
      vertex -10.315 7.49426 22.55
      vertex -11.6477 5.18589 23.55
    endloop
  endfacet
  facet normal 0.951057 -0.309017 0
    outer loop
      vertex -11.6477 5.18589 22.55
      vertex -11.6477 5.18589 23.55
      vertex -12.4714 2.65087 23.55
    endloop
  endfacet
  facet normal 0.951057 -0.309017 0
    outer loop
      vertex -12.4714 2.65087 22.55
      vertex -11.6477 5.18589 22.55
      vertex -12.4714 2.65087 23.55
    endloop
  endfacet
  facet normal 0.994522 -0.104528 0
    outer loop
      vertex -12.4714 2.65087 22.55
      vertex -12.4714 2.65087 23.55
      vertex -12.75 0 23.55
    endloop
  endfacet
  facet normal 0.994522 -0.104528 0
    outer loop
      vertex -12.75 0 22.55
      vertex -12.4714 2.65087 22.55
      vertex -12.75 0 23.55
    endloop
  endfacet
  facet normal 0.951057 0.309017 0
    outer loop
      vertex -12.4714 -2.65087 22.05
      vertex -11.6477 -5.18589 22.05
      vertex -11.6477 -5.18589 12.75
    endloop
  endfacet
  facet normal 0.951057 0.309017 0
    outer loop
      vertex -12.4714 -2.65087 12.75
      vertex -12.4714 -2.65087 22.05
      vertex -11.6477 -5.18589 12.75
    endloop
  endfacet
  facet normal 0.994522 0.104528 0
    outer loop
      vertex -12.75 0 22.05
      vertex -12.4714 -2.65087 22.05
      vertex -12.4714 -2.65087 12.75
    endloop
  endfacet
  facet normal 0.994522 0.104528 0
    outer loop
      vertex -12.75 0 12.75
      vertex -12.75 0 22.05
      vertex -12.4714 -2.65087 12.75
    endloop
  endfacet
  facet normal 0.994522 -0.104528 0
    outer loop
      vertex -12.4714 2.65087 12.75
      vertex -12.4714 2.65087 22.05
      vertex -12.75 0 22.05
    endloop
  endfacet
  facet normal 0.994522 -0.104528 0
    outer loop
      vertex -12.75 0 12.75
      vertex -12.4714 2.65087 12.75
      vertex -12.75 0 22.05
    endloop
  endfacet
  facet normal 0.951057 -0.309017 0
    outer loop
      vertex -11.6477 5.18589 12.75
      vertex -11.6477 5.18589 22.05
      vertex -12.4714 2.65087 22.05
    endloop
  endfacet
  facet normal 0.951057 -0.309017 0
    outer loop
      vertex -12.4714 2.65087 12.75
      vertex -11.6477 5.18589 12.75
      vertex -12.4714 2.65087 22.05
    endloop
  endfacet
  facet normal 0.866025 -0.5 0
    outer loop
      vertex -10.315 7.49426 12.75
      vertex -10.315 7.49426 22.05
      vertex -11.6477 5.18589 22.05
    endloop
  endfacet
  facet normal 0.866025 -0.5 0
    outer loop
      vertex -11.6477 5.18589 12.75
      vertex -10.315 7.49426 12.75
      vertex -11.6477 5.18589 22.05
    endloop
  endfacet
  facet normal 0.743145 -0.669131 0
    outer loop
      vertex -8.53141 9.4751 12.75
      vertex -8.53141 9.4751 22.05
      vertex -10.315 7.49426 22.05
    endloop
  endfacet
  facet normal 0.743145 -0.669131 0
    outer loop
      vertex -10.315 7.49426 12.75
      vertex -8.53141 9.4751 12.75
      vertex -10.315 7.49426 22.05
    endloop
  endfacet
  facet normal 0.587785 -0.809017 0
    outer loop
      vertex -6.375 11.0418 12.75
      vertex -6.375 11.0418 22.05
      vertex -8.53141 9.4751 22.05
    endloop
  endfacet
  facet normal 0.587785 -0.809017 0
    outer loop
      vertex -8.53141 9.4751 12.75
      vertex -6.375 11.0418 12.75
      vertex -8.53141 9.4751 22.05
    endloop
  endfacet
  facet normal 0.406737 -0.913545 0
    outer loop
      vertex -3.93997 12.126 12.75
      vertex -3.93997 12.126 22.05
      vertex -6.375 11.0418 22.05
    endloop
  endfacet
  facet normal 0.406737 -0.913545 0
    outer loop
      vertex -6.375 11.0418 12.75
      vertex -3.93997 12.126 12.75
      vertex -6.375 11.0418 22.05
    endloop
  endfacet
  facet normal 0.207911 -0.978148 0
    outer loop
      vertex -1.33274 12.6802 12.75
      vertex -1.33274 12.6802 22.05
      vertex -3.93997 12.126 22.05
    endloop
  endfacet
  facet normal 0.207911 -0.978148 0
    outer loop
      vertex -3.93997 12.126 12.75
      vertex -1.33274 12.6802 12.75
      vertex -3.93997 12.126 22.05
    endloop
  endfacet
  facet normal 0 -1 0
    outer loop
      vertex 1.33274 12.6802 12.75
      vertex 1.33274 12.6802 22.05
      vertex -1.33274 12.6802 22.05
    endloop
  endfacet
  facet normal 0 -1 0
    outer loop
      vertex -1.33274 12.6802 12.75
      vertex 1.33274 12.6802 12.75
      vertex -1.33274 12.6802 22.05
    endloop
  endfacet
  facet normal -0.207911 -0.978148 0
    outer loop
      vertex 3.93997 12.126 12.75
      vertex 3.93997 12.126 22.05
      vertex 1.33274 12.6802 22.05
    endloop
  endfacet
  facet normal -0.207911 -0.978148 0
    outer loop
      vertex 1.33274 12.6802 12.75
      vertex 3.93997 12.126 12.75
      vertex 1.33274 12.6802 22.05
    endloop
  endfacet
  facet normal -0.406737 -0.913545 0
    outer loop
      vertex 6.375 11.0418 12.75
      vertex 6.375 11.0418 22.05
      vertex 3.93997 12.126 22.05
    endloop
  endfacet
  facet normal -0.406737 -0.913545 0
    outer loop
      vertex 3.93997 12.126 12.75
      vertex 6.375 11.0418 12.75
      vertex 3.93997 12.126 22.05
    endloop
  endfacet
  facet normal -0.587785 -0.809017 0
    outer loop
      vertex 8.53141 9.4751 12.75
      vertex 8.53141 9.4751 22.05
      vertex 6.375 11.0418 22.05
    endloop
  endfacet
  facet normal -0.587785 -0.809017 0
    outer loop
      vertex 6.375 11.0418 12.75
      vertex 8.53141 9.4751 12.75
      vertex 6.375 11.0418 22.05
    endloop
  endfacet
  facet normal -0.743145 -0.669131 0
    outer loop
      vertex 10.315 7.49426 22.05
      vertex 8.53141 9.4751 22.05
      vertex 10.315 7.49426 12.75
    endloop
  endfacet
  facet normal -0.743145 -0.669131 0
    outer loop
      vertex 10.315 7.49426 12.75
      vertex 8.53141 9.4751 22.05
      vertex 8.53141 9.4751 12.75
    endloop
  endfacet
  facet normal -0.866025 -0.5 0
    outer loop
      vertex 11.6477 5.18589 22.05
      vertex 10.315 7.49426 22.05
      vertex 11.6477 5.18589 12.75
    endloop
  endfacet
  facet normal -0.866025 -0.5 0
    outer loop
      vertex 11.6477 5.18589 12.75
      vertex 10.315 7.49426 22.05
      vertex 10.315 7.49426 12.75
    endloop
  endfacet
  facet normal -0.951057 -0.309017 0
    outer loop
      vertex 12.4714 2.65087 22.05
      vertex 11.6477 5.18589 22.05
      vertex 12.4714 2.65087 12.75
    endloop
  endfacet
  facet normal -0.951057 -0.309017 0
    outer loop
      vertex 12.4714 2.65087 12.75
      vertex 11.6477 5.18589 22.05
      vertex 11.6477 5.18589 12.75
    endloop
  endfacet
  facet normal -0.994522 -0.104528 0
    outer loop
      vertex 12.75 0 22.05
      vertex 12.4714 2.65087 22.05
      vertex 12.75 0 12.75
    endloop
  endfacet
  facet normal -0.994522 -0.104528 0
    outer loop
      vertex 12.75 0 12.75
      vertex 12.4714 2.65087 22.05
      vertex 12.4714 2.65087 12.75
    endloop
  endfacet
  facet normal -0.994522 0.104528 0
    outer loop
      vertex 12.75 0 22.05
      vertex 12.75 0 12.75
      vertex 12.4714 -2.65087 22.05
    endloop
  endfacet
  facet normal -0.994522 0.104528 0
    outer loop
      vertex 12.4714 -2.65087 22.05
      vertex 12.75 0 12.75
      vertex 12.4714 -2.65087 12.75
    endloop
  endfacet
  facet normal -0.951057 0.309017 0
    outer loop
      vertex 12.4714 -2.65087 22.05
      vertex 12.4714 -2.65087 12.75
      vertex 11.6477 -5.18589 22.05
    endloop
  endfacet
  facet normal -0.951057 0.309017 0
    outer loop
      vertex 11.6477 -5.18589 22.05
      vertex 12.4714 -2.65087 12.75
      vertex 11.6477 -5.18589 12.75
    endloop
  endfacet
  facet normal -0.866025 0.5 0
    outer loop
      vertex 11.6477 -5.18589 22.05
      vertex 11.6477 -5.18589 12.75
      vertex 10.315 -7.49426 22.05
    endloop
  endfacet
  facet normal -0.866025 0.5 0
    outer loop
      vertex 10.315 -7.49426 22.05
      vertex 11.6477 -5.18589 12.75
      vertex 10.315 -7.49426 12.75
    endloop
  endfacet
  facet normal -0.743145 0.669131 0
    outer loop
      vertex 10.315 -7.49426 22.05
      vertex 10.315 -7.49426 12.75
      vertex 8.53141 -9.4751 22.05
    endloop
  endfacet
  facet normal -0.743145 0.669131 0
    outer loop
      vertex 8.53141 -9.4751 22.05
      vertex 10.315 -7.49426 12.75
      vertex 8.53141 -9.4751 12.75
    endloop
  endfacet
  facet normal -0.587785 0.809017 0
    outer loop
      vertex 8.53141 -9.4751 22.05
      vertex 8.53141 -9.4751 12.75
      vertex 6.375 -11.0418 22.05
    endloop
  endfacet
  facet normal -0.587785 0.809017 0
    outer loop
      vertex 6.375 -11.0418 22.05
      vertex 8.53141 -9.4751 12.75
      vertex 6.375 -11.0418 12.75
    endloop
  endfacet
  facet normal -0.406737 0.913545 0
    outer loop
      vertex 6.375 -11.0418 22.05
      vertex 6.375 -11.0418 12.75
      vertex 3.93997 -12.126 22.05
    endloop
  endfacet
  facet normal -0.406737 0.913545 0
    outer loop
      vertex 3.93997 -12.126 22.05
      vertex 6.375 -11.0418 12.75
      vertex 3.93997 -12.126 12.75
    endloop
  endfacet
  facet normal -0.207911 0.978148 0
    outer loop
      vertex 3.93997 -12.126 22.05
      vertex 3.93997 -12.126 12.75
      vertex 1.33274 -12.6802 22.05
    endloop
  endfacet
  facet normal -0.207911 0.978148 0
    outer loop
      vertex 1.33274 -12.6802 22.05
      vertex 3.93997 -12.126 12.75
      vertex 1.33274 -12.6802 12.75
    endloop
  endfacet
  facet normal 0 1 0
    outer loop
      vertex 1.33274 -12.6802 22.05
      vertex 1.33274 -12.6802 12.75
      vertex -1.33274 -12.6802 22.05
    endloop
  endfacet
  facet normal 0 1 0
    outer loop
      vertex -1.33274 -12.6802 22.05
      vertex 1.33274 -12.6802 12.75
      vertex -1.33274 -12.6802 12.75
    endloop
  endfacet
  facet normal 0.207911 0.978148 0
    outer loop
      vertex -1.33274 -12.6802 22.05
      vertex -1.33274 -12.6802 12.75
      vertex -3.93997 -12.126 22.05
    endloop
  endfacet
  facet normal 0.207911 0.978148 0
    outer loop
      vertex -3.93997 -12.126 22.05
      vertex -1.33274 -12.6802 12.75
      vertex -3.93997 -12.126 12.75
    endloop
  endfacet
  facet normal 0.406737 0.913545 0
    outer loop
      vertex -3.93997 -12.126 22.05
      vertex -3.93997 -12.126 12.75
      vertex -6.375 -11.0418 22.05
    endloop
  endfacet
  facet normal 0.406737 0.913545 0
    outer loop
      vertex -6.375 -11.0418 22.05
      vertex -3.93997 -12.126 12.75
      vertex -6.375 -11.0418 12.75
    endloop
  endfacet
  facet normal 0.587785 0.809017 0
    outer loop
      vertex -6.375 -11.0418 22.05
      vertex -6.375 -11.0418 12.75
      vertex -8.53141 -9.4751 22.05
    endloop
  endfacet
  facet normal 0.587785 0.809017 0
    outer loop
      vertex -8.53141 -9.4751 22.05
      vertex -6.375 -11.0418 12.75
      vertex -8.53141 -9.4751 12.75
    endloop
  endfacet
  facet normal 0.743145 0.669131 0
    outer loop
      vertex -10.315 -7.49426 22.05
      vertex -8.53141 -9.4751 22.05
      vertex -8.53141 -9.4751 12.75
    endloop
  endfacet
  facet normal 0.743145 0.669131 0
    outer loop
      vertex -10.315 -7.49426 12.75
      vertex -10.315 -7.49426 22.05
      vertex -8.53141 -9.4751 12.75
    endloop
  endfacet
  facet normal 0.866025 0.5 0
    outer loop
      vertex -11.6477 -5.18589 22.05
      vertex -10.315 -7.49426 22.05
      vertex -10.315 -7.49426 12.75
    endloop
  endfacet
  facet normal 0.866025 0.5 0
    outer loop
      vertex -11.6477 -5.18589 12.75
      vertex -11.6477 -5.18589 22.05
      vertex -10.315 -7.49426 12.75
    endloop
  endfacet
  facet normal 0 0 1
    outer loop
      vertex -12.4714 2.65087 22.55
      vertex -12.75 0 22.55
      vertex -12.4714 -2.65087 22.55
    endloop
  endfacet
  facet normal 0 0 1
    outer loop
      vertex -12.4 0 22.55
      vertex -12.4714 2.65087 22.55
      vertex -12.4714 -2.65087 22.55
    endloop
  endfacet
  facet normal 0 0 1
    outer loop
      vertex -12.129 2.5781 22.55
      vertex -11.328 5.04353 22.55
      vertex -12.4714 2.65087 22.55
    endloop
  endfacet
  facet normal 0 0 1
    outer loop
      vertex 11.328 5.04353 22.55
      vertex 12.129 2.5781 22.55
      vertex 12.4714 2.65087 22.55
    endloop
  endfacet
  facet normal 0 0 1
    outer loop
      vertex 10.0318 7.28854 22.55
      vertex 11.328 5.04353 22.55
      vertex 11.6477 5.18589 22.55
    endloop
  endfacet
  facet normal 0 0 1
    outer loop
      vertex 8.29722 9.215 22.55
      vertex 10.0318 7.28854 22.55
      vertex 10.315 7.49426 22.55
    endloop
  endfacet
  facet normal 0 0 1
    outer loop
      vertex 6.2 10.7387 22.55
      vertex 8.29722 9.215 22.55
      vertex 8.53141 9.4751 22.55
    endloop
  endfacet
  facet normal 0 0 1
    outer loop
      vertex 3.83181 11.7931 22.55
      vertex 6.2 10.7387 22.55
      vertex 6.375 11.0418 22.55
    endloop
  endfacet
  facet normal 0 0 1
    outer loop
      vertex 1.29615 12.3321 22.55
      vertex 3.83181 11.7931 22.55
      vertex 3.93997 12.126 22.55
    endloop
  endfacet
  facet normal 0 0 1
    outer loop
      vertex -1.29615 12.3321 22.55
      vertex 1.29615 12.3321 22.55
      vertex 1.33274 12.6802 22.55
    endloop
  endfacet
  facet normal 0 0 1
    outer loop
      vertex -3.83181 11.7931 22.55
      vertex -1.29615 12.3321 22.55
      vertex -1.33274 12.6802 22.55
    endloop
  endfacet
  facet normal 0 0 1
    outer loop
      vertex 12.129 2.5781 22.55
      vertex 12.4 0 22.55
      vertex 12.75 0 22.55
    endloop
  endfacet
  facet normal 0 0 1
    outer loop
      vertex -11.6477 5.18589 22.55
      vertex -12.4714 2.65087 22.55
      vertex -10.315 7.49426 22.55
    endloop
  endfacet
  facet normal 0 0 1
    outer loop
      vertex -11.6477 -5.18589 22.55
      vertex -12.129 -2.5781 22.55
      vertex -12.4714 -2.65087 22.55
    endloop
  endfacet
  facet normal 0 0 1
    outer loop
      vertex -12.129 -2.5781 22.55
      vertex -12.4 0 22.55
      vertex -12.4714 -2.65087 22.55
    endloop
  endfacet
  facet normal 0 0 1
    outer loop
      vertex 11.328 -5.04353 22.55
      vertex 10.0318 -7.28854 22.55
      vertex 11.6477 -5.18589 22.55
    endloop
  endfacet
  facet normal 0 0 1
    outer loop
      vertex -8.29722 9.215 22.55
      vertex -6.2 10.7387 22.55
      vertex -6.375 11.0418 22.55
    endloop
  endfacet
  facet normal 0 0 1
    outer loop
      vertex -10.315 7.49426 22.55
      vertex -12.4714 2.65087 22.55
      vertex -11.328 5.04353 22.55
    endloop
  endfacet
  facet normal 0 0 1
    outer loop
      vertex -10.315 7.49426 22.55
      vertex -10.0318 7.28854 22.55
      vertex -8.53141 9.4751 22.55
    endloop
  endfacet
  facet normal 0 0 1
    outer loop
      vertex -10.315 7.49426 22.55
      vertex -11.328 5.04353 22.55
      vertex -10.0318 7.28854 22.55
    endloop
  endfacet
  facet normal 0 0 1
    outer loop
      vertex -8.53141 9.4751 22.55
      vertex -8.29722 9.215 22.55
      vertex -6.375 11.0418 22.55
    endloop
  endfacet
  facet normal 0 0 1
    outer loop
      vertex -10.0318 7.28854 22.55
      vertex -8.29722 9.215 22.55
      vertex -8.53141 9.4751 22.55
    endloop
  endfacet
  facet normal 0 0 1
    outer loop
      vertex -6.375 11.0418 22.55
      vertex -6.2 10.7387 22.55
      vertex -3.93997 12.126 22.55
    endloop
  endfacet
  facet normal 0 0 1
    outer loop
      vertex -3.93997 12.126 22.55
      vertex -3.83181 11.7931 22.55
      vertex -1.33274 12.6802 22.55
    endloop
  endfacet
  facet normal 0 0 1
    outer loop
      vertex -1.33274 12.6802 22.55
      vertex -1.29615 12.3321 22.55
      vertex 1.33274 12.6802 22.55
    endloop
  endfacet
  facet normal 0 0 1
    outer loop
      vertex 1.33274 12.6802 22.55
      vertex 1.29615 12.3321 22.55
      vertex 3.93997 12.126 22.55
    endloop
  endfacet
  facet normal 0 0 1
    outer loop
      vertex 3.93997 12.126 22.55
      vertex 3.83181 11.7931 22.55
      vertex 6.375 11.0418 22.55
    endloop
  endfacet
  facet normal 0 0 1
    outer loop
      vertex 6.375 11.0418 22.55
      vertex 6.2 10.7387 22.55
      vertex 8.53141 9.4751 22.55
    endloop
  endfacet
  facet normal 0 0 1
    outer loop
      vertex 8.53141 9.4751 22.55
      vertex 8.29722 9.215 22.55
      vertex 10.315 7.49426 22.55
    endloop
  endfacet
  facet normal 0 0 1
    outer loop
      vertex 10.315 7.49426 22.55
      vertex 10.0318 7.28854 22.55
      vertex 11.6477 5.18589 22.55
    endloop
  endfacet
  facet normal 0 0 1
    outer loop
      vertex 11.6477 5.18589 22.55
      vertex 11.328 5.04353 22.55
      vertex 12.4714 2.65087 22.55
    endloop
  endfacet
  facet normal 0 0 1
    outer loop
      vertex 12.4714 2.65087 22.55
      vertex 12.129 2.5781 22.55
      vertex 12.75 0 22.55
    endloop
  endfacet
  facet normal 0 0 1
    outer loop
      vertex 12.75 0 22.55
      vertex 12.4 0 22.55
      vertex 12.4714 -2.65087 22.55
    endloop
  endfacet
  facet normal 0 0 1
    outer loop
      vertex 12.4714 -2.65087 22.55
      vertex 12.129 -2.5781 22.55
      vertex 11.6477 -5.18589 22.55
    endloop
  endfacet
  facet normal 0 0 1
    outer loop
      vertex -6.2 10.7387 22.55
      vertex -3.83181 11.7931 22.55
      vertex -3.93997 12.126 22.55
    endloop
  endfacet
  facet normal 0 0 1
    outer loop
      vertex 12.129 -2.5781 22.55
      vertex 11.328 -5.04353 22.55
      vertex 11.6477 -5.18589 22.55
    endloop
  endfacet
  facet normal 0 0 1
    outer loop
      vertex 11.6477 -5.18589 22.55
      vertex 10.0318 -7.28854 22.55
      vertex 10.315 -7.49426 22.55
    endloop
  endfacet
  facet normal 0 0 1
    outer loop
      vertex 10.315 -7.49426 22.55
      vertex 8.29722 -9.215 22.55
      vertex 8.53141 -9.4751 22.55
    endloop
  endfacet
  facet normal 0 0 1
    outer loop
      vertex 8.53141 -9.4751 22.55
      vertex 6.2 -10.7387 22.55
      vertex 6.375 -11.0418 22.55
    endloop
  endfacet
  facet normal 0 0 1
    outer loop
      vertex 6.375 -11.0418 22.55
      vertex 3.83181 -11.7931 22.55
      vertex 3.93997 -12.126 22.55
    endloop
  endfacet
  facet normal 0 0 1
    outer loop
      vertex 3.93997 -12.126 22.55
      vertex 1.29615 -12.3321 22.55
      vertex 1.33274 -12.6802 22.55
    endloop
  endfacet
  facet normal 0 0 1
    outer loop
      vertex 1.33274 -12.6802 22.55
      vertex -1.29615 -12.3321 22.55
      vertex -1.33274 -12.6802 22.55
    endloop
  endfacet
  facet normal 0 0 1
    outer loop
      vertex -1.33274 -12.6802 22.55
      vertex -3.83181 -11.7931 22.55
      vertex -3.93997 -12.126 22.55
    endloop
  endfacet
  facet normal 0 0 1
    outer loop
      vertex -3.93997 -12.126 22.55
      vertex -6.2 -10.7387 22.55
      vertex -6.375 -11.0418 22.55
    endloop
  endfacet
  facet normal 0 0 1
    outer loop
      vertex -6.375 -11.0418 22.55
      vertex -8.29722 -9.215 22.55
      vertex -8.53141 -9.4751 22.55
    endloop
  endfacet
  facet normal 0 0 1
    outer loop
      vertex -8.53141 -9.4751 22.55
      vertex -10.0318 -7.28854 22.55
      vertex -10.315 -7.49426 22.55
    endloop
  endfacet
  facet normal 0 0 1
    outer loop
      vertex 12.4 0 22.55
      vertex 12.129 -2.5781 22.55
      vertex 12.4714 -2.65087 22.55
    endloop
  endfacet
  facet normal 0 0 1
    outer loop
      vertex -10.315 -7.49426 22.55
      vertex -11.328 -5.04353 22.55
      vertex -11.6477 -5.18589 22.55
    endloop
  endfacet
  facet normal 0 0 1
    outer loop
      vertex -11.328 -5.04353 22.55
      vertex -12.129 -2.5781 22.55
      vertex -11.6477 -5.18589 22.55
    endloop
  endfacet
  facet normal 0 0 1
    outer loop
      vertex 10.0318 -7.28854 22.55
      vertex 8.29722 -9.215 22.55
      vertex 10.315 -7.49426 22.55
    endloop
  endfacet
  facet normal 0 0 1
    outer loop
      vertex 8.29722 -9.215 22.55
      vertex 6.2 -10.7387 22.55
      vertex 8.53141 -9.4751 22.55
    endloop
  endfacet
  facet normal 0 0 1
    outer loop
      vertex 6.2 -10.7387 22.55
      vertex 3.83181 -11.7931 22.55
      vertex 6.375 -11.0418 22.55
    endloop
  endfacet
  facet normal 0 0 1
    outer loop
      vertex 3.83181 -11.7931 22.55
      vertex 1.29615 -12.3321 22.55
      vertex 3.93997 -12.126 22.55
    endloop
  endfacet
  facet normal 0 0 1
    outer loop
      vertex 1.29615 -12.3321 22.55
      vertex -1.29615 -12.3321 22.55
      vertex 1.33274 -12.6802 22.55
    endloop
  endfacet
  facet normal 0 0 1
    outer loop
      vertex -1.29615 -12.3321 22.55
      vertex -3.83181 -11.7931 22.55
      vertex -1.33274 -12.6802 22.55
    endloop
  endfacet
  facet normal 0 0 1
    outer loop
      vertex -3.83181 -11.7931 22.55
      vertex -6.2 -10.7387 22.55
      vertex -3.93997 -12.126 22.55
    endloop
  endfacet
  facet normal 0 0 1
    outer loop
      vertex -6.2 -10.7387 22.55
      vertex -8.29722 -9.215 22.55
      vertex -6.375 -11.0418 22.55
    endloop
  endfacet
  facet normal 0 0 1
    outer loop
      vertex -8.29722 -9.215 22.55
      vertex -10.0318 -7.28854 22.55
      vertex -8.53141 -9.4751 22.55
    endloop
  endfacet
  facet normal 0 0 1
    outer loop
      vertex -10.0318 -7.28854 22.55
      vertex -11.328 -5.04353 22.55
      vertex -10.315 -7.49426 22.55
    endloop
  endfacet
  facet normal 0 0 1
    outer loop
      vertex -12.4 0 22.55
      vertex -12.129 2.5781 22.55
      vertex -12.4714 2.65087 22.55
    endloop
  endfacet
  facet normal 0 0 -1
    outer loop
      vertex -12.75 0 22.05
      vertex -12.4714 2.65087 22.05
      vertex -12.4714 -2.65087 22.05
    endloop
  endfacet
  facet normal 0 0 -1
    outer loop
      vertex -12.129 2.5781 22.05
      vertex -12.4714 2.65087 22.05
      vertex -11.6477 5.18589 22.05
    endloop
  endfacet
  facet normal 0 0 -1
    outer loop
      vertex -11.328 5.04353 22.05
      vertex -11.6477 5.18589 22.05
      vertex -10.315 7.49426 22.05
    endloop
  endfacet
  facet normal 0 0 -1
    outer loop
      vertex -10.0318 7.28854 22.05
      vertex -10.315 7.49426 22.05
      vertex -8.53141 9.4751 22.05
    endloop
  endfacet
  facet normal 0 0 -1
    outer loop
      vertex -8.29722 9.215 22.05
      vertex -8.53141 9.4751 22.05
      vertex -6.375 11.0418 22.05
    endloop
  endfacet
  facet normal 0 0 -1
    outer loop
      vertex -6.2 10.7387 22.05
      vertex -6.375 11.0418 22.05
      vertex -3.93997 12.126 22.05
    endloop
  endfacet
  facet normal 0 0 -1
    outer loop
      vertex -3.83181 11.7931 22.05
      vertex -3.93997 12.126 22.05
      vertex -1.33274 12.6802 22.05
    endloop
  endfacet
  facet normal 0 0 -1
    outer loop
      vertex -1.29615 12.3321 22.05
      vertex -1.33274 12.6802 22.05
      vertex 1.33274 12.6802 22.05
    endloop
  endfacet
  facet normal 0 0 -1
    outer loop
      vertex 1.29615 12.3321 22.05
      vertex 1.33274 12.6802 22.05
      vertex 3.93997 12.126 22.05
    endloop
  endfacet
  facet normal 0 0 -1
    outer loop
      vertex 3.83181 11.7931 22.05
      vertex 3.93997 12.126 22.05
      vertex 6.375 11.0418 22.05
    endloop
  endfacet
  facet normal 0 0 -1
    outer loop
      vertex 6.2 10.7387 22.05
      vertex 6.375 11.0418 22.05
      vertex 8.53141 9.4751 22.05
    endloop
  endfacet
  facet normal 0 0 -1
    outer loop
      vertex 8.29722 9.215 22.05
      vertex 8.53141 9.4751 22.05
      vertex 10.315 7.49426 22.05
    endloop
  endfacet
  facet normal 0 0 -1
    outer loop
      vertex 10.0318 7.28854 22.05
      vertex 10.315 7.49426 22.05
      vertex 11.6477 5.18589 22.05
    endloop
  endfacet
  facet normal 0 0 -1
    outer loop
      vertex 12.129 2.5781 22.05
      vertex 11.6477 5.18589 22.05
      vertex 12.4714 2.65087 22.05
    endloop
  endfacet
  facet normal 0 0 -1
    outer loop
      vertex 12.4 0 22.05
      vertex 12.4714 2.65087 22.05
      vertex 12.75 0 22.05
    endloop
  endfacet
  facet normal 0 0 -1
    outer loop
      vertex 12.129 -2.5781 22.05
      vertex 12.75 0 22.05
      vertex 12.4714 -2.65087 22.05
    endloop
  endfacet
  facet normal 0 0 -1
    outer loop
      vertex 11.328 -5.04353 22.05
      vertex 12.4714 -2.65087 22.05
      vertex 11.6477 -5.18589 22.05
    endloop
  endfacet
  facet normal 0 0 -1
    outer loop
      vertex 10.0318 -7.28854 22.05
      vertex 11.6477 -5.18589 22.05
      vertex 10.315 -7.49426 22.05
    endloop
  endfacet
  facet normal 0 0 -1
    outer loop
      vertex 8.29722 -9.215 22.05
      vertex 10.315 -7.49426 22.05
      vertex 8.53141 -9.4751 22.05
    endloop
  endfacet
  facet normal 0 0 -1
    outer loop
      vertex 6.2 -10.7387 22.05
      vertex 8.53141 -9.4751 22.05
      vertex 6.375 -11.0418 22.05
    endloop
  endfacet
  facet normal 0 0 -1
    outer loop
      vertex 3.83181 -11.7931 22.05
      vertex 6.375 -11.0418 22.05
      vertex 3.93997 -12.126 22.05
    endloop
  endfacet
  facet normal 0 0 -1
    outer loop
      vertex 1.29615 -12.3321 22.05
      vertex 3.93997 -12.126 22.05
      vertex 1.33274 -12.6802 22.05
    endloop
  endfacet
  facet normal 0 0 -1
    outer loop
      vertex -1.29615 -12.3321 22.05
      vertex 1.33274 -12.6802 22.05
      vertex -1.33274 -12.6802 22.05
    endloop
  endfacet
  facet normal 0 0 -1
    outer loop
      vertex -3.83181 -11.7931 22.05
      vertex -1.33274 -12.6802 22.05
      vertex -3.93997 -12.126 22.05
    endloop
  endfacet
  facet normal 0 0 -1
    outer loop
      vertex -6.2 -10.7387 22.05
      vertex -3.93997 -12.126 22.05
      vertex -6.375 -11.0418 22.05
    endloop
  endfacet
  facet normal 0 0 -1
    outer loop
      vertex -8.29722 -9.215 22.05
      vertex -6.375 -11.0418 22.05
      vertex -8.53141 -9.4751 22.05
    endloop
  endfacet
  facet normal 0 0 -1
    outer loop
      vertex -10.0318 -7.28854 22.05
      vertex -8.53141 -9.4751 22.05
      vertex -10.315 -7.49426 22.05
    endloop
  endfacet
  facet normal 0 0 -1
    outer loop
      vertex -12.4714 -2.65087 22.05
      vertex -10.315 -7.49426 22.05
      vertex -11.6477 -5.18589 22.05
    endloop
  endfacet
  facet normal 0 0 -1
    outer loop
      vertex -12.4714 -2.65087 22.05
      vertex -12.4714 2.65087 22.05
      vertex -12.4 0 22.05
    endloop
  endfacet
  facet normal 0 0 -1
    outer loop
      vertex -11.328 -5.04353 22.05
      vertex -12.4714 -2.65087 22.05
      vertex -12.129 -2.5781 22.05
    endloop
  endfacet
  facet normal 0 0 -1
    outer loop
      vertex -8.29722 -9.215 22.05
      vertex -8.53141 -9.4751 22.05
      vertex -10.0318 -7.28854 22.05
    endloop
  endfacet
  facet normal 0 0 -1
    outer loop
      vertex -12.4714 -2.65087 22.05
      vertex -11.328 -5.04353 22.05
      vertex -10.315 -7.49426 22.05
    endloop
  endfacet
  facet normal 0 0 -1
    outer loop
      vertex -11.328 -5.04353 22.05
      vertex -10.0318 -7.28854 22.05
      vertex -10.315 -7.49426 22.05
    endloop
  endfacet
  facet normal 0 0 -1
    outer loop
      vertex 12.129 2.5781 22.05
      vertex 12.4714 2.65087 22.05
      vertex 12.4 0 22.05
    endloop
  endfacet
  facet normal 0 0 -1
    outer loop
      vertex 11.328 5.04353 22.05
      vertex 11.6477 5.18589 22.05
      vertex 12.129 2.5781 22.05
    endloop
  endfacet
  facet normal 0 0 -1
    outer loop
      vertex 12.4 0 22.05
      vertex 12.75 0 22.05
      vertex 12.129 -2.5781 22.05
    endloop
  endfacet
  facet normal 0 0 -1
    outer loop
      vertex 12.129 -2.5781 22.05
      vertex 12.4714 -2.65087 22.05
      vertex 11.328 -5.04353 22.05
    endloop
  endfacet
  facet normal 0 0 -1
    outer loop
      vertex 11.328 -5.04353 22.05
      vertex 11.6477 -5.18589 22.05
      vertex 10.0318 -7.28854 22.05
    endloop
  endfacet
  facet normal 0 0 -1
    outer loop
      vertex 10.0318 -7.28854 22.05
      vertex 10.315 -7.49426 22.05
      vertex 8.29722 -9.215 22.05
    endloop
  endfacet
  facet normal 0 0 -1
    outer loop
      vertex 8.29722 -9.215 22.05
      vertex 8.53141 -9.4751 22.05
      vertex 6.2 -10.7387 22.05
    endloop
  endfacet
  facet normal 0 0 -1
    outer loop
      vertex 6.2 -10.7387 22.05
      vertex 6.375 -11.0418 22.05
      vertex 3.83181 -11.7931 22.05
    endloop
  endfacet
  facet normal 0 0 -1
    outer loop
      vertex 3.83181 -11.7931 22.05
      vertex 3.93997 -12.126 22.05
      vertex 1.29615 -12.3321 22.05
    endloop
  endfacet
  facet normal 0 0 -1
    outer loop
      vertex 1.29615 -12.3321 22.05
      vertex 1.33274 -12.6802 22.05
      vertex -1.29615 -12.3321 22.05
    endloop
  endfacet
  facet normal 0 0 -1
    outer loop
      vertex -1.29615 -12.3321 22.05
      vertex -1.33274 -12.6802 22.05
      vertex -3.83181 -11.7931 22.05
    endloop
  endfacet
  facet normal 0 0 -1
    outer loop
      vertex -3.83181 -11.7931 22.05
      vertex -3.93997 -12.126 22.05
      vertex -6.2 -10.7387 22.05
    endloop
  endfacet
  facet normal 0 0 -1
    outer loop
      vertex -6.2 -10.7387 22.05
      vertex -6.375 -11.0418 22.05
      vertex -8.29722 -9.215 22.05
    endloop
  endfacet
  facet normal 0 0 -1
    outer loop
      vertex -12.4 0 22.05
      vertex -12.4714 2.65087 22.05
      vertex -12.129 2.5781 22.05
    endloop
  endfacet
  facet normal 0 0 -1
    outer loop
      vertex -12.129 -2.5781 22.05
      vertex -12.4714 -2.65087 22.05
      vertex -12.4 0 22.05
    endloop
  endfacet
  facet normal 0 0 -1
    outer loop
      vertex -12.129 2.5781 22.05
      vertex -11.6477 5.18589 22.05
      vertex -11.328 5.04353 22.05
    endloop
  endfacet
  facet normal 0 0 -1
    outer loop
      vertex -11.328 5.04353 22.05
      vertex -10.315 7.49426 22.05
      vertex -10.0318 7.28854 22.05
    endloop
  endfacet
  facet normal 0 0 -1
    outer loop
      vertex -10.0318 7.28854 22.05
      vertex -8.53141 9.4751 22.05
      vertex -8.29722 9.215 22.05
    endloop
  endfacet
  facet normal 0 0 -1
    outer loop
      vertex -8.29722 9.215 22.05
      vertex -6.375 11.0418 22.05
      vertex -6.2 10.7387 22.05
    endloop
  endfacet
  facet normal 0 0 -1
    outer loop
      vertex -6.2 10.7387 22.05
      vertex -3.93997 12.126 22.05
      vertex -3.83181 11.7931 22.05
    endloop
  endfacet
  facet normal 0 0 -1
    outer loop
      vertex -3.83181 11.7931 22.05
      vertex -1.33274 12.6802 22.05
      vertex -1.29615 12.3321 22.05
    endloop
  endfacet
  facet normal 0 0 -1
    outer loop
      vertex -1.29615 12.3321 22.05
      vertex 1.33274 12.6802 22.05
      vertex 1.29615 12.3321 22.05
    endloop
  endfacet
  facet normal 0 0 -1
    outer loop
      vertex 1.29615 12.3321 22.05
      vertex 3.93997 12.126 22.05
      vertex 3.83181 11.7931 22.05
    endloop
  endfacet
  facet normal 0 0 -1
    outer loop
      vertex 3.83181 11.7931 22.05
      vertex 6.375 11.0418 22.05
      vertex 6.2 10.7387 22.05
    endloop
  endfacet
  facet normal 0 0 -1
    outer loop
      vertex 6.2 10.7387 22.05
      vertex 8.53141 9.4751 22.05
      vertex 8.29722 9.215 22.05
    endloop
  endfacet
  facet normal 0 0 -1
    outer loop
      vertex 8.29722 9.215 22.05
      vertex 10.315 7.49426 22.05
      vertex 10.0318 7.28854 22.05
    endloop
  endfacet
  facet normal 0 0 -1
    outer loop
      vertex 10.0318 7.28854 22.05
      vertex 11.6477 5.18589 22.05
      vertex 11.328 5.04353 22.05
    endloop
  endfacet
  facet normal 0.994522 0.104529 0
    outer loop
      vertex -12.4 0 22.55
      vertex -12.129 -2.5781 22.55
      vertex -12.129 -2.5781 22.05
    endloop
  endfacet
  facet normal 0.994522 0.104529 0
    outer loop
      vertex -12.4 0 22.05
      vertex -12.4 0 22.55
      vertex -12.129 -2.5781 22.05
    endloop
  endfacet
  facet normal 0.951057 0.309017 0
    outer loop
      vertex -12.129 -2.5781 22.55
      vertex -11.328 -5.04353 22.55
      vertex -11.328 -5.04353 22.05
    endloop
  endfacet
  facet normal 0.951057 0.309017 0
    outer loop
      vertex -12.129 -2.5781 22.05
      vertex -12.129 -2.5781 22.55
      vertex -11.328 -5.04353 22.05
    endloop
  endfacet
  facet normal 0.866025 0.5 0
    outer loop
      vertex -11.328 -5.04353 22.55
      vertex -10.0318 -7.28854 22.55
      vertex -10.0318 -7.28854 22.05
    endloop
  endfacet
  facet normal 0.866025 0.5 0
    outer loop
      vertex -11.328 -5.04353 22.05
      vertex -11.328 -5.04353 22.55
      vertex -10.0318 -7.28854 22.05
    endloop
  endfacet
  facet normal 0.743145 0.669131 0
    outer loop
      vertex -10.0318 -7.28854 22.55
      vertex -8.29722 -9.215 22.55
      vertex -8.29722 -9.215 22.05
    endloop
  endfacet
  facet normal 0.743145 0.669131 0
    outer loop
      vertex -10.0318 -7.28854 22.05
      vertex -10.0318 -7.28854 22.55
      vertex -8.29722 -9.215 22.05
    endloop
  endfacet
  facet normal 0.587785 0.809017 0
    outer loop
      vertex -6.2 -10.7387 22.55
      vertex -6.2 -10.7387 22.05
      vertex -8.29722 -9.215 22.55
    endloop
  endfacet
  facet normal 0.587785 0.809017 0
    outer loop
      vertex -8.29722 -9.215 22.55
      vertex -6.2 -10.7387 22.05
      vertex -8.29722 -9.215 22.05
    endloop
  endfacet
  facet normal 0.406737 0.913545 0
    outer loop
      vertex -3.83181 -11.7931 22.55
      vertex -3.83181 -11.7931 22.05
      vertex -6.2 -10.7387 22.55
    endloop
  endfacet
  facet normal 0.406737 0.913545 0
    outer loop
      vertex -6.2 -10.7387 22.55
      vertex -3.83181 -11.7931 22.05
      vertex -6.2 -10.7387 22.05
    endloop
  endfacet
  facet normal 0.207912 0.978148 0
    outer loop
      vertex -1.29615 -12.3321 22.55
      vertex -1.29615 -12.3321 22.05
      vertex -3.83181 -11.7931 22.55
    endloop
  endfacet
  facet normal 0.207912 0.978148 0
    outer loop
      vertex -3.83181 -11.7931 22.55
      vertex -1.29615 -12.3321 22.05
      vertex -3.83181 -11.7931 22.05
    endloop
  endfacet
  facet normal 0 1 0
    outer loop
      vertex 1.29615 -12.3321 22.55
      vertex 1.29615 -12.3321 22.05
      vertex -1.29615 -12.3321 22.55
    endloop
  endfacet
  facet normal 0 1 0
    outer loop
      vertex -1.29615 -12.3321 22.55
      vertex 1.29615 -12.3321 22.05
      vertex -1.29615 -12.3321 22.05
    endloop
  endfacet
  facet normal -0.207912 0.978148 0
    outer loop
      vertex 3.83181 -11.7931 22.55
      vertex 3.83181 -11.7931 22.05
      vertex 1.29615 -12.3321 22.55
    endloop
  endfacet
  facet normal -0.207912 0.978148 0
    outer loop
      vertex 1.29615 -12.3321 22.55
      vertex 3.83181 -11.7931 22.05
      vertex 1.29615 -12.3321 22.05
    endloop
  endfacet
  facet normal -0.406737 0.913545 0
    outer loop
      vertex 6.2 -10.7387 22.55
      vertex 6.2 -10.7387 22.05
      vertex 3.83181 -11.7931 22.55
    endloop
  endfacet
  facet normal -0.406737 0.913545 0
    outer loop
      vertex 3.83181 -11.7931 22.55
      vertex 6.2 -10.7387 22.05
      vertex 3.83181 -11.7931 22.05
    endloop
  endfacet
  facet normal -0.587785 0.809017 0
    outer loop
      vertex 8.29722 -9.215 22.55
      vertex 8.29722 -9.215 22.05
      vertex 6.2 -10.7387 22.55
    endloop
  endfacet
  facet normal -0.587785 0.809017 0
    outer loop
      vertex 6.2 -10.7387 22.55
      vertex 8.29722 -9.215 22.05
      vertex 6.2 -10.7387 22.05
    endloop
  endfacet
  facet normal -0.743145 0.669131 0
    outer loop
      vertex 10.0318 -7.28854 22.55
      vertex 10.0318 -7.28854 22.05
      vertex 8.29722 -9.215 22.55
    endloop
  endfacet
  facet normal -0.743145 0.669131 0
    outer loop
      vertex 8.29722 -9.215 22.55
      vertex 10.0318 -7.28854 22.05
      vertex 8.29722 -9.215 22.05
    endloop
  endfacet
  facet normal -0.866025 0.5 0
    outer loop
      vertex 11.328 -5.04353 22.55
      vertex 11.328 -5.04353 22.05
      vertex 10.0318 -7.28854 22.55
    endloop
  endfacet
  facet normal -0.866025 0.5 0
    outer loop
      vertex 10.0318 -7.28854 22.55
      vertex 11.328 -5.04353 22.05
      vertex 10.0318 -7.28854 22.05
    endloop
  endfacet
  facet normal -0.951057 0.309017 0
    outer loop
      vertex 12.129 -2.5781 22.55
      vertex 12.129 -2.5781 22.05
      vertex 11.328 -5.04353 22.55
    endloop
  endfacet
  facet normal -0.951057 0.309017 0
    outer loop
      vertex 11.328 -5.04353 22.55
      vertex 12.129 -2.5781 22.05
      vertex 11.328 -5.04353 22.05
    endloop
  endfacet
  facet normal -0.994522 0.104529 0
    outer loop
      vertex 12.4 0 22.55
      vertex 12.4 0 22.05
      vertex 12.129 -2.5781 22.55
    endloop
  endfacet
  facet normal -0.994522 0.104529 0
    outer loop
      vertex 12.129 -2.5781 22.55
      vertex 12.4 0 22.05
      vertex 12.129 -2.5781 22.05
    endloop
  endfacet
  facet normal -0.994522 -0.104529 0
    outer loop
      vertex 12.4 0 22.55
      vertex 12.129 2.5781 22.55
      vertex 12.4 0 22.05
    endloop
  endfacet
  facet normal -0.994522 -0.104529 0
    outer loop
      vertex 12.4 0 22.05
      vertex 12.129 2.5781 22.55
      vertex 12.129 2.5781 22.05
    endloop
  endfacet
  facet normal -0.951057 -0.309017 0
    outer loop
      vertex 12.129 2.5781 22.55
      vertex 11.328 5.04353 22.55
      vertex 12.129 2.5781 22.05
    endloop
  endfacet
  facet normal -0.951057 -0.309017 0
    outer loop
      vertex 12.129 2.5781 22.05
      vertex 11.328 5.04353 22.55
      vertex 11.328 5.04353 22.05
    endloop
  endfacet
  facet normal -0.866025 -0.5 0
    outer loop
      vertex 11.328 5.04353 22.55
      vertex 10.0318 7.28854 22.55
      vertex 11.328 5.04353 22.05
    endloop
  endfacet
  facet normal -0.866025 -0.5 0
    outer loop
      vertex 11.328 5.04353 22.05
      vertex 10.0318 7.28854 22.55
      vertex 10.0318 7.28854 22.05
    endloop
  endfacet
  facet normal -0.743145 -0.669131 0
    outer loop
      vertex 10.0318 7.28854 22.55
      vertex 8.29722 9.215 22.55
      vertex 10.0318 7.28854 22.05
    endloop
  endfacet
  facet normal -0.743145 -0.669131 0
    outer loop
      vertex 10.0318 7.28854 22.05
      vertex 8.29722 9.215 22.55
      vertex 8.29722 9.215 22.05
    endloop
  endfacet
  facet normal -0.587785 -0.809017 0
    outer loop
      vertex 8.29722 9.215 22.05
      vertex 8.29722 9.215 22.55
      vertex 6.2 10.7387 22.55
    endloop
  endfacet
  facet normal -0.587785 -0.809017 0
    outer loop
      vertex 6.2 10.7387 22.05
      vertex 8.29722 9.215 22.05
      vertex 6.2 10.7387 22.55
    endloop
  endfacet
  facet normal -0.406737 -0.913545 0
    outer loop
      vertex 6.2 10.7387 22.05
      vertex 6.2 10.7387 22.55
      vertex 3.83181 11.7931 22.55
    endloop
  endfacet
  facet normal -0.406737 -0.913545 0
    outer loop
      vertex 3.83181 11.7931 22.05
      vertex 6.2 10.7387 22.05
      vertex 3.83181 11.7931 22.55
    endloop
  endfacet
  facet normal -0.207912 -0.978148 0
    outer loop
      vertex 3.83181 11.7931 22.05
      vertex 3.83181 11.7931 22.55
      vertex 1.29615 12.3321 22.55
    endloop
  endfacet
  facet normal -0.207912 -0.978148 0
    outer loop
      vertex 1.29615 12.3321 22.05
      vertex 3.83181 11.7931 22.05
      vertex 1.29615 12.3321 22.55
    endloop
  endfacet
  facet normal 0 -1 0
    outer loop
      vertex 1.29615 12.3321 22.05
      vertex 1.29615 12.3321 22.55
      vertex -1.29615 12.3321 22.55
    endloop
  endfacet
  facet normal 0 -1 0
    outer loop
      vertex -1.29615 12.3321 22.05
      vertex 1.29615 12.3321 22.05
      vertex -1.29615 12.3321 22.55
    endloop
  endfacet
  facet normal 0.207912 -0.978148 0
    outer loop
      vertex -1.29615 12.3321 22.05
      vertex -1.29615 12.3321 22.55
      vertex -3.83181 11.7931 22.55
    endloop
  endfacet
  facet normal 0.207912 -0.978148 0
    outer loop
      vertex -3.83181 11.7931 22.05
      vertex -1.29615 12.3321 22.05
      vertex -3.83181 11.7931 22.55
    endloop
  endfacet
  facet normal 0.406737 -0.913545 0
    outer loop
      vertex -3.83181 11.7931 22.05
      vertex -3.83181 11.7931 22.55
      vertex -6.2 10.7387 22.55
    endloop
  endfacet
  facet normal 0.406737 -0.913545 0
    outer loop
      vertex -6.2 10.7387 22.05
      vertex -3.83181 11.7931 22.05
      vertex -6.2 10.7387 22.55
    endloop
  endfacet
  facet normal 0.587785 -0.809017 0
    outer loop
      vertex -6.2 10.7387 22.05
      vertex -6.2 10.7387 22.55
      vertex -8.29722 9.215 22.55
    endloop
  endfacet
  facet normal 0.587785 -0.809017 0
    outer loop
      vertex -8.29722 9.215 22.05
      vertex -6.2 10.7387 22.05
      vertex -8.29722 9.215 22.55
    endloop
  endfacet
  facet normal 0.743145 -0.669131 0
    outer loop
      vertex -8.29722 9.215 22.05
      vertex -8.29722 9.215 22.55
      vertex -10.0318 7.28854 22.55
    endloop
  endfacet
  facet normal 0.743145 -0.669131 0
    outer loop
      vertex -10.0318 7.28854 22.05
      vertex -8.29722 9.215 22.05
      vertex -10.0318 7.28854 22.55
    endloop
  endfacet
  facet normal 0.866025 -0.5 0
    outer loop
      vertex -10.0318 7.28854 22.05
      vertex -10.0318 7.28854 22.55
      vertex -11.328 5.04353 22.55
    endloop
  endfacet
  facet normal 0.866025 -0.5 0
    outer loop
      vertex -11.328 5.04353 22.05
      vertex -10.0318 7.28854 22.05
      vertex -11.328 5.04353 22.55
    endloop
  endfacet
  facet normal 0.951057 -0.309017 0
    outer loop
      vertex -11.328 5.04353 22.05
      vertex -11.328 5.04353 22.55
      vertex -12.129 2.5781 22.55
    endloop
  endfacet
  facet normal 0.951057 -0.309017 0
    outer loop
      vertex -12.129 2.5781 22.05
      vertex -11.328 5.04353 22.05
      vertex -12.129 2.5781 22.55
    endloop
  endfacet
  facet normal 0.994522 -0.104529 0
    outer loop
      vertex -12.129 2.5781 22.05
      vertex -12.129 2.5781 22.55
      vertex -12.4 0 22.55
    endloop
  endfacet
  facet normal 0.994522 -0.104529 0
    outer loop
      vertex -12.4 0 22.05
      vertex -12.129 2.5781 22.05
      vertex -12.4 0 22.55
    endloop
  endfacet
endsolid OpenSCAD_Model
