solid OpenSCAD_Model
  facet normal -1 0 0
    outer loop
      vertex -39.25 -36.75 0
      vertex -39.25 -36.75 2.5
      vertex -39.25 36.75 0
    endloop
  endfacet
  facet normal -1 0 0
    outer loop
      vertex -39.25 36.75 0
      vertex -39.25 -36.75 2.5
      vertex -39.25 36.75 2.5
    endloop
  endfacet
  facet normal 0 -1 0
    outer loop
      vertex -39.25 -36.75 2.5
      vertex -39.25 -36.75 0
      vertex 39.25 -36.75 0
    endloop
  endfacet
  facet normal 0 -1 0
    outer loop
      vertex 39.25 -36.75 2.5
      vertex -39.25 -36.75 2.5
      vertex 39.25 -36.75 0
    endloop
  endfacet
  facet normal 0 0 -1
    outer loop
      vertex 35.25 -28.75 0
      vertex 39.25 -36.75 0
      vertex -35.25 -28.75 0
    endloop
  endfacet
  facet normal 0 0 -1
    outer loop
      vertex 35.25 28.75 0
      vertex -39.25 36.75 0
      vertex 39.25 36.75 0
    endloop
  endfacet
  facet normal 0 0 -1
    outer loop
      vertex -39.25 -36.75 0
      vertex -39.25 36.75 0
      vertex -35.25 28.75 0
    endloop
  endfacet
  facet normal 0 0 -1
    outer loop
      vertex -39.25 -36.75 0
      vertex -35.25 28.75 0
      vertex -35.25 -28.75 0
    endloop
  endfacet
  facet normal 0 0 -1
    outer loop
      vertex -39.25 -36.75 0
      vertex -35.25 -28.75 0
      vertex 39.25 -36.75 0
    endloop
  endfacet
  facet normal 0 0 -1
    outer loop
      vertex 39.25 -36.75 0
      vertex 35.25 -28.75 0
      vertex 39.25 36.75 0
    endloop
  endfacet
  facet normal 0 0 -1
    outer loop
      vertex 35.25 -28.75 0
      vertex 35.25 28.75 0
      vertex 39.25 36.75 0
    endloop
  endfacet
  facet normal 0 0 -1
    outer loop
      vertex -35.25 28.75 0
      vertex -39.25 36.75 0
      vertex 35.25 28.75 0
    endloop
  endfacet
  facet normal 0 1 0
    outer loop
      vertex -39.25 36.75 0
      vertex -39.25 36.75 2.5
      vertex 39.25 36.75 0
    endloop
  endfacet
  facet normal 0 1 0
    outer loop
      vertex 39.25 36.75 0
      vertex -39.25 36.75 2.5
      vertex 39.25 36.75 2.5
    endloop
  endfacet
  facet normal 0 0 1
    outer loop
      vertex -37.25 -33.75 2.5
      vertex -39.25 -36.75 2.5
      vertex 39.25 -36.75 2.5
    endloop
  endfacet
  facet normal 0 0 1
    outer loop
      vertex -39.25 36.75 2.5
      vertex -39.25 -36.75 2.5
      vertex -37.25 -33.75 2.5
    endloop
  endfacet
  facet normal 0 0 1
    outer loop
      vertex -37.25 33.75 2.5
      vertex 37.25 33.75 2.5
      vertex -39.25 36.75 2.5
    endloop
  endfacet
  facet normal 0 0 1
    outer loop
      vertex -39.25 36.75 2.5
      vertex -37.25 -33.75 2.5
      vertex -37.25 33.75 2.5
    endloop
  endfacet
  facet normal 0 0 1
    outer loop
      vertex 39.25 36.75 2.5
      vertex 37.25 33.75 2.5
      vertex 39.25 -36.75 2.5
    endloop
  endfacet
  facet normal 0 0 1
    outer loop
      vertex 39.25 36.75 2.5
      vertex -39.25 36.75 2.5
      vertex 37.25 33.75 2.5
    endloop
  endfacet
  facet normal 0 0 1
    outer loop
      vertex 37.25 33.75 2.5
      vertex 37.25 -33.75 2.5
      vertex 39.25 -36.75 2.5
    endloop
  endfacet
  facet normal 0 0 1
    outer loop
      vertex 37.25 -33.75 2.5
      vertex -37.25 -33.75 2.5
      vertex 39.25 -36.75 2.5
    endloop
  endfacet
  facet normal 1 0 0
    outer loop
      vertex 39.25 -36.75 2.5
      vertex 39.25 -36.75 0
      vertex 39.25 36.75 0
    endloop
  endfacet
  facet normal 1 0 0
    outer loop
      vertex 39.25 36.75 2.5
      vertex 39.25 -36.75 2.5
      vertex 39.25 36.75 0
    endloop
  endfacet
  facet normal 1 0 0
    outer loop
      vertex -35.25 28.75 0
      vertex -35.25 28.75 1.7
      vertex -35.25 -28.75 1.7
    endloop
  endfacet
  facet normal 1 0 0
    outer loop
      vertex -35.25 -28.75 0
      vertex -35.25 28.75 0
      vertex -35.25 -28.75 1.7
    endloop
  endfacet
  facet normal 0 -1 0
    outer loop
      vertex 35.25 28.75 0
      vertex 35.25 28.75 1.7
      vertex -35.25 28.75 1.7
    endloop
  endfacet
  facet normal 0 -1 0
    outer loop
      vertex -35.25 28.75 0
      vertex 35.25 28.75 0
      vertex -35.25 28.75 1.7
    endloop
  endfacet
  facet normal -1 0 0
    outer loop
      vertex 35.25 28.75 1.7
      vertex 35.25 28.75 0
      vertex 35.25 -28.75 1.7
    endloop
  endfacet
  facet normal -1 0 0
    outer loop
      vertex 35.25 -28.75 1.7
      vertex 35.25 28.75 0
      vertex 35.25 -28.75 0
    endloop
  endfacet
  facet normal 0 1 0
    outer loop
      vertex 35.25 -28.75 1.7
      vertex 35.25 -28.75 0
      vertex -35.25 -28.75 1.7
    endloop
  endfacet
  facet normal 0 1 0
    outer loop
      vertex -35.25 -28.75 1.7
      vertex 35.25 -28.75 0
      vertex -35.25 -28.75 0
    endloop
  endfacet
  facet normal 1 0 0
    outer loop
      vertex -37.25 33.75 1.7
      vertex -37.25 33.75 2.5
      vertex -37.25 -33.75 2.5
    endloop
  endfacet
  facet normal 1 0 0
    outer loop
      vertex -37.25 -33.75 1.7
      vertex -37.25 33.75 1.7
      vertex -37.25 -33.75 2.5
    endloop
  endfacet
  facet normal 0 1 0
    outer loop
      vertex 37.25 -33.75 2.5
      vertex 37.25 -33.75 1.7
      vertex -37.25 -33.75 2.5
    endloop
  endfacet
  facet normal 0 1 0
    outer loop
      vertex -37.25 -33.75 2.5
      vertex 37.25 -33.75 1.7
      vertex -37.25 -33.75 1.7
    endloop
  endfacet
  facet normal -1 0 0
    outer loop
      vertex 37.25 33.75 2.5
      vertex 37.25 33.75 1.7
      vertex 37.25 -33.75 2.5
    endloop
  endfacet
  facet normal -1 0 0
    outer loop
      vertex 37.25 -33.75 2.5
      vertex 37.25 33.75 1.7
      vertex 37.25 -33.75 1.7
    endloop
  endfacet
  facet normal 0 -1 0
    outer loop
      vertex 37.25 33.75 1.7
      vertex 37.25 33.75 2.5
      vertex -37.25 33.75 2.5
    endloop
  endfacet
  facet normal 0 -1 0
    outer loop
      vertex -37.25 33.75 1.7
      vertex 37.25 33.75 1.7
      vertex -37.25 33.75 2.5
    endloop
  endfacet
  facet normal 0 0 1
    outer loop
      vertex 35.25 28.75 1.7
      vertex 37.25 33.75 1.7
      vertex -37.25 33.75 1.7
    endloop
  endfacet
  facet normal 0 0 1
    outer loop
      vertex -37.25 -33.75 1.7
      vertex -35.25 28.75 1.7
      vertex -37.25 33.75 1.7
    endloop
  endfacet
  facet normal 0 0 1
    outer loop
      vertex 37.25 -33.75 1.7
      vertex 37.25 33.75 1.7
      vertex 35.25 28.75 1.7
    endloop
  endfacet
  facet normal 0 0 1
    outer loop
      vertex 35.25 -28.75 1.7
      vertex -35.25 -28.75 1.7
      vertex 37.25 -33.75 1.7
    endloop
  endfacet
  facet normal 0 0 1
    outer loop
      vertex 37.25 -33.75 1.7
      vertex 35.25 28.75 1.7
      vertex 35.25 -28.75 1.7
    endloop
  endfacet
  facet normal 0 0 1
    outer loop
      vertex -37.25 -33.75 1.7
      vertex -35.25 -28.75 1.7
      vertex -35.25 28.75 1.7
    endloop
  endfacet
  facet normal 0 0 1
    outer loop
      vertex -37.25 -33.75 1.7
      vertex 37.25 -33.75 1.7
      vertex -35.25 -28.75 1.7
    endloop
  endfacet
  facet normal 0 0 1
    outer loop
      vertex -35.25 28.75 1.7
      vertex 35.25 28.75 1.7
      vertex -37.25 33.75 1.7
    endloop
  endfacet
endsolid OpenSCAD_Model
