solid OpenSCAD_Model
  facet normal -1 0 0
    outer loop
      vertex -27.75 -27.75 0
      vertex -27.75 -27.75 54.5
      vertex -27.75 27.75 0
    endloop
  endfacet
  facet normal -1 0 0
    outer loop
      vertex -27.75 27.75 0
      vertex -27.75 -27.75 54.5
      vertex -27.75 27.75 54.5
    endloop
  endfacet
  facet normal 0 -1 0
    outer loop
      vertex -27.75 -27.75 54.5
      vertex -27.75 -27.75 0
      vertex 27.75 -27.75 0
    endloop
  endfacet
  facet normal 0 -1 0
    outer loop
      vertex -4 -27.75 46.5
      vertex -27.75 -27.75 54.5
      vertex 27.75 -27.75 0
    endloop
  endfacet
  facet normal 0 -1 0
    outer loop
      vertex 27.75 -27.75 54.5
      vertex 4 -27.75 54.5
      vertex 27.75 -27.75 0
    endloop
  endfacet
  facet normal 0 -1 0
    outer loop
      vertex 4 -27.75 54.5
      vertex 4 -27.75 46.5
      vertex 27.75 -27.75 0
    endloop
  endfacet
  facet normal 0 -1 0
    outer loop
      vertex 4 -27.75 46.5
      vertex -4 -27.75 46.5
      vertex 27.75 -27.75 0
    endloop
  endfacet
  facet normal 0 -1 0
    outer loop
      vertex -4 -27.75 46.5
      vertex -4 -27.75 54.5
      vertex -27.75 -27.75 54.5
    endloop
  endfacet
  facet normal 0 0 -1
    outer loop
      vertex 1.5 5.25 0
      vertex 27.75 -27.75 0
      vertex 1.5 -6.75 0
    endloop
  endfacet
  facet normal 0 0 -1
    outer loop
      vertex 1.5 5.25 0
      vertex -27.75 27.75 0
      vertex 27.75 27.75 0
    endloop
  endfacet
  facet normal 0 0 -1
    outer loop
      vertex -27.75 -27.75 0
      vertex -27.75 27.75 0
      vertex -8.5 5.25 0
    endloop
  endfacet
  facet normal 0 0 -1
    outer loop
      vertex -27.75 -27.75 0
      vertex -8.5 5.25 0
      vertex -8.5 -6.75 0
    endloop
  endfacet
  facet normal 0 0 -1
    outer loop
      vertex -27.75 -27.75 0
      vertex -8.5 -6.75 0
      vertex 27.75 -27.75 0
    endloop
  endfacet
  facet normal 0 0 -1
    outer loop
      vertex -8.5 -6.75 0
      vertex 1.5 -6.75 0
      vertex 27.75 -27.75 0
    endloop
  endfacet
  facet normal 0 0 -1
    outer loop
      vertex 27.75 -27.75 0
      vertex 1.5 5.25 0
      vertex 27.75 27.75 0
    endloop
  endfacet
  facet normal 0 0 -1
    outer loop
      vertex -8.5 5.25 0
      vertex -27.75 27.75 0
      vertex 1.5 5.25 0
    endloop
  endfacet
  facet normal 0 1 0
    outer loop
      vertex -27.75 27.75 0
      vertex -27.75 27.75 54.5
      vertex 27.75 27.75 0
    endloop
  endfacet
  facet normal 0 1 0
    outer loop
      vertex -4 27.75 46.5
      vertex -27.75 27.75 54.5
      vertex -4 27.75 54.5
    endloop
  endfacet
  facet normal 0 1 0
    outer loop
      vertex 27.75 27.75 0
      vertex -27.75 27.75 54.5
      vertex -4 27.75 46.5
    endloop
  endfacet
  facet normal 0 1 0
    outer loop
      vertex 27.75 27.75 0
      vertex 4 27.75 46.5
      vertex 4 27.75 54.5
    endloop
  endfacet
  facet normal 0 1 0
    outer loop
      vertex 27.75 27.75 0
      vertex 4 27.75 54.5
      vertex 27.75 27.75 54.5
    endloop
  endfacet
  facet normal 0 1 0
    outer loop
      vertex 4 27.75 46.5
      vertex 27.75 27.75 0
      vertex -4 27.75 46.5
    endloop
  endfacet
  facet normal 0 0 1
    outer loop
      vertex 4 -27.75 54.5
      vertex 27.75 -27.75 54.5
      vertex 25 -25 54.5
    endloop
  endfacet
  facet normal 0 0 1
    outer loop
      vertex -25 -25 54.5
      vertex -27.75 -27.75 54.5
      vertex -4 -27.75 54.5
    endloop
  endfacet
  facet normal 0 0 1
    outer loop
      vertex 28.2865 -0.881678 54.5
      vertex 27.75 -4 54.5
      vertex 33.5 -4 54.5
    endloop
  endfacet
  facet normal 0 0 1
    outer loop
      vertex -25 25 54.5
      vertex 4 27.75 54.5
      vertex -4 27.75 54.5
    endloop
  endfacet
  facet normal 0 0 1
    outer loop
      vertex 4 -27.75 54.5
      vertex 1.5 -30.75 54.5
      vertex 4 -34.75 54.5
    endloop
  endfacet
  facet normal 0 0 1
    outer loop
      vertex 4 -27.75 54.5
      vertex -1.21352 -29.8683 54.5
      vertex 0.463525 -29.3234 54.5
    endloop
  endfacet
  facet normal 0 0 1
    outer loop
      vertex 29.9635 1.42658 54.5
      vertex 33.5 4 54.5
      vertex 27.75 4 54.5
    endloop
  endfacet
  facet normal 0 0 1
    outer loop
      vertex -4 35.25 54.5
      vertex -1.21352 30.3683 54.5
      vertex -1.21352 32.1317 54.5
    endloop
  endfacet
  facet normal 0 0 1
    outer loop
      vertex 25 25 54.5
      vertex 27.75 27.75 54.5
      vertex 4 27.75 54.5
    endloop
  endfacet
  facet normal 0 0 1
    outer loop
      vertex 4 -27.75 54.5
      vertex 0.463525 -29.3234 54.5
      vertex 1.5 -30.75 54.5
    endloop
  endfacet
  facet normal 0 0 1
    outer loop
      vertex -4 35.25 54.5
      vertex -4 27.75 54.5
      vertex -1.21352 30.3683 54.5
    endloop
  endfacet
  facet normal 0 0 1
    outer loop
      vertex 0.463525 32.6766 54.5
      vertex 1.5 31.25 54.5
      vertex 4 35.25 54.5
    endloop
  endfacet
  facet normal 0 0 1
    outer loop
      vertex 25 25 54.5
      vertex 28.2865 -0.881678 54.5
      vertex 27.75 4 54.5
    endloop
  endfacet
  facet normal 0 0 1
    outer loop
      vertex -27.75 27.75 54.5
      vertex -27.75 -27.75 54.5
      vertex -25 -25 54.5
    endloop
  endfacet
  facet normal 0 0 1
    outer loop
      vertex -25 25 54.5
      vertex 25 25 54.5
      vertex 4 27.75 54.5
    endloop
  endfacet
  facet normal 0 0 1
    outer loop
      vertex -4 35.25 54.5
      vertex -1.21352 32.1317 54.5
      vertex 4 35.25 54.5
    endloop
  endfacet
  facet normal 0 0 1
    outer loop
      vertex 27.75 -27.75 54.5
      vertex 27.75 -4 54.5
      vertex 25 -25 54.5
    endloop
  endfacet
  facet normal 0 0 1
    outer loop
      vertex -4 -34.75 54.5
      vertex -1.21352 -31.6317 54.5
      vertex -4 -27.75 54.5
    endloop
  endfacet
  facet normal 0 0 1
    outer loop
      vertex -4 -34.75 54.5
      vertex 4 -34.75 54.5
      vertex -1.21352 -31.6317 54.5
    endloop
  endfacet
  facet normal 0 0 1
    outer loop
      vertex 25 25 54.5
      vertex 27.75 -4 54.5
      vertex 28.2865 -0.881678 54.5
    endloop
  endfacet
  facet normal 0 0 1
    outer loop
      vertex 0.463525 29.8234 54.5
      vertex -1.21352 30.3683 54.5
      vertex -4 27.75 54.5
    endloop
  endfacet
  facet normal 0 0 1
    outer loop
      vertex -25 25 54.5
      vertex -4 27.75 54.5
      vertex -27.75 27.75 54.5
    endloop
  endfacet
  facet normal 0 0 1
    outer loop
      vertex 1.5 -30.75 54.5
      vertex 0.463525 -32.1766 54.5
      vertex 4 -34.75 54.5
    endloop
  endfacet
  facet normal 0 0 1
    outer loop
      vertex -1.21352 -31.6317 54.5
      vertex 4 -34.75 54.5
      vertex 0.463525 -32.1766 54.5
    endloop
  endfacet
  facet normal 0 0 1
    outer loop
      vertex -25 -25 54.5
      vertex -25 25 54.5
      vertex -27.75 27.75 54.5
    endloop
  endfacet
  facet normal 0 0 1
    outer loop
      vertex 0.463525 32.6766 54.5
      vertex 4 35.25 54.5
      vertex -1.21352 32.1317 54.5
    endloop
  endfacet
  facet normal 0 0 1
    outer loop
      vertex 28.2865 0.881678 54.5
      vertex 29.9635 1.42658 54.5
      vertex 27.75 4 54.5
    endloop
  endfacet
  facet normal 0 0 1
    outer loop
      vertex 31 0 54.5
      vertex 29.9635 -1.42658 54.5
      vertex 33.5 -4 54.5
    endloop
  endfacet
  facet normal 0 0 1
    outer loop
      vertex 4 27.75 54.5
      vertex 4 35.25 54.5
      vertex 1.5 31.25 54.5
    endloop
  endfacet
  facet normal 0 0 1
    outer loop
      vertex 4 27.75 54.5
      vertex 0.463525 29.8234 54.5
      vertex -4 27.75 54.5
    endloop
  endfacet
  facet normal 0 0 1
    outer loop
      vertex 4 27.75 54.5
      vertex 1.5 31.25 54.5
      vertex 0.463525 29.8234 54.5
    endloop
  endfacet
  facet normal 0 0 1
    outer loop
      vertex 28.2865 0.881678 54.5
      vertex 27.75 4 54.5
      vertex 28.2865 -0.881678 54.5
    endloop
  endfacet
  facet normal 0 0 1
    outer loop
      vertex 31 0 54.5
      vertex 33.5 4 54.5
      vertex 29.9635 1.42658 54.5
    endloop
  endfacet
  facet normal 0 0 1
    outer loop
      vertex 33.5 -4 54.5
      vertex 33.5 4 54.5
      vertex 31 0 54.5
    endloop
  endfacet
  facet normal 0 0 1
    outer loop
      vertex 33.5 -4 54.5
      vertex 29.9635 -1.42658 54.5
      vertex 28.2865 -0.881678 54.5
    endloop
  endfacet
  facet normal 0 0 1
    outer loop
      vertex -1.21352 -31.6317 54.5
      vertex -1.21352 -29.8683 54.5
      vertex -4 -27.75 54.5
    endloop
  endfacet
  facet normal 0 0 1
    outer loop
      vertex 25 25 54.5
      vertex 25 -25 54.5
      vertex 27.75 -4 54.5
    endloop
  endfacet
  facet normal 0 0 1
    outer loop
      vertex 27.75 4 54.5
      vertex 27.75 27.75 54.5
      vertex 25 25 54.5
    endloop
  endfacet
  facet normal 0 0 1
    outer loop
      vertex 4 -27.75 54.5
      vertex -4 -27.75 54.5
      vertex -1.21352 -29.8683 54.5
    endloop
  endfacet
  facet normal 0 0 1
    outer loop
      vertex 25 -25 54.5
      vertex -4 -27.75 54.5
      vertex 4 -27.75 54.5
    endloop
  endfacet
  facet normal 0 0 1
    outer loop
      vertex 25 -25 54.5
      vertex -25 -25 54.5
      vertex -4 -27.75 54.5
    endloop
  endfacet
  facet normal -1 0 0
    outer loop
      vertex -4 -34.75 46.5
      vertex -4 -34.75 54.5
      vertex -4 -27.75 46.5
    endloop
  endfacet
  facet normal -1 0 0
    outer loop
      vertex -4 -27.75 46.5
      vertex -4 -34.75 54.5
      vertex -4 -27.75 54.5
    endloop
  endfacet
  facet normal 0 0 -1
    outer loop
      vertex -4 -34.75 46.5
      vertex -4 -27.75 46.5
      vertex 4 -34.75 46.5
    endloop
  endfacet
  facet normal 0 0 -1
    outer loop
      vertex 4 -34.75 46.5
      vertex -4 -27.75 46.5
      vertex 4 -27.75 46.5
    endloop
  endfacet
  facet normal 1 0 0
    outer loop
      vertex 4 -34.75 54.5
      vertex 4 -34.75 46.5
      vertex 4 -27.75 46.5
    endloop
  endfacet
  facet normal 1 0 0
    outer loop
      vertex 4 -27.75 54.5
      vertex 4 -34.75 54.5
      vertex 4 -27.75 46.5
    endloop
  endfacet
  facet normal 1 0 0
    outer loop
      vertex 27.75 -27.75 54.5
      vertex 27.75 -27.75 0
      vertex 27.75 27.75 0
    endloop
  endfacet
  facet normal 1 0 0
    outer loop
      vertex 27.75 -4 46.5
      vertex 27.75 -27.75 54.5
      vertex 27.75 27.75 0
    endloop
  endfacet
  facet normal 1 0 0
    outer loop
      vertex 27.75 27.75 54.5
      vertex 27.75 4 54.5
      vertex 27.75 27.75 0
    endloop
  endfacet
  facet normal 1 0 0
    outer loop
      vertex 27.75 4 54.5
      vertex 27.75 4 46.5
      vertex 27.75 27.75 0
    endloop
  endfacet
  facet normal 1 0 0
    outer loop
      vertex 27.75 4 46.5
      vertex 27.75 -4 46.5
      vertex 27.75 27.75 0
    endloop
  endfacet
  facet normal 1 0 0
    outer loop
      vertex 27.75 -4 46.5
      vertex 27.75 -4 54.5
      vertex 27.75 -27.75 54.5
    endloop
  endfacet
  facet normal 1 0 0
    outer loop
      vertex -8.5 5.25 0
      vertex -8.5 5.25 4.5
      vertex -8.5 -6.75 4.5
    endloop
  endfacet
  facet normal 1 0 0
    outer loop
      vertex -8.5 -6.75 0
      vertex -8.5 5.25 0
      vertex -8.5 -6.75 4.5
    endloop
  endfacet
  facet normal 0 -1 0
    outer loop
      vertex 1.5 5.25 0
      vertex 1.5 5.25 4.5
      vertex -8.5 5.25 4.5
    endloop
  endfacet
  facet normal 0 -1 0
    outer loop
      vertex -8.5 5.25 0
      vertex 1.5 5.25 0
      vertex -8.5 5.25 4.5
    endloop
  endfacet
  facet normal -1 0 0
    outer loop
      vertex 1.5 5.25 4.5
      vertex 1.5 5.25 0
      vertex 1.5 -6.75 4.5
    endloop
  endfacet
  facet normal -1 0 0
    outer loop
      vertex 1.5 -6.75 4.5
      vertex 1.5 5.25 0
      vertex 1.5 -6.75 0
    endloop
  endfacet
  facet normal 0 1 0
    outer loop
      vertex 1.5 -6.75 4.5
      vertex 1.5 -6.75 0
      vertex -8.5 -6.75 4.5
    endloop
  endfacet
  facet normal 0 1 0
    outer loop
      vertex -8.5 -6.75 4.5
      vertex 1.5 -6.75 0
      vertex -8.5 -6.75 0
    endloop
  endfacet
  facet normal 1 0 0
    outer loop
      vertex 4 27.75 54.5
      vertex 4 27.75 46.5
      vertex 4 35.25 46.5
    endloop
  endfacet
  facet normal 1 0 0
    outer loop
      vertex 4 35.25 54.5
      vertex 4 27.75 54.5
      vertex 4 35.25 46.5
    endloop
  endfacet
  facet normal 0 0 -1
    outer loop
      vertex -4 27.75 46.5
      vertex -4 35.25 46.5
      vertex 4 27.75 46.5
    endloop
  endfacet
  facet normal 0 0 -1
    outer loop
      vertex 4 27.75 46.5
      vertex -4 35.25 46.5
      vertex 4 35.25 46.5
    endloop
  endfacet
  facet normal -1 0 0
    outer loop
      vertex -4 27.75 46.5
      vertex -4 27.75 54.5
      vertex -4 35.25 46.5
    endloop
  endfacet
  facet normal -1 0 0
    outer loop
      vertex -4 35.25 46.5
      vertex -4 27.75 54.5
      vertex -4 35.25 54.5
    endloop
  endfacet
  facet normal 0 1 0
    outer loop
      vertex -4 35.25 46.5
      vertex -4 35.25 54.5
      vertex 4 35.25 46.5
    endloop
  endfacet
  facet normal 0 1 0
    outer loop
      vertex 4 35.25 46.5
      vertex -4 35.25 54.5
      vertex 4 35.25 54.5
    endloop
  endfacet
  facet normal 0 1 0
    outer loop
      vertex 27.75 4 46.5
      vertex 27.75 4 54.5
      vertex 33.5 4 46.5
    endloop
  endfacet
  facet normal 0 1 0
    outer loop
      vertex 33.5 4 46.5
      vertex 27.75 4 54.5
      vertex 33.5 4 54.5
    endloop
  endfacet
  facet normal 1 0 0
    outer loop
      vertex 33.5 -4 54.5
      vertex 33.5 -4 46.5
      vertex 33.5 4 46.5
    endloop
  endfacet
  facet normal 1 0 0
    outer loop
      vertex 33.5 4 54.5
      vertex 33.5 -4 54.5
      vertex 33.5 4 46.5
    endloop
  endfacet
  facet normal 0 -1 0
    outer loop
      vertex 27.75 -4 54.5
      vertex 27.75 -4 46.5
      vertex 33.5 -4 46.5
    endloop
  endfacet
  facet normal 0 -1 0
    outer loop
      vertex 33.5 -4 54.5
      vertex 27.75 -4 54.5
      vertex 33.5 -4 46.5
    endloop
  endfacet
  facet normal 0 -1 0
    outer loop
      vertex -4 -34.75 54.5
      vertex -4 -34.75 46.5
      vertex 4 -34.75 46.5
    endloop
  endfacet
  facet normal 0 -1 0
    outer loop
      vertex 4 -34.75 54.5
      vertex -4 -34.75 54.5
      vertex 4 -34.75 46.5
    endloop
  endfacet
  facet normal -1 0 0
    outer loop
      vertex -25 -25 54.5
      vertex -25 -25 56.5
      vertex -25 25 54.5
    endloop
  endfacet
  facet normal -1 0 0
    outer loop
      vertex -25 25 54.5
      vertex -25 -25 56.5
      vertex -25 25 56.5
    endloop
  endfacet
  facet normal 0 -1 0
    outer loop
      vertex -25 -25 56.5
      vertex -25 -25 54.5
      vertex 25 -25 54.5
    endloop
  endfacet
  facet normal 0 -1 0
    outer loop
      vertex 25 -25 56.5
      vertex -25 -25 56.5
      vertex 25 -25 54.5
    endloop
  endfacet
  facet normal 1 0 0
    outer loop
      vertex 25 -25 56.5
      vertex 25 -25 54.5
      vertex 25 25 54.5
    endloop
  endfacet
  facet normal 1 0 0
    outer loop
      vertex 25 25 56.5
      vertex 25 -25 56.5
      vertex 25 25 54.5
    endloop
  endfacet
  facet normal 0 1 0
    outer loop
      vertex -25 25 54.5
      vertex -25 25 56.5
      vertex 25 25 54.5
    endloop
  endfacet
  facet normal 0 1 0
    outer loop
      vertex 25 25 54.5
      vertex -25 25 56.5
      vertex 25 25 56.5
    endloop
  endfacet
  facet normal 1 0 0
    outer loop
      vertex -1.21352 -29.8683 47.5
      vertex -1.21352 -29.8683 54.5
      vertex -1.21352 -31.6317 54.5
    endloop
  endfacet
  facet normal 1 0 0
    outer loop
      vertex -1.21352 -31.6317 47.5
      vertex -1.21352 -29.8683 47.5
      vertex -1.21352 -31.6317 54.5
    endloop
  endfacet
  facet normal 0.309017 0.951056 0
    outer loop
      vertex 0.463525 -32.1766 54.5
      vertex 0.463525 -32.1766 47.5
      vertex -1.21352 -31.6317 54.5
    endloop
  endfacet
  facet normal 0.309017 0.951056 0
    outer loop
      vertex -1.21352 -31.6317 54.5
      vertex 0.463525 -32.1766 47.5
      vertex -1.21352 -31.6317 47.5
    endloop
  endfacet
  facet normal -0.809017 0.587785 0
    outer loop
      vertex 1.5 -30.75 54.5
      vertex 1.5 -30.75 47.5
      vertex 0.463525 -32.1766 54.5
    endloop
  endfacet
  facet normal -0.809017 0.587785 0
    outer loop
      vertex 0.463525 -32.1766 54.5
      vertex 1.5 -30.75 47.5
      vertex 0.463525 -32.1766 47.5
    endloop
  endfacet
  facet normal -0.809017 -0.587785 0
    outer loop
      vertex 1.5 -30.75 54.5
      vertex 0.463525 -29.3234 54.5
      vertex 1.5 -30.75 47.5
    endloop
  endfacet
  facet normal -0.809017 -0.587785 0
    outer loop
      vertex 1.5 -30.75 47.5
      vertex 0.463525 -29.3234 54.5
      vertex 0.463525 -29.3234 47.5
    endloop
  endfacet
  facet normal 0.309017 -0.951056 0
    outer loop
      vertex 0.463525 -29.3234 47.5
      vertex 0.463525 -29.3234 54.5
      vertex -1.21352 -29.8683 54.5
    endloop
  endfacet
  facet normal 0.309017 -0.951056 0
    outer loop
      vertex -1.21352 -29.8683 47.5
      vertex 0.463525 -29.3234 47.5
      vertex -1.21352 -29.8683 54.5
    endloop
  endfacet
  facet normal 1 0 0
    outer loop
      vertex -1.21352 32.1317 47.5
      vertex -1.21352 32.1317 54.5
      vertex -1.21352 30.3683 54.5
    endloop
  endfacet
  facet normal 1 0 0
    outer loop
      vertex -1.21352 30.3683 47.5
      vertex -1.21352 32.1317 47.5
      vertex -1.21352 30.3683 54.5
    endloop
  endfacet
  facet normal 0.309017 0.951056 0
    outer loop
      vertex 0.463525 29.8234 54.5
      vertex 0.463525 29.8234 47.5
      vertex -1.21352 30.3683 54.5
    endloop
  endfacet
  facet normal 0.309017 0.951056 0
    outer loop
      vertex -1.21352 30.3683 54.5
      vertex 0.463525 29.8234 47.5
      vertex -1.21352 30.3683 47.5
    endloop
  endfacet
  facet normal -0.809017 0.587785 0
    outer loop
      vertex 1.5 31.25 54.5
      vertex 1.5 31.25 47.5
      vertex 0.463525 29.8234 54.5
    endloop
  endfacet
  facet normal -0.809017 0.587785 0
    outer loop
      vertex 0.463525 29.8234 54.5
      vertex 1.5 31.25 47.5
      vertex 0.463525 29.8234 47.5
    endloop
  endfacet
  facet normal -0.809017 -0.587785 0
    outer loop
      vertex 1.5 31.25 54.5
      vertex 0.463525 32.6766 54.5
      vertex 1.5 31.25 47.5
    endloop
  endfacet
  facet normal -0.809017 -0.587785 0
    outer loop
      vertex 1.5 31.25 47.5
      vertex 0.463525 32.6766 54.5
      vertex 0.463525 32.6766 47.5
    endloop
  endfacet
  facet normal 0.309017 -0.951056 0
    outer loop
      vertex 0.463525 32.6766 47.5
      vertex 0.463525 32.6766 54.5
      vertex -1.21352 32.1317 54.5
    endloop
  endfacet
  facet normal 0.309017 -0.951056 0
    outer loop
      vertex -1.21352 32.1317 47.5
      vertex 0.463525 32.6766 47.5
      vertex -1.21352 32.1317 54.5
    endloop
  endfacet
  facet normal 1 0 0
    outer loop
      vertex 28.2865 0.881678 47.5
      vertex 28.2865 0.881678 54.5
      vertex 28.2865 -0.881678 54.5
    endloop
  endfacet
  facet normal 1 0 0
    outer loop
      vertex 28.2865 -0.881678 47.5
      vertex 28.2865 0.881678 47.5
      vertex 28.2865 -0.881678 54.5
    endloop
  endfacet
  facet normal 0.309017 0.951056 0
    outer loop
      vertex 29.9635 -1.42658 54.5
      vertex 29.9635 -1.42658 47.5
      vertex 28.2865 -0.881678 54.5
    endloop
  endfacet
  facet normal 0.309017 0.951056 0
    outer loop
      vertex 28.2865 -0.881678 54.5
      vertex 29.9635 -1.42658 47.5
      vertex 28.2865 -0.881678 47.5
    endloop
  endfacet
  facet normal -0.809017 0.587785 0
    outer loop
      vertex 31 0 54.5
      vertex 31 0 47.5
      vertex 29.9635 -1.42658 54.5
    endloop
  endfacet
  facet normal -0.809017 0.587785 0
    outer loop
      vertex 29.9635 -1.42658 54.5
      vertex 31 0 47.5
      vertex 29.9635 -1.42658 47.5
    endloop
  endfacet
  facet normal -0.809017 -0.587785 0
    outer loop
      vertex 31 0 54.5
      vertex 29.9635 1.42658 54.5
      vertex 31 0 47.5
    endloop
  endfacet
  facet normal -0.809017 -0.587785 0
    outer loop
      vertex 31 0 47.5
      vertex 29.9635 1.42658 54.5
      vertex 29.9635 1.42658 47.5
    endloop
  endfacet
  facet normal 0.309017 -0.951056 0
    outer loop
      vertex 29.9635 1.42658 47.5
      vertex 29.9635 1.42658 54.5
      vertex 28.2865 0.881678 54.5
    endloop
  endfacet
  facet normal 0.309017 -0.951056 0
    outer loop
      vertex 28.2865 0.881678 47.5
      vertex 29.9635 1.42658 47.5
      vertex 28.2865 0.881678 54.5
    endloop
  endfacet
  facet normal 0 0 -1
    outer loop
      vertex 27.75 -4 46.5
      vertex 27.75 4 46.5
      vertex 33.5 -4 46.5
    endloop
  endfacet
  facet normal 0 0 -1
    outer loop
      vertex 33.5 -4 46.5
      vertex 27.75 4 46.5
      vertex 33.5 4 46.5
    endloop
  endfacet
  facet normal 0 0 1
    outer loop
      vertex -16.4184 18.7401 4.5
      vertex 25 25 4.5
      vertex -25 25 4.5
    endloop
  endfacet
  facet normal 0 0 1
    outer loop
      vertex -25 -25 4.5
      vertex -18.8838 -14.0427 4.5
      vertex -25 25 4.5
    endloop
  endfacet
  facet normal 0 0 1
    outer loop
      vertex -18.8838 -14.0427 4.5
      vertex -17.994 -12.3475 4.5
      vertex -25 25 4.5
    endloop
  endfacet
  facet normal 0 0 1
    outer loop
      vertex -17.994 -12.3475 4.5
      vertex -16.4184 -11.2599 4.5
      vertex -25 25 4.5
    endloop
  endfacet
  facet normal 0 0 1
    outer loop
      vertex -16.4184 -11.2599 4.5
      vertex -14.5179 -11.0292 4.5
      vertex -25 25 4.5
    endloop
  endfacet
  facet normal 0 0 1
    outer loop
      vertex -12.7277 -11.7081 4.5
      vertex 25 -25 4.5
      vertex -14.5179 -11.0292 4.5
    endloop
  endfacet
  facet normal 0 0 1
    outer loop
      vertex -11.4582 -13.1411 4.5
      vertex -11 -15 4.5
      vertex 25 -25 4.5
    endloop
  endfacet
  facet normal 0 0 1
    outer loop
      vertex -11 -15 4.5
      vertex -11.4582 -16.8589 4.5
      vertex 25 -25 4.5
    endloop
  endfacet
  facet normal 0 0 1
    outer loop
      vertex -14.5179 -18.9708 4.5
      vertex -16.4184 -18.7401 4.5
      vertex -25 -25 4.5
    endloop
  endfacet
  facet normal 0 0 1
    outer loop
      vertex -12.7277 -18.2919 4.5
      vertex 25 -25 4.5
      vertex -11.4582 -16.8589 4.5
    endloop
  endfacet
  facet normal 0 0 1
    outer loop
      vertex -25 -25 4.5
      vertex 25 -25 4.5
      vertex -12.7277 -18.2919 4.5
    endloop
  endfacet
  facet normal 0 0 1
    outer loop
      vertex -25 -25 4.5
      vertex -12.7277 -18.2919 4.5
      vertex -14.5179 -18.9708 4.5
    endloop
  endfacet
  facet normal 0 0 1
    outer loop
      vertex 15.4821 18.9708 4.5
      vertex 17.2723 18.2919 4.5
      vertex 25 25 4.5
    endloop
  endfacet
  facet normal 0 0 1
    outer loop
      vertex -25 -25 4.5
      vertex -16.4184 -18.7401 4.5
      vertex -17.994 -17.6525 4.5
    endloop
  endfacet
  facet normal 0 0 1
    outer loop
      vertex -25 -25 4.5
      vertex -18.8838 -15.9573 4.5
      vertex -18.8838 -14.0427 4.5
    endloop
  endfacet
  facet normal 0 0 1
    outer loop
      vertex -25 -25 4.5
      vertex -17.994 -17.6525 4.5
      vertex -18.8838 -15.9573 4.5
    endloop
  endfacet
  facet normal 0 0 1
    outer loop
      vertex -18.8838 14.0427 4.5
      vertex -18.8838 15.9573 4.5
      vertex -25 25 4.5
    endloop
  endfacet
  facet normal 0 0 1
    outer loop
      vertex -18.8838 15.9573 4.5
      vertex -17.994 17.6525 4.5
      vertex -25 25 4.5
    endloop
  endfacet
  facet normal 0 0 1
    outer loop
      vertex -14.5179 18.9708 4.5
      vertex 25 25 4.5
      vertex -16.4184 18.7401 4.5
    endloop
  endfacet
  facet normal 0 0 1
    outer loop
      vertex -12.7277 18.2919 4.5
      vertex 25 25 4.5
      vertex -14.5179 18.9708 4.5
    endloop
  endfacet
  facet normal 0 0 1
    outer loop
      vertex 1.5 5.25 4.5
      vertex 11.1162 -14.0427 4.5
      vertex 12.006 -12.3475 4.5
    endloop
  endfacet
  facet normal 0 0 1
    outer loop
      vertex -11.4582 16.8589 4.5
      vertex 25 25 4.5
      vertex -12.7277 18.2919 4.5
    endloop
  endfacet
  facet normal 0 0 1
    outer loop
      vertex 13.5816 18.7401 4.5
      vertex 25 25 4.5
      vertex -11.4582 16.8589 4.5
    endloop
  endfacet
  facet normal 0 0 1
    outer loop
      vertex 1.5 5.25 4.5
      vertex 1.5 -6.75 4.5
      vertex 11.1162 -14.0427 4.5
    endloop
  endfacet
  facet normal 0 0 1
    outer loop
      vertex -17.994 12.3475 4.5
      vertex -18.8838 14.0427 4.5
      vertex -14.5179 -11.0292 4.5
    endloop
  endfacet
  facet normal 0 0 1
    outer loop
      vertex -14.5179 -11.0292 4.5
      vertex -14.5179 11.0292 4.5
      vertex -16.4184 11.2599 4.5
    endloop
  endfacet
  facet normal 0 0 1
    outer loop
      vertex 1.5 5.25 4.5
      vertex 12.006 -12.3475 4.5
      vertex 13.5816 -11.2599 4.5
    endloop
  endfacet
  facet normal 0 0 1
    outer loop
      vertex -14.5179 -11.0292 4.5
      vertex -16.4184 11.2599 4.5
      vertex -17.994 12.3475 4.5
    endloop
  endfacet
  facet normal 0 0 1
    outer loop
      vertex -14.5179 -11.0292 4.5
      vertex -18.8838 14.0427 4.5
      vertex -25 25 4.5
    endloop
  endfacet
  facet normal 0 0 1
    outer loop
      vertex 17.2723 -18.2919 4.5
      vertex 15.4821 -18.9708 4.5
      vertex 25 -25 4.5
    endloop
  endfacet
  facet normal 0 0 1
    outer loop
      vertex -14.5179 -11.0292 4.5
      vertex -8.5 5.25 4.5
      vertex -14.5179 11.0292 4.5
    endloop
  endfacet
  facet normal 0 0 1
    outer loop
      vertex 11.1162 -15.9573 4.5
      vertex 11.1162 -14.0427 4.5
      vertex 1.5 -6.75 4.5
    endloop
  endfacet
  facet normal 0 0 1
    outer loop
      vertex -14.5179 -11.0292 4.5
      vertex -8.5 -6.75 4.5
      vertex -8.5 5.25 4.5
    endloop
  endfacet
  facet normal 0 0 1
    outer loop
      vertex -14.5179 -11.0292 4.5
      vertex 1.5 -6.75 4.5
      vertex -8.5 -6.75 4.5
    endloop
  endfacet
  facet normal 0 0 1
    outer loop
      vertex 18.5418 -16.8589 4.5
      vertex 17.2723 -18.2919 4.5
      vertex 25 -25 4.5
    endloop
  endfacet
  facet normal 0 0 1
    outer loop
      vertex 17.2723 -11.7081 4.5
      vertex 25 25 4.5
      vertex 15.4821 -11.0292 4.5
    endloop
  endfacet
  facet normal 0 0 1
    outer loop
      vertex 18.5418 -13.1411 4.5
      vertex 25 25 4.5
      vertex 17.2723 -11.7081 4.5
    endloop
  endfacet
  facet normal 0 0 1
    outer loop
      vertex 19 -15 4.5
      vertex 18.5418 -16.8589 4.5
      vertex 25 -25 4.5
    endloop
  endfacet
  facet normal 0 0 1
    outer loop
      vertex 25 -25 4.5
      vertex 25 25 4.5
      vertex 18.5418 -13.1411 4.5
    endloop
  endfacet
  facet normal 0 0 1
    outer loop
      vertex 18.5418 -13.1411 4.5
      vertex 19 -15 4.5
      vertex 25 -25 4.5
    endloop
  endfacet
  facet normal 0 0 1
    outer loop
      vertex 13.5816 -18.7401 4.5
      vertex 12.006 -17.6525 4.5
      vertex -14.5179 -11.0292 4.5
    endloop
  endfacet
  facet normal 0 0 1
    outer loop
      vertex 13.5816 -11.2599 4.5
      vertex 15.4821 -11.0292 4.5
      vertex 1.5 5.25 4.5
    endloop
  endfacet
  facet normal 0 0 1
    outer loop
      vertex 13.5816 -18.7401 4.5
      vertex 25 -25 4.5
      vertex 15.4821 -18.9708 4.5
    endloop
  endfacet
  facet normal 0 0 1
    outer loop
      vertex 13.5816 18.7401 4.5
      vertex 15.4821 18.9708 4.5
      vertex 25 25 4.5
    endloop
  endfacet
  facet normal 0 0 1
    outer loop
      vertex -14.5179 -11.0292 4.5
      vertex 25 -25 4.5
      vertex 13.5816 -18.7401 4.5
    endloop
  endfacet
  facet normal 0 0 1
    outer loop
      vertex -14.5179 -11.0292 4.5
      vertex 12.006 -17.6525 4.5
      vertex 1.5 -6.75 4.5
    endloop
  endfacet
  facet normal 0 0 1
    outer loop
      vertex 12.006 -17.6525 4.5
      vertex 11.1162 -15.9573 4.5
      vertex 1.5 -6.75 4.5
    endloop
  endfacet
  facet normal 0 0 1
    outer loop
      vertex 1.5 5.25 4.5
      vertex 11.1162 15.9573 4.5
      vertex -11.4582 16.8589 4.5
    endloop
  endfacet
  facet normal 0 0 1
    outer loop
      vertex 11.1162 15.9573 4.5
      vertex 12.006 17.6525 4.5
      vertex -11.4582 16.8589 4.5
    endloop
  endfacet
  facet normal 0 0 1
    outer loop
      vertex 12.006 17.6525 4.5
      vertex 13.5816 18.7401 4.5
      vertex -11.4582 16.8589 4.5
    endloop
  endfacet
  facet normal 0 0 1
    outer loop
      vertex 18.5418 16.8589 4.5
      vertex 25 25 4.5
      vertex 17.2723 18.2919 4.5
    endloop
  endfacet
  facet normal 0 0 1
    outer loop
      vertex 19 15 4.5
      vertex 25 25 4.5
      vertex 18.5418 16.8589 4.5
    endloop
  endfacet
  facet normal 0 0 1
    outer loop
      vertex 15.4821 -11.0292 4.5
      vertex 25 25 4.5
      vertex 19 15 4.5
    endloop
  endfacet
  facet normal 0 0 1
    outer loop
      vertex 17.2723 11.7081 4.5
      vertex 15.4821 11.0292 4.5
      vertex 15.4821 -11.0292 4.5
    endloop
  endfacet
  facet normal 0 0 1
    outer loop
      vertex 15.4821 -11.0292 4.5
      vertex 19 15 4.5
      vertex 18.5418 13.1411 4.5
    endloop
  endfacet
  facet normal 0 0 1
    outer loop
      vertex 12.006 12.3475 4.5
      vertex 11.1162 14.0427 4.5
      vertex 1.5 5.25 4.5
    endloop
  endfacet
  facet normal 0 0 1
    outer loop
      vertex 15.4821 -11.0292 4.5
      vertex 15.4821 11.0292 4.5
      vertex 1.5 5.25 4.5
    endloop
  endfacet
  facet normal 0 0 1
    outer loop
      vertex 15.4821 11.0292 4.5
      vertex 13.5816 11.2599 4.5
      vertex 1.5 5.25 4.5
    endloop
  endfacet
  facet normal 0 0 1
    outer loop
      vertex 13.5816 11.2599 4.5
      vertex 12.006 12.3475 4.5
      vertex 1.5 5.25 4.5
    endloop
  endfacet
  facet normal 0 0 1
    outer loop
      vertex 1.5 5.25 4.5
      vertex 11.1162 14.0427 4.5
      vertex 11.1162 15.9573 4.5
    endloop
  endfacet
  facet normal 0 0 1
    outer loop
      vertex 18.5418 13.1411 4.5
      vertex 17.2723 11.7081 4.5
      vertex 15.4821 -11.0292 4.5
    endloop
  endfacet
  facet normal 0 0 1
    outer loop
      vertex -12.7277 -11.7081 4.5
      vertex -11.4582 -13.1411 4.5
      vertex 25 -25 4.5
    endloop
  endfacet
  facet normal 0 0 1
    outer loop
      vertex -17.994 17.6525 4.5
      vertex -16.4184 18.7401 4.5
      vertex -25 25 4.5
    endloop
  endfacet
  facet normal 0 0 1
    outer loop
      vertex -8.5 5.25 4.5
      vertex -12.7277 11.7081 4.5
      vertex -14.5179 11.0292 4.5
    endloop
  endfacet
  facet normal 0 0 1
    outer loop
      vertex -8.5 5.25 4.5
      vertex -11.4582 13.1411 4.5
      vertex -12.7277 11.7081 4.5
    endloop
  endfacet
  facet normal 0 0 1
    outer loop
      vertex -8.5 5.25 4.5
      vertex -11 15 4.5
      vertex -11.4582 13.1411 4.5
    endloop
  endfacet
  facet normal 0 0 1
    outer loop
      vertex -8.5 5.25 4.5
      vertex -11.4582 16.8589 4.5
      vertex -11 15 4.5
    endloop
  endfacet
  facet normal 0 0 1
    outer loop
      vertex -8.5 5.25 4.5
      vertex 1.5 5.25 4.5
      vertex -11.4582 16.8589 4.5
    endloop
  endfacet
  facet normal 0 0 1
    outer loop
      vertex -23.25 -23.25 56.5
      vertex -25 -25 56.5
      vertex 25 -25 56.5
    endloop
  endfacet
  facet normal 0 0 1
    outer loop
      vertex -23.25 23.25 56.5
      vertex -25 25 56.5
      vertex -23.25 -23.25 56.5
    endloop
  endfacet
  facet normal 0 0 1
    outer loop
      vertex 23.25 -23.25 56.5
      vertex -23.25 -23.25 56.5
      vertex 25 -25 56.5
    endloop
  endfacet
  facet normal 0 0 1
    outer loop
      vertex -25 25 56.5
      vertex -25 -25 56.5
      vertex -23.25 -23.25 56.5
    endloop
  endfacet
  facet normal 0 0 1
    outer loop
      vertex 25 25 56.5
      vertex -25 25 56.5
      vertex -23.25 23.25 56.5
    endloop
  endfacet
  facet normal 0 0 1
    outer loop
      vertex 25 25 56.5
      vertex 23.25 23.25 56.5
      vertex 25 -25 56.5
    endloop
  endfacet
  facet normal 0 0 1
    outer loop
      vertex 25 25 56.5
      vertex -23.25 23.25 56.5
      vertex 23.25 23.25 56.5
    endloop
  endfacet
  facet normal 0 0 1
    outer loop
      vertex 23.25 23.25 56.5
      vertex 23.25 -23.25 56.5
      vertex 25 -25 56.5
    endloop
  endfacet
  facet normal 0 0 1
    outer loop
      vertex 0.463525 -32.1766 47.5
      vertex 1.5 -30.75 47.5
      vertex 0.463525 -29.3234 47.5
    endloop
  endfacet
  facet normal 0 0 1
    outer loop
      vertex -1.21352 -31.6317 47.5
      vertex 0.463525 -32.1766 47.5
      vertex -1.21352 -29.8683 47.5
    endloop
  endfacet
  facet normal 0 0 1
    outer loop
      vertex -1.21352 -29.8683 47.5
      vertex 0.463525 -32.1766 47.5
      vertex 0.463525 -29.3234 47.5
    endloop
  endfacet
  facet normal 0 0 1
    outer loop
      vertex 0.463525 29.8234 47.5
      vertex 1.5 31.25 47.5
      vertex 0.463525 32.6766 47.5
    endloop
  endfacet
  facet normal 0 0 1
    outer loop
      vertex -1.21352 30.3683 47.5
      vertex 0.463525 29.8234 47.5
      vertex -1.21352 32.1317 47.5
    endloop
  endfacet
  facet normal 0 0 1
    outer loop
      vertex -1.21352 32.1317 47.5
      vertex 0.463525 29.8234 47.5
      vertex 0.463525 32.6766 47.5
    endloop
  endfacet
  facet normal 0 0 1
    outer loop
      vertex 29.9635 -1.42658 47.5
      vertex 31 0 47.5
      vertex 29.9635 1.42658 47.5
    endloop
  endfacet
  facet normal 0 0 1
    outer loop
      vertex 28.2865 -0.881678 47.5
      vertex 29.9635 -1.42658 47.5
      vertex 28.2865 0.881678 47.5
    endloop
  endfacet
  facet normal 0 0 1
    outer loop
      vertex 28.2865 0.881678 47.5
      vertex 29.9635 -1.42658 47.5
      vertex 29.9635 1.42658 47.5
    endloop
  endfacet
  facet normal -1 0 0
    outer loop
      vertex 25 25 50
      vertex 25 25 4.5
      vertex 25 -25 50
    endloop
  endfacet
  facet normal -1 0 0
    outer loop
      vertex 25 -25 50
      vertex 25 25 4.5
      vertex 25 -25 4.5
    endloop
  endfacet
  facet normal 0 1 0
    outer loop
      vertex 25 -25 50
      vertex 25 -25 4.5
      vertex -25 -25 50
    endloop
  endfacet
  facet normal 0 1 0
    outer loop
      vertex -25 -25 50
      vertex 25 -25 4.5
      vertex -25 -25 4.5
    endloop
  endfacet
  facet normal 1 0 0
    outer loop
      vertex -25 25 4.5
      vertex -25 25 50
      vertex -25 -25 50
    endloop
  endfacet
  facet normal 1 0 0
    outer loop
      vertex -25 -25 4.5
      vertex -25 25 4.5
      vertex -25 -25 50
    endloop
  endfacet
  facet normal 0 -1 0
    outer loop
      vertex 25 25 4.5
      vertex 25 25 50
      vertex -25 25 50
    endloop
  endfacet
  facet normal 0 -1 0
    outer loop
      vertex -25 25 4.5
      vertex 25 25 4.5
      vertex -25 25 50
    endloop
  endfacet
  facet normal -1 0 0
    outer loop
      vertex -18.8838 -15.9573 4.5
      vertex -18.8838 -15.9573 19.5
      vertex -18.8838 -14.0427 4.5
    endloop
  endfacet
  facet normal -1 0 0
    outer loop
      vertex -18.8838 -14.0427 4.5
      vertex -18.8838 -15.9573 19.5
      vertex -18.8838 -14.0427 19.5
    endloop
  endfacet
  facet normal -0.885456 0.464723 0
    outer loop
      vertex -18.8838 -14.0427 4.5
      vertex -18.8838 -14.0427 19.5
      vertex -17.994 -12.3475 4.5
    endloop
  endfacet
  facet normal -0.885456 0.464723 0
    outer loop
      vertex -17.994 -12.3475 4.5
      vertex -18.8838 -14.0427 19.5
      vertex -17.994 -12.3475 19.5
    endloop
  endfacet
  facet normal -0.885456 -0.464723 0
    outer loop
      vertex -18.8838 -15.9573 4.5
      vertex -17.994 -17.6525 4.5
      vertex -18.8838 -15.9573 19.5
    endloop
  endfacet
  facet normal -0.885456 -0.464723 0
    outer loop
      vertex -18.8838 -15.9573 19.5
      vertex -17.994 -17.6525 4.5
      vertex -17.994 -17.6525 19.5
    endloop
  endfacet
  facet normal -0.568065 -0.822984 0
    outer loop
      vertex -17.994 -17.6525 19.5
      vertex -17.994 -17.6525 4.5
      vertex -16.4184 -18.7401 4.5
    endloop
  endfacet
  facet normal -0.568065 -0.822984 0
    outer loop
      vertex -16.4184 -18.7401 19.5
      vertex -17.994 -17.6525 19.5
      vertex -16.4184 -18.7401 4.5
    endloop
  endfacet
  facet normal -0.120536 -0.992709 0
    outer loop
      vertex -16.4184 -18.7401 19.5
      vertex -16.4184 -18.7401 4.5
      vertex -14.5179 -18.9708 4.5
    endloop
  endfacet
  facet normal -0.120536 -0.992709 0
    outer loop
      vertex -14.5179 -18.9708 19.5
      vertex -16.4184 -18.7401 19.5
      vertex -14.5179 -18.9708 4.5
    endloop
  endfacet
  facet normal 0.354605 -0.935016 0
    outer loop
      vertex -14.5179 -18.9708 19.5
      vertex -14.5179 -18.9708 4.5
      vertex -12.7277 -18.2919 4.5
    endloop
  endfacet
  facet normal 0.354605 -0.935016 0
    outer loop
      vertex -12.7277 -18.2919 19.5
      vertex -14.5179 -18.9708 19.5
      vertex -12.7277 -18.2919 4.5
    endloop
  endfacet
  facet normal 0.748511 -0.663123 0
    outer loop
      vertex -12.7277 -18.2919 19.5
      vertex -12.7277 -18.2919 4.5
      vertex -11.4582 -16.8589 4.5
    endloop
  endfacet
  facet normal 0.748511 -0.663123 0
    outer loop
      vertex -11.4582 -16.8589 19.5
      vertex -12.7277 -18.2919 19.5
      vertex -11.4582 -16.8589 4.5
    endloop
  endfacet
  facet normal 0.970942 -0.239316 0
    outer loop
      vertex -11.4582 -16.8589 19.5
      vertex -11.4582 -16.8589 4.5
      vertex -11 -15 4.5
    endloop
  endfacet
  facet normal 0.970942 -0.239316 0
    outer loop
      vertex -11 -15 19.5
      vertex -11.4582 -16.8589 19.5
      vertex -11 -15 4.5
    endloop
  endfacet
  facet normal 0.970942 0.239316 0
    outer loop
      vertex -11 -15 4.5
      vertex -11.4582 -13.1411 4.5
      vertex -11.4582 -13.1411 19.5
    endloop
  endfacet
  facet normal 0.970942 0.239316 0
    outer loop
      vertex -11 -15 19.5
      vertex -11 -15 4.5
      vertex -11.4582 -13.1411 19.5
    endloop
  endfacet
  facet normal 0.748511 0.663123 0
    outer loop
      vertex -11.4582 -13.1411 4.5
      vertex -12.7277 -11.7081 4.5
      vertex -12.7277 -11.7081 19.5
    endloop
  endfacet
  facet normal 0.748511 0.663123 0
    outer loop
      vertex -11.4582 -13.1411 19.5
      vertex -11.4582 -13.1411 4.5
      vertex -12.7277 -11.7081 19.5
    endloop
  endfacet
  facet normal 0.354605 0.935016 0
    outer loop
      vertex -14.5179 -11.0292 4.5
      vertex -14.5179 -11.0292 19.5
      vertex -12.7277 -11.7081 4.5
    endloop
  endfacet
  facet normal 0.354605 0.935016 0
    outer loop
      vertex -12.7277 -11.7081 4.5
      vertex -14.5179 -11.0292 19.5
      vertex -12.7277 -11.7081 19.5
    endloop
  endfacet
  facet normal -0.120536 0.992709 0
    outer loop
      vertex -16.4184 -11.2599 4.5
      vertex -16.4184 -11.2599 19.5
      vertex -14.5179 -11.0292 4.5
    endloop
  endfacet
  facet normal -0.120536 0.992709 0
    outer loop
      vertex -14.5179 -11.0292 4.5
      vertex -16.4184 -11.2599 19.5
      vertex -14.5179 -11.0292 19.5
    endloop
  endfacet
  facet normal -0.568065 0.822984 0
    outer loop
      vertex -17.994 -12.3475 4.5
      vertex -17.994 -12.3475 19.5
      vertex -16.4184 -11.2599 4.5
    endloop
  endfacet
  facet normal -0.568065 0.822984 0
    outer loop
      vertex -16.4184 -11.2599 4.5
      vertex -17.994 -12.3475 19.5
      vertex -16.4184 -11.2599 19.5
    endloop
  endfacet
  facet normal -0.885456 0.464723 0
    outer loop
      vertex -18.8838 15.9573 4.5
      vertex -18.8838 15.9573 19.5
      vertex -17.994 17.6525 4.5
    endloop
  endfacet
  facet normal -0.885456 0.464723 0
    outer loop
      vertex -17.994 17.6525 4.5
      vertex -18.8838 15.9573 19.5
      vertex -17.994 17.6525 19.5
    endloop
  endfacet
  facet normal -1 0 0
    outer loop
      vertex -18.8838 14.0427 4.5
      vertex -18.8838 14.0427 19.5
      vertex -18.8838 15.9573 4.5
    endloop
  endfacet
  facet normal -1 0 0
    outer loop
      vertex -18.8838 15.9573 4.5
      vertex -18.8838 14.0427 19.5
      vertex -18.8838 15.9573 19.5
    endloop
  endfacet
  facet normal -0.885456 -0.464723 0
    outer loop
      vertex -18.8838 14.0427 4.5
      vertex -17.994 12.3475 4.5
      vertex -18.8838 14.0427 19.5
    endloop
  endfacet
  facet normal -0.885456 -0.464723 0
    outer loop
      vertex -18.8838 14.0427 19.5
      vertex -17.994 12.3475 4.5
      vertex -17.994 12.3475 19.5
    endloop
  endfacet
  facet normal -0.568065 -0.822984 0
    outer loop
      vertex -17.994 12.3475 19.5
      vertex -17.994 12.3475 4.5
      vertex -16.4184 11.2599 4.5
    endloop
  endfacet
  facet normal -0.568065 -0.822984 0
    outer loop
      vertex -16.4184 11.2599 19.5
      vertex -17.994 12.3475 19.5
      vertex -16.4184 11.2599 4.5
    endloop
  endfacet
  facet normal -0.120536 -0.992709 0
    outer loop
      vertex -16.4184 11.2599 19.5
      vertex -16.4184 11.2599 4.5
      vertex -14.5179 11.0292 4.5
    endloop
  endfacet
  facet normal -0.120536 -0.992709 0
    outer loop
      vertex -14.5179 11.0292 19.5
      vertex -16.4184 11.2599 19.5
      vertex -14.5179 11.0292 4.5
    endloop
  endfacet
  facet normal 0.354605 -0.935016 0
    outer loop
      vertex -14.5179 11.0292 19.5
      vertex -14.5179 11.0292 4.5
      vertex -12.7277 11.7081 4.5
    endloop
  endfacet
  facet normal 0.354605 -0.935016 0
    outer loop
      vertex -12.7277 11.7081 19.5
      vertex -14.5179 11.0292 19.5
      vertex -12.7277 11.7081 4.5
    endloop
  endfacet
  facet normal 0.748511 -0.663123 0
    outer loop
      vertex -12.7277 11.7081 19.5
      vertex -12.7277 11.7081 4.5
      vertex -11.4582 13.1411 4.5
    endloop
  endfacet
  facet normal 0.748511 -0.663123 0
    outer loop
      vertex -11.4582 13.1411 19.5
      vertex -12.7277 11.7081 19.5
      vertex -11.4582 13.1411 4.5
    endloop
  endfacet
  facet normal 0.970942 -0.239316 0
    outer loop
      vertex -11.4582 13.1411 19.5
      vertex -11.4582 13.1411 4.5
      vertex -11 15 4.5
    endloop
  endfacet
  facet normal 0.970942 -0.239316 0
    outer loop
      vertex -11 15 19.5
      vertex -11.4582 13.1411 19.5
      vertex -11 15 4.5
    endloop
  endfacet
  facet normal 0.970942 0.239316 0
    outer loop
      vertex -11 15 4.5
      vertex -11.4582 16.8589 4.5
      vertex -11.4582 16.8589 19.5
    endloop
  endfacet
  facet normal 0.970942 0.239316 0
    outer loop
      vertex -11 15 19.5
      vertex -11 15 4.5
      vertex -11.4582 16.8589 19.5
    endloop
  endfacet
  facet normal 0.748511 0.663123 0
    outer loop
      vertex -11.4582 16.8589 4.5
      vertex -12.7277 18.2919 4.5
      vertex -12.7277 18.2919 19.5
    endloop
  endfacet
  facet normal 0.748511 0.663123 0
    outer loop
      vertex -11.4582 16.8589 19.5
      vertex -11.4582 16.8589 4.5
      vertex -12.7277 18.2919 19.5
    endloop
  endfacet
  facet normal 0.354605 0.935016 0
    outer loop
      vertex -14.5179 18.9708 4.5
      vertex -14.5179 18.9708 19.5
      vertex -12.7277 18.2919 4.5
    endloop
  endfacet
  facet normal 0.354605 0.935016 0
    outer loop
      vertex -12.7277 18.2919 4.5
      vertex -14.5179 18.9708 19.5
      vertex -12.7277 18.2919 19.5
    endloop
  endfacet
  facet normal -0.120536 0.992709 0
    outer loop
      vertex -16.4184 18.7401 4.5
      vertex -16.4184 18.7401 19.5
      vertex -14.5179 18.9708 4.5
    endloop
  endfacet
  facet normal -0.120536 0.992709 0
    outer loop
      vertex -14.5179 18.9708 4.5
      vertex -16.4184 18.7401 19.5
      vertex -14.5179 18.9708 19.5
    endloop
  endfacet
  facet normal -0.568065 0.822984 0
    outer loop
      vertex -17.994 17.6525 4.5
      vertex -17.994 17.6525 19.5
      vertex -16.4184 18.7401 4.5
    endloop
  endfacet
  facet normal -0.568065 0.822984 0
    outer loop
      vertex -16.4184 18.7401 4.5
      vertex -17.994 17.6525 19.5
      vertex -16.4184 18.7401 19.5
    endloop
  endfacet
  facet normal -0.885456 0.464723 0
    outer loop
      vertex 11.1162 -14.0427 4.5
      vertex 11.1162 -14.0427 19.5
      vertex 12.006 -12.3475 4.5
    endloop
  endfacet
  facet normal -0.885456 0.464723 0
    outer loop
      vertex 12.006 -12.3475 4.5
      vertex 11.1162 -14.0427 19.5
      vertex 12.006 -12.3475 19.5
    endloop
  endfacet
  facet normal -1 0 0
    outer loop
      vertex 11.1162 -15.9573 4.5
      vertex 11.1162 -15.9573 19.5
      vertex 11.1162 -14.0427 4.5
    endloop
  endfacet
  facet normal -1 0 0
    outer loop
      vertex 11.1162 -14.0427 4.5
      vertex 11.1162 -15.9573 19.5
      vertex 11.1162 -14.0427 19.5
    endloop
  endfacet
  facet normal -0.885456 -0.464723 0
    outer loop
      vertex 11.1162 -15.9573 4.5
      vertex 12.006 -17.6525 4.5
      vertex 11.1162 -15.9573 19.5
    endloop
  endfacet
  facet normal -0.885456 -0.464723 0
    outer loop
      vertex 11.1162 -15.9573 19.5
      vertex 12.006 -17.6525 4.5
      vertex 12.006 -17.6525 19.5
    endloop
  endfacet
  facet normal -0.568065 -0.822984 0
    outer loop
      vertex 12.006 -17.6525 19.5
      vertex 12.006 -17.6525 4.5
      vertex 13.5816 -18.7401 4.5
    endloop
  endfacet
  facet normal -0.568065 -0.822984 0
    outer loop
      vertex 13.5816 -18.7401 19.5
      vertex 12.006 -17.6525 19.5
      vertex 13.5816 -18.7401 4.5
    endloop
  endfacet
  facet normal -0.120536 -0.992709 0
    outer loop
      vertex 13.5816 -18.7401 19.5
      vertex 13.5816 -18.7401 4.5
      vertex 15.4821 -18.9708 4.5
    endloop
  endfacet
  facet normal -0.120536 -0.992709 0
    outer loop
      vertex 15.4821 -18.9708 19.5
      vertex 13.5816 -18.7401 19.5
      vertex 15.4821 -18.9708 4.5
    endloop
  endfacet
  facet normal 0.354605 -0.935016 0
    outer loop
      vertex 15.4821 -18.9708 19.5
      vertex 15.4821 -18.9708 4.5
      vertex 17.2723 -18.2919 4.5
    endloop
  endfacet
  facet normal 0.354605 -0.935016 0
    outer loop
      vertex 17.2723 -18.2919 19.5
      vertex 15.4821 -18.9708 19.5
      vertex 17.2723 -18.2919 4.5
    endloop
  endfacet
  facet normal 0.748511 -0.663123 0
    outer loop
      vertex 17.2723 -18.2919 19.5
      vertex 17.2723 -18.2919 4.5
      vertex 18.5418 -16.8589 4.5
    endloop
  endfacet
  facet normal 0.748511 -0.663123 0
    outer loop
      vertex 18.5418 -16.8589 19.5
      vertex 17.2723 -18.2919 19.5
      vertex 18.5418 -16.8589 4.5
    endloop
  endfacet
  facet normal 0.970942 -0.239316 0
    outer loop
      vertex 18.5418 -16.8589 19.5
      vertex 18.5418 -16.8589 4.5
      vertex 19 -15 4.5
    endloop
  endfacet
  facet normal 0.970942 -0.239316 0
    outer loop
      vertex 19 -15 19.5
      vertex 18.5418 -16.8589 19.5
      vertex 19 -15 4.5
    endloop
  endfacet
  facet normal 0.970942 0.239316 0
    outer loop
      vertex 19 -15 4.5
      vertex 18.5418 -13.1411 4.5
      vertex 18.5418 -13.1411 19.5
    endloop
  endfacet
  facet normal 0.970942 0.239316 0
    outer loop
      vertex 19 -15 19.5
      vertex 19 -15 4.5
      vertex 18.5418 -13.1411 19.5
    endloop
  endfacet
  facet normal 0.748511 0.663123 0
    outer loop
      vertex 18.5418 -13.1411 4.5
      vertex 17.2723 -11.7081 4.5
      vertex 17.2723 -11.7081 19.5
    endloop
  endfacet
  facet normal 0.748511 0.663123 0
    outer loop
      vertex 18.5418 -13.1411 19.5
      vertex 18.5418 -13.1411 4.5
      vertex 17.2723 -11.7081 19.5
    endloop
  endfacet
  facet normal 0.354605 0.935016 0
    outer loop
      vertex 15.4821 -11.0292 4.5
      vertex 15.4821 -11.0292 19.5
      vertex 17.2723 -11.7081 4.5
    endloop
  endfacet
  facet normal 0.354605 0.935016 0
    outer loop
      vertex 17.2723 -11.7081 4.5
      vertex 15.4821 -11.0292 19.5
      vertex 17.2723 -11.7081 19.5
    endloop
  endfacet
  facet normal -0.120536 0.992709 0
    outer loop
      vertex 13.5816 -11.2599 4.5
      vertex 13.5816 -11.2599 19.5
      vertex 15.4821 -11.0292 4.5
    endloop
  endfacet
  facet normal -0.120536 0.992709 0
    outer loop
      vertex 15.4821 -11.0292 4.5
      vertex 13.5816 -11.2599 19.5
      vertex 15.4821 -11.0292 19.5
    endloop
  endfacet
  facet normal -0.568065 0.822984 0
    outer loop
      vertex 12.006 -12.3475 4.5
      vertex 12.006 -12.3475 19.5
      vertex 13.5816 -11.2599 4.5
    endloop
  endfacet
  facet normal -0.568065 0.822984 0
    outer loop
      vertex 13.5816 -11.2599 4.5
      vertex 12.006 -12.3475 19.5
      vertex 13.5816 -11.2599 19.5
    endloop
  endfacet
  facet normal -0.885456 0.464723 0
    outer loop
      vertex 11.1162 15.9573 4.5
      vertex 11.1162 15.9573 19.5
      vertex 12.006 17.6525 4.5
    endloop
  endfacet
  facet normal -0.885456 0.464723 0
    outer loop
      vertex 12.006 17.6525 4.5
      vertex 11.1162 15.9573 19.5
      vertex 12.006 17.6525 19.5
    endloop
  endfacet
  facet normal -1 0 0
    outer loop
      vertex 11.1162 14.0427 4.5
      vertex 11.1162 14.0427 19.5
      vertex 11.1162 15.9573 4.5
    endloop
  endfacet
  facet normal -1 0 0
    outer loop
      vertex 11.1162 15.9573 4.5
      vertex 11.1162 14.0427 19.5
      vertex 11.1162 15.9573 19.5
    endloop
  endfacet
  facet normal -0.885456 -0.464723 0
    outer loop
      vertex 11.1162 14.0427 4.5
      vertex 12.006 12.3475 4.5
      vertex 11.1162 14.0427 19.5
    endloop
  endfacet
  facet normal -0.885456 -0.464723 0
    outer loop
      vertex 11.1162 14.0427 19.5
      vertex 12.006 12.3475 4.5
      vertex 12.006 12.3475 19.5
    endloop
  endfacet
  facet normal -0.568065 -0.822984 0
    outer loop
      vertex 12.006 12.3475 19.5
      vertex 12.006 12.3475 4.5
      vertex 13.5816 11.2599 4.5
    endloop
  endfacet
  facet normal -0.568065 -0.822984 0
    outer loop
      vertex 13.5816 11.2599 19.5
      vertex 12.006 12.3475 19.5
      vertex 13.5816 11.2599 4.5
    endloop
  endfacet
  facet normal -0.120536 -0.992709 0
    outer loop
      vertex 13.5816 11.2599 19.5
      vertex 13.5816 11.2599 4.5
      vertex 15.4821 11.0292 4.5
    endloop
  endfacet
  facet normal -0.120536 -0.992709 0
    outer loop
      vertex 15.4821 11.0292 19.5
      vertex 13.5816 11.2599 19.5
      vertex 15.4821 11.0292 4.5
    endloop
  endfacet
  facet normal 0.354605 -0.935016 0
    outer loop
      vertex 15.4821 11.0292 19.5
      vertex 15.4821 11.0292 4.5
      vertex 17.2723 11.7081 4.5
    endloop
  endfacet
  facet normal 0.354605 -0.935016 0
    outer loop
      vertex 17.2723 11.7081 19.5
      vertex 15.4821 11.0292 19.5
      vertex 17.2723 11.7081 4.5
    endloop
  endfacet
  facet normal 0.748511 -0.663123 0
    outer loop
      vertex 17.2723 11.7081 19.5
      vertex 17.2723 11.7081 4.5
      vertex 18.5418 13.1411 4.5
    endloop
  endfacet
  facet normal 0.748511 -0.663123 0
    outer loop
      vertex 18.5418 13.1411 19.5
      vertex 17.2723 11.7081 19.5
      vertex 18.5418 13.1411 4.5
    endloop
  endfacet
  facet normal 0.970942 -0.239316 0
    outer loop
      vertex 18.5418 13.1411 19.5
      vertex 18.5418 13.1411 4.5
      vertex 19 15 4.5
    endloop
  endfacet
  facet normal 0.970942 -0.239316 0
    outer loop
      vertex 19 15 19.5
      vertex 18.5418 13.1411 19.5
      vertex 19 15 4.5
    endloop
  endfacet
  facet normal 0.970942 0.239316 0
    outer loop
      vertex 19 15 4.5
      vertex 18.5418 16.8589 4.5
      vertex 18.5418 16.8589 19.5
    endloop
  endfacet
  facet normal 0.970942 0.239316 0
    outer loop
      vertex 19 15 19.5
      vertex 19 15 4.5
      vertex 18.5418 16.8589 19.5
    endloop
  endfacet
  facet normal 0.748511 0.663123 0
    outer loop
      vertex 18.5418 16.8589 4.5
      vertex 17.2723 18.2919 4.5
      vertex 17.2723 18.2919 19.5
    endloop
  endfacet
  facet normal 0.748511 0.663123 0
    outer loop
      vertex 18.5418 16.8589 19.5
      vertex 18.5418 16.8589 4.5
      vertex 17.2723 18.2919 19.5
    endloop
  endfacet
  facet normal 0.354605 0.935016 0
    outer loop
      vertex 15.4821 18.9708 4.5
      vertex 15.4821 18.9708 19.5
      vertex 17.2723 18.2919 4.5
    endloop
  endfacet
  facet normal 0.354605 0.935016 0
    outer loop
      vertex 17.2723 18.2919 4.5
      vertex 15.4821 18.9708 19.5
      vertex 17.2723 18.2919 19.5
    endloop
  endfacet
  facet normal -0.120536 0.992709 0
    outer loop
      vertex 13.5816 18.7401 4.5
      vertex 13.5816 18.7401 19.5
      vertex 15.4821 18.9708 4.5
    endloop
  endfacet
  facet normal -0.120536 0.992709 0
    outer loop
      vertex 15.4821 18.9708 4.5
      vertex 13.5816 18.7401 19.5
      vertex 15.4821 18.9708 19.5
    endloop
  endfacet
  facet normal -0.568065 0.822984 0
    outer loop
      vertex 12.006 17.6525 4.5
      vertex 12.006 17.6525 19.5
      vertex 13.5816 18.7401 4.5
    endloop
  endfacet
  facet normal -0.568065 0.822984 0
    outer loop
      vertex 13.5816 18.7401 4.5
      vertex 12.006 17.6525 19.5
      vertex 13.5816 18.7401 19.5
    endloop
  endfacet
  facet normal 1 0 0
    outer loop
      vertex -23.25 23.25 50
      vertex -23.25 23.25 56.5
      vertex -23.25 -23.25 56.5
    endloop
  endfacet
  facet normal 1 0 0
    outer loop
      vertex -23.25 -23.25 50
      vertex -23.25 23.25 50
      vertex -23.25 -23.25 56.5
    endloop
  endfacet
  facet normal 0 1 0
    outer loop
      vertex 23.25 -23.25 56.5
      vertex 23.25 -23.25 50
      vertex -23.25 -23.25 56.5
    endloop
  endfacet
  facet normal 0 1 0
    outer loop
      vertex -23.25 -23.25 56.5
      vertex 23.25 -23.25 50
      vertex -23.25 -23.25 50
    endloop
  endfacet
  facet normal -1 0 0
    outer loop
      vertex 23.25 23.25 56.5
      vertex 23.25 23.25 50
      vertex 23.25 -23.25 56.5
    endloop
  endfacet
  facet normal -1 0 0
    outer loop
      vertex 23.25 -23.25 56.5
      vertex 23.25 23.25 50
      vertex 23.25 -23.25 50
    endloop
  endfacet
  facet normal 0 -1 0
    outer loop
      vertex 23.25 23.25 50
      vertex 23.25 23.25 56.5
      vertex -23.25 23.25 56.5
    endloop
  endfacet
  facet normal 0 -1 0
    outer loop
      vertex -23.25 23.25 50
      vertex 23.25 23.25 50
      vertex -23.25 23.25 56.5
    endloop
  endfacet
  facet normal 0 0 -1
    outer loop
      vertex -23.25 -23.25 50
      vertex 23.25 -23.25 50
      vertex 25 -25 50
    endloop
  endfacet
  facet normal 0 0 -1
    outer loop
      vertex -23.25 23.25 50
      vertex -25 25 50
      vertex 25 25 50
    endloop
  endfacet
  facet normal 0 0 -1
    outer loop
      vertex -25 -25 50
      vertex -25 25 50
      vertex -23.25 23.25 50
    endloop
  endfacet
  facet normal 0 0 -1
    outer loop
      vertex 23.25 23.25 50
      vertex -23.25 23.25 50
      vertex 25 25 50
    endloop
  endfacet
  facet normal 0 0 -1
    outer loop
      vertex -25 -25 50
      vertex -23.25 23.25 50
      vertex -23.25 -23.25 50
    endloop
  endfacet
  facet normal 0 0 -1
    outer loop
      vertex -25 -25 50
      vertex -23.25 -23.25 50
      vertex 25 -25 50
    endloop
  endfacet
  facet normal 0 0 -1
    outer loop
      vertex 25 -25 50
      vertex 23.25 -23.25 50
      vertex 25 25 50
    endloop
  endfacet
  facet normal 0 0 -1
    outer loop
      vertex 23.25 -23.25 50
      vertex 23.25 23.25 50
      vertex 25 25 50
    endloop
  endfacet
  facet normal 0 0 1
    outer loop
      vertex -18.8838 -14.0427 19.5
      vertex -18.8838 -15.9573 19.5
      vertex -17.994 -17.6525 19.5
    endloop
  endfacet
  facet normal 0 0 1
    outer loop
      vertex -14.5179 -18.9708 19.5
      vertex -18.8838 -14.0427 19.5
      vertex -16.4184 -18.7401 19.5
    endloop
  endfacet
  facet normal 0 0 1
    outer loop
      vertex -16.4184 -18.7401 19.5
      vertex -18.8838 -14.0427 19.5
      vertex -17.994 -17.6525 19.5
    endloop
  endfacet
  facet normal 0 0 1
    outer loop
      vertex -12.7277 -18.2919 19.5
      vertex -18.8838 -14.0427 19.5
      vertex -14.5179 -18.9708 19.5
    endloop
  endfacet
  facet normal 0 0 1
    outer loop
      vertex -16.2135 -15.8817 19.5
      vertex -18.8838 -14.0427 19.5
      vertex -12.7277 -18.2919 19.5
    endloop
  endfacet
  facet normal 0 0 1
    outer loop
      vertex -14.5365 -13.5734 19.5
      vertex -13.5 -15 19.5
      vertex -11 -15 19.5
    endloop
  endfacet
  facet normal 0 0 1
    outer loop
      vertex -12.7277 -11.7081 19.5
      vertex -18.8838 -14.0427 19.5
      vertex -11.4582 -13.1411 19.5
    endloop
  endfacet
  facet normal 0 0 1
    outer loop
      vertex -14.5179 -11.0292 19.5
      vertex -18.8838 -14.0427 19.5
      vertex -12.7277 -11.7081 19.5
    endloop
  endfacet
  facet normal 0 0 1
    outer loop
      vertex -16.4184 -11.2599 19.5
      vertex -18.8838 -14.0427 19.5
      vertex -14.5179 -11.0292 19.5
    endloop
  endfacet
  facet normal 0 0 1
    outer loop
      vertex -17.994 -12.3475 19.5
      vertex -18.8838 -14.0427 19.5
      vertex -16.4184 -11.2599 19.5
    endloop
  endfacet
  facet normal 0 0 1
    outer loop
      vertex -14.5365 -16.4266 19.5
      vertex -16.2135 -15.8817 19.5
      vertex -12.7277 -18.2919 19.5
    endloop
  endfacet
  facet normal 0 0 1
    outer loop
      vertex -14.5365 -13.5734 19.5
      vertex -18.8838 -14.0427 19.5
      vertex -16.2135 -14.1183 19.5
    endloop
  endfacet
  facet normal 0 0 1
    outer loop
      vertex -13.5 -15 19.5
      vertex -14.5365 -16.4266 19.5
      vertex -11.4582 -16.8589 19.5
    endloop
  endfacet
  facet normal 0 0 1
    outer loop
      vertex -11.4582 -13.1411 19.5
      vertex -18.8838 -14.0427 19.5
      vertex -14.5365 -13.5734 19.5
    endloop
  endfacet
  facet normal 0 0 1
    outer loop
      vertex -11 -15 19.5
      vertex -13.5 -15 19.5
      vertex -11.4582 -16.8589 19.5
    endloop
  endfacet
  facet normal 0 0 1
    outer loop
      vertex -14.5365 -13.5734 19.5
      vertex -11 -15 19.5
      vertex -11.4582 -13.1411 19.5
    endloop
  endfacet
  facet normal 0 0 1
    outer loop
      vertex -11.4582 -16.8589 19.5
      vertex -14.5365 -16.4266 19.5
      vertex -12.7277 -18.2919 19.5
    endloop
  endfacet
  facet normal 0 0 1
    outer loop
      vertex -16.2135 -15.8817 19.5
      vertex -16.2135 -14.1183 19.5
      vertex -18.8838 -14.0427 19.5
    endloop
  endfacet
  facet normal 0 0 1
    outer loop
      vertex -18.8838 15.9573 19.5
      vertex -18.8838 14.0427 19.5
      vertex -17.994 12.3475 19.5
    endloop
  endfacet
  facet normal 0 0 1
    outer loop
      vertex -14.5179 11.0292 19.5
      vertex -18.8838 15.9573 19.5
      vertex -16.4184 11.2599 19.5
    endloop
  endfacet
  facet normal 0 0 1
    outer loop
      vertex -16.4184 11.2599 19.5
      vertex -18.8838 15.9573 19.5
      vertex -17.994 12.3475 19.5
    endloop
  endfacet
  facet normal 0 0 1
    outer loop
      vertex -12.7277 11.7081 19.5
      vertex -18.8838 15.9573 19.5
      vertex -14.5179 11.0292 19.5
    endloop
  endfacet
  facet normal 0 0 1
    outer loop
      vertex -16.2135 14.1183 19.5
      vertex -18.8838 15.9573 19.5
      vertex -12.7277 11.7081 19.5
    endloop
  endfacet
  facet normal 0 0 1
    outer loop
      vertex -14.5365 16.4266 19.5
      vertex -13.5 15 19.5
      vertex -11 15 19.5
    endloop
  endfacet
  facet normal 0 0 1
    outer loop
      vertex -12.7277 18.2919 19.5
      vertex -18.8838 15.9573 19.5
      vertex -11.4582 16.8589 19.5
    endloop
  endfacet
  facet normal 0 0 1
    outer loop
      vertex -14.5179 18.9708 19.5
      vertex -18.8838 15.9573 19.5
      vertex -12.7277 18.2919 19.5
    endloop
  endfacet
  facet normal 0 0 1
    outer loop
      vertex -16.4184 18.7401 19.5
      vertex -18.8838 15.9573 19.5
      vertex -14.5179 18.9708 19.5
    endloop
  endfacet
  facet normal 0 0 1
    outer loop
      vertex -17.994 17.6525 19.5
      vertex -18.8838 15.9573 19.5
      vertex -16.4184 18.7401 19.5
    endloop
  endfacet
  facet normal 0 0 1
    outer loop
      vertex -14.5365 13.5734 19.5
      vertex -16.2135 14.1183 19.5
      vertex -12.7277 11.7081 19.5
    endloop
  endfacet
  facet normal 0 0 1
    outer loop
      vertex -14.5365 16.4266 19.5
      vertex -18.8838 15.9573 19.5
      vertex -16.2135 15.8817 19.5
    endloop
  endfacet
  facet normal 0 0 1
    outer loop
      vertex -13.5 15 19.5
      vertex -14.5365 13.5734 19.5
      vertex -11.4582 13.1411 19.5
    endloop
  endfacet
  facet normal 0 0 1
    outer loop
      vertex -11.4582 16.8589 19.5
      vertex -18.8838 15.9573 19.5
      vertex -14.5365 16.4266 19.5
    endloop
  endfacet
  facet normal 0 0 1
    outer loop
      vertex -11 15 19.5
      vertex -13.5 15 19.5
      vertex -11.4582 13.1411 19.5
    endloop
  endfacet
  facet normal 0 0 1
    outer loop
      vertex -14.5365 16.4266 19.5
      vertex -11 15 19.5
      vertex -11.4582 16.8589 19.5
    endloop
  endfacet
  facet normal 0 0 1
    outer loop
      vertex -11.4582 13.1411 19.5
      vertex -14.5365 13.5734 19.5
      vertex -12.7277 11.7081 19.5
    endloop
  endfacet
  facet normal 0 0 1
    outer loop
      vertex -16.2135 14.1183 19.5
      vertex -16.2135 15.8817 19.5
      vertex -18.8838 15.9573 19.5
    endloop
  endfacet
  facet normal 0 0 1
    outer loop
      vertex 11.1162 -14.0427 19.5
      vertex 11.1162 -15.9573 19.5
      vertex 12.006 -17.6525 19.5
    endloop
  endfacet
  facet normal 0 0 1
    outer loop
      vertex 15.4821 -18.9708 19.5
      vertex 11.1162 -14.0427 19.5
      vertex 13.5816 -18.7401 19.5
    endloop
  endfacet
  facet normal 0 0 1
    outer loop
      vertex 13.5816 -18.7401 19.5
      vertex 11.1162 -14.0427 19.5
      vertex 12.006 -17.6525 19.5
    endloop
  endfacet
  facet normal 0 0 1
    outer loop
      vertex 17.2723 -18.2919 19.5
      vertex 11.1162 -14.0427 19.5
      vertex 15.4821 -18.9708 19.5
    endloop
  endfacet
  facet normal 0 0 1
    outer loop
      vertex 13.7865 -15.8817 19.5
      vertex 11.1162 -14.0427 19.5
      vertex 17.2723 -18.2919 19.5
    endloop
  endfacet
  facet normal 0 0 1
    outer loop
      vertex 15.4635 -13.5734 19.5
      vertex 16.5 -15 19.5
      vertex 19 -15 19.5
    endloop
  endfacet
  facet normal 0 0 1
    outer loop
      vertex 17.2723 -11.7081 19.5
      vertex 11.1162 -14.0427 19.5
      vertex 18.5418 -13.1411 19.5
    endloop
  endfacet
  facet normal 0 0 1
    outer loop
      vertex 15.4821 -11.0292 19.5
      vertex 11.1162 -14.0427 19.5
      vertex 17.2723 -11.7081 19.5
    endloop
  endfacet
  facet normal 0 0 1
    outer loop
      vertex 13.5816 -11.2599 19.5
      vertex 11.1162 -14.0427 19.5
      vertex 15.4821 -11.0292 19.5
    endloop
  endfacet
  facet normal 0 0 1
    outer loop
      vertex 12.006 -12.3475 19.5
      vertex 11.1162 -14.0427 19.5
      vertex 13.5816 -11.2599 19.5
    endloop
  endfacet
  facet normal 0 0 1
    outer loop
      vertex 15.4635 -16.4266 19.5
      vertex 13.7865 -15.8817 19.5
      vertex 17.2723 -18.2919 19.5
    endloop
  endfacet
  facet normal 0 0 1
    outer loop
      vertex 15.4635 -13.5734 19.5
      vertex 11.1162 -14.0427 19.5
      vertex 13.7865 -14.1183 19.5
    endloop
  endfacet
  facet normal 0 0 1
    outer loop
      vertex 16.5 -15 19.5
      vertex 15.4635 -16.4266 19.5
      vertex 18.5418 -16.8589 19.5
    endloop
  endfacet
  facet normal 0 0 1
    outer loop
      vertex 18.5418 -13.1411 19.5
      vertex 11.1162 -14.0427 19.5
      vertex 15.4635 -13.5734 19.5
    endloop
  endfacet
  facet normal 0 0 1
    outer loop
      vertex 19 -15 19.5
      vertex 16.5 -15 19.5
      vertex 18.5418 -16.8589 19.5
    endloop
  endfacet
  facet normal 0 0 1
    outer loop
      vertex 15.4635 -13.5734 19.5
      vertex 19 -15 19.5
      vertex 18.5418 -13.1411 19.5
    endloop
  endfacet
  facet normal 0 0 1
    outer loop
      vertex 18.5418 -16.8589 19.5
      vertex 15.4635 -16.4266 19.5
      vertex 17.2723 -18.2919 19.5
    endloop
  endfacet
  facet normal 0 0 1
    outer loop
      vertex 13.7865 -15.8817 19.5
      vertex 13.7865 -14.1183 19.5
      vertex 11.1162 -14.0427 19.5
    endloop
  endfacet
  facet normal 0 0 1
    outer loop
      vertex 11.1162 15.9573 19.5
      vertex 11.1162 14.0427 19.5
      vertex 12.006 12.3475 19.5
    endloop
  endfacet
  facet normal 0 0 1
    outer loop
      vertex 15.4821 11.0292 19.5
      vertex 11.1162 15.9573 19.5
      vertex 13.5816 11.2599 19.5
    endloop
  endfacet
  facet normal 0 0 1
    outer loop
      vertex 13.5816 11.2599 19.5
      vertex 11.1162 15.9573 19.5
      vertex 12.006 12.3475 19.5
    endloop
  endfacet
  facet normal 0 0 1
    outer loop
      vertex 17.2723 11.7081 19.5
      vertex 11.1162 15.9573 19.5
      vertex 15.4821 11.0292 19.5
    endloop
  endfacet
  facet normal 0 0 1
    outer loop
      vertex 13.7865 14.1183 19.5
      vertex 11.1162 15.9573 19.5
      vertex 17.2723 11.7081 19.5
    endloop
  endfacet
  facet normal 0 0 1
    outer loop
      vertex 15.4635 16.4266 19.5
      vertex 16.5 15 19.5
      vertex 19 15 19.5
    endloop
  endfacet
  facet normal 0 0 1
    outer loop
      vertex 17.2723 18.2919 19.5
      vertex 11.1162 15.9573 19.5
      vertex 18.5418 16.8589 19.5
    endloop
  endfacet
  facet normal 0 0 1
    outer loop
      vertex 15.4821 18.9708 19.5
      vertex 11.1162 15.9573 19.5
      vertex 17.2723 18.2919 19.5
    endloop
  endfacet
  facet normal 0 0 1
    outer loop
      vertex 13.5816 18.7401 19.5
      vertex 11.1162 15.9573 19.5
      vertex 15.4821 18.9708 19.5
    endloop
  endfacet
  facet normal 0 0 1
    outer loop
      vertex 12.006 17.6525 19.5
      vertex 11.1162 15.9573 19.5
      vertex 13.5816 18.7401 19.5
    endloop
  endfacet
  facet normal 0 0 1
    outer loop
      vertex 15.4635 13.5734 19.5
      vertex 13.7865 14.1183 19.5
      vertex 17.2723 11.7081 19.5
    endloop
  endfacet
  facet normal 0 0 1
    outer loop
      vertex 15.4635 16.4266 19.5
      vertex 11.1162 15.9573 19.5
      vertex 13.7865 15.8817 19.5
    endloop
  endfacet
  facet normal 0 0 1
    outer loop
      vertex 16.5 15 19.5
      vertex 15.4635 13.5734 19.5
      vertex 18.5418 13.1411 19.5
    endloop
  endfacet
  facet normal 0 0 1
    outer loop
      vertex 18.5418 16.8589 19.5
      vertex 11.1162 15.9573 19.5
      vertex 15.4635 16.4266 19.5
    endloop
  endfacet
  facet normal 0 0 1
    outer loop
      vertex 19 15 19.5
      vertex 16.5 15 19.5
      vertex 18.5418 13.1411 19.5
    endloop
  endfacet
  facet normal 0 0 1
    outer loop
      vertex 15.4635 16.4266 19.5
      vertex 19 15 19.5
      vertex 18.5418 16.8589 19.5
    endloop
  endfacet
  facet normal 0 0 1
    outer loop
      vertex 18.5418 13.1411 19.5
      vertex 15.4635 13.5734 19.5
      vertex 17.2723 11.7081 19.5
    endloop
  endfacet
  facet normal 0 0 1
    outer loop
      vertex 13.7865 14.1183 19.5
      vertex 13.7865 15.8817 19.5
      vertex 11.1162 15.9573 19.5
    endloop
  endfacet
  facet normal 1 0 0
    outer loop
      vertex -16.2135 -14.1183 4.5
      vertex -16.2135 -14.1183 19.5
      vertex -16.2135 -15.8817 19.5
    endloop
  endfacet
  facet normal 1 0 0
    outer loop
      vertex -16.2135 -15.8817 4.5
      vertex -16.2135 -14.1183 4.5
      vertex -16.2135 -15.8817 19.5
    endloop
  endfacet
  facet normal 0.309017 0.951056 0
    outer loop
      vertex -14.5365 -16.4266 19.5
      vertex -14.5365 -16.4266 4.5
      vertex -16.2135 -15.8817 19.5
    endloop
  endfacet
  facet normal 0.309017 0.951056 0
    outer loop
      vertex -16.2135 -15.8817 19.5
      vertex -14.5365 -16.4266 4.5
      vertex -16.2135 -15.8817 4.5
    endloop
  endfacet
  facet normal -0.809017 0.587785 0
    outer loop
      vertex -13.5 -15 19.5
      vertex -13.5 -15 4.5
      vertex -14.5365 -16.4266 19.5
    endloop
  endfacet
  facet normal -0.809017 0.587785 0
    outer loop
      vertex -14.5365 -16.4266 19.5
      vertex -13.5 -15 4.5
      vertex -14.5365 -16.4266 4.5
    endloop
  endfacet
  facet normal -0.809017 -0.587785 0
    outer loop
      vertex -13.5 -15 19.5
      vertex -14.5365 -13.5734 19.5
      vertex -13.5 -15 4.5
    endloop
  endfacet
  facet normal -0.809017 -0.587785 0
    outer loop
      vertex -13.5 -15 4.5
      vertex -14.5365 -13.5734 19.5
      vertex -14.5365 -13.5734 4.5
    endloop
  endfacet
  facet normal 0.309017 -0.951056 0
    outer loop
      vertex -14.5365 -13.5734 4.5
      vertex -14.5365 -13.5734 19.5
      vertex -16.2135 -14.1183 19.5
    endloop
  endfacet
  facet normal 0.309017 -0.951056 0
    outer loop
      vertex -16.2135 -14.1183 4.5
      vertex -14.5365 -13.5734 4.5
      vertex -16.2135 -14.1183 19.5
    endloop
  endfacet
  facet normal 1 0 0
    outer loop
      vertex -16.2135 15.8817 4.5
      vertex -16.2135 15.8817 19.5
      vertex -16.2135 14.1183 19.5
    endloop
  endfacet
  facet normal 1 0 0
    outer loop
      vertex -16.2135 14.1183 4.5
      vertex -16.2135 15.8817 4.5
      vertex -16.2135 14.1183 19.5
    endloop
  endfacet
  facet normal 0.309017 0.951056 0
    outer loop
      vertex -14.5365 13.5734 19.5
      vertex -14.5365 13.5734 4.5
      vertex -16.2135 14.1183 19.5
    endloop
  endfacet
  facet normal 0.309017 0.951056 0
    outer loop
      vertex -16.2135 14.1183 19.5
      vertex -14.5365 13.5734 4.5
      vertex -16.2135 14.1183 4.5
    endloop
  endfacet
  facet normal -0.809017 0.587785 0
    outer loop
      vertex -13.5 15 19.5
      vertex -13.5 15 4.5
      vertex -14.5365 13.5734 19.5
    endloop
  endfacet
  facet normal -0.809017 0.587785 0
    outer loop
      vertex -14.5365 13.5734 19.5
      vertex -13.5 15 4.5
      vertex -14.5365 13.5734 4.5
    endloop
  endfacet
  facet normal -0.809017 -0.587785 0
    outer loop
      vertex -13.5 15 19.5
      vertex -14.5365 16.4266 19.5
      vertex -13.5 15 4.5
    endloop
  endfacet
  facet normal -0.809017 -0.587785 0
    outer loop
      vertex -13.5 15 4.5
      vertex -14.5365 16.4266 19.5
      vertex -14.5365 16.4266 4.5
    endloop
  endfacet
  facet normal 0.309017 -0.951056 0
    outer loop
      vertex -14.5365 16.4266 4.5
      vertex -14.5365 16.4266 19.5
      vertex -16.2135 15.8817 19.5
    endloop
  endfacet
  facet normal 0.309017 -0.951056 0
    outer loop
      vertex -16.2135 15.8817 4.5
      vertex -14.5365 16.4266 4.5
      vertex -16.2135 15.8817 19.5
    endloop
  endfacet
  facet normal 1 0 0
    outer loop
      vertex 13.7865 -14.1183 4.5
      vertex 13.7865 -14.1183 19.5
      vertex 13.7865 -15.8817 19.5
    endloop
  endfacet
  facet normal 1 0 0
    outer loop
      vertex 13.7865 -15.8817 4.5
      vertex 13.7865 -14.1183 4.5
      vertex 13.7865 -15.8817 19.5
    endloop
  endfacet
  facet normal 0.309017 0.951056 0
    outer loop
      vertex 15.4635 -16.4266 19.5
      vertex 15.4635 -16.4266 4.5
      vertex 13.7865 -15.8817 19.5
    endloop
  endfacet
  facet normal 0.309017 0.951056 0
    outer loop
      vertex 13.7865 -15.8817 19.5
      vertex 15.4635 -16.4266 4.5
      vertex 13.7865 -15.8817 4.5
    endloop
  endfacet
  facet normal -0.809017 0.587785 0
    outer loop
      vertex 16.5 -15 19.5
      vertex 16.5 -15 4.5
      vertex 15.4635 -16.4266 19.5
    endloop
  endfacet
  facet normal -0.809017 0.587785 0
    outer loop
      vertex 15.4635 -16.4266 19.5
      vertex 16.5 -15 4.5
      vertex 15.4635 -16.4266 4.5
    endloop
  endfacet
  facet normal -0.809017 -0.587785 0
    outer loop
      vertex 16.5 -15 19.5
      vertex 15.4635 -13.5734 19.5
      vertex 16.5 -15 4.5
    endloop
  endfacet
  facet normal -0.809017 -0.587785 0
    outer loop
      vertex 16.5 -15 4.5
      vertex 15.4635 -13.5734 19.5
      vertex 15.4635 -13.5734 4.5
    endloop
  endfacet
  facet normal 0.309017 -0.951056 0
    outer loop
      vertex 15.4635 -13.5734 4.5
      vertex 15.4635 -13.5734 19.5
      vertex 13.7865 -14.1183 19.5
    endloop
  endfacet
  facet normal 0.309017 -0.951056 0
    outer loop
      vertex 13.7865 -14.1183 4.5
      vertex 15.4635 -13.5734 4.5
      vertex 13.7865 -14.1183 19.5
    endloop
  endfacet
  facet normal 1 0 0
    outer loop
      vertex 13.7865 15.8817 4.5
      vertex 13.7865 15.8817 19.5
      vertex 13.7865 14.1183 19.5
    endloop
  endfacet
  facet normal 1 0 0
    outer loop
      vertex 13.7865 14.1183 4.5
      vertex 13.7865 15.8817 4.5
      vertex 13.7865 14.1183 19.5
    endloop
  endfacet
  facet normal 0.309017 0.951056 0
    outer loop
      vertex 15.4635 13.5734 19.5
      vertex 15.4635 13.5734 4.5
      vertex 13.7865 14.1183 19.5
    endloop
  endfacet
  facet normal 0.309017 0.951056 0
    outer loop
      vertex 13.7865 14.1183 19.5
      vertex 15.4635 13.5734 4.5
      vertex 13.7865 14.1183 4.5
    endloop
  endfacet
  facet normal -0.809017 0.587785 0
    outer loop
      vertex 16.5 15 19.5
      vertex 16.5 15 4.5
      vertex 15.4635 13.5734 19.5
    endloop
  endfacet
  facet normal -0.809017 0.587785 0
    outer loop
      vertex 15.4635 13.5734 19.5
      vertex 16.5 15 4.5
      vertex 15.4635 13.5734 4.5
    endloop
  endfacet
  facet normal -0.809017 -0.587785 0
    outer loop
      vertex 16.5 15 19.5
      vertex 15.4635 16.4266 19.5
      vertex 16.5 15 4.5
    endloop
  endfacet
  facet normal -0.809017 -0.587785 0
    outer loop
      vertex 16.5 15 4.5
      vertex 15.4635 16.4266 19.5
      vertex 15.4635 16.4266 4.5
    endloop
  endfacet
  facet normal 0.309017 -0.951056 0
    outer loop
      vertex 15.4635 16.4266 4.5
      vertex 15.4635 16.4266 19.5
      vertex 13.7865 15.8817 19.5
    endloop
  endfacet
  facet normal 0.309017 -0.951056 0
    outer loop
      vertex 13.7865 15.8817 4.5
      vertex 15.4635 16.4266 4.5
      vertex 13.7865 15.8817 19.5
    endloop
  endfacet
  facet normal 0 0 1
    outer loop
      vertex -14.5365 -16.4266 4.5
      vertex -13.5 -15 4.5
      vertex -14.5365 -13.5734 4.5
    endloop
  endfacet
  facet normal 0 0 1
    outer loop
      vertex -16.2135 -15.8817 4.5
      vertex -14.5365 -16.4266 4.5
      vertex -16.2135 -14.1183 4.5
    endloop
  endfacet
  facet normal 0 0 1
    outer loop
      vertex -16.2135 -14.1183 4.5
      vertex -14.5365 -16.4266 4.5
      vertex -14.5365 -13.5734 4.5
    endloop
  endfacet
  facet normal 0 0 1
    outer loop
      vertex -14.5365 13.5734 4.5
      vertex -13.5 15 4.5
      vertex -14.5365 16.4266 4.5
    endloop
  endfacet
  facet normal 0 0 1
    outer loop
      vertex -16.2135 14.1183 4.5
      vertex -14.5365 13.5734 4.5
      vertex -16.2135 15.8817 4.5
    endloop
  endfacet
  facet normal 0 0 1
    outer loop
      vertex -16.2135 15.8817 4.5
      vertex -14.5365 13.5734 4.5
      vertex -14.5365 16.4266 4.5
    endloop
  endfacet
  facet normal 0 0 1
    outer loop
      vertex 15.4635 -16.4266 4.5
      vertex 16.5 -15 4.5
      vertex 15.4635 -13.5734 4.5
    endloop
  endfacet
  facet normal 0 0 1
    outer loop
      vertex 13.7865 -15.8817 4.5
      vertex 15.4635 -16.4266 4.5
      vertex 13.7865 -14.1183 4.5
    endloop
  endfacet
  facet normal 0 0 1
    outer loop
      vertex 13.7865 -14.1183 4.5
      vertex 15.4635 -16.4266 4.5
      vertex 15.4635 -13.5734 4.5
    endloop
  endfacet
  facet normal 0 0 1
    outer loop
      vertex 15.4635 13.5734 4.5
      vertex 16.5 15 4.5
      vertex 15.4635 16.4266 4.5
    endloop
  endfacet
  facet normal 0 0 1
    outer loop
      vertex 13.7865 14.1183 4.5
      vertex 15.4635 13.5734 4.5
      vertex 13.7865 15.8817 4.5
    endloop
  endfacet
  facet normal 0 0 1
    outer loop
      vertex 13.7865 15.8817 4.5
      vertex 15.4635 13.5734 4.5
      vertex 15.4635 16.4266 4.5
    endloop
  endfacet
endsolid OpenSCAD_Model
