solid OpenSCAD_Model
  facet normal -1 0 0
    outer loop
      vertex -7 23.75 92.75
      vertex -7 23.75 100.75
      vertex -7 31.75 92.75
    endloop
  endfacet
  facet normal -1 0 0
    outer loop
      vertex -7 31.75 92.75
      vertex -7 23.75 100.75
      vertex -7 31.75 100.75
    endloop
  endfacet
  facet normal 0 -1 0
    outer loop
      vertex -7 23.75 100.75
      vertex -7 23.75 92.75
      vertex 0 23.75 92.75
    endloop
  endfacet
  facet normal 0 -1 0
    outer loop
      vertex 0 23.75 100.75
      vertex -7 23.75 100.75
      vertex 0 23.75 92.75
    endloop
  endfacet
  facet normal 0 0 -1
    outer loop
      vertex -2.125 26.2345 92.75
      vertex 0 23.75 92.75
      vertex -3.875 26.2345 92.75
    endloop
  endfacet
  facet normal 0 0 -1
    outer loop
      vertex -2.125 29.2655 92.75
      vertex -7 31.75 92.75
      vertex 0 31.75 92.75
    endloop
  endfacet
  facet normal 0 0 -1
    outer loop
      vertex -7 23.75 92.75
      vertex -7 31.75 92.75
      vertex -4.75 27.75 92.75
    endloop
  endfacet
  facet normal 0 0 -1
    outer loop
      vertex -7 23.75 92.75
      vertex -4.75 27.75 92.75
      vertex -3.875 26.2345 92.75
    endloop
  endfacet
  facet normal 0 0 -1
    outer loop
      vertex -7 23.75 92.75
      vertex -3.875 26.2345 92.75
      vertex 0 23.75 92.75
    endloop
  endfacet
  facet normal 0 0 -1
    outer loop
      vertex 0 23.75 92.75
      vertex -2.125 26.2345 92.75
      vertex -1.25 27.75 92.75
    endloop
  endfacet
  facet normal 0 0 -1
    outer loop
      vertex 0 23.75 92.75
      vertex -1.25 27.75 92.75
      vertex 0 31.75 92.75
    endloop
  endfacet
  facet normal 0 0 -1
    outer loop
      vertex -3.875 29.2655 92.75
      vertex -7 31.75 92.75
      vertex -2.125 29.2655 92.75
    endloop
  endfacet
  facet normal 0 0 -1
    outer loop
      vertex -4.75 27.75 92.75
      vertex -7 31.75 92.75
      vertex -3.875 29.2655 92.75
    endloop
  endfacet
  facet normal 0 0 -1
    outer loop
      vertex -2.125 29.2655 92.75
      vertex 0 31.75 92.75
      vertex -1.25 27.75 92.75
    endloop
  endfacet
  facet normal 0 1 0
    outer loop
      vertex -7 31.75 92.75
      vertex -7 31.75 100.75
      vertex 0 31.75 92.75
    endloop
  endfacet
  facet normal 0 1 0
    outer loop
      vertex 0 31.75 92.75
      vertex -7 31.75 100.75
      vertex 0 31.75 100.75
    endloop
  endfacet
  facet normal 0 0 1
    outer loop
      vertex -3.875 26.2345 100.75
      vertex -7 23.75 100.75
      vertex 0 23.75 100.75
    endloop
  endfacet
  facet normal 0 0 1
    outer loop
      vertex 2.25 53.25 100.75
      vertex 53.25 53.25 100.75
      vertex 55.5 55.5 100.75
    endloop
  endfacet
  facet normal 0 0 1
    outer loop
      vertex 55.5 27.75 100.75
      vertex 55.5 23.75 100.75
      vertex 56.375 26.2345 100.75
    endloop
  endfacet
  facet normal 0 0 1
    outer loop
      vertex 58.125 29.2655 100.75
      vertex 61.25 31.75 100.75
      vertex 55.5 31.75 100.75
    endloop
  endfacet
  facet normal 0 0 1
    outer loop
      vertex 29.5 59 100.75
      vertex 31.75 55.5 100.75
      vertex 31.75 63 100.75
    endloop
  endfacet
  facet normal 0 0 1
    outer loop
      vertex -2.125 26.2345 100.75
      vertex -3.875 26.2345 100.75
      vertex 0 23.75 100.75
    endloop
  endfacet
  facet normal 0 0 1
    outer loop
      vertex 26.875 60.5155 100.75
      vertex 31.75 63 100.75
      vertex 23.75 63 100.75
    endloop
  endfacet
  facet normal 0 0 1
    outer loop
      vertex -4.75 27.75 100.75
      vertex -3.875 29.2655 100.75
      vertex -7 31.75 100.75
    endloop
  endfacet
  facet normal 0 0 1
    outer loop
      vertex 53.25 53.25 100.75
      vertex 55.5 27.75 100.75
      vertex 55.5 31.75 100.75
    endloop
  endfacet
  facet normal 0 0 1
    outer loop
      vertex -4.75 27.75 100.75
      vertex -7 23.75 100.75
      vertex -3.875 26.2345 100.75
    endloop
  endfacet
  facet normal 0 0 1
    outer loop
      vertex -7 31.75 100.75
      vertex -7 23.75 100.75
      vertex -4.75 27.75 100.75
    endloop
  endfacet
  facet normal 0 0 1
    outer loop
      vertex -2.125 29.2655 100.75
      vertex -7 31.75 100.75
      vertex -3.875 29.2655 100.75
    endloop
  endfacet
  facet normal 0 0 1
    outer loop
      vertex -1.25 27.75 100.75
      vertex -2.125 26.2345 100.75
      vertex 0 23.75 100.75
    endloop
  endfacet
  facet normal 0 0 1
    outer loop
      vertex 0 0 100.75
      vertex 2.25 2.25 100.75
      vertex 0 23.75 100.75
    endloop
  endfacet
  facet normal 0 0 1
    outer loop
      vertex 0 0 100.75
      vertex 55.5 0 100.75
      vertex 2.25 2.25 100.75
    endloop
  endfacet
  facet normal 0 0 1
    outer loop
      vertex 53.25 2.25 100.75
      vertex 2.25 2.25 100.75
      vertex 55.5 0 100.75
    endloop
  endfacet
  facet normal 0 0 1
    outer loop
      vertex 2.25 53.25 100.75
      vertex 31.75 55.5 100.75
      vertex 23.75 55.5 100.75
    endloop
  endfacet
  facet normal 0 0 1
    outer loop
      vertex 56.375 26.2345 100.75
      vertex 55.5 23.75 100.75
      vertex 61.25 23.75 100.75
    endloop
  endfacet
  facet normal 0 0 1
    outer loop
      vertex 55.5 31.75 100.75
      vertex 55.5 55.5 100.75
      vertex 53.25 53.25 100.75
    endloop
  endfacet
  facet normal 0 0 1
    outer loop
      vertex 26.875 57.4845 100.75
      vertex 26 59 100.75
      vertex 23.75 55.5 100.75
    endloop
  endfacet
  facet normal 0 0 1
    outer loop
      vertex 55.5 0 100.75
      vertex 55.5 23.75 100.75
      vertex 53.25 2.25 100.75
    endloop
  endfacet
  facet normal 0 0 1
    outer loop
      vertex 59 27.75 100.75
      vertex 58.125 26.2345 100.75
      vertex 61.25 23.75 100.75
    endloop
  endfacet
  facet normal 0 0 1
    outer loop
      vertex 23.75 55.5 100.75
      vertex 31.75 55.5 100.75
      vertex 26.875 57.4845 100.75
    endloop
  endfacet
  facet normal 0 0 1
    outer loop
      vertex 26 59 100.75
      vertex 26.875 60.5155 100.75
      vertex 23.75 63 100.75
    endloop
  endfacet
  facet normal 0 0 1
    outer loop
      vertex 28.625 60.5155 100.75
      vertex 29.5 59 100.75
      vertex 31.75 63 100.75
    endloop
  endfacet
  facet normal 0 0 1
    outer loop
      vertex 23.75 55.5 100.75
      vertex 0 55.5 100.75
      vertex 2.25 53.25 100.75
    endloop
  endfacet
  facet normal 0 0 1
    outer loop
      vertex 28.625 57.4845 100.75
      vertex 31.75 55.5 100.75
      vertex 29.5 59 100.75
    endloop
  endfacet
  facet normal 0 0 1
    outer loop
      vertex 26.875 57.4845 100.75
      vertex 31.75 55.5 100.75
      vertex 28.625 57.4845 100.75
    endloop
  endfacet
  facet normal 0 0 1
    outer loop
      vertex 53.25 53.25 100.75
      vertex 53.25 2.25 100.75
      vertex 55.5 23.75 100.75
    endloop
  endfacet
  facet normal 0 0 1
    outer loop
      vertex 53.25 53.25 100.75
      vertex 55.5 23.75 100.75
      vertex 55.5 27.75 100.75
    endloop
  endfacet
  facet normal 0 0 1
    outer loop
      vertex 56.375 29.2655 100.75
      vertex 58.125 29.2655 100.75
      vertex 55.5 31.75 100.75
    endloop
  endfacet
  facet normal 0 0 1
    outer loop
      vertex 59 27.75 100.75
      vertex 61.25 31.75 100.75
      vertex 58.125 29.2655 100.75
    endloop
  endfacet
  facet normal 0 0 1
    outer loop
      vertex 61.25 23.75 100.75
      vertex 61.25 31.75 100.75
      vertex 59 27.75 100.75
    endloop
  endfacet
  facet normal 0 0 1
    outer loop
      vertex 61.25 23.75 100.75
      vertex 58.125 26.2345 100.75
      vertex 56.375 26.2345 100.75
    endloop
  endfacet
  facet normal 0 0 1
    outer loop
      vertex 2.25 53.25 100.75
      vertex 55.5 55.5 100.75
      vertex 31.75 55.5 100.75
    endloop
  endfacet
  facet normal 0 0 1
    outer loop
      vertex 26.875 60.5155 100.75
      vertex 28.625 60.5155 100.75
      vertex 31.75 63 100.75
    endloop
  endfacet
  facet normal 0 0 1
    outer loop
      vertex 23.75 63 100.75
      vertex 23.75 55.5 100.75
      vertex 26 59 100.75
    endloop
  endfacet
  facet normal 0 0 1
    outer loop
      vertex 0 55.5 100.75
      vertex 0 31.75 100.75
      vertex 2.25 53.25 100.75
    endloop
  endfacet
  facet normal 0 0 1
    outer loop
      vertex 55.5 27.75 100.75
      vertex 56.375 29.2655 100.75
      vertex 55.5 31.75 100.75
    endloop
  endfacet
  facet normal 0 0 1
    outer loop
      vertex -2.125 29.2655 100.75
      vertex 0 31.75 100.75
      vertex -7 31.75 100.75
    endloop
  endfacet
  facet normal 0 0 1
    outer loop
      vertex -1.25 27.75 100.75
      vertex 0 31.75 100.75
      vertex -2.125 29.2655 100.75
    endloop
  endfacet
  facet normal 0 0 1
    outer loop
      vertex 0 23.75 100.75
      vertex 0 31.75 100.75
      vertex -1.25 27.75 100.75
    endloop
  endfacet
  facet normal 0 0 1
    outer loop
      vertex 2.25 2.25 100.75
      vertex 0 31.75 100.75
      vertex 0 23.75 100.75
    endloop
  endfacet
  facet normal 0 0 1
    outer loop
      vertex 2.25 2.25 100.75
      vertex 2.25 53.25 100.75
      vertex 0 31.75 100.75
    endloop
  endfacet
  facet normal -1 0 0
    outer loop
      vertex 0 0 0
      vertex 0 0 100.75
      vertex 0 55.5 0
    endloop
  endfacet
  facet normal -1 0 0
    outer loop
      vertex 0 23.75 92.75
      vertex 0 0 100.75
      vertex 0 23.75 100.75
    endloop
  endfacet
  facet normal -1 0 0
    outer loop
      vertex 0 55.5 0
      vertex 0 0 100.75
      vertex 0 23.75 92.75
    endloop
  endfacet
  facet normal -1 0 0
    outer loop
      vertex 0 55.5 0
      vertex 0 31.75 92.75
      vertex 0 31.75 100.75
    endloop
  endfacet
  facet normal -1 0 0
    outer loop
      vertex 0 55.5 0
      vertex 0 31.75 100.75
      vertex 0 55.5 100.75
    endloop
  endfacet
  facet normal -1 0 0
    outer loop
      vertex 0 31.75 92.75
      vertex 0 55.5 0
      vertex 0 23.75 92.75
    endloop
  endfacet
  facet normal 0.866025 -0.5 0
    outer loop
      vertex -3.875 29.2655 92.75
      vertex -3.875 29.2655 100.75
      vertex -4.75 27.75 100.75
    endloop
  endfacet
  facet normal 0.866025 -0.5 0
    outer loop
      vertex -4.75 27.75 92.75
      vertex -3.875 29.2655 92.75
      vertex -4.75 27.75 100.75
    endloop
  endfacet
  facet normal 0.866025 0.5 0
    outer loop
      vertex -4.75 27.75 100.75
      vertex -3.875 26.2345 100.75
      vertex -3.875 26.2345 92.75
    endloop
  endfacet
  facet normal 0.866025 0.5 0
    outer loop
      vertex -4.75 27.75 92.75
      vertex -4.75 27.75 100.75
      vertex -3.875 26.2345 92.75
    endloop
  endfacet
  facet normal 0 -1 0
    outer loop
      vertex -2.125 29.2655 92.75
      vertex -2.125 29.2655 100.75
      vertex -3.875 29.2655 100.75
    endloop
  endfacet
  facet normal 0 -1 0
    outer loop
      vertex -3.875 29.2655 92.75
      vertex -2.125 29.2655 92.75
      vertex -3.875 29.2655 100.75
    endloop
  endfacet
  facet normal -0.866025 -0.5 0
    outer loop
      vertex -1.25 27.75 100.75
      vertex -2.125 29.2655 100.75
      vertex -1.25 27.75 92.75
    endloop
  endfacet
  facet normal -0.866025 -0.5 0
    outer loop
      vertex -1.25 27.75 92.75
      vertex -2.125 29.2655 100.75
      vertex -2.125 29.2655 92.75
    endloop
  endfacet
  facet normal -0.866025 0.5 0
    outer loop
      vertex -1.25 27.75 100.75
      vertex -1.25 27.75 92.75
      vertex -2.125 26.2345 100.75
    endloop
  endfacet
  facet normal -0.866025 0.5 0
    outer loop
      vertex -2.125 26.2345 100.75
      vertex -1.25 27.75 92.75
      vertex -2.125 26.2345 92.75
    endloop
  endfacet
  facet normal 0 1 0
    outer loop
      vertex -2.125 26.2345 100.75
      vertex -2.125 26.2345 92.75
      vertex -3.875 26.2345 100.75
    endloop
  endfacet
  facet normal 0 1 0
    outer loop
      vertex -3.875 26.2345 100.75
      vertex -2.125 26.2345 92.75
      vertex -3.875 26.2345 92.75
    endloop
  endfacet
  facet normal 0 1 0
    outer loop
      vertex 0 55.5 0
      vertex 0 55.5 100.75
      vertex 55.5 55.5 0
    endloop
  endfacet
  facet normal 0 1 0
    outer loop
      vertex 23.75 55.5 92.75
      vertex 0 55.5 100.75
      vertex 23.75 55.5 100.75
    endloop
  endfacet
  facet normal 0 1 0
    outer loop
      vertex 55.5 55.5 0
      vertex 0 55.5 100.75
      vertex 23.75 55.5 92.75
    endloop
  endfacet
  facet normal 0 1 0
    outer loop
      vertex 55.5 55.5 0
      vertex 31.75 55.5 92.75
      vertex 31.75 55.5 100.75
    endloop
  endfacet
  facet normal 0 1 0
    outer loop
      vertex 55.5 55.5 0
      vertex 31.75 55.5 100.75
      vertex 55.5 55.5 100.75
    endloop
  endfacet
  facet normal 0 1 0
    outer loop
      vertex 31.75 55.5 92.75
      vertex 55.5 55.5 0
      vertex 23.75 55.5 92.75
    endloop
  endfacet
  facet normal -1 0 0
    outer loop
      vertex 23.75 55.5 92.75
      vertex 23.75 55.5 100.75
      vertex 23.75 63 92.75
    endloop
  endfacet
  facet normal -1 0 0
    outer loop
      vertex 23.75 63 92.75
      vertex 23.75 55.5 100.75
      vertex 23.75 63 100.75
    endloop
  endfacet
  facet normal 0 1 0
    outer loop
      vertex 23.75 63 92.75
      vertex 23.75 63 100.75
      vertex 31.75 63 92.75
    endloop
  endfacet
  facet normal 0 1 0
    outer loop
      vertex 31.75 63 92.75
      vertex 23.75 63 100.75
      vertex 31.75 63 100.75
    endloop
  endfacet
  facet normal 1 0 0
    outer loop
      vertex 31.75 55.5 100.75
      vertex 31.75 55.5 92.75
      vertex 31.75 63 92.75
    endloop
  endfacet
  facet normal 1 0 0
    outer loop
      vertex 31.75 63 100.75
      vertex 31.75 55.5 100.75
      vertex 31.75 63 92.75
    endloop
  endfacet
  facet normal 1 0 0
    outer loop
      vertex 55.5 0 100.75
      vertex 55.5 0 0
      vertex 55.5 55.5 0
    endloop
  endfacet
  facet normal 1 0 0
    outer loop
      vertex 55.5 23.75 92.75
      vertex 55.5 0 100.75
      vertex 55.5 55.5 0
    endloop
  endfacet
  facet normal 1 0 0
    outer loop
      vertex 55.5 55.5 100.75
      vertex 55.5 31.75 100.75
      vertex 55.5 55.5 0
    endloop
  endfacet
  facet normal 1 0 0
    outer loop
      vertex 55.5 31.75 100.75
      vertex 55.5 31.75 92.75
      vertex 55.5 55.5 0
    endloop
  endfacet
  facet normal 1 0 0
    outer loop
      vertex 55.5 31.75 92.75
      vertex 55.5 27.75 92.75
      vertex 55.5 55.5 0
    endloop
  endfacet
  facet normal 1 0 0
    outer loop
      vertex 55.5 27.75 92.75
      vertex 55.5 23.75 92.75
      vertex 55.5 55.5 0
    endloop
  endfacet
  facet normal 1 0 0
    outer loop
      vertex 55.5 23.75 92.75
      vertex 55.5 23.75 100.75
      vertex 55.5 0 100.75
    endloop
  endfacet
  facet normal 0 1 0
    outer loop
      vertex 55.5 31.75 92.75
      vertex 55.5 31.75 100.75
      vertex 61.25 31.75 92.75
    endloop
  endfacet
  facet normal 0 1 0
    outer loop
      vertex 61.25 31.75 92.75
      vertex 55.5 31.75 100.75
      vertex 61.25 31.75 100.75
    endloop
  endfacet
  facet normal 1 0 0
    outer loop
      vertex 61.25 23.75 100.75
      vertex 61.25 23.75 92.75
      vertex 61.25 31.75 92.75
    endloop
  endfacet
  facet normal 1 0 0
    outer loop
      vertex 61.25 31.75 100.75
      vertex 61.25 23.75 100.75
      vertex 61.25 31.75 92.75
    endloop
  endfacet
  facet normal 0 -1 0
    outer loop
      vertex 55.5 23.75 100.75
      vertex 55.5 23.75 92.75
      vertex 61.25 23.75 92.75
    endloop
  endfacet
  facet normal 0 -1 0
    outer loop
      vertex 61.25 23.75 100.75
      vertex 55.5 23.75 100.75
      vertex 61.25 23.75 92.75
    endloop
  endfacet
  facet normal 0 -1 0
    outer loop
      vertex 0 0 100.75
      vertex 0 0 0
      vertex 55.5 0 0
    endloop
  endfacet
  facet normal 0 -1 0
    outer loop
      vertex 55.5 0 100.75
      vertex 0 0 100.75
      vertex 55.5 0 0
    endloop
  endfacet
  facet normal 1 0 0
    outer loop
      vertex 2.25 53.25 97.75
      vertex 2.25 53.25 100.75
      vertex 2.25 2.25 100.75
    endloop
  endfacet
  facet normal 1 0 0
    outer loop
      vertex 2.25 2.25 97.75
      vertex 2.25 53.25 97.75
      vertex 2.25 2.25 100.75
    endloop
  endfacet
  facet normal 0 1 0
    outer loop
      vertex 53.25 2.25 100.75
      vertex 53.25 2.25 97.75
      vertex 2.25 2.25 100.75
    endloop
  endfacet
  facet normal 0 1 0
    outer loop
      vertex 2.25 2.25 100.75
      vertex 53.25 2.25 97.75
      vertex 2.25 2.25 97.75
    endloop
  endfacet
  facet normal -1 0 0
    outer loop
      vertex 53.25 53.25 100.75
      vertex 53.25 53.25 97.75
      vertex 53.25 2.25 100.75
    endloop
  endfacet
  facet normal -1 0 0
    outer loop
      vertex 53.25 2.25 100.75
      vertex 53.25 53.25 97.75
      vertex 53.25 2.25 97.75
    endloop
  endfacet
  facet normal 0 -1 0
    outer loop
      vertex 53.25 53.25 97.75
      vertex 53.25 53.25 100.75
      vertex 2.25 53.25 100.75
    endloop
  endfacet
  facet normal 0 -1 0
    outer loop
      vertex 2.25 53.25 97.75
      vertex 53.25 53.25 97.75
      vertex 2.25 53.25 100.75
    endloop
  endfacet
  facet normal 0.866025 0.5 0
    outer loop
      vertex 26 59 100.75
      vertex 26.875 57.4845 100.75
      vertex 26.875 57.4845 92.75
    endloop
  endfacet
  facet normal 0.866025 0.5 0
    outer loop
      vertex 26 59 92.75
      vertex 26 59 100.75
      vertex 26.875 57.4845 92.75
    endloop
  endfacet
  facet normal 0 1 0
    outer loop
      vertex 28.625 57.4845 100.75
      vertex 28.625 57.4845 92.75
      vertex 26.875 57.4845 100.75
    endloop
  endfacet
  facet normal 0 1 0
    outer loop
      vertex 26.875 57.4845 100.75
      vertex 28.625 57.4845 92.75
      vertex 26.875 57.4845 92.75
    endloop
  endfacet
  facet normal -0.866025 0.5 0
    outer loop
      vertex 29.5 59 100.75
      vertex 29.5 59 92.75
      vertex 28.625 57.4845 100.75
    endloop
  endfacet
  facet normal -0.866025 0.5 0
    outer loop
      vertex 28.625 57.4845 100.75
      vertex 29.5 59 92.75
      vertex 28.625 57.4845 92.75
    endloop
  endfacet
  facet normal -0.866025 -0.5 0
    outer loop
      vertex 29.5 59 100.75
      vertex 28.625 60.5155 100.75
      vertex 29.5 59 92.75
    endloop
  endfacet
  facet normal -0.866025 -0.5 0
    outer loop
      vertex 29.5 59 92.75
      vertex 28.625 60.5155 100.75
      vertex 28.625 60.5155 92.75
    endloop
  endfacet
  facet normal 0 -1 0
    outer loop
      vertex 28.625 60.5155 92.75
      vertex 28.625 60.5155 100.75
      vertex 26.875 60.5155 100.75
    endloop
  endfacet
  facet normal 0 -1 0
    outer loop
      vertex 26.875 60.5155 92.75
      vertex 28.625 60.5155 92.75
      vertex 26.875 60.5155 100.75
    endloop
  endfacet
  facet normal 0.866025 -0.5 0
    outer loop
      vertex 26.875 60.5155 92.75
      vertex 26.875 60.5155 100.75
      vertex 26 59 100.75
    endloop
  endfacet
  facet normal 0.866025 -0.5 0
    outer loop
      vertex 26 59 92.75
      vertex 26.875 60.5155 92.75
      vertex 26 59 100.75
    endloop
  endfacet
  facet normal 0.866025 0.5 0
    outer loop
      vertex 55.5 27.75 100.75
      vertex 56.375 26.2345 100.75
      vertex 56.375 26.2345 92.75
    endloop
  endfacet
  facet normal 0.866025 0.5 0
    outer loop
      vertex 55.5 27.75 92.75
      vertex 55.5 27.75 100.75
      vertex 56.375 26.2345 92.75
    endloop
  endfacet
  facet normal 0 1 0
    outer loop
      vertex 58.125 26.2345 100.75
      vertex 58.125 26.2345 92.75
      vertex 56.375 26.2345 100.75
    endloop
  endfacet
  facet normal 0 1 0
    outer loop
      vertex 56.375 26.2345 100.75
      vertex 58.125 26.2345 92.75
      vertex 56.375 26.2345 92.75
    endloop
  endfacet
  facet normal -0.866025 0.5 0
    outer loop
      vertex 59 27.75 100.75
      vertex 59 27.75 92.75
      vertex 58.125 26.2345 100.75
    endloop
  endfacet
  facet normal -0.866025 0.5 0
    outer loop
      vertex 58.125 26.2345 100.75
      vertex 59 27.75 92.75
      vertex 58.125 26.2345 92.75
    endloop
  endfacet
  facet normal -0.866025 -0.5 0
    outer loop
      vertex 59 27.75 100.75
      vertex 58.125 29.2655 100.75
      vertex 59 27.75 92.75
    endloop
  endfacet
  facet normal -0.866025 -0.5 0
    outer loop
      vertex 59 27.75 92.75
      vertex 58.125 29.2655 100.75
      vertex 58.125 29.2655 92.75
    endloop
  endfacet
  facet normal 0 -1 0
    outer loop
      vertex 58.125 29.2655 92.75
      vertex 58.125 29.2655 100.75
      vertex 56.375 29.2655 100.75
    endloop
  endfacet
  facet normal 0 -1 0
    outer loop
      vertex 56.375 29.2655 92.75
      vertex 58.125 29.2655 92.75
      vertex 56.375 29.2655 100.75
    endloop
  endfacet
  facet normal 0.866025 -0.5 0
    outer loop
      vertex 56.375 29.2655 92.75
      vertex 56.375 29.2655 100.75
      vertex 55.5 27.75 100.75
    endloop
  endfacet
  facet normal 0.866025 -0.5 0
    outer loop
      vertex 55.5 27.75 92.75
      vertex 56.375 29.2655 92.75
      vertex 55.5 27.75 100.75
    endloop
  endfacet
  facet normal 0 0 -1
    outer loop
      vertex 18.8393 27.432 0
      vertex 0 55.5 0
      vertex 55.5 0 0
    endloop
  endfacet
  facet normal 0 0 -1
    outer loop
      vertex 55.5 0 0
      vertex 0 55.5 0
      vertex 55.5 55.5 0
    endloop
  endfacet
  facet normal 0 0 -1
    outer loop
      vertex 0 0 0
      vertex 0 55.5 0
      vertex 9.8538 26.4876 0
    endloop
  endfacet
  facet normal 0 0 -1
    outer loop
      vertex 0 0 0
      vertex 9.8538 26.4876 0
      vertex 9.8538 24.5124 0
    endloop
  endfacet
  facet normal 0 0 -1
    outer loop
      vertex 0 0 0
      vertex 9.8538 24.5124 0
      vertex 10.6572 22.708 0
    endloop
  endfacet
  facet normal 0 0 -1
    outer loop
      vertex 0 0 0
      vertex 10.6572 22.708 0
      vertex 12.125 21.3864 0
    endloop
  endfacet
  facet normal 0 0 -1
    outer loop
      vertex 0 0 0
      vertex 12.125 21.3864 0
      vertex 55.5 0 0
    endloop
  endfacet
  facet normal 0 0 -1
    outer loop
      vertex 12.125 21.3864 0
      vertex 14.0035 20.776 0
      vertex 55.5 0 0
    endloop
  endfacet
  facet normal 0 0 -1
    outer loop
      vertex 17.6784 21.9701 0
      vertex 55.5 0 0
      vertex 15.9678 20.9825 0
    endloop
  endfacet
  facet normal 0 0 -1
    outer loop
      vertex 15.9678 30.0175 0
      vertex 0 55.5 0
      vertex 17.6784 29.0299 0
    endloop
  endfacet
  facet normal 0 0 -1
    outer loop
      vertex 12.125 29.6136 0
      vertex 0 55.5 0
      vertex 14.0035 30.224 0
    endloop
  endfacet
  facet normal 0 0 -1
    outer loop
      vertex 17.6784 21.9701 0
      vertex 18.8393 23.568 0
      vertex 55.5 0 0
    endloop
  endfacet
  facet normal 0 0 -1
    outer loop
      vertex 14.0035 30.224 0
      vertex 0 55.5 0
      vertex 15.9678 30.0175 0
    endloop
  endfacet
  facet normal 0 0 -1
    outer loop
      vertex 18.8393 23.568 0
      vertex 19.25 25.5 0
      vertex 55.5 0 0
    endloop
  endfacet
  facet normal 0 0 -1
    outer loop
      vertex 17.6784 29.0299 0
      vertex 0 55.5 0
      vertex 18.8393 27.432 0
    endloop
  endfacet
  facet normal 0 0 -1
    outer loop
      vertex 19.25 25.5 0
      vertex 18.8393 27.432 0
      vertex 55.5 0 0
    endloop
  endfacet
  facet normal 0 0 -1
    outer loop
      vertex 10.6572 28.292 0
      vertex 0 55.5 0
      vertex 12.125 29.6136 0
    endloop
  endfacet
  facet normal 0 0 -1
    outer loop
      vertex 9.8538 26.4876 0
      vertex 0 55.5 0
      vertex 10.6572 28.292 0
    endloop
  endfacet
  facet normal 0 0 -1
    outer loop
      vertex 15.9678 20.9825 0
      vertex 55.5 0 0
      vertex 14.0035 20.776 0
    endloop
  endfacet
  facet normal 0 0 -1
    outer loop
      vertex 28.625 60.5155 92.75
      vertex 23.75 63 92.75
      vertex 31.75 63 92.75
    endloop
  endfacet
  facet normal 0 0 -1
    outer loop
      vertex 23.75 55.5 92.75
      vertex 23.75 63 92.75
      vertex 26 59 92.75
    endloop
  endfacet
  facet normal 0 0 -1
    outer loop
      vertex 23.75 55.5 92.75
      vertex 26 59 92.75
      vertex 26.875 57.4845 92.75
    endloop
  endfacet
  facet normal 0 0 -1
    outer loop
      vertex 23.75 55.5 92.75
      vertex 26.875 57.4845 92.75
      vertex 31.75 55.5 92.75
    endloop
  endfacet
  facet normal 0 0 -1
    outer loop
      vertex 28.625 57.4845 92.75
      vertex 31.75 55.5 92.75
      vertex 26.875 57.4845 92.75
    endloop
  endfacet
  facet normal 0 0 -1
    outer loop
      vertex 29.5 59 92.75
      vertex 31.75 55.5 92.75
      vertex 28.625 57.4845 92.75
    endloop
  endfacet
  facet normal 0 0 -1
    outer loop
      vertex 31.75 55.5 92.75
      vertex 29.5 59 92.75
      vertex 31.75 63 92.75
    endloop
  endfacet
  facet normal 0 0 -1
    outer loop
      vertex 29.5 59 92.75
      vertex 28.625 60.5155 92.75
      vertex 31.75 63 92.75
    endloop
  endfacet
  facet normal 0 0 -1
    outer loop
      vertex 26.875 60.5155 92.75
      vertex 23.75 63 92.75
      vertex 28.625 60.5155 92.75
    endloop
  endfacet
  facet normal 0 0 -1
    outer loop
      vertex 26 59 92.75
      vertex 23.75 63 92.75
      vertex 26.875 60.5155 92.75
    endloop
  endfacet
  facet normal 0 0 -1
    outer loop
      vertex 55.5 23.75 92.75
      vertex 56.375 26.2345 92.75
      vertex 61.25 23.75 92.75
    endloop
  endfacet
  facet normal 0 0 -1
    outer loop
      vertex 55.5 23.75 92.75
      vertex 55.5 27.75 92.75
      vertex 56.375 26.2345 92.75
    endloop
  endfacet
  facet normal 0 0 -1
    outer loop
      vertex 56.375 29.2655 92.75
      vertex 55.5 27.75 92.75
      vertex 55.5 31.75 92.75
    endloop
  endfacet
  facet normal 0 0 -1
    outer loop
      vertex 61.25 23.75 92.75
      vertex 58.125 26.2345 92.75
      vertex 59 27.75 92.75
    endloop
  endfacet
  facet normal 0 0 -1
    outer loop
      vertex 59 27.75 92.75
      vertex 61.25 31.75 92.75
      vertex 61.25 23.75 92.75
    endloop
  endfacet
  facet normal 0 0 -1
    outer loop
      vertex 58.125 29.2655 92.75
      vertex 56.375 29.2655 92.75
      vertex 55.5 31.75 92.75
    endloop
  endfacet
  facet normal 0 0 -1
    outer loop
      vertex 58.125 29.2655 92.75
      vertex 55.5 31.75 92.75
      vertex 61.25 31.75 92.75
    endloop
  endfacet
  facet normal 0 0 -1
    outer loop
      vertex 58.125 29.2655 92.75
      vertex 61.25 31.75 92.75
      vertex 59 27.75 92.75
    endloop
  endfacet
  facet normal 0 0 -1
    outer loop
      vertex 58.125 26.2345 92.75
      vertex 61.25 23.75 92.75
      vertex 56.375 26.2345 92.75
    endloop
  endfacet
  facet normal 0 0 1
    outer loop
      vertex 2.75 52.75 97.75
      vertex 53.25 53.25 97.75
      vertex 2.25 53.25 97.75
    endloop
  endfacet
  facet normal 0 0 1
    outer loop
      vertex 52.75 52.75 97.75
      vertex 53.25 2.25 97.75
      vertex 53.25 53.25 97.75
    endloop
  endfacet
  facet normal 0 0 1
    outer loop
      vertex 2.25 2.25 97.75
      vertex 2.75 52.75 97.75
      vertex 2.25 53.25 97.75
    endloop
  endfacet
  facet normal 0 0 1
    outer loop
      vertex 52.75 2.75 97.75
      vertex 53.25 2.25 97.75
      vertex 52.75 52.75 97.75
    endloop
  endfacet
  facet normal 0 0 1
    outer loop
      vertex 2.75 52.75 97.75
      vertex 52.75 52.75 97.75
      vertex 53.25 53.25 97.75
    endloop
  endfacet
  facet normal 0 0 1
    outer loop
      vertex 2.25 2.25 97.75
      vertex 53.25 2.25 97.75
      vertex 52.75 2.75 97.75
    endloop
  endfacet
  facet normal 0 0 1
    outer loop
      vertex 2.25 2.25 97.75
      vertex 2.75 2.75 97.75
      vertex 2.75 52.75 97.75
    endloop
  endfacet
  facet normal 0 0 1
    outer loop
      vertex 2.25 2.25 97.75
      vertex 52.75 2.75 97.75
      vertex 2.75 2.75 97.75
    endloop
  endfacet
  facet normal 0.913545 -0.406737 0
    outer loop
      vertex 10.6572 28.292 0
      vertex 10.6572 28.292 12.75
      vertex 9.8538 26.4876 12.75
    endloop
  endfacet
  facet normal 0.913545 -0.406737 0
    outer loop
      vertex 9.8538 26.4876 0
      vertex 10.6572 28.292 0
      vertex 9.8538 26.4876 12.75
    endloop
  endfacet
  facet normal 1 0 0
    outer loop
      vertex 9.8538 26.4876 0
      vertex 9.8538 26.4876 12.75
      vertex 9.8538 24.5124 12.75
    endloop
  endfacet
  facet normal 1 0 0
    outer loop
      vertex 9.8538 24.5124 0
      vertex 9.8538 26.4876 0
      vertex 9.8538 24.5124 12.75
    endloop
  endfacet
  facet normal 0.669131 -0.743145 0
    outer loop
      vertex 12.125 29.6136 0
      vertex 12.125 29.6136 12.75
      vertex 10.6572 28.292 12.75
    endloop
  endfacet
  facet normal 0.669131 -0.743145 0
    outer loop
      vertex 10.6572 28.292 0
      vertex 12.125 29.6136 0
      vertex 10.6572 28.292 12.75
    endloop
  endfacet
  facet normal 0.309017 -0.951057 0
    outer loop
      vertex 14.0035 30.224 0
      vertex 14.0035 30.224 12.75
      vertex 12.125 29.6136 12.75
    endloop
  endfacet
  facet normal 0.309017 -0.951057 0
    outer loop
      vertex 12.125 29.6136 0
      vertex 14.0035 30.224 0
      vertex 12.125 29.6136 12.75
    endloop
  endfacet
  facet normal -0.104529 -0.994522 0
    outer loop
      vertex 15.9678 30.0175 0
      vertex 15.9678 30.0175 12.75
      vertex 14.0035 30.224 12.75
    endloop
  endfacet
  facet normal -0.104529 -0.994522 0
    outer loop
      vertex 14.0035 30.224 0
      vertex 15.9678 30.0175 0
      vertex 14.0035 30.224 12.75
    endloop
  endfacet
  facet normal -0.5 -0.866025 0
    outer loop
      vertex 17.6784 29.0299 0
      vertex 17.6784 29.0299 12.75
      vertex 15.9678 30.0175 12.75
    endloop
  endfacet
  facet normal -0.5 -0.866025 0
    outer loop
      vertex 15.9678 30.0175 0
      vertex 17.6784 29.0299 0
      vertex 15.9678 30.0175 12.75
    endloop
  endfacet
  facet normal -0.809017 -0.587785 0
    outer loop
      vertex 18.8393 27.432 12.75
      vertex 17.6784 29.0299 12.75
      vertex 18.8393 27.432 0
    endloop
  endfacet
  facet normal -0.809017 -0.587785 0
    outer loop
      vertex 18.8393 27.432 0
      vertex 17.6784 29.0299 12.75
      vertex 17.6784 29.0299 0
    endloop
  endfacet
  facet normal -0.978148 -0.207912 0
    outer loop
      vertex 19.25 25.5 12.75
      vertex 18.8393 27.432 12.75
      vertex 19.25 25.5 0
    endloop
  endfacet
  facet normal -0.978148 -0.207912 0
    outer loop
      vertex 19.25 25.5 0
      vertex 18.8393 27.432 12.75
      vertex 18.8393 27.432 0
    endloop
  endfacet
  facet normal -0.978148 0.207912 0
    outer loop
      vertex 19.25 25.5 12.75
      vertex 19.25 25.5 0
      vertex 18.8393 23.568 12.75
    endloop
  endfacet
  facet normal -0.978148 0.207912 0
    outer loop
      vertex 18.8393 23.568 12.75
      vertex 19.25 25.5 0
      vertex 18.8393 23.568 0
    endloop
  endfacet
  facet normal -0.809017 0.587785 0
    outer loop
      vertex 18.8393 23.568 12.75
      vertex 18.8393 23.568 0
      vertex 17.6784 21.9701 12.75
    endloop
  endfacet
  facet normal -0.809017 0.587785 0
    outer loop
      vertex 17.6784 21.9701 12.75
      vertex 18.8393 23.568 0
      vertex 17.6784 21.9701 0
    endloop
  endfacet
  facet normal -0.5 0.866025 0
    outer loop
      vertex 17.6784 21.9701 12.75
      vertex 17.6784 21.9701 0
      vertex 15.9678 20.9825 12.75
    endloop
  endfacet
  facet normal -0.5 0.866025 0
    outer loop
      vertex 15.9678 20.9825 12.75
      vertex 17.6784 21.9701 0
      vertex 15.9678 20.9825 0
    endloop
  endfacet
  facet normal -0.104529 0.994522 0
    outer loop
      vertex 15.9678 20.9825 12.75
      vertex 15.9678 20.9825 0
      vertex 14.0035 20.776 12.75
    endloop
  endfacet
  facet normal -0.104529 0.994522 0
    outer loop
      vertex 14.0035 20.776 12.75
      vertex 15.9678 20.9825 0
      vertex 14.0035 20.776 0
    endloop
  endfacet
  facet normal 0.309017 0.951057 0
    outer loop
      vertex 14.0035 20.776 12.75
      vertex 14.0035 20.776 0
      vertex 12.125 21.3864 12.75
    endloop
  endfacet
  facet normal 0.309017 0.951057 0
    outer loop
      vertex 12.125 21.3864 12.75
      vertex 14.0035 20.776 0
      vertex 12.125 21.3864 0
    endloop
  endfacet
  facet normal 0.669131 0.743145 0
    outer loop
      vertex 12.125 21.3864 12.75
      vertex 12.125 21.3864 0
      vertex 10.6572 22.708 12.75
    endloop
  endfacet
  facet normal 0.669131 0.743145 0
    outer loop
      vertex 10.6572 22.708 12.75
      vertex 12.125 21.3864 0
      vertex 10.6572 22.708 0
    endloop
  endfacet
  facet normal 0.913545 0.406737 0
    outer loop
      vertex 9.8538 24.5124 12.75
      vertex 10.6572 22.708 12.75
      vertex 10.6572 22.708 0
    endloop
  endfacet
  facet normal 0.913545 0.406737 0
    outer loop
      vertex 9.8538 24.5124 0
      vertex 9.8538 24.5124 12.75
      vertex 10.6572 22.708 0
    endloop
  endfacet
  facet normal 1 0 0
    outer loop
      vertex 2.75 52.75 4.5
      vertex 2.75 52.75 97.75
      vertex 2.75 2.75 97.75
    endloop
  endfacet
  facet normal 1 0 0
    outer loop
      vertex 2.75 2.75 4.5
      vertex 2.75 52.75 4.5
      vertex 2.75 2.75 97.75
    endloop
  endfacet
  facet normal 0 -1 0
    outer loop
      vertex 52.75 52.75 4.5
      vertex 52.75 52.75 97.75
      vertex 2.75 52.75 97.75
    endloop
  endfacet
  facet normal 0 -1 0
    outer loop
      vertex 2.75 52.75 4.5
      vertex 52.75 52.75 4.5
      vertex 2.75 52.75 97.75
    endloop
  endfacet
  facet normal 0 1 0
    outer loop
      vertex 52.75 2.75 97.75
      vertex 52.75 2.75 4.5
      vertex 2.75 2.75 97.75
    endloop
  endfacet
  facet normal 0 1 0
    outer loop
      vertex 2.75 2.75 97.75
      vertex 52.75 2.75 4.5
      vertex 2.75 2.75 4.5
    endloop
  endfacet
  facet normal -1 0 0
    outer loop
      vertex 52.75 52.75 97.75
      vertex 52.75 52.75 4.5
      vertex 52.75 2.75 97.75
    endloop
  endfacet
  facet normal -1 0 0
    outer loop
      vertex 52.75 2.75 97.75
      vertex 52.75 52.75 4.5
      vertex 52.75 2.75 4.5
    endloop
  endfacet
  facet normal 0 0 1
    outer loop
      vertex 7.25556 27.4411 12.75
      vertex 7 25.5 12.75
      vertex 7.25556 23.5589 12.75
    endloop
  endfacet
  facet normal 0 0 1
    outer loop
      vertex 9.1967 20.1967 12.75
      vertex 7.25556 27.4411 12.75
      vertex 8.00481 21.75 12.75
    endloop
  endfacet
  facet normal 0 0 1
    outer loop
      vertex 8.00481 21.75 12.75
      vertex 7.25556 27.4411 12.75
      vertex 7.25556 23.5589 12.75
    endloop
  endfacet
  facet normal 0 0 1
    outer loop
      vertex 10.75 19.0048 12.75
      vertex 7.25556 27.4411 12.75
      vertex 9.1967 20.1967 12.75
    endloop
  endfacet
  facet normal 0 0 1
    outer loop
      vertex 12.5589 18.2556 12.75
      vertex 7.25556 27.4411 12.75
      vertex 10.75 19.0048 12.75
    endloop
  endfacet
  facet normal 0 0 1
    outer loop
      vertex 10.6572 22.708 12.75
      vertex 7.25556 27.4411 12.75
      vertex 12.5589 18.2556 12.75
    endloop
  endfacet
  facet normal 0 0 1
    outer loop
      vertex 9.8538 26.4876 12.75
      vertex 10.6572 28.292 12.75
      vertex 7.25556 27.4411 12.75
    endloop
  endfacet
  facet normal 0 0 1
    outer loop
      vertex 18.8393 27.432 12.75
      vertex 19.25 25.5 12.75
      vertex 22 25.5 12.75
    endloop
  endfacet
  facet normal 0 0 1
    outer loop
      vertex 12.125 29.6136 12.75
      vertex 14.0035 30.224 12.75
      vertex 18.25 31.9952 12.75
    endloop
  endfacet
  facet normal 0 0 1
    outer loop
      vertex 14.5 33 12.75
      vertex 7.25556 27.4411 12.75
      vertex 16.4411 32.7444 12.75
    endloop
  endfacet
  facet normal 0 0 1
    outer loop
      vertex 12.5589 32.7444 12.75
      vertex 7.25556 27.4411 12.75
      vertex 14.5 33 12.75
    endloop
  endfacet
  facet normal 0 0 1
    outer loop
      vertex 10.75 31.9952 12.75
      vertex 7.25556 27.4411 12.75
      vertex 12.5589 32.7444 12.75
    endloop
  endfacet
  facet normal 0 0 1
    outer loop
      vertex 9.1967 30.8033 12.75
      vertex 7.25556 27.4411 12.75
      vertex 10.75 31.9952 12.75
    endloop
  endfacet
  facet normal 0 0 1
    outer loop
      vertex 8.00481 29.25 12.75
      vertex 7.25556 27.4411 12.75
      vertex 9.1967 30.8033 12.75
    endloop
  endfacet
  facet normal 0 0 1
    outer loop
      vertex 17.6784 21.9701 12.75
      vertex 15.9678 20.9825 12.75
      vertex 19.8033 20.1967 12.75
    endloop
  endfacet
  facet normal 0 0 1
    outer loop
      vertex 19.25 25.5 12.75
      vertex 18.8393 23.568 12.75
      vertex 21.7444 23.5589 12.75
    endloop
  endfacet
  facet normal 0 0 1
    outer loop
      vertex 16.4411 32.7444 12.75
      vertex 12.125 29.6136 12.75
      vertex 18.25 31.9952 12.75
    endloop
  endfacet
  facet normal 0 0 1
    outer loop
      vertex 16.4411 32.7444 12.75
      vertex 7.25556 27.4411 12.75
      vertex 12.125 29.6136 12.75
    endloop
  endfacet
  facet normal 0 0 1
    outer loop
      vertex 18.25 31.9952 12.75
      vertex 14.0035 30.224 12.75
      vertex 19.8033 30.8033 12.75
    endloop
  endfacet
  facet normal 0 0 1
    outer loop
      vertex 15.9678 30.0175 12.75
      vertex 17.6784 29.0299 12.75
      vertex 19.8033 30.8033 12.75
    endloop
  endfacet
  facet normal 0 0 1
    outer loop
      vertex 14.0035 30.224 12.75
      vertex 15.9678 30.0175 12.75
      vertex 19.8033 30.8033 12.75
    endloop
  endfacet
  facet normal 0 0 1
    outer loop
      vertex 17.6784 29.0299 12.75
      vertex 18.8393 27.432 12.75
      vertex 21.7444 27.4411 12.75
    endloop
  endfacet
  facet normal 0 0 1
    outer loop
      vertex 19.8033 30.8033 12.75
      vertex 17.6784 29.0299 12.75
      vertex 20.9952 29.25 12.75
    endloop
  endfacet
  facet normal 0 0 1
    outer loop
      vertex 21.7444 27.4411 12.75
      vertex 18.8393 27.432 12.75
      vertex 22 25.5 12.75
    endloop
  endfacet
  facet normal 0 0 1
    outer loop
      vertex 17.6784 29.0299 12.75
      vertex 21.7444 27.4411 12.75
      vertex 20.9952 29.25 12.75
    endloop
  endfacet
  facet normal 0 0 1
    outer loop
      vertex 22 25.5 12.75
      vertex 19.25 25.5 12.75
      vertex 21.7444 23.5589 12.75
    endloop
  endfacet
  facet normal 0 0 1
    outer loop
      vertex 10.6572 28.292 12.75
      vertex 12.125 29.6136 12.75
      vertex 7.25556 27.4411 12.75
    endloop
  endfacet
  facet normal 0 0 1
    outer loop
      vertex 21.7444 23.5589 12.75
      vertex 18.8393 23.568 12.75
      vertex 20.9952 21.75 12.75
    endloop
  endfacet
  facet normal 0 0 1
    outer loop
      vertex 20.9952 21.75 12.75
      vertex 17.6784 21.9701 12.75
      vertex 19.8033 20.1967 12.75
    endloop
  endfacet
  facet normal 0 0 1
    outer loop
      vertex 19.8033 20.1967 12.75
      vertex 15.9678 20.9825 12.75
      vertex 18.25 19.0048 12.75
    endloop
  endfacet
  facet normal 0 0 1
    outer loop
      vertex 18.25 19.0048 12.75
      vertex 14.0035 20.776 12.75
      vertex 16.4411 18.2556 12.75
    endloop
  endfacet
  facet normal 0 0 1
    outer loop
      vertex 18.8393 23.568 12.75
      vertex 17.6784 21.9701 12.75
      vertex 20.9952 21.75 12.75
    endloop
  endfacet
  facet normal 0 0 1
    outer loop
      vertex 16.4411 18.2556 12.75
      vertex 12.125 21.3864 12.75
      vertex 14.5 18 12.75
    endloop
  endfacet
  facet normal 0 0 1
    outer loop
      vertex 14.5 18 12.75
      vertex 10.6572 22.708 12.75
      vertex 12.5589 18.2556 12.75
    endloop
  endfacet
  facet normal 0 0 1
    outer loop
      vertex 14.0035 20.776 12.75
      vertex 12.125 21.3864 12.75
      vertex 16.4411 18.2556 12.75
    endloop
  endfacet
  facet normal 0 0 1
    outer loop
      vertex 10.6572 22.708 12.75
      vertex 9.8538 24.5124 12.75
      vertex 7.25556 27.4411 12.75
    endloop
  endfacet
  facet normal 0 0 1
    outer loop
      vertex 15.9678 20.9825 12.75
      vertex 14.0035 20.776 12.75
      vertex 18.25 19.0048 12.75
    endloop
  endfacet
  facet normal 0 0 1
    outer loop
      vertex 12.125 21.3864 12.75
      vertex 10.6572 22.708 12.75
      vertex 14.5 18 12.75
    endloop
  endfacet
  facet normal 0 0 1
    outer loop
      vertex 9.8538 24.5124 12.75
      vertex 9.8538 26.4876 12.75
      vertex 7.25556 27.4411 12.75
    endloop
  endfacet
  facet normal 0 0 1
    outer loop
      vertex 52.75 2.75 4.5
      vertex 52.75 52.75 4.5
      vertex 2.75 52.75 4.5
    endloop
  endfacet
  facet normal 0 0 1
    outer loop
      vertex 19.8033 30.8033 4.5
      vertex 52.75 2.75 4.5
      vertex 2.75 52.75 4.5
    endloop
  endfacet
  facet normal 0 0 1
    outer loop
      vertex 2.75 2.75 4.5
      vertex 7 25.5 4.5
      vertex 2.75 52.75 4.5
    endloop
  endfacet
  facet normal 0 0 1
    outer loop
      vertex 7 25.5 4.5
      vertex 7.25556 27.4411 4.5
      vertex 2.75 52.75 4.5
    endloop
  endfacet
  facet normal 0 0 1
    outer loop
      vertex 7.25556 27.4411 4.5
      vertex 8.00481 29.25 4.5
      vertex 2.75 52.75 4.5
    endloop
  endfacet
  facet normal 0 0 1
    outer loop
      vertex 19.8033 20.1967 4.5
      vertex 18.25 19.0048 4.5
      vertex 52.75 2.75 4.5
    endloop
  endfacet
  facet normal 0 0 1
    outer loop
      vertex 8.00481 29.25 4.5
      vertex 9.1967 30.8033 4.5
      vertex 2.75 52.75 4.5
    endloop
  endfacet
  facet normal 0 0 1
    outer loop
      vertex 9.1967 30.8033 4.5
      vertex 10.75 31.9952 4.5
      vertex 2.75 52.75 4.5
    endloop
  endfacet
  facet normal 0 0 1
    outer loop
      vertex 10.75 31.9952 4.5
      vertex 12.5589 32.7444 4.5
      vertex 2.75 52.75 4.5
    endloop
  endfacet
  facet normal 0 0 1
    outer loop
      vertex 12.5589 32.7444 4.5
      vertex 14.5 33 4.5
      vertex 2.75 52.75 4.5
    endloop
  endfacet
  facet normal 0 0 1
    outer loop
      vertex 22 25.5 4.5
      vertex 21.7444 23.5589 4.5
      vertex 52.75 2.75 4.5
    endloop
  endfacet
  facet normal 0 0 1
    outer loop
      vertex 14.5 33 4.5
      vertex 16.4411 32.7444 4.5
      vertex 2.75 52.75 4.5
    endloop
  endfacet
  facet normal 0 0 1
    outer loop
      vertex 16.4411 32.7444 4.5
      vertex 18.25 31.9952 4.5
      vertex 2.75 52.75 4.5
    endloop
  endfacet
  facet normal 0 0 1
    outer loop
      vertex 18.25 31.9952 4.5
      vertex 19.8033 30.8033 4.5
      vertex 2.75 52.75 4.5
    endloop
  endfacet
  facet normal 0 0 1
    outer loop
      vertex 20.9952 29.25 4.5
      vertex 21.7444 27.4411 4.5
      vertex 52.75 2.75 4.5
    endloop
  endfacet
  facet normal 0 0 1
    outer loop
      vertex 20.9952 21.75 4.5
      vertex 19.8033 20.1967 4.5
      vertex 52.75 2.75 4.5
    endloop
  endfacet
  facet normal 0 0 1
    outer loop
      vertex 21.7444 23.5589 4.5
      vertex 20.9952 21.75 4.5
      vertex 52.75 2.75 4.5
    endloop
  endfacet
  facet normal 0 0 1
    outer loop
      vertex 2.75 2.75 4.5
      vertex 52.75 2.75 4.5
      vertex 18.25 19.0048 4.5
    endloop
  endfacet
  facet normal 0 0 1
    outer loop
      vertex 2.75 2.75 4.5
      vertex 18.25 19.0048 4.5
      vertex 16.4411 18.2556 4.5
    endloop
  endfacet
  facet normal 0 0 1
    outer loop
      vertex 2.75 2.75 4.5
      vertex 16.4411 18.2556 4.5
      vertex 14.5 18 4.5
    endloop
  endfacet
  facet normal 0 0 1
    outer loop
      vertex 2.75 2.75 4.5
      vertex 14.5 18 4.5
      vertex 12.5589 18.2556 4.5
    endloop
  endfacet
  facet normal 0 0 1
    outer loop
      vertex 2.75 2.75 4.5
      vertex 12.5589 18.2556 4.5
      vertex 10.75 19.0048 4.5
    endloop
  endfacet
  facet normal 0 0 1
    outer loop
      vertex 2.75 2.75 4.5
      vertex 10.75 19.0048 4.5
      vertex 9.1967 20.1967 4.5
    endloop
  endfacet
  facet normal 0 0 1
    outer loop
      vertex 2.75 2.75 4.5
      vertex 9.1967 20.1967 4.5
      vertex 8.00481 21.75 4.5
    endloop
  endfacet
  facet normal 0 0 1
    outer loop
      vertex 2.75 2.75 4.5
      vertex 7.25556 23.5589 4.5
      vertex 7 25.5 4.5
    endloop
  endfacet
  facet normal 0 0 1
    outer loop
      vertex 2.75 2.75 4.5
      vertex 8.00481 21.75 4.5
      vertex 7.25556 23.5589 4.5
    endloop
  endfacet
  facet normal 0 0 1
    outer loop
      vertex 19.8033 30.8033 4.5
      vertex 20.9952 29.25 4.5
      vertex 52.75 2.75 4.5
    endloop
  endfacet
  facet normal 0 0 1
    outer loop
      vertex 21.7444 27.4411 4.5
      vertex 22 25.5 4.5
      vertex 52.75 2.75 4.5
    endloop
  endfacet
  facet normal -0.991445 0.130526 0
    outer loop
      vertex 7 25.5 4.5
      vertex 7 25.5 12.75
      vertex 7.25556 27.4411 4.5
    endloop
  endfacet
  facet normal -0.991445 0.130526 0
    outer loop
      vertex 7.25556 27.4411 4.5
      vertex 7 25.5 12.75
      vertex 7.25556 27.4411 12.75
    endloop
  endfacet
  facet normal -0.92388 0.382683 0
    outer loop
      vertex 7.25556 27.4411 4.5
      vertex 7.25556 27.4411 12.75
      vertex 8.00481 29.25 4.5
    endloop
  endfacet
  facet normal -0.92388 0.382683 0
    outer loop
      vertex 8.00481 29.25 4.5
      vertex 7.25556 27.4411 12.75
      vertex 8.00481 29.25 12.75
    endloop
  endfacet
  facet normal -0.793353 0.608762 0
    outer loop
      vertex 8.00481 29.25 4.5
      vertex 8.00481 29.25 12.75
      vertex 9.1967 30.8033 4.5
    endloop
  endfacet
  facet normal -0.793353 0.608762 0
    outer loop
      vertex 9.1967 30.8033 4.5
      vertex 8.00481 29.25 12.75
      vertex 9.1967 30.8033 12.75
    endloop
  endfacet
  facet normal -0.608762 0.793353 0
    outer loop
      vertex 9.1967 30.8033 4.5
      vertex 9.1967 30.8033 12.75
      vertex 10.75 31.9952 4.5
    endloop
  endfacet
  facet normal -0.608762 0.793353 0
    outer loop
      vertex 10.75 31.9952 4.5
      vertex 9.1967 30.8033 12.75
      vertex 10.75 31.9952 12.75
    endloop
  endfacet
  facet normal -0.382683 0.92388 0
    outer loop
      vertex 10.75 31.9952 4.5
      vertex 10.75 31.9952 12.75
      vertex 12.5589 32.7444 4.5
    endloop
  endfacet
  facet normal -0.382683 0.92388 0
    outer loop
      vertex 12.5589 32.7444 4.5
      vertex 10.75 31.9952 12.75
      vertex 12.5589 32.7444 12.75
    endloop
  endfacet
  facet normal -0.130526 0.991445 0
    outer loop
      vertex 12.5589 32.7444 4.5
      vertex 12.5589 32.7444 12.75
      vertex 14.5 33 4.5
    endloop
  endfacet
  facet normal -0.130526 0.991445 0
    outer loop
      vertex 14.5 33 4.5
      vertex 12.5589 32.7444 12.75
      vertex 14.5 33 12.75
    endloop
  endfacet
  facet normal 0.130526 0.991445 0
    outer loop
      vertex 14.5 33 4.5
      vertex 14.5 33 12.75
      vertex 16.4411 32.7444 4.5
    endloop
  endfacet
  facet normal 0.130526 0.991445 0
    outer loop
      vertex 16.4411 32.7444 4.5
      vertex 14.5 33 12.75
      vertex 16.4411 32.7444 12.75
    endloop
  endfacet
  facet normal 0.382683 0.92388 0
    outer loop
      vertex 16.4411 32.7444 4.5
      vertex 16.4411 32.7444 12.75
      vertex 18.25 31.9952 4.5
    endloop
  endfacet
  facet normal 0.382683 0.92388 0
    outer loop
      vertex 18.25 31.9952 4.5
      vertex 16.4411 32.7444 12.75
      vertex 18.25 31.9952 12.75
    endloop
  endfacet
  facet normal 0.608762 0.793353 0
    outer loop
      vertex 18.25 31.9952 4.5
      vertex 18.25 31.9952 12.75
      vertex 19.8033 30.8033 4.5
    endloop
  endfacet
  facet normal 0.608762 0.793353 0
    outer loop
      vertex 19.8033 30.8033 4.5
      vertex 18.25 31.9952 12.75
      vertex 19.8033 30.8033 12.75
    endloop
  endfacet
  facet normal 0.793353 0.608762 0
    outer loop
      vertex 20.9952 29.25 4.5
      vertex 19.8033 30.8033 4.5
      vertex 19.8033 30.8033 12.75
    endloop
  endfacet
  facet normal 0.793353 0.608762 0
    outer loop
      vertex 20.9952 29.25 12.75
      vertex 20.9952 29.25 4.5
      vertex 19.8033 30.8033 12.75
    endloop
  endfacet
  facet normal 0.92388 0.382683 0
    outer loop
      vertex 21.7444 27.4411 4.5
      vertex 20.9952 29.25 4.5
      vertex 20.9952 29.25 12.75
    endloop
  endfacet
  facet normal 0.92388 0.382683 0
    outer loop
      vertex 21.7444 27.4411 12.75
      vertex 21.7444 27.4411 4.5
      vertex 20.9952 29.25 12.75
    endloop
  endfacet
  facet normal 0.991445 0.130526 0
    outer loop
      vertex 22 25.5 4.5
      vertex 21.7444 27.4411 4.5
      vertex 21.7444 27.4411 12.75
    endloop
  endfacet
  facet normal 0.991445 0.130526 0
    outer loop
      vertex 22 25.5 12.75
      vertex 22 25.5 4.5
      vertex 21.7444 27.4411 12.75
    endloop
  endfacet
  facet normal 0.991445 -0.130526 0
    outer loop
      vertex 21.7444 23.5589 12.75
      vertex 21.7444 23.5589 4.5
      vertex 22 25.5 4.5
    endloop
  endfacet
  facet normal 0.991445 -0.130526 0
    outer loop
      vertex 22 25.5 12.75
      vertex 21.7444 23.5589 12.75
      vertex 22 25.5 4.5
    endloop
  endfacet
  facet normal 0.92388 -0.382683 0
    outer loop
      vertex 20.9952 21.75 12.75
      vertex 20.9952 21.75 4.5
      vertex 21.7444 23.5589 4.5
    endloop
  endfacet
  facet normal 0.92388 -0.382683 0
    outer loop
      vertex 21.7444 23.5589 12.75
      vertex 20.9952 21.75 12.75
      vertex 21.7444 23.5589 4.5
    endloop
  endfacet
  facet normal 0.793353 -0.608762 0
    outer loop
      vertex 19.8033 20.1967 12.75
      vertex 19.8033 20.1967 4.5
      vertex 20.9952 21.75 4.5
    endloop
  endfacet
  facet normal 0.793353 -0.608762 0
    outer loop
      vertex 20.9952 21.75 12.75
      vertex 19.8033 20.1967 12.75
      vertex 20.9952 21.75 4.5
    endloop
  endfacet
  facet normal 0.608762 -0.793353 0
    outer loop
      vertex 18.25 19.0048 12.75
      vertex 18.25 19.0048 4.5
      vertex 19.8033 20.1967 4.5
    endloop
  endfacet
  facet normal 0.608762 -0.793353 0
    outer loop
      vertex 19.8033 20.1967 12.75
      vertex 18.25 19.0048 12.75
      vertex 19.8033 20.1967 4.5
    endloop
  endfacet
  facet normal 0.382683 -0.92388 0
    outer loop
      vertex 16.4411 18.2556 12.75
      vertex 16.4411 18.2556 4.5
      vertex 18.25 19.0048 4.5
    endloop
  endfacet
  facet normal 0.382683 -0.92388 0
    outer loop
      vertex 18.25 19.0048 12.75
      vertex 16.4411 18.2556 12.75
      vertex 18.25 19.0048 4.5
    endloop
  endfacet
  facet normal 0.130526 -0.991445 0
    outer loop
      vertex 14.5 18 12.75
      vertex 14.5 18 4.5
      vertex 16.4411 18.2556 4.5
    endloop
  endfacet
  facet normal 0.130526 -0.991445 0
    outer loop
      vertex 16.4411 18.2556 12.75
      vertex 14.5 18 12.75
      vertex 16.4411 18.2556 4.5
    endloop
  endfacet
  facet normal -0.130526 -0.991445 0
    outer loop
      vertex 12.5589 18.2556 12.75
      vertex 12.5589 18.2556 4.5
      vertex 14.5 18 4.5
    endloop
  endfacet
  facet normal -0.130526 -0.991445 0
    outer loop
      vertex 14.5 18 12.75
      vertex 12.5589 18.2556 12.75
      vertex 14.5 18 4.5
    endloop
  endfacet
  facet normal -0.382683 -0.92388 0
    outer loop
      vertex 10.75 19.0048 12.75
      vertex 10.75 19.0048 4.5
      vertex 12.5589 18.2556 4.5
    endloop
  endfacet
  facet normal -0.382683 -0.92388 0
    outer loop
      vertex 12.5589 18.2556 12.75
      vertex 10.75 19.0048 12.75
      vertex 12.5589 18.2556 4.5
    endloop
  endfacet
  facet normal -0.608762 -0.793353 0
    outer loop
      vertex 9.1967 20.1967 12.75
      vertex 9.1967 20.1967 4.5
      vertex 10.75 19.0048 4.5
    endloop
  endfacet
  facet normal -0.608762 -0.793353 0
    outer loop
      vertex 10.75 19.0048 12.75
      vertex 9.1967 20.1967 12.75
      vertex 10.75 19.0048 4.5
    endloop
  endfacet
  facet normal -0.793353 -0.608762 0
    outer loop
      vertex 8.00481 21.75 4.5
      vertex 9.1967 20.1967 4.5
      vertex 8.00481 21.75 12.75
    endloop
  endfacet
  facet normal -0.793353 -0.608762 0
    outer loop
      vertex 8.00481 21.75 12.75
      vertex 9.1967 20.1967 4.5
      vertex 9.1967 20.1967 12.75
    endloop
  endfacet
  facet normal -0.92388 -0.382683 0
    outer loop
      vertex 7.25556 23.5589 4.5
      vertex 8.00481 21.75 4.5
      vertex 7.25556 23.5589 12.75
    endloop
  endfacet
  facet normal -0.92388 -0.382683 0
    outer loop
      vertex 7.25556 23.5589 12.75
      vertex 8.00481 21.75 4.5
      vertex 8.00481 21.75 12.75
    endloop
  endfacet
  facet normal -0.991445 -0.130526 0
    outer loop
      vertex 7 25.5 4.5
      vertex 7.25556 23.5589 4.5
      vertex 7 25.5 12.75
    endloop
  endfacet
  facet normal -0.991445 -0.130526 0
    outer loop
      vertex 7 25.5 12.75
      vertex 7.25556 23.5589 4.5
      vertex 7.25556 23.5589 12.75
    endloop
  endfacet
endsolid OpenSCAD_Model
