solid OpenSCAD_Model
  facet normal 0 0 -1
    outer loop
      vertex -5.5 -3 0
      vertex -4.76777 -1.23223 0
      vertex -4.76777 -4.76777 0
    endloop
  endfacet
  facet normal 0 0 -1
    outer loop
      vertex -4.21352 -2.11832 0
      vertex -4.76777 -1.23223 0
      vertex -3 -0.5 0
    endloop
  endfacet
  facet normal 0 0 -1
    outer loop
      vertex -2.53647 -1.57342 0
      vertex -3 -0.5 0
      vertex -1.23223 -1.23223 0
    endloop
  endfacet
  facet normal 0 0 -1
    outer loop
      vertex -1.5 -3 0
      vertex -1.23223 -1.23223 0
      vertex -0.5 -3 0
    endloop
  endfacet
  facet normal 0 0 -1
    outer loop
      vertex -2.53647 -4.42658 0
      vertex -0.5 -3 0
      vertex -1.23223 -4.76777 0
    endloop
  endfacet
  facet normal 0 0 -1
    outer loop
      vertex -4.76777 -4.76777 0
      vertex -1.23223 -4.76777 0
      vertex -3 -5.5 0
    endloop
  endfacet
  facet normal 0 0 -1
    outer loop
      vertex -4.76777 -4.76777 0
      vertex -4.76777 -1.23223 0
      vertex -4.21352 -2.11832 0
    endloop
  endfacet
  facet normal 0 0 -1
    outer loop
      vertex -2.53647 -4.42658 0
      vertex -4.76777 -4.76777 0
      vertex -4.21352 -3.88168 0
    endloop
  endfacet
  facet normal 0 0 -1
    outer loop
      vertex -1.5 -3 0
      vertex -0.5 -3 0
      vertex -2.53647 -4.42658 0
    endloop
  endfacet
  facet normal 0 0 -1
    outer loop
      vertex -4.76777 -4.76777 0
      vertex -2.53647 -4.42658 0
      vertex -1.23223 -4.76777 0
    endloop
  endfacet
  facet normal 0 0 -1
    outer loop
      vertex -2.53647 -1.57342 0
      vertex -1.23223 -1.23223 0
      vertex -1.5 -3 0
    endloop
  endfacet
  facet normal 0 0 -1
    outer loop
      vertex -4.21352 -2.11832 0
      vertex -3 -0.5 0
      vertex -2.53647 -1.57342 0
    endloop
  endfacet
  facet normal 0 0 -1
    outer loop
      vertex -4.21352 -3.88168 0
      vertex -4.76777 -4.76777 0
      vertex -4.21352 -2.11832 0
    endloop
  endfacet
  facet normal -0.92388 0.382683 0
    outer loop
      vertex -5.5 -3 0
      vertex -5.5 -3 6
      vertex -4.76777 -1.23223 0
    endloop
  endfacet
  facet normal -0.92388 0.382683 0
    outer loop
      vertex -4.76777 -1.23223 0
      vertex -5.5 -3 6
      vertex -4.76777 -1.23223 6
    endloop
  endfacet
  facet normal -0.92388 -0.382683 0
    outer loop
      vertex -5.5 -3 0
      vertex -4.76777 -4.76777 0
      vertex -5.5 -3 6
    endloop
  endfacet
  facet normal -0.92388 -0.382683 0
    outer loop
      vertex -5.5 -3 6
      vertex -4.76777 -4.76777 0
      vertex -4.76777 -4.76777 6
    endloop
  endfacet
  facet normal -0.382683 -0.92388 0
    outer loop
      vertex -4.76777 -4.76777 6
      vertex -4.76777 -4.76777 0
      vertex -3 -5.5 0
    endloop
  endfacet
  facet normal -0.382683 -0.92388 0
    outer loop
      vertex -3 -5.5 6
      vertex -4.76777 -4.76777 6
      vertex -3 -5.5 0
    endloop
  endfacet
  facet normal 0.382683 -0.92388 0
    outer loop
      vertex -3 -5.5 6
      vertex -3 -5.5 0
      vertex -1.23223 -4.76777 0
    endloop
  endfacet
  facet normal 0.382683 -0.92388 0
    outer loop
      vertex -1.23223 -4.76777 6
      vertex -3 -5.5 6
      vertex -1.23223 -4.76777 0
    endloop
  endfacet
  facet normal 0.92388 -0.382683 0
    outer loop
      vertex -1.23223 -4.76777 6
      vertex -1.23223 -4.76777 0
      vertex -0.5 -3 0
    endloop
  endfacet
  facet normal 0.92388 -0.382683 0
    outer loop
      vertex -0.5 -3 6
      vertex -1.23223 -4.76777 6
      vertex -0.5 -3 0
    endloop
  endfacet
  facet normal 0.92388 0.382683 0
    outer loop
      vertex -0.5 -3 0
      vertex -1.23223 -1.23223 0
      vertex -1.23223 -1.23223 6
    endloop
  endfacet
  facet normal 0.92388 0.382683 0
    outer loop
      vertex -0.5 -3 6
      vertex -0.5 -3 0
      vertex -1.23223 -1.23223 6
    endloop
  endfacet
  facet normal 0.382683 0.92388 0
    outer loop
      vertex -3 -0.5 0
      vertex -3 -0.5 6
      vertex -1.23223 -1.23223 0
    endloop
  endfacet
  facet normal 0.382683 0.92388 0
    outer loop
      vertex -1.23223 -1.23223 0
      vertex -3 -0.5 6
      vertex -1.23223 -1.23223 6
    endloop
  endfacet
  facet normal -0.382683 0.92388 0
    outer loop
      vertex -4.76777 -1.23223 0
      vertex -4.76777 -1.23223 6
      vertex -3 -0.5 0
    endloop
  endfacet
  facet normal -0.382683 0.92388 0
    outer loop
      vertex -3 -0.5 0
      vertex -4.76777 -1.23223 6
      vertex -3 -0.5 6
    endloop
  endfacet
  facet normal 0.309017 -0.951056 0
    outer loop
      vertex -2.53647 -1.57342 0
      vertex -2.53647 -1.57342 6
      vertex -4.21352 -2.11832 6
    endloop
  endfacet
  facet normal 0.309017 -0.951056 0
    outer loop
      vertex -4.21352 -2.11832 0
      vertex -2.53647 -1.57342 0
      vertex -4.21352 -2.11832 6
    endloop
  endfacet
  facet normal 1 0 0
    outer loop
      vertex -4.21352 -2.11832 0
      vertex -4.21352 -2.11832 6
      vertex -4.21352 -3.88168 6
    endloop
  endfacet
  facet normal 1 0 0
    outer loop
      vertex -4.21352 -3.88168 0
      vertex -4.21352 -2.11832 0
      vertex -4.21352 -3.88168 6
    endloop
  endfacet
  facet normal -0.809017 -0.587785 0
    outer loop
      vertex -1.5 -3 6
      vertex -2.53647 -1.57342 6
      vertex -1.5 -3 0
    endloop
  endfacet
  facet normal -0.809017 -0.587785 0
    outer loop
      vertex -1.5 -3 0
      vertex -2.53647 -1.57342 6
      vertex -2.53647 -1.57342 0
    endloop
  endfacet
  facet normal -0.809017 0.587785 0
    outer loop
      vertex -1.5 -3 6
      vertex -1.5 -3 0
      vertex -2.53647 -4.42658 6
    endloop
  endfacet
  facet normal -0.809017 0.587785 0
    outer loop
      vertex -2.53647 -4.42658 6
      vertex -1.5 -3 0
      vertex -2.53647 -4.42658 0
    endloop
  endfacet
  facet normal 0.309017 0.951056 0
    outer loop
      vertex -2.53647 -4.42658 6
      vertex -2.53647 -4.42658 0
      vertex -4.21352 -3.88168 6
    endloop
  endfacet
  facet normal 0.309017 0.951056 0
    outer loop
      vertex -4.21352 -3.88168 6
      vertex -2.53647 -4.42658 0
      vertex -4.21352 -3.88168 0
    endloop
  endfacet
  facet normal 0 0 1
    outer loop
      vertex -4.76777 -1.23223 6
      vertex -5.5 -3 6
      vertex -4.76777 -4.76777 6
    endloop
  endfacet
  facet normal 0 0 1
    outer loop
      vertex -4.21352 -3.88168 6
      vertex -4.76777 -1.23223 6
      vertex -4.76777 -4.76777 6
    endloop
  endfacet
  facet normal 0 0 1
    outer loop
      vertex -1.5 -3 6
      vertex -2.53647 -4.42658 6
      vertex -1.23223 -4.76777 6
    endloop
  endfacet
  facet normal 0 0 1
    outer loop
      vertex -3 -0.5 6
      vertex -4.76777 -1.23223 6
      vertex -1.23223 -1.23223 6
    endloop
  endfacet
  facet normal 0 0 1
    outer loop
      vertex -3 -5.5 6
      vertex -4.21352 -3.88168 6
      vertex -4.76777 -4.76777 6
    endloop
  endfacet
  facet normal 0 0 1
    outer loop
      vertex -2.53647 -1.57342 6
      vertex -1.5 -3 6
      vertex -0.5 -3 6
    endloop
  endfacet
  facet normal 0 0 1
    outer loop
      vertex -1.23223 -1.23223 6
      vertex -2.53647 -1.57342 6
      vertex -0.5 -3 6
    endloop
  endfacet
  facet normal 0 0 1
    outer loop
      vertex -1.23223 -1.23223 6
      vertex -4.76777 -1.23223 6
      vertex -2.53647 -1.57342 6
    endloop
  endfacet
  facet normal 0 0 1
    outer loop
      vertex -0.5 -3 6
      vertex -1.5 -3 6
      vertex -1.23223 -4.76777 6
    endloop
  endfacet
  facet normal 0 0 1
    outer loop
      vertex -1.23223 -4.76777 6
      vertex -2.53647 -4.42658 6
      vertex -3 -5.5 6
    endloop
  endfacet
  facet normal 0 0 1
    outer loop
      vertex -4.21352 -3.88168 6
      vertex -4.21352 -2.11832 6
      vertex -4.76777 -1.23223 6
    endloop
  endfacet
  facet normal 0 0 1
    outer loop
      vertex -2.53647 -4.42658 6
      vertex -4.21352 -3.88168 6
      vertex -3 -5.5 6
    endloop
  endfacet
  facet normal 0 0 1
    outer loop
      vertex -4.21352 -2.11832 6
      vertex -2.53647 -1.57342 6
      vertex -4.76777 -1.23223 6
    endloop
  endfacet
  facet normal 0 0 -1
    outer loop
      vertex -5.5 3 0
      vertex -4.76777 4.76777 0
      vertex -4.76777 1.23223 0
    endloop
  endfacet
  facet normal 0 0 -1
    outer loop
      vertex -4.21352 3.88168 0
      vertex -4.76777 4.76777 0
      vertex -3 5.5 0
    endloop
  endfacet
  facet normal 0 0 -1
    outer loop
      vertex -2.53647 4.42658 0
      vertex -3 5.5 0
      vertex -1.23223 4.76777 0
    endloop
  endfacet
  facet normal 0 0 -1
    outer loop
      vertex -1.5 3 0
      vertex -1.23223 4.76777 0
      vertex -0.5 3 0
    endloop
  endfacet
  facet normal 0 0 -1
    outer loop
      vertex -2.53647 1.57342 0
      vertex -0.5 3 0
      vertex -1.23223 1.23223 0
    endloop
  endfacet
  facet normal 0 0 -1
    outer loop
      vertex -4.76777 1.23223 0
      vertex -1.23223 1.23223 0
      vertex -3 0.5 0
    endloop
  endfacet
  facet normal 0 0 -1
    outer loop
      vertex -4.76777 1.23223 0
      vertex -4.76777 4.76777 0
      vertex -4.21352 3.88168 0
    endloop
  endfacet
  facet normal 0 0 -1
    outer loop
      vertex -2.53647 1.57342 0
      vertex -4.76777 1.23223 0
      vertex -4.21352 2.11832 0
    endloop
  endfacet
  facet normal 0 0 -1
    outer loop
      vertex -1.5 3 0
      vertex -0.5 3 0
      vertex -2.53647 1.57342 0
    endloop
  endfacet
  facet normal 0 0 -1
    outer loop
      vertex -4.76777 1.23223 0
      vertex -2.53647 1.57342 0
      vertex -1.23223 1.23223 0
    endloop
  endfacet
  facet normal 0 0 -1
    outer loop
      vertex -2.53647 4.42658 0
      vertex -1.23223 4.76777 0
      vertex -1.5 3 0
    endloop
  endfacet
  facet normal 0 0 -1
    outer loop
      vertex -4.21352 3.88168 0
      vertex -3 5.5 0
      vertex -2.53647 4.42658 0
    endloop
  endfacet
  facet normal 0 0 -1
    outer loop
      vertex -4.21352 2.11832 0
      vertex -4.76777 1.23223 0
      vertex -4.21352 3.88168 0
    endloop
  endfacet
  facet normal -0.92388 0.382683 0
    outer loop
      vertex -5.5 3 0
      vertex -5.5 3 6
      vertex -4.76777 4.76777 0
    endloop
  endfacet
  facet normal -0.92388 0.382683 0
    outer loop
      vertex -4.76777 4.76777 0
      vertex -5.5 3 6
      vertex -4.76777 4.76777 6
    endloop
  endfacet
  facet normal -0.92388 -0.382683 0
    outer loop
      vertex -5.5 3 0
      vertex -4.76777 1.23223 0
      vertex -5.5 3 6
    endloop
  endfacet
  facet normal -0.92388 -0.382683 0
    outer loop
      vertex -5.5 3 6
      vertex -4.76777 1.23223 0
      vertex -4.76777 1.23223 6
    endloop
  endfacet
  facet normal -0.382683 -0.92388 0
    outer loop
      vertex -4.76777 1.23223 6
      vertex -4.76777 1.23223 0
      vertex -3 0.5 0
    endloop
  endfacet
  facet normal -0.382683 -0.92388 0
    outer loop
      vertex -3 0.5 6
      vertex -4.76777 1.23223 6
      vertex -3 0.5 0
    endloop
  endfacet
  facet normal 0.382683 -0.92388 0
    outer loop
      vertex -3 0.5 6
      vertex -3 0.5 0
      vertex -1.23223 1.23223 0
    endloop
  endfacet
  facet normal 0.382683 -0.92388 0
    outer loop
      vertex -1.23223 1.23223 6
      vertex -3 0.5 6
      vertex -1.23223 1.23223 0
    endloop
  endfacet
  facet normal 0.92388 -0.382683 0
    outer loop
      vertex -1.23223 1.23223 6
      vertex -1.23223 1.23223 0
      vertex -0.5 3 0
    endloop
  endfacet
  facet normal 0.92388 -0.382683 0
    outer loop
      vertex -0.5 3 6
      vertex -1.23223 1.23223 6
      vertex -0.5 3 0
    endloop
  endfacet
  facet normal 0.92388 0.382683 0
    outer loop
      vertex -0.5 3 0
      vertex -1.23223 4.76777 0
      vertex -1.23223 4.76777 6
    endloop
  endfacet
  facet normal 0.92388 0.382683 0
    outer loop
      vertex -0.5 3 6
      vertex -0.5 3 0
      vertex -1.23223 4.76777 6
    endloop
  endfacet
  facet normal 0.382683 0.92388 0
    outer loop
      vertex -3 5.5 0
      vertex -3 5.5 6
      vertex -1.23223 4.76777 0
    endloop
  endfacet
  facet normal 0.382683 0.92388 0
    outer loop
      vertex -1.23223 4.76777 0
      vertex -3 5.5 6
      vertex -1.23223 4.76777 6
    endloop
  endfacet
  facet normal -0.382683 0.92388 0
    outer loop
      vertex -4.76777 4.76777 0
      vertex -4.76777 4.76777 6
      vertex -3 5.5 0
    endloop
  endfacet
  facet normal -0.382683 0.92388 0
    outer loop
      vertex -3 5.5 0
      vertex -4.76777 4.76777 6
      vertex -3 5.5 6
    endloop
  endfacet
  facet normal 0.309017 -0.951056 0
    outer loop
      vertex -2.53647 4.42658 0
      vertex -2.53647 4.42658 6
      vertex -4.21352 3.88168 6
    endloop
  endfacet
  facet normal 0.309017 -0.951056 0
    outer loop
      vertex -4.21352 3.88168 0
      vertex -2.53647 4.42658 0
      vertex -4.21352 3.88168 6
    endloop
  endfacet
  facet normal 1 0 0
    outer loop
      vertex -4.21352 3.88168 0
      vertex -4.21352 3.88168 6
      vertex -4.21352 2.11832 6
    endloop
  endfacet
  facet normal 1 0 0
    outer loop
      vertex -4.21352 2.11832 0
      vertex -4.21352 3.88168 0
      vertex -4.21352 2.11832 6
    endloop
  endfacet
  facet normal -0.809017 -0.587785 0
    outer loop
      vertex -1.5 3 6
      vertex -2.53647 4.42658 6
      vertex -1.5 3 0
    endloop
  endfacet
  facet normal -0.809017 -0.587785 0
    outer loop
      vertex -1.5 3 0
      vertex -2.53647 4.42658 6
      vertex -2.53647 4.42658 0
    endloop
  endfacet
  facet normal -0.809017 0.587785 0
    outer loop
      vertex -1.5 3 6
      vertex -1.5 3 0
      vertex -2.53647 1.57342 6
    endloop
  endfacet
  facet normal -0.809017 0.587785 0
    outer loop
      vertex -2.53647 1.57342 6
      vertex -1.5 3 0
      vertex -2.53647 1.57342 0
    endloop
  endfacet
  facet normal 0.309017 0.951056 0
    outer loop
      vertex -2.53647 1.57342 6
      vertex -2.53647 1.57342 0
      vertex -4.21352 2.11832 6
    endloop
  endfacet
  facet normal 0.309017 0.951056 0
    outer loop
      vertex -4.21352 2.11832 6
      vertex -2.53647 1.57342 0
      vertex -4.21352 2.11832 0
    endloop
  endfacet
  facet normal 0 0 1
    outer loop
      vertex -4.76777 4.76777 6
      vertex -5.5 3 6
      vertex -4.76777 1.23223 6
    endloop
  endfacet
  facet normal 0 0 1
    outer loop
      vertex -4.21352 2.11832 6
      vertex -4.76777 4.76777 6
      vertex -4.76777 1.23223 6
    endloop
  endfacet
  facet normal 0 0 1
    outer loop
      vertex -1.5 3 6
      vertex -2.53647 1.57342 6
      vertex -1.23223 1.23223 6
    endloop
  endfacet
  facet normal 0 0 1
    outer loop
      vertex -3 5.5 6
      vertex -4.76777 4.76777 6
      vertex -1.23223 4.76777 6
    endloop
  endfacet
  facet normal 0 0 1
    outer loop
      vertex -3 0.5 6
      vertex -4.21352 2.11832 6
      vertex -4.76777 1.23223 6
    endloop
  endfacet
  facet normal 0 0 1
    outer loop
      vertex -2.53647 4.42658 6
      vertex -1.5 3 6
      vertex -0.5 3 6
    endloop
  endfacet
  facet normal 0 0 1
    outer loop
      vertex -1.23223 4.76777 6
      vertex -2.53647 4.42658 6
      vertex -0.5 3 6
    endloop
  endfacet
  facet normal 0 0 1
    outer loop
      vertex -1.23223 4.76777 6
      vertex -4.76777 4.76777 6
      vertex -2.53647 4.42658 6
    endloop
  endfacet
  facet normal 0 0 1
    outer loop
      vertex -0.5 3 6
      vertex -1.5 3 6
      vertex -1.23223 1.23223 6
    endloop
  endfacet
  facet normal 0 0 1
    outer loop
      vertex -1.23223 1.23223 6
      vertex -2.53647 1.57342 6
      vertex -3 0.5 6
    endloop
  endfacet
  facet normal 0 0 1
    outer loop
      vertex -4.21352 2.11832 6
      vertex -4.21352 3.88168 6
      vertex -4.76777 4.76777 6
    endloop
  endfacet
  facet normal 0 0 1
    outer loop
      vertex -2.53647 1.57342 6
      vertex -4.21352 2.11832 6
      vertex -3 0.5 6
    endloop
  endfacet
  facet normal 0 0 1
    outer loop
      vertex -4.21352 3.88168 6
      vertex -2.53647 4.42658 6
      vertex -4.76777 4.76777 6
    endloop
  endfacet
  facet normal 0 0 -1
    outer loop
      vertex 0.5 -3 0
      vertex 1.23223 -1.23223 0
      vertex 1.23223 -4.76777 0
    endloop
  endfacet
  facet normal 0 0 -1
    outer loop
      vertex 1.78648 -2.11832 0
      vertex 1.23223 -1.23223 0
      vertex 3 -0.5 0
    endloop
  endfacet
  facet normal 0 0 -1
    outer loop
      vertex 3.46352 -1.57342 0
      vertex 3 -0.5 0
      vertex 4.76777 -1.23223 0
    endloop
  endfacet
  facet normal 0 0 -1
    outer loop
      vertex 4.5 -3 0
      vertex 4.76777 -1.23223 0
      vertex 5.5 -3 0
    endloop
  endfacet
  facet normal 0 0 -1
    outer loop
      vertex 3.46352 -4.42658 0
      vertex 5.5 -3 0
      vertex 4.76777 -4.76777 0
    endloop
  endfacet
  facet normal 0 0 -1
    outer loop
      vertex 1.23223 -4.76777 0
      vertex 4.76777 -4.76777 0
      vertex 3 -5.5 0
    endloop
  endfacet
  facet normal 0 0 -1
    outer loop
      vertex 1.23223 -4.76777 0
      vertex 1.23223 -1.23223 0
      vertex 1.78648 -2.11832 0
    endloop
  endfacet
  facet normal 0 0 -1
    outer loop
      vertex 3.46352 -4.42658 0
      vertex 1.23223 -4.76777 0
      vertex 1.78648 -3.88168 0
    endloop
  endfacet
  facet normal 0 0 -1
    outer loop
      vertex 4.5 -3 0
      vertex 5.5 -3 0
      vertex 3.46352 -4.42658 0
    endloop
  endfacet
  facet normal 0 0 -1
    outer loop
      vertex 1.23223 -4.76777 0
      vertex 3.46352 -4.42658 0
      vertex 4.76777 -4.76777 0
    endloop
  endfacet
  facet normal 0 0 -1
    outer loop
      vertex 3.46352 -1.57342 0
      vertex 4.76777 -1.23223 0
      vertex 4.5 -3 0
    endloop
  endfacet
  facet normal 0 0 -1
    outer loop
      vertex 1.78648 -2.11832 0
      vertex 3 -0.5 0
      vertex 3.46352 -1.57342 0
    endloop
  endfacet
  facet normal 0 0 -1
    outer loop
      vertex 1.78648 -3.88168 0
      vertex 1.23223 -4.76777 0
      vertex 1.78648 -2.11832 0
    endloop
  endfacet
  facet normal -0.92388 0.382683 0
    outer loop
      vertex 0.5 -3 0
      vertex 0.5 -3 6
      vertex 1.23223 -1.23223 0
    endloop
  endfacet
  facet normal -0.92388 0.382683 0
    outer loop
      vertex 1.23223 -1.23223 0
      vertex 0.5 -3 6
      vertex 1.23223 -1.23223 6
    endloop
  endfacet
  facet normal -0.92388 -0.382683 0
    outer loop
      vertex 0.5 -3 0
      vertex 1.23223 -4.76777 0
      vertex 0.5 -3 6
    endloop
  endfacet
  facet normal -0.92388 -0.382683 0
    outer loop
      vertex 0.5 -3 6
      vertex 1.23223 -4.76777 0
      vertex 1.23223 -4.76777 6
    endloop
  endfacet
  facet normal -0.382683 -0.92388 0
    outer loop
      vertex 1.23223 -4.76777 6
      vertex 1.23223 -4.76777 0
      vertex 3 -5.5 0
    endloop
  endfacet
  facet normal -0.382683 -0.92388 0
    outer loop
      vertex 3 -5.5 6
      vertex 1.23223 -4.76777 6
      vertex 3 -5.5 0
    endloop
  endfacet
  facet normal 0.382683 -0.92388 0
    outer loop
      vertex 3 -5.5 6
      vertex 3 -5.5 0
      vertex 4.76777 -4.76777 0
    endloop
  endfacet
  facet normal 0.382683 -0.92388 0
    outer loop
      vertex 4.76777 -4.76777 6
      vertex 3 -5.5 6
      vertex 4.76777 -4.76777 0
    endloop
  endfacet
  facet normal 0.92388 -0.382683 0
    outer loop
      vertex 4.76777 -4.76777 6
      vertex 4.76777 -4.76777 0
      vertex 5.5 -3 0
    endloop
  endfacet
  facet normal 0.92388 -0.382683 0
    outer loop
      vertex 5.5 -3 6
      vertex 4.76777 -4.76777 6
      vertex 5.5 -3 0
    endloop
  endfacet
  facet normal 0.92388 0.382683 0
    outer loop
      vertex 5.5 -3 0
      vertex 4.76777 -1.23223 0
      vertex 4.76777 -1.23223 6
    endloop
  endfacet
  facet normal 0.92388 0.382683 0
    outer loop
      vertex 5.5 -3 6
      vertex 5.5 -3 0
      vertex 4.76777 -1.23223 6
    endloop
  endfacet
  facet normal 0.382683 0.92388 0
    outer loop
      vertex 3 -0.5 0
      vertex 3 -0.5 6
      vertex 4.76777 -1.23223 0
    endloop
  endfacet
  facet normal 0.382683 0.92388 0
    outer loop
      vertex 4.76777 -1.23223 0
      vertex 3 -0.5 6
      vertex 4.76777 -1.23223 6
    endloop
  endfacet
  facet normal -0.382683 0.92388 0
    outer loop
      vertex 1.23223 -1.23223 0
      vertex 1.23223 -1.23223 6
      vertex 3 -0.5 0
    endloop
  endfacet
  facet normal -0.382683 0.92388 0
    outer loop
      vertex 3 -0.5 0
      vertex 1.23223 -1.23223 6
      vertex 3 -0.5 6
    endloop
  endfacet
  facet normal 0.309017 -0.951056 0
    outer loop
      vertex 3.46352 -1.57342 0
      vertex 3.46352 -1.57342 6
      vertex 1.78648 -2.11832 6
    endloop
  endfacet
  facet normal 0.309017 -0.951056 0
    outer loop
      vertex 1.78648 -2.11832 0
      vertex 3.46352 -1.57342 0
      vertex 1.78648 -2.11832 6
    endloop
  endfacet
  facet normal 1 0 0
    outer loop
      vertex 1.78648 -2.11832 0
      vertex 1.78648 -2.11832 6
      vertex 1.78648 -3.88168 6
    endloop
  endfacet
  facet normal 1 0 0
    outer loop
      vertex 1.78648 -3.88168 0
      vertex 1.78648 -2.11832 0
      vertex 1.78648 -3.88168 6
    endloop
  endfacet
  facet normal -0.809017 -0.587785 0
    outer loop
      vertex 4.5 -3 6
      vertex 3.46352 -1.57342 6
      vertex 4.5 -3 0
    endloop
  endfacet
  facet normal -0.809017 -0.587785 0
    outer loop
      vertex 4.5 -3 0
      vertex 3.46352 -1.57342 6
      vertex 3.46352 -1.57342 0
    endloop
  endfacet
  facet normal -0.809017 0.587785 0
    outer loop
      vertex 4.5 -3 6
      vertex 4.5 -3 0
      vertex 3.46352 -4.42658 6
    endloop
  endfacet
  facet normal -0.809017 0.587785 0
    outer loop
      vertex 3.46352 -4.42658 6
      vertex 4.5 -3 0
      vertex 3.46352 -4.42658 0
    endloop
  endfacet
  facet normal 0.309017 0.951056 0
    outer loop
      vertex 3.46352 -4.42658 6
      vertex 3.46352 -4.42658 0
      vertex 1.78648 -3.88168 6
    endloop
  endfacet
  facet normal 0.309017 0.951056 0
    outer loop
      vertex 1.78648 -3.88168 6
      vertex 3.46352 -4.42658 0
      vertex 1.78648 -3.88168 0
    endloop
  endfacet
  facet normal 0 0 1
    outer loop
      vertex 1.23223 -1.23223 6
      vertex 0.5 -3 6
      vertex 1.23223 -4.76777 6
    endloop
  endfacet
  facet normal 0 0 1
    outer loop
      vertex 1.78648 -3.88168 6
      vertex 1.23223 -1.23223 6
      vertex 1.23223 -4.76777 6
    endloop
  endfacet
  facet normal 0 0 1
    outer loop
      vertex 4.5 -3 6
      vertex 3.46352 -4.42658 6
      vertex 4.76777 -4.76777 6
    endloop
  endfacet
  facet normal 0 0 1
    outer loop
      vertex 3 -0.5 6
      vertex 1.23223 -1.23223 6
      vertex 4.76777 -1.23223 6
    endloop
  endfacet
  facet normal 0 0 1
    outer loop
      vertex 3 -5.5 6
      vertex 1.78648 -3.88168 6
      vertex 1.23223 -4.76777 6
    endloop
  endfacet
  facet normal 0 0 1
    outer loop
      vertex 3.46352 -1.57342 6
      vertex 4.5 -3 6
      vertex 5.5 -3 6
    endloop
  endfacet
  facet normal 0 0 1
    outer loop
      vertex 4.76777 -1.23223 6
      vertex 3.46352 -1.57342 6
      vertex 5.5 -3 6
    endloop
  endfacet
  facet normal 0 0 1
    outer loop
      vertex 4.76777 -1.23223 6
      vertex 1.23223 -1.23223 6
      vertex 3.46352 -1.57342 6
    endloop
  endfacet
  facet normal 0 0 1
    outer loop
      vertex 5.5 -3 6
      vertex 4.5 -3 6
      vertex 4.76777 -4.76777 6
    endloop
  endfacet
  facet normal 0 0 1
    outer loop
      vertex 4.76777 -4.76777 6
      vertex 3.46352 -4.42658 6
      vertex 3 -5.5 6
    endloop
  endfacet
  facet normal 0 0 1
    outer loop
      vertex 1.78648 -3.88168 6
      vertex 1.78648 -2.11832 6
      vertex 1.23223 -1.23223 6
    endloop
  endfacet
  facet normal 0 0 1
    outer loop
      vertex 3.46352 -4.42658 6
      vertex 1.78648 -3.88168 6
      vertex 3 -5.5 6
    endloop
  endfacet
  facet normal 0 0 1
    outer loop
      vertex 1.78648 -2.11832 6
      vertex 3.46352 -1.57342 6
      vertex 1.23223 -1.23223 6
    endloop
  endfacet
  facet normal 0 0 -1
    outer loop
      vertex 0.5 3 0
      vertex 1.23223 4.76777 0
      vertex 1.23223 1.23223 0
    endloop
  endfacet
  facet normal 0 0 -1
    outer loop
      vertex 1.78648 3.88168 0
      vertex 1.23223 4.76777 0
      vertex 3 5.5 0
    endloop
  endfacet
  facet normal 0 0 -1
    outer loop
      vertex 3.46352 4.42658 0
      vertex 3 5.5 0
      vertex 4.76777 4.76777 0
    endloop
  endfacet
  facet normal 0 0 -1
    outer loop
      vertex 4.5 3 0
      vertex 4.76777 4.76777 0
      vertex 5.5 3 0
    endloop
  endfacet
  facet normal 0 0 -1
    outer loop
      vertex 3.46352 1.57342 0
      vertex 5.5 3 0
      vertex 4.76777 1.23223 0
    endloop
  endfacet
  facet normal 0 0 -1
    outer loop
      vertex 1.23223 1.23223 0
      vertex 4.76777 1.23223 0
      vertex 3 0.5 0
    endloop
  endfacet
  facet normal 0 0 -1
    outer loop
      vertex 1.23223 1.23223 0
      vertex 1.23223 4.76777 0
      vertex 1.78648 3.88168 0
    endloop
  endfacet
  facet normal 0 0 -1
    outer loop
      vertex 3.46352 1.57342 0
      vertex 1.23223 1.23223 0
      vertex 1.78648 2.11832 0
    endloop
  endfacet
  facet normal 0 0 -1
    outer loop
      vertex 4.5 3 0
      vertex 5.5 3 0
      vertex 3.46352 1.57342 0
    endloop
  endfacet
  facet normal 0 0 -1
    outer loop
      vertex 1.23223 1.23223 0
      vertex 3.46352 1.57342 0
      vertex 4.76777 1.23223 0
    endloop
  endfacet
  facet normal 0 0 -1
    outer loop
      vertex 3.46352 4.42658 0
      vertex 4.76777 4.76777 0
      vertex 4.5 3 0
    endloop
  endfacet
  facet normal 0 0 -1
    outer loop
      vertex 1.78648 3.88168 0
      vertex 3 5.5 0
      vertex 3.46352 4.42658 0
    endloop
  endfacet
  facet normal 0 0 -1
    outer loop
      vertex 1.78648 2.11832 0
      vertex 1.23223 1.23223 0
      vertex 1.78648 3.88168 0
    endloop
  endfacet
  facet normal -0.92388 0.382683 0
    outer loop
      vertex 0.5 3 0
      vertex 0.5 3 6
      vertex 1.23223 4.76777 0
    endloop
  endfacet
  facet normal -0.92388 0.382683 0
    outer loop
      vertex 1.23223 4.76777 0
      vertex 0.5 3 6
      vertex 1.23223 4.76777 6
    endloop
  endfacet
  facet normal -0.92388 -0.382683 0
    outer loop
      vertex 0.5 3 0
      vertex 1.23223 1.23223 0
      vertex 0.5 3 6
    endloop
  endfacet
  facet normal -0.92388 -0.382683 0
    outer loop
      vertex 0.5 3 6
      vertex 1.23223 1.23223 0
      vertex 1.23223 1.23223 6
    endloop
  endfacet
  facet normal -0.382683 -0.92388 0
    outer loop
      vertex 1.23223 1.23223 6
      vertex 1.23223 1.23223 0
      vertex 3 0.5 0
    endloop
  endfacet
  facet normal -0.382683 -0.92388 0
    outer loop
      vertex 3 0.5 6
      vertex 1.23223 1.23223 6
      vertex 3 0.5 0
    endloop
  endfacet
  facet normal 0.382683 -0.92388 0
    outer loop
      vertex 3 0.5 6
      vertex 3 0.5 0
      vertex 4.76777 1.23223 0
    endloop
  endfacet
  facet normal 0.382683 -0.92388 0
    outer loop
      vertex 4.76777 1.23223 6
      vertex 3 0.5 6
      vertex 4.76777 1.23223 0
    endloop
  endfacet
  facet normal 0.92388 -0.382683 0
    outer loop
      vertex 4.76777 1.23223 6
      vertex 4.76777 1.23223 0
      vertex 5.5 3 0
    endloop
  endfacet
  facet normal 0.92388 -0.382683 0
    outer loop
      vertex 5.5 3 6
      vertex 4.76777 1.23223 6
      vertex 5.5 3 0
    endloop
  endfacet
  facet normal 0.92388 0.382683 0
    outer loop
      vertex 5.5 3 0
      vertex 4.76777 4.76777 0
      vertex 4.76777 4.76777 6
    endloop
  endfacet
  facet normal 0.92388 0.382683 0
    outer loop
      vertex 5.5 3 6
      vertex 5.5 3 0
      vertex 4.76777 4.76777 6
    endloop
  endfacet
  facet normal 0.382683 0.92388 0
    outer loop
      vertex 3 5.5 0
      vertex 3 5.5 6
      vertex 4.76777 4.76777 0
    endloop
  endfacet
  facet normal 0.382683 0.92388 0
    outer loop
      vertex 4.76777 4.76777 0
      vertex 3 5.5 6
      vertex 4.76777 4.76777 6
    endloop
  endfacet
  facet normal -0.382683 0.92388 0
    outer loop
      vertex 1.23223 4.76777 0
      vertex 1.23223 4.76777 6
      vertex 3 5.5 0
    endloop
  endfacet
  facet normal -0.382683 0.92388 0
    outer loop
      vertex 3 5.5 0
      vertex 1.23223 4.76777 6
      vertex 3 5.5 6
    endloop
  endfacet
  facet normal 0.309017 -0.951056 0
    outer loop
      vertex 3.46352 4.42658 0
      vertex 3.46352 4.42658 6
      vertex 1.78648 3.88168 6
    endloop
  endfacet
  facet normal 0.309017 -0.951056 0
    outer loop
      vertex 1.78648 3.88168 0
      vertex 3.46352 4.42658 0
      vertex 1.78648 3.88168 6
    endloop
  endfacet
  facet normal 1 0 0
    outer loop
      vertex 1.78648 3.88168 0
      vertex 1.78648 3.88168 6
      vertex 1.78648 2.11832 6
    endloop
  endfacet
  facet normal 1 0 0
    outer loop
      vertex 1.78648 2.11832 0
      vertex 1.78648 3.88168 0
      vertex 1.78648 2.11832 6
    endloop
  endfacet
  facet normal -0.809017 -0.587785 0
    outer loop
      vertex 4.5 3 6
      vertex 3.46352 4.42658 6
      vertex 4.5 3 0
    endloop
  endfacet
  facet normal -0.809017 -0.587785 0
    outer loop
      vertex 4.5 3 0
      vertex 3.46352 4.42658 6
      vertex 3.46352 4.42658 0
    endloop
  endfacet
  facet normal -0.809017 0.587785 0
    outer loop
      vertex 4.5 3 6
      vertex 4.5 3 0
      vertex 3.46352 1.57342 6
    endloop
  endfacet
  facet normal -0.809017 0.587785 0
    outer loop
      vertex 3.46352 1.57342 6
      vertex 4.5 3 0
      vertex 3.46352 1.57342 0
    endloop
  endfacet
  facet normal 0.309017 0.951056 0
    outer loop
      vertex 3.46352 1.57342 6
      vertex 3.46352 1.57342 0
      vertex 1.78648 2.11832 6
    endloop
  endfacet
  facet normal 0.309017 0.951056 0
    outer loop
      vertex 1.78648 2.11832 6
      vertex 3.46352 1.57342 0
      vertex 1.78648 2.11832 0
    endloop
  endfacet
  facet normal 0 0 1
    outer loop
      vertex 1.23223 4.76777 6
      vertex 0.5 3 6
      vertex 1.23223 1.23223 6
    endloop
  endfacet
  facet normal 0 0 1
    outer loop
      vertex 1.78648 2.11832 6
      vertex 1.23223 4.76777 6
      vertex 1.23223 1.23223 6
    endloop
  endfacet
  facet normal 0 0 1
    outer loop
      vertex 4.5 3 6
      vertex 3.46352 1.57342 6
      vertex 4.76777 1.23223 6
    endloop
  endfacet
  facet normal 0 0 1
    outer loop
      vertex 3 5.5 6
      vertex 1.23223 4.76777 6
      vertex 4.76777 4.76777 6
    endloop
  endfacet
  facet normal 0 0 1
    outer loop
      vertex 3 0.5 6
      vertex 1.78648 2.11832 6
      vertex 1.23223 1.23223 6
    endloop
  endfacet
  facet normal 0 0 1
    outer loop
      vertex 3.46352 4.42658 6
      vertex 4.5 3 6
      vertex 5.5 3 6
    endloop
  endfacet
  facet normal 0 0 1
    outer loop
      vertex 4.76777 4.76777 6
      vertex 3.46352 4.42658 6
      vertex 5.5 3 6
    endloop
  endfacet
  facet normal 0 0 1
    outer loop
      vertex 4.76777 4.76777 6
      vertex 1.23223 4.76777 6
      vertex 3.46352 4.42658 6
    endloop
  endfacet
  facet normal 0 0 1
    outer loop
      vertex 5.5 3 6
      vertex 4.5 3 6
      vertex 4.76777 1.23223 6
    endloop
  endfacet
  facet normal 0 0 1
    outer loop
      vertex 4.76777 1.23223 6
      vertex 3.46352 1.57342 6
      vertex 3 0.5 6
    endloop
  endfacet
  facet normal 0 0 1
    outer loop
      vertex 1.78648 2.11832 6
      vertex 1.78648 3.88168 6
      vertex 1.23223 4.76777 6
    endloop
  endfacet
  facet normal 0 0 1
    outer loop
      vertex 3.46352 1.57342 6
      vertex 1.78648 2.11832 6
      vertex 3 0.5 6
    endloop
  endfacet
  facet normal 0 0 1
    outer loop
      vertex 1.78648 3.88168 6
      vertex 3.46352 4.42658 6
      vertex 1.23223 4.76777 6
    endloop
  endfacet
endsolid OpenSCAD_Model
