solid OpenSCAD_Model
  facet normal 0 0 1
    outer loop
      vertex -17.5 14.5 6
      vertex -20.191 12.4122 6
      vertex -17.5 -1.5 6
    endloop
  endfacet
  facet normal 0 0 1
    outer loop
      vertex -17.5 -1.5 6
      vertex -20.0489 0.309017 6
      vertex -20 0 6
    endloop
  endfacet
  facet normal -0 0 1
    outer loop
      vertex -20.191 0.587786 6
      vertex -17.5 -1.5 6
      vertex -20.191 12.4122 6
    endloop
  endfacet
  facet normal 0 0 1
    outer loop
      vertex -17.5 -1.5 6
      vertex -20.191 0.587786 6
      vertex -20.0489 0.309017 6
    endloop
  endfacet
  facet normal -0 0 1
    outer loop
      vertex -20.4122 12.191 6
      vertex -20.191 0.587786 6
      vertex -20.191 12.4122 6
    endloop
  endfacet
  facet normal 0 0 1
    outer loop
      vertex -20.4122 12.191 6
      vertex -20.4122 0.809017 6
      vertex -20.191 0.587786 6
    endloop
  endfacet
  facet normal -0 0 1
    outer loop
      vertex -20.691 12.0489 6
      vertex -20.4122 0.809017 6
      vertex -20.4122 12.191 6
    endloop
  endfacet
  facet normal 0 0 1
    outer loop
      vertex -20.691 12.0489 6
      vertex -20.691 0.951057 6
      vertex -20.4122 0.809017 6
    endloop
  endfacet
  facet normal -0 0 1
    outer loop
      vertex -21 12 6
      vertex -20.691 0.951057 6
      vertex -20.691 12.0489 6
    endloop
  endfacet
  facet normal 0 0 1
    outer loop
      vertex -21 12 6
      vertex -21 1 6
      vertex -20.691 0.951057 6
    endloop
  endfacet
  facet normal 0 0 1
    outer loop
      vertex -21.309 12.0489 6
      vertex -21 1 6
      vertex -21 12 6
    endloop
  endfacet
  facet normal 0 0 1
    outer loop
      vertex -21.309 12.0489 6
      vertex -21.309 0.951057 6
      vertex -21 1 6
    endloop
  endfacet
  facet normal 0 0 1
    outer loop
      vertex -21.5878 12.191 6
      vertex -21.309 0.951057 6
      vertex -21.309 12.0489 6
    endloop
  endfacet
  facet normal 0 0 1
    outer loop
      vertex -21.5878 12.191 6
      vertex -21.5878 0.809017 6
      vertex -21.309 0.951057 6
    endloop
  endfacet
  facet normal 0 0 1
    outer loop
      vertex -21.809 12.4122 6
      vertex -21.5878 0.809017 6
      vertex -21.5878 12.191 6
    endloop
  endfacet
  facet normal 0 0 1
    outer loop
      vertex -21.809 12.4122 6
      vertex -21.809 0.587786 6
      vertex -21.5878 0.809017 6
    endloop
  endfacet
  facet normal 0 0 1
    outer loop
      vertex -21.9511 12.691 6
      vertex -21.809 0.587786 6
      vertex -21.809 12.4122 6
    endloop
  endfacet
  facet normal 0 0 1
    outer loop
      vertex -21.9511 12.691 6
      vertex -21.9511 0.309017 6
      vertex -21.809 0.587786 6
    endloop
  endfacet
  facet normal 0 0 1
    outer loop
      vertex -29.5 29.5 6
      vertex -21.9511 12.691 6
      vertex -22 13 6
    endloop
  endfacet
  facet normal 0 0 1
    outer loop
      vertex -21.9511 12.691 6
      vertex -29.5 29.5 6
      vertex -21.9511 0.309017 6
    endloop
  endfacet
  facet normal 0 0 1
    outer loop
      vertex -15.5 -1.5 6
      vertex -17.5 -1.5 6
      vertex -15.5 -4.5 6
    endloop
  endfacet
  facet normal 0 0 1
    outer loop
      vertex -0.0489435 0.309017 6
      vertex 29.5 29.5 6
      vertex -0.0489435 12.691 6
    endloop
  endfacet
  facet normal 0 0 1
    outer loop
      vertex 29.5 29.5 6
      vertex -0.0489435 0.309017 6
      vertex 0 0 6
    endloop
  endfacet
  facet normal -0 0 1
    outer loop
      vertex -0.190984 12.4122 6
      vertex -0.0489435 0.309017 6
      vertex -0.0489435 12.691 6
    endloop
  endfacet
  facet normal 0 0 1
    outer loop
      vertex -0.190984 12.4122 6
      vertex -0.190984 0.587786 6
      vertex -0.0489435 0.309017 6
    endloop
  endfacet
  facet normal -0 0 1
    outer loop
      vertex -0.412215 12.191 6
      vertex -0.190984 0.587786 6
      vertex -0.190984 12.4122 6
    endloop
  endfacet
  facet normal 0 0 1
    outer loop
      vertex -0.412215 12.191 6
      vertex -0.412215 0.809017 6
      vertex -0.190984 0.587786 6
    endloop
  endfacet
  facet normal -0 0 1
    outer loop
      vertex -0.690984 12.0489 6
      vertex -0.412215 0.809017 6
      vertex -0.412215 12.191 6
    endloop
  endfacet
  facet normal 0 0 1
    outer loop
      vertex -0.690984 12.0489 6
      vertex -0.690984 0.951057 6
      vertex -0.412215 0.809017 6
    endloop
  endfacet
  facet normal -0 0 1
    outer loop
      vertex -1 12 6
      vertex -0.690984 0.951057 6
      vertex -0.690984 12.0489 6
    endloop
  endfacet
  facet normal 0 0 1
    outer loop
      vertex -1 12 6
      vertex -1 1 6
      vertex -0.690984 0.951057 6
    endloop
  endfacet
  facet normal 0 0 1
    outer loop
      vertex -1.30902 12.0489 6
      vertex -1 1 6
      vertex -1 12 6
    endloop
  endfacet
  facet normal 0 0 1
    outer loop
      vertex -1.30902 12.0489 6
      vertex -1.30902 0.951057 6
      vertex -1 1 6
    endloop
  endfacet
  facet normal 0 0 1
    outer loop
      vertex -1.58779 12.191 6
      vertex -1.30902 0.951057 6
      vertex -1.30902 12.0489 6
    endloop
  endfacet
  facet normal 0 0 1
    outer loop
      vertex -1.58779 12.191 6
      vertex -1.58779 0.809017 6
      vertex -1.30902 0.951057 6
    endloop
  endfacet
  facet normal 0 0 1
    outer loop
      vertex -1.80902 12.4122 6
      vertex -1.58779 0.809017 6
      vertex -1.58779 12.191 6
    endloop
  endfacet
  facet normal 0 0 1
    outer loop
      vertex -1.80902 12.4122 6
      vertex -1.80902 0.587786 6
      vertex -1.58779 0.809017 6
    endloop
  endfacet
  facet normal 0 0 1
    outer loop
      vertex -4.5 14.5 6
      vertex -1.80902 12.4122 6
      vertex -1.95106 12.691 6
    endloop
  endfacet
  facet normal 0 0 1
    outer loop
      vertex -1.80902 12.4122 6
      vertex -4.5 14.5 6
      vertex -1.80902 0.587786 6
    endloop
  endfacet
  facet normal 0 0 1
    outer loop
      vertex -4.5 14.5 6
      vertex -1.95106 12.691 6
      vertex -2 13 6
    endloop
  endfacet
  facet normal 0 0 1
    outer loop
      vertex -4.5 -1.5 6
      vertex -1.80902 0.587786 6
      vertex -4.5 14.5 6
    endloop
  endfacet
  facet normal 0 0 1
    outer loop
      vertex -0.0489435 12.691 6
      vertex 29.5 29.5 6
      vertex 0 13 6
    endloop
  endfacet
  facet normal 0 0 1
    outer loop
      vertex 29.5 29.5 6
      vertex -0.0489435 13.309 6
      vertex 0 13 6
    endloop
  endfacet
  facet normal 0 0 1
    outer loop
      vertex 29.5 29.5 6
      vertex -0.190984 13.5878 6
      vertex -0.0489435 13.309 6
    endloop
  endfacet
  facet normal 0 0 1
    outer loop
      vertex 29.5 29.5 6
      vertex -0.412215 13.809 6
      vertex -0.190984 13.5878 6
    endloop
  endfacet
  facet normal 0 0 1
    outer loop
      vertex 29.5 29.5 6
      vertex -0.690984 13.9511 6
      vertex -0.412215 13.809 6
    endloop
  endfacet
  facet normal 0 0 1
    outer loop
      vertex 29.5 29.5 6
      vertex -1 14 6
      vertex -0.690984 13.9511 6
    endloop
  endfacet
  facet normal -0 0 1
    outer loop
      vertex -4.5 14.5 6
      vertex -1 14 6
      vertex 29.5 29.5 6
    endloop
  endfacet
  facet normal 0 0 1
    outer loop
      vertex -1.80902 0.587786 6
      vertex -4.5 -1.5 6
      vertex -1.95106 0.309017 6
    endloop
  endfacet
  facet normal 0 0 1
    outer loop
      vertex -1.95106 13.309 6
      vertex -4.5 14.5 6
      vertex -2 13 6
    endloop
  endfacet
  facet normal 0 0 1
    outer loop
      vertex -1.80902 13.5878 6
      vertex -4.5 14.5 6
      vertex -1.95106 13.309 6
    endloop
  endfacet
  facet normal 0 0 1
    outer loop
      vertex -1.58779 13.809 6
      vertex -4.5 14.5 6
      vertex -1.80902 13.5878 6
    endloop
  endfacet
  facet normal 0 0 1
    outer loop
      vertex -1.30902 13.9511 6
      vertex -4.5 14.5 6
      vertex -1.58779 13.809 6
    endloop
  endfacet
  facet normal 0 0 1
    outer loop
      vertex -1 14 6
      vertex -4.5 14.5 6
      vertex -1.30902 13.9511 6
    endloop
  endfacet
  facet normal -0 0 1
    outer loop
      vertex -29.5 29.5 6
      vertex -4.5 14.5 6
      vertex 29.5 29.5 6
    endloop
  endfacet
  facet normal 0 0 1
    outer loop
      vertex -20.0489 12.691 6
      vertex -17.5 14.5 6
      vertex -20 13 6
    endloop
  endfacet
  facet normal 0 0 1
    outer loop
      vertex -17.5 14.5 6
      vertex -20.0489 13.309 6
      vertex -20 13 6
    endloop
  endfacet
  facet normal 0 0 1
    outer loop
      vertex -17.5 14.5 6
      vertex -20.191 13.5878 6
      vertex -20.0489 13.309 6
    endloop
  endfacet
  facet normal 0 0 1
    outer loop
      vertex -17.5 14.5 6
      vertex -20.4122 13.809 6
      vertex -20.191 13.5878 6
    endloop
  endfacet
  facet normal 0 0 1
    outer loop
      vertex -4.5 14.5 6
      vertex -29.5 29.5 6
      vertex -17.5 14.5 6
    endloop
  endfacet
  facet normal 0 -0 1
    outer loop
      vertex -21 14 6
      vertex -17.5 14.5 6
      vertex -29.5 29.5 6
    endloop
  endfacet
  facet normal 0 0 1
    outer loop
      vertex -17.5 14.5 6
      vertex -20.691 13.9511 6
      vertex -20.4122 13.809 6
    endloop
  endfacet
  facet normal 0 0 1
    outer loop
      vertex -17.5 14.5 6
      vertex -21 14 6
      vertex -20.691 13.9511 6
    endloop
  endfacet
  facet normal 0 0 1
    outer loop
      vertex -21.9511 0.309017 6
      vertex -29.5 29.5 6
      vertex -22 9.53674e-07 6
    endloop
  endfacet
  facet normal 0 0 1
    outer loop
      vertex -21.9511 13.309 6
      vertex -29.5 29.5 6
      vertex -22 13 6
    endloop
  endfacet
  facet normal 0 0 1
    outer loop
      vertex -21.809 13.5878 6
      vertex -29.5 29.5 6
      vertex -21.9511 13.309 6
    endloop
  endfacet
  facet normal 0 0 1
    outer loop
      vertex -21.5878 13.809 6
      vertex -29.5 29.5 6
      vertex -21.809 13.5878 6
    endloop
  endfacet
  facet normal 0 0 1
    outer loop
      vertex -21.309 13.9511 6
      vertex -29.5 29.5 6
      vertex -21.5878 13.809 6
    endloop
  endfacet
  facet normal 0 0 1
    outer loop
      vertex -21 14 6
      vertex -29.5 29.5 6
      vertex -21.309 13.9511 6
    endloop
  endfacet
  facet normal 0 0 1
    outer loop
      vertex 29.5 29.5 6
      vertex 0 0 6
      vertex 29.5 -29.5 6
    endloop
  endfacet
  facet normal -0 0 1
    outer loop
      vertex -0.0489435 -0.309016 6
      vertex 29.5 -29.5 6
      vertex 0 0 6
    endloop
  endfacet
  facet normal -0 0 1
    outer loop
      vertex -0.190984 -0.587785 6
      vertex 29.5 -29.5 6
      vertex -0.0489435 -0.309016 6
    endloop
  endfacet
  facet normal -0 0 1
    outer loop
      vertex -0.412215 -0.809016 6
      vertex 29.5 -29.5 6
      vertex -0.190984 -0.587785 6
    endloop
  endfacet
  facet normal -0 0 1
    outer loop
      vertex -0.690984 -0.951056 6
      vertex 29.5 -29.5 6
      vertex -0.412215 -0.809016 6
    endloop
  endfacet
  facet normal 0 0 1
    outer loop
      vertex -6.5 -4.5 6
      vertex -0.690984 -0.951056 6
      vertex -1 -1 6
    endloop
  endfacet
  facet normal 0 0 1
    outer loop
      vertex -6.5 -4.5 6
      vertex -1 -1 6
      vertex -1.30902 -0.951056 6
    endloop
  endfacet
  facet normal 0 0 1
    outer loop
      vertex -4.5 -1.5 6
      vertex -1.30902 -0.951056 6
      vertex -1.58779 -0.809016 6
    endloop
  endfacet
  facet normal 0 0 1
    outer loop
      vertex -1.95106 0.309017 6
      vertex -4.5 -1.5 6
      vertex -2 9.53674e-07 6
    endloop
  endfacet
  facet normal 0 0 1
    outer loop
      vertex -2 9.53674e-07 6
      vertex -4.5 -1.5 6
      vertex -1.95106 -0.309016 6
    endloop
  endfacet
  facet normal 0 0 1
    outer loop
      vertex -4.5 -1.5 6
      vertex -1.80902 -0.587785 6
      vertex -1.95106 -0.309016 6
    endloop
  endfacet
  facet normal 0 0 1
    outer loop
      vertex -4.5 -1.5 6
      vertex -1.58779 -0.809016 6
      vertex -1.80902 -0.587785 6
    endloop
  endfacet
  facet normal 0 0 1
    outer loop
      vertex -1.30902 -0.951056 6
      vertex -4.5 -1.5 6
      vertex -6.5 -4.5 6
    endloop
  endfacet
  facet normal 0 0 1
    outer loop
      vertex -6.5 -4.5 6
      vertex -4.5 -1.5 6
      vertex -6.5 -1.5 6
    endloop
  endfacet
  facet normal 0 0 1
    outer loop
      vertex -0.690984 -0.951056 6
      vertex -6.5 -4.5 6
      vertex 29.5 -29.5 6
    endloop
  endfacet
  facet normal 0 0 1
    outer loop
      vertex -29.5 -29.5 6
      vertex -6.5 -4.5 6
      vertex -15.5 -4.5 6
    endloop
  endfacet
  facet normal 0 0 1
    outer loop
      vertex -20.191 12.4122 6
      vertex -17.5 14.5 6
      vertex -20.0489 12.691 6
    endloop
  endfacet
  facet normal -0 0 1
    outer loop
      vertex -20.0489 -0.309016 6
      vertex -17.5 -1.5 6
      vertex -20 0 6
    endloop
  endfacet
  facet normal -0 0 1
    outer loop
      vertex -20.191 -0.587785 6
      vertex -17.5 -1.5 6
      vertex -20.0489 -0.309016 6
    endloop
  endfacet
  facet normal -0 0 1
    outer loop
      vertex -20.4122 -0.809016 6
      vertex -17.5 -1.5 6
      vertex -20.191 -0.587785 6
    endloop
  endfacet
  facet normal -0 0 1
    outer loop
      vertex -20.691 -0.951056 6
      vertex -17.5 -1.5 6
      vertex -20.4122 -0.809016 6
    endloop
  endfacet
  facet normal 0 0 1
    outer loop
      vertex -17.5 -1.5 6
      vertex -20.691 -0.951056 6
      vertex -15.5 -4.5 6
    endloop
  endfacet
  facet normal -0 0 1
    outer loop
      vertex -21 -1 6
      vertex -15.5 -4.5 6
      vertex -20.691 -0.951056 6
    endloop
  endfacet
  facet normal 0 0 1
    outer loop
      vertex -21.309 -0.951056 6
      vertex -15.5 -4.5 6
      vertex -21 -1 6
    endloop
  endfacet
  facet normal 0 0 1
    outer loop
      vertex -29.5 -29.5 6
      vertex -21.309 -0.951056 6
      vertex -21.5878 -0.809016 6
    endloop
  endfacet
  facet normal 0 0 1
    outer loop
      vertex -29.5 -29.5 6
      vertex -22 9.53674e-07 6
      vertex -29.5 29.5 6
    endloop
  endfacet
  facet normal 0 0 1
    outer loop
      vertex -6.5 -4.5 6
      vertex -29.5 -29.5 6
      vertex 29.5 -29.5 6
    endloop
  endfacet
  facet normal 0 0 1
    outer loop
      vertex -21.309 -0.951056 6
      vertex -29.5 -29.5 6
      vertex -15.5 -4.5 6
    endloop
  endfacet
  facet normal 0 0 1
    outer loop
      vertex -21.809 -0.587785 6
      vertex -29.5 -29.5 6
      vertex -21.5878 -0.809016 6
    endloop
  endfacet
  facet normal 0 0 1
    outer loop
      vertex -21.9511 -0.309016 6
      vertex -29.5 -29.5 6
      vertex -21.809 -0.587785 6
    endloop
  endfacet
  facet normal 0 0 1
    outer loop
      vertex -22 9.53674e-07 6
      vertex -29.5 -29.5 6
      vertex -21.9511 -0.309016 6
    endloop
  endfacet
  facet normal 0 0 -1
    outer loop
      vertex -20.191 0.587786 0
      vertex -15.5 4.5 0
      vertex -20.0489 0.309017 0
    endloop
  endfacet
  facet normal 0 0 -1
    outer loop
      vertex -15.5 4.5 0
      vertex -20.0489 12.691 0
      vertex -20 13 0
    endloop
  endfacet
  facet normal 0 0 -1
    outer loop
      vertex -20.4122 0.809017 0
      vertex -15.5 4.5 0
      vertex -20.191 0.587786 0
    endloop
  endfacet
  facet normal 0 0 -1
    outer loop
      vertex -15.5 4.5 0
      vertex -20.191 12.4122 0
      vertex -20.0489 12.691 0
    endloop
  endfacet
  facet normal 0 0 -1
    outer loop
      vertex -20.691 0.951057 0
      vertex -15.5 4.5 0
      vertex -20.4122 0.809017 0
    endloop
  endfacet
  facet normal 0 0 -1
    outer loop
      vertex -15.5 4.5 0
      vertex -20.4122 12.191 0
      vertex -20.191 12.4122 0
    endloop
  endfacet
  facet normal 0 0 -1
    outer loop
      vertex -21 1 0
      vertex -15.5 4.5 0
      vertex -20.691 0.951057 0
    endloop
  endfacet
  facet normal 0 0 -1
    outer loop
      vertex -15.5 4.5 0
      vertex -20.691 12.0489 0
      vertex -20.4122 12.191 0
    endloop
  endfacet
  facet normal 0 0 -1
    outer loop
      vertex -21 12 0
      vertex -15.5 4.5 0
      vertex -21 1 0
    endloop
  endfacet
  facet normal 0 0 -1
    outer loop
      vertex -15.5 4.5 0
      vertex -21 12 0
      vertex -20.691 12.0489 0
    endloop
  endfacet
  facet normal 0 0 -1
    outer loop
      vertex -21.309 0.951057 0
      vertex -21 12 0
      vertex -21 1 0
    endloop
  endfacet
  facet normal 0 0 -1
    outer loop
      vertex -21.309 0.951057 0
      vertex -21.309 12.0489 0
      vertex -21 12 0
    endloop
  endfacet
  facet normal 0 0 -1
    outer loop
      vertex -21.5878 0.809017 0
      vertex -21.309 12.0489 0
      vertex -21.309 0.951057 0
    endloop
  endfacet
  facet normal 0 0 -1
    outer loop
      vertex -21.5878 0.809017 0
      vertex -21.5878 12.191 0
      vertex -21.309 12.0489 0
    endloop
  endfacet
  facet normal 0 0 -1
    outer loop
      vertex -21.809 0.587786 0
      vertex -21.5878 12.191 0
      vertex -21.5878 0.809017 0
    endloop
  endfacet
  facet normal 0 0 -1
    outer loop
      vertex -21.809 0.587786 0
      vertex -21.809 12.4122 0
      vertex -21.5878 12.191 0
    endloop
  endfacet
  facet normal 0 0 -1
    outer loop
      vertex -21.9511 0.309017 0
      vertex -21.809 12.4122 0
      vertex -21.809 0.587786 0
    endloop
  endfacet
  facet normal 0 0 -1
    outer loop
      vertex -21.9511 0.309017 0
      vertex -21.9511 12.691 0
      vertex -21.809 12.4122 0
    endloop
  endfacet
  facet normal 0 0 -1
    outer loop
      vertex -29.5 29.5 0
      vertex -21.9511 0.309017 0
      vertex -22 9.53674e-07 0
    endloop
  endfacet
  facet normal 0 0 -1
    outer loop
      vertex -21.9511 0.309017 0
      vertex -29.5 29.5 0
      vertex -21.9511 12.691 0
    endloop
  endfacet
  facet normal 0 0 -1
    outer loop
      vertex -0.0489435 12.691 0
      vertex 29.5 29.5 0
      vertex -0.0489435 0.309017 0
    endloop
  endfacet
  facet normal 0 0 -1
    outer loop
      vertex 29.5 29.5 0
      vertex -0.0489435 12.691 0
      vertex 0 13 0
    endloop
  endfacet
  facet normal 0 0 -1
    outer loop
      vertex -0.190984 0.587786 0
      vertex -0.0489435 12.691 0
      vertex -0.0489435 0.309017 0
    endloop
  endfacet
  facet normal 0 0 -1
    outer loop
      vertex -0.190984 0.587786 0
      vertex -0.190984 12.4122 0
      vertex -0.0489435 12.691 0
    endloop
  endfacet
  facet normal 0 0 -1
    outer loop
      vertex -0.412215 0.809017 0
      vertex -0.190984 12.4122 0
      vertex -0.190984 0.587786 0
    endloop
  endfacet
  facet normal 0 0 -1
    outer loop
      vertex -0.412215 0.809017 0
      vertex -0.412215 12.191 0
      vertex -0.190984 12.4122 0
    endloop
  endfacet
  facet normal 0 0 -1
    outer loop
      vertex -0.690984 0.951057 0
      vertex -0.412215 12.191 0
      vertex -0.412215 0.809017 0
    endloop
  endfacet
  facet normal 0 0 -1
    outer loop
      vertex -0.690984 0.951057 0
      vertex -0.690984 12.0489 0
      vertex -0.412215 12.191 0
    endloop
  endfacet
  facet normal 0 0 -1
    outer loop
      vertex -1 1 0
      vertex -0.690984 12.0489 0
      vertex -0.690984 0.951057 0
    endloop
  endfacet
  facet normal 0 0 -1
    outer loop
      vertex -1 1 0
      vertex -1 12 0
      vertex -0.690984 12.0489 0
    endloop
  endfacet
  facet normal 0 0 -1
    outer loop
      vertex -6.5 4.5 0
      vertex -1 1 0
      vertex -1.30902 0.951057 0
    endloop
  endfacet
  facet normal 0 0 -1
    outer loop
      vertex -1 1 0
      vertex -6.5 4.5 0
      vertex -1 12 0
    endloop
  endfacet
  facet normal 0 0 -1
    outer loop
      vertex -6.5 4.5 0
      vertex -1.30902 0.951057 0
      vertex -1.58779 0.809017 0
    endloop
  endfacet
  facet normal -0 0 -1
    outer loop
      vertex -1 12 0
      vertex -6.5 4.5 0
      vertex -1.30902 12.0489 0
    endloop
  endfacet
  facet normal 0 0 -1
    outer loop
      vertex -6.5 4.5 0
      vertex -1.58779 0.809017 0
      vertex -1.80902 0.587786 0
    endloop
  endfacet
  facet normal -0 0 -1
    outer loop
      vertex -1.30902 12.0489 0
      vertex -6.5 4.5 0
      vertex -1.58779 12.191 0
    endloop
  endfacet
  facet normal 0 0 -1
    outer loop
      vertex -6.5 4.5 0
      vertex -1.80902 0.587786 0
      vertex -1.95106 0.309017 0
    endloop
  endfacet
  facet normal -0 0 -1
    outer loop
      vertex -1.58779 12.191 0
      vertex -6.5 4.5 0
      vertex -1.80902 12.4122 0
    endloop
  endfacet
  facet normal 0 0 -1
    outer loop
      vertex -6.5 4.5 0
      vertex -1.95106 0.309017 0
      vertex -2 9.53674e-07 0
    endloop
  endfacet
  facet normal -0 0 -1
    outer loop
      vertex -1.80902 12.4122 0
      vertex -6.5 4.5 0
      vertex -1.95106 12.691 0
    endloop
  endfacet
  facet normal 0 0 -1
    outer loop
      vertex 29.5 -29.5 0
      vertex 0 0 0
      vertex 29.5 29.5 0
    endloop
  endfacet
  facet normal 0 0 -1
    outer loop
      vertex 29.5 -29.5 0
      vertex -0.0489435 -0.309016 0
      vertex 0 0 0
    endloop
  endfacet
  facet normal 0 0 -1
    outer loop
      vertex 29.5 -29.5 0
      vertex -0.190984 -0.587785 0
      vertex -0.0489435 -0.309016 0
    endloop
  endfacet
  facet normal 0 0 -1
    outer loop
      vertex 29.5 -29.5 0
      vertex -0.412215 -0.809016 0
      vertex -0.190984 -0.587785 0
    endloop
  endfacet
  facet normal 0 0 -1
    outer loop
      vertex 29.5 -29.5 0
      vertex -0.690984 -0.951056 0
      vertex -0.412215 -0.809016 0
    endloop
  endfacet
  facet normal 0 0 -1
    outer loop
      vertex -6.5 -4.5 0
      vertex -0.690984 -0.951056 0
      vertex 29.5 -29.5 0
    endloop
  endfacet
  facet normal 0 0 -1
    outer loop
      vertex -0.690984 -0.951056 0
      vertex -6.5 -4.5 0
      vertex -1 -1 0
    endloop
  endfacet
  facet normal -0 0 -1
    outer loop
      vertex -1 -1 0
      vertex -6.5 -4.5 0
      vertex -1.30902 -0.951056 0
    endloop
  endfacet
  facet normal 0 0 -1
    outer loop
      vertex -6.5 4.5 0
      vertex -2 9.53674e-07 0
      vertex -6.5 -4.5 0
    endloop
  endfacet
  facet normal -0 0 -1
    outer loop
      vertex -1.95106 -0.309016 0
      vertex -6.5 -4.5 0
      vertex -2 9.53674e-07 0
    endloop
  endfacet
  facet normal -0 0 -1
    outer loop
      vertex -1.80902 -0.587785 0
      vertex -6.5 -4.5 0
      vertex -1.95106 -0.309016 0
    endloop
  endfacet
  facet normal -0 0 -1
    outer loop
      vertex -1.58779 -0.809016 0
      vertex -6.5 -4.5 0
      vertex -1.80902 -0.587785 0
    endloop
  endfacet
  facet normal -0 0 -1
    outer loop
      vertex -1.30902 -0.951056 0
      vertex -6.5 -4.5 0
      vertex -1.58779 -0.809016 0
    endloop
  endfacet
  facet normal 0 0 -1
    outer loop
      vertex -29.5 -29.5 0
      vertex -6.5 -4.5 0
      vertex 29.5 -29.5 0
    endloop
  endfacet
  facet normal 0 0 -1
    outer loop
      vertex -15.5 -4.5 0
      vertex -20 0 0
      vertex -15.5 4.5 0
    endloop
  endfacet
  facet normal 0 0 -1
    outer loop
      vertex -15.5 -4.5 0
      vertex -20.0489 -0.309016 0
      vertex -20 0 0
    endloop
  endfacet
  facet normal 0 0 -1
    outer loop
      vertex -15.5 -4.5 0
      vertex -20.191 -0.587785 0
      vertex -20.0489 -0.309016 0
    endloop
  endfacet
  facet normal 0 0 -1
    outer loop
      vertex -15.5 -4.5 0
      vertex -20.4122 -0.809016 0
      vertex -20.191 -0.587785 0
    endloop
  endfacet
  facet normal 0 0 -1
    outer loop
      vertex -15.5 -4.5 0
      vertex -20.691 -0.951056 0
      vertex -20.4122 -0.809016 0
    endloop
  endfacet
  facet normal 0 0 -1
    outer loop
      vertex -15.5 -4.5 0
      vertex -21 -1 0
      vertex -20.691 -0.951056 0
    endloop
  endfacet
  facet normal 0 0 -1
    outer loop
      vertex -15.5 -4.5 0
      vertex -21.309 -0.951056 0
      vertex -21 -1 0
    endloop
  endfacet
  facet normal 0 0 -1
    outer loop
      vertex -29.5 -29.5 0
      vertex -21.309 -0.951056 0
      vertex -15.5 -4.5 0
    endloop
  endfacet
  facet normal 0 0 -1
    outer loop
      vertex -29.5 29.5 0
      vertex -22 9.53674e-07 0
      vertex -29.5 -29.5 0
    endloop
  endfacet
  facet normal -0 0 -1
    outer loop
      vertex -21.9511 -0.309016 0
      vertex -29.5 -29.5 0
      vertex -22 9.53674e-07 0
    endloop
  endfacet
  facet normal -0 0 -1
    outer loop
      vertex -21.809 -0.587785 0
      vertex -29.5 -29.5 0
      vertex -21.9511 -0.309016 0
    endloop
  endfacet
  facet normal -0 0 -1
    outer loop
      vertex -21.5878 -0.809016 0
      vertex -29.5 -29.5 0
      vertex -21.809 -0.587785 0
    endloop
  endfacet
  facet normal -0 0 -1
    outer loop
      vertex -21.309 -0.951056 0
      vertex -29.5 -29.5 0
      vertex -21.5878 -0.809016 0
    endloop
  endfacet
  facet normal -0 0 -1
    outer loop
      vertex -6.5 -4.5 0
      vertex -29.5 -29.5 0
      vertex -15.5 -4.5 0
    endloop
  endfacet
  facet normal 0 0 -1
    outer loop
      vertex -0.0489435 0.309017 0
      vertex 29.5 29.5 0
      vertex 0 0 0
    endloop
  endfacet
  facet normal 0 0 -1
    outer loop
      vertex -0.0489435 13.309 0
      vertex 29.5 29.5 0
      vertex 0 13 0
    endloop
  endfacet
  facet normal 0 0 -1
    outer loop
      vertex -0.190984 13.5878 0
      vertex 29.5 29.5 0
      vertex -0.0489435 13.309 0
    endloop
  endfacet
  facet normal 0 0 -1
    outer loop
      vertex -0.412215 13.809 0
      vertex 29.5 29.5 0
      vertex -0.190984 13.5878 0
    endloop
  endfacet
  facet normal 0 0 -1
    outer loop
      vertex -0.690984 13.9511 0
      vertex 29.5 29.5 0
      vertex -0.412215 13.809 0
    endloop
  endfacet
  facet normal 0 0 -1
    outer loop
      vertex -1 14 0
      vertex 29.5 29.5 0
      vertex -0.690984 13.9511 0
    endloop
  endfacet
  facet normal 0 0 -1
    outer loop
      vertex -29.5 29.5 0
      vertex -1 14 0
      vertex -1.30902 13.9511 0
    endloop
  endfacet
  facet normal -0 0 -1
    outer loop
      vertex -1.95106 12.691 0
      vertex -6.5 4.5 0
      vertex -2 13 0
    endloop
  endfacet
  facet normal 0 0 -1
    outer loop
      vertex -20 13 0
      vertex -2 13 0
      vertex -6.5 4.5 0
    endloop
  endfacet
  facet normal 0 0 -1
    outer loop
      vertex -2 13 0
      vertex -20 13 0
      vertex -1.95106 13.309 0
    endloop
  endfacet
  facet normal 0 0 -1
    outer loop
      vertex -20 13 0
      vertex -6.5 4.5 0
      vertex -15.5 4.5 0
    endloop
  endfacet
  facet normal 0 0 -1
    outer loop
      vertex -20.0489 13.309 0
      vertex -1.95106 13.309 0
      vertex -20 13 0
    endloop
  endfacet
  facet normal 0 0 -1
    outer loop
      vertex -20.0489 0.309017 0
      vertex -15.5 4.5 0
      vertex -20 0 0
    endloop
  endfacet
  facet normal 0 0 -1
    outer loop
      vertex -1.95106 13.309 0
      vertex -20.0489 13.309 0
      vertex -1.80902 13.5878 0
    endloop
  endfacet
  facet normal 0 0 -1
    outer loop
      vertex -20.191 13.5878 0
      vertex -1.80902 13.5878 0
      vertex -20.0489 13.309 0
    endloop
  endfacet
  facet normal 0 0 -1
    outer loop
      vertex -1.80902 13.5878 0
      vertex -20.191 13.5878 0
      vertex -1.58779 13.809 0
    endloop
  endfacet
  facet normal 0 0 -1
    outer loop
      vertex -20.4122 13.809 0
      vertex -1.58779 13.809 0
      vertex -20.191 13.5878 0
    endloop
  endfacet
  facet normal 0 0 -1
    outer loop
      vertex -29.5 29.5 0
      vertex -1.58779 13.809 0
      vertex -20.4122 13.809 0
    endloop
  endfacet
  facet normal 0 0 -1
    outer loop
      vertex -1.58779 13.809 0
      vertex -29.5 29.5 0
      vertex -1.30902 13.9511 0
    endloop
  endfacet
  facet normal 0 0 -1
    outer loop
      vertex -29.5 29.5 0
      vertex -20.4122 13.809 0
      vertex -20.691 13.9511 0
    endloop
  endfacet
  facet normal 0 0 -1
    outer loop
      vertex -29.5 29.5 0
      vertex -20.691 13.9511 0
      vertex -21 14 0
    endloop
  endfacet
  facet normal 0 0 -1
    outer loop
      vertex -29.5 29.5 0
      vertex -21 14 0
      vertex -21.309 13.9511 0
    endloop
  endfacet
  facet normal 0 0 -1
    outer loop
      vertex -21.9511 12.691 0
      vertex -29.5 29.5 0
      vertex -22 13 0
    endloop
  endfacet
  facet normal 0 0 -1
    outer loop
      vertex -1 14 0
      vertex -29.5 29.5 0
      vertex 29.5 29.5 0
    endloop
  endfacet
  facet normal 0 0 -1
    outer loop
      vertex -21.5878 13.809 0
      vertex -29.5 29.5 0
      vertex -21.309 13.9511 0
    endloop
  endfacet
  facet normal 0 0 -1
    outer loop
      vertex -21.809 13.5878 0
      vertex -29.5 29.5 0
      vertex -21.5878 13.809 0
    endloop
  endfacet
  facet normal 0 0 -1
    outer loop
      vertex -21.9511 13.309 0
      vertex -29.5 29.5 0
      vertex -21.809 13.5878 0
    endloop
  endfacet
  facet normal 0 0 -1
    outer loop
      vertex -22 13 0
      vertex -29.5 29.5 0
      vertex -21.9511 13.309 0
    endloop
  endfacet
  facet normal -0.987689 -0.156432 0
    outer loop
      vertex -20 13 0
      vertex -20.0489 13.309 6
      vertex -20.0489 13.309 0
    endloop
  endfacet
  facet normal -0.987689 -0.156432 0
    outer loop
      vertex -20.0489 13.309 6
      vertex -20 13 0
      vertex -20 13 6
    endloop
  endfacet
  facet normal 0.987689 -0.156432 0
    outer loop
      vertex -22 13 6
      vertex -21.9511 13.309 0
      vertex -21.9511 13.309 6
    endloop
  endfacet
  facet normal 0.987689 -0.156432 0
    outer loop
      vertex -21.9511 13.309 0
      vertex -22 13 6
      vertex -22 13 0
    endloop
  endfacet
  facet normal 0.987689 0.156432 0
    outer loop
      vertex -21.9511 12.691 6
      vertex -22 13 0
      vertex -22 13 6
    endloop
  endfacet
  facet normal 0.987689 0.156432 0
    outer loop
      vertex -22 13 0
      vertex -21.9511 12.691 6
      vertex -21.9511 12.691 0
    endloop
  endfacet
  facet normal -0.156434 -0.987688 0
    outer loop
      vertex -21 14 0
      vertex -20.691 13.9511 6
      vertex -21 14 6
    endloop
  endfacet
  facet normal -0.156434 -0.987688 -0
    outer loop
      vertex -20.691 13.9511 6
      vertex -21 14 0
      vertex -20.691 13.9511 0
    endloop
  endfacet
  facet normal -0.707107 -0.707107 0
    outer loop
      vertex -20.191 13.5878 0
      vertex -20.4122 13.809 6
      vertex -20.4122 13.809 0
    endloop
  endfacet
  facet normal -0.707107 -0.707107 0
    outer loop
      vertex -20.4122 13.809 6
      vertex -20.191 13.5878 0
      vertex -20.191 13.5878 6
    endloop
  endfacet
  facet normal -0.891006 -0.453992 0
    outer loop
      vertex -20.0489 13.309 0
      vertex -20.191 13.5878 6
      vertex -20.191 13.5878 0
    endloop
  endfacet
  facet normal -0.891006 -0.453992 0
    outer loop
      vertex -20.191 13.5878 6
      vertex -20.0489 13.309 0
      vertex -20.0489 13.309 6
    endloop
  endfacet
  facet normal 0.156434 -0.987688 0
    outer loop
      vertex -21.309 13.9511 0
      vertex -21 14 6
      vertex -21.309 13.9511 6
    endloop
  endfacet
  facet normal 0.156434 -0.987688 0
    outer loop
      vertex -21 14 6
      vertex -21.309 13.9511 0
      vertex -21 14 0
    endloop
  endfacet
  facet normal 0.891006 -0.453992 0
    outer loop
      vertex -21.9511 13.309 6
      vertex -21.809 13.5878 0
      vertex -21.809 13.5878 6
    endloop
  endfacet
  facet normal 0.891006 -0.453992 0
    outer loop
      vertex -21.809 13.5878 0
      vertex -21.9511 13.309 6
      vertex -21.9511 13.309 0
    endloop
  endfacet
  facet normal 0.453994 -0.891005 0
    outer loop
      vertex -21.5878 13.809 0
      vertex -21.309 13.9511 6
      vertex -21.5878 13.809 6
    endloop
  endfacet
  facet normal 0.453994 -0.891005 0
    outer loop
      vertex -21.309 13.9511 6
      vertex -21.5878 13.809 0
      vertex -21.309 13.9511 0
    endloop
  endfacet
  facet normal -0.453992 -0.891006 0
    outer loop
      vertex -20.691 13.9511 0
      vertex -20.4122 13.809 6
      vertex -20.691 13.9511 6
    endloop
  endfacet
  facet normal -0.453992 -0.891006 -0
    outer loop
      vertex -20.4122 13.809 6
      vertex -20.691 13.9511 0
      vertex -20.4122 13.809 0
    endloop
  endfacet
  facet normal 0.707104 -0.70711 0
    outer loop
      vertex -21.809 13.5878 0
      vertex -21.5878 13.809 6
      vertex -21.809 13.5878 6
    endloop
  endfacet
  facet normal 0.707104 -0.70711 0
    outer loop
      vertex -21.5878 13.809 6
      vertex -21.809 13.5878 0
      vertex -21.5878 13.809 0
    endloop
  endfacet
  facet normal -0.453992 0.891006 0
    outer loop
      vertex -20.4122 12.191 0
      vertex -20.691 12.0489 6
      vertex -20.4122 12.191 6
    endloop
  endfacet
  facet normal -0.453992 0.891006 0
    outer loop
      vertex -20.691 12.0489 6
      vertex -20.4122 12.191 0
      vertex -20.691 12.0489 0
    endloop
  endfacet
  facet normal -0.707107 0.707107 0
    outer loop
      vertex -20.4122 12.191 0
      vertex -20.191 12.4122 6
      vertex -20.191 12.4122 0
    endloop
  endfacet
  facet normal -0.707107 0.707107 0
    outer loop
      vertex -20.191 12.4122 6
      vertex -20.4122 12.191 0
      vertex -20.4122 12.191 6
    endloop
  endfacet
  facet normal -0.987689 0.156432 0
    outer loop
      vertex -20.0489 12.691 0
      vertex -20 13 6
      vertex -20 13 0
    endloop
  endfacet
  facet normal -0.987689 0.156432 0
    outer loop
      vertex -20 13 6
      vertex -20.0489 12.691 0
      vertex -20.0489 12.691 6
    endloop
  endfacet
  facet normal 0.891006 0.453992 0
    outer loop
      vertex -21.809 12.4122 6
      vertex -21.9511 12.691 0
      vertex -21.9511 12.691 6
    endloop
  endfacet
  facet normal 0.891006 0.453992 0
    outer loop
      vertex -21.9511 12.691 0
      vertex -21.809 12.4122 6
      vertex -21.809 12.4122 0
    endloop
  endfacet
  facet normal -0.891006 0.453992 0
    outer loop
      vertex -20.191 12.4122 0
      vertex -20.0489 12.691 6
      vertex -20.0489 12.691 0
    endloop
  endfacet
  facet normal -0.891006 0.453992 0
    outer loop
      vertex -20.0489 12.691 6
      vertex -20.191 12.4122 0
      vertex -20.191 12.4122 6
    endloop
  endfacet
  facet normal -0.156432 0.987689 0
    outer loop
      vertex -20.691 12.0489 0
      vertex -21 12 6
      vertex -20.691 12.0489 6
    endloop
  endfacet
  facet normal -0.156432 0.987689 0
    outer loop
      vertex -21 12 6
      vertex -20.691 12.0489 0
      vertex -21 12 0
    endloop
  endfacet
  facet normal 0.156432 0.987689 -0
    outer loop
      vertex -21 12 0
      vertex -21.309 12.0489 6
      vertex -21 12 6
    endloop
  endfacet
  facet normal 0.156432 0.987689 0
    outer loop
      vertex -21.309 12.0489 6
      vertex -21 12 0
      vertex -21.309 12.0489 0
    endloop
  endfacet
  facet normal 0.707104 0.70711 -0
    outer loop
      vertex -21.5878 12.191 0
      vertex -21.809 12.4122 6
      vertex -21.5878 12.191 6
    endloop
  endfacet
  facet normal 0.707104 0.70711 0
    outer loop
      vertex -21.809 12.4122 6
      vertex -21.5878 12.191 0
      vertex -21.809 12.4122 0
    endloop
  endfacet
  facet normal 0.453994 0.891005 -0
    outer loop
      vertex -21.309 12.0489 0
      vertex -21.5878 12.191 6
      vertex -21.309 12.0489 6
    endloop
  endfacet
  facet normal 0.453994 0.891005 0
    outer loop
      vertex -21.5878 12.191 6
      vertex -21.309 12.0489 0
      vertex -21.5878 12.191 0
    endloop
  endfacet
  facet normal -0.987688 -0.156435 0
    outer loop
      vertex 0 13 0
      vertex -0.0489435 13.309 6
      vertex -0.0489435 13.309 0
    endloop
  endfacet
  facet normal -0.987688 -0.156435 0
    outer loop
      vertex -0.0489435 13.309 6
      vertex 0 13 0
      vertex 0 13 6
    endloop
  endfacet
  facet normal 0.156434 -0.987688 0
    outer loop
      vertex -1.30902 13.9511 0
      vertex -1 14 6
      vertex -1.30902 13.9511 6
    endloop
  endfacet
  facet normal 0.156434 -0.987688 0
    outer loop
      vertex -1 14 6
      vertex -1.30902 13.9511 0
      vertex -1 14 0
    endloop
  endfacet
  facet normal -0.156432 0.987689 0
    outer loop
      vertex -0.690984 12.0489 0
      vertex -1 12 6
      vertex -0.690984 12.0489 6
    endloop
  endfacet
  facet normal -0.156432 0.987689 0
    outer loop
      vertex -1 12 6
      vertex -0.690984 12.0489 0
      vertex -1 12 0
    endloop
  endfacet
  facet normal 0.453992 0.891006 -0
    outer loop
      vertex -1.30902 12.0489 0
      vertex -1.58779 12.191 6
      vertex -1.30902 12.0489 6
    endloop
  endfacet
  facet normal 0.453992 0.891006 0
    outer loop
      vertex -1.58779 12.191 6
      vertex -1.30902 12.0489 0
      vertex -1.58779 12.191 0
    endloop
  endfacet
  facet normal -0.453992 -0.891006 0
    outer loop
      vertex -0.690984 13.9511 0
      vertex -0.412215 13.809 6
      vertex -0.690984 13.9511 6
    endloop
  endfacet
  facet normal -0.453992 -0.891006 -0
    outer loop
      vertex -0.412215 13.809 6
      vertex -0.690984 13.9511 0
      vertex -0.412215 13.809 0
    endloop
  endfacet
  facet normal -0.891006 -0.453992 0
    outer loop
      vertex -0.0489435 13.309 0
      vertex -0.190984 13.5878 6
      vertex -0.190984 13.5878 0
    endloop
  endfacet
  facet normal -0.891006 -0.453992 0
    outer loop
      vertex -0.190984 13.5878 6
      vertex -0.0489435 13.309 0
      vertex -0.0489435 13.309 6
    endloop
  endfacet
  facet normal -0.156435 -0.987688 0
    outer loop
      vertex -1 14 0
      vertex -0.690984 13.9511 6
      vertex -1 14 6
    endloop
  endfacet
  facet normal -0.156435 -0.987688 -0
    outer loop
      vertex -0.690984 13.9511 6
      vertex -1 14 0
      vertex -0.690984 13.9511 0
    endloop
  endfacet
  facet normal 0.891006 -0.453992 0
    outer loop
      vertex -1.95106 13.309 6
      vertex -1.80902 13.5878 0
      vertex -1.80902 13.5878 6
    endloop
  endfacet
  facet normal 0.891006 -0.453992 0
    outer loop
      vertex -1.80902 13.5878 0
      vertex -1.95106 13.309 6
      vertex -1.95106 13.309 0
    endloop
  endfacet
  facet normal 0.987689 -0.156432 0
    outer loop
      vertex -2 13 6
      vertex -1.95106 13.309 0
      vertex -1.95106 13.309 6
    endloop
  endfacet
  facet normal 0.987689 -0.156432 0
    outer loop
      vertex -1.95106 13.309 0
      vertex -2 13 6
      vertex -2 13 0
    endloop
  endfacet
  facet normal 0.453992 -0.891006 0
    outer loop
      vertex -1.58779 13.809 0
      vertex -1.30902 13.9511 6
      vertex -1.58779 13.809 6
    endloop
  endfacet
  facet normal 0.453992 -0.891006 0
    outer loop
      vertex -1.30902 13.9511 6
      vertex -1.58779 13.809 0
      vertex -1.30902 13.9511 0
    endloop
  endfacet
  facet normal -0.453992 0.891006 0
    outer loop
      vertex -0.412215 12.191 0
      vertex -0.690984 12.0489 6
      vertex -0.412215 12.191 6
    endloop
  endfacet
  facet normal -0.453992 0.891006 0
    outer loop
      vertex -0.690984 12.0489 6
      vertex -0.412215 12.191 0
      vertex -0.690984 12.0489 0
    endloop
  endfacet
  facet normal -0.987688 0.156434 0
    outer loop
      vertex -0.0489435 12.691 0
      vertex 0 13 6
      vertex 0 13 0
    endloop
  endfacet
  facet normal -0.987688 0.156434 0
    outer loop
      vertex 0 13 6
      vertex -0.0489435 12.691 0
      vertex -0.0489435 12.691 6
    endloop
  endfacet
  facet normal 0.156432 0.987689 -0
    outer loop
      vertex -1 12 0
      vertex -1.30902 12.0489 6
      vertex -1 12 6
    endloop
  endfacet
  facet normal 0.156432 0.987689 0
    outer loop
      vertex -1.30902 12.0489 6
      vertex -1 12 0
      vertex -1.30902 12.0489 0
    endloop
  endfacet
  facet normal 0.891006 0.453992 0
    outer loop
      vertex -1.80902 12.4122 6
      vertex -1.95106 12.691 0
      vertex -1.95106 12.691 6
    endloop
  endfacet
  facet normal 0.891006 0.453992 0
    outer loop
      vertex -1.95106 12.691 0
      vertex -1.80902 12.4122 6
      vertex -1.80902 12.4122 0
    endloop
  endfacet
  facet normal -0.707107 -0.707107 0
    outer loop
      vertex -0.190984 13.5878 0
      vertex -0.412215 13.809 6
      vertex -0.412215 13.809 0
    endloop
  endfacet
  facet normal -0.707107 -0.707107 0
    outer loop
      vertex -0.412215 13.809 6
      vertex -0.190984 13.5878 0
      vertex -0.190984 13.5878 6
    endloop
  endfacet
  facet normal 0.987689 0.156432 0
    outer loop
      vertex -1.95106 12.691 6
      vertex -2 13 0
      vertex -2 13 6
    endloop
  endfacet
  facet normal 0.987689 0.156432 0
    outer loop
      vertex -2 13 0
      vertex -1.95106 12.691 6
      vertex -1.95106 12.691 0
    endloop
  endfacet
  facet normal 0.707107 -0.707107 0
    outer loop
      vertex -1.80902 13.5878 6
      vertex -1.58779 13.809 0
      vertex -1.58779 13.809 6
    endloop
  endfacet
  facet normal 0.707107 -0.707107 0
    outer loop
      vertex -1.58779 13.809 0
      vertex -1.80902 13.5878 6
      vertex -1.80902 13.5878 0
    endloop
  endfacet
  facet normal -0.707107 0.707107 0
    outer loop
      vertex -0.412215 12.191 0
      vertex -0.190984 12.4122 6
      vertex -0.190984 12.4122 0
    endloop
  endfacet
  facet normal -0.707107 0.707107 0
    outer loop
      vertex -0.190984 12.4122 6
      vertex -0.412215 12.191 0
      vertex -0.412215 12.191 6
    endloop
  endfacet
  facet normal 0.707107 0.707107 0
    outer loop
      vertex -1.58779 12.191 6
      vertex -1.80902 12.4122 0
      vertex -1.80902 12.4122 6
    endloop
  endfacet
  facet normal 0.707107 0.707107 0
    outer loop
      vertex -1.80902 12.4122 0
      vertex -1.58779 12.191 6
      vertex -1.58779 12.191 0
    endloop
  endfacet
  facet normal -0.891006 0.453992 0
    outer loop
      vertex -0.190984 12.4122 0
      vertex -0.0489435 12.691 6
      vertex -0.0489435 12.691 0
    endloop
  endfacet
  facet normal -0.891006 0.453992 0
    outer loop
      vertex -0.0489435 12.691 6
      vertex -0.190984 12.4122 0
      vertex -0.190984 12.4122 6
    endloop
  endfacet
  facet normal 0.987689 -0.156432 0
    outer loop
      vertex -22 9.53674e-07 6
      vertex -21.9511 0.309017 0
      vertex -21.9511 0.309017 6
    endloop
  endfacet
  facet normal 0.987689 -0.156432 0
    outer loop
      vertex -21.9511 0.309017 0
      vertex -22 9.53674e-07 6
      vertex -22 9.53674e-07 0
    endloop
  endfacet
  facet normal -0.156432 -0.987689 0
    outer loop
      vertex -21 1 0
      vertex -20.691 0.951057 6
      vertex -21 1 6
    endloop
  endfacet
  facet normal -0.156432 -0.987689 -0
    outer loop
      vertex -20.691 0.951057 6
      vertex -21 1 0
      vertex -20.691 0.951057 0
    endloop
  endfacet
  facet normal -0.987689 0.156432 0
    outer loop
      vertex -20.0489 -0.309016 0
      vertex -20 0 6
      vertex -20 0 0
    endloop
  endfacet
  facet normal -0.987689 0.156432 0
    outer loop
      vertex -20 0 6
      vertex -20.0489 -0.309016 0
      vertex -20.0489 -0.309016 6
    endloop
  endfacet
  facet normal 0.156434 0.987688 -0
    outer loop
      vertex -21 -1 0
      vertex -21.309 -0.951056 6
      vertex -21 -1 6
    endloop
  endfacet
  facet normal 0.156434 0.987688 0
    outer loop
      vertex -21.309 -0.951056 6
      vertex -21 -1 0
      vertex -21.309 -0.951056 0
    endloop
  endfacet
  facet normal -0.891006 -0.453992 0
    outer loop
      vertex -20.0489 0.309017 0
      vertex -20.191 0.587786 6
      vertex -20.191 0.587786 0
    endloop
  endfacet
  facet normal -0.891006 -0.453992 0
    outer loop
      vertex -20.191 0.587786 6
      vertex -20.0489 0.309017 0
      vertex -20.0489 0.309017 6
    endloop
  endfacet
  facet normal 0.156432 -0.987689 0
    outer loop
      vertex -21.309 0.951057 0
      vertex -21 1 6
      vertex -21.309 0.951057 6
    endloop
  endfacet
  facet normal 0.156432 -0.987689 0
    outer loop
      vertex -21 1 6
      vertex -21.309 0.951057 0
      vertex -21 1 0
    endloop
  endfacet
  facet normal 0.453994 -0.891005 0
    outer loop
      vertex -21.5878 0.809017 0
      vertex -21.309 0.951057 6
      vertex -21.5878 0.809017 6
    endloop
  endfacet
  facet normal 0.453994 -0.891005 0
    outer loop
      vertex -21.309 0.951057 6
      vertex -21.5878 0.809017 0
      vertex -21.309 0.951057 0
    endloop
  endfacet
  facet normal 0.891006 -0.453992 0
    outer loop
      vertex -21.9511 0.309017 6
      vertex -21.809 0.587786 0
      vertex -21.809 0.587786 6
    endloop
  endfacet
  facet normal 0.891006 -0.453992 0
    outer loop
      vertex -21.809 0.587786 0
      vertex -21.9511 0.309017 6
      vertex -21.9511 0.309017 0
    endloop
  endfacet
  facet normal 0.707104 -0.70711 0
    outer loop
      vertex -21.809 0.587786 0
      vertex -21.5878 0.809017 6
      vertex -21.809 0.587786 6
    endloop
  endfacet
  facet normal 0.707104 -0.70711 0
    outer loop
      vertex -21.5878 0.809017 6
      vertex -21.809 0.587786 0
      vertex -21.5878 0.809017 0
    endloop
  endfacet
  facet normal -0.156434 0.987688 0
    outer loop
      vertex -20.691 -0.951056 0
      vertex -21 -1 6
      vertex -20.691 -0.951056 6
    endloop
  endfacet
  facet normal -0.156434 0.987688 0
    outer loop
      vertex -21 -1 6
      vertex -20.691 -0.951056 0
      vertex -21 -1 0
    endloop
  endfacet
  facet normal -0.891006 0.453992 0
    outer loop
      vertex -20.191 -0.587785 0
      vertex -20.0489 -0.309016 6
      vertex -20.0489 -0.309016 0
    endloop
  endfacet
  facet normal -0.891006 0.453992 0
    outer loop
      vertex -20.0489 -0.309016 6
      vertex -20.191 -0.587785 0
      vertex -20.191 -0.587785 6
    endloop
  endfacet
  facet normal 0.987689 0.156432 0
    outer loop
      vertex -21.9511 -0.309016 6
      vertex -22 9.53674e-07 0
      vertex -22 9.53674e-07 6
    endloop
  endfacet
  facet normal 0.987689 0.156432 0
    outer loop
      vertex -22 9.53674e-07 0
      vertex -21.9511 -0.309016 6
      vertex -21.9511 -0.309016 0
    endloop
  endfacet
  facet normal -0.707107 -0.707107 0
    outer loop
      vertex -20.191 0.587786 0
      vertex -20.4122 0.809017 6
      vertex -20.4122 0.809017 0
    endloop
  endfacet
  facet normal -0.707107 -0.707107 0
    outer loop
      vertex -20.4122 0.809017 6
      vertex -20.191 0.587786 0
      vertex -20.191 0.587786 6
    endloop
  endfacet
  facet normal -0.453992 -0.891006 0
    outer loop
      vertex -20.691 0.951057 0
      vertex -20.4122 0.809017 6
      vertex -20.691 0.951057 6
    endloop
  endfacet
  facet normal -0.453992 -0.891006 -0
    outer loop
      vertex -20.4122 0.809017 6
      vertex -20.691 0.951057 0
      vertex -20.4122 0.809017 0
    endloop
  endfacet
  facet normal -0.987689 -0.156432 0
    outer loop
      vertex -20 0 0
      vertex -20.0489 0.309017 6
      vertex -20.0489 0.309017 0
    endloop
  endfacet
  facet normal -0.987689 -0.156432 0
    outer loop
      vertex -20.0489 0.309017 6
      vertex -20 0 0
      vertex -20 0 6
    endloop
  endfacet
  facet normal -0.453992 0.891006 0
    outer loop
      vertex -20.4122 -0.809016 0
      vertex -20.691 -0.951056 6
      vertex -20.4122 -0.809016 6
    endloop
  endfacet
  facet normal -0.453992 0.891006 0
    outer loop
      vertex -20.691 -0.951056 6
      vertex -20.4122 -0.809016 0
      vertex -20.691 -0.951056 0
    endloop
  endfacet
  facet normal 0.707104 0.70711 -0
    outer loop
      vertex -21.5878 -0.809016 0
      vertex -21.809 -0.587785 6
      vertex -21.5878 -0.809016 6
    endloop
  endfacet
  facet normal 0.707104 0.70711 0
    outer loop
      vertex -21.809 -0.587785 6
      vertex -21.5878 -0.809016 0
      vertex -21.809 -0.587785 0
    endloop
  endfacet
  facet normal 0.891006 0.453992 0
    outer loop
      vertex -21.809 -0.587785 6
      vertex -21.9511 -0.309016 0
      vertex -21.9511 -0.309016 6
    endloop
  endfacet
  facet normal 0.891006 0.453992 0
    outer loop
      vertex -21.9511 -0.309016 0
      vertex -21.809 -0.587785 6
      vertex -21.809 -0.587785 0
    endloop
  endfacet
  facet normal -0.707107 0.707107 0
    outer loop
      vertex -20.4122 -0.809016 0
      vertex -20.191 -0.587785 6
      vertex -20.191 -0.587785 0
    endloop
  endfacet
  facet normal -0.707107 0.707107 0
    outer loop
      vertex -20.191 -0.587785 6
      vertex -20.4122 -0.809016 0
      vertex -20.4122 -0.809016 6
    endloop
  endfacet
  facet normal 0.453994 0.891005 -0
    outer loop
      vertex -21.309 -0.951056 0
      vertex -21.5878 -0.809016 6
      vertex -21.309 -0.951056 6
    endloop
  endfacet
  facet normal 0.453994 0.891005 0
    outer loop
      vertex -21.5878 -0.809016 6
      vertex -21.309 -0.951056 0
      vertex -21.5878 -0.809016 0
    endloop
  endfacet
  facet normal -0.987688 -0.156434 0
    outer loop
      vertex 0 0 0
      vertex -0.0489435 0.309017 6
      vertex -0.0489435 0.309017 0
    endloop
  endfacet
  facet normal -0.987688 -0.156434 0
    outer loop
      vertex -0.0489435 0.309017 6
      vertex 0 0 0
      vertex 0 0 6
    endloop
  endfacet
  facet normal 0.156432 -0.987689 0
    outer loop
      vertex -1.30902 0.951057 0
      vertex -1 1 6
      vertex -1.30902 0.951057 6
    endloop
  endfacet
  facet normal 0.156432 -0.987689 0
    outer loop
      vertex -1 1 6
      vertex -1.30902 0.951057 0
      vertex -1 1 0
    endloop
  endfacet
  facet normal -0.156435 0.987688 0
    outer loop
      vertex -0.690984 -0.951056 0
      vertex -1 -1 6
      vertex -0.690984 -0.951056 6
    endloop
  endfacet
  facet normal -0.156435 0.987688 0
    outer loop
      vertex -1 -1 6
      vertex -0.690984 -0.951056 0
      vertex -1 -1 0
    endloop
  endfacet
  facet normal -0.891006 0.453992 0
    outer loop
      vertex -0.190984 -0.587785 0
      vertex -0.0489435 -0.309016 6
      vertex -0.0489435 -0.309016 0
    endloop
  endfacet
  facet normal -0.891006 0.453992 0
    outer loop
      vertex -0.0489435 -0.309016 6
      vertex -0.190984 -0.587785 0
      vertex -0.190984 -0.587785 6
    endloop
  endfacet
  facet normal -0.453992 -0.891006 0
    outer loop
      vertex -0.690984 0.951057 0
      vertex -0.412215 0.809017 6
      vertex -0.690984 0.951057 6
    endloop
  endfacet
  facet normal -0.453992 -0.891006 -0
    outer loop
      vertex -0.412215 0.809017 6
      vertex -0.690984 0.951057 0
      vertex -0.412215 0.809017 0
    endloop
  endfacet
  facet normal -0.891006 -0.453992 0
    outer loop
      vertex -0.0489435 0.309017 0
      vertex -0.190984 0.587786 6
      vertex -0.190984 0.587786 0
    endloop
  endfacet
  facet normal -0.891006 -0.453992 0
    outer loop
      vertex -0.190984 0.587786 6
      vertex -0.0489435 0.309017 0
      vertex -0.0489435 0.309017 6
    endloop
  endfacet
  facet normal -0.156432 -0.987689 0
    outer loop
      vertex -1 1 0
      vertex -0.690984 0.951057 6
      vertex -1 1 6
    endloop
  endfacet
  facet normal -0.156432 -0.987689 -0
    outer loop
      vertex -0.690984 0.951057 6
      vertex -1 1 0
      vertex -0.690984 0.951057 0
    endloop
  endfacet
  facet normal 0.891006 -0.453992 0
    outer loop
      vertex -1.95106 0.309017 6
      vertex -1.80902 0.587786 0
      vertex -1.80902 0.587786 6
    endloop
  endfacet
  facet normal 0.891006 -0.453992 0
    outer loop
      vertex -1.80902 0.587786 0
      vertex -1.95106 0.309017 6
      vertex -1.95106 0.309017 0
    endloop
  endfacet
  facet normal 0.987689 -0.156432 0
    outer loop
      vertex -2 9.53674e-07 6
      vertex -1.95106 0.309017 0
      vertex -1.95106 0.309017 6
    endloop
  endfacet
  facet normal 0.987689 -0.156432 0
    outer loop
      vertex -1.95106 0.309017 0
      vertex -2 9.53674e-07 6
      vertex -2 9.53674e-07 0
    endloop
  endfacet
  facet normal 0.453992 -0.891006 0
    outer loop
      vertex -1.58779 0.809017 0
      vertex -1.30902 0.951057 6
      vertex -1.58779 0.809017 6
    endloop
  endfacet
  facet normal 0.453992 -0.891006 0
    outer loop
      vertex -1.30902 0.951057 6
      vertex -1.58779 0.809017 0
      vertex -1.30902 0.951057 0
    endloop
  endfacet
  facet normal -0.987688 0.156435 0
    outer loop
      vertex -0.0489435 -0.309016 0
      vertex 0 0 6
      vertex 0 0 0
    endloop
  endfacet
  facet normal -0.987688 0.156435 0
    outer loop
      vertex 0 0 6
      vertex -0.0489435 -0.309016 0
      vertex -0.0489435 -0.309016 6
    endloop
  endfacet
  facet normal -0.707107 -0.707107 0
    outer loop
      vertex -0.190984 0.587786 0
      vertex -0.412215 0.809017 6
      vertex -0.412215 0.809017 0
    endloop
  endfacet
  facet normal -0.707107 -0.707107 0
    outer loop
      vertex -0.412215 0.809017 6
      vertex -0.190984 0.587786 0
      vertex -0.190984 0.587786 6
    endloop
  endfacet
  facet normal 0.987689 0.156432 0
    outer loop
      vertex -1.95106 -0.309016 6
      vertex -2 9.53674e-07 0
      vertex -2 9.53674e-07 6
    endloop
  endfacet
  facet normal 0.987689 0.156432 0
    outer loop
      vertex -2 9.53674e-07 0
      vertex -1.95106 -0.309016 6
      vertex -1.95106 -0.309016 0
    endloop
  endfacet
  facet normal 0.707107 -0.707107 0
    outer loop
      vertex -1.80902 0.587786 6
      vertex -1.58779 0.809017 0
      vertex -1.58779 0.809017 6
    endloop
  endfacet
  facet normal 0.707107 -0.707107 0
    outer loop
      vertex -1.58779 0.809017 0
      vertex -1.80902 0.587786 6
      vertex -1.80902 0.587786 0
    endloop
  endfacet
  facet normal -0.453992 0.891006 0
    outer loop
      vertex -0.412215 -0.809016 0
      vertex -0.690984 -0.951056 6
      vertex -0.412215 -0.809016 6
    endloop
  endfacet
  facet normal -0.453992 0.891006 0
    outer loop
      vertex -0.690984 -0.951056 6
      vertex -0.412215 -0.809016 0
      vertex -0.690984 -0.951056 0
    endloop
  endfacet
  facet normal 0.891006 0.453992 0
    outer loop
      vertex -1.80902 -0.587785 6
      vertex -1.95106 -0.309016 0
      vertex -1.95106 -0.309016 6
    endloop
  endfacet
  facet normal 0.891006 0.453992 0
    outer loop
      vertex -1.95106 -0.309016 0
      vertex -1.80902 -0.587785 6
      vertex -1.80902 -0.587785 0
    endloop
  endfacet
  facet normal -0.707107 0.707107 0
    outer loop
      vertex -0.412215 -0.809016 0
      vertex -0.190984 -0.587785 6
      vertex -0.190984 -0.587785 0
    endloop
  endfacet
  facet normal -0.707107 0.707107 0
    outer loop
      vertex -0.190984 -0.587785 6
      vertex -0.412215 -0.809016 0
      vertex -0.412215 -0.809016 6
    endloop
  endfacet
  facet normal 0.156434 0.987688 -0
    outer loop
      vertex -1 -1 0
      vertex -1.30902 -0.951056 6
      vertex -1 -1 6
    endloop
  endfacet
  facet normal 0.156434 0.987688 0
    outer loop
      vertex -1.30902 -0.951056 6
      vertex -1 -1 0
      vertex -1.30902 -0.951056 0
    endloop
  endfacet
  facet normal 0.707107 0.707107 0
    outer loop
      vertex -1.58779 -0.809016 6
      vertex -1.80902 -0.587785 0
      vertex -1.80902 -0.587785 6
    endloop
  endfacet
  facet normal 0.707107 0.707107 0
    outer loop
      vertex -1.80902 -0.587785 0
      vertex -1.58779 -0.809016 6
      vertex -1.58779 -0.809016 0
    endloop
  endfacet
  facet normal 0.453992 0.891006 -0
    outer loop
      vertex -1.30902 -0.951056 0
      vertex -1.58779 -0.809016 6
      vertex -1.30902 -0.951056 6
    endloop
  endfacet
  facet normal 0.453992 0.891006 0
    outer loop
      vertex -1.58779 -0.809016 6
      vertex -1.30902 -0.951056 0
      vertex -1.58779 -0.809016 0
    endloop
  endfacet
  facet normal 1 -0 0
    outer loop
      vertex -17.5 -1.5 6
      vertex -17.5 14.5 5
      vertex -17.5 14.5 6
    endloop
  endfacet
  facet normal 1 0 0
    outer loop
      vertex -17.5 14.5 5
      vertex -17.5 -1.5 6
      vertex -17.5 -1.5 5
    endloop
  endfacet
  facet normal -1 0 0
    outer loop
      vertex -4.5 -1.5 5
      vertex -4.5 14.5 6
      vertex -4.5 14.5 5
    endloop
  endfacet
  facet normal -1 -0 0
    outer loop
      vertex -4.5 14.5 6
      vertex -4.5 -1.5 5
      vertex -4.5 -1.5 6
    endloop
  endfacet
  facet normal 0 0 1
    outer loop
      vertex -4.5 14.5 5
      vertex -6.5 4.5 5
      vertex -4.5 -1.5 5
    endloop
  endfacet
  facet normal 0 0 1
    outer loop
      vertex -4.5 14.5 5
      vertex -15.5 4.5 5
      vertex -6.5 4.5 5
    endloop
  endfacet
  facet normal -0 0 1
    outer loop
      vertex -17.5 14.5 5
      vertex -15.5 4.5 5
      vertex -4.5 14.5 5
    endloop
  endfacet
  facet normal 0 0 1
    outer loop
      vertex -17.5 -1.5 5
      vertex -15.5 4.5 5
      vertex -17.5 14.5 5
    endloop
  endfacet
  facet normal 0 0 1
    outer loop
      vertex -15.5 4.5 5
      vertex -17.5 -1.5 5
      vertex -15.5 -1.5 5
    endloop
  endfacet
  facet normal 0 0 1
    outer loop
      vertex -4.5 -1.5 5
      vertex -6.5 4.5 5
      vertex -6.5 -1.5 5
    endloop
  endfacet
  facet normal 1 0 0
    outer loop
      vertex -15.5 -1.5 6
      vertex -15.5 -4.5 6
      vertex -15.5 -1.5 5
    endloop
  endfacet
  facet normal 1 -0 0
    outer loop
      vertex -15.5 -1.5 5
      vertex -15.5 4.5 0
      vertex -15.5 4.5 5
    endloop
  endfacet
  facet normal 1 0 0
    outer loop
      vertex -15.5 -4.5 0
      vertex -15.5 -1.5 5
      vertex -15.5 -4.5 6
    endloop
  endfacet
  facet normal 1 0 0
    outer loop
      vertex -15.5 -1.5 5
      vertex -15.5 -4.5 0
      vertex -15.5 4.5 0
    endloop
  endfacet
  facet normal -1 0 0
    outer loop
      vertex -6.5 4.5 0
      vertex -6.5 -1.5 5
      vertex -6.5 4.5 5
    endloop
  endfacet
  facet normal -1 0 0
    outer loop
      vertex -6.5 -4.5 0
      vertex -6.5 -1.5 5
      vertex -6.5 4.5 0
    endloop
  endfacet
  facet normal -1 0 0
    outer loop
      vertex -6.5 -4.5 6
      vertex -6.5 -1.5 5
      vertex -6.5 -4.5 0
    endloop
  endfacet
  facet normal -1 0 0
    outer loop
      vertex -6.5 -1.5 5
      vertex -6.5 -4.5 6
      vertex -6.5 -1.5 6
    endloop
  endfacet
  facet normal 0 -1 0
    outer loop
      vertex -15.5 4.5 0
      vertex -6.5 4.5 5
      vertex -15.5 4.5 5
    endloop
  endfacet
  facet normal 0 -1 -0
    outer loop
      vertex -6.5 4.5 5
      vertex -15.5 4.5 0
      vertex -6.5 4.5 0
    endloop
  endfacet
  facet normal -1 0 0
    outer loop
      vertex -29.5 -29.5 0
      vertex -29.5 29.5 6
      vertex -29.5 29.5 0
    endloop
  endfacet
  facet normal -1 -0 0
    outer loop
      vertex -29.5 29.5 6
      vertex -29.5 -29.5 0
      vertex -29.5 -29.5 6
    endloop
  endfacet
  facet normal 1 -0 0
    outer loop
      vertex 29.5 -29.5 6
      vertex 29.5 29.5 0
      vertex 29.5 29.5 6
    endloop
  endfacet
  facet normal 1 0 0
    outer loop
      vertex 29.5 29.5 0
      vertex 29.5 -29.5 6
      vertex 29.5 -29.5 0
    endloop
  endfacet
  facet normal 0 -1 0
    outer loop
      vertex -29.5 -29.5 0
      vertex 29.5 -29.5 6
      vertex -29.5 -29.5 6
    endloop
  endfacet
  facet normal 0 -1 -0
    outer loop
      vertex 29.5 -29.5 6
      vertex -29.5 -29.5 0
      vertex 29.5 -29.5 0
    endloop
  endfacet
  facet normal 0 1 -0
    outer loop
      vertex 29.5 29.5 0
      vertex -29.5 29.5 6
      vertex 29.5 29.5 6
    endloop
  endfacet
  facet normal 0 1 0
    outer loop
      vertex -29.5 29.5 6
      vertex 29.5 29.5 0
      vertex -29.5 29.5 0
    endloop
  endfacet
  facet normal 0 -1 0
    outer loop
      vertex -17.5 14.5 5
      vertex -4.5 14.5 6
      vertex -17.5 14.5 6
    endloop
  endfacet
  facet normal 0 -1 -0
    outer loop
      vertex -4.5 14.5 6
      vertex -17.5 14.5 5
      vertex -4.5 14.5 5
    endloop
  endfacet
  facet normal 0 1 -0
    outer loop
      vertex -15.5 -1.5 5
      vertex -17.5 -1.5 6
      vertex -15.5 -1.5 6
    endloop
  endfacet
  facet normal 0 1 0
    outer loop
      vertex -17.5 -1.5 6
      vertex -15.5 -1.5 5
      vertex -17.5 -1.5 5
    endloop
  endfacet
  facet normal 0 1 -0
    outer loop
      vertex -4.5 -1.5 5
      vertex -6.5 -1.5 6
      vertex -4.5 -1.5 6
    endloop
  endfacet
  facet normal 0 1 0
    outer loop
      vertex -6.5 -1.5 6
      vertex -4.5 -1.5 5
      vertex -6.5 -1.5 5
    endloop
  endfacet
  facet normal 0 1 -0
    outer loop
      vertex -6.5 -4.5 0
      vertex -15.5 -4.5 6
      vertex -6.5 -4.5 6
    endloop
  endfacet
  facet normal 0 1 0
    outer loop
      vertex -15.5 -4.5 6
      vertex -6.5 -4.5 0
      vertex -15.5 -4.5 0
    endloop
  endfacet
endsolid OpenSCAD_Model
