solid OpenSCAD_Model
  facet normal -1 0 0
    outer loop
      vertex -29.5 -29.5 0
      vertex -29.5 29.5 4
      vertex -29.5 29.5 0
    endloop
  endfacet
  facet normal -1 -0 0
    outer loop
      vertex -29.5 29.5 4
      vertex -29.5 -29.5 0
      vertex -29.5 -29.5 4
    endloop
  endfacet
  facet normal 0 0 1
    outer loop
      vertex 29.5 29.5 4
      vertex 27.5 17.5 4
      vertex 29.5 -29.5 4
    endloop
  endfacet
  facet normal 0 0 1
    outer loop
      vertex 29.5 29.5 4
      vertex -27.5 17.5 4
      vertex 27.5 17.5 4
    endloop
  endfacet
  facet normal 0 0 1
    outer loop
      vertex -27.5 17.5 4
      vertex -29.5 29.5 4
      vertex -27.5 -17.5 4
    endloop
  endfacet
  facet normal -0 0 1
    outer loop
      vertex -29.5 29.5 4
      vertex -27.5 17.5 4
      vertex 29.5 29.5 4
    endloop
  endfacet
  facet normal -0 0 1
    outer loop
      vertex 27.5 -17.5 4
      vertex 29.5 -29.5 4
      vertex 27.5 17.5 4
    endloop
  endfacet
  facet normal -0 0 1
    outer loop
      vertex -27.5 -17.5 4
      vertex 29.5 -29.5 4
      vertex 27.5 -17.5 4
    endloop
  endfacet
  facet normal 0 0 1
    outer loop
      vertex -27.5 -17.5 4
      vertex -29.5 -29.5 4
      vertex 29.5 -29.5 4
    endloop
  endfacet
  facet normal 0 0 1
    outer loop
      vertex -29.5 -29.5 4
      vertex -27.5 -17.5 4
      vertex -29.5 29.5 4
    endloop
  endfacet
  facet normal 1 -0 0
    outer loop
      vertex 29.5 -29.5 4
      vertex 29.5 29.5 0
      vertex 29.5 29.5 4
    endloop
  endfacet
  facet normal 1 0 0
    outer loop
      vertex 29.5 29.5 0
      vertex 29.5 -29.5 4
      vertex 29.5 -29.5 0
    endloop
  endfacet
  facet normal 0 0 -1
    outer loop
      vertex 29.5 -29.5 0
      vertex 25 -12.5 0
      vertex 29.5 29.5 0
    endloop
  endfacet
  facet normal 0 0 -1
    outer loop
      vertex 29.5 -29.5 0
      vertex -25 -12.5 0
      vertex 25 -12.5 0
    endloop
  endfacet
  facet normal -0 0 -1
    outer loop
      vertex -25 -12.5 0
      vertex -29.5 -29.5 0
      vertex -25 12.5 0
    endloop
  endfacet
  facet normal 0 0 -1
    outer loop
      vertex -29.5 -29.5 0
      vertex -25 -12.5 0
      vertex 29.5 -29.5 0
    endloop
  endfacet
  facet normal 0 0 -1
    outer loop
      vertex 25 12.5 0
      vertex 29.5 29.5 0
      vertex 25 -12.5 0
    endloop
  endfacet
  facet normal 0 0 -1
    outer loop
      vertex -25 12.5 0
      vertex 29.5 29.5 0
      vertex 25 12.5 0
    endloop
  endfacet
  facet normal 0 0 -1
    outer loop
      vertex -25 12.5 0
      vertex -29.5 29.5 0
      vertex 29.5 29.5 0
    endloop
  endfacet
  facet normal 0 0 -1
    outer loop
      vertex -29.5 29.5 0
      vertex -25 12.5 0
      vertex -29.5 -29.5 0
    endloop
  endfacet
  facet normal 0 -1 0
    outer loop
      vertex -29.5 -29.5 0
      vertex 29.5 -29.5 4
      vertex -29.5 -29.5 4
    endloop
  endfacet
  facet normal 0 -1 -0
    outer loop
      vertex 29.5 -29.5 4
      vertex -29.5 -29.5 0
      vertex 29.5 -29.5 0
    endloop
  endfacet
  facet normal 0 1 -0
    outer loop
      vertex 29.5 29.5 0
      vertex -29.5 29.5 4
      vertex 29.5 29.5 4
    endloop
  endfacet
  facet normal 0 1 0
    outer loop
      vertex -29.5 29.5 4
      vertex 29.5 29.5 0
      vertex -29.5 29.5 0
    endloop
  endfacet
  facet normal 1 -0 0
    outer loop
      vertex -27.5 -17.5 4
      vertex -27.5 17.5 2.1
      vertex -27.5 17.5 4
    endloop
  endfacet
  facet normal 1 0 0
    outer loop
      vertex -27.5 17.5 2.1
      vertex -27.5 -17.5 4
      vertex -27.5 -17.5 2.1
    endloop
  endfacet
  facet normal -1 0 0
    outer loop
      vertex 27.5 -17.5 2.1
      vertex 27.5 17.5 4
      vertex 27.5 17.5 2.1
    endloop
  endfacet
  facet normal -1 -0 0
    outer loop
      vertex 27.5 17.5 4
      vertex 27.5 -17.5 2.1
      vertex 27.5 -17.5 4
    endloop
  endfacet
  facet normal 0 -1 0
    outer loop
      vertex -27.5 17.5 2.1
      vertex 27.5 17.5 4
      vertex -27.5 17.5 4
    endloop
  endfacet
  facet normal 0 -1 -0
    outer loop
      vertex 27.5 17.5 4
      vertex -27.5 17.5 2.1
      vertex 27.5 17.5 2.1
    endloop
  endfacet
  facet normal 0 0 1
    outer loop
      vertex 27.5 17.5 2.1
      vertex 25 12.5 2.1
      vertex 27.5 -17.5 2.1
    endloop
  endfacet
  facet normal 0 0 1
    outer loop
      vertex 27.5 17.5 2.1
      vertex -25 12.5 2.1
      vertex 25 12.5 2.1
    endloop
  endfacet
  facet normal 0 0 1
    outer loop
      vertex -25 12.5 2.1
      vertex -27.5 17.5 2.1
      vertex -25 -12.5 2.1
    endloop
  endfacet
  facet normal -0 0 1
    outer loop
      vertex -27.5 17.5 2.1
      vertex -25 12.5 2.1
      vertex 27.5 17.5 2.1
    endloop
  endfacet
  facet normal -0 0 1
    outer loop
      vertex 25 -12.5 2.1
      vertex 27.5 -17.5 2.1
      vertex 25 12.5 2.1
    endloop
  endfacet
  facet normal -0 0 1
    outer loop
      vertex -25 -12.5 2.1
      vertex 27.5 -17.5 2.1
      vertex 25 -12.5 2.1
    endloop
  endfacet
  facet normal 0 0 1
    outer loop
      vertex -25 -12.5 2.1
      vertex -27.5 -17.5 2.1
      vertex 27.5 -17.5 2.1
    endloop
  endfacet
  facet normal 0 0 1
    outer loop
      vertex -27.5 -17.5 2.1
      vertex -25 -12.5 2.1
      vertex -27.5 17.5 2.1
    endloop
  endfacet
  facet normal 0 1 -0
    outer loop
      vertex 27.5 -17.5 2.1
      vertex -27.5 -17.5 4
      vertex 27.5 -17.5 4
    endloop
  endfacet
  facet normal 0 1 0
    outer loop
      vertex -27.5 -17.5 4
      vertex 27.5 -17.5 2.1
      vertex -27.5 -17.5 2.1
    endloop
  endfacet
  facet normal 1 -0 0
    outer loop
      vertex -25 -12.5 2.1
      vertex -25 12.5 0
      vertex -25 12.5 2.1
    endloop
  endfacet
  facet normal 1 0 0
    outer loop
      vertex -25 12.5 0
      vertex -25 -12.5 2.1
      vertex -25 -12.5 0
    endloop
  endfacet
  facet normal -1 0 0
    outer loop
      vertex 25 -12.5 0
      vertex 25 12.5 2.1
      vertex 25 12.5 0
    endloop
  endfacet
  facet normal -1 -0 0
    outer loop
      vertex 25 12.5 2.1
      vertex 25 -12.5 0
      vertex 25 -12.5 2.1
    endloop
  endfacet
  facet normal 0 1 -0
    outer loop
      vertex 25 -12.5 0
      vertex -25 -12.5 2.1
      vertex 25 -12.5 2.1
    endloop
  endfacet
  facet normal 0 1 0
    outer loop
      vertex -25 -12.5 2.1
      vertex 25 -12.5 0
      vertex -25 -12.5 0
    endloop
  endfacet
  facet normal 0 -1 0
    outer loop
      vertex -25 12.5 0
      vertex 25 12.5 2.1
      vertex -25 12.5 2.1
    endloop
  endfacet
  facet normal 0 -1 -0
    outer loop
      vertex 25 12.5 2.1
      vertex -25 12.5 0
      vertex 25 12.5 0
    endloop
  endfacet
endsolid OpenSCAD_Model
