solid OpenSCAD_Model
  facet normal -1 0 0
    outer loop
      vertex -21 -19.5 0
      vertex -21 19.5 3.3
      vertex -21 19.5 0
    endloop
  endfacet
  facet normal -1 -0 0
    outer loop
      vertex -21 19.5 3.3
      vertex -21 -19.5 0
      vertex -21 -19.5 3.3
    endloop
  endfacet
  facet normal -0 0 1
    outer loop
      vertex -21 19.5 3.3
      vertex -16 18.5 3.3
      vertex -16 19.5 3.3
    endloop
  endfacet
  facet normal 0 0 1
    outer loop
      vertex -16 18.5 3.3
      vertex -21 19.5 3.3
      vertex -16 -18.5 3.3
    endloop
  endfacet
  facet normal 0 0 1
    outer loop
      vertex -21 -19.5 3.3
      vertex -16 -18.5 3.3
      vertex -21 19.5 3.3
    endloop
  endfacet
  facet normal 0 0 1
    outer loop
      vertex -16 -18.5 3.3
      vertex -21 -19.5 3.3
      vertex -16 -19.5 3.3
    endloop
  endfacet
  facet normal 0 0 1
    outer loop
      vertex -9 13.5 3.3
      vertex -9.90783 12.2065 3.3
      vertex -9 -13.5 3.3
    endloop
  endfacet
  facet normal 0 0 1
    outer loop
      vertex -9 -13.5 3.3
      vertex -9.71607 -12.5828 3.3
      vertex -9.65 -13 3.3
    endloop
  endfacet
  facet normal -0 0 1
    outer loop
      vertex -9.90783 -12.2065 3.3
      vertex -9 -13.5 3.3
      vertex -9.90783 12.2065 3.3
    endloop
  endfacet
  facet normal 0 0 1
    outer loop
      vertex -9 -13.5 3.3
      vertex -9.90783 -12.2065 3.3
      vertex -9.71607 -12.5828 3.3
    endloop
  endfacet
  facet normal -0 0 1
    outer loop
      vertex -10.2065 11.9078 3.3
      vertex -9.90783 -12.2065 3.3
      vertex -9.90783 12.2065 3.3
    endloop
  endfacet
  facet normal 0 0 1
    outer loop
      vertex -10.2065 11.9078 3.3
      vertex -10.2065 -11.9078 3.3
      vertex -9.90783 -12.2065 3.3
    endloop
  endfacet
  facet normal -0 0 1
    outer loop
      vertex -10.5828 11.7161 3.3
      vertex -10.2065 -11.9078 3.3
      vertex -10.2065 11.9078 3.3
    endloop
  endfacet
  facet normal 0 0 1
    outer loop
      vertex -10.5828 11.7161 3.3
      vertex -10.5828 -11.7161 3.3
      vertex -10.2065 -11.9078 3.3
    endloop
  endfacet
  facet normal -0 0 1
    outer loop
      vertex -11 11.65 3.3
      vertex -10.5828 -11.7161 3.3
      vertex -10.5828 11.7161 3.3
    endloop
  endfacet
  facet normal 0 0 1
    outer loop
      vertex -11 11.65 3.3
      vertex -11 -11.65 3.3
      vertex -10.5828 -11.7161 3.3
    endloop
  endfacet
  facet normal 0 0 1
    outer loop
      vertex -11.4172 11.7161 3.3
      vertex -11 -11.65 3.3
      vertex -11 11.65 3.3
    endloop
  endfacet
  facet normal 0 0 1
    outer loop
      vertex -11.4172 11.7161 3.3
      vertex -11.4172 -11.7161 3.3
      vertex -11 -11.65 3.3
    endloop
  endfacet
  facet normal 0 0 1
    outer loop
      vertex -11.7935 11.9078 3.3
      vertex -11.4172 -11.7161 3.3
      vertex -11.4172 11.7161 3.3
    endloop
  endfacet
  facet normal 0 0 1
    outer loop
      vertex -11.7935 11.9078 3.3
      vertex -11.7935 -11.9078 3.3
      vertex -11.4172 -11.7161 3.3
    endloop
  endfacet
  facet normal 0 0 1
    outer loop
      vertex -12.0922 12.2065 3.3
      vertex -11.7935 -11.9078 3.3
      vertex -11.7935 11.9078 3.3
    endloop
  endfacet
  facet normal 0 0 1
    outer loop
      vertex -12.0922 12.2065 3.3
      vertex -12.0922 -12.2065 3.3
      vertex -11.7935 -11.9078 3.3
    endloop
  endfacet
  facet normal 0 0 1
    outer loop
      vertex -12.2839 12.5828 3.3
      vertex -12.0922 -12.2065 3.3
      vertex -12.0922 12.2065 3.3
    endloop
  endfacet
  facet normal 0 0 1
    outer loop
      vertex -12.2839 12.5828 3.3
      vertex -12.2839 -12.5828 3.3
      vertex -12.0922 -12.2065 3.3
    endloop
  endfacet
  facet normal 0 0 1
    outer loop
      vertex -16 18.5 3.3
      vertex -12.2839 12.5828 3.3
      vertex -12.35 13 3.3
    endloop
  endfacet
  facet normal 0 0 1
    outer loop
      vertex -12.2839 12.5828 3.3
      vertex -16 18.5 3.3
      vertex -12.2839 -12.5828 3.3
    endloop
  endfacet
  facet normal 0 0 1
    outer loop
      vertex 21 19.5 3.3
      vertex 12.0922 12.2065 3.3
      vertex 21 -19.5 3.3
    endloop
  endfacet
  facet normal 0 0 1
    outer loop
      vertex 21 -19.5 3.3
      vertex 12.2839 -12.5828 3.3
      vertex 12.35 -13 3.3
    endloop
  endfacet
  facet normal -0 0 1
    outer loop
      vertex 12.0922 -12.2065 3.3
      vertex 21 -19.5 3.3
      vertex 12.0922 12.2065 3.3
    endloop
  endfacet
  facet normal 0 0 1
    outer loop
      vertex 21 -19.5 3.3
      vertex 12.0922 -12.2065 3.3
      vertex 12.2839 -12.5828 3.3
    endloop
  endfacet
  facet normal -0 0 1
    outer loop
      vertex 11.7935 11.9078 3.3
      vertex 12.0922 -12.2065 3.3
      vertex 12.0922 12.2065 3.3
    endloop
  endfacet
  facet normal 0 0 1
    outer loop
      vertex 11.7935 11.9078 3.3
      vertex 11.7935 -11.9078 3.3
      vertex 12.0922 -12.2065 3.3
    endloop
  endfacet
  facet normal -0 0 1
    outer loop
      vertex 11.4172 11.7161 3.3
      vertex 11.7935 -11.9078 3.3
      vertex 11.7935 11.9078 3.3
    endloop
  endfacet
  facet normal 0 0 1
    outer loop
      vertex 11.4172 11.7161 3.3
      vertex 11.4172 -11.7161 3.3
      vertex 11.7935 -11.9078 3.3
    endloop
  endfacet
  facet normal -0 0 1
    outer loop
      vertex 11 11.65 3.3
      vertex 11.4172 -11.7161 3.3
      vertex 11.4172 11.7161 3.3
    endloop
  endfacet
  facet normal 0 0 1
    outer loop
      vertex 11 11.65 3.3
      vertex 11 -11.65 3.3
      vertex 11.4172 -11.7161 3.3
    endloop
  endfacet
  facet normal 0 0 1
    outer loop
      vertex 10.5828 11.7161 3.3
      vertex 11 -11.65 3.3
      vertex 11 11.65 3.3
    endloop
  endfacet
  facet normal 0 0 1
    outer loop
      vertex 10.5828 11.7161 3.3
      vertex 10.5828 -11.7161 3.3
      vertex 11 -11.65 3.3
    endloop
  endfacet
  facet normal 0 0 1
    outer loop
      vertex 10.2065 11.9078 3.3
      vertex 10.5828 -11.7161 3.3
      vertex 10.5828 11.7161 3.3
    endloop
  endfacet
  facet normal 0 0 1
    outer loop
      vertex 10.2065 11.9078 3.3
      vertex 10.2065 -11.9078 3.3
      vertex 10.5828 -11.7161 3.3
    endloop
  endfacet
  facet normal 0 0 1
    outer loop
      vertex 9.90783 12.2065 3.3
      vertex 10.2065 -11.9078 3.3
      vertex 10.2065 11.9078 3.3
    endloop
  endfacet
  facet normal 0 0 1
    outer loop
      vertex 9.90783 12.2065 3.3
      vertex 9.90783 -12.2065 3.3
      vertex 10.2065 -11.9078 3.3
    endloop
  endfacet
  facet normal 0 0 1
    outer loop
      vertex 9 13.5 3.3
      vertex 9.90783 12.2065 3.3
      vertex 9.71607 12.5828 3.3
    endloop
  endfacet
  facet normal 0 0 1
    outer loop
      vertex 9.90783 12.2065 3.3
      vertex 9 13.5 3.3
      vertex 9.90783 -12.2065 3.3
    endloop
  endfacet
  facet normal 0 0 1
    outer loop
      vertex 9 13.5 3.3
      vertex 9.71607 12.5828 3.3
      vertex 9.65 13 3.3
    endloop
  endfacet
  facet normal 0 0 1
    outer loop
      vertex 9 -13.5 3.3
      vertex 9.90783 -12.2065 3.3
      vertex 9 13.5 3.3
    endloop
  endfacet
  facet normal 0 0 1
    outer loop
      vertex 12.0922 12.2065 3.3
      vertex 21 19.5 3.3
      vertex 12.2839 12.5828 3.3
    endloop
  endfacet
  facet normal 0 0 1
    outer loop
      vertex 16 18.5 3.3
      vertex 12.2839 13.4172 3.3
      vertex 12.35 13 3.3
    endloop
  endfacet
  facet normal 0 0 1
    outer loop
      vertex 16 18.5 3.3
      vertex 12.0922 13.7935 3.3
      vertex 12.2839 13.4172 3.3
    endloop
  endfacet
  facet normal 0 0 1
    outer loop
      vertex 16 18.5 3.3
      vertex 11.7935 14.0922 3.3
      vertex 12.0922 13.7935 3.3
    endloop
  endfacet
  facet normal 0 0 1
    outer loop
      vertex 16 18.5 3.3
      vertex 11.4172 14.2839 3.3
      vertex 11.7935 14.0922 3.3
    endloop
  endfacet
  facet normal 0 0 1
    outer loop
      vertex 16 18.5 3.3
      vertex 11 14.35 3.3
      vertex 11.4172 14.2839 3.3
    endloop
  endfacet
  facet normal 0 0 1
    outer loop
      vertex 16 18.5 3.3
      vertex 10.5828 14.2839 3.3
      vertex 11 14.35 3.3
    endloop
  endfacet
  facet normal 0 0 1
    outer loop
      vertex 16 18.5 3.3
      vertex 10.2065 14.0922 3.3
      vertex 10.5828 14.2839 3.3
    endloop
  endfacet
  facet normal 0 0 1
    outer loop
      vertex 9.90783 -12.2065 3.3
      vertex 9 -13.5 3.3
      vertex 9.71607 -12.5828 3.3
    endloop
  endfacet
  facet normal 0 0 1
    outer loop
      vertex 9.71607 13.4172 3.3
      vertex 9 13.5 3.3
      vertex 9.65 13 3.3
    endloop
  endfacet
  facet normal 0 0 1
    outer loop
      vertex 9.90783 13.7935 3.3
      vertex 9 13.5 3.3
      vertex 9.71607 13.4172 3.3
    endloop
  endfacet
  facet normal 0 0 1
    outer loop
      vertex 10.2065 14.0922 3.3
      vertex 9 13.5 3.3
      vertex 9.90783 13.7935 3.3
    endloop
  endfacet
  facet normal 0 0 1
    outer loop
      vertex 16 18.5 3.3
      vertex 9 13.5 3.3
      vertex 10.2065 14.0922 3.3
    endloop
  endfacet
  facet normal 0 0 1
    outer loop
      vertex 16 18.5 3.3
      vertex -9 13.5 3.3
      vertex 9 13.5 3.3
    endloop
  endfacet
  facet normal 0 0 1
    outer loop
      vertex -9.71607 12.5828 3.3
      vertex -9 13.5 3.3
      vertex -9.65 13 3.3
    endloop
  endfacet
  facet normal 0 0 1
    outer loop
      vertex -9 13.5 3.3
      vertex -9.71607 13.4172 3.3
      vertex -9.65 13 3.3
    endloop
  endfacet
  facet normal -0 0 1
    outer loop
      vertex -10.2065 14.0922 3.3
      vertex -9 13.5 3.3
      vertex 16 18.5 3.3
    endloop
  endfacet
  facet normal 0 0 1
    outer loop
      vertex -9 13.5 3.3
      vertex -9.90783 13.7935 3.3
      vertex -9.71607 13.4172 3.3
    endloop
  endfacet
  facet normal 0 0 1
    outer loop
      vertex -9 13.5 3.3
      vertex -10.2065 14.0922 3.3
      vertex -9.90783 13.7935 3.3
    endloop
  endfacet
  facet normal -0 0 1
    outer loop
      vertex -16 18.5 3.3
      vertex -10.2065 14.0922 3.3
      vertex 16 18.5 3.3
    endloop
  endfacet
  facet normal 0 0 1
    outer loop
      vertex -10.2065 14.0922 3.3
      vertex -16 18.5 3.3
      vertex -10.5828 14.2839 3.3
    endloop
  endfacet
  facet normal 0 0 1
    outer loop
      vertex -16 -18.5 3.3
      vertex -12.2839 -12.5828 3.3
      vertex -16 18.5 3.3
    endloop
  endfacet
  facet normal 0 0 1
    outer loop
      vertex -12.2839 13.4172 3.3
      vertex -16 18.5 3.3
      vertex -12.35 13 3.3
    endloop
  endfacet
  facet normal 0 0 1
    outer loop
      vertex -12.0922 13.7935 3.3
      vertex -16 18.5 3.3
      vertex -12.2839 13.4172 3.3
    endloop
  endfacet
  facet normal 0 0 1
    outer loop
      vertex -11.7935 14.0922 3.3
      vertex -16 18.5 3.3
      vertex -12.0922 13.7935 3.3
    endloop
  endfacet
  facet normal 0 0 1
    outer loop
      vertex -11.4172 14.2839 3.3
      vertex -16 18.5 3.3
      vertex -11.7935 14.0922 3.3
    endloop
  endfacet
  facet normal 0 0 1
    outer loop
      vertex -11 14.35 3.3
      vertex -16 18.5 3.3
      vertex -11.4172 14.2839 3.3
    endloop
  endfacet
  facet normal 0 0 1
    outer loop
      vertex -10.5828 14.2839 3.3
      vertex -16 18.5 3.3
      vertex -11 14.35 3.3
    endloop
  endfacet
  facet normal 0 0 1
    outer loop
      vertex 16 18.5 3.3
      vertex 21 19.5 3.3
      vertex 16 19.5 3.3
    endloop
  endfacet
  facet normal 0 0 1
    outer loop
      vertex 12.35 13 3.3
      vertex 21 19.5 3.3
      vertex 16 18.5 3.3
    endloop
  endfacet
  facet normal 0 0 1
    outer loop
      vertex 12.2839 12.5828 3.3
      vertex 21 19.5 3.3
      vertex 12.35 13 3.3
    endloop
  endfacet
  facet normal 0 0 1
    outer loop
      vertex 21 -19.5 3.3
      vertex 16 -18.5 3.3
      vertex 16 -19.5 3.3
    endloop
  endfacet
  facet normal 0 0 1
    outer loop
      vertex 21 -19.5 3.3
      vertex 12.35 -13 3.3
      vertex 16 -18.5 3.3
    endloop
  endfacet
  facet normal -0 0 1
    outer loop
      vertex 12.2839 -13.4172 3.3
      vertex 16 -18.5 3.3
      vertex 12.35 -13 3.3
    endloop
  endfacet
  facet normal -0 0 1
    outer loop
      vertex 12.0922 -13.7935 3.3
      vertex 16 -18.5 3.3
      vertex 12.2839 -13.4172 3.3
    endloop
  endfacet
  facet normal -0 0 1
    outer loop
      vertex 11.7935 -14.0922 3.3
      vertex 16 -18.5 3.3
      vertex 12.0922 -13.7935 3.3
    endloop
  endfacet
  facet normal -0 0 1
    outer loop
      vertex 11.4172 -14.2839 3.3
      vertex 16 -18.5 3.3
      vertex 11.7935 -14.0922 3.3
    endloop
  endfacet
  facet normal -0 0 1
    outer loop
      vertex 11 -14.35 3.3
      vertex 16 -18.5 3.3
      vertex 11.4172 -14.2839 3.3
    endloop
  endfacet
  facet normal 0 0 1
    outer loop
      vertex 10.5828 -14.2839 3.3
      vertex 16 -18.5 3.3
      vertex 11 -14.35 3.3
    endloop
  endfacet
  facet normal 0 0 1
    outer loop
      vertex 10.2065 -14.0922 3.3
      vertex 16 -18.5 3.3
      vertex 10.5828 -14.2839 3.3
    endloop
  endfacet
  facet normal 0 0 1
    outer loop
      vertex 9.71607 -12.5828 3.3
      vertex 9 -13.5 3.3
      vertex 9.65 -13 3.3
    endloop
  endfacet
  facet normal 0 0 1
    outer loop
      vertex 9 -13.5 3.3
      vertex 9.71607 -13.4172 3.3
      vertex 9.65 -13 3.3
    endloop
  endfacet
  facet normal -0 0 1
    outer loop
      vertex 9 -13.5 3.3
      vertex 9.90783 -13.7935 3.3
      vertex 9.71607 -13.4172 3.3
    endloop
  endfacet
  facet normal 0 0 1
    outer loop
      vertex 9 -13.5 3.3
      vertex 10.2065 -14.0922 3.3
      vertex 9.90783 -13.7935 3.3
    endloop
  endfacet
  facet normal 0 0 1
    outer loop
      vertex 9 -13.5 3.3
      vertex 16 -18.5 3.3
      vertex 10.2065 -14.0922 3.3
    endloop
  endfacet
  facet normal -0 0 1
    outer loop
      vertex -9 -13.5 3.3
      vertex 16 -18.5 3.3
      vertex 9 -13.5 3.3
    endloop
  endfacet
  facet normal 0 0 1
    outer loop
      vertex -9.90783 12.2065 3.3
      vertex -9 13.5 3.3
      vertex -9.71607 12.5828 3.3
    endloop
  endfacet
  facet normal -0 0 1
    outer loop
      vertex -9.71607 -13.4172 3.3
      vertex -9 -13.5 3.3
      vertex -9.65 -13 3.3
    endloop
  endfacet
  facet normal 0 0 1
    outer loop
      vertex -9.90783 -13.7935 3.3
      vertex -9 -13.5 3.3
      vertex -9.71607 -13.4172 3.3
    endloop
  endfacet
  facet normal 0 0 1
    outer loop
      vertex -10.2065 -14.0922 3.3
      vertex -9 -13.5 3.3
      vertex -9.90783 -13.7935 3.3
    endloop
  endfacet
  facet normal 0 0 1
    outer loop
      vertex -9 -13.5 3.3
      vertex -10.2065 -14.0922 3.3
      vertex 16 -18.5 3.3
    endloop
  endfacet
  facet normal 0 0 1
    outer loop
      vertex -16 -18.5 3.3
      vertex -10.2065 -14.0922 3.3
      vertex -10.5828 -14.2839 3.3
    endloop
  endfacet
  facet normal 0 0 1
    outer loop
      vertex -16 -18.5 3.3
      vertex -10.5828 -14.2839 3.3
      vertex -11 -14.35 3.3
    endloop
  endfacet
  facet normal 0 0 1
    outer loop
      vertex -10.2065 -14.0922 3.3
      vertex -16 -18.5 3.3
      vertex 16 -18.5 3.3
    endloop
  endfacet
  facet normal 0 0 1
    outer loop
      vertex -11.4172 -14.2839 3.3
      vertex -16 -18.5 3.3
      vertex -11 -14.35 3.3
    endloop
  endfacet
  facet normal 0 0 1
    outer loop
      vertex -11.7935 -14.0922 3.3
      vertex -16 -18.5 3.3
      vertex -11.4172 -14.2839 3.3
    endloop
  endfacet
  facet normal 0 0 1
    outer loop
      vertex -12.0922 -13.7935 3.3
      vertex -16 -18.5 3.3
      vertex -11.7935 -14.0922 3.3
    endloop
  endfacet
  facet normal 0 0 1
    outer loop
      vertex -12.2839 -13.4172 3.3
      vertex -16 -18.5 3.3
      vertex -12.0922 -13.7935 3.3
    endloop
  endfacet
  facet normal 0 0 1
    outer loop
      vertex -12.35 -13 3.3
      vertex -16 -18.5 3.3
      vertex -12.2839 -13.4172 3.3
    endloop
  endfacet
  facet normal 0 0 1
    outer loop
      vertex -12.2839 -12.5828 3.3
      vertex -16 -18.5 3.3
      vertex -12.35 -13 3.3
    endloop
  endfacet
  facet normal 1 -0 0
    outer loop
      vertex 21 -19.5 3.3
      vertex 21 19.5 0
      vertex 21 19.5 3.3
    endloop
  endfacet
  facet normal 1 0 0
    outer loop
      vertex 21 19.5 0
      vertex 21 -19.5 3.3
      vertex 21 -19.5 0
    endloop
  endfacet
  facet normal 0 1 -0
    outer loop
      vertex 16 18.5 0
      vertex -16 18.5 3.3
      vertex 16 18.5 3.3
    endloop
  endfacet
  facet normal 0 1 0
    outer loop
      vertex -16 18.5 3.3
      vertex 16 18.5 0
      vertex -16 18.5 0
    endloop
  endfacet
  facet normal 0 0 -1
    outer loop
      vertex -21 -19.5 0
      vertex -16 -18.5 0
      vertex -16 -19.5 0
    endloop
  endfacet
  facet normal -0 0 -1
    outer loop
      vertex -16 -18.5 0
      vertex -21 -19.5 0
      vertex -16 18.5 0
    endloop
  endfacet
  facet normal 0 0 -1
    outer loop
      vertex -21 19.5 0
      vertex -16 18.5 0
      vertex -21 -19.5 0
    endloop
  endfacet
  facet normal 0 0 -1
    outer loop
      vertex -16 18.5 0
      vertex -21 19.5 0
      vertex -16 19.5 0
    endloop
  endfacet
  facet normal 0 0 -1
    outer loop
      vertex -10.2065 -11.9078 0
      vertex -3 -9 0
      vertex -9.90783 -12.2065 0
    endloop
  endfacet
  facet normal 0 0 -1
    outer loop
      vertex -3 9 0
      vertex -9.71607 12.5828 0
      vertex -9.65 13 0
    endloop
  endfacet
  facet normal 0 0 -1
    outer loop
      vertex -10.5828 -11.7161 0
      vertex -3 -9 0
      vertex -10.2065 -11.9078 0
    endloop
  endfacet
  facet normal 0 0 -1
    outer loop
      vertex -3 9 0
      vertex -9.90783 12.2065 0
      vertex -9.71607 12.5828 0
    endloop
  endfacet
  facet normal 0 0 -1
    outer loop
      vertex -11 -11.65 0
      vertex -3 -9 0
      vertex -10.5828 -11.7161 0
    endloop
  endfacet
  facet normal 0 0 -1
    outer loop
      vertex -3 9 0
      vertex -10.2065 11.9078 0
      vertex -9.90783 12.2065 0
    endloop
  endfacet
  facet normal -0 0 -1
    outer loop
      vertex -3 -9 0
      vertex -11 -11.65 0
      vertex -3 9 0
    endloop
  endfacet
  facet normal 0 0 -1
    outer loop
      vertex -3 9 0
      vertex -10.5828 11.7161 0
      vertex -10.2065 11.9078 0
    endloop
  endfacet
  facet normal 0 0 -1
    outer loop
      vertex -11 11.65 0
      vertex -3 9 0
      vertex -11 -11.65 0
    endloop
  endfacet
  facet normal 0 0 -1
    outer loop
      vertex -3 9 0
      vertex -11 11.65 0
      vertex -10.5828 11.7161 0
    endloop
  endfacet
  facet normal 0 0 -1
    outer loop
      vertex -11.4172 -11.7161 0
      vertex -11 11.65 0
      vertex -11 -11.65 0
    endloop
  endfacet
  facet normal 0 0 -1
    outer loop
      vertex -11.4172 -11.7161 0
      vertex -11.4172 11.7161 0
      vertex -11 11.65 0
    endloop
  endfacet
  facet normal 0 0 -1
    outer loop
      vertex -11.7935 -11.9078 0
      vertex -11.4172 11.7161 0
      vertex -11.4172 -11.7161 0
    endloop
  endfacet
  facet normal 0 0 -1
    outer loop
      vertex -11.7935 -11.9078 0
      vertex -11.7935 11.9078 0
      vertex -11.4172 11.7161 0
    endloop
  endfacet
  facet normal 0 0 -1
    outer loop
      vertex -12.0922 -12.2065 0
      vertex -11.7935 11.9078 0
      vertex -11.7935 -11.9078 0
    endloop
  endfacet
  facet normal 0 0 -1
    outer loop
      vertex -12.0922 -12.2065 0
      vertex -12.0922 12.2065 0
      vertex -11.7935 11.9078 0
    endloop
  endfacet
  facet normal 0 0 -1
    outer loop
      vertex -12.2839 -12.5828 0
      vertex -12.0922 12.2065 0
      vertex -12.0922 -12.2065 0
    endloop
  endfacet
  facet normal 0 0 -1
    outer loop
      vertex -12.2839 -12.5828 0
      vertex -12.2839 12.5828 0
      vertex -12.0922 12.2065 0
    endloop
  endfacet
  facet normal 0 0 -1
    outer loop
      vertex -16 -18.5 0
      vertex -12.2839 -12.5828 0
      vertex -12.35 -13 0
    endloop
  endfacet
  facet normal -0 0 -1
    outer loop
      vertex -12.2839 -12.5828 0
      vertex -16 -18.5 0
      vertex -12.2839 12.5828 0
    endloop
  endfacet
  facet normal 0 0 -1
    outer loop
      vertex 21 -19.5 0
      vertex 12.0922 -12.2065 0
      vertex 21 19.5 0
    endloop
  endfacet
  facet normal 0 0 -1
    outer loop
      vertex 21 19.5 0
      vertex 12.2839 12.5828 0
      vertex 12.35 13 0
    endloop
  endfacet
  facet normal 0 0 -1
    outer loop
      vertex 12.0922 12.2065 0
      vertex 21 19.5 0
      vertex 12.0922 -12.2065 0
    endloop
  endfacet
  facet normal 0 0 -1
    outer loop
      vertex 21 19.5 0
      vertex 12.0922 12.2065 0
      vertex 12.2839 12.5828 0
    endloop
  endfacet
  facet normal 0 0 -1
    outer loop
      vertex 11.7935 -11.9078 0
      vertex 12.0922 12.2065 0
      vertex 12.0922 -12.2065 0
    endloop
  endfacet
  facet normal 0 0 -1
    outer loop
      vertex 11.7935 -11.9078 0
      vertex 11.7935 11.9078 0
      vertex 12.0922 12.2065 0
    endloop
  endfacet
  facet normal 0 0 -1
    outer loop
      vertex 11.4172 -11.7161 0
      vertex 11.7935 11.9078 0
      vertex 11.7935 -11.9078 0
    endloop
  endfacet
  facet normal 0 0 -1
    outer loop
      vertex 11.4172 -11.7161 0
      vertex 11.4172 11.7161 0
      vertex 11.7935 11.9078 0
    endloop
  endfacet
  facet normal 0 0 -1
    outer loop
      vertex 11 -11.65 0
      vertex 11.4172 11.7161 0
      vertex 11.4172 -11.7161 0
    endloop
  endfacet
  facet normal 0 0 -1
    outer loop
      vertex 11 -11.65 0
      vertex 11 11.65 0
      vertex 11.4172 11.7161 0
    endloop
  endfacet
  facet normal 0 0 -1
    outer loop
      vertex 3 -9 0
      vertex 11 -11.65 0
      vertex 10.5828 -11.7161 0
    endloop
  endfacet
  facet normal 0 0 -1
    outer loop
      vertex 11 -11.65 0
      vertex 3 -9 0
      vertex 11 11.65 0
    endloop
  endfacet
  facet normal 0 0 -1
    outer loop
      vertex 3 -9 0
      vertex 10.5828 -11.7161 0
      vertex 10.2065 -11.9078 0
    endloop
  endfacet
  facet normal 0 0 -1
    outer loop
      vertex 3 9 0
      vertex 11 11.65 0
      vertex 3 -9 0
    endloop
  endfacet
  facet normal 0 0 -1
    outer loop
      vertex 3 -9 0
      vertex 10.2065 -11.9078 0
      vertex 9.90783 -12.2065 0
    endloop
  endfacet
  facet normal -0 0 -1
    outer loop
      vertex 11 11.65 0
      vertex 3 9 0
      vertex 10.5828 11.7161 0
    endloop
  endfacet
  facet normal 0 0 -1
    outer loop
      vertex 3 -9 0
      vertex 9.90783 -12.2065 0
      vertex 9.71607 -12.5828 0
    endloop
  endfacet
  facet normal -0 0 -1
    outer loop
      vertex 10.5828 11.7161 0
      vertex 3 9 0
      vertex 10.2065 11.9078 0
    endloop
  endfacet
  facet normal 0 0 -1
    outer loop
      vertex 3 -9 0
      vertex 9.71607 -12.5828 0
      vertex 9.65 -13 0
    endloop
  endfacet
  facet normal -0 0 -1
    outer loop
      vertex 10.2065 11.9078 0
      vertex 3 9 0
      vertex 9.90783 12.2065 0
    endloop
  endfacet
  facet normal 0 0 -1
    outer loop
      vertex 12.0922 -12.2065 0
      vertex 21 -19.5 0
      vertex 12.2839 -12.5828 0
    endloop
  endfacet
  facet normal 0 0 -1
    outer loop
      vertex 16 -18.5 0
      vertex 12.2839 -13.4172 0
      vertex 12.35 -13 0
    endloop
  endfacet
  facet normal 0 0 -1
    outer loop
      vertex 16 -18.5 0
      vertex 12.0922 -13.7935 0
      vertex 12.2839 -13.4172 0
    endloop
  endfacet
  facet normal 0 0 -1
    outer loop
      vertex 16 -18.5 0
      vertex 11.7935 -14.0922 0
      vertex 12.0922 -13.7935 0
    endloop
  endfacet
  facet normal 0 0 -1
    outer loop
      vertex 16 -18.5 0
      vertex 11.4172 -14.2839 0
      vertex 11.7935 -14.0922 0
    endloop
  endfacet
  facet normal 0 0 -1
    outer loop
      vertex 16 -18.5 0
      vertex 11 -14.35 0
      vertex 11.4172 -14.2839 0
    endloop
  endfacet
  facet normal 0 0 -1
    outer loop
      vertex 16 -18.5 0
      vertex 10.5828 -14.2839 0
      vertex 11 -14.35 0
    endloop
  endfacet
  facet normal 0 0 -1
    outer loop
      vertex 16 -18.5 0
      vertex 10.2065 -14.0922 0
      vertex 10.5828 -14.2839 0
    endloop
  endfacet
  facet normal -0 0 -1
    outer loop
      vertex 9.90783 12.2065 0
      vertex 3 9 0
      vertex 9.71607 12.5828 0
    endloop
  endfacet
  facet normal 0 0 -1
    outer loop
      vertex 9.71607 -13.4172 0
      vertex 3 -9 0
      vertex 9.65 -13 0
    endloop
  endfacet
  facet normal 0 0 -1
    outer loop
      vertex 9.90783 -13.7935 0
      vertex 3 -9 0
      vertex 9.71607 -13.4172 0
    endloop
  endfacet
  facet normal 0 0 -1
    outer loop
      vertex -9.90783 -13.7935 0
      vertex 9.90783 -13.7935 0
      vertex 10.2065 -14.0922 0
    endloop
  endfacet
  facet normal 0 0 -1
    outer loop
      vertex -10.2065 -14.0922 0
      vertex 10.2065 -14.0922 0
      vertex 16 -18.5 0
    endloop
  endfacet
  facet normal 0 0 -1
    outer loop
      vertex 9.90783 -13.7935 0
      vertex -9.90783 -13.7935 0
      vertex 3 -9 0
    endloop
  endfacet
  facet normal 0 0 -1
    outer loop
      vertex -9.71607 -12.5828 0
      vertex -3 -9 0
      vertex -9.65 -13 0
    endloop
  endfacet
  facet normal -0 0 -1
    outer loop
      vertex 3 -9 0
      vertex -9.90783 -13.7935 0
      vertex -3 -9 0
    endloop
  endfacet
  facet normal 0 0 -1
    outer loop
      vertex -3 -9 0
      vertex -9.71607 -13.4172 0
      vertex -9.65 -13 0
    endloop
  endfacet
  facet normal 0 0 -1
    outer loop
      vertex -3 -9 0
      vertex -9.90783 -13.7935 0
      vertex -9.71607 -13.4172 0
    endloop
  endfacet
  facet normal 0 0 -1
    outer loop
      vertex 10.2065 -14.0922 0
      vertex -10.2065 -14.0922 0
      vertex -9.90783 -13.7935 0
    endloop
  endfacet
  facet normal 0 0 -1
    outer loop
      vertex -16 -18.5 0
      vertex -10.2065 -14.0922 0
      vertex 16 -18.5 0
    endloop
  endfacet
  facet normal 0 0 -1
    outer loop
      vertex -10.2065 -14.0922 0
      vertex -16 -18.5 0
      vertex -10.5828 -14.2839 0
    endloop
  endfacet
  facet normal 0 0 -1
    outer loop
      vertex -16 18.5 0
      vertex -12.2839 12.5828 0
      vertex -16 -18.5 0
    endloop
  endfacet
  facet normal -0 0 -1
    outer loop
      vertex -12.2839 -13.4172 0
      vertex -16 -18.5 0
      vertex -12.35 -13 0
    endloop
  endfacet
  facet normal -0 0 -1
    outer loop
      vertex -12.0922 -13.7935 0
      vertex -16 -18.5 0
      vertex -12.2839 -13.4172 0
    endloop
  endfacet
  facet normal -0 0 -1
    outer loop
      vertex -11.7935 -14.0922 0
      vertex -16 -18.5 0
      vertex -12.0922 -13.7935 0
    endloop
  endfacet
  facet normal -0 0 -1
    outer loop
      vertex -11.4172 -14.2839 0
      vertex -16 -18.5 0
      vertex -11.7935 -14.0922 0
    endloop
  endfacet
  facet normal -0 0 -1
    outer loop
      vertex -11 -14.35 0
      vertex -16 -18.5 0
      vertex -11.4172 -14.2839 0
    endloop
  endfacet
  facet normal 0 0 -1
    outer loop
      vertex -10.5828 -14.2839 0
      vertex -16 -18.5 0
      vertex -11 -14.35 0
    endloop
  endfacet
  facet normal 0 0 -1
    outer loop
      vertex 16 -18.5 0
      vertex 21 -19.5 0
      vertex 16 -19.5 0
    endloop
  endfacet
  facet normal 0 0 -1
    outer loop
      vertex 12.35 -13 0
      vertex 21 -19.5 0
      vertex 16 -18.5 0
    endloop
  endfacet
  facet normal 0 0 -1
    outer loop
      vertex 12.2839 -12.5828 0
      vertex 21 -19.5 0
      vertex 12.35 -13 0
    endloop
  endfacet
  facet normal -0 0 -1
    outer loop
      vertex 21 19.5 0
      vertex 16 18.5 0
      vertex 16 19.5 0
    endloop
  endfacet
  facet normal 0 0 -1
    outer loop
      vertex 21 19.5 0
      vertex 12.35 13 0
      vertex 16 18.5 0
    endloop
  endfacet
  facet normal 0 0 -1
    outer loop
      vertex 12.2839 13.4172 0
      vertex 16 18.5 0
      vertex 12.35 13 0
    endloop
  endfacet
  facet normal 0 0 -1
    outer loop
      vertex 12.0922 13.7935 0
      vertex 16 18.5 0
      vertex 12.2839 13.4172 0
    endloop
  endfacet
  facet normal 0 0 -1
    outer loop
      vertex 11.7935 14.0922 0
      vertex 16 18.5 0
      vertex 12.0922 13.7935 0
    endloop
  endfacet
  facet normal 0 0 -1
    outer loop
      vertex 11.4172 14.2839 0
      vertex 16 18.5 0
      vertex 11.7935 14.0922 0
    endloop
  endfacet
  facet normal 0 0 -1
    outer loop
      vertex 11 14.35 0
      vertex 16 18.5 0
      vertex 11.4172 14.2839 0
    endloop
  endfacet
  facet normal 0 0 -1
    outer loop
      vertex 10.5828 14.2839 0
      vertex 16 18.5 0
      vertex 11 14.35 0
    endloop
  endfacet
  facet normal 0 0 -1
    outer loop
      vertex 10.2065 14.0922 0
      vertex 16 18.5 0
      vertex 10.5828 14.2839 0
    endloop
  endfacet
  facet normal -0 0 -1
    outer loop
      vertex 9.71607 12.5828 0
      vertex 3 9 0
      vertex 9.65 13 0
    endloop
  endfacet
  facet normal -0 0 -1
    outer loop
      vertex 9.65 13 0
      vertex 3 9 0
      vertex 9.71607 13.4172 0
    endloop
  endfacet
  facet normal 0 0 -1
    outer loop
      vertex 3 9 0
      vertex 9.90783 13.7935 0
      vertex 9.71607 13.4172 0
    endloop
  endfacet
  facet normal 0 0 -1
    outer loop
      vertex -9.90783 13.7935 0
      vertex 9.90783 13.7935 0
      vertex 3 9 0
    endloop
  endfacet
  facet normal 0 0 -1
    outer loop
      vertex 9.90783 13.7935 0
      vertex -9.90783 13.7935 0
      vertex 10.2065 14.0922 0
    endloop
  endfacet
  facet normal 0 0 -1
    outer loop
      vertex -9.90783 13.7935 0
      vertex 3 9 0
      vertex -3 9 0
    endloop
  endfacet
  facet normal 0 0 -1
    outer loop
      vertex -9.90783 -12.2065 0
      vertex -3 -9 0
      vertex -9.71607 -12.5828 0
    endloop
  endfacet
  facet normal 0 0 -1
    outer loop
      vertex -9.71607 13.4172 0
      vertex -3 9 0
      vertex -9.65 13 0
    endloop
  endfacet
  facet normal 0 0 -1
    outer loop
      vertex -9.90783 13.7935 0
      vertex -3 9 0
      vertex -9.71607 13.4172 0
    endloop
  endfacet
  facet normal 0 0 -1
    outer loop
      vertex -10.2065 14.0922 0
      vertex 10.2065 14.0922 0
      vertex -9.90783 13.7935 0
    endloop
  endfacet
  facet normal 0 0 -1
    outer loop
      vertex 10.2065 14.0922 0
      vertex -10.2065 14.0922 0
      vertex 16 18.5 0
    endloop
  endfacet
  facet normal 0 0 -1
    outer loop
      vertex -16 18.5 0
      vertex -10.2065 14.0922 0
      vertex -10.5828 14.2839 0
    endloop
  endfacet
  facet normal 0 0 -1
    outer loop
      vertex -16 18.5 0
      vertex -10.5828 14.2839 0
      vertex -11 14.35 0
    endloop
  endfacet
  facet normal 0 0 -1
    outer loop
      vertex -10.2065 14.0922 0
      vertex -16 18.5 0
      vertex 16 18.5 0
    endloop
  endfacet
  facet normal 0 0 -1
    outer loop
      vertex -11.4172 14.2839 0
      vertex -16 18.5 0
      vertex -11 14.35 0
    endloop
  endfacet
  facet normal 0 0 -1
    outer loop
      vertex -11.7935 14.0922 0
      vertex -16 18.5 0
      vertex -11.4172 14.2839 0
    endloop
  endfacet
  facet normal 0 0 -1
    outer loop
      vertex -12.0922 13.7935 0
      vertex -16 18.5 0
      vertex -11.7935 14.0922 0
    endloop
  endfacet
  facet normal 0 0 -1
    outer loop
      vertex -12.2839 13.4172 0
      vertex -16 18.5 0
      vertex -12.0922 13.7935 0
    endloop
  endfacet
  facet normal 0 0 -1
    outer loop
      vertex -12.35 13 0
      vertex -16 18.5 0
      vertex -12.2839 13.4172 0
    endloop
  endfacet
  facet normal 0 0 -1
    outer loop
      vertex -12.2839 12.5828 0
      vertex -16 18.5 0
      vertex -12.35 13 0
    endloop
  endfacet
  facet normal 0 -1 0
    outer loop
      vertex -16 -18.5 0
      vertex 16 -18.5 3.3
      vertex -16 -18.5 3.3
    endloop
  endfacet
  facet normal 0 -1 -0
    outer loop
      vertex 16 -18.5 3.3
      vertex -16 -18.5 0
      vertex 16 -18.5 0
    endloop
  endfacet
  facet normal 1 -0 0
    outer loop
      vertex -16 -19.5 3.3
      vertex -16 -18.5 0
      vertex -16 -18.5 3.3
    endloop
  endfacet
  facet normal 1 0 0
    outer loop
      vertex -16 -18.5 0
      vertex -16 -19.5 3.3
      vertex -16 -19.5 0
    endloop
  endfacet
  facet normal 1 -0 0
    outer loop
      vertex -16 18.5 3.3
      vertex -16 19.5 0
      vertex -16 19.5 3.3
    endloop
  endfacet
  facet normal 1 0 0
    outer loop
      vertex -16 19.5 0
      vertex -16 18.5 3.3
      vertex -16 18.5 0
    endloop
  endfacet
  facet normal 0 -1 0
    outer loop
      vertex -21 -19.5 0
      vertex -16 -19.5 3.3
      vertex -21 -19.5 3.3
    endloop
  endfacet
  facet normal 0 -1 -0
    outer loop
      vertex -16 -19.5 3.3
      vertex -21 -19.5 0
      vertex -16 -19.5 0
    endloop
  endfacet
  facet normal 0 1 -0
    outer loop
      vertex -16 19.5 0
      vertex -21 19.5 3.3
      vertex -16 19.5 3.3
    endloop
  endfacet
  facet normal 0 1 0
    outer loop
      vertex -21 19.5 3.3
      vertex -16 19.5 0
      vertex -21 19.5 0
    endloop
  endfacet
  facet normal -1 0 0
    outer loop
      vertex 16 -19.5 0
      vertex 16 -18.5 3.3
      vertex 16 -18.5 0
    endloop
  endfacet
  facet normal -1 -0 0
    outer loop
      vertex 16 -18.5 3.3
      vertex 16 -19.5 0
      vertex 16 -19.5 3.3
    endloop
  endfacet
  facet normal -1 0 0
    outer loop
      vertex 16 18.5 0
      vertex 16 19.5 3.3
      vertex 16 19.5 0
    endloop
  endfacet
  facet normal -1 -0 0
    outer loop
      vertex 16 19.5 3.3
      vertex 16 18.5 0
      vertex 16 18.5 3.3
    endloop
  endfacet
  facet normal 0 -1 0
    outer loop
      vertex 16 -19.5 0
      vertex 21 -19.5 3.3
      vertex 16 -19.5 3.3
    endloop
  endfacet
  facet normal 0 -1 -0
    outer loop
      vertex 21 -19.5 3.3
      vertex 16 -19.5 0
      vertex 21 -19.5 0
    endloop
  endfacet
  facet normal 0 1 -0
    outer loop
      vertex 21 19.5 0
      vertex 16 19.5 3.3
      vertex 21 19.5 3.3
    endloop
  endfacet
  facet normal 0 1 0
    outer loop
      vertex 16 19.5 3.3
      vertex 21 19.5 0
      vertex 16 19.5 0
    endloop
  endfacet
  facet normal -0.987688 -0.156434 0
    outer loop
      vertex -9.65 13 0
      vertex -9.71607 13.4172 3.3
      vertex -9.71607 13.4172 0
    endloop
  endfacet
  facet normal -0.987688 -0.156434 0
    outer loop
      vertex -9.71607 13.4172 3.3
      vertex -9.65 13 0
      vertex -9.65 13 3.3
    endloop
  endfacet
  facet normal -0.156434 -0.987688 0
    outer loop
      vertex -11 14.35 0
      vertex -10.5828 14.2839 3.3
      vertex -11 14.35 3.3
    endloop
  endfacet
  facet normal -0.156434 -0.987688 -0
    outer loop
      vertex -10.5828 14.2839 3.3
      vertex -11 14.35 0
      vertex -10.5828 14.2839 0
    endloop
  endfacet
  facet normal 0.987688 0.156434 0
    outer loop
      vertex -12.2839 12.5828 3.3
      vertex -12.35 13 0
      vertex -12.35 13 3.3
    endloop
  endfacet
  facet normal 0.987688 0.156434 0
    outer loop
      vertex -12.35 13 0
      vertex -12.2839 12.5828 3.3
      vertex -12.2839 12.5828 0
    endloop
  endfacet
  facet normal -0.156434 0.987688 0
    outer loop
      vertex -10.5828 11.7161 0
      vertex -11 11.65 3.3
      vertex -10.5828 11.7161 3.3
    endloop
  endfacet
  facet normal -0.156434 0.987688 0
    outer loop
      vertex -11 11.65 3.3
      vertex -10.5828 11.7161 0
      vertex -11 11.65 0
    endloop
  endfacet
  facet normal -0.891006 -0.453991 0
    outer loop
      vertex -9.71607 13.4172 0
      vertex -9.90783 13.7935 3.3
      vertex -9.90783 13.7935 0
    endloop
  endfacet
  facet normal -0.891006 -0.453991 0
    outer loop
      vertex -9.90783 13.7935 3.3
      vertex -9.71607 13.4172 0
      vertex -9.71607 13.4172 3.3
    endloop
  endfacet
  facet normal 0.156434 -0.987688 0
    outer loop
      vertex -11.4172 14.2839 0
      vertex -11 14.35 3.3
      vertex -11.4172 14.2839 3.3
    endloop
  endfacet
  facet normal 0.156434 -0.987688 0
    outer loop
      vertex -11 14.35 3.3
      vertex -11.4172 14.2839 0
      vertex -11 14.35 0
    endloop
  endfacet
  facet normal 0.453991 -0.891006 0
    outer loop
      vertex -11.7935 14.0922 0
      vertex -11.4172 14.2839 3.3
      vertex -11.7935 14.0922 3.3
    endloop
  endfacet
  facet normal 0.453991 -0.891006 0
    outer loop
      vertex -11.4172 14.2839 3.3
      vertex -11.7935 14.0922 0
      vertex -11.4172 14.2839 0
    endloop
  endfacet
  facet normal 0.987688 -0.156434 0
    outer loop
      vertex -12.35 13 3.3
      vertex -12.2839 13.4172 0
      vertex -12.2839 13.4172 3.3
    endloop
  endfacet
  facet normal 0.987688 -0.156434 0
    outer loop
      vertex -12.2839 13.4172 0
      vertex -12.35 13 3.3
      vertex -12.35 13 0
    endloop
  endfacet
  facet normal -0.987688 0.156434 0
    outer loop
      vertex -9.71607 12.5828 0
      vertex -9.65 13 3.3
      vertex -9.65 13 0
    endloop
  endfacet
  facet normal -0.987688 0.156434 0
    outer loop
      vertex -9.65 13 3.3
      vertex -9.71607 12.5828 0
      vertex -9.71607 12.5828 3.3
    endloop
  endfacet
  facet normal -0.453991 0.891006 0
    outer loop
      vertex -10.2065 11.9078 0
      vertex -10.5828 11.7161 3.3
      vertex -10.2065 11.9078 3.3
    endloop
  endfacet
  facet normal -0.453991 0.891006 0
    outer loop
      vertex -10.5828 11.7161 3.3
      vertex -10.2065 11.9078 0
      vertex -10.5828 11.7161 0
    endloop
  endfacet
  facet normal -0.707107 0.707107 0
    outer loop
      vertex -10.2065 11.9078 0
      vertex -9.90783 12.2065 3.3
      vertex -9.90783 12.2065 0
    endloop
  endfacet
  facet normal -0.707107 0.707107 0
    outer loop
      vertex -9.90783 12.2065 3.3
      vertex -10.2065 11.9078 0
      vertex -10.2065 11.9078 3.3
    endloop
  endfacet
  facet normal 0.891006 0.453991 0
    outer loop
      vertex -12.0922 12.2065 3.3
      vertex -12.2839 12.5828 0
      vertex -12.2839 12.5828 3.3
    endloop
  endfacet
  facet normal 0.891006 0.453991 0
    outer loop
      vertex -12.2839 12.5828 0
      vertex -12.0922 12.2065 3.3
      vertex -12.0922 12.2065 0
    endloop
  endfacet
  facet normal 0.156434 0.987688 -0
    outer loop
      vertex -11 11.65 0
      vertex -11.4172 11.7161 3.3
      vertex -11 11.65 3.3
    endloop
  endfacet
  facet normal 0.156434 0.987688 0
    outer loop
      vertex -11.4172 11.7161 3.3
      vertex -11 11.65 0
      vertex -11.4172 11.7161 0
    endloop
  endfacet
  facet normal -0.707107 -0.707107 0
    outer loop
      vertex -9.90783 13.7935 0
      vertex -10.2065 14.0922 3.3
      vertex -10.2065 14.0922 0
    endloop
  endfacet
  facet normal -0.707107 -0.707107 0
    outer loop
      vertex -10.2065 14.0922 3.3
      vertex -9.90783 13.7935 0
      vertex -9.90783 13.7935 3.3
    endloop
  endfacet
  facet normal -0.453991 -0.891006 0
    outer loop
      vertex -10.5828 14.2839 0
      vertex -10.2065 14.0922 3.3
      vertex -10.5828 14.2839 3.3
    endloop
  endfacet
  facet normal -0.453991 -0.891006 -0
    outer loop
      vertex -10.2065 14.0922 3.3
      vertex -10.5828 14.2839 0
      vertex -10.2065 14.0922 0
    endloop
  endfacet
  facet normal 0.707107 -0.707107 0
    outer loop
      vertex -12.0922 13.7935 3.3
      vertex -11.7935 14.0922 0
      vertex -11.7935 14.0922 3.3
    endloop
  endfacet
  facet normal 0.707107 -0.707107 0
    outer loop
      vertex -11.7935 14.0922 0
      vertex -12.0922 13.7935 3.3
      vertex -12.0922 13.7935 0
    endloop
  endfacet
  facet normal 0.891006 -0.453991 0
    outer loop
      vertex -12.2839 13.4172 3.3
      vertex -12.0922 13.7935 0
      vertex -12.0922 13.7935 3.3
    endloop
  endfacet
  facet normal 0.891006 -0.453991 0
    outer loop
      vertex -12.0922 13.7935 0
      vertex -12.2839 13.4172 3.3
      vertex -12.2839 13.4172 0
    endloop
  endfacet
  facet normal -0.891006 0.453991 0
    outer loop
      vertex -9.90783 12.2065 0
      vertex -9.71607 12.5828 3.3
      vertex -9.71607 12.5828 0
    endloop
  endfacet
  facet normal -0.891006 0.453991 0
    outer loop
      vertex -9.71607 12.5828 3.3
      vertex -9.90783 12.2065 0
      vertex -9.90783 12.2065 3.3
    endloop
  endfacet
  facet normal 0.707107 0.707107 0
    outer loop
      vertex -11.7935 11.9078 3.3
      vertex -12.0922 12.2065 0
      vertex -12.0922 12.2065 3.3
    endloop
  endfacet
  facet normal 0.707107 0.707107 0
    outer loop
      vertex -12.0922 12.2065 0
      vertex -11.7935 11.9078 3.3
      vertex -11.7935 11.9078 0
    endloop
  endfacet
  facet normal 0.453991 0.891006 -0
    outer loop
      vertex -11.4172 11.7161 0
      vertex -11.7935 11.9078 3.3
      vertex -11.4172 11.7161 3.3
    endloop
  endfacet
  facet normal 0.453991 0.891006 0
    outer loop
      vertex -11.7935 11.9078 3.3
      vertex -11.4172 11.7161 0
      vertex -11.7935 11.9078 0
    endloop
  endfacet
  facet normal -0.987688 -0.156434 0
    outer loop
      vertex 12.35 13 0
      vertex 12.2839 13.4172 3.3
      vertex 12.2839 13.4172 0
    endloop
  endfacet
  facet normal -0.987688 -0.156434 0
    outer loop
      vertex 12.2839 13.4172 3.3
      vertex 12.35 13 0
      vertex 12.35 13 3.3
    endloop
  endfacet
  facet normal -0.156434 -0.987688 0
    outer loop
      vertex 11 14.35 0
      vertex 11.4172 14.2839 3.3
      vertex 11 14.35 3.3
    endloop
  endfacet
  facet normal -0.156434 -0.987688 -0
    outer loop
      vertex 11.4172 14.2839 3.3
      vertex 11 14.35 0
      vertex 11.4172 14.2839 0
    endloop
  endfacet
  facet normal 0.987688 0.156434 0
    outer loop
      vertex 9.71607 12.5828 3.3
      vertex 9.65 13 0
      vertex 9.65 13 3.3
    endloop
  endfacet
  facet normal 0.987688 0.156434 0
    outer loop
      vertex 9.65 13 0
      vertex 9.71607 12.5828 3.3
      vertex 9.71607 12.5828 0
    endloop
  endfacet
  facet normal -0.156434 0.987688 0
    outer loop
      vertex 11.4172 11.7161 0
      vertex 11 11.65 3.3
      vertex 11.4172 11.7161 3.3
    endloop
  endfacet
  facet normal -0.156434 0.987688 0
    outer loop
      vertex 11 11.65 3.3
      vertex 11.4172 11.7161 0
      vertex 11 11.65 0
    endloop
  endfacet
  facet normal -0.891006 -0.453991 0
    outer loop
      vertex 12.2839 13.4172 0
      vertex 12.0922 13.7935 3.3
      vertex 12.0922 13.7935 0
    endloop
  endfacet
  facet normal -0.891006 -0.453991 0
    outer loop
      vertex 12.0922 13.7935 3.3
      vertex 12.2839 13.4172 0
      vertex 12.2839 13.4172 3.3
    endloop
  endfacet
  facet normal 0.156434 -0.987688 0
    outer loop
      vertex 10.5828 14.2839 0
      vertex 11 14.35 3.3
      vertex 10.5828 14.2839 3.3
    endloop
  endfacet
  facet normal 0.156434 -0.987688 0
    outer loop
      vertex 11 14.35 3.3
      vertex 10.5828 14.2839 0
      vertex 11 14.35 0
    endloop
  endfacet
  facet normal 0.453991 -0.891006 0
    outer loop
      vertex 10.2065 14.0922 0
      vertex 10.5828 14.2839 3.3
      vertex 10.2065 14.0922 3.3
    endloop
  endfacet
  facet normal 0.453991 -0.891006 0
    outer loop
      vertex 10.5828 14.2839 3.3
      vertex 10.2065 14.0922 0
      vertex 10.5828 14.2839 0
    endloop
  endfacet
  facet normal 0.987688 -0.156434 0
    outer loop
      vertex 9.65 13 3.3
      vertex 9.71607 13.4172 0
      vertex 9.71607 13.4172 3.3
    endloop
  endfacet
  facet normal 0.987688 -0.156434 0
    outer loop
      vertex 9.71607 13.4172 0
      vertex 9.65 13 3.3
      vertex 9.65 13 0
    endloop
  endfacet
  facet normal -0.987688 0.156434 0
    outer loop
      vertex 12.2839 12.5828 0
      vertex 12.35 13 3.3
      vertex 12.35 13 0
    endloop
  endfacet
  facet normal -0.987688 0.156434 0
    outer loop
      vertex 12.35 13 3.3
      vertex 12.2839 12.5828 0
      vertex 12.2839 12.5828 3.3
    endloop
  endfacet
  facet normal -0.453991 0.891006 0
    outer loop
      vertex 11.7935 11.9078 0
      vertex 11.4172 11.7161 3.3
      vertex 11.7935 11.9078 3.3
    endloop
  endfacet
  facet normal -0.453991 0.891006 0
    outer loop
      vertex 11.4172 11.7161 3.3
      vertex 11.7935 11.9078 0
      vertex 11.4172 11.7161 0
    endloop
  endfacet
  facet normal -0.707107 0.707107 0
    outer loop
      vertex 11.7935 11.9078 0
      vertex 12.0922 12.2065 3.3
      vertex 12.0922 12.2065 0
    endloop
  endfacet
  facet normal -0.707107 0.707107 0
    outer loop
      vertex 12.0922 12.2065 3.3
      vertex 11.7935 11.9078 0
      vertex 11.7935 11.9078 3.3
    endloop
  endfacet
  facet normal 0.891006 0.453991 0
    outer loop
      vertex 9.90783 12.2065 3.3
      vertex 9.71607 12.5828 0
      vertex 9.71607 12.5828 3.3
    endloop
  endfacet
  facet normal 0.891006 0.453991 0
    outer loop
      vertex 9.71607 12.5828 0
      vertex 9.90783 12.2065 3.3
      vertex 9.90783 12.2065 0
    endloop
  endfacet
  facet normal 0.156434 0.987688 -0
    outer loop
      vertex 11 11.65 0
      vertex 10.5828 11.7161 3.3
      vertex 11 11.65 3.3
    endloop
  endfacet
  facet normal 0.156434 0.987688 0
    outer loop
      vertex 10.5828 11.7161 3.3
      vertex 11 11.65 0
      vertex 10.5828 11.7161 0
    endloop
  endfacet
  facet normal -0.707107 -0.707107 0
    outer loop
      vertex 12.0922 13.7935 0
      vertex 11.7935 14.0922 3.3
      vertex 11.7935 14.0922 0
    endloop
  endfacet
  facet normal -0.707107 -0.707107 0
    outer loop
      vertex 11.7935 14.0922 3.3
      vertex 12.0922 13.7935 0
      vertex 12.0922 13.7935 3.3
    endloop
  endfacet
  facet normal -0.453991 -0.891006 0
    outer loop
      vertex 11.4172 14.2839 0
      vertex 11.7935 14.0922 3.3
      vertex 11.4172 14.2839 3.3
    endloop
  endfacet
  facet normal -0.453991 -0.891006 -0
    outer loop
      vertex 11.7935 14.0922 3.3
      vertex 11.4172 14.2839 0
      vertex 11.7935 14.0922 0
    endloop
  endfacet
  facet normal 0.707107 -0.707107 0
    outer loop
      vertex 9.90783 13.7935 3.3
      vertex 10.2065 14.0922 0
      vertex 10.2065 14.0922 3.3
    endloop
  endfacet
  facet normal 0.707107 -0.707107 0
    outer loop
      vertex 10.2065 14.0922 0
      vertex 9.90783 13.7935 3.3
      vertex 9.90783 13.7935 0
    endloop
  endfacet
  facet normal 0.891006 -0.453991 0
    outer loop
      vertex 9.71607 13.4172 3.3
      vertex 9.90783 13.7935 0
      vertex 9.90783 13.7935 3.3
    endloop
  endfacet
  facet normal 0.891006 -0.453991 0
    outer loop
      vertex 9.90783 13.7935 0
      vertex 9.71607 13.4172 3.3
      vertex 9.71607 13.4172 0
    endloop
  endfacet
  facet normal -0.891006 0.453991 0
    outer loop
      vertex 12.0922 12.2065 0
      vertex 12.2839 12.5828 3.3
      vertex 12.2839 12.5828 0
    endloop
  endfacet
  facet normal -0.891006 0.453991 0
    outer loop
      vertex 12.2839 12.5828 3.3
      vertex 12.0922 12.2065 0
      vertex 12.0922 12.2065 3.3
    endloop
  endfacet
  facet normal 0.707107 0.707107 0
    outer loop
      vertex 10.2065 11.9078 3.3
      vertex 9.90783 12.2065 0
      vertex 9.90783 12.2065 3.3
    endloop
  endfacet
  facet normal 0.707107 0.707107 0
    outer loop
      vertex 9.90783 12.2065 0
      vertex 10.2065 11.9078 3.3
      vertex 10.2065 11.9078 0
    endloop
  endfacet
  facet normal 0.453991 0.891006 -0
    outer loop
      vertex 10.5828 11.7161 0
      vertex 10.2065 11.9078 3.3
      vertex 10.5828 11.7161 3.3
    endloop
  endfacet
  facet normal 0.453991 0.891006 0
    outer loop
      vertex 10.2065 11.9078 3.3
      vertex 10.5828 11.7161 0
      vertex 10.2065 11.9078 0
    endloop
  endfacet
  facet normal -0.987688 -0.156434 0
    outer loop
      vertex -9.65 -13 0
      vertex -9.71607 -12.5828 3.3
      vertex -9.71607 -12.5828 0
    endloop
  endfacet
  facet normal -0.987688 -0.156434 0
    outer loop
      vertex -9.71607 -12.5828 3.3
      vertex -9.65 -13 0
      vertex -9.65 -13 3.3
    endloop
  endfacet
  facet normal 0.987688 -0.156434 0
    outer loop
      vertex -12.35 -13 3.3
      vertex -12.2839 -12.5828 0
      vertex -12.2839 -12.5828 3.3
    endloop
  endfacet
  facet normal 0.987688 -0.156434 0
    outer loop
      vertex -12.2839 -12.5828 0
      vertex -12.35 -13 3.3
      vertex -12.35 -13 0
    endloop
  endfacet
  facet normal 0.987688 0.156434 0
    outer loop
      vertex -12.2839 -13.4172 3.3
      vertex -12.35 -13 0
      vertex -12.35 -13 3.3
    endloop
  endfacet
  facet normal 0.987688 0.156434 0
    outer loop
      vertex -12.35 -13 0
      vertex -12.2839 -13.4172 3.3
      vertex -12.2839 -13.4172 0
    endloop
  endfacet
  facet normal 0.156434 -0.987688 0
    outer loop
      vertex -11.4172 -11.7161 0
      vertex -11 -11.65 3.3
      vertex -11.4172 -11.7161 3.3
    endloop
  endfacet
  facet normal 0.156434 -0.987688 0
    outer loop
      vertex -11 -11.65 3.3
      vertex -11.4172 -11.7161 0
      vertex -11 -11.65 0
    endloop
  endfacet
  facet normal -0.707107 -0.707107 0
    outer loop
      vertex -9.90783 -12.2065 0
      vertex -10.2065 -11.9078 3.3
      vertex -10.2065 -11.9078 0
    endloop
  endfacet
  facet normal -0.707107 -0.707107 0
    outer loop
      vertex -10.2065 -11.9078 3.3
      vertex -9.90783 -12.2065 0
      vertex -9.90783 -12.2065 3.3
    endloop
  endfacet
  facet normal -0.891006 -0.453991 0
    outer loop
      vertex -9.71607 -12.5828 0
      vertex -9.90783 -12.2065 3.3
      vertex -9.90783 -12.2065 0
    endloop
  endfacet
  facet normal -0.891006 -0.453991 0
    outer loop
      vertex -9.90783 -12.2065 3.3
      vertex -9.71607 -12.5828 0
      vertex -9.71607 -12.5828 3.3
    endloop
  endfacet
  facet normal 0.453991 -0.891006 0
    outer loop
      vertex -11.7935 -11.9078 0
      vertex -11.4172 -11.7161 3.3
      vertex -11.7935 -11.9078 3.3
    endloop
  endfacet
  facet normal 0.453991 -0.891006 0
    outer loop
      vertex -11.4172 -11.7161 3.3
      vertex -11.7935 -11.9078 0
      vertex -11.4172 -11.7161 0
    endloop
  endfacet
  facet normal 0.707107 -0.707107 0
    outer loop
      vertex -12.0922 -12.2065 3.3
      vertex -11.7935 -11.9078 0
      vertex -11.7935 -11.9078 3.3
    endloop
  endfacet
  facet normal 0.707107 -0.707107 0
    outer loop
      vertex -11.7935 -11.9078 0
      vertex -12.0922 -12.2065 3.3
      vertex -12.0922 -12.2065 0
    endloop
  endfacet
  facet normal -0.453991 -0.891006 0
    outer loop
      vertex -10.5828 -11.7161 0
      vertex -10.2065 -11.9078 3.3
      vertex -10.5828 -11.7161 3.3
    endloop
  endfacet
  facet normal -0.453991 -0.891006 -0
    outer loop
      vertex -10.2065 -11.9078 3.3
      vertex -10.5828 -11.7161 0
      vertex -10.2065 -11.9078 0
    endloop
  endfacet
  facet normal -0.156434 -0.987688 0
    outer loop
      vertex -11 -11.65 0
      vertex -10.5828 -11.7161 3.3
      vertex -11 -11.65 3.3
    endloop
  endfacet
  facet normal -0.156434 -0.987688 -0
    outer loop
      vertex -10.5828 -11.7161 3.3
      vertex -11 -11.65 0
      vertex -10.5828 -11.7161 0
    endloop
  endfacet
  facet normal 0.891006 -0.453991 0
    outer loop
      vertex -12.2839 -12.5828 3.3
      vertex -12.0922 -12.2065 0
      vertex -12.0922 -12.2065 3.3
    endloop
  endfacet
  facet normal 0.891006 -0.453991 0
    outer loop
      vertex -12.0922 -12.2065 0
      vertex -12.2839 -12.5828 3.3
      vertex -12.2839 -12.5828 0
    endloop
  endfacet
  facet normal -0.453991 0.891006 0
    outer loop
      vertex -10.2065 -14.0922 0
      vertex -10.5828 -14.2839 3.3
      vertex -10.2065 -14.0922 3.3
    endloop
  endfacet
  facet normal -0.453991 0.891006 0
    outer loop
      vertex -10.5828 -14.2839 3.3
      vertex -10.2065 -14.0922 0
      vertex -10.5828 -14.2839 0
    endloop
  endfacet
  facet normal -0.987688 0.156434 0
    outer loop
      vertex -9.71607 -13.4172 0
      vertex -9.65 -13 3.3
      vertex -9.65 -13 0
    endloop
  endfacet
  facet normal -0.987688 0.156434 0
    outer loop
      vertex -9.65 -13 3.3
      vertex -9.71607 -13.4172 0
      vertex -9.71607 -13.4172 3.3
    endloop
  endfacet
  facet normal 0.891006 0.453991 0
    outer loop
      vertex -12.0922 -13.7935 3.3
      vertex -12.2839 -13.4172 0
      vertex -12.2839 -13.4172 3.3
    endloop
  endfacet
  facet normal 0.891006 0.453991 0
    outer loop
      vertex -12.2839 -13.4172 0
      vertex -12.0922 -13.7935 3.3
      vertex -12.0922 -13.7935 0
    endloop
  endfacet
  facet normal -0.707107 0.707107 0
    outer loop
      vertex -10.2065 -14.0922 0
      vertex -9.90783 -13.7935 3.3
      vertex -9.90783 -13.7935 0
    endloop
  endfacet
  facet normal -0.707107 0.707107 0
    outer loop
      vertex -9.90783 -13.7935 3.3
      vertex -10.2065 -14.0922 0
      vertex -10.2065 -14.0922 3.3
    endloop
  endfacet
  facet normal -0.891006 0.453991 0
    outer loop
      vertex -9.90783 -13.7935 0
      vertex -9.71607 -13.4172 3.3
      vertex -9.71607 -13.4172 0
    endloop
  endfacet
  facet normal -0.891006 0.453991 0
    outer loop
      vertex -9.71607 -13.4172 3.3
      vertex -9.90783 -13.7935 0
      vertex -9.90783 -13.7935 3.3
    endloop
  endfacet
  facet normal 0.156434 0.987688 -0
    outer loop
      vertex -11 -14.35 0
      vertex -11.4172 -14.2839 3.3
      vertex -11 -14.35 3.3
    endloop
  endfacet
  facet normal 0.156434 0.987688 0
    outer loop
      vertex -11.4172 -14.2839 3.3
      vertex -11 -14.35 0
      vertex -11.4172 -14.2839 0
    endloop
  endfacet
  facet normal -0.156434 0.987688 0
    outer loop
      vertex -10.5828 -14.2839 0
      vertex -11 -14.35 3.3
      vertex -10.5828 -14.2839 3.3
    endloop
  endfacet
  facet normal -0.156434 0.987688 0
    outer loop
      vertex -11 -14.35 3.3
      vertex -10.5828 -14.2839 0
      vertex -11 -14.35 0
    endloop
  endfacet
  facet normal 0.707107 0.707107 0
    outer loop
      vertex -11.7935 -14.0922 3.3
      vertex -12.0922 -13.7935 0
      vertex -12.0922 -13.7935 3.3
    endloop
  endfacet
  facet normal 0.707107 0.707107 0
    outer loop
      vertex -12.0922 -13.7935 0
      vertex -11.7935 -14.0922 3.3
      vertex -11.7935 -14.0922 0
    endloop
  endfacet
  facet normal 0.453991 0.891006 -0
    outer loop
      vertex -11.4172 -14.2839 0
      vertex -11.7935 -14.0922 3.3
      vertex -11.4172 -14.2839 3.3
    endloop
  endfacet
  facet normal 0.453991 0.891006 0
    outer loop
      vertex -11.7935 -14.0922 3.3
      vertex -11.4172 -14.2839 0
      vertex -11.7935 -14.0922 0
    endloop
  endfacet
  facet normal -0.987688 -0.156434 0
    outer loop
      vertex 12.35 -13 0
      vertex 12.2839 -12.5828 3.3
      vertex 12.2839 -12.5828 0
    endloop
  endfacet
  facet normal -0.987688 -0.156434 0
    outer loop
      vertex 12.2839 -12.5828 3.3
      vertex 12.35 -13 0
      vertex 12.35 -13 3.3
    endloop
  endfacet
  facet normal 0.987688 -0.156434 0
    outer loop
      vertex 9.65 -13 3.3
      vertex 9.71607 -12.5828 0
      vertex 9.71607 -12.5828 3.3
    endloop
  endfacet
  facet normal 0.987688 -0.156434 0
    outer loop
      vertex 9.71607 -12.5828 0
      vertex 9.65 -13 3.3
      vertex 9.65 -13 0
    endloop
  endfacet
  facet normal 0.987688 0.156434 0
    outer loop
      vertex 9.71607 -13.4172 3.3
      vertex 9.65 -13 0
      vertex 9.65 -13 3.3
    endloop
  endfacet
  facet normal 0.987688 0.156434 0
    outer loop
      vertex 9.65 -13 0
      vertex 9.71607 -13.4172 3.3
      vertex 9.71607 -13.4172 0
    endloop
  endfacet
  facet normal 0.156434 -0.987688 0
    outer loop
      vertex 10.5828 -11.7161 0
      vertex 11 -11.65 3.3
      vertex 10.5828 -11.7161 3.3
    endloop
  endfacet
  facet normal 0.156434 -0.987688 0
    outer loop
      vertex 11 -11.65 3.3
      vertex 10.5828 -11.7161 0
      vertex 11 -11.65 0
    endloop
  endfacet
  facet normal -0.707107 -0.707107 0
    outer loop
      vertex 12.0922 -12.2065 0
      vertex 11.7935 -11.9078 3.3
      vertex 11.7935 -11.9078 0
    endloop
  endfacet
  facet normal -0.707107 -0.707107 0
    outer loop
      vertex 11.7935 -11.9078 3.3
      vertex 12.0922 -12.2065 0
      vertex 12.0922 -12.2065 3.3
    endloop
  endfacet
  facet normal -0.891006 -0.453991 0
    outer loop
      vertex 12.2839 -12.5828 0
      vertex 12.0922 -12.2065 3.3
      vertex 12.0922 -12.2065 0
    endloop
  endfacet
  facet normal -0.891006 -0.453991 0
    outer loop
      vertex 12.0922 -12.2065 3.3
      vertex 12.2839 -12.5828 0
      vertex 12.2839 -12.5828 3.3
    endloop
  endfacet
  facet normal -0.156434 -0.987688 0
    outer loop
      vertex 11 -11.65 0
      vertex 11.4172 -11.7161 3.3
      vertex 11 -11.65 3.3
    endloop
  endfacet
  facet normal -0.156434 -0.987688 -0
    outer loop
      vertex 11.4172 -11.7161 3.3
      vertex 11 -11.65 0
      vertex 11.4172 -11.7161 0
    endloop
  endfacet
  facet normal 0.453991 -0.891006 0
    outer loop
      vertex 10.2065 -11.9078 0
      vertex 10.5828 -11.7161 3.3
      vertex 10.2065 -11.9078 3.3
    endloop
  endfacet
  facet normal 0.453991 -0.891006 0
    outer loop
      vertex 10.5828 -11.7161 3.3
      vertex 10.2065 -11.9078 0
      vertex 10.5828 -11.7161 0
    endloop
  endfacet
  facet normal 0.707107 -0.707107 0
    outer loop
      vertex 9.90783 -12.2065 3.3
      vertex 10.2065 -11.9078 0
      vertex 10.2065 -11.9078 3.3
    endloop
  endfacet
  facet normal 0.707107 -0.707107 0
    outer loop
      vertex 10.2065 -11.9078 0
      vertex 9.90783 -12.2065 3.3
      vertex 9.90783 -12.2065 0
    endloop
  endfacet
  facet normal -0.453991 -0.891006 0
    outer loop
      vertex 11.4172 -11.7161 0
      vertex 11.7935 -11.9078 3.3
      vertex 11.4172 -11.7161 3.3
    endloop
  endfacet
  facet normal -0.453991 -0.891006 -0
    outer loop
      vertex 11.7935 -11.9078 3.3
      vertex 11.4172 -11.7161 0
      vertex 11.7935 -11.9078 0
    endloop
  endfacet
  facet normal 0.891006 -0.453991 0
    outer loop
      vertex 9.71607 -12.5828 3.3
      vertex 9.90783 -12.2065 0
      vertex 9.90783 -12.2065 3.3
    endloop
  endfacet
  facet normal 0.891006 -0.453991 0
    outer loop
      vertex 9.90783 -12.2065 0
      vertex 9.71607 -12.5828 3.3
      vertex 9.71607 -12.5828 0
    endloop
  endfacet
  facet normal -0.453991 0.891006 0
    outer loop
      vertex 11.7935 -14.0922 0
      vertex 11.4172 -14.2839 3.3
      vertex 11.7935 -14.0922 3.3
    endloop
  endfacet
  facet normal -0.453991 0.891006 0
    outer loop
      vertex 11.4172 -14.2839 3.3
      vertex 11.7935 -14.0922 0
      vertex 11.4172 -14.2839 0
    endloop
  endfacet
  facet normal -0.987688 0.156434 0
    outer loop
      vertex 12.2839 -13.4172 0
      vertex 12.35 -13 3.3
      vertex 12.35 -13 0
    endloop
  endfacet
  facet normal -0.987688 0.156434 0
    outer loop
      vertex 12.35 -13 3.3
      vertex 12.2839 -13.4172 0
      vertex 12.2839 -13.4172 3.3
    endloop
  endfacet
  facet normal 0.453991 0.891006 -0
    outer loop
      vertex 10.5828 -14.2839 0
      vertex 10.2065 -14.0922 3.3
      vertex 10.5828 -14.2839 3.3
    endloop
  endfacet
  facet normal 0.453991 0.891006 0
    outer loop
      vertex 10.2065 -14.0922 3.3
      vertex 10.5828 -14.2839 0
      vertex 10.2065 -14.0922 0
    endloop
  endfacet
  facet normal 0.891006 0.453991 0
    outer loop
      vertex 9.90783 -13.7935 3.3
      vertex 9.71607 -13.4172 0
      vertex 9.71607 -13.4172 3.3
    endloop
  endfacet
  facet normal 0.891006 0.453991 0
    outer loop
      vertex 9.71607 -13.4172 0
      vertex 9.90783 -13.7935 3.3
      vertex 9.90783 -13.7935 0
    endloop
  endfacet
  facet normal -0.707107 0.707107 0
    outer loop
      vertex 11.7935 -14.0922 0
      vertex 12.0922 -13.7935 3.3
      vertex 12.0922 -13.7935 0
    endloop
  endfacet
  facet normal -0.707107 0.707107 0
    outer loop
      vertex 12.0922 -13.7935 3.3
      vertex 11.7935 -14.0922 0
      vertex 11.7935 -14.0922 3.3
    endloop
  endfacet
  facet normal -0.891006 0.453991 0
    outer loop
      vertex 12.0922 -13.7935 0
      vertex 12.2839 -13.4172 3.3
      vertex 12.2839 -13.4172 0
    endloop
  endfacet
  facet normal -0.891006 0.453991 0
    outer loop
      vertex 12.2839 -13.4172 3.3
      vertex 12.0922 -13.7935 0
      vertex 12.0922 -13.7935 3.3
    endloop
  endfacet
  facet normal 0.707107 0.707107 0
    outer loop
      vertex 10.2065 -14.0922 3.3
      vertex 9.90783 -13.7935 0
      vertex 9.90783 -13.7935 3.3
    endloop
  endfacet
  facet normal 0.707107 0.707107 0
    outer loop
      vertex 9.90783 -13.7935 0
      vertex 10.2065 -14.0922 3.3
      vertex 10.2065 -14.0922 0
    endloop
  endfacet
  facet normal -0.156434 0.987688 0
    outer loop
      vertex 11.4172 -14.2839 0
      vertex 11 -14.35 3.3
      vertex 11.4172 -14.2839 3.3
    endloop
  endfacet
  facet normal -0.156434 0.987688 0
    outer loop
      vertex 11 -14.35 3.3
      vertex 11.4172 -14.2839 0
      vertex 11 -14.35 0
    endloop
  endfacet
  facet normal 0.156434 0.987688 -0
    outer loop
      vertex 11 -14.35 0
      vertex 10.5828 -14.2839 3.3
      vertex 11 -14.35 3.3
    endloop
  endfacet
  facet normal 0.156434 0.987688 0
    outer loop
      vertex 10.5828 -14.2839 3.3
      vertex 11 -14.35 0
      vertex 10.5828 -14.2839 0
    endloop
  endfacet
  facet normal 1 -0 0
    outer loop
      vertex -3 -9 1
      vertex -3 9 0
      vertex -3 9 1
    endloop
  endfacet
  facet normal 1 0 0
    outer loop
      vertex -3 9 0
      vertex -3 -9 1
      vertex -3 -9 0
    endloop
  endfacet
  facet normal -1 0 0
    outer loop
      vertex 3 -9 0
      vertex 3 9 1
      vertex 3 9 0
    endloop
  endfacet
  facet normal -1 -0 0
    outer loop
      vertex 3 9 1
      vertex 3 -9 0
      vertex 3 -9 1
    endloop
  endfacet
  facet normal 0 1 -0
    outer loop
      vertex 3 -9 0
      vertex -3 -9 1
      vertex 3 -9 1
    endloop
  endfacet
  facet normal 0 1 0
    outer loop
      vertex -3 -9 1
      vertex 3 -9 0
      vertex -3 -9 0
    endloop
  endfacet
  facet normal 0 -1 0
    outer loop
      vertex -3 9 0
      vertex 3 9 1
      vertex -3 9 1
    endloop
  endfacet
  facet normal 0 -1 -0
    outer loop
      vertex 3 9 1
      vertex -3 9 0
      vertex 3 9 0
    endloop
  endfacet
  facet normal 1 -0 0
    outer loop
      vertex -9 -13.5 3.3
      vertex -9 13.5 1
      vertex -9 13.5 3.3
    endloop
  endfacet
  facet normal 1 0 0
    outer loop
      vertex -9 13.5 1
      vertex -9 -13.5 3.3
      vertex -9 -13.5 1
    endloop
  endfacet
  facet normal -1 0 0
    outer loop
      vertex 9 -13.5 1
      vertex 9 13.5 3.3
      vertex 9 13.5 1
    endloop
  endfacet
  facet normal -1 -0 0
    outer loop
      vertex 9 13.5 3.3
      vertex 9 -13.5 1
      vertex 9 -13.5 3.3
    endloop
  endfacet
  facet normal 0 0 1
    outer loop
      vertex 9 13.5 1
      vertex 3 9 1
      vertex 9 -13.5 1
    endloop
  endfacet
  facet normal 0 0 1
    outer loop
      vertex 9 13.5 1
      vertex -3 9 1
      vertex 3 9 1
    endloop
  endfacet
  facet normal 0 0 1
    outer loop
      vertex -3 9 1
      vertex -9 13.5 1
      vertex -3 -9 1
    endloop
  endfacet
  facet normal -0 0 1
    outer loop
      vertex -9 13.5 1
      vertex -3 9 1
      vertex 9 13.5 1
    endloop
  endfacet
  facet normal -0 0 1
    outer loop
      vertex 3 -9 1
      vertex 9 -13.5 1
      vertex 3 9 1
    endloop
  endfacet
  facet normal -0 0 1
    outer loop
      vertex -3 -9 1
      vertex 9 -13.5 1
      vertex 3 -9 1
    endloop
  endfacet
  facet normal 0 0 1
    outer loop
      vertex -3 -9 1
      vertex -9 -13.5 1
      vertex 9 -13.5 1
    endloop
  endfacet
  facet normal 0 0 1
    outer loop
      vertex -9 -13.5 1
      vertex -3 -9 1
      vertex -9 13.5 1
    endloop
  endfacet
  facet normal 0 1 -0
    outer loop
      vertex 9 -13.5 1
      vertex -9 -13.5 3.3
      vertex 9 -13.5 3.3
    endloop
  endfacet
  facet normal 0 1 0
    outer loop
      vertex -9 -13.5 3.3
      vertex 9 -13.5 1
      vertex -9 -13.5 1
    endloop
  endfacet
  facet normal 0 -1 0
    outer loop
      vertex -9 13.5 1
      vertex 9 13.5 3.3
      vertex -9 13.5 3.3
    endloop
  endfacet
  facet normal 0 -1 -0
    outer loop
      vertex 9 13.5 3.3
      vertex -9 13.5 1
      vertex 9 13.5 1
    endloop
  endfacet
endsolid OpenSCAD_Model
