solid OpenSCAD_Model
  facet normal 0 0 -1
    outer loop
      vertex -32 0 0
      vertex -31.3007 6.65317 0
      vertex -31.3007 -6.65317 0
    endloop
  endfacet
  facet normal 0 0 -1
    outer loop
      vertex -31.3007 -6.65317 0
      vertex -31.3007 6.65317 0
      vertex -29.2335 13.0156 0
    endloop
  endfacet
  facet normal 0 0 -1
    outer loop
      vertex -31.3007 -6.65317 0
      vertex -29.2335 13.0156 0
      vertex -25.8885 18.8091 0
    endloop
  endfacet
  facet normal 0 0 -1
    outer loop
      vertex -31.3007 -6.65317 0
      vertex -25.8885 18.8091 0
      vertex -21.4122 23.7806 0
    endloop
  endfacet
  facet normal 0 0 -1
    outer loop
      vertex -31.3007 -6.65317 0
      vertex -21.4122 23.7806 0
      vertex -16 27.7128 0
    endloop
  endfacet
  facet normal 0 0 -1
    outer loop
      vertex -31.3007 -6.65317 0
      vertex -16 27.7128 0
      vertex -9.88854 30.4338 0
    endloop
  endfacet
  facet normal 0 0 -1
    outer loop
      vertex -31.3007 -6.65317 0
      vertex -9.88854 30.4338 0
      vertex -3.34491 31.8247 0
    endloop
  endfacet
  facet normal 0 0 -1
    outer loop
      vertex -31.3007 -6.65317 0
      vertex -3.34491 31.8247 0
      vertex 3.34491 31.8247 0
    endloop
  endfacet
  facet normal 0 0 -1
    outer loop
      vertex -31.3007 -6.65317 0
      vertex 3.34491 31.8247 0
      vertex 9.88854 30.4338 0
    endloop
  endfacet
  facet normal 0 0 -1
    outer loop
      vertex -1.67246 15.9123 0
      vertex 9.88854 30.4338 0
      vertex 16 27.7128 0
    endloop
  endfacet
  facet normal 0 0 -1
    outer loop
      vertex 4.94427 15.2169 0
      vertex 16 27.7128 0
      vertex 21.4122 23.7806 0
    endloop
  endfacet
  facet normal 0 0 -1
    outer loop
      vertex 8 13.8564 0
      vertex 21.4122 23.7806 0
      vertex 25.8885 18.8091 0
    endloop
  endfacet
  facet normal 0 0 -1
    outer loop
      vertex 12.9443 9.40456 0
      vertex 25.8885 18.8091 0
      vertex 29.2335 13.0156 0
    endloop
  endfacet
  facet normal 0 0 -1
    outer loop
      vertex 14.6167 6.50779 0
      vertex 29.2335 13.0156 0
      vertex 31.3007 6.65317 0
    endloop
  endfacet
  facet normal 0 0 -1
    outer loop
      vertex 16 0 0
      vertex 31.3007 6.65317 0
      vertex 32 0 0
    endloop
  endfacet
  facet normal 0 0 -1
    outer loop
      vertex 14.6167 -6.50779 0
      vertex 32 0 0
      vertex 31.3007 -6.65317 0
    endloop
  endfacet
  facet normal 0 0 -1
    outer loop
      vertex 12.9443 -9.40456 0
      vertex 31.3007 -6.65317 0
      vertex 29.2335 -13.0156 0
    endloop
  endfacet
  facet normal 0 0 -1
    outer loop
      vertex 8 -13.8564 0
      vertex 29.2335 -13.0156 0
      vertex 25.8885 -18.8091 0
    endloop
  endfacet
  facet normal 0 0 -1
    outer loop
      vertex 1.67246 -15.9123 0
      vertex 25.8885 -18.8091 0
      vertex 21.4122 -23.7806 0
    endloop
  endfacet
  facet normal 0 0 -1
    outer loop
      vertex -4.94427 -15.2169 0
      vertex 21.4122 -23.7806 0
      vertex 16 -27.7128 0
    endloop
  endfacet
  facet normal 0 0 -1
    outer loop
      vertex -31.3007 -6.65317 0
      vertex 16 -27.7128 0
      vertex 9.88854 -30.4338 0
    endloop
  endfacet
  facet normal 0 0 -1
    outer loop
      vertex -31.3007 -6.65317 0
      vertex 9.88854 -30.4338 0
      vertex 3.34491 -31.8247 0
    endloop
  endfacet
  facet normal 0 0 -1
    outer loop
      vertex -31.3007 -6.65317 0
      vertex 3.34491 -31.8247 0
      vertex -3.34491 -31.8247 0
    endloop
  endfacet
  facet normal 0 0 -1
    outer loop
      vertex -31.3007 -6.65317 0
      vertex -3.34491 -31.8247 0
      vertex -9.88854 -30.4338 0
    endloop
  endfacet
  facet normal 0 0 -1
    outer loop
      vertex -31.3007 -6.65317 0
      vertex -9.88854 -30.4338 0
      vertex -16 -27.7128 0
    endloop
  endfacet
  facet normal 0 0 -1
    outer loop
      vertex -31.3007 -6.65317 0
      vertex -16 -27.7128 0
      vertex -21.4122 -23.7806 0
    endloop
  endfacet
  facet normal 0 0 -1
    outer loop
      vertex -31.3007 -6.65317 0
      vertex -21.4122 -23.7806 0
      vertex -25.8885 -18.8091 0
    endloop
  endfacet
  facet normal 0 0 -1
    outer loop
      vertex -31.3007 -6.65317 0
      vertex -25.8885 -18.8091 0
      vertex -29.2335 -13.0156 0
    endloop
  endfacet
  facet normal 0 0 -1
    outer loop
      vertex -15.6504 -3.32659 0
      vertex -31.3007 -6.65317 0
      vertex -16 0 0
    endloop
  endfacet
  facet normal 0 0 -1
    outer loop
      vertex -14.6167 -6.50779 0
      vertex -31.3007 -6.65317 0
      vertex -15.6504 -3.32659 0
    endloop
  endfacet
  facet normal 0 0 -1
    outer loop
      vertex -12.9443 -9.40456 0
      vertex -31.3007 -6.65317 0
      vertex -14.6167 -6.50779 0
    endloop
  endfacet
  facet normal 0 0 -1
    outer loop
      vertex -10.7061 -11.8903 0
      vertex -31.3007 -6.65317 0
      vertex -12.9443 -9.40456 0
    endloop
  endfacet
  facet normal 0 0 -1
    outer loop
      vertex -1.67246 -15.9123 0
      vertex 21.4122 -23.7806 0
      vertex -4.94427 -15.2169 0
    endloop
  endfacet
  facet normal 0 0 -1
    outer loop
      vertex -31.3007 -6.65317 0
      vertex -10.7061 -11.8903 0
      vertex -8 -13.8564 0
    endloop
  endfacet
  facet normal 0 0 -1
    outer loop
      vertex -31.3007 -6.65317 0
      vertex -8 -13.8564 0
      vertex -4.94427 -15.2169 0
    endloop
  endfacet
  facet normal 0 0 -1
    outer loop
      vertex -31.3007 -6.65317 0
      vertex -4.94427 -15.2169 0
      vertex 16 -27.7128 0
    endloop
  endfacet
  facet normal 0 0 -1
    outer loop
      vertex 1.67246 -15.9123 0
      vertex 21.4122 -23.7806 0
      vertex -1.67246 -15.9123 0
    endloop
  endfacet
  facet normal 0 0 -1
    outer loop
      vertex 4.94427 -15.2169 0
      vertex 25.8885 -18.8091 0
      vertex 1.67246 -15.9123 0
    endloop
  endfacet
  facet normal 0 0 -1
    outer loop
      vertex 8 -13.8564 0
      vertex 25.8885 -18.8091 0
      vertex 4.94427 -15.2169 0
    endloop
  endfacet
  facet normal 0 0 -1
    outer loop
      vertex 10.7061 -11.8903 0
      vertex 29.2335 -13.0156 0
      vertex 8 -13.8564 0
    endloop
  endfacet
  facet normal 0 0 -1
    outer loop
      vertex 12.9443 -9.40456 0
      vertex 29.2335 -13.0156 0
      vertex 10.7061 -11.8903 0
    endloop
  endfacet
  facet normal 0 0 -1
    outer loop
      vertex 15.6504 -3.32659 0
      vertex 32 0 0
      vertex 14.6167 -6.50779 0
    endloop
  endfacet
  facet normal 0 0 -1
    outer loop
      vertex 16 0 0
      vertex 32 0 0
      vertex 15.6504 -3.32659 0
    endloop
  endfacet
  facet normal 0 0 -1
    outer loop
      vertex 15.6504 3.32659 0
      vertex 31.3007 6.65317 0
      vertex 16 0 0
    endloop
  endfacet
  facet normal 0 0 -1
    outer loop
      vertex 14.6167 -6.50779 0
      vertex 31.3007 -6.65317 0
      vertex 12.9443 -9.40456 0
    endloop
  endfacet
  facet normal 0 0 -1
    outer loop
      vertex 12.9443 9.40456 0
      vertex 29.2335 13.0156 0
      vertex 14.6167 6.50779 0
    endloop
  endfacet
  facet normal 0 0 -1
    outer loop
      vertex 10.7061 11.8903 0
      vertex 25.8885 18.8091 0
      vertex 12.9443 9.40456 0
    endloop
  endfacet
  facet normal 0 0 -1
    outer loop
      vertex 8 13.8564 0
      vertex 25.8885 18.8091 0
      vertex 10.7061 11.8903 0
    endloop
  endfacet
  facet normal 0 0 -1
    outer loop
      vertex 1.67246 15.9123 0
      vertex 16 27.7128 0
      vertex 4.94427 15.2169 0
    endloop
  endfacet
  facet normal 0 0 -1
    outer loop
      vertex 14.6167 6.50779 0
      vertex 31.3007 6.65317 0
      vertex 15.6504 3.32659 0
    endloop
  endfacet
  facet normal 0 0 -1
    outer loop
      vertex -4.94427 15.2169 0
      vertex 9.88854 30.4338 0
      vertex -1.67246 15.9123 0
    endloop
  endfacet
  facet normal 0 0 -1
    outer loop
      vertex -12.9443 9.40456 0
      vertex -31.3007 -6.65317 0
      vertex -10.7061 11.8903 0
    endloop
  endfacet
  facet normal 0 0 -1
    outer loop
      vertex -8 13.8564 0
      vertex 9.88854 30.4338 0
      vertex -4.94427 15.2169 0
    endloop
  endfacet
  facet normal 0 0 -1
    outer loop
      vertex -10.7061 11.8903 0
      vertex 9.88854 30.4338 0
      vertex -8 13.8564 0
    endloop
  endfacet
  facet normal 0 0 -1
    outer loop
      vertex -31.3007 -6.65317 0
      vertex 9.88854 30.4338 0
      vertex -10.7061 11.8903 0
    endloop
  endfacet
  facet normal 0 0 -1
    outer loop
      vertex -14.6167 6.50779 0
      vertex -31.3007 -6.65317 0
      vertex -12.9443 9.40456 0
    endloop
  endfacet
  facet normal 0 0 -1
    outer loop
      vertex -15.6504 3.32659 0
      vertex -31.3007 -6.65317 0
      vertex -14.6167 6.50779 0
    endloop
  endfacet
  facet normal 0 0 -1
    outer loop
      vertex -16 0 0
      vertex -31.3007 -6.65317 0
      vertex -15.6504 3.32659 0
    endloop
  endfacet
  facet normal 0 0 -1
    outer loop
      vertex -1.67246 15.9123 0
      vertex 16 27.7128 0
      vertex 1.67246 15.9123 0
    endloop
  endfacet
  facet normal 0 0 -1
    outer loop
      vertex 4.94427 15.2169 0
      vertex 21.4122 23.7806 0
      vertex 8 13.8564 0
    endloop
  endfacet
  facet normal -0.994522 0.104528 0
    outer loop
      vertex -32 0 0
      vertex -32 0 20
      vertex -31.3007 6.65317 0
    endloop
  endfacet
  facet normal -0.994522 0.104528 0
    outer loop
      vertex -31.3007 6.65317 0
      vertex -32 0 20
      vertex -31.3007 6.65317 20
    endloop
  endfacet
  facet normal -0.994522 -0.104528 0
    outer loop
      vertex -32 0 0
      vertex -31.3007 -6.65317 0
      vertex -32 0 20
    endloop
  endfacet
  facet normal -0.994522 -0.104528 0
    outer loop
      vertex -32 0 20
      vertex -31.3007 -6.65317 0
      vertex -31.3007 -6.65317 20
    endloop
  endfacet
  facet normal -0.951057 -0.309017 0
    outer loop
      vertex -31.3007 -6.65317 0
      vertex -29.2335 -13.0156 0
      vertex -31.3007 -6.65317 20
    endloop
  endfacet
  facet normal -0.951057 -0.309017 0
    outer loop
      vertex -31.3007 -6.65317 20
      vertex -29.2335 -13.0156 0
      vertex -29.2335 -13.0156 20
    endloop
  endfacet
  facet normal -0.866025 -0.5 0
    outer loop
      vertex -29.2335 -13.0156 0
      vertex -25.8885 -18.8091 0
      vertex -29.2335 -13.0156 20
    endloop
  endfacet
  facet normal -0.866025 -0.5 0
    outer loop
      vertex -29.2335 -13.0156 20
      vertex -25.8885 -18.8091 0
      vertex -25.8885 -18.8091 20
    endloop
  endfacet
  facet normal -0.743145 -0.669131 0
    outer loop
      vertex -25.8885 -18.8091 0
      vertex -21.4122 -23.7806 0
      vertex -25.8885 -18.8091 20
    endloop
  endfacet
  facet normal -0.743145 -0.669131 0
    outer loop
      vertex -25.8885 -18.8091 20
      vertex -21.4122 -23.7806 0
      vertex -21.4122 -23.7806 20
    endloop
  endfacet
  facet normal -0.587785 -0.809017 0
    outer loop
      vertex -21.4122 -23.7806 20
      vertex -21.4122 -23.7806 0
      vertex -16 -27.7128 0
    endloop
  endfacet
  facet normal -0.587785 -0.809017 0
    outer loop
      vertex -16 -27.7128 20
      vertex -21.4122 -23.7806 20
      vertex -16 -27.7128 0
    endloop
  endfacet
  facet normal -0.406737 -0.913545 0
    outer loop
      vertex -16 -27.7128 20
      vertex -16 -27.7128 0
      vertex -9.88854 -30.4338 0
    endloop
  endfacet
  facet normal -0.406737 -0.913545 0
    outer loop
      vertex -9.88854 -30.4338 20
      vertex -16 -27.7128 20
      vertex -9.88854 -30.4338 0
    endloop
  endfacet
  facet normal -0.207912 -0.978148 0
    outer loop
      vertex -9.88854 -30.4338 20
      vertex -9.88854 -30.4338 0
      vertex -3.34491 -31.8247 0
    endloop
  endfacet
  facet normal -0.207912 -0.978148 0
    outer loop
      vertex -3.34491 -31.8247 20
      vertex -9.88854 -30.4338 20
      vertex -3.34491 -31.8247 0
    endloop
  endfacet
  facet normal 0 -1 0
    outer loop
      vertex -3.34491 -31.8247 20
      vertex -3.34491 -31.8247 0
      vertex 3.34491 -31.8247 0
    endloop
  endfacet
  facet normal 0 -1 0
    outer loop
      vertex 3.34491 -31.8247 20
      vertex -3.34491 -31.8247 20
      vertex 3.34491 -31.8247 0
    endloop
  endfacet
  facet normal 0.207912 -0.978148 0
    outer loop
      vertex 3.34491 -31.8247 20
      vertex 3.34491 -31.8247 0
      vertex 9.88854 -30.4338 0
    endloop
  endfacet
  facet normal 0.207912 -0.978148 0
    outer loop
      vertex 9.88854 -30.4338 20
      vertex 3.34491 -31.8247 20
      vertex 9.88854 -30.4338 0
    endloop
  endfacet
  facet normal 0.406737 -0.913545 0
    outer loop
      vertex 9.88854 -30.4338 20
      vertex 9.88854 -30.4338 0
      vertex 16 -27.7128 0
    endloop
  endfacet
  facet normal 0.406737 -0.913545 0
    outer loop
      vertex 16 -27.7128 20
      vertex 9.88854 -30.4338 20
      vertex 16 -27.7128 0
    endloop
  endfacet
  facet normal 0.587785 -0.809017 0
    outer loop
      vertex 16 -27.7128 20
      vertex 16 -27.7128 0
      vertex 21.4122 -23.7806 0
    endloop
  endfacet
  facet normal 0.587785 -0.809017 0
    outer loop
      vertex 21.4122 -23.7806 20
      vertex 16 -27.7128 20
      vertex 21.4122 -23.7806 0
    endloop
  endfacet
  facet normal 0.743145 -0.669131 0
    outer loop
      vertex 21.4122 -23.7806 20
      vertex 21.4122 -23.7806 0
      vertex 25.8885 -18.8091 0
    endloop
  endfacet
  facet normal 0.743145 -0.669131 0
    outer loop
      vertex 25.8885 -18.8091 20
      vertex 21.4122 -23.7806 20
      vertex 25.8885 -18.8091 0
    endloop
  endfacet
  facet normal 0.866025 -0.5 0
    outer loop
      vertex 25.8885 -18.8091 20
      vertex 25.8885 -18.8091 0
      vertex 29.2335 -13.0156 0
    endloop
  endfacet
  facet normal 0.866025 -0.5 0
    outer loop
      vertex 29.2335 -13.0156 20
      vertex 25.8885 -18.8091 20
      vertex 29.2335 -13.0156 0
    endloop
  endfacet
  facet normal 0.951057 -0.309017 0
    outer loop
      vertex 29.2335 -13.0156 20
      vertex 29.2335 -13.0156 0
      vertex 31.3007 -6.65317 0
    endloop
  endfacet
  facet normal 0.951057 -0.309017 0
    outer loop
      vertex 31.3007 -6.65317 20
      vertex 29.2335 -13.0156 20
      vertex 31.3007 -6.65317 0
    endloop
  endfacet
  facet normal 0.994522 -0.104528 0
    outer loop
      vertex 31.3007 -6.65317 20
      vertex 31.3007 -6.65317 0
      vertex 32 0 0
    endloop
  endfacet
  facet normal 0.994522 -0.104528 0
    outer loop
      vertex 32 0 20
      vertex 31.3007 -6.65317 20
      vertex 32 0 0
    endloop
  endfacet
  facet normal 0.994522 0.104528 0
    outer loop
      vertex 32 0 0
      vertex 31.3007 6.65317 0
      vertex 31.3007 6.65317 20
    endloop
  endfacet
  facet normal 0.994522 0.104528 0
    outer loop
      vertex 32 0 20
      vertex 32 0 0
      vertex 31.3007 6.65317 20
    endloop
  endfacet
  facet normal 0.951057 0.309017 0
    outer loop
      vertex 31.3007 6.65317 0
      vertex 29.2335 13.0156 0
      vertex 29.2335 13.0156 20
    endloop
  endfacet
  facet normal 0.951057 0.309017 0
    outer loop
      vertex 31.3007 6.65317 20
      vertex 31.3007 6.65317 0
      vertex 29.2335 13.0156 20
    endloop
  endfacet
  facet normal 0.866025 0.5 0
    outer loop
      vertex 29.2335 13.0156 0
      vertex 25.8885 18.8091 0
      vertex 25.8885 18.8091 20
    endloop
  endfacet
  facet normal 0.866025 0.5 0
    outer loop
      vertex 29.2335 13.0156 20
      vertex 29.2335 13.0156 0
      vertex 25.8885 18.8091 20
    endloop
  endfacet
  facet normal 0.743145 0.669131 0
    outer loop
      vertex 25.8885 18.8091 0
      vertex 21.4122 23.7806 0
      vertex 21.4122 23.7806 20
    endloop
  endfacet
  facet normal 0.743145 0.669131 0
    outer loop
      vertex 25.8885 18.8091 20
      vertex 25.8885 18.8091 0
      vertex 21.4122 23.7806 20
    endloop
  endfacet
  facet normal 0.587785 0.809017 0
    outer loop
      vertex 16 27.7128 0
      vertex 16 27.7128 20
      vertex 21.4122 23.7806 0
    endloop
  endfacet
  facet normal 0.587785 0.809017 0
    outer loop
      vertex 21.4122 23.7806 0
      vertex 16 27.7128 20
      vertex 21.4122 23.7806 20
    endloop
  endfacet
  facet normal 0.406737 0.913545 0
    outer loop
      vertex 9.88854 30.4338 0
      vertex 9.88854 30.4338 20
      vertex 16 27.7128 0
    endloop
  endfacet
  facet normal 0.406737 0.913545 0
    outer loop
      vertex 16 27.7128 0
      vertex 9.88854 30.4338 20
      vertex 16 27.7128 20
    endloop
  endfacet
  facet normal 0.207912 0.978148 0
    outer loop
      vertex 3.34491 31.8247 0
      vertex 3.34491 31.8247 20
      vertex 9.88854 30.4338 0
    endloop
  endfacet
  facet normal 0.207912 0.978148 0
    outer loop
      vertex 9.88854 30.4338 0
      vertex 3.34491 31.8247 20
      vertex 9.88854 30.4338 20
    endloop
  endfacet
  facet normal 0 1 0
    outer loop
      vertex -3.34491 31.8247 0
      vertex -3.34491 31.8247 20
      vertex 3.34491 31.8247 0
    endloop
  endfacet
  facet normal 0 1 0
    outer loop
      vertex 3.34491 31.8247 0
      vertex -3.34491 31.8247 20
      vertex 3.34491 31.8247 20
    endloop
  endfacet
  facet normal -0.207912 0.978148 0
    outer loop
      vertex -9.88854 30.4338 0
      vertex -9.88854 30.4338 20
      vertex -3.34491 31.8247 0
    endloop
  endfacet
  facet normal -0.207912 0.978148 0
    outer loop
      vertex -3.34491 31.8247 0
      vertex -9.88854 30.4338 20
      vertex -3.34491 31.8247 20
    endloop
  endfacet
  facet normal -0.406737 0.913545 0
    outer loop
      vertex -16 27.7128 0
      vertex -16 27.7128 20
      vertex -9.88854 30.4338 0
    endloop
  endfacet
  facet normal -0.406737 0.913545 0
    outer loop
      vertex -9.88854 30.4338 0
      vertex -16 27.7128 20
      vertex -9.88854 30.4338 20
    endloop
  endfacet
  facet normal -0.587785 0.809017 0
    outer loop
      vertex -21.4122 23.7806 0
      vertex -21.4122 23.7806 20
      vertex -16 27.7128 0
    endloop
  endfacet
  facet normal -0.587785 0.809017 0
    outer loop
      vertex -16 27.7128 0
      vertex -21.4122 23.7806 20
      vertex -16 27.7128 20
    endloop
  endfacet
  facet normal -0.743145 0.669131 0
    outer loop
      vertex -25.8885 18.8091 0
      vertex -25.8885 18.8091 20
      vertex -21.4122 23.7806 0
    endloop
  endfacet
  facet normal -0.743145 0.669131 0
    outer loop
      vertex -21.4122 23.7806 0
      vertex -25.8885 18.8091 20
      vertex -21.4122 23.7806 20
    endloop
  endfacet
  facet normal -0.866025 0.5 0
    outer loop
      vertex -29.2335 13.0156 0
      vertex -29.2335 13.0156 20
      vertex -25.8885 18.8091 0
    endloop
  endfacet
  facet normal -0.866025 0.5 0
    outer loop
      vertex -25.8885 18.8091 0
      vertex -29.2335 13.0156 20
      vertex -25.8885 18.8091 20
    endloop
  endfacet
  facet normal -0.951057 0.309017 0
    outer loop
      vertex -31.3007 6.65317 0
      vertex -31.3007 6.65317 20
      vertex -29.2335 13.0156 0
    endloop
  endfacet
  facet normal -0.951057 0.309017 0
    outer loop
      vertex -29.2335 13.0156 0
      vertex -31.3007 6.65317 20
      vertex -29.2335 13.0156 20
    endloop
  endfacet
  facet normal 0.994522 -0.104528 0
    outer loop
      vertex -15.6504 3.32659 0
      vertex -15.6504 3.32659 5
      vertex -16 0 5
    endloop
  endfacet
  facet normal 0.994522 -0.104528 0
    outer loop
      vertex -16 0 0
      vertex -15.6504 3.32659 0
      vertex -16 0 5
    endloop
  endfacet
  facet normal 0.994522 0.104528 0
    outer loop
      vertex -16 0 5
      vertex -15.6504 -3.32659 5
      vertex -15.6504 -3.32659 0
    endloop
  endfacet
  facet normal 0.994522 0.104528 0
    outer loop
      vertex -16 0 0
      vertex -16 0 5
      vertex -15.6504 -3.32659 0
    endloop
  endfacet
  facet normal 0.951056 -0.309017 0
    outer loop
      vertex -14.6167 6.50779 0
      vertex -14.6167 6.50779 5
      vertex -15.6504 3.32659 5
    endloop
  endfacet
  facet normal 0.951056 -0.309017 0
    outer loop
      vertex -15.6504 3.32659 0
      vertex -14.6167 6.50779 0
      vertex -15.6504 3.32659 5
    endloop
  endfacet
  facet normal 0.866025 -0.5 0
    outer loop
      vertex -12.9443 9.40456 0
      vertex -12.9443 9.40456 5
      vertex -14.6167 6.50779 5
    endloop
  endfacet
  facet normal 0.866025 -0.5 0
    outer loop
      vertex -14.6167 6.50779 0
      vertex -12.9443 9.40456 0
      vertex -14.6167 6.50779 5
    endloop
  endfacet
  facet normal 0.743145 -0.669131 0
    outer loop
      vertex -10.7061 11.8903 0
      vertex -10.7061 11.8903 5
      vertex -12.9443 9.40456 5
    endloop
  endfacet
  facet normal 0.743145 -0.669131 0
    outer loop
      vertex -12.9443 9.40456 0
      vertex -10.7061 11.8903 0
      vertex -12.9443 9.40456 5
    endloop
  endfacet
  facet normal 0.587785 -0.809017 0
    outer loop
      vertex -8 13.8564 0
      vertex -8 13.8564 5
      vertex -10.7061 11.8903 5
    endloop
  endfacet
  facet normal 0.587785 -0.809017 0
    outer loop
      vertex -10.7061 11.8903 0
      vertex -8 13.8564 0
      vertex -10.7061 11.8903 5
    endloop
  endfacet
  facet normal 0.406737 -0.913545 0
    outer loop
      vertex -4.94427 15.2169 0
      vertex -4.94427 15.2169 5
      vertex -8 13.8564 5
    endloop
  endfacet
  facet normal 0.406737 -0.913545 0
    outer loop
      vertex -8 13.8564 0
      vertex -4.94427 15.2169 0
      vertex -8 13.8564 5
    endloop
  endfacet
  facet normal 0.207912 -0.978148 0
    outer loop
      vertex -1.67246 15.9123 0
      vertex -1.67246 15.9123 5
      vertex -4.94427 15.2169 5
    endloop
  endfacet
  facet normal 0.207912 -0.978148 0
    outer loop
      vertex -4.94427 15.2169 0
      vertex -1.67246 15.9123 0
      vertex -4.94427 15.2169 5
    endloop
  endfacet
  facet normal 0 -1 0
    outer loop
      vertex 1.67246 15.9123 0
      vertex 1.67246 15.9123 5
      vertex -1.67246 15.9123 5
    endloop
  endfacet
  facet normal 0 -1 0
    outer loop
      vertex -1.67246 15.9123 0
      vertex 1.67246 15.9123 0
      vertex -1.67246 15.9123 5
    endloop
  endfacet
  facet normal -0.207912 -0.978148 0
    outer loop
      vertex 4.94427 15.2169 0
      vertex 4.94427 15.2169 5
      vertex 1.67246 15.9123 5
    endloop
  endfacet
  facet normal -0.207912 -0.978148 0
    outer loop
      vertex 1.67246 15.9123 0
      vertex 4.94427 15.2169 0
      vertex 1.67246 15.9123 5
    endloop
  endfacet
  facet normal -0.406737 -0.913545 0
    outer loop
      vertex 8 13.8564 0
      vertex 8 13.8564 5
      vertex 4.94427 15.2169 5
    endloop
  endfacet
  facet normal -0.406737 -0.913545 0
    outer loop
      vertex 4.94427 15.2169 0
      vertex 8 13.8564 0
      vertex 4.94427 15.2169 5
    endloop
  endfacet
  facet normal -0.587785 -0.809017 0
    outer loop
      vertex 10.7061 11.8903 0
      vertex 10.7061 11.8903 5
      vertex 8 13.8564 5
    endloop
  endfacet
  facet normal -0.587785 -0.809017 0
    outer loop
      vertex 8 13.8564 0
      vertex 10.7061 11.8903 0
      vertex 8 13.8564 5
    endloop
  endfacet
  facet normal -0.743145 -0.669131 0
    outer loop
      vertex 12.9443 9.40456 5
      vertex 10.7061 11.8903 5
      vertex 12.9443 9.40456 0
    endloop
  endfacet
  facet normal -0.743145 -0.669131 0
    outer loop
      vertex 12.9443 9.40456 0
      vertex 10.7061 11.8903 5
      vertex 10.7061 11.8903 0
    endloop
  endfacet
  facet normal -0.866025 -0.5 0
    outer loop
      vertex 14.6167 6.50779 5
      vertex 12.9443 9.40456 5
      vertex 14.6167 6.50779 0
    endloop
  endfacet
  facet normal -0.866025 -0.5 0
    outer loop
      vertex 14.6167 6.50779 0
      vertex 12.9443 9.40456 5
      vertex 12.9443 9.40456 0
    endloop
  endfacet
  facet normal -0.951056 -0.309017 0
    outer loop
      vertex 15.6504 3.32659 5
      vertex 14.6167 6.50779 5
      vertex 15.6504 3.32659 0
    endloop
  endfacet
  facet normal -0.951056 -0.309017 0
    outer loop
      vertex 15.6504 3.32659 0
      vertex 14.6167 6.50779 5
      vertex 14.6167 6.50779 0
    endloop
  endfacet
  facet normal -0.994522 -0.104528 0
    outer loop
      vertex 16 0 5
      vertex 15.6504 3.32659 5
      vertex 16 0 0
    endloop
  endfacet
  facet normal -0.994522 -0.104528 0
    outer loop
      vertex 16 0 0
      vertex 15.6504 3.32659 5
      vertex 15.6504 3.32659 0
    endloop
  endfacet
  facet normal -0.994522 0.104528 0
    outer loop
      vertex 16 0 5
      vertex 16 0 0
      vertex 15.6504 -3.32659 5
    endloop
  endfacet
  facet normal -0.994522 0.104528 0
    outer loop
      vertex 15.6504 -3.32659 5
      vertex 16 0 0
      vertex 15.6504 -3.32659 0
    endloop
  endfacet
  facet normal -0.951056 0.309017 0
    outer loop
      vertex 15.6504 -3.32659 5
      vertex 15.6504 -3.32659 0
      vertex 14.6167 -6.50779 5
    endloop
  endfacet
  facet normal -0.951056 0.309017 0
    outer loop
      vertex 14.6167 -6.50779 5
      vertex 15.6504 -3.32659 0
      vertex 14.6167 -6.50779 0
    endloop
  endfacet
  facet normal -0.866025 0.5 0
    outer loop
      vertex 14.6167 -6.50779 5
      vertex 14.6167 -6.50779 0
      vertex 12.9443 -9.40456 5
    endloop
  endfacet
  facet normal -0.866025 0.5 0
    outer loop
      vertex 12.9443 -9.40456 5
      vertex 14.6167 -6.50779 0
      vertex 12.9443 -9.40456 0
    endloop
  endfacet
  facet normal -0.743145 0.669131 0
    outer loop
      vertex 12.9443 -9.40456 5
      vertex 12.9443 -9.40456 0
      vertex 10.7061 -11.8903 5
    endloop
  endfacet
  facet normal -0.743145 0.669131 0
    outer loop
      vertex 10.7061 -11.8903 5
      vertex 12.9443 -9.40456 0
      vertex 10.7061 -11.8903 0
    endloop
  endfacet
  facet normal -0.587785 0.809017 0
    outer loop
      vertex 10.7061 -11.8903 5
      vertex 10.7061 -11.8903 0
      vertex 8 -13.8564 5
    endloop
  endfacet
  facet normal -0.587785 0.809017 0
    outer loop
      vertex 8 -13.8564 5
      vertex 10.7061 -11.8903 0
      vertex 8 -13.8564 0
    endloop
  endfacet
  facet normal -0.406737 0.913545 0
    outer loop
      vertex 8 -13.8564 5
      vertex 8 -13.8564 0
      vertex 4.94427 -15.2169 5
    endloop
  endfacet
  facet normal -0.406737 0.913545 0
    outer loop
      vertex 4.94427 -15.2169 5
      vertex 8 -13.8564 0
      vertex 4.94427 -15.2169 0
    endloop
  endfacet
  facet normal -0.207912 0.978148 0
    outer loop
      vertex 4.94427 -15.2169 5
      vertex 4.94427 -15.2169 0
      vertex 1.67246 -15.9123 5
    endloop
  endfacet
  facet normal -0.207912 0.978148 0
    outer loop
      vertex 1.67246 -15.9123 5
      vertex 4.94427 -15.2169 0
      vertex 1.67246 -15.9123 0
    endloop
  endfacet
  facet normal 0 1 0
    outer loop
      vertex 1.67246 -15.9123 5
      vertex 1.67246 -15.9123 0
      vertex -1.67246 -15.9123 5
    endloop
  endfacet
  facet normal 0 1 0
    outer loop
      vertex -1.67246 -15.9123 5
      vertex 1.67246 -15.9123 0
      vertex -1.67246 -15.9123 0
    endloop
  endfacet
  facet normal 0.207912 0.978148 0
    outer loop
      vertex -1.67246 -15.9123 5
      vertex -1.67246 -15.9123 0
      vertex -4.94427 -15.2169 5
    endloop
  endfacet
  facet normal 0.207912 0.978148 0
    outer loop
      vertex -4.94427 -15.2169 5
      vertex -1.67246 -15.9123 0
      vertex -4.94427 -15.2169 0
    endloop
  endfacet
  facet normal 0.406737 0.913545 0
    outer loop
      vertex -4.94427 -15.2169 5
      vertex -4.94427 -15.2169 0
      vertex -8 -13.8564 5
    endloop
  endfacet
  facet normal 0.406737 0.913545 0
    outer loop
      vertex -8 -13.8564 5
      vertex -4.94427 -15.2169 0
      vertex -8 -13.8564 0
    endloop
  endfacet
  facet normal 0.587785 0.809017 0
    outer loop
      vertex -8 -13.8564 5
      vertex -8 -13.8564 0
      vertex -10.7061 -11.8903 5
    endloop
  endfacet
  facet normal 0.587785 0.809017 0
    outer loop
      vertex -10.7061 -11.8903 5
      vertex -8 -13.8564 0
      vertex -10.7061 -11.8903 0
    endloop
  endfacet
  facet normal 0.743145 0.669131 0
    outer loop
      vertex -12.9443 -9.40456 5
      vertex -10.7061 -11.8903 5
      vertex -10.7061 -11.8903 0
    endloop
  endfacet
  facet normal 0.743145 0.669131 0
    outer loop
      vertex -12.9443 -9.40456 0
      vertex -12.9443 -9.40456 5
      vertex -10.7061 -11.8903 0
    endloop
  endfacet
  facet normal 0.866025 0.5 0
    outer loop
      vertex -14.6167 -6.50779 5
      vertex -12.9443 -9.40456 5
      vertex -12.9443 -9.40456 0
    endloop
  endfacet
  facet normal 0.866025 0.5 0
    outer loop
      vertex -14.6167 -6.50779 0
      vertex -14.6167 -6.50779 5
      vertex -12.9443 -9.40456 0
    endloop
  endfacet
  facet normal 0.951056 0.309017 0
    outer loop
      vertex -15.6504 -3.32659 5
      vertex -14.6167 -6.50779 5
      vertex -14.6167 -6.50779 0
    endloop
  endfacet
  facet normal 0.951056 0.309017 0
    outer loop
      vertex -15.6504 -3.32659 0
      vertex -15.6504 -3.32659 5
      vertex -14.6167 -6.50779 0
    endloop
  endfacet
  facet normal 0 0 1
    outer loop
      vertex -31.3007 6.65317 20
      vertex -32 0 20
      vertex -31.3007 -6.65317 20
    endloop
  endfacet
  facet normal 0 0 1
    outer loop
      vertex -25.8885 -18.8091 20
      vertex -31.3007 6.65317 20
      vertex -29.2335 -13.0156 20
    endloop
  endfacet
  facet normal 0 0 1
    outer loop
      vertex -29.2335 -13.0156 20
      vertex -31.3007 6.65317 20
      vertex -31.3007 -6.65317 20
    endloop
  endfacet
  facet normal 0 0 1
    outer loop
      vertex -28.3663 -6.02944 20
      vertex -31.3007 6.65317 20
      vertex -25.8885 -18.8091 20
    endloop
  endfacet
  facet normal 0 0 1
    outer loop
      vertex -28.3663 6.02944 20
      vertex -26.4928 11.7954 20
      vertex -31.3007 6.65317 20
    endloop
  endfacet
  facet normal 0 0 1
    outer loop
      vertex -14.5 -25.1147 20
      vertex -19.4048 -21.5512 20
      vertex -16 -27.7128 20
    endloop
  endfacet
  facet normal 0 0 1
    outer loop
      vertex 26.4928 11.7954 20
      vertex 28.3663 6.02944 20
      vertex 31.3007 6.65317 20
    endloop
  endfacet
  facet normal 0 0 1
    outer loop
      vertex 23.4615 17.0458 20
      vertex 26.4928 11.7954 20
      vertex 29.2335 13.0156 20
    endloop
  endfacet
  facet normal 0 0 1
    outer loop
      vertex 19.4048 21.5512 20
      vertex 23.4615 17.0458 20
      vertex 25.8885 18.8091 20
    endloop
  endfacet
  facet normal 0 0 1
    outer loop
      vertex 14.5 25.1147 20
      vertex 19.4048 21.5512 20
      vertex 21.4122 23.7806 20
    endloop
  endfacet
  facet normal 0 0 1
    outer loop
      vertex 8.96149 27.5806 20
      vertex 14.5 25.1147 20
      vertex 16 27.7128 20
    endloop
  endfacet
  facet normal 0 0 1
    outer loop
      vertex -19.4048 21.5512 20
      vertex -14.5 25.1147 20
      vertex -9.88854 30.4338 20
    endloop
  endfacet
  facet normal 0 0 1
    outer loop
      vertex -8.96149 27.5806 20
      vertex -3.03132 28.8411 20
      vertex -3.34491 31.8247 20
    endloop
  endfacet
  facet normal 0 0 1
    outer loop
      vertex -21.4122 23.7806 20
      vertex -31.3007 6.65317 20
      vertex -16 27.7128 20
    endloop
  endfacet
  facet normal 0 0 1
    outer loop
      vertex -25.8885 18.8091 20
      vertex -31.3007 6.65317 20
      vertex -21.4122 23.7806 20
    endloop
  endfacet
  facet normal 0 0 1
    outer loop
      vertex -29.2335 13.0156 20
      vertex -31.3007 6.65317 20
      vertex -25.8885 18.8091 20
    endloop
  endfacet
  facet normal 0 0 1
    outer loop
      vertex -26.4928 -11.7954 20
      vertex -28.3663 -6.02944 20
      vertex -25.8885 -18.8091 20
    endloop
  endfacet
  facet normal 0 0 1
    outer loop
      vertex 26.4928 -11.7954 20
      vertex 23.4615 -17.0458 20
      vertex 29.2335 -13.0156 20
    endloop
  endfacet
  facet normal 0 0 1
    outer loop
      vertex -3.03132 28.8411 20
      vertex 3.03132 28.8411 20
      vertex 3.34491 31.8247 20
    endloop
  endfacet
  facet normal 0 0 1
    outer loop
      vertex 28.3663 6.02944 20
      vertex 29 0 20
      vertex 32 0 20
    endloop
  endfacet
  facet normal 0 0 1
    outer loop
      vertex -16 27.7128 20
      vertex -31.3007 6.65317 20
      vertex -23.4615 17.0458 20
    endloop
  endfacet
  facet normal 0 0 1
    outer loop
      vertex -16 27.7128 20
      vertex -19.4048 21.5512 20
      vertex -9.88854 30.4338 20
    endloop
  endfacet
  facet normal 0 0 1
    outer loop
      vertex -16 27.7128 20
      vertex -23.4615 17.0458 20
      vertex -19.4048 21.5512 20
    endloop
  endfacet
  facet normal 0 0 1
    outer loop
      vertex -9.88854 30.4338 20
      vertex -14.5 25.1147 20
      vertex -3.34491 31.8247 20
    endloop
  endfacet
  facet normal 0 0 1
    outer loop
      vertex -14.5 25.1147 20
      vertex -8.96149 27.5806 20
      vertex -3.34491 31.8247 20
    endloop
  endfacet
  facet normal 0 0 1
    outer loop
      vertex -3.34491 31.8247 20
      vertex -3.03132 28.8411 20
      vertex 3.34491 31.8247 20
    endloop
  endfacet
  facet normal 0 0 1
    outer loop
      vertex -26.4928 11.7954 20
      vertex -23.4615 17.0458 20
      vertex -31.3007 6.65317 20
    endloop
  endfacet
  facet normal 0 0 1
    outer loop
      vertex 3.34491 31.8247 20
      vertex 3.03132 28.8411 20
      vertex 9.88854 30.4338 20
    endloop
  endfacet
  facet normal 0 0 1
    outer loop
      vertex 9.88854 30.4338 20
      vertex 8.96149 27.5806 20
      vertex 16 27.7128 20
    endloop
  endfacet
  facet normal 0 0 1
    outer loop
      vertex 16 27.7128 20
      vertex 14.5 25.1147 20
      vertex 21.4122 23.7806 20
    endloop
  endfacet
  facet normal 0 0 1
    outer loop
      vertex 21.4122 23.7806 20
      vertex 19.4048 21.5512 20
      vertex 25.8885 18.8091 20
    endloop
  endfacet
  facet normal 0 0 1
    outer loop
      vertex 25.8885 18.8091 20
      vertex 23.4615 17.0458 20
      vertex 29.2335 13.0156 20
    endloop
  endfacet
  facet normal 0 0 1
    outer loop
      vertex 29.2335 13.0156 20
      vertex 26.4928 11.7954 20
      vertex 31.3007 6.65317 20
    endloop
  endfacet
  facet normal 0 0 1
    outer loop
      vertex 31.3007 6.65317 20
      vertex 28.3663 6.02944 20
      vertex 32 0 20
    endloop
  endfacet
  facet normal 0 0 1
    outer loop
      vertex 32 0 20
      vertex 29 0 20
      vertex 31.3007 -6.65317 20
    endloop
  endfacet
  facet normal 0 0 1
    outer loop
      vertex 31.3007 -6.65317 20
      vertex 28.3663 -6.02944 20
      vertex 29.2335 -13.0156 20
    endloop
  endfacet
  facet normal 0 0 1
    outer loop
      vertex 3.03132 28.8411 20
      vertex 8.96149 27.5806 20
      vertex 9.88854 30.4338 20
    endloop
  endfacet
  facet normal 0 0 1
    outer loop
      vertex 28.3663 -6.02944 20
      vertex 26.4928 -11.7954 20
      vertex 29.2335 -13.0156 20
    endloop
  endfacet
  facet normal 0 0 1
    outer loop
      vertex 29.2335 -13.0156 20
      vertex 23.4615 -17.0458 20
      vertex 25.8885 -18.8091 20
    endloop
  endfacet
  facet normal 0 0 1
    outer loop
      vertex 25.8885 -18.8091 20
      vertex 19.4048 -21.5512 20
      vertex 21.4122 -23.7806 20
    endloop
  endfacet
  facet normal 0 0 1
    outer loop
      vertex 21.4122 -23.7806 20
      vertex 14.5 -25.1147 20
      vertex 16 -27.7128 20
    endloop
  endfacet
  facet normal 0 0 1
    outer loop
      vertex 16 -27.7128 20
      vertex 8.96149 -27.5806 20
      vertex 9.88854 -30.4338 20
    endloop
  endfacet
  facet normal 0 0 1
    outer loop
      vertex 9.88854 -30.4338 20
      vertex 3.03132 -28.8411 20
      vertex 3.34491 -31.8247 20
    endloop
  endfacet
  facet normal 0 0 1
    outer loop
      vertex 3.34491 -31.8247 20
      vertex -3.03132 -28.8411 20
      vertex -3.34491 -31.8247 20
    endloop
  endfacet
  facet normal 0 0 1
    outer loop
      vertex -3.34491 -31.8247 20
      vertex -8.96149 -27.5806 20
      vertex -9.88854 -30.4338 20
    endloop
  endfacet
  facet normal 0 0 1
    outer loop
      vertex 29 0 20
      vertex 28.3663 -6.02944 20
      vertex 31.3007 -6.65317 20
    endloop
  endfacet
  facet normal 0 0 1
    outer loop
      vertex -9.88854 -30.4338 20
      vertex -14.5 -25.1147 20
      vertex -16 -27.7128 20
    endloop
  endfacet
  facet normal 0 0 1
    outer loop
      vertex -16 -27.7128 20
      vertex -19.4048 -21.5512 20
      vertex -21.4122 -23.7806 20
    endloop
  endfacet
  facet normal 0 0 1
    outer loop
      vertex -19.4048 -21.5512 20
      vertex -23.4615 -17.0458 20
      vertex -21.4122 -23.7806 20
    endloop
  endfacet
  facet normal 0 0 1
    outer loop
      vertex -21.4122 -23.7806 20
      vertex -26.4928 -11.7954 20
      vertex -25.8885 -18.8091 20
    endloop
  endfacet
  facet normal 0 0 1
    outer loop
      vertex -28.3663 -6.02944 20
      vertex -29 0 20
      vertex -31.3007 6.65317 20
    endloop
  endfacet
  facet normal 0 0 1
    outer loop
      vertex 23.4615 -17.0458 20
      vertex 19.4048 -21.5512 20
      vertex 25.8885 -18.8091 20
    endloop
  endfacet
  facet normal 0 0 1
    outer loop
      vertex 19.4048 -21.5512 20
      vertex 14.5 -25.1147 20
      vertex 21.4122 -23.7806 20
    endloop
  endfacet
  facet normal 0 0 1
    outer loop
      vertex 14.5 -25.1147 20
      vertex 8.96149 -27.5806 20
      vertex 16 -27.7128 20
    endloop
  endfacet
  facet normal 0 0 1
    outer loop
      vertex 8.96149 -27.5806 20
      vertex 3.03132 -28.8411 20
      vertex 9.88854 -30.4338 20
    endloop
  endfacet
  facet normal 0 0 1
    outer loop
      vertex 3.03132 -28.8411 20
      vertex -3.03132 -28.8411 20
      vertex 3.34491 -31.8247 20
    endloop
  endfacet
  facet normal 0 0 1
    outer loop
      vertex -3.03132 -28.8411 20
      vertex -8.96149 -27.5806 20
      vertex -3.34491 -31.8247 20
    endloop
  endfacet
  facet normal 0 0 1
    outer loop
      vertex -8.96149 -27.5806 20
      vertex -14.5 -25.1147 20
      vertex -9.88854 -30.4338 20
    endloop
  endfacet
  facet normal 0 0 1
    outer loop
      vertex -23.4615 -17.0458 20
      vertex -26.4928 -11.7954 20
      vertex -21.4122 -23.7806 20
    endloop
  endfacet
  facet normal 0 0 1
    outer loop
      vertex -29 0 20
      vertex -28.3663 6.02944 20
      vertex -31.3007 6.65317 20
    endloop
  endfacet
  facet normal 0 0 1
    outer loop
      vertex -26.41 -5.61362 5
      vertex -24.6657 -10.9819 5
      vertex -21.8435 -15.8702 5
    endloop
  endfacet
  facet normal 0 0 1
    outer loop
      vertex -13.5 -23.3827 5
      vertex -26.41 -5.61362 5
      vertex -18.0665 -20.0649 5
    endloop
  endfacet
  facet normal 0 0 1
    outer loop
      vertex -18.0665 -20.0649 5
      vertex -26.41 -5.61362 5
      vertex -21.8435 -15.8702 5
    endloop
  endfacet
  facet normal 0 0 1
    outer loop
      vertex -8.34346 -25.6785 5
      vertex -26.41 -5.61362 5
      vertex -13.5 -23.3827 5
    endloop
  endfacet
  facet normal 0 0 1
    outer loop
      vertex -2.82227 -26.8521 5
      vertex -26.41 -5.61362 5
      vertex -8.34346 -25.6785 5
    endloop
  endfacet
  facet normal 0 0 1
    outer loop
      vertex 2.82227 -26.8521 5
      vertex -26.41 -5.61362 5
      vertex -2.82227 -26.8521 5
    endloop
  endfacet
  facet normal 0 0 1
    outer loop
      vertex 8.34346 -25.6785 5
      vertex -26.41 -5.61362 5
      vertex 2.82227 -26.8521 5
    endloop
  endfacet
  facet normal 0 0 1
    outer loop
      vertex -8 -13.8564 5
      vertex -26.41 -5.61362 5
      vertex 8.34346 -25.6785 5
    endloop
  endfacet
  facet normal 0 0 1
    outer loop
      vertex -1.67246 -15.9123 5
      vertex -4.94427 -15.2169 5
      vertex 13.5 -23.3827 5
    endloop
  endfacet
  facet normal 0 0 1
    outer loop
      vertex 4.94427 -15.2169 5
      vertex 1.67246 -15.9123 5
      vertex 18.0665 -20.0649 5
    endloop
  endfacet
  facet normal 0 0 1
    outer loop
      vertex 10.7061 -11.8903 5
      vertex 8 -13.8564 5
      vertex 21.8435 -15.8702 5
    endloop
  endfacet
  facet normal 0 0 1
    outer loop
      vertex 12.9443 -9.40456 5
      vertex 10.7061 -11.8903 5
      vertex 24.6657 -10.9819 5
    endloop
  endfacet
  facet normal 0 0 1
    outer loop
      vertex 15.6504 -3.32659 5
      vertex 14.6167 -6.50779 5
      vertex 26.41 -5.61362 5
    endloop
  endfacet
  facet normal 0 0 1
    outer loop
      vertex 16 0 5
      vertex 15.6504 -3.32659 5
      vertex 27 0 5
    endloop
  endfacet
  facet normal 0 0 1
    outer loop
      vertex 10.7061 11.8903 5
      vertex 12.9443 9.40456 5
      vertex 21.8435 15.8702 5
    endloop
  endfacet
  facet normal 0 0 1
    outer loop
      vertex -10.7061 11.8903 5
      vertex -8 13.8564 5
      vertex 2.82227 26.8521 5
    endloop
  endfacet
  facet normal 0 0 1
    outer loop
      vertex 1.67246 15.9123 5
      vertex 4.94427 15.2169 5
      vertex 13.5 23.3827 5
    endloop
  endfacet
  facet normal 0 0 1
    outer loop
      vertex -8.34346 25.6785 5
      vertex -26.41 -5.61362 5
      vertex -2.82227 26.8521 5
    endloop
  endfacet
  facet normal 0 0 1
    outer loop
      vertex -13.5 23.3827 5
      vertex -26.41 -5.61362 5
      vertex -8.34346 25.6785 5
    endloop
  endfacet
  facet normal 0 0 1
    outer loop
      vertex -18.0665 20.0649 5
      vertex -26.41 -5.61362 5
      vertex -13.5 23.3827 5
    endloop
  endfacet
  facet normal 0 0 1
    outer loop
      vertex -21.8435 15.8702 5
      vertex -26.41 -5.61362 5
      vertex -18.0665 20.0649 5
    endloop
  endfacet
  facet normal 0 0 1
    outer loop
      vertex -24.6657 10.9819 5
      vertex -26.41 -5.61362 5
      vertex -21.8435 15.8702 5
    endloop
  endfacet
  facet normal 0 0 1
    outer loop
      vertex -26.41 5.61362 5
      vertex -26.41 -5.61362 5
      vertex -24.6657 10.9819 5
    endloop
  endfacet
  facet normal 0 0 1
    outer loop
      vertex -27 0 5
      vertex -26.41 -5.61362 5
      vertex -26.41 5.61362 5
    endloop
  endfacet
  facet normal 0 0 1
    outer loop
      vertex 12.9443 9.40456 5
      vertex 14.6167 6.50779 5
      vertex 24.6657 10.9819 5
    endloop
  endfacet
  facet normal 0 0 1
    outer loop
      vertex -12.9443 -9.40456 5
      vertex -14.6167 -6.50779 5
      vertex -26.41 -5.61362 5
    endloop
  endfacet
  facet normal 0 0 1
    outer loop
      vertex -14.6167 6.50779 5
      vertex -12.9443 9.40456 5
      vertex -26.41 -5.61362 5
    endloop
  endfacet
  facet normal 0 0 1
    outer loop
      vertex 4.94427 15.2169 5
      vertex 8 13.8564 5
      vertex 18.0665 20.0649 5
    endloop
  endfacet
  facet normal 0 0 1
    outer loop
      vertex -4.94427 15.2169 5
      vertex -1.67246 15.9123 5
      vertex 8.34346 25.6785 5
    endloop
  endfacet
  facet normal 0 0 1
    outer loop
      vertex -2.82227 26.8521 5
      vertex -26.41 -5.61362 5
      vertex -12.9443 9.40456 5
    endloop
  endfacet
  facet normal 0 0 1
    outer loop
      vertex -2.82227 26.8521 5
      vertex -10.7061 11.8903 5
      vertex 2.82227 26.8521 5
    endloop
  endfacet
  facet normal 0 0 1
    outer loop
      vertex -2.82227 26.8521 5
      vertex -12.9443 9.40456 5
      vertex -10.7061 11.8903 5
    endloop
  endfacet
  facet normal 0 0 1
    outer loop
      vertex 2.82227 26.8521 5
      vertex -8 13.8564 5
      vertex 8.34346 25.6785 5
    endloop
  endfacet
  facet normal 0 0 1
    outer loop
      vertex -8 13.8564 5
      vertex -4.94427 15.2169 5
      vertex 8.34346 25.6785 5
    endloop
  endfacet
  facet normal 0 0 1
    outer loop
      vertex 8.34346 25.6785 5
      vertex -1.67246 15.9123 5
      vertex 13.5 23.3827 5
    endloop
  endfacet
  facet normal 0 0 1
    outer loop
      vertex -1.67246 15.9123 5
      vertex 1.67246 15.9123 5
      vertex 13.5 23.3827 5
    endloop
  endfacet
  facet normal 0 0 1
    outer loop
      vertex 13.5 23.3827 5
      vertex 4.94427 15.2169 5
      vertex 18.0665 20.0649 5
    endloop
  endfacet
  facet normal 0 0 1
    outer loop
      vertex -15.6504 3.32659 5
      vertex -14.6167 6.50779 5
      vertex -26.41 -5.61362 5
    endloop
  endfacet
  facet normal 0 0 1
    outer loop
      vertex 18.0665 20.0649 5
      vertex 8 13.8564 5
      vertex 21.8435 15.8702 5
    endloop
  endfacet
  facet normal 0 0 1
    outer loop
      vertex 8 13.8564 5
      vertex 10.7061 11.8903 5
      vertex 21.8435 15.8702 5
    endloop
  endfacet
  facet normal 0 0 1
    outer loop
      vertex 21.8435 15.8702 5
      vertex 12.9443 9.40456 5
      vertex 24.6657 10.9819 5
    endloop
  endfacet
  facet normal 0 0 1
    outer loop
      vertex 14.6167 6.50779 5
      vertex 15.6504 3.32659 5
      vertex 26.41 5.61362 5
    endloop
  endfacet
  facet normal 0 0 1
    outer loop
      vertex 24.6657 10.9819 5
      vertex 14.6167 6.50779 5
      vertex 26.41 5.61362 5
    endloop
  endfacet
  facet normal 0 0 1
    outer loop
      vertex -16 0 5
      vertex -15.6504 3.32659 5
      vertex -26.41 -5.61362 5
    endloop
  endfacet
  facet normal 0 0 1
    outer loop
      vertex 26.41 5.61362 5
      vertex 15.6504 3.32659 5
      vertex 27 0 5
    endloop
  endfacet
  facet normal 0 0 1
    outer loop
      vertex 15.6504 3.32659 5
      vertex 16 0 5
      vertex 27 0 5
    endloop
  endfacet
  facet normal 0 0 1
    outer loop
      vertex 27 0 5
      vertex 15.6504 -3.32659 5
      vertex 26.41 -5.61362 5
    endloop
  endfacet
  facet normal 0 0 1
    outer loop
      vertex 26.41 -5.61362 5
      vertex 14.6167 -6.50779 5
      vertex 24.6657 -10.9819 5
    endloop
  endfacet
  facet normal 0 0 1
    outer loop
      vertex 14.6167 -6.50779 5
      vertex 12.9443 -9.40456 5
      vertex 24.6657 -10.9819 5
    endloop
  endfacet
  facet normal 0 0 1
    outer loop
      vertex 24.6657 -10.9819 5
      vertex 10.7061 -11.8903 5
      vertex 21.8435 -15.8702 5
    endloop
  endfacet
  facet normal 0 0 1
    outer loop
      vertex 21.8435 -15.8702 5
      vertex 8 -13.8564 5
      vertex 18.0665 -20.0649 5
    endloop
  endfacet
  facet normal 0 0 1
    outer loop
      vertex 8 -13.8564 5
      vertex 4.94427 -15.2169 5
      vertex 18.0665 -20.0649 5
    endloop
  endfacet
  facet normal 0 0 1
    outer loop
      vertex 18.0665 -20.0649 5
      vertex 1.67246 -15.9123 5
      vertex 13.5 -23.3827 5
    endloop
  endfacet
  facet normal 0 0 1
    outer loop
      vertex 1.67246 -15.9123 5
      vertex -1.67246 -15.9123 5
      vertex 13.5 -23.3827 5
    endloop
  endfacet
  facet normal 0 0 1
    outer loop
      vertex 13.5 -23.3827 5
      vertex -4.94427 -15.2169 5
      vertex 8.34346 -25.6785 5
    endloop
  endfacet
  facet normal 0 0 1
    outer loop
      vertex -4.94427 -15.2169 5
      vertex -8 -13.8564 5
      vertex 8.34346 -25.6785 5
    endloop
  endfacet
  facet normal 0 0 1
    outer loop
      vertex -10.7061 -11.8903 5
      vertex -12.9443 -9.40456 5
      vertex -26.41 -5.61362 5
    endloop
  endfacet
  facet normal 0 0 1
    outer loop
      vertex -8 -13.8564 5
      vertex -10.7061 -11.8903 5
      vertex -26.41 -5.61362 5
    endloop
  endfacet
  facet normal 0 0 1
    outer loop
      vertex -14.6167 -6.50779 5
      vertex -15.6504 -3.32659 5
      vertex -26.41 -5.61362 5
    endloop
  endfacet
  facet normal 0 0 1
    outer loop
      vertex -15.6504 -3.32659 5
      vertex -16 0 5
      vertex -26.41 -5.61362 5
    endloop
  endfacet
  facet normal 0.994522 0.104529 0
    outer loop
      vertex -29 0 20
      vertex -28.3663 -6.02944 20
      vertex -28.3663 -6.02944 14
    endloop
  endfacet
  facet normal 0.994522 0.104529 0
    outer loop
      vertex -29 0 14
      vertex -29 0 20
      vertex -28.3663 -6.02944 14
    endloop
  endfacet
  facet normal 0.951057 0.309017 0
    outer loop
      vertex -28.3663 -6.02944 20
      vertex -26.4928 -11.7954 20
      vertex -26.4928 -11.7954 14
    endloop
  endfacet
  facet normal 0.951057 0.309017 0
    outer loop
      vertex -28.3663 -6.02944 14
      vertex -28.3663 -6.02944 20
      vertex -26.4928 -11.7954 14
    endloop
  endfacet
  facet normal 0.866025 0.5 0
    outer loop
      vertex -26.4928 -11.7954 20
      vertex -23.4615 -17.0458 20
      vertex -23.4615 -17.0458 14
    endloop
  endfacet
  facet normal 0.866025 0.5 0
    outer loop
      vertex -26.4928 -11.7954 14
      vertex -26.4928 -11.7954 20
      vertex -23.4615 -17.0458 14
    endloop
  endfacet
  facet normal 0.743145 0.669131 0
    outer loop
      vertex -23.4615 -17.0458 20
      vertex -19.4048 -21.5512 20
      vertex -19.4048 -21.5512 14
    endloop
  endfacet
  facet normal 0.743145 0.669131 0
    outer loop
      vertex -23.4615 -17.0458 14
      vertex -23.4615 -17.0458 20
      vertex -19.4048 -21.5512 14
    endloop
  endfacet
  facet normal 0.587785 0.809017 0
    outer loop
      vertex -14.5 -25.1147 20
      vertex -14.5 -25.1147 14
      vertex -19.4048 -21.5512 20
    endloop
  endfacet
  facet normal 0.587785 0.809017 0
    outer loop
      vertex -19.4048 -21.5512 20
      vertex -14.5 -25.1147 14
      vertex -19.4048 -21.5512 14
    endloop
  endfacet
  facet normal 0.406737 0.913545 0
    outer loop
      vertex -8.96149 -27.5806 20
      vertex -8.96149 -27.5806 14
      vertex -14.5 -25.1147 20
    endloop
  endfacet
  facet normal 0.406737 0.913545 0
    outer loop
      vertex -14.5 -25.1147 20
      vertex -8.96149 -27.5806 14
      vertex -14.5 -25.1147 14
    endloop
  endfacet
  facet normal 0.207912 0.978148 0
    outer loop
      vertex -3.03132 -28.8411 20
      vertex -3.03132 -28.8411 14
      vertex -8.96149 -27.5806 20
    endloop
  endfacet
  facet normal 0.207912 0.978148 0
    outer loop
      vertex -8.96149 -27.5806 20
      vertex -3.03132 -28.8411 14
      vertex -8.96149 -27.5806 14
    endloop
  endfacet
  facet normal 0 1 0
    outer loop
      vertex 3.03132 -28.8411 20
      vertex 3.03132 -28.8411 14
      vertex -3.03132 -28.8411 20
    endloop
  endfacet
  facet normal 0 1 0
    outer loop
      vertex -3.03132 -28.8411 20
      vertex 3.03132 -28.8411 14
      vertex -3.03132 -28.8411 14
    endloop
  endfacet
  facet normal -0.207912 0.978148 0
    outer loop
      vertex 8.96149 -27.5806 20
      vertex 8.96149 -27.5806 14
      vertex 3.03132 -28.8411 20
    endloop
  endfacet
  facet normal -0.207912 0.978148 0
    outer loop
      vertex 3.03132 -28.8411 20
      vertex 8.96149 -27.5806 14
      vertex 3.03132 -28.8411 14
    endloop
  endfacet
  facet normal -0.406737 0.913545 0
    outer loop
      vertex 14.5 -25.1147 20
      vertex 14.5 -25.1147 14
      vertex 8.96149 -27.5806 20
    endloop
  endfacet
  facet normal -0.406737 0.913545 0
    outer loop
      vertex 8.96149 -27.5806 20
      vertex 14.5 -25.1147 14
      vertex 8.96149 -27.5806 14
    endloop
  endfacet
  facet normal -0.587785 0.809017 0
    outer loop
      vertex 19.4048 -21.5512 20
      vertex 19.4048 -21.5512 14
      vertex 14.5 -25.1147 20
    endloop
  endfacet
  facet normal -0.587785 0.809017 0
    outer loop
      vertex 14.5 -25.1147 20
      vertex 19.4048 -21.5512 14
      vertex 14.5 -25.1147 14
    endloop
  endfacet
  facet normal -0.743145 0.669131 0
    outer loop
      vertex 23.4615 -17.0458 20
      vertex 23.4615 -17.0458 14
      vertex 19.4048 -21.5512 20
    endloop
  endfacet
  facet normal -0.743145 0.669131 0
    outer loop
      vertex 19.4048 -21.5512 20
      vertex 23.4615 -17.0458 14
      vertex 19.4048 -21.5512 14
    endloop
  endfacet
  facet normal -0.866025 0.5 0
    outer loop
      vertex 26.4928 -11.7954 20
      vertex 26.4928 -11.7954 14
      vertex 23.4615 -17.0458 20
    endloop
  endfacet
  facet normal -0.866025 0.5 0
    outer loop
      vertex 23.4615 -17.0458 20
      vertex 26.4928 -11.7954 14
      vertex 23.4615 -17.0458 14
    endloop
  endfacet
  facet normal -0.951057 0.309017 0
    outer loop
      vertex 28.3663 -6.02944 20
      vertex 28.3663 -6.02944 14
      vertex 26.4928 -11.7954 20
    endloop
  endfacet
  facet normal -0.951057 0.309017 0
    outer loop
      vertex 26.4928 -11.7954 20
      vertex 28.3663 -6.02944 14
      vertex 26.4928 -11.7954 14
    endloop
  endfacet
  facet normal -0.994522 0.104529 0
    outer loop
      vertex 29 0 20
      vertex 29 0 14
      vertex 28.3663 -6.02944 20
    endloop
  endfacet
  facet normal -0.994522 0.104529 0
    outer loop
      vertex 28.3663 -6.02944 20
      vertex 29 0 14
      vertex 28.3663 -6.02944 14
    endloop
  endfacet
  facet normal -0.994522 -0.104529 0
    outer loop
      vertex 29 0 20
      vertex 28.3663 6.02944 20
      vertex 29 0 14
    endloop
  endfacet
  facet normal -0.994522 -0.104529 0
    outer loop
      vertex 29 0 14
      vertex 28.3663 6.02944 20
      vertex 28.3663 6.02944 14
    endloop
  endfacet
  facet normal -0.951057 -0.309017 0
    outer loop
      vertex 28.3663 6.02944 20
      vertex 26.4928 11.7954 20
      vertex 28.3663 6.02944 14
    endloop
  endfacet
  facet normal -0.951057 -0.309017 0
    outer loop
      vertex 28.3663 6.02944 14
      vertex 26.4928 11.7954 20
      vertex 26.4928 11.7954 14
    endloop
  endfacet
  facet normal -0.866025 -0.5 0
    outer loop
      vertex 26.4928 11.7954 20
      vertex 23.4615 17.0458 20
      vertex 26.4928 11.7954 14
    endloop
  endfacet
  facet normal -0.866025 -0.5 0
    outer loop
      vertex 26.4928 11.7954 14
      vertex 23.4615 17.0458 20
      vertex 23.4615 17.0458 14
    endloop
  endfacet
  facet normal -0.743145 -0.669131 0
    outer loop
      vertex 23.4615 17.0458 20
      vertex 19.4048 21.5512 20
      vertex 23.4615 17.0458 14
    endloop
  endfacet
  facet normal -0.743145 -0.669131 0
    outer loop
      vertex 23.4615 17.0458 14
      vertex 19.4048 21.5512 20
      vertex 19.4048 21.5512 14
    endloop
  endfacet
  facet normal -0.587785 -0.809017 0
    outer loop
      vertex 19.4048 21.5512 14
      vertex 19.4048 21.5512 20
      vertex 14.5 25.1147 20
    endloop
  endfacet
  facet normal -0.587785 -0.809017 0
    outer loop
      vertex 14.5 25.1147 14
      vertex 19.4048 21.5512 14
      vertex 14.5 25.1147 20
    endloop
  endfacet
  facet normal -0.406737 -0.913545 0
    outer loop
      vertex 14.5 25.1147 14
      vertex 14.5 25.1147 20
      vertex 8.96149 27.5806 20
    endloop
  endfacet
  facet normal -0.406737 -0.913545 0
    outer loop
      vertex 8.96149 27.5806 14
      vertex 14.5 25.1147 14
      vertex 8.96149 27.5806 20
    endloop
  endfacet
  facet normal -0.207912 -0.978148 0
    outer loop
      vertex 8.96149 27.5806 14
      vertex 8.96149 27.5806 20
      vertex 3.03132 28.8411 20
    endloop
  endfacet
  facet normal -0.207912 -0.978148 0
    outer loop
      vertex 3.03132 28.8411 14
      vertex 8.96149 27.5806 14
      vertex 3.03132 28.8411 20
    endloop
  endfacet
  facet normal 0 -1 0
    outer loop
      vertex 3.03132 28.8411 14
      vertex 3.03132 28.8411 20
      vertex -3.03132 28.8411 20
    endloop
  endfacet
  facet normal 0 -1 0
    outer loop
      vertex -3.03132 28.8411 14
      vertex 3.03132 28.8411 14
      vertex -3.03132 28.8411 20
    endloop
  endfacet
  facet normal 0.207912 -0.978148 0
    outer loop
      vertex -3.03132 28.8411 14
      vertex -3.03132 28.8411 20
      vertex -8.96149 27.5806 20
    endloop
  endfacet
  facet normal 0.207912 -0.978148 0
    outer loop
      vertex -8.96149 27.5806 14
      vertex -3.03132 28.8411 14
      vertex -8.96149 27.5806 20
    endloop
  endfacet
  facet normal 0.406737 -0.913545 0
    outer loop
      vertex -8.96149 27.5806 14
      vertex -8.96149 27.5806 20
      vertex -14.5 25.1147 20
    endloop
  endfacet
  facet normal 0.406737 -0.913545 0
    outer loop
      vertex -14.5 25.1147 14
      vertex -8.96149 27.5806 14
      vertex -14.5 25.1147 20
    endloop
  endfacet
  facet normal 0.587785 -0.809017 0
    outer loop
      vertex -14.5 25.1147 14
      vertex -14.5 25.1147 20
      vertex -19.4048 21.5512 20
    endloop
  endfacet
  facet normal 0.587785 -0.809017 0
    outer loop
      vertex -19.4048 21.5512 14
      vertex -14.5 25.1147 14
      vertex -19.4048 21.5512 20
    endloop
  endfacet
  facet normal 0.743145 -0.669131 0
    outer loop
      vertex -19.4048 21.5512 14
      vertex -19.4048 21.5512 20
      vertex -23.4615 17.0458 20
    endloop
  endfacet
  facet normal 0.743145 -0.669131 0
    outer loop
      vertex -23.4615 17.0458 14
      vertex -19.4048 21.5512 14
      vertex -23.4615 17.0458 20
    endloop
  endfacet
  facet normal 0.866025 -0.5 0
    outer loop
      vertex -23.4615 17.0458 14
      vertex -23.4615 17.0458 20
      vertex -26.4928 11.7954 20
    endloop
  endfacet
  facet normal 0.866025 -0.5 0
    outer loop
      vertex -26.4928 11.7954 14
      vertex -23.4615 17.0458 14
      vertex -26.4928 11.7954 20
    endloop
  endfacet
  facet normal 0.951057 -0.309017 0
    outer loop
      vertex -26.4928 11.7954 14
      vertex -26.4928 11.7954 20
      vertex -28.3663 6.02944 20
    endloop
  endfacet
  facet normal 0.951057 -0.309017 0
    outer loop
      vertex -28.3663 6.02944 14
      vertex -26.4928 11.7954 14
      vertex -28.3663 6.02944 20
    endloop
  endfacet
  facet normal 0.994522 -0.104529 0
    outer loop
      vertex -28.3663 6.02944 14
      vertex -28.3663 6.02944 20
      vertex -29 0 20
    endloop
  endfacet
  facet normal 0.994522 -0.104529 0
    outer loop
      vertex -29 0 14
      vertex -28.3663 6.02944 14
      vertex -29 0 20
    endloop
  endfacet
  facet normal 0.951056 0.309017 0
    outer loop
      vertex -26.41 -5.61362 14
      vertex -24.6657 -10.9819 14
      vertex -24.6657 -10.9819 5
    endloop
  endfacet
  facet normal 0.951056 0.309017 0
    outer loop
      vertex -26.41 -5.61362 5
      vertex -26.41 -5.61362 14
      vertex -24.6657 -10.9819 5
    endloop
  endfacet
  facet normal 0.994522 0.104528 0
    outer loop
      vertex -27 0 14
      vertex -26.41 -5.61362 14
      vertex -26.41 -5.61362 5
    endloop
  endfacet
  facet normal 0.994522 0.104528 0
    outer loop
      vertex -27 0 5
      vertex -27 0 14
      vertex -26.41 -5.61362 5
    endloop
  endfacet
  facet normal 0.994522 -0.104528 0
    outer loop
      vertex -26.41 5.61362 5
      vertex -26.41 5.61362 14
      vertex -27 0 14
    endloop
  endfacet
  facet normal 0.994522 -0.104528 0
    outer loop
      vertex -27 0 5
      vertex -26.41 5.61362 5
      vertex -27 0 14
    endloop
  endfacet
  facet normal 0.951056 -0.309017 0
    outer loop
      vertex -24.6657 10.9819 5
      vertex -24.6657 10.9819 14
      vertex -26.41 5.61362 14
    endloop
  endfacet
  facet normal 0.951056 -0.309017 0
    outer loop
      vertex -26.41 5.61362 5
      vertex -24.6657 10.9819 5
      vertex -26.41 5.61362 14
    endloop
  endfacet
  facet normal 0.866025 -0.5 0
    outer loop
      vertex -21.8435 15.8702 5
      vertex -21.8435 15.8702 14
      vertex -24.6657 10.9819 14
    endloop
  endfacet
  facet normal 0.866025 -0.5 0
    outer loop
      vertex -24.6657 10.9819 5
      vertex -21.8435 15.8702 5
      vertex -24.6657 10.9819 14
    endloop
  endfacet
  facet normal 0.743145 -0.669131 0
    outer loop
      vertex -18.0665 20.0649 5
      vertex -18.0665 20.0649 14
      vertex -21.8435 15.8702 14
    endloop
  endfacet
  facet normal 0.743145 -0.669131 0
    outer loop
      vertex -21.8435 15.8702 5
      vertex -18.0665 20.0649 5
      vertex -21.8435 15.8702 14
    endloop
  endfacet
  facet normal 0.587785 -0.809017 0
    outer loop
      vertex -13.5 23.3827 5
      vertex -13.5 23.3827 14
      vertex -18.0665 20.0649 14
    endloop
  endfacet
  facet normal 0.587785 -0.809017 0
    outer loop
      vertex -18.0665 20.0649 5
      vertex -13.5 23.3827 5
      vertex -18.0665 20.0649 14
    endloop
  endfacet
  facet normal 0.406737 -0.913545 0
    outer loop
      vertex -8.34346 25.6785 5
      vertex -8.34346 25.6785 14
      vertex -13.5 23.3827 14
    endloop
  endfacet
  facet normal 0.406737 -0.913545 0
    outer loop
      vertex -13.5 23.3827 5
      vertex -8.34346 25.6785 5
      vertex -13.5 23.3827 14
    endloop
  endfacet
  facet normal 0.207912 -0.978148 0
    outer loop
      vertex -2.82227 26.8521 5
      vertex -2.82227 26.8521 14
      vertex -8.34346 25.6785 14
    endloop
  endfacet
  facet normal 0.207912 -0.978148 0
    outer loop
      vertex -8.34346 25.6785 5
      vertex -2.82227 26.8521 5
      vertex -8.34346 25.6785 14
    endloop
  endfacet
  facet normal 0 -1 0
    outer loop
      vertex 2.82227 26.8521 5
      vertex 2.82227 26.8521 14
      vertex -2.82227 26.8521 14
    endloop
  endfacet
  facet normal 0 -1 0
    outer loop
      vertex -2.82227 26.8521 5
      vertex 2.82227 26.8521 5
      vertex -2.82227 26.8521 14
    endloop
  endfacet
  facet normal -0.207912 -0.978148 0
    outer loop
      vertex 8.34346 25.6785 5
      vertex 8.34346 25.6785 14
      vertex 2.82227 26.8521 14
    endloop
  endfacet
  facet normal -0.207912 -0.978148 0
    outer loop
      vertex 2.82227 26.8521 5
      vertex 8.34346 25.6785 5
      vertex 2.82227 26.8521 14
    endloop
  endfacet
  facet normal -0.406737 -0.913545 0
    outer loop
      vertex 13.5 23.3827 5
      vertex 13.5 23.3827 14
      vertex 8.34346 25.6785 14
    endloop
  endfacet
  facet normal -0.406737 -0.913545 0
    outer loop
      vertex 8.34346 25.6785 5
      vertex 13.5 23.3827 5
      vertex 8.34346 25.6785 14
    endloop
  endfacet
  facet normal -0.587785 -0.809017 0
    outer loop
      vertex 18.0665 20.0649 5
      vertex 18.0665 20.0649 14
      vertex 13.5 23.3827 14
    endloop
  endfacet
  facet normal -0.587785 -0.809017 0
    outer loop
      vertex 13.5 23.3827 5
      vertex 18.0665 20.0649 5
      vertex 13.5 23.3827 14
    endloop
  endfacet
  facet normal -0.743145 -0.669131 0
    outer loop
      vertex 21.8435 15.8702 14
      vertex 18.0665 20.0649 14
      vertex 21.8435 15.8702 5
    endloop
  endfacet
  facet normal -0.743145 -0.669131 0
    outer loop
      vertex 21.8435 15.8702 5
      vertex 18.0665 20.0649 14
      vertex 18.0665 20.0649 5
    endloop
  endfacet
  facet normal -0.866025 -0.5 0
    outer loop
      vertex 24.6657 10.9819 14
      vertex 21.8435 15.8702 14
      vertex 24.6657 10.9819 5
    endloop
  endfacet
  facet normal -0.866025 -0.5 0
    outer loop
      vertex 24.6657 10.9819 5
      vertex 21.8435 15.8702 14
      vertex 21.8435 15.8702 5
    endloop
  endfacet
  facet normal -0.951056 -0.309017 0
    outer loop
      vertex 26.41 5.61362 14
      vertex 24.6657 10.9819 14
      vertex 26.41 5.61362 5
    endloop
  endfacet
  facet normal -0.951056 -0.309017 0
    outer loop
      vertex 26.41 5.61362 5
      vertex 24.6657 10.9819 14
      vertex 24.6657 10.9819 5
    endloop
  endfacet
  facet normal -0.994522 -0.104528 0
    outer loop
      vertex 27 0 14
      vertex 26.41 5.61362 14
      vertex 27 0 5
    endloop
  endfacet
  facet normal -0.994522 -0.104528 0
    outer loop
      vertex 27 0 5
      vertex 26.41 5.61362 14
      vertex 26.41 5.61362 5
    endloop
  endfacet
  facet normal -0.994522 0.104528 0
    outer loop
      vertex 27 0 14
      vertex 27 0 5
      vertex 26.41 -5.61362 14
    endloop
  endfacet
  facet normal -0.994522 0.104528 0
    outer loop
      vertex 26.41 -5.61362 14
      vertex 27 0 5
      vertex 26.41 -5.61362 5
    endloop
  endfacet
  facet normal -0.951056 0.309017 0
    outer loop
      vertex 26.41 -5.61362 14
      vertex 26.41 -5.61362 5
      vertex 24.6657 -10.9819 14
    endloop
  endfacet
  facet normal -0.951056 0.309017 0
    outer loop
      vertex 24.6657 -10.9819 14
      vertex 26.41 -5.61362 5
      vertex 24.6657 -10.9819 5
    endloop
  endfacet
  facet normal -0.866025 0.5 0
    outer loop
      vertex 24.6657 -10.9819 14
      vertex 24.6657 -10.9819 5
      vertex 21.8435 -15.8702 14
    endloop
  endfacet
  facet normal -0.866025 0.5 0
    outer loop
      vertex 21.8435 -15.8702 14
      vertex 24.6657 -10.9819 5
      vertex 21.8435 -15.8702 5
    endloop
  endfacet
  facet normal -0.743145 0.669131 0
    outer loop
      vertex 21.8435 -15.8702 14
      vertex 21.8435 -15.8702 5
      vertex 18.0665 -20.0649 14
    endloop
  endfacet
  facet normal -0.743145 0.669131 0
    outer loop
      vertex 18.0665 -20.0649 14
      vertex 21.8435 -15.8702 5
      vertex 18.0665 -20.0649 5
    endloop
  endfacet
  facet normal -0.587785 0.809017 0
    outer loop
      vertex 18.0665 -20.0649 14
      vertex 18.0665 -20.0649 5
      vertex 13.5 -23.3827 14
    endloop
  endfacet
  facet normal -0.587785 0.809017 0
    outer loop
      vertex 13.5 -23.3827 14
      vertex 18.0665 -20.0649 5
      vertex 13.5 -23.3827 5
    endloop
  endfacet
  facet normal -0.406737 0.913545 0
    outer loop
      vertex 13.5 -23.3827 14
      vertex 13.5 -23.3827 5
      vertex 8.34346 -25.6785 14
    endloop
  endfacet
  facet normal -0.406737 0.913545 0
    outer loop
      vertex 8.34346 -25.6785 14
      vertex 13.5 -23.3827 5
      vertex 8.34346 -25.6785 5
    endloop
  endfacet
  facet normal -0.207912 0.978148 0
    outer loop
      vertex 8.34346 -25.6785 14
      vertex 8.34346 -25.6785 5
      vertex 2.82227 -26.8521 14
    endloop
  endfacet
  facet normal -0.207912 0.978148 0
    outer loop
      vertex 2.82227 -26.8521 14
      vertex 8.34346 -25.6785 5
      vertex 2.82227 -26.8521 5
    endloop
  endfacet
  facet normal 0 1 0
    outer loop
      vertex 2.82227 -26.8521 14
      vertex 2.82227 -26.8521 5
      vertex -2.82227 -26.8521 14
    endloop
  endfacet
  facet normal 0 1 0
    outer loop
      vertex -2.82227 -26.8521 14
      vertex 2.82227 -26.8521 5
      vertex -2.82227 -26.8521 5
    endloop
  endfacet
  facet normal 0.207912 0.978148 0
    outer loop
      vertex -2.82227 -26.8521 14
      vertex -2.82227 -26.8521 5
      vertex -8.34346 -25.6785 14
    endloop
  endfacet
  facet normal 0.207912 0.978148 0
    outer loop
      vertex -8.34346 -25.6785 14
      vertex -2.82227 -26.8521 5
      vertex -8.34346 -25.6785 5
    endloop
  endfacet
  facet normal 0.406737 0.913545 0
    outer loop
      vertex -8.34346 -25.6785 14
      vertex -8.34346 -25.6785 5
      vertex -13.5 -23.3827 14
    endloop
  endfacet
  facet normal 0.406737 0.913545 0
    outer loop
      vertex -13.5 -23.3827 14
      vertex -8.34346 -25.6785 5
      vertex -13.5 -23.3827 5
    endloop
  endfacet
  facet normal 0.587785 0.809017 0
    outer loop
      vertex -13.5 -23.3827 14
      vertex -13.5 -23.3827 5
      vertex -18.0665 -20.0649 14
    endloop
  endfacet
  facet normal 0.587785 0.809017 0
    outer loop
      vertex -18.0665 -20.0649 14
      vertex -13.5 -23.3827 5
      vertex -18.0665 -20.0649 5
    endloop
  endfacet
  facet normal 0.743145 0.669131 0
    outer loop
      vertex -21.8435 -15.8702 14
      vertex -18.0665 -20.0649 14
      vertex -18.0665 -20.0649 5
    endloop
  endfacet
  facet normal 0.743145 0.669131 0
    outer loop
      vertex -21.8435 -15.8702 5
      vertex -21.8435 -15.8702 14
      vertex -18.0665 -20.0649 5
    endloop
  endfacet
  facet normal 0.866025 0.5 0
    outer loop
      vertex -24.6657 -10.9819 14
      vertex -21.8435 -15.8702 14
      vertex -21.8435 -15.8702 5
    endloop
  endfacet
  facet normal 0.866025 0.5 0
    outer loop
      vertex -24.6657 -10.9819 5
      vertex -24.6657 -10.9819 14
      vertex -21.8435 -15.8702 5
    endloop
  endfacet
  facet normal 0 0 1
    outer loop
      vertex -28.3663 -6.02944 14
      vertex -26.4928 -11.7954 14
      vertex -23.4615 -17.0458 14
    endloop
  endfacet
  facet normal 0 0 1
    outer loop
      vertex -21.8435 -15.8702 14
      vertex -28.3663 -6.02944 14
      vertex -19.4048 -21.5512 14
    endloop
  endfacet
  facet normal 0 0 1
    outer loop
      vertex -19.4048 -21.5512 14
      vertex -28.3663 -6.02944 14
      vertex -23.4615 -17.0458 14
    endloop
  endfacet
  facet normal 0 0 1
    outer loop
      vertex -21.8435 -15.8702 14
      vertex -24.6657 -10.9819 14
      vertex -28.3663 -6.02944 14
    endloop
  endfacet
  facet normal 0 0 1
    outer loop
      vertex -18.0665 -20.0649 14
      vertex -21.8435 -15.8702 14
      vertex -14.5 -25.1147 14
    endloop
  endfacet
  facet normal 0 0 1
    outer loop
      vertex -8.34346 -25.6785 14
      vertex -13.5 -23.3827 14
      vertex -8.96149 -27.5806 14
    endloop
  endfacet
  facet normal 0 0 1
    outer loop
      vertex -2.82227 -26.8521 14
      vertex -8.34346 -25.6785 14
      vertex -3.03132 -28.8411 14
    endloop
  endfacet
  facet normal 0 0 1
    outer loop
      vertex 2.82227 -26.8521 14
      vertex -2.82227 -26.8521 14
      vertex 3.03132 -28.8411 14
    endloop
  endfacet
  facet normal 0 0 1
    outer loop
      vertex 8.34346 -25.6785 14
      vertex 2.82227 -26.8521 14
      vertex 8.96149 -27.5806 14
    endloop
  endfacet
  facet normal 0 0 1
    outer loop
      vertex 13.5 -23.3827 14
      vertex 8.34346 -25.6785 14
      vertex 14.5 -25.1147 14
    endloop
  endfacet
  facet normal 0 0 1
    outer loop
      vertex 18.0665 -20.0649 14
      vertex 13.5 -23.3827 14
      vertex 19.4048 -21.5512 14
    endloop
  endfacet
  facet normal 0 0 1
    outer loop
      vertex 21.8435 -15.8702 14
      vertex 18.0665 -20.0649 14
      vertex 23.4615 -17.0458 14
    endloop
  endfacet
  facet normal 0 0 1
    outer loop
      vertex 24.6657 -10.9819 14
      vertex 21.8435 -15.8702 14
      vertex 26.4928 -11.7954 14
    endloop
  endfacet
  facet normal 0 0 1
    outer loop
      vertex 26.41 -5.61362 14
      vertex 24.6657 -10.9819 14
      vertex 28.3663 -6.02944 14
    endloop
  endfacet
  facet normal 0 0 1
    outer loop
      vertex -21.8435 15.8702 14
      vertex -18.0665 20.0649 14
      vertex -19.4048 21.5512 14
    endloop
  endfacet
  facet normal 0 0 1
    outer loop
      vertex -28.3663 6.02944 14
      vertex -28.3663 -6.02944 14
      vertex -26.4928 11.7954 14
    endloop
  endfacet
  facet normal 0 0 1
    outer loop
      vertex -29 0 14
      vertex -28.3663 -6.02944 14
      vertex -28.3663 6.02944 14
    endloop
  endfacet
  facet normal 0 0 1
    outer loop
      vertex -18.0665 20.0649 14
      vertex -13.5 23.3827 14
      vertex -14.5 25.1147 14
    endloop
  endfacet
  facet normal 0 0 1
    outer loop
      vertex -26.41 5.61362 14
      vertex -24.6657 10.9819 14
      vertex -23.4615 17.0458 14
    endloop
  endfacet
  facet normal 0 0 1
    outer loop
      vertex -26.4928 11.7954 14
      vertex -26.41 5.61362 14
      vertex -23.4615 17.0458 14
    endloop
  endfacet
  facet normal 0 0 1
    outer loop
      vertex -26.4928 11.7954 14
      vertex -28.3663 -6.02944 14
      vertex -26.41 5.61362 14
    endloop
  endfacet
  facet normal 0 0 1
    outer loop
      vertex -23.4615 17.0458 14
      vertex -24.6657 10.9819 14
      vertex -19.4048 21.5512 14
    endloop
  endfacet
  facet normal 0 0 1
    outer loop
      vertex -24.6657 10.9819 14
      vertex -21.8435 15.8702 14
      vertex -19.4048 21.5512 14
    endloop
  endfacet
  facet normal 0 0 1
    outer loop
      vertex -19.4048 21.5512 14
      vertex -18.0665 20.0649 14
      vertex -14.5 25.1147 14
    endloop
  endfacet
  facet normal 0 0 1
    outer loop
      vertex -27 0 14
      vertex -26.41 5.61362 14
      vertex -28.3663 -6.02944 14
    endloop
  endfacet
  facet normal 0 0 1
    outer loop
      vertex -14.5 25.1147 14
      vertex -13.5 23.3827 14
      vertex -8.96149 27.5806 14
    endloop
  endfacet
  facet normal 0 0 1
    outer loop
      vertex -8.96149 27.5806 14
      vertex -8.34346 25.6785 14
      vertex -3.03132 28.8411 14
    endloop
  endfacet
  facet normal 0 0 1
    outer loop
      vertex -3.03132 28.8411 14
      vertex -2.82227 26.8521 14
      vertex 3.03132 28.8411 14
    endloop
  endfacet
  facet normal 0 0 1
    outer loop
      vertex 3.03132 28.8411 14
      vertex 2.82227 26.8521 14
      vertex 8.96149 27.5806 14
    endloop
  endfacet
  facet normal 0 0 1
    outer loop
      vertex 8.96149 27.5806 14
      vertex 8.34346 25.6785 14
      vertex 14.5 25.1147 14
    endloop
  endfacet
  facet normal 0 0 1
    outer loop
      vertex -24.6657 -10.9819 14
      vertex -26.41 -5.61362 14
      vertex -28.3663 -6.02944 14
    endloop
  endfacet
  facet normal 0 0 1
    outer loop
      vertex 14.5 25.1147 14
      vertex 13.5 23.3827 14
      vertex 19.4048 21.5512 14
    endloop
  endfacet
  facet normal 0 0 1
    outer loop
      vertex 19.4048 21.5512 14
      vertex 18.0665 20.0649 14
      vertex 23.4615 17.0458 14
    endloop
  endfacet
  facet normal 0 0 1
    outer loop
      vertex 23.4615 17.0458 14
      vertex 21.8435 15.8702 14
      vertex 26.4928 11.7954 14
    endloop
  endfacet
  facet normal 0 0 1
    outer loop
      vertex 26.4928 11.7954 14
      vertex 24.6657 10.9819 14
      vertex 28.3663 6.02944 14
    endloop
  endfacet
  facet normal 0 0 1
    outer loop
      vertex 24.6657 10.9819 14
      vertex 26.41 5.61362 14
      vertex 28.3663 6.02944 14
    endloop
  endfacet
  facet normal 0 0 1
    outer loop
      vertex 28.3663 6.02944 14
      vertex 27 0 14
      vertex 29 0 14
    endloop
  endfacet
  facet normal 0 0 1
    outer loop
      vertex 29 0 14
      vertex 26.41 -5.61362 14
      vertex 28.3663 -6.02944 14
    endloop
  endfacet
  facet normal 0 0 1
    outer loop
      vertex 28.3663 -6.02944 14
      vertex 24.6657 -10.9819 14
      vertex 26.4928 -11.7954 14
    endloop
  endfacet
  facet normal 0 0 1
    outer loop
      vertex 26.4928 -11.7954 14
      vertex 21.8435 -15.8702 14
      vertex 23.4615 -17.0458 14
    endloop
  endfacet
  facet normal 0 0 1
    outer loop
      vertex 23.4615 -17.0458 14
      vertex 18.0665 -20.0649 14
      vertex 19.4048 -21.5512 14
    endloop
  endfacet
  facet normal 0 0 1
    outer loop
      vertex 19.4048 -21.5512 14
      vertex 13.5 -23.3827 14
      vertex 14.5 -25.1147 14
    endloop
  endfacet
  facet normal 0 0 1
    outer loop
      vertex 14.5 -25.1147 14
      vertex 8.34346 -25.6785 14
      vertex 8.96149 -27.5806 14
    endloop
  endfacet
  facet normal 0 0 1
    outer loop
      vertex 8.96149 -27.5806 14
      vertex 2.82227 -26.8521 14
      vertex 3.03132 -28.8411 14
    endloop
  endfacet
  facet normal 0 0 1
    outer loop
      vertex 3.03132 -28.8411 14
      vertex -2.82227 -26.8521 14
      vertex -3.03132 -28.8411 14
    endloop
  endfacet
  facet normal 0 0 1
    outer loop
      vertex -3.03132 -28.8411 14
      vertex -8.34346 -25.6785 14
      vertex -8.96149 -27.5806 14
    endloop
  endfacet
  facet normal 0 0 1
    outer loop
      vertex -8.96149 -27.5806 14
      vertex -13.5 -23.3827 14
      vertex -14.5 -25.1147 14
    endloop
  endfacet
  facet normal 0 0 1
    outer loop
      vertex -13.5 -23.3827 14
      vertex -18.0665 -20.0649 14
      vertex -14.5 -25.1147 14
    endloop
  endfacet
  facet normal 0 0 1
    outer loop
      vertex -14.5 -25.1147 14
      vertex -21.8435 -15.8702 14
      vertex -19.4048 -21.5512 14
    endloop
  endfacet
  facet normal 0 0 1
    outer loop
      vertex -13.5 23.3827 14
      vertex -8.34346 25.6785 14
      vertex -8.96149 27.5806 14
    endloop
  endfacet
  facet normal 0 0 1
    outer loop
      vertex -8.34346 25.6785 14
      vertex -2.82227 26.8521 14
      vertex -3.03132 28.8411 14
    endloop
  endfacet
  facet normal 0 0 1
    outer loop
      vertex -2.82227 26.8521 14
      vertex 2.82227 26.8521 14
      vertex 3.03132 28.8411 14
    endloop
  endfacet
  facet normal 0 0 1
    outer loop
      vertex 2.82227 26.8521 14
      vertex 8.34346 25.6785 14
      vertex 8.96149 27.5806 14
    endloop
  endfacet
  facet normal 0 0 1
    outer loop
      vertex 8.34346 25.6785 14
      vertex 13.5 23.3827 14
      vertex 14.5 25.1147 14
    endloop
  endfacet
  facet normal 0 0 1
    outer loop
      vertex 13.5 23.3827 14
      vertex 18.0665 20.0649 14
      vertex 19.4048 21.5512 14
    endloop
  endfacet
  facet normal 0 0 1
    outer loop
      vertex 18.0665 20.0649 14
      vertex 21.8435 15.8702 14
      vertex 23.4615 17.0458 14
    endloop
  endfacet
  facet normal 0 0 1
    outer loop
      vertex 21.8435 15.8702 14
      vertex 24.6657 10.9819 14
      vertex 26.4928 11.7954 14
    endloop
  endfacet
  facet normal 0 0 1
    outer loop
      vertex 26.41 5.61362 14
      vertex 27 0 14
      vertex 28.3663 6.02944 14
    endloop
  endfacet
  facet normal 0 0 1
    outer loop
      vertex 27 0 14
      vertex 26.41 -5.61362 14
      vertex 29 0 14
    endloop
  endfacet
  facet normal 0 0 1
    outer loop
      vertex -26.41 -5.61362 14
      vertex -27 0 14
      vertex -28.3663 -6.02944 14
    endloop
  endfacet
endsolid OpenSCAD_Model
