solid OpenSCAD_Model
  facet normal -0.994522 0.104528 0
    outer loop
      vertex -32 0 5.4
      vertex -32 0 61.6
      vertex -31.3007 6.65317 5.4
    endloop
  endfacet
  facet normal -0.994522 0.104528 0
    outer loop
      vertex -31.3007 6.65317 5.4
      vertex -32 0 61.6
      vertex -31.3007 6.65317 61.6
    endloop
  endfacet
  facet normal -0.994522 -0.104528 0
    outer loop
      vertex -32 0 5.4
      vertex -31.3007 -6.65317 5.4
      vertex -32 0 61.6
    endloop
  endfacet
  facet normal -0.994522 -0.104528 0
    outer loop
      vertex -32 0 61.6
      vertex -31.3007 -6.65317 5.4
      vertex -31.3007 -6.65317 61.6
    endloop
  endfacet
  facet normal 0 0 -1
    outer loop
      vertex -29.2335 13.0156 5.4
      vertex -25.8885 18.8091 5.4
      vertex -31.3007 6.65317 5.4
    endloop
  endfacet
  facet normal 0 0 -1
    outer loop
      vertex -31.3007 6.65317 5.4
      vertex -25.8885 18.8091 5.4
      vertex -21.4122 23.7806 5.4
    endloop
  endfacet
  facet normal 0 0 -1
    outer loop
      vertex -31.3007 6.65317 5.4
      vertex -21.4122 23.7806 5.4
      vertex -16 27.7128 5.4
    endloop
  endfacet
  facet normal 0 0 -1
    outer loop
      vertex -19.3379 21.4769 5.4
      vertex -16 27.7128 5.4
      vertex -9.88854 30.4338 5.4
    endloop
  endfacet
  facet normal 0 0 -1
    outer loop
      vertex -8.93059 27.4855 5.4
      vertex -9.88854 30.4338 5.4
      vertex -3.34491 31.8247 5.4
    endloop
  endfacet
  facet normal 0 0 -1
    outer loop
      vertex -3.02087 28.7417 5.4
      vertex -3.34491 31.8247 5.4
      vertex 3.34491 31.8247 5.4
    endloop
  endfacet
  facet normal 0 0 -1
    outer loop
      vertex 3.02087 28.7417 5.4
      vertex 3.34491 31.8247 5.4
      vertex 9.88854 30.4338 5.4
    endloop
  endfacet
  facet normal 0 0 -1
    outer loop
      vertex 8.93059 27.4855 5.4
      vertex 9.88854 30.4338 5.4
      vertex 16 27.7128 5.4
    endloop
  endfacet
  facet normal 0 0 -1
    outer loop
      vertex 14.45 25.0281 5.4
      vertex 16 27.7128 5.4
      vertex 21.4122 23.7806 5.4
    endloop
  endfacet
  facet normal 0 0 -1
    outer loop
      vertex 19.3379 21.4769 5.4
      vertex 21.4122 23.7806 5.4
      vertex 25.8885 18.8091 5.4
    endloop
  endfacet
  facet normal 0 0 -1
    outer loop
      vertex 23.3806 16.987 5.4
      vertex 25.8885 18.8091 5.4
      vertex 29.2335 13.0156 5.4
    endloop
  endfacet
  facet normal 0 0 -1
    outer loop
      vertex 26.4015 11.7547 5.4
      vertex 29.2335 13.0156 5.4
      vertex 31.3007 6.65317 5.4
    endloop
  endfacet
  facet normal 0 0 -1
    outer loop
      vertex 28.2685 6.00865 5.4
      vertex 31.3007 6.65317 5.4
      vertex 32 0 5.4
    endloop
  endfacet
  facet normal 0 0 -1
    outer loop
      vertex 28.9 0 5.4
      vertex 32 0 5.4
      vertex 31.3007 -6.65317 5.4
    endloop
  endfacet
  facet normal 0 0 -1
    outer loop
      vertex 26.4015 -11.7547 5.4
      vertex 31.3007 -6.65317 5.4
      vertex 29.2335 -13.0156 5.4
    endloop
  endfacet
  facet normal 0 0 -1
    outer loop
      vertex 23.3806 -16.987 5.4
      vertex 29.2335 -13.0156 5.4
      vertex 25.8885 -18.8091 5.4
    endloop
  endfacet
  facet normal 0 0 -1
    outer loop
      vertex 19.3379 -21.4769 5.4
      vertex 25.8885 -18.8091 5.4
      vertex 21.4122 -23.7806 5.4
    endloop
  endfacet
  facet normal 0 0 -1
    outer loop
      vertex 14.45 -25.0281 5.4
      vertex 21.4122 -23.7806 5.4
      vertex 16 -27.7128 5.4
    endloop
  endfacet
  facet normal 0 0 -1
    outer loop
      vertex 8.93059 -27.4855 5.4
      vertex 16 -27.7128 5.4
      vertex 9.88854 -30.4338 5.4
    endloop
  endfacet
  facet normal 0 0 -1
    outer loop
      vertex 3.02087 -28.7417 5.4
      vertex 9.88854 -30.4338 5.4
      vertex 3.34491 -31.8247 5.4
    endloop
  endfacet
  facet normal 0 0 -1
    outer loop
      vertex -3.02087 -28.7417 5.4
      vertex 3.34491 -31.8247 5.4
      vertex -3.34491 -31.8247 5.4
    endloop
  endfacet
  facet normal 0 0 -1
    outer loop
      vertex -8.93059 -27.4855 5.4
      vertex -3.34491 -31.8247 5.4
      vertex -9.88854 -30.4338 5.4
    endloop
  endfacet
  facet normal 0 0 -1
    outer loop
      vertex -14.45 -25.0281 5.4
      vertex -9.88854 -30.4338 5.4
      vertex -16 -27.7128 5.4
    endloop
  endfacet
  facet normal 0 0 -1
    outer loop
      vertex -23.3806 -16.987 5.4
      vertex -16 -27.7128 5.4
      vertex -21.4122 -23.7806 5.4
    endloop
  endfacet
  facet normal 0 0 -1
    outer loop
      vertex -26.4015 -11.7547 5.4
      vertex -21.4122 -23.7806 5.4
      vertex -25.8885 -18.8091 5.4
    endloop
  endfacet
  facet normal 0 0 -1
    outer loop
      vertex -31.3007 6.65317 5.4
      vertex -25.8885 -18.8091 5.4
      vertex -29.2335 -13.0156 5.4
    endloop
  endfacet
  facet normal 0 0 -1
    outer loop
      vertex -31.3007 6.65317 5.4
      vertex -29.2335 -13.0156 5.4
      vertex -31.3007 -6.65317 5.4
    endloop
  endfacet
  facet normal 0 0 -1
    outer loop
      vertex -31.3007 6.65317 5.4
      vertex -31.3007 -6.65317 5.4
      vertex -32 0 5.4
    endloop
  endfacet
  facet normal 0 0 -1
    outer loop
      vertex -23.3806 -16.987 5.4
      vertex -21.4122 -23.7806 5.4
      vertex -26.4015 -11.7547 5.4
    endloop
  endfacet
  facet normal 0 0 -1
    outer loop
      vertex -31.3007 6.65317 5.4
      vertex -28.2685 -6.00865 5.4
      vertex -25.8885 -18.8091 5.4
    endloop
  endfacet
  facet normal 0 0 -1
    outer loop
      vertex -28.2685 -6.00865 5.4
      vertex -26.4015 -11.7547 5.4
      vertex -25.8885 -18.8091 5.4
    endloop
  endfacet
  facet normal 0 0 -1
    outer loop
      vertex -19.3379 -21.4769 5.4
      vertex -16 -27.7128 5.4
      vertex -23.3806 -16.987 5.4
    endloop
  endfacet
  facet normal 0 0 -1
    outer loop
      vertex -8.93059 -27.4855 5.4
      vertex -9.88854 -30.4338 5.4
      vertex -14.45 -25.0281 5.4
    endloop
  endfacet
  facet normal 0 0 -1
    outer loop
      vertex -3.02087 -28.7417 5.4
      vertex -3.34491 -31.8247 5.4
      vertex -8.93059 -27.4855 5.4
    endloop
  endfacet
  facet normal 0 0 -1
    outer loop
      vertex 3.02087 -28.7417 5.4
      vertex 3.34491 -31.8247 5.4
      vertex -3.02087 -28.7417 5.4
    endloop
  endfacet
  facet normal 0 0 -1
    outer loop
      vertex 8.93059 -27.4855 5.4
      vertex 9.88854 -30.4338 5.4
      vertex 3.02087 -28.7417 5.4
    endloop
  endfacet
  facet normal 0 0 -1
    outer loop
      vertex 14.45 -25.0281 5.4
      vertex 16 -27.7128 5.4
      vertex 8.93059 -27.4855 5.4
    endloop
  endfacet
  facet normal 0 0 -1
    outer loop
      vertex 19.3379 -21.4769 5.4
      vertex 21.4122 -23.7806 5.4
      vertex 14.45 -25.0281 5.4
    endloop
  endfacet
  facet normal 0 0 -1
    outer loop
      vertex 23.3806 -16.987 5.4
      vertex 25.8885 -18.8091 5.4
      vertex 19.3379 -21.4769 5.4
    endloop
  endfacet
  facet normal 0 0 -1
    outer loop
      vertex 26.4015 -11.7547 5.4
      vertex 29.2335 -13.0156 5.4
      vertex 23.3806 -16.987 5.4
    endloop
  endfacet
  facet normal 0 0 -1
    outer loop
      vertex 28.2685 -6.00865 5.4
      vertex 31.3007 -6.65317 5.4
      vertex 26.4015 -11.7547 5.4
    endloop
  endfacet
  facet normal 0 0 -1
    outer loop
      vertex 28.9 0 5.4
      vertex 31.3007 -6.65317 5.4
      vertex 28.2685 -6.00865 5.4
    endloop
  endfacet
  facet normal 0 0 -1
    outer loop
      vertex 28.2685 6.00865 5.4
      vertex 32 0 5.4
      vertex 28.9 0 5.4
    endloop
  endfacet
  facet normal 0 0 -1
    outer loop
      vertex 26.4015 11.7547 5.4
      vertex 31.3007 6.65317 5.4
      vertex 28.2685 6.00865 5.4
    endloop
  endfacet
  facet normal 0 0 -1
    outer loop
      vertex 23.3806 16.987 5.4
      vertex 29.2335 13.0156 5.4
      vertex 26.4015 11.7547 5.4
    endloop
  endfacet
  facet normal 0 0 -1
    outer loop
      vertex 19.3379 21.4769 5.4
      vertex 25.8885 18.8091 5.4
      vertex 23.3806 16.987 5.4
    endloop
  endfacet
  facet normal 0 0 -1
    outer loop
      vertex 14.45 25.0281 5.4
      vertex 21.4122 23.7806 5.4
      vertex 19.3379 21.4769 5.4
    endloop
  endfacet
  facet normal 0 0 -1
    outer loop
      vertex 8.93059 27.4855 5.4
      vertex 16 27.7128 5.4
      vertex 14.45 25.0281 5.4
    endloop
  endfacet
  facet normal 0 0 -1
    outer loop
      vertex 3.02087 28.7417 5.4
      vertex 9.88854 30.4338 5.4
      vertex 8.93059 27.4855 5.4
    endloop
  endfacet
  facet normal 0 0 -1
    outer loop
      vertex -3.02087 28.7417 5.4
      vertex 3.34491 31.8247 5.4
      vertex 3.02087 28.7417 5.4
    endloop
  endfacet
  facet normal 0 0 -1
    outer loop
      vertex -8.93059 27.4855 5.4
      vertex -3.34491 31.8247 5.4
      vertex -3.02087 28.7417 5.4
    endloop
  endfacet
  facet normal 0 0 -1
    outer loop
      vertex -14.45 25.0281 5.4
      vertex -9.88854 30.4338 5.4
      vertex -8.93059 27.4855 5.4
    endloop
  endfacet
  facet normal 0 0 -1
    outer loop
      vertex -19.3379 21.4769 5.4
      vertex -9.88854 30.4338 5.4
      vertex -14.45 25.0281 5.4
    endloop
  endfacet
  facet normal 0 0 -1
    outer loop
      vertex -23.3806 16.987 5.4
      vertex -16 27.7128 5.4
      vertex -19.3379 21.4769 5.4
    endloop
  endfacet
  facet normal 0 0 -1
    outer loop
      vertex -26.4015 11.7547 5.4
      vertex -31.3007 6.65317 5.4
      vertex -23.3806 16.987 5.4
    endloop
  endfacet
  facet normal 0 0 -1
    outer loop
      vertex -31.3007 6.65317 5.4
      vertex -16 27.7128 5.4
      vertex -23.3806 16.987 5.4
    endloop
  endfacet
  facet normal 0 0 -1
    outer loop
      vertex -28.2685 6.00865 5.4
      vertex -31.3007 6.65317 5.4
      vertex -26.4015 11.7547 5.4
    endloop
  endfacet
  facet normal 0 0 -1
    outer loop
      vertex -28.9 0 5.4
      vertex -31.3007 6.65317 5.4
      vertex -28.2685 6.00865 5.4
    endloop
  endfacet
  facet normal 0 0 -1
    outer loop
      vertex -28.2685 -6.00865 5.4
      vertex -31.3007 6.65317 5.4
      vertex -28.9 0 5.4
    endloop
  endfacet
  facet normal 0 0 -1
    outer loop
      vertex -14.45 -25.0281 5.4
      vertex -16 -27.7128 5.4
      vertex -19.3379 -21.4769 5.4
    endloop
  endfacet
  facet normal -0.951057 0.309017 0
    outer loop
      vertex -31.3007 6.65317 5.4
      vertex -31.3007 6.65317 61.6
      vertex -29.2335 13.0156 5.4
    endloop
  endfacet
  facet normal -0.951057 0.309017 0
    outer loop
      vertex -29.2335 13.0156 5.4
      vertex -31.3007 6.65317 61.6
      vertex -29.2335 13.0156 61.6
    endloop
  endfacet
  facet normal 0 0 1
    outer loop
      vertex -31.3007 -6.65317 61.6
      vertex -29.2335 -13.0156 61.6
      vertex -25.8885 -18.8091 61.6
    endloop
  endfacet
  facet normal 0 0 1
    outer loop
      vertex -16 -27.7128 61.6
      vertex -31.3007 -6.65317 61.6
      vertex -21.4122 -23.7806 61.6
    endloop
  endfacet
  facet normal 0 0 1
    outer loop
      vertex -21.4122 -23.7806 61.6
      vertex -31.3007 -6.65317 61.6
      vertex -25.8885 -18.8091 61.6
    endloop
  endfacet
  facet normal 0 0 1
    outer loop
      vertex -23.3806 -16.987 61.6
      vertex -31.3007 -6.65317 61.6
      vertex -16 -27.7128 61.6
    endloop
  endfacet
  facet normal 0 0 1
    outer loop
      vertex -14.45 -25.0281 61.6
      vertex -19.3379 -21.4769 61.6
      vertex -9.88854 -30.4338 61.6
    endloop
  endfacet
  facet normal 0 0 1
    outer loop
      vertex -3.02087 -28.7417 61.6
      vertex -8.93059 -27.4855 61.6
      vertex -3.34491 -31.8247 61.6
    endloop
  endfacet
  facet normal 0 0 1
    outer loop
      vertex 3.02087 -28.7417 61.6
      vertex -3.02087 -28.7417 61.6
      vertex 3.34491 -31.8247 61.6
    endloop
  endfacet
  facet normal 0 0 1
    outer loop
      vertex 8.93059 -27.4855 61.6
      vertex 3.02087 -28.7417 61.6
      vertex 9.88854 -30.4338 61.6
    endloop
  endfacet
  facet normal 0 0 1
    outer loop
      vertex 14.45 -25.0281 61.6
      vertex 8.93059 -27.4855 61.6
      vertex 16 -27.7128 61.6
    endloop
  endfacet
  facet normal 0 0 1
    outer loop
      vertex 19.3379 -21.4769 61.6
      vertex 14.45 -25.0281 61.6
      vertex 21.4122 -23.7806 61.6
    endloop
  endfacet
  facet normal 0 0 1
    outer loop
      vertex 23.3806 -16.987 61.6
      vertex 19.3379 -21.4769 61.6
      vertex 25.8885 -18.8091 61.6
    endloop
  endfacet
  facet normal 0 0 1
    outer loop
      vertex 26.4015 -11.7547 61.6
      vertex 23.3806 -16.987 61.6
      vertex 29.2335 -13.0156 61.6
    endloop
  endfacet
  facet normal 0 0 1
    outer loop
      vertex 28.2685 -6.00865 61.6
      vertex 26.4015 -11.7547 61.6
      vertex 31.3007 -6.65317 61.6
    endloop
  endfacet
  facet normal 0 0 1
    outer loop
      vertex -26.4015 -11.7547 61.6
      vertex -28.2685 -6.00865 61.6
      vertex -31.3007 -6.65317 61.6
    endloop
  endfacet
  facet normal 0 0 1
    outer loop
      vertex -26.4015 11.7547 61.6
      vertex -23.3806 16.987 61.6
      vertex -21.4122 23.7806 61.6
    endloop
  endfacet
  facet normal 0 0 1
    outer loop
      vertex -19.3379 21.4769 61.6
      vertex -14.45 25.0281 61.6
      vertex -16 27.7128 61.6
    endloop
  endfacet
  facet normal 0 0 1
    outer loop
      vertex -29.2335 13.0156 61.6
      vertex -31.3007 -6.65317 61.6
      vertex -25.8885 18.8091 61.6
    endloop
  endfacet
  facet normal 0 0 1
    outer loop
      vertex -31.3007 6.65317 61.6
      vertex -31.3007 -6.65317 61.6
      vertex -29.2335 13.0156 61.6
    endloop
  endfacet
  facet normal 0 0 1
    outer loop
      vertex -32 0 61.6
      vertex -31.3007 -6.65317 61.6
      vertex -31.3007 6.65317 61.6
    endloop
  endfacet
  facet normal 0 0 1
    outer loop
      vertex -14.45 25.0281 61.6
      vertex -8.93059 27.4855 61.6
      vertex -9.88854 30.4338 61.6
    endloop
  endfacet
  facet normal 0 0 1
    outer loop
      vertex -23.3806 -16.987 61.6
      vertex -26.4015 -11.7547 61.6
      vertex -31.3007 -6.65317 61.6
    endloop
  endfacet
  facet normal 0 0 1
    outer loop
      vertex -25.8885 18.8091 61.6
      vertex -31.3007 -6.65317 61.6
      vertex -28.2685 6.00865 61.6
    endloop
  endfacet
  facet normal 0 0 1
    outer loop
      vertex -25.8885 18.8091 61.6
      vertex -26.4015 11.7547 61.6
      vertex -21.4122 23.7806 61.6
    endloop
  endfacet
  facet normal 0 0 1
    outer loop
      vertex -25.8885 18.8091 61.6
      vertex -28.2685 6.00865 61.6
      vertex -26.4015 11.7547 61.6
    endloop
  endfacet
  facet normal 0 0 1
    outer loop
      vertex -21.4122 23.7806 61.6
      vertex -23.3806 16.987 61.6
      vertex -16 27.7128 61.6
    endloop
  endfacet
  facet normal 0 0 1
    outer loop
      vertex -23.3806 16.987 61.6
      vertex -19.3379 21.4769 61.6
      vertex -16 27.7128 61.6
    endloop
  endfacet
  facet normal 0 0 1
    outer loop
      vertex -16 27.7128 61.6
      vertex -14.45 25.0281 61.6
      vertex -9.88854 30.4338 61.6
    endloop
  endfacet
  facet normal 0 0 1
    outer loop
      vertex -28.9 0 61.6
      vertex -28.2685 6.00865 61.6
      vertex -31.3007 -6.65317 61.6
    endloop
  endfacet
  facet normal 0 0 1
    outer loop
      vertex -9.88854 30.4338 61.6
      vertex -8.93059 27.4855 61.6
      vertex -3.34491 31.8247 61.6
    endloop
  endfacet
  facet normal 0 0 1
    outer loop
      vertex -3.34491 31.8247 61.6
      vertex -3.02087 28.7417 61.6
      vertex 3.34491 31.8247 61.6
    endloop
  endfacet
  facet normal 0 0 1
    outer loop
      vertex 3.34491 31.8247 61.6
      vertex 3.02087 28.7417 61.6
      vertex 9.88854 30.4338 61.6
    endloop
  endfacet
  facet normal 0 0 1
    outer loop
      vertex 9.88854 30.4338 61.6
      vertex 8.93059 27.4855 61.6
      vertex 16 27.7128 61.6
    endloop
  endfacet
  facet normal 0 0 1
    outer loop
      vertex 16 27.7128 61.6
      vertex 14.45 25.0281 61.6
      vertex 21.4122 23.7806 61.6
    endloop
  endfacet
  facet normal 0 0 1
    outer loop
      vertex 21.4122 23.7806 61.6
      vertex 19.3379 21.4769 61.6
      vertex 25.8885 18.8091 61.6
    endloop
  endfacet
  facet normal 0 0 1
    outer loop
      vertex 25.8885 18.8091 61.6
      vertex 23.3806 16.987 61.6
      vertex 29.2335 13.0156 61.6
    endloop
  endfacet
  facet normal 0 0 1
    outer loop
      vertex 29.2335 13.0156 61.6
      vertex 26.4015 11.7547 61.6
      vertex 31.3007 6.65317 61.6
    endloop
  endfacet
  facet normal 0 0 1
    outer loop
      vertex 26.4015 11.7547 61.6
      vertex 28.2685 6.00865 61.6
      vertex 31.3007 6.65317 61.6
    endloop
  endfacet
  facet normal 0 0 1
    outer loop
      vertex 31.3007 6.65317 61.6
      vertex 28.9 0 61.6
      vertex 32 0 61.6
    endloop
  endfacet
  facet normal 0 0 1
    outer loop
      vertex 32 0 61.6
      vertex 28.2685 -6.00865 61.6
      vertex 31.3007 -6.65317 61.6
    endloop
  endfacet
  facet normal 0 0 1
    outer loop
      vertex 31.3007 -6.65317 61.6
      vertex 26.4015 -11.7547 61.6
      vertex 29.2335 -13.0156 61.6
    endloop
  endfacet
  facet normal 0 0 1
    outer loop
      vertex 29.2335 -13.0156 61.6
      vertex 23.3806 -16.987 61.6
      vertex 25.8885 -18.8091 61.6
    endloop
  endfacet
  facet normal 0 0 1
    outer loop
      vertex 25.8885 -18.8091 61.6
      vertex 19.3379 -21.4769 61.6
      vertex 21.4122 -23.7806 61.6
    endloop
  endfacet
  facet normal 0 0 1
    outer loop
      vertex 21.4122 -23.7806 61.6
      vertex 14.45 -25.0281 61.6
      vertex 16 -27.7128 61.6
    endloop
  endfacet
  facet normal 0 0 1
    outer loop
      vertex 16 -27.7128 61.6
      vertex 8.93059 -27.4855 61.6
      vertex 9.88854 -30.4338 61.6
    endloop
  endfacet
  facet normal 0 0 1
    outer loop
      vertex 9.88854 -30.4338 61.6
      vertex 3.02087 -28.7417 61.6
      vertex 3.34491 -31.8247 61.6
    endloop
  endfacet
  facet normal 0 0 1
    outer loop
      vertex 3.34491 -31.8247 61.6
      vertex -3.02087 -28.7417 61.6
      vertex -3.34491 -31.8247 61.6
    endloop
  endfacet
  facet normal 0 0 1
    outer loop
      vertex -3.34491 -31.8247 61.6
      vertex -8.93059 -27.4855 61.6
      vertex -9.88854 -30.4338 61.6
    endloop
  endfacet
  facet normal 0 0 1
    outer loop
      vertex -8.93059 -27.4855 61.6
      vertex -14.45 -25.0281 61.6
      vertex -9.88854 -30.4338 61.6
    endloop
  endfacet
  facet normal 0 0 1
    outer loop
      vertex -9.88854 -30.4338 61.6
      vertex -19.3379 -21.4769 61.6
      vertex -16 -27.7128 61.6
    endloop
  endfacet
  facet normal 0 0 1
    outer loop
      vertex -19.3379 -21.4769 61.6
      vertex -23.3806 -16.987 61.6
      vertex -16 -27.7128 61.6
    endloop
  endfacet
  facet normal 0 0 1
    outer loop
      vertex -8.93059 27.4855 61.6
      vertex -3.02087 28.7417 61.6
      vertex -3.34491 31.8247 61.6
    endloop
  endfacet
  facet normal 0 0 1
    outer loop
      vertex -3.02087 28.7417 61.6
      vertex 3.02087 28.7417 61.6
      vertex 3.34491 31.8247 61.6
    endloop
  endfacet
  facet normal 0 0 1
    outer loop
      vertex 3.02087 28.7417 61.6
      vertex 8.93059 27.4855 61.6
      vertex 9.88854 30.4338 61.6
    endloop
  endfacet
  facet normal 0 0 1
    outer loop
      vertex 8.93059 27.4855 61.6
      vertex 14.45 25.0281 61.6
      vertex 16 27.7128 61.6
    endloop
  endfacet
  facet normal 0 0 1
    outer loop
      vertex 14.45 25.0281 61.6
      vertex 19.3379 21.4769 61.6
      vertex 21.4122 23.7806 61.6
    endloop
  endfacet
  facet normal 0 0 1
    outer loop
      vertex 19.3379 21.4769 61.6
      vertex 23.3806 16.987 61.6
      vertex 25.8885 18.8091 61.6
    endloop
  endfacet
  facet normal 0 0 1
    outer loop
      vertex 23.3806 16.987 61.6
      vertex 26.4015 11.7547 61.6
      vertex 29.2335 13.0156 61.6
    endloop
  endfacet
  facet normal 0 0 1
    outer loop
      vertex 28.2685 6.00865 61.6
      vertex 28.9 0 61.6
      vertex 31.3007 6.65317 61.6
    endloop
  endfacet
  facet normal 0 0 1
    outer loop
      vertex 28.9 0 61.6
      vertex 28.2685 -6.00865 61.6
      vertex 32 0 61.6
    endloop
  endfacet
  facet normal 0 0 1
    outer loop
      vertex -28.2685 -6.00865 61.6
      vertex -28.9 0 61.6
      vertex -31.3007 -6.65317 61.6
    endloop
  endfacet
  facet normal -0.951057 -0.309017 0
    outer loop
      vertex -31.3007 -6.65317 5.4
      vertex -29.2335 -13.0156 5.4
      vertex -31.3007 -6.65317 61.6
    endloop
  endfacet
  facet normal -0.951057 -0.309017 0
    outer loop
      vertex -31.3007 -6.65317 61.6
      vertex -29.2335 -13.0156 5.4
      vertex -29.2335 -13.0156 61.6
    endloop
  endfacet
  facet normal -0.866025 -0.5 0
    outer loop
      vertex -29.2335 -13.0156 5.4
      vertex -25.8885 -18.8091 5.4
      vertex -29.2335 -13.0156 61.6
    endloop
  endfacet
  facet normal -0.866025 -0.5 0
    outer loop
      vertex -29.2335 -13.0156 61.6
      vertex -25.8885 -18.8091 5.4
      vertex -25.8885 -18.8091 61.6
    endloop
  endfacet
  facet normal -0.743145 -0.669131 0
    outer loop
      vertex -25.8885 -18.8091 5.4
      vertex -21.4122 -23.7806 5.4
      vertex -25.8885 -18.8091 61.6
    endloop
  endfacet
  facet normal -0.743145 -0.669131 0
    outer loop
      vertex -25.8885 -18.8091 61.6
      vertex -21.4122 -23.7806 5.4
      vertex -21.4122 -23.7806 61.6
    endloop
  endfacet
  facet normal -0.587785 -0.809017 0
    outer loop
      vertex -21.4122 -23.7806 61.6
      vertex -21.4122 -23.7806 5.4
      vertex -16 -27.7128 5.4
    endloop
  endfacet
  facet normal -0.587785 -0.809017 0
    outer loop
      vertex -16 -27.7128 61.6
      vertex -21.4122 -23.7806 61.6
      vertex -16 -27.7128 5.4
    endloop
  endfacet
  facet normal -0.406737 -0.913545 0
    outer loop
      vertex -16 -27.7128 61.6
      vertex -16 -27.7128 5.4
      vertex -9.88854 -30.4338 5.4
    endloop
  endfacet
  facet normal -0.406737 -0.913545 0
    outer loop
      vertex -9.88854 -30.4338 61.6
      vertex -16 -27.7128 61.6
      vertex -9.88854 -30.4338 5.4
    endloop
  endfacet
  facet normal -0.207912 -0.978148 0
    outer loop
      vertex -9.88854 -30.4338 61.6
      vertex -9.88854 -30.4338 5.4
      vertex -3.34491 -31.8247 5.4
    endloop
  endfacet
  facet normal -0.207912 -0.978148 0
    outer loop
      vertex -3.34491 -31.8247 61.6
      vertex -9.88854 -30.4338 61.6
      vertex -3.34491 -31.8247 5.4
    endloop
  endfacet
  facet normal 0 -1 0
    outer loop
      vertex -3.34491 -31.8247 61.6
      vertex -3.34491 -31.8247 5.4
      vertex 3.34491 -31.8247 5.4
    endloop
  endfacet
  facet normal 0 -1 0
    outer loop
      vertex 3.34491 -31.8247 61.6
      vertex -3.34491 -31.8247 61.6
      vertex 3.34491 -31.8247 5.4
    endloop
  endfacet
  facet normal 0.207912 -0.978148 0
    outer loop
      vertex 3.34491 -31.8247 61.6
      vertex 3.34491 -31.8247 5.4
      vertex 9.88854 -30.4338 5.4
    endloop
  endfacet
  facet normal 0.207912 -0.978148 0
    outer loop
      vertex 9.88854 -30.4338 61.6
      vertex 3.34491 -31.8247 61.6
      vertex 9.88854 -30.4338 5.4
    endloop
  endfacet
  facet normal 0.406737 -0.913545 0
    outer loop
      vertex 9.88854 -30.4338 61.6
      vertex 9.88854 -30.4338 5.4
      vertex 16 -27.7128 5.4
    endloop
  endfacet
  facet normal 0.406737 -0.913545 0
    outer loop
      vertex 16 -27.7128 61.6
      vertex 9.88854 -30.4338 61.6
      vertex 16 -27.7128 5.4
    endloop
  endfacet
  facet normal 0.587785 -0.809017 0
    outer loop
      vertex 16 -27.7128 61.6
      vertex 16 -27.7128 5.4
      vertex 21.4122 -23.7806 5.4
    endloop
  endfacet
  facet normal 0.587785 -0.809017 0
    outer loop
      vertex 21.4122 -23.7806 61.6
      vertex 16 -27.7128 61.6
      vertex 21.4122 -23.7806 5.4
    endloop
  endfacet
  facet normal 0.743145 -0.669131 0
    outer loop
      vertex 21.4122 -23.7806 61.6
      vertex 21.4122 -23.7806 5.4
      vertex 25.8885 -18.8091 5.4
    endloop
  endfacet
  facet normal 0.743145 -0.669131 0
    outer loop
      vertex 25.8885 -18.8091 61.6
      vertex 21.4122 -23.7806 61.6
      vertex 25.8885 -18.8091 5.4
    endloop
  endfacet
  facet normal 0.866025 -0.5 0
    outer loop
      vertex 25.8885 -18.8091 61.6
      vertex 25.8885 -18.8091 5.4
      vertex 29.2335 -13.0156 5.4
    endloop
  endfacet
  facet normal 0.866025 -0.5 0
    outer loop
      vertex 29.2335 -13.0156 61.6
      vertex 25.8885 -18.8091 61.6
      vertex 29.2335 -13.0156 5.4
    endloop
  endfacet
  facet normal 0.951057 -0.309017 0
    outer loop
      vertex 29.2335 -13.0156 61.6
      vertex 29.2335 -13.0156 5.4
      vertex 31.3007 -6.65317 5.4
    endloop
  endfacet
  facet normal 0.951057 -0.309017 0
    outer loop
      vertex 31.3007 -6.65317 61.6
      vertex 29.2335 -13.0156 61.6
      vertex 31.3007 -6.65317 5.4
    endloop
  endfacet
  facet normal 0.994522 -0.104528 0
    outer loop
      vertex 31.3007 -6.65317 61.6
      vertex 31.3007 -6.65317 5.4
      vertex 32 0 5.4
    endloop
  endfacet
  facet normal 0.994522 -0.104528 0
    outer loop
      vertex 32 0 61.6
      vertex 31.3007 -6.65317 61.6
      vertex 32 0 5.4
    endloop
  endfacet
  facet normal 0.994522 0.104528 0
    outer loop
      vertex 32 0 5.4
      vertex 31.3007 6.65317 5.4
      vertex 31.3007 6.65317 61.6
    endloop
  endfacet
  facet normal 0.994522 0.104528 0
    outer loop
      vertex 32 0 61.6
      vertex 32 0 5.4
      vertex 31.3007 6.65317 61.6
    endloop
  endfacet
  facet normal 0.951057 0.309017 0
    outer loop
      vertex 31.3007 6.65317 5.4
      vertex 29.2335 13.0156 5.4
      vertex 29.2335 13.0156 61.6
    endloop
  endfacet
  facet normal 0.951057 0.309017 0
    outer loop
      vertex 31.3007 6.65317 61.6
      vertex 31.3007 6.65317 5.4
      vertex 29.2335 13.0156 61.6
    endloop
  endfacet
  facet normal 0.866025 0.5 0
    outer loop
      vertex 29.2335 13.0156 5.4
      vertex 25.8885 18.8091 5.4
      vertex 25.8885 18.8091 61.6
    endloop
  endfacet
  facet normal 0.866025 0.5 0
    outer loop
      vertex 29.2335 13.0156 61.6
      vertex 29.2335 13.0156 5.4
      vertex 25.8885 18.8091 61.6
    endloop
  endfacet
  facet normal 0.743145 0.669131 0
    outer loop
      vertex 25.8885 18.8091 5.4
      vertex 21.4122 23.7806 5.4
      vertex 21.4122 23.7806 61.6
    endloop
  endfacet
  facet normal 0.743145 0.669131 0
    outer loop
      vertex 25.8885 18.8091 61.6
      vertex 25.8885 18.8091 5.4
      vertex 21.4122 23.7806 61.6
    endloop
  endfacet
  facet normal 0.587785 0.809017 0
    outer loop
      vertex 16 27.7128 5.4
      vertex 16 27.7128 61.6
      vertex 21.4122 23.7806 5.4
    endloop
  endfacet
  facet normal 0.587785 0.809017 0
    outer loop
      vertex 21.4122 23.7806 5.4
      vertex 16 27.7128 61.6
      vertex 21.4122 23.7806 61.6
    endloop
  endfacet
  facet normal 0.406737 0.913545 0
    outer loop
      vertex 9.88854 30.4338 5.4
      vertex 9.88854 30.4338 61.6
      vertex 16 27.7128 5.4
    endloop
  endfacet
  facet normal 0.406737 0.913545 0
    outer loop
      vertex 16 27.7128 5.4
      vertex 9.88854 30.4338 61.6
      vertex 16 27.7128 61.6
    endloop
  endfacet
  facet normal 0.207912 0.978148 0
    outer loop
      vertex 3.34491 31.8247 5.4
      vertex 3.34491 31.8247 61.6
      vertex 9.88854 30.4338 5.4
    endloop
  endfacet
  facet normal 0.207912 0.978148 0
    outer loop
      vertex 9.88854 30.4338 5.4
      vertex 3.34491 31.8247 61.6
      vertex 9.88854 30.4338 61.6
    endloop
  endfacet
  facet normal 0 1 0
    outer loop
      vertex -3.34491 31.8247 5.4
      vertex -3.34491 31.8247 61.6
      vertex 3.34491 31.8247 5.4
    endloop
  endfacet
  facet normal 0 1 0
    outer loop
      vertex 3.34491 31.8247 5.4
      vertex -3.34491 31.8247 61.6
      vertex 3.34491 31.8247 61.6
    endloop
  endfacet
  facet normal -0.207912 0.978148 0
    outer loop
      vertex -9.88854 30.4338 5.4
      vertex -9.88854 30.4338 61.6
      vertex -3.34491 31.8247 5.4
    endloop
  endfacet
  facet normal -0.207912 0.978148 0
    outer loop
      vertex -3.34491 31.8247 5.4
      vertex -9.88854 30.4338 61.6
      vertex -3.34491 31.8247 61.6
    endloop
  endfacet
  facet normal -0.406737 0.913545 0
    outer loop
      vertex -16 27.7128 5.4
      vertex -16 27.7128 61.6
      vertex -9.88854 30.4338 5.4
    endloop
  endfacet
  facet normal -0.406737 0.913545 0
    outer loop
      vertex -9.88854 30.4338 5.4
      vertex -16 27.7128 61.6
      vertex -9.88854 30.4338 61.6
    endloop
  endfacet
  facet normal -0.587785 0.809017 0
    outer loop
      vertex -21.4122 23.7806 5.4
      vertex -21.4122 23.7806 61.6
      vertex -16 27.7128 5.4
    endloop
  endfacet
  facet normal -0.587785 0.809017 0
    outer loop
      vertex -16 27.7128 5.4
      vertex -21.4122 23.7806 61.6
      vertex -16 27.7128 61.6
    endloop
  endfacet
  facet normal -0.743145 0.669131 0
    outer loop
      vertex -25.8885 18.8091 5.4
      vertex -25.8885 18.8091 61.6
      vertex -21.4122 23.7806 5.4
    endloop
  endfacet
  facet normal -0.743145 0.669131 0
    outer loop
      vertex -21.4122 23.7806 5.4
      vertex -25.8885 18.8091 61.6
      vertex -21.4122 23.7806 61.6
    endloop
  endfacet
  facet normal -0.866025 0.5 0
    outer loop
      vertex -29.2335 13.0156 5.4
      vertex -29.2335 13.0156 61.6
      vertex -25.8885 18.8091 5.4
    endloop
  endfacet
  facet normal -0.866025 0.5 0
    outer loop
      vertex -25.8885 18.8091 5.4
      vertex -29.2335 13.0156 61.6
      vertex -25.8885 18.8091 61.6
    endloop
  endfacet
  facet normal -0.994522 -0.104528 0
    outer loop
      vertex -28.9 0 0
      vertex -28.2685 -6.00865 0
      vertex -28.9 0 5.4
    endloop
  endfacet
  facet normal -0.994522 -0.104528 0
    outer loop
      vertex -28.9 0 5.4
      vertex -28.2685 -6.00865 0
      vertex -28.2685 -6.00865 5.4
    endloop
  endfacet
  facet normal -0.951057 -0.309017 0
    outer loop
      vertex -28.2685 -6.00865 0
      vertex -26.4015 -11.7547 0
      vertex -28.2685 -6.00865 5.4
    endloop
  endfacet
  facet normal -0.951057 -0.309017 0
    outer loop
      vertex -28.2685 -6.00865 5.4
      vertex -26.4015 -11.7547 0
      vertex -26.4015 -11.7547 5.4
    endloop
  endfacet
  facet normal -0.994522 0.104528 0
    outer loop
      vertex -28.9 0 0
      vertex -28.9 0 5.4
      vertex -28.2685 6.00865 0
    endloop
  endfacet
  facet normal -0.994522 0.104528 0
    outer loop
      vertex -28.2685 6.00865 0
      vertex -28.9 0 5.4
      vertex -28.2685 6.00865 5.4
    endloop
  endfacet
  facet normal -0.951057 0.309017 0
    outer loop
      vertex -28.2685 6.00865 0
      vertex -28.2685 6.00865 5.4
      vertex -26.4015 11.7547 0
    endloop
  endfacet
  facet normal -0.951057 0.309017 0
    outer loop
      vertex -26.4015 11.7547 0
      vertex -28.2685 6.00865 5.4
      vertex -26.4015 11.7547 5.4
    endloop
  endfacet
  facet normal -0.866025 0.5 0
    outer loop
      vertex -26.4015 11.7547 0
      vertex -26.4015 11.7547 5.4
      vertex -23.3806 16.987 0
    endloop
  endfacet
  facet normal -0.866025 0.5 0
    outer loop
      vertex -23.3806 16.987 0
      vertex -26.4015 11.7547 5.4
      vertex -23.3806 16.987 5.4
    endloop
  endfacet
  facet normal -0.743145 0.669131 0
    outer loop
      vertex -22.9187 17.5 4.1
      vertex -23.3806 16.987 5.4
      vertex -19.3379 21.4769 0
    endloop
  endfacet
  facet normal -0.743145 0.669131 0
    outer loop
      vertex -19.3379 21.4769 0
      vertex -23.3806 16.987 5.4
      vertex -19.3379 21.4769 5.4
    endloop
  endfacet
  facet normal -0.743145 0.669131 0
    outer loop
      vertex -23.3806 16.987 0
      vertex -23.3806 16.987 5.4
      vertex -23 17.4097 4.1
    endloop
  endfacet
  facet normal -0.743145 0.669131 0
    outer loop
      vertex -23.3806 16.987 0
      vertex -23 17.4097 4.1
      vertex -23 17.4097 2.1
    endloop
  endfacet
  facet normal -0.743145 0.669131 0
    outer loop
      vertex -23.3806 16.987 0
      vertex -23 17.4097 2.1
      vertex -19.3379 21.4769 0
    endloop
  endfacet
  facet normal -0.743145 0.669131 0
    outer loop
      vertex -23 17.4097 2.1
      vertex -22.9187 17.5 2.1
      vertex -19.3379 21.4769 0
    endloop
  endfacet
  facet normal -0.743145 0.669131 0
    outer loop
      vertex -23 17.4097 4.1
      vertex -23.3806 16.987 5.4
      vertex -22.9187 17.5 4.1
    endloop
  endfacet
  facet normal -0.743145 0.669131 0
    outer loop
      vertex -22.9187 17.5 4.1
      vertex -19.3379 21.4769 0
      vertex -22.9187 17.5 2.1
    endloop
  endfacet
  facet normal -0.587785 0.809017 0
    outer loop
      vertex -19.3379 21.4769 0
      vertex -19.3379 21.4769 5.4
      vertex -14.45 25.0281 0
    endloop
  endfacet
  facet normal -0.587785 0.809017 0
    outer loop
      vertex -14.45 25.0281 0
      vertex -19.3379 21.4769 5.4
      vertex -14.45 25.0281 5.4
    endloop
  endfacet
  facet normal -0.406737 0.913545 0
    outer loop
      vertex -14.45 25.0281 0
      vertex -14.45 25.0281 5.4
      vertex -8.93059 27.4855 0
    endloop
  endfacet
  facet normal -0.406737 0.913545 0
    outer loop
      vertex -8.93059 27.4855 0
      vertex -14.45 25.0281 5.4
      vertex -8.93059 27.4855 5.4
    endloop
  endfacet
  facet normal -0.207912 0.978148 0
    outer loop
      vertex -8.93059 27.4855 0
      vertex -8.93059 27.4855 5.4
      vertex -3.02087 28.7417 0
    endloop
  endfacet
  facet normal -0.207912 0.978148 0
    outer loop
      vertex -3.02087 28.7417 0
      vertex -8.93059 27.4855 5.4
      vertex -3.02087 28.7417 5.4
    endloop
  endfacet
  facet normal 0 1 0
    outer loop
      vertex -3.02087 28.7417 0
      vertex -3.02087 28.7417 5.4
      vertex 3.02087 28.7417 0
    endloop
  endfacet
  facet normal 0 1 0
    outer loop
      vertex 3.02087 28.7417 0
      vertex -3.02087 28.7417 5.4
      vertex 3.02087 28.7417 5.4
    endloop
  endfacet
  facet normal 0.207912 0.978148 0
    outer loop
      vertex 3.02087 28.7417 0
      vertex 3.02087 28.7417 5.4
      vertex 8.93059 27.4855 0
    endloop
  endfacet
  facet normal 0.207912 0.978148 0
    outer loop
      vertex 8.93059 27.4855 0
      vertex 3.02087 28.7417 5.4
      vertex 8.93059 27.4855 5.4
    endloop
  endfacet
  facet normal 0.406737 0.913545 0
    outer loop
      vertex 8.93059 27.4855 0
      vertex 8.93059 27.4855 5.4
      vertex 14.45 25.0281 0
    endloop
  endfacet
  facet normal 0.406737 0.913545 0
    outer loop
      vertex 14.45 25.0281 0
      vertex 8.93059 27.4855 5.4
      vertex 14.45 25.0281 5.4
    endloop
  endfacet
  facet normal 0.587785 0.809017 0
    outer loop
      vertex 14.45 25.0281 0
      vertex 14.45 25.0281 5.4
      vertex 19.3379 21.4769 0
    endloop
  endfacet
  facet normal 0.587785 0.809017 0
    outer loop
      vertex 19.3379 21.4769 0
      vertex 14.45 25.0281 5.4
      vertex 19.3379 21.4769 5.4
    endloop
  endfacet
  facet normal 0.743145 0.669131 0
    outer loop
      vertex 23.3806 16.987 0
      vertex 19.3379 21.4769 0
      vertex 19.3379 21.4769 5.4
    endloop
  endfacet
  facet normal 0.743145 0.669131 0
    outer loop
      vertex 22.9187 17.5 2.1
      vertex 23.3806 16.987 0
      vertex 19.3379 21.4769 5.4
    endloop
  endfacet
  facet normal 0.743145 0.669131 0
    outer loop
      vertex 23.3806 16.987 5.4
      vertex 22.9187 17.5 4.1
      vertex 19.3379 21.4769 5.4
    endloop
  endfacet
  facet normal 0.743145 0.669131 0
    outer loop
      vertex 22.9187 17.5 4.1
      vertex 22.9187 17.5 2.1
      vertex 19.3379 21.4769 5.4
    endloop
  endfacet
  facet normal 0.743145 0.669131 0
    outer loop
      vertex 23 17.4097 2.1
      vertex 23.3806 16.987 0
      vertex 22.9187 17.5 2.1
    endloop
  endfacet
  facet normal 0.743145 0.669131 0
    outer loop
      vertex 23.3806 16.987 5.4
      vertex 23 17.4097 4.1
      vertex 22.9187 17.5 4.1
    endloop
  endfacet
  facet normal 0.743145 0.669131 0
    outer loop
      vertex 23.3806 16.987 5.4
      vertex 23.3806 16.987 0
      vertex 23 17.4097 4.1
    endloop
  endfacet
  facet normal 0.743145 0.669131 0
    outer loop
      vertex 23 17.4097 2.1
      vertex 23 17.4097 4.1
      vertex 23.3806 16.987 0
    endloop
  endfacet
  facet normal 0.866025 0.5 0
    outer loop
      vertex 26.4015 11.7547 0
      vertex 23.3806 16.987 0
      vertex 23.3806 16.987 5.4
    endloop
  endfacet
  facet normal 0.866025 0.5 0
    outer loop
      vertex 26.4015 11.7547 5.4
      vertex 26.4015 11.7547 0
      vertex 23.3806 16.987 5.4
    endloop
  endfacet
  facet normal 0.951057 0.309017 0
    outer loop
      vertex 28.2685 6.00865 0
      vertex 26.4015 11.7547 0
      vertex 26.4015 11.7547 5.4
    endloop
  endfacet
  facet normal 0.951057 0.309017 0
    outer loop
      vertex 28.2685 6.00865 5.4
      vertex 28.2685 6.00865 0
      vertex 26.4015 11.7547 5.4
    endloop
  endfacet
  facet normal 0.994522 0.104528 0
    outer loop
      vertex 28.9 0 0
      vertex 28.2685 6.00865 0
      vertex 28.2685 6.00865 5.4
    endloop
  endfacet
  facet normal 0.994522 0.104528 0
    outer loop
      vertex 28.9 0 5.4
      vertex 28.9 0 0
      vertex 28.2685 6.00865 5.4
    endloop
  endfacet
  facet normal 0.994522 -0.104528 0
    outer loop
      vertex 28.2685 -6.00865 5.4
      vertex 28.2685 -6.00865 0
      vertex 28.9 0 0
    endloop
  endfacet
  facet normal 0.994522 -0.104528 0
    outer loop
      vertex 28.9 0 5.4
      vertex 28.2685 -6.00865 5.4
      vertex 28.9 0 0
    endloop
  endfacet
  facet normal 0.951057 -0.309017 0
    outer loop
      vertex 26.4015 -11.7547 5.4
      vertex 26.4015 -11.7547 0
      vertex 28.2685 -6.00865 0
    endloop
  endfacet
  facet normal 0.951057 -0.309017 0
    outer loop
      vertex 28.2685 -6.00865 5.4
      vertex 26.4015 -11.7547 5.4
      vertex 28.2685 -6.00865 0
    endloop
  endfacet
  facet normal 0.866025 -0.5 0
    outer loop
      vertex 23.3806 -16.987 5.4
      vertex 23.3806 -16.987 0
      vertex 26.4015 -11.7547 0
    endloop
  endfacet
  facet normal 0.866025 -0.5 0
    outer loop
      vertex 26.4015 -11.7547 5.4
      vertex 23.3806 -16.987 5.4
      vertex 26.4015 -11.7547 0
    endloop
  endfacet
  facet normal 0.743145 -0.669131 0
    outer loop
      vertex 19.3379 -21.4769 5.4
      vertex 19.3379 -21.4769 0
      vertex 23.3806 -16.987 0
    endloop
  endfacet
  facet normal 0.743145 -0.669131 0
    outer loop
      vertex 22.9187 -17.5 2.1
      vertex 19.3379 -21.4769 5.4
      vertex 23.3806 -16.987 0
    endloop
  endfacet
  facet normal 0.743145 -0.669131 0
    outer loop
      vertex 23 -17.4097 2.1
      vertex 22.9187 -17.5 2.1
      vertex 23.3806 -16.987 0
    endloop
  endfacet
  facet normal 0.743145 -0.669131 0
    outer loop
      vertex 22.9187 -17.5 4.1
      vertex 19.3379 -21.4769 5.4
      vertex 22.9187 -17.5 2.1
    endloop
  endfacet
  facet normal 0.743145 -0.669131 0
    outer loop
      vertex 23.3806 -16.987 5.4
      vertex 19.3379 -21.4769 5.4
      vertex 22.9187 -17.5 4.1
    endloop
  endfacet
  facet normal 0.743145 -0.669131 0
    outer loop
      vertex 23.3806 -16.987 5.4
      vertex 22.9187 -17.5 4.1
      vertex 23 -17.4097 4.1
    endloop
  endfacet
  facet normal 0.743145 -0.669131 0
    outer loop
      vertex 23.3806 -16.987 5.4
      vertex 23 -17.4097 2.1
      vertex 23.3806 -16.987 0
    endloop
  endfacet
  facet normal 0.743145 -0.669131 0
    outer loop
      vertex 23 -17.4097 4.1
      vertex 23 -17.4097 2.1
      vertex 23.3806 -16.987 5.4
    endloop
  endfacet
  facet normal 0.587785 -0.809017 0
    outer loop
      vertex 14.45 -25.0281 5.4
      vertex 14.45 -25.0281 0
      vertex 19.3379 -21.4769 0
    endloop
  endfacet
  facet normal 0.587785 -0.809017 0
    outer loop
      vertex 19.3379 -21.4769 5.4
      vertex 14.45 -25.0281 5.4
      vertex 19.3379 -21.4769 0
    endloop
  endfacet
  facet normal 0.406737 -0.913545 0
    outer loop
      vertex 8.93059 -27.4855 5.4
      vertex 8.93059 -27.4855 0
      vertex 14.45 -25.0281 0
    endloop
  endfacet
  facet normal 0.406737 -0.913545 0
    outer loop
      vertex 14.45 -25.0281 5.4
      vertex 8.93059 -27.4855 5.4
      vertex 14.45 -25.0281 0
    endloop
  endfacet
  facet normal 0.207912 -0.978148 0
    outer loop
      vertex 3.02087 -28.7417 5.4
      vertex 3.02087 -28.7417 0
      vertex 8.93059 -27.4855 0
    endloop
  endfacet
  facet normal 0.207912 -0.978148 0
    outer loop
      vertex 8.93059 -27.4855 5.4
      vertex 3.02087 -28.7417 5.4
      vertex 8.93059 -27.4855 0
    endloop
  endfacet
  facet normal 0 -1 0
    outer loop
      vertex -3.02087 -28.7417 5.4
      vertex -3.02087 -28.7417 0
      vertex 3.02087 -28.7417 0
    endloop
  endfacet
  facet normal 0 -1 0
    outer loop
      vertex 3.02087 -28.7417 5.4
      vertex -3.02087 -28.7417 5.4
      vertex 3.02087 -28.7417 0
    endloop
  endfacet
  facet normal -0.207912 -0.978148 0
    outer loop
      vertex -8.93059 -27.4855 5.4
      vertex -8.93059 -27.4855 0
      vertex -3.02087 -28.7417 0
    endloop
  endfacet
  facet normal -0.207912 -0.978148 0
    outer loop
      vertex -3.02087 -28.7417 5.4
      vertex -8.93059 -27.4855 5.4
      vertex -3.02087 -28.7417 0
    endloop
  endfacet
  facet normal -0.406737 -0.913545 0
    outer loop
      vertex -14.45 -25.0281 5.4
      vertex -14.45 -25.0281 0
      vertex -8.93059 -27.4855 0
    endloop
  endfacet
  facet normal -0.406737 -0.913545 0
    outer loop
      vertex -8.93059 -27.4855 5.4
      vertex -14.45 -25.0281 5.4
      vertex -8.93059 -27.4855 0
    endloop
  endfacet
  facet normal -0.587785 -0.809017 0
    outer loop
      vertex -19.3379 -21.4769 5.4
      vertex -19.3379 -21.4769 0
      vertex -14.45 -25.0281 0
    endloop
  endfacet
  facet normal -0.587785 -0.809017 0
    outer loop
      vertex -14.45 -25.0281 5.4
      vertex -19.3379 -21.4769 5.4
      vertex -14.45 -25.0281 0
    endloop
  endfacet
  facet normal -0.743145 -0.669131 0
    outer loop
      vertex -22.9187 -17.5 4.1
      vertex -19.3379 -21.4769 0
      vertex -23.3806 -16.987 5.4
    endloop
  endfacet
  facet normal -0.743145 -0.669131 0
    outer loop
      vertex -23.3806 -16.987 5.4
      vertex -19.3379 -21.4769 0
      vertex -19.3379 -21.4769 5.4
    endloop
  endfacet
  facet normal -0.743145 -0.669131 0
    outer loop
      vertex -23.3806 -16.987 0
      vertex -19.3379 -21.4769 0
      vertex -23 -17.4097 2.1
    endloop
  endfacet
  facet normal -0.743145 -0.669131 0
    outer loop
      vertex -23.3806 -16.987 0
      vertex -23 -17.4097 2.1
      vertex -23.3806 -16.987 5.4
    endloop
  endfacet
  facet normal -0.743145 -0.669131 0
    outer loop
      vertex -23 -17.4097 2.1
      vertex -23 -17.4097 4.1
      vertex -23.3806 -16.987 5.4
    endloop
  endfacet
  facet normal -0.743145 -0.669131 0
    outer loop
      vertex -23 -17.4097 4.1
      vertex -22.9187 -17.5 4.1
      vertex -23.3806 -16.987 5.4
    endloop
  endfacet
  facet normal -0.743145 -0.669131 0
    outer loop
      vertex -23 -17.4097 2.1
      vertex -19.3379 -21.4769 0
      vertex -22.9187 -17.5 2.1
    endloop
  endfacet
  facet normal -0.743145 -0.669131 0
    outer loop
      vertex -22.9187 -17.5 2.1
      vertex -19.3379 -21.4769 0
      vertex -22.9187 -17.5 4.1
    endloop
  endfacet
  facet normal -0.866025 -0.5 0
    outer loop
      vertex -26.4015 -11.7547 0
      vertex -23.3806 -16.987 0
      vertex -26.4015 -11.7547 5.4
    endloop
  endfacet
  facet normal -0.866025 -0.5 0
    outer loop
      vertex -26.4015 -11.7547 5.4
      vertex -23.3806 -16.987 0
      vertex -23.3806 -16.987 5.4
    endloop
  endfacet
  facet normal -0.994522 -0.104528 0
    outer loop
      vertex -28.9 0 61.6
      vertex -28.2685 -6.00865 61.6
      vertex -28.9 0 67
    endloop
  endfacet
  facet normal -0.994522 -0.104528 0
    outer loop
      vertex -28.9 0 67
      vertex -28.2685 -6.00865 61.6
      vertex -28.2685 -6.00865 67
    endloop
  endfacet
  facet normal -0.994522 0.104528 0
    outer loop
      vertex -28.9 0 61.6
      vertex -28.9 0 67
      vertex -28.2685 6.00865 61.6
    endloop
  endfacet
  facet normal -0.994522 0.104528 0
    outer loop
      vertex -28.2685 6.00865 61.6
      vertex -28.9 0 67
      vertex -28.2685 6.00865 67
    endloop
  endfacet
  facet normal -0.951057 -0.309017 0
    outer loop
      vertex -28.2685 -6.00865 61.6
      vertex -26.4015 -11.7547 61.6
      vertex -28.2685 -6.00865 67
    endloop
  endfacet
  facet normal -0.951057 -0.309017 0
    outer loop
      vertex -28.2685 -6.00865 67
      vertex -26.4015 -11.7547 61.6
      vertex -26.4015 -11.7547 67
    endloop
  endfacet
  facet normal -0.866025 -0.5 0
    outer loop
      vertex -26.4015 -11.7547 61.6
      vertex -23.3806 -16.987 61.6
      vertex -26.4015 -11.7547 67
    endloop
  endfacet
  facet normal -0.866025 -0.5 0
    outer loop
      vertex -26.4015 -11.7547 67
      vertex -23.3806 -16.987 61.6
      vertex -23.3806 -16.987 67
    endloop
  endfacet
  facet normal -0.743145 -0.669131 0
    outer loop
      vertex -23.3806 -16.987 61.6
      vertex -19.3379 -21.4769 61.6
      vertex -23.3806 -16.987 67
    endloop
  endfacet
  facet normal -0.743145 -0.669131 0
    outer loop
      vertex -23.3806 -16.987 67
      vertex -19.3379 -21.4769 61.6
      vertex -19.3379 -21.4769 67
    endloop
  endfacet
  facet normal -0.587785 -0.809017 0
    outer loop
      vertex -19.3379 -21.4769 67
      vertex -19.3379 -21.4769 61.6
      vertex -14.45 -25.0281 61.6
    endloop
  endfacet
  facet normal -0.587785 -0.809017 0
    outer loop
      vertex -14.45 -25.0281 67
      vertex -19.3379 -21.4769 67
      vertex -14.45 -25.0281 61.6
    endloop
  endfacet
  facet normal -0.406737 -0.913545 0
    outer loop
      vertex -14.45 -25.0281 67
      vertex -14.45 -25.0281 61.6
      vertex -8.93059 -27.4855 61.6
    endloop
  endfacet
  facet normal -0.406737 -0.913545 0
    outer loop
      vertex -8.93059 -27.4855 67
      vertex -14.45 -25.0281 67
      vertex -8.93059 -27.4855 61.6
    endloop
  endfacet
  facet normal -0.207912 -0.978148 0
    outer loop
      vertex -8.93059 -27.4855 67
      vertex -8.93059 -27.4855 61.6
      vertex -3.02087 -28.7417 61.6
    endloop
  endfacet
  facet normal -0.207912 -0.978148 0
    outer loop
      vertex -3.02087 -28.7417 67
      vertex -8.93059 -27.4855 67
      vertex -3.02087 -28.7417 61.6
    endloop
  endfacet
  facet normal 0 -1 0
    outer loop
      vertex -3.02087 -28.7417 67
      vertex -3.02087 -28.7417 61.6
      vertex 3.02087 -28.7417 61.6
    endloop
  endfacet
  facet normal 0 -1 0
    outer loop
      vertex 3.02087 -28.7417 67
      vertex -3.02087 -28.7417 67
      vertex 3.02087 -28.7417 61.6
    endloop
  endfacet
  facet normal 0.207912 -0.978148 0
    outer loop
      vertex 3.02087 -28.7417 67
      vertex 3.02087 -28.7417 61.6
      vertex 8.93059 -27.4855 61.6
    endloop
  endfacet
  facet normal 0.207912 -0.978148 0
    outer loop
      vertex 8.93059 -27.4855 67
      vertex 3.02087 -28.7417 67
      vertex 8.93059 -27.4855 61.6
    endloop
  endfacet
  facet normal 0.406737 -0.913545 0
    outer loop
      vertex 8.93059 -27.4855 67
      vertex 8.93059 -27.4855 61.6
      vertex 14.45 -25.0281 61.6
    endloop
  endfacet
  facet normal 0.406737 -0.913545 0
    outer loop
      vertex 14.45 -25.0281 67
      vertex 8.93059 -27.4855 67
      vertex 14.45 -25.0281 61.6
    endloop
  endfacet
  facet normal 0.587785 -0.809017 0
    outer loop
      vertex 14.45 -25.0281 67
      vertex 14.45 -25.0281 61.6
      vertex 19.3379 -21.4769 61.6
    endloop
  endfacet
  facet normal 0.587785 -0.809017 0
    outer loop
      vertex 19.3379 -21.4769 67
      vertex 14.45 -25.0281 67
      vertex 19.3379 -21.4769 61.6
    endloop
  endfacet
  facet normal 0.743145 -0.669131 0
    outer loop
      vertex 19.3379 -21.4769 67
      vertex 19.3379 -21.4769 61.6
      vertex 23.3806 -16.987 61.6
    endloop
  endfacet
  facet normal 0.743145 -0.669131 0
    outer loop
      vertex 23.3806 -16.987 67
      vertex 19.3379 -21.4769 67
      vertex 23.3806 -16.987 61.6
    endloop
  endfacet
  facet normal 0.866025 -0.5 0
    outer loop
      vertex 23.3806 -16.987 67
      vertex 23.3806 -16.987 61.6
      vertex 26.4015 -11.7547 61.6
    endloop
  endfacet
  facet normal 0.866025 -0.5 0
    outer loop
      vertex 26.4015 -11.7547 67
      vertex 23.3806 -16.987 67
      vertex 26.4015 -11.7547 61.6
    endloop
  endfacet
  facet normal 0.951057 -0.309017 0
    outer loop
      vertex 26.4015 -11.7547 67
      vertex 26.4015 -11.7547 61.6
      vertex 28.2685 -6.00865 61.6
    endloop
  endfacet
  facet normal 0.951057 -0.309017 0
    outer loop
      vertex 28.2685 -6.00865 67
      vertex 26.4015 -11.7547 67
      vertex 28.2685 -6.00865 61.6
    endloop
  endfacet
  facet normal 0.994522 -0.104528 0
    outer loop
      vertex 28.2685 -6.00865 67
      vertex 28.2685 -6.00865 61.6
      vertex 28.9 0 61.6
    endloop
  endfacet
  facet normal 0.994522 -0.104528 0
    outer loop
      vertex 28.9 0 67
      vertex 28.2685 -6.00865 67
      vertex 28.9 0 61.6
    endloop
  endfacet
  facet normal 0.994522 0.104528 0
    outer loop
      vertex 28.9 0 61.6
      vertex 28.2685 6.00865 61.6
      vertex 28.2685 6.00865 67
    endloop
  endfacet
  facet normal 0.994522 0.104528 0
    outer loop
      vertex 28.9 0 67
      vertex 28.9 0 61.6
      vertex 28.2685 6.00865 67
    endloop
  endfacet
  facet normal 0.951057 0.309017 0
    outer loop
      vertex 28.2685 6.00865 61.6
      vertex 26.4015 11.7547 61.6
      vertex 26.4015 11.7547 67
    endloop
  endfacet
  facet normal 0.951057 0.309017 0
    outer loop
      vertex 28.2685 6.00865 67
      vertex 28.2685 6.00865 61.6
      vertex 26.4015 11.7547 67
    endloop
  endfacet
  facet normal 0.866025 0.5 0
    outer loop
      vertex 26.4015 11.7547 61.6
      vertex 23.3806 16.987 61.6
      vertex 23.3806 16.987 67
    endloop
  endfacet
  facet normal 0.866025 0.5 0
    outer loop
      vertex 26.4015 11.7547 67
      vertex 26.4015 11.7547 61.6
      vertex 23.3806 16.987 67
    endloop
  endfacet
  facet normal 0.743145 0.669131 0
    outer loop
      vertex 23.3806 16.987 61.6
      vertex 19.3379 21.4769 61.6
      vertex 19.3379 21.4769 67
    endloop
  endfacet
  facet normal 0.743145 0.669131 0
    outer loop
      vertex 23.3806 16.987 67
      vertex 23.3806 16.987 61.6
      vertex 19.3379 21.4769 67
    endloop
  endfacet
  facet normal 0.587785 0.809017 0
    outer loop
      vertex 14.45 25.0281 61.6
      vertex 14.45 25.0281 67
      vertex 19.3379 21.4769 61.6
    endloop
  endfacet
  facet normal 0.587785 0.809017 0
    outer loop
      vertex 19.3379 21.4769 61.6
      vertex 14.45 25.0281 67
      vertex 19.3379 21.4769 67
    endloop
  endfacet
  facet normal 0.406737 0.913545 0
    outer loop
      vertex 8.93059 27.4855 61.6
      vertex 8.93059 27.4855 67
      vertex 14.45 25.0281 61.6
    endloop
  endfacet
  facet normal 0.406737 0.913545 0
    outer loop
      vertex 14.45 25.0281 61.6
      vertex 8.93059 27.4855 67
      vertex 14.45 25.0281 67
    endloop
  endfacet
  facet normal 0.207912 0.978148 0
    outer loop
      vertex 3.02087 28.7417 61.6
      vertex 3.02087 28.7417 67
      vertex 8.93059 27.4855 61.6
    endloop
  endfacet
  facet normal 0.207912 0.978148 0
    outer loop
      vertex 8.93059 27.4855 61.6
      vertex 3.02087 28.7417 67
      vertex 8.93059 27.4855 67
    endloop
  endfacet
  facet normal 0 1 0
    outer loop
      vertex -3.02087 28.7417 61.6
      vertex -3.02087 28.7417 67
      vertex 3.02087 28.7417 61.6
    endloop
  endfacet
  facet normal 0 1 0
    outer loop
      vertex 3.02087 28.7417 61.6
      vertex -3.02087 28.7417 67
      vertex 3.02087 28.7417 67
    endloop
  endfacet
  facet normal -0.207912 0.978148 0
    outer loop
      vertex -8.93059 27.4855 61.6
      vertex -8.93059 27.4855 67
      vertex -3.02087 28.7417 61.6
    endloop
  endfacet
  facet normal -0.207912 0.978148 0
    outer loop
      vertex -3.02087 28.7417 61.6
      vertex -8.93059 27.4855 67
      vertex -3.02087 28.7417 67
    endloop
  endfacet
  facet normal -0.406737 0.913545 0
    outer loop
      vertex -14.45 25.0281 61.6
      vertex -14.45 25.0281 67
      vertex -8.93059 27.4855 61.6
    endloop
  endfacet
  facet normal -0.406737 0.913545 0
    outer loop
      vertex -8.93059 27.4855 61.6
      vertex -14.45 25.0281 67
      vertex -8.93059 27.4855 67
    endloop
  endfacet
  facet normal -0.587785 0.809017 0
    outer loop
      vertex -19.3379 21.4769 61.6
      vertex -19.3379 21.4769 67
      vertex -14.45 25.0281 61.6
    endloop
  endfacet
  facet normal -0.587785 0.809017 0
    outer loop
      vertex -14.45 25.0281 61.6
      vertex -19.3379 21.4769 67
      vertex -14.45 25.0281 67
    endloop
  endfacet
  facet normal -0.743145 0.669131 0
    outer loop
      vertex -23.3806 16.987 61.6
      vertex -23.3806 16.987 67
      vertex -19.3379 21.4769 61.6
    endloop
  endfacet
  facet normal -0.743145 0.669131 0
    outer loop
      vertex -19.3379 21.4769 61.6
      vertex -23.3806 16.987 67
      vertex -19.3379 21.4769 67
    endloop
  endfacet
  facet normal -0.866025 0.5 0
    outer loop
      vertex -26.4015 11.7547 61.6
      vertex -26.4015 11.7547 67
      vertex -23.3806 16.987 61.6
    endloop
  endfacet
  facet normal -0.866025 0.5 0
    outer loop
      vertex -23.3806 16.987 61.6
      vertex -26.4015 11.7547 67
      vertex -23.3806 16.987 67
    endloop
  endfacet
  facet normal -0.951057 0.309017 0
    outer loop
      vertex -28.2685 6.00865 61.6
      vertex -28.2685 6.00865 67
      vertex -26.4015 11.7547 61.6
    endloop
  endfacet
  facet normal -0.951057 0.309017 0
    outer loop
      vertex -26.4015 11.7547 61.6
      vertex -28.2685 6.00865 67
      vertex -26.4015 11.7547 67
    endloop
  endfacet
  facet normal 0 0 -1
    outer loop
      vertex -28.9 0 0
      vertex -28.2685 6.00865 0
      vertex -28.2685 -6.00865 0
    endloop
  endfacet
  facet normal 0 0 -1
    outer loop
      vertex -28.2685 -6.00865 0
      vertex -28.2685 6.00865 0
      vertex -26.4015 11.7547 0
    endloop
  endfacet
  facet normal 0 0 -1
    outer loop
      vertex -28.2685 -6.00865 0
      vertex -26.4015 11.7547 0
      vertex -23.3806 16.987 0
    endloop
  endfacet
  facet normal 0 0 -1
    outer loop
      vertex -28.2685 -6.00865 0
      vertex -23.3806 16.987 0
      vertex -19.3379 21.4769 0
    endloop
  endfacet
  facet normal 0 0 -1
    outer loop
      vertex -28.2685 -6.00865 0
      vertex -19.3379 21.4769 0
      vertex -14.45 25.0281 0
    endloop
  endfacet
  facet normal 0 0 -1
    outer loop
      vertex -18 12.5 0
      vertex -14.45 25.0281 0
      vertex -8.93059 27.4855 0
    endloop
  endfacet
  facet normal 0 0 -1
    outer loop
      vertex 18 12.5 0
      vertex 23.3806 16.987 0
      vertex 26.4015 11.7547 0
    endloop
  endfacet
  facet normal 0 0 -1
    outer loop
      vertex 18 -12.5 0
      vertex 26.4015 -11.7547 0
      vertex 23.3806 -16.987 0
    endloop
  endfacet
  facet normal 0 0 -1
    outer loop
      vertex 18 -12.5 0
      vertex 8.93059 -27.4855 0
      vertex -18 -12.5 0
    endloop
  endfacet
  facet normal 0 0 -1
    outer loop
      vertex 18 -12.5 0
      vertex 14.45 -25.0281 0
      vertex 8.93059 -27.4855 0
    endloop
  endfacet
  facet normal 0 0 -1
    outer loop
      vertex 18 -12.5 0
      vertex 19.3379 -21.4769 0
      vertex 14.45 -25.0281 0
    endloop
  endfacet
  facet normal 0 0 -1
    outer loop
      vertex -18 -12.5 0
      vertex 8.93059 -27.4855 0
      vertex 3.02087 -28.7417 0
    endloop
  endfacet
  facet normal 0 0 -1
    outer loop
      vertex -28.2685 -6.00865 0
      vertex 3.02087 -28.7417 0
      vertex -3.02087 -28.7417 0
    endloop
  endfacet
  facet normal 0 0 -1
    outer loop
      vertex -28.2685 -6.00865 0
      vertex -3.02087 -28.7417 0
      vertex -8.93059 -27.4855 0
    endloop
  endfacet
  facet normal 0 0 -1
    outer loop
      vertex -28.2685 -6.00865 0
      vertex -8.93059 -27.4855 0
      vertex -14.45 -25.0281 0
    endloop
  endfacet
  facet normal 0 0 -1
    outer loop
      vertex -28.2685 -6.00865 0
      vertex -14.45 -25.0281 0
      vertex -19.3379 -21.4769 0
    endloop
  endfacet
  facet normal 0 0 -1
    outer loop
      vertex -28.2685 -6.00865 0
      vertex -19.3379 -21.4769 0
      vertex -23.3806 -16.987 0
    endloop
  endfacet
  facet normal 0 0 -1
    outer loop
      vertex -28.2685 -6.00865 0
      vertex -23.3806 -16.987 0
      vertex -26.4015 -11.7547 0
    endloop
  endfacet
  facet normal 0 0 -1
    outer loop
      vertex -28.2685 -6.00865 0
      vertex -14.45 25.0281 0
      vertex -18 12.5 0
    endloop
  endfacet
  facet normal 0 0 -1
    outer loop
      vertex -18 -12.5 0
      vertex -28.2685 -6.00865 0
      vertex -18 12.5 0
    endloop
  endfacet
  facet normal 0 0 -1
    outer loop
      vertex 18 -12.5 0
      vertex 23.3806 -16.987 0
      vertex 19.3379 -21.4769 0
    endloop
  endfacet
  facet normal 0 0 -1
    outer loop
      vertex -28.2685 -6.00865 0
      vertex -18 -12.5 0
      vertex 3.02087 -28.7417 0
    endloop
  endfacet
  facet normal 0 0 -1
    outer loop
      vertex 18 12.5 0
      vertex 26.4015 11.7547 0
      vertex 28.2685 6.00865 0
    endloop
  endfacet
  facet normal 0 0 -1
    outer loop
      vertex -18 12.5 0
      vertex -8.93059 27.4855 0
      vertex -3.02087 28.7417 0
    endloop
  endfacet
  facet normal 0 0 -1
    outer loop
      vertex -18 12.5 0
      vertex -3.02087 28.7417 0
      vertex 3.02087 28.7417 0
    endloop
  endfacet
  facet normal 0 0 -1
    outer loop
      vertex -18 12.5 0
      vertex 3.02087 28.7417 0
      vertex 8.93059 27.4855 0
    endloop
  endfacet
  facet normal 0 0 -1
    outer loop
      vertex -18 12.5 0
      vertex 8.93059 27.4855 0
      vertex 14.45 25.0281 0
    endloop
  endfacet
  facet normal 0 0 -1
    outer loop
      vertex -18 12.5 0
      vertex 14.45 25.0281 0
      vertex 19.3379 21.4769 0
    endloop
  endfacet
  facet normal 0 0 -1
    outer loop
      vertex -18 12.5 0
      vertex 19.3379 21.4769 0
      vertex 23.3806 16.987 0
    endloop
  endfacet
  facet normal 0 0 -1
    outer loop
      vertex -18 12.5 0
      vertex 23.3806 16.987 0
      vertex 18 12.5 0
    endloop
  endfacet
  facet normal 0 0 -1
    outer loop
      vertex 18 12.5 0
      vertex 28.2685 6.00865 0
      vertex 28.9 0 0
    endloop
  endfacet
  facet normal 0 0 -1
    outer loop
      vertex 18 12.5 0
      vertex 28.9 0 0
      vertex 28.2685 -6.00865 0
    endloop
  endfacet
  facet normal 0 0 -1
    outer loop
      vertex 18 12.5 0
      vertex 28.2685 -6.00865 0
      vertex 26.4015 -11.7547 0
    endloop
  endfacet
  facet normal 0 0 -1
    outer loop
      vertex 18 12.5 0
      vertex 26.4015 -11.7547 0
      vertex 18 -12.5 0
    endloop
  endfacet
  facet normal 1 0 0
    outer loop
      vertex -23 17.4097 2.1
      vertex -23 17.4097 4.1
      vertex -23 13.867 4.1
    endloop
  endfacet
  facet normal 1 0 0
    outer loop
      vertex -23 -13.867 4
      vertex -23 17.4097 2.1
      vertex -23 13.867 4
    endloop
  endfacet
  facet normal 1 0 0
    outer loop
      vertex -23 13.867 4
      vertex -23 17.4097 2.1
      vertex -23 13.867 4.1
    endloop
  endfacet
  facet normal 1 0 0
    outer loop
      vertex -23 -17.4097 4.1
      vertex -23 17.4097 2.1
      vertex -23 -13.867 4
    endloop
  endfacet
  facet normal 1 0 0
    outer loop
      vertex -23 -17.4097 4.1
      vertex -23 -13.867 4
      vertex -23 -13.867 4.1
    endloop
  endfacet
  facet normal 1 0 0
    outer loop
      vertex -23 -17.4097 2.1
      vertex -23 17.4097 2.1
      vertex -23 -17.4097 4.1
    endloop
  endfacet
  facet normal 0 0 -1
    outer loop
      vertex -22.9187 17.5 4.1
      vertex -20.376 17.5 4.1
      vertex -23 17.4097 4.1
    endloop
  endfacet
  facet normal 0 0 -1
    outer loop
      vertex -23 17.4097 4.1
      vertex -20.376 17.5 4.1
      vertex -21.8435 15.8702 4.1
    endloop
  endfacet
  facet normal 0 0 -1
    outer loop
      vertex -23 17.4097 4.1
      vertex -21.8435 15.8702 4.1
      vertex -23 13.867 4.1
    endloop
  endfacet
  facet normal 0 -1 0
    outer loop
      vertex 22.9187 17.5 2.1
      vertex 22.9187 17.5 4.1
      vertex 20.376 17.5 4.1
    endloop
  endfacet
  facet normal 0 -1 0
    outer loop
      vertex -20.376 17.5 4
      vertex 22.9187 17.5 2.1
      vertex 20.376 17.5 4
    endloop
  endfacet
  facet normal 0 -1 0
    outer loop
      vertex 20.376 17.5 4
      vertex 22.9187 17.5 2.1
      vertex 20.376 17.5 4.1
    endloop
  endfacet
  facet normal 0 -1 0
    outer loop
      vertex -22.9187 17.5 4.1
      vertex 22.9187 17.5 2.1
      vertex -20.376 17.5 4
    endloop
  endfacet
  facet normal 0 -1 0
    outer loop
      vertex -22.9187 17.5 4.1
      vertex -20.376 17.5 4
      vertex -20.376 17.5 4.1
    endloop
  endfacet
  facet normal 0 -1 0
    outer loop
      vertex -22.9187 17.5 2.1
      vertex 22.9187 17.5 2.1
      vertex -22.9187 17.5 4.1
    endloop
  endfacet
  facet normal 0 0 1
    outer loop
      vertex -22.9187 -17.5 2.1
      vertex 22.9187 -17.5 2.1
      vertex 23 -17.4097 2.1
    endloop
  endfacet
  facet normal 0 0 1
    outer loop
      vertex 18 -12.5 2.1
      vertex -18 -12.5 2.1
      vertex -22.9187 -17.5 2.1
    endloop
  endfacet
  facet normal 0 0 1
    outer loop
      vertex 18 -12.5 2.1
      vertex -22.9187 -17.5 2.1
      vertex 23 -17.4097 2.1
    endloop
  endfacet
  facet normal 0 0 1
    outer loop
      vertex -23 17.4097 2.1
      vertex -22.9187 -17.5 2.1
      vertex -22.9187 17.5 2.1
    endloop
  endfacet
  facet normal 0 0 1
    outer loop
      vertex -23 -17.4097 2.1
      vertex -22.9187 -17.5 2.1
      vertex -23 17.4097 2.1
    endloop
  endfacet
  facet normal 0 0 1
    outer loop
      vertex -22.9187 17.5 2.1
      vertex -18 12.5 2.1
      vertex 22.9187 17.5 2.1
    endloop
  endfacet
  facet normal 0 0 1
    outer loop
      vertex -22.9187 17.5 2.1
      vertex -22.9187 -17.5 2.1
      vertex -18 12.5 2.1
    endloop
  endfacet
  facet normal 0 0 1
    outer loop
      vertex 23 17.4097 2.1
      vertex 18 12.5 2.1
      vertex 23 -17.4097 2.1
    endloop
  endfacet
  facet normal 0 0 1
    outer loop
      vertex 18 12.5 2.1
      vertex 18 -12.5 2.1
      vertex 23 -17.4097 2.1
    endloop
  endfacet
  facet normal 0 0 1
    outer loop
      vertex -18 12.5 2.1
      vertex -22.9187 -17.5 2.1
      vertex -18 -12.5 2.1
    endloop
  endfacet
  facet normal 0 0 1
    outer loop
      vertex -18 12.5 2.1
      vertex 23 17.4097 2.1
      vertex 22.9187 17.5 2.1
    endloop
  endfacet
  facet normal 0 0 1
    outer loop
      vertex -18 12.5 2.1
      vertex 18 12.5 2.1
      vertex 23 17.4097 2.1
    endloop
  endfacet
  facet normal 0 0 -1
    outer loop
      vertex 23 17.4097 4.1
      vertex 23 13.867 4.1
      vertex 22.9187 17.5 4.1
    endloop
  endfacet
  facet normal 0 0 -1
    outer loop
      vertex 22.9187 17.5 4.1
      vertex 23 13.867 4.1
      vertex 21.8435 15.8702 4.1
    endloop
  endfacet
  facet normal 0 0 -1
    outer loop
      vertex 22.9187 17.5 4.1
      vertex 21.8435 15.8702 4.1
      vertex 20.376 17.5 4.1
    endloop
  endfacet
  facet normal -1 0 0
    outer loop
      vertex 23 -13.867 4.1
      vertex 23 -13.867 4
      vertex 23 -17.4097 4.1
    endloop
  endfacet
  facet normal -1 0 0
    outer loop
      vertex 23 -17.4097 4.1
      vertex 23 -13.867 4
      vertex 23 17.4097 2.1
    endloop
  endfacet
  facet normal -1 0 0
    outer loop
      vertex 23 17.4097 4.1
      vertex 23 13.867 4
      vertex 23 13.867 4.1
    endloop
  endfacet
  facet normal -1 0 0
    outer loop
      vertex 23 17.4097 2.1
      vertex 23 13.867 4
      vertex 23 17.4097 4.1
    endloop
  endfacet
  facet normal -1 0 0
    outer loop
      vertex 23 -13.867 4
      vertex 23 13.867 4
      vertex 23 17.4097 2.1
    endloop
  endfacet
  facet normal -1 0 0
    outer loop
      vertex 23 -17.4097 4.1
      vertex 23 17.4097 2.1
      vertex 23 -17.4097 2.1
    endloop
  endfacet
  facet normal 0 1 0
    outer loop
      vertex -20.376 -17.5 4.1
      vertex -20.376 -17.5 4
      vertex -22.9187 -17.5 4.1
    endloop
  endfacet
  facet normal 0 1 0
    outer loop
      vertex -22.9187 -17.5 4.1
      vertex -20.376 -17.5 4
      vertex 22.9187 -17.5 2.1
    endloop
  endfacet
  facet normal 0 1 0
    outer loop
      vertex 22.9187 -17.5 4.1
      vertex 20.376 -17.5 4
      vertex 20.376 -17.5 4.1
    endloop
  endfacet
  facet normal 0 1 0
    outer loop
      vertex 22.9187 -17.5 2.1
      vertex 20.376 -17.5 4
      vertex 22.9187 -17.5 4.1
    endloop
  endfacet
  facet normal 0 1 0
    outer loop
      vertex -20.376 -17.5 4
      vertex 20.376 -17.5 4
      vertex 22.9187 -17.5 2.1
    endloop
  endfacet
  facet normal 0 1 0
    outer loop
      vertex -22.9187 -17.5 4.1
      vertex 22.9187 -17.5 2.1
      vertex -22.9187 -17.5 2.1
    endloop
  endfacet
  facet normal 0 0 -1
    outer loop
      vertex 23 -13.867 4.1
      vertex 23 -17.4097 4.1
      vertex 21.8435 -15.8702 4.1
    endloop
  endfacet
  facet normal 0 0 -1
    outer loop
      vertex 21.8435 -15.8702 4.1
      vertex 23 -17.4097 4.1
      vertex 22.9187 -17.5 4.1
    endloop
  endfacet
  facet normal 0 0 -1
    outer loop
      vertex 21.8435 -15.8702 4.1
      vertex 22.9187 -17.5 4.1
      vertex 20.376 -17.5 4.1
    endloop
  endfacet
  facet normal 0 0 -1
    outer loop
      vertex -21.8435 -15.8702 4.1
      vertex -20.376 -17.5 4.1
      vertex -22.9187 -17.5 4.1
    endloop
  endfacet
  facet normal 0 0 -1
    outer loop
      vertex -21.8435 -15.8702 4.1
      vertex -22.9187 -17.5 4.1
      vertex -23 -13.867 4.1
    endloop
  endfacet
  facet normal 0 0 -1
    outer loop
      vertex -22.9187 -17.5 4.1
      vertex -23 -17.4097 4.1
      vertex -23 -13.867 4.1
    endloop
  endfacet
  facet normal 0 0 1
    outer loop
      vertex -28.2685 6.00865 67
      vertex -28.9 0 67
      vertex -28.2685 -6.00865 67
    endloop
  endfacet
  facet normal 0 0 1
    outer loop
      vertex -26.41 -5.61362 67
      vertex -28.2685 6.00865 67
      vertex -26.4015 -11.7547 67
    endloop
  endfacet
  facet normal 0 0 1
    outer loop
      vertex -26.4015 -11.7547 67
      vertex -28.2685 6.00865 67
      vertex -28.2685 -6.00865 67
    endloop
  endfacet
  facet normal 0 0 1
    outer loop
      vertex -26.41 5.61362 67
      vertex -24.6657 10.9819 67
      vertex -28.2685 6.00865 67
    endloop
  endfacet
  facet normal 0 0 1
    outer loop
      vertex -21.8435 -15.8702 67
      vertex -24.6657 -10.9819 67
      vertex -23.3806 -16.987 67
    endloop
  endfacet
  facet normal 0 0 1
    outer loop
      vertex 24.6657 10.9819 67
      vertex 26.41 5.61362 67
      vertex 28.2685 6.00865 67
    endloop
  endfacet
  facet normal 0 0 1
    outer loop
      vertex 21.8435 15.8702 67
      vertex 24.6657 10.9819 67
      vertex 26.4015 11.7547 67
    endloop
  endfacet
  facet normal 0 0 1
    outer loop
      vertex 18.0665 20.0649 67
      vertex 21.8435 15.8702 67
      vertex 23.3806 16.987 67
    endloop
  endfacet
  facet normal 0 0 1
    outer loop
      vertex 13.5 23.3827 67
      vertex 18.0665 20.0649 67
      vertex 19.3379 21.4769 67
    endloop
  endfacet
  facet normal 0 0 1
    outer loop
      vertex 8.34346 25.6785 67
      vertex 13.5 23.3827 67
      vertex 14.45 25.0281 67
    endloop
  endfacet
  facet normal 0 0 1
    outer loop
      vertex 2.82227 26.8521 67
      vertex 8.34346 25.6785 67
      vertex 8.93059 27.4855 67
    endloop
  endfacet
  facet normal 0 0 1
    outer loop
      vertex -2.82227 26.8521 67
      vertex 2.82227 26.8521 67
      vertex 3.02087 28.7417 67
    endloop
  endfacet
  facet normal 0 0 1
    outer loop
      vertex 26.41 5.61362 67
      vertex 27 0 67
      vertex 28.9 0 67
    endloop
  endfacet
  facet normal 0 0 1
    outer loop
      vertex -23.3806 16.987 67
      vertex -28.2685 6.00865 67
      vertex -19.3379 21.4769 67
    endloop
  endfacet
  facet normal 0 0 1
    outer loop
      vertex -26.4015 11.7547 67
      vertex -28.2685 6.00865 67
      vertex -23.3806 16.987 67
    endloop
  endfacet
  facet normal 0 0 1
    outer loop
      vertex -23.3806 -16.987 67
      vertex -26.41 -5.61362 67
      vertex -26.4015 -11.7547 67
    endloop
  endfacet
  facet normal 0 0 1
    outer loop
      vertex -27 0 67
      vertex -28.2685 6.00865 67
      vertex -26.41 -5.61362 67
    endloop
  endfacet
  facet normal 0 0 1
    outer loop
      vertex 24.6657 -10.9819 67
      vertex 21.8435 -15.8702 67
      vertex 26.4015 -11.7547 67
    endloop
  endfacet
  facet normal 0 0 1
    outer loop
      vertex -13.5 23.3827 67
      vertex -8.34346 25.6785 67
      vertex -8.93059 27.4855 67
    endloop
  endfacet
  facet normal 0 0 1
    outer loop
      vertex -19.3379 21.4769 67
      vertex -28.2685 6.00865 67
      vertex -24.6657 10.9819 67
    endloop
  endfacet
  facet normal 0 0 1
    outer loop
      vertex -19.3379 21.4769 67
      vertex -21.8435 15.8702 67
      vertex -14.45 25.0281 67
    endloop
  endfacet
  facet normal 0 0 1
    outer loop
      vertex -19.3379 21.4769 67
      vertex -24.6657 10.9819 67
      vertex -21.8435 15.8702 67
    endloop
  endfacet
  facet normal 0 0 1
    outer loop
      vertex -21.8435 15.8702 67
      vertex -18.0665 20.0649 67
      vertex -14.45 25.0281 67
    endloop
  endfacet
  facet normal 0 0 1
    outer loop
      vertex -14.45 25.0281 67
      vertex -13.5 23.3827 67
      vertex -8.93059 27.4855 67
    endloop
  endfacet
  facet normal 0 0 1
    outer loop
      vertex -18.0665 20.0649 67
      vertex -13.5 23.3827 67
      vertex -14.45 25.0281 67
    endloop
  endfacet
  facet normal 0 0 1
    outer loop
      vertex -8.93059 27.4855 67
      vertex -8.34346 25.6785 67
      vertex -3.02087 28.7417 67
    endloop
  endfacet
  facet normal 0 0 1
    outer loop
      vertex -3.02087 28.7417 67
      vertex -2.82227 26.8521 67
      vertex 3.02087 28.7417 67
    endloop
  endfacet
  facet normal 0 0 1
    outer loop
      vertex 3.02087 28.7417 67
      vertex 2.82227 26.8521 67
      vertex 8.93059 27.4855 67
    endloop
  endfacet
  facet normal 0 0 1
    outer loop
      vertex 8.93059 27.4855 67
      vertex 8.34346 25.6785 67
      vertex 14.45 25.0281 67
    endloop
  endfacet
  facet normal 0 0 1
    outer loop
      vertex 14.45 25.0281 67
      vertex 13.5 23.3827 67
      vertex 19.3379 21.4769 67
    endloop
  endfacet
  facet normal 0 0 1
    outer loop
      vertex 19.3379 21.4769 67
      vertex 18.0665 20.0649 67
      vertex 23.3806 16.987 67
    endloop
  endfacet
  facet normal 0 0 1
    outer loop
      vertex 23.3806 16.987 67
      vertex 21.8435 15.8702 67
      vertex 26.4015 11.7547 67
    endloop
  endfacet
  facet normal 0 0 1
    outer loop
      vertex 26.4015 11.7547 67
      vertex 24.6657 10.9819 67
      vertex 28.2685 6.00865 67
    endloop
  endfacet
  facet normal 0 0 1
    outer loop
      vertex 28.2685 6.00865 67
      vertex 26.41 5.61362 67
      vertex 28.9 0 67
    endloop
  endfacet
  facet normal 0 0 1
    outer loop
      vertex 28.9 0 67
      vertex 27 0 67
      vertex 28.2685 -6.00865 67
    endloop
  endfacet
  facet normal 0 0 1
    outer loop
      vertex 28.2685 -6.00865 67
      vertex 26.41 -5.61362 67
      vertex 26.4015 -11.7547 67
    endloop
  endfacet
  facet normal 0 0 1
    outer loop
      vertex -8.34346 25.6785 67
      vertex -2.82227 26.8521 67
      vertex -3.02087 28.7417 67
    endloop
  endfacet
  facet normal 0 0 1
    outer loop
      vertex 26.41 -5.61362 67
      vertex 24.6657 -10.9819 67
      vertex 26.4015 -11.7547 67
    endloop
  endfacet
  facet normal 0 0 1
    outer loop
      vertex 26.4015 -11.7547 67
      vertex 21.8435 -15.8702 67
      vertex 23.3806 -16.987 67
    endloop
  endfacet
  facet normal 0 0 1
    outer loop
      vertex 23.3806 -16.987 67
      vertex 18.0665 -20.0649 67
      vertex 19.3379 -21.4769 67
    endloop
  endfacet
  facet normal 0 0 1
    outer loop
      vertex 19.3379 -21.4769 67
      vertex 13.5 -23.3827 67
      vertex 14.45 -25.0281 67
    endloop
  endfacet
  facet normal 0 0 1
    outer loop
      vertex 14.45 -25.0281 67
      vertex 8.34346 -25.6785 67
      vertex 8.93059 -27.4855 67
    endloop
  endfacet
  facet normal 0 0 1
    outer loop
      vertex 8.93059 -27.4855 67
      vertex 2.82227 -26.8521 67
      vertex 3.02087 -28.7417 67
    endloop
  endfacet
  facet normal 0 0 1
    outer loop
      vertex 3.02087 -28.7417 67
      vertex -2.82227 -26.8521 67
      vertex -3.02087 -28.7417 67
    endloop
  endfacet
  facet normal 0 0 1
    outer loop
      vertex -3.02087 -28.7417 67
      vertex -8.34346 -25.6785 67
      vertex -8.93059 -27.4855 67
    endloop
  endfacet
  facet normal 0 0 1
    outer loop
      vertex -8.93059 -27.4855 67
      vertex -13.5 -23.3827 67
      vertex -14.45 -25.0281 67
    endloop
  endfacet
  facet normal 0 0 1
    outer loop
      vertex -14.45 -25.0281 67
      vertex -18.0665 -20.0649 67
      vertex -19.3379 -21.4769 67
    endloop
  endfacet
  facet normal 0 0 1
    outer loop
      vertex 27 0 67
      vertex 26.41 -5.61362 67
      vertex 28.2685 -6.00865 67
    endloop
  endfacet
  facet normal 0 0 1
    outer loop
      vertex -19.3379 -21.4769 67
      vertex -21.8435 -15.8702 67
      vertex -23.3806 -16.987 67
    endloop
  endfacet
  facet normal 0 0 1
    outer loop
      vertex -23.3806 -16.987 67
      vertex -24.6657 -10.9819 67
      vertex -26.41 -5.61362 67
    endloop
  endfacet
  facet normal 0 0 1
    outer loop
      vertex 21.8435 -15.8702 67
      vertex 18.0665 -20.0649 67
      vertex 23.3806 -16.987 67
    endloop
  endfacet
  facet normal 0 0 1
    outer loop
      vertex 18.0665 -20.0649 67
      vertex 13.5 -23.3827 67
      vertex 19.3379 -21.4769 67
    endloop
  endfacet
  facet normal 0 0 1
    outer loop
      vertex 13.5 -23.3827 67
      vertex 8.34346 -25.6785 67
      vertex 14.45 -25.0281 67
    endloop
  endfacet
  facet normal 0 0 1
    outer loop
      vertex 8.34346 -25.6785 67
      vertex 2.82227 -26.8521 67
      vertex 8.93059 -27.4855 67
    endloop
  endfacet
  facet normal 0 0 1
    outer loop
      vertex 2.82227 -26.8521 67
      vertex -2.82227 -26.8521 67
      vertex 3.02087 -28.7417 67
    endloop
  endfacet
  facet normal 0 0 1
    outer loop
      vertex -2.82227 -26.8521 67
      vertex -8.34346 -25.6785 67
      vertex -3.02087 -28.7417 67
    endloop
  endfacet
  facet normal 0 0 1
    outer loop
      vertex -8.34346 -25.6785 67
      vertex -13.5 -23.3827 67
      vertex -8.93059 -27.4855 67
    endloop
  endfacet
  facet normal 0 0 1
    outer loop
      vertex -13.5 -23.3827 67
      vertex -18.0665 -20.0649 67
      vertex -14.45 -25.0281 67
    endloop
  endfacet
  facet normal 0 0 1
    outer loop
      vertex -18.0665 -20.0649 67
      vertex -21.8435 -15.8702 67
      vertex -19.3379 -21.4769 67
    endloop
  endfacet
  facet normal 0 0 1
    outer loop
      vertex -27 0 67
      vertex -26.41 5.61362 67
      vertex -28.2685 6.00865 67
    endloop
  endfacet
  facet normal 1 0 0
    outer loop
      vertex -18 12.5 0
      vertex -18 12.5 2.1
      vertex -18 -12.5 2.1
    endloop
  endfacet
  facet normal 1 0 0
    outer loop
      vertex -18 -12.5 0
      vertex -18 12.5 0
      vertex -18 -12.5 2.1
    endloop
  endfacet
  facet normal 0 -1 0
    outer loop
      vertex 18 12.5 0
      vertex 18 12.5 2.1
      vertex -18 12.5 2.1
    endloop
  endfacet
  facet normal 0 -1 0
    outer loop
      vertex -18 12.5 0
      vertex 18 12.5 0
      vertex -18 12.5 2.1
    endloop
  endfacet
  facet normal -1 0 0
    outer loop
      vertex 18 12.5 2.1
      vertex 18 12.5 0
      vertex 18 -12.5 2.1
    endloop
  endfacet
  facet normal -1 0 0
    outer loop
      vertex 18 -12.5 2.1
      vertex 18 12.5 0
      vertex 18 -12.5 0
    endloop
  endfacet
  facet normal 0 1 0
    outer loop
      vertex 18 -12.5 2.1
      vertex 18 -12.5 0
      vertex -18 -12.5 2.1
    endloop
  endfacet
  facet normal 0 1 0
    outer loop
      vertex -18 -12.5 2.1
      vertex 18 -12.5 0
      vertex -18 -12.5 0
    endloop
  endfacet
  facet normal 0.866025 0.5 0
    outer loop
      vertex -24.6657 -10.9819 67
      vertex -21.8435 -15.8702 67
      vertex -21.8435 -15.8702 4.1
    endloop
  endfacet
  facet normal 0.866025 0.5 0
    outer loop
      vertex -23 -13.867 4
      vertex -24.6657 -10.9819 67
      vertex -23 -13.867 4.1
    endloop
  endfacet
  facet normal 0.866025 0.5 0
    outer loop
      vertex -23 -13.867 4.1
      vertex -24.6657 -10.9819 67
      vertex -21.8435 -15.8702 4.1
    endloop
  endfacet
  facet normal 0.866025 0.5 0
    outer loop
      vertex -24.6657 -10.9819 4
      vertex -24.6657 -10.9819 67
      vertex -23 -13.867 4
    endloop
  endfacet
  facet normal 0 0 1
    outer loop
      vertex -26.41 -5.61362 4
      vertex -24.6657 -10.9819 4
      vertex -23 -13.867 4
    endloop
  endfacet
  facet normal 0 0 1
    outer loop
      vertex -24.6657 10.9819 4
      vertex -26.41 -5.61362 4
      vertex -23 13.867 4
    endloop
  endfacet
  facet normal 0 0 1
    outer loop
      vertex -23 13.867 4
      vertex -26.41 -5.61362 4
      vertex -23 -13.867 4
    endloop
  endfacet
  facet normal 0 0 1
    outer loop
      vertex -26.41 5.61362 4
      vertex -26.41 -5.61362 4
      vertex -24.6657 10.9819 4
    endloop
  endfacet
  facet normal 0 0 1
    outer loop
      vertex -27 0 4
      vertex -26.41 -5.61362 4
      vertex -26.41 5.61362 4
    endloop
  endfacet
  facet normal 0.866025 -0.5 0
    outer loop
      vertex -21.8435 15.8702 67
      vertex -23 13.867 4.1
      vertex -21.8435 15.8702 4.1
    endloop
  endfacet
  facet normal 0.866025 -0.5 0
    outer loop
      vertex -24.6657 10.9819 67
      vertex -23 13.867 4.1
      vertex -21.8435 15.8702 67
    endloop
  endfacet
  facet normal 0.866025 -0.5 0
    outer loop
      vertex -23 13.867 4
      vertex -23 13.867 4.1
      vertex -24.6657 10.9819 67
    endloop
  endfacet
  facet normal 0.866025 -0.5 0
    outer loop
      vertex -24.6657 10.9819 4
      vertex -23 13.867 4
      vertex -24.6657 10.9819 67
    endloop
  endfacet
  facet normal 0.743145 -0.669131 0
    outer loop
      vertex -20.376 17.5 4.1
      vertex -20.376 17.5 4
      vertex -18.0665 20.0649 4
    endloop
  endfacet
  facet normal 0.743145 -0.669131 0
    outer loop
      vertex -21.8435 15.8702 67
      vertex -20.376 17.5 4.1
      vertex -18.0665 20.0649 67
    endloop
  endfacet
  facet normal 0.743145 -0.669131 0
    outer loop
      vertex -18.0665 20.0649 67
      vertex -20.376 17.5 4.1
      vertex -18.0665 20.0649 4
    endloop
  endfacet
  facet normal 0.743145 -0.669131 0
    outer loop
      vertex -21.8435 15.8702 4.1
      vertex -20.376 17.5 4.1
      vertex -21.8435 15.8702 67
    endloop
  endfacet
  facet normal 0 0 1
    outer loop
      vertex 20.376 17.5 4
      vertex 18.0665 20.0649 4
      vertex 13.5 23.3827 4
    endloop
  endfacet
  facet normal 0 0 1
    outer loop
      vertex 2.82227 26.8521 4
      vertex 20.376 17.5 4
      vertex 8.34346 25.6785 4
    endloop
  endfacet
  facet normal 0 0 1
    outer loop
      vertex 8.34346 25.6785 4
      vertex 20.376 17.5 4
      vertex 13.5 23.3827 4
    endloop
  endfacet
  facet normal 0 0 1
    outer loop
      vertex -2.82227 26.8521 4
      vertex 20.376 17.5 4
      vertex 2.82227 26.8521 4
    endloop
  endfacet
  facet normal 0 0 1
    outer loop
      vertex -8.34346 25.6785 4
      vertex 20.376 17.5 4
      vertex -2.82227 26.8521 4
    endloop
  endfacet
  facet normal 0 0 1
    outer loop
      vertex -13.5 23.3827 4
      vertex 20.376 17.5 4
      vertex -8.34346 25.6785 4
    endloop
  endfacet
  facet normal 0 0 1
    outer loop
      vertex -18.0665 20.0649 4
      vertex 20.376 17.5 4
      vertex -13.5 23.3827 4
    endloop
  endfacet
  facet normal 0 0 1
    outer loop
      vertex -20.376 17.5 4
      vertex 20.376 17.5 4
      vertex -18.0665 20.0649 4
    endloop
  endfacet
  facet normal -0.743145 -0.669131 0
    outer loop
      vertex 20.376 17.5 4.1
      vertex 21.8435 15.8702 4.1
      vertex 21.8435 15.8702 67
    endloop
  endfacet
  facet normal -0.743145 -0.669131 0
    outer loop
      vertex 20.376 17.5 4.1
      vertex 21.8435 15.8702 67
      vertex 18.0665 20.0649 67
    endloop
  endfacet
  facet normal -0.743145 -0.669131 0
    outer loop
      vertex 20.376 17.5 4.1
      vertex 18.0665 20.0649 67
      vertex 20.376 17.5 4
    endloop
  endfacet
  facet normal -0.743145 -0.669131 0
    outer loop
      vertex 18.0665 20.0649 67
      vertex 18.0665 20.0649 4
      vertex 20.376 17.5 4
    endloop
  endfacet
  facet normal -0.866025 -0.5 0
    outer loop
      vertex 23 13.867 4
      vertex 24.6657 10.9819 4
      vertex 23 13.867 4.1
    endloop
  endfacet
  facet normal -0.866025 -0.5 0
    outer loop
      vertex 23 13.867 4.1
      vertex 24.6657 10.9819 4
      vertex 24.6657 10.9819 67
    endloop
  endfacet
  facet normal -0.866025 -0.5 0
    outer loop
      vertex 23 13.867 4.1
      vertex 24.6657 10.9819 67
      vertex 21.8435 15.8702 67
    endloop
  endfacet
  facet normal -0.866025 -0.5 0
    outer loop
      vertex 23 13.867 4.1
      vertex 21.8435 15.8702 67
      vertex 21.8435 15.8702 4.1
    endloop
  endfacet
  facet normal 0 0 1
    outer loop
      vertex 24.6657 -10.9819 4
      vertex 26.41 -5.61362 4
      vertex 27 0 4
    endloop
  endfacet
  facet normal 0 0 1
    outer loop
      vertex 24.6657 10.9819 4
      vertex 24.6657 -10.9819 4
      vertex 26.41 5.61362 4
    endloop
  endfacet
  facet normal 0 0 1
    outer loop
      vertex 26.41 5.61362 4
      vertex 24.6657 -10.9819 4
      vertex 27 0 4
    endloop
  endfacet
  facet normal 0 0 1
    outer loop
      vertex 23 13.867 4
      vertex 24.6657 -10.9819 4
      vertex 24.6657 10.9819 4
    endloop
  endfacet
  facet normal 0 0 1
    outer loop
      vertex 23 -13.867 4
      vertex 24.6657 -10.9819 4
      vertex 23 13.867 4
    endloop
  endfacet
  facet normal -0.866025 0.5 0
    outer loop
      vertex 24.6657 -10.9819 67
      vertex 24.6657 -10.9819 4
      vertex 21.8435 -15.8702 67
    endloop
  endfacet
  facet normal -0.866025 0.5 0
    outer loop
      vertex 23 -13.867 4.1
      vertex 24.6657 -10.9819 4
      vertex 23 -13.867 4
    endloop
  endfacet
  facet normal -0.866025 0.5 0
    outer loop
      vertex 21.8435 -15.8702 67
      vertex 24.6657 -10.9819 4
      vertex 23 -13.867 4.1
    endloop
  endfacet
  facet normal -0.866025 0.5 0
    outer loop
      vertex 21.8435 -15.8702 4.1
      vertex 21.8435 -15.8702 67
      vertex 23 -13.867 4.1
    endloop
  endfacet
  facet normal -0.743145 0.669131 0
    outer loop
      vertex 21.8435 -15.8702 67
      vertex 21.8435 -15.8702 4.1
      vertex 18.0665 -20.0649 67
    endloop
  endfacet
  facet normal -0.743145 0.669131 0
    outer loop
      vertex 18.0665 -20.0649 67
      vertex 21.8435 -15.8702 4.1
      vertex 20.376 -17.5 4.1
    endloop
  endfacet
  facet normal -0.743145 0.669131 0
    outer loop
      vertex 18.0665 -20.0649 67
      vertex 20.376 -17.5 4.1
      vertex 20.376 -17.5 4
    endloop
  endfacet
  facet normal -0.743145 0.669131 0
    outer loop
      vertex 18.0665 -20.0649 67
      vertex 20.376 -17.5 4
      vertex 18.0665 -20.0649 4
    endloop
  endfacet
  facet normal 0 0 1
    outer loop
      vertex -18.0665 -20.0649 4
      vertex -13.5 -23.3827 4
      vertex -8.34346 -25.6785 4
    endloop
  endfacet
  facet normal 0 0 1
    outer loop
      vertex 2.82227 -26.8521 4
      vertex -18.0665 -20.0649 4
      vertex -2.82227 -26.8521 4
    endloop
  endfacet
  facet normal 0 0 1
    outer loop
      vertex -2.82227 -26.8521 4
      vertex -18.0665 -20.0649 4
      vertex -8.34346 -25.6785 4
    endloop
  endfacet
  facet normal 0 0 1
    outer loop
      vertex 8.34346 -25.6785 4
      vertex -18.0665 -20.0649 4
      vertex 2.82227 -26.8521 4
    endloop
  endfacet
  facet normal 0 0 1
    outer loop
      vertex 13.5 -23.3827 4
      vertex -18.0665 -20.0649 4
      vertex 8.34346 -25.6785 4
    endloop
  endfacet
  facet normal 0 0 1
    outer loop
      vertex 18.0665 -20.0649 4
      vertex -18.0665 -20.0649 4
      vertex 13.5 -23.3827 4
    endloop
  endfacet
  facet normal 0 0 1
    outer loop
      vertex 20.376 -17.5 4
      vertex -18.0665 -20.0649 4
      vertex 18.0665 -20.0649 4
    endloop
  endfacet
  facet normal 0 0 1
    outer loop
      vertex -20.376 -17.5 4
      vertex -18.0665 -20.0649 4
      vertex 20.376 -17.5 4
    endloop
  endfacet
  facet normal 0.743145 0.669131 0
    outer loop
      vertex -21.8435 -15.8702 67
      vertex -18.0665 -20.0649 67
      vertex -18.0665 -20.0649 4
    endloop
  endfacet
  facet normal 0.743145 0.669131 0
    outer loop
      vertex -20.376 -17.5 4.1
      vertex -21.8435 -15.8702 67
      vertex -18.0665 -20.0649 4
    endloop
  endfacet
  facet normal 0.743145 0.669131 0
    outer loop
      vertex -20.376 -17.5 4
      vertex -20.376 -17.5 4.1
      vertex -18.0665 -20.0649 4
    endloop
  endfacet
  facet normal 0.743145 0.669131 0
    outer loop
      vertex -20.376 -17.5 4.1
      vertex -21.8435 -15.8702 4.1
      vertex -21.8435 -15.8702 67
    endloop
  endfacet
  facet normal 0.994522 0.104528 0
    outer loop
      vertex -27 0 67
      vertex -26.41 -5.61362 67
      vertex -26.41 -5.61362 4
    endloop
  endfacet
  facet normal 0.994522 0.104528 0
    outer loop
      vertex -27 0 4
      vertex -27 0 67
      vertex -26.41 -5.61362 4
    endloop
  endfacet
  facet normal 0.951056 0.309017 0
    outer loop
      vertex -26.41 -5.61362 67
      vertex -24.6657 -10.9819 67
      vertex -24.6657 -10.9819 4
    endloop
  endfacet
  facet normal 0.951056 0.309017 0
    outer loop
      vertex -26.41 -5.61362 4
      vertex -26.41 -5.61362 67
      vertex -24.6657 -10.9819 4
    endloop
  endfacet
  facet normal 0.587785 0.809017 0
    outer loop
      vertex -13.5 -23.3827 67
      vertex -13.5 -23.3827 4
      vertex -18.0665 -20.0649 67
    endloop
  endfacet
  facet normal 0.587785 0.809017 0
    outer loop
      vertex -18.0665 -20.0649 67
      vertex -13.5 -23.3827 4
      vertex -18.0665 -20.0649 4
    endloop
  endfacet
  facet normal 0.406737 0.913545 0
    outer loop
      vertex -8.34346 -25.6785 67
      vertex -8.34346 -25.6785 4
      vertex -13.5 -23.3827 67
    endloop
  endfacet
  facet normal 0.406737 0.913545 0
    outer loop
      vertex -13.5 -23.3827 67
      vertex -8.34346 -25.6785 4
      vertex -13.5 -23.3827 4
    endloop
  endfacet
  facet normal 0.207912 0.978148 0
    outer loop
      vertex -2.82227 -26.8521 67
      vertex -2.82227 -26.8521 4
      vertex -8.34346 -25.6785 67
    endloop
  endfacet
  facet normal 0.207912 0.978148 0
    outer loop
      vertex -8.34346 -25.6785 67
      vertex -2.82227 -26.8521 4
      vertex -8.34346 -25.6785 4
    endloop
  endfacet
  facet normal 0 1 0
    outer loop
      vertex 2.82227 -26.8521 67
      vertex 2.82227 -26.8521 4
      vertex -2.82227 -26.8521 67
    endloop
  endfacet
  facet normal 0 1 0
    outer loop
      vertex -2.82227 -26.8521 67
      vertex 2.82227 -26.8521 4
      vertex -2.82227 -26.8521 4
    endloop
  endfacet
  facet normal -0.207912 0.978148 0
    outer loop
      vertex 8.34346 -25.6785 67
      vertex 8.34346 -25.6785 4
      vertex 2.82227 -26.8521 67
    endloop
  endfacet
  facet normal -0.207912 0.978148 0
    outer loop
      vertex 2.82227 -26.8521 67
      vertex 8.34346 -25.6785 4
      vertex 2.82227 -26.8521 4
    endloop
  endfacet
  facet normal -0.406737 0.913545 0
    outer loop
      vertex 13.5 -23.3827 67
      vertex 13.5 -23.3827 4
      vertex 8.34346 -25.6785 67
    endloop
  endfacet
  facet normal -0.406737 0.913545 0
    outer loop
      vertex 8.34346 -25.6785 67
      vertex 13.5 -23.3827 4
      vertex 8.34346 -25.6785 4
    endloop
  endfacet
  facet normal -0.587785 0.809017 0
    outer loop
      vertex 18.0665 -20.0649 67
      vertex 18.0665 -20.0649 4
      vertex 13.5 -23.3827 67
    endloop
  endfacet
  facet normal -0.587785 0.809017 0
    outer loop
      vertex 13.5 -23.3827 67
      vertex 18.0665 -20.0649 4
      vertex 13.5 -23.3827 4
    endloop
  endfacet
  facet normal -0.951056 0.309017 0
    outer loop
      vertex 26.41 -5.61362 67
      vertex 26.41 -5.61362 4
      vertex 24.6657 -10.9819 67
    endloop
  endfacet
  facet normal -0.951056 0.309017 0
    outer loop
      vertex 24.6657 -10.9819 67
      vertex 26.41 -5.61362 4
      vertex 24.6657 -10.9819 4
    endloop
  endfacet
  facet normal -0.994522 0.104528 0
    outer loop
      vertex 27 0 67
      vertex 27 0 4
      vertex 26.41 -5.61362 67
    endloop
  endfacet
  facet normal -0.994522 0.104528 0
    outer loop
      vertex 26.41 -5.61362 67
      vertex 27 0 4
      vertex 26.41 -5.61362 4
    endloop
  endfacet
  facet normal -0.994522 -0.104528 0
    outer loop
      vertex 27 0 67
      vertex 26.41 5.61362 67
      vertex 27 0 4
    endloop
  endfacet
  facet normal -0.994522 -0.104528 0
    outer loop
      vertex 27 0 4
      vertex 26.41 5.61362 67
      vertex 26.41 5.61362 4
    endloop
  endfacet
  facet normal -0.951056 -0.309017 0
    outer loop
      vertex 26.41 5.61362 67
      vertex 24.6657 10.9819 67
      vertex 26.41 5.61362 4
    endloop
  endfacet
  facet normal -0.951056 -0.309017 0
    outer loop
      vertex 26.41 5.61362 4
      vertex 24.6657 10.9819 67
      vertex 24.6657 10.9819 4
    endloop
  endfacet
  facet normal -0.587785 -0.809017 0
    outer loop
      vertex 18.0665 20.0649 4
      vertex 18.0665 20.0649 67
      vertex 13.5 23.3827 67
    endloop
  endfacet
  facet normal -0.587785 -0.809017 0
    outer loop
      vertex 13.5 23.3827 4
      vertex 18.0665 20.0649 4
      vertex 13.5 23.3827 67
    endloop
  endfacet
  facet normal -0.406737 -0.913545 0
    outer loop
      vertex 13.5 23.3827 4
      vertex 13.5 23.3827 67
      vertex 8.34346 25.6785 67
    endloop
  endfacet
  facet normal -0.406737 -0.913545 0
    outer loop
      vertex 8.34346 25.6785 4
      vertex 13.5 23.3827 4
      vertex 8.34346 25.6785 67
    endloop
  endfacet
  facet normal -0.207912 -0.978148 0
    outer loop
      vertex 8.34346 25.6785 4
      vertex 8.34346 25.6785 67
      vertex 2.82227 26.8521 67
    endloop
  endfacet
  facet normal -0.207912 -0.978148 0
    outer loop
      vertex 2.82227 26.8521 4
      vertex 8.34346 25.6785 4
      vertex 2.82227 26.8521 67
    endloop
  endfacet
  facet normal 0 -1 0
    outer loop
      vertex 2.82227 26.8521 4
      vertex 2.82227 26.8521 67
      vertex -2.82227 26.8521 67
    endloop
  endfacet
  facet normal 0 -1 0
    outer loop
      vertex -2.82227 26.8521 4
      vertex 2.82227 26.8521 4
      vertex -2.82227 26.8521 67
    endloop
  endfacet
  facet normal 0.207912 -0.978148 0
    outer loop
      vertex -2.82227 26.8521 4
      vertex -2.82227 26.8521 67
      vertex -8.34346 25.6785 67
    endloop
  endfacet
  facet normal 0.207912 -0.978148 0
    outer loop
      vertex -8.34346 25.6785 4
      vertex -2.82227 26.8521 4
      vertex -8.34346 25.6785 67
    endloop
  endfacet
  facet normal 0.406737 -0.913545 0
    outer loop
      vertex -8.34346 25.6785 4
      vertex -8.34346 25.6785 67
      vertex -13.5 23.3827 67
    endloop
  endfacet
  facet normal 0.406737 -0.913545 0
    outer loop
      vertex -13.5 23.3827 4
      vertex -8.34346 25.6785 4
      vertex -13.5 23.3827 67
    endloop
  endfacet
  facet normal 0.587785 -0.809017 0
    outer loop
      vertex -13.5 23.3827 4
      vertex -13.5 23.3827 67
      vertex -18.0665 20.0649 67
    endloop
  endfacet
  facet normal 0.587785 -0.809017 0
    outer loop
      vertex -18.0665 20.0649 4
      vertex -13.5 23.3827 4
      vertex -18.0665 20.0649 67
    endloop
  endfacet
  facet normal 0.951056 -0.309017 0
    outer loop
      vertex -24.6657 10.9819 4
      vertex -24.6657 10.9819 67
      vertex -26.41 5.61362 67
    endloop
  endfacet
  facet normal 0.951056 -0.309017 0
    outer loop
      vertex -26.41 5.61362 4
      vertex -24.6657 10.9819 4
      vertex -26.41 5.61362 67
    endloop
  endfacet
  facet normal 0.994522 -0.104528 0
    outer loop
      vertex -26.41 5.61362 4
      vertex -26.41 5.61362 67
      vertex -27 0 67
    endloop
  endfacet
  facet normal 0.994522 -0.104528 0
    outer loop
      vertex -27 0 4
      vertex -26.41 5.61362 4
      vertex -27 0 67
    endloop
  endfacet
endsolid OpenSCAD_Model
