solid OpenSCAD_Model
  facet normal -1 0 -2.22045e-16
    outer loop
      vertex -3.10862e-15 0 28
      vertex -3.04069e-15 2.91076 27.6941
      vertex -3.04069e-15 -2.91076 27.6941
    endloop
  endfacet
  facet normal -1 0 -2.22045e-16
    outer loop
      vertex -3.04069e-15 -2.91076 27.6941
      vertex -3.04069e-15 2.91076 27.6941
      vertex -2.83987e-15 5.69431 26.7896
    endloop
  endfacet
  facet normal -1 0 -2.22045e-16
    outer loop
      vertex -3.04069e-15 -2.91076 27.6941
      vertex -2.83987e-15 5.69431 26.7896
      vertex -2.51493e-15 8.22899 25.3262
    endloop
  endfacet
  facet normal -1 0 -2.22045e-16
    outer loop
      vertex -3.04069e-15 -2.91076 27.6941
      vertex -2.51493e-15 8.22899 25.3262
      vertex -2.08008e-15 10.404 23.3678
    endloop
  endfacet
  facet normal -1 0 -2.22045e-16
    outer loop
      vertex -3.04069e-15 -2.91076 27.6941
      vertex -2.08008e-15 10.404 23.3678
      vertex -1.55431e-15 12.1244 21
    endloop
  endfacet
  facet normal -1 0 -2.22045e-16
    outer loop
      vertex -1.63435e-15 8.17459 21.3604
      vertex -1.55431e-15 12.1244 21
      vertex -9.60618e-16 13.3148 18.3262
    endloop
  endfacet
  facet normal -1 0 -2.22045e-16
    outer loop
      vertex -1.22125e-15 9.52628 19.5
      vertex -9.60618e-16 13.3148 18.3262
      vertex -3.2494e-16 13.9233 15.4634
    endloop
  endfacet
  facet normal -1 0 -2.22045e-16
    outer loop
      vertex -7.54771e-16 10.4616 17.3992
      vertex -3.2494e-16 13.9233 15.4634
      vertex 3.2494e-16 13.9233 12.5366
    endloop
  endfacet
  facet normal -1 0 -2.22045e-16
    outer loop
      vertex 2.5531e-16 10.9397 12.8502
      vertex 3.2494e-16 13.9233 12.5366
      vertex 9.60618e-16 13.3148 9.67376
    endloop
  endfacet
  facet normal -1 0 -2.22045e-16
    outer loop
      vertex 7.54771e-16 10.4616 10.6008
      vertex 9.60618e-16 13.3148 9.67376
      vertex 1.55431e-15 12.1244 7
    endloop
  endfacet
  facet normal -1 0 -2.22045e-16
    outer loop
      vertex 1.22125e-15 9.52628 8.5
      vertex 1.55431e-15 12.1244 7
      vertex 2.08008e-15 10.404 4.63217
    endloop
  endfacet
  facet normal -1 0 -2.22045e-16
    outer loop
      vertex 1.63435e-15 8.17459 6.63956
      vertex 2.08008e-15 10.404 4.63217
      vertex 2.51493e-15 8.22899 2.67376
    endloop
  endfacet
  facet normal -1 0 -2.22045e-16
    outer loop
      vertex 1.97602e-15 6.46564 5.10081
      vertex 2.51493e-15 8.22899 2.67376
      vertex 2.83987e-15 5.69431 1.21036
    endloop
  endfacet
  facet normal -1 0 -2.22045e-16
    outer loop
      vertex 2.23133e-15 4.4741 3.951
      vertex 2.83987e-15 5.69431 1.21036
      vertex 3.04069e-15 2.91076 0.305934
    endloop
  endfacet
  facet normal -1 0 -2.22045e-16
    outer loop
      vertex 2.44249e-15 0 3
      vertex 3.04069e-15 2.91076 0.305934
      vertex 3.10862e-15 0 0
    endloop
  endfacet
  facet normal -1 0 -2.22045e-16
    outer loop
      vertex 2.38912e-15 -2.28703 3.24038
      vertex 3.10862e-15 0 0
      vertex 3.04069e-15 -2.91076 0.305934
    endloop
  endfacet
  facet normal -1 0 -2.22045e-16
    outer loop
      vertex 2.23133e-15 -4.4741 3.951
      vertex 3.04069e-15 -2.91076 0.305934
      vertex 2.83987e-15 -5.69431 1.21036
    endloop
  endfacet
  facet normal -1 0 -2.22045e-16
    outer loop
      vertex 1.97602e-15 -6.46564 5.10081
      vertex 2.83987e-15 -5.69431 1.21036
      vertex 2.51493e-15 -8.22899 2.67376
    endloop
  endfacet
  facet normal -1 0 -2.22045e-16
    outer loop
      vertex 1.63435e-15 -8.17459 6.63956
      vertex 2.51493e-15 -8.22899 2.67376
      vertex 2.08008e-15 -10.404 4.63217
    endloop
  endfacet
  facet normal -1 0 -2.22045e-16
    outer loop
      vertex 7.54771e-16 -10.4616 10.6008
      vertex 2.08008e-15 -10.404 4.63217
      vertex 1.55431e-15 -12.1244 7
    endloop
  endfacet
  facet normal -1 0 -2.22045e-16
    outer loop
      vertex 2.5531e-16 -10.9397 12.8502
      vertex 1.55431e-15 -12.1244 7
      vertex 9.60618e-16 -13.3148 9.67376
    endloop
  endfacet
  facet normal -1 0 -2.22045e-16
    outer loop
      vertex -2.5531e-16 -10.9397 15.1498
      vertex 9.60618e-16 -13.3148 9.67376
      vertex 3.2494e-16 -13.9233 12.5366
    endloop
  endfacet
  facet normal -1 0 -2.22045e-16
    outer loop
      vertex -1.22125e-15 -9.52628 19.5
      vertex 3.2494e-16 -13.9233 12.5366
      vertex -3.2494e-16 -13.9233 15.4634
    endloop
  endfacet
  facet normal -1 0 -2.22045e-16
    outer loop
      vertex -3.04069e-15 -2.91076 27.6941
      vertex -3.2494e-16 -13.9233 15.4634
      vertex -9.60618e-16 -13.3148 18.3262
    endloop
  endfacet
  facet normal -1 0 -2.22045e-16
    outer loop
      vertex -3.04069e-15 -2.91076 27.6941
      vertex -9.60618e-16 -13.3148 18.3262
      vertex -1.55431e-15 -12.1244 21
    endloop
  endfacet
  facet normal -1 0 -2.22045e-16
    outer loop
      vertex -3.04069e-15 -2.91076 27.6941
      vertex -1.55431e-15 -12.1244 21
      vertex -2.08008e-15 -10.404 23.3678
    endloop
  endfacet
  facet normal -1 0 -2.22045e-16
    outer loop
      vertex -3.04069e-15 -2.91076 27.6941
      vertex -2.08008e-15 -10.404 23.3678
      vertex -2.51493e-15 -8.22899 25.3262
    endloop
  endfacet
  facet normal -1 0 -2.22045e-16
    outer loop
      vertex -3.04069e-15 -2.91076 27.6941
      vertex -2.51493e-15 -8.22899 25.3262
      vertex -2.83987e-15 -5.69431 26.7896
    endloop
  endfacet
  facet normal -1 0 -2.22045e-16
    outer loop
      vertex -2.38912e-15 -2.28703 24.7596
      vertex -3.04069e-15 -2.91076 27.6941
      vertex -2.44249e-15 0 25
    endloop
  endfacet
  facet normal -1 0 -2.22045e-16
    outer loop
      vertex 2.23133e-15 -4.4741 3.951
      vertex 2.83987e-15 -5.69431 1.21036
      vertex 1.97602e-15 -6.46564 5.10081
    endloop
  endfacet
  facet normal -1 0 -2.22045e-16
    outer loop
      vertex -2.23133e-15 -4.4741 24.049
      vertex -3.04069e-15 -2.91076 27.6941
      vertex -2.38912e-15 -2.28703 24.7596
    endloop
  endfacet
  facet normal -1 0 -2.22045e-16
    outer loop
      vertex -1.97602e-15 -6.46564 22.8992
      vertex -3.04069e-15 -2.91076 27.6941
      vertex -2.23133e-15 -4.4741 24.049
    endloop
  endfacet
  facet normal -1 0 -2.22045e-16
    outer loop
      vertex -1.22125e-15 -9.52628 19.5
      vertex -3.2494e-16 -13.9233 15.4634
      vertex -1.63435e-15 -8.17459 21.3604
    endloop
  endfacet
  facet normal -1 0 -2.22045e-16
    outer loop
      vertex -3.04069e-15 -2.91076 27.6941
      vertex -1.97602e-15 -6.46564 22.8992
      vertex -1.63435e-15 -8.17459 21.3604
    endloop
  endfacet
  facet normal -1 0 -2.22045e-16
    outer loop
      vertex -3.04069e-15 -2.91076 27.6941
      vertex -1.63435e-15 -8.17459 21.3604
      vertex -3.2494e-16 -13.9233 15.4634
    endloop
  endfacet
  facet normal -1 0 -2.22045e-16
    outer loop
      vertex -7.54771e-16 -10.4616 17.3992
      vertex 3.2494e-16 -13.9233 12.5366
      vertex -1.22125e-15 -9.52628 19.5
    endloop
  endfacet
  facet normal -1 0 -2.22045e-16
    outer loop
      vertex -2.5531e-16 -10.9397 15.1498
      vertex 3.2494e-16 -13.9233 12.5366
      vertex -7.54771e-16 -10.4616 17.3992
    endloop
  endfacet
  facet normal -1 0 -2.22045e-16
    outer loop
      vertex 1.22125e-15 -9.52628 8.5
      vertex 2.08008e-15 -10.404 4.63217
      vertex 7.54771e-16 -10.4616 10.6008
    endloop
  endfacet
  facet normal -1 0 -2.22045e-16
    outer loop
      vertex 1.63435e-15 -8.17459 6.63956
      vertex 2.08008e-15 -10.404 4.63217
      vertex 1.22125e-15 -9.52628 8.5
    endloop
  endfacet
  facet normal -1 0 -2.22045e-16
    outer loop
      vertex 7.54771e-16 -10.4616 10.6008
      vertex 1.55431e-15 -12.1244 7
      vertex 2.5531e-16 -10.9397 12.8502
    endloop
  endfacet
  facet normal -1 0 -2.22045e-16
    outer loop
      vertex 2.5531e-16 -10.9397 12.8502
      vertex 9.60618e-16 -13.3148 9.67376
      vertex -2.5531e-16 -10.9397 15.1498
    endloop
  endfacet
  facet normal -1 0 -2.22045e-16
    outer loop
      vertex 2.38912e-15 2.28703 3.24038
      vertex 3.04069e-15 2.91076 0.305934
      vertex 2.44249e-15 0 3
    endloop
  endfacet
  facet normal -1 0 -2.22045e-16
    outer loop
      vertex 1.97602e-15 6.46564 5.10081
      vertex 2.83987e-15 5.69431 1.21036
      vertex 2.23133e-15 4.4741 3.951
    endloop
  endfacet
  facet normal -1 0 -2.22045e-16
    outer loop
      vertex 2.23133e-15 4.4741 3.951
      vertex 3.04069e-15 2.91076 0.305934
      vertex 2.38912e-15 2.28703 3.24038
    endloop
  endfacet
  facet normal -1 0 -2.22045e-16
    outer loop
      vertex 2.44249e-15 0 3
      vertex 3.10862e-15 0 0
      vertex 2.38912e-15 -2.28703 3.24038
    endloop
  endfacet
  facet normal -1 0 -2.22045e-16
    outer loop
      vertex 2.38912e-15 -2.28703 3.24038
      vertex 3.04069e-15 -2.91076 0.305934
      vertex 2.23133e-15 -4.4741 3.951
    endloop
  endfacet
  facet normal -1 0 -2.22045e-16
    outer loop
      vertex -2.5531e-16 10.9397 15.1498
      vertex 3.2494e-16 13.9233 12.5366
      vertex 2.5531e-16 10.9397 12.8502
    endloop
  endfacet
  facet normal -1 0 -2.22045e-16
    outer loop
      vertex -7.54771e-16 10.4616 17.3992
      vertex 3.2494e-16 13.9233 12.5366
      vertex -2.5531e-16 10.9397 15.1498
    endloop
  endfacet
  facet normal -1 0 -2.22045e-16
    outer loop
      vertex 2.5531e-16 10.9397 12.8502
      vertex 9.60618e-16 13.3148 9.67376
      vertex 7.54771e-16 10.4616 10.6008
    endloop
  endfacet
  facet normal -1 0 -2.22045e-16
    outer loop
      vertex 7.54771e-16 10.4616 10.6008
      vertex 1.55431e-15 12.1244 7
      vertex 1.22125e-15 9.52628 8.5
    endloop
  endfacet
  facet normal -1 0 -2.22045e-16
    outer loop
      vertex -1.97602e-15 6.46564 22.8992
      vertex -1.55431e-15 12.1244 21
      vertex -1.63435e-15 8.17459 21.3604
    endloop
  endfacet
  facet normal -1 0 -2.22045e-16
    outer loop
      vertex -2.23133e-15 4.4741 24.049
      vertex -1.55431e-15 12.1244 21
      vertex -1.97602e-15 6.46564 22.8992
    endloop
  endfacet
  facet normal -1 0 -2.22045e-16
    outer loop
      vertex -3.04069e-15 -2.91076 27.6941
      vertex -1.55431e-15 12.1244 21
      vertex -2.23133e-15 4.4741 24.049
    endloop
  endfacet
  facet normal -1 0 -2.22045e-16
    outer loop
      vertex 1.22125e-15 9.52628 8.5
      vertex 2.08008e-15 10.404 4.63217
      vertex 1.63435e-15 8.17459 6.63956
    endloop
  endfacet
  facet normal -1 0 -2.22045e-16
    outer loop
      vertex -2.44249e-15 0 25
      vertex -3.04069e-15 -2.91076 27.6941
      vertex -2.38912e-15 2.28703 24.7596
    endloop
  endfacet
  facet normal -1 0 -2.22045e-16
    outer loop
      vertex -2.38912e-15 2.28703 24.7596
      vertex -3.04069e-15 -2.91076 27.6941
      vertex -2.23133e-15 4.4741 24.049
    endloop
  endfacet
  facet normal -1 0 -2.22045e-16
    outer loop
      vertex -1.63435e-15 8.17459 21.3604
      vertex -9.60618e-16 13.3148 18.3262
      vertex -1.22125e-15 9.52628 19.5
    endloop
  endfacet
  facet normal -1 0 -2.22045e-16
    outer loop
      vertex -1.22125e-15 9.52628 19.5
      vertex -3.2494e-16 13.9233 15.4634
      vertex -7.54771e-16 10.4616 17.3992
    endloop
  endfacet
  facet normal -1 0 -2.22045e-16
    outer loop
      vertex 1.63435e-15 8.17459 6.63956
      vertex 2.51493e-15 8.22899 2.67376
      vertex 1.97602e-15 6.46564 5.10081
    endloop
  endfacet
  facet normal -1 0 -2.22045e-16
    outer loop
      vertex 1.97602e-15 -6.46564 5.10081
      vertex 2.51493e-15 -8.22899 2.67376
      vertex 1.63435e-15 -8.17459 6.63956
    endloop
  endfacet
  facet normal -2.20828e-16 0.104529 0.994522
    outer loop
      vertex -3.04069e-15 2.91076 27.6941
      vertex -3.10862e-15 0 28
      vertex 18 0 28
    endloop
  endfacet
  facet normal -2.20828e-16 0.104529 0.994522
    outer loop
      vertex 18 2.91076 27.6941
      vertex -3.04069e-15 2.91076 27.6941
      vertex 18 0 28
    endloop
  endfacet
  facet normal -2.20828e-16 -0.104529 0.994522
    outer loop
      vertex 18 0 28
      vertex -3.10862e-15 0 28
      vertex -3.04069e-15 -2.91076 27.6941
    endloop
  endfacet
  facet normal -2.20828e-16 -0.104529 0.994522
    outer loop
      vertex 18 -2.91076 27.6941
      vertex 18 0 28
      vertex -3.04069e-15 -2.91076 27.6941
    endloop
  endfacet
  facet normal -2.11177e-16 -0.309017 0.951057
    outer loop
      vertex 18 -2.91076 27.6941
      vertex -3.04069e-15 -2.91076 27.6941
      vertex -2.83987e-15 -5.69431 26.7896
    endloop
  endfacet
  facet normal -2.11177e-16 -0.309017 0.951057
    outer loop
      vertex 18 -5.69431 26.7896
      vertex 18 -2.91076 27.6941
      vertex -2.83987e-15 -5.69431 26.7896
    endloop
  endfacet
  facet normal -1.92296e-16 -0.5 0.866026
    outer loop
      vertex 18 -5.69431 26.7896
      vertex -2.83987e-15 -5.69431 26.7896
      vertex -2.51493e-15 -8.22899 25.3262
    endloop
  endfacet
  facet normal -1.92296e-16 -0.5 0.866026
    outer loop
      vertex 18 -8.22899 25.3262
      vertex 18 -5.69431 26.7896
      vertex -2.51493e-15 -8.22899 25.3262
    endloop
  endfacet
  facet normal -1.65011e-16 -0.669131 0.743145
    outer loop
      vertex 18 -8.22899 25.3262
      vertex -2.51493e-15 -8.22899 25.3262
      vertex -2.08008e-15 -10.404 23.3678
    endloop
  endfacet
  facet normal -1.65011e-16 -0.669131 0.743145
    outer loop
      vertex 18 -10.404 23.3678
      vertex 18 -8.22899 25.3262
      vertex -2.08008e-15 -10.404 23.3678
    endloop
  endfacet
  facet normal -1.30515e-16 -0.809017 0.587785
    outer loop
      vertex 18 -10.404 23.3678
      vertex -2.08008e-15 -10.404 23.3678
      vertex -1.55431e-15 -12.1244 21
    endloop
  endfacet
  facet normal -1.30515e-16 -0.809017 0.587785
    outer loop
      vertex 18 -12.1244 21
      vertex 18 -10.404 23.3678
      vertex -1.55431e-15 -12.1244 21
    endloop
  endfacet
  facet normal -9.03136e-17 -0.913546 0.406736
    outer loop
      vertex 18 -12.1244 21
      vertex -1.55431e-15 -12.1244 21
      vertex -9.60618e-16 -13.3148 18.3262
    endloop
  endfacet
  facet normal -9.03136e-17 -0.913546 0.406736
    outer loop
      vertex 18 -13.3148 18.3262
      vertex 18 -12.1244 21
      vertex -9.60618e-16 -13.3148 18.3262
    endloop
  endfacet
  facet normal -4.61657e-17 -0.978148 0.207912
    outer loop
      vertex 18 -13.3148 18.3262
      vertex -9.60618e-16 -13.3148 18.3262
      vertex -3.2494e-16 -13.9233 15.4634
    endloop
  endfacet
  facet normal -4.61657e-17 -0.978148 0.207912
    outer loop
      vertex 18 -13.9233 15.4634
      vertex 18 -13.3148 18.3262
      vertex -3.2494e-16 -13.9233 15.4634
    endloop
  endfacet
  facet normal 0 -1 0
    outer loop
      vertex 18 -13.9233 15.4634
      vertex -3.2494e-16 -13.9233 15.4634
      vertex 3.2494e-16 -13.9233 12.5366
    endloop
  endfacet
  facet normal 0 -1 0
    outer loop
      vertex 18 -13.9233 12.5366
      vertex 18 -13.9233 15.4634
      vertex 3.2494e-16 -13.9233 12.5366
    endloop
  endfacet
  facet normal 4.61657e-17 -0.978148 -0.207912
    outer loop
      vertex 18 -13.9233 12.5366
      vertex 3.2494e-16 -13.9233 12.5366
      vertex 9.60618e-16 -13.3148 9.67376
    endloop
  endfacet
  facet normal 4.61657e-17 -0.978148 -0.207912
    outer loop
      vertex 18 -13.3148 9.67376
      vertex 18 -13.9233 12.5366
      vertex 9.60618e-16 -13.3148 9.67376
    endloop
  endfacet
  facet normal 9.03136e-17 -0.913546 -0.406736
    outer loop
      vertex 18 -13.3148 9.67376
      vertex 9.60618e-16 -13.3148 9.67376
      vertex 1.55431e-15 -12.1244 7
    endloop
  endfacet
  facet normal 9.03136e-17 -0.913546 -0.406736
    outer loop
      vertex 18 -12.1244 7
      vertex 18 -13.3148 9.67376
      vertex 1.55431e-15 -12.1244 7
    endloop
  endfacet
  facet normal 1.30515e-16 -0.809017 -0.587785
    outer loop
      vertex 18 -12.1244 7
      vertex 1.55431e-15 -12.1244 7
      vertex 2.08008e-15 -10.404 4.63217
    endloop
  endfacet
  facet normal 1.30515e-16 -0.809017 -0.587785
    outer loop
      vertex 18 -10.404 4.63217
      vertex 18 -12.1244 7
      vertex 2.08008e-15 -10.404 4.63217
    endloop
  endfacet
  facet normal 1.65011e-16 -0.669131 -0.743145
    outer loop
      vertex 2.08008e-15 -10.404 4.63217
      vertex 2.51493e-15 -8.22899 2.67376
      vertex 18 -10.404 4.63217
    endloop
  endfacet
  facet normal 1.65011e-16 -0.669131 -0.743145
    outer loop
      vertex 18 -10.404 4.63217
      vertex 2.51493e-15 -8.22899 2.67376
      vertex 18 -8.22899 2.67376
    endloop
  endfacet
  facet normal 1.92296e-16 -0.5 -0.866026
    outer loop
      vertex 2.51493e-15 -8.22899 2.67376
      vertex 2.83987e-15 -5.69431 1.21036
      vertex 18 -8.22899 2.67376
    endloop
  endfacet
  facet normal 1.92296e-16 -0.5 -0.866026
    outer loop
      vertex 18 -8.22899 2.67376
      vertex 2.83987e-15 -5.69431 1.21036
      vertex 18 -5.69431 1.21036
    endloop
  endfacet
  facet normal 2.11177e-16 -0.309017 -0.951057
    outer loop
      vertex 2.83987e-15 -5.69431 1.21036
      vertex 3.04069e-15 -2.91076 0.305934
      vertex 18 -5.69431 1.21036
    endloop
  endfacet
  facet normal 2.11177e-16 -0.309017 -0.951057
    outer loop
      vertex 18 -5.69431 1.21036
      vertex 3.04069e-15 -2.91076 0.305934
      vertex 18 -2.91076 0.305934
    endloop
  endfacet
  facet normal 2.20828e-16 -0.104529 -0.994522
    outer loop
      vertex 3.04069e-15 -2.91076 0.305934
      vertex 3.10862e-15 0 0
      vertex 18 -2.91076 0.305934
    endloop
  endfacet
  facet normal 2.20828e-16 -0.104529 -0.994522
    outer loop
      vertex 18 -2.91076 0.305934
      vertex 3.10862e-15 0 0
      vertex 18 0 3.9968e-15
    endloop
  endfacet
  facet normal 2.20828e-16 0.104529 -0.994522
    outer loop
      vertex 3.04069e-15 2.91076 0.305934
      vertex 18 2.91076 0.305934
      vertex 3.10862e-15 0 0
    endloop
  endfacet
  facet normal 2.20828e-16 0.104529 -0.994522
    outer loop
      vertex 3.10862e-15 0 0
      vertex 18 2.91076 0.305934
      vertex 18 0 3.9968e-15
    endloop
  endfacet
  facet normal 2.11177e-16 0.309017 -0.951057
    outer loop
      vertex 2.83987e-15 5.69431 1.21036
      vertex 18 5.69431 1.21036
      vertex 3.04069e-15 2.91076 0.305934
    endloop
  endfacet
  facet normal 2.11177e-16 0.309017 -0.951057
    outer loop
      vertex 3.04069e-15 2.91076 0.305934
      vertex 18 5.69431 1.21036
      vertex 18 2.91076 0.305934
    endloop
  endfacet
  facet normal 1.92296e-16 0.5 -0.866026
    outer loop
      vertex 2.51493e-15 8.22899 2.67376
      vertex 18 8.22899 2.67376
      vertex 2.83987e-15 5.69431 1.21036
    endloop
  endfacet
  facet normal 1.92296e-16 0.5 -0.866026
    outer loop
      vertex 2.83987e-15 5.69431 1.21036
      vertex 18 8.22899 2.67376
      vertex 18 5.69431 1.21036
    endloop
  endfacet
  facet normal 1.65011e-16 0.669131 -0.743145
    outer loop
      vertex 2.08008e-15 10.404 4.63217
      vertex 18 10.404 4.63217
      vertex 2.51493e-15 8.22899 2.67376
    endloop
  endfacet
  facet normal 1.65011e-16 0.669131 -0.743145
    outer loop
      vertex 2.51493e-15 8.22899 2.67376
      vertex 18 10.404 4.63217
      vertex 18 8.22899 2.67376
    endloop
  endfacet
  facet normal 1.30515e-16 0.809017 -0.587785
    outer loop
      vertex 1.55431e-15 12.1244 7
      vertex 18 12.1244 7
      vertex 2.08008e-15 10.404 4.63217
    endloop
  endfacet
  facet normal 1.30515e-16 0.809017 -0.587785
    outer loop
      vertex 2.08008e-15 10.404 4.63217
      vertex 18 12.1244 7
      vertex 18 10.404 4.63217
    endloop
  endfacet
  facet normal 9.03136e-17 0.913546 -0.406736
    outer loop
      vertex 9.60618e-16 13.3148 9.67376
      vertex 18 13.3148 9.67376
      vertex 1.55431e-15 12.1244 7
    endloop
  endfacet
  facet normal 9.03136e-17 0.913546 -0.406736
    outer loop
      vertex 1.55431e-15 12.1244 7
      vertex 18 13.3148 9.67376
      vertex 18 12.1244 7
    endloop
  endfacet
  facet normal 4.61657e-17 0.978148 -0.207912
    outer loop
      vertex 3.2494e-16 13.9233 12.5366
      vertex 18 13.9233 12.5366
      vertex 9.60618e-16 13.3148 9.67376
    endloop
  endfacet
  facet normal 4.61657e-17 0.978148 -0.207912
    outer loop
      vertex 9.60618e-16 13.3148 9.67376
      vertex 18 13.9233 12.5366
      vertex 18 13.3148 9.67376
    endloop
  endfacet
  facet normal 0 1 0
    outer loop
      vertex -3.2494e-16 13.9233 15.4634
      vertex 18 13.9233 15.4634
      vertex 3.2494e-16 13.9233 12.5366
    endloop
  endfacet
  facet normal 0 1 0
    outer loop
      vertex 3.2494e-16 13.9233 12.5366
      vertex 18 13.9233 15.4634
      vertex 18 13.9233 12.5366
    endloop
  endfacet
  facet normal -4.61657e-17 0.978148 0.207912
    outer loop
      vertex -9.60618e-16 13.3148 18.3262
      vertex 18 13.3148 18.3262
      vertex -3.2494e-16 13.9233 15.4634
    endloop
  endfacet
  facet normal -4.61657e-17 0.978148 0.207912
    outer loop
      vertex -3.2494e-16 13.9233 15.4634
      vertex 18 13.3148 18.3262
      vertex 18 13.9233 15.4634
    endloop
  endfacet
  facet normal -9.03136e-17 0.913546 0.406736
    outer loop
      vertex -1.55431e-15 12.1244 21
      vertex 18 12.1244 21
      vertex -9.60618e-16 13.3148 18.3262
    endloop
  endfacet
  facet normal -9.03136e-17 0.913546 0.406736
    outer loop
      vertex -9.60618e-16 13.3148 18.3262
      vertex 18 12.1244 21
      vertex 18 13.3148 18.3262
    endloop
  endfacet
  facet normal -1.30515e-16 0.809017 0.587785
    outer loop
      vertex -2.08008e-15 10.404 23.3678
      vertex 18 10.404 23.3678
      vertex -1.55431e-15 12.1244 21
    endloop
  endfacet
  facet normal -1.30515e-16 0.809017 0.587785
    outer loop
      vertex -1.55431e-15 12.1244 21
      vertex 18 10.404 23.3678
      vertex 18 12.1244 21
    endloop
  endfacet
  facet normal -1.65011e-16 0.669131 0.743145
    outer loop
      vertex -2.08008e-15 10.404 23.3678
      vertex -2.51493e-15 8.22899 25.3262
      vertex 18 8.22899 25.3262
    endloop
  endfacet
  facet normal -1.65011e-16 0.669131 0.743145
    outer loop
      vertex 18 10.404 23.3678
      vertex -2.08008e-15 10.404 23.3678
      vertex 18 8.22899 25.3262
    endloop
  endfacet
  facet normal -1.92296e-16 0.5 0.866026
    outer loop
      vertex -2.51493e-15 8.22899 25.3262
      vertex -2.83987e-15 5.69431 26.7896
      vertex 18 5.69431 26.7896
    endloop
  endfacet
  facet normal -1.92296e-16 0.5 0.866026
    outer loop
      vertex 18 8.22899 25.3262
      vertex -2.51493e-15 8.22899 25.3262
      vertex 18 5.69431 26.7896
    endloop
  endfacet
  facet normal -2.11177e-16 0.309017 0.951057
    outer loop
      vertex -2.83987e-15 5.69431 26.7896
      vertex -3.04069e-15 2.91076 27.6941
      vertex 18 2.91076 27.6941
    endloop
  endfacet
  facet normal -2.11177e-16 0.309017 0.951057
    outer loop
      vertex 18 5.69431 26.7896
      vertex -2.83987e-15 5.69431 26.7896
      vertex 18 2.91076 27.6941
    endloop
  endfacet
  facet normal 2.20828e-16 -0.104528 -0.994522
    outer loop
      vertex 6 2.28703 24.7596
      vertex 6 0 25
      vertex -2.38912e-15 2.28703 24.7596
    endloop
  endfacet
  facet normal 2.20828e-16 -0.104528 -0.994522
    outer loop
      vertex -2.38912e-15 2.28703 24.7596
      vertex 6 0 25
      vertex -2.44249e-15 0 25
    endloop
  endfacet
  facet normal 2.20828e-16 0.104528 -0.994522
    outer loop
      vertex 6 -2.28703 24.7596
      vertex -2.38912e-15 -2.28703 24.7596
      vertex 6 0 25
    endloop
  endfacet
  facet normal 2.20828e-16 0.104528 -0.994522
    outer loop
      vertex 6 0 25
      vertex -2.38912e-15 -2.28703 24.7596
      vertex -2.44249e-15 0 25
    endloop
  endfacet
  facet normal 2.11177e-16 -0.309017 -0.951056
    outer loop
      vertex 6 4.4741 24.049
      vertex 6 2.28703 24.7596
      vertex -2.23133e-15 4.4741 24.049
    endloop
  endfacet
  facet normal 2.11177e-16 -0.309017 -0.951056
    outer loop
      vertex -2.23133e-15 4.4741 24.049
      vertex 6 2.28703 24.7596
      vertex -2.38912e-15 2.28703 24.7596
    endloop
  endfacet
  facet normal 1.92296e-16 -0.5 -0.866025
    outer loop
      vertex 6 6.46564 22.8992
      vertex 6 4.4741 24.049
      vertex -1.97602e-15 6.46564 22.8992
    endloop
  endfacet
  facet normal 1.92296e-16 -0.5 -0.866025
    outer loop
      vertex -1.97602e-15 6.46564 22.8992
      vertex 6 4.4741 24.049
      vertex -2.23133e-15 4.4741 24.049
    endloop
  endfacet
  facet normal 1.65011e-16 -0.669131 -0.743145
    outer loop
      vertex 6 8.17459 21.3604
      vertex 6 6.46564 22.8992
      vertex -1.63435e-15 8.17459 21.3604
    endloop
  endfacet
  facet normal 1.65011e-16 -0.669131 -0.743145
    outer loop
      vertex -1.63435e-15 8.17459 21.3604
      vertex 6 6.46564 22.8992
      vertex -1.97602e-15 6.46564 22.8992
    endloop
  endfacet
  facet normal 1.30515e-16 -0.809017 -0.587785
    outer loop
      vertex -1.22125e-15 9.52628 19.5
      vertex 6 9.52628 19.5
      vertex 6 8.17459 21.3604
    endloop
  endfacet
  facet normal 1.30515e-16 -0.809017 -0.587785
    outer loop
      vertex -1.63435e-15 8.17459 21.3604
      vertex -1.22125e-15 9.52628 19.5
      vertex 6 8.17459 21.3604
    endloop
  endfacet
  facet normal 9.03137e-17 -0.913545 -0.406737
    outer loop
      vertex -7.54771e-16 10.4616 17.3992
      vertex 6 10.4616 17.3992
      vertex 6 9.52628 19.5
    endloop
  endfacet
  facet normal 9.03137e-17 -0.913545 -0.406737
    outer loop
      vertex -1.22125e-15 9.52628 19.5
      vertex -7.54771e-16 10.4616 17.3992
      vertex 6 9.52628 19.5
    endloop
  endfacet
  facet normal 4.61657e-17 -0.978148 -0.207912
    outer loop
      vertex -2.5531e-16 10.9397 15.1498
      vertex 6 10.9397 15.1498
      vertex 6 10.4616 17.3992
    endloop
  endfacet
  facet normal 4.61657e-17 -0.978148 -0.207912
    outer loop
      vertex -7.54771e-16 10.4616 17.3992
      vertex -2.5531e-16 10.9397 15.1498
      vertex 6 10.4616 17.3992
    endloop
  endfacet
  facet normal 0 -1 0
    outer loop
      vertex 2.5531e-16 10.9397 12.8502
      vertex 6 10.9397 12.8502
      vertex 6 10.9397 15.1498
    endloop
  endfacet
  facet normal 0 -1 0
    outer loop
      vertex -2.5531e-16 10.9397 15.1498
      vertex 2.5531e-16 10.9397 12.8502
      vertex 6 10.9397 15.1498
    endloop
  endfacet
  facet normal -4.61657e-17 -0.978148 0.207912
    outer loop
      vertex 7.54771e-16 10.4616 10.6008
      vertex 6 10.4616 10.6008
      vertex 6 10.9397 12.8502
    endloop
  endfacet
  facet normal -4.61657e-17 -0.978148 0.207912
    outer loop
      vertex 2.5531e-16 10.9397 12.8502
      vertex 7.54771e-16 10.4616 10.6008
      vertex 6 10.9397 12.8502
    endloop
  endfacet
  facet normal -9.03137e-17 -0.913545 0.406737
    outer loop
      vertex 1.22125e-15 9.52628 8.5
      vertex 6 9.52628 8.5
      vertex 6 10.4616 10.6008
    endloop
  endfacet
  facet normal -9.03137e-17 -0.913545 0.406737
    outer loop
      vertex 7.54771e-16 10.4616 10.6008
      vertex 1.22125e-15 9.52628 8.5
      vertex 6 10.4616 10.6008
    endloop
  endfacet
  facet normal -1.30515e-16 -0.809017 0.587785
    outer loop
      vertex 1.63435e-15 8.17459 6.63956
      vertex 6 8.17459 6.63956
      vertex 6 9.52628 8.5
    endloop
  endfacet
  facet normal -1.30515e-16 -0.809017 0.587785
    outer loop
      vertex 1.22125e-15 9.52628 8.5
      vertex 1.63435e-15 8.17459 6.63956
      vertex 6 9.52628 8.5
    endloop
  endfacet
  facet normal -1.65011e-16 -0.669131 0.743145
    outer loop
      vertex 1.97602e-15 6.46564 5.10081
      vertex 6 6.46564 5.10081
      vertex 6 8.17459 6.63956
    endloop
  endfacet
  facet normal -1.65011e-16 -0.669131 0.743145
    outer loop
      vertex 1.63435e-15 8.17459 6.63956
      vertex 1.97602e-15 6.46564 5.10081
      vertex 6 8.17459 6.63956
    endloop
  endfacet
  facet normal -1.92296e-16 -0.5 0.866025
    outer loop
      vertex 2.23133e-15 4.4741 3.951
      vertex 6 4.4741 3.951
      vertex 6 6.46564 5.10081
    endloop
  endfacet
  facet normal -1.92296e-16 -0.5 0.866025
    outer loop
      vertex 1.97602e-15 6.46564 5.10081
      vertex 2.23133e-15 4.4741 3.951
      vertex 6 6.46564 5.10081
    endloop
  endfacet
  facet normal -2.11177e-16 -0.309017 0.951056
    outer loop
      vertex 2.38912e-15 2.28703 3.24038
      vertex 6 2.28703 3.24038
      vertex 6 4.4741 3.951
    endloop
  endfacet
  facet normal -2.11177e-16 -0.309017 0.951056
    outer loop
      vertex 2.23133e-15 4.4741 3.951
      vertex 2.38912e-15 2.28703 3.24038
      vertex 6 4.4741 3.951
    endloop
  endfacet
  facet normal -2.20828e-16 -0.104528 0.994522
    outer loop
      vertex 2.44249e-15 0 3
      vertex 6 0 3
      vertex 6 2.28703 3.24038
    endloop
  endfacet
  facet normal -2.20828e-16 -0.104528 0.994522
    outer loop
      vertex 2.38912e-15 2.28703 3.24038
      vertex 2.44249e-15 0 3
      vertex 6 2.28703 3.24038
    endloop
  endfacet
  facet normal -2.20828e-16 0.104528 0.994522
    outer loop
      vertex 6 -2.28703 3.24038
      vertex 6 0 3
      vertex 2.44249e-15 0 3
    endloop
  endfacet
  facet normal -2.20828e-16 0.104528 0.994522
    outer loop
      vertex 2.38912e-15 -2.28703 3.24038
      vertex 6 -2.28703 3.24038
      vertex 2.44249e-15 0 3
    endloop
  endfacet
  facet normal -2.11177e-16 0.309017 0.951056
    outer loop
      vertex 6 -4.4741 3.951
      vertex 6 -2.28703 3.24038
      vertex 2.38912e-15 -2.28703 3.24038
    endloop
  endfacet
  facet normal -2.11177e-16 0.309017 0.951056
    outer loop
      vertex 2.23133e-15 -4.4741 3.951
      vertex 6 -4.4741 3.951
      vertex 2.38912e-15 -2.28703 3.24038
    endloop
  endfacet
  facet normal -1.92296e-16 0.5 0.866025
    outer loop
      vertex 6 -6.46564 5.10081
      vertex 6 -4.4741 3.951
      vertex 2.23133e-15 -4.4741 3.951
    endloop
  endfacet
  facet normal -1.92296e-16 0.5 0.866025
    outer loop
      vertex 1.97602e-15 -6.46564 5.10081
      vertex 6 -6.46564 5.10081
      vertex 2.23133e-15 -4.4741 3.951
    endloop
  endfacet
  facet normal -1.65011e-16 0.669131 0.743145
    outer loop
      vertex 6 -8.17459 6.63956
      vertex 6 -6.46564 5.10081
      vertex 1.97602e-15 -6.46564 5.10081
    endloop
  endfacet
  facet normal -1.65011e-16 0.669131 0.743145
    outer loop
      vertex 1.63435e-15 -8.17459 6.63956
      vertex 6 -8.17459 6.63956
      vertex 1.97602e-15 -6.46564 5.10081
    endloop
  endfacet
  facet normal -1.30515e-16 0.809017 0.587785
    outer loop
      vertex 6 -8.17459 6.63956
      vertex 1.63435e-15 -8.17459 6.63956
      vertex 6 -9.52628 8.5
    endloop
  endfacet
  facet normal -1.30515e-16 0.809017 0.587785
    outer loop
      vertex 6 -9.52628 8.5
      vertex 1.63435e-15 -8.17459 6.63956
      vertex 1.22125e-15 -9.52628 8.5
    endloop
  endfacet
  facet normal -9.03137e-17 0.913545 0.406737
    outer loop
      vertex 6 -9.52628 8.5
      vertex 1.22125e-15 -9.52628 8.5
      vertex 6 -10.4616 10.6008
    endloop
  endfacet
  facet normal -9.03137e-17 0.913545 0.406737
    outer loop
      vertex 6 -10.4616 10.6008
      vertex 1.22125e-15 -9.52628 8.5
      vertex 7.54771e-16 -10.4616 10.6008
    endloop
  endfacet
  facet normal -4.61657e-17 0.978148 0.207912
    outer loop
      vertex 6 -10.4616 10.6008
      vertex 7.54771e-16 -10.4616 10.6008
      vertex 6 -10.9397 12.8502
    endloop
  endfacet
  facet normal -4.61657e-17 0.978148 0.207912
    outer loop
      vertex 6 -10.9397 12.8502
      vertex 7.54771e-16 -10.4616 10.6008
      vertex 2.5531e-16 -10.9397 12.8502
    endloop
  endfacet
  facet normal 0 1 0
    outer loop
      vertex 6 -10.9397 12.8502
      vertex 2.5531e-16 -10.9397 12.8502
      vertex 6 -10.9397 15.1498
    endloop
  endfacet
  facet normal 0 1 0
    outer loop
      vertex 6 -10.9397 15.1498
      vertex 2.5531e-16 -10.9397 12.8502
      vertex -2.5531e-16 -10.9397 15.1498
    endloop
  endfacet
  facet normal 4.61657e-17 0.978148 -0.207912
    outer loop
      vertex 6 -10.9397 15.1498
      vertex -2.5531e-16 -10.9397 15.1498
      vertex 6 -10.4616 17.3992
    endloop
  endfacet
  facet normal 4.61657e-17 0.978148 -0.207912
    outer loop
      vertex 6 -10.4616 17.3992
      vertex -2.5531e-16 -10.9397 15.1498
      vertex -7.54771e-16 -10.4616 17.3992
    endloop
  endfacet
  facet normal 9.03137e-17 0.913545 -0.406737
    outer loop
      vertex 6 -10.4616 17.3992
      vertex -7.54771e-16 -10.4616 17.3992
      vertex 6 -9.52628 19.5
    endloop
  endfacet
  facet normal 9.03137e-17 0.913545 -0.406737
    outer loop
      vertex 6 -9.52628 19.5
      vertex -7.54771e-16 -10.4616 17.3992
      vertex -1.22125e-15 -9.52628 19.5
    endloop
  endfacet
  facet normal 1.30515e-16 0.809017 -0.587785
    outer loop
      vertex 6 -9.52628 19.5
      vertex -1.22125e-15 -9.52628 19.5
      vertex 6 -8.17459 21.3604
    endloop
  endfacet
  facet normal 1.30515e-16 0.809017 -0.587785
    outer loop
      vertex 6 -8.17459 21.3604
      vertex -1.22125e-15 -9.52628 19.5
      vertex -1.63435e-15 -8.17459 21.3604
    endloop
  endfacet
  facet normal 1.65011e-16 0.669131 -0.743145
    outer loop
      vertex 6 -8.17459 21.3604
      vertex -1.63435e-15 -8.17459 21.3604
      vertex 6 -6.46564 22.8992
    endloop
  endfacet
  facet normal 1.65011e-16 0.669131 -0.743145
    outer loop
      vertex 6 -6.46564 22.8992
      vertex -1.63435e-15 -8.17459 21.3604
      vertex -1.97602e-15 -6.46564 22.8992
    endloop
  endfacet
  facet normal 1.92296e-16 0.5 -0.866025
    outer loop
      vertex 6 -6.46564 22.8992
      vertex -1.97602e-15 -6.46564 22.8992
      vertex 6 -4.4741 24.049
    endloop
  endfacet
  facet normal 1.92296e-16 0.5 -0.866025
    outer loop
      vertex 6 -4.4741 24.049
      vertex -1.97602e-15 -6.46564 22.8992
      vertex -2.23133e-15 -4.4741 24.049
    endloop
  endfacet
  facet normal 2.11177e-16 0.309017 -0.951056
    outer loop
      vertex 6 -4.4741 24.049
      vertex -2.23133e-15 -4.4741 24.049
      vertex 6 -2.28703 24.7596
    endloop
  endfacet
  facet normal 2.11177e-16 0.309017 -0.951056
    outer loop
      vertex 6 -2.28703 24.7596
      vertex -2.23133e-15 -4.4741 24.049
      vertex -2.38912e-15 -2.28703 24.7596
    endloop
  endfacet
  facet normal 1 0 2.22045e-16
    outer loop
      vertex 18 2.91076 27.6941
      vertex 18 0 28
      vertex 18 -2.91076 27.6941
    endloop
  endfacet
  facet normal 1 0 2.22045e-16
    outer loop
      vertex 18 -8.22899 25.3262
      vertex 18 2.91076 27.6941
      vertex 18 -5.69431 26.7896
    endloop
  endfacet
  facet normal 1 0 2.22045e-16
    outer loop
      vertex 18 -5.69431 26.7896
      vertex 18 2.91076 27.6941
      vertex 18 -2.91076 27.6941
    endloop
  endfacet
  facet normal 1 0 2.22045e-16
    outer loop
      vertex 18 -10.404 23.3678
      vertex 18 2.91076 27.6941
      vertex 18 -8.22899 25.3262
    endloop
  endfacet
  facet normal 1 0 2.22045e-16
    outer loop
      vertex 18 -12.1244 21
      vertex 18 2.91076 27.6941
      vertex 18 -10.404 23.3678
    endloop
  endfacet
  facet normal 1 0 2.22045e-16
    outer loop
      vertex 18 -4.4741 24.049
      vertex 18 2.91076 27.6941
      vertex 18 -12.1244 21
    endloop
  endfacet
  facet normal 1 0 2.22045e-16
    outer loop
      vertex 18 9.52628 8.5
      vertex 18 8.17459 6.63956
      vertex 18 10.404 4.63217
    endloop
  endfacet
  facet normal 1 0 2.22045e-16
    outer loop
      vertex 18 10.9397 12.8502
      vertex 18 10.4616 10.6008
      vertex 18 12.1244 7
    endloop
  endfacet
  facet normal 1 0 2.22045e-16
    outer loop
      vertex 18 13.3148 18.3262
      vertex 18 2.91076 27.6941
      vertex 18 13.9233 15.4634
    endloop
  endfacet
  facet normal 1 0 2.22045e-16
    outer loop
      vertex 18 12.1244 21
      vertex 18 2.91076 27.6941
      vertex 18 13.3148 18.3262
    endloop
  endfacet
  facet normal 1 0 2.22045e-16
    outer loop
      vertex 18 10.404 23.3678
      vertex 18 2.91076 27.6941
      vertex 18 12.1244 21
    endloop
  endfacet
  facet normal 1 0 2.22045e-16
    outer loop
      vertex 18 8.22899 25.3262
      vertex 18 2.91076 27.6941
      vertex 18 10.404 23.3678
    endloop
  endfacet
  facet normal 1 0 2.22045e-16
    outer loop
      vertex 18 5.69431 26.7896
      vertex 18 2.91076 27.6941
      vertex 18 8.22899 25.3262
    endloop
  endfacet
  facet normal 1 0 2.22045e-16
    outer loop
      vertex 18 -10.4616 17.3992
      vertex 18 -9.52628 19.5
      vertex 18 -13.9233 15.4634
    endloop
  endfacet
  facet normal 1 0 2.22045e-16
    outer loop
      vertex 18 -6.46564 5.10081
      vertex 18 -8.17459 6.63956
      vertex 18 -8.22899 2.67376
    endloop
  endfacet
  facet normal 1 0 2.22045e-16
    outer loop
      vertex 18 8.17459 6.63956
      vertex 18 6.46564 5.10081
      vertex 18 8.22899 2.67376
    endloop
  endfacet
  facet normal 1 0 2.22045e-16
    outer loop
      vertex 18 10.9397 15.1498
      vertex 18 10.9397 12.8502
      vertex 18 13.3148 9.67376
    endloop
  endfacet
  facet normal 1 0 2.22045e-16
    outer loop
      vertex 18 8.17459 21.3604
      vertex 18 2.91076 27.6941
      vertex 18 6.46564 22.8992
    endloop
  endfacet
  facet normal 1 0 2.22045e-16
    outer loop
      vertex 18 10.4616 17.3992
      vertex 18 10.9397 15.1498
      vertex 18 13.9233 12.5366
    endloop
  endfacet
  facet normal 1 0 2.22045e-16
    outer loop
      vertex 18 13.9233 15.4634
      vertex 18 2.91076 27.6941
      vertex 18 8.17459 21.3604
    endloop
  endfacet
  facet normal 1 0 2.22045e-16
    outer loop
      vertex 18 13.9233 15.4634
      vertex 18 9.52628 19.5
      vertex 18 13.9233 12.5366
    endloop
  endfacet
  facet normal 1 0 2.22045e-16
    outer loop
      vertex 18 9.52628 19.5
      vertex 18 10.4616 17.3992
      vertex 18 13.9233 12.5366
    endloop
  endfacet
  facet normal 1 0 2.22045e-16
    outer loop
      vertex 18 13.9233 12.5366
      vertex 18 10.9397 15.1498
      vertex 18 13.3148 9.67376
    endloop
  endfacet
  facet normal 1 0 2.22045e-16
    outer loop
      vertex 18 8.17459 21.3604
      vertex 18 9.52628 19.5
      vertex 18 13.9233 15.4634
    endloop
  endfacet
  facet normal 1 0 2.22045e-16
    outer loop
      vertex 18 13.3148 9.67376
      vertex 18 10.9397 12.8502
      vertex 18 12.1244 7
    endloop
  endfacet
  facet normal 1 0 2.22045e-16
    outer loop
      vertex 18 12.1244 7
      vertex 18 10.4616 10.6008
      vertex 18 10.404 4.63217
    endloop
  endfacet
  facet normal 1 0 2.22045e-16
    outer loop
      vertex 18 10.4616 10.6008
      vertex 18 9.52628 8.5
      vertex 18 10.404 4.63217
    endloop
  endfacet
  facet normal 1 0 2.22045e-16
    outer loop
      vertex 18 10.404 4.63217
      vertex 18 8.17459 6.63956
      vertex 18 8.22899 2.67376
    endloop
  endfacet
  facet normal 1 0 2.22045e-16
    outer loop
      vertex 18 8.22899 2.67376
      vertex 18 6.46564 5.10081
      vertex 18 5.69431 1.21036
    endloop
  endfacet
  facet normal 1 0 2.22045e-16
    outer loop
      vertex 18 -10.4616 10.6008
      vertex 18 -10.9397 12.8502
      vertex 18 -13.3148 9.67376
    endloop
  endfacet
  facet normal 1 0 2.22045e-16
    outer loop
      vertex 18 5.69431 1.21036
      vertex 18 4.4741 3.951
      vertex 18 2.91076 0.305934
    endloop
  endfacet
  facet normal 1 0 2.22045e-16
    outer loop
      vertex 18 4.4741 24.049
      vertex 18 6.46564 22.8992
      vertex 18 2.91076 27.6941
    endloop
  endfacet
  facet normal 1 0 2.22045e-16
    outer loop
      vertex 18 2.91076 0.305934
      vertex 18 2.28703 3.24038
      vertex 18 0 3.9968e-15
    endloop
  endfacet
  facet normal 1 0 2.22045e-16
    outer loop
      vertex 18 0 3.9968e-15
      vertex 18 0 3
      vertex 18 -2.91076 0.305934
    endloop
  endfacet
  facet normal 1 0 2.22045e-16
    outer loop
      vertex 18 0 3
      vertex 18 -2.28703 3.24038
      vertex 18 -2.91076 0.305934
    endloop
  endfacet
  facet normal 1 0 2.22045e-16
    outer loop
      vertex 18 -2.91076 0.305934
      vertex 18 -4.4741 3.951
      vertex 18 -5.69431 1.21036
    endloop
  endfacet
  facet normal 1 0 2.22045e-16
    outer loop
      vertex 18 -5.69431 1.21036
      vertex 18 -6.46564 5.10081
      vertex 18 -8.22899 2.67376
    endloop
  endfacet
  facet normal 1 0 2.22045e-16
    outer loop
      vertex 18 6.46564 5.10081
      vertex 18 4.4741 3.951
      vertex 18 5.69431 1.21036
    endloop
  endfacet
  facet normal 1 0 2.22045e-16
    outer loop
      vertex 18 -8.22899 2.67376
      vertex 18 -8.17459 6.63956
      vertex 18 -10.404 4.63217
    endloop
  endfacet
  facet normal 1 0 2.22045e-16
    outer loop
      vertex 18 4.4741 3.951
      vertex 18 2.28703 3.24038
      vertex 18 2.91076 0.305934
    endloop
  endfacet
  facet normal 1 0 2.22045e-16
    outer loop
      vertex 18 -10.404 4.63217
      vertex 18 -9.52628 8.5
      vertex 18 -12.1244 7
    endloop
  endfacet
  facet normal 1 0 2.22045e-16
    outer loop
      vertex 18 2.28703 3.24038
      vertex 18 0 3
      vertex 18 0 3.9968e-15
    endloop
  endfacet
  facet normal 1 0 2.22045e-16
    outer loop
      vertex 18 -12.1244 7
      vertex 18 -10.4616 10.6008
      vertex 18 -13.3148 9.67376
    endloop
  endfacet
  facet normal 1 0 2.22045e-16
    outer loop
      vertex 18 -2.28703 3.24038
      vertex 18 -4.4741 3.951
      vertex 18 -2.91076 0.305934
    endloop
  endfacet
  facet normal 1 0 2.22045e-16
    outer loop
      vertex 18 -13.3148 9.67376
      vertex 18 -10.9397 12.8502
      vertex 18 -13.9233 12.5366
    endloop
  endfacet
  facet normal 1 0 2.22045e-16
    outer loop
      vertex 18 -10.9397 12.8502
      vertex 18 -10.9397 15.1498
      vertex 18 -13.9233 12.5366
    endloop
  endfacet
  facet normal 1 0 2.22045e-16
    outer loop
      vertex 18 -13.9233 12.5366
      vertex 18 -10.4616 17.3992
      vertex 18 -13.9233 15.4634
    endloop
  endfacet
  facet normal 1 0 2.22045e-16
    outer loop
      vertex 18 -8.17459 6.63956
      vertex 18 -9.52628 8.5
      vertex 18 -10.404 4.63217
    endloop
  endfacet
  facet normal 1 0 2.22045e-16
    outer loop
      vertex 18 -13.9233 15.4634
      vertex 18 -9.52628 19.5
      vertex 18 -13.3148 18.3262
    endloop
  endfacet
  facet normal 1 0 2.22045e-16
    outer loop
      vertex 18 -9.52628 8.5
      vertex 18 -10.4616 10.6008
      vertex 18 -12.1244 7
    endloop
  endfacet
  facet normal 1 0 2.22045e-16
    outer loop
      vertex 18 -13.3148 18.3262
      vertex 18 -8.17459 21.3604
      vertex 18 -12.1244 21
    endloop
  endfacet
  facet normal 1 0 2.22045e-16
    outer loop
      vertex 18 -8.17459 21.3604
      vertex 18 -6.46564 22.8992
      vertex 18 -12.1244 21
    endloop
  endfacet
  facet normal 1 0 2.22045e-16
    outer loop
      vertex 18 -2.28703 24.7596
      vertex 18 2.91076 27.6941
      vertex 18 -4.4741 24.049
    endloop
  endfacet
  facet normal 1 0 2.22045e-16
    outer loop
      vertex 18 -6.46564 22.8992
      vertex 18 -4.4741 24.049
      vertex 18 -12.1244 21
    endloop
  endfacet
  facet normal 1 0 2.22045e-16
    outer loop
      vertex 18 -2.28703 24.7596
      vertex 18 0 25
      vertex 18 2.91076 27.6941
    endloop
  endfacet
  facet normal 1 0 2.22045e-16
    outer loop
      vertex 18 -9.52628 19.5
      vertex 18 -8.17459 21.3604
      vertex 18 -13.3148 18.3262
    endloop
  endfacet
  facet normal 1 0 2.22045e-16
    outer loop
      vertex 18 -10.9397 15.1498
      vertex 18 -10.4616 17.3992
      vertex 18 -13.9233 12.5366
    endloop
  endfacet
  facet normal 1 0 2.22045e-16
    outer loop
      vertex 18 0 25
      vertex 18 2.28703 24.7596
      vertex 18 2.91076 27.6941
    endloop
  endfacet
  facet normal 1 0 2.22045e-16
    outer loop
      vertex 18 -4.4741 3.951
      vertex 18 -6.46564 5.10081
      vertex 18 -5.69431 1.21036
    endloop
  endfacet
  facet normal 1 0 2.22045e-16
    outer loop
      vertex 18 2.28703 24.7596
      vertex 18 4.4741 24.049
      vertex 18 2.91076 27.6941
    endloop
  endfacet
  facet normal -1 0 -2.22045e-16
    outer loop
      vertex 6 4.4741 24.049
      vertex 6 6.46564 22.8992
      vertex 6 2.28703 24.7596
    endloop
  endfacet
  facet normal -1 0 -2.22045e-16
    outer loop
      vertex 6 2.28703 24.7596
      vertex 6 6.46564 22.8992
      vertex 6 8.17459 21.3604
    endloop
  endfacet
  facet normal -1 0 -2.22045e-16
    outer loop
      vertex 6 2.28703 24.7596
      vertex 6 8.17459 21.3604
      vertex 6 9.52628 19.5
    endloop
  endfacet
  facet normal -1 0 -2.22045e-16
    outer loop
      vertex 6 2.28703 24.7596
      vertex 6 9.52628 19.5
      vertex 6 10.4616 17.3992
    endloop
  endfacet
  facet normal -1 0 -2.22045e-16
    outer loop
      vertex 6 2.28703 24.7596
      vertex 6 10.4616 17.3992
      vertex 6 10.9397 15.1498
    endloop
  endfacet
  facet normal -1 0 -2.22045e-16
    outer loop
      vertex 6 2.28703 24.7596
      vertex 6 10.9397 15.1498
      vertex 6 10.9397 12.8502
    endloop
  endfacet
  facet normal -1 0 -2.22045e-16
    outer loop
      vertex 6 2.28703 24.7596
      vertex 6 10.9397 12.8502
      vertex 6 10.4616 10.6008
    endloop
  endfacet
  facet normal -1 0 -2.22045e-16
    outer loop
      vertex 6 2.28703 24.7596
      vertex 6 10.4616 10.6008
      vertex 6 9.52628 8.5
    endloop
  endfacet
  facet normal -1 0 -2.22045e-16
    outer loop
      vertex 6 2.28703 24.7596
      vertex 6 9.52628 8.5
      vertex 6 8.17459 6.63956
    endloop
  endfacet
  facet normal -1 0 -2.22045e-16
    outer loop
      vertex 6 2.28703 24.7596
      vertex 6 8.17459 6.63956
      vertex 6 6.46564 5.10081
    endloop
  endfacet
  facet normal -1 0 -2.22045e-16
    outer loop
      vertex 6 2.28703 24.7596
      vertex 6 6.46564 5.10081
      vertex 6 4.4741 3.951
    endloop
  endfacet
  facet normal -1 0 -2.22045e-16
    outer loop
      vertex 6 2.5 11.5
      vertex 6 4.4741 3.951
      vertex 6 2.28703 3.24038
    endloop
  endfacet
  facet normal -1 0 -2.22045e-16
    outer loop
      vertex 6 -2.5 11.5
      vertex 6 -4.4741 3.951
      vertex 6 -6.46564 5.10081
    endloop
  endfacet
  facet normal -1 0 -2.22045e-16
    outer loop
      vertex 6 -2.5 16.5
      vertex 6 -8.17459 6.63956
      vertex 6 -9.52628 8.5
    endloop
  endfacet
  facet normal -1 0 -2.22045e-16
    outer loop
      vertex 6 2.28703 24.7596
      vertex 6 -9.52628 8.5
      vertex 6 -10.4616 10.6008
    endloop
  endfacet
  facet normal -1 0 -2.22045e-16
    outer loop
      vertex 6 2.28703 24.7596
      vertex 6 -10.4616 10.6008
      vertex 6 -10.9397 12.8502
    endloop
  endfacet
  facet normal -1 0 -2.22045e-16
    outer loop
      vertex 6 2.28703 24.7596
      vertex 6 -10.9397 12.8502
      vertex 6 -10.9397 15.1498
    endloop
  endfacet
  facet normal -1 0 -2.22045e-16
    outer loop
      vertex 6 2.28703 24.7596
      vertex 6 -10.9397 15.1498
      vertex 6 -10.4616 17.3992
    endloop
  endfacet
  facet normal -1 0 -2.22045e-16
    outer loop
      vertex 6 2.28703 24.7596
      vertex 6 -10.4616 17.3992
      vertex 6 -9.52628 19.5
    endloop
  endfacet
  facet normal -1 0 -2.22045e-16
    outer loop
      vertex 6 2.28703 24.7596
      vertex 6 -9.52628 19.5
      vertex 6 -8.17459 21.3604
    endloop
  endfacet
  facet normal -1 0 -2.22045e-16
    outer loop
      vertex 6 2.28703 24.7596
      vertex 6 -8.17459 21.3604
      vertex 6 -6.46564 22.8992
    endloop
  endfacet
  facet normal -1 0 -2.22045e-16
    outer loop
      vertex 6 2.28703 24.7596
      vertex 6 -6.46564 22.8992
      vertex 6 -4.4741 24.049
    endloop
  endfacet
  facet normal -1 0 -2.22045e-16
    outer loop
      vertex 6 2.28703 24.7596
      vertex 6 -4.4741 24.049
      vertex 6 -2.28703 24.7596
    endloop
  endfacet
  facet normal -1 0 -2.22045e-16
    outer loop
      vertex 6 2.28703 24.7596
      vertex 6 -2.28703 24.7596
      vertex 6 0 25
    endloop
  endfacet
  facet normal -1 0 -2.22045e-16
    outer loop
      vertex 6 -2.5 11.5
      vertex 6 -8.17459 6.63956
      vertex 6 -2.5 16.5
    endloop
  endfacet
  facet normal -1 0 -2.22045e-16
    outer loop
      vertex 6 2.28703 24.7596
      vertex 6 -2.5 16.5
      vertex 6 -9.52628 8.5
    endloop
  endfacet
  facet normal -1 0 -2.22045e-16
    outer loop
      vertex 6 2.5 11.5
      vertex 6 -4.4741 3.951
      vertex 6 -2.5 11.5
    endloop
  endfacet
  facet normal -1 0 -2.22045e-16
    outer loop
      vertex 6 2.5 11.5
      vertex 6 -2.28703 3.24038
      vertex 6 -4.4741 3.951
    endloop
  endfacet
  facet normal -1 0 -2.22045e-16
    outer loop
      vertex 6 2.5 16.5
      vertex 6 4.4741 3.951
      vertex 6 2.5 11.5
    endloop
  endfacet
  facet normal -1 0 -2.22045e-16
    outer loop
      vertex 6 2.28703 24.7596
      vertex 6 4.4741 3.951
      vertex 6 2.5 16.5
    endloop
  endfacet
  facet normal -1 0 -2.22045e-16
    outer loop
      vertex 6 -2.5 16.5
      vertex 6 2.28703 24.7596
      vertex 6 2.5 16.5
    endloop
  endfacet
  facet normal -1 0 -2.22045e-16
    outer loop
      vertex 6 -2.5 11.5
      vertex 6 -6.46564 5.10081
      vertex 6 -8.17459 6.63956
    endloop
  endfacet
  facet normal -1 0 -2.22045e-16
    outer loop
      vertex 6 2.5 11.5
      vertex 6 2.28703 3.24038
      vertex 6 0 3
    endloop
  endfacet
  facet normal -1 0 -2.22045e-16
    outer loop
      vertex 6 2.5 11.5
      vertex 6 0 3
      vertex 6 -2.28703 3.24038
    endloop
  endfacet
  facet normal 2.20828e-16 0.104528 -0.994522
    outer loop
      vertex 18 -2.28703 24.7596
      vertex 12 -2.28703 24.7596
      vertex 18 0 25
    endloop
  endfacet
  facet normal 2.20828e-16 0.104528 -0.994522
    outer loop
      vertex 18 0 25
      vertex 12 -2.28703 24.7596
      vertex 12 0 25
    endloop
  endfacet
  facet normal 2.11177e-16 0.309017 -0.951056
    outer loop
      vertex 18 -4.4741 24.049
      vertex 12 -4.4741 24.049
      vertex 18 -2.28703 24.7596
    endloop
  endfacet
  facet normal 2.11177e-16 0.309017 -0.951056
    outer loop
      vertex 18 -2.28703 24.7596
      vertex 12 -4.4741 24.049
      vertex 12 -2.28703 24.7596
    endloop
  endfacet
  facet normal 1.92296e-16 0.5 -0.866025
    outer loop
      vertex 18 -6.46564 22.8992
      vertex 12 -6.46564 22.8992
      vertex 18 -4.4741 24.049
    endloop
  endfacet
  facet normal 1.92296e-16 0.5 -0.866025
    outer loop
      vertex 18 -4.4741 24.049
      vertex 12 -6.46564 22.8992
      vertex 12 -4.4741 24.049
    endloop
  endfacet
  facet normal 1.65011e-16 0.669131 -0.743145
    outer loop
      vertex 18 -8.17459 21.3604
      vertex 12 -8.17459 21.3604
      vertex 18 -6.46564 22.8992
    endloop
  endfacet
  facet normal 1.65011e-16 0.669131 -0.743145
    outer loop
      vertex 18 -6.46564 22.8992
      vertex 12 -8.17459 21.3604
      vertex 12 -6.46564 22.8992
    endloop
  endfacet
  facet normal 1.30515e-16 0.809017 -0.587785
    outer loop
      vertex 18 -9.52628 19.5
      vertex 12 -9.52628 19.5
      vertex 18 -8.17459 21.3604
    endloop
  endfacet
  facet normal 1.30515e-16 0.809017 -0.587785
    outer loop
      vertex 18 -8.17459 21.3604
      vertex 12 -9.52628 19.5
      vertex 12 -8.17459 21.3604
    endloop
  endfacet
  facet normal 9.03137e-17 0.913545 -0.406737
    outer loop
      vertex 18 -10.4616 17.3992
      vertex 12 -10.4616 17.3992
      vertex 18 -9.52628 19.5
    endloop
  endfacet
  facet normal 9.03137e-17 0.913545 -0.406737
    outer loop
      vertex 18 -9.52628 19.5
      vertex 12 -10.4616 17.3992
      vertex 12 -9.52628 19.5
    endloop
  endfacet
  facet normal 4.61657e-17 0.978148 -0.207912
    outer loop
      vertex 18 -10.9397 15.1498
      vertex 12 -10.9397 15.1498
      vertex 18 -10.4616 17.3992
    endloop
  endfacet
  facet normal 4.61657e-17 0.978148 -0.207912
    outer loop
      vertex 18 -10.4616 17.3992
      vertex 12 -10.9397 15.1498
      vertex 12 -10.4616 17.3992
    endloop
  endfacet
  facet normal 0 1 0
    outer loop
      vertex 18 -10.9397 12.8502
      vertex 12 -10.9397 12.8502
      vertex 18 -10.9397 15.1498
    endloop
  endfacet
  facet normal 0 1 0
    outer loop
      vertex 18 -10.9397 15.1498
      vertex 12 -10.9397 12.8502
      vertex 12 -10.9397 15.1498
    endloop
  endfacet
  facet normal -4.61657e-17 0.978148 0.207912
    outer loop
      vertex 18 -10.4616 10.6008
      vertex 12 -10.4616 10.6008
      vertex 18 -10.9397 12.8502
    endloop
  endfacet
  facet normal -4.61657e-17 0.978148 0.207912
    outer loop
      vertex 18 -10.9397 12.8502
      vertex 12 -10.4616 10.6008
      vertex 12 -10.9397 12.8502
    endloop
  endfacet
  facet normal -9.03137e-17 0.913545 0.406737
    outer loop
      vertex 18 -9.52628 8.5
      vertex 12 -9.52628 8.5
      vertex 18 -10.4616 10.6008
    endloop
  endfacet
  facet normal -9.03137e-17 0.913545 0.406737
    outer loop
      vertex 18 -10.4616 10.6008
      vertex 12 -9.52628 8.5
      vertex 12 -10.4616 10.6008
    endloop
  endfacet
  facet normal -1.30515e-16 0.809017 0.587785
    outer loop
      vertex 18 -8.17459 6.63956
      vertex 12 -8.17459 6.63956
      vertex 18 -9.52628 8.5
    endloop
  endfacet
  facet normal -1.30515e-16 0.809017 0.587785
    outer loop
      vertex 18 -9.52628 8.5
      vertex 12 -8.17459 6.63956
      vertex 12 -9.52628 8.5
    endloop
  endfacet
  facet normal -1.65011e-16 0.669131 0.743145
    outer loop
      vertex 18 -8.17459 6.63956
      vertex 18 -6.46564 5.10081
      vertex 12 -6.46564 5.10081
    endloop
  endfacet
  facet normal -1.65011e-16 0.669131 0.743145
    outer loop
      vertex 12 -8.17459 6.63956
      vertex 18 -8.17459 6.63956
      vertex 12 -6.46564 5.10081
    endloop
  endfacet
  facet normal -1.92296e-16 0.5 0.866025
    outer loop
      vertex 18 -6.46564 5.10081
      vertex 18 -4.4741 3.951
      vertex 12 -4.4741 3.951
    endloop
  endfacet
  facet normal -1.92296e-16 0.5 0.866025
    outer loop
      vertex 12 -6.46564 5.10081
      vertex 18 -6.46564 5.10081
      vertex 12 -4.4741 3.951
    endloop
  endfacet
  facet normal -2.11177e-16 0.309017 0.951056
    outer loop
      vertex 18 -4.4741 3.951
      vertex 18 -2.28703 3.24038
      vertex 12 -2.28703 3.24038
    endloop
  endfacet
  facet normal -2.11177e-16 0.309017 0.951056
    outer loop
      vertex 12 -4.4741 3.951
      vertex 18 -4.4741 3.951
      vertex 12 -2.28703 3.24038
    endloop
  endfacet
  facet normal -2.20828e-16 0.104528 0.994522
    outer loop
      vertex 18 -2.28703 3.24038
      vertex 18 0 3
      vertex 12 0 3
    endloop
  endfacet
  facet normal -2.20828e-16 0.104528 0.994522
    outer loop
      vertex 12 -2.28703 3.24038
      vertex 18 -2.28703 3.24038
      vertex 12 0 3
    endloop
  endfacet
  facet normal -2.20828e-16 -0.104528 0.994522
    outer loop
      vertex 12 0 3
      vertex 18 0 3
      vertex 18 2.28703 3.24038
    endloop
  endfacet
  facet normal -2.20828e-16 -0.104528 0.994522
    outer loop
      vertex 12 2.28703 3.24038
      vertex 12 0 3
      vertex 18 2.28703 3.24038
    endloop
  endfacet
  facet normal -2.11177e-16 -0.309017 0.951056
    outer loop
      vertex 12 2.28703 3.24038
      vertex 18 2.28703 3.24038
      vertex 18 4.4741 3.951
    endloop
  endfacet
  facet normal -2.11177e-16 -0.309017 0.951056
    outer loop
      vertex 12 4.4741 3.951
      vertex 12 2.28703 3.24038
      vertex 18 4.4741 3.951
    endloop
  endfacet
  facet normal -1.92296e-16 -0.5 0.866025
    outer loop
      vertex 12 4.4741 3.951
      vertex 18 4.4741 3.951
      vertex 18 6.46564 5.10081
    endloop
  endfacet
  facet normal -1.92296e-16 -0.5 0.866025
    outer loop
      vertex 12 6.46564 5.10081
      vertex 12 4.4741 3.951
      vertex 18 6.46564 5.10081
    endloop
  endfacet
  facet normal -1.65011e-16 -0.669131 0.743145
    outer loop
      vertex 12 6.46564 5.10081
      vertex 18 6.46564 5.10081
      vertex 18 8.17459 6.63956
    endloop
  endfacet
  facet normal -1.65011e-16 -0.669131 0.743145
    outer loop
      vertex 12 8.17459 6.63956
      vertex 12 6.46564 5.10081
      vertex 18 8.17459 6.63956
    endloop
  endfacet
  facet normal -1.30515e-16 -0.809017 0.587785
    outer loop
      vertex 12 8.17459 6.63956
      vertex 18 8.17459 6.63956
      vertex 18 9.52628 8.5
    endloop
  endfacet
  facet normal -1.30515e-16 -0.809017 0.587785
    outer loop
      vertex 12 9.52628 8.5
      vertex 12 8.17459 6.63956
      vertex 18 9.52628 8.5
    endloop
  endfacet
  facet normal -9.03137e-17 -0.913545 0.406737
    outer loop
      vertex 12 9.52628 8.5
      vertex 18 9.52628 8.5
      vertex 18 10.4616 10.6008
    endloop
  endfacet
  facet normal -9.03137e-17 -0.913545 0.406737
    outer loop
      vertex 12 10.4616 10.6008
      vertex 12 9.52628 8.5
      vertex 18 10.4616 10.6008
    endloop
  endfacet
  facet normal -4.61657e-17 -0.978148 0.207912
    outer loop
      vertex 12 10.4616 10.6008
      vertex 18 10.4616 10.6008
      vertex 18 10.9397 12.8502
    endloop
  endfacet
  facet normal -4.61657e-17 -0.978148 0.207912
    outer loop
      vertex 12 10.9397 12.8502
      vertex 12 10.4616 10.6008
      vertex 18 10.9397 12.8502
    endloop
  endfacet
  facet normal 0 -1 0
    outer loop
      vertex 12 10.9397 12.8502
      vertex 18 10.9397 12.8502
      vertex 18 10.9397 15.1498
    endloop
  endfacet
  facet normal 0 -1 0
    outer loop
      vertex 12 10.9397 15.1498
      vertex 12 10.9397 12.8502
      vertex 18 10.9397 15.1498
    endloop
  endfacet
  facet normal 4.61657e-17 -0.978148 -0.207912
    outer loop
      vertex 12 10.9397 15.1498
      vertex 18 10.9397 15.1498
      vertex 18 10.4616 17.3992
    endloop
  endfacet
  facet normal 4.61657e-17 -0.978148 -0.207912
    outer loop
      vertex 12 10.4616 17.3992
      vertex 12 10.9397 15.1498
      vertex 18 10.4616 17.3992
    endloop
  endfacet
  facet normal 9.03137e-17 -0.913545 -0.406737
    outer loop
      vertex 12 10.4616 17.3992
      vertex 18 10.4616 17.3992
      vertex 18 9.52628 19.5
    endloop
  endfacet
  facet normal 9.03137e-17 -0.913545 -0.406737
    outer loop
      vertex 12 9.52628 19.5
      vertex 12 10.4616 17.3992
      vertex 18 9.52628 19.5
    endloop
  endfacet
  facet normal 1.30515e-16 -0.809017 -0.587785
    outer loop
      vertex 12 9.52628 19.5
      vertex 18 9.52628 19.5
      vertex 18 8.17459 21.3604
    endloop
  endfacet
  facet normal 1.30515e-16 -0.809017 -0.587785
    outer loop
      vertex 12 8.17459 21.3604
      vertex 12 9.52628 19.5
      vertex 18 8.17459 21.3604
    endloop
  endfacet
  facet normal 1.65011e-16 -0.669131 -0.743145
    outer loop
      vertex 18 8.17459 21.3604
      vertex 18 6.46564 22.8992
      vertex 12 8.17459 21.3604
    endloop
  endfacet
  facet normal 1.65011e-16 -0.669131 -0.743145
    outer loop
      vertex 12 8.17459 21.3604
      vertex 18 6.46564 22.8992
      vertex 12 6.46564 22.8992
    endloop
  endfacet
  facet normal 1.92296e-16 -0.5 -0.866025
    outer loop
      vertex 18 6.46564 22.8992
      vertex 18 4.4741 24.049
      vertex 12 6.46564 22.8992
    endloop
  endfacet
  facet normal 1.92296e-16 -0.5 -0.866025
    outer loop
      vertex 12 6.46564 22.8992
      vertex 18 4.4741 24.049
      vertex 12 4.4741 24.049
    endloop
  endfacet
  facet normal 2.11177e-16 -0.309017 -0.951056
    outer loop
      vertex 18 4.4741 24.049
      vertex 18 2.28703 24.7596
      vertex 12 4.4741 24.049
    endloop
  endfacet
  facet normal 2.11177e-16 -0.309017 -0.951056
    outer loop
      vertex 12 4.4741 24.049
      vertex 18 2.28703 24.7596
      vertex 12 2.28703 24.7596
    endloop
  endfacet
  facet normal 2.20828e-16 -0.104528 -0.994522
    outer loop
      vertex 18 2.28703 24.7596
      vertex 18 0 25
      vertex 12 2.28703 24.7596
    endloop
  endfacet
  facet normal 2.20828e-16 -0.104528 -0.994522
    outer loop
      vertex 12 2.28703 24.7596
      vertex 18 0 25
      vertex 12 0 25
    endloop
  endfacet
  facet normal 2.22045e-16 0 -1
    outer loop
      vertex 12 2.5 16.5
      vertex 12 -2.5 16.5
      vertex 6 2.5 16.5
    endloop
  endfacet
  facet normal 2.22045e-16 0 -1
    outer loop
      vertex 6 2.5 16.5
      vertex 12 -2.5 16.5
      vertex 6 -2.5 16.5
    endloop
  endfacet
  facet normal 0 1 0
    outer loop
      vertex 12 -2.5 11.5
      vertex 6 -2.5 11.5
      vertex 12 -2.5 16.5
    endloop
  endfacet
  facet normal 0 1 0
    outer loop
      vertex 12 -2.5 16.5
      vertex 6 -2.5 11.5
      vertex 6 -2.5 16.5
    endloop
  endfacet
  facet normal 0 -1 0
    outer loop
      vertex 6 2.5 11.5
      vertex 12 2.5 11.5
      vertex 12 2.5 16.5
    endloop
  endfacet
  facet normal 0 -1 0
    outer loop
      vertex 6 2.5 16.5
      vertex 6 2.5 11.5
      vertex 12 2.5 16.5
    endloop
  endfacet
  facet normal -2.22045e-16 0 1
    outer loop
      vertex 12 -2.5 11.5
      vertex 12 2.5 11.5
      vertex 6 2.5 11.5
    endloop
  endfacet
  facet normal -2.22045e-16 0 1
    outer loop
      vertex 6 -2.5 11.5
      vertex 12 -2.5 11.5
      vertex 6 2.5 11.5
    endloop
  endfacet
  facet normal 1 0 2.22045e-16
    outer loop
      vertex 12 -2.28703 24.7596
      vertex 12 -4.4741 24.049
      vertex 12 -6.46564 22.8992
    endloop
  endfacet
  facet normal 1 0 2.22045e-16
    outer loop
      vertex 12 -9.52628 19.5
      vertex 12 -2.28703 24.7596
      vertex 12 -8.17459 21.3604
    endloop
  endfacet
  facet normal 1 0 2.22045e-16
    outer loop
      vertex 12 -8.17459 21.3604
      vertex 12 -2.28703 24.7596
      vertex 12 -6.46564 22.8992
    endloop
  endfacet
  facet normal 1 0 2.22045e-16
    outer loop
      vertex 12 -10.4616 17.3992
      vertex 12 -2.28703 24.7596
      vertex 12 -9.52628 19.5
    endloop
  endfacet
  facet normal 1 0 2.22045e-16
    outer loop
      vertex 12 -10.9397 15.1498
      vertex 12 -2.28703 24.7596
      vertex 12 -10.4616 17.3992
    endloop
  endfacet
  facet normal 1 0 2.22045e-16
    outer loop
      vertex 12 -10.9397 12.8502
      vertex 12 -2.28703 24.7596
      vertex 12 -10.9397 15.1498
    endloop
  endfacet
  facet normal 1 0 2.22045e-16
    outer loop
      vertex 12 -10.4616 10.6008
      vertex 12 -2.28703 24.7596
      vertex 12 -10.9397 12.8502
    endloop
  endfacet
  facet normal 1 0 2.22045e-16
    outer loop
      vertex 12 -9.52628 8.5
      vertex 12 -2.28703 24.7596
      vertex 12 -10.4616 10.6008
    endloop
  endfacet
  facet normal 1 0 2.22045e-16
    outer loop
      vertex 12 -8.17459 6.63956
      vertex 12 -2.28703 24.7596
      vertex 12 -9.52628 8.5
    endloop
  endfacet
  facet normal 1 0 2.22045e-16
    outer loop
      vertex 12 -6.46564 5.10081
      vertex 12 -2.28703 24.7596
      vertex 12 -8.17459 6.63956
    endloop
  endfacet
  facet normal 1 0 2.22045e-16
    outer loop
      vertex 12 -4.4741 3.951
      vertex 12 -2.28703 24.7596
      vertex 12 -6.46564 5.10081
    endloop
  endfacet
  facet normal 1 0 2.22045e-16
    outer loop
      vertex 12 -2.5 16.5
      vertex 12 -2.28703 24.7596
      vertex 12 -4.4741 3.951
    endloop
  endfacet
  facet normal 1 0 2.22045e-16
    outer loop
      vertex 12 2.5 11.5
      vertex 12 -2.5 11.5
      vertex 12 -2.28703 3.24038
    endloop
  endfacet
  facet normal 1 0 2.22045e-16
    outer loop
      vertex 12 2.5 11.5
      vertex 12 0 3
      vertex 12 2.28703 3.24038
    endloop
  endfacet
  facet normal 1 0 2.22045e-16
    outer loop
      vertex 12 10.4616 10.6008
      vertex 12 -2.28703 24.7596
      vertex 12 9.52628 8.5
    endloop
  endfacet
  facet normal 1 0 2.22045e-16
    outer loop
      vertex 12 10.9397 12.8502
      vertex 12 -2.28703 24.7596
      vertex 12 10.4616 10.6008
    endloop
  endfacet
  facet normal 1 0 2.22045e-16
    outer loop
      vertex 12 10.9397 15.1498
      vertex 12 -2.28703 24.7596
      vertex 12 10.9397 12.8502
    endloop
  endfacet
  facet normal 1 0 2.22045e-16
    outer loop
      vertex 12 10.4616 17.3992
      vertex 12 -2.28703 24.7596
      vertex 12 10.9397 15.1498
    endloop
  endfacet
  facet normal 1 0 2.22045e-16
    outer loop
      vertex 12 9.52628 19.5
      vertex 12 -2.28703 24.7596
      vertex 12 10.4616 17.3992
    endloop
  endfacet
  facet normal 1 0 2.22045e-16
    outer loop
      vertex 12 8.17459 21.3604
      vertex 12 -2.28703 24.7596
      vertex 12 9.52628 19.5
    endloop
  endfacet
  facet normal 1 0 2.22045e-16
    outer loop
      vertex 12 6.46564 22.8992
      vertex 12 -2.28703 24.7596
      vertex 12 8.17459 21.3604
    endloop
  endfacet
  facet normal 1 0 2.22045e-16
    outer loop
      vertex 12 4.4741 24.049
      vertex 12 -2.28703 24.7596
      vertex 12 6.46564 22.8992
    endloop
  endfacet
  facet normal 1 0 2.22045e-16
    outer loop
      vertex 12 2.28703 24.7596
      vertex 12 -2.28703 24.7596
      vertex 12 4.4741 24.049
    endloop
  endfacet
  facet normal 1 0 2.22045e-16
    outer loop
      vertex 12 0 25
      vertex 12 -2.28703 24.7596
      vertex 12 2.28703 24.7596
    endloop
  endfacet
  facet normal 1 0 2.22045e-16
    outer loop
      vertex 12 9.52628 8.5
      vertex 12 2.5 16.5
      vertex 12 8.17459 6.63956
    endloop
  endfacet
  facet normal 1 0 2.22045e-16
    outer loop
      vertex 12 9.52628 8.5
      vertex 12 -2.28703 24.7596
      vertex 12 2.5 16.5
    endloop
  endfacet
  facet normal 1 0 2.22045e-16
    outer loop
      vertex 12 6.46564 5.10081
      vertex 12 2.5 11.5
      vertex 12 4.4741 3.951
    endloop
  endfacet
  facet normal 1 0 2.22045e-16
    outer loop
      vertex 12 2.5 11.5
      vertex 12 -2.28703 3.24038
      vertex 12 0 3
    endloop
  endfacet
  facet normal 1 0 2.22045e-16
    outer loop
      vertex 12 -2.28703 3.24038
      vertex 12 -2.5 11.5
      vertex 12 -4.4741 3.951
    endloop
  endfacet
  facet normal 1 0 2.22045e-16
    outer loop
      vertex 12 -2.5 11.5
      vertex 12 -2.5 16.5
      vertex 12 -4.4741 3.951
    endloop
  endfacet
  facet normal 1 0 2.22045e-16
    outer loop
      vertex 12 2.5 16.5
      vertex 12 6.46564 5.10081
      vertex 12 8.17459 6.63956
    endloop
  endfacet
  facet normal 1 0 2.22045e-16
    outer loop
      vertex 12 2.5 16.5
      vertex 12 2.5 11.5
      vertex 12 6.46564 5.10081
    endloop
  endfacet
  facet normal 1 0 2.22045e-16
    outer loop
      vertex 12 2.5 11.5
      vertex 12 2.28703 3.24038
      vertex 12 4.4741 3.951
    endloop
  endfacet
  facet normal 1 0 2.22045e-16
    outer loop
      vertex 12 -2.5 16.5
      vertex 12 2.5 16.5
      vertex 12 -2.28703 24.7596
    endloop
  endfacet
endsolid OpenSCAD_Model
