solid OpenSCAD_Model
  facet normal 0 0 -1
    outer loop
      vertex -10.9 0 0
      vertex -10.6618 2.26624 0
      vertex -10.6618 -2.26624 0
    endloop
  endfacet
  facet normal 0 0 -1
    outer loop
      vertex -10.6618 -2.26624 0
      vertex -10.6618 2.26624 0
      vertex -9.95764 4.43343 0
    endloop
  endfacet
  facet normal 0 0 -1
    outer loop
      vertex -9.78148 2.07912 0
      vertex -9.95764 4.43343 0
      vertex -8.81828 6.40686 0
    endloop
  endfacet
  facet normal 0 0 -1
    outer loop
      vertex -8.09017 5.87785 0
      vertex -8.81828 6.40686 0
      vertex -7.29352 8.10028 0
    endloop
  endfacet
  facet normal 0 0 -1
    outer loop
      vertex -6.69131 7.43145 0
      vertex -7.29352 8.10028 0
      vertex -5.45 9.43968 0
    endloop
  endfacet
  facet normal 0 0 -1
    outer loop
      vertex -5 8.66025 0
      vertex -5.45 9.43968 0
      vertex -3.36828 10.3665 0
    endloop
  endfacet
  facet normal 0 0 -1
    outer loop
      vertex -3.09017 9.51056 0
      vertex -3.36828 10.3665 0
      vertex -1.13936 10.8403 0
    endloop
  endfacet
  facet normal 0 0 -1
    outer loop
      vertex -1.04529 9.94522 0
      vertex -1.13936 10.8403 0
      vertex 1.13936 10.8403 0
    endloop
  endfacet
  facet normal 0 0 -1
    outer loop
      vertex 1.04529 9.94522 0
      vertex 1.13936 10.8403 0
      vertex 3.36828 10.3665 0
    endloop
  endfacet
  facet normal 0 0 -1
    outer loop
      vertex 3.09017 9.51056 0
      vertex 3.36828 10.3665 0
      vertex 5.45 9.43968 0
    endloop
  endfacet
  facet normal 0 0 -1
    outer loop
      vertex 5 8.66025 0
      vertex 5.45 9.43968 0
      vertex 7.29352 8.10028 0
    endloop
  endfacet
  facet normal 0 0 -1
    outer loop
      vertex 6.69131 7.43145 0
      vertex 7.29352 8.10028 0
      vertex 8.81828 6.40686 0
    endloop
  endfacet
  facet normal 0 0 -1
    outer loop
      vertex 8.09017 5.87785 0
      vertex 8.81828 6.40686 0
      vertex 9.95764 4.43343 0
    endloop
  endfacet
  facet normal 0 0 -1
    outer loop
      vertex 9.78148 2.07912 0
      vertex 9.95764 4.43343 0
      vertex 10.6618 2.26624 0
    endloop
  endfacet
  facet normal 0 0 -1
    outer loop
      vertex 10 0 0
      vertex 10.6618 2.26624 0
      vertex 10.9 0 0
    endloop
  endfacet
  facet normal 0 0 -1
    outer loop
      vertex 9.78148 -2.07912 0
      vertex 10.9 0 0
      vertex 10.6618 -2.26624 0
    endloop
  endfacet
  facet normal 0 0 -1
    outer loop
      vertex 9.13546 -4.06737 0
      vertex 10.6618 -2.26624 0
      vertex 9.95764 -4.43343 0
    endloop
  endfacet
  facet normal 0 0 -1
    outer loop
      vertex 8.09017 -5.87785 0
      vertex 9.95764 -4.43343 0
      vertex 8.81828 -6.40686 0
    endloop
  endfacet
  facet normal 0 0 -1
    outer loop
      vertex 6.69131 -7.43145 0
      vertex 8.81828 -6.40686 0
      vertex 7.29352 -8.10028 0
    endloop
  endfacet
  facet normal 0 0 -1
    outer loop
      vertex 5 -8.66025 0
      vertex 7.29352 -8.10028 0
      vertex 5.45 -9.43968 0
    endloop
  endfacet
  facet normal 0 0 -1
    outer loop
      vertex 3.09017 -9.51056 0
      vertex 5.45 -9.43968 0
      vertex 3.36828 -10.3665 0
    endloop
  endfacet
  facet normal 0 0 -1
    outer loop
      vertex 1.04529 -9.94522 0
      vertex 3.36828 -10.3665 0
      vertex 1.13936 -10.8403 0
    endloop
  endfacet
  facet normal 0 0 -1
    outer loop
      vertex -1.04529 -9.94522 0
      vertex 1.13936 -10.8403 0
      vertex -1.13936 -10.8403 0
    endloop
  endfacet
  facet normal 0 0 -1
    outer loop
      vertex -3.09017 -9.51056 0
      vertex -1.13936 -10.8403 0
      vertex -3.36828 -10.3665 0
    endloop
  endfacet
  facet normal 0 0 -1
    outer loop
      vertex -6.69131 -7.43145 0
      vertex -3.36828 -10.3665 0
      vertex -5.45 -9.43968 0
    endloop
  endfacet
  facet normal 0 0 -1
    outer loop
      vertex -8.09017 -5.87785 0
      vertex -5.45 -9.43968 0
      vertex -7.29352 -8.10028 0
    endloop
  endfacet
  facet normal 0 0 -1
    outer loop
      vertex -10.6618 -2.26624 0
      vertex -7.29352 -8.10028 0
      vertex -8.81828 -6.40686 0
    endloop
  endfacet
  facet normal 0 0 -1
    outer loop
      vertex -10.6618 -2.26624 0
      vertex -8.81828 -6.40686 0
      vertex -9.95764 -4.43343 0
    endloop
  endfacet
  facet normal 0 0 -1
    outer loop
      vertex -9.78148 -2.07912 0
      vertex -10.6618 -2.26624 0
      vertex -10 0 0
    endloop
  endfacet
  facet normal 0 0 -1
    outer loop
      vertex -9.13546 -4.06737 0
      vertex -10.6618 -2.26624 0
      vertex -9.78148 -2.07912 0
    endloop
  endfacet
  facet normal 0 0 -1
    outer loop
      vertex -8.09017 -5.87785 0
      vertex -10.6618 -2.26624 0
      vertex -9.13546 -4.06737 0
    endloop
  endfacet
  facet normal 0 0 -1
    outer loop
      vertex -6.69131 -7.43145 0
      vertex -5.45 -9.43968 0
      vertex -8.09017 -5.87785 0
    endloop
  endfacet
  facet normal 0 0 -1
    outer loop
      vertex -10.6618 -2.26624 0
      vertex -8.09017 -5.87785 0
      vertex -7.29352 -8.10028 0
    endloop
  endfacet
  facet normal 0 0 -1
    outer loop
      vertex -5 -8.66025 0
      vertex -3.36828 -10.3665 0
      vertex -6.69131 -7.43145 0
    endloop
  endfacet
  facet normal 0 0 -1
    outer loop
      vertex -3.09017 -9.51056 0
      vertex -3.36828 -10.3665 0
      vertex -5 -8.66025 0
    endloop
  endfacet
  facet normal 0 0 -1
    outer loop
      vertex 9.78148 2.07912 0
      vertex 10.6618 2.26624 0
      vertex 10 0 0
    endloop
  endfacet
  facet normal 0 0 -1
    outer loop
      vertex 9.13546 4.06737 0
      vertex 9.95764 4.43343 0
      vertex 9.78148 2.07912 0
    endloop
  endfacet
  facet normal 0 0 -1
    outer loop
      vertex 10 0 0
      vertex 10.9 0 0
      vertex 9.78148 -2.07912 0
    endloop
  endfacet
  facet normal 0 0 -1
    outer loop
      vertex 9.78148 -2.07912 0
      vertex 10.6618 -2.26624 0
      vertex 9.13546 -4.06737 0
    endloop
  endfacet
  facet normal 0 0 -1
    outer loop
      vertex 9.13546 -4.06737 0
      vertex 9.95764 -4.43343 0
      vertex 8.09017 -5.87785 0
    endloop
  endfacet
  facet normal 0 0 -1
    outer loop
      vertex 8.09017 -5.87785 0
      vertex 8.81828 -6.40686 0
      vertex 6.69131 -7.43145 0
    endloop
  endfacet
  facet normal 0 0 -1
    outer loop
      vertex 6.69131 -7.43145 0
      vertex 7.29352 -8.10028 0
      vertex 5 -8.66025 0
    endloop
  endfacet
  facet normal 0 0 -1
    outer loop
      vertex 5 -8.66025 0
      vertex 5.45 -9.43968 0
      vertex 3.09017 -9.51056 0
    endloop
  endfacet
  facet normal 0 0 -1
    outer loop
      vertex 3.09017 -9.51056 0
      vertex 3.36828 -10.3665 0
      vertex 1.04529 -9.94522 0
    endloop
  endfacet
  facet normal 0 0 -1
    outer loop
      vertex 1.04529 -9.94522 0
      vertex 1.13936 -10.8403 0
      vertex -1.04529 -9.94522 0
    endloop
  endfacet
  facet normal 0 0 -1
    outer loop
      vertex -1.04529 -9.94522 0
      vertex -1.13936 -10.8403 0
      vertex -3.09017 -9.51056 0
    endloop
  endfacet
  facet normal 0 0 -1
    outer loop
      vertex -9.13546 4.06737 0
      vertex -8.81828 6.40686 0
      vertex -8.09017 5.87785 0
    endloop
  endfacet
  facet normal 0 0 -1
    outer loop
      vertex -9.78148 2.07912 0
      vertex -8.81828 6.40686 0
      vertex -9.13546 4.06737 0
    endloop
  endfacet
  facet normal 0 0 -1
    outer loop
      vertex -10.6618 -2.26624 0
      vertex -9.95764 4.43343 0
      vertex -9.78148 2.07912 0
    endloop
  endfacet
  facet normal 0 0 -1
    outer loop
      vertex -10 0 0
      vertex -10.6618 -2.26624 0
      vertex -9.78148 2.07912 0
    endloop
  endfacet
  facet normal 0 0 -1
    outer loop
      vertex -8.09017 5.87785 0
      vertex -7.29352 8.10028 0
      vertex -6.69131 7.43145 0
    endloop
  endfacet
  facet normal 0 0 -1
    outer loop
      vertex -6.69131 7.43145 0
      vertex -5.45 9.43968 0
      vertex -5 8.66025 0
    endloop
  endfacet
  facet normal 0 0 -1
    outer loop
      vertex -5 8.66025 0
      vertex -3.36828 10.3665 0
      vertex -3.09017 9.51056 0
    endloop
  endfacet
  facet normal 0 0 -1
    outer loop
      vertex -3.09017 9.51056 0
      vertex -1.13936 10.8403 0
      vertex -1.04529 9.94522 0
    endloop
  endfacet
  facet normal 0 0 -1
    outer loop
      vertex -1.04529 9.94522 0
      vertex 1.13936 10.8403 0
      vertex 1.04529 9.94522 0
    endloop
  endfacet
  facet normal 0 0 -1
    outer loop
      vertex 1.04529 9.94522 0
      vertex 3.36828 10.3665 0
      vertex 3.09017 9.51056 0
    endloop
  endfacet
  facet normal 0 0 -1
    outer loop
      vertex 3.09017 9.51056 0
      vertex 5.45 9.43968 0
      vertex 5 8.66025 0
    endloop
  endfacet
  facet normal 0 0 -1
    outer loop
      vertex 5 8.66025 0
      vertex 7.29352 8.10028 0
      vertex 6.69131 7.43145 0
    endloop
  endfacet
  facet normal 0 0 -1
    outer loop
      vertex 6.69131 7.43145 0
      vertex 8.81828 6.40686 0
      vertex 8.09017 5.87785 0
    endloop
  endfacet
  facet normal 0 0 -1
    outer loop
      vertex 8.09017 5.87785 0
      vertex 9.95764 4.43343 0
      vertex 9.13546 4.06737 0
    endloop
  endfacet
  facet normal -0.994522 0.104528 0
    outer loop
      vertex -10.9 0 0
      vertex -10.9 0 10
      vertex -10.6618 2.26624 0
    endloop
  endfacet
  facet normal -0.994522 0.104528 0
    outer loop
      vertex -10.6618 2.26624 0
      vertex -10.9 0 10
      vertex -10.6618 2.26624 10
    endloop
  endfacet
  facet normal -0.994522 -0.104528 0
    outer loop
      vertex -10.9 0 0
      vertex -10.6618 -2.26624 0
      vertex -10.9 0 10
    endloop
  endfacet
  facet normal -0.994522 -0.104528 0
    outer loop
      vertex -10.9 0 10
      vertex -10.6618 -2.26624 0
      vertex -10.6618 -2.26624 10
    endloop
  endfacet
  facet normal -0.951056 -0.309017 0
    outer loop
      vertex -10.6618 -2.26624 0
      vertex -9.95764 -4.43343 0
      vertex -10.6618 -2.26624 10
    endloop
  endfacet
  facet normal -0.951056 -0.309017 0
    outer loop
      vertex -10.6618 -2.26624 10
      vertex -9.95764 -4.43343 0
      vertex -9.95764 -4.43343 10
    endloop
  endfacet
  facet normal -0.866025 -0.5 0
    outer loop
      vertex -9.95764 -4.43343 0
      vertex -8.81828 -6.40686 0
      vertex -9.95764 -4.43343 10
    endloop
  endfacet
  facet normal -0.866025 -0.5 0
    outer loop
      vertex -9.95764 -4.43343 10
      vertex -8.81828 -6.40686 0
      vertex -8.81828 -6.40686 10
    endloop
  endfacet
  facet normal -0.743145 -0.66913 0
    outer loop
      vertex -8.81828 -6.40686 0
      vertex -7.29352 -8.10028 0
      vertex -8.81828 -6.40686 10
    endloop
  endfacet
  facet normal -0.743145 -0.66913 0
    outer loop
      vertex -8.81828 -6.40686 10
      vertex -7.29352 -8.10028 0
      vertex -7.29352 -8.10028 10
    endloop
  endfacet
  facet normal -0.587785 -0.809017 0
    outer loop
      vertex -7.29352 -8.10028 10
      vertex -7.29352 -8.10028 0
      vertex -5.45 -9.43968 0
    endloop
  endfacet
  facet normal -0.587785 -0.809017 0
    outer loop
      vertex -5.45 -9.43968 10
      vertex -7.29352 -8.10028 10
      vertex -5.45 -9.43968 0
    endloop
  endfacet
  facet normal -0.406737 -0.913545 0
    outer loop
      vertex -5.45 -9.43968 10
      vertex -5.45 -9.43968 0
      vertex -3.36828 -10.3665 0
    endloop
  endfacet
  facet normal -0.406737 -0.913545 0
    outer loop
      vertex -3.36828 -10.3665 10
      vertex -5.45 -9.43968 10
      vertex -3.36828 -10.3665 0
    endloop
  endfacet
  facet normal -0.207912 -0.978148 0
    outer loop
      vertex -3.36828 -10.3665 10
      vertex -3.36828 -10.3665 0
      vertex -1.13936 -10.8403 0
    endloop
  endfacet
  facet normal -0.207912 -0.978148 0
    outer loop
      vertex -1.13936 -10.8403 10
      vertex -3.36828 -10.3665 10
      vertex -1.13936 -10.8403 0
    endloop
  endfacet
  facet normal 0 -1 0
    outer loop
      vertex -1.13936 -10.8403 10
      vertex -1.13936 -10.8403 0
      vertex 1.13936 -10.8403 0
    endloop
  endfacet
  facet normal 0 -1 0
    outer loop
      vertex 1.13936 -10.8403 10
      vertex -1.13936 -10.8403 10
      vertex 1.13936 -10.8403 0
    endloop
  endfacet
  facet normal 0.207912 -0.978148 0
    outer loop
      vertex 1.13936 -10.8403 10
      vertex 1.13936 -10.8403 0
      vertex 3.36828 -10.3665 0
    endloop
  endfacet
  facet normal 0.207912 -0.978148 0
    outer loop
      vertex 3.36828 -10.3665 10
      vertex 1.13936 -10.8403 10
      vertex 3.36828 -10.3665 0
    endloop
  endfacet
  facet normal 0.406737 -0.913545 0
    outer loop
      vertex 3.36828 -10.3665 10
      vertex 3.36828 -10.3665 0
      vertex 5.45 -9.43968 0
    endloop
  endfacet
  facet normal 0.406737 -0.913545 0
    outer loop
      vertex 5.45 -9.43968 10
      vertex 3.36828 -10.3665 10
      vertex 5.45 -9.43968 0
    endloop
  endfacet
  facet normal 0.587785 -0.809017 0
    outer loop
      vertex 5.45 -9.43968 10
      vertex 5.45 -9.43968 0
      vertex 7.29352 -8.10028 0
    endloop
  endfacet
  facet normal 0.587785 -0.809017 0
    outer loop
      vertex 7.29352 -8.10028 10
      vertex 5.45 -9.43968 10
      vertex 7.29352 -8.10028 0
    endloop
  endfacet
  facet normal 0.743145 -0.66913 0
    outer loop
      vertex 7.29352 -8.10028 10
      vertex 7.29352 -8.10028 0
      vertex 8.81828 -6.40686 0
    endloop
  endfacet
  facet normal 0.743145 -0.66913 0
    outer loop
      vertex 8.81828 -6.40686 10
      vertex 7.29352 -8.10028 10
      vertex 8.81828 -6.40686 0
    endloop
  endfacet
  facet normal 0.866025 -0.5 0
    outer loop
      vertex 8.81828 -6.40686 10
      vertex 8.81828 -6.40686 0
      vertex 9.95764 -4.43343 0
    endloop
  endfacet
  facet normal 0.866025 -0.5 0
    outer loop
      vertex 9.95764 -4.43343 10
      vertex 8.81828 -6.40686 10
      vertex 9.95764 -4.43343 0
    endloop
  endfacet
  facet normal 0.951056 -0.309017 0
    outer loop
      vertex 9.95764 -4.43343 10
      vertex 9.95764 -4.43343 0
      vertex 10.6618 -2.26624 0
    endloop
  endfacet
  facet normal 0.951056 -0.309017 0
    outer loop
      vertex 10.6618 -2.26624 10
      vertex 9.95764 -4.43343 10
      vertex 10.6618 -2.26624 0
    endloop
  endfacet
  facet normal 0.994522 -0.104528 0
    outer loop
      vertex 10.6618 -2.26624 10
      vertex 10.6618 -2.26624 0
      vertex 10.9 0 0
    endloop
  endfacet
  facet normal 0.994522 -0.104528 0
    outer loop
      vertex 10.9 0 10
      vertex 10.6618 -2.26624 10
      vertex 10.9 0 0
    endloop
  endfacet
  facet normal 0.994522 0.104528 0
    outer loop
      vertex 10.9 0 0
      vertex 10.6618 2.26624 0
      vertex 10.6618 2.26624 10
    endloop
  endfacet
  facet normal 0.994522 0.104528 0
    outer loop
      vertex 10.9 0 10
      vertex 10.9 0 0
      vertex 10.6618 2.26624 10
    endloop
  endfacet
  facet normal 0.951056 0.309017 0
    outer loop
      vertex 10.6618 2.26624 0
      vertex 9.95764 4.43343 0
      vertex 9.95764 4.43343 10
    endloop
  endfacet
  facet normal 0.951056 0.309017 0
    outer loop
      vertex 10.6618 2.26624 10
      vertex 10.6618 2.26624 0
      vertex 9.95764 4.43343 10
    endloop
  endfacet
  facet normal 0.866025 0.5 0
    outer loop
      vertex 9.95764 4.43343 0
      vertex 8.81828 6.40686 0
      vertex 8.81828 6.40686 10
    endloop
  endfacet
  facet normal 0.866025 0.5 0
    outer loop
      vertex 9.95764 4.43343 10
      vertex 9.95764 4.43343 0
      vertex 8.81828 6.40686 10
    endloop
  endfacet
  facet normal 0.743145 0.66913 0
    outer loop
      vertex 8.81828 6.40686 0
      vertex 7.29352 8.10028 0
      vertex 7.29352 8.10028 10
    endloop
  endfacet
  facet normal 0.743145 0.66913 0
    outer loop
      vertex 8.81828 6.40686 10
      vertex 8.81828 6.40686 0
      vertex 7.29352 8.10028 10
    endloop
  endfacet
  facet normal 0.587785 0.809017 0
    outer loop
      vertex 5.45 9.43968 0
      vertex 5.45 9.43968 10
      vertex 7.29352 8.10028 0
    endloop
  endfacet
  facet normal 0.587785 0.809017 0
    outer loop
      vertex 7.29352 8.10028 0
      vertex 5.45 9.43968 10
      vertex 7.29352 8.10028 10
    endloop
  endfacet
  facet normal 0.406737 0.913545 0
    outer loop
      vertex 3.36828 10.3665 0
      vertex 3.36828 10.3665 10
      vertex 5.45 9.43968 0
    endloop
  endfacet
  facet normal 0.406737 0.913545 0
    outer loop
      vertex 5.45 9.43968 0
      vertex 3.36828 10.3665 10
      vertex 5.45 9.43968 10
    endloop
  endfacet
  facet normal 0.207912 0.978148 0
    outer loop
      vertex 1.13936 10.8403 0
      vertex 1.13936 10.8403 10
      vertex 3.36828 10.3665 0
    endloop
  endfacet
  facet normal 0.207912 0.978148 0
    outer loop
      vertex 3.36828 10.3665 0
      vertex 1.13936 10.8403 10
      vertex 3.36828 10.3665 10
    endloop
  endfacet
  facet normal 0 1 0
    outer loop
      vertex -1.13936 10.8403 0
      vertex -1.13936 10.8403 10
      vertex 1.13936 10.8403 0
    endloop
  endfacet
  facet normal 0 1 0
    outer loop
      vertex 1.13936 10.8403 0
      vertex -1.13936 10.8403 10
      vertex 1.13936 10.8403 10
    endloop
  endfacet
  facet normal -0.207912 0.978148 0
    outer loop
      vertex -3.36828 10.3665 0
      vertex -3.36828 10.3665 10
      vertex -1.13936 10.8403 0
    endloop
  endfacet
  facet normal -0.207912 0.978148 0
    outer loop
      vertex -1.13936 10.8403 0
      vertex -3.36828 10.3665 10
      vertex -1.13936 10.8403 10
    endloop
  endfacet
  facet normal -0.406737 0.913545 0
    outer loop
      vertex -5.45 9.43968 0
      vertex -5.45 9.43968 10
      vertex -3.36828 10.3665 0
    endloop
  endfacet
  facet normal -0.406737 0.913545 0
    outer loop
      vertex -3.36828 10.3665 0
      vertex -5.45 9.43968 10
      vertex -3.36828 10.3665 10
    endloop
  endfacet
  facet normal -0.587785 0.809017 0
    outer loop
      vertex -7.29352 8.10028 0
      vertex -7.29352 8.10028 10
      vertex -5.45 9.43968 0
    endloop
  endfacet
  facet normal -0.587785 0.809017 0
    outer loop
      vertex -5.45 9.43968 0
      vertex -7.29352 8.10028 10
      vertex -5.45 9.43968 10
    endloop
  endfacet
  facet normal -0.743145 0.66913 0
    outer loop
      vertex -8.81828 6.40686 0
      vertex -8.81828 6.40686 10
      vertex -7.29352 8.10028 0
    endloop
  endfacet
  facet normal -0.743145 0.66913 0
    outer loop
      vertex -7.29352 8.10028 0
      vertex -8.81828 6.40686 10
      vertex -7.29352 8.10028 10
    endloop
  endfacet
  facet normal -0.866025 0.5 0
    outer loop
      vertex -9.95764 4.43343 0
      vertex -9.95764 4.43343 10
      vertex -8.81828 6.40686 0
    endloop
  endfacet
  facet normal -0.866025 0.5 0
    outer loop
      vertex -8.81828 6.40686 0
      vertex -9.95764 4.43343 10
      vertex -8.81828 6.40686 10
    endloop
  endfacet
  facet normal -0.951056 0.309017 0
    outer loop
      vertex -10.6618 2.26624 0
      vertex -10.6618 2.26624 10
      vertex -9.95764 4.43343 0
    endloop
  endfacet
  facet normal -0.951056 0.309017 0
    outer loop
      vertex -9.95764 4.43343 0
      vertex -10.6618 2.26624 10
      vertex -9.95764 4.43343 10
    endloop
  endfacet
  facet normal 0.994522 -0.104528 0
    outer loop
      vertex -9.78148 2.07912 0
      vertex -9.78148 2.07912 6.5
      vertex -10 0 6.5
    endloop
  endfacet
  facet normal 0.994522 -0.104528 0
    outer loop
      vertex -10 0 0
      vertex -9.78148 2.07912 0
      vertex -10 0 6.5
    endloop
  endfacet
  facet normal 0.994522 0.104528 0
    outer loop
      vertex -10 0 6.5
      vertex -9.78148 -2.07912 6.5
      vertex -9.78148 -2.07912 0
    endloop
  endfacet
  facet normal 0.994522 0.104528 0
    outer loop
      vertex -10 0 0
      vertex -10 0 6.5
      vertex -9.78148 -2.07912 0
    endloop
  endfacet
  facet normal 0.951057 -0.309017 0
    outer loop
      vertex -9.13546 4.06737 0
      vertex -9.13546 4.06737 6.5
      vertex -9.78148 2.07912 6.5
    endloop
  endfacet
  facet normal 0.951057 -0.309017 0
    outer loop
      vertex -9.78148 2.07912 0
      vertex -9.13546 4.06737 0
      vertex -9.78148 2.07912 6.5
    endloop
  endfacet
  facet normal 0.866025 -0.5 0
    outer loop
      vertex -8.09017 5.87785 0
      vertex -8.09017 5.87785 6.5
      vertex -9.13546 4.06737 6.5
    endloop
  endfacet
  facet normal 0.866025 -0.5 0
    outer loop
      vertex -9.13546 4.06737 0
      vertex -8.09017 5.87785 0
      vertex -9.13546 4.06737 6.5
    endloop
  endfacet
  facet normal 0.743145 -0.669131 0
    outer loop
      vertex -6.69131 7.43145 0
      vertex -6.69131 7.43145 6.5
      vertex -8.09017 5.87785 6.5
    endloop
  endfacet
  facet normal 0.743145 -0.669131 0
    outer loop
      vertex -8.09017 5.87785 0
      vertex -6.69131 7.43145 0
      vertex -8.09017 5.87785 6.5
    endloop
  endfacet
  facet normal 0.587785 -0.809017 0
    outer loop
      vertex -5 8.66025 0
      vertex -5 8.66025 6.5
      vertex -6.69131 7.43145 6.5
    endloop
  endfacet
  facet normal 0.587785 -0.809017 0
    outer loop
      vertex -6.69131 7.43145 0
      vertex -5 8.66025 0
      vertex -6.69131 7.43145 6.5
    endloop
  endfacet
  facet normal 0.406737 -0.913545 0
    outer loop
      vertex -3.09017 9.51056 0
      vertex -3.09017 9.51056 6.5
      vertex -5 8.66025 6.5
    endloop
  endfacet
  facet normal 0.406737 -0.913545 0
    outer loop
      vertex -5 8.66025 0
      vertex -3.09017 9.51056 0
      vertex -5 8.66025 6.5
    endloop
  endfacet
  facet normal 0.207912 -0.978148 0
    outer loop
      vertex -1.04529 9.94522 0
      vertex -1.04529 9.94522 6.5
      vertex -3.09017 9.51056 6.5
    endloop
  endfacet
  facet normal 0.207912 -0.978148 0
    outer loop
      vertex -3.09017 9.51056 0
      vertex -1.04529 9.94522 0
      vertex -3.09017 9.51056 6.5
    endloop
  endfacet
  facet normal 0 -1 0
    outer loop
      vertex 1.04529 9.94522 0
      vertex 1.04529 9.94522 6.5
      vertex -1.04529 9.94522 6.5
    endloop
  endfacet
  facet normal 0 -1 0
    outer loop
      vertex -1.04529 9.94522 0
      vertex 1.04529 9.94522 0
      vertex -1.04529 9.94522 6.5
    endloop
  endfacet
  facet normal -0.207912 -0.978148 0
    outer loop
      vertex 3.09017 9.51056 0
      vertex 3.09017 9.51056 6.5
      vertex 1.04529 9.94522 6.5
    endloop
  endfacet
  facet normal -0.207912 -0.978148 0
    outer loop
      vertex 1.04529 9.94522 0
      vertex 3.09017 9.51056 0
      vertex 1.04529 9.94522 6.5
    endloop
  endfacet
  facet normal -0.406737 -0.913545 0
    outer loop
      vertex 5 8.66025 0
      vertex 5 8.66025 6.5
      vertex 3.09017 9.51056 6.5
    endloop
  endfacet
  facet normal -0.406737 -0.913545 0
    outer loop
      vertex 3.09017 9.51056 0
      vertex 5 8.66025 0
      vertex 3.09017 9.51056 6.5
    endloop
  endfacet
  facet normal -0.587785 -0.809017 0
    outer loop
      vertex 6.69131 7.43145 0
      vertex 6.69131 7.43145 6.5
      vertex 5 8.66025 6.5
    endloop
  endfacet
  facet normal -0.587785 -0.809017 0
    outer loop
      vertex 5 8.66025 0
      vertex 6.69131 7.43145 0
      vertex 5 8.66025 6.5
    endloop
  endfacet
  facet normal -0.743145 -0.669131 0
    outer loop
      vertex 8.09017 5.87785 6.5
      vertex 6.69131 7.43145 6.5
      vertex 8.09017 5.87785 0
    endloop
  endfacet
  facet normal -0.743145 -0.669131 0
    outer loop
      vertex 8.09017 5.87785 0
      vertex 6.69131 7.43145 6.5
      vertex 6.69131 7.43145 0
    endloop
  endfacet
  facet normal -0.866025 -0.5 0
    outer loop
      vertex 9.13546 4.06737 6.5
      vertex 8.09017 5.87785 6.5
      vertex 9.13546 4.06737 0
    endloop
  endfacet
  facet normal -0.866025 -0.5 0
    outer loop
      vertex 9.13546 4.06737 0
      vertex 8.09017 5.87785 6.5
      vertex 8.09017 5.87785 0
    endloop
  endfacet
  facet normal -0.951057 -0.309017 0
    outer loop
      vertex 9.78148 2.07912 6.5
      vertex 9.13546 4.06737 6.5
      vertex 9.78148 2.07912 0
    endloop
  endfacet
  facet normal -0.951057 -0.309017 0
    outer loop
      vertex 9.78148 2.07912 0
      vertex 9.13546 4.06737 6.5
      vertex 9.13546 4.06737 0
    endloop
  endfacet
  facet normal -0.994522 -0.104528 0
    outer loop
      vertex 10 0 6.5
      vertex 9.78148 2.07912 6.5
      vertex 10 0 0
    endloop
  endfacet
  facet normal -0.994522 -0.104528 0
    outer loop
      vertex 10 0 0
      vertex 9.78148 2.07912 6.5
      vertex 9.78148 2.07912 0
    endloop
  endfacet
  facet normal -0.994522 0.104528 0
    outer loop
      vertex 10 0 6.5
      vertex 10 0 0
      vertex 9.78148 -2.07912 6.5
    endloop
  endfacet
  facet normal -0.994522 0.104528 0
    outer loop
      vertex 9.78148 -2.07912 6.5
      vertex 10 0 0
      vertex 9.78148 -2.07912 0
    endloop
  endfacet
  facet normal -0.951057 0.309017 0
    outer loop
      vertex 9.78148 -2.07912 6.5
      vertex 9.78148 -2.07912 0
      vertex 9.13546 -4.06737 6.5
    endloop
  endfacet
  facet normal -0.951057 0.309017 0
    outer loop
      vertex 9.13546 -4.06737 6.5
      vertex 9.78148 -2.07912 0
      vertex 9.13546 -4.06737 0
    endloop
  endfacet
  facet normal -0.866025 0.5 0
    outer loop
      vertex 9.13546 -4.06737 6.5
      vertex 9.13546 -4.06737 0
      vertex 8.09017 -5.87785 6.5
    endloop
  endfacet
  facet normal -0.866025 0.5 0
    outer loop
      vertex 8.09017 -5.87785 6.5
      vertex 9.13546 -4.06737 0
      vertex 8.09017 -5.87785 0
    endloop
  endfacet
  facet normal -0.743145 0.669131 0
    outer loop
      vertex 8.09017 -5.87785 6.5
      vertex 8.09017 -5.87785 0
      vertex 6.69131 -7.43145 6.5
    endloop
  endfacet
  facet normal -0.743145 0.669131 0
    outer loop
      vertex 6.69131 -7.43145 6.5
      vertex 8.09017 -5.87785 0
      vertex 6.69131 -7.43145 0
    endloop
  endfacet
  facet normal -0.587785 0.809017 0
    outer loop
      vertex 6.69131 -7.43145 6.5
      vertex 6.69131 -7.43145 0
      vertex 5 -8.66025 6.5
    endloop
  endfacet
  facet normal -0.587785 0.809017 0
    outer loop
      vertex 5 -8.66025 6.5
      vertex 6.69131 -7.43145 0
      vertex 5 -8.66025 0
    endloop
  endfacet
  facet normal -0.406737 0.913545 0
    outer loop
      vertex 5 -8.66025 6.5
      vertex 5 -8.66025 0
      vertex 3.09017 -9.51056 6.5
    endloop
  endfacet
  facet normal -0.406737 0.913545 0
    outer loop
      vertex 3.09017 -9.51056 6.5
      vertex 5 -8.66025 0
      vertex 3.09017 -9.51056 0
    endloop
  endfacet
  facet normal -0.207912 0.978148 0
    outer loop
      vertex 3.09017 -9.51056 6.5
      vertex 3.09017 -9.51056 0
      vertex 1.04529 -9.94522 6.5
    endloop
  endfacet
  facet normal -0.207912 0.978148 0
    outer loop
      vertex 1.04529 -9.94522 6.5
      vertex 3.09017 -9.51056 0
      vertex 1.04529 -9.94522 0
    endloop
  endfacet
  facet normal 0 1 0
    outer loop
      vertex 1.04529 -9.94522 6.5
      vertex 1.04529 -9.94522 0
      vertex -1.04529 -9.94522 6.5
    endloop
  endfacet
  facet normal 0 1 0
    outer loop
      vertex -1.04529 -9.94522 6.5
      vertex 1.04529 -9.94522 0
      vertex -1.04529 -9.94522 0
    endloop
  endfacet
  facet normal 0.207912 0.978148 0
    outer loop
      vertex -1.04529 -9.94522 6.5
      vertex -1.04529 -9.94522 0
      vertex -3.09017 -9.51056 6.5
    endloop
  endfacet
  facet normal 0.207912 0.978148 0
    outer loop
      vertex -3.09017 -9.51056 6.5
      vertex -1.04529 -9.94522 0
      vertex -3.09017 -9.51056 0
    endloop
  endfacet
  facet normal 0.406737 0.913545 0
    outer loop
      vertex -3.09017 -9.51056 6.5
      vertex -3.09017 -9.51056 0
      vertex -5 -8.66025 6.5
    endloop
  endfacet
  facet normal 0.406737 0.913545 0
    outer loop
      vertex -5 -8.66025 6.5
      vertex -3.09017 -9.51056 0
      vertex -5 -8.66025 0
    endloop
  endfacet
  facet normal 0.587785 0.809017 0
    outer loop
      vertex -5 -8.66025 6.5
      vertex -5 -8.66025 0
      vertex -6.69131 -7.43145 6.5
    endloop
  endfacet
  facet normal 0.587785 0.809017 0
    outer loop
      vertex -6.69131 -7.43145 6.5
      vertex -5 -8.66025 0
      vertex -6.69131 -7.43145 0
    endloop
  endfacet
  facet normal 0.743145 0.669131 0
    outer loop
      vertex -8.09017 -5.87785 6.5
      vertex -6.69131 -7.43145 6.5
      vertex -6.69131 -7.43145 0
    endloop
  endfacet
  facet normal 0.743145 0.669131 0
    outer loop
      vertex -8.09017 -5.87785 0
      vertex -8.09017 -5.87785 6.5
      vertex -6.69131 -7.43145 0
    endloop
  endfacet
  facet normal 0.866025 0.5 0
    outer loop
      vertex -9.13546 -4.06737 6.5
      vertex -8.09017 -5.87785 6.5
      vertex -8.09017 -5.87785 0
    endloop
  endfacet
  facet normal 0.866025 0.5 0
    outer loop
      vertex -9.13546 -4.06737 0
      vertex -9.13546 -4.06737 6.5
      vertex -8.09017 -5.87785 0
    endloop
  endfacet
  facet normal 0.951057 0.309017 0
    outer loop
      vertex -9.78148 -2.07912 6.5
      vertex -9.13546 -4.06737 6.5
      vertex -9.13546 -4.06737 0
    endloop
  endfacet
  facet normal 0.951057 0.309017 0
    outer loop
      vertex -9.78148 -2.07912 0
      vertex -9.78148 -2.07912 6.5
      vertex -9.13546 -4.06737 0
    endloop
  endfacet
  facet normal 0 0 1
    outer loop
      vertex -10.6618 2.26624 10
      vertex -10.9 0 10
      vertex -10.6618 -2.26624 10
    endloop
  endfacet
  facet normal 0 0 1
    outer loop
      vertex -8.81828 -6.40686 10
      vertex -10.6618 2.26624 10
      vertex -9.95764 -4.43343 10
    endloop
  endfacet
  facet normal 0 0 1
    outer loop
      vertex -9.95764 -4.43343 10
      vertex -10.6618 2.26624 10
      vertex -10.6618 -2.26624 10
    endloop
  endfacet
  facet normal 0 0 1
    outer loop
      vertex -7.29352 -8.10028 10
      vertex -10.6618 2.26624 10
      vertex -8.81828 -6.40686 10
    endloop
  endfacet
  facet normal 0 0 1
    outer loop
      vertex -8.52888 -2.87371 10
      vertex -10.6618 2.26624 10
      vertex -7.29352 -8.10028 10
    endloop
  endfacet
  facet normal 0 0 1
    outer loop
      vertex 7.16484 -5.44657 10
      vertex 5.82648 -6.85946 10
      vertex 8.81828 -6.40686 10
    endloop
  endfacet
  facet normal 0 0 1
    outer loop
      vertex -8.52888 2.87371 10
      vertex -7.71171 4.63998 10
      vertex -10.6618 2.26624 10
    endloop
  endfacet
  facet normal 0 0 1
    outer loop
      vertex 4.21568 -7.95161 10
      vertex 2.40775 -8.67195 10
      vertex 5.45 -9.43968 10
    endloop
  endfacet
  facet normal 0 0 1
    outer loop
      vertex 2.40775 8.67195 10
      vertex 4.21568 7.95161 10
      vertex 5.45 9.43968 10
    endloop
  endfacet
  facet normal 0 0 1
    outer loop
      vertex -3.33124 8.36079 10
      vertex -1.45604 8.88144 10
      vertex 1.13936 10.8403 10
    endloop
  endfacet
  facet normal 0 0 1
    outer loop
      vertex -5.05068 7.4492 10
      vertex -3.33124 8.36079 10
      vertex -1.13936 10.8403 10
    endloop
  endfacet
  facet normal 0 0 1
    outer loop
      vertex -5.45 9.43968 10
      vertex -10.6618 2.26624 10
      vertex -3.36828 10.3665 10
    endloop
  endfacet
  facet normal 0 0 1
    outer loop
      vertex -7.29352 8.10028 10
      vertex -10.6618 2.26624 10
      vertex -5.45 9.43968 10
    endloop
  endfacet
  facet normal 0 0 1
    outer loop
      vertex -8.81828 6.40686 10
      vertex -10.6618 2.26624 10
      vertex -7.29352 8.10028 10
    endloop
  endfacet
  facet normal 0 0 1
    outer loop
      vertex -9.95764 4.43343 10
      vertex -10.6618 2.26624 10
      vertex -8.81828 6.40686 10
    endloop
  endfacet
  facet normal 0 0 1
    outer loop
      vertex 0.48725 -8.9868 10
      vertex -1.45604 -8.88144 10
      vertex 1.13936 -10.8403 10
    endloop
  endfacet
  facet normal 0 0 1
    outer loop
      vertex 7.16484 5.44657 10
      vertex 8.16818 3.779 10
      vertex 9.95764 4.43343 10
    endloop
  endfacet
  facet normal 0 0 1
    outer loop
      vertex 0.48725 8.9868 10
      vertex 2.40775 8.67195 10
      vertex 3.36828 10.3665 10
    endloop
  endfacet
  facet normal 0 0 1
    outer loop
      vertex 4.21568 7.95161 10
      vertex 5.82648 6.85946 10
      vertex 7.29352 8.10028 10
    endloop
  endfacet
  facet normal 0 0 1
    outer loop
      vertex -3.36828 10.3665 10
      vertex -6.53396 6.18929 10
      vertex -1.13936 10.8403 10
    endloop
  endfacet
  facet normal 0 0 1
    outer loop
      vertex -3.36828 10.3665 10
      vertex -10.6618 2.26624 10
      vertex -6.53396 6.18929 10
    endloop
  endfacet
  facet normal 0 0 1
    outer loop
      vertex -6.53396 6.18929 10
      vertex -5.05068 7.4492 10
      vertex -1.13936 10.8403 10
    endloop
  endfacet
  facet normal 0 0 1
    outer loop
      vertex -1.13936 10.8403 10
      vertex -3.33124 8.36079 10
      vertex 1.13936 10.8403 10
    endloop
  endfacet
  facet normal 0 0 1
    outer loop
      vertex 1.13936 10.8403 10
      vertex -1.45604 8.88144 10
      vertex 3.36828 10.3665 10
    endloop
  endfacet
  facet normal 0 0 1
    outer loop
      vertex -1.45604 8.88144 10
      vertex 0.48725 8.9868 10
      vertex 3.36828 10.3665 10
    endloop
  endfacet
  facet normal 0 0 1
    outer loop
      vertex -7.71171 4.63998 10
      vertex -6.53396 6.18929 10
      vertex -10.6618 2.26624 10
    endloop
  endfacet
  facet normal 0 0 1
    outer loop
      vertex 3.36828 10.3665 10
      vertex 2.40775 8.67195 10
      vertex 5.45 9.43968 10
    endloop
  endfacet
  facet normal 0 0 1
    outer loop
      vertex 5.45 9.43968 10
      vertex 4.21568 7.95161 10
      vertex 7.29352 8.10028 10
    endloop
  endfacet
  facet normal 0 0 1
    outer loop
      vertex 7.29352 8.10028 10
      vertex 5.82648 6.85946 10
      vertex 8.81828 6.40686 10
    endloop
  endfacet
  facet normal 0 0 1
    outer loop
      vertex 8.81828 6.40686 10
      vertex 7.16484 5.44657 10
      vertex 9.95764 4.43343 10
    endloop
  endfacet
  facet normal 0 0 1
    outer loop
      vertex 9.95764 4.43343 10
      vertex 8.16818 3.779 10
      vertex 10.6618 2.26624 10
    endloop
  endfacet
  facet normal 0 0 1
    outer loop
      vertex 10.6618 2.26624 10
      vertex 8.78958 1.93473 10
      vertex 10.9 0 10
    endloop
  endfacet
  facet normal 0 0 1
    outer loop
      vertex 10.9 0 10
      vertex 9 0 10
      vertex 10.6618 -2.26624 10
    endloop
  endfacet
  facet normal 0 0 1
    outer loop
      vertex 5.82648 6.85946 10
      vertex 7.16484 5.44657 10
      vertex 8.81828 6.40686 10
    endloop
  endfacet
  facet normal 0 0 1
    outer loop
      vertex 10.6618 -2.26624 10
      vertex 8.78958 -1.93473 10
      vertex 9.95764 -4.43343 10
    endloop
  endfacet
  facet normal 0 0 1
    outer loop
      vertex 8.78958 -1.93473 10
      vertex 8.16818 -3.779 10
      vertex 9.95764 -4.43343 10
    endloop
  endfacet
  facet normal 0 0 1
    outer loop
      vertex 9.95764 -4.43343 10
      vertex 7.16484 -5.44657 10
      vertex 8.81828 -6.40686 10
    endloop
  endfacet
  facet normal 0 0 1
    outer loop
      vertex 8.81828 -6.40686 10
      vertex 5.82648 -6.85946 10
      vertex 7.29352 -8.10028 10
    endloop
  endfacet
  facet normal 0 0 1
    outer loop
      vertex 7.29352 -8.10028 10
      vertex 4.21568 -7.95161 10
      vertex 5.45 -9.43968 10
    endloop
  endfacet
  facet normal 0 0 1
    outer loop
      vertex 5.45 -9.43968 10
      vertex 2.40775 -8.67195 10
      vertex 3.36828 -10.3665 10
    endloop
  endfacet
  facet normal 0 0 1
    outer loop
      vertex 3.36828 -10.3665 10
      vertex 0.48725 -8.9868 10
      vertex 1.13936 -10.8403 10
    endloop
  endfacet
  facet normal 0 0 1
    outer loop
      vertex 8.16818 3.779 10
      vertex 8.78958 1.93473 10
      vertex 10.6618 2.26624 10
    endloop
  endfacet
  facet normal 0 0 1
    outer loop
      vertex 1.13936 -10.8403 10
      vertex -1.45604 -8.88144 10
      vertex -1.13936 -10.8403 10
    endloop
  endfacet
  facet normal 0 0 1
    outer loop
      vertex 8.78958 1.93473 10
      vertex 9 0 10
      vertex 10.9 0 10
    endloop
  endfacet
  facet normal 0 0 1
    outer loop
      vertex -1.13936 -10.8403 10
      vertex -3.33124 -8.36079 10
      vertex -3.36828 -10.3665 10
    endloop
  endfacet
  facet normal 0 0 1
    outer loop
      vertex 9 0 10
      vertex 8.78958 -1.93473 10
      vertex 10.6618 -2.26624 10
    endloop
  endfacet
  facet normal 0 0 1
    outer loop
      vertex -3.33124 -8.36079 10
      vertex -5.05068 -7.4492 10
      vertex -3.36828 -10.3665 10
    endloop
  endfacet
  facet normal 0 0 1
    outer loop
      vertex -3.36828 -10.3665 10
      vertex -6.53396 -6.18929 10
      vertex -5.45 -9.43968 10
    endloop
  endfacet
  facet normal 0 0 1
    outer loop
      vertex -5.45 -9.43968 10
      vertex -7.71171 -4.63998 10
      vertex -7.29352 -8.10028 10
    endloop
  endfacet
  facet normal 0 0 1
    outer loop
      vertex -1.45604 -8.88144 10
      vertex -3.33124 -8.36079 10
      vertex -1.13936 -10.8403 10
    endloop
  endfacet
  facet normal 0 0 1
    outer loop
      vertex -7.71171 -4.63998 10
      vertex -8.52888 -2.87371 10
      vertex -7.29352 -8.10028 10
    endloop
  endfacet
  facet normal 0 0 1
    outer loop
      vertex -8.52888 -2.87371 10
      vertex -8.94724 -0.973071 10
      vertex -10.6618 2.26624 10
    endloop
  endfacet
  facet normal 0 0 1
    outer loop
      vertex -5.05068 -7.4492 10
      vertex -6.53396 -6.18929 10
      vertex -3.36828 -10.3665 10
    endloop
  endfacet
  facet normal 0 0 1
    outer loop
      vertex -6.53396 -6.18929 10
      vertex -7.71171 -4.63998 10
      vertex -5.45 -9.43968 10
    endloop
  endfacet
  facet normal 0 0 1
    outer loop
      vertex -8.94724 -0.973071 10
      vertex -8.94724 0.973071 10
      vertex -10.6618 2.26624 10
    endloop
  endfacet
  facet normal 0 0 1
    outer loop
      vertex 8.16818 -3.779 10
      vertex 7.16484 -5.44657 10
      vertex 9.95764 -4.43343 10
    endloop
  endfacet
  facet normal 0 0 1
    outer loop
      vertex 5.82648 -6.85946 10
      vertex 4.21568 -7.95161 10
      vertex 7.29352 -8.10028 10
    endloop
  endfacet
  facet normal 0 0 1
    outer loop
      vertex 2.40775 -8.67195 10
      vertex 0.48725 -8.9868 10
      vertex 3.36828 -10.3665 10
    endloop
  endfacet
  facet normal 0 0 1
    outer loop
      vertex -8.94724 0.973071 10
      vertex -8.52888 2.87371 10
      vertex -10.6618 2.26624 10
    endloop
  endfacet
  facet normal 0 0 -1
    outer loop
      vertex -9.13546 4.06737 6.5
      vertex -8.09017 5.87785 6.5
      vertex -9.78148 2.07912 6.5
    endloop
  endfacet
  facet normal 0 0 -1
    outer loop
      vertex -9.78148 2.07912 6.5
      vertex -8.09017 5.87785 6.5
      vertex -6.69131 7.43145 6.5
    endloop
  endfacet
  facet normal 0 0 -1
    outer loop
      vertex -9.78148 2.07912 6.5
      vertex -6.69131 7.43145 6.5
      vertex -5 8.66025 6.5
    endloop
  endfacet
  facet normal 0 0 -1
    outer loop
      vertex -5.05068 7.4492 6.5
      vertex -5 8.66025 6.5
      vertex -3.09017 9.51056 6.5
    endloop
  endfacet
  facet normal 0 0 -1
    outer loop
      vertex -3.33124 8.36079 6.5
      vertex -3.09017 9.51056 6.5
      vertex -1.04529 9.94522 6.5
    endloop
  endfacet
  facet normal 0 0 -1
    outer loop
      vertex -1.45604 8.88144 6.5
      vertex -1.04529 9.94522 6.5
      vertex 1.04529 9.94522 6.5
    endloop
  endfacet
  facet normal 0 0 -1
    outer loop
      vertex 0.48725 8.9868 6.5
      vertex 1.04529 9.94522 6.5
      vertex 3.09017 9.51056 6.5
    endloop
  endfacet
  facet normal 0 0 -1
    outer loop
      vertex 2.40775 8.67195 6.5
      vertex 3.09017 9.51056 6.5
      vertex 5 8.66025 6.5
    endloop
  endfacet
  facet normal 0 0 -1
    outer loop
      vertex 4.21568 7.95161 6.5
      vertex 5 8.66025 6.5
      vertex 6.69131 7.43145 6.5
    endloop
  endfacet
  facet normal 0 0 -1
    outer loop
      vertex 5.82648 6.85946 6.5
      vertex 6.69131 7.43145 6.5
      vertex 8.09017 5.87785 6.5
    endloop
  endfacet
  facet normal 0 0 -1
    outer loop
      vertex 7.16484 5.44657 6.5
      vertex 8.09017 5.87785 6.5
      vertex 9.13546 4.06737 6.5
    endloop
  endfacet
  facet normal 0 0 -1
    outer loop
      vertex 8.16818 3.779 6.5
      vertex 9.13546 4.06737 6.5
      vertex 9.78148 2.07912 6.5
    endloop
  endfacet
  facet normal 0 0 -1
    outer loop
      vertex 8.78958 1.93473 6.5
      vertex 9.78148 2.07912 6.5
      vertex 10 0 6.5
    endloop
  endfacet
  facet normal 0 0 -1
    outer loop
      vertex 9 0 6.5
      vertex 10 0 6.5
      vertex 9.78148 -2.07912 6.5
    endloop
  endfacet
  facet normal 0 0 -1
    outer loop
      vertex 8.78958 -1.93473 6.5
      vertex 9.78148 -2.07912 6.5
      vertex 9.13546 -4.06737 6.5
    endloop
  endfacet
  facet normal 0 0 -1
    outer loop
      vertex 7.16484 -5.44657 6.5
      vertex 9.13546 -4.06737 6.5
      vertex 8.09017 -5.87785 6.5
    endloop
  endfacet
  facet normal 0 0 -1
    outer loop
      vertex 5.82648 -6.85946 6.5
      vertex 8.09017 -5.87785 6.5
      vertex 6.69131 -7.43145 6.5
    endloop
  endfacet
  facet normal 0 0 -1
    outer loop
      vertex 4.21568 -7.95161 6.5
      vertex 6.69131 -7.43145 6.5
      vertex 5 -8.66025 6.5
    endloop
  endfacet
  facet normal 0 0 -1
    outer loop
      vertex 2.40775 -8.67195 6.5
      vertex 5 -8.66025 6.5
      vertex 3.09017 -9.51056 6.5
    endloop
  endfacet
  facet normal 0 0 -1
    outer loop
      vertex 0.48725 -8.9868 6.5
      vertex 3.09017 -9.51056 6.5
      vertex 1.04529 -9.94522 6.5
    endloop
  endfacet
  facet normal 0 0 -1
    outer loop
      vertex -1.45604 -8.88144 6.5
      vertex 1.04529 -9.94522 6.5
      vertex -1.04529 -9.94522 6.5
    endloop
  endfacet
  facet normal 0 0 -1
    outer loop
      vertex -3.33124 -8.36079 6.5
      vertex -1.04529 -9.94522 6.5
      vertex -3.09017 -9.51056 6.5
    endloop
  endfacet
  facet normal 0 0 -1
    outer loop
      vertex -5.05068 -7.4492 6.5
      vertex -3.09017 -9.51056 6.5
      vertex -5 -8.66025 6.5
    endloop
  endfacet
  facet normal 0 0 -1
    outer loop
      vertex -6.53396 -6.18929 6.5
      vertex -5 -8.66025 6.5
      vertex -6.69131 -7.43145 6.5
    endloop
  endfacet
  facet normal 0 0 -1
    outer loop
      vertex -8.52888 -2.87371 6.5
      vertex -6.69131 -7.43145 6.5
      vertex -8.09017 -5.87785 6.5
    endloop
  endfacet
  facet normal 0 0 -1
    outer loop
      vertex -9.78148 2.07912 6.5
      vertex -8.09017 -5.87785 6.5
      vertex -9.13546 -4.06737 6.5
    endloop
  endfacet
  facet normal 0 0 -1
    outer loop
      vertex -9.78148 2.07912 6.5
      vertex -9.13546 -4.06737 6.5
      vertex -9.78148 -2.07912 6.5
    endloop
  endfacet
  facet normal 0 0 -1
    outer loop
      vertex -9.78148 2.07912 6.5
      vertex -9.78148 -2.07912 6.5
      vertex -10 0 6.5
    endloop
  endfacet
  facet normal 0 0 -1
    outer loop
      vertex -6.53396 -6.18929 6.5
      vertex -6.69131 -7.43145 6.5
      vertex -7.71171 -4.63998 6.5
    endloop
  endfacet
  facet normal 0 0 -1
    outer loop
      vertex -9.78148 2.07912 6.5
      vertex -8.94724 -0.973071 6.5
      vertex -8.09017 -5.87785 6.5
    endloop
  endfacet
  facet normal 0 0 -1
    outer loop
      vertex -7.71171 -4.63998 6.5
      vertex -6.69131 -7.43145 6.5
      vertex -8.52888 -2.87371 6.5
    endloop
  endfacet
  facet normal 0 0 -1
    outer loop
      vertex -8.94724 -0.973071 6.5
      vertex -8.52888 -2.87371 6.5
      vertex -8.09017 -5.87785 6.5
    endloop
  endfacet
  facet normal 0 0 -1
    outer loop
      vertex 0.48725 -8.9868 6.5
      vertex 1.04529 -9.94522 6.5
      vertex -1.45604 -8.88144 6.5
    endloop
  endfacet
  facet normal 0 0 -1
    outer loop
      vertex 2.40775 -8.67195 6.5
      vertex 3.09017 -9.51056 6.5
      vertex 0.48725 -8.9868 6.5
    endloop
  endfacet
  facet normal 0 0 -1
    outer loop
      vertex 4.21568 -7.95161 6.5
      vertex 5 -8.66025 6.5
      vertex 2.40775 -8.67195 6.5
    endloop
  endfacet
  facet normal 0 0 -1
    outer loop
      vertex 5.82648 -6.85946 6.5
      vertex 6.69131 -7.43145 6.5
      vertex 4.21568 -7.95161 6.5
    endloop
  endfacet
  facet normal 0 0 -1
    outer loop
      vertex 7.16484 -5.44657 6.5
      vertex 8.09017 -5.87785 6.5
      vertex 5.82648 -6.85946 6.5
    endloop
  endfacet
  facet normal 0 0 -1
    outer loop
      vertex 8.16818 -3.779 6.5
      vertex 9.13546 -4.06737 6.5
      vertex 7.16484 -5.44657 6.5
    endloop
  endfacet
  facet normal 0 0 -1
    outer loop
      vertex 8.78958 -1.93473 6.5
      vertex 9.13546 -4.06737 6.5
      vertex 8.16818 -3.779 6.5
    endloop
  endfacet
  facet normal 0 0 -1
    outer loop
      vertex 9 0 6.5
      vertex 9.78148 -2.07912 6.5
      vertex 8.78958 -1.93473 6.5
    endloop
  endfacet
  facet normal 0 0 -1
    outer loop
      vertex 8.78958 1.93473 6.5
      vertex 10 0 6.5
      vertex 9 0 6.5
    endloop
  endfacet
  facet normal 0 0 -1
    outer loop
      vertex 8.16818 3.779 6.5
      vertex 9.78148 2.07912 6.5
      vertex 8.78958 1.93473 6.5
    endloop
  endfacet
  facet normal 0 0 -1
    outer loop
      vertex 7.16484 5.44657 6.5
      vertex 9.13546 4.06737 6.5
      vertex 8.16818 3.779 6.5
    endloop
  endfacet
  facet normal 0 0 -1
    outer loop
      vertex 5.82648 6.85946 6.5
      vertex 8.09017 5.87785 6.5
      vertex 7.16484 5.44657 6.5
    endloop
  endfacet
  facet normal 0 0 -1
    outer loop
      vertex 4.21568 7.95161 6.5
      vertex 6.69131 7.43145 6.5
      vertex 5.82648 6.85946 6.5
    endloop
  endfacet
  facet normal 0 0 -1
    outer loop
      vertex 2.40775 8.67195 6.5
      vertex 5 8.66025 6.5
      vertex 4.21568 7.95161 6.5
    endloop
  endfacet
  facet normal 0 0 -1
    outer loop
      vertex 0.48725 8.9868 6.5
      vertex 3.09017 9.51056 6.5
      vertex 2.40775 8.67195 6.5
    endloop
  endfacet
  facet normal 0 0 -1
    outer loop
      vertex -1.45604 8.88144 6.5
      vertex 1.04529 9.94522 6.5
      vertex 0.48725 8.9868 6.5
    endloop
  endfacet
  facet normal 0 0 -1
    outer loop
      vertex -3.33124 8.36079 6.5
      vertex -1.04529 9.94522 6.5
      vertex -1.45604 8.88144 6.5
    endloop
  endfacet
  facet normal 0 0 -1
    outer loop
      vertex -5.05068 7.4492 6.5
      vertex -3.09017 9.51056 6.5
      vertex -3.33124 8.36079 6.5
    endloop
  endfacet
  facet normal 0 0 -1
    outer loop
      vertex -6.53396 6.18929 6.5
      vertex -5 8.66025 6.5
      vertex -5.05068 7.4492 6.5
    endloop
  endfacet
  facet normal 0 0 -1
    outer loop
      vertex -8.52888 2.87371 6.5
      vertex -9.78148 2.07912 6.5
      vertex -7.71171 4.63998 6.5
    endloop
  endfacet
  facet normal 0 0 -1
    outer loop
      vertex -9.78148 2.07912 6.5
      vertex -5 8.66025 6.5
      vertex -6.53396 6.18929 6.5
    endloop
  endfacet
  facet normal 0 0 -1
    outer loop
      vertex -9.78148 2.07912 6.5
      vertex -6.53396 6.18929 6.5
      vertex -7.71171 4.63998 6.5
    endloop
  endfacet
  facet normal 0 0 -1
    outer loop
      vertex -8.94724 0.973071 6.5
      vertex -9.78148 2.07912 6.5
      vertex -8.52888 2.87371 6.5
    endloop
  endfacet
  facet normal 0 0 -1
    outer loop
      vertex -8.94724 -0.973071 6.5
      vertex -9.78148 2.07912 6.5
      vertex -8.94724 0.973071 6.5
    endloop
  endfacet
  facet normal 0 0 -1
    outer loop
      vertex -1.45604 -8.88144 6.5
      vertex -1.04529 -9.94522 6.5
      vertex -3.33124 -8.36079 6.5
    endloop
  endfacet
  facet normal 0 0 -1
    outer loop
      vertex -3.33124 -8.36079 6.5
      vertex -3.09017 -9.51056 6.5
      vertex -5.05068 -7.4492 6.5
    endloop
  endfacet
  facet normal 0 0 -1
    outer loop
      vertex -5.05068 -7.4492 6.5
      vertex -5 -8.66025 6.5
      vertex -6.53396 -6.18929 6.5
    endloop
  endfacet
  facet normal 0.976621 0.21497 0
    outer loop
      vertex -8.94724 -0.973071 10
      vertex -8.52888 -2.87371 10
      vertex -8.52888 -2.87371 6.5
    endloop
  endfacet
  facet normal 0.976621 0.21497 0
    outer loop
      vertex -8.94724 -0.973071 6.5
      vertex -8.94724 -0.973071 10
      vertex -8.52888 -2.87371 6.5
    endloop
  endfacet
  facet normal 1 0 0
    outer loop
      vertex -8.94724 0.973071 6.5
      vertex -8.94724 0.973071 10
      vertex -8.94724 -0.973071 10
    endloop
  endfacet
  facet normal 1 0 0
    outer loop
      vertex -8.94724 -0.973071 6.5
      vertex -8.94724 0.973071 6.5
      vertex -8.94724 -0.973071 10
    endloop
  endfacet
  facet normal 0.907575 0.419889 0
    outer loop
      vertex -8.52888 -2.87371 10
      vertex -7.71171 -4.63998 10
      vertex -7.71171 -4.63998 6.5
    endloop
  endfacet
  facet normal 0.907575 0.419889 0
    outer loop
      vertex -8.52888 -2.87371 6.5
      vertex -8.52888 -2.87371 10
      vertex -7.71171 -4.63998 6.5
    endloop
  endfacet
  facet normal 0.796093 0.605175 0
    outer loop
      vertex -7.71171 -4.63998 10
      vertex -6.53396 -6.18929 10
      vertex -6.53396 -6.18929 6.5
    endloop
  endfacet
  facet normal 0.796093 0.605175 0
    outer loop
      vertex -7.71171 -4.63998 6.5
      vertex -7.71171 -4.63998 10
      vertex -6.53396 -6.18929 6.5
    endloop
  endfacet
  facet normal 0.647387 0.762162 0
    outer loop
      vertex -5.05068 -7.4492 10
      vertex -5.05068 -7.4492 6.5
      vertex -6.53396 -6.18929 10
    endloop
  endfacet
  facet normal 0.647387 0.762162 0
    outer loop
      vertex -6.53396 -6.18929 10
      vertex -5.05068 -7.4492 6.5
      vertex -6.53396 -6.18929 6.5
    endloop
  endfacet
  facet normal 0.468408 0.883512 0
    outer loop
      vertex -3.33124 -8.36079 10
      vertex -3.33124 -8.36079 6.5
      vertex -5.05068 -7.4492 10
    endloop
  endfacet
  facet normal 0.468408 0.883512 0
    outer loop
      vertex -5.05068 -7.4492 10
      vertex -3.33124 -8.36079 6.5
      vertex -5.05068 -7.4492 6.5
    endloop
  endfacet
  facet normal 0.267529 0.96355 0
    outer loop
      vertex -1.45604 -8.88144 10
      vertex -1.45604 -8.88144 6.5
      vertex -3.33124 -8.36079 10
    endloop
  endfacet
  facet normal 0.267529 0.96355 0
    outer loop
      vertex -3.33124 -8.36079 10
      vertex -1.45604 -8.88144 6.5
      vertex -3.33124 -8.36079 6.5
    endloop
  endfacet
  facet normal 0.0541389 0.998533 0
    outer loop
      vertex 0.48725 -8.9868 10
      vertex 0.48725 -8.9868 6.5
      vertex -1.45604 -8.88144 10
    endloop
  endfacet
  facet normal 0.0541389 0.998533 0
    outer loop
      vertex -1.45604 -8.88144 10
      vertex 0.48725 -8.9868 6.5
      vertex -1.45604 -8.88144 6.5
    endloop
  endfacet
  facet normal -0.161782 0.986827 0
    outer loop
      vertex 2.40775 -8.67195 10
      vertex 2.40775 -8.67195 6.5
      vertex 0.48725 -8.9868 10
    endloop
  endfacet
  facet normal -0.161782 0.986827 0
    outer loop
      vertex 0.48725 -8.9868 10
      vertex 2.40775 -8.67195 6.5
      vertex 0.48725 -8.9868 6.5
    endloop
  endfacet
  facet normal -0.370138 0.928977 0
    outer loop
      vertex 4.21568 -7.95161 10
      vertex 4.21568 -7.95161 6.5
      vertex 2.40775 -8.67195 10
    endloop
  endfacet
  facet normal -0.370138 0.928977 0
    outer loop
      vertex 2.40775 -8.67195 10
      vertex 4.21568 -7.95161 6.5
      vertex 2.40775 -8.67195 6.5
    endloop
  endfacet
  facet normal -0.561187 0.827689 0
    outer loop
      vertex 5.82648 -6.85946 10
      vertex 5.82648 -6.85946 6.5
      vertex 4.21568 -7.95161 10
    endloop
  endfacet
  facet normal -0.561187 0.827689 0
    outer loop
      vertex 4.21568 -7.95161 10
      vertex 5.82648 -6.85946 6.5
      vertex 4.21568 -7.95161 6.5
    endloop
  endfacet
  facet normal -0.725995 0.6877 0
    outer loop
      vertex 7.16484 -5.44657 10
      vertex 7.16484 -5.44657 6.5
      vertex 5.82648 -6.85946 10
    endloop
  endfacet
  facet normal -0.725995 0.6877 0
    outer loop
      vertex 5.82648 -6.85946 10
      vertex 7.16484 -5.44657 6.5
      vertex 5.82648 -6.85946 6.5
    endloop
  endfacet
  facet normal -0.856857 0.515554 0
    outer loop
      vertex 8.16818 -3.779 10
      vertex 8.16818 -3.779 6.5
      vertex 7.16484 -5.44657 10
    endloop
  endfacet
  facet normal -0.856857 0.515554 0
    outer loop
      vertex 7.16484 -5.44657 10
      vertex 8.16818 -3.779 6.5
      vertex 7.16484 -5.44657 6.5
    endloop
  endfacet
  facet normal -0.947653 0.319301 0
    outer loop
      vertex 8.78958 -1.93473 10
      vertex 8.78958 -1.93473 6.5
      vertex 8.16818 -3.779 10
    endloop
  endfacet
  facet normal -0.947653 0.319301 0
    outer loop
      vertex 8.16818 -3.779 10
      vertex 8.78958 -1.93473 6.5
      vertex 8.16818 -3.779 6.5
    endloop
  endfacet
  facet normal -0.994138 0.108119 0
    outer loop
      vertex 9 0 10
      vertex 9 0 6.5
      vertex 8.78958 -1.93473 10
    endloop
  endfacet
  facet normal -0.994138 0.108119 0
    outer loop
      vertex 8.78958 -1.93473 10
      vertex 9 0 6.5
      vertex 8.78958 -1.93473 6.5
    endloop
  endfacet
  facet normal -0.994138 -0.108119 0
    outer loop
      vertex 9 0 10
      vertex 8.78958 1.93473 10
      vertex 9 0 6.5
    endloop
  endfacet
  facet normal -0.994138 -0.108119 0
    outer loop
      vertex 9 0 6.5
      vertex 8.78958 1.93473 10
      vertex 8.78958 1.93473 6.5
    endloop
  endfacet
  facet normal -0.947653 -0.319301 0
    outer loop
      vertex 8.78958 1.93473 10
      vertex 8.16818 3.779 10
      vertex 8.78958 1.93473 6.5
    endloop
  endfacet
  facet normal -0.947653 -0.319301 0
    outer loop
      vertex 8.78958 1.93473 6.5
      vertex 8.16818 3.779 10
      vertex 8.16818 3.779 6.5
    endloop
  endfacet
  facet normal -0.856857 -0.515554 0
    outer loop
      vertex 8.16818 3.779 10
      vertex 7.16484 5.44657 10
      vertex 8.16818 3.779 6.5
    endloop
  endfacet
  facet normal -0.856857 -0.515554 0
    outer loop
      vertex 8.16818 3.779 6.5
      vertex 7.16484 5.44657 10
      vertex 7.16484 5.44657 6.5
    endloop
  endfacet
  facet normal -0.725995 -0.6877 0
    outer loop
      vertex 7.16484 5.44657 10
      vertex 5.82648 6.85946 10
      vertex 7.16484 5.44657 6.5
    endloop
  endfacet
  facet normal -0.725995 -0.6877 0
    outer loop
      vertex 7.16484 5.44657 6.5
      vertex 5.82648 6.85946 10
      vertex 5.82648 6.85946 6.5
    endloop
  endfacet
  facet normal -0.561187 -0.827689 0
    outer loop
      vertex 5.82648 6.85946 6.5
      vertex 5.82648 6.85946 10
      vertex 4.21568 7.95161 10
    endloop
  endfacet
  facet normal -0.561187 -0.827689 0
    outer loop
      vertex 4.21568 7.95161 6.5
      vertex 5.82648 6.85946 6.5
      vertex 4.21568 7.95161 10
    endloop
  endfacet
  facet normal -0.370138 -0.928977 0
    outer loop
      vertex 4.21568 7.95161 6.5
      vertex 4.21568 7.95161 10
      vertex 2.40775 8.67195 10
    endloop
  endfacet
  facet normal -0.370138 -0.928977 0
    outer loop
      vertex 2.40775 8.67195 6.5
      vertex 4.21568 7.95161 6.5
      vertex 2.40775 8.67195 10
    endloop
  endfacet
  facet normal -0.161782 -0.986827 0
    outer loop
      vertex 2.40775 8.67195 6.5
      vertex 2.40775 8.67195 10
      vertex 0.48725 8.9868 10
    endloop
  endfacet
  facet normal -0.161782 -0.986827 0
    outer loop
      vertex 0.48725 8.9868 6.5
      vertex 2.40775 8.67195 6.5
      vertex 0.48725 8.9868 10
    endloop
  endfacet
  facet normal 0.0541389 -0.998533 0
    outer loop
      vertex 0.48725 8.9868 6.5
      vertex 0.48725 8.9868 10
      vertex -1.45604 8.88144 10
    endloop
  endfacet
  facet normal 0.0541389 -0.998533 0
    outer loop
      vertex -1.45604 8.88144 6.5
      vertex 0.48725 8.9868 6.5
      vertex -1.45604 8.88144 10
    endloop
  endfacet
  facet normal 0.267529 -0.96355 0
    outer loop
      vertex -1.45604 8.88144 6.5
      vertex -1.45604 8.88144 10
      vertex -3.33124 8.36079 10
    endloop
  endfacet
  facet normal 0.267529 -0.96355 0
    outer loop
      vertex -3.33124 8.36079 6.5
      vertex -1.45604 8.88144 6.5
      vertex -3.33124 8.36079 10
    endloop
  endfacet
  facet normal 0.468408 -0.883512 0
    outer loop
      vertex -3.33124 8.36079 6.5
      vertex -3.33124 8.36079 10
      vertex -5.05068 7.4492 10
    endloop
  endfacet
  facet normal 0.468408 -0.883512 0
    outer loop
      vertex -5.05068 7.4492 6.5
      vertex -3.33124 8.36079 6.5
      vertex -5.05068 7.4492 10
    endloop
  endfacet
  facet normal 0.647387 -0.762162 0
    outer loop
      vertex -5.05068 7.4492 6.5
      vertex -5.05068 7.4492 10
      vertex -6.53396 6.18929 10
    endloop
  endfacet
  facet normal 0.647387 -0.762162 0
    outer loop
      vertex -6.53396 6.18929 6.5
      vertex -5.05068 7.4492 6.5
      vertex -6.53396 6.18929 10
    endloop
  endfacet
  facet normal 0.796093 -0.605175 0
    outer loop
      vertex -6.53396 6.18929 6.5
      vertex -6.53396 6.18929 10
      vertex -7.71171 4.63998 10
    endloop
  endfacet
  facet normal 0.796093 -0.605175 0
    outer loop
      vertex -7.71171 4.63998 6.5
      vertex -6.53396 6.18929 6.5
      vertex -7.71171 4.63998 10
    endloop
  endfacet
  facet normal 0.907575 -0.419889 0
    outer loop
      vertex -7.71171 4.63998 6.5
      vertex -7.71171 4.63998 10
      vertex -8.52888 2.87371 10
    endloop
  endfacet
  facet normal 0.907575 -0.419889 0
    outer loop
      vertex -8.52888 2.87371 6.5
      vertex -7.71171 4.63998 6.5
      vertex -8.52888 2.87371 10
    endloop
  endfacet
  facet normal 0.976621 -0.21497 0
    outer loop
      vertex -8.52888 2.87371 6.5
      vertex -8.52888 2.87371 10
      vertex -8.94724 0.973071 10
    endloop
  endfacet
  facet normal 0.976621 -0.21497 0
    outer loop
      vertex -8.94724 0.973071 6.5
      vertex -8.52888 2.87371 6.5
      vertex -8.94724 0.973071 10
    endloop
  endfacet
endsolid OpenSCAD_Model
