solid OpenSCAD_Model
  facet normal 0 0 -1
    outer loop
      vertex -10.9 0 0
      vertex -10.6618 2.26624 0
      vertex -10.6618 -2.26624 0
    endloop
  endfacet
  facet normal 0 0 -1
    outer loop
      vertex -10.6618 -2.26624 0
      vertex -10.6618 2.26624 0
      vertex -9.95764 4.43343 0
    endloop
  endfacet
  facet normal 0 0 -1
    outer loop
      vertex -10.6618 -2.26624 0
      vertex -9.95764 4.43343 0
      vertex -8.81828 6.40686 0
    endloop
  endfacet
  facet normal 0 0 -1
    outer loop
      vertex -10.6618 -2.26624 0
      vertex -8.81828 6.40686 0
      vertex -7.29352 8.10028 0
    endloop
  endfacet
  facet normal 0 0 -1
    outer loop
      vertex -10.6618 -2.26624 0
      vertex -7.29352 8.10028 0
      vertex -5.45 9.43968 0
    endloop
  endfacet
  facet normal 0 0 -1
    outer loop
      vertex -10.6618 -2.26624 0
      vertex -5.45 9.43968 0
      vertex -3.36828 10.3665 0
    endloop
  endfacet
  facet normal 0 0 -1
    outer loop
      vertex -10.6618 -2.26624 0
      vertex -3.36828 10.3665 0
      vertex -1.13936 10.8403 0
    endloop
  endfacet
  facet normal 0 0 -1
    outer loop
      vertex -10.6618 -2.26624 0
      vertex -1.13936 10.8403 0
      vertex 1.13936 10.8403 0
    endloop
  endfacet
  facet normal 0 0 -1
    outer loop
      vertex -10.6618 -2.26624 0
      vertex 1.13936 10.8403 0
      vertex 3.36828 10.3665 0
    endloop
  endfacet
  facet normal 0 0 -1
    outer loop
      vertex -10.6618 -2.26624 0
      vertex 3.36828 10.3665 0
      vertex 5.45 9.43968 0
    endloop
  endfacet
  facet normal 0 0 -1
    outer loop
      vertex -2.5 2.5 0
      vertex 5.45 9.43968 0
      vertex 7.29352 8.10028 0
    endloop
  endfacet
  facet normal 0 0 -1
    outer loop
      vertex 2.5 2.5 0
      vertex 9.95764 4.43343 0
      vertex 10.6618 2.26624 0
    endloop
  endfacet
  facet normal 0 0 -1
    outer loop
      vertex 2.5 2.5 0
      vertex 8.81828 6.40686 0
      vertex 9.95764 4.43343 0
    endloop
  endfacet
  facet normal 0 0 -1
    outer loop
      vertex 2.5 2.5 0
      vertex 10.6618 -2.26624 0
      vertex 2.5 -2.5 0
    endloop
  endfacet
  facet normal 0 0 -1
    outer loop
      vertex 2.5 2.5 0
      vertex 10.9 0 0
      vertex 10.6618 -2.26624 0
    endloop
  endfacet
  facet normal 0 0 -1
    outer loop
      vertex 2.5 -2.5 0
      vertex 10.6618 -2.26624 0
      vertex 9.95764 -4.43343 0
    endloop
  endfacet
  facet normal 0 0 -1
    outer loop
      vertex -10.6618 -2.26624 0
      vertex 9.95764 -4.43343 0
      vertex 8.81828 -6.40686 0
    endloop
  endfacet
  facet normal 0 0 -1
    outer loop
      vertex -10.6618 -2.26624 0
      vertex 8.81828 -6.40686 0
      vertex 7.29352 -8.10028 0
    endloop
  endfacet
  facet normal 0 0 -1
    outer loop
      vertex -10.6618 -2.26624 0
      vertex 7.29352 -8.10028 0
      vertex 5.45 -9.43968 0
    endloop
  endfacet
  facet normal 0 0 -1
    outer loop
      vertex -10.6618 -2.26624 0
      vertex 5.45 -9.43968 0
      vertex 3.36828 -10.3665 0
    endloop
  endfacet
  facet normal 0 0 -1
    outer loop
      vertex -10.6618 -2.26624 0
      vertex 3.36828 -10.3665 0
      vertex 1.13936 -10.8403 0
    endloop
  endfacet
  facet normal 0 0 -1
    outer loop
      vertex -10.6618 -2.26624 0
      vertex 1.13936 -10.8403 0
      vertex -1.13936 -10.8403 0
    endloop
  endfacet
  facet normal 0 0 -1
    outer loop
      vertex -10.6618 -2.26624 0
      vertex -1.13936 -10.8403 0
      vertex -3.36828 -10.3665 0
    endloop
  endfacet
  facet normal 0 0 -1
    outer loop
      vertex -10.6618 -2.26624 0
      vertex -3.36828 -10.3665 0
      vertex -5.45 -9.43968 0
    endloop
  endfacet
  facet normal 0 0 -1
    outer loop
      vertex -10.6618 -2.26624 0
      vertex -5.45 -9.43968 0
      vertex -7.29352 -8.10028 0
    endloop
  endfacet
  facet normal 0 0 -1
    outer loop
      vertex -10.6618 -2.26624 0
      vertex -7.29352 -8.10028 0
      vertex -8.81828 -6.40686 0
    endloop
  endfacet
  facet normal 0 0 -1
    outer loop
      vertex -10.6618 -2.26624 0
      vertex -8.81828 -6.40686 0
      vertex -9.95764 -4.43343 0
    endloop
  endfacet
  facet normal 0 0 -1
    outer loop
      vertex -10.6618 -2.26624 0
      vertex 5.45 9.43968 0
      vertex -2.5 2.5 0
    endloop
  endfacet
  facet normal 0 0 -1
    outer loop
      vertex -2.5 -2.5 0
      vertex -10.6618 -2.26624 0
      vertex -2.5 2.5 0
    endloop
  endfacet
  facet normal 0 0 -1
    outer loop
      vertex 2.5 2.5 0
      vertex 10.6618 2.26624 0
      vertex 10.9 0 0
    endloop
  endfacet
  facet normal 0 0 -1
    outer loop
      vertex -10.6618 -2.26624 0
      vertex -2.5 -2.5 0
      vertex 9.95764 -4.43343 0
    endloop
  endfacet
  facet normal 0 0 -1
    outer loop
      vertex -2.5 -2.5 0
      vertex 2.5 -2.5 0
      vertex 9.95764 -4.43343 0
    endloop
  endfacet
  facet normal 0 0 -1
    outer loop
      vertex -2.5 2.5 0
      vertex 7.29352 8.10028 0
      vertex 8.81828 6.40686 0
    endloop
  endfacet
  facet normal 0 0 -1
    outer loop
      vertex -2.5 2.5 0
      vertex 8.81828 6.40686 0
      vertex 2.5 2.5 0
    endloop
  endfacet
  facet normal -0.994522 0.104528 0
    outer loop
      vertex -10.9 0 0
      vertex -10.9 0 18
      vertex -10.6618 2.26624 0
    endloop
  endfacet
  facet normal -0.994522 0.104528 0
    outer loop
      vertex -10.6618 2.26624 0
      vertex -10.9 0 18
      vertex -10.6618 2.26624 18
    endloop
  endfacet
  facet normal -0.994522 -0.104528 0
    outer loop
      vertex -10.9 0 0
      vertex -10.6618 -2.26624 0
      vertex -10.9 0 18
    endloop
  endfacet
  facet normal -0.994522 -0.104528 0
    outer loop
      vertex -10.9 0 18
      vertex -10.6618 -2.26624 0
      vertex -10.6618 -2.26624 18
    endloop
  endfacet
  facet normal -0.951056 -0.309017 0
    outer loop
      vertex -10.6618 -2.26624 0
      vertex -9.95764 -4.43343 0
      vertex -10.6618 -2.26624 18
    endloop
  endfacet
  facet normal -0.951056 -0.309017 0
    outer loop
      vertex -10.6618 -2.26624 18
      vertex -9.95764 -4.43343 0
      vertex -9.95764 -4.43343 18
    endloop
  endfacet
  facet normal -0.866025 -0.5 0
    outer loop
      vertex -9.95764 -4.43343 0
      vertex -8.81828 -6.40686 0
      vertex -9.95764 -4.43343 18
    endloop
  endfacet
  facet normal -0.866025 -0.5 0
    outer loop
      vertex -9.95764 -4.43343 18
      vertex -8.81828 -6.40686 0
      vertex -8.81828 -6.40686 18
    endloop
  endfacet
  facet normal -0.743145 -0.66913 0
    outer loop
      vertex -8.81828 -6.40686 0
      vertex -7.29352 -8.10028 0
      vertex -8.81828 -6.40686 18
    endloop
  endfacet
  facet normal -0.743145 -0.66913 0
    outer loop
      vertex -8.81828 -6.40686 18
      vertex -7.29352 -8.10028 0
      vertex -7.29352 -8.10028 18
    endloop
  endfacet
  facet normal -0.587785 -0.809017 0
    outer loop
      vertex -7.29352 -8.10028 18
      vertex -7.29352 -8.10028 0
      vertex -5.45 -9.43968 0
    endloop
  endfacet
  facet normal -0.587785 -0.809017 0
    outer loop
      vertex -5.45 -9.43968 18
      vertex -7.29352 -8.10028 18
      vertex -5.45 -9.43968 0
    endloop
  endfacet
  facet normal -0.406737 -0.913545 0
    outer loop
      vertex -5.45 -9.43968 18
      vertex -5.45 -9.43968 0
      vertex -3.36828 -10.3665 0
    endloop
  endfacet
  facet normal -0.406737 -0.913545 0
    outer loop
      vertex -3.36828 -10.3665 18
      vertex -5.45 -9.43968 18
      vertex -3.36828 -10.3665 0
    endloop
  endfacet
  facet normal -0.207912 -0.978148 0
    outer loop
      vertex -3.36828 -10.3665 18
      vertex -3.36828 -10.3665 0
      vertex -1.13936 -10.8403 0
    endloop
  endfacet
  facet normal -0.207912 -0.978148 0
    outer loop
      vertex -1.13936 -10.8403 18
      vertex -3.36828 -10.3665 18
      vertex -1.13936 -10.8403 0
    endloop
  endfacet
  facet normal 0 -1 0
    outer loop
      vertex -1.13936 -10.8403 18
      vertex -1.13936 -10.8403 0
      vertex 1.13936 -10.8403 0
    endloop
  endfacet
  facet normal 0 -1 0
    outer loop
      vertex 1.13936 -10.8403 18
      vertex -1.13936 -10.8403 18
      vertex 1.13936 -10.8403 0
    endloop
  endfacet
  facet normal 0.207912 -0.978148 0
    outer loop
      vertex 1.13936 -10.8403 18
      vertex 1.13936 -10.8403 0
      vertex 3.36828 -10.3665 0
    endloop
  endfacet
  facet normal 0.207912 -0.978148 0
    outer loop
      vertex 3.36828 -10.3665 18
      vertex 1.13936 -10.8403 18
      vertex 3.36828 -10.3665 0
    endloop
  endfacet
  facet normal 0.406737 -0.913545 0
    outer loop
      vertex 3.36828 -10.3665 18
      vertex 3.36828 -10.3665 0
      vertex 5.45 -9.43968 0
    endloop
  endfacet
  facet normal 0.406737 -0.913545 0
    outer loop
      vertex 5.45 -9.43968 18
      vertex 3.36828 -10.3665 18
      vertex 5.45 -9.43968 0
    endloop
  endfacet
  facet normal 0.587785 -0.809017 0
    outer loop
      vertex 5.45 -9.43968 18
      vertex 5.45 -9.43968 0
      vertex 7.29352 -8.10028 0
    endloop
  endfacet
  facet normal 0.587785 -0.809017 0
    outer loop
      vertex 7.29352 -8.10028 18
      vertex 5.45 -9.43968 18
      vertex 7.29352 -8.10028 0
    endloop
  endfacet
  facet normal 0.743145 -0.66913 0
    outer loop
      vertex 7.29352 -8.10028 18
      vertex 7.29352 -8.10028 0
      vertex 8.81828 -6.40686 0
    endloop
  endfacet
  facet normal 0.743145 -0.66913 0
    outer loop
      vertex 8.81828 -6.40686 18
      vertex 7.29352 -8.10028 18
      vertex 8.81828 -6.40686 0
    endloop
  endfacet
  facet normal 0.866025 -0.5 0
    outer loop
      vertex 8.81828 -6.40686 18
      vertex 8.81828 -6.40686 0
      vertex 9.95764 -4.43343 0
    endloop
  endfacet
  facet normal 0.866025 -0.5 0
    outer loop
      vertex 9.95764 -4.43343 18
      vertex 8.81828 -6.40686 18
      vertex 9.95764 -4.43343 0
    endloop
  endfacet
  facet normal 0.951056 -0.309017 0
    outer loop
      vertex 9.95764 -4.43343 18
      vertex 9.95764 -4.43343 0
      vertex 10.6618 -2.26624 0
    endloop
  endfacet
  facet normal 0.951056 -0.309017 0
    outer loop
      vertex 10.6618 -2.26624 18
      vertex 9.95764 -4.43343 18
      vertex 10.6618 -2.26624 0
    endloop
  endfacet
  facet normal 0.994522 -0.104528 0
    outer loop
      vertex 10.6618 -2.26624 18
      vertex 10.6618 -2.26624 0
      vertex 10.9 0 0
    endloop
  endfacet
  facet normal 0.994522 -0.104528 0
    outer loop
      vertex 10.9 0 18
      vertex 10.6618 -2.26624 18
      vertex 10.9 0 0
    endloop
  endfacet
  facet normal 0.994522 0.104528 0
    outer loop
      vertex 10.9 0 0
      vertex 10.6618 2.26624 0
      vertex 10.6618 2.26624 18
    endloop
  endfacet
  facet normal 0.994522 0.104528 0
    outer loop
      vertex 10.9 0 18
      vertex 10.9 0 0
      vertex 10.6618 2.26624 18
    endloop
  endfacet
  facet normal 0.951056 0.309017 0
    outer loop
      vertex 10.6618 2.26624 0
      vertex 9.95764 4.43343 0
      vertex 9.95764 4.43343 18
    endloop
  endfacet
  facet normal 0.951056 0.309017 0
    outer loop
      vertex 10.6618 2.26624 18
      vertex 10.6618 2.26624 0
      vertex 9.95764 4.43343 18
    endloop
  endfacet
  facet normal 0.866025 0.5 0
    outer loop
      vertex 9.95764 4.43343 0
      vertex 8.81828 6.40686 0
      vertex 8.81828 6.40686 18
    endloop
  endfacet
  facet normal 0.866025 0.5 0
    outer loop
      vertex 9.95764 4.43343 18
      vertex 9.95764 4.43343 0
      vertex 8.81828 6.40686 18
    endloop
  endfacet
  facet normal 0.743145 0.66913 0
    outer loop
      vertex 8.81828 6.40686 0
      vertex 7.29352 8.10028 0
      vertex 7.29352 8.10028 18
    endloop
  endfacet
  facet normal 0.743145 0.66913 0
    outer loop
      vertex 8.81828 6.40686 18
      vertex 8.81828 6.40686 0
      vertex 7.29352 8.10028 18
    endloop
  endfacet
  facet normal 0.587785 0.809017 0
    outer loop
      vertex 5.45 9.43968 0
      vertex 5.45 9.43968 18
      vertex 7.29352 8.10028 0
    endloop
  endfacet
  facet normal 0.587785 0.809017 0
    outer loop
      vertex 7.29352 8.10028 0
      vertex 5.45 9.43968 18
      vertex 7.29352 8.10028 18
    endloop
  endfacet
  facet normal 0.406737 0.913545 0
    outer loop
      vertex 3.36828 10.3665 0
      vertex 3.36828 10.3665 18
      vertex 5.45 9.43968 0
    endloop
  endfacet
  facet normal 0.406737 0.913545 0
    outer loop
      vertex 5.45 9.43968 0
      vertex 3.36828 10.3665 18
      vertex 5.45 9.43968 18
    endloop
  endfacet
  facet normal 0.207912 0.978148 0
    outer loop
      vertex 1.13936 10.8403 0
      vertex 1.13936 10.8403 18
      vertex 3.36828 10.3665 0
    endloop
  endfacet
  facet normal 0.207912 0.978148 0
    outer loop
      vertex 3.36828 10.3665 0
      vertex 1.13936 10.8403 18
      vertex 3.36828 10.3665 18
    endloop
  endfacet
  facet normal 0 1 0
    outer loop
      vertex -1.13936 10.8403 0
      vertex -1.13936 10.8403 18
      vertex 1.13936 10.8403 0
    endloop
  endfacet
  facet normal 0 1 0
    outer loop
      vertex 1.13936 10.8403 0
      vertex -1.13936 10.8403 18
      vertex 1.13936 10.8403 18
    endloop
  endfacet
  facet normal -0.207912 0.978148 0
    outer loop
      vertex -3.36828 10.3665 0
      vertex -3.36828 10.3665 18
      vertex -1.13936 10.8403 0
    endloop
  endfacet
  facet normal -0.207912 0.978148 0
    outer loop
      vertex -1.13936 10.8403 0
      vertex -3.36828 10.3665 18
      vertex -1.13936 10.8403 18
    endloop
  endfacet
  facet normal -0.406737 0.913545 0
    outer loop
      vertex -5.45 9.43968 0
      vertex -5.45 9.43968 18
      vertex -3.36828 10.3665 0
    endloop
  endfacet
  facet normal -0.406737 0.913545 0
    outer loop
      vertex -3.36828 10.3665 0
      vertex -5.45 9.43968 18
      vertex -3.36828 10.3665 18
    endloop
  endfacet
  facet normal -0.587785 0.809017 0
    outer loop
      vertex -7.29352 8.10028 0
      vertex -7.29352 8.10028 18
      vertex -5.45 9.43968 0
    endloop
  endfacet
  facet normal -0.587785 0.809017 0
    outer loop
      vertex -5.45 9.43968 0
      vertex -7.29352 8.10028 18
      vertex -5.45 9.43968 18
    endloop
  endfacet
  facet normal -0.743145 0.66913 0
    outer loop
      vertex -8.81828 6.40686 0
      vertex -8.81828 6.40686 18
      vertex -7.29352 8.10028 0
    endloop
  endfacet
  facet normal -0.743145 0.66913 0
    outer loop
      vertex -7.29352 8.10028 0
      vertex -8.81828 6.40686 18
      vertex -7.29352 8.10028 18
    endloop
  endfacet
  facet normal -0.866025 0.5 0
    outer loop
      vertex -9.95764 4.43343 0
      vertex -9.95764 4.43343 18
      vertex -8.81828 6.40686 0
    endloop
  endfacet
  facet normal -0.866025 0.5 0
    outer loop
      vertex -8.81828 6.40686 0
      vertex -9.95764 4.43343 18
      vertex -8.81828 6.40686 18
    endloop
  endfacet
  facet normal -0.951056 0.309017 0
    outer loop
      vertex -10.6618 2.26624 0
      vertex -10.6618 2.26624 18
      vertex -9.95764 4.43343 0
    endloop
  endfacet
  facet normal -0.951056 0.309017 0
    outer loop
      vertex -9.95764 4.43343 0
      vertex -10.6618 2.26624 18
      vertex -9.95764 4.43343 18
    endloop
  endfacet
  facet normal 1 0 0
    outer loop
      vertex -2.5 2.5 0
      vertex -2.5 2.5 2
      vertex -2.5 -2.5 2
    endloop
  endfacet
  facet normal 1 0 0
    outer loop
      vertex -2.5 -2.5 0
      vertex -2.5 2.5 0
      vertex -2.5 -2.5 2
    endloop
  endfacet
  facet normal 0 -1 0
    outer loop
      vertex 2.5 2.5 0
      vertex 2.5 2.5 2
      vertex -2.5 2.5 2
    endloop
  endfacet
  facet normal 0 -1 0
    outer loop
      vertex -2.5 2.5 0
      vertex 2.5 2.5 0
      vertex -2.5 2.5 2
    endloop
  endfacet
  facet normal -1 0 0
    outer loop
      vertex 2.5 2.5 2
      vertex 2.5 2.5 0
      vertex 2.5 -2.5 2
    endloop
  endfacet
  facet normal -1 0 0
    outer loop
      vertex 2.5 -2.5 2
      vertex 2.5 2.5 0
      vertex 2.5 -2.5 0
    endloop
  endfacet
  facet normal 0 1 0
    outer loop
      vertex 2.5 -2.5 2
      vertex 2.5 -2.5 0
      vertex -2.5 -2.5 2
    endloop
  endfacet
  facet normal 0 1 0
    outer loop
      vertex -2.5 -2.5 2
      vertex 2.5 -2.5 0
      vertex -2.5 -2.5 0
    endloop
  endfacet
  facet normal 0 0 1
    outer loop
      vertex -10.6618 2.26624 18
      vertex -10.9 0 18
      vertex -10.6618 -2.26624 18
    endloop
  endfacet
  facet normal 0 0 1
    outer loop
      vertex -8.81828 -6.40686 18
      vertex -10.6618 2.26624 18
      vertex -9.95764 -4.43343 18
    endloop
  endfacet
  facet normal 0 0 1
    outer loop
      vertex -9.95764 -4.43343 18
      vertex -10.6618 2.26624 18
      vertex -10.6618 -2.26624 18
    endloop
  endfacet
  facet normal 0 0 1
    outer loop
      vertex -7.29352 -8.10028 18
      vertex -10.6618 2.26624 18
      vertex -8.81828 -6.40686 18
    endloop
  endfacet
  facet normal 0 0 1
    outer loop
      vertex -5.45 -9.43968 18
      vertex -10.6618 2.26624 18
      vertex -7.29352 -8.10028 18
    endloop
  endfacet
  facet normal 0 0 1
    outer loop
      vertex -3.36828 -10.3665 18
      vertex -10.6618 2.26624 18
      vertex -5.45 -9.43968 18
    endloop
  endfacet
  facet normal 0 0 1
    outer loop
      vertex -7.08365 -3.71778 18
      vertex -10.6618 2.26624 18
      vertex -3.36828 -10.3665 18
    endloop
  endfacet
  facet normal 0 0 1
    outer loop
      vertex -7.76753 1.91452 18
      vertex -7.08365 3.71778 18
      vertex -10.6618 2.26624 18
    endloop
  endfacet
  facet normal 0 0 1
    outer loop
      vertex -7.08365 3.71778 18
      vertex -5.98809 5.30498 18
      vertex -10.6618 2.26624 18
    endloop
  endfacet
  facet normal 0 0 1
    outer loop
      vertex 7.76753 1.91452 18
      vertex 8 0 18
      vertex 10.9 0 18
    endloop
  endfacet
  facet normal 0 0 1
    outer loop
      vertex -0.964293 7.94167 18
      vertex 0.964293 7.94167 18
      vertex 3.36828 10.3665 18
    endloop
  endfacet
  facet normal 0 0 1
    outer loop
      vertex -4.54452 6.58387 18
      vertex -2.83684 7.48013 18
      vertex 1.13936 10.8403 18
    endloop
  endfacet
  facet normal 0 0 1
    outer loop
      vertex -1.13936 10.8403 18
      vertex -10.6618 2.26624 18
      vertex 1.13936 10.8403 18
    endloop
  endfacet
  facet normal 0 0 1
    outer loop
      vertex -3.36828 10.3665 18
      vertex -10.6618 2.26624 18
      vertex -1.13936 10.8403 18
    endloop
  endfacet
  facet normal 0 0 1
    outer loop
      vertex -5.45 9.43968 18
      vertex -10.6618 2.26624 18
      vertex -3.36828 10.3665 18
    endloop
  endfacet
  facet normal 0 0 1
    outer loop
      vertex -7.29352 8.10028 18
      vertex -10.6618 2.26624 18
      vertex -5.45 9.43968 18
    endloop
  endfacet
  facet normal 0 0 1
    outer loop
      vertex -8.81828 6.40686 18
      vertex -10.6618 2.26624 18
      vertex -7.29352 8.10028 18
    endloop
  endfacet
  facet normal 0 0 1
    outer loop
      vertex -9.95764 4.43343 18
      vertex -10.6618 2.26624 18
      vertex -8.81828 6.40686 18
    endloop
  endfacet
  facet normal 0 0 1
    outer loop
      vertex 2.83684 -7.48013 18
      vertex 0.964293 -7.94167 18
      vertex 5.45 -9.43968 18
    endloop
  endfacet
  facet normal 0 0 1
    outer loop
      vertex -0.964293 -7.94167 18
      vertex -2.83684 -7.48013 18
      vertex 1.13936 -10.8403 18
    endloop
  endfacet
  facet normal 0 0 1
    outer loop
      vertex 7.76753 -1.91452 18
      vertex 7.08365 -3.71778 18
      vertex 9.95764 -4.43343 18
    endloop
  endfacet
  facet normal 0 0 1
    outer loop
      vertex 4.54452 6.58387 18
      vertex 5.98809 5.30498 18
      vertex 8.81828 6.40686 18
    endloop
  endfacet
  facet normal 0 0 1
    outer loop
      vertex -4.54452 6.58387 18
      vertex -10.6618 2.26624 18
      vertex -5.98809 5.30498 18
    endloop
  endfacet
  facet normal 0 0 1
    outer loop
      vertex -2.83684 7.48013 18
      vertex -0.964293 7.94167 18
      vertex 3.36828 10.3665 18
    endloop
  endfacet
  facet normal 0 0 1
    outer loop
      vertex 1.13936 10.8403 18
      vertex -10.6618 2.26624 18
      vertex -4.54452 6.58387 18
    endloop
  endfacet
  facet normal 0 0 1
    outer loop
      vertex 1.13936 10.8403 18
      vertex -2.83684 7.48013 18
      vertex 3.36828 10.3665 18
    endloop
  endfacet
  facet normal 0 0 1
    outer loop
      vertex 3.36828 10.3665 18
      vertex 0.964293 7.94167 18
      vertex 5.45 9.43968 18
    endloop
  endfacet
  facet normal 0 0 1
    outer loop
      vertex 0.964293 7.94167 18
      vertex 2.83684 7.48013 18
      vertex 5.45 9.43968 18
    endloop
  endfacet
  facet normal 0 0 1
    outer loop
      vertex 5.45 9.43968 18
      vertex 2.83684 7.48013 18
      vertex 7.29352 8.10028 18
    endloop
  endfacet
  facet normal 0 0 1
    outer loop
      vertex 7.29352 8.10028 18
      vertex 4.54452 6.58387 18
      vertex 8.81828 6.40686 18
    endloop
  endfacet
  facet normal 0 0 1
    outer loop
      vertex 8.81828 6.40686 18
      vertex 5.98809 5.30498 18
      vertex 9.95764 4.43343 18
    endloop
  endfacet
  facet normal 0 0 1
    outer loop
      vertex 2.83684 7.48013 18
      vertex 4.54452 6.58387 18
      vertex 7.29352 8.10028 18
    endloop
  endfacet
  facet normal 0 0 1
    outer loop
      vertex 9.95764 4.43343 18
      vertex 7.08365 3.71778 18
      vertex 10.6618 2.26624 18
    endloop
  endfacet
  facet normal 0 0 1
    outer loop
      vertex 10.6618 2.26624 18
      vertex 7.76753 1.91452 18
      vertex 10.9 0 18
    endloop
  endfacet
  facet normal 0 0 1
    outer loop
      vertex 10.9 0 18
      vertex 8 0 18
      vertex 10.6618 -2.26624 18
    endloop
  endfacet
  facet normal 0 0 1
    outer loop
      vertex 10.6618 -2.26624 18
      vertex 7.76753 -1.91452 18
      vertex 9.95764 -4.43343 18
    endloop
  endfacet
  facet normal 0 0 1
    outer loop
      vertex 5.98809 5.30498 18
      vertex 7.08365 3.71778 18
      vertex 9.95764 4.43343 18
    endloop
  endfacet
  facet normal 0 0 1
    outer loop
      vertex 9.95764 -4.43343 18
      vertex 7.08365 -3.71778 18
      vertex 8.81828 -6.40686 18
    endloop
  endfacet
  facet normal 0 0 1
    outer loop
      vertex 7.08365 3.71778 18
      vertex 7.76753 1.91452 18
      vertex 10.6618 2.26624 18
    endloop
  endfacet
  facet normal 0 0 1
    outer loop
      vertex 8.81828 -6.40686 18
      vertex 5.98809 -5.30498 18
      vertex 7.29352 -8.10028 18
    endloop
  endfacet
  facet normal 0 0 1
    outer loop
      vertex 7.29352 -8.10028 18
      vertex 4.54452 -6.58387 18
      vertex 5.45 -9.43968 18
    endloop
  endfacet
  facet normal 0 0 1
    outer loop
      vertex -2.83684 -7.48013 18
      vertex -4.54452 -6.58387 18
      vertex -1.13936 -10.8403 18
    endloop
  endfacet
  facet normal 0 0 1
    outer loop
      vertex 4.54452 -6.58387 18
      vertex 2.83684 -7.48013 18
      vertex 5.45 -9.43968 18
    endloop
  endfacet
  facet normal 0 0 1
    outer loop
      vertex 8 0 18
      vertex 7.76753 -1.91452 18
      vertex 10.6618 -2.26624 18
    endloop
  endfacet
  facet normal 0 0 1
    outer loop
      vertex 5.45 -9.43968 18
      vertex 0.964293 -7.94167 18
      vertex 3.36828 -10.3665 18
    endloop
  endfacet
  facet normal 0 0 1
    outer loop
      vertex 3.36828 -10.3665 18
      vertex -0.964293 -7.94167 18
      vertex 1.13936 -10.8403 18
    endloop
  endfacet
  facet normal 0 0 1
    outer loop
      vertex 7.08365 -3.71778 18
      vertex 5.98809 -5.30498 18
      vertex 8.81828 -6.40686 18
    endloop
  endfacet
  facet normal 0 0 1
    outer loop
      vertex 1.13936 -10.8403 18
      vertex -2.83684 -7.48013 18
      vertex -1.13936 -10.8403 18
    endloop
  endfacet
  facet normal 0 0 1
    outer loop
      vertex 5.98809 -5.30498 18
      vertex 4.54452 -6.58387 18
      vertex 7.29352 -8.10028 18
    endloop
  endfacet
  facet normal 0 0 1
    outer loop
      vertex -1.13936 -10.8403 18
      vertex -4.54452 -6.58387 18
      vertex -3.36828 -10.3665 18
    endloop
  endfacet
  facet normal 0 0 1
    outer loop
      vertex -4.54452 -6.58387 18
      vertex -5.98809 -5.30498 18
      vertex -3.36828 -10.3665 18
    endloop
  endfacet
  facet normal 0 0 1
    outer loop
      vertex -7.76753 -1.91452 18
      vertex -10.6618 2.26624 18
      vertex -7.08365 -3.71778 18
    endloop
  endfacet
  facet normal 0 0 1
    outer loop
      vertex -5.98809 -5.30498 18
      vertex -7.08365 -3.71778 18
      vertex -3.36828 -10.3665 18
    endloop
  endfacet
  facet normal 0 0 1
    outer loop
      vertex -7.76753 -1.91452 18
      vertex -8 0 18
      vertex -10.6618 2.26624 18
    endloop
  endfacet
  facet normal 0 0 1
    outer loop
      vertex 0.964293 -7.94167 18
      vertex -0.964293 -7.94167 18
      vertex 3.36828 -10.3665 18
    endloop
  endfacet
  facet normal 0 0 1
    outer loop
      vertex -8 0 18
      vertex -7.76753 1.91452 18
      vertex -10.6618 2.26624 18
    endloop
  endfacet
  facet normal 0 0 1
    outer loop
      vertex -7.76753 -1.91452 2
      vertex -7.08365 -3.71778 2
      vertex -5.98809 -5.30498 2
    endloop
  endfacet
  facet normal 0 0 1
    outer loop
      vertex -2.83684 -7.48013 2
      vertex -7.76753 -1.91452 2
      vertex -4.54452 -6.58387 2
    endloop
  endfacet
  facet normal 0 0 1
    outer loop
      vertex -4.54452 -6.58387 2
      vertex -7.76753 -1.91452 2
      vertex -5.98809 -5.30498 2
    endloop
  endfacet
  facet normal 0 0 1
    outer loop
      vertex -0.964293 -7.94167 2
      vertex -7.76753 -1.91452 2
      vertex -2.83684 -7.48013 2
    endloop
  endfacet
  facet normal 0 0 1
    outer loop
      vertex 0.964293 -7.94167 2
      vertex -7.76753 -1.91452 2
      vertex -0.964293 -7.94167 2
    endloop
  endfacet
  facet normal 0 0 1
    outer loop
      vertex 2.83684 -7.48013 2
      vertex -7.76753 -1.91452 2
      vertex 0.964293 -7.94167 2
    endloop
  endfacet
  facet normal 0 0 1
    outer loop
      vertex 4.54452 -6.58387 2
      vertex -7.76753 -1.91452 2
      vertex 2.83684 -7.48013 2
    endloop
  endfacet
  facet normal 0 0 1
    outer loop
      vertex 5.98809 -5.30498 2
      vertex -7.76753 -1.91452 2
      vertex 4.54452 -6.58387 2
    endloop
  endfacet
  facet normal 0 0 1
    outer loop
      vertex 7.08365 -3.71778 2
      vertex -7.76753 -1.91452 2
      vertex 5.98809 -5.30498 2
    endloop
  endfacet
  facet normal 0 0 1
    outer loop
      vertex -2.5 -2.5 2
      vertex -7.76753 -1.91452 2
      vertex 7.08365 -3.71778 2
    endloop
  endfacet
  facet normal 0 0 1
    outer loop
      vertex 2.5 2.5 2
      vertex 2.5 -2.5 2
      vertex 7.76753 -1.91452 2
    endloop
  endfacet
  facet normal 0 0 1
    outer loop
      vertex 2.5 2.5 2
      vertex 8 0 2
      vertex 7.76753 1.91452 2
    endloop
  endfacet
  facet normal 0 0 1
    outer loop
      vertex 0.964293 7.94167 2
      vertex -7.76753 -1.91452 2
      vertex 2.83684 7.48013 2
    endloop
  endfacet
  facet normal 0 0 1
    outer loop
      vertex -0.964293 7.94167 2
      vertex -7.76753 -1.91452 2
      vertex 0.964293 7.94167 2
    endloop
  endfacet
  facet normal 0 0 1
    outer loop
      vertex -2.83684 7.48013 2
      vertex -7.76753 -1.91452 2
      vertex -0.964293 7.94167 2
    endloop
  endfacet
  facet normal 0 0 1
    outer loop
      vertex -4.54452 6.58387 2
      vertex -7.76753 -1.91452 2
      vertex -2.83684 7.48013 2
    endloop
  endfacet
  facet normal 0 0 1
    outer loop
      vertex -5.98809 5.30498 2
      vertex -7.76753 -1.91452 2
      vertex -4.54452 6.58387 2
    endloop
  endfacet
  facet normal 0 0 1
    outer loop
      vertex -7.08365 3.71778 2
      vertex -7.76753 -1.91452 2
      vertex -5.98809 5.30498 2
    endloop
  endfacet
  facet normal 0 0 1
    outer loop
      vertex -7.76753 1.91452 2
      vertex -7.76753 -1.91452 2
      vertex -7.08365 3.71778 2
    endloop
  endfacet
  facet normal 0 0 1
    outer loop
      vertex -8 0 2
      vertex -7.76753 -1.91452 2
      vertex -7.76753 1.91452 2
    endloop
  endfacet
  facet normal 0 0 1
    outer loop
      vertex 2.83684 7.48013 2
      vertex -2.5 2.5 2
      vertex 4.54452 6.58387 2
    endloop
  endfacet
  facet normal 0 0 1
    outer loop
      vertex 2.83684 7.48013 2
      vertex -7.76753 -1.91452 2
      vertex -2.5 2.5 2
    endloop
  endfacet
  facet normal 0 0 1
    outer loop
      vertex 5.98809 5.30498 2
      vertex 2.5 2.5 2
      vertex 7.08365 3.71778 2
    endloop
  endfacet
  facet normal 0 0 1
    outer loop
      vertex 2.5 2.5 2
      vertex 7.76753 -1.91452 2
      vertex 8 0 2
    endloop
  endfacet
  facet normal 0 0 1
    outer loop
      vertex 7.76753 -1.91452 2
      vertex 2.5 -2.5 2
      vertex 7.08365 -3.71778 2
    endloop
  endfacet
  facet normal 0 0 1
    outer loop
      vertex 2.5 -2.5 2
      vertex -2.5 -2.5 2
      vertex 7.08365 -3.71778 2
    endloop
  endfacet
  facet normal 0 0 1
    outer loop
      vertex -2.5 2.5 2
      vertex 5.98809 5.30498 2
      vertex 4.54452 6.58387 2
    endloop
  endfacet
  facet normal 0 0 1
    outer loop
      vertex -2.5 2.5 2
      vertex 2.5 2.5 2
      vertex 5.98809 5.30498 2
    endloop
  endfacet
  facet normal 0 0 1
    outer loop
      vertex 2.5 2.5 2
      vertex 7.76753 1.91452 2
      vertex 7.08365 3.71778 2
    endloop
  endfacet
  facet normal 0 0 1
    outer loop
      vertex -2.5 -2.5 2
      vertex -2.5 2.5 2
      vertex -7.76753 -1.91452 2
    endloop
  endfacet
  facet normal 0.992709 0.120536 0
    outer loop
      vertex -8 0 18
      vertex -7.76753 -1.91452 18
      vertex -7.76753 -1.91452 2
    endloop
  endfacet
  facet normal 0.992709 0.120536 0
    outer loop
      vertex -8 0 2
      vertex -8 0 18
      vertex -7.76753 -1.91452 2
    endloop
  endfacet
  facet normal 0.935016 0.354605 0
    outer loop
      vertex -7.76753 -1.91452 18
      vertex -7.08365 -3.71778 18
      vertex -7.08365 -3.71778 2
    endloop
  endfacet
  facet normal 0.935016 0.354605 0
    outer loop
      vertex -7.76753 -1.91452 2
      vertex -7.76753 -1.91452 18
      vertex -7.08365 -3.71778 2
    endloop
  endfacet
  facet normal 0.822984 0.568065 0
    outer loop
      vertex -7.08365 -3.71778 18
      vertex -5.98809 -5.30498 18
      vertex -5.98809 -5.30498 2
    endloop
  endfacet
  facet normal 0.822984 0.568065 0
    outer loop
      vertex -7.08365 -3.71778 2
      vertex -7.08365 -3.71778 18
      vertex -5.98809 -5.30498 2
    endloop
  endfacet
  facet normal 0.663123 0.748511 0
    outer loop
      vertex -4.54452 -6.58387 18
      vertex -4.54452 -6.58387 2
      vertex -5.98809 -5.30498 18
    endloop
  endfacet
  facet normal 0.663123 0.748511 0
    outer loop
      vertex -5.98809 -5.30498 18
      vertex -4.54452 -6.58387 2
      vertex -5.98809 -5.30498 2
    endloop
  endfacet
  facet normal 0.464723 0.885456 0
    outer loop
      vertex -2.83684 -7.48013 18
      vertex -2.83684 -7.48013 2
      vertex -4.54452 -6.58387 18
    endloop
  endfacet
  facet normal 0.464723 0.885456 0
    outer loop
      vertex -4.54452 -6.58387 18
      vertex -2.83684 -7.48013 2
      vertex -4.54452 -6.58387 2
    endloop
  endfacet
  facet normal 0.239316 0.970942 0
    outer loop
      vertex -0.964293 -7.94167 18
      vertex -0.964293 -7.94167 2
      vertex -2.83684 -7.48013 18
    endloop
  endfacet
  facet normal 0.239316 0.970942 0
    outer loop
      vertex -2.83684 -7.48013 18
      vertex -0.964293 -7.94167 2
      vertex -2.83684 -7.48013 2
    endloop
  endfacet
  facet normal 0 1 0
    outer loop
      vertex 0.964293 -7.94167 18
      vertex 0.964293 -7.94167 2
      vertex -0.964293 -7.94167 18
    endloop
  endfacet
  facet normal 0 1 0
    outer loop
      vertex -0.964293 -7.94167 18
      vertex 0.964293 -7.94167 2
      vertex -0.964293 -7.94167 2
    endloop
  endfacet
  facet normal -0.239316 0.970942 0
    outer loop
      vertex 2.83684 -7.48013 18
      vertex 2.83684 -7.48013 2
      vertex 0.964293 -7.94167 18
    endloop
  endfacet
  facet normal -0.239316 0.970942 0
    outer loop
      vertex 0.964293 -7.94167 18
      vertex 2.83684 -7.48013 2
      vertex 0.964293 -7.94167 2
    endloop
  endfacet
  facet normal -0.464723 0.885456 0
    outer loop
      vertex 4.54452 -6.58387 18
      vertex 4.54452 -6.58387 2
      vertex 2.83684 -7.48013 18
    endloop
  endfacet
  facet normal -0.464723 0.885456 0
    outer loop
      vertex 2.83684 -7.48013 18
      vertex 4.54452 -6.58387 2
      vertex 2.83684 -7.48013 2
    endloop
  endfacet
  facet normal -0.663123 0.748511 0
    outer loop
      vertex 5.98809 -5.30498 18
      vertex 5.98809 -5.30498 2
      vertex 4.54452 -6.58387 18
    endloop
  endfacet
  facet normal -0.663123 0.748511 0
    outer loop
      vertex 4.54452 -6.58387 18
      vertex 5.98809 -5.30498 2
      vertex 4.54452 -6.58387 2
    endloop
  endfacet
  facet normal -0.822984 0.568065 0
    outer loop
      vertex 7.08365 -3.71778 18
      vertex 7.08365 -3.71778 2
      vertex 5.98809 -5.30498 18
    endloop
  endfacet
  facet normal -0.822984 0.568065 0
    outer loop
      vertex 5.98809 -5.30498 18
      vertex 7.08365 -3.71778 2
      vertex 5.98809 -5.30498 2
    endloop
  endfacet
  facet normal -0.935016 0.354605 0
    outer loop
      vertex 7.76753 -1.91452 18
      vertex 7.76753 -1.91452 2
      vertex 7.08365 -3.71778 18
    endloop
  endfacet
  facet normal -0.935016 0.354605 0
    outer loop
      vertex 7.08365 -3.71778 18
      vertex 7.76753 -1.91452 2
      vertex 7.08365 -3.71778 2
    endloop
  endfacet
  facet normal -0.992709 0.120536 0
    outer loop
      vertex 8 0 18
      vertex 8 0 2
      vertex 7.76753 -1.91452 18
    endloop
  endfacet
  facet normal -0.992709 0.120536 0
    outer loop
      vertex 7.76753 -1.91452 18
      vertex 8 0 2
      vertex 7.76753 -1.91452 2
    endloop
  endfacet
  facet normal -0.992709 -0.120536 0
    outer loop
      vertex 8 0 18
      vertex 7.76753 1.91452 18
      vertex 8 0 2
    endloop
  endfacet
  facet normal -0.992709 -0.120536 0
    outer loop
      vertex 8 0 2
      vertex 7.76753 1.91452 18
      vertex 7.76753 1.91452 2
    endloop
  endfacet
  facet normal -0.935016 -0.354605 0
    outer loop
      vertex 7.76753 1.91452 18
      vertex 7.08365 3.71778 18
      vertex 7.76753 1.91452 2
    endloop
  endfacet
  facet normal -0.935016 -0.354605 0
    outer loop
      vertex 7.76753 1.91452 2
      vertex 7.08365 3.71778 18
      vertex 7.08365 3.71778 2
    endloop
  endfacet
  facet normal -0.822984 -0.568065 0
    outer loop
      vertex 7.08365 3.71778 18
      vertex 5.98809 5.30498 18
      vertex 7.08365 3.71778 2
    endloop
  endfacet
  facet normal -0.822984 -0.568065 0
    outer loop
      vertex 7.08365 3.71778 2
      vertex 5.98809 5.30498 18
      vertex 5.98809 5.30498 2
    endloop
  endfacet
  facet normal -0.663123 -0.748511 0
    outer loop
      vertex 5.98809 5.30498 2
      vertex 5.98809 5.30498 18
      vertex 4.54452 6.58387 18
    endloop
  endfacet
  facet normal -0.663123 -0.748511 0
    outer loop
      vertex 4.54452 6.58387 2
      vertex 5.98809 5.30498 2
      vertex 4.54452 6.58387 18
    endloop
  endfacet
  facet normal -0.464723 -0.885456 0
    outer loop
      vertex 4.54452 6.58387 2
      vertex 4.54452 6.58387 18
      vertex 2.83684 7.48013 18
    endloop
  endfacet
  facet normal -0.464723 -0.885456 0
    outer loop
      vertex 2.83684 7.48013 2
      vertex 4.54452 6.58387 2
      vertex 2.83684 7.48013 18
    endloop
  endfacet
  facet normal -0.239316 -0.970942 0
    outer loop
      vertex 2.83684 7.48013 2
      vertex 2.83684 7.48013 18
      vertex 0.964293 7.94167 18
    endloop
  endfacet
  facet normal -0.239316 -0.970942 0
    outer loop
      vertex 0.964293 7.94167 2
      vertex 2.83684 7.48013 2
      vertex 0.964293 7.94167 18
    endloop
  endfacet
  facet normal 0 -1 0
    outer loop
      vertex 0.964293 7.94167 2
      vertex 0.964293 7.94167 18
      vertex -0.964293 7.94167 18
    endloop
  endfacet
  facet normal 0 -1 0
    outer loop
      vertex -0.964293 7.94167 2
      vertex 0.964293 7.94167 2
      vertex -0.964293 7.94167 18
    endloop
  endfacet
  facet normal 0.239316 -0.970942 0
    outer loop
      vertex -0.964293 7.94167 2
      vertex -0.964293 7.94167 18
      vertex -2.83684 7.48013 18
    endloop
  endfacet
  facet normal 0.239316 -0.970942 0
    outer loop
      vertex -2.83684 7.48013 2
      vertex -0.964293 7.94167 2
      vertex -2.83684 7.48013 18
    endloop
  endfacet
  facet normal 0.464723 -0.885456 0
    outer loop
      vertex -2.83684 7.48013 2
      vertex -2.83684 7.48013 18
      vertex -4.54452 6.58387 18
    endloop
  endfacet
  facet normal 0.464723 -0.885456 0
    outer loop
      vertex -4.54452 6.58387 2
      vertex -2.83684 7.48013 2
      vertex -4.54452 6.58387 18
    endloop
  endfacet
  facet normal 0.663123 -0.748511 0
    outer loop
      vertex -4.54452 6.58387 2
      vertex -4.54452 6.58387 18
      vertex -5.98809 5.30498 18
    endloop
  endfacet
  facet normal 0.663123 -0.748511 0
    outer loop
      vertex -5.98809 5.30498 2
      vertex -4.54452 6.58387 2
      vertex -5.98809 5.30498 18
    endloop
  endfacet
  facet normal 0.822984 -0.568065 0
    outer loop
      vertex -5.98809 5.30498 2
      vertex -5.98809 5.30498 18
      vertex -7.08365 3.71778 18
    endloop
  endfacet
  facet normal 0.822984 -0.568065 0
    outer loop
      vertex -7.08365 3.71778 2
      vertex -5.98809 5.30498 2
      vertex -7.08365 3.71778 18
    endloop
  endfacet
  facet normal 0.935016 -0.354605 0
    outer loop
      vertex -7.08365 3.71778 2
      vertex -7.08365 3.71778 18
      vertex -7.76753 1.91452 18
    endloop
  endfacet
  facet normal 0.935016 -0.354605 0
    outer loop
      vertex -7.76753 1.91452 2
      vertex -7.08365 3.71778 2
      vertex -7.76753 1.91452 18
    endloop
  endfacet
  facet normal 0.992709 -0.120536 0
    outer loop
      vertex -7.76753 1.91452 2
      vertex -7.76753 1.91452 18
      vertex -8 0 18
    endloop
  endfacet
  facet normal 0.992709 -0.120536 0
    outer loop
      vertex -8 0 2
      vertex -7.76753 1.91452 2
      vertex -8 0 18
    endloop
  endfacet
endsolid OpenSCAD_Model
