solid OpenSCAD_Model
  facet normal 0 0 -1
    outer loop
      vertex -14 0 0
      vertex -13.6941 2.91076 0
      vertex -13.6941 -2.91076 0
    endloop
  endfacet
  facet normal 0 0 -1
    outer loop
      vertex -13.6941 -2.91076 0
      vertex -13.6941 2.91076 0
      vertex -12.7896 5.69431 0
    endloop
  endfacet
  facet normal 0 0 -1
    outer loop
      vertex -13.6941 -2.91076 0
      vertex -12.7896 5.69431 0
      vertex -11.3262 8.22899 0
    endloop
  endfacet
  facet normal 0 0 -1
    outer loop
      vertex -13.6941 -2.91076 0
      vertex -11.3262 8.22899 0
      vertex -9.36783 10.404 0
    endloop
  endfacet
  facet normal 0 0 -1
    outer loop
      vertex -13.6941 -2.91076 0
      vertex -9.36783 10.404 0
      vertex -7 12.1244 0
    endloop
  endfacet
  facet normal 0 0 -1
    outer loop
      vertex -7.36044 8.17459 0
      vertex -7 12.1244 0
      vertex -4.32624 13.3148 0
    endloop
  endfacet
  facet normal 0 0 -1
    outer loop
      vertex -5.5 9.52628 0
      vertex -4.32624 13.3148 0
      vertex -1.4634 13.9233 0
    endloop
  endfacet
  facet normal 0 0 -1
    outer loop
      vertex -3.39919 10.4616 0
      vertex -1.4634 13.9233 0
      vertex 1.4634 13.9233 0
    endloop
  endfacet
  facet normal 0 0 -1
    outer loop
      vertex 1.14981 10.9397 0
      vertex 1.4634 13.9233 0
      vertex 4.32624 13.3148 0
    endloop
  endfacet
  facet normal 0 0 -1
    outer loop
      vertex 3.39919 10.4616 0
      vertex 4.32624 13.3148 0
      vertex 7 12.1244 0
    endloop
  endfacet
  facet normal 0 0 -1
    outer loop
      vertex 5.5 9.52628 0
      vertex 7 12.1244 0
      vertex 9.36783 10.404 0
    endloop
  endfacet
  facet normal 0 0 -1
    outer loop
      vertex 7.36044 8.17459 0
      vertex 9.36783 10.404 0
      vertex 11.3262 8.22899 0
    endloop
  endfacet
  facet normal 0 0 -1
    outer loop
      vertex 8.89919 6.46564 0
      vertex 11.3262 8.22899 0
      vertex 12.7896 5.69431 0
    endloop
  endfacet
  facet normal 0 0 -1
    outer loop
      vertex 10.049 4.4741 0
      vertex 12.7896 5.69431 0
      vertex 13.6941 2.91076 0
    endloop
  endfacet
  facet normal 0 0 -1
    outer loop
      vertex 11 0 0
      vertex 13.6941 2.91076 0
      vertex 14 0 0
    endloop
  endfacet
  facet normal 0 0 -1
    outer loop
      vertex 10.7596 -2.28703 0
      vertex 14 0 0
      vertex 13.6941 -2.91076 0
    endloop
  endfacet
  facet normal 0 0 -1
    outer loop
      vertex 10.049 -4.4741 0
      vertex 13.6941 -2.91076 0
      vertex 12.7896 -5.69431 0
    endloop
  endfacet
  facet normal 0 0 -1
    outer loop
      vertex 8.89919 -6.46564 0
      vertex 12.7896 -5.69431 0
      vertex 11.3262 -8.22899 0
    endloop
  endfacet
  facet normal 0 0 -1
    outer loop
      vertex 7.36044 -8.17459 0
      vertex 11.3262 -8.22899 0
      vertex 9.36783 -10.404 0
    endloop
  endfacet
  facet normal 0 0 -1
    outer loop
      vertex 3.39919 -10.4616 0
      vertex 9.36783 -10.404 0
      vertex 7 -12.1244 0
    endloop
  endfacet
  facet normal 0 0 -1
    outer loop
      vertex 1.14981 -10.9397 0
      vertex 7 -12.1244 0
      vertex 4.32624 -13.3148 0
    endloop
  endfacet
  facet normal 0 0 -1
    outer loop
      vertex -1.14981 -10.9397 0
      vertex 4.32624 -13.3148 0
      vertex 1.4634 -13.9233 0
    endloop
  endfacet
  facet normal 0 0 -1
    outer loop
      vertex -5.5 -9.52628 0
      vertex 1.4634 -13.9233 0
      vertex -1.4634 -13.9233 0
    endloop
  endfacet
  facet normal 0 0 -1
    outer loop
      vertex -13.6941 -2.91076 0
      vertex -1.4634 -13.9233 0
      vertex -4.32624 -13.3148 0
    endloop
  endfacet
  facet normal 0 0 -1
    outer loop
      vertex -13.6941 -2.91076 0
      vertex -4.32624 -13.3148 0
      vertex -7 -12.1244 0
    endloop
  endfacet
  facet normal 0 0 -1
    outer loop
      vertex -13.6941 -2.91076 0
      vertex -7 -12.1244 0
      vertex -9.36783 -10.404 0
    endloop
  endfacet
  facet normal 0 0 -1
    outer loop
      vertex -13.6941 -2.91076 0
      vertex -9.36783 -10.404 0
      vertex -11.3262 -8.22899 0
    endloop
  endfacet
  facet normal 0 0 -1
    outer loop
      vertex -13.6941 -2.91076 0
      vertex -11.3262 -8.22899 0
      vertex -12.7896 -5.69431 0
    endloop
  endfacet
  facet normal 0 0 -1
    outer loop
      vertex -10.7596 -2.28703 0
      vertex -13.6941 -2.91076 0
      vertex -11 0 0
    endloop
  endfacet
  facet normal 0 0 -1
    outer loop
      vertex 10.049 -4.4741 0
      vertex 12.7896 -5.69431 0
      vertex 8.89919 -6.46564 0
    endloop
  endfacet
  facet normal 0 0 -1
    outer loop
      vertex -10.049 -4.4741 0
      vertex -13.6941 -2.91076 0
      vertex -10.7596 -2.28703 0
    endloop
  endfacet
  facet normal 0 0 -1
    outer loop
      vertex -8.89919 -6.46564 0
      vertex -13.6941 -2.91076 0
      vertex -10.049 -4.4741 0
    endloop
  endfacet
  facet normal 0 0 -1
    outer loop
      vertex -5.5 -9.52628 0
      vertex -1.4634 -13.9233 0
      vertex -7.36044 -8.17459 0
    endloop
  endfacet
  facet normal 0 0 -1
    outer loop
      vertex -13.6941 -2.91076 0
      vertex -8.89919 -6.46564 0
      vertex -7.36044 -8.17459 0
    endloop
  endfacet
  facet normal 0 0 -1
    outer loop
      vertex -13.6941 -2.91076 0
      vertex -7.36044 -8.17459 0
      vertex -1.4634 -13.9233 0
    endloop
  endfacet
  facet normal 0 0 -1
    outer loop
      vertex -3.39919 -10.4616 0
      vertex 1.4634 -13.9233 0
      vertex -5.5 -9.52628 0
    endloop
  endfacet
  facet normal 0 0 -1
    outer loop
      vertex -1.14981 -10.9397 0
      vertex 1.4634 -13.9233 0
      vertex -3.39919 -10.4616 0
    endloop
  endfacet
  facet normal 0 0 -1
    outer loop
      vertex 5.5 -9.52628 0
      vertex 9.36783 -10.404 0
      vertex 3.39919 -10.4616 0
    endloop
  endfacet
  facet normal 0 0 -1
    outer loop
      vertex 7.36044 -8.17459 0
      vertex 9.36783 -10.404 0
      vertex 5.5 -9.52628 0
    endloop
  endfacet
  facet normal 0 0 -1
    outer loop
      vertex 3.39919 -10.4616 0
      vertex 7 -12.1244 0
      vertex 1.14981 -10.9397 0
    endloop
  endfacet
  facet normal 0 0 -1
    outer loop
      vertex 1.14981 -10.9397 0
      vertex 4.32624 -13.3148 0
      vertex -1.14981 -10.9397 0
    endloop
  endfacet
  facet normal 0 0 -1
    outer loop
      vertex 10.7596 2.28703 0
      vertex 13.6941 2.91076 0
      vertex 11 0 0
    endloop
  endfacet
  facet normal 0 0 -1
    outer loop
      vertex 8.89919 6.46564 0
      vertex 12.7896 5.69431 0
      vertex 10.049 4.4741 0
    endloop
  endfacet
  facet normal 0 0 -1
    outer loop
      vertex 10.049 4.4741 0
      vertex 13.6941 2.91076 0
      vertex 10.7596 2.28703 0
    endloop
  endfacet
  facet normal 0 0 -1
    outer loop
      vertex 11 0 0
      vertex 14 0 0
      vertex 10.7596 -2.28703 0
    endloop
  endfacet
  facet normal 0 0 -1
    outer loop
      vertex 10.7596 -2.28703 0
      vertex 13.6941 -2.91076 0
      vertex 10.049 -4.4741 0
    endloop
  endfacet
  facet normal 0 0 -1
    outer loop
      vertex -1.14981 10.9397 0
      vertex 1.4634 13.9233 0
      vertex 1.14981 10.9397 0
    endloop
  endfacet
  facet normal 0 0 -1
    outer loop
      vertex -3.39919 10.4616 0
      vertex 1.4634 13.9233 0
      vertex -1.14981 10.9397 0
    endloop
  endfacet
  facet normal 0 0 -1
    outer loop
      vertex 1.14981 10.9397 0
      vertex 4.32624 13.3148 0
      vertex 3.39919 10.4616 0
    endloop
  endfacet
  facet normal 0 0 -1
    outer loop
      vertex 3.39919 10.4616 0
      vertex 7 12.1244 0
      vertex 5.5 9.52628 0
    endloop
  endfacet
  facet normal 0 0 -1
    outer loop
      vertex -8.89919 6.46564 0
      vertex -7 12.1244 0
      vertex -7.36044 8.17459 0
    endloop
  endfacet
  facet normal 0 0 -1
    outer loop
      vertex -10.049 4.4741 0
      vertex -7 12.1244 0
      vertex -8.89919 6.46564 0
    endloop
  endfacet
  facet normal 0 0 -1
    outer loop
      vertex -13.6941 -2.91076 0
      vertex -7 12.1244 0
      vertex -10.049 4.4741 0
    endloop
  endfacet
  facet normal 0 0 -1
    outer loop
      vertex 5.5 9.52628 0
      vertex 9.36783 10.404 0
      vertex 7.36044 8.17459 0
    endloop
  endfacet
  facet normal 0 0 -1
    outer loop
      vertex -11 0 0
      vertex -13.6941 -2.91076 0
      vertex -10.7596 2.28703 0
    endloop
  endfacet
  facet normal 0 0 -1
    outer loop
      vertex -10.7596 2.28703 0
      vertex -13.6941 -2.91076 0
      vertex -10.049 4.4741 0
    endloop
  endfacet
  facet normal 0 0 -1
    outer loop
      vertex -7.36044 8.17459 0
      vertex -4.32624 13.3148 0
      vertex -5.5 9.52628 0
    endloop
  endfacet
  facet normal 0 0 -1
    outer loop
      vertex -5.5 9.52628 0
      vertex -1.4634 13.9233 0
      vertex -3.39919 10.4616 0
    endloop
  endfacet
  facet normal 0 0 -1
    outer loop
      vertex 7.36044 8.17459 0
      vertex 11.3262 8.22899 0
      vertex 8.89919 6.46564 0
    endloop
  endfacet
  facet normal 0 0 -1
    outer loop
      vertex 8.89919 -6.46564 0
      vertex 11.3262 -8.22899 0
      vertex 7.36044 -8.17459 0
    endloop
  endfacet
  facet normal -0.994522 0.104529 0
    outer loop
      vertex -14 0 0
      vertex -14 0 18
      vertex -13.6941 2.91076 0
    endloop
  endfacet
  facet normal -0.994522 0.104529 0
    outer loop
      vertex -13.6941 2.91076 0
      vertex -14 0 18
      vertex -13.6941 2.91076 18
    endloop
  endfacet
  facet normal -0.994522 -0.104529 0
    outer loop
      vertex -14 0 0
      vertex -13.6941 -2.91076 0
      vertex -14 0 18
    endloop
  endfacet
  facet normal -0.994522 -0.104529 0
    outer loop
      vertex -14 0 18
      vertex -13.6941 -2.91076 0
      vertex -13.6941 -2.91076 18
    endloop
  endfacet
  facet normal -0.951057 -0.309017 0
    outer loop
      vertex -13.6941 -2.91076 0
      vertex -12.7896 -5.69431 0
      vertex -13.6941 -2.91076 18
    endloop
  endfacet
  facet normal -0.951057 -0.309017 0
    outer loop
      vertex -13.6941 -2.91076 18
      vertex -12.7896 -5.69431 0
      vertex -12.7896 -5.69431 18
    endloop
  endfacet
  facet normal -0.866026 -0.5 0
    outer loop
      vertex -12.7896 -5.69431 0
      vertex -11.3262 -8.22899 0
      vertex -12.7896 -5.69431 18
    endloop
  endfacet
  facet normal -0.866026 -0.5 0
    outer loop
      vertex -12.7896 -5.69431 18
      vertex -11.3262 -8.22899 0
      vertex -11.3262 -8.22899 18
    endloop
  endfacet
  facet normal -0.743145 -0.669131 0
    outer loop
      vertex -11.3262 -8.22899 0
      vertex -9.36783 -10.404 0
      vertex -11.3262 -8.22899 18
    endloop
  endfacet
  facet normal -0.743145 -0.669131 0
    outer loop
      vertex -11.3262 -8.22899 18
      vertex -9.36783 -10.404 0
      vertex -9.36783 -10.404 18
    endloop
  endfacet
  facet normal -0.587785 -0.809017 0
    outer loop
      vertex -9.36783 -10.404 18
      vertex -9.36783 -10.404 0
      vertex -7 -12.1244 0
    endloop
  endfacet
  facet normal -0.587785 -0.809017 0
    outer loop
      vertex -7 -12.1244 18
      vertex -9.36783 -10.404 18
      vertex -7 -12.1244 0
    endloop
  endfacet
  facet normal -0.406736 -0.913546 0
    outer loop
      vertex -7 -12.1244 18
      vertex -7 -12.1244 0
      vertex -4.32624 -13.3148 0
    endloop
  endfacet
  facet normal -0.406736 -0.913546 0
    outer loop
      vertex -4.32624 -13.3148 18
      vertex -7 -12.1244 18
      vertex -4.32624 -13.3148 0
    endloop
  endfacet
  facet normal -0.207912 -0.978148 0
    outer loop
      vertex -4.32624 -13.3148 18
      vertex -4.32624 -13.3148 0
      vertex -1.4634 -13.9233 0
    endloop
  endfacet
  facet normal -0.207912 -0.978148 0
    outer loop
      vertex -1.4634 -13.9233 18
      vertex -4.32624 -13.3148 18
      vertex -1.4634 -13.9233 0
    endloop
  endfacet
  facet normal 0 -1 0
    outer loop
      vertex -1.4634 -13.9233 18
      vertex -1.4634 -13.9233 0
      vertex 1.4634 -13.9233 0
    endloop
  endfacet
  facet normal 0 -1 0
    outer loop
      vertex 1.4634 -13.9233 18
      vertex -1.4634 -13.9233 18
      vertex 1.4634 -13.9233 0
    endloop
  endfacet
  facet normal 0.207912 -0.978148 0
    outer loop
      vertex 1.4634 -13.9233 18
      vertex 1.4634 -13.9233 0
      vertex 4.32624 -13.3148 0
    endloop
  endfacet
  facet normal 0.207912 -0.978148 0
    outer loop
      vertex 4.32624 -13.3148 18
      vertex 1.4634 -13.9233 18
      vertex 4.32624 -13.3148 0
    endloop
  endfacet
  facet normal 0.406736 -0.913546 0
    outer loop
      vertex 4.32624 -13.3148 18
      vertex 4.32624 -13.3148 0
      vertex 7 -12.1244 0
    endloop
  endfacet
  facet normal 0.406736 -0.913546 0
    outer loop
      vertex 7 -12.1244 18
      vertex 4.32624 -13.3148 18
      vertex 7 -12.1244 0
    endloop
  endfacet
  facet normal 0.587785 -0.809017 0
    outer loop
      vertex 7 -12.1244 18
      vertex 7 -12.1244 0
      vertex 9.36783 -10.404 0
    endloop
  endfacet
  facet normal 0.587785 -0.809017 0
    outer loop
      vertex 9.36783 -10.404 18
      vertex 7 -12.1244 18
      vertex 9.36783 -10.404 0
    endloop
  endfacet
  facet normal 0.743145 -0.669131 0
    outer loop
      vertex 9.36783 -10.404 18
      vertex 9.36783 -10.404 0
      vertex 11.3262 -8.22899 0
    endloop
  endfacet
  facet normal 0.743145 -0.669131 0
    outer loop
      vertex 11.3262 -8.22899 18
      vertex 9.36783 -10.404 18
      vertex 11.3262 -8.22899 0
    endloop
  endfacet
  facet normal 0.866026 -0.5 0
    outer loop
      vertex 11.3262 -8.22899 18
      vertex 11.3262 -8.22899 0
      vertex 12.7896 -5.69431 0
    endloop
  endfacet
  facet normal 0.866026 -0.5 0
    outer loop
      vertex 12.7896 -5.69431 18
      vertex 11.3262 -8.22899 18
      vertex 12.7896 -5.69431 0
    endloop
  endfacet
  facet normal 0.951057 -0.309017 0
    outer loop
      vertex 12.7896 -5.69431 18
      vertex 12.7896 -5.69431 0
      vertex 13.6941 -2.91076 0
    endloop
  endfacet
  facet normal 0.951057 -0.309017 0
    outer loop
      vertex 13.6941 -2.91076 18
      vertex 12.7896 -5.69431 18
      vertex 13.6941 -2.91076 0
    endloop
  endfacet
  facet normal 0.994522 -0.104529 0
    outer loop
      vertex 13.6941 -2.91076 18
      vertex 13.6941 -2.91076 0
      vertex 14 0 0
    endloop
  endfacet
  facet normal 0.994522 -0.104529 0
    outer loop
      vertex 13.8686 -1.25 8
      vertex 13.6941 -2.91076 18
      vertex 14 0 0
    endloop
  endfacet
  facet normal 0.994522 -0.104529 0
    outer loop
      vertex 14 0 8
      vertex 13.8686 -1.25 8
      vertex 14 0 0
    endloop
  endfacet
  facet normal 0.994522 -0.104529 0
    outer loop
      vertex 13.8686 -1.25 8
      vertex 13.8686 -1.25 18
      vertex 13.6941 -2.91076 18
    endloop
  endfacet
  facet normal 0.994522 0.104529 0
    outer loop
      vertex 14 0 0
      vertex 13.6941 2.91076 0
      vertex 13.6941 2.91076 18
    endloop
  endfacet
  facet normal 0.994522 0.104529 0
    outer loop
      vertex 13.8686 1.25 8
      vertex 14 0 0
      vertex 13.6941 2.91076 18
    endloop
  endfacet
  facet normal 0.994522 0.104529 0
    outer loop
      vertex 13.8686 1.25 18
      vertex 13.8686 1.25 8
      vertex 13.6941 2.91076 18
    endloop
  endfacet
  facet normal 0.994522 0.104529 0
    outer loop
      vertex 13.8686 1.25 8
      vertex 14 0 8
      vertex 14 0 0
    endloop
  endfacet
  facet normal 0.951057 0.309017 0
    outer loop
      vertex 13.6941 2.91076 0
      vertex 12.7896 5.69431 0
      vertex 12.7896 5.69431 18
    endloop
  endfacet
  facet normal 0.951057 0.309017 0
    outer loop
      vertex 13.6941 2.91076 18
      vertex 13.6941 2.91076 0
      vertex 12.7896 5.69431 18
    endloop
  endfacet
  facet normal 0.866026 0.5 0
    outer loop
      vertex 12.7896 5.69431 0
      vertex 11.3262 8.22899 0
      vertex 11.3262 8.22899 18
    endloop
  endfacet
  facet normal 0.866026 0.5 0
    outer loop
      vertex 12.7896 5.69431 18
      vertex 12.7896 5.69431 0
      vertex 11.3262 8.22899 18
    endloop
  endfacet
  facet normal 0.743145 0.669131 0
    outer loop
      vertex 11.3262 8.22899 0
      vertex 9.36783 10.404 0
      vertex 9.36783 10.404 18
    endloop
  endfacet
  facet normal 0.743145 0.669131 0
    outer loop
      vertex 11.3262 8.22899 18
      vertex 11.3262 8.22899 0
      vertex 9.36783 10.404 18
    endloop
  endfacet
  facet normal 0.587785 0.809017 0
    outer loop
      vertex 7 12.1244 0
      vertex 7 12.1244 18
      vertex 9.36783 10.404 0
    endloop
  endfacet
  facet normal 0.587785 0.809017 0
    outer loop
      vertex 9.36783 10.404 0
      vertex 7 12.1244 18
      vertex 9.36783 10.404 18
    endloop
  endfacet
  facet normal 0.406736 0.913546 0
    outer loop
      vertex 4.32624 13.3148 0
      vertex 4.32624 13.3148 18
      vertex 7 12.1244 0
    endloop
  endfacet
  facet normal 0.406736 0.913546 0
    outer loop
      vertex 7 12.1244 0
      vertex 4.32624 13.3148 18
      vertex 7 12.1244 18
    endloop
  endfacet
  facet normal 0.207912 0.978148 0
    outer loop
      vertex 1.4634 13.9233 0
      vertex 1.4634 13.9233 18
      vertex 4.32624 13.3148 0
    endloop
  endfacet
  facet normal 0.207912 0.978148 0
    outer loop
      vertex 4.32624 13.3148 0
      vertex 1.4634 13.9233 18
      vertex 4.32624 13.3148 18
    endloop
  endfacet
  facet normal 0 1 0
    outer loop
      vertex -1.4634 13.9233 0
      vertex -1.4634 13.9233 18
      vertex 1.4634 13.9233 0
    endloop
  endfacet
  facet normal 0 1 0
    outer loop
      vertex 1.4634 13.9233 0
      vertex -1.4634 13.9233 18
      vertex 1.4634 13.9233 18
    endloop
  endfacet
  facet normal -0.207912 0.978148 0
    outer loop
      vertex -4.32624 13.3148 0
      vertex -4.32624 13.3148 18
      vertex -1.4634 13.9233 0
    endloop
  endfacet
  facet normal -0.207912 0.978148 0
    outer loop
      vertex -1.4634 13.9233 0
      vertex -4.32624 13.3148 18
      vertex -1.4634 13.9233 18
    endloop
  endfacet
  facet normal -0.406736 0.913546 0
    outer loop
      vertex -7 12.1244 0
      vertex -7 12.1244 18
      vertex -4.32624 13.3148 0
    endloop
  endfacet
  facet normal -0.406736 0.913546 0
    outer loop
      vertex -4.32624 13.3148 0
      vertex -7 12.1244 18
      vertex -4.32624 13.3148 18
    endloop
  endfacet
  facet normal -0.587785 0.809017 0
    outer loop
      vertex -9.36783 10.404 0
      vertex -9.36783 10.404 18
      vertex -7 12.1244 0
    endloop
  endfacet
  facet normal -0.587785 0.809017 0
    outer loop
      vertex -7 12.1244 0
      vertex -9.36783 10.404 18
      vertex -7 12.1244 18
    endloop
  endfacet
  facet normal -0.743145 0.669131 0
    outer loop
      vertex -11.3262 8.22899 0
      vertex -11.3262 8.22899 18
      vertex -9.36783 10.404 0
    endloop
  endfacet
  facet normal -0.743145 0.669131 0
    outer loop
      vertex -9.36783 10.404 0
      vertex -11.3262 8.22899 18
      vertex -9.36783 10.404 18
    endloop
  endfacet
  facet normal -0.866026 0.5 0
    outer loop
      vertex -12.7896 5.69431 0
      vertex -12.7896 5.69431 18
      vertex -11.3262 8.22899 0
    endloop
  endfacet
  facet normal -0.866026 0.5 0
    outer loop
      vertex -11.3262 8.22899 0
      vertex -12.7896 5.69431 18
      vertex -11.3262 8.22899 18
    endloop
  endfacet
  facet normal -0.951057 0.309017 0
    outer loop
      vertex -13.6941 2.91076 0
      vertex -13.6941 2.91076 18
      vertex -12.7896 5.69431 0
    endloop
  endfacet
  facet normal -0.951057 0.309017 0
    outer loop
      vertex -12.7896 5.69431 0
      vertex -13.6941 2.91076 18
      vertex -12.7896 5.69431 18
    endloop
  endfacet
  facet normal 0.994522 -0.104528 0
    outer loop
      vertex -10.7596 2.28703 0
      vertex -10.7596 2.28703 6
      vertex -11 0 6
    endloop
  endfacet
  facet normal 0.994522 -0.104528 0
    outer loop
      vertex -11 0 0
      vertex -10.7596 2.28703 0
      vertex -11 0 6
    endloop
  endfacet
  facet normal 0.994522 0.104528 0
    outer loop
      vertex -11 0 6
      vertex -10.7596 -2.28703 6
      vertex -10.7596 -2.28703 0
    endloop
  endfacet
  facet normal 0.994522 0.104528 0
    outer loop
      vertex -11 0 0
      vertex -11 0 6
      vertex -10.7596 -2.28703 0
    endloop
  endfacet
  facet normal 0.951056 -0.309017 0
    outer loop
      vertex -10.049 4.4741 0
      vertex -10.049 4.4741 6
      vertex -10.7596 2.28703 6
    endloop
  endfacet
  facet normal 0.951056 -0.309017 0
    outer loop
      vertex -10.7596 2.28703 0
      vertex -10.049 4.4741 0
      vertex -10.7596 2.28703 6
    endloop
  endfacet
  facet normal 0.866025 -0.5 0
    outer loop
      vertex -8.89919 6.46564 0
      vertex -8.89919 6.46564 6
      vertex -10.049 4.4741 6
    endloop
  endfacet
  facet normal 0.866025 -0.5 0
    outer loop
      vertex -10.049 4.4741 0
      vertex -8.89919 6.46564 0
      vertex -10.049 4.4741 6
    endloop
  endfacet
  facet normal 0.743145 -0.669131 0
    outer loop
      vertex -7.36044 8.17459 0
      vertex -7.36044 8.17459 6
      vertex -8.89919 6.46564 6
    endloop
  endfacet
  facet normal 0.743145 -0.669131 0
    outer loop
      vertex -8.89919 6.46564 0
      vertex -7.36044 8.17459 0
      vertex -8.89919 6.46564 6
    endloop
  endfacet
  facet normal 0.587785 -0.809017 0
    outer loop
      vertex -5.5 9.52628 0
      vertex -5.5 9.52628 6
      vertex -7.36044 8.17459 6
    endloop
  endfacet
  facet normal 0.587785 -0.809017 0
    outer loop
      vertex -7.36044 8.17459 0
      vertex -5.5 9.52628 0
      vertex -7.36044 8.17459 6
    endloop
  endfacet
  facet normal 0.406737 -0.913545 0
    outer loop
      vertex -3.39919 10.4616 0
      vertex -3.39919 10.4616 6
      vertex -5.5 9.52628 6
    endloop
  endfacet
  facet normal 0.406737 -0.913545 0
    outer loop
      vertex -5.5 9.52628 0
      vertex -3.39919 10.4616 0
      vertex -5.5 9.52628 6
    endloop
  endfacet
  facet normal 0.207912 -0.978148 0
    outer loop
      vertex -1.14981 10.9397 0
      vertex -1.14981 10.9397 6
      vertex -3.39919 10.4616 6
    endloop
  endfacet
  facet normal 0.207912 -0.978148 0
    outer loop
      vertex -3.39919 10.4616 0
      vertex -1.14981 10.9397 0
      vertex -3.39919 10.4616 6
    endloop
  endfacet
  facet normal 0 -1 0
    outer loop
      vertex 1.14981 10.9397 0
      vertex 1.14981 10.9397 6
      vertex -1.14981 10.9397 6
    endloop
  endfacet
  facet normal 0 -1 0
    outer loop
      vertex -1.14981 10.9397 0
      vertex 1.14981 10.9397 0
      vertex -1.14981 10.9397 6
    endloop
  endfacet
  facet normal -0.207912 -0.978148 0
    outer loop
      vertex 3.39919 10.4616 0
      vertex 3.39919 10.4616 6
      vertex 1.14981 10.9397 6
    endloop
  endfacet
  facet normal -0.207912 -0.978148 0
    outer loop
      vertex 1.14981 10.9397 0
      vertex 3.39919 10.4616 0
      vertex 1.14981 10.9397 6
    endloop
  endfacet
  facet normal -0.406737 -0.913545 0
    outer loop
      vertex 5.5 9.52628 0
      vertex 5.5 9.52628 6
      vertex 3.39919 10.4616 6
    endloop
  endfacet
  facet normal -0.406737 -0.913545 0
    outer loop
      vertex 3.39919 10.4616 0
      vertex 5.5 9.52628 0
      vertex 3.39919 10.4616 6
    endloop
  endfacet
  facet normal -0.587785 -0.809017 0
    outer loop
      vertex 7.36044 8.17459 0
      vertex 7.36044 8.17459 6
      vertex 5.5 9.52628 6
    endloop
  endfacet
  facet normal -0.587785 -0.809017 0
    outer loop
      vertex 5.5 9.52628 0
      vertex 7.36044 8.17459 0
      vertex 5.5 9.52628 6
    endloop
  endfacet
  facet normal -0.743145 -0.669131 0
    outer loop
      vertex 8.89919 6.46564 6
      vertex 7.36044 8.17459 6
      vertex 8.89919 6.46564 0
    endloop
  endfacet
  facet normal -0.743145 -0.669131 0
    outer loop
      vertex 8.89919 6.46564 0
      vertex 7.36044 8.17459 6
      vertex 7.36044 8.17459 0
    endloop
  endfacet
  facet normal -0.866025 -0.5 0
    outer loop
      vertex 10.049 4.4741 6
      vertex 8.89919 6.46564 6
      vertex 10.049 4.4741 0
    endloop
  endfacet
  facet normal -0.866025 -0.5 0
    outer loop
      vertex 10.049 4.4741 0
      vertex 8.89919 6.46564 6
      vertex 8.89919 6.46564 0
    endloop
  endfacet
  facet normal -0.951056 -0.309017 0
    outer loop
      vertex 10.7596 2.28703 6
      vertex 10.049 4.4741 6
      vertex 10.7596 2.28703 0
    endloop
  endfacet
  facet normal -0.951056 -0.309017 0
    outer loop
      vertex 10.7596 2.28703 0
      vertex 10.049 4.4741 6
      vertex 10.049 4.4741 0
    endloop
  endfacet
  facet normal -0.994522 -0.104528 0
    outer loop
      vertex 11 0 6
      vertex 10.7596 2.28703 6
      vertex 11 0 0
    endloop
  endfacet
  facet normal -0.994522 -0.104528 0
    outer loop
      vertex 11 0 0
      vertex 10.7596 2.28703 6
      vertex 10.7596 2.28703 0
    endloop
  endfacet
  facet normal -0.994522 0.104528 0
    outer loop
      vertex 11 0 6
      vertex 11 0 0
      vertex 10.7596 -2.28703 6
    endloop
  endfacet
  facet normal -0.994522 0.104528 0
    outer loop
      vertex 10.7596 -2.28703 6
      vertex 11 0 0
      vertex 10.7596 -2.28703 0
    endloop
  endfacet
  facet normal -0.951056 0.309017 0
    outer loop
      vertex 10.7596 -2.28703 6
      vertex 10.7596 -2.28703 0
      vertex 10.049 -4.4741 6
    endloop
  endfacet
  facet normal -0.951056 0.309017 0
    outer loop
      vertex 10.049 -4.4741 6
      vertex 10.7596 -2.28703 0
      vertex 10.049 -4.4741 0
    endloop
  endfacet
  facet normal -0.866025 0.5 0
    outer loop
      vertex 10.049 -4.4741 6
      vertex 10.049 -4.4741 0
      vertex 8.89919 -6.46564 6
    endloop
  endfacet
  facet normal -0.866025 0.5 0
    outer loop
      vertex 8.89919 -6.46564 6
      vertex 10.049 -4.4741 0
      vertex 8.89919 -6.46564 0
    endloop
  endfacet
  facet normal -0.743145 0.669131 0
    outer loop
      vertex 8.89919 -6.46564 6
      vertex 8.89919 -6.46564 0
      vertex 7.36044 -8.17459 6
    endloop
  endfacet
  facet normal -0.743145 0.669131 0
    outer loop
      vertex 7.36044 -8.17459 6
      vertex 8.89919 -6.46564 0
      vertex 7.36044 -8.17459 0
    endloop
  endfacet
  facet normal -0.587785 0.809017 0
    outer loop
      vertex 7.36044 -8.17459 6
      vertex 7.36044 -8.17459 0
      vertex 5.5 -9.52628 6
    endloop
  endfacet
  facet normal -0.587785 0.809017 0
    outer loop
      vertex 5.5 -9.52628 6
      vertex 7.36044 -8.17459 0
      vertex 5.5 -9.52628 0
    endloop
  endfacet
  facet normal -0.406737 0.913545 0
    outer loop
      vertex 5.5 -9.52628 6
      vertex 5.5 -9.52628 0
      vertex 3.39919 -10.4616 6
    endloop
  endfacet
  facet normal -0.406737 0.913545 0
    outer loop
      vertex 3.39919 -10.4616 6
      vertex 5.5 -9.52628 0
      vertex 3.39919 -10.4616 0
    endloop
  endfacet
  facet normal -0.207912 0.978148 0
    outer loop
      vertex 3.39919 -10.4616 6
      vertex 3.39919 -10.4616 0
      vertex 1.14981 -10.9397 6
    endloop
  endfacet
  facet normal -0.207912 0.978148 0
    outer loop
      vertex 1.14981 -10.9397 6
      vertex 3.39919 -10.4616 0
      vertex 1.14981 -10.9397 0
    endloop
  endfacet
  facet normal 0 1 0
    outer loop
      vertex 1.14981 -10.9397 6
      vertex 1.14981 -10.9397 0
      vertex -1.14981 -10.9397 6
    endloop
  endfacet
  facet normal 0 1 0
    outer loop
      vertex -1.14981 -10.9397 6
      vertex 1.14981 -10.9397 0
      vertex -1.14981 -10.9397 0
    endloop
  endfacet
  facet normal 0.207912 0.978148 0
    outer loop
      vertex -1.14981 -10.9397 6
      vertex -1.14981 -10.9397 0
      vertex -3.39919 -10.4616 6
    endloop
  endfacet
  facet normal 0.207912 0.978148 0
    outer loop
      vertex -3.39919 -10.4616 6
      vertex -1.14981 -10.9397 0
      vertex -3.39919 -10.4616 0
    endloop
  endfacet
  facet normal 0.406737 0.913545 0
    outer loop
      vertex -3.39919 -10.4616 6
      vertex -3.39919 -10.4616 0
      vertex -5.5 -9.52628 6
    endloop
  endfacet
  facet normal 0.406737 0.913545 0
    outer loop
      vertex -5.5 -9.52628 6
      vertex -3.39919 -10.4616 0
      vertex -5.5 -9.52628 0
    endloop
  endfacet
  facet normal 0.587785 0.809017 0
    outer loop
      vertex -5.5 -9.52628 6
      vertex -5.5 -9.52628 0
      vertex -7.36044 -8.17459 6
    endloop
  endfacet
  facet normal 0.587785 0.809017 0
    outer loop
      vertex -7.36044 -8.17459 6
      vertex -5.5 -9.52628 0
      vertex -7.36044 -8.17459 0
    endloop
  endfacet
  facet normal 0.743145 0.669131 0
    outer loop
      vertex -8.89919 -6.46564 6
      vertex -7.36044 -8.17459 6
      vertex -7.36044 -8.17459 0
    endloop
  endfacet
  facet normal 0.743145 0.669131 0
    outer loop
      vertex -8.89919 -6.46564 0
      vertex -8.89919 -6.46564 6
      vertex -7.36044 -8.17459 0
    endloop
  endfacet
  facet normal 0.866025 0.5 0
    outer loop
      vertex -10.049 -4.4741 6
      vertex -8.89919 -6.46564 6
      vertex -8.89919 -6.46564 0
    endloop
  endfacet
  facet normal 0.866025 0.5 0
    outer loop
      vertex -10.049 -4.4741 0
      vertex -10.049 -4.4741 6
      vertex -8.89919 -6.46564 0
    endloop
  endfacet
  facet normal 0.951056 0.309017 0
    outer loop
      vertex -10.7596 -2.28703 6
      vertex -10.049 -4.4741 6
      vertex -10.049 -4.4741 0
    endloop
  endfacet
  facet normal 0.951056 0.309017 0
    outer loop
      vertex -10.7596 -2.28703 0
      vertex -10.7596 -2.28703 6
      vertex -10.049 -4.4741 0
    endloop
  endfacet
  facet normal 0 0 1
    outer loop
      vertex -13.6941 2.91076 18
      vertex -14 0 18
      vertex -13.6941 -2.91076 18
    endloop
  endfacet
  facet normal 0 0 1
    outer loop
      vertex -11.3262 -8.22899 18
      vertex -13.6941 2.91076 18
      vertex -12.7896 -5.69431 18
    endloop
  endfacet
  facet normal 0 0 1
    outer loop
      vertex -12.7896 -5.69431 18
      vertex -13.6941 2.91076 18
      vertex -13.6941 -2.91076 18
    endloop
  endfacet
  facet normal 0 0 1
    outer loop
      vertex -9.36783 -10.404 18
      vertex -13.6941 2.91076 18
      vertex -11.3262 -8.22899 18
    endloop
  endfacet
  facet normal 0 0 1
    outer loop
      vertex -7 -12.1244 18
      vertex -13.6941 2.91076 18
      vertex -9.36783 -10.404 18
    endloop
  endfacet
  facet normal 0 0 1
    outer loop
      vertex -10.049 -4.4741 18
      vertex -13.6941 2.91076 18
      vertex -7 -12.1244 18
    endloop
  endfacet
  facet normal 0 0 1
    outer loop
      vertex 16.25 1.25 18
      vertex 13.8686 1.25 18
      vertex 16.25 -1.25 18
    endloop
  endfacet
  facet normal 0 0 1
    outer loop
      vertex 5.5 9.52628 18
      vertex 7.36044 8.17459 18
      vertex 9.36783 10.404 18
    endloop
  endfacet
  facet normal 0 0 1
    outer loop
      vertex 1.14981 10.9397 18
      vertex 3.39919 10.4616 18
      vertex 7 12.1244 18
    endloop
  endfacet
  facet normal 0 0 1
    outer loop
      vertex -4.32624 13.3148 18
      vertex -13.6941 2.91076 18
      vertex -1.4634 13.9233 18
    endloop
  endfacet
  facet normal 0 0 1
    outer loop
      vertex -7 12.1244 18
      vertex -13.6941 2.91076 18
      vertex -4.32624 13.3148 18
    endloop
  endfacet
  facet normal 0 0 1
    outer loop
      vertex -9.36783 10.404 18
      vertex -13.6941 2.91076 18
      vertex -7 12.1244 18
    endloop
  endfacet
  facet normal 0 0 1
    outer loop
      vertex -11.3262 8.22899 18
      vertex -13.6941 2.91076 18
      vertex -9.36783 10.404 18
    endloop
  endfacet
  facet normal 0 0 1
    outer loop
      vertex -12.7896 5.69431 18
      vertex -13.6941 2.91076 18
      vertex -11.3262 8.22899 18
    endloop
  endfacet
  facet normal 0 0 1
    outer loop
      vertex -3.39919 -10.4616 18
      vertex -5.5 -9.52628 18
      vertex -1.4634 -13.9233 18
    endloop
  endfacet
  facet normal 0 0 1
    outer loop
      vertex 3.39919 -10.4616 18
      vertex 1.14981 -10.9397 18
      vertex 4.32624 -13.3148 18
    endloop
  endfacet
  facet normal 0 0 1
    outer loop
      vertex 8.89919 -6.46564 18
      vertex 7.36044 -8.17459 18
      vertex 11.3262 -8.22899 18
    endloop
  endfacet
  facet normal 0 0 1
    outer loop
      vertex 7.36044 8.17459 18
      vertex 8.89919 6.46564 18
      vertex 11.3262 8.22899 18
    endloop
  endfacet
  facet normal 0 0 1
    outer loop
      vertex -1.14981 10.9397 18
      vertex 1.14981 10.9397 18
      vertex 4.32624 13.3148 18
    endloop
  endfacet
  facet normal 0 0 1
    outer loop
      vertex -7.36044 8.17459 18
      vertex -13.6941 2.91076 18
      vertex -8.89919 6.46564 18
    endloop
  endfacet
  facet normal 0 0 1
    outer loop
      vertex -3.39919 10.4616 18
      vertex -1.14981 10.9397 18
      vertex 1.4634 13.9233 18
    endloop
  endfacet
  facet normal 0 0 1
    outer loop
      vertex -1.4634 13.9233 18
      vertex -13.6941 2.91076 18
      vertex -7.36044 8.17459 18
    endloop
  endfacet
  facet normal 0 0 1
    outer loop
      vertex -1.4634 13.9233 18
      vertex -5.5 9.52628 18
      vertex 1.4634 13.9233 18
    endloop
  endfacet
  facet normal 0 0 1
    outer loop
      vertex -5.5 9.52628 18
      vertex -3.39919 10.4616 18
      vertex 1.4634 13.9233 18
    endloop
  endfacet
  facet normal 0 0 1
    outer loop
      vertex 1.4634 13.9233 18
      vertex -1.14981 10.9397 18
      vertex 4.32624 13.3148 18
    endloop
  endfacet
  facet normal 0 0 1
    outer loop
      vertex -7.36044 8.17459 18
      vertex -5.5 9.52628 18
      vertex -1.4634 13.9233 18
    endloop
  endfacet
  facet normal 0 0 1
    outer loop
      vertex 4.32624 13.3148 18
      vertex 1.14981 10.9397 18
      vertex 7 12.1244 18
    endloop
  endfacet
  facet normal 0 0 1
    outer loop
      vertex 7 12.1244 18
      vertex 3.39919 10.4616 18
      vertex 9.36783 10.404 18
    endloop
  endfacet
  facet normal 0 0 1
    outer loop
      vertex 3.39919 10.4616 18
      vertex 5.5 9.52628 18
      vertex 9.36783 10.404 18
    endloop
  endfacet
  facet normal 0 0 1
    outer loop
      vertex 9.36783 10.404 18
      vertex 7.36044 8.17459 18
      vertex 11.3262 8.22899 18
    endloop
  endfacet
  facet normal 0 0 1
    outer loop
      vertex 11.3262 8.22899 18
      vertex 8.89919 6.46564 18
      vertex 12.7896 5.69431 18
    endloop
  endfacet
  facet normal 0 0 1
    outer loop
      vertex 11 0 18
      vertex 10.7596 -2.28703 18
      vertex 13.8686 -1.25 18
    endloop
  endfacet
  facet normal 0 0 1
    outer loop
      vertex 12.7896 5.69431 18
      vertex 10.049 4.4741 18
      vertex 13.6941 2.91076 18
    endloop
  endfacet
  facet normal 0 0 1
    outer loop
      vertex -10.049 4.4741 18
      vertex -8.89919 6.46564 18
      vertex -13.6941 2.91076 18
    endloop
  endfacet
  facet normal 0 0 1
    outer loop
      vertex 13.8686 1.25 18
      vertex 11 0 18
      vertex 16.25 -1.25 18
    endloop
  endfacet
  facet normal 0 0 1
    outer loop
      vertex 13.8686 -1.25 18
      vertex 10.7596 -2.28703 18
      vertex 13.6941 -2.91076 18
    endloop
  endfacet
  facet normal 0 0 1
    outer loop
      vertex 13.6941 -2.91076 18
      vertex 10.049 -4.4741 18
      vertex 12.7896 -5.69431 18
    endloop
  endfacet
  facet normal 0 0 1
    outer loop
      vertex 12.7896 -5.69431 18
      vertex 8.89919 -6.46564 18
      vertex 11.3262 -8.22899 18
    endloop
  endfacet
  facet normal 0 0 1
    outer loop
      vertex 8.89919 6.46564 18
      vertex 10.049 4.4741 18
      vertex 12.7896 5.69431 18
    endloop
  endfacet
  facet normal 0 0 1
    outer loop
      vertex 11.3262 -8.22899 18
      vertex 7.36044 -8.17459 18
      vertex 9.36783 -10.404 18
    endloop
  endfacet
  facet normal 0 0 1
    outer loop
      vertex 10.049 4.4741 18
      vertex 10.7596 2.28703 18
      vertex 13.6941 2.91076 18
    endloop
  endfacet
  facet normal 0 0 1
    outer loop
      vertex 9.36783 -10.404 18
      vertex 5.5 -9.52628 18
      vertex 7 -12.1244 18
    endloop
  endfacet
  facet normal 0 0 1
    outer loop
      vertex 10.7596 2.28703 18
      vertex 11 0 18
      vertex 13.8686 1.25 18
    endloop
  endfacet
  facet normal 0 0 1
    outer loop
      vertex 7 -12.1244 18
      vertex 3.39919 -10.4616 18
      vertex 4.32624 -13.3148 18
    endloop
  endfacet
  facet normal 0 0 1
    outer loop
      vertex 11 0 18
      vertex 13.8686 -1.25 18
      vertex 16.25 -1.25 18
    endloop
  endfacet
  facet normal 0 0 1
    outer loop
      vertex 4.32624 -13.3148 18
      vertex 1.14981 -10.9397 18
      vertex 1.4634 -13.9233 18
    endloop
  endfacet
  facet normal 0 0 1
    outer loop
      vertex 1.14981 -10.9397 18
      vertex -1.14981 -10.9397 18
      vertex 1.4634 -13.9233 18
    endloop
  endfacet
  facet normal 0 0 1
    outer loop
      vertex 1.4634 -13.9233 18
      vertex -3.39919 -10.4616 18
      vertex -1.4634 -13.9233 18
    endloop
  endfacet
  facet normal 0 0 1
    outer loop
      vertex 7.36044 -8.17459 18
      vertex 5.5 -9.52628 18
      vertex 9.36783 -10.404 18
    endloop
  endfacet
  facet normal 0 0 1
    outer loop
      vertex -1.4634 -13.9233 18
      vertex -5.5 -9.52628 18
      vertex -4.32624 -13.3148 18
    endloop
  endfacet
  facet normal 0 0 1
    outer loop
      vertex 5.5 -9.52628 18
      vertex 3.39919 -10.4616 18
      vertex 7 -12.1244 18
    endloop
  endfacet
  facet normal 0 0 1
    outer loop
      vertex -4.32624 -13.3148 18
      vertex -7.36044 -8.17459 18
      vertex -7 -12.1244 18
    endloop
  endfacet
  facet normal 0 0 1
    outer loop
      vertex -7.36044 -8.17459 18
      vertex -8.89919 -6.46564 18
      vertex -7 -12.1244 18
    endloop
  endfacet
  facet normal 0 0 1
    outer loop
      vertex -10.7596 -2.28703 18
      vertex -13.6941 2.91076 18
      vertex -10.049 -4.4741 18
    endloop
  endfacet
  facet normal 0 0 1
    outer loop
      vertex 13.8686 1.25 18
      vertex 13.6941 2.91076 18
      vertex 10.7596 2.28703 18
    endloop
  endfacet
  facet normal 0 0 1
    outer loop
      vertex -8.89919 -6.46564 18
      vertex -10.049 -4.4741 18
      vertex -7 -12.1244 18
    endloop
  endfacet
  facet normal 0 0 1
    outer loop
      vertex -10.7596 -2.28703 18
      vertex -11 0 18
      vertex -13.6941 2.91076 18
    endloop
  endfacet
  facet normal 0 0 1
    outer loop
      vertex -5.5 -9.52628 18
      vertex -7.36044 -8.17459 18
      vertex -4.32624 -13.3148 18
    endloop
  endfacet
  facet normal 0 0 1
    outer loop
      vertex -1.14981 -10.9397 18
      vertex -3.39919 -10.4616 18
      vertex 1.4634 -13.9233 18
    endloop
  endfacet
  facet normal 0 0 1
    outer loop
      vertex -11 0 18
      vertex -10.7596 2.28703 18
      vertex -13.6941 2.91076 18
    endloop
  endfacet
  facet normal 0 0 1
    outer loop
      vertex 10.7596 -2.28703 18
      vertex 10.049 -4.4741 18
      vertex 13.6941 -2.91076 18
    endloop
  endfacet
  facet normal 0 0 1
    outer loop
      vertex 10.049 -4.4741 18
      vertex 8.89919 -6.46564 18
      vertex 12.7896 -5.69431 18
    endloop
  endfacet
  facet normal 0 0 1
    outer loop
      vertex -10.7596 2.28703 18
      vertex -10.049 4.4741 18
      vertex -13.6941 2.91076 18
    endloop
  endfacet
  facet normal 0 -1 0
    outer loop
      vertex 13.8686 -1.25 18
      vertex 13.8686 -1.25 8
      vertex 16.25 -1.25 8
    endloop
  endfacet
  facet normal 0 -1 0
    outer loop
      vertex 16.25 -1.25 18
      vertex 13.8686 -1.25 18
      vertex 16.25 -1.25 8
    endloop
  endfacet
  facet normal 0 0 -1
    outer loop
      vertex 13.8686 -1.25 8
      vertex 14 0 8
      vertex 16.25 -1.25 8
    endloop
  endfacet
  facet normal 0 0 -1
    outer loop
      vertex 16.25 -1.25 8
      vertex 14 0 8
      vertex 13.8686 1.25 8
    endloop
  endfacet
  facet normal 0 0 -1
    outer loop
      vertex 16.25 -1.25 8
      vertex 13.8686 1.25 8
      vertex 16.25 1.25 8
    endloop
  endfacet
  facet normal 0 1 0
    outer loop
      vertex 13.8686 1.25 8
      vertex 13.8686 1.25 18
      vertex 16.25 1.25 8
    endloop
  endfacet
  facet normal 0 1 0
    outer loop
      vertex 16.25 1.25 8
      vertex 13.8686 1.25 18
      vertex 16.25 1.25 18
    endloop
  endfacet
  facet normal 0 0 -1
    outer loop
      vertex -10.049 4.4741 6
      vertex -8.89919 6.46564 6
      vertex -10.7596 2.28703 6
    endloop
  endfacet
  facet normal 0 0 -1
    outer loop
      vertex -10.7596 2.28703 6
      vertex -8.89919 6.46564 6
      vertex -7.36044 8.17459 6
    endloop
  endfacet
  facet normal 0 0 -1
    outer loop
      vertex -10.7596 2.28703 6
      vertex -7.36044 8.17459 6
      vertex -5.5 9.52628 6
    endloop
  endfacet
  facet normal 0 0 -1
    outer loop
      vertex -10.7596 2.28703 6
      vertex -5.5 9.52628 6
      vertex -3.39919 10.4616 6
    endloop
  endfacet
  facet normal 0 0 -1
    outer loop
      vertex -4.75 8.22724 6
      vertex -3.39919 10.4616 6
      vertex -1.14981 10.9397 6
    endloop
  endfacet
  facet normal 0 0 -1
    outer loop
      vertex -0.99302 9.44796 6
      vertex -1.14981 10.9397 6
      vertex 1.14981 10.9397 6
    endloop
  endfacet
  facet normal 0 0 -1
    outer loop
      vertex 0.99302 9.44796 6
      vertex 1.14981 10.9397 6
      vertex 3.39919 10.4616 6
    endloop
  endfacet
  facet normal 0 0 -1
    outer loop
      vertex 2.93566 9.03504 6
      vertex 3.39919 10.4616 6
      vertex 5.5 9.52628 6
    endloop
  endfacet
  facet normal 0 0 -1
    outer loop
      vertex 4.75 8.22724 6
      vertex 5.5 9.52628 6
      vertex 7.36044 8.17459 6
    endloop
  endfacet
  facet normal 0 0 -1
    outer loop
      vertex 6.35674 7.05988 6
      vertex 7.36044 8.17459 6
      vertex 8.89919 6.46564 6
    endloop
  endfacet
  facet normal 0 0 -1
    outer loop
      vertex 7.68566 5.58396 6
      vertex 8.89919 6.46564 6
      vertex 10.049 4.4741 6
    endloop
  endfacet
  facet normal 0 0 -1
    outer loop
      vertex 8.67868 3.864 6
      vertex 10.049 4.4741 6
      vertex 10.7596 2.28703 6
    endloop
  endfacet
  facet normal 0 0 -1
    outer loop
      vertex 9.2924 1.97516 6
      vertex 10.7596 2.28703 6
      vertex 11 0 6
    endloop
  endfacet
  facet normal 0 0 -1
    outer loop
      vertex 9.2924 -1.97516 6
      vertex 11 0 6
      vertex 10.7596 -2.28703 6
    endloop
  endfacet
  facet normal 0 0 -1
    outer loop
      vertex 8.67868 -3.864 6
      vertex 10.7596 -2.28703 6
      vertex 10.049 -4.4741 6
    endloop
  endfacet
  facet normal 0 0 -1
    outer loop
      vertex 7.68566 -5.58396 6
      vertex 10.049 -4.4741 6
      vertex 8.89919 -6.46564 6
    endloop
  endfacet
  facet normal 0 0 -1
    outer loop
      vertex 6.35674 -7.05988 6
      vertex 8.89919 -6.46564 6
      vertex 7.36044 -8.17459 6
    endloop
  endfacet
  facet normal 0 0 -1
    outer loop
      vertex 4.75 -8.22724 6
      vertex 7.36044 -8.17459 6
      vertex 5.5 -9.52628 6
    endloop
  endfacet
  facet normal 0 0 -1
    outer loop
      vertex 2.93566 -9.03504 6
      vertex 5.5 -9.52628 6
      vertex 3.39919 -10.4616 6
    endloop
  endfacet
  facet normal 0 0 -1
    outer loop
      vertex 0.99302 -9.44796 6
      vertex 3.39919 -10.4616 6
      vertex 1.14981 -10.9397 6
    endloop
  endfacet
  facet normal 0 0 -1
    outer loop
      vertex -0.99302 -9.44796 6
      vertex 1.14981 -10.9397 6
      vertex -1.14981 -10.9397 6
    endloop
  endfacet
  facet normal 0 0 -1
    outer loop
      vertex -2.93566 -9.03504 6
      vertex -1.14981 -10.9397 6
      vertex -3.39919 -10.4616 6
    endloop
  endfacet
  facet normal 0 0 -1
    outer loop
      vertex -6.35674 -7.05988 6
      vertex -3.39919 -10.4616 6
      vertex -5.5 -9.52628 6
    endloop
  endfacet
  facet normal 0 0 -1
    outer loop
      vertex -8.67868 -3.864 6
      vertex -5.5 -9.52628 6
      vertex -7.36044 -8.17459 6
    endloop
  endfacet
  facet normal 0 0 -1
    outer loop
      vertex -10.7596 2.28703 6
      vertex -7.36044 -8.17459 6
      vertex -8.89919 -6.46564 6
    endloop
  endfacet
  facet normal 0 0 -1
    outer loop
      vertex -10.7596 2.28703 6
      vertex -8.89919 -6.46564 6
      vertex -10.049 -4.4741 6
    endloop
  endfacet
  facet normal 0 0 -1
    outer loop
      vertex -10.7596 2.28703 6
      vertex -10.049 -4.4741 6
      vertex -10.7596 -2.28703 6
    endloop
  endfacet
  facet normal 0 0 -1
    outer loop
      vertex -10.7596 2.28703 6
      vertex -10.7596 -2.28703 6
      vertex -11 0 6
    endloop
  endfacet
  facet normal 0 0 -1
    outer loop
      vertex -6.35674 -7.05988 6
      vertex -5.5 -9.52628 6
      vertex -7.68566 -5.58396 6
    endloop
  endfacet
  facet normal 0 0 -1
    outer loop
      vertex -10.7596 2.28703 6
      vertex -9.2924 -1.97516 6
      vertex -7.36044 -8.17459 6
    endloop
  endfacet
  facet normal 0 0 -1
    outer loop
      vertex -7.68566 -5.58396 6
      vertex -5.5 -9.52628 6
      vertex -8.67868 -3.864 6
    endloop
  endfacet
  facet normal 0 0 -1
    outer loop
      vertex -9.2924 -1.97516 6
      vertex -8.67868 -3.864 6
      vertex -7.36044 -8.17459 6
    endloop
  endfacet
  facet normal 0 0 -1
    outer loop
      vertex -4.75 -8.22724 6
      vertex -3.39919 -10.4616 6
      vertex -6.35674 -7.05988 6
    endloop
  endfacet
  facet normal 0 0 -1
    outer loop
      vertex -0.99302 -9.44796 6
      vertex -1.14981 -10.9397 6
      vertex -2.93566 -9.03504 6
    endloop
  endfacet
  facet normal 0 0 -1
    outer loop
      vertex 0.99302 -9.44796 6
      vertex 1.14981 -10.9397 6
      vertex -0.99302 -9.44796 6
    endloop
  endfacet
  facet normal 0 0 -1
    outer loop
      vertex 2.93566 -9.03504 6
      vertex 3.39919 -10.4616 6
      vertex 0.99302 -9.44796 6
    endloop
  endfacet
  facet normal 0 0 -1
    outer loop
      vertex 4.75 -8.22724 6
      vertex 5.5 -9.52628 6
      vertex 2.93566 -9.03504 6
    endloop
  endfacet
  facet normal 0 0 -1
    outer loop
      vertex 6.35674 -7.05988 6
      vertex 7.36044 -8.17459 6
      vertex 4.75 -8.22724 6
    endloop
  endfacet
  facet normal 0 0 -1
    outer loop
      vertex 7.68566 -5.58396 6
      vertex 8.89919 -6.46564 6
      vertex 6.35674 -7.05988 6
    endloop
  endfacet
  facet normal 0 0 -1
    outer loop
      vertex -9.5 0 6
      vertex -10.7596 2.28703 6
      vertex -9.2924 1.97516 6
    endloop
  endfacet
  facet normal 0 0 -1
    outer loop
      vertex 8.67868 -3.864 6
      vertex 10.049 -4.4741 6
      vertex 7.68566 -5.58396 6
    endloop
  endfacet
  facet normal 0 0 -1
    outer loop
      vertex 9.2924 -1.97516 6
      vertex 10.7596 -2.28703 6
      vertex 8.67868 -3.864 6
    endloop
  endfacet
  facet normal 0 0 -1
    outer loop
      vertex 9.5 0 6
      vertex 11 0 6
      vertex 9.2924 -1.97516 6
    endloop
  endfacet
  facet normal 0 0 -1
    outer loop
      vertex 9.2924 1.97516 6
      vertex 11 0 6
      vertex 9.5 0 6
    endloop
  endfacet
  facet normal 0 0 -1
    outer loop
      vertex 8.67868 3.864 6
      vertex 10.7596 2.28703 6
      vertex 9.2924 1.97516 6
    endloop
  endfacet
  facet normal 0 0 -1
    outer loop
      vertex 7.68566 5.58396 6
      vertex 10.049 4.4741 6
      vertex 8.67868 3.864 6
    endloop
  endfacet
  facet normal 0 0 -1
    outer loop
      vertex 6.35674 7.05988 6
      vertex 8.89919 6.46564 6
      vertex 7.68566 5.58396 6
    endloop
  endfacet
  facet normal 0 0 -1
    outer loop
      vertex 4.75 8.22724 6
      vertex 7.36044 8.17459 6
      vertex 6.35674 7.05988 6
    endloop
  endfacet
  facet normal 0 0 -1
    outer loop
      vertex 2.93566 9.03504 6
      vertex 5.5 9.52628 6
      vertex 4.75 8.22724 6
    endloop
  endfacet
  facet normal 0 0 -1
    outer loop
      vertex 0.99302 9.44796 6
      vertex 3.39919 10.4616 6
      vertex 2.93566 9.03504 6
    endloop
  endfacet
  facet normal 0 0 -1
    outer loop
      vertex -0.99302 9.44796 6
      vertex 1.14981 10.9397 6
      vertex 0.99302 9.44796 6
    endloop
  endfacet
  facet normal 0 0 -1
    outer loop
      vertex -2.93566 9.03504 6
      vertex -1.14981 10.9397 6
      vertex -0.99302 9.44796 6
    endloop
  endfacet
  facet normal 0 0 -1
    outer loop
      vertex -4.75 8.22724 6
      vertex -1.14981 10.9397 6
      vertex -2.93566 9.03504 6
    endloop
  endfacet
  facet normal 0 0 -1
    outer loop
      vertex -6.35674 7.05988 6
      vertex -3.39919 10.4616 6
      vertex -4.75 8.22724 6
    endloop
  endfacet
  facet normal 0 0 -1
    outer loop
      vertex -8.67868 3.864 6
      vertex -10.7596 2.28703 6
      vertex -7.68566 5.58396 6
    endloop
  endfacet
  facet normal 0 0 -1
    outer loop
      vertex -10.7596 2.28703 6
      vertex -3.39919 10.4616 6
      vertex -6.35674 7.05988 6
    endloop
  endfacet
  facet normal 0 0 -1
    outer loop
      vertex -10.7596 2.28703 6
      vertex -6.35674 7.05988 6
      vertex -7.68566 5.58396 6
    endloop
  endfacet
  facet normal 0 0 -1
    outer loop
      vertex -9.2924 1.97516 6
      vertex -10.7596 2.28703 6
      vertex -8.67868 3.864 6
    endloop
  endfacet
  facet normal 0 0 -1
    outer loop
      vertex -9.2924 -1.97516 6
      vertex -10.7596 2.28703 6
      vertex -9.5 0 6
    endloop
  endfacet
  facet normal 0 0 -1
    outer loop
      vertex -2.93566 -9.03504 6
      vertex -3.39919 -10.4616 6
      vertex -4.75 -8.22724 6
    endloop
  endfacet
  facet normal 1 0 0
    outer loop
      vertex 16.25 -1.25 18
      vertex 16.25 -1.25 8
      vertex 16.25 1.25 8
    endloop
  endfacet
  facet normal 1 0 0
    outer loop
      vertex 16.25 1.25 18
      vertex 16.25 -1.25 18
      vertex 16.25 1.25 8
    endloop
  endfacet
  facet normal 0.994522 0.104528 0
    outer loop
      vertex -11 0 18
      vertex -10.7596 -2.28703 18
      vertex -10.7596 -2.28703 8
    endloop
  endfacet
  facet normal 0.994522 0.104528 0
    outer loop
      vertex -11 0 8
      vertex -11 0 18
      vertex -10.7596 -2.28703 8
    endloop
  endfacet
  facet normal 0.951056 0.309017 0
    outer loop
      vertex -10.7596 -2.28703 18
      vertex -10.049 -4.4741 18
      vertex -10.049 -4.4741 8
    endloop
  endfacet
  facet normal 0.951056 0.309017 0
    outer loop
      vertex -10.7596 -2.28703 8
      vertex -10.7596 -2.28703 18
      vertex -10.049 -4.4741 8
    endloop
  endfacet
  facet normal 0.866025 0.5 0
    outer loop
      vertex -10.049 -4.4741 18
      vertex -8.89919 -6.46564 18
      vertex -8.89919 -6.46564 8
    endloop
  endfacet
  facet normal 0.866025 0.5 0
    outer loop
      vertex -10.049 -4.4741 8
      vertex -10.049 -4.4741 18
      vertex -8.89919 -6.46564 8
    endloop
  endfacet
  facet normal 0.743145 0.669131 0
    outer loop
      vertex -8.89919 -6.46564 18
      vertex -7.36044 -8.17459 18
      vertex -7.36044 -8.17459 8
    endloop
  endfacet
  facet normal 0.743145 0.669131 0
    outer loop
      vertex -8.89919 -6.46564 8
      vertex -8.89919 -6.46564 18
      vertex -7.36044 -8.17459 8
    endloop
  endfacet
  facet normal 0.587785 0.809017 0
    outer loop
      vertex -5.5 -9.52628 18
      vertex -5.5 -9.52628 8
      vertex -7.36044 -8.17459 18
    endloop
  endfacet
  facet normal 0.587785 0.809017 0
    outer loop
      vertex -7.36044 -8.17459 18
      vertex -5.5 -9.52628 8
      vertex -7.36044 -8.17459 8
    endloop
  endfacet
  facet normal 0.406737 0.913545 0
    outer loop
      vertex -3.39919 -10.4616 18
      vertex -3.39919 -10.4616 8
      vertex -5.5 -9.52628 18
    endloop
  endfacet
  facet normal 0.406737 0.913545 0
    outer loop
      vertex -5.5 -9.52628 18
      vertex -3.39919 -10.4616 8
      vertex -5.5 -9.52628 8
    endloop
  endfacet
  facet normal 0.207912 0.978148 0
    outer loop
      vertex -1.14981 -10.9397 18
      vertex -1.14981 -10.9397 8
      vertex -3.39919 -10.4616 18
    endloop
  endfacet
  facet normal 0.207912 0.978148 0
    outer loop
      vertex -3.39919 -10.4616 18
      vertex -1.14981 -10.9397 8
      vertex -3.39919 -10.4616 8
    endloop
  endfacet
  facet normal 0 1 0
    outer loop
      vertex 1.14981 -10.9397 18
      vertex 1.14981 -10.9397 8
      vertex -1.14981 -10.9397 18
    endloop
  endfacet
  facet normal 0 1 0
    outer loop
      vertex -1.14981 -10.9397 18
      vertex 1.14981 -10.9397 8
      vertex -1.14981 -10.9397 8
    endloop
  endfacet
  facet normal -0.207912 0.978148 0
    outer loop
      vertex 3.39919 -10.4616 18
      vertex 3.39919 -10.4616 8
      vertex 1.14981 -10.9397 18
    endloop
  endfacet
  facet normal -0.207912 0.978148 0
    outer loop
      vertex 1.14981 -10.9397 18
      vertex 3.39919 -10.4616 8
      vertex 1.14981 -10.9397 8
    endloop
  endfacet
  facet normal -0.406737 0.913545 0
    outer loop
      vertex 5.5 -9.52628 18
      vertex 5.5 -9.52628 8
      vertex 3.39919 -10.4616 18
    endloop
  endfacet
  facet normal -0.406737 0.913545 0
    outer loop
      vertex 3.39919 -10.4616 18
      vertex 5.5 -9.52628 8
      vertex 3.39919 -10.4616 8
    endloop
  endfacet
  facet normal -0.587785 0.809017 0
    outer loop
      vertex 7.36044 -8.17459 18
      vertex 7.36044 -8.17459 8
      vertex 5.5 -9.52628 18
    endloop
  endfacet
  facet normal -0.587785 0.809017 0
    outer loop
      vertex 5.5 -9.52628 18
      vertex 7.36044 -8.17459 8
      vertex 5.5 -9.52628 8
    endloop
  endfacet
  facet normal -0.743145 0.669131 0
    outer loop
      vertex 8.89919 -6.46564 18
      vertex 8.89919 -6.46564 8
      vertex 7.36044 -8.17459 18
    endloop
  endfacet
  facet normal -0.743145 0.669131 0
    outer loop
      vertex 7.36044 -8.17459 18
      vertex 8.89919 -6.46564 8
      vertex 7.36044 -8.17459 8
    endloop
  endfacet
  facet normal -0.866025 0.5 0
    outer loop
      vertex 10.049 -4.4741 18
      vertex 10.049 -4.4741 8
      vertex 8.89919 -6.46564 18
    endloop
  endfacet
  facet normal -0.866025 0.5 0
    outer loop
      vertex 8.89919 -6.46564 18
      vertex 10.049 -4.4741 8
      vertex 8.89919 -6.46564 8
    endloop
  endfacet
  facet normal -0.951056 0.309017 0
    outer loop
      vertex 10.7596 -2.28703 18
      vertex 10.7596 -2.28703 8
      vertex 10.049 -4.4741 18
    endloop
  endfacet
  facet normal -0.951056 0.309017 0
    outer loop
      vertex 10.049 -4.4741 18
      vertex 10.7596 -2.28703 8
      vertex 10.049 -4.4741 8
    endloop
  endfacet
  facet normal -0.994522 0.104528 0
    outer loop
      vertex 11 0 18
      vertex 11 0 8
      vertex 10.7596 -2.28703 18
    endloop
  endfacet
  facet normal -0.994522 0.104528 0
    outer loop
      vertex 10.7596 -2.28703 18
      vertex 11 0 8
      vertex 10.7596 -2.28703 8
    endloop
  endfacet
  facet normal -0.994522 -0.104528 0
    outer loop
      vertex 11 0 18
      vertex 10.7596 2.28703 18
      vertex 11 0 8
    endloop
  endfacet
  facet normal -0.994522 -0.104528 0
    outer loop
      vertex 11 0 8
      vertex 10.7596 2.28703 18
      vertex 10.7596 2.28703 8
    endloop
  endfacet
  facet normal -0.951056 -0.309017 0
    outer loop
      vertex 10.7596 2.28703 18
      vertex 10.049 4.4741 18
      vertex 10.7596 2.28703 8
    endloop
  endfacet
  facet normal -0.951056 -0.309017 0
    outer loop
      vertex 10.7596 2.28703 8
      vertex 10.049 4.4741 18
      vertex 10.049 4.4741 8
    endloop
  endfacet
  facet normal -0.866025 -0.5 0
    outer loop
      vertex 10.049 4.4741 18
      vertex 8.89919 6.46564 18
      vertex 10.049 4.4741 8
    endloop
  endfacet
  facet normal -0.866025 -0.5 0
    outer loop
      vertex 10.049 4.4741 8
      vertex 8.89919 6.46564 18
      vertex 8.89919 6.46564 8
    endloop
  endfacet
  facet normal -0.743145 -0.669131 0
    outer loop
      vertex 8.89919 6.46564 18
      vertex 7.36044 8.17459 18
      vertex 8.89919 6.46564 8
    endloop
  endfacet
  facet normal -0.743145 -0.669131 0
    outer loop
      vertex 8.89919 6.46564 8
      vertex 7.36044 8.17459 18
      vertex 7.36044 8.17459 8
    endloop
  endfacet
  facet normal -0.587785 -0.809017 0
    outer loop
      vertex 7.36044 8.17459 8
      vertex 7.36044 8.17459 18
      vertex 5.5 9.52628 18
    endloop
  endfacet
  facet normal -0.587785 -0.809017 0
    outer loop
      vertex 5.5 9.52628 8
      vertex 7.36044 8.17459 8
      vertex 5.5 9.52628 18
    endloop
  endfacet
  facet normal -0.406737 -0.913545 0
    outer loop
      vertex 5.5 9.52628 8
      vertex 5.5 9.52628 18
      vertex 3.39919 10.4616 18
    endloop
  endfacet
  facet normal -0.406737 -0.913545 0
    outer loop
      vertex 3.39919 10.4616 8
      vertex 5.5 9.52628 8
      vertex 3.39919 10.4616 18
    endloop
  endfacet
  facet normal -0.207912 -0.978148 0
    outer loop
      vertex 3.39919 10.4616 8
      vertex 3.39919 10.4616 18
      vertex 1.14981 10.9397 18
    endloop
  endfacet
  facet normal -0.207912 -0.978148 0
    outer loop
      vertex 1.14981 10.9397 8
      vertex 3.39919 10.4616 8
      vertex 1.14981 10.9397 18
    endloop
  endfacet
  facet normal 0 -1 0
    outer loop
      vertex 1.14981 10.9397 8
      vertex 1.14981 10.9397 18
      vertex -1.14981 10.9397 18
    endloop
  endfacet
  facet normal 0 -1 0
    outer loop
      vertex -1.14981 10.9397 8
      vertex 1.14981 10.9397 8
      vertex -1.14981 10.9397 18
    endloop
  endfacet
  facet normal 0.207912 -0.978148 0
    outer loop
      vertex -1.14981 10.9397 8
      vertex -1.14981 10.9397 18
      vertex -3.39919 10.4616 18
    endloop
  endfacet
  facet normal 0.207912 -0.978148 0
    outer loop
      vertex -3.39919 10.4616 8
      vertex -1.14981 10.9397 8
      vertex -3.39919 10.4616 18
    endloop
  endfacet
  facet normal 0.406737 -0.913545 0
    outer loop
      vertex -3.39919 10.4616 8
      vertex -3.39919 10.4616 18
      vertex -5.5 9.52628 18
    endloop
  endfacet
  facet normal 0.406737 -0.913545 0
    outer loop
      vertex -5.5 9.52628 8
      vertex -3.39919 10.4616 8
      vertex -5.5 9.52628 18
    endloop
  endfacet
  facet normal 0.587785 -0.809017 0
    outer loop
      vertex -5.5 9.52628 8
      vertex -5.5 9.52628 18
      vertex -7.36044 8.17459 18
    endloop
  endfacet
  facet normal 0.587785 -0.809017 0
    outer loop
      vertex -7.36044 8.17459 8
      vertex -5.5 9.52628 8
      vertex -7.36044 8.17459 18
    endloop
  endfacet
  facet normal 0.743145 -0.669131 0
    outer loop
      vertex -7.36044 8.17459 8
      vertex -7.36044 8.17459 18
      vertex -8.89919 6.46564 18
    endloop
  endfacet
  facet normal 0.743145 -0.669131 0
    outer loop
      vertex -8.89919 6.46564 8
      vertex -7.36044 8.17459 8
      vertex -8.89919 6.46564 18
    endloop
  endfacet
  facet normal 0.866025 -0.5 0
    outer loop
      vertex -8.89919 6.46564 8
      vertex -8.89919 6.46564 18
      vertex -10.049 4.4741 18
    endloop
  endfacet
  facet normal 0.866025 -0.5 0
    outer loop
      vertex -10.049 4.4741 8
      vertex -8.89919 6.46564 8
      vertex -10.049 4.4741 18
    endloop
  endfacet
  facet normal 0.951056 -0.309017 0
    outer loop
      vertex -10.049 4.4741 8
      vertex -10.049 4.4741 18
      vertex -10.7596 2.28703 18
    endloop
  endfacet
  facet normal 0.951056 -0.309017 0
    outer loop
      vertex -10.7596 2.28703 8
      vertex -10.049 4.4741 8
      vertex -10.7596 2.28703 18
    endloop
  endfacet
  facet normal 0.994522 -0.104528 0
    outer loop
      vertex -10.7596 2.28703 8
      vertex -10.7596 2.28703 18
      vertex -11 0 18
    endloop
  endfacet
  facet normal 0.994522 -0.104528 0
    outer loop
      vertex -11 0 8
      vertex -10.7596 2.28703 8
      vertex -11 0 18
    endloop
  endfacet
  facet normal 0.994522 0.104529 0
    outer loop
      vertex -9.5 0 8
      vertex -9.2924 -1.97516 8
      vertex -9.2924 -1.97516 6
    endloop
  endfacet
  facet normal 0.994522 0.104529 0
    outer loop
      vertex -9.5 0 6
      vertex -9.5 0 8
      vertex -9.2924 -1.97516 6
    endloop
  endfacet
  facet normal 0.951057 0.309017 0
    outer loop
      vertex -9.2924 -1.97516 8
      vertex -8.67868 -3.864 8
      vertex -8.67868 -3.864 6
    endloop
  endfacet
  facet normal 0.951057 0.309017 0
    outer loop
      vertex -9.2924 -1.97516 6
      vertex -9.2924 -1.97516 8
      vertex -8.67868 -3.864 6
    endloop
  endfacet
  facet normal 0.994522 -0.104529 0
    outer loop
      vertex -9.2924 1.97516 6
      vertex -9.2924 1.97516 8
      vertex -9.5 0 8
    endloop
  endfacet
  facet normal 0.994522 -0.104529 0
    outer loop
      vertex -9.5 0 6
      vertex -9.2924 1.97516 6
      vertex -9.5 0 8
    endloop
  endfacet
  facet normal 0.951057 -0.309017 0
    outer loop
      vertex -8.67868 3.864 6
      vertex -8.67868 3.864 8
      vertex -9.2924 1.97516 8
    endloop
  endfacet
  facet normal 0.951057 -0.309017 0
    outer loop
      vertex -9.2924 1.97516 6
      vertex -8.67868 3.864 6
      vertex -9.2924 1.97516 8
    endloop
  endfacet
  facet normal 0.866025 -0.5 0
    outer loop
      vertex -7.68566 5.58396 6
      vertex -7.68566 5.58396 8
      vertex -8.67868 3.864 8
    endloop
  endfacet
  facet normal 0.866025 -0.5 0
    outer loop
      vertex -8.67868 3.864 6
      vertex -7.68566 5.58396 6
      vertex -8.67868 3.864 8
    endloop
  endfacet
  facet normal 0.743145 -0.66913 0
    outer loop
      vertex -6.35674 7.05988 6
      vertex -6.35674 7.05988 8
      vertex -7.68566 5.58396 8
    endloop
  endfacet
  facet normal 0.743145 -0.66913 0
    outer loop
      vertex -7.68566 5.58396 6
      vertex -6.35674 7.05988 6
      vertex -7.68566 5.58396 8
    endloop
  endfacet
  facet normal 0.587785 -0.809017 0
    outer loop
      vertex -4.75 8.22724 6
      vertex -4.75 8.22724 8
      vertex -6.35674 7.05988 8
    endloop
  endfacet
  facet normal 0.587785 -0.809017 0
    outer loop
      vertex -6.35674 7.05988 6
      vertex -4.75 8.22724 6
      vertex -6.35674 7.05988 8
    endloop
  endfacet
  facet normal 0.406737 -0.913545 0
    outer loop
      vertex -2.93566 9.03504 6
      vertex -2.93566 9.03504 8
      vertex -4.75 8.22724 8
    endloop
  endfacet
  facet normal 0.406737 -0.913545 0
    outer loop
      vertex -4.75 8.22724 6
      vertex -2.93566 9.03504 6
      vertex -4.75 8.22724 8
    endloop
  endfacet
  facet normal 0.207912 -0.978148 0
    outer loop
      vertex -0.99302 9.44796 6
      vertex -0.99302 9.44796 8
      vertex -2.93566 9.03504 8
    endloop
  endfacet
  facet normal 0.207912 -0.978148 0
    outer loop
      vertex -2.93566 9.03504 6
      vertex -0.99302 9.44796 6
      vertex -2.93566 9.03504 8
    endloop
  endfacet
  facet normal 0 -1 0
    outer loop
      vertex 0.99302 9.44796 6
      vertex 0.99302 9.44796 8
      vertex -0.99302 9.44796 8
    endloop
  endfacet
  facet normal 0 -1 0
    outer loop
      vertex -0.99302 9.44796 6
      vertex 0.99302 9.44796 6
      vertex -0.99302 9.44796 8
    endloop
  endfacet
  facet normal -0.207912 -0.978148 0
    outer loop
      vertex 2.93566 9.03504 6
      vertex 2.93566 9.03504 8
      vertex 0.99302 9.44796 8
    endloop
  endfacet
  facet normal -0.207912 -0.978148 0
    outer loop
      vertex 0.99302 9.44796 6
      vertex 2.93566 9.03504 6
      vertex 0.99302 9.44796 8
    endloop
  endfacet
  facet normal -0.406737 -0.913545 0
    outer loop
      vertex 4.75 8.22724 6
      vertex 4.75 8.22724 8
      vertex 2.93566 9.03504 8
    endloop
  endfacet
  facet normal -0.406737 -0.913545 0
    outer loop
      vertex 2.93566 9.03504 6
      vertex 4.75 8.22724 6
      vertex 2.93566 9.03504 8
    endloop
  endfacet
  facet normal -0.587785 -0.809017 0
    outer loop
      vertex 6.35674 7.05988 6
      vertex 6.35674 7.05988 8
      vertex 4.75 8.22724 8
    endloop
  endfacet
  facet normal -0.587785 -0.809017 0
    outer loop
      vertex 4.75 8.22724 6
      vertex 6.35674 7.05988 6
      vertex 4.75 8.22724 8
    endloop
  endfacet
  facet normal -0.743145 -0.66913 0
    outer loop
      vertex 7.68566 5.58396 8
      vertex 6.35674 7.05988 8
      vertex 7.68566 5.58396 6
    endloop
  endfacet
  facet normal -0.743145 -0.66913 0
    outer loop
      vertex 7.68566 5.58396 6
      vertex 6.35674 7.05988 8
      vertex 6.35674 7.05988 6
    endloop
  endfacet
  facet normal -0.866025 -0.5 0
    outer loop
      vertex 8.67868 3.864 8
      vertex 7.68566 5.58396 8
      vertex 8.67868 3.864 6
    endloop
  endfacet
  facet normal -0.866025 -0.5 0
    outer loop
      vertex 8.67868 3.864 6
      vertex 7.68566 5.58396 8
      vertex 7.68566 5.58396 6
    endloop
  endfacet
  facet normal -0.951057 -0.309017 0
    outer loop
      vertex 9.2924 1.97516 8
      vertex 8.67868 3.864 8
      vertex 9.2924 1.97516 6
    endloop
  endfacet
  facet normal -0.951057 -0.309017 0
    outer loop
      vertex 9.2924 1.97516 6
      vertex 8.67868 3.864 8
      vertex 8.67868 3.864 6
    endloop
  endfacet
  facet normal -0.994522 -0.104529 0
    outer loop
      vertex 9.5 0 8
      vertex 9.2924 1.97516 8
      vertex 9.5 0 6
    endloop
  endfacet
  facet normal -0.994522 -0.104529 0
    outer loop
      vertex 9.5 0 6
      vertex 9.2924 1.97516 8
      vertex 9.2924 1.97516 6
    endloop
  endfacet
  facet normal -0.994522 0.104529 0
    outer loop
      vertex 9.5 0 8
      vertex 9.5 0 6
      vertex 9.2924 -1.97516 8
    endloop
  endfacet
  facet normal -0.994522 0.104529 0
    outer loop
      vertex 9.2924 -1.97516 8
      vertex 9.5 0 6
      vertex 9.2924 -1.97516 6
    endloop
  endfacet
  facet normal -0.951057 0.309017 0
    outer loop
      vertex 9.2924 -1.97516 8
      vertex 9.2924 -1.97516 6
      vertex 8.67868 -3.864 8
    endloop
  endfacet
  facet normal -0.951057 0.309017 0
    outer loop
      vertex 8.67868 -3.864 8
      vertex 9.2924 -1.97516 6
      vertex 8.67868 -3.864 6
    endloop
  endfacet
  facet normal -0.866025 0.5 0
    outer loop
      vertex 8.67868 -3.864 8
      vertex 8.67868 -3.864 6
      vertex 7.68566 -5.58396 8
    endloop
  endfacet
  facet normal -0.866025 0.5 0
    outer loop
      vertex 7.68566 -5.58396 8
      vertex 8.67868 -3.864 6
      vertex 7.68566 -5.58396 6
    endloop
  endfacet
  facet normal -0.743145 0.66913 0
    outer loop
      vertex 7.68566 -5.58396 8
      vertex 7.68566 -5.58396 6
      vertex 6.35674 -7.05988 8
    endloop
  endfacet
  facet normal -0.743145 0.66913 0
    outer loop
      vertex 6.35674 -7.05988 8
      vertex 7.68566 -5.58396 6
      vertex 6.35674 -7.05988 6
    endloop
  endfacet
  facet normal -0.587785 0.809017 0
    outer loop
      vertex 6.35674 -7.05988 8
      vertex 6.35674 -7.05988 6
      vertex 4.75 -8.22724 8
    endloop
  endfacet
  facet normal -0.587785 0.809017 0
    outer loop
      vertex 4.75 -8.22724 8
      vertex 6.35674 -7.05988 6
      vertex 4.75 -8.22724 6
    endloop
  endfacet
  facet normal -0.406737 0.913545 0
    outer loop
      vertex 4.75 -8.22724 8
      vertex 4.75 -8.22724 6
      vertex 2.93566 -9.03504 8
    endloop
  endfacet
  facet normal -0.406737 0.913545 0
    outer loop
      vertex 2.93566 -9.03504 8
      vertex 4.75 -8.22724 6
      vertex 2.93566 -9.03504 6
    endloop
  endfacet
  facet normal -0.207912 0.978148 0
    outer loop
      vertex 2.93566 -9.03504 8
      vertex 2.93566 -9.03504 6
      vertex 0.99302 -9.44796 8
    endloop
  endfacet
  facet normal -0.207912 0.978148 0
    outer loop
      vertex 0.99302 -9.44796 8
      vertex 2.93566 -9.03504 6
      vertex 0.99302 -9.44796 6
    endloop
  endfacet
  facet normal 0 1 0
    outer loop
      vertex 0.99302 -9.44796 8
      vertex 0.99302 -9.44796 6
      vertex -0.99302 -9.44796 8
    endloop
  endfacet
  facet normal 0 1 0
    outer loop
      vertex -0.99302 -9.44796 8
      vertex 0.99302 -9.44796 6
      vertex -0.99302 -9.44796 6
    endloop
  endfacet
  facet normal 0.207912 0.978148 0
    outer loop
      vertex -0.99302 -9.44796 8
      vertex -0.99302 -9.44796 6
      vertex -2.93566 -9.03504 8
    endloop
  endfacet
  facet normal 0.207912 0.978148 0
    outer loop
      vertex -2.93566 -9.03504 8
      vertex -0.99302 -9.44796 6
      vertex -2.93566 -9.03504 6
    endloop
  endfacet
  facet normal 0.406737 0.913545 0
    outer loop
      vertex -2.93566 -9.03504 8
      vertex -2.93566 -9.03504 6
      vertex -4.75 -8.22724 8
    endloop
  endfacet
  facet normal 0.406737 0.913545 0
    outer loop
      vertex -4.75 -8.22724 8
      vertex -2.93566 -9.03504 6
      vertex -4.75 -8.22724 6
    endloop
  endfacet
  facet normal 0.587785 0.809017 0
    outer loop
      vertex -4.75 -8.22724 8
      vertex -4.75 -8.22724 6
      vertex -6.35674 -7.05988 8
    endloop
  endfacet
  facet normal 0.587785 0.809017 0
    outer loop
      vertex -6.35674 -7.05988 8
      vertex -4.75 -8.22724 6
      vertex -6.35674 -7.05988 6
    endloop
  endfacet
  facet normal 0.743145 0.66913 0
    outer loop
      vertex -7.68566 -5.58396 8
      vertex -6.35674 -7.05988 8
      vertex -6.35674 -7.05988 6
    endloop
  endfacet
  facet normal 0.743145 0.66913 0
    outer loop
      vertex -7.68566 -5.58396 6
      vertex -7.68566 -5.58396 8
      vertex -6.35674 -7.05988 6
    endloop
  endfacet
  facet normal 0.866025 0.5 0
    outer loop
      vertex -8.67868 -3.864 8
      vertex -7.68566 -5.58396 8
      vertex -7.68566 -5.58396 6
    endloop
  endfacet
  facet normal 0.866025 0.5 0
    outer loop
      vertex -8.67868 -3.864 6
      vertex -8.67868 -3.864 8
      vertex -7.68566 -5.58396 6
    endloop
  endfacet
  facet normal 0 0 1
    outer loop
      vertex -10.7596 -2.28703 8
      vertex -10.049 -4.4741 8
      vertex -8.89919 -6.46564 8
    endloop
  endfacet
  facet normal 0 0 1
    outer loop
      vertex -5.5 -9.52628 8
      vertex -10.7596 -2.28703 8
      vertex -7.36044 -8.17459 8
    endloop
  endfacet
  facet normal 0 0 1
    outer loop
      vertex -7.36044 -8.17459 8
      vertex -10.7596 -2.28703 8
      vertex -8.89919 -6.46564 8
    endloop
  endfacet
  facet normal 0 0 1
    outer loop
      vertex -3.39919 -10.4616 8
      vertex -10.7596 -2.28703 8
      vertex -5.5 -9.52628 8
    endloop
  endfacet
  facet normal 0 0 1
    outer loop
      vertex -6.35674 -7.05988 8
      vertex -10.7596 -2.28703 8
      vertex -3.39919 -10.4616 8
    endloop
  endfacet
  facet normal 0 0 1
    outer loop
      vertex -2.93566 -9.03504 8
      vertex -4.75 -8.22724 8
      vertex -1.14981 -10.9397 8
    endloop
  endfacet
  facet normal 0 0 1
    outer loop
      vertex 0.99302 -9.44796 8
      vertex -0.99302 -9.44796 8
      vertex 1.14981 -10.9397 8
    endloop
  endfacet
  facet normal 0 0 1
    outer loop
      vertex 2.93566 -9.03504 8
      vertex 0.99302 -9.44796 8
      vertex 3.39919 -10.4616 8
    endloop
  endfacet
  facet normal 0 0 1
    outer loop
      vertex 4.75 -8.22724 8
      vertex 2.93566 -9.03504 8
      vertex 5.5 -9.52628 8
    endloop
  endfacet
  facet normal 0 0 1
    outer loop
      vertex 6.35674 -7.05988 8
      vertex 4.75 -8.22724 8
      vertex 7.36044 -8.17459 8
    endloop
  endfacet
  facet normal 0 0 1
    outer loop
      vertex 7.68566 -5.58396 8
      vertex 6.35674 -7.05988 8
      vertex 8.89919 -6.46564 8
    endloop
  endfacet
  facet normal 0 0 1
    outer loop
      vertex 8.67868 -3.864 8
      vertex 7.68566 -5.58396 8
      vertex 10.049 -4.4741 8
    endloop
  endfacet
  facet normal 0 0 1
    outer loop
      vertex 9.2924 -1.97516 8
      vertex 8.67868 -3.864 8
      vertex 10.7596 -2.28703 8
    endloop
  endfacet
  facet normal 0 0 1
    outer loop
      vertex 9.5 0 8
      vertex 9.2924 -1.97516 8
      vertex 11 0 8
    endloop
  endfacet
  facet normal 0 0 1
    outer loop
      vertex -8.67868 -3.864 8
      vertex -9.2924 -1.97516 8
      vertex -10.7596 -2.28703 8
    endloop
  endfacet
  facet normal 0 0 1
    outer loop
      vertex -7.68566 5.58396 8
      vertex -6.35674 7.05988 8
      vertex -5.5 9.52628 8
    endloop
  endfacet
  facet normal 0 0 1
    outer loop
      vertex -4.75 8.22724 8
      vertex -2.93566 9.03504 8
      vertex -3.39919 10.4616 8
    endloop
  endfacet
  facet normal 0 0 1
    outer loop
      vertex -8.89919 6.46564 8
      vertex -10.7596 -2.28703 8
      vertex -7.36044 8.17459 8
    endloop
  endfacet
  facet normal 0 0 1
    outer loop
      vertex -10.049 4.4741 8
      vertex -10.7596 -2.28703 8
      vertex -8.89919 6.46564 8
    endloop
  endfacet
  facet normal 0 0 1
    outer loop
      vertex -10.7596 2.28703 8
      vertex -10.7596 -2.28703 8
      vertex -10.049 4.4741 8
    endloop
  endfacet
  facet normal 0 0 1
    outer loop
      vertex -11 0 8
      vertex -10.7596 -2.28703 8
      vertex -10.7596 2.28703 8
    endloop
  endfacet
  facet normal 0 0 1
    outer loop
      vertex -2.93566 9.03504 8
      vertex -0.99302 9.44796 8
      vertex -1.14981 10.9397 8
    endloop
  endfacet
  facet normal 0 0 1
    outer loop
      vertex 8.67868 3.864 8
      vertex 9.2924 1.97516 8
      vertex 10.7596 2.28703 8
    endloop
  endfacet
  facet normal 0 0 1
    outer loop
      vertex -7.36044 8.17459 8
      vertex -10.7596 -2.28703 8
      vertex -9.2924 1.97516 8
    endloop
  endfacet
  facet normal 0 0 1
    outer loop
      vertex -7.36044 8.17459 8
      vertex -8.67868 3.864 8
      vertex -5.5 9.52628 8
    endloop
  endfacet
  facet normal 0 0 1
    outer loop
      vertex -7.36044 8.17459 8
      vertex -9.2924 1.97516 8
      vertex -8.67868 3.864 8
    endloop
  endfacet
  facet normal 0 0 1
    outer loop
      vertex -8.67868 3.864 8
      vertex -7.68566 5.58396 8
      vertex -5.5 9.52628 8
    endloop
  endfacet
  facet normal 0 0 1
    outer loop
      vertex -5.5 9.52628 8
      vertex -6.35674 7.05988 8
      vertex -3.39919 10.4616 8
    endloop
  endfacet
  facet normal 0 0 1
    outer loop
      vertex -6.35674 7.05988 8
      vertex -4.75 8.22724 8
      vertex -3.39919 10.4616 8
    endloop
  endfacet
  facet normal 0 0 1
    outer loop
      vertex -3.39919 10.4616 8
      vertex -2.93566 9.03504 8
      vertex -1.14981 10.9397 8
    endloop
  endfacet
  facet normal 0 0 1
    outer loop
      vertex -9.5 0 8
      vertex -9.2924 1.97516 8
      vertex -10.7596 -2.28703 8
    endloop
  endfacet
  facet normal 0 0 1
    outer loop
      vertex -1.14981 10.9397 8
      vertex -0.99302 9.44796 8
      vertex 1.14981 10.9397 8
    endloop
  endfacet
  facet normal 0 0 1
    outer loop
      vertex 1.14981 10.9397 8
      vertex 0.99302 9.44796 8
      vertex 3.39919 10.4616 8
    endloop
  endfacet
  facet normal 0 0 1
    outer loop
      vertex 3.39919 10.4616 8
      vertex 2.93566 9.03504 8
      vertex 5.5 9.52628 8
    endloop
  endfacet
  facet normal 0 0 1
    outer loop
      vertex 5.5 9.52628 8
      vertex 4.75 8.22724 8
      vertex 7.36044 8.17459 8
    endloop
  endfacet
  facet normal 0 0 1
    outer loop
      vertex 7.36044 8.17459 8
      vertex 6.35674 7.05988 8
      vertex 8.89919 6.46564 8
    endloop
  endfacet
  facet normal 0 0 1
    outer loop
      vertex 8.89919 6.46564 8
      vertex 7.68566 5.58396 8
      vertex 10.049 4.4741 8
    endloop
  endfacet
  facet normal 0 0 1
    outer loop
      vertex 10.049 4.4741 8
      vertex 8.67868 3.864 8
      vertex 10.7596 2.28703 8
    endloop
  endfacet
  facet normal 0 0 1
    outer loop
      vertex 10.7596 2.28703 8
      vertex 9.2924 1.97516 8
      vertex 11 0 8
    endloop
  endfacet
  facet normal 0 0 1
    outer loop
      vertex 9.2924 1.97516 8
      vertex 9.5 0 8
      vertex 11 0 8
    endloop
  endfacet
  facet normal 0 0 1
    outer loop
      vertex 11 0 8
      vertex 9.2924 -1.97516 8
      vertex 10.7596 -2.28703 8
    endloop
  endfacet
  facet normal 0 0 1
    outer loop
      vertex 10.7596 -2.28703 8
      vertex 8.67868 -3.864 8
      vertex 10.049 -4.4741 8
    endloop
  endfacet
  facet normal 0 0 1
    outer loop
      vertex 10.049 -4.4741 8
      vertex 7.68566 -5.58396 8
      vertex 8.89919 -6.46564 8
    endloop
  endfacet
  facet normal 0 0 1
    outer loop
      vertex 8.89919 -6.46564 8
      vertex 6.35674 -7.05988 8
      vertex 7.36044 -8.17459 8
    endloop
  endfacet
  facet normal 0 0 1
    outer loop
      vertex 7.36044 -8.17459 8
      vertex 4.75 -8.22724 8
      vertex 5.5 -9.52628 8
    endloop
  endfacet
  facet normal 0 0 1
    outer loop
      vertex 5.5 -9.52628 8
      vertex 2.93566 -9.03504 8
      vertex 3.39919 -10.4616 8
    endloop
  endfacet
  facet normal 0 0 1
    outer loop
      vertex 3.39919 -10.4616 8
      vertex 0.99302 -9.44796 8
      vertex 1.14981 -10.9397 8
    endloop
  endfacet
  facet normal 0 0 1
    outer loop
      vertex 1.14981 -10.9397 8
      vertex -0.99302 -9.44796 8
      vertex -1.14981 -10.9397 8
    endloop
  endfacet
  facet normal 0 0 1
    outer loop
      vertex -0.99302 -9.44796 8
      vertex -2.93566 -9.03504 8
      vertex -1.14981 -10.9397 8
    endloop
  endfacet
  facet normal 0 0 1
    outer loop
      vertex -1.14981 -10.9397 8
      vertex -4.75 -8.22724 8
      vertex -3.39919 -10.4616 8
    endloop
  endfacet
  facet normal 0 0 1
    outer loop
      vertex -4.75 -8.22724 8
      vertex -6.35674 -7.05988 8
      vertex -3.39919 -10.4616 8
    endloop
  endfacet
  facet normal 0 0 1
    outer loop
      vertex -7.68566 -5.58396 8
      vertex -10.7596 -2.28703 8
      vertex -6.35674 -7.05988 8
    endloop
  endfacet
  facet normal 0 0 1
    outer loop
      vertex -7.68566 -5.58396 8
      vertex -8.67868 -3.864 8
      vertex -10.7596 -2.28703 8
    endloop
  endfacet
  facet normal 0 0 1
    outer loop
      vertex -0.99302 9.44796 8
      vertex 0.99302 9.44796 8
      vertex 1.14981 10.9397 8
    endloop
  endfacet
  facet normal 0 0 1
    outer loop
      vertex 0.99302 9.44796 8
      vertex 2.93566 9.03504 8
      vertex 3.39919 10.4616 8
    endloop
  endfacet
  facet normal 0 0 1
    outer loop
      vertex 2.93566 9.03504 8
      vertex 4.75 8.22724 8
      vertex 5.5 9.52628 8
    endloop
  endfacet
  facet normal 0 0 1
    outer loop
      vertex 4.75 8.22724 8
      vertex 6.35674 7.05988 8
      vertex 7.36044 8.17459 8
    endloop
  endfacet
  facet normal 0 0 1
    outer loop
      vertex 6.35674 7.05988 8
      vertex 7.68566 5.58396 8
      vertex 8.89919 6.46564 8
    endloop
  endfacet
  facet normal 0 0 1
    outer loop
      vertex 7.68566 5.58396 8
      vertex 8.67868 3.864 8
      vertex 10.049 4.4741 8
    endloop
  endfacet
  facet normal 0 0 1
    outer loop
      vertex -9.2924 -1.97516 8
      vertex -9.5 0 8
      vertex -10.7596 -2.28703 8
    endloop
  endfacet
endsolid OpenSCAD_Model
