solid OpenSCAD_Model
  facet normal 0 0 -1
    outer loop
      vertex -32 0 0
      vertex -31.3007 6.65317 0
      vertex -31.3007 -6.65317 0
    endloop
  endfacet
  facet normal 0 0 -1
    outer loop
      vertex -31.3007 -6.65317 0
      vertex -31.3007 6.65317 0
      vertex -29.2335 13.0156 0
    endloop
  endfacet
  facet normal 0 0 -1
    outer loop
      vertex -31.3007 -6.65317 0
      vertex -29.2335 13.0156 0
      vertex -25.8885 18.8091 0
    endloop
  endfacet
  facet normal 0 0 -1
    outer loop
      vertex -26.5842 11.836 0
      vertex -25.8885 18.8091 0
      vertex -21.4122 23.7806 0
    endloop
  endfacet
  facet normal 0 0 -1
    outer loop
      vertex -19.4717 21.6255 0
      vertex -21.4122 23.7806 0
      vertex -16 27.7128 0
    endloop
  endfacet
  facet normal 0 0 -1
    outer loop
      vertex -14.55 25.2013 0
      vertex -16 27.7128 0
      vertex -9.88854 30.4338 0
    endloop
  endfacet
  facet normal 0 0 -1
    outer loop
      vertex -8.9924 27.6757 0
      vertex -9.88854 30.4338 0
      vertex -3.34491 31.8247 0
    endloop
  endfacet
  facet normal 0 0 -1
    outer loop
      vertex -3.04178 28.9406 0
      vertex -3.34491 31.8247 0
      vertex 3.34491 31.8247 0
    endloop
  endfacet
  facet normal 0 0 -1
    outer loop
      vertex 3.04178 28.9406 0
      vertex 3.34491 31.8247 0
      vertex 9.88854 30.4338 0
    endloop
  endfacet
  facet normal 0 0 -1
    outer loop
      vertex 8.9924 27.6757 0
      vertex 9.88854 30.4338 0
      vertex 16 27.7128 0
    endloop
  endfacet
  facet normal 0 0 -1
    outer loop
      vertex 14.55 25.2013 0
      vertex 16 27.7128 0
      vertex 21.4122 23.7806 0
    endloop
  endfacet
  facet normal 0 0 -1
    outer loop
      vertex 19.4717 21.6255 0
      vertex 21.4122 23.7806 0
      vertex 25.8885 18.8091 0
    endloop
  endfacet
  facet normal 0 0 -1
    outer loop
      vertex 23.5424 17.1046 0
      vertex 25.8885 18.8091 0
      vertex 29.2335 13.0156 0
    endloop
  endfacet
  facet normal 0 0 -1
    outer loop
      vertex 26.5842 11.836 0
      vertex 29.2335 13.0156 0
      vertex 31.3007 6.65317 0
    endloop
  endfacet
  facet normal 0 0 -1
    outer loop
      vertex 29.1 0 0
      vertex 31.3007 6.65317 0
      vertex 32 0 0
    endloop
  endfacet
  facet normal 0 0 -1
    outer loop
      vertex 28.4641 -6.05023 0
      vertex 32 0 0
      vertex 31.3007 -6.65317 0
    endloop
  endfacet
  facet normal 0 0 -1
    outer loop
      vertex 26.5842 -11.836 0
      vertex 31.3007 -6.65317 0
      vertex 29.2335 -13.0156 0
    endloop
  endfacet
  facet normal 0 0 -1
    outer loop
      vertex 23.5424 -17.1046 0
      vertex 29.2335 -13.0156 0
      vertex 25.8885 -18.8091 0
    endloop
  endfacet
  facet normal 0 0 -1
    outer loop
      vertex 19.4717 -21.6255 0
      vertex 25.8885 -18.8091 0
      vertex 21.4122 -23.7806 0
    endloop
  endfacet
  facet normal 0 0 -1
    outer loop
      vertex 14.55 -25.2013 0
      vertex 21.4122 -23.7806 0
      vertex 16 -27.7128 0
    endloop
  endfacet
  facet normal 0 0 -1
    outer loop
      vertex 8.9924 -27.6757 0
      vertex 16 -27.7128 0
      vertex 9.88854 -30.4338 0
    endloop
  endfacet
  facet normal 0 0 -1
    outer loop
      vertex 3.04178 -28.9406 0
      vertex 9.88854 -30.4338 0
      vertex 3.34491 -31.8247 0
    endloop
  endfacet
  facet normal 0 0 -1
    outer loop
      vertex -3.04178 -28.9406 0
      vertex 3.34491 -31.8247 0
      vertex -3.34491 -31.8247 0
    endloop
  endfacet
  facet normal 0 0 -1
    outer loop
      vertex -14.55 -25.2013 0
      vertex -3.34491 -31.8247 0
      vertex -9.88854 -30.4338 0
    endloop
  endfacet
  facet normal 0 0 -1
    outer loop
      vertex -19.4717 -21.6255 0
      vertex -9.88854 -30.4338 0
      vertex -16 -27.7128 0
    endloop
  endfacet
  facet normal 0 0 -1
    outer loop
      vertex -31.3007 -6.65317 0
      vertex -16 -27.7128 0
      vertex -21.4122 -23.7806 0
    endloop
  endfacet
  facet normal 0 0 -1
    outer loop
      vertex -31.3007 -6.65317 0
      vertex -21.4122 -23.7806 0
      vertex -25.8885 -18.8091 0
    endloop
  endfacet
  facet normal 0 0 -1
    outer loop
      vertex -31.3007 -6.65317 0
      vertex -25.8885 -18.8091 0
      vertex -29.2335 -13.0156 0
    endloop
  endfacet
  facet normal 0 0 -1
    outer loop
      vertex -28.4641 -6.05023 0
      vertex -31.3007 -6.65317 0
      vertex -29.1 0 0
    endloop
  endfacet
  facet normal 0 0 -1
    outer loop
      vertex 8.9924 -27.6757 0
      vertex 9.88854 -30.4338 0
      vertex 3.04178 -28.9406 0
    endloop
  endfacet
  facet normal 0 0 -1
    outer loop
      vertex -26.5842 -11.836 0
      vertex -31.3007 -6.65317 0
      vertex -28.4641 -6.05023 0
    endloop
  endfacet
  facet normal 0 0 -1
    outer loop
      vertex -23.5424 -17.1046 0
      vertex -31.3007 -6.65317 0
      vertex -26.5842 -11.836 0
    endloop
  endfacet
  facet normal 0 0 -1
    outer loop
      vertex -14.55 -25.2013 0
      vertex -9.88854 -30.4338 0
      vertex -19.4717 -21.6255 0
    endloop
  endfacet
  facet normal 0 0 -1
    outer loop
      vertex -31.3007 -6.65317 0
      vertex -23.5424 -17.1046 0
      vertex -16 -27.7128 0
    endloop
  endfacet
  facet normal 0 0 -1
    outer loop
      vertex -23.5424 -17.1046 0
      vertex -19.4717 -21.6255 0
      vertex -16 -27.7128 0
    endloop
  endfacet
  facet normal 0 0 -1
    outer loop
      vertex -8.9924 -27.6757 0
      vertex -3.34491 -31.8247 0
      vertex -14.55 -25.2013 0
    endloop
  endfacet
  facet normal 0 0 -1
    outer loop
      vertex -3.04178 -28.9406 0
      vertex -3.34491 -31.8247 0
      vertex -8.9924 -27.6757 0
    endloop
  endfacet
  facet normal 0 0 -1
    outer loop
      vertex 28.4641 6.05023 0
      vertex 31.3007 6.65317 0
      vertex 29.1 0 0
    endloop
  endfacet
  facet normal 0 0 -1
    outer loop
      vertex 23.5424 17.1046 0
      vertex 29.2335 13.0156 0
      vertex 26.5842 11.836 0
    endloop
  endfacet
  facet normal 0 0 -1
    outer loop
      vertex 26.5842 11.836 0
      vertex 31.3007 6.65317 0
      vertex 28.4641 6.05023 0
    endloop
  endfacet
  facet normal 0 0 -1
    outer loop
      vertex 29.1 0 0
      vertex 32 0 0
      vertex 28.4641 -6.05023 0
    endloop
  endfacet
  facet normal 0 0 -1
    outer loop
      vertex 28.4641 -6.05023 0
      vertex 31.3007 -6.65317 0
      vertex 26.5842 -11.836 0
    endloop
  endfacet
  facet normal 0 0 -1
    outer loop
      vertex 26.5842 -11.836 0
      vertex 29.2335 -13.0156 0
      vertex 23.5424 -17.1046 0
    endloop
  endfacet
  facet normal 0 0 -1
    outer loop
      vertex 23.5424 -17.1046 0
      vertex 25.8885 -18.8091 0
      vertex 19.4717 -21.6255 0
    endloop
  endfacet
  facet normal 0 0 -1
    outer loop
      vertex 19.4717 -21.6255 0
      vertex 21.4122 -23.7806 0
      vertex 14.55 -25.2013 0
    endloop
  endfacet
  facet normal 0 0 -1
    outer loop
      vertex 14.55 -25.2013 0
      vertex 16 -27.7128 0
      vertex 8.9924 -27.6757 0
    endloop
  endfacet
  facet normal 0 0 -1
    outer loop
      vertex -23.5424 17.1046 0
      vertex -21.4122 23.7806 0
      vertex -19.4717 21.6255 0
    endloop
  endfacet
  facet normal 0 0 -1
    outer loop
      vertex -26.5842 11.836 0
      vertex -21.4122 23.7806 0
      vertex -23.5424 17.1046 0
    endloop
  endfacet
  facet normal 0 0 -1
    outer loop
      vertex -28.4641 6.05023 0
      vertex -25.8885 18.8091 0
      vertex -26.5842 11.836 0
    endloop
  endfacet
  facet normal 0 0 -1
    outer loop
      vertex -31.3007 -6.65317 0
      vertex -25.8885 18.8091 0
      vertex -28.4641 6.05023 0
    endloop
  endfacet
  facet normal 0 0 -1
    outer loop
      vertex -19.4717 21.6255 0
      vertex -16 27.7128 0
      vertex -14.55 25.2013 0
    endloop
  endfacet
  facet normal 0 0 -1
    outer loop
      vertex -29.1 0 0
      vertex -31.3007 -6.65317 0
      vertex -28.4641 6.05023 0
    endloop
  endfacet
  facet normal 0 0 -1
    outer loop
      vertex -14.55 25.2013 0
      vertex -9.88854 30.4338 0
      vertex -8.9924 27.6757 0
    endloop
  endfacet
  facet normal 0 0 -1
    outer loop
      vertex -8.9924 27.6757 0
      vertex -3.34491 31.8247 0
      vertex -3.04178 28.9406 0
    endloop
  endfacet
  facet normal 0 0 -1
    outer loop
      vertex -3.04178 28.9406 0
      vertex 3.34491 31.8247 0
      vertex 3.04178 28.9406 0
    endloop
  endfacet
  facet normal 0 0 -1
    outer loop
      vertex 3.04178 28.9406 0
      vertex 9.88854 30.4338 0
      vertex 8.9924 27.6757 0
    endloop
  endfacet
  facet normal 0 0 -1
    outer loop
      vertex 8.9924 27.6757 0
      vertex 16 27.7128 0
      vertex 14.55 25.2013 0
    endloop
  endfacet
  facet normal 0 0 -1
    outer loop
      vertex 14.55 25.2013 0
      vertex 21.4122 23.7806 0
      vertex 19.4717 21.6255 0
    endloop
  endfacet
  facet normal 0 0 -1
    outer loop
      vertex 19.4717 21.6255 0
      vertex 25.8885 18.8091 0
      vertex 23.5424 17.1046 0
    endloop
  endfacet
  facet normal 0 0 -1
    outer loop
      vertex 3.04178 -28.9406 0
      vertex 3.34491 -31.8247 0
      vertex -3.04178 -28.9406 0
    endloop
  endfacet
  facet normal -0.994522 0.104528 0
    outer loop
      vertex -32 0 0
      vertex -32 0 15
      vertex -31.3007 6.65317 0
    endloop
  endfacet
  facet normal -0.994522 0.104528 0
    outer loop
      vertex -31.3007 6.65317 0
      vertex -32 0 15
      vertex -31.3007 6.65317 15
    endloop
  endfacet
  facet normal -0.994522 -0.104528 0
    outer loop
      vertex -32 0 0
      vertex -31.3007 -6.65317 0
      vertex -32 0 15
    endloop
  endfacet
  facet normal -0.994522 -0.104528 0
    outer loop
      vertex -32 0 15
      vertex -31.3007 -6.65317 0
      vertex -31.3007 -6.65317 15
    endloop
  endfacet
  facet normal -0.951057 -0.309017 0
    outer loop
      vertex -31.3007 -6.65317 0
      vertex -29.2335 -13.0156 0
      vertex -31.3007 -6.65317 15
    endloop
  endfacet
  facet normal -0.951057 -0.309017 0
    outer loop
      vertex -31.3007 -6.65317 15
      vertex -29.2335 -13.0156 0
      vertex -29.2335 -13.0156 15
    endloop
  endfacet
  facet normal -0.866025 -0.5 0
    outer loop
      vertex -29.2335 -13.0156 0
      vertex -25.8885 -18.8091 0
      vertex -29.2335 -13.0156 15
    endloop
  endfacet
  facet normal -0.866025 -0.5 0
    outer loop
      vertex -29.2335 -13.0156 15
      vertex -25.8885 -18.8091 0
      vertex -25.8885 -18.8091 15
    endloop
  endfacet
  facet normal -0.743145 -0.669131 0
    outer loop
      vertex -25.8885 -18.8091 0
      vertex -21.4122 -23.7806 0
      vertex -25.8885 -18.8091 15
    endloop
  endfacet
  facet normal -0.743145 -0.669131 0
    outer loop
      vertex -25.8885 -18.8091 15
      vertex -21.4122 -23.7806 0
      vertex -21.4122 -23.7806 15
    endloop
  endfacet
  facet normal -0.587785 -0.809017 0
    outer loop
      vertex -21.4122 -23.7806 15
      vertex -21.4122 -23.7806 0
      vertex -16 -27.7128 0
    endloop
  endfacet
  facet normal -0.587785 -0.809017 0
    outer loop
      vertex -16 -27.7128 15
      vertex -21.4122 -23.7806 15
      vertex -16 -27.7128 0
    endloop
  endfacet
  facet normal -0.406737 -0.913545 0
    outer loop
      vertex -16 -27.7128 15
      vertex -16 -27.7128 0
      vertex -9.88854 -30.4338 0
    endloop
  endfacet
  facet normal -0.406737 -0.913545 0
    outer loop
      vertex -9.88854 -30.4338 15
      vertex -16 -27.7128 15
      vertex -9.88854 -30.4338 0
    endloop
  endfacet
  facet normal -0.207912 -0.978148 0
    outer loop
      vertex -9.88854 -30.4338 15
      vertex -9.88854 -30.4338 0
      vertex -3.34491 -31.8247 0
    endloop
  endfacet
  facet normal -0.207912 -0.978148 0
    outer loop
      vertex -3.34491 -31.8247 15
      vertex -9.88854 -30.4338 15
      vertex -3.34491 -31.8247 0
    endloop
  endfacet
  facet normal 0 -1 0
    outer loop
      vertex -3.34491 -31.8247 15
      vertex -3.34491 -31.8247 0
      vertex 3.34491 -31.8247 0
    endloop
  endfacet
  facet normal 0 -1 0
    outer loop
      vertex 3.34491 -31.8247 15
      vertex -3.34491 -31.8247 15
      vertex 3.34491 -31.8247 0
    endloop
  endfacet
  facet normal 0.207912 -0.978148 0
    outer loop
      vertex 3.34491 -31.8247 15
      vertex 3.34491 -31.8247 0
      vertex 9.88854 -30.4338 0
    endloop
  endfacet
  facet normal 0.207912 -0.978148 0
    outer loop
      vertex 9.88854 -30.4338 15
      vertex 3.34491 -31.8247 15
      vertex 9.88854 -30.4338 0
    endloop
  endfacet
  facet normal 0.406737 -0.913545 0
    outer loop
      vertex 9.88854 -30.4338 15
      vertex 9.88854 -30.4338 0
      vertex 16 -27.7128 0
    endloop
  endfacet
  facet normal 0.406737 -0.913545 0
    outer loop
      vertex 16 -27.7128 15
      vertex 9.88854 -30.4338 15
      vertex 16 -27.7128 0
    endloop
  endfacet
  facet normal 0.587785 -0.809017 0
    outer loop
      vertex 16 -27.7128 15
      vertex 16 -27.7128 0
      vertex 21.4122 -23.7806 0
    endloop
  endfacet
  facet normal 0.587785 -0.809017 0
    outer loop
      vertex 21.4122 -23.7806 15
      vertex 16 -27.7128 15
      vertex 21.4122 -23.7806 0
    endloop
  endfacet
  facet normal 0.743145 -0.669131 0
    outer loop
      vertex 21.4122 -23.7806 15
      vertex 21.4122 -23.7806 0
      vertex 25.8885 -18.8091 0
    endloop
  endfacet
  facet normal 0.743145 -0.669131 0
    outer loop
      vertex 25.8885 -18.8091 15
      vertex 21.4122 -23.7806 15
      vertex 25.8885 -18.8091 0
    endloop
  endfacet
  facet normal 0.866025 -0.5 0
    outer loop
      vertex 25.8885 -18.8091 15
      vertex 25.8885 -18.8091 0
      vertex 29.2335 -13.0156 0
    endloop
  endfacet
  facet normal 0.866025 -0.5 0
    outer loop
      vertex 29.2335 -13.0156 15
      vertex 25.8885 -18.8091 15
      vertex 29.2335 -13.0156 0
    endloop
  endfacet
  facet normal 0.951057 -0.309017 0
    outer loop
      vertex 29.2335 -13.0156 15
      vertex 29.2335 -13.0156 0
      vertex 31.3007 -6.65317 0
    endloop
  endfacet
  facet normal 0.951057 -0.309017 0
    outer loop
      vertex 31.3007 -6.65317 15
      vertex 29.2335 -13.0156 15
      vertex 31.3007 -6.65317 0
    endloop
  endfacet
  facet normal 0.994522 -0.104528 0
    outer loop
      vertex 31.3007 -6.65317 15
      vertex 31.3007 -6.65317 0
      vertex 32 0 0
    endloop
  endfacet
  facet normal 0.994522 -0.104528 0
    outer loop
      vertex 32 0 15
      vertex 31.3007 -6.65317 15
      vertex 32 0 0
    endloop
  endfacet
  facet normal 0.994522 0.104528 0
    outer loop
      vertex 32 0 0
      vertex 31.3007 6.65317 0
      vertex 31.3007 6.65317 15
    endloop
  endfacet
  facet normal 0.994522 0.104528 0
    outer loop
      vertex 32 0 15
      vertex 32 0 0
      vertex 31.3007 6.65317 15
    endloop
  endfacet
  facet normal 0.951057 0.309017 0
    outer loop
      vertex 31.3007 6.65317 0
      vertex 29.2335 13.0156 0
      vertex 29.2335 13.0156 15
    endloop
  endfacet
  facet normal 0.951057 0.309017 0
    outer loop
      vertex 31.3007 6.65317 15
      vertex 31.3007 6.65317 0
      vertex 29.2335 13.0156 15
    endloop
  endfacet
  facet normal 0.866025 0.5 0
    outer loop
      vertex 29.2335 13.0156 0
      vertex 25.8885 18.8091 0
      vertex 25.8885 18.8091 15
    endloop
  endfacet
  facet normal 0.866025 0.5 0
    outer loop
      vertex 29.2335 13.0156 15
      vertex 29.2335 13.0156 0
      vertex 25.8885 18.8091 15
    endloop
  endfacet
  facet normal 0.743145 0.669131 0
    outer loop
      vertex 25.8885 18.8091 0
      vertex 21.4122 23.7806 0
      vertex 21.4122 23.7806 15
    endloop
  endfacet
  facet normal 0.743145 0.669131 0
    outer loop
      vertex 25.8885 18.8091 15
      vertex 25.8885 18.8091 0
      vertex 21.4122 23.7806 15
    endloop
  endfacet
  facet normal 0.587785 0.809017 0
    outer loop
      vertex 16 27.7128 0
      vertex 16 27.7128 15
      vertex 21.4122 23.7806 0
    endloop
  endfacet
  facet normal 0.587785 0.809017 0
    outer loop
      vertex 21.4122 23.7806 0
      vertex 16 27.7128 15
      vertex 21.4122 23.7806 15
    endloop
  endfacet
  facet normal 0.406737 0.913545 0
    outer loop
      vertex 9.88854 30.4338 0
      vertex 9.88854 30.4338 15
      vertex 16 27.7128 0
    endloop
  endfacet
  facet normal 0.406737 0.913545 0
    outer loop
      vertex 16 27.7128 0
      vertex 9.88854 30.4338 15
      vertex 16 27.7128 15
    endloop
  endfacet
  facet normal 0.207912 0.978148 0
    outer loop
      vertex 3.34491 31.8247 0
      vertex 3.34491 31.8247 15
      vertex 9.88854 30.4338 0
    endloop
  endfacet
  facet normal 0.207912 0.978148 0
    outer loop
      vertex 9.88854 30.4338 0
      vertex 3.34491 31.8247 15
      vertex 9.88854 30.4338 15
    endloop
  endfacet
  facet normal 0 1 0
    outer loop
      vertex -3.34491 31.8247 0
      vertex -3.34491 31.8247 15
      vertex 3.34491 31.8247 0
    endloop
  endfacet
  facet normal 0 1 0
    outer loop
      vertex 3.34491 31.8247 0
      vertex -3.34491 31.8247 15
      vertex 3.34491 31.8247 15
    endloop
  endfacet
  facet normal -0.207912 0.978148 0
    outer loop
      vertex -9.88854 30.4338 0
      vertex -9.88854 30.4338 15
      vertex -3.34491 31.8247 0
    endloop
  endfacet
  facet normal -0.207912 0.978148 0
    outer loop
      vertex -3.34491 31.8247 0
      vertex -9.88854 30.4338 15
      vertex -3.34491 31.8247 15
    endloop
  endfacet
  facet normal -0.406737 0.913545 0
    outer loop
      vertex -16 27.7128 0
      vertex -16 27.7128 15
      vertex -9.88854 30.4338 0
    endloop
  endfacet
  facet normal -0.406737 0.913545 0
    outer loop
      vertex -9.88854 30.4338 0
      vertex -16 27.7128 15
      vertex -9.88854 30.4338 15
    endloop
  endfacet
  facet normal -0.587785 0.809017 0
    outer loop
      vertex -21.4122 23.7806 0
      vertex -21.4122 23.7806 15
      vertex -16 27.7128 0
    endloop
  endfacet
  facet normal -0.587785 0.809017 0
    outer loop
      vertex -16 27.7128 0
      vertex -21.4122 23.7806 15
      vertex -16 27.7128 15
    endloop
  endfacet
  facet normal -0.743145 0.669131 0
    outer loop
      vertex -25.8885 18.8091 0
      vertex -25.8885 18.8091 15
      vertex -21.4122 23.7806 0
    endloop
  endfacet
  facet normal -0.743145 0.669131 0
    outer loop
      vertex -21.4122 23.7806 0
      vertex -25.8885 18.8091 15
      vertex -21.4122 23.7806 15
    endloop
  endfacet
  facet normal -0.866025 0.5 0
    outer loop
      vertex -29.2335 13.0156 0
      vertex -29.2335 13.0156 15
      vertex -25.8885 18.8091 0
    endloop
  endfacet
  facet normal -0.866025 0.5 0
    outer loop
      vertex -25.8885 18.8091 0
      vertex -29.2335 13.0156 15
      vertex -25.8885 18.8091 15
    endloop
  endfacet
  facet normal -0.951057 0.309017 0
    outer loop
      vertex -31.3007 6.65317 0
      vertex -31.3007 6.65317 15
      vertex -29.2335 13.0156 0
    endloop
  endfacet
  facet normal -0.951057 0.309017 0
    outer loop
      vertex -29.2335 13.0156 0
      vertex -31.3007 6.65317 15
      vertex -29.2335 13.0156 15
    endloop
  endfacet
  facet normal 0.994522 -0.104528 0
    outer loop
      vertex -28.4641 6.05023 0
      vertex -28.4641 6.05023 15
      vertex -29.1 0 15
    endloop
  endfacet
  facet normal 0.994522 -0.104528 0
    outer loop
      vertex -29.1 0 0
      vertex -28.4641 6.05023 0
      vertex -29.1 0 15
    endloop
  endfacet
  facet normal 0.994522 0.104528 0
    outer loop
      vertex -29.1 0 15
      vertex -28.4641 -6.05023 15
      vertex -28.4641 -6.05023 0
    endloop
  endfacet
  facet normal 0.994522 0.104528 0
    outer loop
      vertex -29.1 0 0
      vertex -29.1 0 15
      vertex -28.4641 -6.05023 0
    endloop
  endfacet
  facet normal 0.951057 -0.309017 0
    outer loop
      vertex -26.5842 11.836 0
      vertex -26.5842 11.836 15
      vertex -28.4641 6.05023 15
    endloop
  endfacet
  facet normal 0.951057 -0.309017 0
    outer loop
      vertex -28.4641 6.05023 0
      vertex -26.5842 11.836 0
      vertex -28.4641 6.05023 15
    endloop
  endfacet
  facet normal 0.866025 -0.5 0
    outer loop
      vertex -23.5424 17.1046 0
      vertex -23.5424 17.1046 15
      vertex -26.5842 11.836 15
    endloop
  endfacet
  facet normal 0.866025 -0.5 0
    outer loop
      vertex -26.5842 11.836 0
      vertex -23.5424 17.1046 0
      vertex -26.5842 11.836 15
    endloop
  endfacet
  facet normal 0.743145 -0.669131 0
    outer loop
      vertex -19.4717 21.6255 0
      vertex -19.4717 21.6255 15
      vertex -23.5424 17.1046 15
    endloop
  endfacet
  facet normal 0.743145 -0.669131 0
    outer loop
      vertex -23.5424 17.1046 0
      vertex -19.4717 21.6255 0
      vertex -23.5424 17.1046 15
    endloop
  endfacet
  facet normal 0.587785 -0.809017 0
    outer loop
      vertex -14.55 25.2013 0
      vertex -14.55 25.2013 15
      vertex -19.4717 21.6255 15
    endloop
  endfacet
  facet normal 0.587785 -0.809017 0
    outer loop
      vertex -19.4717 21.6255 0
      vertex -14.55 25.2013 0
      vertex -19.4717 21.6255 15
    endloop
  endfacet
  facet normal 0.406737 -0.913545 0
    outer loop
      vertex -8.9924 27.6757 0
      vertex -8.9924 27.6757 15
      vertex -14.55 25.2013 15
    endloop
  endfacet
  facet normal 0.406737 -0.913545 0
    outer loop
      vertex -14.55 25.2013 0
      vertex -8.9924 27.6757 0
      vertex -14.55 25.2013 15
    endloop
  endfacet
  facet normal 0.207912 -0.978148 0
    outer loop
      vertex -3.04178 28.9406 0
      vertex -3.04178 28.9406 15
      vertex -8.9924 27.6757 15
    endloop
  endfacet
  facet normal 0.207912 -0.978148 0
    outer loop
      vertex -8.9924 27.6757 0
      vertex -3.04178 28.9406 0
      vertex -8.9924 27.6757 15
    endloop
  endfacet
  facet normal 0 -1 0
    outer loop
      vertex 3.04178 28.9406 0
      vertex 3.04178 28.9406 15
      vertex -3.04178 28.9406 15
    endloop
  endfacet
  facet normal 0 -1 0
    outer loop
      vertex -3.04178 28.9406 0
      vertex 3.04178 28.9406 0
      vertex -3.04178 28.9406 15
    endloop
  endfacet
  facet normal -0.207912 -0.978148 0
    outer loop
      vertex 8.9924 27.6757 0
      vertex 8.9924 27.6757 15
      vertex 3.04178 28.9406 15
    endloop
  endfacet
  facet normal -0.207912 -0.978148 0
    outer loop
      vertex 3.04178 28.9406 0
      vertex 8.9924 27.6757 0
      vertex 3.04178 28.9406 15
    endloop
  endfacet
  facet normal -0.406737 -0.913545 0
    outer loop
      vertex 14.55 25.2013 0
      vertex 14.55 25.2013 15
      vertex 8.9924 27.6757 15
    endloop
  endfacet
  facet normal -0.406737 -0.913545 0
    outer loop
      vertex 8.9924 27.6757 0
      vertex 14.55 25.2013 0
      vertex 8.9924 27.6757 15
    endloop
  endfacet
  facet normal -0.587785 -0.809017 0
    outer loop
      vertex 19.4717 21.6255 0
      vertex 19.4717 21.6255 15
      vertex 14.55 25.2013 15
    endloop
  endfacet
  facet normal -0.587785 -0.809017 0
    outer loop
      vertex 14.55 25.2013 0
      vertex 19.4717 21.6255 0
      vertex 14.55 25.2013 15
    endloop
  endfacet
  facet normal -0.743145 -0.669131 0
    outer loop
      vertex 23.5424 17.1046 15
      vertex 19.4717 21.6255 15
      vertex 23.5424 17.1046 0
    endloop
  endfacet
  facet normal -0.743145 -0.669131 0
    outer loop
      vertex 23.5424 17.1046 0
      vertex 19.4717 21.6255 15
      vertex 19.4717 21.6255 0
    endloop
  endfacet
  facet normal -0.866025 -0.5 0
    outer loop
      vertex 26.5842 11.836 15
      vertex 23.5424 17.1046 15
      vertex 26.5842 11.836 0
    endloop
  endfacet
  facet normal -0.866025 -0.5 0
    outer loop
      vertex 26.5842 11.836 0
      vertex 23.5424 17.1046 15
      vertex 23.5424 17.1046 0
    endloop
  endfacet
  facet normal -0.951057 -0.309017 0
    outer loop
      vertex 28.4641 6.05023 15
      vertex 26.5842 11.836 15
      vertex 28.4641 6.05023 0
    endloop
  endfacet
  facet normal -0.951057 -0.309017 0
    outer loop
      vertex 28.4641 6.05023 0
      vertex 26.5842 11.836 15
      vertex 26.5842 11.836 0
    endloop
  endfacet
  facet normal -0.994522 -0.104528 0
    outer loop
      vertex 29.1 0 15
      vertex 28.4641 6.05023 15
      vertex 29.1 0 0
    endloop
  endfacet
  facet normal -0.994522 -0.104528 0
    outer loop
      vertex 29.1 0 0
      vertex 28.4641 6.05023 15
      vertex 28.4641 6.05023 0
    endloop
  endfacet
  facet normal -0.994522 0.104528 0
    outer loop
      vertex 29.1 0 15
      vertex 29.1 0 0
      vertex 28.4641 -6.05023 15
    endloop
  endfacet
  facet normal -0.994522 0.104528 0
    outer loop
      vertex 28.4641 -6.05023 15
      vertex 29.1 0 0
      vertex 28.4641 -6.05023 0
    endloop
  endfacet
  facet normal -0.951057 0.309017 0
    outer loop
      vertex 28.4641 -6.05023 15
      vertex 28.4641 -6.05023 0
      vertex 26.5842 -11.836 15
    endloop
  endfacet
  facet normal -0.951057 0.309017 0
    outer loop
      vertex 26.5842 -11.836 15
      vertex 28.4641 -6.05023 0
      vertex 26.5842 -11.836 0
    endloop
  endfacet
  facet normal -0.866025 0.5 0
    outer loop
      vertex 26.5842 -11.836 15
      vertex 26.5842 -11.836 0
      vertex 23.5424 -17.1046 15
    endloop
  endfacet
  facet normal -0.866025 0.5 0
    outer loop
      vertex 23.5424 -17.1046 15
      vertex 26.5842 -11.836 0
      vertex 23.5424 -17.1046 0
    endloop
  endfacet
  facet normal -0.743145 0.669131 0
    outer loop
      vertex 23.5424 -17.1046 15
      vertex 23.5424 -17.1046 0
      vertex 19.4717 -21.6255 15
    endloop
  endfacet
  facet normal -0.743145 0.669131 0
    outer loop
      vertex 19.4717 -21.6255 15
      vertex 23.5424 -17.1046 0
      vertex 19.4717 -21.6255 0
    endloop
  endfacet
  facet normal -0.587785 0.809017 0
    outer loop
      vertex 19.4717 -21.6255 15
      vertex 19.4717 -21.6255 0
      vertex 14.55 -25.2013 15
    endloop
  endfacet
  facet normal -0.587785 0.809017 0
    outer loop
      vertex 14.55 -25.2013 15
      vertex 19.4717 -21.6255 0
      vertex 14.55 -25.2013 0
    endloop
  endfacet
  facet normal -0.406737 0.913545 0
    outer loop
      vertex 14.55 -25.2013 15
      vertex 14.55 -25.2013 0
      vertex 8.9924 -27.6757 15
    endloop
  endfacet
  facet normal -0.406737 0.913545 0
    outer loop
      vertex 8.9924 -27.6757 15
      vertex 14.55 -25.2013 0
      vertex 8.9924 -27.6757 0
    endloop
  endfacet
  facet normal -0.207912 0.978148 0
    outer loop
      vertex 8.9924 -27.6757 15
      vertex 8.9924 -27.6757 0
      vertex 3.04178 -28.9406 15
    endloop
  endfacet
  facet normal -0.207912 0.978148 0
    outer loop
      vertex 3.04178 -28.9406 15
      vertex 8.9924 -27.6757 0
      vertex 3.04178 -28.9406 0
    endloop
  endfacet
  facet normal 0 1 0
    outer loop
      vertex 3.04178 -28.9406 15
      vertex 3.04178 -28.9406 0
      vertex -3.04178 -28.9406 15
    endloop
  endfacet
  facet normal 0 1 0
    outer loop
      vertex -3.04178 -28.9406 15
      vertex 3.04178 -28.9406 0
      vertex -3.04178 -28.9406 0
    endloop
  endfacet
  facet normal 0.207912 0.978148 0
    outer loop
      vertex -3.04178 -28.9406 15
      vertex -3.04178 -28.9406 0
      vertex -8.9924 -27.6757 15
    endloop
  endfacet
  facet normal 0.207912 0.978148 0
    outer loop
      vertex -8.9924 -27.6757 15
      vertex -3.04178 -28.9406 0
      vertex -8.9924 -27.6757 0
    endloop
  endfacet
  facet normal 0.406737 0.913545 0
    outer loop
      vertex -8.9924 -27.6757 15
      vertex -8.9924 -27.6757 0
      vertex -14.55 -25.2013 15
    endloop
  endfacet
  facet normal 0.406737 0.913545 0
    outer loop
      vertex -14.55 -25.2013 15
      vertex -8.9924 -27.6757 0
      vertex -14.55 -25.2013 0
    endloop
  endfacet
  facet normal 0.587785 0.809017 0
    outer loop
      vertex -14.55 -25.2013 15
      vertex -14.55 -25.2013 0
      vertex -19.4717 -21.6255 15
    endloop
  endfacet
  facet normal 0.587785 0.809017 0
    outer loop
      vertex -19.4717 -21.6255 15
      vertex -14.55 -25.2013 0
      vertex -19.4717 -21.6255 0
    endloop
  endfacet
  facet normal 0.743145 0.669131 0
    outer loop
      vertex -23.5424 -17.1046 15
      vertex -19.4717 -21.6255 15
      vertex -19.4717 -21.6255 0
    endloop
  endfacet
  facet normal 0.743145 0.669131 0
    outer loop
      vertex -23.5424 -17.1046 0
      vertex -23.5424 -17.1046 15
      vertex -19.4717 -21.6255 0
    endloop
  endfacet
  facet normal 0.866025 0.5 0
    outer loop
      vertex -26.5842 -11.836 15
      vertex -23.5424 -17.1046 15
      vertex -23.5424 -17.1046 0
    endloop
  endfacet
  facet normal 0.866025 0.5 0
    outer loop
      vertex -26.5842 -11.836 0
      vertex -26.5842 -11.836 15
      vertex -23.5424 -17.1046 0
    endloop
  endfacet
  facet normal 0.951057 0.309017 0
    outer loop
      vertex -28.4641 -6.05023 15
      vertex -26.5842 -11.836 15
      vertex -26.5842 -11.836 0
    endloop
  endfacet
  facet normal 0.951057 0.309017 0
    outer loop
      vertex -28.4641 -6.05023 0
      vertex -28.4641 -6.05023 15
      vertex -26.5842 -11.836 0
    endloop
  endfacet
  facet normal 0 0 1
    outer loop
      vertex -31.3007 6.65317 15
      vertex -32 0 15
      vertex -31.3007 -6.65317 15
    endloop
  endfacet
  facet normal 0 0 1
    outer loop
      vertex -25.8885 -18.8091 15
      vertex -31.3007 6.65317 15
      vertex -29.2335 -13.0156 15
    endloop
  endfacet
  facet normal 0 0 1
    outer loop
      vertex -29.2335 -13.0156 15
      vertex -31.3007 6.65317 15
      vertex -31.3007 -6.65317 15
    endloop
  endfacet
  facet normal 0 0 1
    outer loop
      vertex -28.4641 -6.05023 15
      vertex -31.3007 6.65317 15
      vertex -25.8885 -18.8091 15
    endloop
  endfacet
  facet normal 0 0 1
    outer loop
      vertex -19.4717 21.6255 15
      vertex -14.55 25.2013 15
      vertex -9.88854 30.4338 15
    endloop
  endfacet
  facet normal 0 0 1
    outer loop
      vertex -8.9924 27.6757 15
      vertex -3.04178 28.9406 15
      vertex -3.34491 31.8247 15
    endloop
  endfacet
  facet normal 0 0 1
    outer loop
      vertex -21.4122 23.7806 15
      vertex -31.3007 6.65317 15
      vertex -16 27.7128 15
    endloop
  endfacet
  facet normal 0 0 1
    outer loop
      vertex -25.8885 18.8091 15
      vertex -31.3007 6.65317 15
      vertex -21.4122 23.7806 15
    endloop
  endfacet
  facet normal 0 0 1
    outer loop
      vertex -29.2335 13.0156 15
      vertex -31.3007 6.65317 15
      vertex -25.8885 18.8091 15
    endloop
  endfacet
  facet normal 0 0 1
    outer loop
      vertex -26.5842 -11.836 15
      vertex -28.4641 -6.05023 15
      vertex -25.8885 -18.8091 15
    endloop
  endfacet
  facet normal 0 0 1
    outer loop
      vertex 19.4717 -21.6255 15
      vertex 14.55 -25.2013 15
      vertex 21.4122 -23.7806 15
    endloop
  endfacet
  facet normal 0 0 1
    outer loop
      vertex 23.5424 -17.1046 15
      vertex 19.4717 -21.6255 15
      vertex 25.8885 -18.8091 15
    endloop
  endfacet
  facet normal 0 0 1
    outer loop
      vertex -3.04178 28.9406 15
      vertex 3.04178 28.9406 15
      vertex 3.34491 31.8247 15
    endloop
  endfacet
  facet normal 0 0 1
    outer loop
      vertex -14.55 -25.2013 15
      vertex -19.4717 -21.6255 15
      vertex -16 -27.7128 15
    endloop
  endfacet
  facet normal 0 0 1
    outer loop
      vertex -16 27.7128 15
      vertex -31.3007 6.65317 15
      vertex -23.5424 17.1046 15
    endloop
  endfacet
  facet normal 0 0 1
    outer loop
      vertex -16 27.7128 15
      vertex -19.4717 21.6255 15
      vertex -9.88854 30.4338 15
    endloop
  endfacet
  facet normal 0 0 1
    outer loop
      vertex -16 27.7128 15
      vertex -23.5424 17.1046 15
      vertex -19.4717 21.6255 15
    endloop
  endfacet
  facet normal 0 0 1
    outer loop
      vertex -9.88854 30.4338 15
      vertex -14.55 25.2013 15
      vertex -3.34491 31.8247 15
    endloop
  endfacet
  facet normal 0 0 1
    outer loop
      vertex -14.55 25.2013 15
      vertex -8.9924 27.6757 15
      vertex -3.34491 31.8247 15
    endloop
  endfacet
  facet normal 0 0 1
    outer loop
      vertex -3.34491 31.8247 15
      vertex -3.04178 28.9406 15
      vertex 3.34491 31.8247 15
    endloop
  endfacet
  facet normal 0 0 1
    outer loop
      vertex -26.5842 11.836 15
      vertex -23.5424 17.1046 15
      vertex -31.3007 6.65317 15
    endloop
  endfacet
  facet normal 0 0 1
    outer loop
      vertex 3.34491 31.8247 15
      vertex 3.04178 28.9406 15
      vertex 9.88854 30.4338 15
    endloop
  endfacet
  facet normal 0 0 1
    outer loop
      vertex 9.88854 30.4338 15
      vertex 8.9924 27.6757 15
      vertex 16 27.7128 15
    endloop
  endfacet
  facet normal 0 0 1
    outer loop
      vertex 16 27.7128 15
      vertex 14.55 25.2013 15
      vertex 21.4122 23.7806 15
    endloop
  endfacet
  facet normal 0 0 1
    outer loop
      vertex 21.4122 23.7806 15
      vertex 19.4717 21.6255 15
      vertex 25.8885 18.8091 15
    endloop
  endfacet
  facet normal 0 0 1
    outer loop
      vertex 25.8885 18.8091 15
      vertex 23.5424 17.1046 15
      vertex 29.2335 13.0156 15
    endloop
  endfacet
  facet normal 0 0 1
    outer loop
      vertex 29.2335 13.0156 15
      vertex 26.5842 11.836 15
      vertex 31.3007 6.65317 15
    endloop
  endfacet
  facet normal 0 0 1
    outer loop
      vertex 31.3007 6.65317 15
      vertex 28.4641 6.05023 15
      vertex 32 0 15
    endloop
  endfacet
  facet normal 0 0 1
    outer loop
      vertex 32 0 15
      vertex 29.1 0 15
      vertex 31.3007 -6.65317 15
    endloop
  endfacet
  facet normal 0 0 1
    outer loop
      vertex 29.1 0 15
      vertex 28.4641 -6.05023 15
      vertex 31.3007 -6.65317 15
    endloop
  endfacet
  facet normal 0 0 1
    outer loop
      vertex 31.3007 -6.65317 15
      vertex 26.5842 -11.836 15
      vertex 29.2335 -13.0156 15
    endloop
  endfacet
  facet normal 0 0 1
    outer loop
      vertex 29.2335 -13.0156 15
      vertex 23.5424 -17.1046 15
      vertex 25.8885 -18.8091 15
    endloop
  endfacet
  facet normal 0 0 1
    outer loop
      vertex 3.04178 28.9406 15
      vertex 8.9924 27.6757 15
      vertex 9.88854 30.4338 15
    endloop
  endfacet
  facet normal 0 0 1
    outer loop
      vertex 25.8885 -18.8091 15
      vertex 19.4717 -21.6255 15
      vertex 21.4122 -23.7806 15
    endloop
  endfacet
  facet normal 0 0 1
    outer loop
      vertex 8.9924 27.6757 15
      vertex 14.55 25.2013 15
      vertex 16 27.7128 15
    endloop
  endfacet
  facet normal 0 0 1
    outer loop
      vertex 21.4122 -23.7806 15
      vertex 14.55 -25.2013 15
      vertex 16 -27.7128 15
    endloop
  endfacet
  facet normal 0 0 1
    outer loop
      vertex 14.55 25.2013 15
      vertex 19.4717 21.6255 15
      vertex 21.4122 23.7806 15
    endloop
  endfacet
  facet normal 0 0 1
    outer loop
      vertex 16 -27.7128 15
      vertex 8.9924 -27.6757 15
      vertex 9.88854 -30.4338 15
    endloop
  endfacet
  facet normal 0 0 1
    outer loop
      vertex 19.4717 21.6255 15
      vertex 23.5424 17.1046 15
      vertex 25.8885 18.8091 15
    endloop
  endfacet
  facet normal 0 0 1
    outer loop
      vertex 9.88854 -30.4338 15
      vertex 3.04178 -28.9406 15
      vertex 3.34491 -31.8247 15
    endloop
  endfacet
  facet normal 0 0 1
    outer loop
      vertex 23.5424 17.1046 15
      vertex 26.5842 11.836 15
      vertex 29.2335 13.0156 15
    endloop
  endfacet
  facet normal 0 0 1
    outer loop
      vertex 3.34491 -31.8247 15
      vertex -3.04178 -28.9406 15
      vertex -3.34491 -31.8247 15
    endloop
  endfacet
  facet normal 0 0 1
    outer loop
      vertex 26.5842 11.836 15
      vertex 28.4641 6.05023 15
      vertex 31.3007 6.65317 15
    endloop
  endfacet
  facet normal 0 0 1
    outer loop
      vertex -3.34491 -31.8247 15
      vertex -8.9924 -27.6757 15
      vertex -9.88854 -30.4338 15
    endloop
  endfacet
  facet normal 0 0 1
    outer loop
      vertex 28.4641 6.05023 15
      vertex 29.1 0 15
      vertex 32 0 15
    endloop
  endfacet
  facet normal 0 0 1
    outer loop
      vertex -9.88854 -30.4338 15
      vertex -14.55 -25.2013 15
      vertex -16 -27.7128 15
    endloop
  endfacet
  facet normal 0 0 1
    outer loop
      vertex 28.4641 -6.05023 15
      vertex 26.5842 -11.836 15
      vertex 31.3007 -6.65317 15
    endloop
  endfacet
  facet normal 0 0 1
    outer loop
      vertex -16 -27.7128 15
      vertex -19.4717 -21.6255 15
      vertex -21.4122 -23.7806 15
    endloop
  endfacet
  facet normal 0 0 1
    outer loop
      vertex -19.4717 -21.6255 15
      vertex -23.5424 -17.1046 15
      vertex -21.4122 -23.7806 15
    endloop
  endfacet
  facet normal 0 0 1
    outer loop
      vertex -21.4122 -23.7806 15
      vertex -26.5842 -11.836 15
      vertex -25.8885 -18.8091 15
    endloop
  endfacet
  facet normal 0 0 1
    outer loop
      vertex -28.4641 -6.05023 15
      vertex -29.1 0 15
      vertex -31.3007 6.65317 15
    endloop
  endfacet
  facet normal 0 0 1
    outer loop
      vertex 14.55 -25.2013 15
      vertex 8.9924 -27.6757 15
      vertex 16 -27.7128 15
    endloop
  endfacet
  facet normal 0 0 1
    outer loop
      vertex 8.9924 -27.6757 15
      vertex 3.04178 -28.9406 15
      vertex 9.88854 -30.4338 15
    endloop
  endfacet
  facet normal 0 0 1
    outer loop
      vertex 3.04178 -28.9406 15
      vertex -3.04178 -28.9406 15
      vertex 3.34491 -31.8247 15
    endloop
  endfacet
  facet normal 0 0 1
    outer loop
      vertex -3.04178 -28.9406 15
      vertex -8.9924 -27.6757 15
      vertex -3.34491 -31.8247 15
    endloop
  endfacet
  facet normal 0 0 1
    outer loop
      vertex -8.9924 -27.6757 15
      vertex -14.55 -25.2013 15
      vertex -9.88854 -30.4338 15
    endloop
  endfacet
  facet normal 0 0 1
    outer loop
      vertex -23.5424 -17.1046 15
      vertex -26.5842 -11.836 15
      vertex -21.4122 -23.7806 15
    endloop
  endfacet
  facet normal 0 0 1
    outer loop
      vertex -29.1 0 15
      vertex -28.4641 6.05023 15
      vertex -31.3007 6.65317 15
    endloop
  endfacet
  facet normal 0 0 1
    outer loop
      vertex 26.5842 -11.836 15
      vertex 23.5424 -17.1046 15
      vertex 29.2335 -13.0156 15
    endloop
  endfacet
  facet normal 0 0 1
    outer loop
      vertex -28.4641 6.05023 15
      vertex -26.5842 11.836 15
      vertex -31.3007 6.65317 15
    endloop
  endfacet
endsolid OpenSCAD_Model
