solid OpenSCAD_Model
  facet normal -1 0 0
    outer loop
      vertex -46.5 -44.2489 4.69098
      vertex -46.5 -32.6 0
      vertex -46.5 -45.2 4
    endloop
  endfacet
  facet normal -1 0 0
    outer loop
      vertex -46.5 -45.7878 5.80902
      vertex -46.5 -57.6 10
      vertex -46.5 -32.6 10
    endloop
  endfacet
  facet normal -1 0 0
    outer loop
      vertex -46.5 -44.6122 5.80902
      vertex -46.5 -45.7878 5.80902
      vertex -46.5 -32.6 10
    endloop
  endfacet
  facet normal -1 0 0
    outer loop
      vertex -46.5 -57.6 0
      vertex -46.5 -57.6 10
      vertex -46.5 -46.1511 4.69098
    endloop
  endfacet
  facet normal -1 0 0
    outer loop
      vertex -46.5 -57.6 0
      vertex -46.5 -46.1511 4.69098
      vertex -46.5 -45.2 4
    endloop
  endfacet
  facet normal -1 0 0
    outer loop
      vertex -46.5 -57.6 0
      vertex -46.5 -45.2 4
      vertex -46.5 -32.6 0
    endloop
  endfacet
  facet normal -1 0 0
    outer loop
      vertex -46.5 -32.6 0
      vertex -46.5 -44.6122 5.80902
      vertex -46.5 -32.6 10
    endloop
  endfacet
  facet normal -1 0 0
    outer loop
      vertex -46.5 -46.1511 4.69098
      vertex -46.5 -57.6 10
      vertex -46.5 -45.7878 5.80902
    endloop
  endfacet
  facet normal -1 0 0
    outer loop
      vertex -46.5 -44.6122 5.80902
      vertex -46.5 -32.6 0
      vertex -46.5 -44.2489 4.69098
    endloop
  endfacet
  facet normal 0 -1 0
    outer loop
      vertex -39.191 -57.6 4.04894
      vertex -46.5 -57.6 0
      vertex 46.5 -57.6 0
    endloop
  endfacet
  facet normal 0 -1 0
    outer loop
      vertex 0.309017 -57.6 5.95106
      vertex 38.691 -57.6 5.58779
      vertex 46.5 -57.6 10
    endloop
  endfacet
  facet normal 0 -1 0
    outer loop
      vertex -46.5 -57.6 10
      vertex -46.5 -57.6 0
      vertex -40.309 -57.6 4.41222
    endloop
  endfacet
  facet normal 0 -1 0
    outer loop
      vertex -38.5 -57.6 5
      vertex -39.191 -57.6 4.04894
      vertex 46.5 -57.6 0
    endloop
  endfacet
  facet normal 0 -1 0
    outer loop
      vertex -46.5 -57.6 10
      vertex -40.309 -57.6 4.41222
      vertex -40.309 -57.6 5.58779
    endloop
  endfacet
  facet normal 0 -1 0
    outer loop
      vertex 0.309017 -57.6 4.04894
      vertex -39.191 -57.6 5.95106
      vertex 46.5 -57.6 0
    endloop
  endfacet
  facet normal 0 -1 0
    outer loop
      vertex -46.5 -57.6 10
      vertex -40.309 -57.6 5.58779
      vertex -39.191 -57.6 5.95106
    endloop
  endfacet
  facet normal 0 -1 0
    outer loop
      vertex 39.809 -57.6 5.95106
      vertex 40.5 -57.6 5
      vertex 46.5 -57.6 10
    endloop
  endfacet
  facet normal 0 -1 0
    outer loop
      vertex -40.309 -57.6 4.41222
      vertex -46.5 -57.6 0
      vertex -39.191 -57.6 4.04894
    endloop
  endfacet
  facet normal 0 -1 0
    outer loop
      vertex 0.309017 -57.6 5.95106
      vertex 38.691 -57.6 4.41222
      vertex 38.691 -57.6 5.58779
    endloop
  endfacet
  facet normal 0 -1 0
    outer loop
      vertex -46.5 -57.6 10
      vertex -39.191 -57.6 5.95106
      vertex -0.809017 -57.6 4.41222
    endloop
  endfacet
  facet normal 0 -1 0
    outer loop
      vertex 1 -57.6 5
      vertex 0.309017 -57.6 4.04894
      vertex 46.5 -57.6 0
    endloop
  endfacet
  facet normal 0 -1 0
    outer loop
      vertex 0.309017 -57.6 5.95106
      vertex -46.5 -57.6 10
      vertex -0.809017 -57.6 5.58779
    endloop
  endfacet
  facet normal 0 -1 0
    outer loop
      vertex 46.5 -57.6 10
      vertex -46.5 -57.6 10
      vertex 0.309017 -57.6 5.95106
    endloop
  endfacet
  facet normal 0 -1 0
    outer loop
      vertex -0.809017 -57.6 4.41222
      vertex -39.191 -57.6 5.95106
      vertex 0.309017 -57.6 4.04894
    endloop
  endfacet
  facet normal 0 -1 0
    outer loop
      vertex 39.809 -57.6 4.04894
      vertex 38.691 -57.6 4.41222
      vertex 46.5 -57.6 0
    endloop
  endfacet
  facet normal 0 -1 0
    outer loop
      vertex 46.5 -57.6 10
      vertex 38.691 -57.6 5.58779
      vertex 39.809 -57.6 5.95106
    endloop
  endfacet
  facet normal 0 -1 0
    outer loop
      vertex 46.5 -57.6 10
      vertex 40.5 -57.6 5
      vertex 46.5 -57.6 0
    endloop
  endfacet
  facet normal 0 -1 0
    outer loop
      vertex 40.5 -57.6 5
      vertex 39.809 -57.6 4.04894
      vertex 46.5 -57.6 0
    endloop
  endfacet
  facet normal 0 -1 0
    outer loop
      vertex -39.191 -57.6 5.95106
      vertex -38.5 -57.6 5
      vertex 46.5 -57.6 0
    endloop
  endfacet
  facet normal 0 -1 0
    outer loop
      vertex -0.809017 -57.6 4.41222
      vertex -0.809017 -57.6 5.58779
      vertex -46.5 -57.6 10
    endloop
  endfacet
  facet normal 0 -1 0
    outer loop
      vertex 0.309017 -57.6 5.95106
      vertex 46.5 -57.6 0
      vertex 38.691 -57.6 4.41222
    endloop
  endfacet
  facet normal 0 -1 0
    outer loop
      vertex 0.309017 -57.6 5.95106
      vertex 1 -57.6 5
      vertex 46.5 -57.6 0
    endloop
  endfacet
  facet normal 0 0 -1
    outer loop
      vertex 42 -54.9 0
      vertex 46.5 -57.6 0
      vertex -18 -54.9 0
    endloop
  endfacet
  facet normal 0 0 -1
    outer loop
      vertex -18 -35.9 0
      vertex -35.2 -32.6 0
      vertex -35.2 32.7 0
    endloop
  endfacet
  facet normal 0 0 -1
    outer loop
      vertex 35.2 -32.6 0
      vertex -35.2 32.7 0
      vertex 35.2 32.7 0
    endloop
  endfacet
  facet normal 0 0 -1
    outer loop
      vertex 42 -35.9 0
      vertex 46.5 -57.6 0
      vertex 42 -54.9 0
    endloop
  endfacet
  facet normal 0 0 -1
    outer loop
      vertex -18 -35.9 0
      vertex -35.2 32.7 0
      vertex 35.2 -32.6 0
    endloop
  endfacet
  facet normal 0 0 -1
    outer loop
      vertex -18 -54.9 0
      vertex -46.5 -32.6 0
      vertex -35.2 -32.6 0
    endloop
  endfacet
  facet normal 0 0 -1
    outer loop
      vertex -46.5 -57.6 0
      vertex -46.5 -32.6 0
      vertex -18 -54.9 0
    endloop
  endfacet
  facet normal 0 0 -1
    outer loop
      vertex -46.5 -57.6 0
      vertex -18 -54.9 0
      vertex 46.5 -57.6 0
    endloop
  endfacet
  facet normal 0 0 -1
    outer loop
      vertex -18 -54.9 0
      vertex -35.2 -32.6 0
      vertex -18 -35.9 0
    endloop
  endfacet
  facet normal 0 0 -1
    outer loop
      vertex -18 -35.9 0
      vertex 35.2 -32.6 0
      vertex 42 -35.9 0
    endloop
  endfacet
  facet normal 0 0 -1
    outer loop
      vertex 46.5 -32.6 0
      vertex 46.5 -57.6 0
      vertex 42 -35.9 0
    endloop
  endfacet
  facet normal 0 0 -1
    outer loop
      vertex 46.5 -32.6 0
      vertex 42 -35.9 0
      vertex 35.2 -32.6 0
    endloop
  endfacet
  facet normal 0 1 0
    outer loop
      vertex -38.5 -32.6 5
      vertex -35.2 -32.6 0
      vertex -39.191 -32.6 4.04894
    endloop
  endfacet
  facet normal 0 1 0
    outer loop
      vertex -40.309 -32.6 5.58779
      vertex -46.5 -32.6 10
      vertex -35.2 -32.6 10
    endloop
  endfacet
  facet normal 0 1 0
    outer loop
      vertex -39.191 -32.6 5.95106
      vertex -40.309 -32.6 5.58779
      vertex -35.2 -32.6 10
    endloop
  endfacet
  facet normal 0 1 0
    outer loop
      vertex -46.5 -32.6 0
      vertex -46.5 -32.6 10
      vertex -40.309 -32.6 4.41221
    endloop
  endfacet
  facet normal 0 1 0
    outer loop
      vertex -46.5 -32.6 0
      vertex -40.309 -32.6 4.41221
      vertex -35.2 -32.6 0
    endloop
  endfacet
  facet normal 0 1 0
    outer loop
      vertex -35.2 -32.6 0
      vertex -38.5 -32.6 5
      vertex -35.2 -32.6 10
    endloop
  endfacet
  facet normal 0 1 0
    outer loop
      vertex -38.5 -32.6 5
      vertex -39.191 -32.6 5.95106
      vertex -35.2 -32.6 10
    endloop
  endfacet
  facet normal 0 1 0
    outer loop
      vertex -40.309 -32.6 4.41221
      vertex -46.5 -32.6 10
      vertex -40.309 -32.6 5.58779
    endloop
  endfacet
  facet normal 0 1 0
    outer loop
      vertex -39.191 -32.6 4.04894
      vertex -35.2 -32.6 0
      vertex -40.309 -32.6 4.41221
    endloop
  endfacet
  facet normal 0 0 1
    outer loop
      vertex -44.5 -55.6 10
      vertex -46.5 -57.6 10
      vertex 46.5 -57.6 10
    endloop
  endfacet
  facet normal 0 0 1
    outer loop
      vertex -44.5 -34.6 10
      vertex 35.2 -32.6 10
      vertex -35.2 -32.6 10
    endloop
  endfacet
  facet normal 0 0 1
    outer loop
      vertex 3.15676 -30.0346 10
      vertex -35.2 -32.6 10
      vertex 35.2 -32.6 10
    endloop
  endfacet
  facet normal 0 0 1
    outer loop
      vertex -44.5 -34.6 10
      vertex -35.2 -32.6 10
      vertex -46.5 -32.6 10
    endloop
  endfacet
  facet normal 0 0 1
    outer loop
      vertex 44.5 -34.6 10
      vertex 44.5 -55.6 10
      vertex 46.5 -57.6 10
    endloop
  endfacet
  facet normal 0 0 1
    outer loop
      vertex -46.5 -32.6 10
      vertex -46.5 -57.6 10
      vertex -44.5 -55.6 10
    endloop
  endfacet
  facet normal 0 0 1
    outer loop
      vertex -46.5 -32.6 10
      vertex -44.5 -55.6 10
      vertex -44.5 -34.6 10
    endloop
  endfacet
  facet normal 0 0 1
    outer loop
      vertex 46.5 -32.6 10
      vertex 44.5 -34.6 10
      vertex 46.5 -57.6 10
    endloop
  endfacet
  facet normal 0 0 1
    outer loop
      vertex 46.5 -32.6 10
      vertex 35.2 -32.6 10
      vertex 44.5 -34.6 10
    endloop
  endfacet
  facet normal 0 0 1
    outer loop
      vertex 3.15676 30.0346 10
      vertex 9.33231 28.7219 10
      vertex 35.2 32.7 10
    endloop
  endfacet
  facet normal 0 0 1
    outer loop
      vertex -44.5 -34.6 10
      vertex 44.5 -34.6 10
      vertex 35.2 -32.6 10
    endloop
  endfacet
  facet normal 0 0 1
    outer loop
      vertex -30.2 0 10
      vertex -35.2 32.7 10
      vertex -29.5401 -6.27893 10
    endloop
  endfacet
  facet normal 0 0 1
    outer loop
      vertex -29.5401 6.27893 10
      vertex -35.2 32.7 10
      vertex -30.2 0 10
    endloop
  endfacet
  facet normal 0 0 1
    outer loop
      vertex -27.5891 12.2834 10
      vertex -35.2 32.7 10
      vertex -29.5401 6.27893 10
    endloop
  endfacet
  facet normal 0 0 1
    outer loop
      vertex -24.4323 17.7511 10
      vertex -35.2 32.7 10
      vertex -27.5891 12.2834 10
    endloop
  endfacet
  facet normal 0 0 1
    outer loop
      vertex -20.2077 22.443 10
      vertex -35.2 32.7 10
      vertex -24.4323 17.7511 10
    endloop
  endfacet
  facet normal 0 0 1
    outer loop
      vertex -15.1 26.154 10
      vertex -35.2 32.7 10
      vertex -20.2077 22.443 10
    endloop
  endfacet
  facet normal 0 0 1
    outer loop
      vertex -9.33231 28.7219 10
      vertex -35.2 32.7 10
      vertex -15.1 26.154 10
    endloop
  endfacet
  facet normal 0 0 1
    outer loop
      vertex -3.15676 30.0346 10
      vertex -35.2 32.7 10
      vertex -9.33231 28.7219 10
    endloop
  endfacet
  facet normal 0 0 1
    outer loop
      vertex 35.2 32.7 10
      vertex -35.2 32.7 10
      vertex -3.15676 30.0346 10
    endloop
  endfacet
  facet normal 0 0 1
    outer loop
      vertex 35.2 32.7 10
      vertex -3.15676 30.0346 10
      vertex 3.15676 30.0346 10
    endloop
  endfacet
  facet normal 0 0 1
    outer loop
      vertex 15.1 26.154 10
      vertex 20.2077 22.443 10
      vertex 35.2 32.7 10
    endloop
  endfacet
  facet normal 0 0 1
    outer loop
      vertex 20.2077 22.443 10
      vertex 24.4323 17.7511 10
      vertex 35.2 32.7 10
    endloop
  endfacet
  facet normal 0 0 1
    outer loop
      vertex 9.33231 28.7219 10
      vertex 15.1 26.154 10
      vertex 35.2 32.7 10
    endloop
  endfacet
  facet normal 0 0 1
    outer loop
      vertex -3.15676 -30.0346 10
      vertex -9.33231 -28.7219 10
      vertex -35.2 -32.6 10
    endloop
  endfacet
  facet normal 0 0 1
    outer loop
      vertex 35.2 32.7 10
      vertex 24.4323 17.7511 10
      vertex 27.5891 12.2834 10
    endloop
  endfacet
  facet normal 0 0 1
    outer loop
      vertex 35.2 32.7 10
      vertex 29.5401 6.27893 10
      vertex 35.2 -32.6 10
    endloop
  endfacet
  facet normal 0 0 1
    outer loop
      vertex 35.2 32.7 10
      vertex 27.5891 12.2834 10
      vertex 29.5401 6.27893 10
    endloop
  endfacet
  facet normal 0 0 1
    outer loop
      vertex 29.5401 6.27893 10
      vertex 30.2 0 10
      vertex 35.2 -32.6 10
    endloop
  endfacet
  facet normal 0 0 1
    outer loop
      vertex 29.5401 -6.27893 10
      vertex 27.5891 -12.2834 10
      vertex 35.2 -32.6 10
    endloop
  endfacet
  facet normal 0 0 1
    outer loop
      vertex -20.2077 -22.443 10
      vertex -24.4323 -17.7511 10
      vertex -35.2 -32.6 10
    endloop
  endfacet
  facet normal 0 0 1
    outer loop
      vertex 27.5891 -12.2834 10
      vertex 24.4323 -17.7511 10
      vertex 35.2 -32.6 10
    endloop
  endfacet
  facet normal 0 0 1
    outer loop
      vertex 24.4323 -17.7511 10
      vertex 20.2077 -22.443 10
      vertex 35.2 -32.6 10
    endloop
  endfacet
  facet normal 0 0 1
    outer loop
      vertex 20.2077 -22.443 10
      vertex 15.1 -26.154 10
      vertex 35.2 -32.6 10
    endloop
  endfacet
  facet normal 0 0 1
    outer loop
      vertex 15.1 -26.154 10
      vertex 9.33231 -28.7219 10
      vertex 35.2 -32.6 10
    endloop
  endfacet
  facet normal 0 0 1
    outer loop
      vertex 9.33231 -28.7219 10
      vertex 3.15676 -30.0346 10
      vertex 35.2 -32.6 10
    endloop
  endfacet
  facet normal 0 0 1
    outer loop
      vertex -3.15676 -30.0346 10
      vertex -35.2 -32.6 10
      vertex 3.15676 -30.0346 10
    endloop
  endfacet
  facet normal 0 0 1
    outer loop
      vertex -9.33231 -28.7219 10
      vertex -15.1 -26.154 10
      vertex -35.2 -32.6 10
    endloop
  endfacet
  facet normal 0 0 1
    outer loop
      vertex -15.1 -26.154 10
      vertex -20.2077 -22.443 10
      vertex -35.2 -32.6 10
    endloop
  endfacet
  facet normal 0 0 1
    outer loop
      vertex 44.5 -55.6 10
      vertex -44.5 -55.6 10
      vertex 46.5 -57.6 10
    endloop
  endfacet
  facet normal 0 0 1
    outer loop
      vertex 30.2 0 10
      vertex 29.5401 -6.27893 10
      vertex 35.2 -32.6 10
    endloop
  endfacet
  facet normal 0 0 1
    outer loop
      vertex -27.5891 -12.2834 10
      vertex -35.2 -32.6 10
      vertex -24.4323 -17.7511 10
    endloop
  endfacet
  facet normal 0 0 1
    outer loop
      vertex -29.5401 -6.27893 10
      vertex -35.2 -32.6 10
      vertex -27.5891 -12.2834 10
    endloop
  endfacet
  facet normal 0 0 1
    outer loop
      vertex -35.2 32.7 10
      vertex -35.2 -32.6 10
      vertex -29.5401 -6.27893 10
    endloop
  endfacet
  facet normal 2.22045e-16 0 -1
    outer loop
      vertex -44.5 -44.6122 5.80902
      vertex -44.5 -45.7878 5.80902
      vertex -46.5 -44.6122 5.80902
    endloop
  endfacet
  facet normal 2.22045e-16 0 -1
    outer loop
      vertex -46.5 -44.6122 5.80902
      vertex -44.5 -45.7878 5.80902
      vertex -46.5 -45.7878 5.80902
    endloop
  endfacet
  facet normal 6.86157e-17 0.951056 -0.309018
    outer loop
      vertex -44.5 -45.7878 5.80902
      vertex -44.5 -46.1511 4.69098
      vertex -46.5 -45.7878 5.80902
    endloop
  endfacet
  facet normal 6.86157e-17 0.951056 -0.309018
    outer loop
      vertex -46.5 -45.7878 5.80902
      vertex -44.5 -46.1511 4.69098
      vertex -46.5 -46.1511 4.69098
    endloop
  endfacet
  facet normal 6.86157e-17 -0.951056 -0.309018
    outer loop
      vertex -46.5 -44.2489 4.69098
      vertex -44.5 -44.2489 4.69098
      vertex -44.5 -44.6122 5.80902
    endloop
  endfacet
  facet normal 6.86157e-17 -0.951056 -0.309018
    outer loop
      vertex -46.5 -44.6122 5.80902
      vertex -46.5 -44.2489 4.69098
      vertex -44.5 -44.6122 5.80902
    endloop
  endfacet
  facet normal -1.79638e-16 -0.587785 0.809017
    outer loop
      vertex -44.5 -45.2 4
      vertex -44.5 -44.2489 4.69098
      vertex -46.5 -44.2489 4.69098
    endloop
  endfacet
  facet normal -1.79638e-16 -0.587785 0.809017
    outer loop
      vertex -46.5 -45.2 4
      vertex -44.5 -45.2 4
      vertex -46.5 -44.2489 4.69098
    endloop
  endfacet
  facet normal -1.79638e-16 0.587785 0.809017
    outer loop
      vertex -44.5 -46.1511 4.69098
      vertex -44.5 -45.2 4
      vertex -46.5 -45.2 4
    endloop
  endfacet
  facet normal -1.79638e-16 0.587785 0.809017
    outer loop
      vertex -46.5 -46.1511 4.69098
      vertex -44.5 -46.1511 4.69098
      vertex -46.5 -45.2 4
    endloop
  endfacet
  facet normal 1 0 0
    outer loop
      vertex 46.5 -45.2 4
      vertex 46.5 -57.6 0
      vertex 46.5 -32.6 0
    endloop
  endfacet
  facet normal 1 0 0
    outer loop
      vertex 46.5 -44.6122 5.80902
      vertex 46.5 -44.2489 4.69098
      vertex 46.5 -32.6 0
    endloop
  endfacet
  facet normal 1 0 0
    outer loop
      vertex 46.5 -57.6 10
      vertex 46.5 -57.6 0
      vertex 46.5 -46.1511 4.69098
    endloop
  endfacet
  facet normal 1 0 0
    outer loop
      vertex 46.5 -44.2489 4.69098
      vertex 46.5 -45.2 4
      vertex 46.5 -32.6 0
    endloop
  endfacet
  facet normal 1 0 0
    outer loop
      vertex 46.5 -32.6 10
      vertex 46.5 -57.6 10
      vertex 46.5 -45.7878 5.80902
    endloop
  endfacet
  facet normal 1 0 0
    outer loop
      vertex 46.5 -32.6 10
      vertex 46.5 -44.6122 5.80902
      vertex 46.5 -32.6 0
    endloop
  endfacet
  facet normal 1 0 0
    outer loop
      vertex 46.5 -32.6 10
      vertex 46.5 -45.7878 5.80902
      vertex 46.5 -44.6122 5.80902
    endloop
  endfacet
  facet normal 1 0 0
    outer loop
      vertex 46.5 -46.1511 4.69098
      vertex 46.5 -57.6 0
      vertex 46.5 -45.2 4
    endloop
  endfacet
  facet normal 1 0 0
    outer loop
      vertex 46.5 -46.1511 4.69098
      vertex 46.5 -45.7878 5.80902
      vertex 46.5 -57.6 10
    endloop
  endfacet
  facet normal 1 0 0
    outer loop
      vertex -40.309 -55.6 4.41222
      vertex -40.309 -55.6 5.58779
      vertex -40.309 -57.6 5.58779
    endloop
  endfacet
  facet normal 1 0 0
    outer loop
      vertex -40.309 -57.6 4.41222
      vertex -40.309 -55.6 4.41222
      vertex -40.309 -57.6 5.58779
    endloop
  endfacet
  facet normal 0.309018 2.11177e-16 0.951056
    outer loop
      vertex -39.191 -57.6 4.04894
      vertex -39.191 -55.6 4.04894
      vertex -40.309 -55.6 4.41222
    endloop
  endfacet
  facet normal 0.309018 2.11177e-16 0.951056
    outer loop
      vertex -40.309 -57.6 4.41222
      vertex -39.191 -57.6 4.04894
      vertex -40.309 -55.6 4.41222
    endloop
  endfacet
  facet normal -0.809017 1.30514e-16 0.587785
    outer loop
      vertex -38.5 -55.6 5
      vertex -39.191 -55.6 4.04894
      vertex -38.5 -57.6 5
    endloop
  endfacet
  facet normal -0.809017 1.30514e-16 0.587785
    outer loop
      vertex -38.5 -57.6 5
      vertex -39.191 -55.6 4.04894
      vertex -39.191 -57.6 4.04894
    endloop
  endfacet
  facet normal -0.809017 -1.30514e-16 -0.587785
    outer loop
      vertex -38.5 -55.6 5
      vertex -38.5 -57.6 5
      vertex -39.191 -55.6 5.95106
    endloop
  endfacet
  facet normal -0.809017 -1.30514e-16 -0.587785
    outer loop
      vertex -39.191 -55.6 5.95106
      vertex -38.5 -57.6 5
      vertex -39.191 -57.6 5.95106
    endloop
  endfacet
  facet normal 0.309018 -2.11177e-16 -0.951056
    outer loop
      vertex -39.191 -55.6 5.95106
      vertex -39.191 -57.6 5.95106
      vertex -40.309 -55.6 5.58779
    endloop
  endfacet
  facet normal 0.309018 -2.11177e-16 -0.951056
    outer loop
      vertex -40.309 -55.6 5.58779
      vertex -39.191 -57.6 5.95106
      vertex -40.309 -57.6 5.58779
    endloop
  endfacet
  facet normal 1 0 0
    outer loop
      vertex -0.809017 -55.6 4.41222
      vertex -0.809017 -55.6 5.58779
      vertex -0.809017 -57.6 5.58779
    endloop
  endfacet
  facet normal 1 0 0
    outer loop
      vertex -0.809017 -57.6 4.41222
      vertex -0.809017 -55.6 4.41222
      vertex -0.809017 -57.6 5.58779
    endloop
  endfacet
  facet normal 0.309018 2.11177e-16 0.951056
    outer loop
      vertex 0.309017 -57.6 4.04894
      vertex 0.309017 -55.6 4.04894
      vertex -0.809017 -55.6 4.41222
    endloop
  endfacet
  facet normal 0.309018 2.11177e-16 0.951056
    outer loop
      vertex -0.809017 -57.6 4.41222
      vertex 0.309017 -57.6 4.04894
      vertex -0.809017 -55.6 4.41222
    endloop
  endfacet
  facet normal -0.809017 1.30514e-16 0.587785
    outer loop
      vertex 1 -55.6 5
      vertex 0.309017 -55.6 4.04894
      vertex 1 -57.6 5
    endloop
  endfacet
  facet normal -0.809017 1.30514e-16 0.587785
    outer loop
      vertex 1 -57.6 5
      vertex 0.309017 -55.6 4.04894
      vertex 0.309017 -57.6 4.04894
    endloop
  endfacet
  facet normal -0.809017 -1.30514e-16 -0.587785
    outer loop
      vertex 1 -55.6 5
      vertex 1 -57.6 5
      vertex 0.309017 -55.6 5.95106
    endloop
  endfacet
  facet normal -0.809017 -1.30514e-16 -0.587785
    outer loop
      vertex 0.309017 -55.6 5.95106
      vertex 1 -57.6 5
      vertex 0.309017 -57.6 5.95106
    endloop
  endfacet
  facet normal 0.309018 -2.11177e-16 -0.951056
    outer loop
      vertex 0.309017 -55.6 5.95106
      vertex 0.309017 -57.6 5.95106
      vertex -0.809017 -55.6 5.58779
    endloop
  endfacet
  facet normal 0.309018 -2.11177e-16 -0.951056
    outer loop
      vertex -0.809017 -55.6 5.58779
      vertex 0.309017 -57.6 5.95106
      vertex -0.809017 -57.6 5.58779
    endloop
  endfacet
  facet normal 1 0 0
    outer loop
      vertex 38.691 -55.6 4.41222
      vertex 38.691 -55.6 5.58779
      vertex 38.691 -57.6 5.58779
    endloop
  endfacet
  facet normal 1 0 0
    outer loop
      vertex 38.691 -57.6 4.41222
      vertex 38.691 -55.6 4.41222
      vertex 38.691 -57.6 5.58779
    endloop
  endfacet
  facet normal 0.309018 2.11177e-16 0.951056
    outer loop
      vertex 39.809 -57.6 4.04894
      vertex 39.809 -55.6 4.04894
      vertex 38.691 -55.6 4.41222
    endloop
  endfacet
  facet normal 0.309018 2.11177e-16 0.951056
    outer loop
      vertex 38.691 -57.6 4.41222
      vertex 39.809 -57.6 4.04894
      vertex 38.691 -55.6 4.41222
    endloop
  endfacet
  facet normal -0.809017 1.30514e-16 0.587785
    outer loop
      vertex 40.5 -55.6 5
      vertex 39.809 -55.6 4.04894
      vertex 40.5 -57.6 5
    endloop
  endfacet
  facet normal -0.809017 1.30514e-16 0.587785
    outer loop
      vertex 40.5 -57.6 5
      vertex 39.809 -55.6 4.04894
      vertex 39.809 -57.6 4.04894
    endloop
  endfacet
  facet normal -0.809017 -1.30514e-16 -0.587785
    outer loop
      vertex 40.5 -55.6 5
      vertex 40.5 -57.6 5
      vertex 39.809 -55.6 5.95106
    endloop
  endfacet
  facet normal -0.809017 -1.30514e-16 -0.587785
    outer loop
      vertex 39.809 -55.6 5.95106
      vertex 40.5 -57.6 5
      vertex 39.809 -57.6 5.95106
    endloop
  endfacet
  facet normal 0.309018 -2.11177e-16 -0.951056
    outer loop
      vertex 39.809 -55.6 5.95106
      vertex 39.809 -57.6 5.95106
      vertex 38.691 -55.6 5.58779
    endloop
  endfacet
  facet normal 0.309018 -2.11177e-16 -0.951056
    outer loop
      vertex 38.691 -55.6 5.58779
      vertex 39.809 -57.6 5.95106
      vertex 38.691 -57.6 5.58779
    endloop
  endfacet
  facet normal 0 1 0
    outer loop
      vertex 39.809 -32.6 5.95106
      vertex 35.2 -32.6 10
      vertex 46.5 -32.6 10
    endloop
  endfacet
  facet normal 0 1 0
    outer loop
      vertex 35.2 -32.6 0
      vertex 35.2 -32.6 10
      vertex 38.691 -32.6 5.58779
    endloop
  endfacet
  facet normal 0 1 0
    outer loop
      vertex 35.2 -32.6 0
      vertex 38.691 -32.6 5.58779
      vertex 38.691 -32.6 4.41221
    endloop
  endfacet
  facet normal 0 1 0
    outer loop
      vertex 35.2 -32.6 0
      vertex 38.691 -32.6 4.41221
      vertex 46.5 -32.6 0
    endloop
  endfacet
  facet normal 0 1 0
    outer loop
      vertex 38.691 -32.6 4.41221
      vertex 39.809 -32.6 4.04894
      vertex 46.5 -32.6 0
    endloop
  endfacet
  facet normal 0 1 0
    outer loop
      vertex 40.5 -32.6 5
      vertex 46.5 -32.6 0
      vertex 39.809 -32.6 4.04894
    endloop
  endfacet
  facet normal 0 1 0
    outer loop
      vertex 46.5 -32.6 0
      vertex 39.809 -32.6 5.95106
      vertex 46.5 -32.6 10
    endloop
  endfacet
  facet normal 0 1 0
    outer loop
      vertex 38.691 -32.6 5.58779
      vertex 35.2 -32.6 10
      vertex 39.809 -32.6 5.95106
    endloop
  endfacet
  facet normal 0 1 0
    outer loop
      vertex 39.809 -32.6 5.95106
      vertex 46.5 -32.6 0
      vertex 40.5 -32.6 5
    endloop
  endfacet
  facet normal 1 0 0
    outer loop
      vertex 35.2 -32.6 10
      vertex 35.2 -32.6 0
      vertex 35.2 32.7 0
    endloop
  endfacet
  facet normal 1 0 0
    outer loop
      vertex 35.2 32.7 10
      vertex 35.2 -32.6 10
      vertex 35.2 32.7 0
    endloop
  endfacet
  facet normal 0 1 0
    outer loop
      vertex -35.2 32.7 0
      vertex -35.2 32.7 10
      vertex 35.2 32.7 0
    endloop
  endfacet
  facet normal 0 1 0
    outer loop
      vertex 35.2 32.7 0
      vertex -35.2 32.7 10
      vertex 35.2 32.7 10
    endloop
  endfacet
  facet normal -1 0 0
    outer loop
      vertex -35.2 -32.6 0
      vertex -35.2 -32.6 10
      vertex -35.2 32.7 0
    endloop
  endfacet
  facet normal -1 0 0
    outer loop
      vertex -35.2 32.7 0
      vertex -35.2 -32.6 10
      vertex -35.2 32.7 10
    endloop
  endfacet
  facet normal 1 0 0
    outer loop
      vertex -18 -35.9 0
      vertex -18 -35.9 2.1
      vertex -18 -54.9 2.1
    endloop
  endfacet
  facet normal 1 0 0
    outer loop
      vertex -18 -54.9 0
      vertex -18 -35.9 0
      vertex -18 -54.9 2.1
    endloop
  endfacet
  facet normal 0 -1 0
    outer loop
      vertex 42 -35.9 0
      vertex 42 -35.9 2.1
      vertex -18 -35.9 2.1
    endloop
  endfacet
  facet normal 0 -1 0
    outer loop
      vertex -18 -35.9 0
      vertex 42 -35.9 0
      vertex -18 -35.9 2.1
    endloop
  endfacet
  facet normal -1 0 0
    outer loop
      vertex 42 -35.9 2.1
      vertex 42 -35.9 0
      vertex 42 -54.9 2.1
    endloop
  endfacet
  facet normal -1 0 0
    outer loop
      vertex 42 -54.9 2.1
      vertex 42 -35.9 0
      vertex 42 -54.9 0
    endloop
  endfacet
  facet normal 0 1 0
    outer loop
      vertex 42 -54.9 2.1
      vertex 42 -54.9 0
      vertex -18 -54.9 2.1
    endloop
  endfacet
  facet normal 0 1 0
    outer loop
      vertex -18 -54.9 2.1
      vertex 42 -54.9 0
      vertex -18 -54.9 0
    endloop
  endfacet
  facet normal 0.309018 -2.11177e-16 -0.951056
    outer loop
      vertex -39.191 -32.6 5.95106
      vertex -39.191 -34.6 5.95106
      vertex -40.309 -32.6 5.58779
    endloop
  endfacet
  facet normal 0.309018 -2.11177e-16 -0.951056
    outer loop
      vertex -40.309 -32.6 5.58779
      vertex -39.191 -34.6 5.95106
      vertex -40.309 -34.6 5.58779
    endloop
  endfacet
  facet normal 1 0 0
    outer loop
      vertex -40.309 -32.6 4.41221
      vertex -40.309 -32.6 5.58779
      vertex -40.309 -34.6 5.58779
    endloop
  endfacet
  facet normal 1 0 0
    outer loop
      vertex -40.309 -34.6 4.41222
      vertex -40.309 -32.6 4.41221
      vertex -40.309 -34.6 5.58779
    endloop
  endfacet
  facet normal -0.809017 -1.30514e-16 -0.587785
    outer loop
      vertex -38.5 -32.6 5
      vertex -38.5 -34.6 5
      vertex -39.191 -32.6 5.95106
    endloop
  endfacet
  facet normal -0.809017 -1.30514e-16 -0.587785
    outer loop
      vertex -39.191 -32.6 5.95106
      vertex -38.5 -34.6 5
      vertex -39.191 -34.6 5.95106
    endloop
  endfacet
  facet normal -0.809017 1.30514e-16 0.587785
    outer loop
      vertex -38.5 -32.6 5
      vertex -39.191 -32.6 4.04894
      vertex -38.5 -34.6 5
    endloop
  endfacet
  facet normal -0.809017 1.30514e-16 0.587785
    outer loop
      vertex -38.5 -34.6 5
      vertex -39.191 -32.6 4.04894
      vertex -39.191 -34.6 4.04894
    endloop
  endfacet
  facet normal 0.309018 2.11177e-16 0.951056
    outer loop
      vertex -39.191 -34.6 4.04894
      vertex -39.191 -32.6 4.04894
      vertex -40.309 -32.6 4.41221
    endloop
  endfacet
  facet normal 0.309018 2.11177e-16 0.951056
    outer loop
      vertex -40.309 -34.6 4.41222
      vertex -39.191 -34.6 4.04894
      vertex -40.309 -32.6 4.41221
    endloop
  endfacet
  facet normal 1 0 0
    outer loop
      vertex -44.5 -34.6 2.1
      vertex -44.5 -34.6 10
      vertex -44.5 -55.6 10
    endloop
  endfacet
  facet normal 1 0 0
    outer loop
      vertex -44.5 -44.6122 5.80902
      vertex -44.5 -34.6 2.1
      vertex -44.5 -55.6 10
    endloop
  endfacet
  facet normal 1 0 0
    outer loop
      vertex -44.5 -55.6 2.1
      vertex -44.5 -45.7878 5.80902
      vertex -44.5 -55.6 10
    endloop
  endfacet
  facet normal 1 0 0
    outer loop
      vertex -44.5 -45.7878 5.80902
      vertex -44.5 -44.6122 5.80902
      vertex -44.5 -55.6 10
    endloop
  endfacet
  facet normal 1 0 0
    outer loop
      vertex -44.5 -45.2 4
      vertex -44.5 -46.1511 4.69098
      vertex -44.5 -55.6 2.1
    endloop
  endfacet
  facet normal 1 0 0
    outer loop
      vertex -44.5 -45.2 4
      vertex -44.5 -34.6 2.1
      vertex -44.5 -44.2489 4.69098
    endloop
  endfacet
  facet normal 1 0 0
    outer loop
      vertex -44.5 -55.6 2.1
      vertex -44.5 -34.6 2.1
      vertex -44.5 -45.2 4
    endloop
  endfacet
  facet normal 1 0 0
    outer loop
      vertex -44.5 -55.6 2.1
      vertex -44.5 -46.1511 4.69098
      vertex -44.5 -45.7878 5.80902
    endloop
  endfacet
  facet normal 1 0 0
    outer loop
      vertex -44.5 -44.6122 5.80902
      vertex -44.5 -44.2489 4.69098
      vertex -44.5 -34.6 2.1
    endloop
  endfacet
  facet normal 0 1 0
    outer loop
      vertex 38.691 -55.6 4.41222
      vertex 44.5 -55.6 2.1
      vertex -44.5 -55.6 10
    endloop
  endfacet
  facet normal 0 1 0
    outer loop
      vertex -39.191 -55.6 4.04894
      vertex 44.5 -55.6 2.1
      vertex -44.5 -55.6 2.1
    endloop
  endfacet
  facet normal 0 1 0
    outer loop
      vertex -40.309 -55.6 5.58779
      vertex -44.5 -55.6 10
      vertex -39.191 -55.6 5.95106
    endloop
  endfacet
  facet normal 0 1 0
    outer loop
      vertex -44.5 -55.6 10
      vertex -40.309 -55.6 4.41222
      vertex -44.5 -55.6 2.1
    endloop
  endfacet
  facet normal 0 1 0
    outer loop
      vertex -40.309 -55.6 4.41222
      vertex -39.191 -55.6 4.04894
      vertex -44.5 -55.6 2.1
    endloop
  endfacet
  facet normal 0 1 0
    outer loop
      vertex 0.309017 -55.6 4.04894
      vertex 44.5 -55.6 2.1
      vertex -38.5 -55.6 5
    endloop
  endfacet
  facet normal 0 1 0
    outer loop
      vertex -0.809017 -55.6 4.41222
      vertex -44.5 -55.6 10
      vertex -0.809017 -55.6 5.58779
    endloop
  endfacet
  facet normal 0 1 0
    outer loop
      vertex -44.5 -55.6 10
      vertex -40.309 -55.6 5.58779
      vertex -40.309 -55.6 4.41222
    endloop
  endfacet
  facet normal 0 1 0
    outer loop
      vertex 39.809 -55.6 5.95106
      vertex 44.5 -55.6 10
      vertex 40.5 -55.6 5
    endloop
  endfacet
  facet normal 0 1 0
    outer loop
      vertex -44.5 -55.6 10
      vertex -0.809017 -55.6 4.41222
      vertex -39.191 -55.6 5.95106
    endloop
  endfacet
  facet normal 0 1 0
    outer loop
      vertex 1 -55.6 5
      vertex 44.5 -55.6 2.1
      vertex 0.309017 -55.6 4.04894
    endloop
  endfacet
  facet normal 0 1 0
    outer loop
      vertex -39.191 -55.6 5.95106
      vertex 0.309017 -55.6 4.04894
      vertex -38.5 -55.6 5
    endloop
  endfacet
  facet normal 0 1 0
    outer loop
      vertex 0.309017 -55.6 5.95106
      vertex 44.5 -55.6 2.1
      vertex 1 -55.6 5
    endloop
  endfacet
  facet normal 0 1 0
    outer loop
      vertex 0.309017 -55.6 4.04894
      vertex -39.191 -55.6 5.95106
      vertex -0.809017 -55.6 4.41222
    endloop
  endfacet
  facet normal 0 1 0
    outer loop
      vertex -44.5 -55.6 10
      vertex 44.5 -55.6 2.1
      vertex 0.309017 -55.6 5.95106
    endloop
  endfacet
  facet normal 0 1 0
    outer loop
      vertex -44.5 -55.6 10
      vertex 0.309017 -55.6 5.95106
      vertex -0.809017 -55.6 5.58779
    endloop
  endfacet
  facet normal 0 1 0
    outer loop
      vertex 39.809 -55.6 4.04894
      vertex 44.5 -55.6 2.1
      vertex 38.691 -55.6 4.41222
    endloop
  endfacet
  facet normal 0 1 0
    outer loop
      vertex 38.691 -55.6 5.58779
      vertex 38.691 -55.6 4.41222
      vertex -44.5 -55.6 10
    endloop
  endfacet
  facet normal 0 1 0
    outer loop
      vertex 44.5 -55.6 10
      vertex 44.5 -55.6 2.1
      vertex 39.809 -55.6 4.04894
    endloop
  endfacet
  facet normal 0 1 0
    outer loop
      vertex 44.5 -55.6 10
      vertex 39.809 -55.6 4.04894
      vertex 40.5 -55.6 5
    endloop
  endfacet
  facet normal 0 1 0
    outer loop
      vertex 44.5 -55.6 10
      vertex 39.809 -55.6 5.95106
      vertex -44.5 -55.6 10
    endloop
  endfacet
  facet normal 0 1 0
    outer loop
      vertex 39.809 -55.6 5.95106
      vertex 38.691 -55.6 5.58779
      vertex -44.5 -55.6 10
    endloop
  endfacet
  facet normal 0 1 0
    outer loop
      vertex -38.5 -55.6 5
      vertex 44.5 -55.6 2.1
      vertex -39.191 -55.6 4.04894
    endloop
  endfacet
  facet normal -1 0 0
    outer loop
      vertex 44.5 -34.6 10
      vertex 44.5 -34.6 2.1
      vertex 44.5 -55.6 10
    endloop
  endfacet
  facet normal -1 0 0
    outer loop
      vertex 44.5 -45.2 4
      vertex 44.5 -34.6 2.1
      vertex 44.5 -55.6 2.1
    endloop
  endfacet
  facet normal -1 0 0
    outer loop
      vertex 44.5 -55.6 10
      vertex 44.5 -46.1511 4.69098
      vertex 44.5 -55.6 2.1
    endloop
  endfacet
  facet normal -1 0 0
    outer loop
      vertex 44.5 -46.1511 4.69098
      vertex 44.5 -45.2 4
      vertex 44.5 -55.6 2.1
    endloop
  endfacet
  facet normal -1 0 0
    outer loop
      vertex 44.5 -44.6122 5.80902
      vertex 44.5 -34.6 2.1
      vertex 44.5 -44.2489 4.69098
    endloop
  endfacet
  facet normal -1 0 0
    outer loop
      vertex 44.5 -44.2489 4.69098
      vertex 44.5 -34.6 2.1
      vertex 44.5 -45.2 4
    endloop
  endfacet
  facet normal -1 0 0
    outer loop
      vertex 44.5 -55.6 10
      vertex 44.5 -34.6 2.1
      vertex 44.5 -44.6122 5.80902
    endloop
  endfacet
  facet normal -1 0 0
    outer loop
      vertex 44.5 -55.6 10
      vertex 44.5 -44.6122 5.80902
      vertex 44.5 -45.7878 5.80902
    endloop
  endfacet
  facet normal -1 0 0
    outer loop
      vertex 44.5 -46.1511 4.69098
      vertex 44.5 -55.6 10
      vertex 44.5 -45.7878 5.80902
    endloop
  endfacet
  facet normal 0 -1 0
    outer loop
      vertex 10 -34.6 6.5
      vertex 44.5 -34.6 10
      vertex -44.5 -34.6 10
    endloop
  endfacet
  facet normal 0 -1 0
    outer loop
      vertex 10 -34.6 5
      vertex -10 -34.6 5
      vertex 44.5 -34.6 2.1
    endloop
  endfacet
  facet normal 0 -1 0
    outer loop
      vertex -44.5 -34.6 2.1
      vertex -40.309 -34.6 5.58779
      vertex -44.5 -34.6 10
    endloop
  endfacet
  facet normal 0 -1 0
    outer loop
      vertex -40.309 -34.6 5.58779
      vertex -39.191 -34.6 5.95106
      vertex -44.5 -34.6 10
    endloop
  endfacet
  facet normal 0 -1 0
    outer loop
      vertex -39.191 -34.6 4.04894
      vertex -40.309 -34.6 4.41222
      vertex -44.5 -34.6 2.1
    endloop
  endfacet
  facet normal 0 -1 0
    outer loop
      vertex -39.191 -34.6 4.04894
      vertex 44.5 -34.6 2.1
      vertex -38.5 -34.6 5
    endloop
  endfacet
  facet normal 0 -1 0
    outer loop
      vertex -44.5 -34.6 2.1
      vertex 44.5 -34.6 2.1
      vertex -39.191 -34.6 4.04894
    endloop
  endfacet
  facet normal 0 -1 0
    outer loop
      vertex -44.5 -34.6 2.1
      vertex -40.309 -34.6 4.41222
      vertex -40.309 -34.6 5.58779
    endloop
  endfacet
  facet normal 0 -1 0
    outer loop
      vertex 10 -34.6 6.5
      vertex 10 -34.6 5
      vertex 44.5 -34.6 2.1
    endloop
  endfacet
  facet normal 0 -1 0
    outer loop
      vertex -39.191 -34.6 5.95106
      vertex -10 -34.6 6.5
      vertex -44.5 -34.6 10
    endloop
  endfacet
  facet normal 0 -1 0
    outer loop
      vertex 38.691 -34.6 5.58779
      vertex 44.5 -34.6 10
      vertex 10 -34.6 6.5
    endloop
  endfacet
  facet normal 0 -1 0
    outer loop
      vertex 40.5 -34.6 5
      vertex 39.809 -34.6 4.04894
      vertex 44.5 -34.6 2.1
    endloop
  endfacet
  facet normal 0 -1 0
    outer loop
      vertex -39.191 -34.6 5.95106
      vertex -10 -34.6 5
      vertex -10 -34.6 6.5
    endloop
  endfacet
  facet normal 0 -1 0
    outer loop
      vertex -39.191 -34.6 5.95106
      vertex 44.5 -34.6 2.1
      vertex -10 -34.6 5
    endloop
  endfacet
  facet normal 0 -1 0
    outer loop
      vertex 38.691 -34.6 4.41222
      vertex 38.691 -34.6 5.58779
      vertex 10 -34.6 6.5
    endloop
  endfacet
  facet normal 0 -1 0
    outer loop
      vertex 39.809 -34.6 5.95106
      vertex 44.5 -34.6 10
      vertex 38.691 -34.6 5.58779
    endloop
  endfacet
  facet normal 0 -1 0
    outer loop
      vertex 44.5 -34.6 2.1
      vertex 44.5 -34.6 10
      vertex 39.809 -34.6 5.95106
    endloop
  endfacet
  facet normal 0 -1 0
    outer loop
      vertex 44.5 -34.6 2.1
      vertex 39.809 -34.6 5.95106
      vertex 40.5 -34.6 5
    endloop
  endfacet
  facet normal 0 -1 0
    outer loop
      vertex 44.5 -34.6 2.1
      vertex 39.809 -34.6 4.04894
      vertex 10 -34.6 6.5
    endloop
  endfacet
  facet normal 0 -1 0
    outer loop
      vertex 39.809 -34.6 4.04894
      vertex 38.691 -34.6 4.41222
      vertex 10 -34.6 6.5
    endloop
  endfacet
  facet normal 0 -1 0
    outer loop
      vertex -39.191 -34.6 5.95106
      vertex -38.5 -34.6 5
      vertex 44.5 -34.6 2.1
    endloop
  endfacet
  facet normal 0 -1 0
    outer loop
      vertex -10 -34.6 6.5
      vertex 10 -34.6 6.5
      vertex -44.5 -34.6 10
    endloop
  endfacet
  facet normal 0.994522 0.104528 0
    outer loop
      vertex -30.2 0 10
      vertex -29.5401 -6.27893 10
      vertex -29.5401 -6.27893 4
    endloop
  endfacet
  facet normal 0.994522 0.104528 0
    outer loop
      vertex -30.2 0 4
      vertex -30.2 0 10
      vertex -29.5401 -6.27893 4
    endloop
  endfacet
  facet normal 0.951057 0.309017 0
    outer loop
      vertex -29.5401 -6.27893 10
      vertex -27.5891 -12.2834 10
      vertex -27.5891 -12.2834 4
    endloop
  endfacet
  facet normal 0.951057 0.309017 0
    outer loop
      vertex -29.5401 -6.27893 4
      vertex -29.5401 -6.27893 10
      vertex -27.5891 -12.2834 4
    endloop
  endfacet
  facet normal 0.866025 0.5 0
    outer loop
      vertex -27.5891 -12.2834 10
      vertex -24.4323 -17.7511 10
      vertex -24.4323 -17.7511 4
    endloop
  endfacet
  facet normal 0.866025 0.5 0
    outer loop
      vertex -27.5891 -12.2834 4
      vertex -27.5891 -12.2834 10
      vertex -24.4323 -17.7511 4
    endloop
  endfacet
  facet normal 0.743145 0.669131 0
    outer loop
      vertex -24.4323 -17.7511 10
      vertex -20.2077 -22.443 10
      vertex -20.2077 -22.443 4
    endloop
  endfacet
  facet normal 0.743145 0.669131 0
    outer loop
      vertex -24.4323 -17.7511 4
      vertex -24.4323 -17.7511 10
      vertex -20.2077 -22.443 4
    endloop
  endfacet
  facet normal 0.587785 0.809017 0
    outer loop
      vertex -15.1 -26.154 10
      vertex -15.1 -26.154 4
      vertex -20.2077 -22.443 10
    endloop
  endfacet
  facet normal 0.587785 0.809017 0
    outer loop
      vertex -20.2077 -22.443 10
      vertex -15.1 -26.154 4
      vertex -20.2077 -22.443 4
    endloop
  endfacet
  facet normal 0.406737 0.913545 0
    outer loop
      vertex -9.33231 -28.7219 10
      vertex -9.33231 -28.7219 6.5
      vertex -15.1 -26.154 10
    endloop
  endfacet
  facet normal 0.406737 0.913545 0
    outer loop
      vertex -15.1 -26.154 10
      vertex -9.33231 -28.7219 6.5
      vertex -10 -28.4246 6.5
    endloop
  endfacet
  facet normal 0.406737 0.913545 0
    outer loop
      vertex -15.1 -26.154 10
      vertex -10 -28.4246 6.5
      vertex -10 -28.4246 5
    endloop
  endfacet
  facet normal 0.406737 0.913545 0
    outer loop
      vertex -10 -28.4246 5
      vertex -9.33231 -28.7219 5
      vertex -9.33231 -28.7219 4
    endloop
  endfacet
  facet normal 0.406737 0.913545 0
    outer loop
      vertex -10 -28.4246 5
      vertex -9.33231 -28.7219 4
      vertex -15.1 -26.154 10
    endloop
  endfacet
  facet normal 0.406737 0.913545 0
    outer loop
      vertex -15.1 -26.154 10
      vertex -9.33231 -28.7219 4
      vertex -15.1 -26.154 4
    endloop
  endfacet
  facet normal 0.207912 0.978148 0
    outer loop
      vertex -3.15676 -30.0346 10
      vertex -3.15676 -30.0346 6.5
      vertex -9.33231 -28.7219 10
    endloop
  endfacet
  facet normal 0.207912 0.978148 0
    outer loop
      vertex -9.33231 -28.7219 10
      vertex -3.15676 -30.0346 6.5
      vertex -9.33231 -28.7219 6.5
    endloop
  endfacet
  facet normal 0 1 0
    outer loop
      vertex 3.15676 -30.0346 10
      vertex 3.15676 -30.0346 6.5
      vertex -3.15676 -30.0346 10
    endloop
  endfacet
  facet normal 0 1 0
    outer loop
      vertex -3.15676 -30.0346 10
      vertex 3.15676 -30.0346 6.5
      vertex -3.15676 -30.0346 6.5
    endloop
  endfacet
  facet normal -0.207912 0.978148 0
    outer loop
      vertex 9.33231 -28.7219 10
      vertex 9.33231 -28.7219 6.5
      vertex 3.15676 -30.0346 10
    endloop
  endfacet
  facet normal -0.207912 0.978148 0
    outer loop
      vertex 3.15676 -30.0346 10
      vertex 9.33231 -28.7219 6.5
      vertex 3.15676 -30.0346 6.5
    endloop
  endfacet
  facet normal -0.406737 0.913545 0
    outer loop
      vertex 9.33231 -28.7219 10
      vertex 10 -28.4246 6.5
      vertex 9.33231 -28.7219 6.5
    endloop
  endfacet
  facet normal -0.406737 0.913545 0
    outer loop
      vertex 15.1 -26.154 10
      vertex 10 -28.4246 6.5
      vertex 9.33231 -28.7219 10
    endloop
  endfacet
  facet normal -0.406737 0.913545 0
    outer loop
      vertex 10 -28.4246 5
      vertex 10 -28.4246 6.5
      vertex 15.1 -26.154 10
    endloop
  endfacet
  facet normal -0.406737 0.913545 0
    outer loop
      vertex 10 -28.4246 5
      vertex 15.1 -26.154 10
      vertex 15.1 -26.154 4
    endloop
  endfacet
  facet normal -0.406737 0.913545 0
    outer loop
      vertex 10 -28.4246 5
      vertex 15.1 -26.154 4
      vertex 9.33231 -28.7219 5
    endloop
  endfacet
  facet normal -0.406737 0.913545 0
    outer loop
      vertex 15.1 -26.154 4
      vertex 9.33231 -28.7219 4
      vertex 9.33231 -28.7219 5
    endloop
  endfacet
  facet normal -0.587785 0.809017 0
    outer loop
      vertex 20.2077 -22.443 10
      vertex 20.2077 -22.443 4
      vertex 15.1 -26.154 10
    endloop
  endfacet
  facet normal -0.587785 0.809017 0
    outer loop
      vertex 15.1 -26.154 10
      vertex 20.2077 -22.443 4
      vertex 15.1 -26.154 4
    endloop
  endfacet
  facet normal -0.743145 0.669131 0
    outer loop
      vertex 24.4323 -17.7511 10
      vertex 24.4323 -17.7511 4
      vertex 20.2077 -22.443 10
    endloop
  endfacet
  facet normal -0.743145 0.669131 0
    outer loop
      vertex 20.2077 -22.443 10
      vertex 24.4323 -17.7511 4
      vertex 20.2077 -22.443 4
    endloop
  endfacet
  facet normal -0.866025 0.5 0
    outer loop
      vertex 27.5891 -12.2834 10
      vertex 27.5891 -12.2834 4
      vertex 24.4323 -17.7511 10
    endloop
  endfacet
  facet normal -0.866025 0.5 0
    outer loop
      vertex 24.4323 -17.7511 10
      vertex 27.5891 -12.2834 4
      vertex 24.4323 -17.7511 4
    endloop
  endfacet
  facet normal -0.951057 0.309017 0
    outer loop
      vertex 29.5401 -6.27893 10
      vertex 29.5401 -6.27893 4
      vertex 27.5891 -12.2834 10
    endloop
  endfacet
  facet normal -0.951057 0.309017 0
    outer loop
      vertex 27.5891 -12.2834 10
      vertex 29.5401 -6.27893 4
      vertex 27.5891 -12.2834 4
    endloop
  endfacet
  facet normal -0.994522 0.104528 0
    outer loop
      vertex 30.2 0 10
      vertex 30.2 0 4
      vertex 29.5401 -6.27893 10
    endloop
  endfacet
  facet normal -0.994522 0.104528 0
    outer loop
      vertex 29.5401 -6.27893 10
      vertex 30.2 0 4
      vertex 29.5401 -6.27893 4
    endloop
  endfacet
  facet normal -0.994522 -0.104528 0
    outer loop
      vertex 30.2 0 10
      vertex 29.5401 6.27893 10
      vertex 30.2 0 4
    endloop
  endfacet
  facet normal -0.994522 -0.104528 0
    outer loop
      vertex 30.2 0 4
      vertex 29.5401 6.27893 10
      vertex 29.5401 6.27893 4
    endloop
  endfacet
  facet normal -0.951057 -0.309017 0
    outer loop
      vertex 29.5401 6.27893 10
      vertex 27.5891 12.2834 10
      vertex 29.5401 6.27893 4
    endloop
  endfacet
  facet normal -0.951057 -0.309017 0
    outer loop
      vertex 29.5401 6.27893 4
      vertex 27.5891 12.2834 10
      vertex 27.5891 12.2834 4
    endloop
  endfacet
  facet normal -0.866025 -0.5 0
    outer loop
      vertex 27.5891 12.2834 10
      vertex 24.4323 17.7511 10
      vertex 27.5891 12.2834 4
    endloop
  endfacet
  facet normal -0.866025 -0.5 0
    outer loop
      vertex 27.5891 12.2834 4
      vertex 24.4323 17.7511 10
      vertex 24.4323 17.7511 4
    endloop
  endfacet
  facet normal -0.743145 -0.669131 0
    outer loop
      vertex 24.4323 17.7511 10
      vertex 20.2077 22.443 10
      vertex 24.4323 17.7511 4
    endloop
  endfacet
  facet normal -0.743145 -0.669131 0
    outer loop
      vertex 24.4323 17.7511 4
      vertex 20.2077 22.443 10
      vertex 20.2077 22.443 4
    endloop
  endfacet
  facet normal -0.587785 -0.809017 0
    outer loop
      vertex 20.2077 22.443 4
      vertex 20.2077 22.443 10
      vertex 15.1 26.154 10
    endloop
  endfacet
  facet normal -0.587785 -0.809017 0
    outer loop
      vertex 15.1 26.154 4
      vertex 20.2077 22.443 4
      vertex 15.1 26.154 10
    endloop
  endfacet
  facet normal -0.406737 -0.913545 0
    outer loop
      vertex 15.1 26.154 4
      vertex 15.1 26.154 10
      vertex 9.33231 28.7219 10
    endloop
  endfacet
  facet normal -0.406737 -0.913545 0
    outer loop
      vertex 9.33231 28.7219 4
      vertex 15.1 26.154 4
      vertex 9.33231 28.7219 10
    endloop
  endfacet
  facet normal -0.207912 -0.978148 0
    outer loop
      vertex 9.33231 28.7219 4
      vertex 9.33231 28.7219 10
      vertex 3.15676 30.0346 10
    endloop
  endfacet
  facet normal -0.207912 -0.978148 0
    outer loop
      vertex 3.15676 30.0346 4
      vertex 9.33231 28.7219 4
      vertex 3.15676 30.0346 10
    endloop
  endfacet
  facet normal 0 -1 0
    outer loop
      vertex 3.15676 30.0346 4
      vertex 3.15676 30.0346 10
      vertex -3.15676 30.0346 10
    endloop
  endfacet
  facet normal 0 -1 0
    outer loop
      vertex -3.15676 30.0346 4
      vertex 3.15676 30.0346 4
      vertex -3.15676 30.0346 10
    endloop
  endfacet
  facet normal 0.207912 -0.978148 0
    outer loop
      vertex -3.15676 30.0346 4
      vertex -3.15676 30.0346 10
      vertex -9.33231 28.7219 10
    endloop
  endfacet
  facet normal 0.207912 -0.978148 0
    outer loop
      vertex -9.33231 28.7219 4
      vertex -3.15676 30.0346 4
      vertex -9.33231 28.7219 10
    endloop
  endfacet
  facet normal 0.406737 -0.913545 0
    outer loop
      vertex -9.33231 28.7219 4
      vertex -9.33231 28.7219 10
      vertex -15.1 26.154 10
    endloop
  endfacet
  facet normal 0.406737 -0.913545 0
    outer loop
      vertex -15.1 26.154 4
      vertex -9.33231 28.7219 4
      vertex -15.1 26.154 10
    endloop
  endfacet
  facet normal 0.587785 -0.809017 0
    outer loop
      vertex -15.1 26.154 4
      vertex -15.1 26.154 10
      vertex -20.2077 22.443 10
    endloop
  endfacet
  facet normal 0.587785 -0.809017 0
    outer loop
      vertex -20.2077 22.443 4
      vertex -15.1 26.154 4
      vertex -20.2077 22.443 10
    endloop
  endfacet
  facet normal 0.743145 -0.669131 0
    outer loop
      vertex -20.2077 22.443 4
      vertex -20.2077 22.443 10
      vertex -24.4323 17.7511 10
    endloop
  endfacet
  facet normal 0.743145 -0.669131 0
    outer loop
      vertex -24.4323 17.7511 4
      vertex -20.2077 22.443 4
      vertex -24.4323 17.7511 10
    endloop
  endfacet
  facet normal 0.866025 -0.5 0
    outer loop
      vertex -24.4323 17.7511 4
      vertex -24.4323 17.7511 10
      vertex -27.5891 12.2834 10
    endloop
  endfacet
  facet normal 0.866025 -0.5 0
    outer loop
      vertex -27.5891 12.2834 4
      vertex -24.4323 17.7511 4
      vertex -27.5891 12.2834 10
    endloop
  endfacet
  facet normal 0.951057 -0.309017 0
    outer loop
      vertex -27.5891 12.2834 4
      vertex -27.5891 12.2834 10
      vertex -29.5401 6.27893 10
    endloop
  endfacet
  facet normal 0.951057 -0.309017 0
    outer loop
      vertex -29.5401 6.27893 4
      vertex -27.5891 12.2834 4
      vertex -29.5401 6.27893 10
    endloop
  endfacet
  facet normal 0.994522 -0.104528 0
    outer loop
      vertex -29.5401 6.27893 4
      vertex -29.5401 6.27893 10
      vertex -30.2 0 10
    endloop
  endfacet
  facet normal 0.994522 -0.104528 0
    outer loop
      vertex -30.2 0 4
      vertex -29.5401 6.27893 4
      vertex -30.2 0 10
    endloop
  endfacet
  facet normal 6.86157e-17 0.951056 -0.309018
    outer loop
      vertex 46.5 -45.7878 5.80902
      vertex 46.5 -46.1511 4.69098
      vertex 44.5 -45.7878 5.80902
    endloop
  endfacet
  facet normal 6.86157e-17 0.951056 -0.309018
    outer loop
      vertex 44.5 -45.7878 5.80902
      vertex 46.5 -46.1511 4.69098
      vertex 44.5 -46.1511 4.69098
    endloop
  endfacet
  facet normal -1.79638e-16 0.587785 0.809017
    outer loop
      vertex 46.5 -46.1511 4.69098
      vertex 46.5 -45.2 4
      vertex 44.5 -45.2 4
    endloop
  endfacet
  facet normal -1.79638e-16 0.587785 0.809017
    outer loop
      vertex 44.5 -46.1511 4.69098
      vertex 46.5 -46.1511 4.69098
      vertex 44.5 -45.2 4
    endloop
  endfacet
  facet normal -1.79638e-16 -0.587785 0.809017
    outer loop
      vertex 46.5 -45.2 4
      vertex 46.5 -44.2489 4.69098
      vertex 44.5 -44.2489 4.69098
    endloop
  endfacet
  facet normal -1.79638e-16 -0.587785 0.809017
    outer loop
      vertex 44.5 -45.2 4
      vertex 46.5 -45.2 4
      vertex 44.5 -44.2489 4.69098
    endloop
  endfacet
  facet normal 6.86157e-17 -0.951056 -0.309018
    outer loop
      vertex 44.5 -44.2489 4.69098
      vertex 46.5 -44.2489 4.69098
      vertex 46.5 -44.6122 5.80902
    endloop
  endfacet
  facet normal 6.86157e-17 -0.951056 -0.309018
    outer loop
      vertex 44.5 -44.6122 5.80902
      vertex 44.5 -44.2489 4.69098
      vertex 46.5 -44.6122 5.80902
    endloop
  endfacet
  facet normal 2.22045e-16 0 -1
    outer loop
      vertex 46.5 -44.6122 5.80902
      vertex 46.5 -45.7878 5.80902
      vertex 44.5 -44.6122 5.80902
    endloop
  endfacet
  facet normal 2.22045e-16 0 -1
    outer loop
      vertex 44.5 -44.6122 5.80902
      vertex 46.5 -45.7878 5.80902
      vertex 44.5 -45.7878 5.80902
    endloop
  endfacet
  facet normal 0.309018 -2.11177e-16 -0.951056
    outer loop
      vertex 39.809 -32.6 5.95106
      vertex 39.809 -34.6 5.95106
      vertex 38.691 -32.6 5.58779
    endloop
  endfacet
  facet normal 0.309018 -2.11177e-16 -0.951056
    outer loop
      vertex 38.691 -32.6 5.58779
      vertex 39.809 -34.6 5.95106
      vertex 38.691 -34.6 5.58779
    endloop
  endfacet
  facet normal 1 0 0
    outer loop
      vertex 38.691 -32.6 4.41221
      vertex 38.691 -32.6 5.58779
      vertex 38.691 -34.6 5.58779
    endloop
  endfacet
  facet normal 1 0 0
    outer loop
      vertex 38.691 -34.6 4.41222
      vertex 38.691 -32.6 4.41221
      vertex 38.691 -34.6 5.58779
    endloop
  endfacet
  facet normal -0.809017 -1.30514e-16 -0.587785
    outer loop
      vertex 40.5 -32.6 5
      vertex 40.5 -34.6 5
      vertex 39.809 -32.6 5.95106
    endloop
  endfacet
  facet normal -0.809017 -1.30514e-16 -0.587785
    outer loop
      vertex 39.809 -32.6 5.95106
      vertex 40.5 -34.6 5
      vertex 39.809 -34.6 5.95106
    endloop
  endfacet
  facet normal -0.809017 1.30514e-16 0.587785
    outer loop
      vertex 40.5 -32.6 5
      vertex 39.809 -32.6 4.04894
      vertex 40.5 -34.6 5
    endloop
  endfacet
  facet normal -0.809017 1.30514e-16 0.587785
    outer loop
      vertex 40.5 -34.6 5
      vertex 39.809 -32.6 4.04894
      vertex 39.809 -34.6 4.04894
    endloop
  endfacet
  facet normal 0.309018 2.11177e-16 0.951056
    outer loop
      vertex 39.809 -34.6 4.04894
      vertex 39.809 -32.6 4.04894
      vertex 38.691 -32.6 4.41221
    endloop
  endfacet
  facet normal 0.309018 2.11177e-16 0.951056
    outer loop
      vertex 38.691 -34.6 4.41222
      vertex 39.809 -34.6 4.04894
      vertex 38.691 -32.6 4.41221
    endloop
  endfacet
  facet normal 0 0 1
    outer loop
      vertex -18 -35.9 2.1
      vertex 44.5 -34.6 2.1
      vertex -44.5 -34.6 2.1
    endloop
  endfacet
  facet normal 0 0 1
    outer loop
      vertex 42 -35.9 2.1
      vertex 44.5 -34.6 2.1
      vertex -18 -35.9 2.1
    endloop
  endfacet
  facet normal 0 0 1
    outer loop
      vertex 44.5 -55.6 2.1
      vertex 44.5 -34.6 2.1
      vertex 42 -35.9 2.1
    endloop
  endfacet
  facet normal 0 0 1
    outer loop
      vertex 42 -35.9 2.1
      vertex 42 -54.9 2.1
      vertex 44.5 -55.6 2.1
    endloop
  endfacet
  facet normal 0 0 1
    outer loop
      vertex -44.5 -55.6 2.1
      vertex -18 -54.9 2.1
      vertex -44.5 -34.6 2.1
    endloop
  endfacet
  facet normal 0 0 1
    outer loop
      vertex -44.5 -55.6 2.1
      vertex 44.5 -55.6 2.1
      vertex -18 -54.9 2.1
    endloop
  endfacet
  facet normal 0 0 1
    outer loop
      vertex 42 -54.9 2.1
      vertex -18 -54.9 2.1
      vertex 44.5 -55.6 2.1
    endloop
  endfacet
  facet normal 0 0 1
    outer loop
      vertex -18 -54.9 2.1
      vertex -18 -35.9 2.1
      vertex -44.5 -34.6 2.1
    endloop
  endfacet
  facet normal 1 0 0
    outer loop
      vertex -10 -28.4246 5
      vertex -10 -28.4246 6.5
      vertex -10 -34.6 6.5
    endloop
  endfacet
  facet normal 1 0 0
    outer loop
      vertex -10 -34.6 5
      vertex -10 -28.4246 5
      vertex -10 -34.6 6.5
    endloop
  endfacet
  facet normal 0 0 -1
    outer loop
      vertex -9.33231 -28.7219 6.5
      vertex -3.15676 -30.0346 6.5
      vertex 10 -34.6 6.5
    endloop
  endfacet
  facet normal 0 0 -1
    outer loop
      vertex 10 -34.6 6.5
      vertex 3.15676 -30.0346 6.5
      vertex 9.33231 -28.7219 6.5
    endloop
  endfacet
  facet normal 0 0 -1
    outer loop
      vertex 10 -34.6 6.5
      vertex 9.33231 -28.7219 6.5
      vertex 10 -28.4246 6.5
    endloop
  endfacet
  facet normal 0 0 -1
    outer loop
      vertex -3.15676 -30.0346 6.5
      vertex 3.15676 -30.0346 6.5
      vertex 10 -34.6 6.5
    endloop
  endfacet
  facet normal 0 0 -1
    outer loop
      vertex -9.33231 -28.7219 6.5
      vertex 10 -34.6 6.5
      vertex -10 -34.6 6.5
    endloop
  endfacet
  facet normal 0 0 -1
    outer loop
      vertex -9.33231 -28.7219 6.5
      vertex -10 -34.6 6.5
      vertex -10 -28.4246 6.5
    endloop
  endfacet
  facet normal 0 0 1
    outer loop
      vertex -3.15676 -30.0346 5
      vertex -9.33231 -28.7219 5
      vertex 10 -34.6 5
    endloop
  endfacet
  facet normal 0 0 1
    outer loop
      vertex 10 -34.6 5
      vertex 10 -28.4246 5
      vertex 9.33231 -28.7219 5
    endloop
  endfacet
  facet normal 0 0 1
    outer loop
      vertex -9.33231 -28.7219 5
      vertex -10 -34.6 5
      vertex 10 -34.6 5
    endloop
  endfacet
  facet normal 0 0 1
    outer loop
      vertex 3.15676 -30.0346 5
      vertex 10 -34.6 5
      vertex 9.33231 -28.7219 5
    endloop
  endfacet
  facet normal 0 0 1
    outer loop
      vertex 3.15676 -30.0346 5
      vertex -3.15676 -30.0346 5
      vertex 10 -34.6 5
    endloop
  endfacet
  facet normal 0 0 1
    outer loop
      vertex -10 -28.4246 5
      vertex -10 -34.6 5
      vertex -9.33231 -28.7219 5
    endloop
  endfacet
  facet normal -1 0 0
    outer loop
      vertex 10 -28.4246 6.5
      vertex 10 -28.4246 5
      vertex 10 -34.6 6.5
    endloop
  endfacet
  facet normal -1 0 0
    outer loop
      vertex 10 -34.6 6.5
      vertex 10 -28.4246 5
      vertex 10 -34.6 5
    endloop
  endfacet
  facet normal 0 0 1
    outer loop
      vertex -29.5401 -6.27893 4
      vertex -27.5891 -12.2834 4
      vertex -24.4323 -17.7511 4
    endloop
  endfacet
  facet normal 0 0 1
    outer loop
      vertex -15.1 -26.154 4
      vertex -29.5401 -6.27893 4
      vertex -20.2077 -22.443 4
    endloop
  endfacet
  facet normal 0 0 1
    outer loop
      vertex -20.2077 -22.443 4
      vertex -29.5401 -6.27893 4
      vertex -24.4323 -17.7511 4
    endloop
  endfacet
  facet normal 0 0 1
    outer loop
      vertex -9.33231 -28.7219 4
      vertex -29.5401 -6.27893 4
      vertex -15.1 -26.154 4
    endloop
  endfacet
  facet normal 0 0 1
    outer loop
      vertex -3.15676 -30.0346 4
      vertex -29.5401 -6.27893 4
      vertex -9.33231 -28.7219 4
    endloop
  endfacet
  facet normal 0 0 1
    outer loop
      vertex 3.15676 -30.0346 4
      vertex -29.5401 -6.27893 4
      vertex -3.15676 -30.0346 4
    endloop
  endfacet
  facet normal 0 0 1
    outer loop
      vertex 9.33231 -28.7219 4
      vertex -29.5401 -6.27893 4
      vertex 3.15676 -30.0346 4
    endloop
  endfacet
  facet normal 0 0 1
    outer loop
      vertex 15.1 -26.154 4
      vertex -29.5401 -6.27893 4
      vertex 9.33231 -28.7219 4
    endloop
  endfacet
  facet normal 0 0 1
    outer loop
      vertex 20.2077 -22.443 4
      vertex -29.5401 -6.27893 4
      vertex 15.1 -26.154 4
    endloop
  endfacet
  facet normal 0 0 1
    outer loop
      vertex 24.4323 -17.7511 4
      vertex -29.5401 -6.27893 4
      vertex 20.2077 -22.443 4
    endloop
  endfacet
  facet normal 0 0 1
    outer loop
      vertex 27.5891 -12.2834 4
      vertex -29.5401 -6.27893 4
      vertex 24.4323 -17.7511 4
    endloop
  endfacet
  facet normal 0 0 1
    outer loop
      vertex 29.5401 -6.27893 4
      vertex -29.5401 -6.27893 4
      vertex 27.5891 -12.2834 4
    endloop
  endfacet
  facet normal 0 0 1
    outer loop
      vertex 30.2 0 4
      vertex -29.5401 -6.27893 4
      vertex 29.5401 -6.27893 4
    endloop
  endfacet
  facet normal 0 0 1
    outer loop
      vertex 11.009 -0.951057 4
      vertex -29.5401 -6.27893 4
      vertex 30.2 0 4
    endloop
  endfacet
  facet normal 0 0 1
    outer loop
      vertex -10.391 -0.951057 4
      vertex -29.5401 -6.27893 4
      vertex 29.5401 6.27893 4
    endloop
  endfacet
  facet normal 0 0 1
    outer loop
      vertex 11.009 12.5489 4
      vertex -29.5401 -6.27893 4
      vertex 24.4323 17.7511 4
    endloop
  endfacet
  facet normal 0 0 1
    outer loop
      vertex 15.1 26.154 4
      vertex -29.5401 -6.27893 4
      vertex 20.2077 22.443 4
    endloop
  endfacet
  facet normal 0 0 1
    outer loop
      vertex 9.33231 28.7219 4
      vertex -29.5401 -6.27893 4
      vertex 15.1 26.154 4
    endloop
  endfacet
  facet normal 0 0 1
    outer loop
      vertex -10.391 12.5489 4
      vertex -29.5401 -6.27893 4
      vertex 9.33231 28.7219 4
    endloop
  endfacet
  facet normal 0 0 1
    outer loop
      vertex -9.33231 28.7219 4
      vertex -29.5401 -6.27893 4
      vertex -3.15676 30.0346 4
    endloop
  endfacet
  facet normal 0 0 1
    outer loop
      vertex -15.1 26.154 4
      vertex -29.5401 -6.27893 4
      vertex -9.33231 28.7219 4
    endloop
  endfacet
  facet normal 0 0 1
    outer loop
      vertex -20.2077 22.443 4
      vertex -29.5401 -6.27893 4
      vertex -15.1 26.154 4
    endloop
  endfacet
  facet normal 0 0 1
    outer loop
      vertex -24.4323 17.7511 4
      vertex -29.5401 -6.27893 4
      vertex -20.2077 22.443 4
    endloop
  endfacet
  facet normal 0 0 1
    outer loop
      vertex -27.5891 12.2834 4
      vertex -29.5401 -6.27893 4
      vertex -24.4323 17.7511 4
    endloop
  endfacet
  facet normal 0 0 1
    outer loop
      vertex -29.5401 6.27893 4
      vertex -29.5401 -6.27893 4
      vertex -27.5891 12.2834 4
    endloop
  endfacet
  facet normal 0 0 1
    outer loop
      vertex -30.2 0 4
      vertex -29.5401 -6.27893 4
      vertex -29.5401 6.27893 4
    endloop
  endfacet
  facet normal 0 0 1
    outer loop
      vertex 24.4323 17.7511 4
      vertex -29.5401 -6.27893 4
      vertex -11.509 0.587785 4
    endloop
  endfacet
  facet normal 0 0 1
    outer loop
      vertex 24.4323 17.7511 4
      vertex -10.391 0.951057 4
      vertex 27.5891 12.2834 4
    endloop
  endfacet
  facet normal 0 0 1
    outer loop
      vertex 24.4323 17.7511 4
      vertex -11.509 0.587785 4
      vertex -10.391 0.951057 4
    endloop
  endfacet
  facet normal 0 0 1
    outer loop
      vertex 27.5891 12.2834 4
      vertex -9.7 0 4
      vertex 29.5401 6.27893 4
    endloop
  endfacet
  facet normal 0 0 1
    outer loop
      vertex -10.391 0.951057 4
      vertex -9.7 0 4
      vertex 27.5891 12.2834 4
    endloop
  endfacet
  facet normal 0 0 1
    outer loop
      vertex -9.7 0 4
      vertex -10.391 -0.951057 4
      vertex 29.5401 6.27893 4
    endloop
  endfacet
  facet normal 0 0 1
    outer loop
      vertex -11.509 -0.587785 4
      vertex -29.5401 -6.27893 4
      vertex -10.391 -0.951057 4
    endloop
  endfacet
  facet normal 0 0 1
    outer loop
      vertex -11.509 12.9122 4
      vertex -11.509 14.0878 4
      vertex -29.5401 -6.27893 4
    endloop
  endfacet
  facet normal 0 0 1
    outer loop
      vertex -3.15676 30.0346 4
      vertex -11.509 14.0878 4
      vertex 3.15676 30.0346 4
    endloop
  endfacet
  facet normal 0 0 1
    outer loop
      vertex -3.15676 30.0346 4
      vertex -29.5401 -6.27893 4
      vertex -11.509 14.0878 4
    endloop
  endfacet
  facet normal 0 0 1
    outer loop
      vertex 3.15676 30.0346 4
      vertex -10.391 14.4511 4
      vertex 9.33231 28.7219 4
    endloop
  endfacet
  facet normal 0 0 1
    outer loop
      vertex -10.391 12.5489 4
      vertex -11.509 12.9122 4
      vertex -29.5401 -6.27893 4
    endloop
  endfacet
  facet normal 0 0 1
    outer loop
      vertex -10.391 14.4511 4
      vertex -9.7 13.5 4
      vertex 9.33231 28.7219 4
    endloop
  endfacet
  facet normal 0 0 1
    outer loop
      vertex -9.7 13.5 4
      vertex -10.391 12.5489 4
      vertex 9.33231 28.7219 4
    endloop
  endfacet
  facet normal 0 0 1
    outer loop
      vertex 9.89098 -0.587785 4
      vertex 9.89098 0.587785 4
      vertex -29.5401 -6.27893 4
    endloop
  endfacet
  facet normal 0 0 1
    outer loop
      vertex 11.009 0.951057 4
      vertex 11.7 0 4
      vertex 30.2 0 4
    endloop
  endfacet
  facet normal 0 0 1
    outer loop
      vertex 11.009 14.4511 4
      vertex 11.7 13.5 4
      vertex 24.4323 17.7511 4
    endloop
  endfacet
  facet normal 0 0 1
    outer loop
      vertex 11.009 0.951057 4
      vertex -29.5401 -6.27893 4
      vertex 9.89098 0.587785 4
    endloop
  endfacet
  facet normal 0 0 1
    outer loop
      vertex 29.5401 6.27893 4
      vertex -29.5401 -6.27893 4
      vertex 11.009 0.951057 4
    endloop
  endfacet
  facet normal 0 0 1
    outer loop
      vertex 11.7 0 4
      vertex 11.009 -0.951057 4
      vertex 30.2 0 4
    endloop
  endfacet
  facet normal 0 0 1
    outer loop
      vertex 9.89098 -0.587785 4
      vertex -29.5401 -6.27893 4
      vertex 11.009 -0.951057 4
    endloop
  endfacet
  facet normal 0 0 1
    outer loop
      vertex 11.009 0.951057 4
      vertex 30.2 0 4
      vertex 29.5401 6.27893 4
    endloop
  endfacet
  facet normal 0 0 1
    outer loop
      vertex 11.009 12.5489 4
      vertex 9.89098 12.9122 4
      vertex -29.5401 -6.27893 4
    endloop
  endfacet
  facet normal 0 0 1
    outer loop
      vertex 20.2077 22.443 4
      vertex -29.5401 -6.27893 4
      vertex 9.89098 14.0878 4
    endloop
  endfacet
  facet normal 0 0 1
    outer loop
      vertex 20.2077 22.443 4
      vertex 11.009 14.4511 4
      vertex 24.4323 17.7511 4
    endloop
  endfacet
  facet normal 0 0 1
    outer loop
      vertex 20.2077 22.443 4
      vertex 9.89098 14.0878 4
      vertex 11.009 14.4511 4
    endloop
  endfacet
  facet normal 0 0 1
    outer loop
      vertex 11.7 13.5 4
      vertex 11.009 12.5489 4
      vertex 24.4323 17.7511 4
    endloop
  endfacet
  facet normal 0 0 1
    outer loop
      vertex 9.89098 14.0878 4
      vertex -29.5401 -6.27893 4
      vertex 9.89098 12.9122 4
    endloop
  endfacet
  facet normal 0 0 1
    outer loop
      vertex -11.509 14.0878 4
      vertex -10.391 14.4511 4
      vertex 3.15676 30.0346 4
    endloop
  endfacet
  facet normal 0 0 1
    outer loop
      vertex -11.509 -0.587785 4
      vertex -11.509 0.587785 4
      vertex -29.5401 -6.27893 4
    endloop
  endfacet
  facet normal 0.207912 0.978148 0
    outer loop
      vertex -3.15676 -30.0346 5
      vertex -3.15676 -30.0346 4
      vertex -9.33231 -28.7219 5
    endloop
  endfacet
  facet normal 0.207912 0.978148 0
    outer loop
      vertex -9.33231 -28.7219 5
      vertex -3.15676 -30.0346 4
      vertex -9.33231 -28.7219 4
    endloop
  endfacet
  facet normal -0.207912 0.978148 0
    outer loop
      vertex 9.33231 -28.7219 5
      vertex 9.33231 -28.7219 4
      vertex 3.15676 -30.0346 5
    endloop
  endfacet
  facet normal -0.207912 0.978148 0
    outer loop
      vertex 3.15676 -30.0346 5
      vertex 9.33231 -28.7219 4
      vertex 3.15676 -30.0346 4
    endloop
  endfacet
  facet normal 0 1 0
    outer loop
      vertex 3.15676 -30.0346 5
      vertex 3.15676 -30.0346 4
      vertex -3.15676 -30.0346 5
    endloop
  endfacet
  facet normal 0 1 0
    outer loop
      vertex -3.15676 -30.0346 5
      vertex 3.15676 -30.0346 4
      vertex -3.15676 -30.0346 4
    endloop
  endfacet
  facet normal 0.309018 -0.951056 0
    outer loop
      vertex -10.391 0.951057 1
      vertex -10.391 0.951057 4
      vertex -11.509 0.587785 4
    endloop
  endfacet
  facet normal 0.309018 -0.951056 0
    outer loop
      vertex -11.509 0.587785 1
      vertex -10.391 0.951057 1
      vertex -11.509 0.587785 4
    endloop
  endfacet
  facet normal 1 0 0
    outer loop
      vertex -11.509 0.587785 1
      vertex -11.509 0.587785 4
      vertex -11.509 -0.587785 4
    endloop
  endfacet
  facet normal 1 0 0
    outer loop
      vertex -11.509 -0.587785 1
      vertex -11.509 0.587785 1
      vertex -11.509 -0.587785 4
    endloop
  endfacet
  facet normal 0.309018 0.951056 0
    outer loop
      vertex -10.391 -0.951057 4
      vertex -10.391 -0.951057 1
      vertex -11.509 -0.587785 4
    endloop
  endfacet
  facet normal 0.309018 0.951056 0
    outer loop
      vertex -11.509 -0.587785 4
      vertex -10.391 -0.951057 1
      vertex -11.509 -0.587785 1
    endloop
  endfacet
  facet normal -0.809017 0.587785 0
    outer loop
      vertex -9.7 0 4
      vertex -9.7 0 1
      vertex -10.391 -0.951057 4
    endloop
  endfacet
  facet normal -0.809017 0.587785 0
    outer loop
      vertex -10.391 -0.951057 4
      vertex -9.7 0 1
      vertex -10.391 -0.951057 1
    endloop
  endfacet
  facet normal -0.809017 -0.587785 0
    outer loop
      vertex -9.7 0 4
      vertex -10.391 0.951057 4
      vertex -9.7 0 1
    endloop
  endfacet
  facet normal -0.809017 -0.587785 0
    outer loop
      vertex -9.7 0 1
      vertex -10.391 0.951057 4
      vertex -10.391 0.951057 1
    endloop
  endfacet
  facet normal 0.309018 -0.951056 0
    outer loop
      vertex -10.391 14.4511 1
      vertex -10.391 14.4511 4
      vertex -11.509 14.0878 4
    endloop
  endfacet
  facet normal 0.309018 -0.951056 0
    outer loop
      vertex -11.509 14.0878 1
      vertex -10.391 14.4511 1
      vertex -11.509 14.0878 4
    endloop
  endfacet
  facet normal 1 0 0
    outer loop
      vertex -11.509 14.0878 1
      vertex -11.509 14.0878 4
      vertex -11.509 12.9122 4
    endloop
  endfacet
  facet normal 1 0 0
    outer loop
      vertex -11.509 12.9122 1
      vertex -11.509 14.0878 1
      vertex -11.509 12.9122 4
    endloop
  endfacet
  facet normal 0.309018 0.951056 0
    outer loop
      vertex -10.391 12.5489 4
      vertex -10.391 12.5489 1
      vertex -11.509 12.9122 4
    endloop
  endfacet
  facet normal 0.309018 0.951056 0
    outer loop
      vertex -11.509 12.9122 4
      vertex -10.391 12.5489 1
      vertex -11.509 12.9122 1
    endloop
  endfacet
  facet normal -0.809017 0.587785 0
    outer loop
      vertex -9.7 13.5 4
      vertex -9.7 13.5 1
      vertex -10.391 12.5489 4
    endloop
  endfacet
  facet normal -0.809017 0.587785 0
    outer loop
      vertex -10.391 12.5489 4
      vertex -9.7 13.5 1
      vertex -10.391 12.5489 1
    endloop
  endfacet
  facet normal -0.809017 -0.587785 0
    outer loop
      vertex -9.7 13.5 4
      vertex -10.391 14.4511 4
      vertex -9.7 13.5 1
    endloop
  endfacet
  facet normal -0.809017 -0.587785 0
    outer loop
      vertex -9.7 13.5 1
      vertex -10.391 14.4511 4
      vertex -10.391 14.4511 1
    endloop
  endfacet
  facet normal 0.309018 -0.951056 0
    outer loop
      vertex 11.009 0.951057 1
      vertex 11.009 0.951057 4
      vertex 9.89098 0.587785 4
    endloop
  endfacet
  facet normal 0.309018 -0.951056 0
    outer loop
      vertex 9.89098 0.587785 1
      vertex 11.009 0.951057 1
      vertex 9.89098 0.587785 4
    endloop
  endfacet
  facet normal 1 0 0
    outer loop
      vertex 9.89098 0.587785 1
      vertex 9.89098 0.587785 4
      vertex 9.89098 -0.587785 4
    endloop
  endfacet
  facet normal 1 0 0
    outer loop
      vertex 9.89098 -0.587785 1
      vertex 9.89098 0.587785 1
      vertex 9.89098 -0.587785 4
    endloop
  endfacet
  facet normal 0.309018 0.951056 0
    outer loop
      vertex 11.009 -0.951057 4
      vertex 11.009 -0.951057 1
      vertex 9.89098 -0.587785 4
    endloop
  endfacet
  facet normal 0.309018 0.951056 0
    outer loop
      vertex 9.89098 -0.587785 4
      vertex 11.009 -0.951057 1
      vertex 9.89098 -0.587785 1
    endloop
  endfacet
  facet normal -0.809017 0.587785 0
    outer loop
      vertex 11.7 0 4
      vertex 11.7 0 1
      vertex 11.009 -0.951057 4
    endloop
  endfacet
  facet normal -0.809017 0.587785 0
    outer loop
      vertex 11.009 -0.951057 4
      vertex 11.7 0 1
      vertex 11.009 -0.951057 1
    endloop
  endfacet
  facet normal -0.809017 -0.587785 0
    outer loop
      vertex 11.7 0 4
      vertex 11.009 0.951057 4
      vertex 11.7 0 1
    endloop
  endfacet
  facet normal -0.809017 -0.587785 0
    outer loop
      vertex 11.7 0 1
      vertex 11.009 0.951057 4
      vertex 11.009 0.951057 1
    endloop
  endfacet
  facet normal 0.309018 -0.951056 0
    outer loop
      vertex 11.009 14.4511 1
      vertex 11.009 14.4511 4
      vertex 9.89098 14.0878 4
    endloop
  endfacet
  facet normal 0.309018 -0.951056 0
    outer loop
      vertex 9.89098 14.0878 1
      vertex 11.009 14.4511 1
      vertex 9.89098 14.0878 4
    endloop
  endfacet
  facet normal 1 0 0
    outer loop
      vertex 9.89098 14.0878 1
      vertex 9.89098 14.0878 4
      vertex 9.89098 12.9122 4
    endloop
  endfacet
  facet normal 1 0 0
    outer loop
      vertex 9.89098 12.9122 1
      vertex 9.89098 14.0878 1
      vertex 9.89098 12.9122 4
    endloop
  endfacet
  facet normal 0.309018 0.951056 0
    outer loop
      vertex 11.009 12.5489 4
      vertex 11.009 12.5489 1
      vertex 9.89098 12.9122 4
    endloop
  endfacet
  facet normal 0.309018 0.951056 0
    outer loop
      vertex 9.89098 12.9122 4
      vertex 11.009 12.5489 1
      vertex 9.89098 12.9122 1
    endloop
  endfacet
  facet normal -0.809017 0.587785 0
    outer loop
      vertex 11.7 13.5 4
      vertex 11.7 13.5 1
      vertex 11.009 12.5489 4
    endloop
  endfacet
  facet normal -0.809017 0.587785 0
    outer loop
      vertex 11.009 12.5489 4
      vertex 11.7 13.5 1
      vertex 11.009 12.5489 1
    endloop
  endfacet
  facet normal -0.809017 -0.587785 0
    outer loop
      vertex 11.7 13.5 4
      vertex 11.009 14.4511 4
      vertex 11.7 13.5 1
    endloop
  endfacet
  facet normal -0.809017 -0.587785 0
    outer loop
      vertex 11.7 13.5 1
      vertex 11.009 14.4511 4
      vertex 11.009 14.4511 1
    endloop
  endfacet
  facet normal 0 0 1
    outer loop
      vertex -10.391 -0.951057 1
      vertex -9.7 0 1
      vertex -10.391 0.951057 1
    endloop
  endfacet
  facet normal 0 0 1
    outer loop
      vertex -11.509 -0.587785 1
      vertex -10.391 -0.951057 1
      vertex -11.509 0.587785 1
    endloop
  endfacet
  facet normal 0 0 1
    outer loop
      vertex -11.509 0.587785 1
      vertex -10.391 -0.951057 1
      vertex -10.391 0.951057 1
    endloop
  endfacet
  facet normal 0 0 1
    outer loop
      vertex -10.391 12.5489 1
      vertex -9.7 13.5 1
      vertex -10.391 14.4511 1
    endloop
  endfacet
  facet normal 0 0 1
    outer loop
      vertex -11.509 12.9122 1
      vertex -10.391 12.5489 1
      vertex -11.509 14.0878 1
    endloop
  endfacet
  facet normal 0 0 1
    outer loop
      vertex -11.509 14.0878 1
      vertex -10.391 12.5489 1
      vertex -10.391 14.4511 1
    endloop
  endfacet
  facet normal 0 0 1
    outer loop
      vertex 11.009 -0.951057 1
      vertex 11.7 0 1
      vertex 11.009 0.951057 1
    endloop
  endfacet
  facet normal 0 0 1
    outer loop
      vertex 9.89098 -0.587785 1
      vertex 11.009 -0.951057 1
      vertex 9.89098 0.587785 1
    endloop
  endfacet
  facet normal 0 0 1
    outer loop
      vertex 9.89098 0.587785 1
      vertex 11.009 -0.951057 1
      vertex 11.009 0.951057 1
    endloop
  endfacet
  facet normal 0 0 1
    outer loop
      vertex 11.009 12.5489 1
      vertex 11.7 13.5 1
      vertex 11.009 14.4511 1
    endloop
  endfacet
  facet normal 0 0 1
    outer loop
      vertex 9.89098 12.9122 1
      vertex 11.009 12.5489 1
      vertex 9.89098 14.0878 1
    endloop
  endfacet
  facet normal 0 0 1
    outer loop
      vertex 9.89098 14.0878 1
      vertex 11.009 12.5489 1
      vertex 11.009 14.4511 1
    endloop
  endfacet
endsolid OpenSCAD_Model
