solid OpenSCAD_Model
  facet normal 0 0 -1
    outer loop
      vertex -29 0 0
      vertex -28.3663 6.02944 0
      vertex -28.3663 -6.02944 0
    endloop
  endfacet
  facet normal 0 0 -1
    outer loop
      vertex -28.3663 -6.02944 0
      vertex -28.3663 6.02944 0
      vertex -26.4928 11.7954 0
    endloop
  endfacet
  facet normal 0 0 -1
    outer loop
      vertex -28.3663 -6.02944 0
      vertex -26.4928 11.7954 0
      vertex -23.4615 17.0458 0
    endloop
  endfacet
  facet normal 0 0 -1
    outer loop
      vertex -28.3663 -6.02944 0
      vertex -23.4615 17.0458 0
      vertex -19.4048 21.5512 0
    endloop
  endfacet
  facet normal 0 0 -1
    outer loop
      vertex -28.3663 -6.02944 0
      vertex -19.4048 21.5512 0
      vertex -14.5 25.1147 0
    endloop
  endfacet
  facet normal 0 0 -1
    outer loop
      vertex -28.3663 -6.02944 0
      vertex -14.5 25.1147 0
      vertex -8.96149 27.5806 0
    endloop
  endfacet
  facet normal 0 0 -1
    outer loop
      vertex -28.3663 -6.02944 0
      vertex -8.96149 27.5806 0
      vertex -3.03132 28.8411 0
    endloop
  endfacet
  facet normal 0 0 -1
    outer loop
      vertex -28.3663 -6.02944 0
      vertex -3.03132 28.8411 0
      vertex -2.75 28.8411 0
    endloop
  endfacet
  facet normal 0 0 -1
    outer loop
      vertex -28.3663 -6.02944 0
      vertex -2.75 28.8411 0
      vertex -2.75 23.55 0
    endloop
  endfacet
  facet normal 0 0 -1
    outer loop
      vertex -28.3663 -6.02944 0
      vertex -2.75 23.55 0
      vertex 2.75 23.55 0
    endloop
  endfacet
  facet normal 0 0 -1
    outer loop
      vertex 2.75 23.55 0
      vertex 2.75 28.8411 0
      vertex 3.03132 28.8411 0
    endloop
  endfacet
  facet normal 0 0 -1
    outer loop
      vertex 2.75 23.55 0
      vertex 3.03132 28.8411 0
      vertex 8.96149 27.5806 0
    endloop
  endfacet
  facet normal 0 0 -1
    outer loop
      vertex 2.75 23.55 0
      vertex 8.96149 27.5806 0
      vertex -28.3663 -6.02944 0
    endloop
  endfacet
  facet normal 0 0 -1
    outer loop
      vertex -28.3663 -6.02944 0
      vertex 8.96149 27.5806 0
      vertex 14.5 25.1147 0
    endloop
  endfacet
  facet normal 0 0 -1
    outer loop
      vertex -28.3663 -6.02944 0
      vertex 14.5 25.1147 0
      vertex 19.4048 21.5512 0
    endloop
  endfacet
  facet normal 0 0 -1
    outer loop
      vertex 0.964293 7.94167 0
      vertex 19.4048 21.5512 0
      vertex 23.4615 17.0458 0
    endloop
  endfacet
  facet normal 0 0 -1
    outer loop
      vertex 5.98809 5.30498 0
      vertex 23.4615 17.0458 0
      vertex 26.4928 11.7954 0
    endloop
  endfacet
  facet normal 0 0 -1
    outer loop
      vertex 7.08365 3.71778 0
      vertex 26.4928 11.7954 0
      vertex 28.3663 6.02944 0
    endloop
  endfacet
  facet normal 0 0 -1
    outer loop
      vertex 8 0 0
      vertex 28.3663 6.02944 0
      vertex 29 0 0
    endloop
  endfacet
  facet normal 0 0 -1
    outer loop
      vertex 5.98809 -5.30498 0
      vertex 29 0 0
      vertex 28.3663 -6.02944 0
    endloop
  endfacet
  facet normal 0 0 -1
    outer loop
      vertex 2.83684 -7.48013 0
      vertex 28.3663 -6.02944 0
      vertex 26.4928 -11.7954 0
    endloop
  endfacet
  facet normal 0 0 -1
    outer loop
      vertex -28.3663 -6.02944 0
      vertex 26.4928 -11.7954 0
      vertex 23.4615 -17.0458 0
    endloop
  endfacet
  facet normal 0 0 -1
    outer loop
      vertex -28.3663 -6.02944 0
      vertex 23.4615 -17.0458 0
      vertex 19.4048 -21.5512 0
    endloop
  endfacet
  facet normal 0 0 -1
    outer loop
      vertex -28.3663 -6.02944 0
      vertex 19.4048 -21.5512 0
      vertex 14.5 -25.1147 0
    endloop
  endfacet
  facet normal 0 0 -1
    outer loop
      vertex -28.3663 -6.02944 0
      vertex 14.5 -25.1147 0
      vertex 8.96149 -27.5806 0
    endloop
  endfacet
  facet normal 0 0 -1
    outer loop
      vertex -28.3663 -6.02944 0
      vertex 8.96149 -27.5806 0
      vertex 3.03132 -28.8411 0
    endloop
  endfacet
  facet normal 0 0 -1
    outer loop
      vertex -28.3663 -6.02944 0
      vertex 3.03132 -28.8411 0
      vertex -3.03132 -28.8411 0
    endloop
  endfacet
  facet normal 0 0 -1
    outer loop
      vertex -28.3663 -6.02944 0
      vertex -3.03132 -28.8411 0
      vertex -8.96149 -27.5806 0
    endloop
  endfacet
  facet normal 0 0 -1
    outer loop
      vertex -28.3663 -6.02944 0
      vertex -8.96149 -27.5806 0
      vertex -14.5 -25.1147 0
    endloop
  endfacet
  facet normal 0 0 -1
    outer loop
      vertex -28.3663 -6.02944 0
      vertex -14.5 -25.1147 0
      vertex -19.4048 -21.5512 0
    endloop
  endfacet
  facet normal 0 0 -1
    outer loop
      vertex -28.3663 -6.02944 0
      vertex -19.4048 -21.5512 0
      vertex -23.4615 -17.0458 0
    endloop
  endfacet
  facet normal 0 0 -1
    outer loop
      vertex -28.3663 -6.02944 0
      vertex -23.4615 -17.0458 0
      vertex -26.4928 -11.7954 0
    endloop
  endfacet
  facet normal 0 0 -1
    outer loop
      vertex -7.76753 -1.91452 0
      vertex -28.3663 -6.02944 0
      vertex -8 0 0
    endloop
  endfacet
  facet normal 0 0 -1
    outer loop
      vertex -5.98809 -5.30498 0
      vertex -28.3663 -6.02944 0
      vertex -7.08365 -3.71778 0
    endloop
  endfacet
  facet normal 0 0 -1
    outer loop
      vertex -28.3663 -6.02944 0
      vertex -7.76753 -1.91452 0
      vertex -7.08365 -3.71778 0
    endloop
  endfacet
  facet normal 0 0 -1
    outer loop
      vertex -4.54452 -6.58387 0
      vertex -28.3663 -6.02944 0
      vertex -5.98809 -5.30498 0
    endloop
  endfacet
  facet normal 0 0 -1
    outer loop
      vertex 0.964293 -7.94167 0
      vertex 26.4928 -11.7954 0
      vertex -0.964293 -7.94167 0
    endloop
  endfacet
  facet normal 0 0 -1
    outer loop
      vertex -28.3663 -6.02944 0
      vertex -4.54452 -6.58387 0
      vertex -2.83684 -7.48013 0
    endloop
  endfacet
  facet normal 0 0 -1
    outer loop
      vertex -28.3663 -6.02944 0
      vertex -2.83684 -7.48013 0
      vertex -0.964293 -7.94167 0
    endloop
  endfacet
  facet normal 0 0 -1
    outer loop
      vertex -28.3663 -6.02944 0
      vertex -0.964293 -7.94167 0
      vertex 26.4928 -11.7954 0
    endloop
  endfacet
  facet normal 0 0 -1
    outer loop
      vertex 2.83684 -7.48013 0
      vertex 26.4928 -11.7954 0
      vertex 0.964293 -7.94167 0
    endloop
  endfacet
  facet normal 0 0 -1
    outer loop
      vertex 4.54452 -6.58387 0
      vertex 28.3663 -6.02944 0
      vertex 2.83684 -7.48013 0
    endloop
  endfacet
  facet normal 0 0 -1
    outer loop
      vertex 5.98809 -5.30498 0
      vertex 28.3663 -6.02944 0
      vertex 4.54452 -6.58387 0
    endloop
  endfacet
  facet normal 0 0 -1
    outer loop
      vertex 7.08365 -3.71778 0
      vertex 29 0 0
      vertex 5.98809 -5.30498 0
    endloop
  endfacet
  facet normal 0 0 -1
    outer loop
      vertex 7.76753 -1.91452 0
      vertex 29 0 0
      vertex 7.08365 -3.71778 0
    endloop
  endfacet
  facet normal 0 0 -1
    outer loop
      vertex 8 0 0
      vertex 29 0 0
      vertex 7.76753 -1.91452 0
    endloop
  endfacet
  facet normal 0 0 -1
    outer loop
      vertex 7.76753 1.91452 0
      vertex 28.3663 6.02944 0
      vertex 8 0 0
    endloop
  endfacet
  facet normal 0 0 -1
    outer loop
      vertex 5.98809 5.30498 0
      vertex 26.4928 11.7954 0
      vertex 7.08365 3.71778 0
    endloop
  endfacet
  facet normal 0 0 -1
    outer loop
      vertex 4.54452 6.58387 0
      vertex 23.4615 17.0458 0
      vertex 5.98809 5.30498 0
    endloop
  endfacet
  facet normal 0 0 -1
    outer loop
      vertex 7.08365 3.71778 0
      vertex 28.3663 6.02944 0
      vertex 7.76753 1.91452 0
    endloop
  endfacet
  facet normal 0 0 -1
    outer loop
      vertex 2.83684 7.48013 0
      vertex 23.4615 17.0458 0
      vertex 4.54452 6.58387 0
    endloop
  endfacet
  facet normal 0 0 -1
    outer loop
      vertex -0.964293 7.94167 0
      vertex 19.4048 21.5512 0
      vertex 0.964293 7.94167 0
    endloop
  endfacet
  facet normal 0 0 -1
    outer loop
      vertex -5.98809 5.30498 0
      vertex -28.3663 -6.02944 0
      vertex -4.54452 6.58387 0
    endloop
  endfacet
  facet normal 0 0 -1
    outer loop
      vertex -2.83684 7.48013 0
      vertex 19.4048 21.5512 0
      vertex -0.964293 7.94167 0
    endloop
  endfacet
  facet normal 0 0 -1
    outer loop
      vertex -4.54452 6.58387 0
      vertex 19.4048 21.5512 0
      vertex -2.83684 7.48013 0
    endloop
  endfacet
  facet normal 0 0 -1
    outer loop
      vertex -28.3663 -6.02944 0
      vertex 19.4048 21.5512 0
      vertex -4.54452 6.58387 0
    endloop
  endfacet
  facet normal 0 0 -1
    outer loop
      vertex -7.08365 3.71778 0
      vertex -28.3663 -6.02944 0
      vertex -5.98809 5.30498 0
    endloop
  endfacet
  facet normal 0 0 -1
    outer loop
      vertex -7.76753 1.91452 0
      vertex -28.3663 -6.02944 0
      vertex -7.08365 3.71778 0
    endloop
  endfacet
  facet normal 0 0 -1
    outer loop
      vertex -8 0 0
      vertex -28.3663 -6.02944 0
      vertex -7.76753 1.91452 0
    endloop
  endfacet
  facet normal 0 0 -1
    outer loop
      vertex 0.964293 7.94167 0
      vertex 23.4615 17.0458 0
      vertex 2.83684 7.48013 0
    endloop
  endfacet
  facet normal -0.994522 0.104529 0
    outer loop
      vertex -29 0 0
      vertex -29 0 5.7
      vertex -28.3663 6.02944 0
    endloop
  endfacet
  facet normal -0.994522 0.104529 0
    outer loop
      vertex -28.3663 6.02944 0
      vertex -29 0 5.7
      vertex -28.3663 6.02944 5.7
    endloop
  endfacet
  facet normal -0.994522 -0.104529 0
    outer loop
      vertex -29 0 0
      vertex -28.3663 -6.02944 0
      vertex -29 0 5.7
    endloop
  endfacet
  facet normal -0.994522 -0.104529 0
    outer loop
      vertex -29 0 5.7
      vertex -28.3663 -6.02944 0
      vertex -28.3663 -6.02944 5.7
    endloop
  endfacet
  facet normal -0.951057 -0.309017 0
    outer loop
      vertex -28.3663 -6.02944 0
      vertex -26.4928 -11.7954 0
      vertex -28.3663 -6.02944 5.7
    endloop
  endfacet
  facet normal -0.951057 -0.309017 0
    outer loop
      vertex -28.3663 -6.02944 5.7
      vertex -26.4928 -11.7954 0
      vertex -26.4928 -11.7954 5.7
    endloop
  endfacet
  facet normal -0.866025 -0.5 0
    outer loop
      vertex -26.4928 -11.7954 0
      vertex -23.4615 -17.0458 0
      vertex -26.4928 -11.7954 5.7
    endloop
  endfacet
  facet normal -0.866025 -0.5 0
    outer loop
      vertex -26.4928 -11.7954 5.7
      vertex -23.4615 -17.0458 0
      vertex -23.4615 -17.0458 5.7
    endloop
  endfacet
  facet normal -0.743145 -0.669131 0
    outer loop
      vertex -23.4615 -17.0458 0
      vertex -19.4048 -21.5512 0
      vertex -23.4615 -17.0458 5.7
    endloop
  endfacet
  facet normal -0.743145 -0.669131 0
    outer loop
      vertex -23.4615 -17.0458 5.7
      vertex -19.4048 -21.5512 0
      vertex -19.4048 -21.5512 5.7
    endloop
  endfacet
  facet normal -0.587785 -0.809017 0
    outer loop
      vertex -19.4048 -21.5512 5.7
      vertex -19.4048 -21.5512 0
      vertex -14.5 -25.1147 0
    endloop
  endfacet
  facet normal -0.587785 -0.809017 0
    outer loop
      vertex -14.5 -25.1147 5.7
      vertex -19.4048 -21.5512 5.7
      vertex -14.5 -25.1147 0
    endloop
  endfacet
  facet normal -0.406737 -0.913545 0
    outer loop
      vertex -14.5 -25.1147 5.7
      vertex -14.5 -25.1147 0
      vertex -8.96149 -27.5806 0
    endloop
  endfacet
  facet normal -0.406737 -0.913545 0
    outer loop
      vertex -8.96149 -27.5806 5.7
      vertex -14.5 -25.1147 5.7
      vertex -8.96149 -27.5806 0
    endloop
  endfacet
  facet normal -0.207912 -0.978148 0
    outer loop
      vertex -8.96149 -27.5806 5.7
      vertex -8.96149 -27.5806 0
      vertex -3.03132 -28.8411 0
    endloop
  endfacet
  facet normal -0.207912 -0.978148 0
    outer loop
      vertex -3.03132 -28.8411 5.7
      vertex -8.96149 -27.5806 5.7
      vertex -3.03132 -28.8411 0
    endloop
  endfacet
  facet normal 0 -1 0
    outer loop
      vertex -3.03132 -28.8411 5.7
      vertex -3.03132 -28.8411 0
      vertex 3.03132 -28.8411 0
    endloop
  endfacet
  facet normal 0 -1 0
    outer loop
      vertex 3.03132 -28.8411 5.7
      vertex -3.03132 -28.8411 5.7
      vertex 3.03132 -28.8411 0
    endloop
  endfacet
  facet normal 0.207912 -0.978148 0
    outer loop
      vertex 3.03132 -28.8411 5.7
      vertex 3.03132 -28.8411 0
      vertex 8.96149 -27.5806 0
    endloop
  endfacet
  facet normal 0.207912 -0.978148 0
    outer loop
      vertex 8.96149 -27.5806 5.7
      vertex 3.03132 -28.8411 5.7
      vertex 8.96149 -27.5806 0
    endloop
  endfacet
  facet normal 0.406737 -0.913545 0
    outer loop
      vertex 8.96149 -27.5806 5.7
      vertex 8.96149 -27.5806 0
      vertex 14.5 -25.1147 0
    endloop
  endfacet
  facet normal 0.406737 -0.913545 0
    outer loop
      vertex 14.5 -25.1147 5.7
      vertex 8.96149 -27.5806 5.7
      vertex 14.5 -25.1147 0
    endloop
  endfacet
  facet normal 0.587785 -0.809017 0
    outer loop
      vertex 14.5 -25.1147 5.7
      vertex 14.5 -25.1147 0
      vertex 19.4048 -21.5512 0
    endloop
  endfacet
  facet normal 0.587785 -0.809017 0
    outer loop
      vertex 19.4048 -21.5512 5.7
      vertex 14.5 -25.1147 5.7
      vertex 19.4048 -21.5512 0
    endloop
  endfacet
  facet normal 0.743145 -0.669131 0
    outer loop
      vertex 19.4048 -21.5512 5.7
      vertex 19.4048 -21.5512 0
      vertex 23.4615 -17.0458 0
    endloop
  endfacet
  facet normal 0.743145 -0.669131 0
    outer loop
      vertex 23.4615 -17.0458 5.7
      vertex 19.4048 -21.5512 5.7
      vertex 23.4615 -17.0458 0
    endloop
  endfacet
  facet normal 0.866025 -0.5 0
    outer loop
      vertex 23.4615 -17.0458 5.7
      vertex 23.4615 -17.0458 0
      vertex 26.4928 -11.7954 0
    endloop
  endfacet
  facet normal 0.866025 -0.5 0
    outer loop
      vertex 26.4928 -11.7954 5.7
      vertex 23.4615 -17.0458 5.7
      vertex 26.4928 -11.7954 0
    endloop
  endfacet
  facet normal 0.951057 -0.309017 0
    outer loop
      vertex 26.4928 -11.7954 5.7
      vertex 26.4928 -11.7954 0
      vertex 28.3663 -6.02944 0
    endloop
  endfacet
  facet normal 0.951057 -0.309017 0
    outer loop
      vertex 28.3663 -6.02944 5.7
      vertex 26.4928 -11.7954 5.7
      vertex 28.3663 -6.02944 0
    endloop
  endfacet
  facet normal 0.994522 -0.104529 0
    outer loop
      vertex 28.3663 -6.02944 5.7
      vertex 28.3663 -6.02944 0
      vertex 29 0 0
    endloop
  endfacet
  facet normal 0.994522 -0.104529 0
    outer loop
      vertex 29 0 5.7
      vertex 28.3663 -6.02944 5.7
      vertex 29 0 0
    endloop
  endfacet
  facet normal 0.994522 0.104529 0
    outer loop
      vertex 29 0 0
      vertex 28.3663 6.02944 0
      vertex 28.3663 6.02944 5.7
    endloop
  endfacet
  facet normal 0.994522 0.104529 0
    outer loop
      vertex 29 0 5.7
      vertex 29 0 0
      vertex 28.3663 6.02944 5.7
    endloop
  endfacet
  facet normal 0.951057 0.309017 0
    outer loop
      vertex 28.3663 6.02944 0
      vertex 26.4928 11.7954 0
      vertex 26.4928 11.7954 5.7
    endloop
  endfacet
  facet normal 0.951057 0.309017 0
    outer loop
      vertex 28.3663 6.02944 5.7
      vertex 28.3663 6.02944 0
      vertex 26.4928 11.7954 5.7
    endloop
  endfacet
  facet normal 0.866025 0.5 0
    outer loop
      vertex 26.4928 11.7954 0
      vertex 23.4615 17.0458 0
      vertex 23.4615 17.0458 5.7
    endloop
  endfacet
  facet normal 0.866025 0.5 0
    outer loop
      vertex 26.4928 11.7954 5.7
      vertex 26.4928 11.7954 0
      vertex 23.4615 17.0458 5.7
    endloop
  endfacet
  facet normal 0.743145 0.669131 0
    outer loop
      vertex 23.4615 17.0458 0
      vertex 19.4048 21.5512 0
      vertex 19.4048 21.5512 5.7
    endloop
  endfacet
  facet normal 0.743145 0.669131 0
    outer loop
      vertex 23.4615 17.0458 5.7
      vertex 23.4615 17.0458 0
      vertex 19.4048 21.5512 5.7
    endloop
  endfacet
  facet normal 0.587785 0.809017 0
    outer loop
      vertex 14.5 25.1147 0
      vertex 14.5 25.1147 5.7
      vertex 19.4048 21.5512 0
    endloop
  endfacet
  facet normal 0.587785 0.809017 0
    outer loop
      vertex 19.4048 21.5512 0
      vertex 14.5 25.1147 5.7
      vertex 19.4048 21.5512 5.7
    endloop
  endfacet
  facet normal 0.406737 0.913545 0
    outer loop
      vertex 8.96149 27.5806 0
      vertex 8.96149 27.5806 5.7
      vertex 14.5 25.1147 0
    endloop
  endfacet
  facet normal 0.406737 0.913545 0
    outer loop
      vertex 14.5 25.1147 0
      vertex 8.96149 27.5806 5.7
      vertex 14.5 25.1147 5.7
    endloop
  endfacet
  facet normal 0.207912 0.978148 0
    outer loop
      vertex 3.03132 28.8411 0
      vertex 3.03132 28.8411 5.7
      vertex 8.96149 27.5806 0
    endloop
  endfacet
  facet normal 0.207912 0.978148 0
    outer loop
      vertex 8.96149 27.5806 0
      vertex 3.03132 28.8411 5.7
      vertex 8.96149 27.5806 5.7
    endloop
  endfacet
  facet normal 0 1 0
    outer loop
      vertex 2.75 28.8411 0
      vertex 2.75 28.8411 5.7
      vertex 3.03132 28.8411 0
    endloop
  endfacet
  facet normal 0 1 0
    outer loop
      vertex 3.03132 28.8411 0
      vertex 2.75 28.8411 5.7
      vertex 3.03132 28.8411 5.7
    endloop
  endfacet
  facet normal -1 0 0
    outer loop
      vertex 2.75 28.8411 5.7
      vertex 2.75 28.8411 0
      vertex 2.75 23.55 5.7
    endloop
  endfacet
  facet normal -1 0 0
    outer loop
      vertex 2.75 23.55 5.7
      vertex 2.75 28.8411 0
      vertex 2.75 23.55 0
    endloop
  endfacet
  facet normal 0 1 0
    outer loop
      vertex 2.75 23.55 5.7
      vertex 2.75 23.55 0
      vertex -2.75 23.55 5.7
    endloop
  endfacet
  facet normal 0 1 0
    outer loop
      vertex -2.75 23.55 5.7
      vertex 2.75 23.55 0
      vertex -2.75 23.55 0
    endloop
  endfacet
  facet normal 1 0 0
    outer loop
      vertex -2.75 28.8411 0
      vertex -2.75 28.8411 5.7
      vertex -2.75 23.55 5.7
    endloop
  endfacet
  facet normal 1 0 0
    outer loop
      vertex -2.75 23.55 0
      vertex -2.75 28.8411 0
      vertex -2.75 23.55 5.7
    endloop
  endfacet
  facet normal 0 1 0
    outer loop
      vertex -3.03132 28.8411 0
      vertex -3.03132 28.8411 5.7
      vertex -2.75 28.8411 0
    endloop
  endfacet
  facet normal 0 1 0
    outer loop
      vertex -2.75 28.8411 0
      vertex -3.03132 28.8411 5.7
      vertex -2.75 28.8411 5.7
    endloop
  endfacet
  facet normal -0.207912 0.978148 0
    outer loop
      vertex -8.96149 27.5806 0
      vertex -8.96149 27.5806 5.7
      vertex -3.03132 28.8411 0
    endloop
  endfacet
  facet normal -0.207912 0.978148 0
    outer loop
      vertex -3.03132 28.8411 0
      vertex -8.96149 27.5806 5.7
      vertex -3.03132 28.8411 5.7
    endloop
  endfacet
  facet normal -0.406737 0.913545 0
    outer loop
      vertex -14.5 25.1147 0
      vertex -14.5 25.1147 5.7
      vertex -8.96149 27.5806 0
    endloop
  endfacet
  facet normal -0.406737 0.913545 0
    outer loop
      vertex -8.96149 27.5806 0
      vertex -14.5 25.1147 5.7
      vertex -8.96149 27.5806 5.7
    endloop
  endfacet
  facet normal -0.587785 0.809017 0
    outer loop
      vertex -19.4048 21.5512 0
      vertex -19.4048 21.5512 5.7
      vertex -14.5 25.1147 0
    endloop
  endfacet
  facet normal -0.587785 0.809017 0
    outer loop
      vertex -14.5 25.1147 0
      vertex -19.4048 21.5512 5.7
      vertex -14.5 25.1147 5.7
    endloop
  endfacet
  facet normal -0.743145 0.669131 0
    outer loop
      vertex -23.4615 17.0458 0
      vertex -23.4615 17.0458 5.7
      vertex -19.4048 21.5512 0
    endloop
  endfacet
  facet normal -0.743145 0.669131 0
    outer loop
      vertex -19.4048 21.5512 0
      vertex -23.4615 17.0458 5.7
      vertex -19.4048 21.5512 5.7
    endloop
  endfacet
  facet normal -0.866025 0.5 0
    outer loop
      vertex -26.4928 11.7954 0
      vertex -26.4928 11.7954 5.7
      vertex -23.4615 17.0458 0
    endloop
  endfacet
  facet normal -0.866025 0.5 0
    outer loop
      vertex -23.4615 17.0458 0
      vertex -26.4928 11.7954 5.7
      vertex -23.4615 17.0458 5.7
    endloop
  endfacet
  facet normal -0.951057 0.309017 0
    outer loop
      vertex -28.3663 6.02944 0
      vertex -28.3663 6.02944 5.7
      vertex -26.4928 11.7954 0
    endloop
  endfacet
  facet normal -0.951057 0.309017 0
    outer loop
      vertex -26.4928 11.7954 0
      vertex -28.3663 6.02944 5.7
      vertex -26.4928 11.7954 5.7
    endloop
  endfacet
  facet normal 0.992709 -0.120536 0
    outer loop
      vertex -7.76753 1.91452 0
      vertex -7.76753 1.91452 5.7
      vertex -8 0 5.7
    endloop
  endfacet
  facet normal 0.992709 -0.120536 0
    outer loop
      vertex -8 0 0
      vertex -7.76753 1.91452 0
      vertex -8 0 5.7
    endloop
  endfacet
  facet normal 0.992709 0.120536 0
    outer loop
      vertex -8 0 5.7
      vertex -7.76753 -1.91452 5.7
      vertex -7.76753 -1.91452 0
    endloop
  endfacet
  facet normal 0.992709 0.120536 0
    outer loop
      vertex -8 0 0
      vertex -8 0 5.7
      vertex -7.76753 -1.91452 0
    endloop
  endfacet
  facet normal 0.935016 -0.354605 0
    outer loop
      vertex -7.08365 3.71778 0
      vertex -7.08365 3.71778 5.7
      vertex -7.76753 1.91452 5.7
    endloop
  endfacet
  facet normal 0.935016 -0.354605 0
    outer loop
      vertex -7.76753 1.91452 0
      vertex -7.08365 3.71778 0
      vertex -7.76753 1.91452 5.7
    endloop
  endfacet
  facet normal 0.822984 -0.568065 0
    outer loop
      vertex -5.98809 5.30498 0
      vertex -5.98809 5.30498 5.7
      vertex -7.08365 3.71778 5.7
    endloop
  endfacet
  facet normal 0.822984 -0.568065 0
    outer loop
      vertex -7.08365 3.71778 0
      vertex -5.98809 5.30498 0
      vertex -7.08365 3.71778 5.7
    endloop
  endfacet
  facet normal 0.663123 -0.748511 0
    outer loop
      vertex -4.54452 6.58387 0
      vertex -4.54452 6.58387 5.7
      vertex -5.98809 5.30498 5.7
    endloop
  endfacet
  facet normal 0.663123 -0.748511 0
    outer loop
      vertex -5.98809 5.30498 0
      vertex -4.54452 6.58387 0
      vertex -5.98809 5.30498 5.7
    endloop
  endfacet
  facet normal 0.464723 -0.885456 0
    outer loop
      vertex -2.83684 7.48013 0
      vertex -2.83684 7.48013 5.7
      vertex -4.54452 6.58387 5.7
    endloop
  endfacet
  facet normal 0.464723 -0.885456 0
    outer loop
      vertex -4.54452 6.58387 0
      vertex -2.83684 7.48013 0
      vertex -4.54452 6.58387 5.7
    endloop
  endfacet
  facet normal 0.239316 -0.970942 0
    outer loop
      vertex -0.964293 7.94167 0
      vertex -0.964293 7.94167 5.7
      vertex -2.83684 7.48013 5.7
    endloop
  endfacet
  facet normal 0.239316 -0.970942 0
    outer loop
      vertex -2.83684 7.48013 0
      vertex -0.964293 7.94167 0
      vertex -2.83684 7.48013 5.7
    endloop
  endfacet
  facet normal 0 -1 0
    outer loop
      vertex 0.964293 7.94167 0
      vertex 0.964293 7.94167 5.7
      vertex -0.964293 7.94167 5.7
    endloop
  endfacet
  facet normal 0 -1 0
    outer loop
      vertex -0.964293 7.94167 0
      vertex 0.964293 7.94167 0
      vertex -0.964293 7.94167 5.7
    endloop
  endfacet
  facet normal -0.239316 -0.970942 0
    outer loop
      vertex 2.83684 7.48013 0
      vertex 2.83684 7.48013 5.7
      vertex 0.964293 7.94167 5.7
    endloop
  endfacet
  facet normal -0.239316 -0.970942 0
    outer loop
      vertex 0.964293 7.94167 0
      vertex 2.83684 7.48013 0
      vertex 0.964293 7.94167 5.7
    endloop
  endfacet
  facet normal -0.464723 -0.885456 0
    outer loop
      vertex 4.54452 6.58387 0
      vertex 4.54452 6.58387 5.7
      vertex 2.83684 7.48013 5.7
    endloop
  endfacet
  facet normal -0.464723 -0.885456 0
    outer loop
      vertex 2.83684 7.48013 0
      vertex 4.54452 6.58387 0
      vertex 2.83684 7.48013 5.7
    endloop
  endfacet
  facet normal -0.663123 -0.748511 0
    outer loop
      vertex 5.98809 5.30498 0
      vertex 5.98809 5.30498 5.7
      vertex 4.54452 6.58387 5.7
    endloop
  endfacet
  facet normal -0.663123 -0.748511 0
    outer loop
      vertex 4.54452 6.58387 0
      vertex 5.98809 5.30498 0
      vertex 4.54452 6.58387 5.7
    endloop
  endfacet
  facet normal -0.822984 -0.568065 0
    outer loop
      vertex 7.08365 3.71778 5.7
      vertex 5.98809 5.30498 5.7
      vertex 7.08365 3.71778 0
    endloop
  endfacet
  facet normal -0.822984 -0.568065 0
    outer loop
      vertex 7.08365 3.71778 0
      vertex 5.98809 5.30498 5.7
      vertex 5.98809 5.30498 0
    endloop
  endfacet
  facet normal -0.935016 -0.354605 0
    outer loop
      vertex 7.76753 1.91452 5.7
      vertex 7.08365 3.71778 5.7
      vertex 7.76753 1.91452 0
    endloop
  endfacet
  facet normal -0.935016 -0.354605 0
    outer loop
      vertex 7.76753 1.91452 0
      vertex 7.08365 3.71778 5.7
      vertex 7.08365 3.71778 0
    endloop
  endfacet
  facet normal -0.992709 -0.120536 0
    outer loop
      vertex 8 0 5.7
      vertex 7.76753 1.91452 5.7
      vertex 8 0 0
    endloop
  endfacet
  facet normal -0.992709 -0.120536 0
    outer loop
      vertex 8 0 0
      vertex 7.76753 1.91452 5.7
      vertex 7.76753 1.91452 0
    endloop
  endfacet
  facet normal -0.992709 0.120536 0
    outer loop
      vertex 8 0 5.7
      vertex 8 0 0
      vertex 7.76753 -1.91452 5.7
    endloop
  endfacet
  facet normal -0.992709 0.120536 0
    outer loop
      vertex 7.76753 -1.91452 5.7
      vertex 8 0 0
      vertex 7.76753 -1.91452 0
    endloop
  endfacet
  facet normal -0.935016 0.354605 0
    outer loop
      vertex 7.76753 -1.91452 5.7
      vertex 7.76753 -1.91452 0
      vertex 7.08365 -3.71778 5.7
    endloop
  endfacet
  facet normal -0.935016 0.354605 0
    outer loop
      vertex 7.08365 -3.71778 5.7
      vertex 7.76753 -1.91452 0
      vertex 7.08365 -3.71778 0
    endloop
  endfacet
  facet normal -0.822984 0.568065 0
    outer loop
      vertex 7.08365 -3.71778 5.7
      vertex 7.08365 -3.71778 0
      vertex 5.98809 -5.30498 5.7
    endloop
  endfacet
  facet normal -0.822984 0.568065 0
    outer loop
      vertex 5.98809 -5.30498 5.7
      vertex 7.08365 -3.71778 0
      vertex 5.98809 -5.30498 0
    endloop
  endfacet
  facet normal -0.663123 0.748511 0
    outer loop
      vertex 5.98809 -5.30498 5.7
      vertex 5.98809 -5.30498 0
      vertex 4.54452 -6.58387 5.7
    endloop
  endfacet
  facet normal -0.663123 0.748511 0
    outer loop
      vertex 4.54452 -6.58387 5.7
      vertex 5.98809 -5.30498 0
      vertex 4.54452 -6.58387 0
    endloop
  endfacet
  facet normal -0.464723 0.885456 0
    outer loop
      vertex 4.54452 -6.58387 5.7
      vertex 4.54452 -6.58387 0
      vertex 2.83684 -7.48013 5.7
    endloop
  endfacet
  facet normal -0.464723 0.885456 0
    outer loop
      vertex 2.83684 -7.48013 5.7
      vertex 4.54452 -6.58387 0
      vertex 2.83684 -7.48013 0
    endloop
  endfacet
  facet normal -0.239316 0.970942 0
    outer loop
      vertex 2.83684 -7.48013 5.7
      vertex 2.83684 -7.48013 0
      vertex 0.964293 -7.94167 5.7
    endloop
  endfacet
  facet normal -0.239316 0.970942 0
    outer loop
      vertex 0.964293 -7.94167 5.7
      vertex 2.83684 -7.48013 0
      vertex 0.964293 -7.94167 0
    endloop
  endfacet
  facet normal 0 1 0
    outer loop
      vertex 0.964293 -7.94167 5.7
      vertex 0.964293 -7.94167 0
      vertex -0.964293 -7.94167 5.7
    endloop
  endfacet
  facet normal 0 1 0
    outer loop
      vertex -0.964293 -7.94167 5.7
      vertex 0.964293 -7.94167 0
      vertex -0.964293 -7.94167 0
    endloop
  endfacet
  facet normal 0.239316 0.970942 0
    outer loop
      vertex -0.964293 -7.94167 5.7
      vertex -0.964293 -7.94167 0
      vertex -2.83684 -7.48013 5.7
    endloop
  endfacet
  facet normal 0.239316 0.970942 0
    outer loop
      vertex -2.83684 -7.48013 5.7
      vertex -0.964293 -7.94167 0
      vertex -2.83684 -7.48013 0
    endloop
  endfacet
  facet normal 0.464723 0.885456 0
    outer loop
      vertex -2.83684 -7.48013 5.7
      vertex -2.83684 -7.48013 0
      vertex -4.54452 -6.58387 5.7
    endloop
  endfacet
  facet normal 0.464723 0.885456 0
    outer loop
      vertex -4.54452 -6.58387 5.7
      vertex -2.83684 -7.48013 0
      vertex -4.54452 -6.58387 0
    endloop
  endfacet
  facet normal 0.663123 0.748511 0
    outer loop
      vertex -4.54452 -6.58387 5.7
      vertex -4.54452 -6.58387 0
      vertex -5.98809 -5.30498 5.7
    endloop
  endfacet
  facet normal 0.663123 0.748511 0
    outer loop
      vertex -5.98809 -5.30498 5.7
      vertex -4.54452 -6.58387 0
      vertex -5.98809 -5.30498 0
    endloop
  endfacet
  facet normal 0.822984 0.568065 0
    outer loop
      vertex -7.08365 -3.71778 5.7
      vertex -5.98809 -5.30498 5.7
      vertex -5.98809 -5.30498 0
    endloop
  endfacet
  facet normal 0.822984 0.568065 0
    outer loop
      vertex -7.08365 -3.71778 0
      vertex -7.08365 -3.71778 5.7
      vertex -5.98809 -5.30498 0
    endloop
  endfacet
  facet normal 0.935016 0.354605 0
    outer loop
      vertex -7.76753 -1.91452 5.7
      vertex -7.08365 -3.71778 5.7
      vertex -7.08365 -3.71778 0
    endloop
  endfacet
  facet normal 0.935016 0.354605 0
    outer loop
      vertex -7.76753 -1.91452 0
      vertex -7.76753 -1.91452 5.7
      vertex -7.08365 -3.71778 0
    endloop
  endfacet
  facet normal 0 0 1
    outer loop
      vertex -28.3663 6.02944 5.7
      vertex -29 0 5.7
      vertex -28.3663 -6.02944 5.7
    endloop
  endfacet
  facet normal 0 0 1
    outer loop
      vertex -23.4615 -17.0458 5.7
      vertex -28.3663 6.02944 5.7
      vertex -26.4928 -11.7954 5.7
    endloop
  endfacet
  facet normal 0 0 1
    outer loop
      vertex -26.4928 -11.7954 5.7
      vertex -28.3663 6.02944 5.7
      vertex -28.3663 -6.02944 5.7
    endloop
  endfacet
  facet normal 0 0 1
    outer loop
      vertex -19.4048 -21.5512 5.7
      vertex -28.3663 6.02944 5.7
      vertex -23.4615 -17.0458 5.7
    endloop
  endfacet
  facet normal 0 0 1
    outer loop
      vertex -14.5 -25.1147 5.7
      vertex -28.3663 6.02944 5.7
      vertex -19.4048 -21.5512 5.7
    endloop
  endfacet
  facet normal 0 0 1
    outer loop
      vertex -8.96149 -27.5806 5.7
      vertex -28.3663 6.02944 5.7
      vertex -14.5 -25.1147 5.7
    endloop
  endfacet
  facet normal 0 0 1
    outer loop
      vertex -3.03132 -28.8411 5.7
      vertex -28.3663 6.02944 5.7
      vertex -8.96149 -27.5806 5.7
    endloop
  endfacet
  facet normal 0 0 1
    outer loop
      vertex 3.03132 -28.8411 5.7
      vertex -28.3663 6.02944 5.7
      vertex -3.03132 -28.8411 5.7
    endloop
  endfacet
  facet normal 0 0 1
    outer loop
      vertex 8.96149 -27.5806 5.7
      vertex -28.3663 6.02944 5.7
      vertex 3.03132 -28.8411 5.7
    endloop
  endfacet
  facet normal 0 0 1
    outer loop
      vertex 14.5 -25.1147 5.7
      vertex -28.3663 6.02944 5.7
      vertex 8.96149 -27.5806 5.7
    endloop
  endfacet
  facet normal 0 0 1
    outer loop
      vertex 19.4048 -21.5512 5.7
      vertex -28.3663 6.02944 5.7
      vertex 14.5 -25.1147 5.7
    endloop
  endfacet
  facet normal 0 0 1
    outer loop
      vertex -4.54452 -6.58387 5.7
      vertex -28.3663 6.02944 5.7
      vertex 19.4048 -21.5512 5.7
    endloop
  endfacet
  facet normal 0 0 1
    outer loop
      vertex 7.76753 1.91452 5.7
      vertex 8 0 5.7
      vertex 29 0 5.7
    endloop
  endfacet
  facet normal 0 0 1
    outer loop
      vertex 23.4615 17.0458 5.7
      vertex -28.3663 6.02944 5.7
      vertex 26.4928 11.7954 5.7
    endloop
  endfacet
  facet normal 0 0 1
    outer loop
      vertex 19.4048 21.5512 5.7
      vertex -28.3663 6.02944 5.7
      vertex 23.4615 17.0458 5.7
    endloop
  endfacet
  facet normal 0 0 1
    outer loop
      vertex 14.5 25.1147 5.7
      vertex -28.3663 6.02944 5.7
      vertex 19.4048 21.5512 5.7
    endloop
  endfacet
  facet normal 0 0 1
    outer loop
      vertex 2.75 23.55 5.7
      vertex -28.3663 6.02944 5.7
      vertex 14.5 25.1147 5.7
    endloop
  endfacet
  facet normal 0 0 1
    outer loop
      vertex -2.75 23.55 5.7
      vertex -2.75 28.8411 5.7
      vertex -28.3663 6.02944 5.7
    endloop
  endfacet
  facet normal 0 0 1
    outer loop
      vertex 8.96149 27.5806 5.7
      vertex 2.75 23.55 5.7
      vertex 14.5 25.1147 5.7
    endloop
  endfacet
  facet normal 0 0 1
    outer loop
      vertex -7.08365 -3.71778 5.7
      vertex -7.76753 -1.91452 5.7
      vertex -28.3663 6.02944 5.7
    endloop
  endfacet
  facet normal 0 0 1
    outer loop
      vertex -3.03132 28.8411 5.7
      vertex -28.3663 6.02944 5.7
      vertex -2.75 28.8411 5.7
    endloop
  endfacet
  facet normal 0 0 1
    outer loop
      vertex -8.96149 27.5806 5.7
      vertex -28.3663 6.02944 5.7
      vertex -3.03132 28.8411 5.7
    endloop
  endfacet
  facet normal 0 0 1
    outer loop
      vertex -14.5 25.1147 5.7
      vertex -28.3663 6.02944 5.7
      vertex -8.96149 27.5806 5.7
    endloop
  endfacet
  facet normal 0 0 1
    outer loop
      vertex -19.4048 21.5512 5.7
      vertex -28.3663 6.02944 5.7
      vertex -14.5 25.1147 5.7
    endloop
  endfacet
  facet normal 0 0 1
    outer loop
      vertex -23.4615 17.0458 5.7
      vertex -28.3663 6.02944 5.7
      vertex -19.4048 21.5512 5.7
    endloop
  endfacet
  facet normal 0 0 1
    outer loop
      vertex -26.4928 11.7954 5.7
      vertex -28.3663 6.02944 5.7
      vertex -23.4615 17.0458 5.7
    endloop
  endfacet
  facet normal 0 0 1
    outer loop
      vertex 2.83684 -7.48013 5.7
      vertex 0.964293 -7.94167 5.7
      vertex 23.4615 -17.0458 5.7
    endloop
  endfacet
  facet normal 0 0 1
    outer loop
      vertex -8 0 5.7
      vertex -7.76753 1.91452 5.7
      vertex -28.3663 6.02944 5.7
    endloop
  endfacet
  facet normal 0 0 1
    outer loop
      vertex 5.98809 -5.30498 5.7
      vertex 4.54452 -6.58387 5.7
      vertex 26.4928 -11.7954 5.7
    endloop
  endfacet
  facet normal 0 0 1
    outer loop
      vertex 4.54452 6.58387 5.7
      vertex 5.98809 5.30498 5.7
      vertex 28.3663 6.02944 5.7
    endloop
  endfacet
  facet normal 0 0 1
    outer loop
      vertex 7.76753 -1.91452 5.7
      vertex 7.08365 -3.71778 5.7
      vertex 28.3663 -6.02944 5.7
    endloop
  endfacet
  facet normal 0 0 1
    outer loop
      vertex -7.08365 3.71778 5.7
      vertex -28.3663 6.02944 5.7
      vertex -7.76753 1.91452 5.7
    endloop
  endfacet
  facet normal 0 0 1
    outer loop
      vertex -5.98809 5.30498 5.7
      vertex -4.54452 6.58387 5.7
      vertex -28.3663 6.02944 5.7
    endloop
  endfacet
  facet normal 0 0 1
    outer loop
      vertex -4.54452 -6.58387 5.7
      vertex -5.98809 -5.30498 5.7
      vertex -28.3663 6.02944 5.7
    endloop
  endfacet
  facet normal 0 0 1
    outer loop
      vertex -0.964293 7.94167 5.7
      vertex 0.964293 7.94167 5.7
      vertex 26.4928 11.7954 5.7
    endloop
  endfacet
  facet normal 0 0 1
    outer loop
      vertex 7.08365 3.71778 5.7
      vertex 7.76753 1.91452 5.7
      vertex 29 0 5.7
    endloop
  endfacet
  facet normal 0 0 1
    outer loop
      vertex -2.83684 7.48013 5.7
      vertex -28.3663 6.02944 5.7
      vertex -4.54452 6.58387 5.7
    endloop
  endfacet
  facet normal 0 0 1
    outer loop
      vertex -0.964293 7.94167 5.7
      vertex -28.3663 6.02944 5.7
      vertex -2.83684 7.48013 5.7
    endloop
  endfacet
  facet normal 0 0 1
    outer loop
      vertex 0.964293 7.94167 5.7
      vertex 2.83684 7.48013 5.7
      vertex 26.4928 11.7954 5.7
    endloop
  endfacet
  facet normal 0 0 1
    outer loop
      vertex 26.4928 11.7954 5.7
      vertex -28.3663 6.02944 5.7
      vertex -0.964293 7.94167 5.7
    endloop
  endfacet
  facet normal 0 0 1
    outer loop
      vertex 26.4928 11.7954 5.7
      vertex 2.83684 7.48013 5.7
      vertex 28.3663 6.02944 5.7
    endloop
  endfacet
  facet normal 0 0 1
    outer loop
      vertex 2.83684 7.48013 5.7
      vertex 4.54452 6.58387 5.7
      vertex 28.3663 6.02944 5.7
    endloop
  endfacet
  facet normal 0 0 1
    outer loop
      vertex 28.3663 6.02944 5.7
      vertex 5.98809 5.30498 5.7
      vertex 29 0 5.7
    endloop
  endfacet
  facet normal 0 0 1
    outer loop
      vertex 5.98809 5.30498 5.7
      vertex 7.08365 3.71778 5.7
      vertex 29 0 5.7
    endloop
  endfacet
  facet normal 0 0 1
    outer loop
      vertex 8 0 5.7
      vertex 7.76753 -1.91452 5.7
      vertex 28.3663 -6.02944 5.7
    endloop
  endfacet
  facet normal 0 0 1
    outer loop
      vertex 29 0 5.7
      vertex 8 0 5.7
      vertex 28.3663 -6.02944 5.7
    endloop
  endfacet
  facet normal 0 0 1
    outer loop
      vertex 7.08365 -3.71778 5.7
      vertex 5.98809 -5.30498 5.7
      vertex 26.4928 -11.7954 5.7
    endloop
  endfacet
  facet normal 0 0 1
    outer loop
      vertex -7.08365 3.71778 5.7
      vertex -5.98809 5.30498 5.7
      vertex -28.3663 6.02944 5.7
    endloop
  endfacet
  facet normal 0 0 1
    outer loop
      vertex 28.3663 -6.02944 5.7
      vertex 7.08365 -3.71778 5.7
      vertex 26.4928 -11.7954 5.7
    endloop
  endfacet
  facet normal 0 0 1
    outer loop
      vertex 4.54452 -6.58387 5.7
      vertex 2.83684 -7.48013 5.7
      vertex 23.4615 -17.0458 5.7
    endloop
  endfacet
  facet normal 0 0 1
    outer loop
      vertex 26.4928 -11.7954 5.7
      vertex 4.54452 -6.58387 5.7
      vertex 23.4615 -17.0458 5.7
    endloop
  endfacet
  facet normal 0 0 1
    outer loop
      vertex 23.4615 -17.0458 5.7
      vertex 0.964293 -7.94167 5.7
      vertex 19.4048 -21.5512 5.7
    endloop
  endfacet
  facet normal 0 0 1
    outer loop
      vertex 0.964293 -7.94167 5.7
      vertex -0.964293 -7.94167 5.7
      vertex 19.4048 -21.5512 5.7
    endloop
  endfacet
  facet normal 0 0 1
    outer loop
      vertex -0.964293 -7.94167 5.7
      vertex -2.83684 -7.48013 5.7
      vertex 19.4048 -21.5512 5.7
    endloop
  endfacet
  facet normal 0 0 1
    outer loop
      vertex -5.98809 -5.30498 5.7
      vertex -7.08365 -3.71778 5.7
      vertex -28.3663 6.02944 5.7
    endloop
  endfacet
  facet normal 0 0 1
    outer loop
      vertex -2.83684 -7.48013 5.7
      vertex -4.54452 -6.58387 5.7
      vertex 19.4048 -21.5512 5.7
    endloop
  endfacet
  facet normal 0 0 1
    outer loop
      vertex -7.76753 -1.91452 5.7
      vertex -8 0 5.7
      vertex -28.3663 6.02944 5.7
    endloop
  endfacet
  facet normal 0 0 1
    outer loop
      vertex 2.75 23.55 5.7
      vertex -2.75 23.55 5.7
      vertex -28.3663 6.02944 5.7
    endloop
  endfacet
  facet normal 0 0 1
    outer loop
      vertex 2.75 28.8411 5.7
      vertex 8.96149 27.5806 5.7
      vertex 3.03132 28.8411 5.7
    endloop
  endfacet
  facet normal 0 0 1
    outer loop
      vertex 2.75 28.8411 5.7
      vertex 2.75 23.55 5.7
      vertex 8.96149 27.5806 5.7
    endloop
  endfacet
endsolid OpenSCAD_Model
