solid OpenSCAD_Model
  facet normal -1 0 0
    outer loop
      vertex -56 -29 0
      vertex -56 -29 3
      vertex -56 35 0
    endloop
  endfacet
  facet normal -1 0 0
    outer loop
      vertex -56 35 0
      vertex -56 -29 3
      vertex -56 35 3
    endloop
  endfacet
  facet normal 0 -1 0
    outer loop
      vertex -56 -29 3
      vertex -56 -29 0
      vertex 56 -29 0
    endloop
  endfacet
  facet normal 0 -1 0
    outer loop
      vertex 56 -29 3
      vertex -56 -29 3
      vertex 56 -29 0
    endloop
  endfacet
  facet normal 0 0 -1
    outer loop
      vertex -1.25 28.0836 0
      vertex -56 35 0
      vertex -1.60893 35 0
    endloop
  endfacet
  facet normal 0 0 -1
    outer loop
      vertex 3.62007 30.2519 0
      vertex -1.60893 35 0
      vertex 1.61146 36.4338 0
    endloop
  endfacet
  facet normal 0 0 -1
    outer loop
      vertex 8.83452 31.3603 0
      vertex 1.61146 36.4338 0
      vertex 8.15509 37.8247 0
    endloop
  endfacet
  facet normal 0 0 -1
    outer loop
      vertex 14.1655 31.3603 0
      vertex 8.15509 37.8247 0
      vertex 14.8449 37.8247 0
    endloop
  endfacet
  facet normal 0 0 -1
    outer loop
      vertex 24.25 28.0836 0
      vertex 14.8449 37.8247 0
      vertex 21.3885 36.4338 0
    endloop
  endfacet
  facet normal 0 0 -1
    outer loop
      vertex 28.5628 24.9502 0
      vertex 21.3885 36.4338 0
      vertex 24.6089 35 0
    endloop
  endfacet
  facet normal 0 0 -1
    outer loop
      vertex 34.7954 16.3718 0
      vertex 24.6089 35 0
      vertex 56 35 0
    endloop
  endfacet
  facet normal 0 0 -1
    outer loop
      vertex -56 -29 0
      vertex -56 35 0
      vertex -54.2135 -25.1183 0
    endloop
  endfacet
  facet normal 0 0 -1
    outer loop
      vertex -14 6 0
      vertex -52.5365 30.4266 0
      vertex -56 35 0
    endloop
  endfacet
  facet normal 0 0 -1
    outer loop
      vertex -56 -29 0
      vertex -54.2135 -25.1183 0
      vertex -54.2135 -26.8817 0
    endloop
  endfacet
  facet normal 0 0 -1
    outer loop
      vertex -52.5365 -24.5734 0
      vertex -1.21352 -26.8817 0
      vertex 0.463525 -27.4266 0
    endloop
  endfacet
  facet normal 0 0 -1
    outer loop
      vertex -56 -29 0
      vertex -54.2135 -26.8817 0
      vertex -52.5365 -27.4266 0
    endloop
  endfacet
  facet normal 0 0 -1
    outer loop
      vertex -56 -29 0
      vertex -52.5365 -27.4266 0
      vertex 56 -29 0
    endloop
  endfacet
  facet normal 0 0 -1
    outer loop
      vertex -54.2135 -25.1183 0
      vertex -56 35 0
      vertex -52.5365 -24.5734 0
    endloop
  endfacet
  facet normal 0 0 -1
    outer loop
      vertex 1.5 -26 0
      vertex 56 -29 0
      vertex 0.463525 -27.4266 0
    endloop
  endfacet
  facet normal 0 0 -1
    outer loop
      vertex -54.2135 28.1183 0
      vertex -56 35 0
      vertex -54.2135 29.8817 0
    endloop
  endfacet
  facet normal 0 0 -1
    outer loop
      vertex -14 6 0
      vertex -51.5 29 0
      vertex -52.5365 30.4266 0
    endloop
  endfacet
  facet normal 0 0 -1
    outer loop
      vertex -52.5365 -24.5734 0
      vertex -56 35 0
      vertex -54.2135 28.1183 0
    endloop
  endfacet
  facet normal 0 0 -1
    outer loop
      vertex -52.5365 27.5734 0
      vertex -52.5365 -24.5734 0
      vertex -54.2135 28.1183 0
    endloop
  endfacet
  facet normal 0 0 -1
    outer loop
      vertex -14 6 0
      vertex -52.5365 27.5734 0
      vertex -51.5 29 0
    endloop
  endfacet
  facet normal 0 0 -1
    outer loop
      vertex -52.5365 -24.5734 0
      vertex -52.5365 27.5734 0
      vertex -14 6 0
    endloop
  endfacet
  facet normal 0 0 -1
    outer loop
      vertex 24.25 28.0836 0
      vertex 21.3885 36.4338 0
      vertex 28.5628 24.9502 0
    endloop
  endfacet
  facet normal 0 0 -1
    outer loop
      vertex -52.5365 -24.5734 0
      vertex -14 6 0
      vertex -13.4428 0.698252 0
    endloop
  endfacet
  facet normal 0 0 -1
    outer loop
      vertex -52.5365 -24.5734 0
      vertex -13.4428 0.698252 0
      vertex -11.7954 -4.37178 0
    endloop
  endfacet
  facet normal 0 0 -1
    outer loop
      vertex 51.7865 -26.8817 0
      vertex 56 -29 0
      vertex 24.25 -16.0836 0
    endloop
  endfacet
  facet normal 0 0 -1
    outer loop
      vertex -52.5365 -24.5734 0
      vertex -11.7954 -4.37178 0
      vertex -9.12993 -8.98852 0
    endloop
  endfacet
  facet normal 0 0 -1
    outer loop
      vertex 28.5628 -12.9502 0
      vertex 51.7865 -26.8817 0
      vertex 24.25 -16.0836 0
    endloop
  endfacet
  facet normal 0 0 -1
    outer loop
      vertex -52.5365 -24.5734 0
      vertex -9.12993 -8.98852 0
      vertex -5.56283 -12.9502 0
    endloop
  endfacet
  facet normal 0 0 -1
    outer loop
      vertex -52.5365 -24.5734 0
      vertex -5.56283 -12.9502 0
      vertex -1.25 -16.0836 0
    endloop
  endfacet
  facet normal 0 0 -1
    outer loop
      vertex -52.5365 -24.5734 0
      vertex -1.25 -16.0836 0
      vertex 3.62007 -18.2519 0
    endloop
  endfacet
  facet normal 0 0 -1
    outer loop
      vertex -52.5365 -24.5734 0
      vertex 3.62007 -18.2519 0
      vertex 8.83452 -19.3603 0
    endloop
  endfacet
  facet normal 0 0 -1
    outer loop
      vertex 0.463525 -24.5734 0
      vertex 8.83452 -19.3603 0
      vertex 56 -29 0
    endloop
  endfacet
  facet normal 0 0 -1
    outer loop
      vertex 19.3799 -18.2519 0
      vertex 56 -29 0
      vertex 14.1655 -19.3603 0
    endloop
  endfacet
  facet normal 0 0 -1
    outer loop
      vertex 24.25 -16.0836 0
      vertex 56 -29 0
      vertex 19.3799 -18.2519 0
    endloop
  endfacet
  facet normal 0 0 -1
    outer loop
      vertex 54.5 -26 0
      vertex 56 -29 0
      vertex 53.4635 -27.4266 0
    endloop
  endfacet
  facet normal 0 0 -1
    outer loop
      vertex 0.463525 -24.5734 0
      vertex 56 -29 0
      vertex 1.5 -26 0
    endloop
  endfacet
  facet normal 0 0 -1
    outer loop
      vertex 53.4635 -24.5734 0
      vertex 37 6 0
      vertex 54.5 -26 0
    endloop
  endfacet
  facet normal 0 0 -1
    outer loop
      vertex 3.62007 30.2519 0
      vertex 1.61146 36.4338 0
      vertex 8.83452 31.3603 0
    endloop
  endfacet
  facet normal 0 0 -1
    outer loop
      vertex 51.7865 -26.8817 0
      vertex 32.1299 -8.98852 0
      vertex 51.7865 -25.1183 0
    endloop
  endfacet
  facet normal 0 0 -1
    outer loop
      vertex 36.4428 11.3017 0
      vertex 56 -29 0
      vertex 54.5 -26 0
    endloop
  endfacet
  facet normal 0 0 -1
    outer loop
      vertex 28.5628 24.9502 0
      vertex 24.6089 35 0
      vertex 32.1299 20.9885 0
    endloop
  endfacet
  facet normal 0 0 -1
    outer loop
      vertex 51.7865 29.8817 0
      vertex 36.4428 11.3017 0
      vertex 56 35 0
    endloop
  endfacet
  facet normal 0 0 -1
    outer loop
      vertex 32.1299 20.9885 0
      vertex 24.6089 35 0
      vertex 34.7954 16.3718 0
    endloop
  endfacet
  facet normal 0 0 -1
    outer loop
      vertex 36.4428 11.3017 0
      vertex 34.7954 16.3718 0
      vertex 56 35 0
    endloop
  endfacet
  facet normal 0 0 -1
    outer loop
      vertex 19.3799 30.2519 0
      vertex 14.8449 37.8247 0
      vertex 24.25 28.0836 0
    endloop
  endfacet
  facet normal 0 0 -1
    outer loop
      vertex 36.4428 11.3017 0
      vertex 54.5 -26 0
      vertex 37 6 0
    endloop
  endfacet
  facet normal 0 0 -1
    outer loop
      vertex 8.83452 31.3603 0
      vertex 8.15509 37.8247 0
      vertex 14.1655 31.3603 0
    endloop
  endfacet
  facet normal 0 0 -1
    outer loop
      vertex 14.1655 31.3603 0
      vertex 14.8449 37.8247 0
      vertex 19.3799 30.2519 0
    endloop
  endfacet
  facet normal 0 0 -1
    outer loop
      vertex 37 6 0
      vertex 53.4635 -24.5734 0
      vertex 36.4428 0.698252 0
    endloop
  endfacet
  facet normal 0 0 -1
    outer loop
      vertex 53.4635 -27.4266 0
      vertex 56 -29 0
      vertex 51.7865 -26.8817 0
    endloop
  endfacet
  facet normal 0 0 -1
    outer loop
      vertex -1.25 28.0836 0
      vertex -1.60893 35 0
      vertex 3.62007 30.2519 0
    endloop
  endfacet
  facet normal 0 0 -1
    outer loop
      vertex -5.56283 24.9502 0
      vertex -56 35 0
      vertex -1.25 28.0836 0
    endloop
  endfacet
  facet normal 0 0 -1
    outer loop
      vertex -1.21352 -26.8817 0
      vertex -52.5365 -24.5734 0
      vertex -1.21352 -25.1183 0
    endloop
  endfacet
  facet normal 0 0 -1
    outer loop
      vertex -9.12993 20.9885 0
      vertex -56 35 0
      vertex -5.56283 24.9502 0
    endloop
  endfacet
  facet normal 0 0 -1
    outer loop
      vertex -11.7954 16.3718 0
      vertex -56 35 0
      vertex -9.12993 20.9885 0
    endloop
  endfacet
  facet normal 0 0 -1
    outer loop
      vertex -13.4428 11.3017 0
      vertex -56 35 0
      vertex -11.7954 16.3718 0
    endloop
  endfacet
  facet normal 0 0 -1
    outer loop
      vertex -52.5365 -24.5734 0
      vertex 8.83452 -19.3603 0
      vertex -1.21352 -25.1183 0
    endloop
  endfacet
  facet normal 0 0 -1
    outer loop
      vertex 51.7865 -25.1183 0
      vertex 36.4428 0.698252 0
      vertex 53.4635 -24.5734 0
    endloop
  endfacet
  facet normal 0 0 -1
    outer loop
      vertex -54.2135 29.8817 0
      vertex -56 35 0
      vertex -52.5365 30.4266 0
    endloop
  endfacet
  facet normal 0 0 -1
    outer loop
      vertex -14 6 0
      vertex -56 35 0
      vertex -13.4428 11.3017 0
    endloop
  endfacet
  facet normal 0 0 -1
    outer loop
      vertex -51.5 -26 0
      vertex 0.463525 -27.4266 0
      vertex 56 -29 0
    endloop
  endfacet
  facet normal 0 0 -1
    outer loop
      vertex -1.21352 -25.1183 0
      vertex 8.83452 -19.3603 0
      vertex 0.463525 -24.5734 0
    endloop
  endfacet
  facet normal 0 0 -1
    outer loop
      vertex 51.7865 -25.1183 0
      vertex 34.7954 -4.37178 0
      vertex 36.4428 0.698252 0
    endloop
  endfacet
  facet normal 0 0 -1
    outer loop
      vertex 14.1655 -19.3603 0
      vertex 56 -29 0
      vertex 8.83452 -19.3603 0
    endloop
  endfacet
  facet normal 0 0 -1
    outer loop
      vertex 53.4635 27.5734 0
      vertex 56 -29 0
      vertex 51.7865 28.1183 0
    endloop
  endfacet
  facet normal 0 0 -1
    outer loop
      vertex 51.7865 28.1183 0
      vertex 36.4428 11.3017 0
      vertex 51.7865 29.8817 0
    endloop
  endfacet
  facet normal 0 0 -1
    outer loop
      vertex 53.4635 30.4266 0
      vertex 51.7865 29.8817 0
      vertex 56 35 0
    endloop
  endfacet
  facet normal 0 0 -1
    outer loop
      vertex 56 -29 0
      vertex 36.4428 11.3017 0
      vertex 51.7865 28.1183 0
    endloop
  endfacet
  facet normal 0 0 -1
    outer loop
      vertex 53.4635 30.4266 0
      vertex 56 35 0
      vertex 54.5 29 0
    endloop
  endfacet
  facet normal 0 0 -1
    outer loop
      vertex 56 -29 0
      vertex 53.4635 27.5734 0
      vertex 54.5 29 0
    endloop
  endfacet
  facet normal 0 0 -1
    outer loop
      vertex 56 -29 0
      vertex 54.5 29 0
      vertex 56 35 0
    endloop
  endfacet
  facet normal 0 0 -1
    outer loop
      vertex -51.5 -26 0
      vertex 56 -29 0
      vertex -52.5365 -27.4266 0
    endloop
  endfacet
  facet normal 0 0 -1
    outer loop
      vertex -52.5365 -24.5734 0
      vertex 0.463525 -27.4266 0
      vertex -51.5 -26 0
    endloop
  endfacet
  facet normal 0 0 -1
    outer loop
      vertex 51.7865 -26.8817 0
      vertex 28.5628 -12.9502 0
      vertex 32.1299 -8.98852 0
    endloop
  endfacet
  facet normal 0 0 -1
    outer loop
      vertex 34.7954 -4.37178 0
      vertex 51.7865 -25.1183 0
      vertex 32.1299 -8.98852 0
    endloop
  endfacet
  facet normal 0 1 0
    outer loop
      vertex -56 35 0
      vertex -56 35 3
      vertex -1.60893 35 0
    endloop
  endfacet
  facet normal 0 1 0
    outer loop
      vertex -1.60893 35 3
      vertex -56 35 3
      vertex 4.43269 35 3
    endloop
  endfacet
  facet normal 0 1 0
    outer loop
      vertex -1.60893 35 0
      vertex -56 35 3
      vertex -1.60893 35 3
    endloop
  endfacet
  facet normal 0 0 1
    outer loop
      vertex 0.463525 -27.4266 3
      vertex -56 -29 3
      vertex 56 -29 3
    endloop
  endfacet
  facet normal 0 0 1
    outer loop
      vertex 56 35 3
      vertex 18.5673 35 3
      vertex 20.7705 34.5317 3
    endloop
  endfacet
  facet normal 0 0 1
    outer loop
      vertex 56 35 3
      vertex 20.7705 34.5317 3
      vertex 26.5 31.9808 3
    endloop
  endfacet
  facet normal 0 0 1
    outer loop
      vertex 56 35 3
      vertex 26.5 31.9808 3
      vertex 31.5739 28.2943 3
    endloop
  endfacet
  facet normal 0 0 1
    outer loop
      vertex 56 35 3
      vertex 31.5739 28.2943 3
      vertex 35.7705 23.6336 3
    endloop
  endfacet
  facet normal 0 0 1
    outer loop
      vertex 51.7865 28.1183 3
      vertex 38.9064 18.2021 3
      vertex 56 -29 3
    endloop
  endfacet
  facet normal 0 0 1
    outer loop
      vertex 56 35 3
      vertex 35.7705 23.6336 3
      vertex 38.9064 18.2021 3
    endloop
  endfacet
  facet normal 0 0 1
    outer loop
      vertex 38.9064 18.2021 3
      vertex 40.8444 12.2374 3
      vertex 56 -29 3
    endloop
  endfacet
  facet normal 0 0 1
    outer loop
      vertex 1.5 -26 3
      vertex 0.463525 -27.4266 3
      vertex 56 -29 3
    endloop
  endfacet
  facet normal 0 0 1
    outer loop
      vertex 51.7865 29.8817 3
      vertex 53.4635 30.4266 3
      vertex 56 35 3
    endloop
  endfacet
  facet normal 0 0 1
    outer loop
      vertex -52.5365 -24.5734 3
      vertex -51.5 -26 3
      vertex -8.57392 -16.2943 3
    endloop
  endfacet
  facet normal 0 0 1
    outer loop
      vertex 51.7865 -26.8817 3
      vertex 26.5 -19.9808 3
      vertex 56 -29 3
    endloop
  endfacet
  facet normal 0 0 1
    outer loop
      vertex 26.5 -19.9808 3
      vertex 20.7705 -22.5317 3
      vertex 56 -29 3
    endloop
  endfacet
  facet normal 0 0 1
    outer loop
      vertex 2.22949 -22.5317 3
      vertex -3.5 -19.9808 3
      vertex -56 -29 3
    endloop
  endfacet
  facet normal 0 0 1
    outer loop
      vertex 20.7705 -22.5317 3
      vertex 14.6359 -23.8357 3
      vertex 56 -29 3
    endloop
  endfacet
  facet normal 0 0 1
    outer loop
      vertex -12.7705 -11.6336 3
      vertex -15.9064 -6.2021 3
      vertex -56 35 3
    endloop
  endfacet
  facet normal 0 0 1
    outer loop
      vertex -8.57392 -16.2943 3
      vertex -56 -29 3
      vertex -3.5 -19.9808 3
    endloop
  endfacet
  facet normal 0 0 1
    outer loop
      vertex -52.5365 -27.4266 3
      vertex -56 -29 3
      vertex -8.57392 -16.2943 3
    endloop
  endfacet
  facet normal 0 0 1
    outer loop
      vertex -56 35 3
      vertex -8.57392 -16.2943 3
      vertex -12.7705 -11.6336 3
    endloop
  endfacet
  facet normal 0 0 1
    outer loop
      vertex -56 35 3
      vertex -15.9064 -6.2021 3
      vertex -17.8444 -0.237351 3
    endloop
  endfacet
  facet normal 0 0 1
    outer loop
      vertex -56 35 3
      vertex -17.8444 -0.237351 3
      vertex -18.5 6 3
    endloop
  endfacet
  facet normal 0 0 1
    outer loop
      vertex 51.7865 -26.8817 3
      vertex 51.7865 -25.1183 3
      vertex 35.7705 -11.6336 3
    endloop
  endfacet
  facet normal 0 0 1
    outer loop
      vertex -56 35 3
      vertex -18.5 6 3
      vertex -17.8444 12.2374 3
    endloop
  endfacet
  facet normal 0 0 1
    outer loop
      vertex -12.7705 23.6336 3
      vertex -56 35 3
      vertex -15.9064 18.2021 3
    endloop
  endfacet
  facet normal 0 0 1
    outer loop
      vertex -8.57392 28.2943 3
      vertex -56 35 3
      vertex -12.7705 23.6336 3
    endloop
  endfacet
  facet normal 0 0 1
    outer loop
      vertex -3.5 31.9808 3
      vertex -56 35 3
      vertex -8.57392 28.2943 3
    endloop
  endfacet
  facet normal 0 0 1
    outer loop
      vertex 2.22949 34.5317 3
      vertex -56 35 3
      vertex -3.5 31.9808 3
    endloop
  endfacet
  facet normal 0 0 1
    outer loop
      vertex 4.43269 35 3
      vertex -56 35 3
      vertex 2.22949 34.5317 3
    endloop
  endfacet
  facet normal 0 0 1
    outer loop
      vertex -51.5 29 3
      vertex -52.5365 27.5734 3
      vertex -8.57392 -16.2943 3
    endloop
  endfacet
  facet normal 0 0 1
    outer loop
      vertex -56 35 3
      vertex -56 -29 3
      vertex -54.2135 -26.8817 3
    endloop
  endfacet
  facet normal 0 0 1
    outer loop
      vertex -51.5 -26 3
      vertex -52.5365 -27.4266 3
      vertex -8.57392 -16.2943 3
    endloop
  endfacet
  facet normal 0 0 1
    outer loop
      vertex -56 35 3
      vertex -54.2135 -26.8817 3
      vertex -54.2135 -25.1183 3
    endloop
  endfacet
  facet normal 0 0 1
    outer loop
      vertex -54.2135 28.1183 3
      vertex -52.5365 -24.5734 3
      vertex -8.57392 -16.2943 3
    endloop
  endfacet
  facet normal 0 0 1
    outer loop
      vertex -56 35 3
      vertex -54.2135 -25.1183 3
      vertex -52.5365 -24.5734 3
    endloop
  endfacet
  facet normal 0 0 1
    outer loop
      vertex -54.2135 -26.8817 3
      vertex -56 -29 3
      vertex -52.5365 -27.4266 3
    endloop
  endfacet
  facet normal 0 0 1
    outer loop
      vertex -52.5365 27.5734 3
      vertex -54.2135 28.1183 3
      vertex -8.57392 -16.2943 3
    endloop
  endfacet
  facet normal 0 0 1
    outer loop
      vertex -56 35 3
      vertex -52.5365 -24.5734 3
      vertex -54.2135 28.1183 3
    endloop
  endfacet
  facet normal 0 0 1
    outer loop
      vertex -1.21352 -25.1183 3
      vertex 0.463525 -24.5734 3
      vertex -56 -29 3
    endloop
  endfacet
  facet normal 0 0 1
    outer loop
      vertex -56 35 3
      vertex -54.2135 28.1183 3
      vertex -54.2135 29.8817 3
    endloop
  endfacet
  facet normal 0 0 1
    outer loop
      vertex -56 35 3
      vertex -52.5365 30.4266 3
      vertex -8.57392 -16.2943 3
    endloop
  endfacet
  facet normal 0 0 1
    outer loop
      vertex -56 35 3
      vertex -54.2135 29.8817 3
      vertex -52.5365 30.4266 3
    endloop
  endfacet
  facet normal 0 0 1
    outer loop
      vertex -52.5365 30.4266 3
      vertex -51.5 29 3
      vertex -8.57392 -16.2943 3
    endloop
  endfacet
  facet normal 0 0 1
    outer loop
      vertex 1.5 -26 3
      vertex 56 -29 3
      vertex 14.6359 -23.8357 3
    endloop
  endfacet
  facet normal 0 0 1
    outer loop
      vertex 53.4635 -27.4266 3
      vertex 51.7865 -26.8817 3
      vertex 56 -29 3
    endloop
  endfacet
  facet normal 0 0 1
    outer loop
      vertex -1.21352 -25.1183 3
      vertex -56 -29 3
      vertex -1.21352 -26.8817 3
    endloop
  endfacet
  facet normal 0 0 1
    outer loop
      vertex 0.463525 -24.5734 3
      vertex 1.5 -26 3
      vertex 14.6359 -23.8357 3
    endloop
  endfacet
  facet normal 0 0 1
    outer loop
      vertex 8.36415 -23.8357 3
      vertex 0.463525 -24.5734 3
      vertex 14.6359 -23.8357 3
    endloop
  endfacet
  facet normal 0 0 1
    outer loop
      vertex 8.36415 -23.8357 3
      vertex -56 -29 3
      vertex 0.463525 -24.5734 3
    endloop
  endfacet
  facet normal 0 0 1
    outer loop
      vertex 51.7865 -26.8817 3
      vertex 35.7705 -11.6336 3
      vertex 31.5739 -16.2943 3
    endloop
  endfacet
  facet normal 0 0 1
    outer loop
      vertex -1.21352 -26.8817 3
      vertex -56 -29 3
      vertex 0.463525 -27.4266 3
    endloop
  endfacet
  facet normal 0 0 1
    outer loop
      vertex 31.5739 -16.2943 3
      vertex 26.5 -19.9808 3
      vertex 51.7865 -26.8817 3
    endloop
  endfacet
  facet normal 0 0 1
    outer loop
      vertex 53.4635 -24.5734 3
      vertex 54.5 -26 3
      vertex 40.8444 -0.237351 3
    endloop
  endfacet
  facet normal 0 0 1
    outer loop
      vertex 38.9064 -6.2021 3
      vertex 35.7705 -11.6336 3
      vertex 51.7865 -25.1183 3
    endloop
  endfacet
  facet normal 0 0 1
    outer loop
      vertex -17.8444 12.2374 3
      vertex -15.9064 18.2021 3
      vertex -56 35 3
    endloop
  endfacet
  facet normal 0 0 1
    outer loop
      vertex 54.5 -26 3
      vertex 53.4635 -27.4266 3
      vertex 56 -29 3
    endloop
  endfacet
  facet normal 0 0 1
    outer loop
      vertex 51.7865 -25.1183 3
      vertex 53.4635 -24.5734 3
      vertex 38.9064 -6.2021 3
    endloop
  endfacet
  facet normal 0 0 1
    outer loop
      vertex 8.36415 -23.8357 3
      vertex 2.22949 -22.5317 3
      vertex -56 -29 3
    endloop
  endfacet
  facet normal 0 0 1
    outer loop
      vertex 53.4635 27.5734 3
      vertex 51.7865 28.1183 3
      vertex 56 -29 3
    endloop
  endfacet
  facet normal 0 0 1
    outer loop
      vertex 51.7865 29.8817 3
      vertex 38.9064 18.2021 3
      vertex 51.7865 28.1183 3
    endloop
  endfacet
  facet normal 0 0 1
    outer loop
      vertex 54.5 29 3
      vertex 53.4635 27.5734 3
      vertex 56 -29 3
    endloop
  endfacet
  facet normal 0 0 1
    outer loop
      vertex 56 35 3
      vertex 38.9064 18.2021 3
      vertex 51.7865 29.8817 3
    endloop
  endfacet
  facet normal 0 0 1
    outer loop
      vertex 56 35 3
      vertex 54.5 29 3
      vertex 56 -29 3
    endloop
  endfacet
  facet normal 0 0 1
    outer loop
      vertex 56 35 3
      vertex 53.4635 30.4266 3
      vertex 54.5 29 3
    endloop
  endfacet
  facet normal 0 0 1
    outer loop
      vertex 40.8444 12.2374 3
      vertex 41.5 6 3
      vertex 56 -29 3
    endloop
  endfacet
  facet normal 0 0 1
    outer loop
      vertex 41.5 6 3
      vertex 54.5 -26 3
      vertex 56 -29 3
    endloop
  endfacet
  facet normal 0 0 1
    outer loop
      vertex 41.5 6 3
      vertex 40.8444 -0.237351 3
      vertex 54.5 -26 3
    endloop
  endfacet
  facet normal 0 0 1
    outer loop
      vertex 40.8444 -0.237351 3
      vertex 38.9064 -6.2021 3
      vertex 53.4635 -24.5734 3
    endloop
  endfacet
  facet normal 1 0 0
    outer loop
      vertex 56 -29 3
      vertex 56 -29 0
      vertex 56 35 0
    endloop
  endfacet
  facet normal 1 0 0
    outer loop
      vertex 56 35 3
      vertex 56 -29 3
      vertex 56 35 0
    endloop
  endfacet
  facet normal 0 1 0
    outer loop
      vertex 24.6089 35 3
      vertex 18.5673 35 3
      vertex 56 35 3
    endloop
  endfacet
  facet normal 0 1 0
    outer loop
      vertex 24.6089 35 3
      vertex 56 35 3
      vertex 56 35 0
    endloop
  endfacet
  facet normal 0 1 0
    outer loop
      vertex 24.6089 35 3
      vertex 56 35 0
      vertex 24.6089 35 0
    endloop
  endfacet
  facet normal 0.406737 0.913545 0
    outer loop
      vertex 21.3885 36.4338 0
      vertex 21.3885 36.4338 3
      vertex 24.6089 35 0
    endloop
  endfacet
  facet normal 0.406737 0.913545 0
    outer loop
      vertex 24.6089 35 0
      vertex 21.3885 36.4338 3
      vertex 24.6089 35 3
    endloop
  endfacet
  facet normal 0.207912 0.978148 0
    outer loop
      vertex 14.8449 37.8247 0
      vertex 14.8449 37.8247 3
      vertex 21.3885 36.4338 0
    endloop
  endfacet
  facet normal 0.207912 0.978148 0
    outer loop
      vertex 21.3885 36.4338 0
      vertex 14.8449 37.8247 3
      vertex 21.3885 36.4338 3
    endloop
  endfacet
  facet normal 0 1 0
    outer loop
      vertex 8.15509 37.8247 0
      vertex 8.15509 37.8247 3
      vertex 14.8449 37.8247 0
    endloop
  endfacet
  facet normal 0 1 0
    outer loop
      vertex 14.8449 37.8247 0
      vertex 8.15509 37.8247 3
      vertex 14.8449 37.8247 3
    endloop
  endfacet
  facet normal -0.207912 0.978148 0
    outer loop
      vertex 1.61146 36.4338 0
      vertex 1.61146 36.4338 3
      vertex 8.15509 37.8247 0
    endloop
  endfacet
  facet normal -0.207912 0.978148 0
    outer loop
      vertex 8.15509 37.8247 0
      vertex 1.61146 36.4338 3
      vertex 8.15509 37.8247 3
    endloop
  endfacet
  facet normal -0.406737 0.913545 0
    outer loop
      vertex -1.60893 35 0
      vertex -1.60893 35 3
      vertex 1.61146 36.4338 0
    endloop
  endfacet
  facet normal -0.406737 0.913545 0
    outer loop
      vertex 1.61146 36.4338 0
      vertex -1.60893 35 3
      vertex 1.61146 36.4338 3
    endloop
  endfacet
  facet normal 0.309017 -0.951056 0
    outer loop
      vertex -52.5365 -24.5734 0
      vertex -52.5365 -24.5734 3
      vertex -54.2135 -25.1183 3
    endloop
  endfacet
  facet normal 0.309017 -0.951056 0
    outer loop
      vertex -54.2135 -25.1183 0
      vertex -52.5365 -24.5734 0
      vertex -54.2135 -25.1183 3
    endloop
  endfacet
  facet normal 1 0 0
    outer loop
      vertex -54.2135 -25.1183 0
      vertex -54.2135 -25.1183 3
      vertex -54.2135 -26.8817 3
    endloop
  endfacet
  facet normal 1 0 0
    outer loop
      vertex -54.2135 -26.8817 0
      vertex -54.2135 -25.1183 0
      vertex -54.2135 -26.8817 3
    endloop
  endfacet
  facet normal -0.809017 -0.587785 0
    outer loop
      vertex -51.5 -26 3
      vertex -52.5365 -24.5734 3
      vertex -51.5 -26 0
    endloop
  endfacet
  facet normal -0.809017 -0.587785 0
    outer loop
      vertex -51.5 -26 0
      vertex -52.5365 -24.5734 3
      vertex -52.5365 -24.5734 0
    endloop
  endfacet
  facet normal -0.809017 0.587785 0
    outer loop
      vertex -51.5 -26 3
      vertex -51.5 -26 0
      vertex -52.5365 -27.4266 3
    endloop
  endfacet
  facet normal -0.809017 0.587785 0
    outer loop
      vertex -52.5365 -27.4266 3
      vertex -51.5 -26 0
      vertex -52.5365 -27.4266 0
    endloop
  endfacet
  facet normal 0.309017 0.951056 0
    outer loop
      vertex -52.5365 -27.4266 3
      vertex -52.5365 -27.4266 0
      vertex -54.2135 -26.8817 3
    endloop
  endfacet
  facet normal 0.309017 0.951056 0
    outer loop
      vertex -54.2135 -26.8817 3
      vertex -52.5365 -27.4266 0
      vertex -54.2135 -26.8817 0
    endloop
  endfacet
  facet normal 0.309017 -0.951056 0
    outer loop
      vertex -52.5365 30.4266 0
      vertex -52.5365 30.4266 3
      vertex -54.2135 29.8817 3
    endloop
  endfacet
  facet normal 0.309017 -0.951056 0
    outer loop
      vertex -54.2135 29.8817 0
      vertex -52.5365 30.4266 0
      vertex -54.2135 29.8817 3
    endloop
  endfacet
  facet normal 1 0 0
    outer loop
      vertex -54.2135 29.8817 0
      vertex -54.2135 29.8817 3
      vertex -54.2135 28.1183 3
    endloop
  endfacet
  facet normal 1 0 0
    outer loop
      vertex -54.2135 28.1183 0
      vertex -54.2135 29.8817 0
      vertex -54.2135 28.1183 3
    endloop
  endfacet
  facet normal -0.809017 -0.587785 0
    outer loop
      vertex -51.5 29 3
      vertex -52.5365 30.4266 3
      vertex -51.5 29 0
    endloop
  endfacet
  facet normal -0.809017 -0.587785 0
    outer loop
      vertex -51.5 29 0
      vertex -52.5365 30.4266 3
      vertex -52.5365 30.4266 0
    endloop
  endfacet
  facet normal -0.809017 0.587785 0
    outer loop
      vertex -51.5 29 3
      vertex -51.5 29 0
      vertex -52.5365 27.5734 3
    endloop
  endfacet
  facet normal -0.809017 0.587785 0
    outer loop
      vertex -52.5365 27.5734 3
      vertex -51.5 29 0
      vertex -52.5365 27.5734 0
    endloop
  endfacet
  facet normal 0.309017 0.951056 0
    outer loop
      vertex -52.5365 27.5734 3
      vertex -52.5365 27.5734 0
      vertex -54.2135 28.1183 3
    endloop
  endfacet
  facet normal 0.309017 0.951056 0
    outer loop
      vertex -54.2135 28.1183 3
      vertex -52.5365 27.5734 0
      vertex -54.2135 28.1183 0
    endloop
  endfacet
  facet normal 0.994522 -0.104528 0
    outer loop
      vertex -13.4428 11.3017 0
      vertex -13.4428 11.3017 3
      vertex -14 6 3
    endloop
  endfacet
  facet normal 0.994522 -0.104528 0
    outer loop
      vertex -14 6 0
      vertex -13.4428 11.3017 0
      vertex -14 6 3
    endloop
  endfacet
  facet normal 0.994522 0.104528 0
    outer loop
      vertex -14 6 3
      vertex -13.4428 0.698252 3
      vertex -13.4428 0.698252 0
    endloop
  endfacet
  facet normal 0.994522 0.104528 0
    outer loop
      vertex -14 6 0
      vertex -14 6 3
      vertex -13.4428 0.698252 0
    endloop
  endfacet
  facet normal 0.951056 -0.309017 0
    outer loop
      vertex -11.7954 16.3718 0
      vertex -11.7954 16.3718 3
      vertex -13.4428 11.3017 3
    endloop
  endfacet
  facet normal 0.951056 -0.309017 0
    outer loop
      vertex -13.4428 11.3017 0
      vertex -11.7954 16.3718 0
      vertex -13.4428 11.3017 3
    endloop
  endfacet
  facet normal 0.866025 -0.5 0
    outer loop
      vertex -9.12993 20.9885 0
      vertex -9.12993 20.9885 3
      vertex -11.7954 16.3718 3
    endloop
  endfacet
  facet normal 0.866025 -0.5 0
    outer loop
      vertex -11.7954 16.3718 0
      vertex -9.12993 20.9885 0
      vertex -11.7954 16.3718 3
    endloop
  endfacet
  facet normal 0.743145 -0.669131 0
    outer loop
      vertex -5.56283 24.9502 0
      vertex -5.56283 24.9502 3
      vertex -9.12993 20.9885 3
    endloop
  endfacet
  facet normal 0.743145 -0.669131 0
    outer loop
      vertex -9.12993 20.9885 0
      vertex -5.56283 24.9502 0
      vertex -9.12993 20.9885 3
    endloop
  endfacet
  facet normal 0.587785 -0.809017 0
    outer loop
      vertex -1.25 28.0836 0
      vertex -1.25 28.0836 3
      vertex -5.56283 24.9502 3
    endloop
  endfacet
  facet normal 0.587785 -0.809017 0
    outer loop
      vertex -5.56283 24.9502 0
      vertex -1.25 28.0836 0
      vertex -5.56283 24.9502 3
    endloop
  endfacet
  facet normal 0.406737 -0.913545 0
    outer loop
      vertex 3.62007 30.2519 0
      vertex 3.62007 30.2519 3
      vertex -1.25 28.0836 3
    endloop
  endfacet
  facet normal 0.406737 -0.913545 0
    outer loop
      vertex -1.25 28.0836 0
      vertex 3.62007 30.2519 0
      vertex -1.25 28.0836 3
    endloop
  endfacet
  facet normal 0.207912 -0.978148 0
    outer loop
      vertex 8.83452 31.3603 0
      vertex 8.83452 31.3603 3
      vertex 3.62007 30.2519 3
    endloop
  endfacet
  facet normal 0.207912 -0.978148 0
    outer loop
      vertex 3.62007 30.2519 0
      vertex 8.83452 31.3603 0
      vertex 3.62007 30.2519 3
    endloop
  endfacet
  facet normal 0 -1 0
    outer loop
      vertex 14.1655 31.3603 0
      vertex 14.1655 31.3603 3
      vertex 8.83452 31.3603 3
    endloop
  endfacet
  facet normal 0 -1 0
    outer loop
      vertex 8.83452 31.3603 0
      vertex 14.1655 31.3603 0
      vertex 8.83452 31.3603 3
    endloop
  endfacet
  facet normal -0.207912 -0.978148 0
    outer loop
      vertex 19.3799 30.2519 0
      vertex 19.3799 30.2519 3
      vertex 14.1655 31.3603 3
    endloop
  endfacet
  facet normal -0.207912 -0.978148 0
    outer loop
      vertex 14.1655 31.3603 0
      vertex 19.3799 30.2519 0
      vertex 14.1655 31.3603 3
    endloop
  endfacet
  facet normal -0.406737 -0.913545 0
    outer loop
      vertex 24.25 28.0836 0
      vertex 24.25 28.0836 3
      vertex 19.3799 30.2519 3
    endloop
  endfacet
  facet normal -0.406737 -0.913545 0
    outer loop
      vertex 19.3799 30.2519 0
      vertex 24.25 28.0836 0
      vertex 19.3799 30.2519 3
    endloop
  endfacet
  facet normal -0.587785 -0.809017 0
    outer loop
      vertex 28.5628 24.9502 0
      vertex 28.5628 24.9502 3
      vertex 24.25 28.0836 3
    endloop
  endfacet
  facet normal -0.587785 -0.809017 0
    outer loop
      vertex 24.25 28.0836 0
      vertex 28.5628 24.9502 0
      vertex 24.25 28.0836 3
    endloop
  endfacet
  facet normal -0.743145 -0.669131 0
    outer loop
      vertex 32.1299 20.9885 3
      vertex 28.5628 24.9502 3
      vertex 32.1299 20.9885 0
    endloop
  endfacet
  facet normal -0.743145 -0.669131 0
    outer loop
      vertex 32.1299 20.9885 0
      vertex 28.5628 24.9502 3
      vertex 28.5628 24.9502 0
    endloop
  endfacet
  facet normal -0.866025 -0.5 0
    outer loop
      vertex 34.7954 16.3718 3
      vertex 32.1299 20.9885 3
      vertex 34.7954 16.3718 0
    endloop
  endfacet
  facet normal -0.866025 -0.5 0
    outer loop
      vertex 34.7954 16.3718 0
      vertex 32.1299 20.9885 3
      vertex 32.1299 20.9885 0
    endloop
  endfacet
  facet normal -0.951056 -0.309017 0
    outer loop
      vertex 36.4428 11.3017 3
      vertex 34.7954 16.3718 3
      vertex 36.4428 11.3017 0
    endloop
  endfacet
  facet normal -0.951056 -0.309017 0
    outer loop
      vertex 36.4428 11.3017 0
      vertex 34.7954 16.3718 3
      vertex 34.7954 16.3718 0
    endloop
  endfacet
  facet normal -0.994522 -0.104528 0
    outer loop
      vertex 37 6 3
      vertex 36.4428 11.3017 3
      vertex 37 6 0
    endloop
  endfacet
  facet normal -0.994522 -0.104528 0
    outer loop
      vertex 37 6 0
      vertex 36.4428 11.3017 3
      vertex 36.4428 11.3017 0
    endloop
  endfacet
  facet normal -0.994522 0.104528 0
    outer loop
      vertex 37 6 3
      vertex 37 6 0
      vertex 36.4428 0.698252 3
    endloop
  endfacet
  facet normal -0.994522 0.104528 0
    outer loop
      vertex 36.4428 0.698252 3
      vertex 37 6 0
      vertex 36.4428 0.698252 0
    endloop
  endfacet
  facet normal -0.951056 0.309017 0
    outer loop
      vertex 36.4428 0.698252 3
      vertex 36.4428 0.698252 0
      vertex 34.7954 -4.37178 3
    endloop
  endfacet
  facet normal -0.951056 0.309017 0
    outer loop
      vertex 34.7954 -4.37178 3
      vertex 36.4428 0.698252 0
      vertex 34.7954 -4.37178 0
    endloop
  endfacet
  facet normal -0.866025 0.5 0
    outer loop
      vertex 34.7954 -4.37178 3
      vertex 34.7954 -4.37178 0
      vertex 32.1299 -8.98852 3
    endloop
  endfacet
  facet normal -0.866025 0.5 0
    outer loop
      vertex 32.1299 -8.98852 3
      vertex 34.7954 -4.37178 0
      vertex 32.1299 -8.98852 0
    endloop
  endfacet
  facet normal -0.743145 0.669131 0
    outer loop
      vertex 32.1299 -8.98852 3
      vertex 32.1299 -8.98852 0
      vertex 28.5628 -12.9502 3
    endloop
  endfacet
  facet normal -0.743145 0.669131 0
    outer loop
      vertex 28.5628 -12.9502 3
      vertex 32.1299 -8.98852 0
      vertex 28.5628 -12.9502 0
    endloop
  endfacet
  facet normal -0.587785 0.809017 0
    outer loop
      vertex 28.5628 -12.9502 3
      vertex 28.5628 -12.9502 0
      vertex 24.25 -16.0836 3
    endloop
  endfacet
  facet normal -0.587785 0.809017 0
    outer loop
      vertex 24.25 -16.0836 3
      vertex 28.5628 -12.9502 0
      vertex 24.25 -16.0836 0
    endloop
  endfacet
  facet normal -0.406737 0.913545 0
    outer loop
      vertex 24.25 -16.0836 3
      vertex 24.25 -16.0836 0
      vertex 19.3799 -18.2519 3
    endloop
  endfacet
  facet normal -0.406737 0.913545 0
    outer loop
      vertex 19.3799 -18.2519 3
      vertex 24.25 -16.0836 0
      vertex 19.3799 -18.2519 0
    endloop
  endfacet
  facet normal -0.207912 0.978148 0
    outer loop
      vertex 19.3799 -18.2519 3
      vertex 19.3799 -18.2519 0
      vertex 14.1655 -19.3603 3
    endloop
  endfacet
  facet normal -0.207912 0.978148 0
    outer loop
      vertex 14.1655 -19.3603 3
      vertex 19.3799 -18.2519 0
      vertex 14.1655 -19.3603 0
    endloop
  endfacet
  facet normal 0 1 0
    outer loop
      vertex 14.1655 -19.3603 3
      vertex 14.1655 -19.3603 0
      vertex 8.83452 -19.3603 3
    endloop
  endfacet
  facet normal 0 1 0
    outer loop
      vertex 8.83452 -19.3603 3
      vertex 14.1655 -19.3603 0
      vertex 8.83452 -19.3603 0
    endloop
  endfacet
  facet normal 0.207912 0.978148 0
    outer loop
      vertex 8.83452 -19.3603 3
      vertex 8.83452 -19.3603 0
      vertex 3.62007 -18.2519 3
    endloop
  endfacet
  facet normal 0.207912 0.978148 0
    outer loop
      vertex 3.62007 -18.2519 3
      vertex 8.83452 -19.3603 0
      vertex 3.62007 -18.2519 0
    endloop
  endfacet
  facet normal 0.406737 0.913545 0
    outer loop
      vertex 3.62007 -18.2519 3
      vertex 3.62007 -18.2519 0
      vertex -1.25 -16.0836 3
    endloop
  endfacet
  facet normal 0.406737 0.913545 0
    outer loop
      vertex -1.25 -16.0836 3
      vertex 3.62007 -18.2519 0
      vertex -1.25 -16.0836 0
    endloop
  endfacet
  facet normal 0.587785 0.809017 0
    outer loop
      vertex -1.25 -16.0836 3
      vertex -1.25 -16.0836 0
      vertex -5.56283 -12.9502 3
    endloop
  endfacet
  facet normal 0.587785 0.809017 0
    outer loop
      vertex -5.56283 -12.9502 3
      vertex -1.25 -16.0836 0
      vertex -5.56283 -12.9502 0
    endloop
  endfacet
  facet normal 0.743145 0.669131 0
    outer loop
      vertex -9.12993 -8.98852 3
      vertex -5.56283 -12.9502 3
      vertex -5.56283 -12.9502 0
    endloop
  endfacet
  facet normal 0.743145 0.669131 0
    outer loop
      vertex -9.12993 -8.98852 0
      vertex -9.12993 -8.98852 3
      vertex -5.56283 -12.9502 0
    endloop
  endfacet
  facet normal 0.866025 0.5 0
    outer loop
      vertex -11.7954 -4.37178 3
      vertex -9.12993 -8.98852 3
      vertex -9.12993 -8.98852 0
    endloop
  endfacet
  facet normal 0.866025 0.5 0
    outer loop
      vertex -11.7954 -4.37178 0
      vertex -11.7954 -4.37178 3
      vertex -9.12993 -8.98852 0
    endloop
  endfacet
  facet normal 0.951056 0.309017 0
    outer loop
      vertex -13.4428 0.698252 3
      vertex -11.7954 -4.37178 3
      vertex -11.7954 -4.37178 0
    endloop
  endfacet
  facet normal 0.951056 0.309017 0
    outer loop
      vertex -13.4428 0.698252 0
      vertex -13.4428 0.698252 3
      vertex -11.7954 -4.37178 0
    endloop
  endfacet
  facet normal 0.309017 -0.951056 0
    outer loop
      vertex 0.463525 -24.5734 0
      vertex 0.463525 -24.5734 3
      vertex -1.21352 -25.1183 3
    endloop
  endfacet
  facet normal 0.309017 -0.951056 0
    outer loop
      vertex -1.21352 -25.1183 0
      vertex 0.463525 -24.5734 0
      vertex -1.21352 -25.1183 3
    endloop
  endfacet
  facet normal 1 0 0
    outer loop
      vertex -1.21352 -25.1183 0
      vertex -1.21352 -25.1183 3
      vertex -1.21352 -26.8817 3
    endloop
  endfacet
  facet normal 1 0 0
    outer loop
      vertex -1.21352 -26.8817 0
      vertex -1.21352 -25.1183 0
      vertex -1.21352 -26.8817 3
    endloop
  endfacet
  facet normal -0.809017 -0.587785 0
    outer loop
      vertex 1.5 -26 3
      vertex 0.463525 -24.5734 3
      vertex 1.5 -26 0
    endloop
  endfacet
  facet normal -0.809017 -0.587785 0
    outer loop
      vertex 1.5 -26 0
      vertex 0.463525 -24.5734 3
      vertex 0.463525 -24.5734 0
    endloop
  endfacet
  facet normal -0.809017 0.587785 0
    outer loop
      vertex 1.5 -26 3
      vertex 1.5 -26 0
      vertex 0.463525 -27.4266 3
    endloop
  endfacet
  facet normal -0.809017 0.587785 0
    outer loop
      vertex 0.463525 -27.4266 3
      vertex 1.5 -26 0
      vertex 0.463525 -27.4266 0
    endloop
  endfacet
  facet normal 0.309017 0.951056 0
    outer loop
      vertex 0.463525 -27.4266 3
      vertex 0.463525 -27.4266 0
      vertex -1.21352 -26.8817 3
    endloop
  endfacet
  facet normal 0.309017 0.951056 0
    outer loop
      vertex -1.21352 -26.8817 3
      vertex 0.463525 -27.4266 0
      vertex -1.21352 -26.8817 0
    endloop
  endfacet
  facet normal 0.309017 -0.951056 0
    outer loop
      vertex 53.4635 -24.5734 0
      vertex 53.4635 -24.5734 3
      vertex 51.7865 -25.1183 3
    endloop
  endfacet
  facet normal 0.309017 -0.951056 0
    outer loop
      vertex 51.7865 -25.1183 0
      vertex 53.4635 -24.5734 0
      vertex 51.7865 -25.1183 3
    endloop
  endfacet
  facet normal 1 0 0
    outer loop
      vertex 51.7865 -25.1183 0
      vertex 51.7865 -25.1183 3
      vertex 51.7865 -26.8817 3
    endloop
  endfacet
  facet normal 1 0 0
    outer loop
      vertex 51.7865 -26.8817 0
      vertex 51.7865 -25.1183 0
      vertex 51.7865 -26.8817 3
    endloop
  endfacet
  facet normal -0.809017 -0.587785 0
    outer loop
      vertex 54.5 -26 3
      vertex 53.4635 -24.5734 3
      vertex 54.5 -26 0
    endloop
  endfacet
  facet normal -0.809017 -0.587785 0
    outer loop
      vertex 54.5 -26 0
      vertex 53.4635 -24.5734 3
      vertex 53.4635 -24.5734 0
    endloop
  endfacet
  facet normal -0.809017 0.587785 0
    outer loop
      vertex 54.5 -26 3
      vertex 54.5 -26 0
      vertex 53.4635 -27.4266 3
    endloop
  endfacet
  facet normal -0.809017 0.587785 0
    outer loop
      vertex 53.4635 -27.4266 3
      vertex 54.5 -26 0
      vertex 53.4635 -27.4266 0
    endloop
  endfacet
  facet normal 0.309017 0.951056 0
    outer loop
      vertex 53.4635 -27.4266 3
      vertex 53.4635 -27.4266 0
      vertex 51.7865 -26.8817 3
    endloop
  endfacet
  facet normal 0.309017 0.951056 0
    outer loop
      vertex 51.7865 -26.8817 3
      vertex 53.4635 -27.4266 0
      vertex 51.7865 -26.8817 0
    endloop
  endfacet
  facet normal 0.309017 -0.951056 0
    outer loop
      vertex 53.4635 30.4266 0
      vertex 53.4635 30.4266 3
      vertex 51.7865 29.8817 3
    endloop
  endfacet
  facet normal 0.309017 -0.951056 0
    outer loop
      vertex 51.7865 29.8817 0
      vertex 53.4635 30.4266 0
      vertex 51.7865 29.8817 3
    endloop
  endfacet
  facet normal 1 0 0
    outer loop
      vertex 51.7865 29.8817 0
      vertex 51.7865 29.8817 3
      vertex 51.7865 28.1183 3
    endloop
  endfacet
  facet normal 1 0 0
    outer loop
      vertex 51.7865 28.1183 0
      vertex 51.7865 29.8817 0
      vertex 51.7865 28.1183 3
    endloop
  endfacet
  facet normal -0.809017 -0.587785 0
    outer loop
      vertex 54.5 29 3
      vertex 53.4635 30.4266 3
      vertex 54.5 29 0
    endloop
  endfacet
  facet normal -0.809017 -0.587785 0
    outer loop
      vertex 54.5 29 0
      vertex 53.4635 30.4266 3
      vertex 53.4635 30.4266 0
    endloop
  endfacet
  facet normal -0.809017 0.587785 0
    outer loop
      vertex 54.5 29 3
      vertex 54.5 29 0
      vertex 53.4635 27.5734 3
    endloop
  endfacet
  facet normal -0.809017 0.587785 0
    outer loop
      vertex 53.4635 27.5734 3
      vertex 54.5 29 0
      vertex 53.4635 27.5734 0
    endloop
  endfacet
  facet normal 0.309017 0.951056 0
    outer loop
      vertex 53.4635 27.5734 3
      vertex 53.4635 27.5734 0
      vertex 51.7865 28.1183 3
    endloop
  endfacet
  facet normal 0.309017 0.951056 0
    outer loop
      vertex 51.7865 28.1183 3
      vertex 53.4635 27.5734 0
      vertex 51.7865 28.1183 0
    endloop
  endfacet
  facet normal 0 0 1
    outer loop
      vertex 1.61146 36.4338 3
      vertex -1.60893 35 3
      vertex 4.43269 35 3
    endloop
  endfacet
  facet normal 0 0 1
    outer loop
      vertex 14.6359 35.8357 3
      vertex 1.61146 36.4338 3
      vertex 8.36415 35.8357 3
    endloop
  endfacet
  facet normal 0 0 1
    outer loop
      vertex 8.36415 35.8357 3
      vertex 1.61146 36.4338 3
      vertex 4.43269 35 3
    endloop
  endfacet
  facet normal 0 0 1
    outer loop
      vertex 21.3885 36.4338 3
      vertex 1.61146 36.4338 3
      vertex 14.6359 35.8357 3
    endloop
  endfacet
  facet normal 0 0 1
    outer loop
      vertex 24.6089 35 3
      vertex 14.6359 35.8357 3
      vertex 18.5673 35 3
    endloop
  endfacet
  facet normal 0 0 1
    outer loop
      vertex 21.3885 36.4338 3
      vertex 14.6359 35.8357 3
      vertex 24.6089 35 3
    endloop
  endfacet
  facet normal 0 0 1
    outer loop
      vertex 14.8449 37.8247 3
      vertex 1.61146 36.4338 3
      vertex 21.3885 36.4338 3
    endloop
  endfacet
  facet normal 0 0 1
    outer loop
      vertex 8.15509 37.8247 3
      vertex 1.61146 36.4338 3
      vertex 14.8449 37.8247 3
    endloop
  endfacet
  facet normal -0.207912 0.978148 0
    outer loop
      vertex 8.36415 35.8357 9
      vertex 8.36415 35.8357 3
      vertex 2.22949 34.5317 9
    endloop
  endfacet
  facet normal -0.207912 0.978148 0
    outer loop
      vertex 2.22949 34.5317 9
      vertex 8.36415 35.8357 3
      vertex 4.43269 35 3
    endloop
  endfacet
  facet normal -0.207912 0.978148 0
    outer loop
      vertex 2.22949 34.5317 3
      vertex 2.22949 34.5317 9
      vertex 4.43269 35 3
    endloop
  endfacet
  facet normal -0.406737 0.913545 0
    outer loop
      vertex 2.22949 34.5317 9
      vertex 2.22949 34.5317 3
      vertex -3.5 31.9808 9
    endloop
  endfacet
  facet normal -0.406737 0.913545 0
    outer loop
      vertex -3.5 31.9808 9
      vertex 2.22949 34.5317 3
      vertex -3.5 31.9808 3
    endloop
  endfacet
  facet normal -0.587785 0.809017 0
    outer loop
      vertex -3.5 31.9808 9
      vertex -3.5 31.9808 3
      vertex -8.57392 28.2943 9
    endloop
  endfacet
  facet normal -0.587785 0.809017 0
    outer loop
      vertex -8.57392 28.2943 9
      vertex -3.5 31.9808 3
      vertex -8.57392 28.2943 3
    endloop
  endfacet
  facet normal -0.743145 0.669131 0
    outer loop
      vertex -8.57392 28.2943 9
      vertex -8.57392 28.2943 3
      vertex -12.7705 23.6336 9
    endloop
  endfacet
  facet normal -0.743145 0.669131 0
    outer loop
      vertex -12.7705 23.6336 9
      vertex -8.57392 28.2943 3
      vertex -12.7705 23.6336 3
    endloop
  endfacet
  facet normal -0.866025 0.5 0
    outer loop
      vertex -12.7705 23.6336 9
      vertex -12.7705 23.6336 3
      vertex -15.9064 18.2021 9
    endloop
  endfacet
  facet normal -0.866025 0.5 0
    outer loop
      vertex -15.9064 18.2021 9
      vertex -12.7705 23.6336 3
      vertex -15.9064 18.2021 3
    endloop
  endfacet
  facet normal -0.951057 0.309017 0
    outer loop
      vertex -15.9064 18.2021 9
      vertex -15.9064 18.2021 3
      vertex -17.8444 12.2374 9
    endloop
  endfacet
  facet normal -0.951057 0.309017 0
    outer loop
      vertex -17.8444 12.2374 9
      vertex -15.9064 18.2021 3
      vertex -17.8444 12.2374 3
    endloop
  endfacet
  facet normal -0.994522 0.104528 0
    outer loop
      vertex -17.8444 12.2374 9
      vertex -17.8444 12.2374 3
      vertex -18.5 6 9
    endloop
  endfacet
  facet normal -0.994522 0.104528 0
    outer loop
      vertex -18.5 6 9
      vertex -17.8444 12.2374 3
      vertex -18.5 6 3
    endloop
  endfacet
  facet normal -0.994522 -0.104528 0
    outer loop
      vertex -18.5 6 3
      vertex -17.8444 -0.237351 3
      vertex -18.5 6 9
    endloop
  endfacet
  facet normal -0.994522 -0.104528 0
    outer loop
      vertex -18.5 6 9
      vertex -17.8444 -0.237351 3
      vertex -17.8444 -0.237351 9
    endloop
  endfacet
  facet normal -0.951057 -0.309017 0
    outer loop
      vertex -17.8444 -0.237351 3
      vertex -15.9064 -6.2021 3
      vertex -17.8444 -0.237351 9
    endloop
  endfacet
  facet normal -0.951057 -0.309017 0
    outer loop
      vertex -17.8444 -0.237351 9
      vertex -15.9064 -6.2021 3
      vertex -15.9064 -6.2021 9
    endloop
  endfacet
  facet normal -0.866025 -0.5 0
    outer loop
      vertex -15.9064 -6.2021 3
      vertex -12.7705 -11.6336 3
      vertex -15.9064 -6.2021 9
    endloop
  endfacet
  facet normal -0.866025 -0.5 0
    outer loop
      vertex -15.9064 -6.2021 9
      vertex -12.7705 -11.6336 3
      vertex -12.7705 -11.6336 9
    endloop
  endfacet
  facet normal -0.743145 -0.669131 0
    outer loop
      vertex -12.7705 -11.6336 3
      vertex -8.57392 -16.2943 3
      vertex -12.7705 -11.6336 9
    endloop
  endfacet
  facet normal -0.743145 -0.669131 0
    outer loop
      vertex -12.7705 -11.6336 9
      vertex -8.57392 -16.2943 3
      vertex -8.57392 -16.2943 9
    endloop
  endfacet
  facet normal -0.587785 -0.809017 0
    outer loop
      vertex -8.57392 -16.2943 9
      vertex -8.57392 -16.2943 3
      vertex -3.5 -19.9808 3
    endloop
  endfacet
  facet normal -0.587785 -0.809017 0
    outer loop
      vertex -3.5 -19.9808 9
      vertex -8.57392 -16.2943 9
      vertex -3.5 -19.9808 3
    endloop
  endfacet
  facet normal -0.406737 -0.913545 0
    outer loop
      vertex -3.5 -19.9808 9
      vertex -3.5 -19.9808 3
      vertex 2.22949 -22.5317 3
    endloop
  endfacet
  facet normal -0.406737 -0.913545 0
    outer loop
      vertex 2.22949 -22.5317 9
      vertex -3.5 -19.9808 9
      vertex 2.22949 -22.5317 3
    endloop
  endfacet
  facet normal -0.207912 -0.978148 0
    outer loop
      vertex 2.22949 -22.5317 9
      vertex 2.22949 -22.5317 3
      vertex 8.36415 -23.8357 3
    endloop
  endfacet
  facet normal -0.207912 -0.978148 0
    outer loop
      vertex 8.36415 -23.8357 9
      vertex 2.22949 -22.5317 9
      vertex 8.36415 -23.8357 3
    endloop
  endfacet
  facet normal 0 -1 0
    outer loop
      vertex 8.36415 -23.8357 9
      vertex 8.36415 -23.8357 3
      vertex 14.6359 -23.8357 3
    endloop
  endfacet
  facet normal 0 -1 0
    outer loop
      vertex 14.6359 -23.8357 9
      vertex 8.36415 -23.8357 9
      vertex 14.6359 -23.8357 3
    endloop
  endfacet
  facet normal 0.207912 -0.978148 0
    outer loop
      vertex 14.6359 -23.8357 9
      vertex 14.6359 -23.8357 3
      vertex 20.7705 -22.5317 3
    endloop
  endfacet
  facet normal 0.207912 -0.978148 0
    outer loop
      vertex 20.7705 -22.5317 9
      vertex 14.6359 -23.8357 9
      vertex 20.7705 -22.5317 3
    endloop
  endfacet
  facet normal 0.406737 -0.913545 0
    outer loop
      vertex 20.7705 -22.5317 9
      vertex 20.7705 -22.5317 3
      vertex 26.5 -19.9808 3
    endloop
  endfacet
  facet normal 0.406737 -0.913545 0
    outer loop
      vertex 26.5 -19.9808 9
      vertex 20.7705 -22.5317 9
      vertex 26.5 -19.9808 3
    endloop
  endfacet
  facet normal 0.587785 -0.809017 0
    outer loop
      vertex 26.5 -19.9808 9
      vertex 26.5 -19.9808 3
      vertex 31.5739 -16.2943 3
    endloop
  endfacet
  facet normal 0.587785 -0.809017 0
    outer loop
      vertex 31.5739 -16.2943 9
      vertex 26.5 -19.9808 9
      vertex 31.5739 -16.2943 3
    endloop
  endfacet
  facet normal 0.743145 -0.669131 0
    outer loop
      vertex 31.5739 -16.2943 9
      vertex 31.5739 -16.2943 3
      vertex 35.7705 -11.6336 3
    endloop
  endfacet
  facet normal 0.743145 -0.669131 0
    outer loop
      vertex 35.7705 -11.6336 9
      vertex 31.5739 -16.2943 9
      vertex 35.7705 -11.6336 3
    endloop
  endfacet
  facet normal 0.866025 -0.5 0
    outer loop
      vertex 35.7705 -11.6336 9
      vertex 35.7705 -11.6336 3
      vertex 38.9064 -6.2021 3
    endloop
  endfacet
  facet normal 0.866025 -0.5 0
    outer loop
      vertex 38.9064 -6.2021 9
      vertex 35.7705 -11.6336 9
      vertex 38.9064 -6.2021 3
    endloop
  endfacet
  facet normal 0.951057 -0.309017 0
    outer loop
      vertex 38.9064 -6.2021 9
      vertex 38.9064 -6.2021 3
      vertex 40.8444 -0.237351 3
    endloop
  endfacet
  facet normal 0.951057 -0.309017 0
    outer loop
      vertex 40.8444 -0.237351 9
      vertex 38.9064 -6.2021 9
      vertex 40.8444 -0.237351 3
    endloop
  endfacet
  facet normal 0.994522 -0.104528 0
    outer loop
      vertex 40.8444 -0.237351 9
      vertex 40.8444 -0.237351 3
      vertex 41.5 6 3
    endloop
  endfacet
  facet normal 0.994522 -0.104528 0
    outer loop
      vertex 41.5 6 9
      vertex 40.8444 -0.237351 9
      vertex 41.5 6 3
    endloop
  endfacet
  facet normal 0.994522 0.104528 0
    outer loop
      vertex 40.8444 12.2374 9
      vertex 41.5 6 9
      vertex 41.5 6 3
    endloop
  endfacet
  facet normal 0.994522 0.104528 0
    outer loop
      vertex 40.8444 12.2374 3
      vertex 40.8444 12.2374 9
      vertex 41.5 6 3
    endloop
  endfacet
  facet normal 0.951057 0.309017 0
    outer loop
      vertex 38.9064 18.2021 9
      vertex 40.8444 12.2374 9
      vertex 40.8444 12.2374 3
    endloop
  endfacet
  facet normal 0.951057 0.309017 0
    outer loop
      vertex 38.9064 18.2021 3
      vertex 38.9064 18.2021 9
      vertex 40.8444 12.2374 3
    endloop
  endfacet
  facet normal 0.866025 0.5 0
    outer loop
      vertex 35.7705 23.6336 9
      vertex 38.9064 18.2021 9
      vertex 38.9064 18.2021 3
    endloop
  endfacet
  facet normal 0.866025 0.5 0
    outer loop
      vertex 35.7705 23.6336 3
      vertex 35.7705 23.6336 9
      vertex 38.9064 18.2021 3
    endloop
  endfacet
  facet normal 0.743145 0.669131 0
    outer loop
      vertex 31.5739 28.2943 9
      vertex 35.7705 23.6336 9
      vertex 35.7705 23.6336 3
    endloop
  endfacet
  facet normal 0.743145 0.669131 0
    outer loop
      vertex 31.5739 28.2943 3
      vertex 31.5739 28.2943 9
      vertex 35.7705 23.6336 3
    endloop
  endfacet
  facet normal 0.587785 0.809017 0
    outer loop
      vertex 31.5739 28.2943 9
      vertex 31.5739 28.2943 3
      vertex 26.5 31.9808 9
    endloop
  endfacet
  facet normal 0.587785 0.809017 0
    outer loop
      vertex 26.5 31.9808 9
      vertex 31.5739 28.2943 3
      vertex 26.5 31.9808 3
    endloop
  endfacet
  facet normal 0.406737 0.913545 0
    outer loop
      vertex 26.5 31.9808 9
      vertex 26.5 31.9808 3
      vertex 20.7705 34.5317 9
    endloop
  endfacet
  facet normal 0.406737 0.913545 0
    outer loop
      vertex 20.7705 34.5317 9
      vertex 26.5 31.9808 3
      vertex 20.7705 34.5317 3
    endloop
  endfacet
  facet normal 0.207912 0.978148 0
    outer loop
      vertex 20.7705 34.5317 9
      vertex 20.7705 34.5317 3
      vertex 14.6359 35.8357 9
    endloop
  endfacet
  facet normal 0.207912 0.978148 0
    outer loop
      vertex 14.6359 35.8357 9
      vertex 20.7705 34.5317 3
      vertex 18.5673 35 3
    endloop
  endfacet
  facet normal 0.207912 0.978148 0
    outer loop
      vertex 14.6359 35.8357 9
      vertex 18.5673 35 3
      vertex 14.6359 35.8357 3
    endloop
  endfacet
  facet normal 0 0 1
    outer loop
      vertex -15.8881 11.8215 3
      vertex -16.5 6 3
      vertex -15.8881 0.178473 3
    endloop
  endfacet
  facet normal 0 0 1
    outer loop
      vertex -11.1525 -10.458 3
      vertex -15.8881 11.8215 3
      vertex -14.0793 -5.38863 3
    endloop
  endfacet
  facet normal 0 0 1
    outer loop
      vertex -14.0793 -5.38863 3
      vertex -15.8881 11.8215 3
      vertex -15.8881 0.178473 3
    endloop
  endfacet
  facet normal 0 0 1
    outer loop
      vertex -13.4428 0.698252 3
      vertex -15.8881 11.8215 3
      vertex -11.1525 -10.458 3
    endloop
  endfacet
  facet normal 0 0 1
    outer loop
      vertex 37 6 3
      vertex 36.4428 0.698252 3
      vertex 38.8881 0.178473 3
    endloop
  endfacet
  facet normal 0 0 1
    outer loop
      vertex 36.4428 11.3017 3
      vertex 37 6 3
      vertex 39.5 6 3
    endloop
  endfacet
  facet normal 0 0 1
    outer loop
      vertex 9 35 3
      vertex 9 33.8466 3
      vertex 14 35 3
    endloop
  endfacet
  facet normal 0 0 1
    outer loop
      vertex 8.83452 31.3603 3
      vertex 14.1655 31.3603 3
      vertex 14.4268 33.8466 3
    endloop
  endfacet
  facet normal 0 0 1
    outer loop
      vertex 32.1299 -8.98852 3
      vertex 28.5628 -12.9502 3
      vertex 34.1525 -10.458 3
    endloop
  endfacet
  facet normal 0 0 1
    outer loop
      vertex -7.23566 26.8081 3
      vertex -15.8881 11.8215 3
      vertex -2.5 30.2487 3
    endloop
  endfacet
  facet normal 0 0 1
    outer loop
      vertex -11.1525 22.458 3
      vertex -15.8881 11.8215 3
      vertex -7.23566 26.8081 3
    endloop
  endfacet
  facet normal 0 0 1
    outer loop
      vertex -14.0793 17.3886 3
      vertex -15.8881 11.8215 3
      vertex -11.1525 22.458 3
    endloop
  endfacet
  facet normal 0 0 1
    outer loop
      vertex -11.7954 -4.37178 3
      vertex -13.4428 0.698252 3
      vertex -11.1525 -10.458 3
    endloop
  endfacet
  facet normal 0 0 1
    outer loop
      vertex -14 6 3
      vertex -15.8881 11.8215 3
      vertex -13.4428 0.698252 3
    endloop
  endfacet
  facet normal 0 0 1
    outer loop
      vertex -13.4428 11.3017 3
      vertex -11.7954 16.3718 3
      vertex -15.8881 11.8215 3
    endloop
  endfacet
  facet normal 0 0 1
    outer loop
      vertex 34.7954 -4.37178 3
      vertex 32.1299 -8.98852 3
      vertex 37.0793 -5.38863 3
    endloop
  endfacet
  facet normal 0 0 1
    outer loop
      vertex 3.62007 30.2519 3
      vertex 9 33.8466 3
      vertex 8.5732 33.8466 3
    endloop
  endfacet
  facet normal 0 0 1
    outer loop
      vertex -9.12993 20.9885 3
      vertex -15.8881 11.8215 3
      vertex -11.7954 16.3718 3
    endloop
  endfacet
  facet normal 0 0 1
    outer loop
      vertex -1.25 28.0836 3
      vertex 3.62007 30.2519 3
      vertex 2.84752 32.6296 3
    endloop
  endfacet
  facet normal 0 0 1
    outer loop
      vertex -2.5 30.2487 3
      vertex -15.8881 11.8215 3
      vertex -9.12993 20.9885 3
    endloop
  endfacet
  facet normal 0 0 1
    outer loop
      vertex -2.5 30.2487 3
      vertex -5.56283 24.9502 3
      vertex 2.84752 32.6296 3
    endloop
  endfacet
  facet normal 0 0 1
    outer loop
      vertex -5.56283 24.9502 3
      vertex -1.25 28.0836 3
      vertex 2.84752 32.6296 3
    endloop
  endfacet
  facet normal 0 0 1
    outer loop
      vertex -9.12993 20.9885 3
      vertex -5.56283 24.9502 3
      vertex -2.5 30.2487 3
    endloop
  endfacet
  facet normal 0 0 1
    outer loop
      vertex 9 33.8466 3
      vertex 8.83452 31.3603 3
      vertex 14 35 3
    endloop
  endfacet
  facet normal 0 0 1
    outer loop
      vertex 14.4268 33.8466 3
      vertex 14.1655 31.3603 3
      vertex 20.1525 32.6296 3
    endloop
  endfacet
  facet normal 0 0 1
    outer loop
      vertex 20.1525 32.6296 3
      vertex 19.3799 30.2519 3
      vertex 25.5 30.2487 3
    endloop
  endfacet
  facet normal 0 0 1
    outer loop
      vertex 25.5 30.2487 3
      vertex 24.25 28.0836 3
      vertex 30.2357 26.8081 3
    endloop
  endfacet
  facet normal 0 0 1
    outer loop
      vertex 30.2357 26.8081 3
      vertex 28.5628 24.9502 3
      vertex 34.1525 22.458 3
    endloop
  endfacet
  facet normal 0 0 1
    outer loop
      vertex 34.1525 22.458 3
      vertex 32.1299 20.9885 3
      vertex 37.0793 17.3886 3
    endloop
  endfacet
  facet normal 0 0 1
    outer loop
      vertex 37.0793 17.3886 3
      vertex 34.7954 16.3718 3
      vertex 38.8881 11.8215 3
    endloop
  endfacet
  facet normal 0 0 1
    outer loop
      vertex 38.8881 11.8215 3
      vertex 36.4428 11.3017 3
      vertex 39.5 6 3
    endloop
  endfacet
  facet normal 0 0 1
    outer loop
      vertex 39.5 6 3
      vertex 37 6 3
      vertex 38.8881 0.178473 3
    endloop
  endfacet
  facet normal 0 0 1
    outer loop
      vertex 38.8881 0.178473 3
      vertex 36.4428 0.698252 3
      vertex 37.0793 -5.38863 3
    endloop
  endfacet
  facet normal 0 0 1
    outer loop
      vertex 8.83452 31.3603 3
      vertex 14.4268 33.8466 3
      vertex 14 33.8466 3
    endloop
  endfacet
  facet normal 0 0 1
    outer loop
      vertex 36.4428 0.698252 3
      vertex 34.7954 -4.37178 3
      vertex 37.0793 -5.38863 3
    endloop
  endfacet
  facet normal 0 0 1
    outer loop
      vertex 8.83452 31.3603 3
      vertex 14 33.8466 3
      vertex 14 35 3
    endloop
  endfacet
  facet normal 0 0 1
    outer loop
      vertex 37.0793 -5.38863 3
      vertex 32.1299 -8.98852 3
      vertex 34.1525 -10.458 3
    endloop
  endfacet
  facet normal 0 0 1
    outer loop
      vertex 34.1525 -10.458 3
      vertex 28.5628 -12.9502 3
      vertex 30.2357 -14.8081 3
    endloop
  endfacet
  facet normal 0 0 1
    outer loop
      vertex 14.1655 31.3603 3
      vertex 19.3799 30.2519 3
      vertex 20.1525 32.6296 3
    endloop
  endfacet
  facet normal 0 0 1
    outer loop
      vertex 30.2357 -14.8081 3
      vertex 24.25 -16.0836 3
      vertex 25.5 -18.2487 3
    endloop
  endfacet
  facet normal 0 0 1
    outer loop
      vertex 19.3799 30.2519 3
      vertex 24.25 28.0836 3
      vertex 25.5 30.2487 3
    endloop
  endfacet
  facet normal 0 0 1
    outer loop
      vertex 25.5 -18.2487 3
      vertex 19.3799 -18.2519 3
      vertex 20.1525 -20.6296 3
    endloop
  endfacet
  facet normal 0 0 1
    outer loop
      vertex 24.25 28.0836 3
      vertex 28.5628 24.9502 3
      vertex 30.2357 26.8081 3
    endloop
  endfacet
  facet normal 0 0 1
    outer loop
      vertex 20.1525 -20.6296 3
      vertex 14.1655 -19.3603 3
      vertex 14.4268 -21.8466 3
    endloop
  endfacet
  facet normal 0 0 1
    outer loop
      vertex 28.5628 24.9502 3
      vertex 32.1299 20.9885 3
      vertex 34.1525 22.458 3
    endloop
  endfacet
  facet normal 0 0 1
    outer loop
      vertex 14.4268 -21.8466 3
      vertex 8.83452 -19.3603 3
      vertex 8.5732 -21.8466 3
    endloop
  endfacet
  facet normal 0 0 1
    outer loop
      vertex 32.1299 20.9885 3
      vertex 34.7954 16.3718 3
      vertex 37.0793 17.3886 3
    endloop
  endfacet
  facet normal 0 0 1
    outer loop
      vertex 8.5732 -21.8466 3
      vertex 3.62007 -18.2519 3
      vertex 2.84752 -20.6296 3
    endloop
  endfacet
  facet normal 0 0 1
    outer loop
      vertex 34.7954 16.3718 3
      vertex 36.4428 11.3017 3
      vertex 38.8881 11.8215 3
    endloop
  endfacet
  facet normal 0 0 1
    outer loop
      vertex 2.84752 -20.6296 3
      vertex -1.25 -16.0836 3
      vertex -2.5 -18.2487 3
    endloop
  endfacet
  facet normal 0 0 1
    outer loop
      vertex -2.5 -18.2487 3
      vertex -5.56283 -12.9502 3
      vertex -7.23566 -14.8081 3
    endloop
  endfacet
  facet normal 0 0 1
    outer loop
      vertex -5.56283 -12.9502 3
      vertex -9.12993 -8.98852 3
      vertex -7.23566 -14.8081 3
    endloop
  endfacet
  facet normal 0 0 1
    outer loop
      vertex -7.23566 -14.8081 3
      vertex -11.7954 -4.37178 3
      vertex -11.1525 -10.458 3
    endloop
  endfacet
  facet normal 0 0 1
    outer loop
      vertex 3.62007 30.2519 3
      vertex 8.83452 31.3603 3
      vertex 9 33.8466 3
    endloop
  endfacet
  facet normal 0 0 1
    outer loop
      vertex 8.5732 33.8466 3
      vertex 2.84752 32.6296 3
      vertex 3.62007 30.2519 3
    endloop
  endfacet
  facet normal 0 0 1
    outer loop
      vertex 28.5628 -12.9502 3
      vertex 24.25 -16.0836 3
      vertex 30.2357 -14.8081 3
    endloop
  endfacet
  facet normal 0 0 1
    outer loop
      vertex 24.25 -16.0836 3
      vertex 19.3799 -18.2519 3
      vertex 25.5 -18.2487 3
    endloop
  endfacet
  facet normal 0 0 1
    outer loop
      vertex 19.3799 -18.2519 3
      vertex 14.1655 -19.3603 3
      vertex 20.1525 -20.6296 3
    endloop
  endfacet
  facet normal 0 0 1
    outer loop
      vertex 14.1655 -19.3603 3
      vertex 8.83452 -19.3603 3
      vertex 14.4268 -21.8466 3
    endloop
  endfacet
  facet normal 0 0 1
    outer loop
      vertex 8.83452 -19.3603 3
      vertex 3.62007 -18.2519 3
      vertex 8.5732 -21.8466 3
    endloop
  endfacet
  facet normal 0 0 1
    outer loop
      vertex 3.62007 -18.2519 3
      vertex -1.25 -16.0836 3
      vertex 2.84752 -20.6296 3
    endloop
  endfacet
  facet normal 0 0 1
    outer loop
      vertex -1.25 -16.0836 3
      vertex -5.56283 -12.9502 3
      vertex -2.5 -18.2487 3
    endloop
  endfacet
  facet normal 0 0 1
    outer loop
      vertex -9.12993 -8.98852 3
      vertex -11.7954 -4.37178 3
      vertex -7.23566 -14.8081 3
    endloop
  endfacet
  facet normal 0 0 1
    outer loop
      vertex -14 6 3
      vertex -13.4428 11.3017 3
      vertex -15.8881 11.8215 3
    endloop
  endfacet
  facet normal 0 1 0
    outer loop
      vertex 9 35.8357 9
      vertex 9 35.8357 3
      vertex 8.36415 35.8357 9
    endloop
  endfacet
  facet normal 0 1 0
    outer loop
      vertex 8.36415 35.8357 3
      vertex 9 35.8357 3
      vertex 14.6359 35.8357 3
    endloop
  endfacet
  facet normal 0 1 0
    outer loop
      vertex 14.6359 35.8357 9
      vertex 14 35.8357 3
      vertex 14 35.8357 9
    endloop
  endfacet
  facet normal 0 1 0
    outer loop
      vertex 14.6359 35.8357 3
      vertex 14 35.8357 3
      vertex 14.6359 35.8357 9
    endloop
  endfacet
  facet normal 0 1 0
    outer loop
      vertex 9 35.8357 3
      vertex 14 35.8357 3
      vertex 14.6359 35.8357 3
    endloop
  endfacet
  facet normal 0 1 0
    outer loop
      vertex 8.36415 35.8357 9
      vertex 9 35.8357 3
      vertex 8.36415 35.8357 3
    endloop
  endfacet
  facet normal 0 0 1
    outer loop
      vertex -17.8444 12.2374 9
      vertex -18.5 6 9
      vertex -17.8444 -0.237351 9
    endloop
  endfacet
  facet normal 0 0 1
    outer loop
      vertex -15.8881 0.178473 9
      vertex -17.8444 12.2374 9
      vertex -15.9064 -6.2021 9
    endloop
  endfacet
  facet normal 0 0 1
    outer loop
      vertex -15.9064 -6.2021 9
      vertex -17.8444 12.2374 9
      vertex -17.8444 -0.237351 9
    endloop
  endfacet
  facet normal 0 0 1
    outer loop
      vertex -15.8881 0.178473 9
      vertex -16.5 6 9
      vertex -17.8444 12.2374 9
    endloop
  endfacet
  facet normal 0 0 1
    outer loop
      vertex -14.0793 -5.38863 9
      vertex -15.8881 0.178473 9
      vertex -12.7705 -11.6336 9
    endloop
  endfacet
  facet normal 0 0 1
    outer loop
      vertex -7.23566 -14.8081 9
      vertex -11.1525 -10.458 9
      vertex -8.57392 -16.2943 9
    endloop
  endfacet
  facet normal 0 0 1
    outer loop
      vertex -2.5 -18.2487 9
      vertex -7.23566 -14.8081 9
      vertex -3.5 -19.9808 9
    endloop
  endfacet
  facet normal 0 0 1
    outer loop
      vertex 2.84752 -20.6296 9
      vertex -2.5 -18.2487 9
      vertex 2.22949 -22.5317 9
    endloop
  endfacet
  facet normal 0 0 1
    outer loop
      vertex 8.5732 -21.8466 9
      vertex 2.84752 -20.6296 9
      vertex 8.36415 -23.8357 9
    endloop
  endfacet
  facet normal 0 0 1
    outer loop
      vertex 14.4268 -21.8466 9
      vertex 8.5732 -21.8466 9
      vertex 14.6359 -23.8357 9
    endloop
  endfacet
  facet normal 0 0 1
    outer loop
      vertex 20.1525 -20.6296 9
      vertex 14.4268 -21.8466 9
      vertex 20.7705 -22.5317 9
    endloop
  endfacet
  facet normal 0 0 1
    outer loop
      vertex 25.5 -18.2487 9
      vertex 20.1525 -20.6296 9
      vertex 26.5 -19.9808 9
    endloop
  endfacet
  facet normal 0 0 1
    outer loop
      vertex 30.2357 -14.8081 9
      vertex 25.5 -18.2487 9
      vertex 31.5739 -16.2943 9
    endloop
  endfacet
  facet normal 0 0 1
    outer loop
      vertex 34.1525 -10.458 9
      vertex 30.2357 -14.8081 9
      vertex 35.7705 -11.6336 9
    endloop
  endfacet
  facet normal 0 0 1
    outer loop
      vertex 38.8881 11.8215 9
      vertex 39.5 6 9
      vertex 41.5 6 9
    endloop
  endfacet
  facet normal 0 0 1
    outer loop
      vertex 37.0793 17.3886 9
      vertex 38.8881 11.8215 9
      vertex 40.8444 12.2374 9
    endloop
  endfacet
  facet normal 0 0 1
    outer loop
      vertex 34.1525 22.458 9
      vertex 37.0793 17.3886 9
      vertex 38.9064 18.2021 9
    endloop
  endfacet
  facet normal 0 0 1
    outer loop
      vertex 30.2357 26.8081 9
      vertex 34.1525 22.458 9
      vertex 35.7705 23.6336 9
    endloop
  endfacet
  facet normal 0 0 1
    outer loop
      vertex 25.5 30.2487 9
      vertex 30.2357 26.8081 9
      vertex 31.5739 28.2943 9
    endloop
  endfacet
  facet normal 0 0 1
    outer loop
      vertex 20.1525 32.6296 9
      vertex 25.5 30.2487 9
      vertex 26.5 31.9808 9
    endloop
  endfacet
  facet normal 0 0 1
    outer loop
      vertex 14.4268 33.8466 9
      vertex 20.1525 32.6296 9
      vertex 20.7705 34.5317 9
    endloop
  endfacet
  facet normal 0 0 1
    outer loop
      vertex 14.6359 35.8357 9
      vertex 14 33.8466 9
      vertex 20.7705 34.5317 9
    endloop
  endfacet
  facet normal 0 0 1
    outer loop
      vertex 14 33.8466 9
      vertex 14.4268 33.8466 9
      vertex 20.7705 34.5317 9
    endloop
  endfacet
  facet normal 0 0 1
    outer loop
      vertex 9 33.8466 9
      vertex 9 35.8357 9
      vertex 8.5732 33.8466 9
    endloop
  endfacet
  facet normal 0 0 1
    outer loop
      vertex 20.7705 34.5317 9
      vertex 20.1525 32.6296 9
      vertex 26.5 31.9808 9
    endloop
  endfacet
  facet normal 0 0 1
    outer loop
      vertex 26.5 31.9808 9
      vertex 25.5 30.2487 9
      vertex 31.5739 28.2943 9
    endloop
  endfacet
  facet normal 0 0 1
    outer loop
      vertex 31.5739 28.2943 9
      vertex 30.2357 26.8081 9
      vertex 35.7705 23.6336 9
    endloop
  endfacet
  facet normal 0 0 1
    outer loop
      vertex 35.7705 23.6336 9
      vertex 34.1525 22.458 9
      vertex 38.9064 18.2021 9
    endloop
  endfacet
  facet normal 0 0 1
    outer loop
      vertex 38.9064 18.2021 9
      vertex 37.0793 17.3886 9
      vertex 40.8444 12.2374 9
    endloop
  endfacet
  facet normal 0 0 1
    outer loop
      vertex 40.8444 12.2374 9
      vertex 38.8881 11.8215 9
      vertex 41.5 6 9
    endloop
  endfacet
  facet normal 0 0 1
    outer loop
      vertex 41.5 6 9
      vertex 39.5 6 9
      vertex 40.8444 -0.237351 9
    endloop
  endfacet
  facet normal 0 0 1
    outer loop
      vertex 39.5 6 9
      vertex 38.8881 0.178473 9
      vertex 40.8444 -0.237351 9
    endloop
  endfacet
  facet normal 0 0 1
    outer loop
      vertex 40.8444 -0.237351 9
      vertex 37.0793 -5.38863 9
      vertex 38.9064 -6.2021 9
    endloop
  endfacet
  facet normal 0 0 1
    outer loop
      vertex 38.9064 -6.2021 9
      vertex 34.1525 -10.458 9
      vertex 35.7705 -11.6336 9
    endloop
  endfacet
  facet normal 0 0 1
    outer loop
      vertex 35.7705 -11.6336 9
      vertex 30.2357 -14.8081 9
      vertex 31.5739 -16.2943 9
    endloop
  endfacet
  facet normal 0 0 1
    outer loop
      vertex 31.5739 -16.2943 9
      vertex 25.5 -18.2487 9
      vertex 26.5 -19.9808 9
    endloop
  endfacet
  facet normal 0 0 1
    outer loop
      vertex 26.5 -19.9808 9
      vertex 20.1525 -20.6296 9
      vertex 20.7705 -22.5317 9
    endloop
  endfacet
  facet normal 0 0 1
    outer loop
      vertex 20.7705 -22.5317 9
      vertex 14.4268 -21.8466 9
      vertex 14.6359 -23.8357 9
    endloop
  endfacet
  facet normal 0 0 1
    outer loop
      vertex 14.6359 -23.8357 9
      vertex 8.5732 -21.8466 9
      vertex 8.36415 -23.8357 9
    endloop
  endfacet
  facet normal 0 0 1
    outer loop
      vertex 8.36415 -23.8357 9
      vertex 2.84752 -20.6296 9
      vertex 2.22949 -22.5317 9
    endloop
  endfacet
  facet normal 0 0 1
    outer loop
      vertex 2.22949 -22.5317 9
      vertex -2.5 -18.2487 9
      vertex -3.5 -19.9808 9
    endloop
  endfacet
  facet normal 0 0 1
    outer loop
      vertex -3.5 -19.9808 9
      vertex -7.23566 -14.8081 9
      vertex -8.57392 -16.2943 9
    endloop
  endfacet
  facet normal 0 0 1
    outer loop
      vertex -8.57392 -16.2943 9
      vertex -11.1525 -10.458 9
      vertex -12.7705 -11.6336 9
    endloop
  endfacet
  facet normal 0 0 1
    outer loop
      vertex -11.1525 -10.458 9
      vertex -14.0793 -5.38863 9
      vertex -12.7705 -11.6336 9
    endloop
  endfacet
  facet normal 0 0 1
    outer loop
      vertex -12.7705 -11.6336 9
      vertex -15.8881 0.178473 9
      vertex -15.9064 -6.2021 9
    endloop
  endfacet
  facet normal 0 0 1
    outer loop
      vertex -15.8881 11.8215 9
      vertex -14.0793 17.3886 9
      vertex -17.8444 12.2374 9
    endloop
  endfacet
  facet normal 0 0 1
    outer loop
      vertex 37.0793 -5.38863 9
      vertex 34.1525 -10.458 9
      vertex 38.9064 -6.2021 9
    endloop
  endfacet
  facet normal 0 0 1
    outer loop
      vertex -11.1525 22.458 9
      vertex -17.8444 12.2374 9
      vertex -14.0793 17.3886 9
    endloop
  endfacet
  facet normal 0 0 1
    outer loop
      vertex -8.57392 28.2943 9
      vertex -17.8444 12.2374 9
      vertex -11.1525 22.458 9
    endloop
  endfacet
  facet normal 0 0 1
    outer loop
      vertex -3.5 31.9808 9
      vertex -11.1525 22.458 9
      vertex -7.23566 26.8081 9
    endloop
  endfacet
  facet normal 0 0 1
    outer loop
      vertex 8.5732 33.8466 9
      vertex 9 35.8357 9
      vertex 2.84752 32.6296 9
    endloop
  endfacet
  facet normal 0 0 1
    outer loop
      vertex 2.22949 34.5317 9
      vertex -7.23566 26.8081 9
      vertex -2.5 30.2487 9
    endloop
  endfacet
  facet normal 0 0 1
    outer loop
      vertex 9 35.8357 9
      vertex -2.5 30.2487 9
      vertex 2.84752 32.6296 9
    endloop
  endfacet
  facet normal 0 0 1
    outer loop
      vertex 8.36415 35.8357 9
      vertex -2.5 30.2487 9
      vertex 9 35.8357 9
    endloop
  endfacet
  facet normal 0 0 1
    outer loop
      vertex 2.22949 34.5317 9
      vertex -2.5 30.2487 9
      vertex 8.36415 35.8357 9
    endloop
  endfacet
  facet normal 0 0 1
    outer loop
      vertex -3.5 31.9808 9
      vertex -7.23566 26.8081 9
      vertex 2.22949 34.5317 9
    endloop
  endfacet
  facet normal 0 0 1
    outer loop
      vertex -8.57392 28.2943 9
      vertex -11.1525 22.458 9
      vertex -3.5 31.9808 9
    endloop
  endfacet
  facet normal 0 0 1
    outer loop
      vertex -12.7705 23.6336 9
      vertex -17.8444 12.2374 9
      vertex -8.57392 28.2943 9
    endloop
  endfacet
  facet normal 0 0 1
    outer loop
      vertex -15.9064 18.2021 9
      vertex -17.8444 12.2374 9
      vertex -12.7705 23.6336 9
    endloop
  endfacet
  facet normal 0 0 1
    outer loop
      vertex 14 35.8357 9
      vertex 14 33.8466 9
      vertex 14.6359 35.8357 9
    endloop
  endfacet
  facet normal 0 0 1
    outer loop
      vertex 38.8881 0.178473 9
      vertex 37.0793 -5.38863 9
      vertex 40.8444 -0.237351 9
    endloop
  endfacet
  facet normal 0 0 1
    outer loop
      vertex -16.5 6 9
      vertex -15.8881 11.8215 9
      vertex -17.8444 12.2374 9
    endloop
  endfacet
  facet normal 0.994522 -0.104528 0
    outer loop
      vertex -15.8881 11.8215 3
      vertex -15.8881 11.8215 9
      vertex -16.5 6 9
    endloop
  endfacet
  facet normal 0.994522 -0.104528 0
    outer loop
      vertex -16.5 6 3
      vertex -15.8881 11.8215 3
      vertex -16.5 6 9
    endloop
  endfacet
  facet normal 0.951057 -0.309017 0
    outer loop
      vertex -14.0793 17.3886 3
      vertex -14.0793 17.3886 9
      vertex -15.8881 11.8215 9
    endloop
  endfacet
  facet normal 0.951057 -0.309017 0
    outer loop
      vertex -15.8881 11.8215 3
      vertex -14.0793 17.3886 3
      vertex -15.8881 11.8215 9
    endloop
  endfacet
  facet normal 0.866025 -0.5 0
    outer loop
      vertex -11.1525 22.458 3
      vertex -11.1525 22.458 9
      vertex -14.0793 17.3886 9
    endloop
  endfacet
  facet normal 0.866025 -0.5 0
    outer loop
      vertex -14.0793 17.3886 3
      vertex -11.1525 22.458 3
      vertex -14.0793 17.3886 9
    endloop
  endfacet
  facet normal 0.743145 -0.669131 0
    outer loop
      vertex -7.23566 26.8081 3
      vertex -7.23566 26.8081 9
      vertex -11.1525 22.458 9
    endloop
  endfacet
  facet normal 0.743145 -0.669131 0
    outer loop
      vertex -11.1525 22.458 3
      vertex -7.23566 26.8081 3
      vertex -11.1525 22.458 9
    endloop
  endfacet
  facet normal 0.587785 -0.809017 0
    outer loop
      vertex -2.5 30.2487 3
      vertex -2.5 30.2487 9
      vertex -7.23566 26.8081 9
    endloop
  endfacet
  facet normal 0.587785 -0.809017 0
    outer loop
      vertex -7.23566 26.8081 3
      vertex -2.5 30.2487 3
      vertex -7.23566 26.8081 9
    endloop
  endfacet
  facet normal 0.406737 -0.913545 0
    outer loop
      vertex 2.84752 32.6296 3
      vertex 2.84752 32.6296 9
      vertex -2.5 30.2487 9
    endloop
  endfacet
  facet normal 0.406737 -0.913545 0
    outer loop
      vertex -2.5 30.2487 3
      vertex 2.84752 32.6296 3
      vertex -2.5 30.2487 9
    endloop
  endfacet
  facet normal 0.207912 -0.978148 0
    outer loop
      vertex 8.5732 33.8466 3
      vertex 8.5732 33.8466 9
      vertex 2.84752 32.6296 9
    endloop
  endfacet
  facet normal 0.207912 -0.978148 0
    outer loop
      vertex 2.84752 32.6296 3
      vertex 8.5732 33.8466 3
      vertex 2.84752 32.6296 9
    endloop
  endfacet
  facet normal 0 -1 0
    outer loop
      vertex 9 33.8466 3
      vertex 9 33.8466 9
      vertex 8.5732 33.8466 9
    endloop
  endfacet
  facet normal 0 -1 0
    outer loop
      vertex 8.5732 33.8466 3
      vertex 9 33.8466 3
      vertex 8.5732 33.8466 9
    endloop
  endfacet
  facet normal 1 0 0
    outer loop
      vertex 9 35 3
      vertex 9 35.8357 3
      vertex 9 35.8357 9
    endloop
  endfacet
  facet normal 1 0 0
    outer loop
      vertex 9 33.8466 3
      vertex 9 35 3
      vertex 9 33.8466 9
    endloop
  endfacet
  facet normal 1 0 0
    outer loop
      vertex 9 33.8466 9
      vertex 9 35 3
      vertex 9 35.8357 9
    endloop
  endfacet
  facet normal 0 0 1
    outer loop
      vertex 9 35.8357 3
      vertex 9 35 3
      vertex 14 35 3
    endloop
  endfacet
  facet normal 0 0 1
    outer loop
      vertex 14 35.8357 3
      vertex 9 35.8357 3
      vertex 14 35 3
    endloop
  endfacet
  facet normal -1 0 0
    outer loop
      vertex 14 35.8357 9
      vertex 14 35.8357 3
      vertex 14 33.8466 9
    endloop
  endfacet
  facet normal -1 0 0
    outer loop
      vertex 14 33.8466 9
      vertex 14 35.8357 3
      vertex 14 35 3
    endloop
  endfacet
  facet normal -1 0 0
    outer loop
      vertex 14 33.8466 9
      vertex 14 35 3
      vertex 14 33.8466 3
    endloop
  endfacet
  facet normal 0 -1 0
    outer loop
      vertex 14.4268 33.8466 3
      vertex 14.4268 33.8466 9
      vertex 14 33.8466 9
    endloop
  endfacet
  facet normal 0 -1 0
    outer loop
      vertex 14 33.8466 3
      vertex 14.4268 33.8466 3
      vertex 14 33.8466 9
    endloop
  endfacet
  facet normal -0.207912 -0.978148 0
    outer loop
      vertex 20.1525 32.6296 3
      vertex 20.1525 32.6296 9
      vertex 14.4268 33.8466 9
    endloop
  endfacet
  facet normal -0.207912 -0.978148 0
    outer loop
      vertex 14.4268 33.8466 3
      vertex 20.1525 32.6296 3
      vertex 14.4268 33.8466 9
    endloop
  endfacet
  facet normal -0.406737 -0.913545 0
    outer loop
      vertex 25.5 30.2487 3
      vertex 25.5 30.2487 9
      vertex 20.1525 32.6296 9
    endloop
  endfacet
  facet normal -0.406737 -0.913545 0
    outer loop
      vertex 20.1525 32.6296 3
      vertex 25.5 30.2487 3
      vertex 20.1525 32.6296 9
    endloop
  endfacet
  facet normal -0.587785 -0.809017 0
    outer loop
      vertex 30.2357 26.8081 3
      vertex 30.2357 26.8081 9
      vertex 25.5 30.2487 9
    endloop
  endfacet
  facet normal -0.587785 -0.809017 0
    outer loop
      vertex 25.5 30.2487 3
      vertex 30.2357 26.8081 3
      vertex 25.5 30.2487 9
    endloop
  endfacet
  facet normal -0.743145 -0.669131 0
    outer loop
      vertex 34.1525 22.458 9
      vertex 30.2357 26.8081 9
      vertex 34.1525 22.458 3
    endloop
  endfacet
  facet normal -0.743145 -0.669131 0
    outer loop
      vertex 34.1525 22.458 3
      vertex 30.2357 26.8081 9
      vertex 30.2357 26.8081 3
    endloop
  endfacet
  facet normal -0.866025 -0.5 0
    outer loop
      vertex 37.0793 17.3886 9
      vertex 34.1525 22.458 9
      vertex 37.0793 17.3886 3
    endloop
  endfacet
  facet normal -0.866025 -0.5 0
    outer loop
      vertex 37.0793 17.3886 3
      vertex 34.1525 22.458 9
      vertex 34.1525 22.458 3
    endloop
  endfacet
  facet normal -0.951057 -0.309017 0
    outer loop
      vertex 38.8881 11.8215 9
      vertex 37.0793 17.3886 9
      vertex 38.8881 11.8215 3
    endloop
  endfacet
  facet normal -0.951057 -0.309017 0
    outer loop
      vertex 38.8881 11.8215 3
      vertex 37.0793 17.3886 9
      vertex 37.0793 17.3886 3
    endloop
  endfacet
  facet normal -0.994522 -0.104528 0
    outer loop
      vertex 39.5 6 9
      vertex 38.8881 11.8215 9
      vertex 39.5 6 3
    endloop
  endfacet
  facet normal -0.994522 -0.104528 0
    outer loop
      vertex 39.5 6 3
      vertex 38.8881 11.8215 9
      vertex 38.8881 11.8215 3
    endloop
  endfacet
  facet normal -0.994522 0.104528 0
    outer loop
      vertex 39.5 6 9
      vertex 39.5 6 3
      vertex 38.8881 0.178473 9
    endloop
  endfacet
  facet normal -0.994522 0.104528 0
    outer loop
      vertex 38.8881 0.178473 9
      vertex 39.5 6 3
      vertex 38.8881 0.178473 3
    endloop
  endfacet
  facet normal -0.951057 0.309017 0
    outer loop
      vertex 38.8881 0.178473 9
      vertex 38.8881 0.178473 3
      vertex 37.0793 -5.38863 9
    endloop
  endfacet
  facet normal -0.951057 0.309017 0
    outer loop
      vertex 37.0793 -5.38863 9
      vertex 38.8881 0.178473 3
      vertex 37.0793 -5.38863 3
    endloop
  endfacet
  facet normal -0.866025 0.5 0
    outer loop
      vertex 37.0793 -5.38863 9
      vertex 37.0793 -5.38863 3
      vertex 34.1525 -10.458 9
    endloop
  endfacet
  facet normal -0.866025 0.5 0
    outer loop
      vertex 34.1525 -10.458 9
      vertex 37.0793 -5.38863 3
      vertex 34.1525 -10.458 3
    endloop
  endfacet
  facet normal -0.743145 0.669131 0
    outer loop
      vertex 34.1525 -10.458 9
      vertex 34.1525 -10.458 3
      vertex 30.2357 -14.8081 9
    endloop
  endfacet
  facet normal -0.743145 0.669131 0
    outer loop
      vertex 30.2357 -14.8081 9
      vertex 34.1525 -10.458 3
      vertex 30.2357 -14.8081 3
    endloop
  endfacet
  facet normal -0.587785 0.809017 0
    outer loop
      vertex 30.2357 -14.8081 9
      vertex 30.2357 -14.8081 3
      vertex 25.5 -18.2487 9
    endloop
  endfacet
  facet normal -0.587785 0.809017 0
    outer loop
      vertex 25.5 -18.2487 9
      vertex 30.2357 -14.8081 3
      vertex 25.5 -18.2487 3
    endloop
  endfacet
  facet normal -0.406737 0.913545 0
    outer loop
      vertex 25.5 -18.2487 9
      vertex 25.5 -18.2487 3
      vertex 20.1525 -20.6296 9
    endloop
  endfacet
  facet normal -0.406737 0.913545 0
    outer loop
      vertex 20.1525 -20.6296 9
      vertex 25.5 -18.2487 3
      vertex 20.1525 -20.6296 3
    endloop
  endfacet
  facet normal -0.207912 0.978148 0
    outer loop
      vertex 20.1525 -20.6296 9
      vertex 20.1525 -20.6296 3
      vertex 14.4268 -21.8466 9
    endloop
  endfacet
  facet normal -0.207912 0.978148 0
    outer loop
      vertex 14.4268 -21.8466 9
      vertex 20.1525 -20.6296 3
      vertex 14.4268 -21.8466 3
    endloop
  endfacet
  facet normal 0 1 0
    outer loop
      vertex 14.4268 -21.8466 9
      vertex 14.4268 -21.8466 3
      vertex 8.5732 -21.8466 9
    endloop
  endfacet
  facet normal 0 1 0
    outer loop
      vertex 8.5732 -21.8466 9
      vertex 14.4268 -21.8466 3
      vertex 8.5732 -21.8466 3
    endloop
  endfacet
  facet normal 0.207912 0.978148 0
    outer loop
      vertex 8.5732 -21.8466 9
      vertex 8.5732 -21.8466 3
      vertex 2.84752 -20.6296 9
    endloop
  endfacet
  facet normal 0.207912 0.978148 0
    outer loop
      vertex 2.84752 -20.6296 9
      vertex 8.5732 -21.8466 3
      vertex 2.84752 -20.6296 3
    endloop
  endfacet
  facet normal 0.406737 0.913545 0
    outer loop
      vertex 2.84752 -20.6296 9
      vertex 2.84752 -20.6296 3
      vertex -2.5 -18.2487 9
    endloop
  endfacet
  facet normal 0.406737 0.913545 0
    outer loop
      vertex -2.5 -18.2487 9
      vertex 2.84752 -20.6296 3
      vertex -2.5 -18.2487 3
    endloop
  endfacet
  facet normal 0.587785 0.809017 0
    outer loop
      vertex -2.5 -18.2487 9
      vertex -2.5 -18.2487 3
      vertex -7.23566 -14.8081 9
    endloop
  endfacet
  facet normal 0.587785 0.809017 0
    outer loop
      vertex -7.23566 -14.8081 9
      vertex -2.5 -18.2487 3
      vertex -7.23566 -14.8081 3
    endloop
  endfacet
  facet normal 0.743145 0.669131 0
    outer loop
      vertex -11.1525 -10.458 9
      vertex -7.23566 -14.8081 9
      vertex -7.23566 -14.8081 3
    endloop
  endfacet
  facet normal 0.743145 0.669131 0
    outer loop
      vertex -11.1525 -10.458 3
      vertex -11.1525 -10.458 9
      vertex -7.23566 -14.8081 3
    endloop
  endfacet
  facet normal 0.866025 0.5 0
    outer loop
      vertex -14.0793 -5.38863 9
      vertex -11.1525 -10.458 9
      vertex -11.1525 -10.458 3
    endloop
  endfacet
  facet normal 0.866025 0.5 0
    outer loop
      vertex -14.0793 -5.38863 3
      vertex -14.0793 -5.38863 9
      vertex -11.1525 -10.458 3
    endloop
  endfacet
  facet normal 0.951057 0.309017 0
    outer loop
      vertex -15.8881 0.178473 9
      vertex -14.0793 -5.38863 9
      vertex -14.0793 -5.38863 3
    endloop
  endfacet
  facet normal 0.951057 0.309017 0
    outer loop
      vertex -15.8881 0.178473 3
      vertex -15.8881 0.178473 9
      vertex -14.0793 -5.38863 3
    endloop
  endfacet
  facet normal 0.994522 0.104528 0
    outer loop
      vertex -16.5 6 9
      vertex -15.8881 0.178473 9
      vertex -15.8881 0.178473 3
    endloop
  endfacet
  facet normal 0.994522 0.104528 0
    outer loop
      vertex -16.5 6 3
      vertex -16.5 6 9
      vertex -15.8881 0.178473 3
    endloop
  endfacet
endsolid OpenSCAD_Model
