solid OpenSCAD_Model
  facet normal -1 0 0
    outer loop
      vertex -58.5 -30.5 0
      vertex -58.5 -30.5 3
      vertex -58.5 39.5 0
    endloop
  endfacet
  facet normal -1 0 0
    outer loop
      vertex -58.5 39.5 0
      vertex -58.5 -30.5 3
      vertex -58.5 39.5 3
    endloop
  endfacet
  facet normal 0 -1 0
    outer loop
      vertex -58.5 -30.5 3
      vertex -58.5 -30.5 0
      vertex 58.5 -30.5 0
    endloop
  endfacet
  facet normal 0 -1 0
    outer loop
      vertex 58.5 -30.5 3
      vertex -58.5 -30.5 3
      vertex 58.5 -30.5 0
    endloop
  endfacet
  facet normal 0 0 -1
    outer loop
      vertex 12.0313 34.8411 0
      vertex -58.5 39.5 0
      vertex 58.5 39.5 0
    endloop
  endfacet
  facet normal 0 0 -1
    outer loop
      vertex -58.5 -30.5 0
      vertex -58.5 39.5 0
      vertex -57.3019 -26.6322 0
    endloop
  endfacet
  facet normal 0 0 -1
    outer loop
      vertex -20 6 0
      vertex -54.253 28.9363 0
      vertex -53.5 30.5 0
    endloop
  endfacet
  facet normal 0 0 -1
    outer loop
      vertex -58.5 -30.5 0
      vertex -57.3019 -26.6322 0
      vertex -57.3019 -28.3678 0
    endloop
  endfacet
  facet normal 0 0 -1
    outer loop
      vertex -58.5 -30.5 0
      vertex -57.3019 -28.3678 0
      vertex -55.945 -29.4499 0
    endloop
  endfacet
  facet normal 0 0 -1
    outer loop
      vertex -58.5 -30.5 0
      vertex -55.945 -29.4499 0
      vertex 58.5 -30.5 0
    endloop
  endfacet
  facet normal 0 0 -1
    outer loop
      vertex -23 -27.5 0
      vertex 58.5 -30.5 0
      vertex -23.753 -29.0637 0
    endloop
  endfacet
  facet normal 0 0 -1
    outer loop
      vertex -25.445 -29.4499 0
      vertex -54.253 -29.0637 0
      vertex -53.5 -27.5 0
    endloop
  endfacet
  facet normal 0 0 -1
    outer loop
      vertex -55.945 -25.5501 0
      vertex -58.5 39.5 0
      vertex -54.253 -25.9363 0
    endloop
  endfacet
  facet normal 0 0 -1
    outer loop
      vertex -57.3019 -26.6322 0
      vertex -58.5 39.5 0
      vertex -55.945 -25.5501 0
    endloop
  endfacet
  facet normal 0 0 -1
    outer loop
      vertex -57.3019 29.6322 0
      vertex -58.5 39.5 0
      vertex -57.3019 31.3678 0
    endloop
  endfacet
  facet normal 0 0 -1
    outer loop
      vertex -54.253 -25.9363 0
      vertex -58.5 39.5 0
      vertex -57.3019 29.6322 0
    endloop
  endfacet
  facet normal 0 0 -1
    outer loop
      vertex -26.8019 -28.3678 0
      vertex -53.5 -27.5 0
      vertex -54.253 -25.9363 0
    endloop
  endfacet
  facet normal 0 0 -1
    outer loop
      vertex -55.945 32.4499 0
      vertex -58.5 39.5 0
      vertex -54.253 32.0637 0
    endloop
  endfacet
  facet normal 0 0 -1
    outer loop
      vertex -26.8019 -28.3678 0
      vertex -54.253 -25.9363 0
      vertex -26.8019 -26.6322 0
    endloop
  endfacet
  facet normal 0 0 -1
    outer loop
      vertex -57.3019 31.3678 0
      vertex -58.5 39.5 0
      vertex -55.945 32.4499 0
    endloop
  endfacet
  facet normal 0 0 -1
    outer loop
      vertex -54.253 -25.9363 0
      vertex -55.945 28.5501 0
      vertex -26.8019 -26.6322 0
    endloop
  endfacet
  facet normal 0 0 -1
    outer loop
      vertex -25.445 -29.4499 0
      vertex -53.5 -27.5 0
      vertex -26.8019 -28.3678 0
    endloop
  endfacet
  facet normal 0 0 -1
    outer loop
      vertex -23.753 -29.0637 0
      vertex 58.5 -30.5 0
      vertex -25.445 -29.4499 0
    endloop
  endfacet
  facet normal 0 0 -1
    outer loop
      vertex -55.945 -29.4499 0
      vertex -54.253 -29.0637 0
      vertex -25.445 -29.4499 0
    endloop
  endfacet
  facet normal 0 0 -1
    outer loop
      vertex -55.945 -29.4499 0
      vertex -25.445 -29.4499 0
      vertex 58.5 -30.5 0
    endloop
  endfacet
  facet normal 0 0 -1
    outer loop
      vertex -23.753 -25.9363 0
      vertex 58.5 -30.5 0
      vertex -23 -27.5 0
    endloop
  endfacet
  facet normal 0 0 -1
    outer loop
      vertex -55.945 28.5501 0
      vertex -54.253 -25.9363 0
      vertex -57.3019 29.6322 0
    endloop
  endfacet
  facet normal 0 0 -1
    outer loop
      vertex -25.445 -25.5501 0
      vertex -55.945 28.5501 0
      vertex -23.753 -25.9363 0
    endloop
  endfacet
  facet normal 0 0 -1
    outer loop
      vertex -20 6 0
      vertex -55.945 28.5501 0
      vertex -54.253 28.9363 0
    endloop
  endfacet
  facet normal 0 0 -1
    outer loop
      vertex -26.8019 -26.6322 0
      vertex -55.945 28.5501 0
      vertex -25.445 -25.5501 0
    endloop
  endfacet
  facet normal 0 0 -1
    outer loop
      vertex -23.753 -25.9363 0
      vertex -55.945 28.5501 0
      vertex -20 6 0
    endloop
  endfacet
  facet normal 0 0 -1
    outer loop
      vertex -19.3663 12.0294 0
      vertex -54.253 32.0637 0
      vertex -58.5 39.5 0
    endloop
  endfacet
  facet normal 0 0 -1
    outer loop
      vertex -23.753 -25.9363 0
      vertex -20 6 0
      vertex -19.3663 -0.029439 0
    endloop
  endfacet
  facet normal 0 0 -1
    outer loop
      vertex -23.753 -25.9363 0
      vertex -19.3663 -0.029439 0
      vertex -17.4928 -5.79536 0
    endloop
  endfacet
  facet normal 0 0 -1
    outer loop
      vertex -23.753 -25.9363 0
      vertex -17.4928 -5.79536 0
      vertex -14.4615 -11.0458 0
    endloop
  endfacet
  facet normal 0 0 -1
    outer loop
      vertex -23.753 -25.9363 0
      vertex -14.4615 -11.0458 0
      vertex -10.4048 -15.5512 0
    endloop
  endfacet
  facet normal 0 0 -1
    outer loop
      vertex 55.055 -29.4499 0
      vertex 58.5 -30.5 0
      vertex 17.9615 -21.5806 0
    endloop
  endfacet
  facet normal 0 0 -1
    outer loop
      vertex -23.753 -25.9363 0
      vertex -10.4048 -15.5512 0
      vertex -5.5 -19.1147 0
    endloop
  endfacet
  facet normal 0 0 -1
    outer loop
      vertex 23.5 -19.1147 0
      vertex 55.055 -29.4499 0
      vertex 17.9615 -21.5806 0
    endloop
  endfacet
  facet normal 0 0 -1
    outer loop
      vertex -23.753 -25.9363 0
      vertex -5.5 -19.1147 0
      vertex 0.038507 -21.5806 0
    endloop
  endfacet
  facet normal 0 0 -1
    outer loop
      vertex -23.753 -25.9363 0
      vertex 0.038507 -21.5806 0
      vertex 5.96868 -22.8411 0
    endloop
  endfacet
  facet normal 0 0 -1
    outer loop
      vertex -23.753 -25.9363 0
      vertex 5.96868 -22.8411 0
      vertex 58.5 -30.5 0
    endloop
  endfacet
  facet normal 0 0 -1
    outer loop
      vertex 17.9615 -21.5806 0
      vertex 58.5 -30.5 0
      vertex 12.0313 -22.8411 0
    endloop
  endfacet
  facet normal 0 0 -1
    outer loop
      vertex 56.747 -29.0637 0
      vertex 58.5 -30.5 0
      vertex 55.055 -29.4499 0
    endloop
  endfacet
  facet normal 0 0 -1
    outer loop
      vertex 55.055 -29.4499 0
      vertex 23.5 -19.1147 0
      vertex 53.6981 -28.3678 0
    endloop
  endfacet
  facet normal 0 0 -1
    outer loop
      vertex 12.0313 -22.8411 0
      vertex 58.5 -30.5 0
      vertex 5.96868 -22.8411 0
    endloop
  endfacet
  facet normal 0 0 -1
    outer loop
      vertex 53.6981 29.6322 0
      vertex 37.3663 -0.029439 0
      vertex 53.6981 31.3678 0
    endloop
  endfacet
  facet normal 0 0 -1
    outer loop
      vertex 53.6981 -26.6322 0
      vertex 32.4615 -11.0458 0
      vertex 35.4928 -5.79536 0
    endloop
  endfacet
  facet normal 0 0 -1
    outer loop
      vertex -19.3663 12.0294 0
      vertex -58.5 39.5 0
      vertex -17.4928 17.7954 0
    endloop
  endfacet
  facet normal 0 0 -1
    outer loop
      vertex 0.038507 33.5806 0
      vertex -58.5 39.5 0
      vertex 5.96868 34.8411 0
    endloop
  endfacet
  facet normal 0 0 -1
    outer loop
      vertex -17.4928 17.7954 0
      vertex -58.5 39.5 0
      vertex -14.4615 23.0458 0
    endloop
  endfacet
  facet normal 0 0 -1
    outer loop
      vertex 53.6981 31.3678 0
      vertex 38 6 0
      vertex 58.5 39.5 0
    endloop
  endfacet
  facet normal 0 0 -1
    outer loop
      vertex 38 6 0
      vertex 37.3663 12.0294 0
      vertex 58.5 39.5 0
    endloop
  endfacet
  facet normal 0 0 -1
    outer loop
      vertex -14.4615 23.0458 0
      vertex -58.5 39.5 0
      vertex -10.4048 27.5512 0
    endloop
  endfacet
  facet normal 0 0 -1
    outer loop
      vertex 37.3663 12.0294 0
      vertex 35.4928 17.7954 0
      vertex 58.5 39.5 0
    endloop
  endfacet
  facet normal 0 0 -1
    outer loop
      vertex 35.4928 17.7954 0
      vertex 32.4615 23.0458 0
      vertex 58.5 39.5 0
    endloop
  endfacet
  facet normal 0 0 -1
    outer loop
      vertex -10.4048 27.5512 0
      vertex -58.5 39.5 0
      vertex -5.5 31.1147 0
    endloop
  endfacet
  facet normal 0 0 -1
    outer loop
      vertex 32.4615 23.0458 0
      vertex 28.4048 27.5512 0
      vertex 58.5 39.5 0
    endloop
  endfacet
  facet normal 0 0 -1
    outer loop
      vertex 28.4048 27.5512 0
      vertex 23.5 31.1147 0
      vertex 58.5 39.5 0
    endloop
  endfacet
  facet normal 0 0 -1
    outer loop
      vertex -5.5 31.1147 0
      vertex -58.5 39.5 0
      vertex 0.038507 33.5806 0
    endloop
  endfacet
  facet normal 0 0 -1
    outer loop
      vertex 23.5 31.1147 0
      vertex 17.9615 33.5806 0
      vertex 58.5 39.5 0
    endloop
  endfacet
  facet normal 0 0 -1
    outer loop
      vertex 5.96868 34.8411 0
      vertex -58.5 39.5 0
      vertex 12.0313 34.8411 0
    endloop
  endfacet
  facet normal 0 0 -1
    outer loop
      vertex 17.9615 33.5806 0
      vertex 12.0313 34.8411 0
      vertex 58.5 39.5 0
    endloop
  endfacet
  facet normal 0 0 -1
    outer loop
      vertex -53.5 30.5 0
      vertex -54.253 32.0637 0
      vertex -19.3663 12.0294 0
    endloop
  endfacet
  facet normal 0 0 -1
    outer loop
      vertex 53.6981 -28.3678 0
      vertex 28.4048 -15.5512 0
      vertex 32.4615 -11.0458 0
    endloop
  endfacet
  facet normal 0 0 -1
    outer loop
      vertex 53.6981 -26.6322 0
      vertex 35.4928 -5.79536 0
      vertex 55.055 -25.5501 0
    endloop
  endfacet
  facet normal 0 0 -1
    outer loop
      vertex 28.4048 -15.5512 0
      vertex 53.6981 -28.3678 0
      vertex 23.5 -19.1147 0
    endloop
  endfacet
  facet normal 0 0 -1
    outer loop
      vertex 57.5 -27.5 0
      vertex 58.5 -30.5 0
      vertex 56.747 -29.0637 0
    endloop
  endfacet
  facet normal 0 0 -1
    outer loop
      vertex 53.6981 -28.3678 0
      vertex 32.4615 -11.0458 0
      vertex 53.6981 -26.6322 0
    endloop
  endfacet
  facet normal 0 0 -1
    outer loop
      vertex 53.6981 31.3678 0
      vertex 58.5 39.5 0
      vertex 55.055 32.4499 0
    endloop
  endfacet
  facet normal 0 0 -1
    outer loop
      vertex 58.5 -30.5 0
      vertex 57.5 -27.5 0
      vertex 58.5 39.5 0
    endloop
  endfacet
  facet normal 0 0 -1
    outer loop
      vertex 57.5 -27.5 0
      vertex 56.747 -25.9363 0
      vertex 58.5 39.5 0
    endloop
  endfacet
  facet normal 0 0 -1
    outer loop
      vertex 55.055 -25.5501 0
      vertex 35.4928 -5.79536 0
      vertex 56.747 -25.9363 0
    endloop
  endfacet
  facet normal 0 0 -1
    outer loop
      vertex 37.3663 -0.029439 0
      vertex 38 6 0
      vertex 53.6981 31.3678 0
    endloop
  endfacet
  facet normal 0 0 -1
    outer loop
      vertex 53.6981 29.6322 0
      vertex 35.4928 -5.79536 0
      vertex 37.3663 -0.029439 0
    endloop
  endfacet
  facet normal 0 0 -1
    outer loop
      vertex 56.747 -25.9363 0
      vertex 35.4928 -5.79536 0
      vertex 53.6981 29.6322 0
    endloop
  endfacet
  facet normal 0 0 -1
    outer loop
      vertex 56.747 -25.9363 0
      vertex 53.6981 29.6322 0
      vertex 55.055 28.5501 0
    endloop
  endfacet
  facet normal 0 0 -1
    outer loop
      vertex 56.747 -25.9363 0
      vertex 55.055 28.5501 0
      vertex 56.747 28.9363 0
    endloop
  endfacet
  facet normal 0 0 -1
    outer loop
      vertex 56.747 -25.9363 0
      vertex 56.747 28.9363 0
      vertex 57.5 30.5 0
    endloop
  endfacet
  facet normal 0 0 -1
    outer loop
      vertex 56.747 -25.9363 0
      vertex 57.5 30.5 0
      vertex 58.5 39.5 0
    endloop
  endfacet
  facet normal 0 0 -1
    outer loop
      vertex 55.055 32.4499 0
      vertex 58.5 39.5 0
      vertex 56.747 32.0637 0
    endloop
  endfacet
  facet normal 0 0 -1
    outer loop
      vertex 56.747 32.0637 0
      vertex 58.5 39.5 0
      vertex 57.5 30.5 0
    endloop
  endfacet
  facet normal 0 0 -1
    outer loop
      vertex -20 6 0
      vertex -53.5 30.5 0
      vertex -19.3663 12.0294 0
    endloop
  endfacet
  facet normal 0 1 0
    outer loop
      vertex -58.5 39.5 0
      vertex -58.5 39.5 3
      vertex 58.5 39.5 0
    endloop
  endfacet
  facet normal 0 1 0
    outer loop
      vertex 58.5 39.5 0
      vertex -58.5 39.5 3
      vertex 58.5 39.5 3
    endloop
  endfacet
  facet normal 0 0 1
    outer loop
      vertex -25.445 -29.4499 3
      vertex -58.5 -30.5 3
      vertex 58.5 -30.5 3
    endloop
  endfacet
  facet normal 0 0 1
    outer loop
      vertex -53.5 30.5 3
      vertex -54.253 28.9363 3
      vertex -20.3444 12.2374 3
    endloop
  endfacet
  facet normal 0 0 1
    outer loop
      vertex -58.5 39.5 3
      vertex -58.5 -30.5 3
      vertex -57.3019 -28.3678 3
    endloop
  endfacet
  facet normal 0 0 1
    outer loop
      vertex -58.5 39.5 3
      vertex -57.3019 -28.3678 3
      vertex -57.3019 -26.6322 3
    endloop
  endfacet
  facet normal 0 0 1
    outer loop
      vertex -58.5 39.5 3
      vertex -57.3019 -26.6322 3
      vertex -55.945 -25.5501 3
    endloop
  endfacet
  facet normal 0 0 1
    outer loop
      vertex -23.753 -25.9363 3
      vertex -23 -27.5 3
      vertex 58.5 -30.5 3
    endloop
  endfacet
  facet normal 0 0 1
    outer loop
      vertex -55.945 -29.4499 3
      vertex -58.5 -30.5 3
      vertex -54.253 -29.0637 3
    endloop
  endfacet
  facet normal 0 0 1
    outer loop
      vertex -57.3019 -28.3678 3
      vertex -58.5 -30.5 3
      vertex -55.945 -29.4499 3
    endloop
  endfacet
  facet normal 0 0 1
    outer loop
      vertex -58.5 39.5 3
      vertex -55.945 -25.5501 3
      vertex -57.3019 29.6322 3
    endloop
  endfacet
  facet normal 0 0 1
    outer loop
      vertex -20.3444 12.2374 3
      vertex -54.253 32.0637 3
      vertex -53.5 30.5 3
    endloop
  endfacet
  facet normal 0 0 1
    outer loop
      vertex -58.5 39.5 3
      vertex -57.3019 29.6322 3
      vertex -57.3019 31.3678 3
    endloop
  endfacet
  facet normal 0 0 1
    outer loop
      vertex -58.5 39.5 3
      vertex -57.3019 31.3678 3
      vertex -55.945 32.4499 3
    endloop
  endfacet
  facet normal 0 0 1
    outer loop
      vertex -58.5 39.5 3
      vertex -55.945 32.4499 3
      vertex -54.253 32.0637 3
    endloop
  endfacet
  facet normal 0 0 1
    outer loop
      vertex -23.753 -29.0637 3
      vertex -25.445 -29.4499 3
      vertex 58.5 -30.5 3
    endloop
  endfacet
  facet normal 0 0 1
    outer loop
      vertex -57.3019 29.6322 3
      vertex -55.945 -25.5501 3
      vertex -55.945 28.5501 3
    endloop
  endfacet
  facet normal 0 0 1
    outer loop
      vertex -25.445 -29.4499 3
      vertex -26.8019 -28.3678 3
      vertex -53.5 -27.5 3
    endloop
  endfacet
  facet normal 0 0 1
    outer loop
      vertex -23 -27.5 3
      vertex -23.753 -29.0637 3
      vertex 58.5 -30.5 3
    endloop
  endfacet
  facet normal 0 0 1
    outer loop
      vertex -55.945 28.5501 3
      vertex -55.945 -25.5501 3
      vertex -26.8019 -26.6322 3
    endloop
  endfacet
  facet normal 0 0 1
    outer loop
      vertex 12.1359 -23.8357 3
      vertex -25.445 -25.5501 3
      vertex 58.5 -30.5 3
    endloop
  endfacet
  facet normal 0 0 1
    outer loop
      vertex -55.945 28.5501 3
      vertex -26.8019 -26.6322 3
      vertex -25.445 -25.5501 3
    endloop
  endfacet
  facet normal 0 0 1
    outer loop
      vertex -25.445 -25.5501 3
      vertex -23.753 -25.9363 3
      vertex 58.5 -30.5 3
    endloop
  endfacet
  facet normal 0 0 1
    outer loop
      vertex -21 6 3
      vertex -54.253 28.9363 3
      vertex -55.945 28.5501 3
    endloop
  endfacet
  facet normal 0 0 1
    outer loop
      vertex -26.8019 -28.3678 3
      vertex -54.253 -25.9363 3
      vertex -53.5 -27.5 3
    endloop
  endfacet
  facet normal 0 0 1
    outer loop
      vertex -54.253 -29.0637 3
      vertex -58.5 -30.5 3
      vertex -25.445 -29.4499 3
    endloop
  endfacet
  facet normal 0 0 1
    outer loop
      vertex -55.945 28.5501 3
      vertex -25.445 -25.5501 3
      vertex -20.3444 -0.237351 3
    endloop
  endfacet
  facet normal 0 0 1
    outer loop
      vertex 55.055 -25.5501 3
      vertex 56.747 -25.9363 3
      vertex 36.4064 18.2021 3
    endloop
  endfacet
  facet normal 0 0 1
    outer loop
      vertex -55.945 28.5501 3
      vertex -20.3444 -0.237351 3
      vertex -21 6 3
    endloop
  endfacet
  facet normal 0 0 1
    outer loop
      vertex 6.5 35.8357 3
      vertex 6.5 34.8411 3
      vertex 11.5 35.8357 3
    endloop
  endfacet
  facet normal 0 0 1
    outer loop
      vertex -25.445 -29.4499 3
      vertex -53.5 -27.5 3
      vertex -54.253 -29.0637 3
    endloop
  endfacet
  facet normal 0 0 1
    outer loop
      vertex 53.6981 -26.6322 3
      vertex 55.055 -25.5501 3
      vertex 36.4064 -6.2021 3
    endloop
  endfacet
  facet normal 0 0 1
    outer loop
      vertex -15.2705 23.6336 3
      vertex -58.5 39.5 3
      vertex -18.4064 18.2021 3
    endloop
  endfacet
  facet normal 0 0 1
    outer loop
      vertex -11.0739 28.2943 3
      vertex -58.5 39.5 3
      vertex -15.2705 23.6336 3
    endloop
  endfacet
  facet normal 0 0 1
    outer loop
      vertex 24 31.9808 3
      vertex 29.0739 28.2943 3
      vertex 58.5 39.5 3
    endloop
  endfacet
  facet normal 0 0 1
    outer loop
      vertex -6 31.9808 3
      vertex -58.5 39.5 3
      vertex -11.0739 28.2943 3
    endloop
  endfacet
  facet normal 0 0 1
    outer loop
      vertex -0.27051 34.5317 3
      vertex -58.5 39.5 3
      vertex -6 31.9808 3
    endloop
  endfacet
  facet normal 0 0 1
    outer loop
      vertex 5.86415 35.8357 3
      vertex -58.5 39.5 3
      vertex -0.27051 34.5317 3
    endloop
  endfacet
  facet normal 0 0 1
    outer loop
      vertex 58.5 39.5 3
      vertex -58.5 39.5 3
      vertex 5.86415 35.8357 3
    endloop
  endfacet
  facet normal 0 0 1
    outer loop
      vertex 55.055 32.4499 3
      vertex 56.747 32.0637 3
      vertex 58.5 39.5 3
    endloop
  endfacet
  facet normal 0 0 1
    outer loop
      vertex 58.5 39.5 3
      vertex 5.86415 35.8357 3
      vertex 6.5 35.8357 3
    endloop
  endfacet
  facet normal 0 0 1
    outer loop
      vertex 18.2705 34.5317 3
      vertex 24 31.9808 3
      vertex 58.5 39.5 3
    endloop
  endfacet
  facet normal 0 0 1
    outer loop
      vertex 12.1359 35.8357 3
      vertex 18.2705 34.5317 3
      vertex 58.5 39.5 3
    endloop
  endfacet
  facet normal 0 0 1
    outer loop
      vertex 11.5 34.8411 3
      vertex 11.5 35.8357 3
      vertex 6.5 34.8411 3
    endloop
  endfacet
  facet normal 0 0 1
    outer loop
      vertex 58.5 39.5 3
      vertex 6.5 35.8357 3
      vertex 11.5 35.8357 3
    endloop
  endfacet
  facet normal 0 0 1
    outer loop
      vertex 58.5 39.5 3
      vertex 11.5 35.8357 3
      vertex 12.1359 35.8357 3
    endloop
  endfacet
  facet normal 0 0 1
    outer loop
      vertex 57.5 -27.5 3
      vertex 56.747 -29.0637 3
      vertex 58.5 -30.5 3
    endloop
  endfacet
  facet normal 0 0 1
    outer loop
      vertex 58.5 39.5 3
      vertex 29.0739 28.2943 3
      vertex 33.2705 23.6336 3
    endloop
  endfacet
  facet normal 0 0 1
    outer loop
      vertex 58.5 39.5 3
      vertex 33.2705 23.6336 3
      vertex 36.4064 18.2021 3
    endloop
  endfacet
  facet normal 0 0 1
    outer loop
      vertex -20.3444 12.2374 3
      vertex -58.5 39.5 3
      vertex -54.253 32.0637 3
    endloop
  endfacet
  facet normal 0 0 1
    outer loop
      vertex -20.3444 12.2374 3
      vertex -18.4064 18.2021 3
      vertex -58.5 39.5 3
    endloop
  endfacet
  facet normal 0 0 1
    outer loop
      vertex 55.055 -29.4499 3
      vertex 18.2705 -22.5317 3
      vertex 58.5 -30.5 3
    endloop
  endfacet
  facet normal 0 0 1
    outer loop
      vertex 55.055 -29.4499 3
      vertex 53.6981 -28.3678 3
      vertex 24 -19.9808 3
    endloop
  endfacet
  facet normal 0 0 1
    outer loop
      vertex 18.2705 -22.5317 3
      vertex 12.1359 -23.8357 3
      vertex 58.5 -30.5 3
    endloop
  endfacet
  facet normal 0 0 1
    outer loop
      vertex 5.86415 -23.8357 3
      vertex -25.445 -25.5501 3
      vertex 12.1359 -23.8357 3
    endloop
  endfacet
  facet normal 0 0 1
    outer loop
      vertex 53.6981 -28.3678 3
      vertex 53.6981 -26.6322 3
      vertex 33.2705 -11.6336 3
    endloop
  endfacet
  facet normal 0 0 1
    outer loop
      vertex -6 -19.9808 3
      vertex -25.445 -25.5501 3
      vertex -0.27051 -22.5317 3
    endloop
  endfacet
  facet normal 0 0 1
    outer loop
      vertex -11.0739 -16.2943 3
      vertex -25.445 -25.5501 3
      vertex -6 -19.9808 3
    endloop
  endfacet
  facet normal 0 0 1
    outer loop
      vertex -15.2705 -11.6336 3
      vertex -25.445 -25.5501 3
      vertex -11.0739 -16.2943 3
    endloop
  endfacet
  facet normal 0 0 1
    outer loop
      vertex -18.4064 -6.2021 3
      vertex -25.445 -25.5501 3
      vertex -15.2705 -11.6336 3
    endloop
  endfacet
  facet normal 0 0 1
    outer loop
      vertex -20.3444 -0.237351 3
      vertex -25.445 -25.5501 3
      vertex -18.4064 -6.2021 3
    endloop
  endfacet
  facet normal 0 0 1
    outer loop
      vertex 55.055 -25.5501 3
      vertex 36.4064 18.2021 3
      vertex 38.3444 12.2374 3
    endloop
  endfacet
  facet normal 0 0 1
    outer loop
      vertex 5.86415 -23.8357 3
      vertex -0.27051 -22.5317 3
      vertex -25.445 -25.5501 3
    endloop
  endfacet
  facet normal 0 0 1
    outer loop
      vertex 36.4064 -6.2021 3
      vertex 33.2705 -11.6336 3
      vertex 53.6981 -26.6322 3
    endloop
  endfacet
  facet normal 0 0 1
    outer loop
      vertex 38.3444 -0.237351 3
      vertex 36.4064 -6.2021 3
      vertex 55.055 -25.5501 3
    endloop
  endfacet
  facet normal 0 0 1
    outer loop
      vertex 56.747 -29.0637 3
      vertex 55.055 -29.4499 3
      vertex 58.5 -30.5 3
    endloop
  endfacet
  facet normal 0 0 1
    outer loop
      vertex 53.6981 29.6322 3
      vertex 36.4064 18.2021 3
      vertex 56.747 -25.9363 3
    endloop
  endfacet
  facet normal 0 0 1
    outer loop
      vertex 58.5 39.5 3
      vertex 57.5 -27.5 3
      vertex 58.5 -30.5 3
    endloop
  endfacet
  facet normal 0 0 1
    outer loop
      vertex 58.5 39.5 3
      vertex 56.747 -25.9363 3
      vertex 57.5 -27.5 3
    endloop
  endfacet
  facet normal 0 0 1
    outer loop
      vertex 55.055 -25.5501 3
      vertex 39 6 3
      vertex 38.3444 -0.237351 3
    endloop
  endfacet
  facet normal 0 0 1
    outer loop
      vertex 55.055 -25.5501 3
      vertex 38.3444 12.2374 3
      vertex 39 6 3
    endloop
  endfacet
  facet normal 0 0 1
    outer loop
      vertex 53.6981 -28.3678 3
      vertex 33.2705 -11.6336 3
      vertex 29.0739 -16.2943 3
    endloop
  endfacet
  facet normal 0 0 1
    outer loop
      vertex 24 -19.9808 3
      vertex 18.2705 -22.5317 3
      vertex 55.055 -29.4499 3
    endloop
  endfacet
  facet normal 0 0 1
    outer loop
      vertex 55.055 28.5501 3
      vertex 53.6981 29.6322 3
      vertex 56.747 -25.9363 3
    endloop
  endfacet
  facet normal 0 0 1
    outer loop
      vertex 53.6981 31.3678 3
      vertex 36.4064 18.2021 3
      vertex 53.6981 29.6322 3
    endloop
  endfacet
  facet normal 0 0 1
    outer loop
      vertex 58.5 39.5 3
      vertex 36.4064 18.2021 3
      vertex 53.6981 31.3678 3
    endloop
  endfacet
  facet normal 0 0 1
    outer loop
      vertex 58.5 39.5 3
      vertex 53.6981 31.3678 3
      vertex 55.055 32.4499 3
    endloop
  endfacet
  facet normal 0 0 1
    outer loop
      vertex 58.5 39.5 3
      vertex 57.5 30.5 3
      vertex 56.747 -25.9363 3
    endloop
  endfacet
  facet normal 0 0 1
    outer loop
      vertex 58.5 39.5 3
      vertex 56.747 32.0637 3
      vertex 57.5 30.5 3
    endloop
  endfacet
  facet normal 0 0 1
    outer loop
      vertex 57.5 30.5 3
      vertex 56.747 28.9363 3
      vertex 56.747 -25.9363 3
    endloop
  endfacet
  facet normal 0 0 1
    outer loop
      vertex 56.747 28.9363 3
      vertex 55.055 28.5501 3
      vertex 56.747 -25.9363 3
    endloop
  endfacet
  facet normal 0 0 1
    outer loop
      vertex 29.0739 -16.2943 3
      vertex 24 -19.9808 3
      vertex 53.6981 -28.3678 3
    endloop
  endfacet
  facet normal 0 0 1
    outer loop
      vertex -21 6 3
      vertex -20.3444 12.2374 3
      vertex -54.253 28.9363 3
    endloop
  endfacet
  facet normal 0 0 1
    outer loop
      vertex -26.8019 -28.3678 3
      vertex -55.945 -25.5501 3
      vertex -54.253 -25.9363 3
    endloop
  endfacet
  facet normal 0 0 1
    outer loop
      vertex -26.8019 -28.3678 3
      vertex -26.8019 -26.6322 3
      vertex -55.945 -25.5501 3
    endloop
  endfacet
  facet normal 1 0 0
    outer loop
      vertex 58.5 -30.5 3
      vertex 58.5 -30.5 0
      vertex 58.5 39.5 0
    endloop
  endfacet
  facet normal 1 0 0
    outer loop
      vertex 58.5 39.5 3
      vertex 58.5 -30.5 3
      vertex 58.5 39.5 0
    endloop
  endfacet
  facet normal 0.62349 -0.781831 0
    outer loop
      vertex -55.945 -25.5501 0
      vertex -55.945 -25.5501 3
      vertex -57.3019 -26.6322 3
    endloop
  endfacet
  facet normal 0.62349 -0.781831 0
    outer loop
      vertex -57.3019 -26.6322 0
      vertex -55.945 -25.5501 0
      vertex -57.3019 -26.6322 3
    endloop
  endfacet
  facet normal 1 0 0
    outer loop
      vertex -57.3019 -26.6322 0
      vertex -57.3019 -26.6322 3
      vertex -57.3019 -28.3678 3
    endloop
  endfacet
  facet normal 1 0 0
    outer loop
      vertex -57.3019 -28.3678 0
      vertex -57.3019 -26.6322 0
      vertex -57.3019 -28.3678 3
    endloop
  endfacet
  facet normal -0.222521 -0.974928 0
    outer loop
      vertex -54.253 -25.9363 0
      vertex -54.253 -25.9363 3
      vertex -55.945 -25.5501 3
    endloop
  endfacet
  facet normal -0.222521 -0.974928 0
    outer loop
      vertex -55.945 -25.5501 0
      vertex -54.253 -25.9363 0
      vertex -55.945 -25.5501 3
    endloop
  endfacet
  facet normal -0.900969 -0.433884 0
    outer loop
      vertex -53.5 -27.5 3
      vertex -54.253 -25.9363 3
      vertex -53.5 -27.5 0
    endloop
  endfacet
  facet normal -0.900969 -0.433884 0
    outer loop
      vertex -53.5 -27.5 0
      vertex -54.253 -25.9363 3
      vertex -54.253 -25.9363 0
    endloop
  endfacet
  facet normal -0.900969 0.433884 0
    outer loop
      vertex -53.5 -27.5 3
      vertex -53.5 -27.5 0
      vertex -54.253 -29.0637 3
    endloop
  endfacet
  facet normal -0.900969 0.433884 0
    outer loop
      vertex -54.253 -29.0637 3
      vertex -53.5 -27.5 0
      vertex -54.253 -29.0637 0
    endloop
  endfacet
  facet normal -0.222521 0.974928 0
    outer loop
      vertex -54.253 -29.0637 3
      vertex -54.253 -29.0637 0
      vertex -55.945 -29.4499 3
    endloop
  endfacet
  facet normal -0.222521 0.974928 0
    outer loop
      vertex -55.945 -29.4499 3
      vertex -54.253 -29.0637 0
      vertex -55.945 -29.4499 0
    endloop
  endfacet
  facet normal 0.62349 0.781831 0
    outer loop
      vertex -55.945 -29.4499 3
      vertex -55.945 -29.4499 0
      vertex -57.3019 -28.3678 3
    endloop
  endfacet
  facet normal 0.62349 0.781831 0
    outer loop
      vertex -57.3019 -28.3678 3
      vertex -55.945 -29.4499 0
      vertex -57.3019 -28.3678 0
    endloop
  endfacet
  facet normal 0.62349 -0.781831 0
    outer loop
      vertex -55.945 32.4499 0
      vertex -55.945 32.4499 3
      vertex -57.3019 31.3678 3
    endloop
  endfacet
  facet normal 0.62349 -0.781831 0
    outer loop
      vertex -57.3019 31.3678 0
      vertex -55.945 32.4499 0
      vertex -57.3019 31.3678 3
    endloop
  endfacet
  facet normal 1 0 0
    outer loop
      vertex -57.3019 31.3678 0
      vertex -57.3019 31.3678 3
      vertex -57.3019 29.6322 3
    endloop
  endfacet
  facet normal 1 0 0
    outer loop
      vertex -57.3019 29.6322 0
      vertex -57.3019 31.3678 0
      vertex -57.3019 29.6322 3
    endloop
  endfacet
  facet normal -0.222521 -0.974928 0
    outer loop
      vertex -54.253 32.0637 0
      vertex -54.253 32.0637 3
      vertex -55.945 32.4499 3
    endloop
  endfacet
  facet normal -0.222521 -0.974928 0
    outer loop
      vertex -55.945 32.4499 0
      vertex -54.253 32.0637 0
      vertex -55.945 32.4499 3
    endloop
  endfacet
  facet normal -0.900969 -0.433884 0
    outer loop
      vertex -53.5 30.5 3
      vertex -54.253 32.0637 3
      vertex -53.5 30.5 0
    endloop
  endfacet
  facet normal -0.900969 -0.433884 0
    outer loop
      vertex -53.5 30.5 0
      vertex -54.253 32.0637 3
      vertex -54.253 32.0637 0
    endloop
  endfacet
  facet normal -0.900969 0.433884 0
    outer loop
      vertex -53.5 30.5 3
      vertex -53.5 30.5 0
      vertex -54.253 28.9363 3
    endloop
  endfacet
  facet normal -0.900969 0.433884 0
    outer loop
      vertex -54.253 28.9363 3
      vertex -53.5 30.5 0
      vertex -54.253 28.9363 0
    endloop
  endfacet
  facet normal -0.222521 0.974928 0
    outer loop
      vertex -54.253 28.9363 3
      vertex -54.253 28.9363 0
      vertex -55.945 28.5501 3
    endloop
  endfacet
  facet normal -0.222521 0.974928 0
    outer loop
      vertex -55.945 28.5501 3
      vertex -54.253 28.9363 0
      vertex -55.945 28.5501 0
    endloop
  endfacet
  facet normal 0.62349 0.781831 0
    outer loop
      vertex -55.945 28.5501 3
      vertex -55.945 28.5501 0
      vertex -57.3019 29.6322 3
    endloop
  endfacet
  facet normal 0.62349 0.781831 0
    outer loop
      vertex -57.3019 29.6322 3
      vertex -55.945 28.5501 0
      vertex -57.3019 29.6322 0
    endloop
  endfacet
  facet normal 0.62349 -0.781831 0
    outer loop
      vertex -25.445 -25.5501 0
      vertex -25.445 -25.5501 3
      vertex -26.8019 -26.6322 3
    endloop
  endfacet
  facet normal 0.62349 -0.781831 0
    outer loop
      vertex -26.8019 -26.6322 0
      vertex -25.445 -25.5501 0
      vertex -26.8019 -26.6322 3
    endloop
  endfacet
  facet normal 1 0 0
    outer loop
      vertex -26.8019 -26.6322 0
      vertex -26.8019 -26.6322 3
      vertex -26.8019 -28.3678 3
    endloop
  endfacet
  facet normal 1 0 0
    outer loop
      vertex -26.8019 -28.3678 0
      vertex -26.8019 -26.6322 0
      vertex -26.8019 -28.3678 3
    endloop
  endfacet
  facet normal -0.222521 -0.974928 0
    outer loop
      vertex -23.753 -25.9363 0
      vertex -23.753 -25.9363 3
      vertex -25.445 -25.5501 3
    endloop
  endfacet
  facet normal -0.222521 -0.974928 0
    outer loop
      vertex -25.445 -25.5501 0
      vertex -23.753 -25.9363 0
      vertex -25.445 -25.5501 3
    endloop
  endfacet
  facet normal -0.900969 -0.433884 0
    outer loop
      vertex -23 -27.5 3
      vertex -23.753 -25.9363 3
      vertex -23 -27.5 0
    endloop
  endfacet
  facet normal -0.900969 -0.433884 0
    outer loop
      vertex -23 -27.5 0
      vertex -23.753 -25.9363 3
      vertex -23.753 -25.9363 0
    endloop
  endfacet
  facet normal -0.900969 0.433884 0
    outer loop
      vertex -23 -27.5 3
      vertex -23 -27.5 0
      vertex -23.753 -29.0637 3
    endloop
  endfacet
  facet normal -0.900969 0.433884 0
    outer loop
      vertex -23.753 -29.0637 3
      vertex -23 -27.5 0
      vertex -23.753 -29.0637 0
    endloop
  endfacet
  facet normal -0.222521 0.974928 0
    outer loop
      vertex -23.753 -29.0637 3
      vertex -23.753 -29.0637 0
      vertex -25.445 -29.4499 3
    endloop
  endfacet
  facet normal -0.222521 0.974928 0
    outer loop
      vertex -25.445 -29.4499 3
      vertex -23.753 -29.0637 0
      vertex -25.445 -29.4499 0
    endloop
  endfacet
  facet normal 0.62349 0.781831 0
    outer loop
      vertex -25.445 -29.4499 3
      vertex -25.445 -29.4499 0
      vertex -26.8019 -28.3678 3
    endloop
  endfacet
  facet normal 0.62349 0.781831 0
    outer loop
      vertex -26.8019 -28.3678 3
      vertex -25.445 -29.4499 0
      vertex -26.8019 -28.3678 0
    endloop
  endfacet
  facet normal 0.994522 -0.104529 0
    outer loop
      vertex -19.3663 12.0294 0
      vertex -19.3663 12.0294 1.65
      vertex -20 6 1.65
    endloop
  endfacet
  facet normal 0.994522 -0.104529 0
    outer loop
      vertex -20 6 0
      vertex -19.3663 12.0294 0
      vertex -20 6 1.65
    endloop
  endfacet
  facet normal 0.994522 0.104529 0
    outer loop
      vertex -20 6 1.65
      vertex -19.3663 -0.029439 1.65
      vertex -19.3663 -0.029439 0
    endloop
  endfacet
  facet normal 0.994522 0.104529 0
    outer loop
      vertex -20 6 0
      vertex -20 6 1.65
      vertex -19.3663 -0.029439 0
    endloop
  endfacet
  facet normal 0.951057 -0.309017 0
    outer loop
      vertex -17.4928 17.7954 0
      vertex -17.4928 17.7954 1.65
      vertex -19.3663 12.0294 1.65
    endloop
  endfacet
  facet normal 0.951057 -0.309017 0
    outer loop
      vertex -19.3663 12.0294 0
      vertex -17.4928 17.7954 0
      vertex -19.3663 12.0294 1.65
    endloop
  endfacet
  facet normal 0.866025 -0.5 0
    outer loop
      vertex -14.4615 23.0458 0
      vertex -14.4615 23.0458 1.65
      vertex -17.4928 17.7954 1.65
    endloop
  endfacet
  facet normal 0.866025 -0.5 0
    outer loop
      vertex -17.4928 17.7954 0
      vertex -14.4615 23.0458 0
      vertex -17.4928 17.7954 1.65
    endloop
  endfacet
  facet normal 0.743145 -0.669131 0
    outer loop
      vertex -10.4048 27.5512 0
      vertex -10.4048 27.5512 1.65
      vertex -14.4615 23.0458 1.65
    endloop
  endfacet
  facet normal 0.743145 -0.669131 0
    outer loop
      vertex -14.4615 23.0458 0
      vertex -10.4048 27.5512 0
      vertex -14.4615 23.0458 1.65
    endloop
  endfacet
  facet normal 0.587785 -0.809017 0
    outer loop
      vertex -5.5 31.1147 0
      vertex -5.5 31.1147 1.65
      vertex -10.4048 27.5512 1.65
    endloop
  endfacet
  facet normal 0.587785 -0.809017 0
    outer loop
      vertex -10.4048 27.5512 0
      vertex -5.5 31.1147 0
      vertex -10.4048 27.5512 1.65
    endloop
  endfacet
  facet normal 0.406737 -0.913545 0
    outer loop
      vertex 0.038507 33.5806 0
      vertex 0.038507 33.5806 1.65
      vertex -5.5 31.1147 1.65
    endloop
  endfacet
  facet normal 0.406737 -0.913545 0
    outer loop
      vertex -5.5 31.1147 0
      vertex 0.038507 33.5806 0
      vertex -5.5 31.1147 1.65
    endloop
  endfacet
  facet normal 0.207912 -0.978148 0
    outer loop
      vertex 5.96868 34.8411 0
      vertex 5.96868 34.8411 1.65
      vertex 0.038507 33.5806 1.65
    endloop
  endfacet
  facet normal 0.207912 -0.978148 0
    outer loop
      vertex 0.038507 33.5806 0
      vertex 5.96868 34.8411 0
      vertex 0.038507 33.5806 1.65
    endloop
  endfacet
  facet normal 0 -1 0
    outer loop
      vertex 12.0313 34.8411 0
      vertex 12.0313 34.8411 1.65
      vertex 5.96868 34.8411 1.65
    endloop
  endfacet
  facet normal 0 -1 0
    outer loop
      vertex 5.96868 34.8411 0
      vertex 12.0313 34.8411 0
      vertex 5.96868 34.8411 1.65
    endloop
  endfacet
  facet normal -0.207912 -0.978148 0
    outer loop
      vertex 17.9615 33.5806 0
      vertex 17.9615 33.5806 1.65
      vertex 12.0313 34.8411 1.65
    endloop
  endfacet
  facet normal -0.207912 -0.978148 0
    outer loop
      vertex 12.0313 34.8411 0
      vertex 17.9615 33.5806 0
      vertex 12.0313 34.8411 1.65
    endloop
  endfacet
  facet normal -0.406737 -0.913545 0
    outer loop
      vertex 23.5 31.1147 0
      vertex 23.5 31.1147 1.65
      vertex 17.9615 33.5806 1.65
    endloop
  endfacet
  facet normal -0.406737 -0.913545 0
    outer loop
      vertex 17.9615 33.5806 0
      vertex 23.5 31.1147 0
      vertex 17.9615 33.5806 1.65
    endloop
  endfacet
  facet normal -0.587785 -0.809017 0
    outer loop
      vertex 28.4048 27.5512 0
      vertex 28.4048 27.5512 1.65
      vertex 23.5 31.1147 1.65
    endloop
  endfacet
  facet normal -0.587785 -0.809017 0
    outer loop
      vertex 23.5 31.1147 0
      vertex 28.4048 27.5512 0
      vertex 23.5 31.1147 1.65
    endloop
  endfacet
  facet normal -0.743145 -0.669131 0
    outer loop
      vertex 32.4615 23.0458 1.65
      vertex 28.4048 27.5512 1.65
      vertex 32.4615 23.0458 0
    endloop
  endfacet
  facet normal -0.743145 -0.669131 0
    outer loop
      vertex 32.4615 23.0458 0
      vertex 28.4048 27.5512 1.65
      vertex 28.4048 27.5512 0
    endloop
  endfacet
  facet normal -0.866025 -0.5 0
    outer loop
      vertex 35.4928 17.7954 1.65
      vertex 32.4615 23.0458 1.65
      vertex 35.4928 17.7954 0
    endloop
  endfacet
  facet normal -0.866025 -0.5 0
    outer loop
      vertex 35.4928 17.7954 0
      vertex 32.4615 23.0458 1.65
      vertex 32.4615 23.0458 0
    endloop
  endfacet
  facet normal -0.951057 -0.309017 0
    outer loop
      vertex 37.3663 12.0294 1.65
      vertex 35.4928 17.7954 1.65
      vertex 37.3663 12.0294 0
    endloop
  endfacet
  facet normal -0.951057 -0.309017 0
    outer loop
      vertex 37.3663 12.0294 0
      vertex 35.4928 17.7954 1.65
      vertex 35.4928 17.7954 0
    endloop
  endfacet
  facet normal -0.994522 -0.104529 0
    outer loop
      vertex 38 6 1.65
      vertex 37.3663 12.0294 1.65
      vertex 38 6 0
    endloop
  endfacet
  facet normal -0.994522 -0.104529 0
    outer loop
      vertex 38 6 0
      vertex 37.3663 12.0294 1.65
      vertex 37.3663 12.0294 0
    endloop
  endfacet
  facet normal -0.994522 0.104529 0
    outer loop
      vertex 38 6 1.65
      vertex 38 6 0
      vertex 37.3663 -0.029439 1.65
    endloop
  endfacet
  facet normal -0.994522 0.104529 0
    outer loop
      vertex 37.3663 -0.029439 1.65
      vertex 38 6 0
      vertex 37.3663 -0.029439 0
    endloop
  endfacet
  facet normal -0.951057 0.309017 0
    outer loop
      vertex 37.3663 -0.029439 1.65
      vertex 37.3663 -0.029439 0
      vertex 35.4928 -5.79536 1.65
    endloop
  endfacet
  facet normal -0.951057 0.309017 0
    outer loop
      vertex 35.4928 -5.79536 1.65
      vertex 37.3663 -0.029439 0
      vertex 35.4928 -5.79536 0
    endloop
  endfacet
  facet normal -0.866025 0.5 0
    outer loop
      vertex 35.4928 -5.79536 1.65
      vertex 35.4928 -5.79536 0
      vertex 32.4615 -11.0458 1.65
    endloop
  endfacet
  facet normal -0.866025 0.5 0
    outer loop
      vertex 32.4615 -11.0458 1.65
      vertex 35.4928 -5.79536 0
      vertex 32.4615 -11.0458 0
    endloop
  endfacet
  facet normal -0.743145 0.669131 0
    outer loop
      vertex 32.4615 -11.0458 1.65
      vertex 32.4615 -11.0458 0
      vertex 28.4048 -15.5512 1.65
    endloop
  endfacet
  facet normal -0.743145 0.669131 0
    outer loop
      vertex 28.4048 -15.5512 1.65
      vertex 32.4615 -11.0458 0
      vertex 28.4048 -15.5512 0
    endloop
  endfacet
  facet normal -0.587785 0.809017 0
    outer loop
      vertex 28.4048 -15.5512 1.65
      vertex 28.4048 -15.5512 0
      vertex 23.5 -19.1147 1.65
    endloop
  endfacet
  facet normal -0.587785 0.809017 0
    outer loop
      vertex 23.5 -19.1147 1.65
      vertex 28.4048 -15.5512 0
      vertex 23.5 -19.1147 0
    endloop
  endfacet
  facet normal -0.406737 0.913545 0
    outer loop
      vertex 23.5 -19.1147 1.65
      vertex 23.5 -19.1147 0
      vertex 17.9615 -21.5806 1.65
    endloop
  endfacet
  facet normal -0.406737 0.913545 0
    outer loop
      vertex 17.9615 -21.5806 1.65
      vertex 23.5 -19.1147 0
      vertex 17.9615 -21.5806 0
    endloop
  endfacet
  facet normal -0.207912 0.978148 0
    outer loop
      vertex 17.9615 -21.5806 1.65
      vertex 17.9615 -21.5806 0
      vertex 12.0313 -22.8411 1.65
    endloop
  endfacet
  facet normal -0.207912 0.978148 0
    outer loop
      vertex 12.0313 -22.8411 1.65
      vertex 17.9615 -21.5806 0
      vertex 12.0313 -22.8411 0
    endloop
  endfacet
  facet normal 0 1 0
    outer loop
      vertex 12.0313 -22.8411 1.65
      vertex 12.0313 -22.8411 0
      vertex 5.96868 -22.8411 1.65
    endloop
  endfacet
  facet normal 0 1 0
    outer loop
      vertex 5.96868 -22.8411 1.65
      vertex 12.0313 -22.8411 0
      vertex 5.96868 -22.8411 0
    endloop
  endfacet
  facet normal 0.207912 0.978148 0
    outer loop
      vertex 5.96868 -22.8411 1.65
      vertex 5.96868 -22.8411 0
      vertex 0.038507 -21.5806 1.65
    endloop
  endfacet
  facet normal 0.207912 0.978148 0
    outer loop
      vertex 0.038507 -21.5806 1.65
      vertex 5.96868 -22.8411 0
      vertex 0.038507 -21.5806 0
    endloop
  endfacet
  facet normal 0.406737 0.913545 0
    outer loop
      vertex 0.038507 -21.5806 1.65
      vertex 0.038507 -21.5806 0
      vertex -5.5 -19.1147 1.65
    endloop
  endfacet
  facet normal 0.406737 0.913545 0
    outer loop
      vertex -5.5 -19.1147 1.65
      vertex 0.038507 -21.5806 0
      vertex -5.5 -19.1147 0
    endloop
  endfacet
  facet normal 0.587785 0.809017 0
    outer loop
      vertex -5.5 -19.1147 1.65
      vertex -5.5 -19.1147 0
      vertex -10.4048 -15.5512 1.65
    endloop
  endfacet
  facet normal 0.587785 0.809017 0
    outer loop
      vertex -10.4048 -15.5512 1.65
      vertex -5.5 -19.1147 0
      vertex -10.4048 -15.5512 0
    endloop
  endfacet
  facet normal 0.743145 0.669131 0
    outer loop
      vertex -14.4615 -11.0458 1.65
      vertex -10.4048 -15.5512 1.65
      vertex -10.4048 -15.5512 0
    endloop
  endfacet
  facet normal 0.743145 0.669131 0
    outer loop
      vertex -14.4615 -11.0458 0
      vertex -14.4615 -11.0458 1.65
      vertex -10.4048 -15.5512 0
    endloop
  endfacet
  facet normal 0.866025 0.5 0
    outer loop
      vertex -17.4928 -5.79536 1.65
      vertex -14.4615 -11.0458 1.65
      vertex -14.4615 -11.0458 0
    endloop
  endfacet
  facet normal 0.866025 0.5 0
    outer loop
      vertex -17.4928 -5.79536 0
      vertex -17.4928 -5.79536 1.65
      vertex -14.4615 -11.0458 0
    endloop
  endfacet
  facet normal 0.951057 0.309017 0
    outer loop
      vertex -19.3663 -0.029439 1.65
      vertex -17.4928 -5.79536 1.65
      vertex -17.4928 -5.79536 0
    endloop
  endfacet
  facet normal 0.951057 0.309017 0
    outer loop
      vertex -19.3663 -0.029439 0
      vertex -19.3663 -0.029439 1.65
      vertex -17.4928 -5.79536 0
    endloop
  endfacet
  facet normal 0.62349 -0.781831 0
    outer loop
      vertex 55.055 -25.5501 0
      vertex 55.055 -25.5501 3
      vertex 53.6981 -26.6322 3
    endloop
  endfacet
  facet normal 0.62349 -0.781831 0
    outer loop
      vertex 53.6981 -26.6322 0
      vertex 55.055 -25.5501 0
      vertex 53.6981 -26.6322 3
    endloop
  endfacet
  facet normal 1 0 0
    outer loop
      vertex 53.6981 -26.6322 0
      vertex 53.6981 -26.6322 3
      vertex 53.6981 -28.3678 3
    endloop
  endfacet
  facet normal 1 0 0
    outer loop
      vertex 53.6981 -28.3678 0
      vertex 53.6981 -26.6322 0
      vertex 53.6981 -28.3678 3
    endloop
  endfacet
  facet normal -0.222521 -0.974928 0
    outer loop
      vertex 56.747 -25.9363 0
      vertex 56.747 -25.9363 3
      vertex 55.055 -25.5501 3
    endloop
  endfacet
  facet normal -0.222521 -0.974928 0
    outer loop
      vertex 55.055 -25.5501 0
      vertex 56.747 -25.9363 0
      vertex 55.055 -25.5501 3
    endloop
  endfacet
  facet normal -0.900969 -0.433884 0
    outer loop
      vertex 57.5 -27.5 3
      vertex 56.747 -25.9363 3
      vertex 57.5 -27.5 0
    endloop
  endfacet
  facet normal -0.900969 -0.433884 0
    outer loop
      vertex 57.5 -27.5 0
      vertex 56.747 -25.9363 3
      vertex 56.747 -25.9363 0
    endloop
  endfacet
  facet normal -0.900969 0.433884 0
    outer loop
      vertex 57.5 -27.5 3
      vertex 57.5 -27.5 0
      vertex 56.747 -29.0637 3
    endloop
  endfacet
  facet normal -0.900969 0.433884 0
    outer loop
      vertex 56.747 -29.0637 3
      vertex 57.5 -27.5 0
      vertex 56.747 -29.0637 0
    endloop
  endfacet
  facet normal -0.222521 0.974928 0
    outer loop
      vertex 56.747 -29.0637 3
      vertex 56.747 -29.0637 0
      vertex 55.055 -29.4499 3
    endloop
  endfacet
  facet normal -0.222521 0.974928 0
    outer loop
      vertex 55.055 -29.4499 3
      vertex 56.747 -29.0637 0
      vertex 55.055 -29.4499 0
    endloop
  endfacet
  facet normal 0.62349 0.781831 0
    outer loop
      vertex 55.055 -29.4499 3
      vertex 55.055 -29.4499 0
      vertex 53.6981 -28.3678 3
    endloop
  endfacet
  facet normal 0.62349 0.781831 0
    outer loop
      vertex 53.6981 -28.3678 3
      vertex 55.055 -29.4499 0
      vertex 53.6981 -28.3678 0
    endloop
  endfacet
  facet normal 0.62349 -0.781831 0
    outer loop
      vertex 55.055 32.4499 0
      vertex 55.055 32.4499 3
      vertex 53.6981 31.3678 3
    endloop
  endfacet
  facet normal 0.62349 -0.781831 0
    outer loop
      vertex 53.6981 31.3678 0
      vertex 55.055 32.4499 0
      vertex 53.6981 31.3678 3
    endloop
  endfacet
  facet normal 1 0 0
    outer loop
      vertex 53.6981 31.3678 0
      vertex 53.6981 31.3678 3
      vertex 53.6981 29.6322 3
    endloop
  endfacet
  facet normal 1 0 0
    outer loop
      vertex 53.6981 29.6322 0
      vertex 53.6981 31.3678 0
      vertex 53.6981 29.6322 3
    endloop
  endfacet
  facet normal -0.222521 -0.974928 0
    outer loop
      vertex 56.747 32.0637 0
      vertex 56.747 32.0637 3
      vertex 55.055 32.4499 3
    endloop
  endfacet
  facet normal -0.222521 -0.974928 0
    outer loop
      vertex 55.055 32.4499 0
      vertex 56.747 32.0637 0
      vertex 55.055 32.4499 3
    endloop
  endfacet
  facet normal -0.900969 -0.433884 0
    outer loop
      vertex 57.5 30.5 3
      vertex 56.747 32.0637 3
      vertex 57.5 30.5 0
    endloop
  endfacet
  facet normal -0.900969 -0.433884 0
    outer loop
      vertex 57.5 30.5 0
      vertex 56.747 32.0637 3
      vertex 56.747 32.0637 0
    endloop
  endfacet
  facet normal -0.900969 0.433884 0
    outer loop
      vertex 57.5 30.5 3
      vertex 57.5 30.5 0
      vertex 56.747 28.9363 3
    endloop
  endfacet
  facet normal -0.900969 0.433884 0
    outer loop
      vertex 56.747 28.9363 3
      vertex 57.5 30.5 0
      vertex 56.747 28.9363 0
    endloop
  endfacet
  facet normal -0.222521 0.974928 0
    outer loop
      vertex 56.747 28.9363 3
      vertex 56.747 28.9363 0
      vertex 55.055 28.5501 3
    endloop
  endfacet
  facet normal -0.222521 0.974928 0
    outer loop
      vertex 55.055 28.5501 3
      vertex 56.747 28.9363 0
      vertex 55.055 28.5501 0
    endloop
  endfacet
  facet normal 0.62349 0.781831 0
    outer loop
      vertex 55.055 28.5501 3
      vertex 55.055 28.5501 0
      vertex 53.6981 29.6322 3
    endloop
  endfacet
  facet normal 0.62349 0.781831 0
    outer loop
      vertex 53.6981 29.6322 3
      vertex 55.055 28.5501 0
      vertex 53.6981 29.6322 0
    endloop
  endfacet
  facet normal -0.951057 -0.309017 0
    outer loop
      vertex -20.3444 -0.237351 3
      vertex -18.4064 -6.2021 3
      vertex -20.3444 -0.237351 9
    endloop
  endfacet
  facet normal -0.951057 -0.309017 0
    outer loop
      vertex -20.3444 -0.237351 9
      vertex -18.4064 -6.2021 3
      vertex -18.4064 -6.2021 9
    endloop
  endfacet
  facet normal -0.994522 -0.104528 0
    outer loop
      vertex -21 6 3
      vertex -20.3444 -0.237351 3
      vertex -21 6 9
    endloop
  endfacet
  facet normal -0.994522 -0.104528 0
    outer loop
      vertex -21 6 9
      vertex -20.3444 -0.237351 3
      vertex -20.3444 -0.237351 9
    endloop
  endfacet
  facet normal -0.866025 -0.5 0
    outer loop
      vertex -18.4064 -6.2021 3
      vertex -15.2705 -11.6336 3
      vertex -18.4064 -6.2021 9
    endloop
  endfacet
  facet normal -0.866025 -0.5 0
    outer loop
      vertex -18.4064 -6.2021 9
      vertex -15.2705 -11.6336 3
      vertex -15.2705 -11.6336 9
    endloop
  endfacet
  facet normal -0.743145 -0.669131 0
    outer loop
      vertex -15.2705 -11.6336 3
      vertex -11.0739 -16.2943 3
      vertex -15.2705 -11.6336 9
    endloop
  endfacet
  facet normal -0.743145 -0.669131 0
    outer loop
      vertex -15.2705 -11.6336 9
      vertex -11.0739 -16.2943 3
      vertex -11.0739 -16.2943 9
    endloop
  endfacet
  facet normal -0.587785 -0.809017 0
    outer loop
      vertex -11.0739 -16.2943 9
      vertex -11.0739 -16.2943 3
      vertex -6 -19.9808 3
    endloop
  endfacet
  facet normal -0.587785 -0.809017 0
    outer loop
      vertex -6 -19.9808 9
      vertex -11.0739 -16.2943 9
      vertex -6 -19.9808 3
    endloop
  endfacet
  facet normal -0.406737 -0.913545 0
    outer loop
      vertex -6 -19.9808 9
      vertex -6 -19.9808 3
      vertex -0.27051 -22.5317 3
    endloop
  endfacet
  facet normal -0.406737 -0.913545 0
    outer loop
      vertex -0.27051 -22.5317 9
      vertex -6 -19.9808 9
      vertex -0.27051 -22.5317 3
    endloop
  endfacet
  facet normal -0.207912 -0.978148 0
    outer loop
      vertex -0.27051 -22.5317 9
      vertex -0.27051 -22.5317 3
      vertex 5.86415 -23.8357 3
    endloop
  endfacet
  facet normal -0.207912 -0.978148 0
    outer loop
      vertex 5.86415 -23.8357 9
      vertex -0.27051 -22.5317 9
      vertex 5.86415 -23.8357 3
    endloop
  endfacet
  facet normal 0 -1 0
    outer loop
      vertex 5.86415 -23.8357 9
      vertex 5.86415 -23.8357 3
      vertex 12.1359 -23.8357 3
    endloop
  endfacet
  facet normal 0 -1 0
    outer loop
      vertex 12.1359 -23.8357 9
      vertex 5.86415 -23.8357 9
      vertex 12.1359 -23.8357 3
    endloop
  endfacet
  facet normal 0.207912 -0.978148 0
    outer loop
      vertex 12.1359 -23.8357 9
      vertex 12.1359 -23.8357 3
      vertex 18.2705 -22.5317 3
    endloop
  endfacet
  facet normal 0.207912 -0.978148 0
    outer loop
      vertex 18.2705 -22.5317 9
      vertex 12.1359 -23.8357 9
      vertex 18.2705 -22.5317 3
    endloop
  endfacet
  facet normal 0.406737 -0.913545 0
    outer loop
      vertex 18.2705 -22.5317 9
      vertex 18.2705 -22.5317 3
      vertex 24 -19.9808 3
    endloop
  endfacet
  facet normal 0.406737 -0.913545 0
    outer loop
      vertex 24 -19.9808 9
      vertex 18.2705 -22.5317 9
      vertex 24 -19.9808 3
    endloop
  endfacet
  facet normal 0.587785 -0.809017 0
    outer loop
      vertex 24 -19.9808 9
      vertex 24 -19.9808 3
      vertex 29.0739 -16.2943 3
    endloop
  endfacet
  facet normal 0.587785 -0.809017 0
    outer loop
      vertex 29.0739 -16.2943 9
      vertex 24 -19.9808 9
      vertex 29.0739 -16.2943 3
    endloop
  endfacet
  facet normal 0.743145 -0.669131 0
    outer loop
      vertex 29.0739 -16.2943 9
      vertex 29.0739 -16.2943 3
      vertex 33.2705 -11.6336 3
    endloop
  endfacet
  facet normal 0.743145 -0.669131 0
    outer loop
      vertex 33.2705 -11.6336 9
      vertex 29.0739 -16.2943 9
      vertex 33.2705 -11.6336 3
    endloop
  endfacet
  facet normal 0.866025 -0.5 0
    outer loop
      vertex 33.2705 -11.6336 9
      vertex 33.2705 -11.6336 3
      vertex 36.4064 -6.2021 3
    endloop
  endfacet
  facet normal 0.866025 -0.5 0
    outer loop
      vertex 36.4064 -6.2021 9
      vertex 33.2705 -11.6336 9
      vertex 36.4064 -6.2021 3
    endloop
  endfacet
  facet normal 0.951057 -0.309017 0
    outer loop
      vertex 36.4064 -6.2021 9
      vertex 36.4064 -6.2021 3
      vertex 38.3444 -0.237351 3
    endloop
  endfacet
  facet normal 0.951057 -0.309017 0
    outer loop
      vertex 38.3444 -0.237351 9
      vertex 36.4064 -6.2021 9
      vertex 38.3444 -0.237351 3
    endloop
  endfacet
  facet normal 0.994522 -0.104528 0
    outer loop
      vertex 38.3444 -0.237351 9
      vertex 38.3444 -0.237351 3
      vertex 39 6 3
    endloop
  endfacet
  facet normal 0.994522 -0.104528 0
    outer loop
      vertex 39 6 9
      vertex 38.3444 -0.237351 9
      vertex 39 6 3
    endloop
  endfacet
  facet normal 0.994522 0.104528 0
    outer loop
      vertex 38.3444 12.2374 9
      vertex 39 6 9
      vertex 39 6 3
    endloop
  endfacet
  facet normal 0.994522 0.104528 0
    outer loop
      vertex 38.3444 12.2374 3
      vertex 38.3444 12.2374 9
      vertex 39 6 3
    endloop
  endfacet
  facet normal 0.951057 0.309017 0
    outer loop
      vertex 36.4064 18.2021 9
      vertex 38.3444 12.2374 9
      vertex 38.3444 12.2374 3
    endloop
  endfacet
  facet normal 0.951057 0.309017 0
    outer loop
      vertex 36.4064 18.2021 3
      vertex 36.4064 18.2021 9
      vertex 38.3444 12.2374 3
    endloop
  endfacet
  facet normal 0.866025 0.5 0
    outer loop
      vertex 33.2705 23.6336 9
      vertex 36.4064 18.2021 9
      vertex 36.4064 18.2021 3
    endloop
  endfacet
  facet normal 0.866025 0.5 0
    outer loop
      vertex 33.2705 23.6336 3
      vertex 33.2705 23.6336 9
      vertex 36.4064 18.2021 3
    endloop
  endfacet
  facet normal 0.743145 0.669131 0
    outer loop
      vertex 29.0739 28.2943 9
      vertex 33.2705 23.6336 9
      vertex 33.2705 23.6336 3
    endloop
  endfacet
  facet normal 0.743145 0.669131 0
    outer loop
      vertex 29.0739 28.2943 3
      vertex 29.0739 28.2943 9
      vertex 33.2705 23.6336 3
    endloop
  endfacet
  facet normal 0.587785 0.809017 0
    outer loop
      vertex 29.0739 28.2943 9
      vertex 29.0739 28.2943 3
      vertex 24 31.9808 9
    endloop
  endfacet
  facet normal 0.587785 0.809017 0
    outer loop
      vertex 24 31.9808 9
      vertex 29.0739 28.2943 3
      vertex 24 31.9808 3
    endloop
  endfacet
  facet normal 0.406737 0.913545 0
    outer loop
      vertex 24 31.9808 9
      vertex 24 31.9808 3
      vertex 18.2705 34.5317 9
    endloop
  endfacet
  facet normal 0.406737 0.913545 0
    outer loop
      vertex 18.2705 34.5317 9
      vertex 24 31.9808 3
      vertex 18.2705 34.5317 3
    endloop
  endfacet
  facet normal 0.207912 0.978148 0
    outer loop
      vertex 18.2705 34.5317 9
      vertex 18.2705 34.5317 3
      vertex 12.1359 35.8357 9
    endloop
  endfacet
  facet normal 0.207912 0.978148 0
    outer loop
      vertex 12.1359 35.8357 9
      vertex 18.2705 34.5317 3
      vertex 12.1359 35.8357 3
    endloop
  endfacet
  facet normal 0 1 0
    outer loop
      vertex 12.1359 35.8357 9
      vertex 12.1359 35.8357 3
      vertex 11.5 35.8357 9
    endloop
  endfacet
  facet normal 0 1 0
    outer loop
      vertex 11.5 35.8357 9
      vertex 12.1359 35.8357 3
      vertex 11.5 35.8357 3
    endloop
  endfacet
  facet normal -1 0 0
    outer loop
      vertex 11.5 35.8357 9
      vertex 11.5 35.8357 3
      vertex 11.5 33.8466 9
    endloop
  endfacet
  facet normal -1 0 0
    outer loop
      vertex 11.5 33.8466 9
      vertex 11.5 35.8357 3
      vertex 11.5 34.8411 3
    endloop
  endfacet
  facet normal -1 0 0
    outer loop
      vertex 11.5 33.8466 9
      vertex 11.5 34.8411 3
      vertex 11.5 33.8466 3
    endloop
  endfacet
  facet normal 0 0 1
    outer loop
      vertex 6.5 34.8411 3
      vertex 6.5 33.8466 3
      vertex 11.5 33.8466 3
    endloop
  endfacet
  facet normal 0 0 1
    outer loop
      vertex 11.5 34.8411 3
      vertex 6.5 34.8411 3
      vertex 11.5 33.8466 3
    endloop
  endfacet
  facet normal 1 0 0
    outer loop
      vertex 6.5 34.8411 3
      vertex 6.5 35.8357 3
      vertex 6.5 35.8357 9
    endloop
  endfacet
  facet normal 1 0 0
    outer loop
      vertex 6.5 33.8466 3
      vertex 6.5 34.8411 3
      vertex 6.5 33.8466 9
    endloop
  endfacet
  facet normal 1 0 0
    outer loop
      vertex 6.5 33.8466 9
      vertex 6.5 34.8411 3
      vertex 6.5 35.8357 9
    endloop
  endfacet
  facet normal 0 1 0
    outer loop
      vertex 6.5 35.8357 9
      vertex 6.5 35.8357 3
      vertex 5.86415 35.8357 9
    endloop
  endfacet
  facet normal 0 1 0
    outer loop
      vertex 5.86415 35.8357 9
      vertex 6.5 35.8357 3
      vertex 5.86415 35.8357 3
    endloop
  endfacet
  facet normal -0.207912 0.978148 0
    outer loop
      vertex 5.86415 35.8357 9
      vertex 5.86415 35.8357 3
      vertex -0.27051 34.5317 9
    endloop
  endfacet
  facet normal -0.207912 0.978148 0
    outer loop
      vertex -0.27051 34.5317 9
      vertex 5.86415 35.8357 3
      vertex -0.27051 34.5317 3
    endloop
  endfacet
  facet normal -0.406737 0.913545 0
    outer loop
      vertex -0.27051 34.5317 9
      vertex -0.27051 34.5317 3
      vertex -6 31.9808 9
    endloop
  endfacet
  facet normal -0.406737 0.913545 0
    outer loop
      vertex -6 31.9808 9
      vertex -0.27051 34.5317 3
      vertex -6 31.9808 3
    endloop
  endfacet
  facet normal -0.587785 0.809017 0
    outer loop
      vertex -6 31.9808 9
      vertex -6 31.9808 3
      vertex -11.0739 28.2943 9
    endloop
  endfacet
  facet normal -0.587785 0.809017 0
    outer loop
      vertex -11.0739 28.2943 9
      vertex -6 31.9808 3
      vertex -11.0739 28.2943 3
    endloop
  endfacet
  facet normal -0.743145 0.669131 0
    outer loop
      vertex -11.0739 28.2943 9
      vertex -11.0739 28.2943 3
      vertex -15.2705 23.6336 9
    endloop
  endfacet
  facet normal -0.743145 0.669131 0
    outer loop
      vertex -15.2705 23.6336 9
      vertex -11.0739 28.2943 3
      vertex -15.2705 23.6336 3
    endloop
  endfacet
  facet normal -0.866025 0.5 0
    outer loop
      vertex -15.2705 23.6336 9
      vertex -15.2705 23.6336 3
      vertex -18.4064 18.2021 9
    endloop
  endfacet
  facet normal -0.866025 0.5 0
    outer loop
      vertex -18.4064 18.2021 9
      vertex -15.2705 23.6336 3
      vertex -18.4064 18.2021 3
    endloop
  endfacet
  facet normal -0.951057 0.309017 0
    outer loop
      vertex -18.4064 18.2021 9
      vertex -18.4064 18.2021 3
      vertex -20.3444 12.2374 9
    endloop
  endfacet
  facet normal -0.951057 0.309017 0
    outer loop
      vertex -20.3444 12.2374 9
      vertex -18.4064 18.2021 3
      vertex -20.3444 12.2374 3
    endloop
  endfacet
  facet normal -0.994522 0.104528 0
    outer loop
      vertex -20.3444 12.2374 9
      vertex -20.3444 12.2374 3
      vertex -21 6 9
    endloop
  endfacet
  facet normal -0.994522 0.104528 0
    outer loop
      vertex -21 6 9
      vertex -20.3444 12.2374 3
      vertex -21 6 3
    endloop
  endfacet
  facet normal 0 0 -1
    outer loop
      vertex -20 6 1.65
      vertex -19.3663 12.0294 1.65
      vertex -19.3663 -0.029439 1.65
    endloop
  endfacet
  facet normal 0 0 -1
    outer loop
      vertex -18.3881 11.8215 1.65
      vertex -19.3663 12.0294 1.65
      vertex -17.4928 17.7954 1.65
    endloop
  endfacet
  facet normal 0 0 -1
    outer loop
      vertex -16.5793 17.3886 1.65
      vertex -17.4928 17.7954 1.65
      vertex -14.4615 23.0458 1.65
    endloop
  endfacet
  facet normal 0 0 -1
    outer loop
      vertex -13.6525 22.458 1.65
      vertex -14.4615 23.0458 1.65
      vertex -10.4048 27.5512 1.65
    endloop
  endfacet
  facet normal 0 0 -1
    outer loop
      vertex -9.73566 26.8081 1.65
      vertex -10.4048 27.5512 1.65
      vertex -5.5 31.1147 1.65
    endloop
  endfacet
  facet normal 0 0 -1
    outer loop
      vertex -5 30.2487 1.65
      vertex -5.5 31.1147 1.65
      vertex 0.038507 33.5806 1.65
    endloop
  endfacet
  facet normal 0 0 -1
    outer loop
      vertex 0.347524 32.6296 1.65
      vertex 0.038507 33.5806 1.65
      vertex 5.96868 34.8411 1.65
    endloop
  endfacet
  facet normal 0 0 -1
    outer loop
      vertex 6.0732 33.8466 1.65
      vertex 5.96868 34.8411 1.65
      vertex 12.0313 34.8411 1.65
    endloop
  endfacet
  facet normal 0 0 -1
    outer loop
      vertex 11.9268 33.8466 1.65
      vertex 12.0313 34.8411 1.65
      vertex 17.9615 33.5806 1.65
    endloop
  endfacet
  facet normal 0 0 -1
    outer loop
      vertex 17.6525 32.6296 1.65
      vertex 17.9615 33.5806 1.65
      vertex 23.5 31.1147 1.65
    endloop
  endfacet
  facet normal 0 0 -1
    outer loop
      vertex 23 30.2487 1.65
      vertex 23.5 31.1147 1.65
      vertex 28.4048 27.5512 1.65
    endloop
  endfacet
  facet normal 0 0 -1
    outer loop
      vertex 27.7357 26.8081 1.65
      vertex 28.4048 27.5512 1.65
      vertex 32.4615 23.0458 1.65
    endloop
  endfacet
  facet normal 0 0 -1
    outer loop
      vertex 31.6525 22.458 1.65
      vertex 32.4615 23.0458 1.65
      vertex 35.4928 17.7954 1.65
    endloop
  endfacet
  facet normal 0 0 -1
    outer loop
      vertex 34.5793 17.3886 1.65
      vertex 35.4928 17.7954 1.65
      vertex 37.3663 12.0294 1.65
    endloop
  endfacet
  facet normal 0 0 -1
    outer loop
      vertex 37 6 1.65
      vertex 37.3663 12.0294 1.65
      vertex 38 6 1.65
    endloop
  endfacet
  facet normal 0 0 -1
    outer loop
      vertex 36.3881 0.178473 1.65
      vertex 38 6 1.65
      vertex 37.3663 -0.029439 1.65
    endloop
  endfacet
  facet normal 0 0 -1
    outer loop
      vertex 34.5793 -5.38863 1.65
      vertex 37.3663 -0.029439 1.65
      vertex 35.4928 -5.79536 1.65
    endloop
  endfacet
  facet normal 0 0 -1
    outer loop
      vertex 31.6525 -10.458 1.65
      vertex 35.4928 -5.79536 1.65
      vertex 32.4615 -11.0458 1.65
    endloop
  endfacet
  facet normal 0 0 -1
    outer loop
      vertex 27.7357 -14.8081 1.65
      vertex 32.4615 -11.0458 1.65
      vertex 28.4048 -15.5512 1.65
    endloop
  endfacet
  facet normal 0 0 -1
    outer loop
      vertex 23 -18.2487 1.65
      vertex 28.4048 -15.5512 1.65
      vertex 23.5 -19.1147 1.65
    endloop
  endfacet
  facet normal 0 0 -1
    outer loop
      vertex 17.6525 -20.6296 1.65
      vertex 23.5 -19.1147 1.65
      vertex 17.9615 -21.5806 1.65
    endloop
  endfacet
  facet normal 0 0 -1
    outer loop
      vertex 11.9268 -21.8466 1.65
      vertex 17.9615 -21.5806 1.65
      vertex 12.0313 -22.8411 1.65
    endloop
  endfacet
  facet normal 0 0 -1
    outer loop
      vertex 6.0732 -21.8466 1.65
      vertex 12.0313 -22.8411 1.65
      vertex 5.96868 -22.8411 1.65
    endloop
  endfacet
  facet normal 0 0 -1
    outer loop
      vertex 0.347524 -20.6296 1.65
      vertex 5.96868 -22.8411 1.65
      vertex 0.038507 -21.5806 1.65
    endloop
  endfacet
  facet normal 0 0 -1
    outer loop
      vertex -5 -18.2487 1.65
      vertex 0.038507 -21.5806 1.65
      vertex -5.5 -19.1147 1.65
    endloop
  endfacet
  facet normal 0 0 -1
    outer loop
      vertex -9.73566 -14.8081 1.65
      vertex -5.5 -19.1147 1.65
      vertex -10.4048 -15.5512 1.65
    endloop
  endfacet
  facet normal 0 0 -1
    outer loop
      vertex -13.6525 -10.458 1.65
      vertex -10.4048 -15.5512 1.65
      vertex -14.4615 -11.0458 1.65
    endloop
  endfacet
  facet normal 0 0 -1
    outer loop
      vertex -19.3663 -0.029439 1.65
      vertex -14.4615 -11.0458 1.65
      vertex -17.4928 -5.79536 1.65
    endloop
  endfacet
  facet normal 0 0 -1
    outer loop
      vertex -19.3663 -0.029439 1.65
      vertex -19.3663 12.0294 1.65
      vertex -19 6 1.65
    endloop
  endfacet
  facet normal 0 0 -1
    outer loop
      vertex 0.347524 -20.6296 1.65
      vertex 0.038507 -21.5806 1.65
      vertex -5 -18.2487 1.65
    endloop
  endfacet
  facet normal 0 0 -1
    outer loop
      vertex -16.5793 -5.38863 1.65
      vertex -19.3663 -0.029439 1.65
      vertex -18.3881 0.178473 1.65
    endloop
  endfacet
  facet normal 0 0 -1
    outer loop
      vertex -9.73566 -14.8081 1.65
      vertex -10.4048 -15.5512 1.65
      vertex -13.6525 -10.458 1.65
    endloop
  endfacet
  facet normal 0 0 -1
    outer loop
      vertex -19.3663 -0.029439 1.65
      vertex -16.5793 -5.38863 1.65
      vertex -14.4615 -11.0458 1.65
    endloop
  endfacet
  facet normal 0 0 -1
    outer loop
      vertex -16.5793 -5.38863 1.65
      vertex -13.6525 -10.458 1.65
      vertex -14.4615 -11.0458 1.65
    endloop
  endfacet
  facet normal 0 0 -1
    outer loop
      vertex 36.3881 11.8215 1.65
      vertex 37.3663 12.0294 1.65
      vertex 37 6 1.65
    endloop
  endfacet
  facet normal 0 0 -1
    outer loop
      vertex 31.6525 22.458 1.65
      vertex 35.4928 17.7954 1.65
      vertex 34.5793 17.3886 1.65
    endloop
  endfacet
  facet normal 0 0 -1
    outer loop
      vertex 34.5793 17.3886 1.65
      vertex 37.3663 12.0294 1.65
      vertex 36.3881 11.8215 1.65
    endloop
  endfacet
  facet normal 0 0 -1
    outer loop
      vertex 37 6 1.65
      vertex 38 6 1.65
      vertex 36.3881 0.178473 1.65
    endloop
  endfacet
  facet normal 0 0 -1
    outer loop
      vertex 36.3881 0.178473 1.65
      vertex 37.3663 -0.029439 1.65
      vertex 34.5793 -5.38863 1.65
    endloop
  endfacet
  facet normal 0 0 -1
    outer loop
      vertex 34.5793 -5.38863 1.65
      vertex 35.4928 -5.79536 1.65
      vertex 31.6525 -10.458 1.65
    endloop
  endfacet
  facet normal 0 0 -1
    outer loop
      vertex 31.6525 -10.458 1.65
      vertex 32.4615 -11.0458 1.65
      vertex 27.7357 -14.8081 1.65
    endloop
  endfacet
  facet normal 0 0 -1
    outer loop
      vertex 27.7357 -14.8081 1.65
      vertex 28.4048 -15.5512 1.65
      vertex 23 -18.2487 1.65
    endloop
  endfacet
  facet normal 0 0 -1
    outer loop
      vertex 23 -18.2487 1.65
      vertex 23.5 -19.1147 1.65
      vertex 17.6525 -20.6296 1.65
    endloop
  endfacet
  facet normal 0 0 -1
    outer loop
      vertex 17.6525 -20.6296 1.65
      vertex 17.9615 -21.5806 1.65
      vertex 11.9268 -21.8466 1.65
    endloop
  endfacet
  facet normal 0 0 -1
    outer loop
      vertex 11.9268 -21.8466 1.65
      vertex 12.0313 -22.8411 1.65
      vertex 6.0732 -21.8466 1.65
    endloop
  endfacet
  facet normal 0 0 -1
    outer loop
      vertex 6.0732 -21.8466 1.65
      vertex 5.96868 -22.8411 1.65
      vertex 0.347524 -20.6296 1.65
    endloop
  endfacet
  facet normal 0 0 -1
    outer loop
      vertex -19 6 1.65
      vertex -19.3663 12.0294 1.65
      vertex -18.3881 11.8215 1.65
    endloop
  endfacet
  facet normal 0 0 -1
    outer loop
      vertex -18.3881 0.178473 1.65
      vertex -19.3663 -0.029439 1.65
      vertex -19 6 1.65
    endloop
  endfacet
  facet normal 0 0 -1
    outer loop
      vertex -18.3881 11.8215 1.65
      vertex -17.4928 17.7954 1.65
      vertex -16.5793 17.3886 1.65
    endloop
  endfacet
  facet normal 0 0 -1
    outer loop
      vertex -16.5793 17.3886 1.65
      vertex -14.4615 23.0458 1.65
      vertex -13.6525 22.458 1.65
    endloop
  endfacet
  facet normal 0 0 -1
    outer loop
      vertex -13.6525 22.458 1.65
      vertex -10.4048 27.5512 1.65
      vertex -9.73566 26.8081 1.65
    endloop
  endfacet
  facet normal 0 0 -1
    outer loop
      vertex -9.73566 26.8081 1.65
      vertex -5.5 31.1147 1.65
      vertex -5 30.2487 1.65
    endloop
  endfacet
  facet normal 0 0 -1
    outer loop
      vertex -5 30.2487 1.65
      vertex 0.038507 33.5806 1.65
      vertex 0.347524 32.6296 1.65
    endloop
  endfacet
  facet normal 0 0 -1
    outer loop
      vertex 0.347524 32.6296 1.65
      vertex 5.96868 34.8411 1.65
      vertex 6.0732 33.8466 1.65
    endloop
  endfacet
  facet normal 0 0 -1
    outer loop
      vertex 6.0732 33.8466 1.65
      vertex 12.0313 34.8411 1.65
      vertex 11.9268 33.8466 1.65
    endloop
  endfacet
  facet normal 0 0 -1
    outer loop
      vertex 11.9268 33.8466 1.65
      vertex 17.9615 33.5806 1.65
      vertex 17.6525 32.6296 1.65
    endloop
  endfacet
  facet normal 0 0 -1
    outer loop
      vertex 17.6525 32.6296 1.65
      vertex 23.5 31.1147 1.65
      vertex 23 30.2487 1.65
    endloop
  endfacet
  facet normal 0 0 -1
    outer loop
      vertex 23 30.2487 1.65
      vertex 28.4048 27.5512 1.65
      vertex 27.7357 26.8081 1.65
    endloop
  endfacet
  facet normal 0 0 -1
    outer loop
      vertex 27.7357 26.8081 1.65
      vertex 32.4615 23.0458 1.65
      vertex 31.6525 22.458 1.65
    endloop
  endfacet
  facet normal 0 0 -1
    outer loop
      vertex -5 -18.2487 1.65
      vertex -5.5 -19.1147 1.65
      vertex -9.73566 -14.8081 1.65
    endloop
  endfacet
  facet normal 0 0 1
    outer loop
      vertex -20.3444 12.2374 9
      vertex -21 6 9
      vertex -20.3444 -0.237351 9
    endloop
  endfacet
  facet normal 0 0 1
    outer loop
      vertex -18.3881 0.178473 9
      vertex -20.3444 12.2374 9
      vertex -18.4064 -6.2021 9
    endloop
  endfacet
  facet normal 0 0 1
    outer loop
      vertex -18.4064 -6.2021 9
      vertex -20.3444 12.2374 9
      vertex -20.3444 -0.237351 9
    endloop
  endfacet
  facet normal 0 0 1
    outer loop
      vertex -18.3881 0.178473 9
      vertex -19 6 9
      vertex -20.3444 12.2374 9
    endloop
  endfacet
  facet normal 0 0 1
    outer loop
      vertex -16.5793 -5.38863 9
      vertex -18.3881 0.178473 9
      vertex -15.2705 -11.6336 9
    endloop
  endfacet
  facet normal 0 0 1
    outer loop
      vertex -9.73566 -14.8081 9
      vertex -13.6525 -10.458 9
      vertex -11.0739 -16.2943 9
    endloop
  endfacet
  facet normal 0 0 1
    outer loop
      vertex -5 -18.2487 9
      vertex -9.73566 -14.8081 9
      vertex -6 -19.9808 9
    endloop
  endfacet
  facet normal 0 0 1
    outer loop
      vertex 0.347524 -20.6296 9
      vertex -5 -18.2487 9
      vertex -0.27051 -22.5317 9
    endloop
  endfacet
  facet normal 0 0 1
    outer loop
      vertex 6.0732 -21.8466 9
      vertex 0.347524 -20.6296 9
      vertex 5.86415 -23.8357 9
    endloop
  endfacet
  facet normal 0 0 1
    outer loop
      vertex 11.9268 -21.8466 9
      vertex 6.0732 -21.8466 9
      vertex 12.1359 -23.8357 9
    endloop
  endfacet
  facet normal 0 0 1
    outer loop
      vertex 17.6525 -20.6296 9
      vertex 11.9268 -21.8466 9
      vertex 18.2705 -22.5317 9
    endloop
  endfacet
  facet normal 0 0 1
    outer loop
      vertex 23 -18.2487 9
      vertex 17.6525 -20.6296 9
      vertex 24 -19.9808 9
    endloop
  endfacet
  facet normal 0 0 1
    outer loop
      vertex 27.7357 -14.8081 9
      vertex 23 -18.2487 9
      vertex 29.0739 -16.2943 9
    endloop
  endfacet
  facet normal 0 0 1
    outer loop
      vertex 31.6525 -10.458 9
      vertex 27.7357 -14.8081 9
      vertex 33.2705 -11.6336 9
    endloop
  endfacet
  facet normal 0 0 1
    outer loop
      vertex 36.3881 11.8215 9
      vertex 37 6 9
      vertex 39 6 9
    endloop
  endfacet
  facet normal 0 0 1
    outer loop
      vertex 34.5793 17.3886 9
      vertex 36.3881 11.8215 9
      vertex 38.3444 12.2374 9
    endloop
  endfacet
  facet normal 0 0 1
    outer loop
      vertex 31.6525 22.458 9
      vertex 34.5793 17.3886 9
      vertex 36.4064 18.2021 9
    endloop
  endfacet
  facet normal 0 0 1
    outer loop
      vertex 27.7357 26.8081 9
      vertex 31.6525 22.458 9
      vertex 33.2705 23.6336 9
    endloop
  endfacet
  facet normal 0 0 1
    outer loop
      vertex 23 30.2487 9
      vertex 27.7357 26.8081 9
      vertex 29.0739 28.2943 9
    endloop
  endfacet
  facet normal 0 0 1
    outer loop
      vertex 17.6525 32.6296 9
      vertex 23 30.2487 9
      vertex 24 31.9808 9
    endloop
  endfacet
  facet normal 0 0 1
    outer loop
      vertex 11.9268 33.8466 9
      vertex 17.6525 32.6296 9
      vertex 18.2705 34.5317 9
    endloop
  endfacet
  facet normal 0 0 1
    outer loop
      vertex 12.1359 35.8357 9
      vertex 11.5 33.8466 9
      vertex 18.2705 34.5317 9
    endloop
  endfacet
  facet normal 0 0 1
    outer loop
      vertex 11.5 33.8466 9
      vertex 11.9268 33.8466 9
      vertex 18.2705 34.5317 9
    endloop
  endfacet
  facet normal 0 0 1
    outer loop
      vertex 6.5 33.8466 9
      vertex 6.5 35.8357 9
      vertex 6.0732 33.8466 9
    endloop
  endfacet
  facet normal 0 0 1
    outer loop
      vertex 18.2705 34.5317 9
      vertex 17.6525 32.6296 9
      vertex 24 31.9808 9
    endloop
  endfacet
  facet normal 0 0 1
    outer loop
      vertex 24 31.9808 9
      vertex 23 30.2487 9
      vertex 29.0739 28.2943 9
    endloop
  endfacet
  facet normal 0 0 1
    outer loop
      vertex 29.0739 28.2943 9
      vertex 27.7357 26.8081 9
      vertex 33.2705 23.6336 9
    endloop
  endfacet
  facet normal 0 0 1
    outer loop
      vertex 33.2705 23.6336 9
      vertex 31.6525 22.458 9
      vertex 36.4064 18.2021 9
    endloop
  endfacet
  facet normal 0 0 1
    outer loop
      vertex 36.4064 18.2021 9
      vertex 34.5793 17.3886 9
      vertex 38.3444 12.2374 9
    endloop
  endfacet
  facet normal 0 0 1
    outer loop
      vertex 38.3444 12.2374 9
      vertex 36.3881 11.8215 9
      vertex 39 6 9
    endloop
  endfacet
  facet normal 0 0 1
    outer loop
      vertex 39 6 9
      vertex 37 6 9
      vertex 38.3444 -0.237351 9
    endloop
  endfacet
  facet normal 0 0 1
    outer loop
      vertex 37 6 9
      vertex 36.3881 0.178473 9
      vertex 38.3444 -0.237351 9
    endloop
  endfacet
  facet normal 0 0 1
    outer loop
      vertex 38.3444 -0.237351 9
      vertex 34.5793 -5.38863 9
      vertex 36.4064 -6.2021 9
    endloop
  endfacet
  facet normal 0 0 1
    outer loop
      vertex 36.4064 -6.2021 9
      vertex 31.6525 -10.458 9
      vertex 33.2705 -11.6336 9
    endloop
  endfacet
  facet normal 0 0 1
    outer loop
      vertex 33.2705 -11.6336 9
      vertex 27.7357 -14.8081 9
      vertex 29.0739 -16.2943 9
    endloop
  endfacet
  facet normal 0 0 1
    outer loop
      vertex 29.0739 -16.2943 9
      vertex 23 -18.2487 9
      vertex 24 -19.9808 9
    endloop
  endfacet
  facet normal 0 0 1
    outer loop
      vertex 24 -19.9808 9
      vertex 17.6525 -20.6296 9
      vertex 18.2705 -22.5317 9
    endloop
  endfacet
  facet normal 0 0 1
    outer loop
      vertex 18.2705 -22.5317 9
      vertex 11.9268 -21.8466 9
      vertex 12.1359 -23.8357 9
    endloop
  endfacet
  facet normal 0 0 1
    outer loop
      vertex 12.1359 -23.8357 9
      vertex 6.0732 -21.8466 9
      vertex 5.86415 -23.8357 9
    endloop
  endfacet
  facet normal 0 0 1
    outer loop
      vertex 5.86415 -23.8357 9
      vertex 0.347524 -20.6296 9
      vertex -0.27051 -22.5317 9
    endloop
  endfacet
  facet normal 0 0 1
    outer loop
      vertex -0.27051 -22.5317 9
      vertex -5 -18.2487 9
      vertex -6 -19.9808 9
    endloop
  endfacet
  facet normal 0 0 1
    outer loop
      vertex -6 -19.9808 9
      vertex -9.73566 -14.8081 9
      vertex -11.0739 -16.2943 9
    endloop
  endfacet
  facet normal 0 0 1
    outer loop
      vertex -11.0739 -16.2943 9
      vertex -13.6525 -10.458 9
      vertex -15.2705 -11.6336 9
    endloop
  endfacet
  facet normal 0 0 1
    outer loop
      vertex -13.6525 -10.458 9
      vertex -16.5793 -5.38863 9
      vertex -15.2705 -11.6336 9
    endloop
  endfacet
  facet normal 0 0 1
    outer loop
      vertex -15.2705 -11.6336 9
      vertex -18.3881 0.178473 9
      vertex -18.4064 -6.2021 9
    endloop
  endfacet
  facet normal 0 0 1
    outer loop
      vertex -18.3881 11.8215 9
      vertex -16.5793 17.3886 9
      vertex -20.3444 12.2374 9
    endloop
  endfacet
  facet normal 0 0 1
    outer loop
      vertex 34.5793 -5.38863 9
      vertex 31.6525 -10.458 9
      vertex 36.4064 -6.2021 9
    endloop
  endfacet
  facet normal 0 0 1
    outer loop
      vertex -13.6525 22.458 9
      vertex -20.3444 12.2374 9
      vertex -16.5793 17.3886 9
    endloop
  endfacet
  facet normal 0 0 1
    outer loop
      vertex -11.0739 28.2943 9
      vertex -20.3444 12.2374 9
      vertex -13.6525 22.458 9
    endloop
  endfacet
  facet normal 0 0 1
    outer loop
      vertex -6 31.9808 9
      vertex -13.6525 22.458 9
      vertex -9.73566 26.8081 9
    endloop
  endfacet
  facet normal 0 0 1
    outer loop
      vertex 6.0732 33.8466 9
      vertex 6.5 35.8357 9
      vertex 0.347524 32.6296 9
    endloop
  endfacet
  facet normal 0 0 1
    outer loop
      vertex -0.27051 34.5317 9
      vertex -9.73566 26.8081 9
      vertex -5 30.2487 9
    endloop
  endfacet
  facet normal 0 0 1
    outer loop
      vertex 6.5 35.8357 9
      vertex -5 30.2487 9
      vertex 0.347524 32.6296 9
    endloop
  endfacet
  facet normal 0 0 1
    outer loop
      vertex 5.86415 35.8357 9
      vertex -5 30.2487 9
      vertex 6.5 35.8357 9
    endloop
  endfacet
  facet normal 0 0 1
    outer loop
      vertex -0.27051 34.5317 9
      vertex -5 30.2487 9
      vertex 5.86415 35.8357 9
    endloop
  endfacet
  facet normal 0 0 1
    outer loop
      vertex -6 31.9808 9
      vertex -9.73566 26.8081 9
      vertex -0.27051 34.5317 9
    endloop
  endfacet
  facet normal 0 0 1
    outer loop
      vertex -11.0739 28.2943 9
      vertex -13.6525 22.458 9
      vertex -6 31.9808 9
    endloop
  endfacet
  facet normal 0 0 1
    outer loop
      vertex -15.2705 23.6336 9
      vertex -20.3444 12.2374 9
      vertex -11.0739 28.2943 9
    endloop
  endfacet
  facet normal 0 0 1
    outer loop
      vertex -18.4064 18.2021 9
      vertex -20.3444 12.2374 9
      vertex -15.2705 23.6336 9
    endloop
  endfacet
  facet normal 0 0 1
    outer loop
      vertex 11.5 35.8357 9
      vertex 11.5 33.8466 9
      vertex 12.1359 35.8357 9
    endloop
  endfacet
  facet normal 0 0 1
    outer loop
      vertex 36.3881 0.178473 9
      vertex 34.5793 -5.38863 9
      vertex 38.3444 -0.237351 9
    endloop
  endfacet
  facet normal 0 0 1
    outer loop
      vertex -19 6 9
      vertex -18.3881 11.8215 9
      vertex -20.3444 12.2374 9
    endloop
  endfacet
  facet normal 0 -1 0
    outer loop
      vertex 11.9268 33.8466 1.65
      vertex 11.9268 33.8466 9
      vertex 11.5 33.8466 9
    endloop
  endfacet
  facet normal 0 -1 0
    outer loop
      vertex 6.5 33.8466 3
      vertex 11.9268 33.8466 1.65
      vertex 11.5 33.8466 3
    endloop
  endfacet
  facet normal 0 -1 0
    outer loop
      vertex 11.5 33.8466 3
      vertex 11.9268 33.8466 1.65
      vertex 11.5 33.8466 9
    endloop
  endfacet
  facet normal 0 -1 0
    outer loop
      vertex 6.0732 33.8466 1.65
      vertex 11.9268 33.8466 1.65
      vertex 6.5 33.8466 3
    endloop
  endfacet
  facet normal 0 -1 0
    outer loop
      vertex 6.0732 33.8466 9
      vertex 6.5 33.8466 3
      vertex 6.5 33.8466 9
    endloop
  endfacet
  facet normal 0 -1 0
    outer loop
      vertex 6.0732 33.8466 1.65
      vertex 6.5 33.8466 3
      vertex 6.0732 33.8466 9
    endloop
  endfacet
  facet normal 0.994522 -0.104528 0
    outer loop
      vertex -18.3881 11.8215 1.65
      vertex -18.3881 11.8215 9
      vertex -19 6 9
    endloop
  endfacet
  facet normal 0.994522 -0.104528 0
    outer loop
      vertex -19 6 1.65
      vertex -18.3881 11.8215 1.65
      vertex -19 6 9
    endloop
  endfacet
  facet normal 0.994522 0.104528 0
    outer loop
      vertex -19 6 9
      vertex -18.3881 0.178473 9
      vertex -18.3881 0.178473 1.65
    endloop
  endfacet
  facet normal 0.994522 0.104528 0
    outer loop
      vertex -19 6 1.65
      vertex -19 6 9
      vertex -18.3881 0.178473 1.65
    endloop
  endfacet
  facet normal 0.951057 -0.309017 0
    outer loop
      vertex -16.5793 17.3886 1.65
      vertex -16.5793 17.3886 9
      vertex -18.3881 11.8215 9
    endloop
  endfacet
  facet normal 0.951057 -0.309017 0
    outer loop
      vertex -18.3881 11.8215 1.65
      vertex -16.5793 17.3886 1.65
      vertex -18.3881 11.8215 9
    endloop
  endfacet
  facet normal 0.866025 -0.5 0
    outer loop
      vertex -13.6525 22.458 1.65
      vertex -13.6525 22.458 9
      vertex -16.5793 17.3886 9
    endloop
  endfacet
  facet normal 0.866025 -0.5 0
    outer loop
      vertex -16.5793 17.3886 1.65
      vertex -13.6525 22.458 1.65
      vertex -16.5793 17.3886 9
    endloop
  endfacet
  facet normal 0.743145 -0.669131 0
    outer loop
      vertex -9.73566 26.8081 1.65
      vertex -9.73566 26.8081 9
      vertex -13.6525 22.458 9
    endloop
  endfacet
  facet normal 0.743145 -0.669131 0
    outer loop
      vertex -13.6525 22.458 1.65
      vertex -9.73566 26.8081 1.65
      vertex -13.6525 22.458 9
    endloop
  endfacet
  facet normal 0.587785 -0.809017 0
    outer loop
      vertex -5 30.2487 1.65
      vertex -5 30.2487 9
      vertex -9.73566 26.8081 9
    endloop
  endfacet
  facet normal 0.587785 -0.809017 0
    outer loop
      vertex -9.73566 26.8081 1.65
      vertex -5 30.2487 1.65
      vertex -9.73566 26.8081 9
    endloop
  endfacet
  facet normal 0.406737 -0.913545 0
    outer loop
      vertex 0.347524 32.6296 1.65
      vertex 0.347524 32.6296 9
      vertex -5 30.2487 9
    endloop
  endfacet
  facet normal 0.406737 -0.913545 0
    outer loop
      vertex -5 30.2487 1.65
      vertex 0.347524 32.6296 1.65
      vertex -5 30.2487 9
    endloop
  endfacet
  facet normal 0.207912 -0.978148 0
    outer loop
      vertex 6.0732 33.8466 1.65
      vertex 6.0732 33.8466 9
      vertex 0.347524 32.6296 9
    endloop
  endfacet
  facet normal 0.207912 -0.978148 0
    outer loop
      vertex 0.347524 32.6296 1.65
      vertex 6.0732 33.8466 1.65
      vertex 0.347524 32.6296 9
    endloop
  endfacet
  facet normal -0.207912 -0.978148 0
    outer loop
      vertex 17.6525 32.6296 1.65
      vertex 17.6525 32.6296 9
      vertex 11.9268 33.8466 9
    endloop
  endfacet
  facet normal -0.207912 -0.978148 0
    outer loop
      vertex 11.9268 33.8466 1.65
      vertex 17.6525 32.6296 1.65
      vertex 11.9268 33.8466 9
    endloop
  endfacet
  facet normal -0.406737 -0.913545 0
    outer loop
      vertex 23 30.2487 1.65
      vertex 23 30.2487 9
      vertex 17.6525 32.6296 9
    endloop
  endfacet
  facet normal -0.406737 -0.913545 0
    outer loop
      vertex 17.6525 32.6296 1.65
      vertex 23 30.2487 1.65
      vertex 17.6525 32.6296 9
    endloop
  endfacet
  facet normal -0.587785 -0.809017 0
    outer loop
      vertex 27.7357 26.8081 1.65
      vertex 27.7357 26.8081 9
      vertex 23 30.2487 9
    endloop
  endfacet
  facet normal -0.587785 -0.809017 0
    outer loop
      vertex 23 30.2487 1.65
      vertex 27.7357 26.8081 1.65
      vertex 23 30.2487 9
    endloop
  endfacet
  facet normal -0.743145 -0.669131 0
    outer loop
      vertex 31.6525 22.458 9
      vertex 27.7357 26.8081 9
      vertex 31.6525 22.458 1.65
    endloop
  endfacet
  facet normal -0.743145 -0.669131 0
    outer loop
      vertex 31.6525 22.458 1.65
      vertex 27.7357 26.8081 9
      vertex 27.7357 26.8081 1.65
    endloop
  endfacet
  facet normal -0.866025 -0.5 0
    outer loop
      vertex 34.5793 17.3886 9
      vertex 31.6525 22.458 9
      vertex 34.5793 17.3886 1.65
    endloop
  endfacet
  facet normal -0.866025 -0.5 0
    outer loop
      vertex 34.5793 17.3886 1.65
      vertex 31.6525 22.458 9
      vertex 31.6525 22.458 1.65
    endloop
  endfacet
  facet normal -0.951057 -0.309017 0
    outer loop
      vertex 36.3881 11.8215 9
      vertex 34.5793 17.3886 9
      vertex 36.3881 11.8215 1.65
    endloop
  endfacet
  facet normal -0.951057 -0.309017 0
    outer loop
      vertex 36.3881 11.8215 1.65
      vertex 34.5793 17.3886 9
      vertex 34.5793 17.3886 1.65
    endloop
  endfacet
  facet normal -0.994522 -0.104528 0
    outer loop
      vertex 37 6 9
      vertex 36.3881 11.8215 9
      vertex 37 6 1.65
    endloop
  endfacet
  facet normal -0.994522 -0.104528 0
    outer loop
      vertex 37 6 1.65
      vertex 36.3881 11.8215 9
      vertex 36.3881 11.8215 1.65
    endloop
  endfacet
  facet normal -0.994522 0.104528 0
    outer loop
      vertex 37 6 9
      vertex 37 6 1.65
      vertex 36.3881 0.178473 9
    endloop
  endfacet
  facet normal -0.994522 0.104528 0
    outer loop
      vertex 36.3881 0.178473 9
      vertex 37 6 1.65
      vertex 36.3881 0.178473 1.65
    endloop
  endfacet
  facet normal -0.951057 0.309017 0
    outer loop
      vertex 36.3881 0.178473 9
      vertex 36.3881 0.178473 1.65
      vertex 34.5793 -5.38863 9
    endloop
  endfacet
  facet normal -0.951057 0.309017 0
    outer loop
      vertex 34.5793 -5.38863 9
      vertex 36.3881 0.178473 1.65
      vertex 34.5793 -5.38863 1.65
    endloop
  endfacet
  facet normal -0.866025 0.5 0
    outer loop
      vertex 34.5793 -5.38863 9
      vertex 34.5793 -5.38863 1.65
      vertex 31.6525 -10.458 9
    endloop
  endfacet
  facet normal -0.866025 0.5 0
    outer loop
      vertex 31.6525 -10.458 9
      vertex 34.5793 -5.38863 1.65
      vertex 31.6525 -10.458 1.65
    endloop
  endfacet
  facet normal -0.743145 0.669131 0
    outer loop
      vertex 31.6525 -10.458 9
      vertex 31.6525 -10.458 1.65
      vertex 27.7357 -14.8081 9
    endloop
  endfacet
  facet normal -0.743145 0.669131 0
    outer loop
      vertex 27.7357 -14.8081 9
      vertex 31.6525 -10.458 1.65
      vertex 27.7357 -14.8081 1.65
    endloop
  endfacet
  facet normal -0.587785 0.809017 0
    outer loop
      vertex 27.7357 -14.8081 9
      vertex 27.7357 -14.8081 1.65
      vertex 23 -18.2487 9
    endloop
  endfacet
  facet normal -0.587785 0.809017 0
    outer loop
      vertex 23 -18.2487 9
      vertex 27.7357 -14.8081 1.65
      vertex 23 -18.2487 1.65
    endloop
  endfacet
  facet normal -0.406737 0.913545 0
    outer loop
      vertex 23 -18.2487 9
      vertex 23 -18.2487 1.65
      vertex 17.6525 -20.6296 9
    endloop
  endfacet
  facet normal -0.406737 0.913545 0
    outer loop
      vertex 17.6525 -20.6296 9
      vertex 23 -18.2487 1.65
      vertex 17.6525 -20.6296 1.65
    endloop
  endfacet
  facet normal -0.207912 0.978148 0
    outer loop
      vertex 17.6525 -20.6296 9
      vertex 17.6525 -20.6296 1.65
      vertex 11.9268 -21.8466 9
    endloop
  endfacet
  facet normal -0.207912 0.978148 0
    outer loop
      vertex 11.9268 -21.8466 9
      vertex 17.6525 -20.6296 1.65
      vertex 11.9268 -21.8466 1.65
    endloop
  endfacet
  facet normal 0 1 0
    outer loop
      vertex 11.9268 -21.8466 9
      vertex 11.9268 -21.8466 1.65
      vertex 6.0732 -21.8466 9
    endloop
  endfacet
  facet normal 0 1 0
    outer loop
      vertex 6.0732 -21.8466 9
      vertex 11.9268 -21.8466 1.65
      vertex 6.0732 -21.8466 1.65
    endloop
  endfacet
  facet normal 0.207912 0.978148 0
    outer loop
      vertex 6.0732 -21.8466 9
      vertex 6.0732 -21.8466 1.65
      vertex 0.347524 -20.6296 9
    endloop
  endfacet
  facet normal 0.207912 0.978148 0
    outer loop
      vertex 0.347524 -20.6296 9
      vertex 6.0732 -21.8466 1.65
      vertex 0.347524 -20.6296 1.65
    endloop
  endfacet
  facet normal 0.406737 0.913545 0
    outer loop
      vertex 0.347524 -20.6296 9
      vertex 0.347524 -20.6296 1.65
      vertex -5 -18.2487 9
    endloop
  endfacet
  facet normal 0.406737 0.913545 0
    outer loop
      vertex -5 -18.2487 9
      vertex 0.347524 -20.6296 1.65
      vertex -5 -18.2487 1.65
    endloop
  endfacet
  facet normal 0.587785 0.809017 0
    outer loop
      vertex -5 -18.2487 9
      vertex -5 -18.2487 1.65
      vertex -9.73566 -14.8081 9
    endloop
  endfacet
  facet normal 0.587785 0.809017 0
    outer loop
      vertex -9.73566 -14.8081 9
      vertex -5 -18.2487 1.65
      vertex -9.73566 -14.8081 1.65
    endloop
  endfacet
  facet normal 0.743145 0.669131 0
    outer loop
      vertex -13.6525 -10.458 9
      vertex -9.73566 -14.8081 9
      vertex -9.73566 -14.8081 1.65
    endloop
  endfacet
  facet normal 0.743145 0.669131 0
    outer loop
      vertex -13.6525 -10.458 1.65
      vertex -13.6525 -10.458 9
      vertex -9.73566 -14.8081 1.65
    endloop
  endfacet
  facet normal 0.866025 0.5 0
    outer loop
      vertex -16.5793 -5.38863 9
      vertex -13.6525 -10.458 9
      vertex -13.6525 -10.458 1.65
    endloop
  endfacet
  facet normal 0.866025 0.5 0
    outer loop
      vertex -16.5793 -5.38863 1.65
      vertex -16.5793 -5.38863 9
      vertex -13.6525 -10.458 1.65
    endloop
  endfacet
  facet normal 0.951057 0.309017 0
    outer loop
      vertex -18.3881 0.178473 9
      vertex -16.5793 -5.38863 9
      vertex -16.5793 -5.38863 1.65
    endloop
  endfacet
  facet normal 0.951057 0.309017 0
    outer loop
      vertex -18.3881 0.178473 1.65
      vertex -18.3881 0.178473 9
      vertex -16.5793 -5.38863 1.65
    endloop
  endfacet
endsolid OpenSCAD_Model
