solid OpenSCAD_Model
  facet normal 0 0 -1
    outer loop
      vertex -32 0 0
      vertex -31.3007 6.65317 0
      vertex -31.3007 -6.65317 0
    endloop
  endfacet
  facet normal 0 0 -1
    outer loop
      vertex -31.3007 -6.65317 0
      vertex -31.3007 6.65317 0
      vertex -29.2335 13.0156 0
    endloop
  endfacet
  facet normal 0 0 -1
    outer loop
      vertex -27.4064 12.2021 0
      vertex -29.2335 13.0156 0
      vertex -25.8885 18.8091 0
    endloop
  endfacet
  facet normal 0 0 -1
    outer loop
      vertex -24.2705 17.6336 0
      vertex -25.8885 18.8091 0
      vertex -21.4122 23.7806 0
    endloop
  endfacet
  facet normal 0 0 -1
    outer loop
      vertex -20.0739 22.2943 0
      vertex -21.4122 23.7806 0
      vertex -16 27.7128 0
    endloop
  endfacet
  facet normal 0 0 -1
    outer loop
      vertex -15 25.9808 0
      vertex -16 27.7128 0
      vertex -9.88854 30.4338 0
    endloop
  endfacet
  facet normal 0 0 -1
    outer loop
      vertex -9.27051 28.5317 0
      vertex -9.88854 30.4338 0
      vertex -3.34491 31.8247 0
    endloop
  endfacet
  facet normal 0 0 -1
    outer loop
      vertex 1.5 29.8357 0
      vertex -3.34491 31.8247 0
      vertex 3.34491 31.8247 0
    endloop
  endfacet
  facet normal 0 0 -1
    outer loop
      vertex 3.13585 29.8357 0
      vertex 3.34491 31.8247 0
      vertex 9.88854 30.4338 0
    endloop
  endfacet
  facet normal 0 0 -1
    outer loop
      vertex 9.27051 28.5317 0
      vertex 9.88854 30.4338 0
      vertex 16 27.7128 0
    endloop
  endfacet
  facet normal 0 0 -1
    outer loop
      vertex 15 25.9808 0
      vertex 16 27.7128 0
      vertex 21.4122 23.7806 0
    endloop
  endfacet
  facet normal 0 0 -1
    outer loop
      vertex 20.0739 22.2943 0
      vertex 21.4122 23.7806 0
      vertex 25.8885 18.8091 0
    endloop
  endfacet
  facet normal 0 0 -1
    outer loop
      vertex 24.2705 17.6336 0
      vertex 25.8885 18.8091 0
      vertex 29.2335 13.0156 0
    endloop
  endfacet
  facet normal 0 0 -1
    outer loop
      vertex 29.3444 6.23735 0
      vertex 29.2335 13.0156 0
      vertex 31.3007 6.65317 0
    endloop
  endfacet
  facet normal 0 0 -1
    outer loop
      vertex 30 0 0
      vertex 31.3007 6.65317 0
      vertex 32 0 0
    endloop
  endfacet
  facet normal 0 0 -1
    outer loop
      vertex 29.3444 -6.23735 0
      vertex 32 0 0
      vertex 31.3007 -6.65317 0
    endloop
  endfacet
  facet normal 0 0 -1
    outer loop
      vertex 27.4064 -12.2021 0
      vertex 31.3007 -6.65317 0
      vertex 29.2335 -13.0156 0
    endloop
  endfacet
  facet normal 0 0 -1
    outer loop
      vertex 24.2705 -17.6336 0
      vertex 29.2335 -13.0156 0
      vertex 25.8885 -18.8091 0
    endloop
  endfacet
  facet normal 0 0 -1
    outer loop
      vertex 20.0739 -22.2943 0
      vertex 25.8885 -18.8091 0
      vertex 21.4122 -23.7806 0
    endloop
  endfacet
  facet normal 0 0 -1
    outer loop
      vertex 15 -25.9808 0
      vertex 21.4122 -23.7806 0
      vertex 16 -27.7128 0
    endloop
  endfacet
  facet normal 0 0 -1
    outer loop
      vertex 9.27051 -28.5317 0
      vertex 16 -27.7128 0
      vertex 9.88854 -30.4338 0
    endloop
  endfacet
  facet normal 0 0 -1
    outer loop
      vertex 3.13585 -29.8357 0
      vertex 9.88854 -30.4338 0
      vertex 3.34491 -31.8247 0
    endloop
  endfacet
  facet normal 0 0 -1
    outer loop
      vertex -3.13585 -29.8357 0
      vertex 3.34491 -31.8247 0
      vertex -3.34491 -31.8247 0
    endloop
  endfacet
  facet normal 0 0 -1
    outer loop
      vertex -9.27051 -28.5317 0
      vertex -3.34491 -31.8247 0
      vertex -9.88854 -30.4338 0
    endloop
  endfacet
  facet normal 0 0 -1
    outer loop
      vertex -15 -25.9808 0
      vertex -9.88854 -30.4338 0
      vertex -16 -27.7128 0
    endloop
  endfacet
  facet normal 0 0 -1
    outer loop
      vertex -24.2705 -17.6336 0
      vertex -16 -27.7128 0
      vertex -21.4122 -23.7806 0
    endloop
  endfacet
  facet normal 0 0 -1
    outer loop
      vertex -31.3007 -6.65317 0
      vertex -21.4122 -23.7806 0
      vertex -25.8885 -18.8091 0
    endloop
  endfacet
  facet normal 0 0 -1
    outer loop
      vertex -31.3007 -6.65317 0
      vertex -25.8885 -18.8091 0
      vertex -29.2335 -13.0156 0
    endloop
  endfacet
  facet normal 0 0 -1
    outer loop
      vertex -31.3007 -6.65317 0
      vertex -29.2335 13.0156 0
      vertex -30 0 0
    endloop
  endfacet
  facet normal 0 0 -1
    outer loop
      vertex -27.4064 -12.2021 0
      vertex -31.3007 -6.65317 0
      vertex -29.3444 -6.23735 0
    endloop
  endfacet
  facet normal 0 0 -1
    outer loop
      vertex -15 -25.9808 0
      vertex -16 -27.7128 0
      vertex -20.0739 -22.2943 0
    endloop
  endfacet
  facet normal 0 0 -1
    outer loop
      vertex -31.3007 -6.65317 0
      vertex -27.4064 -12.2021 0
      vertex -21.4122 -23.7806 0
    endloop
  endfacet
  facet normal 0 0 -1
    outer loop
      vertex -20.0739 -22.2943 0
      vertex -16 -27.7128 0
      vertex -24.2705 -17.6336 0
    endloop
  endfacet
  facet normal 0 0 -1
    outer loop
      vertex -27.4064 -12.2021 0
      vertex -24.2705 -17.6336 0
      vertex -21.4122 -23.7806 0
    endloop
  endfacet
  facet normal 0 0 -1
    outer loop
      vertex 29.3444 6.23735 0
      vertex 31.3007 6.65317 0
      vertex 30 0 0
    endloop
  endfacet
  facet normal 0 0 -1
    outer loop
      vertex 27.4064 12.2021 0
      vertex 29.2335 13.0156 0
      vertex 29.3444 6.23735 0
    endloop
  endfacet
  facet normal 0 0 -1
    outer loop
      vertex 30 0 0
      vertex 32 0 0
      vertex 29.3444 -6.23735 0
    endloop
  endfacet
  facet normal 0 0 -1
    outer loop
      vertex 29.3444 -6.23735 0
      vertex 31.3007 -6.65317 0
      vertex 27.4064 -12.2021 0
    endloop
  endfacet
  facet normal 0 0 -1
    outer loop
      vertex 27.4064 -12.2021 0
      vertex 29.2335 -13.0156 0
      vertex 24.2705 -17.6336 0
    endloop
  endfacet
  facet normal 0 0 -1
    outer loop
      vertex 24.2705 -17.6336 0
      vertex 25.8885 -18.8091 0
      vertex 20.0739 -22.2943 0
    endloop
  endfacet
  facet normal 0 0 -1
    outer loop
      vertex 20.0739 -22.2943 0
      vertex 21.4122 -23.7806 0
      vertex 15 -25.9808 0
    endloop
  endfacet
  facet normal 0 0 -1
    outer loop
      vertex 9.27051 -28.5317 0
      vertex 9.88854 -30.4338 0
      vertex 3.13585 -29.8357 0
    endloop
  endfacet
  facet normal 0 0 -1
    outer loop
      vertex -1.5 29.8357 0
      vertex -3.34491 31.8247 0
      vertex 1.5 29.8357 0
    endloop
  endfacet
  facet normal 0 0 -1
    outer loop
      vertex 15 -25.9808 0
      vertex 16 -27.7128 0
      vertex 9.27051 -28.5317 0
    endloop
  endfacet
  facet normal 0 0 -1
    outer loop
      vertex -9.27051 28.5317 0
      vertex -3.34491 31.8247 0
      vertex -3.13585 29.8357 0
    endloop
  endfacet
  facet normal 0 0 -1
    outer loop
      vertex 3.13585 -29.8357 0
      vertex 3.34491 -31.8247 0
      vertex -3.13585 -29.8357 0
    endloop
  endfacet
  facet normal 0 0 -1
    outer loop
      vertex -1.5 27.4 0
      vertex -1.5 29.8357 0
      vertex 1.5 29.8357 0
    endloop
  endfacet
  facet normal 0 0 -1
    outer loop
      vertex -3.13585 -29.8357 0
      vertex -3.34491 -31.8247 0
      vertex -9.27051 -28.5317 0
    endloop
  endfacet
  facet normal 0 0 -1
    outer loop
      vertex -9.27051 -28.5317 0
      vertex -9.88854 -30.4338 0
      vertex -15 -25.9808 0
    endloop
  endfacet
  facet normal 0 0 -1
    outer loop
      vertex -29.3444 6.23735 0
      vertex -29.2335 13.0156 0
      vertex -27.4064 12.2021 0
    endloop
  endfacet
  facet normal 0 0 -1
    outer loop
      vertex -30 0 0
      vertex -29.2335 13.0156 0
      vertex -29.3444 6.23735 0
    endloop
  endfacet
  facet normal 0 0 -1
    outer loop
      vertex -29.3444 -6.23735 0
      vertex -31.3007 -6.65317 0
      vertex -30 0 0
    endloop
  endfacet
  facet normal 0 0 -1
    outer loop
      vertex -27.4064 12.2021 0
      vertex -25.8885 18.8091 0
      vertex -24.2705 17.6336 0
    endloop
  endfacet
  facet normal 0 0 -1
    outer loop
      vertex -24.2705 17.6336 0
      vertex -21.4122 23.7806 0
      vertex -20.0739 22.2943 0
    endloop
  endfacet
  facet normal 0 0 -1
    outer loop
      vertex -20.0739 22.2943 0
      vertex -16 27.7128 0
      vertex -15 25.9808 0
    endloop
  endfacet
  facet normal 0 0 -1
    outer loop
      vertex -15 25.9808 0
      vertex -9.88854 30.4338 0
      vertex -9.27051 28.5317 0
    endloop
  endfacet
  facet normal 0 0 -1
    outer loop
      vertex -3.13585 29.8357 0
      vertex -3.34491 31.8247 0
      vertex -1.5 29.8357 0
    endloop
  endfacet
  facet normal 0 0 -1
    outer loop
      vertex 1.5 29.8357 0
      vertex 3.34491 31.8247 0
      vertex 3.13585 29.8357 0
    endloop
  endfacet
  facet normal 0 0 -1
    outer loop
      vertex -1.5 27.4 0
      vertex 1.5 29.8357 0
      vertex 1.5 27.4 0
    endloop
  endfacet
  facet normal 0 0 -1
    outer loop
      vertex 3.13585 29.8357 0
      vertex 9.88854 30.4338 0
      vertex 9.27051 28.5317 0
    endloop
  endfacet
  facet normal 0 0 -1
    outer loop
      vertex 9.27051 28.5317 0
      vertex 16 27.7128 0
      vertex 15 25.9808 0
    endloop
  endfacet
  facet normal 0 0 -1
    outer loop
      vertex 15 25.9808 0
      vertex 21.4122 23.7806 0
      vertex 20.0739 22.2943 0
    endloop
  endfacet
  facet normal 0 0 -1
    outer loop
      vertex 20.0739 22.2943 0
      vertex 25.8885 18.8091 0
      vertex 24.2705 17.6336 0
    endloop
  endfacet
  facet normal 0 0 -1
    outer loop
      vertex 24.2705 17.6336 0
      vertex 29.2335 13.0156 0
      vertex 27.4064 12.2021 0
    endloop
  endfacet
  facet normal -0.994522 0.104528 0
    outer loop
      vertex -32 0 0
      vertex -32 0 27.35
      vertex -31.3007 6.65317 0
    endloop
  endfacet
  facet normal -0.994522 0.104528 0
    outer loop
      vertex -31.3007 6.65317 0
      vertex -32 0 27.35
      vertex -31.3007 6.65317 27.35
    endloop
  endfacet
  facet normal -0.994522 -0.104528 0
    outer loop
      vertex -32 0 0
      vertex -31.3007 -6.65317 0
      vertex -32 0 27.35
    endloop
  endfacet
  facet normal -0.994522 -0.104528 0
    outer loop
      vertex -32 0 27.35
      vertex -31.3007 -6.65317 0
      vertex -31.3007 -6.65317 27.35
    endloop
  endfacet
  facet normal -0.951057 -0.309017 0
    outer loop
      vertex -31.3007 -6.65317 0
      vertex -29.2335 -13.0156 0
      vertex -31.3007 -6.65317 27.35
    endloop
  endfacet
  facet normal -0.951057 -0.309017 0
    outer loop
      vertex -31.3007 -6.65317 27.35
      vertex -29.2335 -13.0156 0
      vertex -29.2335 -13.0156 27.35
    endloop
  endfacet
  facet normal -0.866025 -0.5 0
    outer loop
      vertex -29.2335 -13.0156 0
      vertex -25.8885 -18.8091 0
      vertex -29.2335 -13.0156 27.35
    endloop
  endfacet
  facet normal -0.866025 -0.5 0
    outer loop
      vertex -29.2335 -13.0156 27.35
      vertex -25.8885 -18.8091 0
      vertex -25.8885 -18.8091 27.35
    endloop
  endfacet
  facet normal -0.743145 -0.669131 0
    outer loop
      vertex -25.8885 -18.8091 0
      vertex -21.4122 -23.7806 0
      vertex -25.8885 -18.8091 27.35
    endloop
  endfacet
  facet normal -0.743145 -0.669131 0
    outer loop
      vertex -25.8885 -18.8091 27.35
      vertex -21.4122 -23.7806 0
      vertex -21.4122 -23.7806 27.35
    endloop
  endfacet
  facet normal -0.587785 -0.809017 0
    outer loop
      vertex -21.4122 -23.7806 27.35
      vertex -21.4122 -23.7806 0
      vertex -16 -27.7128 0
    endloop
  endfacet
  facet normal -0.587785 -0.809017 0
    outer loop
      vertex -16 -27.7128 27.35
      vertex -21.4122 -23.7806 27.35
      vertex -16 -27.7128 0
    endloop
  endfacet
  facet normal -0.406737 -0.913545 0
    outer loop
      vertex -16 -27.7128 27.35
      vertex -16 -27.7128 0
      vertex -9.88854 -30.4338 0
    endloop
  endfacet
  facet normal -0.406737 -0.913545 0
    outer loop
      vertex -9.88854 -30.4338 27.35
      vertex -16 -27.7128 27.35
      vertex -9.88854 -30.4338 0
    endloop
  endfacet
  facet normal -0.207912 -0.978148 0
    outer loop
      vertex -9.88854 -30.4338 27.35
      vertex -9.88854 -30.4338 0
      vertex -3.34491 -31.8247 0
    endloop
  endfacet
  facet normal -0.207912 -0.978148 0
    outer loop
      vertex -3.34491 -31.8247 27.35
      vertex -9.88854 -30.4338 27.35
      vertex -3.34491 -31.8247 0
    endloop
  endfacet
  facet normal 0 -1 0
    outer loop
      vertex -3.34491 -31.8247 27.35
      vertex -3.34491 -31.8247 0
      vertex 3.34491 -31.8247 0
    endloop
  endfacet
  facet normal 0 -1 0
    outer loop
      vertex 3.34491 -31.8247 27.35
      vertex -3.34491 -31.8247 27.35
      vertex 3.34491 -31.8247 0
    endloop
  endfacet
  facet normal 0.207912 -0.978148 0
    outer loop
      vertex 3.34491 -31.8247 27.35
      vertex 3.34491 -31.8247 0
      vertex 9.88854 -30.4338 0
    endloop
  endfacet
  facet normal 0.207912 -0.978148 0
    outer loop
      vertex 9.88854 -30.4338 27.35
      vertex 3.34491 -31.8247 27.35
      vertex 9.88854 -30.4338 0
    endloop
  endfacet
  facet normal 0.406737 -0.913545 0
    outer loop
      vertex 9.88854 -30.4338 27.35
      vertex 9.88854 -30.4338 0
      vertex 16 -27.7128 0
    endloop
  endfacet
  facet normal 0.406737 -0.913545 0
    outer loop
      vertex 16 -27.7128 27.35
      vertex 9.88854 -30.4338 27.35
      vertex 16 -27.7128 0
    endloop
  endfacet
  facet normal 0.587785 -0.809017 0
    outer loop
      vertex 16 -27.7128 27.35
      vertex 16 -27.7128 0
      vertex 21.4122 -23.7806 0
    endloop
  endfacet
  facet normal 0.587785 -0.809017 0
    outer loop
      vertex 21.4122 -23.7806 27.35
      vertex 16 -27.7128 27.35
      vertex 21.4122 -23.7806 0
    endloop
  endfacet
  facet normal 0.743145 -0.669131 0
    outer loop
      vertex 21.4122 -23.7806 27.35
      vertex 21.4122 -23.7806 0
      vertex 25.8885 -18.8091 0
    endloop
  endfacet
  facet normal 0.743145 -0.669131 0
    outer loop
      vertex 25.8885 -18.8091 27.35
      vertex 21.4122 -23.7806 27.35
      vertex 25.8885 -18.8091 0
    endloop
  endfacet
  facet normal 0.866025 -0.5 0
    outer loop
      vertex 25.8885 -18.8091 27.35
      vertex 25.8885 -18.8091 0
      vertex 29.2335 -13.0156 0
    endloop
  endfacet
  facet normal 0.866025 -0.5 0
    outer loop
      vertex 29.2335 -13.0156 27.35
      vertex 25.8885 -18.8091 27.35
      vertex 29.2335 -13.0156 0
    endloop
  endfacet
  facet normal 0.951057 -0.309017 0
    outer loop
      vertex 29.2335 -13.0156 27.35
      vertex 29.2335 -13.0156 0
      vertex 31.3007 -6.65317 0
    endloop
  endfacet
  facet normal 0.951057 -0.309017 0
    outer loop
      vertex 31.3007 -6.65317 27.35
      vertex 29.2335 -13.0156 27.35
      vertex 31.3007 -6.65317 0
    endloop
  endfacet
  facet normal 0.994522 -0.104528 0
    outer loop
      vertex 31.3007 -6.65317 27.35
      vertex 31.3007 -6.65317 0
      vertex 32 0 0
    endloop
  endfacet
  facet normal 0.994522 -0.104528 0
    outer loop
      vertex 32 0 27.35
      vertex 31.3007 -6.65317 27.35
      vertex 32 0 0
    endloop
  endfacet
  facet normal 0.994522 0.104528 0
    outer loop
      vertex 32 0 0
      vertex 31.3007 6.65317 0
      vertex 31.3007 6.65317 27.35
    endloop
  endfacet
  facet normal 0.994522 0.104528 0
    outer loop
      vertex 32 0 27.35
      vertex 32 0 0
      vertex 31.3007 6.65317 27.35
    endloop
  endfacet
  facet normal 0.951057 0.309017 0
    outer loop
      vertex 31.3007 6.65317 0
      vertex 29.2335 13.0156 0
      vertex 29.2335 13.0156 27.35
    endloop
  endfacet
  facet normal 0.951057 0.309017 0
    outer loop
      vertex 31.3007 6.65317 27.35
      vertex 31.3007 6.65317 0
      vertex 29.2335 13.0156 27.35
    endloop
  endfacet
  facet normal 0.866025 0.5 0
    outer loop
      vertex 29.2335 13.0156 0
      vertex 25.8885 18.8091 0
      vertex 25.8885 18.8091 27.35
    endloop
  endfacet
  facet normal 0.866025 0.5 0
    outer loop
      vertex 29.2335 13.0156 27.35
      vertex 29.2335 13.0156 0
      vertex 25.8885 18.8091 27.35
    endloop
  endfacet
  facet normal 0.743145 0.669131 0
    outer loop
      vertex 25.8885 18.8091 0
      vertex 21.4122 23.7806 0
      vertex 21.4122 23.7806 27.35
    endloop
  endfacet
  facet normal 0.743145 0.669131 0
    outer loop
      vertex 25.8885 18.8091 27.35
      vertex 25.8885 18.8091 0
      vertex 21.4122 23.7806 27.35
    endloop
  endfacet
  facet normal 0.587785 0.809017 0
    outer loop
      vertex 16 27.7128 0
      vertex 16 27.7128 27.35
      vertex 21.4122 23.7806 0
    endloop
  endfacet
  facet normal 0.587785 0.809017 0
    outer loop
      vertex 21.4122 23.7806 0
      vertex 16 27.7128 27.35
      vertex 21.4122 23.7806 27.35
    endloop
  endfacet
  facet normal 0.406737 0.913545 0
    outer loop
      vertex 9.88854 30.4338 0
      vertex 9.88854 30.4338 27.35
      vertex 16 27.7128 0
    endloop
  endfacet
  facet normal 0.406737 0.913545 0
    outer loop
      vertex 16 27.7128 0
      vertex 9.88854 30.4338 27.35
      vertex 16 27.7128 27.35
    endloop
  endfacet
  facet normal 0.207912 0.978148 0
    outer loop
      vertex 3.34491 31.8247 0
      vertex 3.34491 31.8247 27.35
      vertex 9.88854 30.4338 0
    endloop
  endfacet
  facet normal 0.207912 0.978148 0
    outer loop
      vertex 9.88854 30.4338 0
      vertex 3.34491 31.8247 27.35
      vertex 9.88854 30.4338 27.35
    endloop
  endfacet
  facet normal 0 1 0
    outer loop
      vertex -3.34491 31.8247 0
      vertex -3.34491 31.8247 27.35
      vertex 3.34491 31.8247 0
    endloop
  endfacet
  facet normal 0 1 0
    outer loop
      vertex 3.34491 31.8247 0
      vertex -3.34491 31.8247 27.35
      vertex 3.34491 31.8247 27.35
    endloop
  endfacet
  facet normal -0.207912 0.978148 0
    outer loop
      vertex -9.88854 30.4338 0
      vertex -9.88854 30.4338 27.35
      vertex -3.34491 31.8247 0
    endloop
  endfacet
  facet normal -0.207912 0.978148 0
    outer loop
      vertex -3.34491 31.8247 0
      vertex -9.88854 30.4338 27.35
      vertex -3.34491 31.8247 27.35
    endloop
  endfacet
  facet normal -0.406737 0.913545 0
    outer loop
      vertex -16 27.7128 0
      vertex -16 27.7128 27.35
      vertex -9.88854 30.4338 0
    endloop
  endfacet
  facet normal -0.406737 0.913545 0
    outer loop
      vertex -9.88854 30.4338 0
      vertex -16 27.7128 27.35
      vertex -9.88854 30.4338 27.35
    endloop
  endfacet
  facet normal -0.587785 0.809017 0
    outer loop
      vertex -21.4122 23.7806 0
      vertex -21.4122 23.7806 27.35
      vertex -16 27.7128 0
    endloop
  endfacet
  facet normal -0.587785 0.809017 0
    outer loop
      vertex -16 27.7128 0
      vertex -21.4122 23.7806 27.35
      vertex -16 27.7128 27.35
    endloop
  endfacet
  facet normal -0.743145 0.669131 0
    outer loop
      vertex -25.8885 18.8091 0
      vertex -25.8885 18.8091 27.35
      vertex -21.4122 23.7806 0
    endloop
  endfacet
  facet normal -0.743145 0.669131 0
    outer loop
      vertex -21.4122 23.7806 0
      vertex -25.8885 18.8091 27.35
      vertex -21.4122 23.7806 27.35
    endloop
  endfacet
  facet normal -0.866025 0.5 0
    outer loop
      vertex -29.2335 13.0156 0
      vertex -29.2335 13.0156 27.35
      vertex -25.8885 18.8091 0
    endloop
  endfacet
  facet normal -0.866025 0.5 0
    outer loop
      vertex -25.8885 18.8091 0
      vertex -29.2335 13.0156 27.35
      vertex -25.8885 18.8091 27.35
    endloop
  endfacet
  facet normal -0.951057 0.309017 0
    outer loop
      vertex -31.3007 6.65317 0
      vertex -31.3007 6.65317 27.35
      vertex -29.2335 13.0156 0
    endloop
  endfacet
  facet normal -0.951057 0.309017 0
    outer loop
      vertex -29.2335 13.0156 0
      vertex -31.3007 6.65317 27.35
      vertex -29.2335 13.0156 27.35
    endloop
  endfacet
  facet normal 0.994522 -0.104528 0
    outer loop
      vertex -29.3444 6.23735 0
      vertex -29.3444 6.23735 26
      vertex -30 0 26
    endloop
  endfacet
  facet normal 0.994522 -0.104528 0
    outer loop
      vertex -30 0 0
      vertex -29.3444 6.23735 0
      vertex -30 0 26
    endloop
  endfacet
  facet normal 0.994522 0.104528 0
    outer loop
      vertex -30 0 26
      vertex -29.3444 -6.23735 26
      vertex -29.3444 -6.23735 0
    endloop
  endfacet
  facet normal 0.994522 0.104528 0
    outer loop
      vertex -30 0 0
      vertex -30 0 26
      vertex -29.3444 -6.23735 0
    endloop
  endfacet
  facet normal 0.951057 -0.309017 0
    outer loop
      vertex -27.4064 12.2021 0
      vertex -27.4064 12.2021 26
      vertex -29.3444 6.23735 26
    endloop
  endfacet
  facet normal 0.951057 -0.309017 0
    outer loop
      vertex -29.3444 6.23735 0
      vertex -27.4064 12.2021 0
      vertex -29.3444 6.23735 26
    endloop
  endfacet
  facet normal 0.866025 -0.5 0
    outer loop
      vertex -24.2705 17.6336 0
      vertex -24.2705 17.6336 26
      vertex -27.4064 12.2021 26
    endloop
  endfacet
  facet normal 0.866025 -0.5 0
    outer loop
      vertex -27.4064 12.2021 0
      vertex -24.2705 17.6336 0
      vertex -27.4064 12.2021 26
    endloop
  endfacet
  facet normal 0.743145 -0.669131 0
    outer loop
      vertex -20.0739 22.2943 0
      vertex -20.0739 22.2943 26
      vertex -24.2705 17.6336 26
    endloop
  endfacet
  facet normal 0.743145 -0.669131 0
    outer loop
      vertex -24.2705 17.6336 0
      vertex -20.0739 22.2943 0
      vertex -24.2705 17.6336 26
    endloop
  endfacet
  facet normal 0.587785 -0.809017 0
    outer loop
      vertex -15 25.9808 0
      vertex -15 25.9808 26
      vertex -20.0739 22.2943 26
    endloop
  endfacet
  facet normal 0.587785 -0.809017 0
    outer loop
      vertex -20.0739 22.2943 0
      vertex -15 25.9808 0
      vertex -20.0739 22.2943 26
    endloop
  endfacet
  facet normal 0.406737 -0.913545 0
    outer loop
      vertex -9.27051 28.5317 0
      vertex -9.27051 28.5317 26
      vertex -15 25.9808 26
    endloop
  endfacet
  facet normal 0.406737 -0.913545 0
    outer loop
      vertex -15 25.9808 0
      vertex -9.27051 28.5317 0
      vertex -15 25.9808 26
    endloop
  endfacet
  facet normal 0.207912 -0.978148 0
    outer loop
      vertex -3.13585 29.8357 0
      vertex -3.13585 29.8357 26
      vertex -9.27051 28.5317 26
    endloop
  endfacet
  facet normal 0.207912 -0.978148 0
    outer loop
      vertex -9.27051 28.5317 0
      vertex -3.13585 29.8357 0
      vertex -9.27051 28.5317 26
    endloop
  endfacet
  facet normal 0 -1 0
    outer loop
      vertex 3.13585 29.8357 26
      vertex -1.5 29.8357 6
      vertex 1.5 29.8357 6
    endloop
  endfacet
  facet normal 0 -1 0
    outer loop
      vertex -1.5 29.8357 0
      vertex -1.5 29.8357 6
      vertex -3.13585 29.8357 26
    endloop
  endfacet
  facet normal 0 -1 0
    outer loop
      vertex 1.5 29.8357 0
      vertex 3.13585 29.8357 0
      vertex 1.5 29.8357 6
    endloop
  endfacet
  facet normal 0 -1 0
    outer loop
      vertex 3.13585 29.8357 0
      vertex 3.13585 29.8357 26
      vertex 1.5 29.8357 6
    endloop
  endfacet
  facet normal 0 -1 0
    outer loop
      vertex 3.13585 29.8357 26
      vertex -3.13585 29.8357 26
      vertex -1.5 29.8357 6
    endloop
  endfacet
  facet normal 0 -1 0
    outer loop
      vertex -3.13585 29.8357 26
      vertex -3.13585 29.8357 0
      vertex -1.5 29.8357 0
    endloop
  endfacet
  facet normal -1 0 0
    outer loop
      vertex -1.5 27.4 0
      vertex -1.5 27.4 6
      vertex -1.5 29.8357 0
    endloop
  endfacet
  facet normal -1 0 0
    outer loop
      vertex -1.5 29.8357 0
      vertex -1.5 27.4 6
      vertex -1.5 29.8357 6
    endloop
  endfacet
  facet normal 0 -1 0
    outer loop
      vertex -1.5 27.4 6
      vertex -1.5 27.4 0
      vertex 1.5 27.4 0
    endloop
  endfacet
  facet normal 0 -1 0
    outer loop
      vertex 1.5 27.4 6
      vertex -1.5 27.4 6
      vertex 1.5 27.4 0
    endloop
  endfacet
  facet normal 1 0 0
    outer loop
      vertex 1.5 27.4 6
      vertex 1.5 27.4 0
      vertex 1.5 29.8357 0
    endloop
  endfacet
  facet normal 1 0 0
    outer loop
      vertex 1.5 29.8357 6
      vertex 1.5 27.4 6
      vertex 1.5 29.8357 0
    endloop
  endfacet
  facet normal -0.207912 -0.978148 0
    outer loop
      vertex 9.27051 28.5317 0
      vertex 9.27051 28.5317 26
      vertex 3.13585 29.8357 26
    endloop
  endfacet
  facet normal -0.207912 -0.978148 0
    outer loop
      vertex 3.13585 29.8357 0
      vertex 9.27051 28.5317 0
      vertex 3.13585 29.8357 26
    endloop
  endfacet
  facet normal -0.406737 -0.913545 0
    outer loop
      vertex 15 25.9808 0
      vertex 15 25.9808 26
      vertex 9.27051 28.5317 26
    endloop
  endfacet
  facet normal -0.406737 -0.913545 0
    outer loop
      vertex 9.27051 28.5317 0
      vertex 15 25.9808 0
      vertex 9.27051 28.5317 26
    endloop
  endfacet
  facet normal -0.587785 -0.809017 0
    outer loop
      vertex 20.0739 22.2943 0
      vertex 20.0739 22.2943 26
      vertex 15 25.9808 26
    endloop
  endfacet
  facet normal -0.587785 -0.809017 0
    outer loop
      vertex 15 25.9808 0
      vertex 20.0739 22.2943 0
      vertex 15 25.9808 26
    endloop
  endfacet
  facet normal -0.743145 -0.669131 0
    outer loop
      vertex 24.2705 17.6336 26
      vertex 20.0739 22.2943 26
      vertex 24.2705 17.6336 0
    endloop
  endfacet
  facet normal -0.743145 -0.669131 0
    outer loop
      vertex 24.2705 17.6336 0
      vertex 20.0739 22.2943 26
      vertex 20.0739 22.2943 0
    endloop
  endfacet
  facet normal -0.866025 -0.5 0
    outer loop
      vertex 27.4064 12.2021 26
      vertex 24.2705 17.6336 26
      vertex 27.4064 12.2021 0
    endloop
  endfacet
  facet normal -0.866025 -0.5 0
    outer loop
      vertex 27.4064 12.2021 0
      vertex 24.2705 17.6336 26
      vertex 24.2705 17.6336 0
    endloop
  endfacet
  facet normal -0.951057 -0.309017 0
    outer loop
      vertex 29.3444 6.23735 26
      vertex 27.4064 12.2021 26
      vertex 29.3444 6.23735 0
    endloop
  endfacet
  facet normal -0.951057 -0.309017 0
    outer loop
      vertex 29.3444 6.23735 0
      vertex 27.4064 12.2021 26
      vertex 27.4064 12.2021 0
    endloop
  endfacet
  facet normal -0.994522 -0.104528 0
    outer loop
      vertex 30 0 26
      vertex 29.3444 6.23735 26
      vertex 30 0 0
    endloop
  endfacet
  facet normal -0.994522 -0.104528 0
    outer loop
      vertex 30 0 0
      vertex 29.3444 6.23735 26
      vertex 29.3444 6.23735 0
    endloop
  endfacet
  facet normal -0.994522 0.104528 0
    outer loop
      vertex 30 0 26
      vertex 30 0 0
      vertex 29.3444 -6.23735 26
    endloop
  endfacet
  facet normal -0.994522 0.104528 0
    outer loop
      vertex 29.3444 -6.23735 26
      vertex 30 0 0
      vertex 29.3444 -6.23735 0
    endloop
  endfacet
  facet normal -0.951057 0.309017 0
    outer loop
      vertex 29.3444 -6.23735 26
      vertex 29.3444 -6.23735 0
      vertex 27.4064 -12.2021 26
    endloop
  endfacet
  facet normal -0.951057 0.309017 0
    outer loop
      vertex 27.4064 -12.2021 26
      vertex 29.3444 -6.23735 0
      vertex 27.4064 -12.2021 0
    endloop
  endfacet
  facet normal -0.866025 0.5 0
    outer loop
      vertex 27.4064 -12.2021 26
      vertex 27.4064 -12.2021 0
      vertex 24.2705 -17.6336 26
    endloop
  endfacet
  facet normal -0.866025 0.5 0
    outer loop
      vertex 24.2705 -17.6336 26
      vertex 27.4064 -12.2021 0
      vertex 24.2705 -17.6336 0
    endloop
  endfacet
  facet normal -0.743145 0.669131 0
    outer loop
      vertex 24.2705 -17.6336 26
      vertex 24.2705 -17.6336 0
      vertex 20.0739 -22.2943 26
    endloop
  endfacet
  facet normal -0.743145 0.669131 0
    outer loop
      vertex 20.0739 -22.2943 26
      vertex 24.2705 -17.6336 0
      vertex 20.0739 -22.2943 0
    endloop
  endfacet
  facet normal -0.587785 0.809017 0
    outer loop
      vertex 20.0739 -22.2943 26
      vertex 20.0739 -22.2943 0
      vertex 15 -25.9808 26
    endloop
  endfacet
  facet normal -0.587785 0.809017 0
    outer loop
      vertex 15 -25.9808 26
      vertex 20.0739 -22.2943 0
      vertex 15 -25.9808 0
    endloop
  endfacet
  facet normal -0.406737 0.913545 0
    outer loop
      vertex 15 -25.9808 26
      vertex 15 -25.9808 0
      vertex 9.27051 -28.5317 26
    endloop
  endfacet
  facet normal -0.406737 0.913545 0
    outer loop
      vertex 9.27051 -28.5317 26
      vertex 15 -25.9808 0
      vertex 9.27051 -28.5317 0
    endloop
  endfacet
  facet normal -0.207912 0.978148 0
    outer loop
      vertex 9.27051 -28.5317 26
      vertex 9.27051 -28.5317 0
      vertex 3.13585 -29.8357 26
    endloop
  endfacet
  facet normal -0.207912 0.978148 0
    outer loop
      vertex 3.13585 -29.8357 26
      vertex 9.27051 -28.5317 0
      vertex 3.13585 -29.8357 0
    endloop
  endfacet
  facet normal 0 1 0
    outer loop
      vertex 3.13585 -29.8357 26
      vertex 3.13585 -29.8357 0
      vertex -3.13585 -29.8357 26
    endloop
  endfacet
  facet normal 0 1 0
    outer loop
      vertex -3.13585 -29.8357 26
      vertex 3.13585 -29.8357 0
      vertex -3.13585 -29.8357 0
    endloop
  endfacet
  facet normal 0.207912 0.978148 0
    outer loop
      vertex -3.13585 -29.8357 26
      vertex -3.13585 -29.8357 0
      vertex -9.27051 -28.5317 26
    endloop
  endfacet
  facet normal 0.207912 0.978148 0
    outer loop
      vertex -9.27051 -28.5317 26
      vertex -3.13585 -29.8357 0
      vertex -9.27051 -28.5317 0
    endloop
  endfacet
  facet normal 0.406737 0.913545 0
    outer loop
      vertex -9.27051 -28.5317 26
      vertex -9.27051 -28.5317 0
      vertex -15 -25.9808 26
    endloop
  endfacet
  facet normal 0.406737 0.913545 0
    outer loop
      vertex -15 -25.9808 26
      vertex -9.27051 -28.5317 0
      vertex -15 -25.9808 0
    endloop
  endfacet
  facet normal 0.587785 0.809017 0
    outer loop
      vertex -15 -25.9808 26
      vertex -15 -25.9808 0
      vertex -20.0739 -22.2943 26
    endloop
  endfacet
  facet normal 0.587785 0.809017 0
    outer loop
      vertex -20.0739 -22.2943 26
      vertex -15 -25.9808 0
      vertex -20.0739 -22.2943 0
    endloop
  endfacet
  facet normal 0.743145 0.669131 0
    outer loop
      vertex -24.2705 -17.6336 26
      vertex -20.0739 -22.2943 26
      vertex -20.0739 -22.2943 0
    endloop
  endfacet
  facet normal 0.743145 0.669131 0
    outer loop
      vertex -24.2705 -17.6336 0
      vertex -24.2705 -17.6336 26
      vertex -20.0739 -22.2943 0
    endloop
  endfacet
  facet normal 0.866025 0.5 0
    outer loop
      vertex -27.4064 -12.2021 26
      vertex -24.2705 -17.6336 26
      vertex -24.2705 -17.6336 0
    endloop
  endfacet
  facet normal 0.866025 0.5 0
    outer loop
      vertex -27.4064 -12.2021 0
      vertex -27.4064 -12.2021 26
      vertex -24.2705 -17.6336 0
    endloop
  endfacet
  facet normal 0.951057 0.309017 0
    outer loop
      vertex -29.3444 -6.23735 26
      vertex -27.4064 -12.2021 26
      vertex -27.4064 -12.2021 0
    endloop
  endfacet
  facet normal 0.951057 0.309017 0
    outer loop
      vertex -29.3444 -6.23735 0
      vertex -29.3444 -6.23735 26
      vertex -27.4064 -12.2021 0
    endloop
  endfacet
  facet normal 0 0 1
    outer loop
      vertex -31.3007 6.65317 27.35
      vertex -32 0 27.35
      vertex -31.3007 -6.65317 27.35
    endloop
  endfacet
  facet normal 0 0 1
    outer loop
      vertex -29.3444 -6.23735 27.35
      vertex -31.3007 6.65317 27.35
      vertex -29.2335 -13.0156 27.35
    endloop
  endfacet
  facet normal 0 0 1
    outer loop
      vertex -29.2335 -13.0156 27.35
      vertex -31.3007 6.65317 27.35
      vertex -31.3007 -6.65317 27.35
    endloop
  endfacet
  facet normal 0 0 1
    outer loop
      vertex -29.3444 6.23735 27.35
      vertex -27.4064 12.2021 27.35
      vertex -31.3007 6.65317 27.35
    endloop
  endfacet
  facet normal 0 0 1
    outer loop
      vertex -24.2705 -17.6336 27.35
      vertex -27.4064 -12.2021 27.35
      vertex -25.8885 -18.8091 27.35
    endloop
  endfacet
  facet normal 0 0 1
    outer loop
      vertex 27.4064 12.2021 27.35
      vertex 29.3444 6.23735 27.35
      vertex 31.3007 6.65317 27.35
    endloop
  endfacet
  facet normal 0 0 1
    outer loop
      vertex 24.2705 17.6336 27.35
      vertex 27.4064 12.2021 27.35
      vertex 29.2335 13.0156 27.35
    endloop
  endfacet
  facet normal 0 0 1
    outer loop
      vertex 20.0739 22.2943 27.35
      vertex 24.2705 17.6336 27.35
      vertex 25.8885 18.8091 27.35
    endloop
  endfacet
  facet normal 0 0 1
    outer loop
      vertex 15 25.9808 27.35
      vertex 20.0739 22.2943 27.35
      vertex 21.4122 23.7806 27.35
    endloop
  endfacet
  facet normal 0 0 1
    outer loop
      vertex 9.27051 28.5317 27.35
      vertex 15 25.9808 27.35
      vertex 16 27.7128 27.35
    endloop
  endfacet
  facet normal 0 0 1
    outer loop
      vertex 3.13585 29.8357 27.35
      vertex 9.27051 28.5317 27.35
      vertex 9.88854 30.4338 27.35
    endloop
  endfacet
  facet normal 0 0 1
    outer loop
      vertex -3.13585 29.8357 27.35
      vertex 3.13585 29.8357 27.35
      vertex 3.34491 31.8247 27.35
    endloop
  endfacet
  facet normal 0 0 1
    outer loop
      vertex 29.3444 6.23735 27.35
      vertex 30 0 27.35
      vertex 32 0 27.35
    endloop
  endfacet
  facet normal 0 0 1
    outer loop
      vertex -25.8885 18.8091 27.35
      vertex -31.3007 6.65317 27.35
      vertex -21.4122 23.7806 27.35
    endloop
  endfacet
  facet normal 0 0 1
    outer loop
      vertex -29.2335 13.0156 27.35
      vertex -31.3007 6.65317 27.35
      vertex -25.8885 18.8091 27.35
    endloop
  endfacet
  facet normal 0 0 1
    outer loop
      vertex -25.8885 -18.8091 27.35
      vertex -29.3444 -6.23735 27.35
      vertex -29.2335 -13.0156 27.35
    endloop
  endfacet
  facet normal 0 0 1
    outer loop
      vertex -30 0 27.35
      vertex -31.3007 6.65317 27.35
      vertex -29.3444 -6.23735 27.35
    endloop
  endfacet
  facet normal 0 0 1
    outer loop
      vertex 27.4064 -12.2021 27.35
      vertex 24.2705 -17.6336 27.35
      vertex 29.2335 -13.0156 27.35
    endloop
  endfacet
  facet normal 0 0 1
    outer loop
      vertex -15 25.9808 27.35
      vertex -9.27051 28.5317 27.35
      vertex -9.88854 30.4338 27.35
    endloop
  endfacet
  facet normal 0 0 1
    outer loop
      vertex -21.4122 23.7806 27.35
      vertex -31.3007 6.65317 27.35
      vertex -27.4064 12.2021 27.35
    endloop
  endfacet
  facet normal 0 0 1
    outer loop
      vertex -21.4122 23.7806 27.35
      vertex -24.2705 17.6336 27.35
      vertex -16 27.7128 27.35
    endloop
  endfacet
  facet normal 0 0 1
    outer loop
      vertex -21.4122 23.7806 27.35
      vertex -27.4064 12.2021 27.35
      vertex -24.2705 17.6336 27.35
    endloop
  endfacet
  facet normal 0 0 1
    outer loop
      vertex -24.2705 17.6336 27.35
      vertex -20.0739 22.2943 27.35
      vertex -16 27.7128 27.35
    endloop
  endfacet
  facet normal 0 0 1
    outer loop
      vertex -16 27.7128 27.35
      vertex -15 25.9808 27.35
      vertex -9.88854 30.4338 27.35
    endloop
  endfacet
  facet normal 0 0 1
    outer loop
      vertex -20.0739 22.2943 27.35
      vertex -15 25.9808 27.35
      vertex -16 27.7128 27.35
    endloop
  endfacet
  facet normal 0 0 1
    outer loop
      vertex -9.88854 30.4338 27.35
      vertex -9.27051 28.5317 27.35
      vertex -3.34491 31.8247 27.35
    endloop
  endfacet
  facet normal 0 0 1
    outer loop
      vertex -3.34491 31.8247 27.35
      vertex -3.13585 29.8357 27.35
      vertex 3.34491 31.8247 27.35
    endloop
  endfacet
  facet normal 0 0 1
    outer loop
      vertex 3.34491 31.8247 27.35
      vertex 3.13585 29.8357 27.35
      vertex 9.88854 30.4338 27.35
    endloop
  endfacet
  facet normal 0 0 1
    outer loop
      vertex 9.88854 30.4338 27.35
      vertex 9.27051 28.5317 27.35
      vertex 16 27.7128 27.35
    endloop
  endfacet
  facet normal 0 0 1
    outer loop
      vertex 16 27.7128 27.35
      vertex 15 25.9808 27.35
      vertex 21.4122 23.7806 27.35
    endloop
  endfacet
  facet normal 0 0 1
    outer loop
      vertex 21.4122 23.7806 27.35
      vertex 20.0739 22.2943 27.35
      vertex 25.8885 18.8091 27.35
    endloop
  endfacet
  facet normal 0 0 1
    outer loop
      vertex 25.8885 18.8091 27.35
      vertex 24.2705 17.6336 27.35
      vertex 29.2335 13.0156 27.35
    endloop
  endfacet
  facet normal 0 0 1
    outer loop
      vertex 29.2335 13.0156 27.35
      vertex 27.4064 12.2021 27.35
      vertex 31.3007 6.65317 27.35
    endloop
  endfacet
  facet normal 0 0 1
    outer loop
      vertex 31.3007 6.65317 27.35
      vertex 29.3444 6.23735 27.35
      vertex 32 0 27.35
    endloop
  endfacet
  facet normal 0 0 1
    outer loop
      vertex 32 0 27.35
      vertex 30 0 27.35
      vertex 31.3007 -6.65317 27.35
    endloop
  endfacet
  facet normal 0 0 1
    outer loop
      vertex 31.3007 -6.65317 27.35
      vertex 29.3444 -6.23735 27.35
      vertex 29.2335 -13.0156 27.35
    endloop
  endfacet
  facet normal 0 0 1
    outer loop
      vertex -9.27051 28.5317 27.35
      vertex -3.13585 29.8357 27.35
      vertex -3.34491 31.8247 27.35
    endloop
  endfacet
  facet normal 0 0 1
    outer loop
      vertex 29.3444 -6.23735 27.35
      vertex 27.4064 -12.2021 27.35
      vertex 29.2335 -13.0156 27.35
    endloop
  endfacet
  facet normal 0 0 1
    outer loop
      vertex 29.2335 -13.0156 27.35
      vertex 24.2705 -17.6336 27.35
      vertex 25.8885 -18.8091 27.35
    endloop
  endfacet
  facet normal 0 0 1
    outer loop
      vertex 25.8885 -18.8091 27.35
      vertex 20.0739 -22.2943 27.35
      vertex 21.4122 -23.7806 27.35
    endloop
  endfacet
  facet normal 0 0 1
    outer loop
      vertex 21.4122 -23.7806 27.35
      vertex 15 -25.9808 27.35
      vertex 16 -27.7128 27.35
    endloop
  endfacet
  facet normal 0 0 1
    outer loop
      vertex 16 -27.7128 27.35
      vertex 9.27051 -28.5317 27.35
      vertex 9.88854 -30.4338 27.35
    endloop
  endfacet
  facet normal 0 0 1
    outer loop
      vertex 9.88854 -30.4338 27.35
      vertex 3.13585 -29.8357 27.35
      vertex 3.34491 -31.8247 27.35
    endloop
  endfacet
  facet normal 0 0 1
    outer loop
      vertex 3.34491 -31.8247 27.35
      vertex -3.13585 -29.8357 27.35
      vertex -3.34491 -31.8247 27.35
    endloop
  endfacet
  facet normal 0 0 1
    outer loop
      vertex -3.34491 -31.8247 27.35
      vertex -9.27051 -28.5317 27.35
      vertex -9.88854 -30.4338 27.35
    endloop
  endfacet
  facet normal 0 0 1
    outer loop
      vertex -9.88854 -30.4338 27.35
      vertex -15 -25.9808 27.35
      vertex -16 -27.7128 27.35
    endloop
  endfacet
  facet normal 0 0 1
    outer loop
      vertex -16 -27.7128 27.35
      vertex -20.0739 -22.2943 27.35
      vertex -21.4122 -23.7806 27.35
    endloop
  endfacet
  facet normal 0 0 1
    outer loop
      vertex 30 0 27.35
      vertex 29.3444 -6.23735 27.35
      vertex 31.3007 -6.65317 27.35
    endloop
  endfacet
  facet normal 0 0 1
    outer loop
      vertex -21.4122 -23.7806 27.35
      vertex -24.2705 -17.6336 27.35
      vertex -25.8885 -18.8091 27.35
    endloop
  endfacet
  facet normal 0 0 1
    outer loop
      vertex -25.8885 -18.8091 27.35
      vertex -27.4064 -12.2021 27.35
      vertex -29.3444 -6.23735 27.35
    endloop
  endfacet
  facet normal 0 0 1
    outer loop
      vertex 24.2705 -17.6336 27.35
      vertex 20.0739 -22.2943 27.35
      vertex 25.8885 -18.8091 27.35
    endloop
  endfacet
  facet normal 0 0 1
    outer loop
      vertex 20.0739 -22.2943 27.35
      vertex 15 -25.9808 27.35
      vertex 21.4122 -23.7806 27.35
    endloop
  endfacet
  facet normal 0 0 1
    outer loop
      vertex 15 -25.9808 27.35
      vertex 9.27051 -28.5317 27.35
      vertex 16 -27.7128 27.35
    endloop
  endfacet
  facet normal 0 0 1
    outer loop
      vertex 9.27051 -28.5317 27.35
      vertex 3.13585 -29.8357 27.35
      vertex 9.88854 -30.4338 27.35
    endloop
  endfacet
  facet normal 0 0 1
    outer loop
      vertex 3.13585 -29.8357 27.35
      vertex -3.13585 -29.8357 27.35
      vertex 3.34491 -31.8247 27.35
    endloop
  endfacet
  facet normal 0 0 1
    outer loop
      vertex -3.13585 -29.8357 27.35
      vertex -9.27051 -28.5317 27.35
      vertex -3.34491 -31.8247 27.35
    endloop
  endfacet
  facet normal 0 0 1
    outer loop
      vertex -9.27051 -28.5317 27.35
      vertex -15 -25.9808 27.35
      vertex -9.88854 -30.4338 27.35
    endloop
  endfacet
  facet normal 0 0 1
    outer loop
      vertex -15 -25.9808 27.35
      vertex -20.0739 -22.2943 27.35
      vertex -16 -27.7128 27.35
    endloop
  endfacet
  facet normal 0 0 1
    outer loop
      vertex -20.0739 -22.2943 27.35
      vertex -24.2705 -17.6336 27.35
      vertex -21.4122 -23.7806 27.35
    endloop
  endfacet
  facet normal 0 0 1
    outer loop
      vertex -30 0 27.35
      vertex -29.3444 6.23735 27.35
      vertex -31.3007 6.65317 27.35
    endloop
  endfacet
  facet normal 0 0 -1
    outer loop
      vertex -27.4064 12.2021 26
      vertex -24.2705 17.6336 26
      vertex -29.3444 6.23735 26
    endloop
  endfacet
  facet normal 0 0 -1
    outer loop
      vertex -29.3444 6.23735 26
      vertex -24.2705 17.6336 26
      vertex -20.0739 22.2943 26
    endloop
  endfacet
  facet normal 0 0 -1
    outer loop
      vertex -22.6525 16.458 26
      vertex -20.0739 22.2943 26
      vertex -15 25.9808 26
    endloop
  endfacet
  facet normal 0 0 -1
    outer loop
      vertex -14 24.2487 26
      vertex -15 25.9808 26
      vertex -9.27051 28.5317 26
    endloop
  endfacet
  facet normal 0 0 -1
    outer loop
      vertex -8.65248 26.6296 26
      vertex -9.27051 28.5317 26
      vertex -3.13585 29.8357 26
    endloop
  endfacet
  facet normal 0 0 -1
    outer loop
      vertex -2.9268 27.8466 26
      vertex -3.13585 29.8357 26
      vertex 3.13585 29.8357 26
    endloop
  endfacet
  facet normal 0 0 -1
    outer loop
      vertex 2.9268 27.8466 26
      vertex 3.13585 29.8357 26
      vertex 9.27051 28.5317 26
    endloop
  endfacet
  facet normal 0 0 -1
    outer loop
      vertex 8.65248 26.6296 26
      vertex 9.27051 28.5317 26
      vertex 15 25.9808 26
    endloop
  endfacet
  facet normal 0 0 -1
    outer loop
      vertex 14 24.2487 26
      vertex 15 25.9808 26
      vertex 20.0739 22.2943 26
    endloop
  endfacet
  facet normal 0 0 -1
    outer loop
      vertex 18.7357 20.8081 26
      vertex 20.0739 22.2943 26
      vertex 24.2705 17.6336 26
    endloop
  endfacet
  facet normal 0 0 -1
    outer loop
      vertex 22.6525 16.458 26
      vertex 24.2705 17.6336 26
      vertex 27.4064 12.2021 26
    endloop
  endfacet
  facet normal 0 0 -1
    outer loop
      vertex 25.5793 11.3886 26
      vertex 27.4064 12.2021 26
      vertex 29.3444 6.23735 26
    endloop
  endfacet
  facet normal 0 0 -1
    outer loop
      vertex 27.3881 5.82153 26
      vertex 29.3444 6.23735 26
      vertex 30 0 26
    endloop
  endfacet
  facet normal 0 0 -1
    outer loop
      vertex 27.3881 -5.82153 26
      vertex 30 0 26
      vertex 29.3444 -6.23735 26
    endloop
  endfacet
  facet normal 0 0 -1
    outer loop
      vertex 25.5793 -11.3886 26
      vertex 29.3444 -6.23735 26
      vertex 27.4064 -12.2021 26
    endloop
  endfacet
  facet normal 0 0 -1
    outer loop
      vertex 22.6525 -16.458 26
      vertex 27.4064 -12.2021 26
      vertex 24.2705 -17.6336 26
    endloop
  endfacet
  facet normal 0 0 -1
    outer loop
      vertex 18.7357 -20.8081 26
      vertex 24.2705 -17.6336 26
      vertex 20.0739 -22.2943 26
    endloop
  endfacet
  facet normal 0 0 -1
    outer loop
      vertex 14 -24.2487 26
      vertex 20.0739 -22.2943 26
      vertex 15 -25.9808 26
    endloop
  endfacet
  facet normal 0 0 -1
    outer loop
      vertex 8.65248 -26.6296 26
      vertex 15 -25.9808 26
      vertex 9.27051 -28.5317 26
    endloop
  endfacet
  facet normal 0 0 -1
    outer loop
      vertex 2.9268 -27.8466 26
      vertex 9.27051 -28.5317 26
      vertex 3.13585 -29.8357 26
    endloop
  endfacet
  facet normal 0 0 -1
    outer loop
      vertex -2.9268 -27.8466 26
      vertex 3.13585 -29.8357 26
      vertex -3.13585 -29.8357 26
    endloop
  endfacet
  facet normal 0 0 -1
    outer loop
      vertex -8.65248 -26.6296 26
      vertex -3.13585 -29.8357 26
      vertex -9.27051 -28.5317 26
    endloop
  endfacet
  facet normal 0 0 -1
    outer loop
      vertex -14 -24.2487 26
      vertex -9.27051 -28.5317 26
      vertex -15 -25.9808 26
    endloop
  endfacet
  facet normal 0 0 -1
    outer loop
      vertex -18.7357 -20.8081 26
      vertex -15 -25.9808 26
      vertex -20.0739 -22.2943 26
    endloop
  endfacet
  facet normal 0 0 -1
    outer loop
      vertex -25.5793 -11.3886 26
      vertex -20.0739 -22.2943 26
      vertex -24.2705 -17.6336 26
    endloop
  endfacet
  facet normal 0 0 -1
    outer loop
      vertex -27.3881 -5.82153 26
      vertex -24.2705 -17.6336 26
      vertex -27.4064 -12.2021 26
    endloop
  endfacet
  facet normal 0 0 -1
    outer loop
      vertex -29.3444 6.23735 26
      vertex -27.4064 -12.2021 26
      vertex -29.3444 -6.23735 26
    endloop
  endfacet
  facet normal 0 0 -1
    outer loop
      vertex -29.3444 6.23735 26
      vertex -29.3444 -6.23735 26
      vertex -30 0 26
    endloop
  endfacet
  facet normal 0 0 -1
    outer loop
      vertex -25.5793 -11.3886 26
      vertex -24.2705 -17.6336 26
      vertex -27.3881 -5.82153 26
    endloop
  endfacet
  facet normal 0 0 -1
    outer loop
      vertex -29.3444 6.23735 26
      vertex -27.3881 -5.82153 26
      vertex -27.4064 -12.2021 26
    endloop
  endfacet
  facet normal 0 0 -1
    outer loop
      vertex -22.6525 -16.458 26
      vertex -20.0739 -22.2943 26
      vertex -25.5793 -11.3886 26
    endloop
  endfacet
  facet normal 0 0 -1
    outer loop
      vertex -14 -24.2487 26
      vertex -15 -25.9808 26
      vertex -18.7357 -20.8081 26
    endloop
  endfacet
  facet normal 0 0 -1
    outer loop
      vertex -8.65248 -26.6296 26
      vertex -9.27051 -28.5317 26
      vertex -14 -24.2487 26
    endloop
  endfacet
  facet normal 0 0 -1
    outer loop
      vertex -2.9268 -27.8466 26
      vertex -3.13585 -29.8357 26
      vertex -8.65248 -26.6296 26
    endloop
  endfacet
  facet normal 0 0 -1
    outer loop
      vertex 2.9268 -27.8466 26
      vertex 3.13585 -29.8357 26
      vertex -2.9268 -27.8466 26
    endloop
  endfacet
  facet normal 0 0 -1
    outer loop
      vertex 8.65248 -26.6296 26
      vertex 9.27051 -28.5317 26
      vertex 2.9268 -27.8466 26
    endloop
  endfacet
  facet normal 0 0 -1
    outer loop
      vertex 14 -24.2487 26
      vertex 15 -25.9808 26
      vertex 8.65248 -26.6296 26
    endloop
  endfacet
  facet normal 0 0 -1
    outer loop
      vertex 18.7357 -20.8081 26
      vertex 20.0739 -22.2943 26
      vertex 14 -24.2487 26
    endloop
  endfacet
  facet normal 0 0 -1
    outer loop
      vertex 22.6525 -16.458 26
      vertex 24.2705 -17.6336 26
      vertex 18.7357 -20.8081 26
    endloop
  endfacet
  facet normal 0 0 -1
    outer loop
      vertex -28 0 26
      vertex -29.3444 6.23735 26
      vertex -27.3881 5.82153 26
    endloop
  endfacet
  facet normal 0 0 -1
    outer loop
      vertex 25.5793 -11.3886 26
      vertex 27.4064 -12.2021 26
      vertex 22.6525 -16.458 26
    endloop
  endfacet
  facet normal 0 0 -1
    outer loop
      vertex 27.3881 -5.82153 26
      vertex 29.3444 -6.23735 26
      vertex 25.5793 -11.3886 26
    endloop
  endfacet
  facet normal 0 0 -1
    outer loop
      vertex 28 0 26
      vertex 30 0 26
      vertex 27.3881 -5.82153 26
    endloop
  endfacet
  facet normal 0 0 -1
    outer loop
      vertex 27.3881 5.82153 26
      vertex 30 0 26
      vertex 28 0 26
    endloop
  endfacet
  facet normal 0 0 -1
    outer loop
      vertex 25.5793 11.3886 26
      vertex 29.3444 6.23735 26
      vertex 27.3881 5.82153 26
    endloop
  endfacet
  facet normal 0 0 -1
    outer loop
      vertex 22.6525 16.458 26
      vertex 27.4064 12.2021 26
      vertex 25.5793 11.3886 26
    endloop
  endfacet
  facet normal 0 0 -1
    outer loop
      vertex 18.7357 20.8081 26
      vertex 24.2705 17.6336 26
      vertex 22.6525 16.458 26
    endloop
  endfacet
  facet normal 0 0 -1
    outer loop
      vertex 14 24.2487 26
      vertex 20.0739 22.2943 26
      vertex 18.7357 20.8081 26
    endloop
  endfacet
  facet normal 0 0 -1
    outer loop
      vertex 8.65248 26.6296 26
      vertex 15 25.9808 26
      vertex 14 24.2487 26
    endloop
  endfacet
  facet normal 0 0 -1
    outer loop
      vertex 2.9268 27.8466 26
      vertex 9.27051 28.5317 26
      vertex 8.65248 26.6296 26
    endloop
  endfacet
  facet normal 0 0 -1
    outer loop
      vertex -2.9268 27.8466 26
      vertex 3.13585 29.8357 26
      vertex 2.9268 27.8466 26
    endloop
  endfacet
  facet normal 0 0 -1
    outer loop
      vertex -8.65248 26.6296 26
      vertex -3.13585 29.8357 26
      vertex -2.9268 27.8466 26
    endloop
  endfacet
  facet normal 0 0 -1
    outer loop
      vertex -14 24.2487 26
      vertex -9.27051 28.5317 26
      vertex -8.65248 26.6296 26
    endloop
  endfacet
  facet normal 0 0 -1
    outer loop
      vertex -18.7357 20.8081 26
      vertex -15 25.9808 26
      vertex -14 24.2487 26
    endloop
  endfacet
  facet normal 0 0 -1
    outer loop
      vertex -22.6525 16.458 26
      vertex -15 25.9808 26
      vertex -18.7357 20.8081 26
    endloop
  endfacet
  facet normal 0 0 -1
    outer loop
      vertex -29.3444 6.23735 26
      vertex -20.0739 22.2943 26
      vertex -22.6525 16.458 26
    endloop
  endfacet
  facet normal 0 0 -1
    outer loop
      vertex -25.5793 11.3886 26
      vertex -29.3444 6.23735 26
      vertex -22.6525 16.458 26
    endloop
  endfacet
  facet normal 0 0 -1
    outer loop
      vertex -27.3881 5.82153 26
      vertex -29.3444 6.23735 26
      vertex -25.5793 11.3886 26
    endloop
  endfacet
  facet normal 0 0 -1
    outer loop
      vertex -27.3881 -5.82153 26
      vertex -29.3444 6.23735 26
      vertex -28 0 26
    endloop
  endfacet
  facet normal 0 0 -1
    outer loop
      vertex -18.7357 -20.8081 26
      vertex -20.0739 -22.2943 26
      vertex -22.6525 -16.458 26
    endloop
  endfacet
  facet normal 0 0 1
    outer loop
      vertex -1.5 29.8357 6
      vertex -1.5 27.4 6
      vertex 1.5 27.4 6
    endloop
  endfacet
  facet normal 0 0 1
    outer loop
      vertex 1.5 29.8357 6
      vertex -1.5 29.8357 6
      vertex 1.5 27.4 6
    endloop
  endfacet
  facet normal -0.994522 -0.104528 0
    outer loop
      vertex -30 0 27.35
      vertex -29.3444 -6.23735 27.35
      vertex -30 0 33.35
    endloop
  endfacet
  facet normal -0.994522 -0.104528 0
    outer loop
      vertex -30 0 33.35
      vertex -29.3444 -6.23735 27.35
      vertex -29.3444 -6.23735 33.35
    endloop
  endfacet
  facet normal -0.951057 -0.309017 0
    outer loop
      vertex -29.3444 -6.23735 27.35
      vertex -27.4064 -12.2021 27.35
      vertex -29.3444 -6.23735 33.35
    endloop
  endfacet
  facet normal -0.951057 -0.309017 0
    outer loop
      vertex -29.3444 -6.23735 33.35
      vertex -27.4064 -12.2021 27.35
      vertex -27.4064 -12.2021 33.35
    endloop
  endfacet
  facet normal -0.866025 -0.5 0
    outer loop
      vertex -27.4064 -12.2021 27.35
      vertex -24.2705 -17.6336 27.35
      vertex -27.4064 -12.2021 33.35
    endloop
  endfacet
  facet normal -0.866025 -0.5 0
    outer loop
      vertex -27.4064 -12.2021 33.35
      vertex -24.2705 -17.6336 27.35
      vertex -24.2705 -17.6336 33.35
    endloop
  endfacet
  facet normal -0.743145 -0.669131 0
    outer loop
      vertex -24.2705 -17.6336 27.35
      vertex -20.0739 -22.2943 27.35
      vertex -24.2705 -17.6336 33.35
    endloop
  endfacet
  facet normal -0.743145 -0.669131 0
    outer loop
      vertex -24.2705 -17.6336 33.35
      vertex -20.0739 -22.2943 27.35
      vertex -20.0739 -22.2943 33.35
    endloop
  endfacet
  facet normal -0.587785 -0.809017 0
    outer loop
      vertex -20.0739 -22.2943 33.35
      vertex -20.0739 -22.2943 27.35
      vertex -15 -25.9808 27.35
    endloop
  endfacet
  facet normal -0.587785 -0.809017 0
    outer loop
      vertex -15 -25.9808 33.35
      vertex -20.0739 -22.2943 33.35
      vertex -15 -25.9808 27.35
    endloop
  endfacet
  facet normal -0.406737 -0.913545 0
    outer loop
      vertex -15 -25.9808 33.35
      vertex -15 -25.9808 27.35
      vertex -9.27051 -28.5317 27.35
    endloop
  endfacet
  facet normal -0.406737 -0.913545 0
    outer loop
      vertex -9.27051 -28.5317 33.35
      vertex -15 -25.9808 33.35
      vertex -9.27051 -28.5317 27.35
    endloop
  endfacet
  facet normal -0.207912 -0.978148 0
    outer loop
      vertex -9.27051 -28.5317 33.35
      vertex -9.27051 -28.5317 27.35
      vertex -3.13585 -29.8357 27.35
    endloop
  endfacet
  facet normal -0.207912 -0.978148 0
    outer loop
      vertex -3.13585 -29.8357 33.35
      vertex -9.27051 -28.5317 33.35
      vertex -3.13585 -29.8357 27.35
    endloop
  endfacet
  facet normal 0 -1 0
    outer loop
      vertex -3.13585 -29.8357 33.35
      vertex -3.13585 -29.8357 27.35
      vertex 3.13585 -29.8357 27.35
    endloop
  endfacet
  facet normal 0 -1 0
    outer loop
      vertex 3.13585 -29.8357 33.35
      vertex -3.13585 -29.8357 33.35
      vertex 3.13585 -29.8357 27.35
    endloop
  endfacet
  facet normal 0.207912 -0.978148 0
    outer loop
      vertex 3.13585 -29.8357 33.35
      vertex 3.13585 -29.8357 27.35
      vertex 9.27051 -28.5317 27.35
    endloop
  endfacet
  facet normal 0.207912 -0.978148 0
    outer loop
      vertex 9.27051 -28.5317 33.35
      vertex 3.13585 -29.8357 33.35
      vertex 9.27051 -28.5317 27.35
    endloop
  endfacet
  facet normal 0.406737 -0.913545 0
    outer loop
      vertex 9.27051 -28.5317 33.35
      vertex 9.27051 -28.5317 27.35
      vertex 15 -25.9808 27.35
    endloop
  endfacet
  facet normal 0.406737 -0.913545 0
    outer loop
      vertex 15 -25.9808 33.35
      vertex 9.27051 -28.5317 33.35
      vertex 15 -25.9808 27.35
    endloop
  endfacet
  facet normal 0.587785 -0.809017 0
    outer loop
      vertex 15 -25.9808 33.35
      vertex 15 -25.9808 27.35
      vertex 20.0739 -22.2943 27.35
    endloop
  endfacet
  facet normal 0.587785 -0.809017 0
    outer loop
      vertex 20.0739 -22.2943 33.35
      vertex 15 -25.9808 33.35
      vertex 20.0739 -22.2943 27.35
    endloop
  endfacet
  facet normal 0.743145 -0.669131 0
    outer loop
      vertex 20.0739 -22.2943 33.35
      vertex 20.0739 -22.2943 27.35
      vertex 24.2705 -17.6336 27.35
    endloop
  endfacet
  facet normal 0.743145 -0.669131 0
    outer loop
      vertex 24.2705 -17.6336 33.35
      vertex 20.0739 -22.2943 33.35
      vertex 24.2705 -17.6336 27.35
    endloop
  endfacet
  facet normal 0.866025 -0.5 0
    outer loop
      vertex 24.2705 -17.6336 33.35
      vertex 24.2705 -17.6336 27.35
      vertex 27.4064 -12.2021 27.35
    endloop
  endfacet
  facet normal 0.866025 -0.5 0
    outer loop
      vertex 27.4064 -12.2021 33.35
      vertex 24.2705 -17.6336 33.35
      vertex 27.4064 -12.2021 27.35
    endloop
  endfacet
  facet normal 0.951057 -0.309017 0
    outer loop
      vertex 27.4064 -12.2021 33.35
      vertex 27.4064 -12.2021 27.35
      vertex 29.3444 -6.23735 27.35
    endloop
  endfacet
  facet normal 0.951057 -0.309017 0
    outer loop
      vertex 29.3444 -6.23735 33.35
      vertex 27.4064 -12.2021 33.35
      vertex 29.3444 -6.23735 27.35
    endloop
  endfacet
  facet normal 0.994522 -0.104528 0
    outer loop
      vertex 29.3444 -6.23735 33.35
      vertex 29.3444 -6.23735 27.35
      vertex 30 0 27.35
    endloop
  endfacet
  facet normal 0.994522 -0.104528 0
    outer loop
      vertex 30 0 33.35
      vertex 29.3444 -6.23735 33.35
      vertex 30 0 27.35
    endloop
  endfacet
  facet normal 0.994522 0.104528 0
    outer loop
      vertex 29.3444 6.23735 33.35
      vertex 30 0 33.35
      vertex 30 0 27.35
    endloop
  endfacet
  facet normal 0.994522 0.104528 0
    outer loop
      vertex 29.3444 6.23735 27.35
      vertex 29.3444 6.23735 33.35
      vertex 30 0 27.35
    endloop
  endfacet
  facet normal 0.951057 0.309017 0
    outer loop
      vertex 27.4064 12.2021 33.35
      vertex 29.3444 6.23735 33.35
      vertex 29.3444 6.23735 27.35
    endloop
  endfacet
  facet normal 0.951057 0.309017 0
    outer loop
      vertex 27.4064 12.2021 27.35
      vertex 27.4064 12.2021 33.35
      vertex 29.3444 6.23735 27.35
    endloop
  endfacet
  facet normal 0.866025 0.5 0
    outer loop
      vertex 24.2705 17.6336 33.35
      vertex 27.4064 12.2021 33.35
      vertex 27.4064 12.2021 27.35
    endloop
  endfacet
  facet normal 0.866025 0.5 0
    outer loop
      vertex 24.2705 17.6336 27.35
      vertex 24.2705 17.6336 33.35
      vertex 27.4064 12.2021 27.35
    endloop
  endfacet
  facet normal 0.743145 0.669131 0
    outer loop
      vertex 20.0739 22.2943 33.35
      vertex 24.2705 17.6336 33.35
      vertex 24.2705 17.6336 27.35
    endloop
  endfacet
  facet normal 0.743145 0.669131 0
    outer loop
      vertex 20.0739 22.2943 27.35
      vertex 20.0739 22.2943 33.35
      vertex 24.2705 17.6336 27.35
    endloop
  endfacet
  facet normal 0.587785 0.809017 0
    outer loop
      vertex 20.0739 22.2943 33.35
      vertex 20.0739 22.2943 27.35
      vertex 15 25.9808 33.35
    endloop
  endfacet
  facet normal 0.587785 0.809017 0
    outer loop
      vertex 15 25.9808 33.35
      vertex 20.0739 22.2943 27.35
      vertex 15 25.9808 27.35
    endloop
  endfacet
  facet normal 0.406737 0.913545 0
    outer loop
      vertex 15 25.9808 33.35
      vertex 15 25.9808 27.35
      vertex 9.27051 28.5317 33.35
    endloop
  endfacet
  facet normal 0.406737 0.913545 0
    outer loop
      vertex 9.27051 28.5317 33.35
      vertex 15 25.9808 27.35
      vertex 9.27051 28.5317 27.35
    endloop
  endfacet
  facet normal 0.207912 0.978148 0
    outer loop
      vertex 9.27051 28.5317 33.35
      vertex 9.27051 28.5317 27.35
      vertex 3.13585 29.8357 33.35
    endloop
  endfacet
  facet normal 0.207912 0.978148 0
    outer loop
      vertex 3.13585 29.8357 33.35
      vertex 9.27051 28.5317 27.35
      vertex 3.13585 29.8357 27.35
    endloop
  endfacet
  facet normal 0 1 0
    outer loop
      vertex -2.5 29.8357 33.35
      vertex -2.5 29.8357 27.35
      vertex -3.13585 29.8357 33.35
    endloop
  endfacet
  facet normal 0 1 0
    outer loop
      vertex -3.13585 29.8357 27.35
      vertex -2.5 29.8357 27.35
      vertex 3.13585 29.8357 27.35
    endloop
  endfacet
  facet normal 0 1 0
    outer loop
      vertex 3.13585 29.8357 33.35
      vertex 2.5 29.8357 27.35
      vertex 2.5 29.8357 33.35
    endloop
  endfacet
  facet normal 0 1 0
    outer loop
      vertex 3.13585 29.8357 27.35
      vertex 2.5 29.8357 27.35
      vertex 3.13585 29.8357 33.35
    endloop
  endfacet
  facet normal 0 1 0
    outer loop
      vertex -2.5 29.8357 27.35
      vertex 2.5 29.8357 27.35
      vertex 3.13585 29.8357 27.35
    endloop
  endfacet
  facet normal 0 1 0
    outer loop
      vertex -3.13585 29.8357 33.35
      vertex -2.5 29.8357 27.35
      vertex -3.13585 29.8357 27.35
    endloop
  endfacet
  facet normal -0.207912 0.978148 0
    outer loop
      vertex -3.13585 29.8357 33.35
      vertex -3.13585 29.8357 27.35
      vertex -9.27051 28.5317 33.35
    endloop
  endfacet
  facet normal -0.207912 0.978148 0
    outer loop
      vertex -9.27051 28.5317 33.35
      vertex -3.13585 29.8357 27.35
      vertex -9.27051 28.5317 27.35
    endloop
  endfacet
  facet normal -0.406737 0.913545 0
    outer loop
      vertex -9.27051 28.5317 33.35
      vertex -9.27051 28.5317 27.35
      vertex -15 25.9808 33.35
    endloop
  endfacet
  facet normal -0.406737 0.913545 0
    outer loop
      vertex -15 25.9808 33.35
      vertex -9.27051 28.5317 27.35
      vertex -15 25.9808 27.35
    endloop
  endfacet
  facet normal -0.587785 0.809017 0
    outer loop
      vertex -15 25.9808 33.35
      vertex -15 25.9808 27.35
      vertex -20.0739 22.2943 33.35
    endloop
  endfacet
  facet normal -0.587785 0.809017 0
    outer loop
      vertex -20.0739 22.2943 33.35
      vertex -15 25.9808 27.35
      vertex -20.0739 22.2943 27.35
    endloop
  endfacet
  facet normal -0.743145 0.669131 0
    outer loop
      vertex -20.0739 22.2943 33.35
      vertex -20.0739 22.2943 27.35
      vertex -24.2705 17.6336 33.35
    endloop
  endfacet
  facet normal -0.743145 0.669131 0
    outer loop
      vertex -24.2705 17.6336 33.35
      vertex -20.0739 22.2943 27.35
      vertex -24.2705 17.6336 27.35
    endloop
  endfacet
  facet normal -0.866025 0.5 0
    outer loop
      vertex -24.2705 17.6336 33.35
      vertex -24.2705 17.6336 27.35
      vertex -27.4064 12.2021 33.35
    endloop
  endfacet
  facet normal -0.866025 0.5 0
    outer loop
      vertex -27.4064 12.2021 33.35
      vertex -24.2705 17.6336 27.35
      vertex -27.4064 12.2021 27.35
    endloop
  endfacet
  facet normal -0.951057 0.309017 0
    outer loop
      vertex -27.4064 12.2021 33.35
      vertex -27.4064 12.2021 27.35
      vertex -29.3444 6.23735 33.35
    endloop
  endfacet
  facet normal -0.951057 0.309017 0
    outer loop
      vertex -29.3444 6.23735 33.35
      vertex -27.4064 12.2021 27.35
      vertex -29.3444 6.23735 27.35
    endloop
  endfacet
  facet normal -0.994522 0.104528 0
    outer loop
      vertex -29.3444 6.23735 33.35
      vertex -29.3444 6.23735 27.35
      vertex -30 0 33.35
    endloop
  endfacet
  facet normal -0.994522 0.104528 0
    outer loop
      vertex -30 0 33.35
      vertex -29.3444 6.23735 27.35
      vertex -30 0 27.35
    endloop
  endfacet
  facet normal 0.994522 0.104528 0
    outer loop
      vertex -28 0 33.35
      vertex -27.3881 -5.82153 33.35
      vertex -27.3881 -5.82153 26
    endloop
  endfacet
  facet normal 0.994522 0.104528 0
    outer loop
      vertex -28 0 26
      vertex -28 0 33.35
      vertex -27.3881 -5.82153 26
    endloop
  endfacet
  facet normal 0.951057 0.309017 0
    outer loop
      vertex -27.3881 -5.82153 33.35
      vertex -25.5793 -11.3886 33.35
      vertex -25.5793 -11.3886 26
    endloop
  endfacet
  facet normal 0.951057 0.309017 0
    outer loop
      vertex -27.3881 -5.82153 26
      vertex -27.3881 -5.82153 33.35
      vertex -25.5793 -11.3886 26
    endloop
  endfacet
  facet normal 0.994522 -0.104528 0
    outer loop
      vertex -27.3881 5.82153 26
      vertex -27.3881 5.82153 33.35
      vertex -28 0 33.35
    endloop
  endfacet
  facet normal 0.994522 -0.104528 0
    outer loop
      vertex -28 0 26
      vertex -27.3881 5.82153 26
      vertex -28 0 33.35
    endloop
  endfacet
  facet normal 0.951057 -0.309017 0
    outer loop
      vertex -25.5793 11.3886 26
      vertex -25.5793 11.3886 33.35
      vertex -27.3881 5.82153 33.35
    endloop
  endfacet
  facet normal 0.951057 -0.309017 0
    outer loop
      vertex -27.3881 5.82153 26
      vertex -25.5793 11.3886 26
      vertex -27.3881 5.82153 33.35
    endloop
  endfacet
  facet normal 0.866025 -0.5 0
    outer loop
      vertex -22.6525 16.458 26
      vertex -22.6525 16.458 33.35
      vertex -25.5793 11.3886 33.35
    endloop
  endfacet
  facet normal 0.866025 -0.5 0
    outer loop
      vertex -25.5793 11.3886 26
      vertex -22.6525 16.458 26
      vertex -25.5793 11.3886 33.35
    endloop
  endfacet
  facet normal 0.743145 -0.669131 0
    outer loop
      vertex -18.7357 20.8081 26
      vertex -18.7357 20.8081 33.35
      vertex -22.6525 16.458 33.35
    endloop
  endfacet
  facet normal 0.743145 -0.669131 0
    outer loop
      vertex -22.6525 16.458 26
      vertex -18.7357 20.8081 26
      vertex -22.6525 16.458 33.35
    endloop
  endfacet
  facet normal 0.587785 -0.809017 0
    outer loop
      vertex -14 24.2487 26
      vertex -14 24.2487 33.35
      vertex -18.7357 20.8081 33.35
    endloop
  endfacet
  facet normal 0.587785 -0.809017 0
    outer loop
      vertex -18.7357 20.8081 26
      vertex -14 24.2487 26
      vertex -18.7357 20.8081 33.35
    endloop
  endfacet
  facet normal 0.406737 -0.913545 0
    outer loop
      vertex -8.65248 26.6296 26
      vertex -8.65248 26.6296 33.35
      vertex -14 24.2487 33.35
    endloop
  endfacet
  facet normal 0.406737 -0.913545 0
    outer loop
      vertex -14 24.2487 26
      vertex -8.65248 26.6296 26
      vertex -14 24.2487 33.35
    endloop
  endfacet
  facet normal 0.207912 -0.978148 0
    outer loop
      vertex -2.9268 27.8466 26
      vertex -2.9268 27.8466 33.35
      vertex -8.65248 26.6296 33.35
    endloop
  endfacet
  facet normal 0.207912 -0.978148 0
    outer loop
      vertex -8.65248 26.6296 26
      vertex -2.9268 27.8466 26
      vertex -8.65248 26.6296 33.35
    endloop
  endfacet
  facet normal 0 -1 0
    outer loop
      vertex 2.9268 27.8466 26
      vertex 2.9268 27.8466 33.35
      vertex 2.5 27.8466 33.35
    endloop
  endfacet
  facet normal 0 -1 0
    outer loop
      vertex -2.5 27.8466 27.35
      vertex 2.9268 27.8466 26
      vertex 2.5 27.8466 27.35
    endloop
  endfacet
  facet normal 0 -1 0
    outer loop
      vertex 2.5 27.8466 27.35
      vertex 2.9268 27.8466 26
      vertex 2.5 27.8466 33.35
    endloop
  endfacet
  facet normal 0 -1 0
    outer loop
      vertex -2.9268 27.8466 26
      vertex 2.9268 27.8466 26
      vertex -2.5 27.8466 27.35
    endloop
  endfacet
  facet normal 0 -1 0
    outer loop
      vertex -2.9268 27.8466 33.35
      vertex -2.5 27.8466 27.35
      vertex -2.5 27.8466 33.35
    endloop
  endfacet
  facet normal 0 -1 0
    outer loop
      vertex -2.9268 27.8466 26
      vertex -2.5 27.8466 27.35
      vertex -2.9268 27.8466 33.35
    endloop
  endfacet
  facet normal -0.207912 -0.978148 0
    outer loop
      vertex 8.65248 26.6296 26
      vertex 8.65248 26.6296 33.35
      vertex 2.9268 27.8466 33.35
    endloop
  endfacet
  facet normal -0.207912 -0.978148 0
    outer loop
      vertex 2.9268 27.8466 26
      vertex 8.65248 26.6296 26
      vertex 2.9268 27.8466 33.35
    endloop
  endfacet
  facet normal -0.406737 -0.913545 0
    outer loop
      vertex 14 24.2487 26
      vertex 14 24.2487 33.35
      vertex 8.65248 26.6296 33.35
    endloop
  endfacet
  facet normal -0.406737 -0.913545 0
    outer loop
      vertex 8.65248 26.6296 26
      vertex 14 24.2487 26
      vertex 8.65248 26.6296 33.35
    endloop
  endfacet
  facet normal -0.587785 -0.809017 0
    outer loop
      vertex 18.7357 20.8081 26
      vertex 18.7357 20.8081 33.35
      vertex 14 24.2487 33.35
    endloop
  endfacet
  facet normal -0.587785 -0.809017 0
    outer loop
      vertex 14 24.2487 26
      vertex 18.7357 20.8081 26
      vertex 14 24.2487 33.35
    endloop
  endfacet
  facet normal -0.743145 -0.669131 0
    outer loop
      vertex 22.6525 16.458 33.35
      vertex 18.7357 20.8081 33.35
      vertex 22.6525 16.458 26
    endloop
  endfacet
  facet normal -0.743145 -0.669131 0
    outer loop
      vertex 22.6525 16.458 26
      vertex 18.7357 20.8081 33.35
      vertex 18.7357 20.8081 26
    endloop
  endfacet
  facet normal -0.866025 -0.5 0
    outer loop
      vertex 25.5793 11.3886 33.35
      vertex 22.6525 16.458 33.35
      vertex 25.5793 11.3886 26
    endloop
  endfacet
  facet normal -0.866025 -0.5 0
    outer loop
      vertex 25.5793 11.3886 26
      vertex 22.6525 16.458 33.35
      vertex 22.6525 16.458 26
    endloop
  endfacet
  facet normal -0.951057 -0.309017 0
    outer loop
      vertex 27.3881 5.82153 33.35
      vertex 25.5793 11.3886 33.35
      vertex 27.3881 5.82153 26
    endloop
  endfacet
  facet normal -0.951057 -0.309017 0
    outer loop
      vertex 27.3881 5.82153 26
      vertex 25.5793 11.3886 33.35
      vertex 25.5793 11.3886 26
    endloop
  endfacet
  facet normal -0.994522 -0.104528 0
    outer loop
      vertex 28 0 33.35
      vertex 27.3881 5.82153 33.35
      vertex 28 0 26
    endloop
  endfacet
  facet normal -0.994522 -0.104528 0
    outer loop
      vertex 28 0 26
      vertex 27.3881 5.82153 33.35
      vertex 27.3881 5.82153 26
    endloop
  endfacet
  facet normal -0.994522 0.104528 0
    outer loop
      vertex 28 0 33.35
      vertex 28 0 26
      vertex 27.3881 -5.82153 33.35
    endloop
  endfacet
  facet normal -0.994522 0.104528 0
    outer loop
      vertex 27.3881 -5.82153 33.35
      vertex 28 0 26
      vertex 27.3881 -5.82153 26
    endloop
  endfacet
  facet normal -0.951057 0.309017 0
    outer loop
      vertex 27.3881 -5.82153 33.35
      vertex 27.3881 -5.82153 26
      vertex 25.5793 -11.3886 33.35
    endloop
  endfacet
  facet normal -0.951057 0.309017 0
    outer loop
      vertex 25.5793 -11.3886 33.35
      vertex 27.3881 -5.82153 26
      vertex 25.5793 -11.3886 26
    endloop
  endfacet
  facet normal -0.866025 0.5 0
    outer loop
      vertex 25.5793 -11.3886 33.35
      vertex 25.5793 -11.3886 26
      vertex 22.6525 -16.458 33.35
    endloop
  endfacet
  facet normal -0.866025 0.5 0
    outer loop
      vertex 22.6525 -16.458 33.35
      vertex 25.5793 -11.3886 26
      vertex 22.6525 -16.458 26
    endloop
  endfacet
  facet normal -0.743145 0.669131 0
    outer loop
      vertex 22.6525 -16.458 33.35
      vertex 22.6525 -16.458 26
      vertex 18.7357 -20.8081 33.35
    endloop
  endfacet
  facet normal -0.743145 0.669131 0
    outer loop
      vertex 18.7357 -20.8081 33.35
      vertex 22.6525 -16.458 26
      vertex 18.7357 -20.8081 26
    endloop
  endfacet
  facet normal -0.587785 0.809017 0
    outer loop
      vertex 18.7357 -20.8081 33.35
      vertex 18.7357 -20.8081 26
      vertex 14 -24.2487 33.35
    endloop
  endfacet
  facet normal -0.587785 0.809017 0
    outer loop
      vertex 14 -24.2487 33.35
      vertex 18.7357 -20.8081 26
      vertex 14 -24.2487 26
    endloop
  endfacet
  facet normal -0.406737 0.913545 0
    outer loop
      vertex 14 -24.2487 33.35
      vertex 14 -24.2487 26
      vertex 8.65248 -26.6296 33.35
    endloop
  endfacet
  facet normal -0.406737 0.913545 0
    outer loop
      vertex 8.65248 -26.6296 33.35
      vertex 14 -24.2487 26
      vertex 8.65248 -26.6296 26
    endloop
  endfacet
  facet normal -0.207912 0.978148 0
    outer loop
      vertex 8.65248 -26.6296 33.35
      vertex 8.65248 -26.6296 26
      vertex 2.9268 -27.8466 33.35
    endloop
  endfacet
  facet normal -0.207912 0.978148 0
    outer loop
      vertex 2.9268 -27.8466 33.35
      vertex 8.65248 -26.6296 26
      vertex 2.9268 -27.8466 26
    endloop
  endfacet
  facet normal 0 1 0
    outer loop
      vertex 2.9268 -27.8466 33.35
      vertex 2.9268 -27.8466 26
      vertex -2.9268 -27.8466 33.35
    endloop
  endfacet
  facet normal 0 1 0
    outer loop
      vertex -2.9268 -27.8466 33.35
      vertex 2.9268 -27.8466 26
      vertex -2.9268 -27.8466 26
    endloop
  endfacet
  facet normal 0.207912 0.978148 0
    outer loop
      vertex -2.9268 -27.8466 33.35
      vertex -2.9268 -27.8466 26
      vertex -8.65248 -26.6296 33.35
    endloop
  endfacet
  facet normal 0.207912 0.978148 0
    outer loop
      vertex -8.65248 -26.6296 33.35
      vertex -2.9268 -27.8466 26
      vertex -8.65248 -26.6296 26
    endloop
  endfacet
  facet normal 0.406737 0.913545 0
    outer loop
      vertex -8.65248 -26.6296 33.35
      vertex -8.65248 -26.6296 26
      vertex -14 -24.2487 33.35
    endloop
  endfacet
  facet normal 0.406737 0.913545 0
    outer loop
      vertex -14 -24.2487 33.35
      vertex -8.65248 -26.6296 26
      vertex -14 -24.2487 26
    endloop
  endfacet
  facet normal 0.587785 0.809017 0
    outer loop
      vertex -14 -24.2487 33.35
      vertex -14 -24.2487 26
      vertex -18.7357 -20.8081 33.35
    endloop
  endfacet
  facet normal 0.587785 0.809017 0
    outer loop
      vertex -18.7357 -20.8081 33.35
      vertex -14 -24.2487 26
      vertex -18.7357 -20.8081 26
    endloop
  endfacet
  facet normal 0.743145 0.669131 0
    outer loop
      vertex -22.6525 -16.458 33.35
      vertex -18.7357 -20.8081 33.35
      vertex -18.7357 -20.8081 26
    endloop
  endfacet
  facet normal 0.743145 0.669131 0
    outer loop
      vertex -22.6525 -16.458 26
      vertex -22.6525 -16.458 33.35
      vertex -18.7357 -20.8081 26
    endloop
  endfacet
  facet normal 0.866025 0.5 0
    outer loop
      vertex -25.5793 -11.3886 33.35
      vertex -22.6525 -16.458 33.35
      vertex -22.6525 -16.458 26
    endloop
  endfacet
  facet normal 0.866025 0.5 0
    outer loop
      vertex -25.5793 -11.3886 26
      vertex -25.5793 -11.3886 33.35
      vertex -22.6525 -16.458 26
    endloop
  endfacet
  facet normal 0 0 1
    outer loop
      vertex -29.3444 6.23735 33.35
      vertex -30 0 33.35
      vertex -29.3444 -6.23735 33.35
    endloop
  endfacet
  facet normal 0 0 1
    outer loop
      vertex -27.3881 -5.82153 33.35
      vertex -29.3444 6.23735 33.35
      vertex -27.4064 -12.2021 33.35
    endloop
  endfacet
  facet normal 0 0 1
    outer loop
      vertex -27.4064 -12.2021 33.35
      vertex -29.3444 6.23735 33.35
      vertex -29.3444 -6.23735 33.35
    endloop
  endfacet
  facet normal 0 0 1
    outer loop
      vertex -27.3881 -5.82153 33.35
      vertex -28 0 33.35
      vertex -29.3444 6.23735 33.35
    endloop
  endfacet
  facet normal 0 0 1
    outer loop
      vertex -25.5793 -11.3886 33.35
      vertex -27.3881 -5.82153 33.35
      vertex -24.2705 -17.6336 33.35
    endloop
  endfacet
  facet normal 0 0 1
    outer loop
      vertex -18.7357 -20.8081 33.35
      vertex -22.6525 -16.458 33.35
      vertex -20.0739 -22.2943 33.35
    endloop
  endfacet
  facet normal 0 0 1
    outer loop
      vertex -14 -24.2487 33.35
      vertex -18.7357 -20.8081 33.35
      vertex -15 -25.9808 33.35
    endloop
  endfacet
  facet normal 0 0 1
    outer loop
      vertex -8.65248 -26.6296 33.35
      vertex -14 -24.2487 33.35
      vertex -9.27051 -28.5317 33.35
    endloop
  endfacet
  facet normal 0 0 1
    outer loop
      vertex -2.9268 -27.8466 33.35
      vertex -8.65248 -26.6296 33.35
      vertex -3.13585 -29.8357 33.35
    endloop
  endfacet
  facet normal 0 0 1
    outer loop
      vertex 2.9268 -27.8466 33.35
      vertex -2.9268 -27.8466 33.35
      vertex 3.13585 -29.8357 33.35
    endloop
  endfacet
  facet normal 0 0 1
    outer loop
      vertex 8.65248 -26.6296 33.35
      vertex 2.9268 -27.8466 33.35
      vertex 9.27051 -28.5317 33.35
    endloop
  endfacet
  facet normal 0 0 1
    outer loop
      vertex 14 -24.2487 33.35
      vertex 8.65248 -26.6296 33.35
      vertex 15 -25.9808 33.35
    endloop
  endfacet
  facet normal 0 0 1
    outer loop
      vertex 18.7357 -20.8081 33.35
      vertex 14 -24.2487 33.35
      vertex 20.0739 -22.2943 33.35
    endloop
  endfacet
  facet normal 0 0 1
    outer loop
      vertex 22.6525 -16.458 33.35
      vertex 18.7357 -20.8081 33.35
      vertex 24.2705 -17.6336 33.35
    endloop
  endfacet
  facet normal 0 0 1
    outer loop
      vertex 27.3881 5.82153 33.35
      vertex 28 0 33.35
      vertex 30 0 33.35
    endloop
  endfacet
  facet normal 0 0 1
    outer loop
      vertex 25.5793 11.3886 33.35
      vertex 27.3881 5.82153 33.35
      vertex 29.3444 6.23735 33.35
    endloop
  endfacet
  facet normal 0 0 1
    outer loop
      vertex 22.6525 16.458 33.35
      vertex 25.5793 11.3886 33.35
      vertex 27.4064 12.2021 33.35
    endloop
  endfacet
  facet normal 0 0 1
    outer loop
      vertex 18.7357 20.8081 33.35
      vertex 22.6525 16.458 33.35
      vertex 24.2705 17.6336 33.35
    endloop
  endfacet
  facet normal 0 0 1
    outer loop
      vertex 14 24.2487 33.35
      vertex 18.7357 20.8081 33.35
      vertex 20.0739 22.2943 33.35
    endloop
  endfacet
  facet normal 0 0 1
    outer loop
      vertex 8.65248 26.6296 33.35
      vertex 14 24.2487 33.35
      vertex 15 25.9808 33.35
    endloop
  endfacet
  facet normal 0 0 1
    outer loop
      vertex 2.9268 27.8466 33.35
      vertex 8.65248 26.6296 33.35
      vertex 9.27051 28.5317 33.35
    endloop
  endfacet
  facet normal 0 0 1
    outer loop
      vertex 3.13585 29.8357 33.35
      vertex 2.5 27.8466 33.35
      vertex 9.27051 28.5317 33.35
    endloop
  endfacet
  facet normal 0 0 1
    outer loop
      vertex 2.5 27.8466 33.35
      vertex 2.9268 27.8466 33.35
      vertex 9.27051 28.5317 33.35
    endloop
  endfacet
  facet normal 0 0 1
    outer loop
      vertex -2.5 27.8466 33.35
      vertex -2.5 29.8357 33.35
      vertex -2.9268 27.8466 33.35
    endloop
  endfacet
  facet normal 0 0 1
    outer loop
      vertex 9.27051 28.5317 33.35
      vertex 8.65248 26.6296 33.35
      vertex 15 25.9808 33.35
    endloop
  endfacet
  facet normal 0 0 1
    outer loop
      vertex 15 25.9808 33.35
      vertex 14 24.2487 33.35
      vertex 20.0739 22.2943 33.35
    endloop
  endfacet
  facet normal 0 0 1
    outer loop
      vertex 20.0739 22.2943 33.35
      vertex 18.7357 20.8081 33.35
      vertex 24.2705 17.6336 33.35
    endloop
  endfacet
  facet normal 0 0 1
    outer loop
      vertex 24.2705 17.6336 33.35
      vertex 22.6525 16.458 33.35
      vertex 27.4064 12.2021 33.35
    endloop
  endfacet
  facet normal 0 0 1
    outer loop
      vertex 27.4064 12.2021 33.35
      vertex 25.5793 11.3886 33.35
      vertex 29.3444 6.23735 33.35
    endloop
  endfacet
  facet normal 0 0 1
    outer loop
      vertex 29.3444 6.23735 33.35
      vertex 27.3881 5.82153 33.35
      vertex 30 0 33.35
    endloop
  endfacet
  facet normal 0 0 1
    outer loop
      vertex 30 0 33.35
      vertex 28 0 33.35
      vertex 29.3444 -6.23735 33.35
    endloop
  endfacet
  facet normal 0 0 1
    outer loop
      vertex 28 0 33.35
      vertex 27.3881 -5.82153 33.35
      vertex 29.3444 -6.23735 33.35
    endloop
  endfacet
  facet normal 0 0 1
    outer loop
      vertex 29.3444 -6.23735 33.35
      vertex 25.5793 -11.3886 33.35
      vertex 27.4064 -12.2021 33.35
    endloop
  endfacet
  facet normal 0 0 1
    outer loop
      vertex 27.4064 -12.2021 33.35
      vertex 22.6525 -16.458 33.35
      vertex 24.2705 -17.6336 33.35
    endloop
  endfacet
  facet normal 0 0 1
    outer loop
      vertex 24.2705 -17.6336 33.35
      vertex 18.7357 -20.8081 33.35
      vertex 20.0739 -22.2943 33.35
    endloop
  endfacet
  facet normal 0 0 1
    outer loop
      vertex 20.0739 -22.2943 33.35
      vertex 14 -24.2487 33.35
      vertex 15 -25.9808 33.35
    endloop
  endfacet
  facet normal 0 0 1
    outer loop
      vertex 15 -25.9808 33.35
      vertex 8.65248 -26.6296 33.35
      vertex 9.27051 -28.5317 33.35
    endloop
  endfacet
  facet normal 0 0 1
    outer loop
      vertex 9.27051 -28.5317 33.35
      vertex 2.9268 -27.8466 33.35
      vertex 3.13585 -29.8357 33.35
    endloop
  endfacet
  facet normal 0 0 1
    outer loop
      vertex 3.13585 -29.8357 33.35
      vertex -2.9268 -27.8466 33.35
      vertex -3.13585 -29.8357 33.35
    endloop
  endfacet
  facet normal 0 0 1
    outer loop
      vertex -3.13585 -29.8357 33.35
      vertex -8.65248 -26.6296 33.35
      vertex -9.27051 -28.5317 33.35
    endloop
  endfacet
  facet normal 0 0 1
    outer loop
      vertex -9.27051 -28.5317 33.35
      vertex -14 -24.2487 33.35
      vertex -15 -25.9808 33.35
    endloop
  endfacet
  facet normal 0 0 1
    outer loop
      vertex -15 -25.9808 33.35
      vertex -18.7357 -20.8081 33.35
      vertex -20.0739 -22.2943 33.35
    endloop
  endfacet
  facet normal 0 0 1
    outer loop
      vertex -20.0739 -22.2943 33.35
      vertex -22.6525 -16.458 33.35
      vertex -24.2705 -17.6336 33.35
    endloop
  endfacet
  facet normal 0 0 1
    outer loop
      vertex -22.6525 -16.458 33.35
      vertex -25.5793 -11.3886 33.35
      vertex -24.2705 -17.6336 33.35
    endloop
  endfacet
  facet normal 0 0 1
    outer loop
      vertex -24.2705 -17.6336 33.35
      vertex -27.3881 -5.82153 33.35
      vertex -27.4064 -12.2021 33.35
    endloop
  endfacet
  facet normal 0 0 1
    outer loop
      vertex -27.3881 5.82153 33.35
      vertex -25.5793 11.3886 33.35
      vertex -29.3444 6.23735 33.35
    endloop
  endfacet
  facet normal 0 0 1
    outer loop
      vertex 25.5793 -11.3886 33.35
      vertex 22.6525 -16.458 33.35
      vertex 27.4064 -12.2021 33.35
    endloop
  endfacet
  facet normal 0 0 1
    outer loop
      vertex -22.6525 16.458 33.35
      vertex -29.3444 6.23735 33.35
      vertex -25.5793 11.3886 33.35
    endloop
  endfacet
  facet normal 0 0 1
    outer loop
      vertex -20.0739 22.2943 33.35
      vertex -29.3444 6.23735 33.35
      vertex -22.6525 16.458 33.35
    endloop
  endfacet
  facet normal 0 0 1
    outer loop
      vertex -15 25.9808 33.35
      vertex -22.6525 16.458 33.35
      vertex -18.7357 20.8081 33.35
    endloop
  endfacet
  facet normal 0 0 1
    outer loop
      vertex -2.9268 27.8466 33.35
      vertex -2.5 29.8357 33.35
      vertex -8.65248 26.6296 33.35
    endloop
  endfacet
  facet normal 0 0 1
    outer loop
      vertex -9.27051 28.5317 33.35
      vertex -18.7357 20.8081 33.35
      vertex -14 24.2487 33.35
    endloop
  endfacet
  facet normal 0 0 1
    outer loop
      vertex -2.5 29.8357 33.35
      vertex -14 24.2487 33.35
      vertex -8.65248 26.6296 33.35
    endloop
  endfacet
  facet normal 0 0 1
    outer loop
      vertex -3.13585 29.8357 33.35
      vertex -14 24.2487 33.35
      vertex -2.5 29.8357 33.35
    endloop
  endfacet
  facet normal 0 0 1
    outer loop
      vertex -9.27051 28.5317 33.35
      vertex -14 24.2487 33.35
      vertex -3.13585 29.8357 33.35
    endloop
  endfacet
  facet normal 0 0 1
    outer loop
      vertex -15 25.9808 33.35
      vertex -18.7357 20.8081 33.35
      vertex -9.27051 28.5317 33.35
    endloop
  endfacet
  facet normal 0 0 1
    outer loop
      vertex -20.0739 22.2943 33.35
      vertex -22.6525 16.458 33.35
      vertex -15 25.9808 33.35
    endloop
  endfacet
  facet normal 0 0 1
    outer loop
      vertex -24.2705 17.6336 33.35
      vertex -29.3444 6.23735 33.35
      vertex -20.0739 22.2943 33.35
    endloop
  endfacet
  facet normal 0 0 1
    outer loop
      vertex -27.4064 12.2021 33.35
      vertex -29.3444 6.23735 33.35
      vertex -24.2705 17.6336 33.35
    endloop
  endfacet
  facet normal 0 0 1
    outer loop
      vertex 2.5 29.8357 33.35
      vertex 2.5 27.8466 33.35
      vertex 3.13585 29.8357 33.35
    endloop
  endfacet
  facet normal 0 0 1
    outer loop
      vertex 27.3881 -5.82153 33.35
      vertex 25.5793 -11.3886 33.35
      vertex 29.3444 -6.23735 33.35
    endloop
  endfacet
  facet normal 0 0 1
    outer loop
      vertex -28 0 33.35
      vertex -27.3881 5.82153 33.35
      vertex -29.3444 6.23735 33.35
    endloop
  endfacet
  facet normal -1 0 0
    outer loop
      vertex 2.5 29.8357 33.35
      vertex 2.5 29.8357 27.35
      vertex 2.5 27.8466 33.35
    endloop
  endfacet
  facet normal -1 0 0
    outer loop
      vertex 2.5 27.8466 33.35
      vertex 2.5 29.8357 27.35
      vertex 2.5 27.8466 27.35
    endloop
  endfacet
  facet normal 0 0 1
    outer loop
      vertex 2.5 27.8466 27.35
      vertex 2.5 29.8357 27.35
      vertex -2.5 29.8357 27.35
    endloop
  endfacet
  facet normal 0 0 1
    outer loop
      vertex -2.5 27.8466 27.35
      vertex 2.5 27.8466 27.35
      vertex -2.5 29.8357 27.35
    endloop
  endfacet
  facet normal 1 0 0
    outer loop
      vertex -2.5 29.8357 27.35
      vertex -2.5 29.8357 33.35
      vertex -2.5 27.8466 33.35
    endloop
  endfacet
  facet normal 1 0 0
    outer loop
      vertex -2.5 27.8466 27.35
      vertex -2.5 29.8357 27.35
      vertex -2.5 27.8466 33.35
    endloop
  endfacet
endsolid OpenSCAD_Model
