solid OpenSCAD_Model
  facet normal 0 0 -1
    outer loop
      vertex -13 0 0
      vertex -12.7159 2.70285 0
      vertex -12.7159 -2.70285 0
    endloop
  endfacet
  facet normal 0 0 -1
    outer loop
      vertex -12.7159 -2.70285 0
      vertex -12.7159 2.70285 0
      vertex -11.8761 5.28758 0
    endloop
  endfacet
  facet normal 0 0 -1
    outer loop
      vertex -12.7159 -2.70285 0
      vertex -11.8761 5.28758 0
      vertex -10.5172 7.64121 0
    endloop
  endfacet
  facet normal 0 0 -1
    outer loop
      vertex -12.7159 -2.70285 0
      vertex -10.5172 7.64121 0
      vertex -8.6987 9.66088 0
    endloop
  endfacet
  facet normal 0 0 -1
    outer loop
      vertex -8.89919 6.46564 0
      vertex -8.6987 9.66088 0
      vertex -6.5 11.2583 0
    endloop
  endfacet
  facet normal 0 0 -1
    outer loop
      vertex -7.36044 8.17459 0
      vertex -6.5 11.2583 0
      vertex -4.01722 12.3637 0
    endloop
  endfacet
  facet normal 0 0 -1
    outer loop
      vertex -3.39919 10.4616 0
      vertex -4.01722 12.3637 0
      vertex -1.35887 12.9288 0
    endloop
  endfacet
  facet normal 0 0 -1
    outer loop
      vertex -1.14981 10.9397 0
      vertex -1.35887 12.9288 0
      vertex 1.35887 12.9288 0
    endloop
  endfacet
  facet normal 0 0 -1
    outer loop
      vertex 1.14981 10.9397 0
      vertex 1.35887 12.9288 0
      vertex 4.01722 12.3637 0
    endloop
  endfacet
  facet normal 0 0 -1
    outer loop
      vertex 3.39919 10.4616 0
      vertex 4.01722 12.3637 0
      vertex 6.5 11.2583 0
    endloop
  endfacet
  facet normal 0 0 -1
    outer loop
      vertex 5.5 9.52628 0
      vertex 6.5 11.2583 0
      vertex 8.6987 9.66088 0
    endloop
  endfacet
  facet normal 0 0 -1
    outer loop
      vertex 7.36044 8.17459 0
      vertex 8.6987 9.66088 0
      vertex 10.5172 7.64121 0
    endloop
  endfacet
  facet normal 0 0 -1
    outer loop
      vertex 8.89919 6.46564 0
      vertex 10.5172 7.64121 0
      vertex 11.8761 5.28758 0
    endloop
  endfacet
  facet normal 0 0 -1
    outer loop
      vertex 10.7596 2.28703 0
      vertex 11.8761 5.28758 0
      vertex 12.7159 2.70285 0
    endloop
  endfacet
  facet normal 0 0 -1
    outer loop
      vertex 11 0 0
      vertex 12.7159 2.70285 0
      vertex 13 0 0
    endloop
  endfacet
  facet normal 0 0 -1
    outer loop
      vertex 10.7596 -2.28703 0
      vertex 13 0 0
      vertex 12.7159 -2.70285 0
    endloop
  endfacet
  facet normal 0 0 -1
    outer loop
      vertex 10.049 -4.4741 0
      vertex 12.7159 -2.70285 0
      vertex 11.8761 -5.28758 0
    endloop
  endfacet
  facet normal 0 0 -1
    outer loop
      vertex 8.89919 -6.46564 0
      vertex 11.8761 -5.28758 0
      vertex 10.5172 -7.64121 0
    endloop
  endfacet
  facet normal 0 0 -1
    outer loop
      vertex 7.36044 -8.17459 0
      vertex 10.5172 -7.64121 0
      vertex 8.6987 -9.66088 0
    endloop
  endfacet
  facet normal 0 0 -1
    outer loop
      vertex 5.5 -9.52628 0
      vertex 8.6987 -9.66088 0
      vertex 6.5 -11.2583 0
    endloop
  endfacet
  facet normal 0 0 -1
    outer loop
      vertex 3.39919 -10.4616 0
      vertex 6.5 -11.2583 0
      vertex 4.01722 -12.3637 0
    endloop
  endfacet
  facet normal 0 0 -1
    outer loop
      vertex -1.14981 -10.9397 0
      vertex 4.01722 -12.3637 0
      vertex 1.35887 -12.9288 0
    endloop
  endfacet
  facet normal 0 0 -1
    outer loop
      vertex -3.39919 -10.4616 0
      vertex 1.35887 -12.9288 0
      vertex -1.35887 -12.9288 0
    endloop
  endfacet
  facet normal 0 0 -1
    outer loop
      vertex -7.36044 -8.17459 0
      vertex -1.35887 -12.9288 0
      vertex -4.01722 -12.3637 0
    endloop
  endfacet
  facet normal 0 0 -1
    outer loop
      vertex -12.7159 -2.70285 0
      vertex -4.01722 -12.3637 0
      vertex -6.5 -11.2583 0
    endloop
  endfacet
  facet normal 0 0 -1
    outer loop
      vertex -12.7159 -2.70285 0
      vertex -6.5 -11.2583 0
      vertex -8.6987 -9.66088 0
    endloop
  endfacet
  facet normal 0 0 -1
    outer loop
      vertex -12.7159 -2.70285 0
      vertex -8.6987 -9.66088 0
      vertex -10.5172 -7.64121 0
    endloop
  endfacet
  facet normal 0 0 -1
    outer loop
      vertex -12.7159 -2.70285 0
      vertex -10.5172 -7.64121 0
      vertex -11.8761 -5.28758 0
    endloop
  endfacet
  facet normal 0 0 -1
    outer loop
      vertex -10.7596 -2.28703 0
      vertex -12.7159 -2.70285 0
      vertex -11 0 0
    endloop
  endfacet
  facet normal 0 0 -1
    outer loop
      vertex -10.049 -4.4741 0
      vertex -12.7159 -2.70285 0
      vertex -10.7596 -2.28703 0
    endloop
  endfacet
  facet normal 0 0 -1
    outer loop
      vertex -8.89919 -6.46564 0
      vertex -12.7159 -2.70285 0
      vertex -10.049 -4.4741 0
    endloop
  endfacet
  facet normal 0 0 -1
    outer loop
      vertex -3.39919 -10.4616 0
      vertex -1.35887 -12.9288 0
      vertex -5.5 -9.52628 0
    endloop
  endfacet
  facet normal 0 0 -1
    outer loop
      vertex -12.7159 -2.70285 0
      vertex -8.89919 -6.46564 0
      vertex -4.01722 -12.3637 0
    endloop
  endfacet
  facet normal 0 0 -1
    outer loop
      vertex -5.5 -9.52628 0
      vertex -1.35887 -12.9288 0
      vertex -7.36044 -8.17459 0
    endloop
  endfacet
  facet normal 0 0 -1
    outer loop
      vertex -8.89919 -6.46564 0
      vertex -7.36044 -8.17459 0
      vertex -4.01722 -12.3637 0
    endloop
  endfacet
  facet normal 0 0 -1
    outer loop
      vertex 1.14981 -10.9397 0
      vertex 4.01722 -12.3637 0
      vertex -1.14981 -10.9397 0
    endloop
  endfacet
  facet normal 0 0 -1
    outer loop
      vertex 3.39919 -10.4616 0
      vertex 4.01722 -12.3637 0
      vertex 1.14981 -10.9397 0
    endloop
  endfacet
  facet normal 0 0 -1
    outer loop
      vertex -1.14981 -10.9397 0
      vertex 1.35887 -12.9288 0
      vertex -3.39919 -10.4616 0
    endloop
  endfacet
  facet normal 0 0 -1
    outer loop
      vertex 10.7596 2.28703 0
      vertex 12.7159 2.70285 0
      vertex 11 0 0
    endloop
  endfacet
  facet normal 0 0 -1
    outer loop
      vertex 10.049 4.4741 0
      vertex 11.8761 5.28758 0
      vertex 10.7596 2.28703 0
    endloop
  endfacet
  facet normal 0 0 -1
    outer loop
      vertex 11 0 0
      vertex 13 0 0
      vertex 10.7596 -2.28703 0
    endloop
  endfacet
  facet normal 0 0 -1
    outer loop
      vertex 10.7596 -2.28703 0
      vertex 12.7159 -2.70285 0
      vertex 10.049 -4.4741 0
    endloop
  endfacet
  facet normal 0 0 -1
    outer loop
      vertex 10.049 -4.4741 0
      vertex 11.8761 -5.28758 0
      vertex 8.89919 -6.46564 0
    endloop
  endfacet
  facet normal 0 0 -1
    outer loop
      vertex 8.89919 -6.46564 0
      vertex 10.5172 -7.64121 0
      vertex 7.36044 -8.17459 0
    endloop
  endfacet
  facet normal 0 0 -1
    outer loop
      vertex 7.36044 -8.17459 0
      vertex 8.6987 -9.66088 0
      vertex 5.5 -9.52628 0
    endloop
  endfacet
  facet normal 0 0 -1
    outer loop
      vertex 5.5 -9.52628 0
      vertex 6.5 -11.2583 0
      vertex 3.39919 -10.4616 0
    endloop
  endfacet
  facet normal 0 0 -1
    outer loop
      vertex -5.5 9.52628 0
      vertex -4.01722 12.3637 0
      vertex -3.39919 10.4616 0
    endloop
  endfacet
  facet normal 0 0 -1
    outer loop
      vertex -7.36044 8.17459 0
      vertex -4.01722 12.3637 0
      vertex -5.5 9.52628 0
    endloop
  endfacet
  facet normal 0 0 -1
    outer loop
      vertex -3.39919 10.4616 0
      vertex -1.35887 12.9288 0
      vertex -1.14981 10.9397 0
    endloop
  endfacet
  facet normal 0 0 -1
    outer loop
      vertex -10.049 4.4741 0
      vertex -8.6987 9.66088 0
      vertex -8.89919 6.46564 0
    endloop
  endfacet
  facet normal 0 0 -1
    outer loop
      vertex -12.7159 -2.70285 0
      vertex -8.6987 9.66088 0
      vertex -10.049 4.4741 0
    endloop
  endfacet
  facet normal 0 0 -1
    outer loop
      vertex -12.7159 -2.70285 0
      vertex -10.049 4.4741 0
      vertex -10.7596 2.28703 0
    endloop
  endfacet
  facet normal 0 0 -1
    outer loop
      vertex -1.14981 10.9397 0
      vertex 1.35887 12.9288 0
      vertex 1.14981 10.9397 0
    endloop
  endfacet
  facet normal 0 0 -1
    outer loop
      vertex -11 0 0
      vertex -12.7159 -2.70285 0
      vertex -10.7596 2.28703 0
    endloop
  endfacet
  facet normal 0 0 -1
    outer loop
      vertex -8.89919 6.46564 0
      vertex -6.5 11.2583 0
      vertex -7.36044 8.17459 0
    endloop
  endfacet
  facet normal 0 0 -1
    outer loop
      vertex 1.14981 10.9397 0
      vertex 4.01722 12.3637 0
      vertex 3.39919 10.4616 0
    endloop
  endfacet
  facet normal 0 0 -1
    outer loop
      vertex 3.39919 10.4616 0
      vertex 6.5 11.2583 0
      vertex 5.5 9.52628 0
    endloop
  endfacet
  facet normal 0 0 -1
    outer loop
      vertex 5.5 9.52628 0
      vertex 8.6987 9.66088 0
      vertex 7.36044 8.17459 0
    endloop
  endfacet
  facet normal 0 0 -1
    outer loop
      vertex 7.36044 8.17459 0
      vertex 10.5172 7.64121 0
      vertex 8.89919 6.46564 0
    endloop
  endfacet
  facet normal 0 0 -1
    outer loop
      vertex 8.89919 6.46564 0
      vertex 11.8761 5.28758 0
      vertex 10.049 4.4741 0
    endloop
  endfacet
  facet normal -0.994522 0.104528 0
    outer loop
      vertex -13 0 0
      vertex -13 0 18
      vertex -12.7159 2.70285 0
    endloop
  endfacet
  facet normal -0.994522 0.104528 0
    outer loop
      vertex -12.7159 2.70285 0
      vertex -13 0 18
      vertex -12.7159 2.70285 18
    endloop
  endfacet
  facet normal -0.994522 -0.104528 0
    outer loop
      vertex -13 0 0
      vertex -12.7159 -2.70285 0
      vertex -13 0 18
    endloop
  endfacet
  facet normal -0.994522 -0.104528 0
    outer loop
      vertex -13 0 18
      vertex -12.7159 -2.70285 0
      vertex -12.7159 -2.70285 18
    endloop
  endfacet
  facet normal -0.951056 -0.309017 0
    outer loop
      vertex -12.7159 -2.70285 0
      vertex -11.8761 -5.28758 0
      vertex -12.7159 -2.70285 18
    endloop
  endfacet
  facet normal -0.951056 -0.309017 0
    outer loop
      vertex -12.7159 -2.70285 18
      vertex -11.8761 -5.28758 0
      vertex -11.8761 -5.28758 18
    endloop
  endfacet
  facet normal -0.866025 -0.5 0
    outer loop
      vertex -11.8761 -5.28758 0
      vertex -10.5172 -7.64121 0
      vertex -11.8761 -5.28758 18
    endloop
  endfacet
  facet normal -0.866025 -0.5 0
    outer loop
      vertex -11.8761 -5.28758 18
      vertex -10.5172 -7.64121 0
      vertex -10.5172 -7.64121 18
    endloop
  endfacet
  facet normal -0.743145 -0.66913 0
    outer loop
      vertex -10.5172 -7.64121 0
      vertex -8.6987 -9.66088 0
      vertex -10.5172 -7.64121 18
    endloop
  endfacet
  facet normal -0.743145 -0.66913 0
    outer loop
      vertex -10.5172 -7.64121 18
      vertex -8.6987 -9.66088 0
      vertex -8.6987 -9.66088 18
    endloop
  endfacet
  facet normal -0.587785 -0.809017 0
    outer loop
      vertex -8.6987 -9.66088 18
      vertex -8.6987 -9.66088 0
      vertex -6.5 -11.2583 0
    endloop
  endfacet
  facet normal -0.587785 -0.809017 0
    outer loop
      vertex -6.5 -11.2583 18
      vertex -8.6987 -9.66088 18
      vertex -6.5 -11.2583 0
    endloop
  endfacet
  facet normal -0.406737 -0.913545 0
    outer loop
      vertex -6.5 -11.2583 18
      vertex -6.5 -11.2583 0
      vertex -4.01722 -12.3637 0
    endloop
  endfacet
  facet normal -0.406737 -0.913545 0
    outer loop
      vertex -4.01722 -12.3637 18
      vertex -6.5 -11.2583 18
      vertex -4.01722 -12.3637 0
    endloop
  endfacet
  facet normal -0.207912 -0.978148 0
    outer loop
      vertex -4.01722 -12.3637 18
      vertex -4.01722 -12.3637 0
      vertex -1.35887 -12.9288 0
    endloop
  endfacet
  facet normal -0.207912 -0.978148 0
    outer loop
      vertex -1.35887 -12.9288 18
      vertex -4.01722 -12.3637 18
      vertex -1.35887 -12.9288 0
    endloop
  endfacet
  facet normal 0 -1 0
    outer loop
      vertex -1.35887 -12.9288 18
      vertex -1.35887 -12.9288 0
      vertex 1.35887 -12.9288 0
    endloop
  endfacet
  facet normal 0 -1 0
    outer loop
      vertex 1.35887 -12.9288 18
      vertex -1.35887 -12.9288 18
      vertex 1.35887 -12.9288 0
    endloop
  endfacet
  facet normal 0.207912 -0.978148 0
    outer loop
      vertex 1.35887 -12.9288 18
      vertex 1.35887 -12.9288 0
      vertex 4.01722 -12.3637 0
    endloop
  endfacet
  facet normal 0.207912 -0.978148 0
    outer loop
      vertex 4.01722 -12.3637 18
      vertex 1.35887 -12.9288 18
      vertex 4.01722 -12.3637 0
    endloop
  endfacet
  facet normal 0.406737 -0.913545 0
    outer loop
      vertex 4.01722 -12.3637 18
      vertex 4.01722 -12.3637 0
      vertex 6.5 -11.2583 0
    endloop
  endfacet
  facet normal 0.406737 -0.913545 0
    outer loop
      vertex 6.5 -11.2583 18
      vertex 4.01722 -12.3637 18
      vertex 6.5 -11.2583 0
    endloop
  endfacet
  facet normal 0.587785 -0.809017 0
    outer loop
      vertex 6.5 -11.2583 18
      vertex 6.5 -11.2583 0
      vertex 8.6987 -9.66088 0
    endloop
  endfacet
  facet normal 0.587785 -0.809017 0
    outer loop
      vertex 8.6987 -9.66088 18
      vertex 6.5 -11.2583 18
      vertex 8.6987 -9.66088 0
    endloop
  endfacet
  facet normal 0.743145 -0.66913 0
    outer loop
      vertex 8.6987 -9.66088 18
      vertex 8.6987 -9.66088 0
      vertex 10.5172 -7.64121 0
    endloop
  endfacet
  facet normal 0.743145 -0.66913 0
    outer loop
      vertex 10.5172 -7.64121 18
      vertex 8.6987 -9.66088 18
      vertex 10.5172 -7.64121 0
    endloop
  endfacet
  facet normal 0.866025 -0.5 0
    outer loop
      vertex 10.5172 -7.64121 18
      vertex 10.5172 -7.64121 0
      vertex 11.8761 -5.28758 0
    endloop
  endfacet
  facet normal 0.866025 -0.5 0
    outer loop
      vertex 11.8761 -5.28758 18
      vertex 10.5172 -7.64121 18
      vertex 11.8761 -5.28758 0
    endloop
  endfacet
  facet normal 0.951056 -0.309017 0
    outer loop
      vertex 11.8761 -5.28758 18
      vertex 11.8761 -5.28758 0
      vertex 12.7159 -2.70285 0
    endloop
  endfacet
  facet normal 0.951056 -0.309017 0
    outer loop
      vertex 12.7159 -2.70285 18
      vertex 11.8761 -5.28758 18
      vertex 12.7159 -2.70285 0
    endloop
  endfacet
  facet normal 0.994522 -0.104528 0
    outer loop
      vertex 12.8686 -1.25 8
      vertex 12.7159 -2.70285 0
      vertex 13 0 0
    endloop
  endfacet
  facet normal 0.994522 -0.104528 0
    outer loop
      vertex 12.8686 -1.25 8
      vertex 12.8686 -1.25 18
      vertex 12.7159 -2.70285 18
    endloop
  endfacet
  facet normal 0.994522 -0.104528 0
    outer loop
      vertex 12.7159 -2.70285 18
      vertex 12.7159 -2.70285 0
      vertex 12.8686 -1.25 8
    endloop
  endfacet
  facet normal 0.994522 -0.104528 0
    outer loop
      vertex 13 0 8
      vertex 12.8686 -1.25 8
      vertex 13 0 0
    endloop
  endfacet
  facet normal 0.994522 0.104528 0
    outer loop
      vertex 12.8686 1.25 8
      vertex 12.7159 2.70285 0
      vertex 12.7159 2.70285 18
    endloop
  endfacet
  facet normal 0.994522 0.104528 0
    outer loop
      vertex 12.8686 1.25 8
      vertex 13 0 8
      vertex 13 0 0
    endloop
  endfacet
  facet normal 0.994522 0.104528 0
    outer loop
      vertex 13 0 0
      vertex 12.7159 2.70285 0
      vertex 12.8686 1.25 8
    endloop
  endfacet
  facet normal 0.994522 0.104528 0
    outer loop
      vertex 12.8686 1.25 18
      vertex 12.8686 1.25 8
      vertex 12.7159 2.70285 18
    endloop
  endfacet
  facet normal 0.951056 0.309017 0
    outer loop
      vertex 12.7159 2.70285 0
      vertex 11.8761 5.28758 0
      vertex 11.8761 5.28758 18
    endloop
  endfacet
  facet normal 0.951056 0.309017 0
    outer loop
      vertex 12.7159 2.70285 18
      vertex 12.7159 2.70285 0
      vertex 11.8761 5.28758 18
    endloop
  endfacet
  facet normal 0.866025 0.5 0
    outer loop
      vertex 11.8761 5.28758 0
      vertex 10.5172 7.64121 0
      vertex 10.5172 7.64121 18
    endloop
  endfacet
  facet normal 0.866025 0.5 0
    outer loop
      vertex 11.8761 5.28758 18
      vertex 11.8761 5.28758 0
      vertex 10.5172 7.64121 18
    endloop
  endfacet
  facet normal 0.743145 0.66913 0
    outer loop
      vertex 10.5172 7.64121 0
      vertex 8.6987 9.66088 0
      vertex 8.6987 9.66088 18
    endloop
  endfacet
  facet normal 0.743145 0.66913 0
    outer loop
      vertex 10.5172 7.64121 18
      vertex 10.5172 7.64121 0
      vertex 8.6987 9.66088 18
    endloop
  endfacet
  facet normal 0.587785 0.809017 0
    outer loop
      vertex 6.5 11.2583 0
      vertex 6.5 11.2583 18
      vertex 8.6987 9.66088 0
    endloop
  endfacet
  facet normal 0.587785 0.809017 0
    outer loop
      vertex 8.6987 9.66088 0
      vertex 6.5 11.2583 18
      vertex 8.6987 9.66088 18
    endloop
  endfacet
  facet normal 0.406737 0.913545 0
    outer loop
      vertex 4.01722 12.3637 0
      vertex 4.01722 12.3637 18
      vertex 6.5 11.2583 0
    endloop
  endfacet
  facet normal 0.406737 0.913545 0
    outer loop
      vertex 6.5 11.2583 0
      vertex 4.01722 12.3637 18
      vertex 6.5 11.2583 18
    endloop
  endfacet
  facet normal 0.207912 0.978148 0
    outer loop
      vertex 1.35887 12.9288 0
      vertex 1.35887 12.9288 18
      vertex 4.01722 12.3637 0
    endloop
  endfacet
  facet normal 0.207912 0.978148 0
    outer loop
      vertex 4.01722 12.3637 0
      vertex 1.35887 12.9288 18
      vertex 4.01722 12.3637 18
    endloop
  endfacet
  facet normal 0 1 0
    outer loop
      vertex -1.35887 12.9288 0
      vertex -1.35887 12.9288 18
      vertex 1.35887 12.9288 0
    endloop
  endfacet
  facet normal 0 1 0
    outer loop
      vertex 1.35887 12.9288 0
      vertex -1.35887 12.9288 18
      vertex 1.35887 12.9288 18
    endloop
  endfacet
  facet normal -0.207912 0.978148 0
    outer loop
      vertex -4.01722 12.3637 0
      vertex -4.01722 12.3637 18
      vertex -1.35887 12.9288 0
    endloop
  endfacet
  facet normal -0.207912 0.978148 0
    outer loop
      vertex -1.35887 12.9288 0
      vertex -4.01722 12.3637 18
      vertex -1.35887 12.9288 18
    endloop
  endfacet
  facet normal -0.406737 0.913545 0
    outer loop
      vertex -6.5 11.2583 0
      vertex -6.5 11.2583 18
      vertex -4.01722 12.3637 0
    endloop
  endfacet
  facet normal -0.406737 0.913545 0
    outer loop
      vertex -4.01722 12.3637 0
      vertex -6.5 11.2583 18
      vertex -4.01722 12.3637 18
    endloop
  endfacet
  facet normal -0.587785 0.809017 0
    outer loop
      vertex -8.6987 9.66088 0
      vertex -8.6987 9.66088 18
      vertex -6.5 11.2583 0
    endloop
  endfacet
  facet normal -0.587785 0.809017 0
    outer loop
      vertex -6.5 11.2583 0
      vertex -8.6987 9.66088 18
      vertex -6.5 11.2583 18
    endloop
  endfacet
  facet normal -0.743145 0.66913 0
    outer loop
      vertex -10.5172 7.64121 0
      vertex -10.5172 7.64121 18
      vertex -8.6987 9.66088 0
    endloop
  endfacet
  facet normal -0.743145 0.66913 0
    outer loop
      vertex -8.6987 9.66088 0
      vertex -10.5172 7.64121 18
      vertex -8.6987 9.66088 18
    endloop
  endfacet
  facet normal -0.866025 0.5 0
    outer loop
      vertex -11.8761 5.28758 0
      vertex -11.8761 5.28758 18
      vertex -10.5172 7.64121 0
    endloop
  endfacet
  facet normal -0.866025 0.5 0
    outer loop
      vertex -10.5172 7.64121 0
      vertex -11.8761 5.28758 18
      vertex -10.5172 7.64121 18
    endloop
  endfacet
  facet normal -0.951056 0.309017 0
    outer loop
      vertex -12.7159 2.70285 0
      vertex -12.7159 2.70285 18
      vertex -11.8761 5.28758 0
    endloop
  endfacet
  facet normal -0.951056 0.309017 0
    outer loop
      vertex -11.8761 5.28758 0
      vertex -12.7159 2.70285 18
      vertex -11.8761 5.28758 18
    endloop
  endfacet
  facet normal 0.994522 -0.104528 0
    outer loop
      vertex -10.7596 2.28703 0
      vertex -10.7596 2.28703 6
      vertex -11 0 6
    endloop
  endfacet
  facet normal 0.994522 -0.104528 0
    outer loop
      vertex -11 0 0
      vertex -10.7596 2.28703 0
      vertex -11 0 6
    endloop
  endfacet
  facet normal 0.994522 0.104528 0
    outer loop
      vertex -11 0 6
      vertex -10.7596 -2.28703 6
      vertex -10.7596 -2.28703 0
    endloop
  endfacet
  facet normal 0.994522 0.104528 0
    outer loop
      vertex -11 0 0
      vertex -11 0 6
      vertex -10.7596 -2.28703 0
    endloop
  endfacet
  facet normal 0.951056 -0.309017 0
    outer loop
      vertex -10.049 4.4741 0
      vertex -10.049 4.4741 6
      vertex -10.7596 2.28703 6
    endloop
  endfacet
  facet normal 0.951056 -0.309017 0
    outer loop
      vertex -10.7596 2.28703 0
      vertex -10.049 4.4741 0
      vertex -10.7596 2.28703 6
    endloop
  endfacet
  facet normal 0.866025 -0.5 0
    outer loop
      vertex -8.89919 6.46564 0
      vertex -8.89919 6.46564 6
      vertex -10.049 4.4741 6
    endloop
  endfacet
  facet normal 0.866025 -0.5 0
    outer loop
      vertex -10.049 4.4741 0
      vertex -8.89919 6.46564 0
      vertex -10.049 4.4741 6
    endloop
  endfacet
  facet normal 0.743145 -0.669131 0
    outer loop
      vertex -7.36044 8.17459 0
      vertex -7.36044 8.17459 6
      vertex -8.89919 6.46564 6
    endloop
  endfacet
  facet normal 0.743145 -0.669131 0
    outer loop
      vertex -8.89919 6.46564 0
      vertex -7.36044 8.17459 0
      vertex -8.89919 6.46564 6
    endloop
  endfacet
  facet normal 0.587785 -0.809017 0
    outer loop
      vertex -5.5 9.52628 0
      vertex -5.5 9.52628 6
      vertex -7.36044 8.17459 6
    endloop
  endfacet
  facet normal 0.587785 -0.809017 0
    outer loop
      vertex -7.36044 8.17459 0
      vertex -5.5 9.52628 0
      vertex -7.36044 8.17459 6
    endloop
  endfacet
  facet normal 0.406737 -0.913545 0
    outer loop
      vertex -3.39919 10.4616 0
      vertex -3.39919 10.4616 6
      vertex -5.5 9.52628 6
    endloop
  endfacet
  facet normal 0.406737 -0.913545 0
    outer loop
      vertex -5.5 9.52628 0
      vertex -3.39919 10.4616 0
      vertex -5.5 9.52628 6
    endloop
  endfacet
  facet normal 0.207912 -0.978148 0
    outer loop
      vertex -1.14981 10.9397 0
      vertex -1.14981 10.9397 6
      vertex -3.39919 10.4616 6
    endloop
  endfacet
  facet normal 0.207912 -0.978148 0
    outer loop
      vertex -3.39919 10.4616 0
      vertex -1.14981 10.9397 0
      vertex -3.39919 10.4616 6
    endloop
  endfacet
  facet normal 0 -1 0
    outer loop
      vertex 1.14981 10.9397 0
      vertex 1.14981 10.9397 6
      vertex -1.14981 10.9397 6
    endloop
  endfacet
  facet normal 0 -1 0
    outer loop
      vertex -1.14981 10.9397 0
      vertex 1.14981 10.9397 0
      vertex -1.14981 10.9397 6
    endloop
  endfacet
  facet normal -0.207912 -0.978148 0
    outer loop
      vertex 3.39919 10.4616 0
      vertex 3.39919 10.4616 6
      vertex 1.14981 10.9397 6
    endloop
  endfacet
  facet normal -0.207912 -0.978148 0
    outer loop
      vertex 1.14981 10.9397 0
      vertex 3.39919 10.4616 0
      vertex 1.14981 10.9397 6
    endloop
  endfacet
  facet normal -0.406737 -0.913545 0
    outer loop
      vertex 5.5 9.52628 0
      vertex 5.5 9.52628 6
      vertex 3.39919 10.4616 6
    endloop
  endfacet
  facet normal -0.406737 -0.913545 0
    outer loop
      vertex 3.39919 10.4616 0
      vertex 5.5 9.52628 0
      vertex 3.39919 10.4616 6
    endloop
  endfacet
  facet normal -0.587785 -0.809017 0
    outer loop
      vertex 7.36044 8.17459 0
      vertex 7.36044 8.17459 6
      vertex 5.5 9.52628 6
    endloop
  endfacet
  facet normal -0.587785 -0.809017 0
    outer loop
      vertex 5.5 9.52628 0
      vertex 7.36044 8.17459 0
      vertex 5.5 9.52628 6
    endloop
  endfacet
  facet normal -0.743145 -0.669131 0
    outer loop
      vertex 8.89919 6.46564 6
      vertex 7.36044 8.17459 6
      vertex 8.89919 6.46564 0
    endloop
  endfacet
  facet normal -0.743145 -0.669131 0
    outer loop
      vertex 8.89919 6.46564 0
      vertex 7.36044 8.17459 6
      vertex 7.36044 8.17459 0
    endloop
  endfacet
  facet normal -0.866025 -0.5 0
    outer loop
      vertex 10.049 4.4741 6
      vertex 8.89919 6.46564 6
      vertex 10.049 4.4741 0
    endloop
  endfacet
  facet normal -0.866025 -0.5 0
    outer loop
      vertex 10.049 4.4741 0
      vertex 8.89919 6.46564 6
      vertex 8.89919 6.46564 0
    endloop
  endfacet
  facet normal -0.951056 -0.309017 0
    outer loop
      vertex 10.7596 2.28703 6
      vertex 10.049 4.4741 6
      vertex 10.7596 2.28703 0
    endloop
  endfacet
  facet normal -0.951056 -0.309017 0
    outer loop
      vertex 10.7596 2.28703 0
      vertex 10.049 4.4741 6
      vertex 10.049 4.4741 0
    endloop
  endfacet
  facet normal -0.994522 -0.104528 0
    outer loop
      vertex 11 0 6
      vertex 10.7596 2.28703 6
      vertex 11 0 0
    endloop
  endfacet
  facet normal -0.994522 -0.104528 0
    outer loop
      vertex 11 0 0
      vertex 10.7596 2.28703 6
      vertex 10.7596 2.28703 0
    endloop
  endfacet
  facet normal -0.994522 0.104528 0
    outer loop
      vertex 11 0 6
      vertex 11 0 0
      vertex 10.7596 -2.28703 6
    endloop
  endfacet
  facet normal -0.994522 0.104528 0
    outer loop
      vertex 10.7596 -2.28703 6
      vertex 11 0 0
      vertex 10.7596 -2.28703 0
    endloop
  endfacet
  facet normal -0.951056 0.309017 0
    outer loop
      vertex 10.7596 -2.28703 6
      vertex 10.7596 -2.28703 0
      vertex 10.049 -4.4741 6
    endloop
  endfacet
  facet normal -0.951056 0.309017 0
    outer loop
      vertex 10.049 -4.4741 6
      vertex 10.7596 -2.28703 0
      vertex 10.049 -4.4741 0
    endloop
  endfacet
  facet normal -0.866025 0.5 0
    outer loop
      vertex 10.049 -4.4741 6
      vertex 10.049 -4.4741 0
      vertex 8.89919 -6.46564 6
    endloop
  endfacet
  facet normal -0.866025 0.5 0
    outer loop
      vertex 8.89919 -6.46564 6
      vertex 10.049 -4.4741 0
      vertex 8.89919 -6.46564 0
    endloop
  endfacet
  facet normal -0.743145 0.669131 0
    outer loop
      vertex 8.89919 -6.46564 6
      vertex 8.89919 -6.46564 0
      vertex 7.36044 -8.17459 6
    endloop
  endfacet
  facet normal -0.743145 0.669131 0
    outer loop
      vertex 7.36044 -8.17459 6
      vertex 8.89919 -6.46564 0
      vertex 7.36044 -8.17459 0
    endloop
  endfacet
  facet normal -0.587785 0.809017 0
    outer loop
      vertex 7.36044 -8.17459 6
      vertex 7.36044 -8.17459 0
      vertex 5.5 -9.52628 6
    endloop
  endfacet
  facet normal -0.587785 0.809017 0
    outer loop
      vertex 5.5 -9.52628 6
      vertex 7.36044 -8.17459 0
      vertex 5.5 -9.52628 0
    endloop
  endfacet
  facet normal -0.406737 0.913545 0
    outer loop
      vertex 5.5 -9.52628 6
      vertex 5.5 -9.52628 0
      vertex 3.39919 -10.4616 6
    endloop
  endfacet
  facet normal -0.406737 0.913545 0
    outer loop
      vertex 3.39919 -10.4616 6
      vertex 5.5 -9.52628 0
      vertex 3.39919 -10.4616 0
    endloop
  endfacet
  facet normal -0.207912 0.978148 0
    outer loop
      vertex 3.39919 -10.4616 6
      vertex 3.39919 -10.4616 0
      vertex 1.14981 -10.9397 6
    endloop
  endfacet
  facet normal -0.207912 0.978148 0
    outer loop
      vertex 1.14981 -10.9397 6
      vertex 3.39919 -10.4616 0
      vertex 1.14981 -10.9397 0
    endloop
  endfacet
  facet normal 0 1 0
    outer loop
      vertex 1.14981 -10.9397 6
      vertex 1.14981 -10.9397 0
      vertex -1.14981 -10.9397 6
    endloop
  endfacet
  facet normal 0 1 0
    outer loop
      vertex -1.14981 -10.9397 6
      vertex 1.14981 -10.9397 0
      vertex -1.14981 -10.9397 0
    endloop
  endfacet
  facet normal 0.207912 0.978148 0
    outer loop
      vertex -1.14981 -10.9397 6
      vertex -1.14981 -10.9397 0
      vertex -3.39919 -10.4616 6
    endloop
  endfacet
  facet normal 0.207912 0.978148 0
    outer loop
      vertex -3.39919 -10.4616 6
      vertex -1.14981 -10.9397 0
      vertex -3.39919 -10.4616 0
    endloop
  endfacet
  facet normal 0.406737 0.913545 0
    outer loop
      vertex -3.39919 -10.4616 6
      vertex -3.39919 -10.4616 0
      vertex -5.5 -9.52628 6
    endloop
  endfacet
  facet normal 0.406737 0.913545 0
    outer loop
      vertex -5.5 -9.52628 6
      vertex -3.39919 -10.4616 0
      vertex -5.5 -9.52628 0
    endloop
  endfacet
  facet normal 0.587785 0.809017 0
    outer loop
      vertex -5.5 -9.52628 6
      vertex -5.5 -9.52628 0
      vertex -7.36044 -8.17459 6
    endloop
  endfacet
  facet normal 0.587785 0.809017 0
    outer loop
      vertex -7.36044 -8.17459 6
      vertex -5.5 -9.52628 0
      vertex -7.36044 -8.17459 0
    endloop
  endfacet
  facet normal 0.743145 0.669131 0
    outer loop
      vertex -8.89919 -6.46564 6
      vertex -7.36044 -8.17459 6
      vertex -7.36044 -8.17459 0
    endloop
  endfacet
  facet normal 0.743145 0.669131 0
    outer loop
      vertex -8.89919 -6.46564 0
      vertex -8.89919 -6.46564 6
      vertex -7.36044 -8.17459 0
    endloop
  endfacet
  facet normal 0.866025 0.5 0
    outer loop
      vertex -10.049 -4.4741 6
      vertex -8.89919 -6.46564 6
      vertex -8.89919 -6.46564 0
    endloop
  endfacet
  facet normal 0.866025 0.5 0
    outer loop
      vertex -10.049 -4.4741 0
      vertex -10.049 -4.4741 6
      vertex -8.89919 -6.46564 0
    endloop
  endfacet
  facet normal 0.951056 0.309017 0
    outer loop
      vertex -10.7596 -2.28703 6
      vertex -10.049 -4.4741 6
      vertex -10.049 -4.4741 0
    endloop
  endfacet
  facet normal 0.951056 0.309017 0
    outer loop
      vertex -10.7596 -2.28703 0
      vertex -10.7596 -2.28703 6
      vertex -10.049 -4.4741 0
    endloop
  endfacet
  facet normal 0 0 1
    outer loop
      vertex -12.7159 2.70285 18
      vertex -13 0 18
      vertex -12.7159 -2.70285 18
    endloop
  endfacet
  facet normal 0 0 1
    outer loop
      vertex -10.5172 -7.64121 18
      vertex -12.7159 2.70285 18
      vertex -11.8761 -5.28758 18
    endloop
  endfacet
  facet normal 0 0 1
    outer loop
      vertex -11.8761 -5.28758 18
      vertex -12.7159 2.70285 18
      vertex -12.7159 -2.70285 18
    endloop
  endfacet
  facet normal 0 0 1
    outer loop
      vertex -8.6987 -9.66088 18
      vertex -12.7159 2.70285 18
      vertex -10.5172 -7.64121 18
    endloop
  endfacet
  facet normal 0 0 1
    outer loop
      vertex -10.7596 -2.28703 18
      vertex -12.7159 2.70285 18
      vertex -8.6987 -9.66088 18
    endloop
  endfacet
  facet normal 0 0 1
    outer loop
      vertex 8.89919 -6.46564 18
      vertex 7.36044 -8.17459 18
      vertex 10.5172 -7.64121 18
    endloop
  endfacet
  facet normal 0 0 1
    outer loop
      vertex -1.14981 -10.9397 18
      vertex -3.39919 -10.4616 18
      vertex -1.35887 -12.9288 18
    endloop
  endfacet
  facet normal 0 0 1
    outer loop
      vertex 10.7596 2.28703 18
      vertex 11 0 18
      vertex 12.8686 1.25 18
    endloop
  endfacet
  facet normal 0 0 1
    outer loop
      vertex 10.049 4.4741 18
      vertex 10.7596 2.28703 18
      vertex 12.7159 2.70285 18
    endloop
  endfacet
  facet normal 0 0 1
    outer loop
      vertex 8.89919 6.46564 18
      vertex 10.049 4.4741 18
      vertex 11.8761 5.28758 18
    endloop
  endfacet
  facet normal 0 0 1
    outer loop
      vertex 7.36044 8.17459 18
      vertex 8.89919 6.46564 18
      vertex 10.5172 7.64121 18
    endloop
  endfacet
  facet normal 0 0 1
    outer loop
      vertex 15.25 1.25 18
      vertex 12.8686 1.25 18
      vertex 15.25 -1.25 18
    endloop
  endfacet
  facet normal 0 0 1
    outer loop
      vertex 11 0 18
      vertex 10.7596 -2.28703 18
      vertex 12.7159 -2.70285 18
    endloop
  endfacet
  facet normal 0 0 1
    outer loop
      vertex 1.14981 10.9397 18
      vertex 3.39919 10.4616 18
      vertex 4.01722 12.3637 18
    endloop
  endfacet
  facet normal 0 0 1
    outer loop
      vertex -3.39919 10.4616 18
      vertex -1.14981 10.9397 18
      vertex 1.35887 12.9288 18
    endloop
  endfacet
  facet normal 0 0 1
    outer loop
      vertex -6.5 11.2583 18
      vertex -12.7159 2.70285 18
      vertex -4.01722 12.3637 18
    endloop
  endfacet
  facet normal 0 0 1
    outer loop
      vertex -8.6987 9.66088 18
      vertex -12.7159 2.70285 18
      vertex -6.5 11.2583 18
    endloop
  endfacet
  facet normal 0 0 1
    outer loop
      vertex -10.5172 7.64121 18
      vertex -12.7159 2.70285 18
      vertex -8.6987 9.66088 18
    endloop
  endfacet
  facet normal 0 0 1
    outer loop
      vertex -11.8761 5.28758 18
      vertex -12.7159 2.70285 18
      vertex -10.5172 7.64121 18
    endloop
  endfacet
  facet normal 0 0 1
    outer loop
      vertex -10.049 -4.4741 18
      vertex -10.7596 -2.28703 18
      vertex -8.6987 -9.66088 18
    endloop
  endfacet
  facet normal 0 0 1
    outer loop
      vertex -10.7596 2.28703 18
      vertex -10.049 4.4741 18
      vertex -12.7159 2.70285 18
    endloop
  endfacet
  facet normal 0 0 1
    outer loop
      vertex 10.049 -4.4741 18
      vertex 8.89919 -6.46564 18
      vertex 11.8761 -5.28758 18
    endloop
  endfacet
  facet normal 0 0 1
    outer loop
      vertex 3.39919 10.4616 18
      vertex 5.5 9.52628 18
      vertex 6.5 11.2583 18
    endloop
  endfacet
  facet normal 0 0 1
    outer loop
      vertex 11 0 18
      vertex 12.7159 -2.70285 18
      vertex 12.8686 -1.25 18
    endloop
  endfacet
  facet normal 0 0 1
    outer loop
      vertex -4.01722 12.3637 18
      vertex -12.7159 2.70285 18
      vertex -8.89919 6.46564 18
    endloop
  endfacet
  facet normal 0 0 1
    outer loop
      vertex -4.01722 12.3637 18
      vertex -7.36044 8.17459 18
      vertex -1.35887 12.9288 18
    endloop
  endfacet
  facet normal 0 0 1
    outer loop
      vertex -4.01722 12.3637 18
      vertex -8.89919 6.46564 18
      vertex -7.36044 8.17459 18
    endloop
  endfacet
  facet normal 0 0 1
    outer loop
      vertex -7.36044 8.17459 18
      vertex -5.5 9.52628 18
      vertex -1.35887 12.9288 18
    endloop
  endfacet
  facet normal 0 0 1
    outer loop
      vertex -1.35887 12.9288 18
      vertex -3.39919 10.4616 18
      vertex 1.35887 12.9288 18
    endloop
  endfacet
  facet normal 0 0 1
    outer loop
      vertex -5.5 9.52628 18
      vertex -3.39919 10.4616 18
      vertex -1.35887 12.9288 18
    endloop
  endfacet
  facet normal 0 0 1
    outer loop
      vertex 1.35887 12.9288 18
      vertex -1.14981 10.9397 18
      vertex 4.01722 12.3637 18
    endloop
  endfacet
  facet normal 0 0 1
    outer loop
      vertex -1.14981 10.9397 18
      vertex 1.14981 10.9397 18
      vertex 4.01722 12.3637 18
    endloop
  endfacet
  facet normal 0 0 1
    outer loop
      vertex 4.01722 12.3637 18
      vertex 3.39919 10.4616 18
      vertex 6.5 11.2583 18
    endloop
  endfacet
  facet normal 0 0 1
    outer loop
      vertex 11 0 18
      vertex 12.8686 -1.25 18
      vertex 15.25 -1.25 18
    endloop
  endfacet
  facet normal 0 0 1
    outer loop
      vertex 6.5 11.2583 18
      vertex 5.5 9.52628 18
      vertex 8.6987 9.66088 18
    endloop
  endfacet
  facet normal 0 0 1
    outer loop
      vertex -10.049 4.4741 18
      vertex -8.89919 6.46564 18
      vertex -12.7159 2.70285 18
    endloop
  endfacet
  facet normal 0 0 1
    outer loop
      vertex 8.6987 9.66088 18
      vertex 7.36044 8.17459 18
      vertex 10.5172 7.64121 18
    endloop
  endfacet
  facet normal 0 0 1
    outer loop
      vertex 10.5172 7.64121 18
      vertex 8.89919 6.46564 18
      vertex 11.8761 5.28758 18
    endloop
  endfacet
  facet normal 0 0 1
    outer loop
      vertex 11.8761 5.28758 18
      vertex 10.049 4.4741 18
      vertex 12.7159 2.70285 18
    endloop
  endfacet
  facet normal 0 0 1
    outer loop
      vertex 12.8686 1.25 18
      vertex 11 0 18
      vertex 15.25 -1.25 18
    endloop
  endfacet
  facet normal 0 0 1
    outer loop
      vertex 12.7159 -2.70285 18
      vertex 10.7596 -2.28703 18
      vertex 11.8761 -5.28758 18
    endloop
  endfacet
  facet normal 0 0 1
    outer loop
      vertex 5.5 9.52628 18
      vertex 7.36044 8.17459 18
      vertex 8.6987 9.66088 18
    endloop
  endfacet
  facet normal 0 0 1
    outer loop
      vertex 10.7596 -2.28703 18
      vertex 10.049 -4.4741 18
      vertex 11.8761 -5.28758 18
    endloop
  endfacet
  facet normal 0 0 1
    outer loop
      vertex 11.8761 -5.28758 18
      vertex 8.89919 -6.46564 18
      vertex 10.5172 -7.64121 18
    endloop
  endfacet
  facet normal 0 0 1
    outer loop
      vertex 10.5172 -7.64121 18
      vertex 7.36044 -8.17459 18
      vertex 8.6987 -9.66088 18
    endloop
  endfacet
  facet normal 0 0 1
    outer loop
      vertex 8.6987 -9.66088 18
      vertex 5.5 -9.52628 18
      vertex 6.5 -11.2583 18
    endloop
  endfacet
  facet normal 0 0 1
    outer loop
      vertex 6.5 -11.2583 18
      vertex 3.39919 -10.4616 18
      vertex 4.01722 -12.3637 18
    endloop
  endfacet
  facet normal 0 0 1
    outer loop
      vertex 4.01722 -12.3637 18
      vertex 1.14981 -10.9397 18
      vertex 1.35887 -12.9288 18
    endloop
  endfacet
  facet normal 0 0 1
    outer loop
      vertex 1.35887 -12.9288 18
      vertex -1.14981 -10.9397 18
      vertex -1.35887 -12.9288 18
    endloop
  endfacet
  facet normal 0 0 1
    outer loop
      vertex -1.35887 -12.9288 18
      vertex -3.39919 -10.4616 18
      vertex -4.01722 -12.3637 18
    endloop
  endfacet
  facet normal 0 0 1
    outer loop
      vertex -3.39919 -10.4616 18
      vertex -5.5 -9.52628 18
      vertex -4.01722 -12.3637 18
    endloop
  endfacet
  facet normal 0 0 1
    outer loop
      vertex -4.01722 -12.3637 18
      vertex -7.36044 -8.17459 18
      vertex -6.5 -11.2583 18
    endloop
  endfacet
  facet normal 0 0 1
    outer loop
      vertex -6.5 -11.2583 18
      vertex -8.89919 -6.46564 18
      vertex -8.6987 -9.66088 18
    endloop
  endfacet
  facet normal 0 0 1
    outer loop
      vertex -8.89919 -6.46564 18
      vertex -10.049 -4.4741 18
      vertex -8.6987 -9.66088 18
    endloop
  endfacet
  facet normal 0 0 1
    outer loop
      vertex 12.8686 1.25 18
      vertex 12.7159 2.70285 18
      vertex 10.7596 2.28703 18
    endloop
  endfacet
  facet normal 0 0 1
    outer loop
      vertex -10.7596 -2.28703 18
      vertex -11 0 18
      vertex -12.7159 2.70285 18
    endloop
  endfacet
  facet normal 0 0 1
    outer loop
      vertex 7.36044 -8.17459 18
      vertex 5.5 -9.52628 18
      vertex 8.6987 -9.66088 18
    endloop
  endfacet
  facet normal 0 0 1
    outer loop
      vertex 5.5 -9.52628 18
      vertex 3.39919 -10.4616 18
      vertex 6.5 -11.2583 18
    endloop
  endfacet
  facet normal 0 0 1
    outer loop
      vertex 3.39919 -10.4616 18
      vertex 1.14981 -10.9397 18
      vertex 4.01722 -12.3637 18
    endloop
  endfacet
  facet normal 0 0 1
    outer loop
      vertex 1.14981 -10.9397 18
      vertex -1.14981 -10.9397 18
      vertex 1.35887 -12.9288 18
    endloop
  endfacet
  facet normal 0 0 1
    outer loop
      vertex -7.36044 -8.17459 18
      vertex -8.89919 -6.46564 18
      vertex -6.5 -11.2583 18
    endloop
  endfacet
  facet normal 0 0 1
    outer loop
      vertex -5.5 -9.52628 18
      vertex -7.36044 -8.17459 18
      vertex -4.01722 -12.3637 18
    endloop
  endfacet
  facet normal 0 0 1
    outer loop
      vertex -11 0 18
      vertex -10.7596 2.28703 18
      vertex -12.7159 2.70285 18
    endloop
  endfacet
  facet normal 0 -1 0
    outer loop
      vertex 12.8686 -1.25 18
      vertex 12.8686 -1.25 8
      vertex 15.25 -1.25 8
    endloop
  endfacet
  facet normal 0 -1 0
    outer loop
      vertex 15.25 -1.25 18
      vertex 12.8686 -1.25 18
      vertex 15.25 -1.25 8
    endloop
  endfacet
  facet normal 0 0 -1
    outer loop
      vertex 12.8686 -1.25 8
      vertex 13 0 8
      vertex 15.25 -1.25 8
    endloop
  endfacet
  facet normal 0 0 -1
    outer loop
      vertex 15.25 -1.25 8
      vertex 13 0 8
      vertex 12.8686 1.25 8
    endloop
  endfacet
  facet normal 0 0 -1
    outer loop
      vertex 15.25 -1.25 8
      vertex 12.8686 1.25 8
      vertex 15.25 1.25 8
    endloop
  endfacet
  facet normal 0 1 0
    outer loop
      vertex 12.8686 1.25 8
      vertex 12.8686 1.25 18
      vertex 15.25 1.25 8
    endloop
  endfacet
  facet normal 0 1 0
    outer loop
      vertex 15.25 1.25 8
      vertex 12.8686 1.25 18
      vertex 15.25 1.25 18
    endloop
  endfacet
  facet normal 0 0 -1
    outer loop
      vertex -10.049 4.4741 6
      vertex -8.89919 6.46564 6
      vertex -10.7596 2.28703 6
    endloop
  endfacet
  facet normal 0 0 -1
    outer loop
      vertex -10.7596 2.28703 6
      vertex -8.89919 6.46564 6
      vertex -7.36044 8.17459 6
    endloop
  endfacet
  facet normal 0 0 -1
    outer loop
      vertex -10.7596 2.28703 6
      vertex -7.36044 8.17459 6
      vertex -5.5 9.52628 6
    endloop
  endfacet
  facet normal 0 0 -1
    outer loop
      vertex -10.7596 2.28703 6
      vertex -5.5 9.52628 6
      vertex -3.39919 10.4616 6
    endloop
  endfacet
  facet normal 0 0 -1
    outer loop
      vertex -4.75 8.22724 6
      vertex -3.39919 10.4616 6
      vertex -1.14981 10.9397 6
    endloop
  endfacet
  facet normal 0 0 -1
    outer loop
      vertex -0.99302 9.44796 6
      vertex -1.14981 10.9397 6
      vertex 1.14981 10.9397 6
    endloop
  endfacet
  facet normal 0 0 -1
    outer loop
      vertex 0.99302 9.44796 6
      vertex 1.14981 10.9397 6
      vertex 3.39919 10.4616 6
    endloop
  endfacet
  facet normal 0 0 -1
    outer loop
      vertex 2.93566 9.03504 6
      vertex 3.39919 10.4616 6
      vertex 5.5 9.52628 6
    endloop
  endfacet
  facet normal 0 0 -1
    outer loop
      vertex 4.75 8.22724 6
      vertex 5.5 9.52628 6
      vertex 7.36044 8.17459 6
    endloop
  endfacet
  facet normal 0 0 -1
    outer loop
      vertex 6.35674 7.05988 6
      vertex 7.36044 8.17459 6
      vertex 8.89919 6.46564 6
    endloop
  endfacet
  facet normal 0 0 -1
    outer loop
      vertex 7.68566 5.58396 6
      vertex 8.89919 6.46564 6
      vertex 10.049 4.4741 6
    endloop
  endfacet
  facet normal 0 0 -1
    outer loop
      vertex 8.67868 3.864 6
      vertex 10.049 4.4741 6
      vertex 10.7596 2.28703 6
    endloop
  endfacet
  facet normal 0 0 -1
    outer loop
      vertex 9.2924 1.97516 6
      vertex 10.7596 2.28703 6
      vertex 11 0 6
    endloop
  endfacet
  facet normal 0 0 -1
    outer loop
      vertex 9.2924 -1.97516 6
      vertex 11 0 6
      vertex 10.7596 -2.28703 6
    endloop
  endfacet
  facet normal 0 0 -1
    outer loop
      vertex 8.67868 -3.864 6
      vertex 10.7596 -2.28703 6
      vertex 10.049 -4.4741 6
    endloop
  endfacet
  facet normal 0 0 -1
    outer loop
      vertex 7.68566 -5.58396 6
      vertex 10.049 -4.4741 6
      vertex 8.89919 -6.46564 6
    endloop
  endfacet
  facet normal 0 0 -1
    outer loop
      vertex 6.35674 -7.05988 6
      vertex 8.89919 -6.46564 6
      vertex 7.36044 -8.17459 6
    endloop
  endfacet
  facet normal 0 0 -1
    outer loop
      vertex 4.75 -8.22724 6
      vertex 7.36044 -8.17459 6
      vertex 5.5 -9.52628 6
    endloop
  endfacet
  facet normal 0 0 -1
    outer loop
      vertex 2.93566 -9.03504 6
      vertex 5.5 -9.52628 6
      vertex 3.39919 -10.4616 6
    endloop
  endfacet
  facet normal 0 0 -1
    outer loop
      vertex 0.99302 -9.44796 6
      vertex 3.39919 -10.4616 6
      vertex 1.14981 -10.9397 6
    endloop
  endfacet
  facet normal 0 0 -1
    outer loop
      vertex -0.99302 -9.44796 6
      vertex 1.14981 -10.9397 6
      vertex -1.14981 -10.9397 6
    endloop
  endfacet
  facet normal 0 0 -1
    outer loop
      vertex -2.93566 -9.03504 6
      vertex -1.14981 -10.9397 6
      vertex -3.39919 -10.4616 6
    endloop
  endfacet
  facet normal 0 0 -1
    outer loop
      vertex -6.35674 -7.05988 6
      vertex -3.39919 -10.4616 6
      vertex -5.5 -9.52628 6
    endloop
  endfacet
  facet normal 0 0 -1
    outer loop
      vertex -8.67868 -3.864 6
      vertex -5.5 -9.52628 6
      vertex -7.36044 -8.17459 6
    endloop
  endfacet
  facet normal 0 0 -1
    outer loop
      vertex -10.7596 2.28703 6
      vertex -7.36044 -8.17459 6
      vertex -8.89919 -6.46564 6
    endloop
  endfacet
  facet normal 0 0 -1
    outer loop
      vertex -10.7596 2.28703 6
      vertex -8.89919 -6.46564 6
      vertex -10.049 -4.4741 6
    endloop
  endfacet
  facet normal 0 0 -1
    outer loop
      vertex -10.7596 2.28703 6
      vertex -10.049 -4.4741 6
      vertex -10.7596 -2.28703 6
    endloop
  endfacet
  facet normal 0 0 -1
    outer loop
      vertex -10.7596 2.28703 6
      vertex -10.7596 -2.28703 6
      vertex -11 0 6
    endloop
  endfacet
  facet normal 0 0 -1
    outer loop
      vertex -6.35674 -7.05988 6
      vertex -5.5 -9.52628 6
      vertex -7.68566 -5.58396 6
    endloop
  endfacet
  facet normal 0 0 -1
    outer loop
      vertex -10.7596 2.28703 6
      vertex -9.2924 -1.97516 6
      vertex -7.36044 -8.17459 6
    endloop
  endfacet
  facet normal 0 0 -1
    outer loop
      vertex -7.68566 -5.58396 6
      vertex -5.5 -9.52628 6
      vertex -8.67868 -3.864 6
    endloop
  endfacet
  facet normal 0 0 -1
    outer loop
      vertex -9.2924 -1.97516 6
      vertex -8.67868 -3.864 6
      vertex -7.36044 -8.17459 6
    endloop
  endfacet
  facet normal 0 0 -1
    outer loop
      vertex -4.75 -8.22724 6
      vertex -3.39919 -10.4616 6
      vertex -6.35674 -7.05988 6
    endloop
  endfacet
  facet normal 0 0 -1
    outer loop
      vertex -0.99302 -9.44796 6
      vertex -1.14981 -10.9397 6
      vertex -2.93566 -9.03504 6
    endloop
  endfacet
  facet normal 0 0 -1
    outer loop
      vertex 0.99302 -9.44796 6
      vertex 1.14981 -10.9397 6
      vertex -0.99302 -9.44796 6
    endloop
  endfacet
  facet normal 0 0 -1
    outer loop
      vertex 2.93566 -9.03504 6
      vertex 3.39919 -10.4616 6
      vertex 0.99302 -9.44796 6
    endloop
  endfacet
  facet normal 0 0 -1
    outer loop
      vertex 4.75 -8.22724 6
      vertex 5.5 -9.52628 6
      vertex 2.93566 -9.03504 6
    endloop
  endfacet
  facet normal 0 0 -1
    outer loop
      vertex 6.35674 -7.05988 6
      vertex 7.36044 -8.17459 6
      vertex 4.75 -8.22724 6
    endloop
  endfacet
  facet normal 0 0 -1
    outer loop
      vertex 7.68566 -5.58396 6
      vertex 8.89919 -6.46564 6
      vertex 6.35674 -7.05988 6
    endloop
  endfacet
  facet normal 0 0 -1
    outer loop
      vertex -9.5 0 6
      vertex -10.7596 2.28703 6
      vertex -9.2924 1.97516 6
    endloop
  endfacet
  facet normal 0 0 -1
    outer loop
      vertex 8.67868 -3.864 6
      vertex 10.049 -4.4741 6
      vertex 7.68566 -5.58396 6
    endloop
  endfacet
  facet normal 0 0 -1
    outer loop
      vertex 9.2924 -1.97516 6
      vertex 10.7596 -2.28703 6
      vertex 8.67868 -3.864 6
    endloop
  endfacet
  facet normal 0 0 -1
    outer loop
      vertex 9.5 0 6
      vertex 11 0 6
      vertex 9.2924 -1.97516 6
    endloop
  endfacet
  facet normal 0 0 -1
    outer loop
      vertex 9.2924 1.97516 6
      vertex 11 0 6
      vertex 9.5 0 6
    endloop
  endfacet
  facet normal 0 0 -1
    outer loop
      vertex 8.67868 3.864 6
      vertex 10.7596 2.28703 6
      vertex 9.2924 1.97516 6
    endloop
  endfacet
  facet normal 0 0 -1
    outer loop
      vertex 7.68566 5.58396 6
      vertex 10.049 4.4741 6
      vertex 8.67868 3.864 6
    endloop
  endfacet
  facet normal 0 0 -1
    outer loop
      vertex 6.35674 7.05988 6
      vertex 8.89919 6.46564 6
      vertex 7.68566 5.58396 6
    endloop
  endfacet
  facet normal 0 0 -1
    outer loop
      vertex 4.75 8.22724 6
      vertex 7.36044 8.17459 6
      vertex 6.35674 7.05988 6
    endloop
  endfacet
  facet normal 0 0 -1
    outer loop
      vertex 2.93566 9.03504 6
      vertex 5.5 9.52628 6
      vertex 4.75 8.22724 6
    endloop
  endfacet
  facet normal 0 0 -1
    outer loop
      vertex 0.99302 9.44796 6
      vertex 3.39919 10.4616 6
      vertex 2.93566 9.03504 6
    endloop
  endfacet
  facet normal 0 0 -1
    outer loop
      vertex -0.99302 9.44796 6
      vertex 1.14981 10.9397 6
      vertex 0.99302 9.44796 6
    endloop
  endfacet
  facet normal 0 0 -1
    outer loop
      vertex -2.93566 9.03504 6
      vertex -1.14981 10.9397 6
      vertex -0.99302 9.44796 6
    endloop
  endfacet
  facet normal 0 0 -1
    outer loop
      vertex -4.75 8.22724 6
      vertex -1.14981 10.9397 6
      vertex -2.93566 9.03504 6
    endloop
  endfacet
  facet normal 0 0 -1
    outer loop
      vertex -6.35674 7.05988 6
      vertex -3.39919 10.4616 6
      vertex -4.75 8.22724 6
    endloop
  endfacet
  facet normal 0 0 -1
    outer loop
      vertex -8.67868 3.864 6
      vertex -10.7596 2.28703 6
      vertex -7.68566 5.58396 6
    endloop
  endfacet
  facet normal 0 0 -1
    outer loop
      vertex -10.7596 2.28703 6
      vertex -3.39919 10.4616 6
      vertex -6.35674 7.05988 6
    endloop
  endfacet
  facet normal 0 0 -1
    outer loop
      vertex -10.7596 2.28703 6
      vertex -6.35674 7.05988 6
      vertex -7.68566 5.58396 6
    endloop
  endfacet
  facet normal 0 0 -1
    outer loop
      vertex -9.2924 1.97516 6
      vertex -10.7596 2.28703 6
      vertex -8.67868 3.864 6
    endloop
  endfacet
  facet normal 0 0 -1
    outer loop
      vertex -9.2924 -1.97516 6
      vertex -10.7596 2.28703 6
      vertex -9.5 0 6
    endloop
  endfacet
  facet normal 0 0 -1
    outer loop
      vertex -2.93566 -9.03504 6
      vertex -3.39919 -10.4616 6
      vertex -4.75 -8.22724 6
    endloop
  endfacet
  facet normal 1 0 0
    outer loop
      vertex 15.25 -1.25 18
      vertex 15.25 -1.25 8
      vertex 15.25 1.25 8
    endloop
  endfacet
  facet normal 1 0 0
    outer loop
      vertex 15.25 1.25 18
      vertex 15.25 -1.25 18
      vertex 15.25 1.25 8
    endloop
  endfacet
  facet normal 0.994522 0.104528 0
    outer loop
      vertex -11 0 18
      vertex -10.7596 -2.28703 18
      vertex -10.7596 -2.28703 8
    endloop
  endfacet
  facet normal 0.994522 0.104528 0
    outer loop
      vertex -11 0 8
      vertex -11 0 18
      vertex -10.7596 -2.28703 8
    endloop
  endfacet
  facet normal 0.951056 0.309017 0
    outer loop
      vertex -10.7596 -2.28703 18
      vertex -10.049 -4.4741 18
      vertex -10.049 -4.4741 8
    endloop
  endfacet
  facet normal 0.951056 0.309017 0
    outer loop
      vertex -10.7596 -2.28703 8
      vertex -10.7596 -2.28703 18
      vertex -10.049 -4.4741 8
    endloop
  endfacet
  facet normal 0.866025 0.5 0
    outer loop
      vertex -10.049 -4.4741 18
      vertex -8.89919 -6.46564 18
      vertex -8.89919 -6.46564 8
    endloop
  endfacet
  facet normal 0.866025 0.5 0
    outer loop
      vertex -10.049 -4.4741 8
      vertex -10.049 -4.4741 18
      vertex -8.89919 -6.46564 8
    endloop
  endfacet
  facet normal 0.743145 0.669131 0
    outer loop
      vertex -8.89919 -6.46564 18
      vertex -7.36044 -8.17459 18
      vertex -7.36044 -8.17459 8
    endloop
  endfacet
  facet normal 0.743145 0.669131 0
    outer loop
      vertex -8.89919 -6.46564 8
      vertex -8.89919 -6.46564 18
      vertex -7.36044 -8.17459 8
    endloop
  endfacet
  facet normal 0.587785 0.809017 0
    outer loop
      vertex -5.5 -9.52628 18
      vertex -5.5 -9.52628 8
      vertex -7.36044 -8.17459 18
    endloop
  endfacet
  facet normal 0.587785 0.809017 0
    outer loop
      vertex -7.36044 -8.17459 18
      vertex -5.5 -9.52628 8
      vertex -7.36044 -8.17459 8
    endloop
  endfacet
  facet normal 0.406737 0.913545 0
    outer loop
      vertex -3.39919 -10.4616 18
      vertex -3.39919 -10.4616 8
      vertex -5.5 -9.52628 18
    endloop
  endfacet
  facet normal 0.406737 0.913545 0
    outer loop
      vertex -5.5 -9.52628 18
      vertex -3.39919 -10.4616 8
      vertex -5.5 -9.52628 8
    endloop
  endfacet
  facet normal 0.207912 0.978148 0
    outer loop
      vertex -1.14981 -10.9397 18
      vertex -1.14981 -10.9397 8
      vertex -3.39919 -10.4616 18
    endloop
  endfacet
  facet normal 0.207912 0.978148 0
    outer loop
      vertex -3.39919 -10.4616 18
      vertex -1.14981 -10.9397 8
      vertex -3.39919 -10.4616 8
    endloop
  endfacet
  facet normal 0 1 0
    outer loop
      vertex 1.14981 -10.9397 18
      vertex 1.14981 -10.9397 8
      vertex -1.14981 -10.9397 18
    endloop
  endfacet
  facet normal 0 1 0
    outer loop
      vertex -1.14981 -10.9397 18
      vertex 1.14981 -10.9397 8
      vertex -1.14981 -10.9397 8
    endloop
  endfacet
  facet normal -0.207912 0.978148 0
    outer loop
      vertex 3.39919 -10.4616 18
      vertex 3.39919 -10.4616 8
      vertex 1.14981 -10.9397 18
    endloop
  endfacet
  facet normal -0.207912 0.978148 0
    outer loop
      vertex 1.14981 -10.9397 18
      vertex 3.39919 -10.4616 8
      vertex 1.14981 -10.9397 8
    endloop
  endfacet
  facet normal -0.406737 0.913545 0
    outer loop
      vertex 5.5 -9.52628 18
      vertex 5.5 -9.52628 8
      vertex 3.39919 -10.4616 18
    endloop
  endfacet
  facet normal -0.406737 0.913545 0
    outer loop
      vertex 3.39919 -10.4616 18
      vertex 5.5 -9.52628 8
      vertex 3.39919 -10.4616 8
    endloop
  endfacet
  facet normal -0.587785 0.809017 0
    outer loop
      vertex 7.36044 -8.17459 18
      vertex 7.36044 -8.17459 8
      vertex 5.5 -9.52628 18
    endloop
  endfacet
  facet normal -0.587785 0.809017 0
    outer loop
      vertex 5.5 -9.52628 18
      vertex 7.36044 -8.17459 8
      vertex 5.5 -9.52628 8
    endloop
  endfacet
  facet normal -0.743145 0.669131 0
    outer loop
      vertex 8.89919 -6.46564 18
      vertex 8.89919 -6.46564 8
      vertex 7.36044 -8.17459 18
    endloop
  endfacet
  facet normal -0.743145 0.669131 0
    outer loop
      vertex 7.36044 -8.17459 18
      vertex 8.89919 -6.46564 8
      vertex 7.36044 -8.17459 8
    endloop
  endfacet
  facet normal -0.866025 0.5 0
    outer loop
      vertex 10.049 -4.4741 18
      vertex 10.049 -4.4741 8
      vertex 8.89919 -6.46564 18
    endloop
  endfacet
  facet normal -0.866025 0.5 0
    outer loop
      vertex 8.89919 -6.46564 18
      vertex 10.049 -4.4741 8
      vertex 8.89919 -6.46564 8
    endloop
  endfacet
  facet normal -0.951056 0.309017 0
    outer loop
      vertex 10.7596 -2.28703 18
      vertex 10.7596 -2.28703 8
      vertex 10.049 -4.4741 18
    endloop
  endfacet
  facet normal -0.951056 0.309017 0
    outer loop
      vertex 10.049 -4.4741 18
      vertex 10.7596 -2.28703 8
      vertex 10.049 -4.4741 8
    endloop
  endfacet
  facet normal -0.994522 0.104528 0
    outer loop
      vertex 11 0 18
      vertex 11 0 8
      vertex 10.7596 -2.28703 18
    endloop
  endfacet
  facet normal -0.994522 0.104528 0
    outer loop
      vertex 10.7596 -2.28703 18
      vertex 11 0 8
      vertex 10.7596 -2.28703 8
    endloop
  endfacet
  facet normal -0.994522 -0.104528 0
    outer loop
      vertex 11 0 18
      vertex 10.7596 2.28703 18
      vertex 11 0 8
    endloop
  endfacet
  facet normal -0.994522 -0.104528 0
    outer loop
      vertex 11 0 8
      vertex 10.7596 2.28703 18
      vertex 10.7596 2.28703 8
    endloop
  endfacet
  facet normal -0.951056 -0.309017 0
    outer loop
      vertex 10.7596 2.28703 18
      vertex 10.049 4.4741 18
      vertex 10.7596 2.28703 8
    endloop
  endfacet
  facet normal -0.951056 -0.309017 0
    outer loop
      vertex 10.7596 2.28703 8
      vertex 10.049 4.4741 18
      vertex 10.049 4.4741 8
    endloop
  endfacet
  facet normal -0.866025 -0.5 0
    outer loop
      vertex 10.049 4.4741 18
      vertex 8.89919 6.46564 18
      vertex 10.049 4.4741 8
    endloop
  endfacet
  facet normal -0.866025 -0.5 0
    outer loop
      vertex 10.049 4.4741 8
      vertex 8.89919 6.46564 18
      vertex 8.89919 6.46564 8
    endloop
  endfacet
  facet normal -0.743145 -0.669131 0
    outer loop
      vertex 8.89919 6.46564 18
      vertex 7.36044 8.17459 18
      vertex 8.89919 6.46564 8
    endloop
  endfacet
  facet normal -0.743145 -0.669131 0
    outer loop
      vertex 8.89919 6.46564 8
      vertex 7.36044 8.17459 18
      vertex 7.36044 8.17459 8
    endloop
  endfacet
  facet normal -0.587785 -0.809017 0
    outer loop
      vertex 7.36044 8.17459 8
      vertex 7.36044 8.17459 18
      vertex 5.5 9.52628 18
    endloop
  endfacet
  facet normal -0.587785 -0.809017 0
    outer loop
      vertex 5.5 9.52628 8
      vertex 7.36044 8.17459 8
      vertex 5.5 9.52628 18
    endloop
  endfacet
  facet normal -0.406737 -0.913545 0
    outer loop
      vertex 5.5 9.52628 8
      vertex 5.5 9.52628 18
      vertex 3.39919 10.4616 18
    endloop
  endfacet
  facet normal -0.406737 -0.913545 0
    outer loop
      vertex 3.39919 10.4616 8
      vertex 5.5 9.52628 8
      vertex 3.39919 10.4616 18
    endloop
  endfacet
  facet normal -0.207912 -0.978148 0
    outer loop
      vertex 3.39919 10.4616 8
      vertex 3.39919 10.4616 18
      vertex 1.14981 10.9397 18
    endloop
  endfacet
  facet normal -0.207912 -0.978148 0
    outer loop
      vertex 1.14981 10.9397 8
      vertex 3.39919 10.4616 8
      vertex 1.14981 10.9397 18
    endloop
  endfacet
  facet normal 0 -1 0
    outer loop
      vertex 1.14981 10.9397 8
      vertex 1.14981 10.9397 18
      vertex -1.14981 10.9397 18
    endloop
  endfacet
  facet normal 0 -1 0
    outer loop
      vertex -1.14981 10.9397 8
      vertex 1.14981 10.9397 8
      vertex -1.14981 10.9397 18
    endloop
  endfacet
  facet normal 0.207912 -0.978148 0
    outer loop
      vertex -1.14981 10.9397 8
      vertex -1.14981 10.9397 18
      vertex -3.39919 10.4616 18
    endloop
  endfacet
  facet normal 0.207912 -0.978148 0
    outer loop
      vertex -3.39919 10.4616 8
      vertex -1.14981 10.9397 8
      vertex -3.39919 10.4616 18
    endloop
  endfacet
  facet normal 0.406737 -0.913545 0
    outer loop
      vertex -3.39919 10.4616 8
      vertex -3.39919 10.4616 18
      vertex -5.5 9.52628 18
    endloop
  endfacet
  facet normal 0.406737 -0.913545 0
    outer loop
      vertex -5.5 9.52628 8
      vertex -3.39919 10.4616 8
      vertex -5.5 9.52628 18
    endloop
  endfacet
  facet normal 0.587785 -0.809017 0
    outer loop
      vertex -5.5 9.52628 8
      vertex -5.5 9.52628 18
      vertex -7.36044 8.17459 18
    endloop
  endfacet
  facet normal 0.587785 -0.809017 0
    outer loop
      vertex -7.36044 8.17459 8
      vertex -5.5 9.52628 8
      vertex -7.36044 8.17459 18
    endloop
  endfacet
  facet normal 0.743145 -0.669131 0
    outer loop
      vertex -7.36044 8.17459 8
      vertex -7.36044 8.17459 18
      vertex -8.89919 6.46564 18
    endloop
  endfacet
  facet normal 0.743145 -0.669131 0
    outer loop
      vertex -8.89919 6.46564 8
      vertex -7.36044 8.17459 8
      vertex -8.89919 6.46564 18
    endloop
  endfacet
  facet normal 0.866025 -0.5 0
    outer loop
      vertex -8.89919 6.46564 8
      vertex -8.89919 6.46564 18
      vertex -10.049 4.4741 18
    endloop
  endfacet
  facet normal 0.866025 -0.5 0
    outer loop
      vertex -10.049 4.4741 8
      vertex -8.89919 6.46564 8
      vertex -10.049 4.4741 18
    endloop
  endfacet
  facet normal 0.951056 -0.309017 0
    outer loop
      vertex -10.049 4.4741 8
      vertex -10.049 4.4741 18
      vertex -10.7596 2.28703 18
    endloop
  endfacet
  facet normal 0.951056 -0.309017 0
    outer loop
      vertex -10.7596 2.28703 8
      vertex -10.049 4.4741 8
      vertex -10.7596 2.28703 18
    endloop
  endfacet
  facet normal 0.994522 -0.104528 0
    outer loop
      vertex -10.7596 2.28703 8
      vertex -10.7596 2.28703 18
      vertex -11 0 18
    endloop
  endfacet
  facet normal 0.994522 -0.104528 0
    outer loop
      vertex -11 0 8
      vertex -10.7596 2.28703 8
      vertex -11 0 18
    endloop
  endfacet
  facet normal 0.994522 0.104529 0
    outer loop
      vertex -9.5 0 8
      vertex -9.2924 -1.97516 8
      vertex -9.2924 -1.97516 6
    endloop
  endfacet
  facet normal 0.994522 0.104529 0
    outer loop
      vertex -9.5 0 6
      vertex -9.5 0 8
      vertex -9.2924 -1.97516 6
    endloop
  endfacet
  facet normal 0.951057 0.309017 0
    outer loop
      vertex -9.2924 -1.97516 8
      vertex -8.67868 -3.864 8
      vertex -8.67868 -3.864 6
    endloop
  endfacet
  facet normal 0.951057 0.309017 0
    outer loop
      vertex -9.2924 -1.97516 6
      vertex -9.2924 -1.97516 8
      vertex -8.67868 -3.864 6
    endloop
  endfacet
  facet normal 0.994522 -0.104529 0
    outer loop
      vertex -9.2924 1.97516 6
      vertex -9.2924 1.97516 8
      vertex -9.5 0 8
    endloop
  endfacet
  facet normal 0.994522 -0.104529 0
    outer loop
      vertex -9.5 0 6
      vertex -9.2924 1.97516 6
      vertex -9.5 0 8
    endloop
  endfacet
  facet normal 0.951057 -0.309017 0
    outer loop
      vertex -8.67868 3.864 6
      vertex -8.67868 3.864 8
      vertex -9.2924 1.97516 8
    endloop
  endfacet
  facet normal 0.951057 -0.309017 0
    outer loop
      vertex -9.2924 1.97516 6
      vertex -8.67868 3.864 6
      vertex -9.2924 1.97516 8
    endloop
  endfacet
  facet normal 0.866025 -0.5 0
    outer loop
      vertex -7.68566 5.58396 6
      vertex -7.68566 5.58396 8
      vertex -8.67868 3.864 8
    endloop
  endfacet
  facet normal 0.866025 -0.5 0
    outer loop
      vertex -8.67868 3.864 6
      vertex -7.68566 5.58396 6
      vertex -8.67868 3.864 8
    endloop
  endfacet
  facet normal 0.743145 -0.66913 0
    outer loop
      vertex -6.35674 7.05988 6
      vertex -6.35674 7.05988 8
      vertex -7.68566 5.58396 8
    endloop
  endfacet
  facet normal 0.743145 -0.66913 0
    outer loop
      vertex -7.68566 5.58396 6
      vertex -6.35674 7.05988 6
      vertex -7.68566 5.58396 8
    endloop
  endfacet
  facet normal 0.587785 -0.809017 0
    outer loop
      vertex -4.75 8.22724 6
      vertex -4.75 8.22724 8
      vertex -6.35674 7.05988 8
    endloop
  endfacet
  facet normal 0.587785 -0.809017 0
    outer loop
      vertex -6.35674 7.05988 6
      vertex -4.75 8.22724 6
      vertex -6.35674 7.05988 8
    endloop
  endfacet
  facet normal 0.406737 -0.913545 0
    outer loop
      vertex -2.93566 9.03504 6
      vertex -2.93566 9.03504 8
      vertex -4.75 8.22724 8
    endloop
  endfacet
  facet normal 0.406737 -0.913545 0
    outer loop
      vertex -4.75 8.22724 6
      vertex -2.93566 9.03504 6
      vertex -4.75 8.22724 8
    endloop
  endfacet
  facet normal 0.207912 -0.978148 0
    outer loop
      vertex -0.99302 9.44796 6
      vertex -0.99302 9.44796 8
      vertex -2.93566 9.03504 8
    endloop
  endfacet
  facet normal 0.207912 -0.978148 0
    outer loop
      vertex -2.93566 9.03504 6
      vertex -0.99302 9.44796 6
      vertex -2.93566 9.03504 8
    endloop
  endfacet
  facet normal 0 -1 0
    outer loop
      vertex 0.99302 9.44796 6
      vertex 0.99302 9.44796 8
      vertex -0.99302 9.44796 8
    endloop
  endfacet
  facet normal 0 -1 0
    outer loop
      vertex -0.99302 9.44796 6
      vertex 0.99302 9.44796 6
      vertex -0.99302 9.44796 8
    endloop
  endfacet
  facet normal -0.207912 -0.978148 0
    outer loop
      vertex 2.93566 9.03504 6
      vertex 2.93566 9.03504 8
      vertex 0.99302 9.44796 8
    endloop
  endfacet
  facet normal -0.207912 -0.978148 0
    outer loop
      vertex 0.99302 9.44796 6
      vertex 2.93566 9.03504 6
      vertex 0.99302 9.44796 8
    endloop
  endfacet
  facet normal -0.406737 -0.913545 0
    outer loop
      vertex 4.75 8.22724 6
      vertex 4.75 8.22724 8
      vertex 2.93566 9.03504 8
    endloop
  endfacet
  facet normal -0.406737 -0.913545 0
    outer loop
      vertex 2.93566 9.03504 6
      vertex 4.75 8.22724 6
      vertex 2.93566 9.03504 8
    endloop
  endfacet
  facet normal -0.587785 -0.809017 0
    outer loop
      vertex 6.35674 7.05988 6
      vertex 6.35674 7.05988 8
      vertex 4.75 8.22724 8
    endloop
  endfacet
  facet normal -0.587785 -0.809017 0
    outer loop
      vertex 4.75 8.22724 6
      vertex 6.35674 7.05988 6
      vertex 4.75 8.22724 8
    endloop
  endfacet
  facet normal -0.743145 -0.66913 0
    outer loop
      vertex 7.68566 5.58396 8
      vertex 6.35674 7.05988 8
      vertex 7.68566 5.58396 6
    endloop
  endfacet
  facet normal -0.743145 -0.66913 0
    outer loop
      vertex 7.68566 5.58396 6
      vertex 6.35674 7.05988 8
      vertex 6.35674 7.05988 6
    endloop
  endfacet
  facet normal -0.866025 -0.5 0
    outer loop
      vertex 8.67868 3.864 8
      vertex 7.68566 5.58396 8
      vertex 8.67868 3.864 6
    endloop
  endfacet
  facet normal -0.866025 -0.5 0
    outer loop
      vertex 8.67868 3.864 6
      vertex 7.68566 5.58396 8
      vertex 7.68566 5.58396 6
    endloop
  endfacet
  facet normal -0.951057 -0.309017 0
    outer loop
      vertex 9.2924 1.97516 8
      vertex 8.67868 3.864 8
      vertex 9.2924 1.97516 6
    endloop
  endfacet
  facet normal -0.951057 -0.309017 0
    outer loop
      vertex 9.2924 1.97516 6
      vertex 8.67868 3.864 8
      vertex 8.67868 3.864 6
    endloop
  endfacet
  facet normal -0.994522 -0.104529 0
    outer loop
      vertex 9.5 0 8
      vertex 9.2924 1.97516 8
      vertex 9.5 0 6
    endloop
  endfacet
  facet normal -0.994522 -0.104529 0
    outer loop
      vertex 9.5 0 6
      vertex 9.2924 1.97516 8
      vertex 9.2924 1.97516 6
    endloop
  endfacet
  facet normal -0.994522 0.104529 0
    outer loop
      vertex 9.5 0 8
      vertex 9.5 0 6
      vertex 9.2924 -1.97516 8
    endloop
  endfacet
  facet normal -0.994522 0.104529 0
    outer loop
      vertex 9.2924 -1.97516 8
      vertex 9.5 0 6
      vertex 9.2924 -1.97516 6
    endloop
  endfacet
  facet normal -0.951057 0.309017 0
    outer loop
      vertex 9.2924 -1.97516 8
      vertex 9.2924 -1.97516 6
      vertex 8.67868 -3.864 8
    endloop
  endfacet
  facet normal -0.951057 0.309017 0
    outer loop
      vertex 8.67868 -3.864 8
      vertex 9.2924 -1.97516 6
      vertex 8.67868 -3.864 6
    endloop
  endfacet
  facet normal -0.866025 0.5 0
    outer loop
      vertex 8.67868 -3.864 8
      vertex 8.67868 -3.864 6
      vertex 7.68566 -5.58396 8
    endloop
  endfacet
  facet normal -0.866025 0.5 0
    outer loop
      vertex 7.68566 -5.58396 8
      vertex 8.67868 -3.864 6
      vertex 7.68566 -5.58396 6
    endloop
  endfacet
  facet normal -0.743145 0.66913 0
    outer loop
      vertex 7.68566 -5.58396 8
      vertex 7.68566 -5.58396 6
      vertex 6.35674 -7.05988 8
    endloop
  endfacet
  facet normal -0.743145 0.66913 0
    outer loop
      vertex 6.35674 -7.05988 8
      vertex 7.68566 -5.58396 6
      vertex 6.35674 -7.05988 6
    endloop
  endfacet
  facet normal -0.587785 0.809017 0
    outer loop
      vertex 6.35674 -7.05988 8
      vertex 6.35674 -7.05988 6
      vertex 4.75 -8.22724 8
    endloop
  endfacet
  facet normal -0.587785 0.809017 0
    outer loop
      vertex 4.75 -8.22724 8
      vertex 6.35674 -7.05988 6
      vertex 4.75 -8.22724 6
    endloop
  endfacet
  facet normal -0.406737 0.913545 0
    outer loop
      vertex 4.75 -8.22724 8
      vertex 4.75 -8.22724 6
      vertex 2.93566 -9.03504 8
    endloop
  endfacet
  facet normal -0.406737 0.913545 0
    outer loop
      vertex 2.93566 -9.03504 8
      vertex 4.75 -8.22724 6
      vertex 2.93566 -9.03504 6
    endloop
  endfacet
  facet normal -0.207912 0.978148 0
    outer loop
      vertex 2.93566 -9.03504 8
      vertex 2.93566 -9.03504 6
      vertex 0.99302 -9.44796 8
    endloop
  endfacet
  facet normal -0.207912 0.978148 0
    outer loop
      vertex 0.99302 -9.44796 8
      vertex 2.93566 -9.03504 6
      vertex 0.99302 -9.44796 6
    endloop
  endfacet
  facet normal 0 1 0
    outer loop
      vertex 0.99302 -9.44796 8
      vertex 0.99302 -9.44796 6
      vertex -0.99302 -9.44796 8
    endloop
  endfacet
  facet normal 0 1 0
    outer loop
      vertex -0.99302 -9.44796 8
      vertex 0.99302 -9.44796 6
      vertex -0.99302 -9.44796 6
    endloop
  endfacet
  facet normal 0.207912 0.978148 0
    outer loop
      vertex -0.99302 -9.44796 8
      vertex -0.99302 -9.44796 6
      vertex -2.93566 -9.03504 8
    endloop
  endfacet
  facet normal 0.207912 0.978148 0
    outer loop
      vertex -2.93566 -9.03504 8
      vertex -0.99302 -9.44796 6
      vertex -2.93566 -9.03504 6
    endloop
  endfacet
  facet normal 0.406737 0.913545 0
    outer loop
      vertex -2.93566 -9.03504 8
      vertex -2.93566 -9.03504 6
      vertex -4.75 -8.22724 8
    endloop
  endfacet
  facet normal 0.406737 0.913545 0
    outer loop
      vertex -4.75 -8.22724 8
      vertex -2.93566 -9.03504 6
      vertex -4.75 -8.22724 6
    endloop
  endfacet
  facet normal 0.587785 0.809017 0
    outer loop
      vertex -4.75 -8.22724 8
      vertex -4.75 -8.22724 6
      vertex -6.35674 -7.05988 8
    endloop
  endfacet
  facet normal 0.587785 0.809017 0
    outer loop
      vertex -6.35674 -7.05988 8
      vertex -4.75 -8.22724 6
      vertex -6.35674 -7.05988 6
    endloop
  endfacet
  facet normal 0.743145 0.66913 0
    outer loop
      vertex -7.68566 -5.58396 8
      vertex -6.35674 -7.05988 8
      vertex -6.35674 -7.05988 6
    endloop
  endfacet
  facet normal 0.743145 0.66913 0
    outer loop
      vertex -7.68566 -5.58396 6
      vertex -7.68566 -5.58396 8
      vertex -6.35674 -7.05988 6
    endloop
  endfacet
  facet normal 0.866025 0.5 0
    outer loop
      vertex -8.67868 -3.864 8
      vertex -7.68566 -5.58396 8
      vertex -7.68566 -5.58396 6
    endloop
  endfacet
  facet normal 0.866025 0.5 0
    outer loop
      vertex -8.67868 -3.864 6
      vertex -8.67868 -3.864 8
      vertex -7.68566 -5.58396 6
    endloop
  endfacet
  facet normal 0 0 1
    outer loop
      vertex -10.7596 -2.28703 8
      vertex -10.049 -4.4741 8
      vertex -8.89919 -6.46564 8
    endloop
  endfacet
  facet normal 0 0 1
    outer loop
      vertex -5.5 -9.52628 8
      vertex -10.7596 -2.28703 8
      vertex -7.36044 -8.17459 8
    endloop
  endfacet
  facet normal 0 0 1
    outer loop
      vertex -7.36044 -8.17459 8
      vertex -10.7596 -2.28703 8
      vertex -8.89919 -6.46564 8
    endloop
  endfacet
  facet normal 0 0 1
    outer loop
      vertex -3.39919 -10.4616 8
      vertex -10.7596 -2.28703 8
      vertex -5.5 -9.52628 8
    endloop
  endfacet
  facet normal 0 0 1
    outer loop
      vertex -6.35674 -7.05988 8
      vertex -10.7596 -2.28703 8
      vertex -3.39919 -10.4616 8
    endloop
  endfacet
  facet normal 0 0 1
    outer loop
      vertex -2.93566 -9.03504 8
      vertex -4.75 -8.22724 8
      vertex -1.14981 -10.9397 8
    endloop
  endfacet
  facet normal 0 0 1
    outer loop
      vertex 0.99302 -9.44796 8
      vertex -0.99302 -9.44796 8
      vertex 1.14981 -10.9397 8
    endloop
  endfacet
  facet normal 0 0 1
    outer loop
      vertex 2.93566 -9.03504 8
      vertex 0.99302 -9.44796 8
      vertex 3.39919 -10.4616 8
    endloop
  endfacet
  facet normal 0 0 1
    outer loop
      vertex 4.75 -8.22724 8
      vertex 2.93566 -9.03504 8
      vertex 5.5 -9.52628 8
    endloop
  endfacet
  facet normal 0 0 1
    outer loop
      vertex 6.35674 -7.05988 8
      vertex 4.75 -8.22724 8
      vertex 7.36044 -8.17459 8
    endloop
  endfacet
  facet normal 0 0 1
    outer loop
      vertex 7.68566 -5.58396 8
      vertex 6.35674 -7.05988 8
      vertex 8.89919 -6.46564 8
    endloop
  endfacet
  facet normal 0 0 1
    outer loop
      vertex 8.67868 -3.864 8
      vertex 7.68566 -5.58396 8
      vertex 10.049 -4.4741 8
    endloop
  endfacet
  facet normal 0 0 1
    outer loop
      vertex 9.2924 -1.97516 8
      vertex 8.67868 -3.864 8
      vertex 10.7596 -2.28703 8
    endloop
  endfacet
  facet normal 0 0 1
    outer loop
      vertex 9.5 0 8
      vertex 9.2924 -1.97516 8
      vertex 11 0 8
    endloop
  endfacet
  facet normal 0 0 1
    outer loop
      vertex -8.67868 -3.864 8
      vertex -9.2924 -1.97516 8
      vertex -10.7596 -2.28703 8
    endloop
  endfacet
  facet normal 0 0 1
    outer loop
      vertex -7.68566 5.58396 8
      vertex -6.35674 7.05988 8
      vertex -5.5 9.52628 8
    endloop
  endfacet
  facet normal 0 0 1
    outer loop
      vertex -4.75 8.22724 8
      vertex -2.93566 9.03504 8
      vertex -3.39919 10.4616 8
    endloop
  endfacet
  facet normal 0 0 1
    outer loop
      vertex -8.89919 6.46564 8
      vertex -10.7596 -2.28703 8
      vertex -7.36044 8.17459 8
    endloop
  endfacet
  facet normal 0 0 1
    outer loop
      vertex -10.049 4.4741 8
      vertex -10.7596 -2.28703 8
      vertex -8.89919 6.46564 8
    endloop
  endfacet
  facet normal 0 0 1
    outer loop
      vertex -10.7596 2.28703 8
      vertex -10.7596 -2.28703 8
      vertex -10.049 4.4741 8
    endloop
  endfacet
  facet normal 0 0 1
    outer loop
      vertex -11 0 8
      vertex -10.7596 -2.28703 8
      vertex -10.7596 2.28703 8
    endloop
  endfacet
  facet normal 0 0 1
    outer loop
      vertex -2.93566 9.03504 8
      vertex -0.99302 9.44796 8
      vertex -1.14981 10.9397 8
    endloop
  endfacet
  facet normal 0 0 1
    outer loop
      vertex 8.67868 3.864 8
      vertex 9.2924 1.97516 8
      vertex 10.7596 2.28703 8
    endloop
  endfacet
  facet normal 0 0 1
    outer loop
      vertex -7.36044 8.17459 8
      vertex -10.7596 -2.28703 8
      vertex -9.2924 1.97516 8
    endloop
  endfacet
  facet normal 0 0 1
    outer loop
      vertex -7.36044 8.17459 8
      vertex -8.67868 3.864 8
      vertex -5.5 9.52628 8
    endloop
  endfacet
  facet normal 0 0 1
    outer loop
      vertex -7.36044 8.17459 8
      vertex -9.2924 1.97516 8
      vertex -8.67868 3.864 8
    endloop
  endfacet
  facet normal 0 0 1
    outer loop
      vertex -8.67868 3.864 8
      vertex -7.68566 5.58396 8
      vertex -5.5 9.52628 8
    endloop
  endfacet
  facet normal 0 0 1
    outer loop
      vertex -5.5 9.52628 8
      vertex -6.35674 7.05988 8
      vertex -3.39919 10.4616 8
    endloop
  endfacet
  facet normal 0 0 1
    outer loop
      vertex -6.35674 7.05988 8
      vertex -4.75 8.22724 8
      vertex -3.39919 10.4616 8
    endloop
  endfacet
  facet normal 0 0 1
    outer loop
      vertex -3.39919 10.4616 8
      vertex -2.93566 9.03504 8
      vertex -1.14981 10.9397 8
    endloop
  endfacet
  facet normal 0 0 1
    outer loop
      vertex -9.5 0 8
      vertex -9.2924 1.97516 8
      vertex -10.7596 -2.28703 8
    endloop
  endfacet
  facet normal 0 0 1
    outer loop
      vertex -1.14981 10.9397 8
      vertex -0.99302 9.44796 8
      vertex 1.14981 10.9397 8
    endloop
  endfacet
  facet normal 0 0 1
    outer loop
      vertex 1.14981 10.9397 8
      vertex 0.99302 9.44796 8
      vertex 3.39919 10.4616 8
    endloop
  endfacet
  facet normal 0 0 1
    outer loop
      vertex 3.39919 10.4616 8
      vertex 2.93566 9.03504 8
      vertex 5.5 9.52628 8
    endloop
  endfacet
  facet normal 0 0 1
    outer loop
      vertex 5.5 9.52628 8
      vertex 4.75 8.22724 8
      vertex 7.36044 8.17459 8
    endloop
  endfacet
  facet normal 0 0 1
    outer loop
      vertex 7.36044 8.17459 8
      vertex 6.35674 7.05988 8
      vertex 8.89919 6.46564 8
    endloop
  endfacet
  facet normal 0 0 1
    outer loop
      vertex 8.89919 6.46564 8
      vertex 7.68566 5.58396 8
      vertex 10.049 4.4741 8
    endloop
  endfacet
  facet normal 0 0 1
    outer loop
      vertex 10.049 4.4741 8
      vertex 8.67868 3.864 8
      vertex 10.7596 2.28703 8
    endloop
  endfacet
  facet normal 0 0 1
    outer loop
      vertex 10.7596 2.28703 8
      vertex 9.2924 1.97516 8
      vertex 11 0 8
    endloop
  endfacet
  facet normal 0 0 1
    outer loop
      vertex 9.2924 1.97516 8
      vertex 9.5 0 8
      vertex 11 0 8
    endloop
  endfacet
  facet normal 0 0 1
    outer loop
      vertex 11 0 8
      vertex 9.2924 -1.97516 8
      vertex 10.7596 -2.28703 8
    endloop
  endfacet
  facet normal 0 0 1
    outer loop
      vertex 10.7596 -2.28703 8
      vertex 8.67868 -3.864 8
      vertex 10.049 -4.4741 8
    endloop
  endfacet
  facet normal 0 0 1
    outer loop
      vertex 10.049 -4.4741 8
      vertex 7.68566 -5.58396 8
      vertex 8.89919 -6.46564 8
    endloop
  endfacet
  facet normal 0 0 1
    outer loop
      vertex 8.89919 -6.46564 8
      vertex 6.35674 -7.05988 8
      vertex 7.36044 -8.17459 8
    endloop
  endfacet
  facet normal 0 0 1
    outer loop
      vertex 7.36044 -8.17459 8
      vertex 4.75 -8.22724 8
      vertex 5.5 -9.52628 8
    endloop
  endfacet
  facet normal 0 0 1
    outer loop
      vertex 5.5 -9.52628 8
      vertex 2.93566 -9.03504 8
      vertex 3.39919 -10.4616 8
    endloop
  endfacet
  facet normal 0 0 1
    outer loop
      vertex 3.39919 -10.4616 8
      vertex 0.99302 -9.44796 8
      vertex 1.14981 -10.9397 8
    endloop
  endfacet
  facet normal 0 0 1
    outer loop
      vertex 1.14981 -10.9397 8
      vertex -0.99302 -9.44796 8
      vertex -1.14981 -10.9397 8
    endloop
  endfacet
  facet normal 0 0 1
    outer loop
      vertex -0.99302 -9.44796 8
      vertex -2.93566 -9.03504 8
      vertex -1.14981 -10.9397 8
    endloop
  endfacet
  facet normal 0 0 1
    outer loop
      vertex -1.14981 -10.9397 8
      vertex -4.75 -8.22724 8
      vertex -3.39919 -10.4616 8
    endloop
  endfacet
  facet normal 0 0 1
    outer loop
      vertex -4.75 -8.22724 8
      vertex -6.35674 -7.05988 8
      vertex -3.39919 -10.4616 8
    endloop
  endfacet
  facet normal 0 0 1
    outer loop
      vertex -7.68566 -5.58396 8
      vertex -10.7596 -2.28703 8
      vertex -6.35674 -7.05988 8
    endloop
  endfacet
  facet normal 0 0 1
    outer loop
      vertex -7.68566 -5.58396 8
      vertex -8.67868 -3.864 8
      vertex -10.7596 -2.28703 8
    endloop
  endfacet
  facet normal 0 0 1
    outer loop
      vertex -0.99302 9.44796 8
      vertex 0.99302 9.44796 8
      vertex 1.14981 10.9397 8
    endloop
  endfacet
  facet normal 0 0 1
    outer loop
      vertex 0.99302 9.44796 8
      vertex 2.93566 9.03504 8
      vertex 3.39919 10.4616 8
    endloop
  endfacet
  facet normal 0 0 1
    outer loop
      vertex 2.93566 9.03504 8
      vertex 4.75 8.22724 8
      vertex 5.5 9.52628 8
    endloop
  endfacet
  facet normal 0 0 1
    outer loop
      vertex 4.75 8.22724 8
      vertex 6.35674 7.05988 8
      vertex 7.36044 8.17459 8
    endloop
  endfacet
  facet normal 0 0 1
    outer loop
      vertex 6.35674 7.05988 8
      vertex 7.68566 5.58396 8
      vertex 8.89919 6.46564 8
    endloop
  endfacet
  facet normal 0 0 1
    outer loop
      vertex 7.68566 5.58396 8
      vertex 8.67868 3.864 8
      vertex 10.049 4.4741 8
    endloop
  endfacet
  facet normal 0 0 1
    outer loop
      vertex -9.2924 -1.97516 8
      vertex -9.5 0 8
      vertex -10.7596 -2.28703 8
    endloop
  endfacet
endsolid OpenSCAD_Model
