solid OpenSCAD_Model
  facet normal -1 0 0
    outer loop
      vertex -36.075 -40.6 0
      vertex -36.075 -40.6 6
      vertex -36.075 40.6 0
    endloop
  endfacet
  facet normal -1 0 0
    outer loop
      vertex -36.075 40.6 0
      vertex -36.075 -40.6 6
      vertex -36.075 40.6 6
    endloop
  endfacet
  facet normal 0 -1 0
    outer loop
      vertex -36.075 -40.6 6
      vertex -36.075 -40.6 0
      vertex 41.075 -40.6 0
    endloop
  endfacet
  facet normal 0 -1 0
    outer loop
      vertex 41.075 -40.6 6
      vertex -36.075 -40.6 6
      vertex 41.075 -40.6 0
    endloop
  endfacet
  facet normal 0 0 -1
    outer loop
      vertex 1.5 27.4 0
      vertex -1.5 29.8357 0
      vertex 1.5 29.8357 0
    endloop
  endfacet
  facet normal 0 0 -1
    outer loop
      vertex -15.5118 39.0705 0
      vertex -36.075 40.6 0
      vertex 41.075 40.6 0
    endloop
  endfacet
  facet normal 0 0 -1
    outer loop
      vertex -36.075 -40.6 0
      vertex -36.075 40.6 0
      vertex -30 0 0
    endloop
  endfacet
  facet normal 0 0 -1
    outer loop
      vertex -36.075 -40.6 0
      vertex -30 0 0
      vertex -29.3444 -6.23735 0
    endloop
  endfacet
  facet normal 0 0 -1
    outer loop
      vertex 20.0739 -22.2943 0
      vertex 26.9685 -31.3644 0
      vertex 15 -25.9808 0
    endloop
  endfacet
  facet normal 0 0 -1
    outer loop
      vertex -36.075 -40.6 0
      vertex -29.3444 -6.23735 0
      vertex -27.4064 -12.2021 0
    endloop
  endfacet
  facet normal 0 0 -1
    outer loop
      vertex -36.075 -40.6 0
      vertex -27.4064 -12.2021 0
      vertex -24.2705 -17.6336 0
    endloop
  endfacet
  facet normal 0 0 -1
    outer loop
      vertex -36.075 -40.6 0
      vertex -24.2705 -17.6336 0
      vertex -20.0739 -22.2943 0
    endloop
  endfacet
  facet normal 0 0 -1
    outer loop
      vertex 24.2705 -17.6336 0
      vertex 30.4882 -30.0295 0
      vertex 20.0739 -22.2943 0
    endloop
  endfacet
  facet normal 0 0 -1
    outer loop
      vertex -36.075 -40.6 0
      vertex -20.0739 -22.2943 0
      vertex -15 -25.9808 0
    endloop
  endfacet
  facet normal 0 0 -1
    outer loop
      vertex 9.27051 -28.5317 0
      vertex 26.0677 -35.0192 0
      vertex 3.13585 -29.8357 0
    endloop
  endfacet
  facet normal 0 0 -1
    outer loop
      vertex -15.5118 -30.0295 0
      vertex -15 -25.9808 0
      vertex -9.27051 -28.5317 0
    endloop
  endfacet
  facet normal 0 0 -1
    outer loop
      vertex 28.5638 -37.8368 0
      vertex -9.27051 -28.5317 0
      vertex -3.13585 -29.8357 0
    endloop
  endfacet
  facet normal 0 0 -1
    outer loop
      vertex 26.9685 -36.7356 0
      vertex 3.13585 -29.8357 0
      vertex 26.0677 -35.0192 0
    endloop
  endfacet
  facet normal 0 0 -1
    outer loop
      vertex 26.0677 -35.0192 0
      vertex 9.27051 -28.5317 0
      vertex 26.0677 -33.0808 0
    endloop
  endfacet
  facet normal 0 0 -1
    outer loop
      vertex -19.9323 -35.0192 0
      vertex -36.075 -40.6 0
      vertex -19.9323 -33.0808 0
    endloop
  endfacet
  facet normal 0 0 -1
    outer loop
      vertex 30 0 0
      vertex 41.075 40.6 0
      vertex 29.3444 -6.23735 0
    endloop
  endfacet
  facet normal 0 0 -1
    outer loop
      vertex 41.075 -40.6 0
      vertex 24.2705 -17.6336 0
      vertex 27.4064 -12.2021 0
    endloop
  endfacet
  facet normal 0 0 -1
    outer loop
      vertex 41.075 -40.6 0
      vertex 27.4064 -12.2021 0
      vertex 29.3444 -6.23735 0
    endloop
  endfacet
  facet normal 0 0 -1
    outer loop
      vertex 41.075 -40.6 0
      vertex 29.3444 -6.23735 0
      vertex 41.075 40.6 0
    endloop
  endfacet
  facet normal 0 0 -1
    outer loop
      vertex 29.3444 6.23735 0
      vertex 41.075 40.6 0
      vertex 30 0 0
    endloop
  endfacet
  facet normal 0 0 -1
    outer loop
      vertex -20.0739 22.2943 0
      vertex -36.075 40.6 0
      vertex -15 25.9808 0
    endloop
  endfacet
  facet normal 0 0 -1
    outer loop
      vertex -15 25.9808 0
      vertex -36.075 40.6 0
      vertex -17.4361 31.2632 0
    endloop
  endfacet
  facet normal 0 0 -1
    outer loop
      vertex 29.3444 6.23735 0
      vertex 27.4064 12.2021 0
      vertex 41.075 40.6 0
    endloop
  endfacet
  facet normal 0 0 -1
    outer loop
      vertex -1.5 29.8357 0
      vertex 1.5 27.4 0
      vertex -1.5 27.4 0
    endloop
  endfacet
  facet normal 0 0 -1
    outer loop
      vertex 27.4064 12.2021 0
      vertex 24.2705 17.6336 0
      vertex 41.075 40.6 0
    endloop
  endfacet
  facet normal 0 0 -1
    outer loop
      vertex 34.05 35.05 0
      vertex 41.075 40.6 0
      vertex 33.5861 33.1679 0
    endloop
  endfacet
  facet normal 0 0 -1
    outer loop
      vertex 30.4882 31.0295 0
      vertex 20.0739 22.2943 0
      vertex 28.5638 31.2632 0
    endloop
  endfacet
  facet normal 0 0 -1
    outer loop
      vertex 26.9685 32.3644 0
      vertex 15 25.9808 0
      vertex 26.0677 34.0808 0
    endloop
  endfacet
  facet normal 0 0 -1
    outer loop
      vertex -19.9323 34.0808 0
      vertex -36.075 40.6 0
      vertex -19.9323 36.0192 0
    endloop
  endfacet
  facet normal 0 0 -1
    outer loop
      vertex -9.27051 28.5317 0
      vertex -13.6993 31.7169 0
      vertex -3.13585 29.8357 0
    endloop
  endfacet
  facet normal 0 0 -1
    outer loop
      vertex -11.95 35.05 0
      vertex 3.13585 29.8357 0
      vertex 1.5 29.8357 0
    endloop
  endfacet
  facet normal 0 0 -1
    outer loop
      vertex -19.0315 32.3644 0
      vertex -36.075 40.6 0
      vertex -19.9323 34.0808 0
    endloop
  endfacet
  facet normal 0 0 -1
    outer loop
      vertex -24.2705 17.6336 0
      vertex -36.075 40.6 0
      vertex -20.0739 22.2943 0
    endloop
  endfacet
  facet normal 0 0 -1
    outer loop
      vertex -27.4064 12.2021 0
      vertex -36.075 40.6 0
      vertex -24.2705 17.6336 0
    endloop
  endfacet
  facet normal 0 0 -1
    outer loop
      vertex -29.3444 6.23735 0
      vertex -36.075 40.6 0
      vertex -27.4064 12.2021 0
    endloop
  endfacet
  facet normal 0 0 -1
    outer loop
      vertex -30 0 0
      vertex -36.075 40.6 0
      vertex -29.3444 6.23735 0
    endloop
  endfacet
  facet normal 0 0 -1
    outer loop
      vertex -19.9323 36.0192 0
      vertex -36.075 40.6 0
      vertex -19.0315 37.7356 0
    endloop
  endfacet
  facet normal 0 0 -1
    outer loop
      vertex -19.0315 37.7356 0
      vertex -36.075 40.6 0
      vertex -17.4361 38.8368 0
    endloop
  endfacet
  facet normal 0 0 -1
    outer loop
      vertex -15.5118 -30.0295 0
      vertex -9.27051 -28.5317 0
      vertex -13.6993 -30.7169 0
    endloop
  endfacet
  facet normal 0 0 -1
    outer loop
      vertex -36.075 -40.6 0
      vertex -19.9323 -35.0192 0
      vertex -19.0315 -36.7356 0
    endloop
  endfacet
  facet normal 0 0 -1
    outer loop
      vertex -36.075 -40.6 0
      vertex -19.0315 -36.7356 0
      vertex -17.4361 -37.8368 0
    endloop
  endfacet
  facet normal 0 0 -1
    outer loop
      vertex -36.075 -40.6 0
      vertex -17.4361 -37.8368 0
      vertex -15.5118 -38.0705 0
    endloop
  endfacet
  facet normal 0 0 -1
    outer loop
      vertex -36.075 -40.6 0
      vertex -15.5118 -38.0705 0
      vertex 41.075 -40.6 0
    endloop
  endfacet
  facet normal 0 0 -1
    outer loop
      vertex -12.4139 -35.9321 0
      vertex 41.075 -40.6 0
      vertex -13.6993 -37.3831 0
    endloop
  endfacet
  facet normal 0 0 -1
    outer loop
      vertex -11.95 -34.05 0
      vertex 41.075 -40.6 0
      vertex -12.4139 -35.9321 0
    endloop
  endfacet
  facet normal 0 0 -1
    outer loop
      vertex -12.4139 -32.1679 0
      vertex -9.27051 -28.5317 0
      vertex -11.95 -34.05 0
    endloop
  endfacet
  facet normal 0 0 -1
    outer loop
      vertex -13.6993 -30.7169 0
      vertex -9.27051 -28.5317 0
      vertex -12.4139 -32.1679 0
    endloop
  endfacet
  facet normal 0 0 -1
    outer loop
      vertex -13.6993 -37.3831 0
      vertex 41.075 -40.6 0
      vertex -15.5118 -38.0705 0
    endloop
  endfacet
  facet normal 0 0 -1
    outer loop
      vertex -17.4361 -30.2632 0
      vertex -15 -25.9808 0
      vertex -15.5118 -30.0295 0
    endloop
  endfacet
  facet normal 0 0 -1
    outer loop
      vertex -19.0315 -31.3644 0
      vertex -15 -25.9808 0
      vertex -17.4361 -30.2632 0
    endloop
  endfacet
  facet normal 0 0 -1
    outer loop
      vertex -11.95 35.05 0
      vertex 9.27051 28.5317 0
      vertex 3.13585 29.8357 0
    endloop
  endfacet
  facet normal 0 0 -1
    outer loop
      vertex -36.075 -40.6 0
      vertex -15 -25.9808 0
      vertex -19.0315 -31.3644 0
    endloop
  endfacet
  facet normal 0 0 -1
    outer loop
      vertex -36.075 -40.6 0
      vertex -19.0315 -31.3644 0
      vertex -19.9323 -33.0808 0
    endloop
  endfacet
  facet normal 0 0 -1
    outer loop
      vertex -3.13585 29.8357 0
      vertex -12.4139 33.1679 0
      vertex -1.5 29.8357 0
    endloop
  endfacet
  facet normal 0 0 -1
    outer loop
      vertex -11.95 35.05 0
      vertex -1.5 29.8357 0
      vertex -12.4139 33.1679 0
    endloop
  endfacet
  facet normal 0 0 -1
    outer loop
      vertex -17.4361 31.2632 0
      vertex -36.075 40.6 0
      vertex -19.0315 32.3644 0
    endloop
  endfacet
  facet normal 0 0 -1
    outer loop
      vertex -15.5118 31.0295 0
      vertex -9.27051 28.5317 0
      vertex -17.4361 31.2632 0
    endloop
  endfacet
  facet normal 0 0 -1
    outer loop
      vertex -13.6993 31.7169 0
      vertex -9.27051 28.5317 0
      vertex -15.5118 31.0295 0
    endloop
  endfacet
  facet normal 0 0 -1
    outer loop
      vertex -15 25.9808 0
      vertex -17.4361 31.2632 0
      vertex -9.27051 28.5317 0
    endloop
  endfacet
  facet normal 0 0 -1
    outer loop
      vertex -11.95 35.05 0
      vertex 1.5 29.8357 0
      vertex -1.5 29.8357 0
    endloop
  endfacet
  facet normal 0 0 -1
    outer loop
      vertex 30.4882 39.0705 0
      vertex -11.95 35.05 0
      vertex 41.075 40.6 0
    endloop
  endfacet
  facet normal 0 0 -1
    outer loop
      vertex 26.0677 -33.0808 0
      vertex 15 -25.9808 0
      vertex 26.9685 -31.3644 0
    endloop
  endfacet
  facet normal 0 0 -1
    outer loop
      vertex -11.95 35.05 0
      vertex -12.4139 36.9321 0
      vertex 41.075 40.6 0
    endloop
  endfacet
  facet normal 0 0 -1
    outer loop
      vertex 34.05 -34.05 0
      vertex 41.075 -40.6 0
      vertex 33.5861 -35.9321 0
    endloop
  endfacet
  facet normal 0 0 -1
    outer loop
      vertex -12.4139 36.9321 0
      vertex -13.6993 38.3831 0
      vertex 41.075 40.6 0
    endloop
  endfacet
  facet normal 0 0 -1
    outer loop
      vertex -17.4361 38.8368 0
      vertex -36.075 40.6 0
      vertex -15.5118 39.0705 0
    endloop
  endfacet
  facet normal 0 0 -1
    outer loop
      vertex -13.6993 38.3831 0
      vertex -15.5118 39.0705 0
      vertex 41.075 40.6 0
    endloop
  endfacet
  facet normal 0 0 -1
    outer loop
      vertex -12.4139 33.1679 0
      vertex -3.13585 29.8357 0
      vertex -13.6993 31.7169 0
    endloop
  endfacet
  facet normal 0 0 -1
    outer loop
      vertex 26.9685 -31.3644 0
      vertex 20.0739 -22.2943 0
      vertex 28.5638 -30.2632 0
    endloop
  endfacet
  facet normal 0 0 -1
    outer loop
      vertex 33.5861 -35.9321 0
      vertex 41.075 -40.6 0
      vertex 32.3007 -37.3831 0
    endloop
  endfacet
  facet normal 0 0 -1
    outer loop
      vertex 28.5638 -37.8368 0
      vertex -3.13585 -29.8357 0
      vertex 26.9685 -36.7356 0
    endloop
  endfacet
  facet normal 0 0 -1
    outer loop
      vertex -11.95 -34.05 0
      vertex -9.27051 -28.5317 0
      vertex 28.5638 -37.8368 0
    endloop
  endfacet
  facet normal 0 0 -1
    outer loop
      vertex -11.95 -34.05 0
      vertex 28.5638 -37.8368 0
      vertex 41.075 -40.6 0
    endloop
  endfacet
  facet normal 0 0 -1
    outer loop
      vertex 32.3007 -37.3831 0
      vertex 41.075 -40.6 0
      vertex 30.4882 -38.0705 0
    endloop
  endfacet
  facet normal 0 0 -1
    outer loop
      vertex 28.5638 -37.8368 0
      vertex 30.4882 -38.0705 0
      vertex 41.075 -40.6 0
    endloop
  endfacet
  facet normal 0 0 -1
    outer loop
      vertex 15 -25.9808 0
      vertex 26.0677 -33.0808 0
      vertex 9.27051 -28.5317 0
    endloop
  endfacet
  facet normal 0 0 -1
    outer loop
      vertex 26.0677 34.0808 0
      vertex 9.27051 28.5317 0
      vertex 26.0677 36.0192 0
    endloop
  endfacet
  facet normal 0 0 -1
    outer loop
      vertex 24.2705 -17.6336 0
      vertex 32.3007 -30.7169 0
      vertex 30.4882 -30.0295 0
    endloop
  endfacet
  facet normal 0 0 -1
    outer loop
      vertex 33.5861 -32.1679 0
      vertex 41.075 -40.6 0
      vertex 34.05 -34.05 0
    endloop
  endfacet
  facet normal 0 0 -1
    outer loop
      vertex 41.075 -40.6 0
      vertex 33.5861 -32.1679 0
      vertex 24.2705 -17.6336 0
    endloop
  endfacet
  facet normal 0 0 -1
    outer loop
      vertex 33.5861 -32.1679 0
      vertex 32.3007 -30.7169 0
      vertex 24.2705 -17.6336 0
    endloop
  endfacet
  facet normal 0 0 -1
    outer loop
      vertex 28.5638 -30.2632 0
      vertex 20.0739 -22.2943 0
      vertex 30.4882 -30.0295 0
    endloop
  endfacet
  facet normal 0 0 -1
    outer loop
      vertex 9.27051 28.5317 0
      vertex -11.95 35.05 0
      vertex 26.0677 36.0192 0
    endloop
  endfacet
  facet normal 0 0 -1
    outer loop
      vertex 32.3007 38.3831 0
      vertex 41.075 40.6 0
      vertex 33.5861 36.9321 0
    endloop
  endfacet
  facet normal 0 0 -1
    outer loop
      vertex 15 25.9808 0
      vertex 9.27051 28.5317 0
      vertex 26.0677 34.0808 0
    endloop
  endfacet
  facet normal 0 0 -1
    outer loop
      vertex 20.0739 22.2943 0
      vertex 15 25.9808 0
      vertex 26.9685 32.3644 0
    endloop
  endfacet
  facet normal 0 0 -1
    outer loop
      vertex 20.0739 22.2943 0
      vertex 26.9685 32.3644 0
      vertex 28.5638 31.2632 0
    endloop
  endfacet
  facet normal 0 0 -1
    outer loop
      vertex 24.2705 17.6336 0
      vertex 20.0739 22.2943 0
      vertex 30.4882 31.0295 0
    endloop
  endfacet
  facet normal 0 0 -1
    outer loop
      vertex 24.2705 17.6336 0
      vertex 30.4882 31.0295 0
      vertex 32.3007 31.7169 0
    endloop
  endfacet
  facet normal 0 0 -1
    outer loop
      vertex 24.2705 17.6336 0
      vertex 32.3007 31.7169 0
      vertex 41.075 40.6 0
    endloop
  endfacet
  facet normal 0 0 -1
    outer loop
      vertex 32.3007 31.7169 0
      vertex 33.5861 33.1679 0
      vertex 41.075 40.6 0
    endloop
  endfacet
  facet normal 0 0 -1
    outer loop
      vertex 33.5861 36.9321 0
      vertex 41.075 40.6 0
      vertex 34.05 35.05 0
    endloop
  endfacet
  facet normal 0 0 -1
    outer loop
      vertex 26.9685 37.7356 0
      vertex -11.95 35.05 0
      vertex 28.5638 38.8368 0
    endloop
  endfacet
  facet normal 0 0 -1
    outer loop
      vertex 28.5638 38.8368 0
      vertex -11.95 35.05 0
      vertex 30.4882 39.0705 0
    endloop
  endfacet
  facet normal 0 0 -1
    outer loop
      vertex 32.3007 38.3831 0
      vertex 30.4882 39.0705 0
      vertex 41.075 40.6 0
    endloop
  endfacet
  facet normal 0 0 -1
    outer loop
      vertex 26.0677 36.0192 0
      vertex -11.95 35.05 0
      vertex 26.9685 37.7356 0
    endloop
  endfacet
  facet normal 0 0 -1
    outer loop
      vertex 3.13585 -29.8357 0
      vertex 26.9685 -36.7356 0
      vertex -3.13585 -29.8357 0
    endloop
  endfacet
  facet normal 0 1 0
    outer loop
      vertex -36.075 40.6 0
      vertex -36.075 40.6 6
      vertex 41.075 40.6 0
    endloop
  endfacet
  facet normal 0 1 0
    outer loop
      vertex 41.075 40.6 0
      vertex -36.075 40.6 6
      vertex 41.075 40.6 6
    endloop
  endfacet
  facet normal 0 0 1
    outer loop
      vertex -15.5118 -38.0705 6
      vertex -36.075 -40.6 6
      vertex 41.075 -40.6 6
    endloop
  endfacet
  facet normal 0 0 1
    outer loop
      vertex 32.3007 38.3831 6
      vertex 33.5861 36.9321 6
      vertex 41.075 40.6 6
    endloop
  endfacet
  facet normal 0 0 1
    outer loop
      vertex -19.0315 -36.7356 6
      vertex -19.9323 -35.0192 6
      vertex -36.075 -40.6 6
    endloop
  endfacet
  facet normal 0 0 1
    outer loop
      vertex -32 0 6
      vertex -36.075 -40.6 6
      vertex -31.3007 -6.65317 6
    endloop
  endfacet
  facet normal 0 0 1
    outer loop
      vertex 21.4122 -23.7806 6
      vertex 16 -27.7128 6
      vertex 26.9685 -31.3644 6
    endloop
  endfacet
  facet normal 0 0 1
    outer loop
      vertex -36.075 40.6 6
      vertex -36.075 -40.6 6
      vertex -32 0 6
    endloop
  endfacet
  facet normal 0 0 1
    outer loop
      vertex 16 -27.7128 6
      vertex 26.0677 -35.0192 6
      vertex 26.0677 -33.0808 6
    endloop
  endfacet
  facet normal 0 0 1
    outer loop
      vertex 33.5861 -35.9321 6
      vertex 32.3007 -37.3831 6
      vertex 41.075 -40.6 6
    endloop
  endfacet
  facet normal 0 0 1
    outer loop
      vertex -36.075 40.6 6
      vertex -31.3007 6.65317 6
      vertex -29.2335 13.0156 6
    endloop
  endfacet
  facet normal 0 0 1
    outer loop
      vertex -36.075 40.6 6
      vertex -29.2335 13.0156 6
      vertex -25.8885 18.8091 6
    endloop
  endfacet
  facet normal 0 0 1
    outer loop
      vertex -36.075 40.6 6
      vertex -25.8885 18.8091 6
      vertex -21.4122 23.7806 6
    endloop
  endfacet
  facet normal 0 0 1
    outer loop
      vertex -19.0315 32.3644 6
      vertex -36.075 40.6 6
      vertex -16 27.7128 6
    endloop
  endfacet
  facet normal 0 0 1
    outer loop
      vertex 31.3007 -6.65317 6
      vertex 29.2335 -13.0156 6
      vertex 41.075 -40.6 6
    endloop
  endfacet
  facet normal 0 0 1
    outer loop
      vertex -15.5118 39.0705 6
      vertex -13.6993 38.3831 6
      vertex 41.075 40.6 6
    endloop
  endfacet
  facet normal 0 0 1
    outer loop
      vertex 26.0677 36.0192 6
      vertex 3.34491 31.8247 6
      vertex 9.88854 30.4338 6
    endloop
  endfacet
  facet normal 0 0 1
    outer loop
      vertex 26.0677 34.0808 6
      vertex 9.88854 30.4338 6
      vertex 16 27.7128 6
    endloop
  endfacet
  facet normal 0 0 1
    outer loop
      vertex 29.2335 -13.0156 6
      vertex 25.8885 -18.8091 6
      vertex 41.075 -40.6 6
    endloop
  endfacet
  facet normal 0 0 1
    outer loop
      vertex 28.5638 31.2632 6
      vertex 16 27.7128 6
      vertex 21.4122 23.7806 6
    endloop
  endfacet
  facet normal 0 0 1
    outer loop
      vertex 32.3007 31.7169 6
      vertex 21.4122 23.7806 6
      vertex 25.8885 18.8091 6
    endloop
  endfacet
  facet normal 0 0 1
    outer loop
      vertex 32 0 6
      vertex 31.3007 -6.65317 6
      vertex 41.075 -40.6 6
    endloop
  endfacet
  facet normal 0 0 1
    outer loop
      vertex 41.075 40.6 6
      vertex 25.8885 18.8091 6
      vertex 29.2335 13.0156 6
    endloop
  endfacet
  facet normal 0 0 1
    outer loop
      vertex 41.075 40.6 6
      vertex 31.3007 6.65317 6
      vertex 41.075 -40.6 6
    endloop
  endfacet
  facet normal 0 0 1
    outer loop
      vertex 41.075 40.6 6
      vertex 29.2335 13.0156 6
      vertex 31.3007 6.65317 6
    endloop
  endfacet
  facet normal 0 0 1
    outer loop
      vertex -15.5118 -38.0705 6
      vertex -17.4361 -37.8368 6
      vertex -36.075 -40.6 6
    endloop
  endfacet
  facet normal 0 0 1
    outer loop
      vertex -19.9323 36.0192 6
      vertex -19.0315 37.7356 6
      vertex -36.075 40.6 6
    endloop
  endfacet
  facet normal 0 0 1
    outer loop
      vertex -19.9323 -35.0192 6
      vertex -19.9323 -33.0808 6
      vertex -36.075 -40.6 6
    endloop
  endfacet
  facet normal 0 0 1
    outer loop
      vertex -21.4122 -23.7806 6
      vertex -36.075 -40.6 6
      vertex -16 -27.7128 6
    endloop
  endfacet
  facet normal 0 0 1
    outer loop
      vertex -25.8885 -18.8091 6
      vertex -36.075 -40.6 6
      vertex -21.4122 -23.7806 6
    endloop
  endfacet
  facet normal 0 0 1
    outer loop
      vertex -29.2335 -13.0156 6
      vertex -36.075 -40.6 6
      vertex -25.8885 -18.8091 6
    endloop
  endfacet
  facet normal 0 0 1
    outer loop
      vertex -31.3007 -6.65317 6
      vertex -36.075 -40.6 6
      vertex -29.2335 -13.0156 6
    endloop
  endfacet
  facet normal 0 0 1
    outer loop
      vertex -19.0315 -31.3644 6
      vertex -17.4361 -30.2632 6
      vertex -16 -27.7128 6
    endloop
  endfacet
  facet normal 0 0 1
    outer loop
      vertex -11.95 -34.05 6
      vertex 3.34491 -31.8247 6
      vertex -3.34491 -31.8247 6
    endloop
  endfacet
  facet normal 0 0 1
    outer loop
      vertex -19.0315 -31.3644 6
      vertex -36.075 -40.6 6
      vertex -19.9323 -33.0808 6
    endloop
  endfacet
  facet normal 0 0 1
    outer loop
      vertex -15.5118 -30.0295 6
      vertex -13.6993 -30.7169 6
      vertex -9.88854 -30.4338 6
    endloop
  endfacet
  facet normal 0 0 1
    outer loop
      vertex -16 -27.7128 6
      vertex -36.075 -40.6 6
      vertex -19.0315 -31.3644 6
    endloop
  endfacet
  facet normal 0 0 1
    outer loop
      vertex -16 -27.7128 6
      vertex -15.5118 -30.0295 6
      vertex -9.88854 -30.4338 6
    endloop
  endfacet
  facet normal 0 0 1
    outer loop
      vertex -16 -27.7128 6
      vertex -17.4361 -30.2632 6
      vertex -15.5118 -30.0295 6
    endloop
  endfacet
  facet normal 0 0 1
    outer loop
      vertex -9.88854 -30.4338 6
      vertex -12.4139 -32.1679 6
      vertex -3.34491 -31.8247 6
    endloop
  endfacet
  facet normal 0 0 1
    outer loop
      vertex -17.4361 31.2632 6
      vertex -19.0315 32.3644 6
      vertex -16 27.7128 6
    endloop
  endfacet
  facet normal 0 0 1
    outer loop
      vertex -12.4139 -32.1679 6
      vertex -11.95 -34.05 6
      vertex -3.34491 -31.8247 6
    endloop
  endfacet
  facet normal 0 0 1
    outer loop
      vertex 30.4882 -38.0705 6
      vertex -12.4139 -35.9321 6
      vertex 41.075 -40.6 6
    endloop
  endfacet
  facet normal 0 0 1
    outer loop
      vertex -12.4139 -35.9321 6
      vertex -13.6993 -37.3831 6
      vertex 41.075 -40.6 6
    endloop
  endfacet
  facet normal 0 0 1
    outer loop
      vertex -13.6993 -37.3831 6
      vertex -15.5118 -38.0705 6
      vertex 41.075 -40.6 6
    endloop
  endfacet
  facet normal 0 0 1
    outer loop
      vertex -17.4361 -37.8368 6
      vertex -19.0315 -36.7356 6
      vertex -36.075 -40.6 6
    endloop
  endfacet
  facet normal 0 0 1
    outer loop
      vertex -19.9323 34.0808 6
      vertex -19.9323 36.0192 6
      vertex -36.075 40.6 6
    endloop
  endfacet
  facet normal 0 0 1
    outer loop
      vertex -13.6993 -30.7169 6
      vertex -12.4139 -32.1679 6
      vertex -9.88854 -30.4338 6
    endloop
  endfacet
  facet normal 0 0 1
    outer loop
      vertex 26.9685 -36.7356 6
      vertex 26.0677 -35.0192 6
      vertex 9.88854 -30.4338 6
    endloop
  endfacet
  facet normal 0 0 1
    outer loop
      vertex -12.4139 33.1679 6
      vertex -13.6993 31.7169 6
      vertex -9.88854 30.4338 6
    endloop
  endfacet
  facet normal 0 0 1
    outer loop
      vertex -11.95 35.05 6
      vertex -12.4139 33.1679 6
      vertex -3.34491 31.8247 6
    endloop
  endfacet
  facet normal 0 0 1
    outer loop
      vertex -17.4361 38.8368 6
      vertex -36.075 40.6 6
      vertex -19.0315 37.7356 6
    endloop
  endfacet
  facet normal 0 0 1
    outer loop
      vertex -15.5118 39.0705 6
      vertex -36.075 40.6 6
      vertex -17.4361 38.8368 6
    endloop
  endfacet
  facet normal 0 0 1
    outer loop
      vertex -13.6993 38.3831 6
      vertex -12.4139 36.9321 6
      vertex 41.075 40.6 6
    endloop
  endfacet
  facet normal 0 0 1
    outer loop
      vertex 41.075 40.6 6
      vertex -36.075 40.6 6
      vertex -15.5118 39.0705 6
    endloop
  endfacet
  facet normal 0 0 1
    outer loop
      vertex -12.4139 36.9321 6
      vertex -11.95 35.05 6
      vertex -3.34491 31.8247 6
    endloop
  endfacet
  facet normal 0 0 1
    outer loop
      vertex 28.5638 38.8368 6
      vertex -12.4139 36.9321 6
      vertex -3.34491 31.8247 6
    endloop
  endfacet
  facet normal 0 0 1
    outer loop
      vertex -3.34491 31.8247 6
      vertex -12.4139 33.1679 6
      vertex -9.88854 30.4338 6
    endloop
  endfacet
  facet normal 0 0 1
    outer loop
      vertex -9.88854 30.4338 6
      vertex -13.6993 31.7169 6
      vertex -16 27.7128 6
    endloop
  endfacet
  facet normal 0 0 1
    outer loop
      vertex -13.6993 31.7169 6
      vertex -15.5118 31.0295 6
      vertex -16 27.7128 6
    endloop
  endfacet
  facet normal 0 0 1
    outer loop
      vertex -15.5118 31.0295 6
      vertex -17.4361 31.2632 6
      vertex -16 27.7128 6
    endloop
  endfacet
  facet normal 0 0 1
    outer loop
      vertex 28.5638 -37.8368 6
      vertex 26.9685 -36.7356 6
      vertex 9.88854 -30.4338 6
    endloop
  endfacet
  facet normal 0 0 1
    outer loop
      vertex -19.9323 34.0808 6
      vertex -36.075 40.6 6
      vertex -19.0315 32.3644 6
    endloop
  endfacet
  facet normal 0 0 1
    outer loop
      vertex 28.5638 -30.2632 6
      vertex 30.4882 -30.0295 6
      vertex 21.4122 -23.7806 6
    endloop
  endfacet
  facet normal 0 0 1
    outer loop
      vertex 3.34491 -31.8247 6
      vertex -12.4139 -35.9321 6
      vertex 9.88854 -30.4338 6
    endloop
  endfacet
  facet normal 0 0 1
    outer loop
      vertex -11.95 -34.05 6
      vertex -12.4139 -35.9321 6
      vertex 3.34491 -31.8247 6
    endloop
  endfacet
  facet normal 0 0 1
    outer loop
      vertex 16 -27.7128 6
      vertex 9.88854 -30.4338 6
      vertex 26.0677 -35.0192 6
    endloop
  endfacet
  facet normal 0 0 1
    outer loop
      vertex 34.05 -34.05 6
      vertex 33.5861 -35.9321 6
      vertex 41.075 -40.6 6
    endloop
  endfacet
  facet normal 0 0 1
    outer loop
      vertex 21.4122 -23.7806 6
      vertex 26.9685 -31.3644 6
      vertex 28.5638 -30.2632 6
    endloop
  endfacet
  facet normal 0 0 1
    outer loop
      vertex 32.3007 -30.7169 6
      vertex 33.5861 -32.1679 6
      vertex 41.075 -40.6 6
    endloop
  endfacet
  facet normal 0 0 1
    outer loop
      vertex 32.3007 -37.3831 6
      vertex 30.4882 -38.0705 6
      vertex 41.075 -40.6 6
    endloop
  endfacet
  facet normal 0 0 1
    outer loop
      vertex 26.9685 32.3644 6
      vertex 26.0677 34.0808 6
      vertex 16 27.7128 6
    endloop
  endfacet
  facet normal 0 0 1
    outer loop
      vertex 28.5638 -37.8368 6
      vertex -12.4139 -35.9321 6
      vertex 30.4882 -38.0705 6
    endloop
  endfacet
  facet normal 0 0 1
    outer loop
      vertex 9.88854 -30.4338 6
      vertex -12.4139 -35.9321 6
      vertex 28.5638 -37.8368 6
    endloop
  endfacet
  facet normal 0 0 1
    outer loop
      vertex 26.0677 -33.0808 6
      vertex 26.9685 -31.3644 6
      vertex 16 -27.7128 6
    endloop
  endfacet
  facet normal 0 0 1
    outer loop
      vertex 33.5861 36.9321 6
      vertex 34.05 35.05 6
      vertex 41.075 40.6 6
    endloop
  endfacet
  facet normal 0 0 1
    outer loop
      vertex 26.9685 37.7356 6
      vertex 28.5638 38.8368 6
      vertex -3.34491 31.8247 6
    endloop
  endfacet
  facet normal 0 0 1
    outer loop
      vertex 31.3007 6.65317 6
      vertex 32 0 6
      vertex 41.075 -40.6 6
    endloop
  endfacet
  facet normal 0 0 1
    outer loop
      vertex 25.8885 -18.8091 6
      vertex 32.3007 -30.7169 6
      vertex 41.075 -40.6 6
    endloop
  endfacet
  facet normal 0 0 1
    outer loop
      vertex 41.075 40.6 6
      vertex -12.4139 36.9321 6
      vertex 28.5638 38.8368 6
    endloop
  endfacet
  facet normal 0 0 1
    outer loop
      vertex 30.4882 39.0705 6
      vertex 32.3007 38.3831 6
      vertex 41.075 40.6 6
    endloop
  endfacet
  facet normal 0 0 1
    outer loop
      vertex 41.075 40.6 6
      vertex 28.5638 38.8368 6
      vertex 30.4882 39.0705 6
    endloop
  endfacet
  facet normal 0 0 1
    outer loop
      vertex 34.05 35.05 6
      vertex 33.5861 33.1679 6
      vertex 41.075 40.6 6
    endloop
  endfacet
  facet normal 0 0 1
    outer loop
      vertex 26.0677 34.0808 6
      vertex 26.0677 36.0192 6
      vertex 9.88854 30.4338 6
    endloop
  endfacet
  facet normal 0 0 1
    outer loop
      vertex 41.075 40.6 6
      vertex 33.5861 33.1679 6
      vertex 25.8885 18.8091 6
    endloop
  endfacet
  facet normal 0 0 1
    outer loop
      vertex 33.5861 33.1679 6
      vertex 32.3007 31.7169 6
      vertex 25.8885 18.8091 6
    endloop
  endfacet
  facet normal 0 0 1
    outer loop
      vertex 30.4882 31.0295 6
      vertex 28.5638 31.2632 6
      vertex 21.4122 23.7806 6
    endloop
  endfacet
  facet normal 0 0 1
    outer loop
      vertex 32.3007 31.7169 6
      vertex 30.4882 31.0295 6
      vertex 21.4122 23.7806 6
    endloop
  endfacet
  facet normal 0 0 1
    outer loop
      vertex 28.5638 31.2632 6
      vertex 26.9685 32.3644 6
      vertex 16 27.7128 6
    endloop
  endfacet
  facet normal 0 0 1
    outer loop
      vertex 26.0677 36.0192 6
      vertex 26.9685 37.7356 6
      vertex 3.34491 31.8247 6
    endloop
  endfacet
  facet normal 0 0 1
    outer loop
      vertex -32 0 6
      vertex -31.3007 6.65317 6
      vertex -36.075 40.6 6
    endloop
  endfacet
  facet normal 0 0 1
    outer loop
      vertex -21.4122 23.7806 6
      vertex -16 27.7128 6
      vertex -36.075 40.6 6
    endloop
  endfacet
  facet normal 0 0 1
    outer loop
      vertex -3.34491 31.8247 6
      vertex 3.34491 31.8247 6
      vertex 26.9685 37.7356 6
    endloop
  endfacet
  facet normal 0 0 1
    outer loop
      vertex 25.8885 -18.8091 6
      vertex 30.4882 -30.0295 6
      vertex 32.3007 -30.7169 6
    endloop
  endfacet
  facet normal 0 0 1
    outer loop
      vertex 33.5861 -32.1679 6
      vertex 34.05 -34.05 6
      vertex 41.075 -40.6 6
    endloop
  endfacet
  facet normal 0 0 1
    outer loop
      vertex 25.8885 -18.8091 6
      vertex 21.4122 -23.7806 6
      vertex 30.4882 -30.0295 6
    endloop
  endfacet
  facet normal 1 0 0
    outer loop
      vertex 41.075 -40.6 6
      vertex 41.075 -40.6 0
      vertex 41.075 40.6 0
    endloop
  endfacet
  facet normal 1 0 0
    outer loop
      vertex 41.075 40.6 6
      vertex 41.075 -40.6 6
      vertex 41.075 40.6 0
    endloop
  endfacet
  facet normal 0.994522 -0.104528 0
    outer loop
      vertex -29.3444 6.23735 0
      vertex -29.3444 6.23735 6.1
      vertex -30 0 6.1
    endloop
  endfacet
  facet normal 0.994522 -0.104528 0
    outer loop
      vertex -30 0 0
      vertex -29.3444 6.23735 0
      vertex -30 0 6.1
    endloop
  endfacet
  facet normal 0.994522 0.104528 0
    outer loop
      vertex -30 0 6.1
      vertex -29.3444 -6.23735 6.1
      vertex -29.3444 -6.23735 0
    endloop
  endfacet
  facet normal 0.994522 0.104528 0
    outer loop
      vertex -30 0 0
      vertex -30 0 6.1
      vertex -29.3444 -6.23735 0
    endloop
  endfacet
  facet normal 0.951057 -0.309017 0
    outer loop
      vertex -27.4064 12.2021 0
      vertex -27.4064 12.2021 6.1
      vertex -29.3444 6.23735 6.1
    endloop
  endfacet
  facet normal 0.951057 -0.309017 0
    outer loop
      vertex -29.3444 6.23735 0
      vertex -27.4064 12.2021 0
      vertex -29.3444 6.23735 6.1
    endloop
  endfacet
  facet normal 0.866025 -0.5 0
    outer loop
      vertex -24.2705 17.6336 0
      vertex -24.2705 17.6336 6.1
      vertex -27.4064 12.2021 6.1
    endloop
  endfacet
  facet normal 0.866025 -0.5 0
    outer loop
      vertex -27.4064 12.2021 0
      vertex -24.2705 17.6336 0
      vertex -27.4064 12.2021 6.1
    endloop
  endfacet
  facet normal 0.743145 -0.669131 0
    outer loop
      vertex -20.0739 22.2943 0
      vertex -20.0739 22.2943 6.1
      vertex -24.2705 17.6336 6.1
    endloop
  endfacet
  facet normal 0.743145 -0.669131 0
    outer loop
      vertex -24.2705 17.6336 0
      vertex -20.0739 22.2943 0
      vertex -24.2705 17.6336 6.1
    endloop
  endfacet
  facet normal 0.587785 -0.809017 0
    outer loop
      vertex -15 25.9808 0
      vertex -15 25.9808 6.1
      vertex -20.0739 22.2943 6.1
    endloop
  endfacet
  facet normal 0.587785 -0.809017 0
    outer loop
      vertex -20.0739 22.2943 0
      vertex -15 25.9808 0
      vertex -20.0739 22.2943 6.1
    endloop
  endfacet
  facet normal 0.406737 -0.913545 0
    outer loop
      vertex -9.27051 28.5317 0
      vertex -9.27051 28.5317 6.1
      vertex -15 25.9808 6.1
    endloop
  endfacet
  facet normal 0.406737 -0.913545 0
    outer loop
      vertex -15 25.9808 0
      vertex -9.27051 28.5317 0
      vertex -15 25.9808 6.1
    endloop
  endfacet
  facet normal 0.207912 -0.978148 0
    outer loop
      vertex -3.13585 29.8357 0
      vertex -3.13585 29.8357 6.1
      vertex -9.27051 28.5317 6.1
    endloop
  endfacet
  facet normal 0.207912 -0.978148 0
    outer loop
      vertex -9.27051 28.5317 0
      vertex -3.13585 29.8357 0
      vertex -9.27051 28.5317 6.1
    endloop
  endfacet
  facet normal 0 -1 0
    outer loop
      vertex -1.5 29.8357 0
      vertex -1.5 29.8357 6.1
      vertex -3.13585 29.8357 6.1
    endloop
  endfacet
  facet normal 0 -1 0
    outer loop
      vertex -3.13585 29.8357 0
      vertex -1.5 29.8357 0
      vertex -3.13585 29.8357 6.1
    endloop
  endfacet
  facet normal -1 0 0
    outer loop
      vertex -1.5 27.4 0
      vertex -1.5 27.4 6.1
      vertex -1.5 29.8357 0
    endloop
  endfacet
  facet normal -1 0 0
    outer loop
      vertex -1.5 29.8357 0
      vertex -1.5 27.4 6.1
      vertex -1.5 29.8357 6.1
    endloop
  endfacet
  facet normal 0 -1 0
    outer loop
      vertex -1.5 27.4 6.1
      vertex -1.5 27.4 0
      vertex 1.5 27.4 0
    endloop
  endfacet
  facet normal 0 -1 0
    outer loop
      vertex 1.5 27.4 6.1
      vertex -1.5 27.4 6.1
      vertex 1.5 27.4 0
    endloop
  endfacet
  facet normal 1 0 0
    outer loop
      vertex 1.5 27.4 6.1
      vertex 1.5 27.4 0
      vertex 1.5 29.8357 0
    endloop
  endfacet
  facet normal 1 0 0
    outer loop
      vertex 1.5 29.8357 6.1
      vertex 1.5 27.4 6.1
      vertex 1.5 29.8357 0
    endloop
  endfacet
  facet normal 0 -1 0
    outer loop
      vertex 3.13585 29.8357 0
      vertex 3.13585 29.8357 6.1
      vertex 1.5 29.8357 6.1
    endloop
  endfacet
  facet normal 0 -1 0
    outer loop
      vertex 1.5 29.8357 0
      vertex 3.13585 29.8357 0
      vertex 1.5 29.8357 6.1
    endloop
  endfacet
  facet normal -0.207912 -0.978148 0
    outer loop
      vertex 9.27051 28.5317 0
      vertex 9.27051 28.5317 6.1
      vertex 3.13585 29.8357 6.1
    endloop
  endfacet
  facet normal -0.207912 -0.978148 0
    outer loop
      vertex 3.13585 29.8357 0
      vertex 9.27051 28.5317 0
      vertex 3.13585 29.8357 6.1
    endloop
  endfacet
  facet normal -0.406737 -0.913545 0
    outer loop
      vertex 15 25.9808 0
      vertex 15 25.9808 6.1
      vertex 9.27051 28.5317 6.1
    endloop
  endfacet
  facet normal -0.406737 -0.913545 0
    outer loop
      vertex 9.27051 28.5317 0
      vertex 15 25.9808 0
      vertex 9.27051 28.5317 6.1
    endloop
  endfacet
  facet normal -0.587785 -0.809017 0
    outer loop
      vertex 20.0739 22.2943 0
      vertex 20.0739 22.2943 6.1
      vertex 15 25.9808 6.1
    endloop
  endfacet
  facet normal -0.587785 -0.809017 0
    outer loop
      vertex 15 25.9808 0
      vertex 20.0739 22.2943 0
      vertex 15 25.9808 6.1
    endloop
  endfacet
  facet normal -0.743145 -0.669131 0
    outer loop
      vertex 24.2705 17.6336 6.1
      vertex 20.0739 22.2943 6.1
      vertex 24.2705 17.6336 0
    endloop
  endfacet
  facet normal -0.743145 -0.669131 0
    outer loop
      vertex 24.2705 17.6336 0
      vertex 20.0739 22.2943 6.1
      vertex 20.0739 22.2943 0
    endloop
  endfacet
  facet normal -0.866025 -0.5 0
    outer loop
      vertex 27.4064 12.2021 6.1
      vertex 24.2705 17.6336 6.1
      vertex 27.4064 12.2021 0
    endloop
  endfacet
  facet normal -0.866025 -0.5 0
    outer loop
      vertex 27.4064 12.2021 0
      vertex 24.2705 17.6336 6.1
      vertex 24.2705 17.6336 0
    endloop
  endfacet
  facet normal -0.951057 -0.309017 0
    outer loop
      vertex 29.3444 6.23735 6.1
      vertex 27.4064 12.2021 6.1
      vertex 29.3444 6.23735 0
    endloop
  endfacet
  facet normal -0.951057 -0.309017 0
    outer loop
      vertex 29.3444 6.23735 0
      vertex 27.4064 12.2021 6.1
      vertex 27.4064 12.2021 0
    endloop
  endfacet
  facet normal -0.994522 -0.104528 0
    outer loop
      vertex 30 0 6.1
      vertex 29.3444 6.23735 6.1
      vertex 30 0 0
    endloop
  endfacet
  facet normal -0.994522 -0.104528 0
    outer loop
      vertex 30 0 0
      vertex 29.3444 6.23735 6.1
      vertex 29.3444 6.23735 0
    endloop
  endfacet
  facet normal -0.994522 0.104528 0
    outer loop
      vertex 30 0 6.1
      vertex 30 0 0
      vertex 29.3444 -6.23735 6.1
    endloop
  endfacet
  facet normal -0.994522 0.104528 0
    outer loop
      vertex 29.3444 -6.23735 6.1
      vertex 30 0 0
      vertex 29.3444 -6.23735 0
    endloop
  endfacet
  facet normal -0.951057 0.309017 0
    outer loop
      vertex 29.3444 -6.23735 6.1
      vertex 29.3444 -6.23735 0
      vertex 27.4064 -12.2021 6.1
    endloop
  endfacet
  facet normal -0.951057 0.309017 0
    outer loop
      vertex 27.4064 -12.2021 6.1
      vertex 29.3444 -6.23735 0
      vertex 27.4064 -12.2021 0
    endloop
  endfacet
  facet normal -0.866025 0.5 0
    outer loop
      vertex 27.4064 -12.2021 6.1
      vertex 27.4064 -12.2021 0
      vertex 24.2705 -17.6336 6.1
    endloop
  endfacet
  facet normal -0.866025 0.5 0
    outer loop
      vertex 24.2705 -17.6336 6.1
      vertex 27.4064 -12.2021 0
      vertex 24.2705 -17.6336 0
    endloop
  endfacet
  facet normal -0.743145 0.669131 0
    outer loop
      vertex 24.2705 -17.6336 6.1
      vertex 24.2705 -17.6336 0
      vertex 20.0739 -22.2943 6.1
    endloop
  endfacet
  facet normal -0.743145 0.669131 0
    outer loop
      vertex 20.0739 -22.2943 6.1
      vertex 24.2705 -17.6336 0
      vertex 20.0739 -22.2943 0
    endloop
  endfacet
  facet normal -0.587785 0.809017 0
    outer loop
      vertex 20.0739 -22.2943 6.1
      vertex 20.0739 -22.2943 0
      vertex 15 -25.9808 6.1
    endloop
  endfacet
  facet normal -0.587785 0.809017 0
    outer loop
      vertex 15 -25.9808 6.1
      vertex 20.0739 -22.2943 0
      vertex 15 -25.9808 0
    endloop
  endfacet
  facet normal -0.406737 0.913545 0
    outer loop
      vertex 15 -25.9808 6.1
      vertex 15 -25.9808 0
      vertex 9.27051 -28.5317 6.1
    endloop
  endfacet
  facet normal -0.406737 0.913545 0
    outer loop
      vertex 9.27051 -28.5317 6.1
      vertex 15 -25.9808 0
      vertex 9.27051 -28.5317 0
    endloop
  endfacet
  facet normal -0.207912 0.978148 0
    outer loop
      vertex 9.27051 -28.5317 6.1
      vertex 9.27051 -28.5317 0
      vertex 3.13585 -29.8357 6.1
    endloop
  endfacet
  facet normal -0.207912 0.978148 0
    outer loop
      vertex 3.13585 -29.8357 6.1
      vertex 9.27051 -28.5317 0
      vertex 3.13585 -29.8357 0
    endloop
  endfacet
  facet normal 0 1 0
    outer loop
      vertex 3.13585 -29.8357 6.1
      vertex 3.13585 -29.8357 0
      vertex -3.13585 -29.8357 6.1
    endloop
  endfacet
  facet normal 0 1 0
    outer loop
      vertex -3.13585 -29.8357 6.1
      vertex 3.13585 -29.8357 0
      vertex -3.13585 -29.8357 0
    endloop
  endfacet
  facet normal 0.207912 0.978148 0
    outer loop
      vertex -3.13585 -29.8357 6.1
      vertex -3.13585 -29.8357 0
      vertex -9.27051 -28.5317 6.1
    endloop
  endfacet
  facet normal 0.207912 0.978148 0
    outer loop
      vertex -9.27051 -28.5317 6.1
      vertex -3.13585 -29.8357 0
      vertex -9.27051 -28.5317 0
    endloop
  endfacet
  facet normal 0.406737 0.913545 0
    outer loop
      vertex -9.27051 -28.5317 6.1
      vertex -9.27051 -28.5317 0
      vertex -15 -25.9808 6.1
    endloop
  endfacet
  facet normal 0.406737 0.913545 0
    outer loop
      vertex -15 -25.9808 6.1
      vertex -9.27051 -28.5317 0
      vertex -15 -25.9808 0
    endloop
  endfacet
  facet normal 0.587785 0.809017 0
    outer loop
      vertex -15 -25.9808 6.1
      vertex -15 -25.9808 0
      vertex -20.0739 -22.2943 6.1
    endloop
  endfacet
  facet normal 0.587785 0.809017 0
    outer loop
      vertex -20.0739 -22.2943 6.1
      vertex -15 -25.9808 0
      vertex -20.0739 -22.2943 0
    endloop
  endfacet
  facet normal 0.743145 0.669131 0
    outer loop
      vertex -24.2705 -17.6336 6.1
      vertex -20.0739 -22.2943 6.1
      vertex -20.0739 -22.2943 0
    endloop
  endfacet
  facet normal 0.743145 0.669131 0
    outer loop
      vertex -24.2705 -17.6336 0
      vertex -24.2705 -17.6336 6.1
      vertex -20.0739 -22.2943 0
    endloop
  endfacet
  facet normal 0.866025 0.5 0
    outer loop
      vertex -27.4064 -12.2021 6.1
      vertex -24.2705 -17.6336 6.1
      vertex -24.2705 -17.6336 0
    endloop
  endfacet
  facet normal 0.866025 0.5 0
    outer loop
      vertex -27.4064 -12.2021 0
      vertex -27.4064 -12.2021 6.1
      vertex -24.2705 -17.6336 0
    endloop
  endfacet
  facet normal 0.951057 0.309017 0
    outer loop
      vertex -29.3444 -6.23735 6.1
      vertex -27.4064 -12.2021 6.1
      vertex -27.4064 -12.2021 0
    endloop
  endfacet
  facet normal 0.951057 0.309017 0
    outer loop
      vertex -29.3444 -6.23735 0
      vertex -29.3444 -6.23735 6.1
      vertex -27.4064 -12.2021 0
    endloop
  endfacet
  facet normal 0.885456 -0.464723 0
    outer loop
      vertex -19.0315 -31.3644 0
      vertex -19.0315 -31.3644 6
      vertex -19.9323 -33.0808 6
    endloop
  endfacet
  facet normal 0.885456 -0.464723 0
    outer loop
      vertex -19.9323 -33.0808 0
      vertex -19.0315 -31.3644 0
      vertex -19.9323 -33.0808 6
    endloop
  endfacet
  facet normal 1 0 0
    outer loop
      vertex -19.9323 -33.0808 0
      vertex -19.9323 -33.0808 6
      vertex -19.9323 -35.0192 6
    endloop
  endfacet
  facet normal 1 0 0
    outer loop
      vertex -19.9323 -35.0192 0
      vertex -19.9323 -33.0808 0
      vertex -19.9323 -35.0192 6
    endloop
  endfacet
  facet normal 0.568065 -0.822984 0
    outer loop
      vertex -17.4361 -30.2632 0
      vertex -17.4361 -30.2632 6
      vertex -19.0315 -31.3644 6
    endloop
  endfacet
  facet normal 0.568065 -0.822984 0
    outer loop
      vertex -19.0315 -31.3644 0
      vertex -17.4361 -30.2632 0
      vertex -19.0315 -31.3644 6
    endloop
  endfacet
  facet normal 0.120537 -0.992709 0
    outer loop
      vertex -15.5118 -30.0295 0
      vertex -15.5118 -30.0295 6
      vertex -17.4361 -30.2632 6
    endloop
  endfacet
  facet normal 0.120537 -0.992709 0
    outer loop
      vertex -17.4361 -30.2632 0
      vertex -15.5118 -30.0295 0
      vertex -17.4361 -30.2632 6
    endloop
  endfacet
  facet normal -0.354605 -0.935016 0
    outer loop
      vertex -13.6993 -30.7169 0
      vertex -13.6993 -30.7169 6
      vertex -15.5118 -30.0295 6
    endloop
  endfacet
  facet normal -0.354605 -0.935016 0
    outer loop
      vertex -15.5118 -30.0295 0
      vertex -13.6993 -30.7169 0
      vertex -15.5118 -30.0295 6
    endloop
  endfacet
  facet normal -0.748511 -0.663123 0
    outer loop
      vertex -12.4139 -32.1679 6
      vertex -13.6993 -30.7169 6
      vertex -12.4139 -32.1679 0
    endloop
  endfacet
  facet normal -0.748511 -0.663123 0
    outer loop
      vertex -12.4139 -32.1679 0
      vertex -13.6993 -30.7169 6
      vertex -13.6993 -30.7169 0
    endloop
  endfacet
  facet normal -0.970942 -0.239316 0
    outer loop
      vertex -11.95 -34.05 6
      vertex -12.4139 -32.1679 6
      vertex -11.95 -34.05 0
    endloop
  endfacet
  facet normal -0.970942 -0.239316 0
    outer loop
      vertex -11.95 -34.05 0
      vertex -12.4139 -32.1679 6
      vertex -12.4139 -32.1679 0
    endloop
  endfacet
  facet normal -0.970942 0.239316 0
    outer loop
      vertex -11.95 -34.05 6
      vertex -11.95 -34.05 0
      vertex -12.4139 -35.9321 6
    endloop
  endfacet
  facet normal -0.970942 0.239316 0
    outer loop
      vertex -12.4139 -35.9321 6
      vertex -11.95 -34.05 0
      vertex -12.4139 -35.9321 0
    endloop
  endfacet
  facet normal -0.748511 0.663123 0
    outer loop
      vertex -12.4139 -35.9321 6
      vertex -12.4139 -35.9321 0
      vertex -13.6993 -37.3831 6
    endloop
  endfacet
  facet normal -0.748511 0.663123 0
    outer loop
      vertex -13.6993 -37.3831 6
      vertex -12.4139 -35.9321 0
      vertex -13.6993 -37.3831 0
    endloop
  endfacet
  facet normal -0.354605 0.935016 0
    outer loop
      vertex -13.6993 -37.3831 6
      vertex -13.6993 -37.3831 0
      vertex -15.5118 -38.0705 6
    endloop
  endfacet
  facet normal -0.354605 0.935016 0
    outer loop
      vertex -15.5118 -38.0705 6
      vertex -13.6993 -37.3831 0
      vertex -15.5118 -38.0705 0
    endloop
  endfacet
  facet normal 0.120537 0.992709 0
    outer loop
      vertex -15.5118 -38.0705 6
      vertex -15.5118 -38.0705 0
      vertex -17.4361 -37.8368 6
    endloop
  endfacet
  facet normal 0.120537 0.992709 0
    outer loop
      vertex -17.4361 -37.8368 6
      vertex -15.5118 -38.0705 0
      vertex -17.4361 -37.8368 0
    endloop
  endfacet
  facet normal 0.568065 0.822984 0
    outer loop
      vertex -17.4361 -37.8368 6
      vertex -17.4361 -37.8368 0
      vertex -19.0315 -36.7356 6
    endloop
  endfacet
  facet normal 0.568065 0.822984 0
    outer loop
      vertex -19.0315 -36.7356 6
      vertex -17.4361 -37.8368 0
      vertex -19.0315 -36.7356 0
    endloop
  endfacet
  facet normal 0.885456 0.464723 0
    outer loop
      vertex -19.9323 -35.0192 6
      vertex -19.0315 -36.7356 6
      vertex -19.0315 -36.7356 0
    endloop
  endfacet
  facet normal 0.885456 0.464723 0
    outer loop
      vertex -19.9323 -35.0192 0
      vertex -19.9323 -35.0192 6
      vertex -19.0315 -36.7356 0
    endloop
  endfacet
  facet normal 0.885456 -0.464723 0
    outer loop
      vertex -19.0315 37.7356 0
      vertex -19.0315 37.7356 6
      vertex -19.9323 36.0192 6
    endloop
  endfacet
  facet normal 0.885456 -0.464723 0
    outer loop
      vertex -19.9323 36.0192 0
      vertex -19.0315 37.7356 0
      vertex -19.9323 36.0192 6
    endloop
  endfacet
  facet normal 1 0 0
    outer loop
      vertex -19.9323 36.0192 0
      vertex -19.9323 36.0192 6
      vertex -19.9323 34.0808 6
    endloop
  endfacet
  facet normal 1 0 0
    outer loop
      vertex -19.9323 34.0808 0
      vertex -19.9323 36.0192 0
      vertex -19.9323 34.0808 6
    endloop
  endfacet
  facet normal 0.568065 -0.822984 0
    outer loop
      vertex -17.4361 38.8368 0
      vertex -17.4361 38.8368 6
      vertex -19.0315 37.7356 6
    endloop
  endfacet
  facet normal 0.568065 -0.822984 0
    outer loop
      vertex -19.0315 37.7356 0
      vertex -17.4361 38.8368 0
      vertex -19.0315 37.7356 6
    endloop
  endfacet
  facet normal 0.120537 -0.992709 0
    outer loop
      vertex -15.5118 39.0705 0
      vertex -15.5118 39.0705 6
      vertex -17.4361 38.8368 6
    endloop
  endfacet
  facet normal 0.120537 -0.992709 0
    outer loop
      vertex -17.4361 38.8368 0
      vertex -15.5118 39.0705 0
      vertex -17.4361 38.8368 6
    endloop
  endfacet
  facet normal -0.354605 -0.935016 0
    outer loop
      vertex -13.6993 38.3831 0
      vertex -13.6993 38.3831 6
      vertex -15.5118 39.0705 6
    endloop
  endfacet
  facet normal -0.354605 -0.935016 0
    outer loop
      vertex -15.5118 39.0705 0
      vertex -13.6993 38.3831 0
      vertex -15.5118 39.0705 6
    endloop
  endfacet
  facet normal -0.748511 -0.663123 0
    outer loop
      vertex -12.4139 36.9321 6
      vertex -13.6993 38.3831 6
      vertex -12.4139 36.9321 0
    endloop
  endfacet
  facet normal -0.748511 -0.663123 0
    outer loop
      vertex -12.4139 36.9321 0
      vertex -13.6993 38.3831 6
      vertex -13.6993 38.3831 0
    endloop
  endfacet
  facet normal -0.970942 -0.239316 0
    outer loop
      vertex -11.95 35.05 6
      vertex -12.4139 36.9321 6
      vertex -11.95 35.05 0
    endloop
  endfacet
  facet normal -0.970942 -0.239316 0
    outer loop
      vertex -11.95 35.05 0
      vertex -12.4139 36.9321 6
      vertex -12.4139 36.9321 0
    endloop
  endfacet
  facet normal -0.970942 0.239316 0
    outer loop
      vertex -11.95 35.05 6
      vertex -11.95 35.05 0
      vertex -12.4139 33.1679 6
    endloop
  endfacet
  facet normal -0.970942 0.239316 0
    outer loop
      vertex -12.4139 33.1679 6
      vertex -11.95 35.05 0
      vertex -12.4139 33.1679 0
    endloop
  endfacet
  facet normal -0.748511 0.663123 0
    outer loop
      vertex -12.4139 33.1679 6
      vertex -12.4139 33.1679 0
      vertex -13.6993 31.7169 6
    endloop
  endfacet
  facet normal -0.748511 0.663123 0
    outer loop
      vertex -13.6993 31.7169 6
      vertex -12.4139 33.1679 0
      vertex -13.6993 31.7169 0
    endloop
  endfacet
  facet normal -0.354605 0.935016 0
    outer loop
      vertex -13.6993 31.7169 6
      vertex -13.6993 31.7169 0
      vertex -15.5118 31.0295 6
    endloop
  endfacet
  facet normal -0.354605 0.935016 0
    outer loop
      vertex -15.5118 31.0295 6
      vertex -13.6993 31.7169 0
      vertex -15.5118 31.0295 0
    endloop
  endfacet
  facet normal 0.120537 0.992709 0
    outer loop
      vertex -15.5118 31.0295 6
      vertex -15.5118 31.0295 0
      vertex -17.4361 31.2632 6
    endloop
  endfacet
  facet normal 0.120537 0.992709 0
    outer loop
      vertex -17.4361 31.2632 6
      vertex -15.5118 31.0295 0
      vertex -17.4361 31.2632 0
    endloop
  endfacet
  facet normal 0.568065 0.822984 0
    outer loop
      vertex -17.4361 31.2632 6
      vertex -17.4361 31.2632 0
      vertex -19.0315 32.3644 6
    endloop
  endfacet
  facet normal 0.568065 0.822984 0
    outer loop
      vertex -19.0315 32.3644 6
      vertex -17.4361 31.2632 0
      vertex -19.0315 32.3644 0
    endloop
  endfacet
  facet normal 0.885456 0.464723 0
    outer loop
      vertex -19.9323 34.0808 6
      vertex -19.0315 32.3644 6
      vertex -19.0315 32.3644 0
    endloop
  endfacet
  facet normal 0.885456 0.464723 0
    outer loop
      vertex -19.9323 34.0808 0
      vertex -19.9323 34.0808 6
      vertex -19.0315 32.3644 0
    endloop
  endfacet
  facet normal 0.885456 -0.464723 0
    outer loop
      vertex 26.9685 -31.3644 0
      vertex 26.9685 -31.3644 6
      vertex 26.0677 -33.0808 6
    endloop
  endfacet
  facet normal 0.885456 -0.464723 0
    outer loop
      vertex 26.0677 -33.0808 0
      vertex 26.9685 -31.3644 0
      vertex 26.0677 -33.0808 6
    endloop
  endfacet
  facet normal 1 0 0
    outer loop
      vertex 26.0677 -33.0808 0
      vertex 26.0677 -33.0808 6
      vertex 26.0677 -35.0192 6
    endloop
  endfacet
  facet normal 1 0 0
    outer loop
      vertex 26.0677 -35.0192 0
      vertex 26.0677 -33.0808 0
      vertex 26.0677 -35.0192 6
    endloop
  endfacet
  facet normal 0.568065 -0.822984 0
    outer loop
      vertex 28.5638 -30.2632 0
      vertex 28.5638 -30.2632 6
      vertex 26.9685 -31.3644 6
    endloop
  endfacet
  facet normal 0.568065 -0.822984 0
    outer loop
      vertex 26.9685 -31.3644 0
      vertex 28.5638 -30.2632 0
      vertex 26.9685 -31.3644 6
    endloop
  endfacet
  facet normal 0.120537 -0.992709 0
    outer loop
      vertex 30.4882 -30.0295 0
      vertex 30.4882 -30.0295 6
      vertex 28.5638 -30.2632 6
    endloop
  endfacet
  facet normal 0.120537 -0.992709 0
    outer loop
      vertex 28.5638 -30.2632 0
      vertex 30.4882 -30.0295 0
      vertex 28.5638 -30.2632 6
    endloop
  endfacet
  facet normal -0.354605 -0.935016 0
    outer loop
      vertex 32.3007 -30.7169 0
      vertex 32.3007 -30.7169 6
      vertex 30.4882 -30.0295 6
    endloop
  endfacet
  facet normal -0.354605 -0.935016 0
    outer loop
      vertex 30.4882 -30.0295 0
      vertex 32.3007 -30.7169 0
      vertex 30.4882 -30.0295 6
    endloop
  endfacet
  facet normal -0.748511 -0.663123 0
    outer loop
      vertex 33.5861 -32.1679 6
      vertex 32.3007 -30.7169 6
      vertex 33.5861 -32.1679 0
    endloop
  endfacet
  facet normal -0.748511 -0.663123 0
    outer loop
      vertex 33.5861 -32.1679 0
      vertex 32.3007 -30.7169 6
      vertex 32.3007 -30.7169 0
    endloop
  endfacet
  facet normal -0.970942 -0.239316 0
    outer loop
      vertex 34.05 -34.05 6
      vertex 33.5861 -32.1679 6
      vertex 34.05 -34.05 0
    endloop
  endfacet
  facet normal -0.970942 -0.239316 0
    outer loop
      vertex 34.05 -34.05 0
      vertex 33.5861 -32.1679 6
      vertex 33.5861 -32.1679 0
    endloop
  endfacet
  facet normal -0.970942 0.239316 0
    outer loop
      vertex 34.05 -34.05 6
      vertex 34.05 -34.05 0
      vertex 33.5861 -35.9321 6
    endloop
  endfacet
  facet normal -0.970942 0.239316 0
    outer loop
      vertex 33.5861 -35.9321 6
      vertex 34.05 -34.05 0
      vertex 33.5861 -35.9321 0
    endloop
  endfacet
  facet normal -0.748511 0.663123 0
    outer loop
      vertex 33.5861 -35.9321 6
      vertex 33.5861 -35.9321 0
      vertex 32.3007 -37.3831 6
    endloop
  endfacet
  facet normal -0.748511 0.663123 0
    outer loop
      vertex 32.3007 -37.3831 6
      vertex 33.5861 -35.9321 0
      vertex 32.3007 -37.3831 0
    endloop
  endfacet
  facet normal -0.354605 0.935016 0
    outer loop
      vertex 32.3007 -37.3831 6
      vertex 32.3007 -37.3831 0
      vertex 30.4882 -38.0705 6
    endloop
  endfacet
  facet normal -0.354605 0.935016 0
    outer loop
      vertex 30.4882 -38.0705 6
      vertex 32.3007 -37.3831 0
      vertex 30.4882 -38.0705 0
    endloop
  endfacet
  facet normal 0.120537 0.992709 0
    outer loop
      vertex 30.4882 -38.0705 6
      vertex 30.4882 -38.0705 0
      vertex 28.5638 -37.8368 6
    endloop
  endfacet
  facet normal 0.120537 0.992709 0
    outer loop
      vertex 28.5638 -37.8368 6
      vertex 30.4882 -38.0705 0
      vertex 28.5638 -37.8368 0
    endloop
  endfacet
  facet normal 0.568065 0.822984 0
    outer loop
      vertex 28.5638 -37.8368 6
      vertex 28.5638 -37.8368 0
      vertex 26.9685 -36.7356 6
    endloop
  endfacet
  facet normal 0.568065 0.822984 0
    outer loop
      vertex 26.9685 -36.7356 6
      vertex 28.5638 -37.8368 0
      vertex 26.9685 -36.7356 0
    endloop
  endfacet
  facet normal 0.885456 0.464723 0
    outer loop
      vertex 26.0677 -35.0192 6
      vertex 26.9685 -36.7356 6
      vertex 26.9685 -36.7356 0
    endloop
  endfacet
  facet normal 0.885456 0.464723 0
    outer loop
      vertex 26.0677 -35.0192 0
      vertex 26.0677 -35.0192 6
      vertex 26.9685 -36.7356 0
    endloop
  endfacet
  facet normal 0.885456 -0.464723 0
    outer loop
      vertex 26.9685 37.7356 0
      vertex 26.9685 37.7356 6
      vertex 26.0677 36.0192 6
    endloop
  endfacet
  facet normal 0.885456 -0.464723 0
    outer loop
      vertex 26.0677 36.0192 0
      vertex 26.9685 37.7356 0
      vertex 26.0677 36.0192 6
    endloop
  endfacet
  facet normal 1 0 0
    outer loop
      vertex 26.0677 36.0192 0
      vertex 26.0677 36.0192 6
      vertex 26.0677 34.0808 6
    endloop
  endfacet
  facet normal 1 0 0
    outer loop
      vertex 26.0677 34.0808 0
      vertex 26.0677 36.0192 0
      vertex 26.0677 34.0808 6
    endloop
  endfacet
  facet normal 0.568065 -0.822984 0
    outer loop
      vertex 28.5638 38.8368 0
      vertex 28.5638 38.8368 6
      vertex 26.9685 37.7356 6
    endloop
  endfacet
  facet normal 0.568065 -0.822984 0
    outer loop
      vertex 26.9685 37.7356 0
      vertex 28.5638 38.8368 0
      vertex 26.9685 37.7356 6
    endloop
  endfacet
  facet normal 0.120537 -0.992709 0
    outer loop
      vertex 30.4882 39.0705 0
      vertex 30.4882 39.0705 6
      vertex 28.5638 38.8368 6
    endloop
  endfacet
  facet normal 0.120537 -0.992709 0
    outer loop
      vertex 28.5638 38.8368 0
      vertex 30.4882 39.0705 0
      vertex 28.5638 38.8368 6
    endloop
  endfacet
  facet normal -0.354605 -0.935016 0
    outer loop
      vertex 32.3007 38.3831 0
      vertex 32.3007 38.3831 6
      vertex 30.4882 39.0705 6
    endloop
  endfacet
  facet normal -0.354605 -0.935016 0
    outer loop
      vertex 30.4882 39.0705 0
      vertex 32.3007 38.3831 0
      vertex 30.4882 39.0705 6
    endloop
  endfacet
  facet normal -0.748511 -0.663123 0
    outer loop
      vertex 33.5861 36.9321 6
      vertex 32.3007 38.3831 6
      vertex 33.5861 36.9321 0
    endloop
  endfacet
  facet normal -0.748511 -0.663123 0
    outer loop
      vertex 33.5861 36.9321 0
      vertex 32.3007 38.3831 6
      vertex 32.3007 38.3831 0
    endloop
  endfacet
  facet normal -0.970942 -0.239316 0
    outer loop
      vertex 34.05 35.05 6
      vertex 33.5861 36.9321 6
      vertex 34.05 35.05 0
    endloop
  endfacet
  facet normal -0.970942 -0.239316 0
    outer loop
      vertex 34.05 35.05 0
      vertex 33.5861 36.9321 6
      vertex 33.5861 36.9321 0
    endloop
  endfacet
  facet normal -0.970942 0.239316 0
    outer loop
      vertex 34.05 35.05 6
      vertex 34.05 35.05 0
      vertex 33.5861 33.1679 6
    endloop
  endfacet
  facet normal -0.970942 0.239316 0
    outer loop
      vertex 33.5861 33.1679 6
      vertex 34.05 35.05 0
      vertex 33.5861 33.1679 0
    endloop
  endfacet
  facet normal -0.748511 0.663123 0
    outer loop
      vertex 33.5861 33.1679 6
      vertex 33.5861 33.1679 0
      vertex 32.3007 31.7169 6
    endloop
  endfacet
  facet normal -0.748511 0.663123 0
    outer loop
      vertex 32.3007 31.7169 6
      vertex 33.5861 33.1679 0
      vertex 32.3007 31.7169 0
    endloop
  endfacet
  facet normal -0.354605 0.935016 0
    outer loop
      vertex 32.3007 31.7169 6
      vertex 32.3007 31.7169 0
      vertex 30.4882 31.0295 6
    endloop
  endfacet
  facet normal -0.354605 0.935016 0
    outer loop
      vertex 30.4882 31.0295 6
      vertex 32.3007 31.7169 0
      vertex 30.4882 31.0295 0
    endloop
  endfacet
  facet normal 0.120537 0.992709 0
    outer loop
      vertex 30.4882 31.0295 6
      vertex 30.4882 31.0295 0
      vertex 28.5638 31.2632 6
    endloop
  endfacet
  facet normal 0.120537 0.992709 0
    outer loop
      vertex 28.5638 31.2632 6
      vertex 30.4882 31.0295 0
      vertex 28.5638 31.2632 0
    endloop
  endfacet
  facet normal 0.568065 0.822984 0
    outer loop
      vertex 28.5638 31.2632 6
      vertex 28.5638 31.2632 0
      vertex 26.9685 32.3644 6
    endloop
  endfacet
  facet normal 0.568065 0.822984 0
    outer loop
      vertex 26.9685 32.3644 6
      vertex 28.5638 31.2632 0
      vertex 26.9685 32.3644 0
    endloop
  endfacet
  facet normal 0.885456 0.464723 0
    outer loop
      vertex 26.0677 34.0808 6
      vertex 26.9685 32.3644 6
      vertex 26.9685 32.3644 0
    endloop
  endfacet
  facet normal 0.885456 0.464723 0
    outer loop
      vertex 26.0677 34.0808 0
      vertex 26.0677 34.0808 6
      vertex 26.9685 32.3644 0
    endloop
  endfacet
  facet normal -0.994522 -0.104528 0
    outer loop
      vertex -32 0 6
      vertex -31.3007 -6.65317 6
      vertex -32 0 6.1
    endloop
  endfacet
  facet normal -0.994522 -0.104528 0
    outer loop
      vertex -32 0 6.1
      vertex -31.3007 -6.65317 6
      vertex -31.3007 -6.65317 6.1
    endloop
  endfacet
  facet normal -0.951057 -0.309017 0
    outer loop
      vertex -31.3007 -6.65317 6
      vertex -29.2335 -13.0156 6
      vertex -31.3007 -6.65317 6.1
    endloop
  endfacet
  facet normal -0.951057 -0.309017 0
    outer loop
      vertex -31.3007 -6.65317 6.1
      vertex -29.2335 -13.0156 6
      vertex -29.2335 -13.0156 6.1
    endloop
  endfacet
  facet normal -0.866025 -0.5 0
    outer loop
      vertex -29.2335 -13.0156 6
      vertex -25.8885 -18.8091 6
      vertex -29.2335 -13.0156 6.1
    endloop
  endfacet
  facet normal -0.866025 -0.5 0
    outer loop
      vertex -29.2335 -13.0156 6.1
      vertex -25.8885 -18.8091 6
      vertex -25.8885 -18.8091 6.1
    endloop
  endfacet
  facet normal -0.743145 -0.669131 0
    outer loop
      vertex -25.8885 -18.8091 6
      vertex -21.4122 -23.7806 6
      vertex -25.8885 -18.8091 6.1
    endloop
  endfacet
  facet normal -0.743145 -0.669131 0
    outer loop
      vertex -25.8885 -18.8091 6.1
      vertex -21.4122 -23.7806 6
      vertex -21.4122 -23.7806 6.1
    endloop
  endfacet
  facet normal -0.587785 -0.809017 0
    outer loop
      vertex -21.4122 -23.7806 6.1
      vertex -21.4122 -23.7806 6
      vertex -16 -27.7128 6
    endloop
  endfacet
  facet normal -0.587785 -0.809017 0
    outer loop
      vertex -16 -27.7128 6.1
      vertex -21.4122 -23.7806 6.1
      vertex -16 -27.7128 6
    endloop
  endfacet
  facet normal -0.406737 -0.913545 0
    outer loop
      vertex -16 -27.7128 6.1
      vertex -16 -27.7128 6
      vertex -9.88854 -30.4338 6
    endloop
  endfacet
  facet normal -0.406737 -0.913545 0
    outer loop
      vertex -9.88854 -30.4338 6.1
      vertex -16 -27.7128 6.1
      vertex -9.88854 -30.4338 6
    endloop
  endfacet
  facet normal -0.207912 -0.978148 0
    outer loop
      vertex -9.88854 -30.4338 6.1
      vertex -9.88854 -30.4338 6
      vertex -3.34491 -31.8247 6
    endloop
  endfacet
  facet normal -0.207912 -0.978148 0
    outer loop
      vertex -3.34491 -31.8247 6.1
      vertex -9.88854 -30.4338 6.1
      vertex -3.34491 -31.8247 6
    endloop
  endfacet
  facet normal 0 -1 0
    outer loop
      vertex -3.34491 -31.8247 6.1
      vertex -3.34491 -31.8247 6
      vertex 3.34491 -31.8247 6
    endloop
  endfacet
  facet normal 0 -1 0
    outer loop
      vertex 3.34491 -31.8247 6.1
      vertex -3.34491 -31.8247 6.1
      vertex 3.34491 -31.8247 6
    endloop
  endfacet
  facet normal 0.207912 -0.978148 0
    outer loop
      vertex 3.34491 -31.8247 6.1
      vertex 3.34491 -31.8247 6
      vertex 9.88854 -30.4338 6
    endloop
  endfacet
  facet normal 0.207912 -0.978148 0
    outer loop
      vertex 9.88854 -30.4338 6.1
      vertex 3.34491 -31.8247 6.1
      vertex 9.88854 -30.4338 6
    endloop
  endfacet
  facet normal 0.406737 -0.913545 0
    outer loop
      vertex 9.88854 -30.4338 6.1
      vertex 9.88854 -30.4338 6
      vertex 16 -27.7128 6
    endloop
  endfacet
  facet normal 0.406737 -0.913545 0
    outer loop
      vertex 16 -27.7128 6.1
      vertex 9.88854 -30.4338 6.1
      vertex 16 -27.7128 6
    endloop
  endfacet
  facet normal 0.587785 -0.809017 0
    outer loop
      vertex 16 -27.7128 6.1
      vertex 16 -27.7128 6
      vertex 21.4122 -23.7806 6
    endloop
  endfacet
  facet normal 0.587785 -0.809017 0
    outer loop
      vertex 21.4122 -23.7806 6.1
      vertex 16 -27.7128 6.1
      vertex 21.4122 -23.7806 6
    endloop
  endfacet
  facet normal 0.743145 -0.669131 0
    outer loop
      vertex 21.4122 -23.7806 6.1
      vertex 21.4122 -23.7806 6
      vertex 25.8885 -18.8091 6
    endloop
  endfacet
  facet normal 0.743145 -0.669131 0
    outer loop
      vertex 25.8885 -18.8091 6.1
      vertex 21.4122 -23.7806 6.1
      vertex 25.8885 -18.8091 6
    endloop
  endfacet
  facet normal 0.866025 -0.5 0
    outer loop
      vertex 25.8885 -18.8091 6.1
      vertex 25.8885 -18.8091 6
      vertex 29.2335 -13.0156 6
    endloop
  endfacet
  facet normal 0.866025 -0.5 0
    outer loop
      vertex 29.2335 -13.0156 6.1
      vertex 25.8885 -18.8091 6.1
      vertex 29.2335 -13.0156 6
    endloop
  endfacet
  facet normal 0.951057 -0.309017 0
    outer loop
      vertex 29.2335 -13.0156 6.1
      vertex 29.2335 -13.0156 6
      vertex 31.3007 -6.65317 6
    endloop
  endfacet
  facet normal 0.951057 -0.309017 0
    outer loop
      vertex 31.3007 -6.65317 6.1
      vertex 29.2335 -13.0156 6.1
      vertex 31.3007 -6.65317 6
    endloop
  endfacet
  facet normal 0.994522 -0.104528 0
    outer loop
      vertex 31.3007 -6.65317 6.1
      vertex 31.3007 -6.65317 6
      vertex 32 0 6
    endloop
  endfacet
  facet normal 0.994522 -0.104528 0
    outer loop
      vertex 32 0 6.1
      vertex 31.3007 -6.65317 6.1
      vertex 32 0 6
    endloop
  endfacet
  facet normal 0.994522 0.104528 0
    outer loop
      vertex 32 0 6
      vertex 31.3007 6.65317 6
      vertex 31.3007 6.65317 6.1
    endloop
  endfacet
  facet normal 0.994522 0.104528 0
    outer loop
      vertex 32 0 6.1
      vertex 32 0 6
      vertex 31.3007 6.65317 6.1
    endloop
  endfacet
  facet normal 0.951057 0.309017 0
    outer loop
      vertex 31.3007 6.65317 6
      vertex 29.2335 13.0156 6
      vertex 29.2335 13.0156 6.1
    endloop
  endfacet
  facet normal 0.951057 0.309017 0
    outer loop
      vertex 31.3007 6.65317 6.1
      vertex 31.3007 6.65317 6
      vertex 29.2335 13.0156 6.1
    endloop
  endfacet
  facet normal 0.866025 0.5 0
    outer loop
      vertex 29.2335 13.0156 6
      vertex 25.8885 18.8091 6
      vertex 25.8885 18.8091 6.1
    endloop
  endfacet
  facet normal 0.866025 0.5 0
    outer loop
      vertex 29.2335 13.0156 6.1
      vertex 29.2335 13.0156 6
      vertex 25.8885 18.8091 6.1
    endloop
  endfacet
  facet normal 0.743145 0.669131 0
    outer loop
      vertex 25.8885 18.8091 6
      vertex 21.4122 23.7806 6
      vertex 21.4122 23.7806 6.1
    endloop
  endfacet
  facet normal 0.743145 0.669131 0
    outer loop
      vertex 25.8885 18.8091 6.1
      vertex 25.8885 18.8091 6
      vertex 21.4122 23.7806 6.1
    endloop
  endfacet
  facet normal 0.587785 0.809017 0
    outer loop
      vertex 16 27.7128 6
      vertex 16 27.7128 6.1
      vertex 21.4122 23.7806 6
    endloop
  endfacet
  facet normal 0.587785 0.809017 0
    outer loop
      vertex 21.4122 23.7806 6
      vertex 16 27.7128 6.1
      vertex 21.4122 23.7806 6.1
    endloop
  endfacet
  facet normal 0.406737 0.913545 0
    outer loop
      vertex 9.88854 30.4338 6
      vertex 9.88854 30.4338 6.1
      vertex 16 27.7128 6
    endloop
  endfacet
  facet normal 0.406737 0.913545 0
    outer loop
      vertex 16 27.7128 6
      vertex 9.88854 30.4338 6.1
      vertex 16 27.7128 6.1
    endloop
  endfacet
  facet normal 0.207912 0.978148 0
    outer loop
      vertex 3.34491 31.8247 6
      vertex 3.34491 31.8247 6.1
      vertex 9.88854 30.4338 6
    endloop
  endfacet
  facet normal 0.207912 0.978148 0
    outer loop
      vertex 9.88854 30.4338 6
      vertex 3.34491 31.8247 6.1
      vertex 9.88854 30.4338 6.1
    endloop
  endfacet
  facet normal 0 1 0
    outer loop
      vertex -3.34491 31.8247 6
      vertex -3.34491 31.8247 6.1
      vertex 3.34491 31.8247 6
    endloop
  endfacet
  facet normal 0 1 0
    outer loop
      vertex 3.34491 31.8247 6
      vertex -3.34491 31.8247 6.1
      vertex 3.34491 31.8247 6.1
    endloop
  endfacet
  facet normal -0.207912 0.978148 0
    outer loop
      vertex -9.88854 30.4338 6
      vertex -9.88854 30.4338 6.1
      vertex -3.34491 31.8247 6
    endloop
  endfacet
  facet normal -0.207912 0.978148 0
    outer loop
      vertex -3.34491 31.8247 6
      vertex -9.88854 30.4338 6.1
      vertex -3.34491 31.8247 6.1
    endloop
  endfacet
  facet normal -0.406737 0.913545 0
    outer loop
      vertex -16 27.7128 6
      vertex -16 27.7128 6.1
      vertex -9.88854 30.4338 6
    endloop
  endfacet
  facet normal -0.406737 0.913545 0
    outer loop
      vertex -9.88854 30.4338 6
      vertex -16 27.7128 6.1
      vertex -9.88854 30.4338 6.1
    endloop
  endfacet
  facet normal -0.587785 0.809017 0
    outer loop
      vertex -21.4122 23.7806 6
      vertex -21.4122 23.7806 6.1
      vertex -16 27.7128 6
    endloop
  endfacet
  facet normal -0.587785 0.809017 0
    outer loop
      vertex -16 27.7128 6
      vertex -21.4122 23.7806 6.1
      vertex -16 27.7128 6.1
    endloop
  endfacet
  facet normal -0.743145 0.669131 0
    outer loop
      vertex -25.8885 18.8091 6
      vertex -25.8885 18.8091 6.1
      vertex -21.4122 23.7806 6
    endloop
  endfacet
  facet normal -0.743145 0.669131 0
    outer loop
      vertex -21.4122 23.7806 6
      vertex -25.8885 18.8091 6.1
      vertex -21.4122 23.7806 6.1
    endloop
  endfacet
  facet normal -0.866025 0.5 0
    outer loop
      vertex -29.2335 13.0156 6
      vertex -29.2335 13.0156 6.1
      vertex -25.8885 18.8091 6
    endloop
  endfacet
  facet normal -0.866025 0.5 0
    outer loop
      vertex -25.8885 18.8091 6
      vertex -29.2335 13.0156 6.1
      vertex -25.8885 18.8091 6.1
    endloop
  endfacet
  facet normal -0.951057 0.309017 0
    outer loop
      vertex -31.3007 6.65317 6
      vertex -31.3007 6.65317 6.1
      vertex -29.2335 13.0156 6
    endloop
  endfacet
  facet normal -0.951057 0.309017 0
    outer loop
      vertex -29.2335 13.0156 6
      vertex -31.3007 6.65317 6.1
      vertex -29.2335 13.0156 6.1
    endloop
  endfacet
  facet normal -0.994522 0.104528 0
    outer loop
      vertex -32 0 6
      vertex -32 0 6.1
      vertex -31.3007 6.65317 6
    endloop
  endfacet
  facet normal -0.994522 0.104528 0
    outer loop
      vertex -31.3007 6.65317 6
      vertex -32 0 6.1
      vertex -31.3007 6.65317 6.1
    endloop
  endfacet
  facet normal 0 0 1
    outer loop
      vertex -31.3007 6.65317 6.1
      vertex -32 0 6.1
      vertex -31.3007 -6.65317 6.1
    endloop
  endfacet
  facet normal 0 0 1
    outer loop
      vertex -29.3444 -6.23735 6.1
      vertex -31.3007 6.65317 6.1
      vertex -29.2335 -13.0156 6.1
    endloop
  endfacet
  facet normal 0 0 1
    outer loop
      vertex -29.2335 -13.0156 6.1
      vertex -31.3007 6.65317 6.1
      vertex -31.3007 -6.65317 6.1
    endloop
  endfacet
  facet normal 0 0 1
    outer loop
      vertex -29.3444 6.23735 6.1
      vertex -27.4064 12.2021 6.1
      vertex -31.3007 6.65317 6.1
    endloop
  endfacet
  facet normal 0 0 1
    outer loop
      vertex -24.2705 -17.6336 6.1
      vertex -27.4064 -12.2021 6.1
      vertex -25.8885 -18.8091 6.1
    endloop
  endfacet
  facet normal 0 0 1
    outer loop
      vertex 27.4064 12.2021 6.1
      vertex 29.3444 6.23735 6.1
      vertex 31.3007 6.65317 6.1
    endloop
  endfacet
  facet normal 0 0 1
    outer loop
      vertex 24.2705 17.6336 6.1
      vertex 27.4064 12.2021 6.1
      vertex 29.2335 13.0156 6.1
    endloop
  endfacet
  facet normal 0 0 1
    outer loop
      vertex 20.0739 22.2943 6.1
      vertex 24.2705 17.6336 6.1
      vertex 25.8885 18.8091 6.1
    endloop
  endfacet
  facet normal 0 0 1
    outer loop
      vertex 15 25.9808 6.1
      vertex 20.0739 22.2943 6.1
      vertex 21.4122 23.7806 6.1
    endloop
  endfacet
  facet normal 0 0 1
    outer loop
      vertex 9.27051 28.5317 6.1
      vertex 15 25.9808 6.1
      vertex 16 27.7128 6.1
    endloop
  endfacet
  facet normal 0 0 1
    outer loop
      vertex 29.3444 6.23735 6.1
      vertex 30 0 6.1
      vertex 32 0 6.1
    endloop
  endfacet
  facet normal 0 0 1
    outer loop
      vertex -1.5 29.8357 6.1
      vertex -1.5 27.4 6.1
      vertex 3.34491 31.8247 6.1
    endloop
  endfacet
  facet normal 0 0 1
    outer loop
      vertex 1.5 27.4 6.1
      vertex 1.5 29.8357 6.1
      vertex -1.5 27.4 6.1
    endloop
  endfacet
  facet normal 0 0 1
    outer loop
      vertex -25.8885 18.8091 6.1
      vertex -31.3007 6.65317 6.1
      vertex -21.4122 23.7806 6.1
    endloop
  endfacet
  facet normal 0 0 1
    outer loop
      vertex -29.2335 13.0156 6.1
      vertex -31.3007 6.65317 6.1
      vertex -25.8885 18.8091 6.1
    endloop
  endfacet
  facet normal 0 0 1
    outer loop
      vertex -25.8885 -18.8091 6.1
      vertex -29.3444 -6.23735 6.1
      vertex -29.2335 -13.0156 6.1
    endloop
  endfacet
  facet normal 0 0 1
    outer loop
      vertex -30 0 6.1
      vertex -31.3007 6.65317 6.1
      vertex -29.3444 -6.23735 6.1
    endloop
  endfacet
  facet normal 0 0 1
    outer loop
      vertex 27.4064 -12.2021 6.1
      vertex 24.2705 -17.6336 6.1
      vertex 29.2335 -13.0156 6.1
    endloop
  endfacet
  facet normal 0 0 1
    outer loop
      vertex -15 25.9808 6.1
      vertex -9.27051 28.5317 6.1
      vertex -9.88854 30.4338 6.1
    endloop
  endfacet
  facet normal 0 0 1
    outer loop
      vertex -21.4122 23.7806 6.1
      vertex -31.3007 6.65317 6.1
      vertex -27.4064 12.2021 6.1
    endloop
  endfacet
  facet normal 0 0 1
    outer loop
      vertex -21.4122 23.7806 6.1
      vertex -24.2705 17.6336 6.1
      vertex -16 27.7128 6.1
    endloop
  endfacet
  facet normal 0 0 1
    outer loop
      vertex -21.4122 23.7806 6.1
      vertex -27.4064 12.2021 6.1
      vertex -24.2705 17.6336 6.1
    endloop
  endfacet
  facet normal 0 0 1
    outer loop
      vertex -24.2705 17.6336 6.1
      vertex -20.0739 22.2943 6.1
      vertex -16 27.7128 6.1
    endloop
  endfacet
  facet normal 0 0 1
    outer loop
      vertex -16 27.7128 6.1
      vertex -15 25.9808 6.1
      vertex -9.88854 30.4338 6.1
    endloop
  endfacet
  facet normal 0 0 1
    outer loop
      vertex -20.0739 22.2943 6.1
      vertex -15 25.9808 6.1
      vertex -16 27.7128 6.1
    endloop
  endfacet
  facet normal 0 0 1
    outer loop
      vertex -9.88854 30.4338 6.1
      vertex -9.27051 28.5317 6.1
      vertex -3.34491 31.8247 6.1
    endloop
  endfacet
  facet normal 0 0 1
    outer loop
      vertex -3.34491 31.8247 6.1
      vertex -3.13585 29.8357 6.1
      vertex 3.34491 31.8247 6.1
    endloop
  endfacet
  facet normal 0 0 1
    outer loop
      vertex -3.13585 29.8357 6.1
      vertex -1.5 29.8357 6.1
      vertex 3.34491 31.8247 6.1
    endloop
  endfacet
  facet normal 0 0 1
    outer loop
      vertex 3.13585 29.8357 6.1
      vertex 9.27051 28.5317 6.1
      vertex 9.88854 30.4338 6.1
    endloop
  endfacet
  facet normal 0 0 1
    outer loop
      vertex 3.34491 31.8247 6.1
      vertex 1.5 29.8357 6.1
      vertex 9.88854 30.4338 6.1
    endloop
  endfacet
  facet normal 0 0 1
    outer loop
      vertex 3.34491 31.8247 6.1
      vertex -1.5 27.4 6.1
      vertex 1.5 29.8357 6.1
    endloop
  endfacet
  facet normal 0 0 1
    outer loop
      vertex 1.5 29.8357 6.1
      vertex 3.13585 29.8357 6.1
      vertex 9.88854 30.4338 6.1
    endloop
  endfacet
  facet normal 0 0 1
    outer loop
      vertex 9.88854 30.4338 6.1
      vertex 9.27051 28.5317 6.1
      vertex 16 27.7128 6.1
    endloop
  endfacet
  facet normal 0 0 1
    outer loop
      vertex 16 27.7128 6.1
      vertex 15 25.9808 6.1
      vertex 21.4122 23.7806 6.1
    endloop
  endfacet
  facet normal 0 0 1
    outer loop
      vertex 21.4122 23.7806 6.1
      vertex 20.0739 22.2943 6.1
      vertex 25.8885 18.8091 6.1
    endloop
  endfacet
  facet normal 0 0 1
    outer loop
      vertex 25.8885 18.8091 6.1
      vertex 24.2705 17.6336 6.1
      vertex 29.2335 13.0156 6.1
    endloop
  endfacet
  facet normal 0 0 1
    outer loop
      vertex 29.2335 13.0156 6.1
      vertex 27.4064 12.2021 6.1
      vertex 31.3007 6.65317 6.1
    endloop
  endfacet
  facet normal 0 0 1
    outer loop
      vertex 31.3007 6.65317 6.1
      vertex 29.3444 6.23735 6.1
      vertex 32 0 6.1
    endloop
  endfacet
  facet normal 0 0 1
    outer loop
      vertex 32 0 6.1
      vertex 30 0 6.1
      vertex 31.3007 -6.65317 6.1
    endloop
  endfacet
  facet normal 0 0 1
    outer loop
      vertex 31.3007 -6.65317 6.1
      vertex 29.3444 -6.23735 6.1
      vertex 29.2335 -13.0156 6.1
    endloop
  endfacet
  facet normal 0 0 1
    outer loop
      vertex -9.27051 28.5317 6.1
      vertex -3.13585 29.8357 6.1
      vertex -3.34491 31.8247 6.1
    endloop
  endfacet
  facet normal 0 0 1
    outer loop
      vertex 29.3444 -6.23735 6.1
      vertex 27.4064 -12.2021 6.1
      vertex 29.2335 -13.0156 6.1
    endloop
  endfacet
  facet normal 0 0 1
    outer loop
      vertex 29.2335 -13.0156 6.1
      vertex 24.2705 -17.6336 6.1
      vertex 25.8885 -18.8091 6.1
    endloop
  endfacet
  facet normal 0 0 1
    outer loop
      vertex 25.8885 -18.8091 6.1
      vertex 20.0739 -22.2943 6.1
      vertex 21.4122 -23.7806 6.1
    endloop
  endfacet
  facet normal 0 0 1
    outer loop
      vertex 21.4122 -23.7806 6.1
      vertex 15 -25.9808 6.1
      vertex 16 -27.7128 6.1
    endloop
  endfacet
  facet normal 0 0 1
    outer loop
      vertex 16 -27.7128 6.1
      vertex 9.27051 -28.5317 6.1
      vertex 9.88854 -30.4338 6.1
    endloop
  endfacet
  facet normal 0 0 1
    outer loop
      vertex 9.88854 -30.4338 6.1
      vertex 3.13585 -29.8357 6.1
      vertex 3.34491 -31.8247 6.1
    endloop
  endfacet
  facet normal 0 0 1
    outer loop
      vertex 3.34491 -31.8247 6.1
      vertex -3.13585 -29.8357 6.1
      vertex -3.34491 -31.8247 6.1
    endloop
  endfacet
  facet normal 0 0 1
    outer loop
      vertex -3.34491 -31.8247 6.1
      vertex -9.27051 -28.5317 6.1
      vertex -9.88854 -30.4338 6.1
    endloop
  endfacet
  facet normal 0 0 1
    outer loop
      vertex -9.88854 -30.4338 6.1
      vertex -15 -25.9808 6.1
      vertex -16 -27.7128 6.1
    endloop
  endfacet
  facet normal 0 0 1
    outer loop
      vertex -16 -27.7128 6.1
      vertex -20.0739 -22.2943 6.1
      vertex -21.4122 -23.7806 6.1
    endloop
  endfacet
  facet normal 0 0 1
    outer loop
      vertex -21.4122 -23.7806 6.1
      vertex -24.2705 -17.6336 6.1
      vertex -25.8885 -18.8091 6.1
    endloop
  endfacet
  facet normal 0 0 1
    outer loop
      vertex 30 0 6.1
      vertex 29.3444 -6.23735 6.1
      vertex 31.3007 -6.65317 6.1
    endloop
  endfacet
  facet normal 0 0 1
    outer loop
      vertex -25.8885 -18.8091 6.1
      vertex -27.4064 -12.2021 6.1
      vertex -29.3444 -6.23735 6.1
    endloop
  endfacet
  facet normal 0 0 1
    outer loop
      vertex 24.2705 -17.6336 6.1
      vertex 20.0739 -22.2943 6.1
      vertex 25.8885 -18.8091 6.1
    endloop
  endfacet
  facet normal 0 0 1
    outer loop
      vertex 20.0739 -22.2943 6.1
      vertex 15 -25.9808 6.1
      vertex 21.4122 -23.7806 6.1
    endloop
  endfacet
  facet normal 0 0 1
    outer loop
      vertex 15 -25.9808 6.1
      vertex 9.27051 -28.5317 6.1
      vertex 16 -27.7128 6.1
    endloop
  endfacet
  facet normal 0 0 1
    outer loop
      vertex 9.27051 -28.5317 6.1
      vertex 3.13585 -29.8357 6.1
      vertex 9.88854 -30.4338 6.1
    endloop
  endfacet
  facet normal 0 0 1
    outer loop
      vertex 3.13585 -29.8357 6.1
      vertex -3.13585 -29.8357 6.1
      vertex 3.34491 -31.8247 6.1
    endloop
  endfacet
  facet normal 0 0 1
    outer loop
      vertex -3.13585 -29.8357 6.1
      vertex -9.27051 -28.5317 6.1
      vertex -3.34491 -31.8247 6.1
    endloop
  endfacet
  facet normal 0 0 1
    outer loop
      vertex -9.27051 -28.5317 6.1
      vertex -15 -25.9808 6.1
      vertex -9.88854 -30.4338 6.1
    endloop
  endfacet
  facet normal 0 0 1
    outer loop
      vertex -15 -25.9808 6.1
      vertex -20.0739 -22.2943 6.1
      vertex -16 -27.7128 6.1
    endloop
  endfacet
  facet normal 0 0 1
    outer loop
      vertex -20.0739 -22.2943 6.1
      vertex -24.2705 -17.6336 6.1
      vertex -21.4122 -23.7806 6.1
    endloop
  endfacet
  facet normal 0 0 1
    outer loop
      vertex -30 0 6.1
      vertex -29.3444 6.23735 6.1
      vertex -31.3007 6.65317 6.1
    endloop
  endfacet
endsolid OpenSCAD_Model
