solid OpenSCAD_Model
  facet normal -1 0 0
    outer loop
      vertex -36.075 -40.6 0
      vertex -36.075 -40.6 12
      vertex -36.075 40.6 0
    endloop
  endfacet
  facet normal -1 0 0
    outer loop
      vertex -36.075 40.6 0
      vertex -36.075 -40.6 12
      vertex -36.075 40.6 12
    endloop
  endfacet
  facet normal 0 -1 0
    outer loop
      vertex -36.075 -40.6 12
      vertex -36.075 -40.6 0
      vertex 41.075 -40.6 0
    endloop
  endfacet
  facet normal 0 -1 0
    outer loop
      vertex 41.075 -40.6 12
      vertex -36.075 -40.6 12
      vertex 41.075 -40.6 0
    endloop
  endfacet
  facet normal 0 0 -1
    outer loop
      vertex 18 -12 0
      vertex 30.4882 -30.0295 0
      vertex 28.5638 -30.2632 0
    endloop
  endfacet
  facet normal 0 0 -1
    outer loop
      vertex -15.5118 39.0705 0
      vertex -36.075 40.6 0
      vertex 41.075 40.6 0
    endloop
  endfacet
  facet normal 0 0 -1
    outer loop
      vertex -36.075 -40.6 0
      vertex -36.075 40.6 0
      vertex -19.9323 -33.0808 0
    endloop
  endfacet
  facet normal 0 0 -1
    outer loop
      vertex -36.075 -40.6 0
      vertex -19.9323 -33.0808 0
      vertex -19.9323 -35.0192 0
    endloop
  endfacet
  facet normal 0 0 -1
    outer loop
      vertex -36.075 -40.6 0
      vertex -19.9323 -35.0192 0
      vertex -19.0315 -36.7356 0
    endloop
  endfacet
  facet normal 0 0 -1
    outer loop
      vertex -36.075 -40.6 0
      vertex -19.0315 -36.7356 0
      vertex -17.4361 -37.8368 0
    endloop
  endfacet
  facet normal 0 0 -1
    outer loop
      vertex -36.075 -40.6 0
      vertex -17.4361 -37.8368 0
      vertex -15.5118 -38.0705 0
    endloop
  endfacet
  facet normal 0 0 -1
    outer loop
      vertex -36.075 -40.6 0
      vertex -15.5118 -38.0705 0
      vertex 41.075 -40.6 0
    endloop
  endfacet
  facet normal 0 0 -1
    outer loop
      vertex -12.4139 -35.9321 0
      vertex 41.075 -40.6 0
      vertex -13.6993 -37.3831 0
    endloop
  endfacet
  facet normal 0 0 -1
    outer loop
      vertex -11.95 -34.05 0
      vertex 41.075 -40.6 0
      vertex -12.4139 -35.9321 0
    endloop
  endfacet
  facet normal 0 0 -1
    outer loop
      vertex -13.6993 -30.7169 0
      vertex -36.075 40.6 0
      vertex -12.4139 -32.1679 0
    endloop
  endfacet
  facet normal 0 0 -1
    outer loop
      vertex -11.95 -34.05 0
      vertex -12.4139 -32.1679 0
      vertex 41.075 -40.6 0
    endloop
  endfacet
  facet normal 0 0 -1
    outer loop
      vertex -15.5118 -30.0295 0
      vertex -36.075 40.6 0
      vertex -13.6993 -30.7169 0
    endloop
  endfacet
  facet normal 0 0 -1
    outer loop
      vertex -17.4361 -30.2632 0
      vertex -36.075 40.6 0
      vertex -15.5118 -30.0295 0
    endloop
  endfacet
  facet normal 0 0 -1
    outer loop
      vertex -19.0315 -31.3644 0
      vertex -36.075 40.6 0
      vertex -17.4361 -30.2632 0
    endloop
  endfacet
  facet normal 0 0 -1
    outer loop
      vertex -19.9323 -33.0808 0
      vertex -36.075 40.6 0
      vertex -19.0315 -31.3644 0
    endloop
  endfacet
  facet normal 0 0 -1
    outer loop
      vertex -19.9323 34.0808 0
      vertex -36.075 40.6 0
      vertex -19.9323 36.0192 0
    endloop
  endfacet
  facet normal 0 0 -1
    outer loop
      vertex -19.0315 32.3644 0
      vertex -36.075 40.6 0
      vertex -19.9323 34.0808 0
    endloop
  endfacet
  facet normal 0 0 -1
    outer loop
      vertex 18 -12 0
      vertex 26.9685 -31.3644 0
      vertex 26.0677 -33.0808 0
    endloop
  endfacet
  facet normal 0 0 -1
    outer loop
      vertex -12.4139 36.9321 0
      vertex 41.075 40.6 0
      vertex -11.95 35.05 0
    endloop
  endfacet
  facet normal 0 0 -1
    outer loop
      vertex 26.9685 37.7356 0
      vertex -12.4139 33.1679 0
      vertex 28.5638 38.8368 0
    endloop
  endfacet
  facet normal 0 0 -1
    outer loop
      vertex 28.5638 38.8368 0
      vertex -12.4139 33.1679 0
      vertex 41.075 40.6 0
    endloop
  endfacet
  facet normal 0 0 -1
    outer loop
      vertex -12.4139 33.1679 0
      vertex -11.95 35.05 0
      vertex 41.075 40.6 0
    endloop
  endfacet
  facet normal 0 0 -1
    outer loop
      vertex -18 12 0
      vertex -36.075 40.6 0
      vertex -19.0315 32.3644 0
    endloop
  endfacet
  facet normal 0 0 -1
    outer loop
      vertex -19.0315 37.7356 0
      vertex -36.075 40.6 0
      vertex -17.4361 38.8368 0
    endloop
  endfacet
  facet normal 0 0 -1
    outer loop
      vertex -18 12 0
      vertex -19.0315 32.3644 0
      vertex -17.4361 31.2632 0
    endloop
  endfacet
  facet normal 0 0 -1
    outer loop
      vertex -12.4139 36.9321 0
      vertex -13.6993 38.3831 0
      vertex 41.075 40.6 0
    endloop
  endfacet
  facet normal 0 0 -1
    outer loop
      vertex -17.4361 38.8368 0
      vertex -36.075 40.6 0
      vertex -15.5118 39.0705 0
    endloop
  endfacet
  facet normal 0 0 -1
    outer loop
      vertex -13.6993 38.3831 0
      vertex -15.5118 39.0705 0
      vertex 41.075 40.6 0
    endloop
  endfacet
  facet normal 0 0 -1
    outer loop
      vertex -18 12 0
      vertex -17.4361 31.2632 0
      vertex -15.5118 31.0295 0
    endloop
  endfacet
  facet normal 0 0 -1
    outer loop
      vertex -19.9323 36.0192 0
      vertex -36.075 40.6 0
      vertex -19.0315 37.7356 0
    endloop
  endfacet
  facet normal 0 0 -1
    outer loop
      vertex -18 -12 0
      vertex -36.075 40.6 0
      vertex -18 12 0
    endloop
  endfacet
  facet normal 0 0 -1
    outer loop
      vertex -12.4139 -32.1679 0
      vertex -36.075 40.6 0
      vertex -18 -12 0
    endloop
  endfacet
  facet normal 0 0 -1
    outer loop
      vertex 41.075 -40.6 0
      vertex 18 12 0
      vertex 41.075 40.6 0
    endloop
  endfacet
  facet normal 0 0 -1
    outer loop
      vertex -12.4139 -32.1679 0
      vertex 26.0677 -33.0808 0
      vertex 26.0677 -35.0192 0
    endloop
  endfacet
  facet normal 0 0 -1
    outer loop
      vertex -12.4139 -32.1679 0
      vertex 26.0677 -35.0192 0
      vertex 26.9685 -36.7356 0
    endloop
  endfacet
  facet normal 0 0 -1
    outer loop
      vertex -12.4139 -32.1679 0
      vertex 26.9685 -36.7356 0
      vertex 28.5638 -37.8368 0
    endloop
  endfacet
  facet normal 0 0 -1
    outer loop
      vertex -12.4139 -32.1679 0
      vertex 28.5638 -37.8368 0
      vertex 41.075 -40.6 0
    endloop
  endfacet
  facet normal 0 0 -1
    outer loop
      vertex 28.5638 -37.8368 0
      vertex 30.4882 -38.0705 0
      vertex 41.075 -40.6 0
    endloop
  endfacet
  facet normal 0 0 -1
    outer loop
      vertex 33.5861 -35.9321 0
      vertex 41.075 -40.6 0
      vertex 32.3007 -37.3831 0
    endloop
  endfacet
  facet normal 0 0 -1
    outer loop
      vertex 34.05 -34.05 0
      vertex 41.075 -40.6 0
      vertex 33.5861 -35.9321 0
    endloop
  endfacet
  facet normal 0 0 -1
    outer loop
      vertex 33.5861 -32.1679 0
      vertex 41.075 -40.6 0
      vertex 34.05 -34.05 0
    endloop
  endfacet
  facet normal 0 0 -1
    outer loop
      vertex 18 -12 0
      vertex -12.4139 -32.1679 0
      vertex -18 -12 0
    endloop
  endfacet
  facet normal 0 0 -1
    outer loop
      vertex 18 -12 0
      vertex 28.5638 -30.2632 0
      vertex 26.9685 -31.3644 0
    endloop
  endfacet
  facet normal 0 0 -1
    outer loop
      vertex 18 -12 0
      vertex 26.0677 -33.0808 0
      vertex -12.4139 -32.1679 0
    endloop
  endfacet
  facet normal 0 0 -1
    outer loop
      vertex 18 12 0
      vertex -15.5118 31.0295 0
      vertex 26.0677 36.0192 0
    endloop
  endfacet
  facet normal 0 0 -1
    outer loop
      vertex 26.9685 37.7356 0
      vertex -15.5118 31.0295 0
      vertex -13.6993 31.7169 0
    endloop
  endfacet
  facet normal 0 0 -1
    outer loop
      vertex 18 12 0
      vertex 26.0677 36.0192 0
      vertex 26.0677 34.0808 0
    endloop
  endfacet
  facet normal 0 0 -1
    outer loop
      vertex 18 12 0
      vertex 26.0677 34.0808 0
      vertex 26.9685 32.3644 0
    endloop
  endfacet
  facet normal 0 0 -1
    outer loop
      vertex 18 12 0
      vertex 26.9685 32.3644 0
      vertex 28.5638 31.2632 0
    endloop
  endfacet
  facet normal 0 0 -1
    outer loop
      vertex 18 12 0
      vertex 28.5638 31.2632 0
      vertex 30.4882 31.0295 0
    endloop
  endfacet
  facet normal 0 0 -1
    outer loop
      vertex 18 12 0
      vertex 30.4882 31.0295 0
      vertex 32.3007 31.7169 0
    endloop
  endfacet
  facet normal 0 0 -1
    outer loop
      vertex 18 12 0
      vertex 32.3007 31.7169 0
      vertex 41.075 40.6 0
    endloop
  endfacet
  facet normal 0 0 -1
    outer loop
      vertex 32.3007 31.7169 0
      vertex 33.5861 33.1679 0
      vertex 41.075 40.6 0
    endloop
  endfacet
  facet normal 0 0 -1
    outer loop
      vertex 33.5861 36.9321 0
      vertex 41.075 40.6 0
      vertex 34.05 35.05 0
    endloop
  endfacet
  facet normal 0 0 -1
    outer loop
      vertex 32.3007 38.3831 0
      vertex 41.075 40.6 0
      vertex 33.5861 36.9321 0
    endloop
  endfacet
  facet normal 0 0 -1
    outer loop
      vertex 34.05 35.05 0
      vertex 41.075 40.6 0
      vertex 33.5861 33.1679 0
    endloop
  endfacet
  facet normal 0 0 -1
    outer loop
      vertex 30.4882 39.0705 0
      vertex 41.075 40.6 0
      vertex 32.3007 38.3831 0
    endloop
  endfacet
  facet normal 0 0 -1
    outer loop
      vertex 26.9685 37.7356 0
      vertex -13.6993 31.7169 0
      vertex -12.4139 33.1679 0
    endloop
  endfacet
  facet normal 0 0 -1
    outer loop
      vertex 30.4882 39.0705 0
      vertex 28.5638 38.8368 0
      vertex 41.075 40.6 0
    endloop
  endfacet
  facet normal 0 0 -1
    outer loop
      vertex -13.6993 -37.3831 0
      vertex 41.075 -40.6 0
      vertex -15.5118 -38.0705 0
    endloop
  endfacet
  facet normal 0 0 -1
    outer loop
      vertex -18 12 0
      vertex -15.5118 31.0295 0
      vertex 18 12 0
    endloop
  endfacet
  facet normal 0 0 -1
    outer loop
      vertex 18 12 0
      vertex 41.075 -40.6 0
      vertex 18 -12 0
    endloop
  endfacet
  facet normal 0 0 -1
    outer loop
      vertex 18 -12 0
      vertex 41.075 -40.6 0
      vertex 33.5861 -32.1679 0
    endloop
  endfacet
  facet normal 0 0 -1
    outer loop
      vertex 18 -12 0
      vertex 33.5861 -32.1679 0
      vertex 32.3007 -30.7169 0
    endloop
  endfacet
  facet normal 0 0 -1
    outer loop
      vertex 26.0677 36.0192 0
      vertex -15.5118 31.0295 0
      vertex 26.9685 37.7356 0
    endloop
  endfacet
  facet normal 0 0 -1
    outer loop
      vertex 18 -12 0
      vertex 32.3007 -30.7169 0
      vertex 30.4882 -30.0295 0
    endloop
  endfacet
  facet normal 0 0 -1
    outer loop
      vertex 32.3007 -37.3831 0
      vertex 41.075 -40.6 0
      vertex 30.4882 -38.0705 0
    endloop
  endfacet
  facet normal 0 1 0
    outer loop
      vertex -36.075 40.6 0
      vertex -36.075 40.6 12
      vertex 41.075 40.6 0
    endloop
  endfacet
  facet normal 0 1 0
    outer loop
      vertex 41.075 40.6 0
      vertex -36.075 40.6 12
      vertex 41.075 40.6 12
    endloop
  endfacet
  facet normal 0 0 1
    outer loop
      vertex -15.5118 -38.0705 12
      vertex -36.075 -40.6 12
      vertex 41.075 -40.6 12
    endloop
  endfacet
  facet normal 0 0 1
    outer loop
      vertex -36.075 40.6 12
      vertex -36.075 -40.6 12
      vertex -26.8991 -5.71757 12
    endloop
  endfacet
  facet normal 0 0 1
    outer loop
      vertex -19.0315 -36.7356 12
      vertex -19.9323 -35.0192 12
      vertex -36.075 -40.6 12
    endloop
  endfacet
  facet normal 0 0 1
    outer loop
      vertex -36.075 40.6 12
      vertex -26.8991 -5.71757 12
      vertex -27.5 0 12
    endloop
  endfacet
  facet normal 0 0 1
    outer loop
      vertex -36.075 40.6 12
      vertex -27.5 0 12
      vertex -26.8991 5.71757 12
    endloop
  endfacet
  facet normal 0 0 1
    outer loop
      vertex 13.75 -23.8157 12
      vertex 8.49797 -26.1541 12
      vertex 26.0677 -33.0808 12
    endloop
  endfacet
  facet normal 0 0 1
    outer loop
      vertex -36.075 40.6 12
      vertex -26.8991 5.71757 12
      vertex -25.1225 11.1853 12
    endloop
  endfacet
  facet normal 0 0 1
    outer loop
      vertex -36.075 40.6 12
      vertex -25.1225 11.1853 12
      vertex -23.5 13.9955 12
    endloop
  endfacet
  facet normal 0 0 1
    outer loop
      vertex -36.075 40.6 12
      vertex -23.5 13.9955 12
      vertex -23.5 23.5 12
    endloop
  endfacet
  facet normal 0 0 1
    outer loop
      vertex -13.75 23.8157 12
      vertex -36.075 40.6 12
      vertex -14.1845 23.5 12
    endloop
  endfacet
  facet normal 0 0 1
    outer loop
      vertex -8.49797 26.1541 12
      vertex -36.075 40.6 12
      vertex -13.75 23.8157 12
    endloop
  endfacet
  facet normal 0 0 1
    outer loop
      vertex -17.4361 31.2632 12
      vertex -36.075 40.6 12
      vertex -8.49797 26.1541 12
    endloop
  endfacet
  facet normal 0 0 1
    outer loop
      vertex 26.8991 -5.71757 12
      vertex 25.1225 -11.1853 12
      vertex 41.075 -40.6 12
    endloop
  endfacet
  facet normal 0 0 1
    outer loop
      vertex 32.3007 38.3831 12
      vertex 33.5861 36.9321 12
      vertex 41.075 40.6 12
    endloop
  endfacet
  facet normal 0 0 1
    outer loop
      vertex 25.1225 -11.1853 12
      vertex 23.5 -13.9955 12
      vertex 41.075 -40.6 12
    endloop
  endfacet
  facet normal 0 0 1
    outer loop
      vertex 26.0677 34.0808 12
      vertex 2.87453 27.3494 12
      vertex 8.49797 26.1541 12
    endloop
  endfacet
  facet normal 0 0 1
    outer loop
      vertex 23.5 -13.9955 12
      vertex 32.3007 -30.7169 12
      vertex 41.075 -40.6 12
    endloop
  endfacet
  facet normal 0 0 1
    outer loop
      vertex 26.0677 36.0192 12
      vertex -8.49797 26.1541 12
      vertex -2.87453 27.3494 12
    endloop
  endfacet
  facet normal 0 0 1
    outer loop
      vertex 23.5 -13.9955 12
      vertex 30.4882 -30.0295 12
      vertex 32.3007 -30.7169 12
    endloop
  endfacet
  facet normal 0 0 1
    outer loop
      vertex 32.3007 31.7169 12
      vertex 23.5 23.5 12
      vertex 41.075 -40.6 12
    endloop
  endfacet
  facet normal 0 0 1
    outer loop
      vertex 28.5638 31.2632 12
      vertex 14.1845 23.5 12
      vertex 23.5 23.5 12
    endloop
  endfacet
  facet normal 0 0 1
    outer loop
      vertex 23.5 23.5 12
      vertex 23.5 13.9955 12
      vertex 25.1225 11.1853 12
    endloop
  endfacet
  facet normal 0 0 1
    outer loop
      vertex 23.5 23.5 12
      vertex 26.8991 5.71757 12
      vertex 41.075 -40.6 12
    endloop
  endfacet
  facet normal 0 0 1
    outer loop
      vertex 23.5 23.5 12
      vertex 25.1225 11.1853 12
      vertex 26.8991 5.71757 12
    endloop
  endfacet
  facet normal 0 0 1
    outer loop
      vertex 27.5 0 12
      vertex 26.8991 -5.71757 12
      vertex 41.075 -40.6 12
    endloop
  endfacet
  facet normal 0 0 1
    outer loop
      vertex 26.9685 32.3644 12
      vertex 26.0677 34.0808 12
      vertex 8.49797 26.1541 12
    endloop
  endfacet
  facet normal 0 0 1
    outer loop
      vertex -19.9323 -35.0192 12
      vertex -19.9323 -33.0808 12
      vertex -36.075 -40.6 12
    endloop
  endfacet
  facet normal 0 0 1
    outer loop
      vertex -12.4139 -32.1679 12
      vertex 8.49797 -26.1541 12
      vertex 2.87453 -27.3494 12
    endloop
  endfacet
  facet normal 0 0 1
    outer loop
      vertex -14.1845 -23.5 12
      vertex -36.075 -40.6 12
      vertex -13.75 -23.8157 12
    endloop
  endfacet
  facet normal 0 0 1
    outer loop
      vertex -23.5 -23.5 12
      vertex -36.075 -40.6 12
      vertex -14.1845 -23.5 12
    endloop
  endfacet
  facet normal 0 0 1
    outer loop
      vertex -26.8991 -5.71757 12
      vertex -36.075 -40.6 12
      vertex -23.5 -23.5 12
    endloop
  endfacet
  facet normal 0 0 1
    outer loop
      vertex -25.1225 -11.1853 12
      vertex -23.5 -23.5 12
      vertex -23.5 -13.9955 12
    endloop
  endfacet
  facet normal 0 0 1
    outer loop
      vertex -26.8991 -5.71757 12
      vertex -23.5 -23.5 12
      vertex -25.1225 -11.1853 12
    endloop
  endfacet
  facet normal 0 0 1
    outer loop
      vertex -12.4139 -32.1679 12
      vertex -11.95 -34.05 12
      vertex 8.49797 -26.1541 12
    endloop
  endfacet
  facet normal 0 0 1
    outer loop
      vertex -13.6993 -30.7169 12
      vertex -12.4139 -32.1679 12
      vertex -2.87453 -27.3494 12
    endloop
  endfacet
  facet normal 0 0 1
    outer loop
      vertex -15.5118 -30.0295 12
      vertex -13.6993 -30.7169 12
      vertex -8.49797 -26.1541 12
    endloop
  endfacet
  facet normal 0 0 1
    outer loop
      vertex -13.75 -23.8157 12
      vertex -36.075 -40.6 12
      vertex -19.0315 -31.3644 12
    endloop
  endfacet
  facet normal 0 0 1
    outer loop
      vertex -13.75 -23.8157 12
      vertex -17.4361 -30.2632 12
      vertex -8.49797 -26.1541 12
    endloop
  endfacet
  facet normal 0 0 1
    outer loop
      vertex -13.75 -23.8157 12
      vertex -19.0315 -31.3644 12
      vertex -17.4361 -30.2632 12
    endloop
  endfacet
  facet normal 0 0 1
    outer loop
      vertex -17.4361 -30.2632 12
      vertex -15.5118 -30.0295 12
      vertex -8.49797 -26.1541 12
    endloop
  endfacet
  facet normal 0 0 1
    outer loop
      vertex -8.49797 -26.1541 12
      vertex -13.6993 -30.7169 12
      vertex -2.87453 -27.3494 12
    endloop
  endfacet
  facet normal 0 0 1
    outer loop
      vertex -2.87453 -27.3494 12
      vertex -12.4139 -32.1679 12
      vertex 2.87453 -27.3494 12
    endloop
  endfacet
  facet normal 0 0 1
    outer loop
      vertex 30.4882 -38.0705 12
      vertex -11.95 -34.05 12
      vertex 41.075 -40.6 12
    endloop
  endfacet
  facet normal 0 0 1
    outer loop
      vertex -19.9323 -33.0808 12
      vertex -19.0315 -31.3644 12
      vertex -36.075 -40.6 12
    endloop
  endfacet
  facet normal 0 0 1
    outer loop
      vertex -11.95 -34.05 12
      vertex -12.4139 -35.9321 12
      vertex 41.075 -40.6 12
    endloop
  endfacet
  facet normal 0 0 1
    outer loop
      vertex -12.4139 -35.9321 12
      vertex -13.6993 -37.3831 12
      vertex 41.075 -40.6 12
    endloop
  endfacet
  facet normal 0 0 1
    outer loop
      vertex -13.6993 -37.3831 12
      vertex -15.5118 -38.0705 12
      vertex 41.075 -40.6 12
    endloop
  endfacet
  facet normal 0 0 1
    outer loop
      vertex -17.4361 -37.8368 12
      vertex -19.0315 -36.7356 12
      vertex -36.075 -40.6 12
    endloop
  endfacet
  facet normal 0 0 1
    outer loop
      vertex -15.5118 39.0705 12
      vertex -13.6993 38.3831 12
      vertex 41.075 40.6 12
    endloop
  endfacet
  facet normal 0 0 1
    outer loop
      vertex 26.0677 -33.0808 12
      vertex 14.1845 -23.5 12
      vertex 13.75 -23.8157 12
    endloop
  endfacet
  facet normal 0 0 1
    outer loop
      vertex 26.0677 -35.0192 12
      vertex 26.0677 -33.0808 12
      vertex 8.49797 -26.1541 12
    endloop
  endfacet
  facet normal 0 0 1
    outer loop
      vertex -19.9323 36.0192 12
      vertex -36.075 40.6 12
      vertex -19.9323 34.0808 12
    endloop
  endfacet
  facet normal 0 0 1
    outer loop
      vertex -19.0315 37.7356 12
      vertex -36.075 40.6 12
      vertex -19.9323 36.0192 12
    endloop
  endfacet
  facet normal 0 0 1
    outer loop
      vertex -17.4361 38.8368 12
      vertex -36.075 40.6 12
      vertex -19.0315 37.7356 12
    endloop
  endfacet
  facet normal 0 0 1
    outer loop
      vertex -15.5118 39.0705 12
      vertex -36.075 40.6 12
      vertex -17.4361 38.8368 12
    endloop
  endfacet
  facet normal 0 0 1
    outer loop
      vertex -13.6993 38.3831 12
      vertex -12.4139 36.9321 12
      vertex 41.075 40.6 12
    endloop
  endfacet
  facet normal 0 0 1
    outer loop
      vertex 41.075 40.6 12
      vertex -36.075 40.6 12
      vertex -15.5118 39.0705 12
    endloop
  endfacet
  facet normal 0 0 1
    outer loop
      vertex -12.4139 36.9321 12
      vertex -11.95 35.05 12
      vertex 41.075 40.6 12
    endloop
  endfacet
  facet normal 0 0 1
    outer loop
      vertex -11.95 35.05 12
      vertex -12.4139 33.1679 12
      vertex 41.075 40.6 12
    endloop
  endfacet
  facet normal 0 0 1
    outer loop
      vertex -15.5118 31.0295 12
      vertex -17.4361 31.2632 12
      vertex -8.49797 26.1541 12
    endloop
  endfacet
  facet normal 0 0 1
    outer loop
      vertex 26.9685 37.7356 12
      vertex -12.4139 33.1679 12
      vertex -8.49797 26.1541 12
    endloop
  endfacet
  facet normal 0 0 1
    outer loop
      vertex -12.4139 33.1679 12
      vertex -13.6993 31.7169 12
      vertex -8.49797 26.1541 12
    endloop
  endfacet
  facet normal 0 0 1
    outer loop
      vertex -13.6993 31.7169 12
      vertex -15.5118 31.0295 12
      vertex -8.49797 26.1541 12
    endloop
  endfacet
  facet normal 0 0 1
    outer loop
      vertex 28.5638 -37.8368 12
      vertex 26.9685 -36.7356 12
      vertex -11.95 -34.05 12
    endloop
  endfacet
  facet normal 0 0 1
    outer loop
      vertex -19.0315 32.3644 12
      vertex -36.075 40.6 12
      vertex -17.4361 31.2632 12
    endloop
  endfacet
  facet normal 0 0 1
    outer loop
      vertex -19.9323 34.0808 12
      vertex -36.075 40.6 12
      vertex -19.0315 32.3644 12
    endloop
  endfacet
  facet normal 0 0 1
    outer loop
      vertex 26.9685 32.3644 12
      vertex 8.49797 26.1541 12
      vertex 13.75 23.8157 12
    endloop
  endfacet
  facet normal 0 0 1
    outer loop
      vertex 8.49797 -26.1541 12
      vertex -11.95 -34.05 12
      vertex 26.0677 -35.0192 12
    endloop
  endfacet
  facet normal 0 0 1
    outer loop
      vertex -15.5118 -38.0705 12
      vertex -17.4361 -37.8368 12
      vertex -36.075 -40.6 12
    endloop
  endfacet
  facet normal 0 0 1
    outer loop
      vertex 26.0677 -33.0808 12
      vertex 26.9685 -31.3644 12
      vertex 14.1845 -23.5 12
    endloop
  endfacet
  facet normal 0 0 1
    outer loop
      vertex -2.87453 27.3494 12
      vertex 2.87453 27.3494 12
      vertex 26.0677 36.0192 12
    endloop
  endfacet
  facet normal 0 0 1
    outer loop
      vertex 34.05 -34.05 12
      vertex 33.5861 -35.9321 12
      vertex 41.075 -40.6 12
    endloop
  endfacet
  facet normal 0 0 1
    outer loop
      vertex 32.3007 -30.7169 12
      vertex 33.5861 -32.1679 12
      vertex 41.075 -40.6 12
    endloop
  endfacet
  facet normal 0 0 1
    outer loop
      vertex 33.5861 -32.1679 12
      vertex 34.05 -34.05 12
      vertex 41.075 -40.6 12
    endloop
  endfacet
  facet normal 0 0 1
    outer loop
      vertex 28.5638 -30.2632 12
      vertex 30.4882 -30.0295 12
      vertex 23.5 -23.5 12
    endloop
  endfacet
  facet normal 0 0 1
    outer loop
      vertex 32.3007 -37.3831 12
      vertex 30.4882 -38.0705 12
      vertex 41.075 -40.6 12
    endloop
  endfacet
  facet normal 0 0 1
    outer loop
      vertex 28.5638 -37.8368 12
      vertex -11.95 -34.05 12
      vertex 30.4882 -38.0705 12
    endloop
  endfacet
  facet normal 0 0 1
    outer loop
      vertex 26.0677 -35.0192 12
      vertex -11.95 -34.05 12
      vertex 26.9685 -36.7356 12
    endloop
  endfacet
  facet normal 0 0 1
    outer loop
      vertex 26.8991 5.71757 12
      vertex 27.5 0 12
      vertex 41.075 -40.6 12
    endloop
  endfacet
  facet normal 0 0 1
    outer loop
      vertex 33.5861 36.9321 12
      vertex 34.05 35.05 12
      vertex 41.075 40.6 12
    endloop
  endfacet
  facet normal 0 0 1
    outer loop
      vertex 28.5638 38.8368 12
      vertex -12.4139 33.1679 12
      vertex 26.9685 37.7356 12
    endloop
  endfacet
  facet normal 0 0 1
    outer loop
      vertex 41.075 40.6 12
      vertex -12.4139 33.1679 12
      vertex 28.5638 38.8368 12
    endloop
  endfacet
  facet normal 0 0 1
    outer loop
      vertex 41.075 40.6 12
      vertex 28.5638 38.8368 12
      vertex 30.4882 39.0705 12
    endloop
  endfacet
  facet normal 0 0 1
    outer loop
      vertex 30.4882 39.0705 12
      vertex 32.3007 38.3831 12
      vertex 41.075 40.6 12
    endloop
  endfacet
  facet normal 0 0 1
    outer loop
      vertex 26.0677 36.0192 12
      vertex 26.9685 37.7356 12
      vertex -8.49797 26.1541 12
    endloop
  endfacet
  facet normal 0 0 1
    outer loop
      vertex 26.0677 34.0808 12
      vertex 26.0677 36.0192 12
      vertex 2.87453 27.3494 12
    endloop
  endfacet
  facet normal 0 0 1
    outer loop
      vertex 28.5638 31.2632 12
      vertex 13.75 23.8157 12
      vertex 14.1845 23.5 12
    endloop
  endfacet
  facet normal 0 0 1
    outer loop
      vertex 41.075 40.6 12
      vertex 33.5861 33.1679 12
      vertex 41.075 -40.6 12
    endloop
  endfacet
  facet normal 0 0 1
    outer loop
      vertex 33.5861 33.1679 12
      vertex 32.3007 31.7169 12
      vertex 41.075 -40.6 12
    endloop
  endfacet
  facet normal 0 0 1
    outer loop
      vertex 30.4882 31.0295 12
      vertex 28.5638 31.2632 12
      vertex 23.5 23.5 12
    endloop
  endfacet
  facet normal 0 0 1
    outer loop
      vertex 32.3007 31.7169 12
      vertex 30.4882 31.0295 12
      vertex 23.5 23.5 12
    endloop
  endfacet
  facet normal 0 0 1
    outer loop
      vertex 28.5638 31.2632 12
      vertex 26.9685 32.3644 12
      vertex 13.75 23.8157 12
    endloop
  endfacet
  facet normal 0 0 1
    outer loop
      vertex 34.05 35.05 12
      vertex 33.5861 33.1679 12
      vertex 41.075 40.6 12
    endloop
  endfacet
  facet normal 0 0 1
    outer loop
      vertex 33.5861 -35.9321 12
      vertex 32.3007 -37.3831 12
      vertex 41.075 -40.6 12
    endloop
  endfacet
  facet normal 0 0 1
    outer loop
      vertex -23.5 23.5 12
      vertex -14.1845 23.5 12
      vertex -36.075 40.6 12
    endloop
  endfacet
  facet normal 0 0 1
    outer loop
      vertex 23.5 -13.9955 12
      vertex 23.5 -23.5 12
      vertex 30.4882 -30.0295 12
    endloop
  endfacet
  facet normal 0 0 1
    outer loop
      vertex 23.5 -23.5 12
      vertex 26.9685 -31.3644 12
      vertex 28.5638 -30.2632 12
    endloop
  endfacet
  facet normal 0 0 1
    outer loop
      vertex 23.5 -23.5 12
      vertex 14.1845 -23.5 12
      vertex 26.9685 -31.3644 12
    endloop
  endfacet
  facet normal 1 0 0
    outer loop
      vertex 41.075 -40.6 12
      vertex 41.075 -40.6 0
      vertex 41.075 40.6 0
    endloop
  endfacet
  facet normal 1 0 0
    outer loop
      vertex 41.075 40.6 12
      vertex 41.075 -40.6 12
      vertex 41.075 40.6 0
    endloop
  endfacet
  facet normal 0.885456 -0.464723 0
    outer loop
      vertex -19.0315 -31.3644 0
      vertex -19.0315 -31.3644 12
      vertex -19.9323 -33.0808 12
    endloop
  endfacet
  facet normal 0.885456 -0.464723 0
    outer loop
      vertex -19.9323 -33.0808 0
      vertex -19.0315 -31.3644 0
      vertex -19.9323 -33.0808 12
    endloop
  endfacet
  facet normal 1 0 0
    outer loop
      vertex -19.9323 -33.0808 0
      vertex -19.9323 -33.0808 12
      vertex -19.9323 -35.0192 12
    endloop
  endfacet
  facet normal 1 0 0
    outer loop
      vertex -19.9323 -35.0192 0
      vertex -19.9323 -33.0808 0
      vertex -19.9323 -35.0192 12
    endloop
  endfacet
  facet normal 0.568065 -0.822984 0
    outer loop
      vertex -17.4361 -30.2632 0
      vertex -17.4361 -30.2632 12
      vertex -19.0315 -31.3644 12
    endloop
  endfacet
  facet normal 0.568065 -0.822984 0
    outer loop
      vertex -19.0315 -31.3644 0
      vertex -17.4361 -30.2632 0
      vertex -19.0315 -31.3644 12
    endloop
  endfacet
  facet normal 0.120537 -0.992709 0
    outer loop
      vertex -15.5118 -30.0295 0
      vertex -15.5118 -30.0295 12
      vertex -17.4361 -30.2632 12
    endloop
  endfacet
  facet normal 0.120537 -0.992709 0
    outer loop
      vertex -17.4361 -30.2632 0
      vertex -15.5118 -30.0295 0
      vertex -17.4361 -30.2632 12
    endloop
  endfacet
  facet normal -0.354605 -0.935016 0
    outer loop
      vertex -13.6993 -30.7169 0
      vertex -13.6993 -30.7169 12
      vertex -15.5118 -30.0295 12
    endloop
  endfacet
  facet normal -0.354605 -0.935016 0
    outer loop
      vertex -15.5118 -30.0295 0
      vertex -13.6993 -30.7169 0
      vertex -15.5118 -30.0295 12
    endloop
  endfacet
  facet normal -0.748511 -0.663123 0
    outer loop
      vertex -12.4139 -32.1679 12
      vertex -13.6993 -30.7169 12
      vertex -12.4139 -32.1679 0
    endloop
  endfacet
  facet normal -0.748511 -0.663123 0
    outer loop
      vertex -12.4139 -32.1679 0
      vertex -13.6993 -30.7169 12
      vertex -13.6993 -30.7169 0
    endloop
  endfacet
  facet normal -0.970942 -0.239316 0
    outer loop
      vertex -11.95 -34.05 12
      vertex -12.4139 -32.1679 12
      vertex -11.95 -34.05 0
    endloop
  endfacet
  facet normal -0.970942 -0.239316 0
    outer loop
      vertex -11.95 -34.05 0
      vertex -12.4139 -32.1679 12
      vertex -12.4139 -32.1679 0
    endloop
  endfacet
  facet normal -0.970942 0.239316 0
    outer loop
      vertex -11.95 -34.05 12
      vertex -11.95 -34.05 0
      vertex -12.4139 -35.9321 12
    endloop
  endfacet
  facet normal -0.970942 0.239316 0
    outer loop
      vertex -12.4139 -35.9321 12
      vertex -11.95 -34.05 0
      vertex -12.4139 -35.9321 0
    endloop
  endfacet
  facet normal -0.748511 0.663123 0
    outer loop
      vertex -12.4139 -35.9321 12
      vertex -12.4139 -35.9321 0
      vertex -13.6993 -37.3831 12
    endloop
  endfacet
  facet normal -0.748511 0.663123 0
    outer loop
      vertex -13.6993 -37.3831 12
      vertex -12.4139 -35.9321 0
      vertex -13.6993 -37.3831 0
    endloop
  endfacet
  facet normal -0.354605 0.935016 0
    outer loop
      vertex -13.6993 -37.3831 12
      vertex -13.6993 -37.3831 0
      vertex -15.5118 -38.0705 12
    endloop
  endfacet
  facet normal -0.354605 0.935016 0
    outer loop
      vertex -15.5118 -38.0705 12
      vertex -13.6993 -37.3831 0
      vertex -15.5118 -38.0705 0
    endloop
  endfacet
  facet normal 0.120537 0.992709 0
    outer loop
      vertex -15.5118 -38.0705 12
      vertex -15.5118 -38.0705 0
      vertex -17.4361 -37.8368 12
    endloop
  endfacet
  facet normal 0.120537 0.992709 0
    outer loop
      vertex -17.4361 -37.8368 12
      vertex -15.5118 -38.0705 0
      vertex -17.4361 -37.8368 0
    endloop
  endfacet
  facet normal 0.568065 0.822984 0
    outer loop
      vertex -17.4361 -37.8368 12
      vertex -17.4361 -37.8368 0
      vertex -19.0315 -36.7356 12
    endloop
  endfacet
  facet normal 0.568065 0.822984 0
    outer loop
      vertex -19.0315 -36.7356 12
      vertex -17.4361 -37.8368 0
      vertex -19.0315 -36.7356 0
    endloop
  endfacet
  facet normal 0.885456 0.464723 0
    outer loop
      vertex -19.9323 -35.0192 12
      vertex -19.0315 -36.7356 12
      vertex -19.0315 -36.7356 0
    endloop
  endfacet
  facet normal 0.885456 0.464723 0
    outer loop
      vertex -19.9323 -35.0192 0
      vertex -19.9323 -35.0192 12
      vertex -19.0315 -36.7356 0
    endloop
  endfacet
  facet normal 0.885456 -0.464723 0
    outer loop
      vertex -19.0315 37.7356 0
      vertex -19.0315 37.7356 12
      vertex -19.9323 36.0192 12
    endloop
  endfacet
  facet normal 0.885456 -0.464723 0
    outer loop
      vertex -19.9323 36.0192 0
      vertex -19.0315 37.7356 0
      vertex -19.9323 36.0192 12
    endloop
  endfacet
  facet normal 1 0 0
    outer loop
      vertex -19.9323 36.0192 0
      vertex -19.9323 36.0192 12
      vertex -19.9323 34.0808 12
    endloop
  endfacet
  facet normal 1 0 0
    outer loop
      vertex -19.9323 34.0808 0
      vertex -19.9323 36.0192 0
      vertex -19.9323 34.0808 12
    endloop
  endfacet
  facet normal 0.568065 -0.822984 0
    outer loop
      vertex -17.4361 38.8368 0
      vertex -17.4361 38.8368 12
      vertex -19.0315 37.7356 12
    endloop
  endfacet
  facet normal 0.568065 -0.822984 0
    outer loop
      vertex -19.0315 37.7356 0
      vertex -17.4361 38.8368 0
      vertex -19.0315 37.7356 12
    endloop
  endfacet
  facet normal 0.120537 -0.992709 0
    outer loop
      vertex -15.5118 39.0705 0
      vertex -15.5118 39.0705 12
      vertex -17.4361 38.8368 12
    endloop
  endfacet
  facet normal 0.120537 -0.992709 0
    outer loop
      vertex -17.4361 38.8368 0
      vertex -15.5118 39.0705 0
      vertex -17.4361 38.8368 12
    endloop
  endfacet
  facet normal -0.354605 -0.935016 0
    outer loop
      vertex -13.6993 38.3831 0
      vertex -13.6993 38.3831 12
      vertex -15.5118 39.0705 12
    endloop
  endfacet
  facet normal -0.354605 -0.935016 0
    outer loop
      vertex -15.5118 39.0705 0
      vertex -13.6993 38.3831 0
      vertex -15.5118 39.0705 12
    endloop
  endfacet
  facet normal -0.748511 -0.663123 0
    outer loop
      vertex -12.4139 36.9321 12
      vertex -13.6993 38.3831 12
      vertex -12.4139 36.9321 0
    endloop
  endfacet
  facet normal -0.748511 -0.663123 0
    outer loop
      vertex -12.4139 36.9321 0
      vertex -13.6993 38.3831 12
      vertex -13.6993 38.3831 0
    endloop
  endfacet
  facet normal -0.970942 -0.239316 0
    outer loop
      vertex -11.95 35.05 12
      vertex -12.4139 36.9321 12
      vertex -11.95 35.05 0
    endloop
  endfacet
  facet normal -0.970942 -0.239316 0
    outer loop
      vertex -11.95 35.05 0
      vertex -12.4139 36.9321 12
      vertex -12.4139 36.9321 0
    endloop
  endfacet
  facet normal -0.970942 0.239316 0
    outer loop
      vertex -11.95 35.05 12
      vertex -11.95 35.05 0
      vertex -12.4139 33.1679 12
    endloop
  endfacet
  facet normal -0.970942 0.239316 0
    outer loop
      vertex -12.4139 33.1679 12
      vertex -11.95 35.05 0
      vertex -12.4139 33.1679 0
    endloop
  endfacet
  facet normal -0.748511 0.663123 0
    outer loop
      vertex -12.4139 33.1679 12
      vertex -12.4139 33.1679 0
      vertex -13.6993 31.7169 12
    endloop
  endfacet
  facet normal -0.748511 0.663123 0
    outer loop
      vertex -13.6993 31.7169 12
      vertex -12.4139 33.1679 0
      vertex -13.6993 31.7169 0
    endloop
  endfacet
  facet normal -0.354605 0.935016 0
    outer loop
      vertex -13.6993 31.7169 12
      vertex -13.6993 31.7169 0
      vertex -15.5118 31.0295 12
    endloop
  endfacet
  facet normal -0.354605 0.935016 0
    outer loop
      vertex -15.5118 31.0295 12
      vertex -13.6993 31.7169 0
      vertex -15.5118 31.0295 0
    endloop
  endfacet
  facet normal 0.120537 0.992709 0
    outer loop
      vertex -15.5118 31.0295 12
      vertex -15.5118 31.0295 0
      vertex -17.4361 31.2632 12
    endloop
  endfacet
  facet normal 0.120537 0.992709 0
    outer loop
      vertex -17.4361 31.2632 12
      vertex -15.5118 31.0295 0
      vertex -17.4361 31.2632 0
    endloop
  endfacet
  facet normal 0.568065 0.822984 0
    outer loop
      vertex -17.4361 31.2632 12
      vertex -17.4361 31.2632 0
      vertex -19.0315 32.3644 12
    endloop
  endfacet
  facet normal 0.568065 0.822984 0
    outer loop
      vertex -19.0315 32.3644 12
      vertex -17.4361 31.2632 0
      vertex -19.0315 32.3644 0
    endloop
  endfacet
  facet normal 0.885456 0.464723 0
    outer loop
      vertex -19.9323 34.0808 12
      vertex -19.0315 32.3644 12
      vertex -19.0315 32.3644 0
    endloop
  endfacet
  facet normal 0.885456 0.464723 0
    outer loop
      vertex -19.9323 34.0808 0
      vertex -19.9323 34.0808 12
      vertex -19.0315 32.3644 0
    endloop
  endfacet
  facet normal 1 0 0
    outer loop
      vertex -18 12 0
      vertex -18 12 2
      vertex -18 -12 2
    endloop
  endfacet
  facet normal 1 0 0
    outer loop
      vertex -18 -12 0
      vertex -18 12 0
      vertex -18 -12 2
    endloop
  endfacet
  facet normal 0 -1 0
    outer loop
      vertex 18 12 0
      vertex 18 12 2
      vertex -18 12 2
    endloop
  endfacet
  facet normal 0 -1 0
    outer loop
      vertex -18 12 0
      vertex 18 12 0
      vertex -18 12 2
    endloop
  endfacet
  facet normal -1 0 0
    outer loop
      vertex 18 12 2
      vertex 18 12 0
      vertex 18 -12 2
    endloop
  endfacet
  facet normal -1 0 0
    outer loop
      vertex 18 -12 2
      vertex 18 12 0
      vertex 18 -12 0
    endloop
  endfacet
  facet normal 0 1 0
    outer loop
      vertex 18 -12 2
      vertex 18 -12 0
      vertex -18 -12 2
    endloop
  endfacet
  facet normal 0 1 0
    outer loop
      vertex -18 -12 2
      vertex 18 -12 0
      vertex -18 -12 0
    endloop
  endfacet
  facet normal 0.885456 -0.464723 0
    outer loop
      vertex 26.9685 -31.3644 0
      vertex 26.9685 -31.3644 12
      vertex 26.0677 -33.0808 12
    endloop
  endfacet
  facet normal 0.885456 -0.464723 0
    outer loop
      vertex 26.0677 -33.0808 0
      vertex 26.9685 -31.3644 0
      vertex 26.0677 -33.0808 12
    endloop
  endfacet
  facet normal 1 0 0
    outer loop
      vertex 26.0677 -33.0808 0
      vertex 26.0677 -33.0808 12
      vertex 26.0677 -35.0192 12
    endloop
  endfacet
  facet normal 1 0 0
    outer loop
      vertex 26.0677 -35.0192 0
      vertex 26.0677 -33.0808 0
      vertex 26.0677 -35.0192 12
    endloop
  endfacet
  facet normal 0.568065 -0.822984 0
    outer loop
      vertex 28.5638 -30.2632 0
      vertex 28.5638 -30.2632 12
      vertex 26.9685 -31.3644 12
    endloop
  endfacet
  facet normal 0.568065 -0.822984 0
    outer loop
      vertex 26.9685 -31.3644 0
      vertex 28.5638 -30.2632 0
      vertex 26.9685 -31.3644 12
    endloop
  endfacet
  facet normal 0.120537 -0.992709 0
    outer loop
      vertex 30.4882 -30.0295 0
      vertex 30.4882 -30.0295 12
      vertex 28.5638 -30.2632 12
    endloop
  endfacet
  facet normal 0.120537 -0.992709 0
    outer loop
      vertex 28.5638 -30.2632 0
      vertex 30.4882 -30.0295 0
      vertex 28.5638 -30.2632 12
    endloop
  endfacet
  facet normal -0.354605 -0.935016 0
    outer loop
      vertex 32.3007 -30.7169 0
      vertex 32.3007 -30.7169 12
      vertex 30.4882 -30.0295 12
    endloop
  endfacet
  facet normal -0.354605 -0.935016 0
    outer loop
      vertex 30.4882 -30.0295 0
      vertex 32.3007 -30.7169 0
      vertex 30.4882 -30.0295 12
    endloop
  endfacet
  facet normal -0.748511 -0.663123 0
    outer loop
      vertex 33.5861 -32.1679 12
      vertex 32.3007 -30.7169 12
      vertex 33.5861 -32.1679 0
    endloop
  endfacet
  facet normal -0.748511 -0.663123 0
    outer loop
      vertex 33.5861 -32.1679 0
      vertex 32.3007 -30.7169 12
      vertex 32.3007 -30.7169 0
    endloop
  endfacet
  facet normal -0.970942 -0.239316 0
    outer loop
      vertex 34.05 -34.05 12
      vertex 33.5861 -32.1679 12
      vertex 34.05 -34.05 0
    endloop
  endfacet
  facet normal -0.970942 -0.239316 0
    outer loop
      vertex 34.05 -34.05 0
      vertex 33.5861 -32.1679 12
      vertex 33.5861 -32.1679 0
    endloop
  endfacet
  facet normal -0.970942 0.239316 0
    outer loop
      vertex 34.05 -34.05 12
      vertex 34.05 -34.05 0
      vertex 33.5861 -35.9321 12
    endloop
  endfacet
  facet normal -0.970942 0.239316 0
    outer loop
      vertex 33.5861 -35.9321 12
      vertex 34.05 -34.05 0
      vertex 33.5861 -35.9321 0
    endloop
  endfacet
  facet normal -0.748511 0.663123 0
    outer loop
      vertex 33.5861 -35.9321 12
      vertex 33.5861 -35.9321 0
      vertex 32.3007 -37.3831 12
    endloop
  endfacet
  facet normal -0.748511 0.663123 0
    outer loop
      vertex 32.3007 -37.3831 12
      vertex 33.5861 -35.9321 0
      vertex 32.3007 -37.3831 0
    endloop
  endfacet
  facet normal -0.354605 0.935016 0
    outer loop
      vertex 32.3007 -37.3831 12
      vertex 32.3007 -37.3831 0
      vertex 30.4882 -38.0705 12
    endloop
  endfacet
  facet normal -0.354605 0.935016 0
    outer loop
      vertex 30.4882 -38.0705 12
      vertex 32.3007 -37.3831 0
      vertex 30.4882 -38.0705 0
    endloop
  endfacet
  facet normal 0.120537 0.992709 0
    outer loop
      vertex 30.4882 -38.0705 12
      vertex 30.4882 -38.0705 0
      vertex 28.5638 -37.8368 12
    endloop
  endfacet
  facet normal 0.120537 0.992709 0
    outer loop
      vertex 28.5638 -37.8368 12
      vertex 30.4882 -38.0705 0
      vertex 28.5638 -37.8368 0
    endloop
  endfacet
  facet normal 0.568065 0.822984 0
    outer loop
      vertex 28.5638 -37.8368 12
      vertex 28.5638 -37.8368 0
      vertex 26.9685 -36.7356 12
    endloop
  endfacet
  facet normal 0.568065 0.822984 0
    outer loop
      vertex 26.9685 -36.7356 12
      vertex 28.5638 -37.8368 0
      vertex 26.9685 -36.7356 0
    endloop
  endfacet
  facet normal 0.885456 0.464723 0
    outer loop
      vertex 26.0677 -35.0192 12
      vertex 26.9685 -36.7356 12
      vertex 26.9685 -36.7356 0
    endloop
  endfacet
  facet normal 0.885456 0.464723 0
    outer loop
      vertex 26.0677 -35.0192 0
      vertex 26.0677 -35.0192 12
      vertex 26.9685 -36.7356 0
    endloop
  endfacet
  facet normal 0.885456 -0.464723 0
    outer loop
      vertex 26.9685 37.7356 0
      vertex 26.9685 37.7356 12
      vertex 26.0677 36.0192 12
    endloop
  endfacet
  facet normal 0.885456 -0.464723 0
    outer loop
      vertex 26.0677 36.0192 0
      vertex 26.9685 37.7356 0
      vertex 26.0677 36.0192 12
    endloop
  endfacet
  facet normal 1 0 0
    outer loop
      vertex 26.0677 36.0192 0
      vertex 26.0677 36.0192 12
      vertex 26.0677 34.0808 12
    endloop
  endfacet
  facet normal 1 0 0
    outer loop
      vertex 26.0677 34.0808 0
      vertex 26.0677 36.0192 0
      vertex 26.0677 34.0808 12
    endloop
  endfacet
  facet normal 0.568065 -0.822984 0
    outer loop
      vertex 28.5638 38.8368 0
      vertex 28.5638 38.8368 12
      vertex 26.9685 37.7356 12
    endloop
  endfacet
  facet normal 0.568065 -0.822984 0
    outer loop
      vertex 26.9685 37.7356 0
      vertex 28.5638 38.8368 0
      vertex 26.9685 37.7356 12
    endloop
  endfacet
  facet normal 0.120537 -0.992709 0
    outer loop
      vertex 30.4882 39.0705 0
      vertex 30.4882 39.0705 12
      vertex 28.5638 38.8368 12
    endloop
  endfacet
  facet normal 0.120537 -0.992709 0
    outer loop
      vertex 28.5638 38.8368 0
      vertex 30.4882 39.0705 0
      vertex 28.5638 38.8368 12
    endloop
  endfacet
  facet normal -0.354605 -0.935016 0
    outer loop
      vertex 32.3007 38.3831 0
      vertex 32.3007 38.3831 12
      vertex 30.4882 39.0705 12
    endloop
  endfacet
  facet normal -0.354605 -0.935016 0
    outer loop
      vertex 30.4882 39.0705 0
      vertex 32.3007 38.3831 0
      vertex 30.4882 39.0705 12
    endloop
  endfacet
  facet normal -0.748511 -0.663123 0
    outer loop
      vertex 33.5861 36.9321 12
      vertex 32.3007 38.3831 12
      vertex 33.5861 36.9321 0
    endloop
  endfacet
  facet normal -0.748511 -0.663123 0
    outer loop
      vertex 33.5861 36.9321 0
      vertex 32.3007 38.3831 12
      vertex 32.3007 38.3831 0
    endloop
  endfacet
  facet normal -0.970942 -0.239316 0
    outer loop
      vertex 34.05 35.05 12
      vertex 33.5861 36.9321 12
      vertex 34.05 35.05 0
    endloop
  endfacet
  facet normal -0.970942 -0.239316 0
    outer loop
      vertex 34.05 35.05 0
      vertex 33.5861 36.9321 12
      vertex 33.5861 36.9321 0
    endloop
  endfacet
  facet normal -0.970942 0.239316 0
    outer loop
      vertex 34.05 35.05 12
      vertex 34.05 35.05 0
      vertex 33.5861 33.1679 12
    endloop
  endfacet
  facet normal -0.970942 0.239316 0
    outer loop
      vertex 33.5861 33.1679 12
      vertex 34.05 35.05 0
      vertex 33.5861 33.1679 0
    endloop
  endfacet
  facet normal -0.748511 0.663123 0
    outer loop
      vertex 33.5861 33.1679 12
      vertex 33.5861 33.1679 0
      vertex 32.3007 31.7169 12
    endloop
  endfacet
  facet normal -0.748511 0.663123 0
    outer loop
      vertex 32.3007 31.7169 12
      vertex 33.5861 33.1679 0
      vertex 32.3007 31.7169 0
    endloop
  endfacet
  facet normal -0.354605 0.935016 0
    outer loop
      vertex 32.3007 31.7169 12
      vertex 32.3007 31.7169 0
      vertex 30.4882 31.0295 12
    endloop
  endfacet
  facet normal -0.354605 0.935016 0
    outer loop
      vertex 30.4882 31.0295 12
      vertex 32.3007 31.7169 0
      vertex 30.4882 31.0295 0
    endloop
  endfacet
  facet normal 0.120537 0.992709 0
    outer loop
      vertex 30.4882 31.0295 12
      vertex 30.4882 31.0295 0
      vertex 28.5638 31.2632 12
    endloop
  endfacet
  facet normal 0.120537 0.992709 0
    outer loop
      vertex 28.5638 31.2632 12
      vertex 30.4882 31.0295 0
      vertex 28.5638 31.2632 0
    endloop
  endfacet
  facet normal 0.568065 0.822984 0
    outer loop
      vertex 28.5638 31.2632 12
      vertex 28.5638 31.2632 0
      vertex 26.9685 32.3644 12
    endloop
  endfacet
  facet normal 0.568065 0.822984 0
    outer loop
      vertex 26.9685 32.3644 12
      vertex 28.5638 31.2632 0
      vertex 26.9685 32.3644 0
    endloop
  endfacet
  facet normal 0.885456 0.464723 0
    outer loop
      vertex 26.0677 34.0808 12
      vertex 26.9685 32.3644 12
      vertex 26.9685 32.3644 0
    endloop
  endfacet
  facet normal 0.885456 0.464723 0
    outer loop
      vertex 26.0677 34.0808 0
      vertex 26.0677 34.0808 12
      vertex 26.9685 32.3644 0
    endloop
  endfacet
  facet normal 0.994522 0.104528 0
    outer loop
      vertex -27.5 0 12
      vertex -26.8991 -5.71757 12
      vertex -26.8991 -5.71757 3
    endloop
  endfacet
  facet normal 0.994522 0.104528 0
    outer loop
      vertex -27.5 0 3
      vertex -27.5 0 12
      vertex -26.8991 -5.71757 3
    endloop
  endfacet
  facet normal 0.951057 0.309017 0
    outer loop
      vertex -26.8991 -5.71757 12
      vertex -25.1225 -11.1853 12
      vertex -25.1225 -11.1853 3
    endloop
  endfacet
  facet normal 0.951057 0.309017 0
    outer loop
      vertex -26.8991 -5.71757 3
      vertex -26.8991 -5.71757 12
      vertex -25.1225 -11.1853 3
    endloop
  endfacet
  facet normal 0.866025 0.5 0
    outer loop
      vertex -25.1225 -11.1853 12
      vertex -23.5 -13.9955 12
      vertex -23.5 -13.9955 3
    endloop
  endfacet
  facet normal 0.866025 0.5 0
    outer loop
      vertex -25.1225 -11.1853 3
      vertex -25.1225 -11.1853 12
      vertex -23.5 -13.9955 3
    endloop
  endfacet
  facet normal 1 0 0
    outer loop
      vertex -23.5 23.5 2
      vertex -23.5 23.5 12
      vertex -23.5 13.9955 12
    endloop
  endfacet
  facet normal 1 0 0
    outer loop
      vertex -23.5 -13.9955 3
      vertex -23.5 23.5 2
      vertex -23.5 13.9955 3
    endloop
  endfacet
  facet normal 1 0 0
    outer loop
      vertex -23.5 13.9955 3
      vertex -23.5 23.5 2
      vertex -23.5 13.9955 12
    endloop
  endfacet
  facet normal 1 0 0
    outer loop
      vertex -23.5 -23.5 2
      vertex -23.5 23.5 2
      vertex -23.5 -13.9955 3
    endloop
  endfacet
  facet normal 1 0 0
    outer loop
      vertex -23.5 -23.5 12
      vertex -23.5 -13.9955 3
      vertex -23.5 -13.9955 12
    endloop
  endfacet
  facet normal 1 0 0
    outer loop
      vertex -23.5 -23.5 2
      vertex -23.5 -13.9955 3
      vertex -23.5 -23.5 12
    endloop
  endfacet
  facet normal 0 1 0
    outer loop
      vertex -14.1845 -23.5 12
      vertex -14.1845 -23.5 3
      vertex -23.5 -23.5 12
    endloop
  endfacet
  facet normal 0 1 0
    outer loop
      vertex -23.5 -23.5 2
      vertex -14.1845 -23.5 3
      vertex 23.5 -23.5 2
    endloop
  endfacet
  facet normal 0 1 0
    outer loop
      vertex 23.5 -23.5 12
      vertex 14.1845 -23.5 3
      vertex 14.1845 -23.5 12
    endloop
  endfacet
  facet normal 0 1 0
    outer loop
      vertex 23.5 -23.5 2
      vertex 14.1845 -23.5 3
      vertex 23.5 -23.5 12
    endloop
  endfacet
  facet normal 0 1 0
    outer loop
      vertex -14.1845 -23.5 3
      vertex 14.1845 -23.5 3
      vertex 23.5 -23.5 2
    endloop
  endfacet
  facet normal 0 1 0
    outer loop
      vertex -23.5 -23.5 12
      vertex -14.1845 -23.5 3
      vertex -23.5 -23.5 2
    endloop
  endfacet
  facet normal 0.587785 0.809017 0
    outer loop
      vertex -13.75 -23.8157 12
      vertex -13.75 -23.8157 3
      vertex -14.1845 -23.5 12
    endloop
  endfacet
  facet normal 0.587785 0.809017 0
    outer loop
      vertex -14.1845 -23.5 12
      vertex -13.75 -23.8157 3
      vertex -14.1845 -23.5 3
    endloop
  endfacet
  facet normal 0.406737 0.913546 0
    outer loop
      vertex -8.49797 -26.1541 12
      vertex -8.49797 -26.1541 3
      vertex -13.75 -23.8157 12
    endloop
  endfacet
  facet normal 0.406737 0.913546 0
    outer loop
      vertex -13.75 -23.8157 12
      vertex -8.49797 -26.1541 3
      vertex -13.75 -23.8157 3
    endloop
  endfacet
  facet normal 0.207912 0.978148 0
    outer loop
      vertex -2.87453 -27.3494 12
      vertex -2.87453 -27.3494 3
      vertex -8.49797 -26.1541 12
    endloop
  endfacet
  facet normal 0.207912 0.978148 0
    outer loop
      vertex -8.49797 -26.1541 12
      vertex -2.87453 -27.3494 3
      vertex -8.49797 -26.1541 3
    endloop
  endfacet
  facet normal 0 1 0
    outer loop
      vertex 2.87453 -27.3494 12
      vertex 2.87453 -27.3494 3
      vertex -2.87453 -27.3494 12
    endloop
  endfacet
  facet normal 0 1 0
    outer loop
      vertex -2.87453 -27.3494 12
      vertex 2.87453 -27.3494 3
      vertex -2.87453 -27.3494 3
    endloop
  endfacet
  facet normal -0.207912 0.978148 0
    outer loop
      vertex 8.49797 -26.1541 12
      vertex 8.49797 -26.1541 3
      vertex 2.87453 -27.3494 12
    endloop
  endfacet
  facet normal -0.207912 0.978148 0
    outer loop
      vertex 2.87453 -27.3494 12
      vertex 8.49797 -26.1541 3
      vertex 2.87453 -27.3494 3
    endloop
  endfacet
  facet normal -0.406737 0.913546 0
    outer loop
      vertex 13.75 -23.8157 12
      vertex 13.75 -23.8157 3
      vertex 8.49797 -26.1541 12
    endloop
  endfacet
  facet normal -0.406737 0.913546 0
    outer loop
      vertex 8.49797 -26.1541 12
      vertex 13.75 -23.8157 3
      vertex 8.49797 -26.1541 3
    endloop
  endfacet
  facet normal -0.587785 0.809017 0
    outer loop
      vertex 14.1845 -23.5 12
      vertex 14.1845 -23.5 3
      vertex 13.75 -23.8157 12
    endloop
  endfacet
  facet normal -0.587785 0.809017 0
    outer loop
      vertex 13.75 -23.8157 12
      vertex 14.1845 -23.5 3
      vertex 13.75 -23.8157 3
    endloop
  endfacet
  facet normal -1 0 0
    outer loop
      vertex 23.5 -13.9955 12
      vertex 23.5 -13.9955 3
      vertex 23.5 -23.5 12
    endloop
  endfacet
  facet normal -1 0 0
    outer loop
      vertex 23.5 -23.5 2
      vertex 23.5 -13.9955 3
      vertex 23.5 23.5 2
    endloop
  endfacet
  facet normal -1 0 0
    outer loop
      vertex 23.5 23.5 12
      vertex 23.5 13.9955 3
      vertex 23.5 13.9955 12
    endloop
  endfacet
  facet normal -1 0 0
    outer loop
      vertex 23.5 23.5 2
      vertex 23.5 13.9955 3
      vertex 23.5 23.5 12
    endloop
  endfacet
  facet normal -1 0 0
    outer loop
      vertex 23.5 -13.9955 3
      vertex 23.5 13.9955 3
      vertex 23.5 23.5 2
    endloop
  endfacet
  facet normal -1 0 0
    outer loop
      vertex 23.5 -23.5 12
      vertex 23.5 -13.9955 3
      vertex 23.5 -23.5 2
    endloop
  endfacet
  facet normal -0.866025 0.5 0
    outer loop
      vertex 25.1225 -11.1853 12
      vertex 25.1225 -11.1853 3
      vertex 23.5 -13.9955 12
    endloop
  endfacet
  facet normal -0.866025 0.5 0
    outer loop
      vertex 23.5 -13.9955 12
      vertex 25.1225 -11.1853 3
      vertex 23.5 -13.9955 3
    endloop
  endfacet
  facet normal -0.951057 0.309017 0
    outer loop
      vertex 26.8991 -5.71757 12
      vertex 26.8991 -5.71757 3
      vertex 25.1225 -11.1853 12
    endloop
  endfacet
  facet normal -0.951057 0.309017 0
    outer loop
      vertex 25.1225 -11.1853 12
      vertex 26.8991 -5.71757 3
      vertex 25.1225 -11.1853 3
    endloop
  endfacet
  facet normal -0.994522 0.104528 0
    outer loop
      vertex 27.5 0 12
      vertex 27.5 0 3
      vertex 26.8991 -5.71757 12
    endloop
  endfacet
  facet normal -0.994522 0.104528 0
    outer loop
      vertex 26.8991 -5.71757 12
      vertex 27.5 0 3
      vertex 26.8991 -5.71757 3
    endloop
  endfacet
  facet normal -0.994522 -0.104528 0
    outer loop
      vertex 27.5 0 12
      vertex 26.8991 5.71757 12
      vertex 27.5 0 3
    endloop
  endfacet
  facet normal -0.994522 -0.104528 0
    outer loop
      vertex 27.5 0 3
      vertex 26.8991 5.71757 12
      vertex 26.8991 5.71757 3
    endloop
  endfacet
  facet normal -0.951057 -0.309017 0
    outer loop
      vertex 26.8991 5.71757 12
      vertex 25.1225 11.1853 12
      vertex 26.8991 5.71757 3
    endloop
  endfacet
  facet normal -0.951057 -0.309017 0
    outer loop
      vertex 26.8991 5.71757 3
      vertex 25.1225 11.1853 12
      vertex 25.1225 11.1853 3
    endloop
  endfacet
  facet normal -0.866025 -0.5 0
    outer loop
      vertex 25.1225 11.1853 12
      vertex 23.5 13.9955 12
      vertex 25.1225 11.1853 3
    endloop
  endfacet
  facet normal -0.866025 -0.5 0
    outer loop
      vertex 25.1225 11.1853 3
      vertex 23.5 13.9955 12
      vertex 23.5 13.9955 3
    endloop
  endfacet
  facet normal 0 -1 0
    outer loop
      vertex 23.5 23.5 2
      vertex 23.5 23.5 12
      vertex 14.1845 23.5 12
    endloop
  endfacet
  facet normal 0 -1 0
    outer loop
      vertex -14.1845 23.5 3
      vertex 23.5 23.5 2
      vertex 14.1845 23.5 3
    endloop
  endfacet
  facet normal 0 -1 0
    outer loop
      vertex 14.1845 23.5 3
      vertex 23.5 23.5 2
      vertex 14.1845 23.5 12
    endloop
  endfacet
  facet normal 0 -1 0
    outer loop
      vertex -23.5 23.5 2
      vertex 23.5 23.5 2
      vertex -14.1845 23.5 3
    endloop
  endfacet
  facet normal 0 -1 0
    outer loop
      vertex -23.5 23.5 12
      vertex -14.1845 23.5 3
      vertex -14.1845 23.5 12
    endloop
  endfacet
  facet normal 0 -1 0
    outer loop
      vertex -23.5 23.5 2
      vertex -14.1845 23.5 3
      vertex -23.5 23.5 12
    endloop
  endfacet
  facet normal -0.587785 -0.809017 0
    outer loop
      vertex 14.1845 23.5 3
      vertex 14.1845 23.5 12
      vertex 13.75 23.8157 12
    endloop
  endfacet
  facet normal -0.587785 -0.809017 0
    outer loop
      vertex 13.75 23.8157 3
      vertex 14.1845 23.5 3
      vertex 13.75 23.8157 12
    endloop
  endfacet
  facet normal -0.406737 -0.913546 0
    outer loop
      vertex 13.75 23.8157 3
      vertex 13.75 23.8157 12
      vertex 8.49797 26.1541 12
    endloop
  endfacet
  facet normal -0.406737 -0.913546 0
    outer loop
      vertex 8.49797 26.1541 3
      vertex 13.75 23.8157 3
      vertex 8.49797 26.1541 12
    endloop
  endfacet
  facet normal -0.207912 -0.978148 0
    outer loop
      vertex 8.49797 26.1541 3
      vertex 8.49797 26.1541 12
      vertex 2.87453 27.3494 12
    endloop
  endfacet
  facet normal -0.207912 -0.978148 0
    outer loop
      vertex 2.87453 27.3494 3
      vertex 8.49797 26.1541 3
      vertex 2.87453 27.3494 12
    endloop
  endfacet
  facet normal 0 -1 0
    outer loop
      vertex 2.87453 27.3494 3
      vertex 2.87453 27.3494 12
      vertex -2.87453 27.3494 12
    endloop
  endfacet
  facet normal 0 -1 0
    outer loop
      vertex -2.87453 27.3494 3
      vertex 2.87453 27.3494 3
      vertex -2.87453 27.3494 12
    endloop
  endfacet
  facet normal 0.207912 -0.978148 0
    outer loop
      vertex -2.87453 27.3494 3
      vertex -2.87453 27.3494 12
      vertex -8.49797 26.1541 12
    endloop
  endfacet
  facet normal 0.207912 -0.978148 0
    outer loop
      vertex -8.49797 26.1541 3
      vertex -2.87453 27.3494 3
      vertex -8.49797 26.1541 12
    endloop
  endfacet
  facet normal 0.406737 -0.913546 0
    outer loop
      vertex -8.49797 26.1541 3
      vertex -8.49797 26.1541 12
      vertex -13.75 23.8157 12
    endloop
  endfacet
  facet normal 0.406737 -0.913546 0
    outer loop
      vertex -13.75 23.8157 3
      vertex -8.49797 26.1541 3
      vertex -13.75 23.8157 12
    endloop
  endfacet
  facet normal 0.587785 -0.809017 0
    outer loop
      vertex -13.75 23.8157 3
      vertex -13.75 23.8157 12
      vertex -14.1845 23.5 12
    endloop
  endfacet
  facet normal 0.587785 -0.809017 0
    outer loop
      vertex -14.1845 23.5 3
      vertex -13.75 23.8157 3
      vertex -14.1845 23.5 12
    endloop
  endfacet
  facet normal 0.866025 -0.5 0
    outer loop
      vertex -23.5 13.9955 3
      vertex -23.5 13.9955 12
      vertex -25.1225 11.1853 12
    endloop
  endfacet
  facet normal 0.866025 -0.5 0
    outer loop
      vertex -25.1225 11.1853 3
      vertex -23.5 13.9955 3
      vertex -25.1225 11.1853 12
    endloop
  endfacet
  facet normal 0.951057 -0.309017 0
    outer loop
      vertex -25.1225 11.1853 3
      vertex -25.1225 11.1853 12
      vertex -26.8991 5.71757 12
    endloop
  endfacet
  facet normal 0.951057 -0.309017 0
    outer loop
      vertex -26.8991 5.71757 3
      vertex -25.1225 11.1853 3
      vertex -26.8991 5.71757 12
    endloop
  endfacet
  facet normal 0.994522 -0.104528 0
    outer loop
      vertex -26.8991 5.71757 3
      vertex -26.8991 5.71757 12
      vertex -27.5 0 12
    endloop
  endfacet
  facet normal 0.994522 -0.104528 0
    outer loop
      vertex -27.5 0 3
      vertex -26.8991 5.71757 3
      vertex -27.5 0 12
    endloop
  endfacet
  facet normal 0 0 1
    outer loop
      vertex 18 12 2
      vertex 23.5 23.5 2
      vertex -23.5 23.5 2
    endloop
  endfacet
  facet normal 0 0 1
    outer loop
      vertex -23.5 -23.5 2
      vertex -18 12 2
      vertex -23.5 23.5 2
    endloop
  endfacet
  facet normal 0 0 1
    outer loop
      vertex 23.5 -23.5 2
      vertex 23.5 23.5 2
      vertex 18 12 2
    endloop
  endfacet
  facet normal 0 0 1
    outer loop
      vertex 18 -12 2
      vertex -18 -12 2
      vertex 23.5 -23.5 2
    endloop
  endfacet
  facet normal 0 0 1
    outer loop
      vertex 23.5 -23.5 2
      vertex 18 12 2
      vertex 18 -12 2
    endloop
  endfacet
  facet normal 0 0 1
    outer loop
      vertex -23.5 -23.5 2
      vertex -18 -12 2
      vertex -18 12 2
    endloop
  endfacet
  facet normal 0 0 1
    outer loop
      vertex -23.5 -23.5 2
      vertex 23.5 -23.5 2
      vertex -18 -12 2
    endloop
  endfacet
  facet normal 0 0 1
    outer loop
      vertex -18 12 2
      vertex 18 12 2
      vertex -23.5 23.5 2
    endloop
  endfacet
  facet normal 0 0 1
    outer loop
      vertex -26.8991 -5.71757 3
      vertex -25.1225 -11.1853 3
      vertex -23.5 -13.9955 3
    endloop
  endfacet
  facet normal 0 0 1
    outer loop
      vertex -25.1225 11.1853 3
      vertex -26.8991 -5.71757 3
      vertex -23.5 13.9955 3
    endloop
  endfacet
  facet normal 0 0 1
    outer loop
      vertex -23.5 13.9955 3
      vertex -26.8991 -5.71757 3
      vertex -23.5 -13.9955 3
    endloop
  endfacet
  facet normal 0 0 1
    outer loop
      vertex -26.8991 5.71757 3
      vertex -26.8991 -5.71757 3
      vertex -25.1225 11.1853 3
    endloop
  endfacet
  facet normal 0 0 1
    outer loop
      vertex -27.5 0 3
      vertex -26.8991 -5.71757 3
      vertex -26.8991 5.71757 3
    endloop
  endfacet
  facet normal 0 0 1
    outer loop
      vertex -13.75 -23.8157 3
      vertex -8.49797 -26.1541 3
      vertex -2.87453 -27.3494 3
    endloop
  endfacet
  facet normal 0 0 1
    outer loop
      vertex 8.49797 -26.1541 3
      vertex -13.75 -23.8157 3
      vertex 2.87453 -27.3494 3
    endloop
  endfacet
  facet normal 0 0 1
    outer loop
      vertex 2.87453 -27.3494 3
      vertex -13.75 -23.8157 3
      vertex -2.87453 -27.3494 3
    endloop
  endfacet
  facet normal 0 0 1
    outer loop
      vertex 13.75 -23.8157 3
      vertex -13.75 -23.8157 3
      vertex 8.49797 -26.1541 3
    endloop
  endfacet
  facet normal 0 0 1
    outer loop
      vertex 14.1845 -23.5 3
      vertex -13.75 -23.8157 3
      vertex 13.75 -23.8157 3
    endloop
  endfacet
  facet normal 0 0 1
    outer loop
      vertex -14.1845 -23.5 3
      vertex -13.75 -23.8157 3
      vertex 14.1845 -23.5 3
    endloop
  endfacet
  facet normal 0 0 1
    outer loop
      vertex 25.1225 -11.1853 3
      vertex 26.8991 -5.71757 3
      vertex 27.5 0 3
    endloop
  endfacet
  facet normal 0 0 1
    outer loop
      vertex 25.1225 11.1853 3
      vertex 25.1225 -11.1853 3
      vertex 26.8991 5.71757 3
    endloop
  endfacet
  facet normal 0 0 1
    outer loop
      vertex 26.8991 5.71757 3
      vertex 25.1225 -11.1853 3
      vertex 27.5 0 3
    endloop
  endfacet
  facet normal 0 0 1
    outer loop
      vertex 23.5 13.9955 3
      vertex 25.1225 -11.1853 3
      vertex 25.1225 11.1853 3
    endloop
  endfacet
  facet normal 0 0 1
    outer loop
      vertex 23.5 -13.9955 3
      vertex 25.1225 -11.1853 3
      vertex 23.5 13.9955 3
    endloop
  endfacet
  facet normal 0 0 1
    outer loop
      vertex 14.1845 23.5 3
      vertex 13.75 23.8157 3
      vertex 8.49797 26.1541 3
    endloop
  endfacet
  facet normal 0 0 1
    outer loop
      vertex -2.87453 27.3494 3
      vertex 14.1845 23.5 3
      vertex 2.87453 27.3494 3
    endloop
  endfacet
  facet normal 0 0 1
    outer loop
      vertex 2.87453 27.3494 3
      vertex 14.1845 23.5 3
      vertex 8.49797 26.1541 3
    endloop
  endfacet
  facet normal 0 0 1
    outer loop
      vertex -8.49797 26.1541 3
      vertex 14.1845 23.5 3
      vertex -2.87453 27.3494 3
    endloop
  endfacet
  facet normal 0 0 1
    outer loop
      vertex -13.75 23.8157 3
      vertex 14.1845 23.5 3
      vertex -8.49797 26.1541 3
    endloop
  endfacet
  facet normal 0 0 1
    outer loop
      vertex -14.1845 23.5 3
      vertex 14.1845 23.5 3
      vertex -13.75 23.8157 3
    endloop
  endfacet
endsolid OpenSCAD_Model
