solid OpenSCAD_Model
  facet normal -1 0 0
    outer loop
      vertex -36.075 -40.6 0
      vertex -36.075 -40.6 5
      vertex -36.075 40.6 0
    endloop
  endfacet
  facet normal -1 0 0
    outer loop
      vertex -36.075 40.6 0
      vertex -36.075 -40.6 5
      vertex -36.075 40.6 5
    endloop
  endfacet
  facet normal 0 -1 0
    outer loop
      vertex -36.075 -40.6 5
      vertex -36.075 -40.6 0
      vertex 41.075 -40.6 0
    endloop
  endfacet
  facet normal 0 -1 0
    outer loop
      vertex 41.075 -40.6 5
      vertex -36.075 -40.6 5
      vertex 41.075 -40.6 0
    endloop
  endfacet
  facet normal 0 0 -1
    outer loop
      vertex 0.5 6.5 0
      vertex 30.4882 -30.0295 0
      vertex 0.5 -6.5 0
    endloop
  endfacet
  facet normal 0 0 -1
    outer loop
      vertex -15.5118 39.0705 0
      vertex -36.075 40.6 0
      vertex 41.075 40.6 0
    endloop
  endfacet
  facet normal 0 0 -1
    outer loop
      vertex -36.075 -40.6 0
      vertex -36.075 40.6 0
      vertex -19.9323 -33.0808 0
    endloop
  endfacet
  facet normal 0 0 -1
    outer loop
      vertex -36.075 -40.6 0
      vertex -19.9323 -33.0808 0
      vertex -19.9323 -35.0192 0
    endloop
  endfacet
  facet normal 0 0 -1
    outer loop
      vertex -36.075 -40.6 0
      vertex -19.9323 -35.0192 0
      vertex -19.0315 -36.7356 0
    endloop
  endfacet
  facet normal 0 0 -1
    outer loop
      vertex -36.075 -40.6 0
      vertex -19.0315 -36.7356 0
      vertex -17.4361 -37.8368 0
    endloop
  endfacet
  facet normal 0 0 -1
    outer loop
      vertex -36.075 -40.6 0
      vertex -17.4361 -37.8368 0
      vertex -15.5118 -38.0705 0
    endloop
  endfacet
  facet normal 0 0 -1
    outer loop
      vertex -36.075 -40.6 0
      vertex -15.5118 -38.0705 0
      vertex 41.075 -40.6 0
    endloop
  endfacet
  facet normal 0 0 -1
    outer loop
      vertex -12.4139 -35.9321 0
      vertex 41.075 -40.6 0
      vertex -13.6993 -37.3831 0
    endloop
  endfacet
  facet normal 0 0 -1
    outer loop
      vertex -11.95 -34.05 0
      vertex 41.075 -40.6 0
      vertex -12.4139 -35.9321 0
    endloop
  endfacet
  facet normal 0 0 -1
    outer loop
      vertex -17.4361 31.2632 0
      vertex 41.075 -40.6 0
      vertex -19.0315 32.3644 0
    endloop
  endfacet
  facet normal 0 0 -1
    outer loop
      vertex -13.6993 -30.7169 0
      vertex -36.075 40.6 0
      vertex -12.4139 -32.1679 0
    endloop
  endfacet
  facet normal 0 0 -1
    outer loop
      vertex -11.95 -34.05 0
      vertex -12.4139 -32.1679 0
      vertex 41.075 -40.6 0
    endloop
  endfacet
  facet normal 0 0 -1
    outer loop
      vertex -15.5118 -30.0295 0
      vertex -36.075 40.6 0
      vertex -13.6993 -30.7169 0
    endloop
  endfacet
  facet normal 0 0 -1
    outer loop
      vertex -17.4361 -30.2632 0
      vertex -36.075 40.6 0
      vertex -15.5118 -30.0295 0
    endloop
  endfacet
  facet normal 0 0 -1
    outer loop
      vertex -19.0315 -31.3644 0
      vertex -36.075 40.6 0
      vertex -17.4361 -30.2632 0
    endloop
  endfacet
  facet normal 0 0 -1
    outer loop
      vertex -19.9323 -33.0808 0
      vertex -36.075 40.6 0
      vertex -19.0315 -31.3644 0
    endloop
  endfacet
  facet normal 0 0 -1
    outer loop
      vertex -19.9323 34.0808 0
      vertex -36.075 40.6 0
      vertex -19.9323 36.0192 0
    endloop
  endfacet
  facet normal 0 0 -1
    outer loop
      vertex -19.0315 32.3644 0
      vertex -36.075 40.6 0
      vertex -19.9323 34.0808 0
    endloop
  endfacet
  facet normal 0 0 -1
    outer loop
      vertex -0.5 6.5 0
      vertex -36.075 40.6 0
      vertex -19.0315 32.3644 0
    endloop
  endfacet
  facet normal 0 0 -1
    outer loop
      vertex -15.5118 31.0295 0
      vertex 41.075 -40.6 0
      vertex -17.4361 31.2632 0
    endloop
  endfacet
  facet normal 0 0 -1
    outer loop
      vertex -12.4139 36.9321 0
      vertex 41.075 40.6 0
      vertex -11.95 35.05 0
    endloop
  endfacet
  facet normal 0 0 -1
    outer loop
      vertex 26.9685 37.7356 0
      vertex -12.4139 33.1679 0
      vertex 28.5638 38.8368 0
    endloop
  endfacet
  facet normal 0 0 -1
    outer loop
      vertex 28.5638 38.8368 0
      vertex -12.4139 33.1679 0
      vertex 41.075 40.6 0
    endloop
  endfacet
  facet normal 0 0 -1
    outer loop
      vertex -12.4139 33.1679 0
      vertex -11.95 35.05 0
      vertex 41.075 40.6 0
    endloop
  endfacet
  facet normal 0 0 -1
    outer loop
      vertex -0.5 -6.5 0
      vertex -36.075 40.6 0
      vertex -0.5 6.5 0
    endloop
  endfacet
  facet normal 0 0 -1
    outer loop
      vertex -19.0315 37.7356 0
      vertex -36.075 40.6 0
      vertex -17.4361 38.8368 0
    endloop
  endfacet
  facet normal 0 0 -1
    outer loop
      vertex 28.5638 -30.2632 0
      vertex 0.5 -6.5 0
      vertex 30.4882 -30.0295 0
    endloop
  endfacet
  facet normal 0 0 -1
    outer loop
      vertex -12.4139 36.9321 0
      vertex -13.6993 38.3831 0
      vertex 41.075 40.6 0
    endloop
  endfacet
  facet normal 0 0 -1
    outer loop
      vertex -17.4361 38.8368 0
      vertex -36.075 40.6 0
      vertex -15.5118 39.0705 0
    endloop
  endfacet
  facet normal 0 0 -1
    outer loop
      vertex -13.6993 38.3831 0
      vertex -15.5118 39.0705 0
      vertex 41.075 40.6 0
    endloop
  endfacet
  facet normal 0 0 -1
    outer loop
      vertex -19.9323 36.0192 0
      vertex -36.075 40.6 0
      vertex -19.0315 37.7356 0
    endloop
  endfacet
  facet normal 0 0 -1
    outer loop
      vertex 0.5 6.5 0
      vertex -0.5 6.5 0
      vertex -19.0315 32.3644 0
    endloop
  endfacet
  facet normal 0 0 -1
    outer loop
      vertex -12.4139 -32.1679 0
      vertex -36.075 40.6 0
      vertex -0.5 -6.5 0
    endloop
  endfacet
  facet normal 0 0 -1
    outer loop
      vertex 0.5 6.5 0
      vertex 41.075 -40.6 0
      vertex 33.5861 -32.1679 0
    endloop
  endfacet
  facet normal 0 0 -1
    outer loop
      vertex 32.3007 -37.3831 0
      vertex 41.075 -40.6 0
      vertex 30.4882 -38.0705 0
    endloop
  endfacet
  facet normal 0 0 -1
    outer loop
      vertex 41.075 -40.6 0
      vertex 0.5 6.5 0
      vertex -19.0315 32.3644 0
    endloop
  endfacet
  facet normal 0 0 -1
    outer loop
      vertex -12.4139 -32.1679 0
      vertex -0.5 -6.5 0
      vertex 26.0677 -33.0808 0
    endloop
  endfacet
  facet normal 0 0 -1
    outer loop
      vertex -12.4139 -32.1679 0
      vertex 26.0677 -33.0808 0
      vertex 26.0677 -35.0192 0
    endloop
  endfacet
  facet normal 0 0 -1
    outer loop
      vertex 26.9685 -31.3644 0
      vertex -0.5 -6.5 0
      vertex 28.5638 -30.2632 0
    endloop
  endfacet
  facet normal 0 0 -1
    outer loop
      vertex -12.4139 -32.1679 0
      vertex 26.0677 -35.0192 0
      vertex 26.9685 -36.7356 0
    endloop
  endfacet
  facet normal 0 0 -1
    outer loop
      vertex -12.4139 -32.1679 0
      vertex 26.9685 -36.7356 0
      vertex 28.5638 -37.8368 0
    endloop
  endfacet
  facet normal 0 0 -1
    outer loop
      vertex -12.4139 -32.1679 0
      vertex 28.5638 -37.8368 0
      vertex 41.075 -40.6 0
    endloop
  endfacet
  facet normal 0 0 -1
    outer loop
      vertex 28.5638 -37.8368 0
      vertex 30.4882 -38.0705 0
      vertex 41.075 -40.6 0
    endloop
  endfacet
  facet normal 0 0 -1
    outer loop
      vertex 33.5861 -35.9321 0
      vertex 41.075 -40.6 0
      vertex 32.3007 -37.3831 0
    endloop
  endfacet
  facet normal 0 0 -1
    outer loop
      vertex 26.0677 36.0192 0
      vertex -15.5118 31.0295 0
      vertex 26.9685 37.7356 0
    endloop
  endfacet
  facet normal 0 0 -1
    outer loop
      vertex 34.05 -34.05 0
      vertex 41.075 -40.6 0
      vertex 33.5861 -35.9321 0
    endloop
  endfacet
  facet normal 0 0 -1
    outer loop
      vertex 0.5 6.5 0
      vertex 33.5861 -32.1679 0
      vertex 32.3007 -30.7169 0
    endloop
  endfacet
  facet normal 0 0 -1
    outer loop
      vertex 33.5861 -32.1679 0
      vertex 41.075 -40.6 0
      vertex 34.05 -34.05 0
    endloop
  endfacet
  facet normal 0 0 -1
    outer loop
      vertex 0.5 6.5 0
      vertex 32.3007 -30.7169 0
      vertex 30.4882 -30.0295 0
    endloop
  endfacet
  facet normal 0 0 -1
    outer loop
      vertex -0.5 -6.5 0
      vertex 0.5 -6.5 0
      vertex 28.5638 -30.2632 0
    endloop
  endfacet
  facet normal 0 0 -1
    outer loop
      vertex 26.0677 -33.0808 0
      vertex -0.5 -6.5 0
      vertex 26.9685 -31.3644 0
    endloop
  endfacet
  facet normal 0 0 -1
    outer loop
      vertex 26.0677 34.0808 0
      vertex -15.5118 31.0295 0
      vertex 26.0677 36.0192 0
    endloop
  endfacet
  facet normal 0 0 -1
    outer loop
      vertex 26.9685 37.7356 0
      vertex -15.5118 31.0295 0
      vertex -13.6993 31.7169 0
    endloop
  endfacet
  facet normal 0 0 -1
    outer loop
      vertex 41.075 -40.6 0
      vertex -15.5118 31.0295 0
      vertex 26.0677 34.0808 0
    endloop
  endfacet
  facet normal 0 0 -1
    outer loop
      vertex 34.05 35.05 0
      vertex 41.075 40.6 0
      vertex 33.5861 33.1679 0
    endloop
  endfacet
  facet normal 0 0 -1
    outer loop
      vertex 41.075 -40.6 0
      vertex 26.9685 32.3644 0
      vertex 28.5638 31.2632 0
    endloop
  endfacet
  facet normal 0 0 -1
    outer loop
      vertex 41.075 -40.6 0
      vertex 28.5638 31.2632 0
      vertex 30.4882 31.0295 0
    endloop
  endfacet
  facet normal 0 0 -1
    outer loop
      vertex 41.075 -40.6 0
      vertex 30.4882 31.0295 0
      vertex 32.3007 31.7169 0
    endloop
  endfacet
  facet normal 0 0 -1
    outer loop
      vertex 41.075 -40.6 0
      vertex 32.3007 31.7169 0
      vertex 41.075 40.6 0
    endloop
  endfacet
  facet normal 0 0 -1
    outer loop
      vertex 32.3007 31.7169 0
      vertex 33.5861 33.1679 0
      vertex 41.075 40.6 0
    endloop
  endfacet
  facet normal 0 0 -1
    outer loop
      vertex 33.5861 36.9321 0
      vertex 41.075 40.6 0
      vertex 34.05 35.05 0
    endloop
  endfacet
  facet normal 0 0 -1
    outer loop
      vertex 32.3007 38.3831 0
      vertex 41.075 40.6 0
      vertex 33.5861 36.9321 0
    endloop
  endfacet
  facet normal 0 0 -1
    outer loop
      vertex 26.9685 32.3644 0
      vertex 41.075 -40.6 0
      vertex 26.0677 34.0808 0
    endloop
  endfacet
  facet normal 0 0 -1
    outer loop
      vertex 30.4882 39.0705 0
      vertex 41.075 40.6 0
      vertex 32.3007 38.3831 0
    endloop
  endfacet
  facet normal 0 0 -1
    outer loop
      vertex 26.9685 37.7356 0
      vertex -13.6993 31.7169 0
      vertex -12.4139 33.1679 0
    endloop
  endfacet
  facet normal 0 0 -1
    outer loop
      vertex 30.4882 39.0705 0
      vertex 28.5638 38.8368 0
      vertex 41.075 40.6 0
    endloop
  endfacet
  facet normal 0 0 -1
    outer loop
      vertex -13.6993 -37.3831 0
      vertex 41.075 -40.6 0
      vertex -15.5118 -38.0705 0
    endloop
  endfacet
  facet normal 0 1 0
    outer loop
      vertex -36.075 40.6 0
      vertex -36.075 40.6 5
      vertex 41.075 40.6 0
    endloop
  endfacet
  facet normal 0 1 0
    outer loop
      vertex 41.075 40.6 0
      vertex -36.075 40.6 5
      vertex 41.075 40.6 5
    endloop
  endfacet
  facet normal 0 0 1
    outer loop
      vertex -15.5118 -38.0705 5
      vertex -36.075 -40.6 5
      vertex 41.075 -40.6 5
    endloop
  endfacet
  facet normal 0 0 1
    outer loop
      vertex -9.5 16.4545 5
      vertex -17.4361 31.2632 5
      vertex -19.0315 32.3644 5
    endloop
  endfacet
  facet normal 0 0 1
    outer loop
      vertex -15.5118 -38.0705 5
      vertex -17.4361 -37.8368 5
      vertex -36.075 -40.6 5
    endloop
  endfacet
  facet normal 0 0 1
    outer loop
      vertex -36.075 40.6 5
      vertex -36.075 -40.6 5
      vertex -19.9323 -35.0192 5
    endloop
  endfacet
  facet normal 0 0 1
    outer loop
      vertex 34.05 -34.05 5
      vertex 33.5861 -35.9321 5
      vertex 41.075 -40.6 5
    endloop
  endfacet
  facet normal 0 0 1
    outer loop
      vertex -36.075 40.6 5
      vertex -19.9323 -35.0192 5
      vertex -19.9323 -33.0808 5
    endloop
  endfacet
  facet normal 0 0 1
    outer loop
      vertex -36.075 40.6 5
      vertex -19.9323 -33.0808 5
      vertex -19.0315 -31.3644 5
    endloop
  endfacet
  facet normal 0 0 1
    outer loop
      vertex -12.4139 -32.1679 5
      vertex -11.95 -34.05 5
      vertex 41.075 -40.6 5
    endloop
  endfacet
  facet normal 0 0 1
    outer loop
      vertex -36.075 40.6 5
      vertex -19.0315 -31.3644 5
      vertex -17.4361 -30.2632 5
    endloop
  endfacet
  facet normal 0 0 1
    outer loop
      vertex 28.5638 -37.8368 5
      vertex -15.5118 -30.0295 5
      vertex 41.075 -40.6 5
    endloop
  endfacet
  facet normal 0 0 1
    outer loop
      vertex -36.075 40.6 5
      vertex -17.4361 -30.2632 5
      vertex -15.5118 -30.0295 5
    endloop
  endfacet
  facet normal 0 0 1
    outer loop
      vertex -15.5118 -30.0295 5
      vertex -13.6993 -30.7169 5
      vertex 41.075 -40.6 5
    endloop
  endfacet
  facet normal 0 0 1
    outer loop
      vertex -12.4139 -35.9321 5
      vertex -13.6993 -37.3831 5
      vertex 41.075 -40.6 5
    endloop
  endfacet
  facet normal 0 0 1
    outer loop
      vertex -13.6993 -37.3831 5
      vertex -15.5118 -38.0705 5
      vertex 41.075 -40.6 5
    endloop
  endfacet
  facet normal 0 0 1
    outer loop
      vertex -17.4361 -37.8368 5
      vertex -19.0315 -36.7356 5
      vertex -36.075 -40.6 5
    endloop
  endfacet
  facet normal 0 0 1
    outer loop
      vertex -15.5118 39.0705 5
      vertex -13.6993 38.3831 5
      vertex 41.075 40.6 5
    endloop
  endfacet
  facet normal 0 0 1
    outer loop
      vertex -19.9323 -35.0192 5
      vertex -36.075 -40.6 5
      vertex -19.0315 -36.7356 5
    endloop
  endfacet
  facet normal 0 0 1
    outer loop
      vertex 33.5861 -35.9321 5
      vertex 32.3007 -37.3831 5
      vertex 41.075 -40.6 5
    endloop
  endfacet
  facet normal 0 0 1
    outer loop
      vertex -19.9323 36.0192 5
      vertex -36.075 40.6 5
      vertex -19.9323 34.0808 5
    endloop
  endfacet
  facet normal 0 0 1
    outer loop
      vertex -19.0315 37.7356 5
      vertex -36.075 40.6 5
      vertex -19.9323 36.0192 5
    endloop
  endfacet
  facet normal 0 0 1
    outer loop
      vertex -17.4361 38.8368 5
      vertex -36.075 40.6 5
      vertex -19.0315 37.7356 5
    endloop
  endfacet
  facet normal 0 0 1
    outer loop
      vertex -15.5118 39.0705 5
      vertex -36.075 40.6 5
      vertex -17.4361 38.8368 5
    endloop
  endfacet
  facet normal 0 0 1
    outer loop
      vertex -13.6993 38.3831 5
      vertex -12.4139 36.9321 5
      vertex 41.075 40.6 5
    endloop
  endfacet
  facet normal 0 0 1
    outer loop
      vertex 41.075 40.6 5
      vertex -36.075 40.6 5
      vertex -15.5118 39.0705 5
    endloop
  endfacet
  facet normal 0 0 1
    outer loop
      vertex -12.4139 36.9321 5
      vertex -11.95 35.05 5
      vertex 41.075 40.6 5
    endloop
  endfacet
  facet normal 0 0 1
    outer loop
      vertex -11.95 35.05 5
      vertex -12.4139 33.1679 5
      vertex 41.075 40.6 5
    endloop
  endfacet
  facet normal 0 0 1
    outer loop
      vertex -5.87132 18.0701 5
      vertex -13.6993 31.7169 5
      vertex -15.5118 31.0295 5
    endloop
  endfacet
  facet normal 0 0 1
    outer loop
      vertex 17.3574 7.728 5
      vertex 18.5848 3.95032 5
      vertex 41.075 -40.6 5
    endloop
  endfacet
  facet normal 0 0 1
    outer loop
      vertex 19 0 5
      vertex 18.5848 -3.95032 5
      vertex 41.075 -40.6 5
    endloop
  endfacet
  facet normal 0 0 1
    outer loop
      vertex 12.7135 -14.1198 5
      vertex 9.5 -16.4545 5
      vertex 28.5638 -30.2632 5
    endloop
  endfacet
  facet normal 0 0 1
    outer loop
      vertex -19.9323 34.0808 5
      vertex -36.075 40.6 5
      vertex -19.0315 32.3644 5
    endloop
  endfacet
  facet normal 0 0 1
    outer loop
      vertex 26.9685 -36.7356 5
      vertex 26.0677 -35.0192 5
      vertex -15.5118 -30.0295 5
    endloop
  endfacet
  facet normal 0 0 1
    outer loop
      vertex -36.075 40.6 5
      vertex -15.5118 -30.0295 5
      vertex -18.5848 -3.95032 5
    endloop
  endfacet
  facet normal 0 0 1
    outer loop
      vertex 28.5638 -30.2632 5
      vertex 30.4882 -30.0295 5
      vertex 12.7135 -14.1198 5
    endloop
  endfacet
  facet normal 0 0 1
    outer loop
      vertex -36.075 40.6 5
      vertex -18.5848 -3.95032 5
      vertex -19 0 5
    endloop
  endfacet
  facet normal 0 0 1
    outer loop
      vertex 26.0677 -33.0808 5
      vertex 5.87132 -18.0701 5
      vertex 1.98604 -18.8959 5
    endloop
  endfacet
  facet normal 0 0 1
    outer loop
      vertex -36.075 40.6 5
      vertex -19 0 5
      vertex -18.5848 3.95032 5
    endloop
  endfacet
  facet normal 0 0 1
    outer loop
      vertex -36.075 40.6 5
      vertex -18.5848 3.95032 5
      vertex -17.3574 7.728 5
    endloop
  endfacet
  facet normal 0 0 1
    outer loop
      vertex 9.5 -16.4545 5
      vertex 5.87132 -18.0701 5
      vertex 26.9685 -31.3644 5
    endloop
  endfacet
  facet normal 0 0 1
    outer loop
      vertex -36.075 40.6 5
      vertex -17.3574 7.728 5
      vertex -15.3713 11.1679 5
    endloop
  endfacet
  facet normal 0 0 1
    outer loop
      vertex -9.5 16.4545 5
      vertex -5.87132 18.0701 5
      vertex -17.4361 31.2632 5
    endloop
  endfacet
  facet normal 0 0 1
    outer loop
      vertex -36.075 40.6 5
      vertex -15.3713 11.1679 5
      vertex -12.7135 14.1198 5
    endloop
  endfacet
  facet normal 0 0 1
    outer loop
      vertex -19.0315 32.3644 5
      vertex -36.075 40.6 5
      vertex -9.5 16.4545 5
    endloop
  endfacet
  facet normal 0 0 1
    outer loop
      vertex -15.5118 31.0295 5
      vertex -17.4361 31.2632 5
      vertex -5.87132 18.0701 5
    endloop
  endfacet
  facet normal 0 0 1
    outer loop
      vertex 15.3713 -11.1679 5
      vertex 32.3007 -30.7169 5
      vertex 41.075 -40.6 5
    endloop
  endfacet
  facet normal 0 0 1
    outer loop
      vertex 26.0677 34.0808 5
      vertex -12.4139 33.1679 5
      vertex -1.98604 18.8959 5
    endloop
  endfacet
  facet normal 0 0 1
    outer loop
      vertex 32.3007 38.3831 5
      vertex 33.5861 36.9321 5
      vertex 41.075 40.6 5
    endloop
  endfacet
  facet normal 0 0 1
    outer loop
      vertex 18.5848 -3.95032 5
      vertex 17.3574 -7.728 5
      vertex 41.075 -40.6 5
    endloop
  endfacet
  facet normal 0 0 1
    outer loop
      vertex 26.9685 32.3644 5
      vertex 1.98604 18.8959 5
      vertex 5.87132 18.0701 5
    endloop
  endfacet
  facet normal 0 0 1
    outer loop
      vertex 17.3574 -7.728 5
      vertex 15.3713 -11.1679 5
      vertex 41.075 -40.6 5
    endloop
  endfacet
  facet normal 0 0 1
    outer loop
      vertex 28.5638 31.2632 5
      vertex 5.87132 18.0701 5
      vertex 9.5 16.4545 5
    endloop
  endfacet
  facet normal 0 0 1
    outer loop
      vertex 28.5638 31.2632 5
      vertex 26.9685 32.3644 5
      vertex 5.87132 18.0701 5
    endloop
  endfacet
  facet normal 0 0 1
    outer loop
      vertex 18.5848 3.95032 5
      vertex 19 0 5
      vertex 41.075 -40.6 5
    endloop
  endfacet
  facet normal 0 0 1
    outer loop
      vertex 32.3007 31.7169 5
      vertex 12.7135 14.1198 5
      vertex 15.3713 11.1679 5
    endloop
  endfacet
  facet normal 0 0 1
    outer loop
      vertex 41.075 40.6 5
      vertex 17.3574 7.728 5
      vertex 41.075 -40.6 5
    endloop
  endfacet
  facet normal 0 0 1
    outer loop
      vertex 41.075 40.6 5
      vertex 15.3713 11.1679 5
      vertex 17.3574 7.728 5
    endloop
  endfacet
  facet normal 0 0 1
    outer loop
      vertex -5.87132 18.0701 5
      vertex -12.4139 33.1679 5
      vertex -13.6993 31.7169 5
    endloop
  endfacet
  facet normal 0 0 1
    outer loop
      vertex -5.87132 18.0701 5
      vertex -1.98604 18.8959 5
      vertex -12.4139 33.1679 5
    endloop
  endfacet
  facet normal 0 0 1
    outer loop
      vertex -1.98604 -18.8959 5
      vertex -15.5118 -30.0295 5
      vertex 1.98604 -18.8959 5
    endloop
  endfacet
  facet normal 0 0 1
    outer loop
      vertex -5.87132 -18.0701 5
      vertex -15.5118 -30.0295 5
      vertex -1.98604 -18.8959 5
    endloop
  endfacet
  facet normal 0 0 1
    outer loop
      vertex -9.5 -16.4545 5
      vertex -15.5118 -30.0295 5
      vertex -5.87132 -18.0701 5
    endloop
  endfacet
  facet normal 0 0 1
    outer loop
      vertex -12.7135 -14.1198 5
      vertex -15.5118 -30.0295 5
      vertex -9.5 -16.4545 5
    endloop
  endfacet
  facet normal 0 0 1
    outer loop
      vertex -15.3713 -11.1679 5
      vertex -15.5118 -30.0295 5
      vertex -12.7135 -14.1198 5
    endloop
  endfacet
  facet normal 0 0 1
    outer loop
      vertex -17.3574 -7.728 5
      vertex -15.5118 -30.0295 5
      vertex -15.3713 -11.1679 5
    endloop
  endfacet
  facet normal 0 0 1
    outer loop
      vertex -18.5848 -3.95032 5
      vertex -15.5118 -30.0295 5
      vertex -17.3574 -7.728 5
    endloop
  endfacet
  facet normal 0 0 1
    outer loop
      vertex 28.5638 -37.8368 5
      vertex 26.9685 -36.7356 5
      vertex -15.5118 -30.0295 5
    endloop
  endfacet
  facet normal 0 0 1
    outer loop
      vertex 1.98604 -18.8959 5
      vertex -15.5118 -30.0295 5
      vertex 26.0677 -35.0192 5
    endloop
  endfacet
  facet normal 0 0 1
    outer loop
      vertex 33.5861 36.9321 5
      vertex 34.05 35.05 5
      vertex 41.075 40.6 5
    endloop
  endfacet
  facet normal 0 0 1
    outer loop
      vertex 1.98604 -18.8959 5
      vertex 26.0677 -35.0192 5
      vertex 26.0677 -33.0808 5
    endloop
  endfacet
  facet normal 0 0 1
    outer loop
      vertex 26.9685 32.3644 5
      vertex 26.0677 34.0808 5
      vertex -1.98604 18.8959 5
    endloop
  endfacet
  facet normal 0 0 1
    outer loop
      vertex 32.3007 -30.7169 5
      vertex 33.5861 -32.1679 5
      vertex 41.075 -40.6 5
    endloop
  endfacet
  facet normal 0 0 1
    outer loop
      vertex 33.5861 -32.1679 5
      vertex 34.05 -34.05 5
      vertex 41.075 -40.6 5
    endloop
  endfacet
  facet normal 0 0 1
    outer loop
      vertex 26.0677 -33.0808 5
      vertex 26.9685 -31.3644 5
      vertex 5.87132 -18.0701 5
    endloop
  endfacet
  facet normal 0 0 1
    outer loop
      vertex 26.9685 -31.3644 5
      vertex 28.5638 -30.2632 5
      vertex 9.5 -16.4545 5
    endloop
  endfacet
  facet normal 0 0 1
    outer loop
      vertex 32.3007 -37.3831 5
      vertex 30.4882 -38.0705 5
      vertex 41.075 -40.6 5
    endloop
  endfacet
  facet normal 0 0 1
    outer loop
      vertex 30.4882 -38.0705 5
      vertex 28.5638 -37.8368 5
      vertex 41.075 -40.6 5
    endloop
  endfacet
  facet normal 0 0 1
    outer loop
      vertex 26.9685 32.3644 5
      vertex -1.98604 18.8959 5
      vertex 1.98604 18.8959 5
    endloop
  endfacet
  facet normal 0 0 1
    outer loop
      vertex 26.0677 36.0192 5
      vertex -12.4139 33.1679 5
      vertex 26.0677 34.0808 5
    endloop
  endfacet
  facet normal 0 0 1
    outer loop
      vertex 26.9685 37.7356 5
      vertex -12.4139 33.1679 5
      vertex 26.0677 36.0192 5
    endloop
  endfacet
  facet normal 0 0 1
    outer loop
      vertex 28.5638 38.8368 5
      vertex -12.4139 33.1679 5
      vertex 26.9685 37.7356 5
    endloop
  endfacet
  facet normal 0 0 1
    outer loop
      vertex 41.075 40.6 5
      vertex -12.4139 33.1679 5
      vertex 28.5638 38.8368 5
    endloop
  endfacet
  facet normal 0 0 1
    outer loop
      vertex 41.075 40.6 5
      vertex 28.5638 38.8368 5
      vertex 30.4882 39.0705 5
    endloop
  endfacet
  facet normal 0 0 1
    outer loop
      vertex 30.4882 39.0705 5
      vertex 32.3007 38.3831 5
      vertex 41.075 40.6 5
    endloop
  endfacet
  facet normal 0 0 1
    outer loop
      vertex 41.075 40.6 5
      vertex 33.5861 33.1679 5
      vertex 15.3713 11.1679 5
    endloop
  endfacet
  facet normal 0 0 1
    outer loop
      vertex 33.5861 33.1679 5
      vertex 32.3007 31.7169 5
      vertex 15.3713 11.1679 5
    endloop
  endfacet
  facet normal 0 0 1
    outer loop
      vertex 30.4882 31.0295 5
      vertex 9.5 16.4545 5
      vertex 12.7135 14.1198 5
    endloop
  endfacet
  facet normal 0 0 1
    outer loop
      vertex 32.3007 31.7169 5
      vertex 30.4882 31.0295 5
      vertex 12.7135 14.1198 5
    endloop
  endfacet
  facet normal 0 0 1
    outer loop
      vertex 30.4882 31.0295 5
      vertex 28.5638 31.2632 5
      vertex 9.5 16.4545 5
    endloop
  endfacet
  facet normal 0 0 1
    outer loop
      vertex 34.05 35.05 5
      vertex 33.5861 33.1679 5
      vertex 41.075 40.6 5
    endloop
  endfacet
  facet normal 0 0 1
    outer loop
      vertex -13.6993 -30.7169 5
      vertex -12.4139 -32.1679 5
      vertex 41.075 -40.6 5
    endloop
  endfacet
  facet normal 0 0 1
    outer loop
      vertex -11.95 -34.05 5
      vertex -12.4139 -35.9321 5
      vertex 41.075 -40.6 5
    endloop
  endfacet
  facet normal 0 0 1
    outer loop
      vertex -12.7135 14.1198 5
      vertex -9.5 16.4545 5
      vertex -36.075 40.6 5
    endloop
  endfacet
  facet normal 0 0 1
    outer loop
      vertex 15.3713 -11.1679 5
      vertex 30.4882 -30.0295 5
      vertex 32.3007 -30.7169 5
    endloop
  endfacet
  facet normal 0 0 1
    outer loop
      vertex 15.3713 -11.1679 5
      vertex 12.7135 -14.1198 5
      vertex 30.4882 -30.0295 5
    endloop
  endfacet
  facet normal 1 0 0
    outer loop
      vertex 41.075 -40.6 5
      vertex 41.075 -40.6 0
      vertex 41.075 40.6 0
    endloop
  endfacet
  facet normal 1 0 0
    outer loop
      vertex 41.075 40.6 5
      vertex 41.075 -40.6 5
      vertex 41.075 40.6 0
    endloop
  endfacet
  facet normal 0.885456 -0.464723 0
    outer loop
      vertex -19.0315 -31.3644 0
      vertex -19.0315 -31.3644 5
      vertex -19.9323 -33.0808 5
    endloop
  endfacet
  facet normal 0.885456 -0.464723 0
    outer loop
      vertex -19.9323 -33.0808 0
      vertex -19.0315 -31.3644 0
      vertex -19.9323 -33.0808 5
    endloop
  endfacet
  facet normal 1 0 0
    outer loop
      vertex -19.9323 -33.0808 0
      vertex -19.9323 -33.0808 5
      vertex -19.9323 -35.0192 5
    endloop
  endfacet
  facet normal 1 0 0
    outer loop
      vertex -19.9323 -35.0192 0
      vertex -19.9323 -33.0808 0
      vertex -19.9323 -35.0192 5
    endloop
  endfacet
  facet normal 0.568065 -0.822984 0
    outer loop
      vertex -17.4361 -30.2632 0
      vertex -17.4361 -30.2632 5
      vertex -19.0315 -31.3644 5
    endloop
  endfacet
  facet normal 0.568065 -0.822984 0
    outer loop
      vertex -19.0315 -31.3644 0
      vertex -17.4361 -30.2632 0
      vertex -19.0315 -31.3644 5
    endloop
  endfacet
  facet normal 0.120537 -0.992709 0
    outer loop
      vertex -15.5118 -30.0295 0
      vertex -15.5118 -30.0295 5
      vertex -17.4361 -30.2632 5
    endloop
  endfacet
  facet normal 0.120537 -0.992709 0
    outer loop
      vertex -17.4361 -30.2632 0
      vertex -15.5118 -30.0295 0
      vertex -17.4361 -30.2632 5
    endloop
  endfacet
  facet normal -0.354605 -0.935016 0
    outer loop
      vertex -13.6993 -30.7169 0
      vertex -13.6993 -30.7169 5
      vertex -15.5118 -30.0295 5
    endloop
  endfacet
  facet normal -0.354605 -0.935016 0
    outer loop
      vertex -15.5118 -30.0295 0
      vertex -13.6993 -30.7169 0
      vertex -15.5118 -30.0295 5
    endloop
  endfacet
  facet normal -0.748511 -0.663123 0
    outer loop
      vertex -12.4139 -32.1679 5
      vertex -13.6993 -30.7169 5
      vertex -12.4139 -32.1679 0
    endloop
  endfacet
  facet normal -0.748511 -0.663123 0
    outer loop
      vertex -12.4139 -32.1679 0
      vertex -13.6993 -30.7169 5
      vertex -13.6993 -30.7169 0
    endloop
  endfacet
  facet normal -0.970942 -0.239316 0
    outer loop
      vertex -11.95 -34.05 5
      vertex -12.4139 -32.1679 5
      vertex -11.95 -34.05 0
    endloop
  endfacet
  facet normal -0.970942 -0.239316 0
    outer loop
      vertex -11.95 -34.05 0
      vertex -12.4139 -32.1679 5
      vertex -12.4139 -32.1679 0
    endloop
  endfacet
  facet normal -0.970942 0.239316 0
    outer loop
      vertex -11.95 -34.05 5
      vertex -11.95 -34.05 0
      vertex -12.4139 -35.9321 5
    endloop
  endfacet
  facet normal -0.970942 0.239316 0
    outer loop
      vertex -12.4139 -35.9321 5
      vertex -11.95 -34.05 0
      vertex -12.4139 -35.9321 0
    endloop
  endfacet
  facet normal -0.748511 0.663123 0
    outer loop
      vertex -12.4139 -35.9321 5
      vertex -12.4139 -35.9321 0
      vertex -13.6993 -37.3831 5
    endloop
  endfacet
  facet normal -0.748511 0.663123 0
    outer loop
      vertex -13.6993 -37.3831 5
      vertex -12.4139 -35.9321 0
      vertex -13.6993 -37.3831 0
    endloop
  endfacet
  facet normal -0.354605 0.935016 0
    outer loop
      vertex -13.6993 -37.3831 5
      vertex -13.6993 -37.3831 0
      vertex -15.5118 -38.0705 5
    endloop
  endfacet
  facet normal -0.354605 0.935016 0
    outer loop
      vertex -15.5118 -38.0705 5
      vertex -13.6993 -37.3831 0
      vertex -15.5118 -38.0705 0
    endloop
  endfacet
  facet normal 0.120537 0.992709 0
    outer loop
      vertex -15.5118 -38.0705 5
      vertex -15.5118 -38.0705 0
      vertex -17.4361 -37.8368 5
    endloop
  endfacet
  facet normal 0.120537 0.992709 0
    outer loop
      vertex -17.4361 -37.8368 5
      vertex -15.5118 -38.0705 0
      vertex -17.4361 -37.8368 0
    endloop
  endfacet
  facet normal 0.568065 0.822984 0
    outer loop
      vertex -17.4361 -37.8368 5
      vertex -17.4361 -37.8368 0
      vertex -19.0315 -36.7356 5
    endloop
  endfacet
  facet normal 0.568065 0.822984 0
    outer loop
      vertex -19.0315 -36.7356 5
      vertex -17.4361 -37.8368 0
      vertex -19.0315 -36.7356 0
    endloop
  endfacet
  facet normal 0.885456 0.464723 0
    outer loop
      vertex -19.9323 -35.0192 5
      vertex -19.0315 -36.7356 5
      vertex -19.0315 -36.7356 0
    endloop
  endfacet
  facet normal 0.885456 0.464723 0
    outer loop
      vertex -19.9323 -35.0192 0
      vertex -19.9323 -35.0192 5
      vertex -19.0315 -36.7356 0
    endloop
  endfacet
  facet normal 0.885456 -0.464723 0
    outer loop
      vertex -19.0315 37.7356 0
      vertex -19.0315 37.7356 5
      vertex -19.9323 36.0192 5
    endloop
  endfacet
  facet normal 0.885456 -0.464723 0
    outer loop
      vertex -19.9323 36.0192 0
      vertex -19.0315 37.7356 0
      vertex -19.9323 36.0192 5
    endloop
  endfacet
  facet normal 1 0 0
    outer loop
      vertex -19.9323 36.0192 0
      vertex -19.9323 36.0192 5
      vertex -19.9323 34.0808 5
    endloop
  endfacet
  facet normal 1 0 0
    outer loop
      vertex -19.9323 34.0808 0
      vertex -19.9323 36.0192 0
      vertex -19.9323 34.0808 5
    endloop
  endfacet
  facet normal 0.568065 -0.822984 0
    outer loop
      vertex -17.4361 38.8368 0
      vertex -17.4361 38.8368 5
      vertex -19.0315 37.7356 5
    endloop
  endfacet
  facet normal 0.568065 -0.822984 0
    outer loop
      vertex -19.0315 37.7356 0
      vertex -17.4361 38.8368 0
      vertex -19.0315 37.7356 5
    endloop
  endfacet
  facet normal 0.120537 -0.992709 0
    outer loop
      vertex -15.5118 39.0705 0
      vertex -15.5118 39.0705 5
      vertex -17.4361 38.8368 5
    endloop
  endfacet
  facet normal 0.120537 -0.992709 0
    outer loop
      vertex -17.4361 38.8368 0
      vertex -15.5118 39.0705 0
      vertex -17.4361 38.8368 5
    endloop
  endfacet
  facet normal -0.354605 -0.935016 0
    outer loop
      vertex -13.6993 38.3831 0
      vertex -13.6993 38.3831 5
      vertex -15.5118 39.0705 5
    endloop
  endfacet
  facet normal -0.354605 -0.935016 0
    outer loop
      vertex -15.5118 39.0705 0
      vertex -13.6993 38.3831 0
      vertex -15.5118 39.0705 5
    endloop
  endfacet
  facet normal -0.748511 -0.663123 0
    outer loop
      vertex -12.4139 36.9321 5
      vertex -13.6993 38.3831 5
      vertex -12.4139 36.9321 0
    endloop
  endfacet
  facet normal -0.748511 -0.663123 0
    outer loop
      vertex -12.4139 36.9321 0
      vertex -13.6993 38.3831 5
      vertex -13.6993 38.3831 0
    endloop
  endfacet
  facet normal -0.970942 -0.239316 0
    outer loop
      vertex -11.95 35.05 5
      vertex -12.4139 36.9321 5
      vertex -11.95 35.05 0
    endloop
  endfacet
  facet normal -0.970942 -0.239316 0
    outer loop
      vertex -11.95 35.05 0
      vertex -12.4139 36.9321 5
      vertex -12.4139 36.9321 0
    endloop
  endfacet
  facet normal -0.970942 0.239316 0
    outer loop
      vertex -11.95 35.05 5
      vertex -11.95 35.05 0
      vertex -12.4139 33.1679 5
    endloop
  endfacet
  facet normal -0.970942 0.239316 0
    outer loop
      vertex -12.4139 33.1679 5
      vertex -11.95 35.05 0
      vertex -12.4139 33.1679 0
    endloop
  endfacet
  facet normal -0.748511 0.663123 0
    outer loop
      vertex -12.4139 33.1679 5
      vertex -12.4139 33.1679 0
      vertex -13.6993 31.7169 5
    endloop
  endfacet
  facet normal -0.748511 0.663123 0
    outer loop
      vertex -13.6993 31.7169 5
      vertex -12.4139 33.1679 0
      vertex -13.6993 31.7169 0
    endloop
  endfacet
  facet normal -0.354605 0.935016 0
    outer loop
      vertex -13.6993 31.7169 5
      vertex -13.6993 31.7169 0
      vertex -15.5118 31.0295 5
    endloop
  endfacet
  facet normal -0.354605 0.935016 0
    outer loop
      vertex -15.5118 31.0295 5
      vertex -13.6993 31.7169 0
      vertex -15.5118 31.0295 0
    endloop
  endfacet
  facet normal 0.120537 0.992709 0
    outer loop
      vertex -15.5118 31.0295 5
      vertex -15.5118 31.0295 0
      vertex -17.4361 31.2632 5
    endloop
  endfacet
  facet normal 0.120537 0.992709 0
    outer loop
      vertex -17.4361 31.2632 5
      vertex -15.5118 31.0295 0
      vertex -17.4361 31.2632 0
    endloop
  endfacet
  facet normal 0.568065 0.822984 0
    outer loop
      vertex -17.4361 31.2632 5
      vertex -17.4361 31.2632 0
      vertex -19.0315 32.3644 5
    endloop
  endfacet
  facet normal 0.568065 0.822984 0
    outer loop
      vertex -19.0315 32.3644 5
      vertex -17.4361 31.2632 0
      vertex -19.0315 32.3644 0
    endloop
  endfacet
  facet normal 0.885456 0.464723 0
    outer loop
      vertex -19.9323 34.0808 5
      vertex -19.0315 32.3644 5
      vertex -19.0315 32.3644 0
    endloop
  endfacet
  facet normal 0.885456 0.464723 0
    outer loop
      vertex -19.9323 34.0808 0
      vertex -19.9323 34.0808 5
      vertex -19.0315 32.3644 0
    endloop
  endfacet
  facet normal 1 0 0
    outer loop
      vertex -0.5 6.5 0
      vertex -0.5 6.5 1.5
      vertex -0.5 -6.5 1.5
    endloop
  endfacet
  facet normal 1 0 0
    outer loop
      vertex -0.5 -6.5 0
      vertex -0.5 6.5 0
      vertex -0.5 -6.5 1.5
    endloop
  endfacet
  facet normal 0 -1 0
    outer loop
      vertex 0.5 6.5 0
      vertex 0.5 6.5 1.5
      vertex -0.5 6.5 1.5
    endloop
  endfacet
  facet normal 0 -1 0
    outer loop
      vertex -0.5 6.5 0
      vertex 0.5 6.5 0
      vertex -0.5 6.5 1.5
    endloop
  endfacet
  facet normal -1 0 0
    outer loop
      vertex 0.5 6.5 1.5
      vertex 0.5 6.5 0
      vertex 0.5 -6.5 1.5
    endloop
  endfacet
  facet normal -1 0 0
    outer loop
      vertex 0.5 -6.5 1.5
      vertex 0.5 6.5 0
      vertex 0.5 -6.5 0
    endloop
  endfacet
  facet normal 0 1 0
    outer loop
      vertex 0.5 -6.5 1.5
      vertex 0.5 -6.5 0
      vertex -0.5 -6.5 1.5
    endloop
  endfacet
  facet normal 0 1 0
    outer loop
      vertex -0.5 -6.5 1.5
      vertex 0.5 -6.5 0
      vertex -0.5 -6.5 0
    endloop
  endfacet
  facet normal 0.885456 -0.464723 0
    outer loop
      vertex 26.9685 -31.3644 0
      vertex 26.9685 -31.3644 5
      vertex 26.0677 -33.0808 5
    endloop
  endfacet
  facet normal 0.885456 -0.464723 0
    outer loop
      vertex 26.0677 -33.0808 0
      vertex 26.9685 -31.3644 0
      vertex 26.0677 -33.0808 5
    endloop
  endfacet
  facet normal 1 0 0
    outer loop
      vertex 26.0677 -33.0808 0
      vertex 26.0677 -33.0808 5
      vertex 26.0677 -35.0192 5
    endloop
  endfacet
  facet normal 1 0 0
    outer loop
      vertex 26.0677 -35.0192 0
      vertex 26.0677 -33.0808 0
      vertex 26.0677 -35.0192 5
    endloop
  endfacet
  facet normal 0.568065 -0.822984 0
    outer loop
      vertex 28.5638 -30.2632 0
      vertex 28.5638 -30.2632 5
      vertex 26.9685 -31.3644 5
    endloop
  endfacet
  facet normal 0.568065 -0.822984 0
    outer loop
      vertex 26.9685 -31.3644 0
      vertex 28.5638 -30.2632 0
      vertex 26.9685 -31.3644 5
    endloop
  endfacet
  facet normal 0.120537 -0.992709 0
    outer loop
      vertex 30.4882 -30.0295 0
      vertex 30.4882 -30.0295 5
      vertex 28.5638 -30.2632 5
    endloop
  endfacet
  facet normal 0.120537 -0.992709 0
    outer loop
      vertex 28.5638 -30.2632 0
      vertex 30.4882 -30.0295 0
      vertex 28.5638 -30.2632 5
    endloop
  endfacet
  facet normal -0.354605 -0.935016 0
    outer loop
      vertex 32.3007 -30.7169 0
      vertex 32.3007 -30.7169 5
      vertex 30.4882 -30.0295 5
    endloop
  endfacet
  facet normal -0.354605 -0.935016 0
    outer loop
      vertex 30.4882 -30.0295 0
      vertex 32.3007 -30.7169 0
      vertex 30.4882 -30.0295 5
    endloop
  endfacet
  facet normal -0.748511 -0.663123 0
    outer loop
      vertex 33.5861 -32.1679 5
      vertex 32.3007 -30.7169 5
      vertex 33.5861 -32.1679 0
    endloop
  endfacet
  facet normal -0.748511 -0.663123 0
    outer loop
      vertex 33.5861 -32.1679 0
      vertex 32.3007 -30.7169 5
      vertex 32.3007 -30.7169 0
    endloop
  endfacet
  facet normal -0.970942 -0.239316 0
    outer loop
      vertex 34.05 -34.05 5
      vertex 33.5861 -32.1679 5
      vertex 34.05 -34.05 0
    endloop
  endfacet
  facet normal -0.970942 -0.239316 0
    outer loop
      vertex 34.05 -34.05 0
      vertex 33.5861 -32.1679 5
      vertex 33.5861 -32.1679 0
    endloop
  endfacet
  facet normal -0.970942 0.239316 0
    outer loop
      vertex 34.05 -34.05 5
      vertex 34.05 -34.05 0
      vertex 33.5861 -35.9321 5
    endloop
  endfacet
  facet normal -0.970942 0.239316 0
    outer loop
      vertex 33.5861 -35.9321 5
      vertex 34.05 -34.05 0
      vertex 33.5861 -35.9321 0
    endloop
  endfacet
  facet normal -0.748511 0.663123 0
    outer loop
      vertex 33.5861 -35.9321 5
      vertex 33.5861 -35.9321 0
      vertex 32.3007 -37.3831 5
    endloop
  endfacet
  facet normal -0.748511 0.663123 0
    outer loop
      vertex 32.3007 -37.3831 5
      vertex 33.5861 -35.9321 0
      vertex 32.3007 -37.3831 0
    endloop
  endfacet
  facet normal -0.354605 0.935016 0
    outer loop
      vertex 32.3007 -37.3831 5
      vertex 32.3007 -37.3831 0
      vertex 30.4882 -38.0705 5
    endloop
  endfacet
  facet normal -0.354605 0.935016 0
    outer loop
      vertex 30.4882 -38.0705 5
      vertex 32.3007 -37.3831 0
      vertex 30.4882 -38.0705 0
    endloop
  endfacet
  facet normal 0.120537 0.992709 0
    outer loop
      vertex 30.4882 -38.0705 5
      vertex 30.4882 -38.0705 0
      vertex 28.5638 -37.8368 5
    endloop
  endfacet
  facet normal 0.120537 0.992709 0
    outer loop
      vertex 28.5638 -37.8368 5
      vertex 30.4882 -38.0705 0
      vertex 28.5638 -37.8368 0
    endloop
  endfacet
  facet normal 0.568065 0.822984 0
    outer loop
      vertex 28.5638 -37.8368 5
      vertex 28.5638 -37.8368 0
      vertex 26.9685 -36.7356 5
    endloop
  endfacet
  facet normal 0.568065 0.822984 0
    outer loop
      vertex 26.9685 -36.7356 5
      vertex 28.5638 -37.8368 0
      vertex 26.9685 -36.7356 0
    endloop
  endfacet
  facet normal 0.885456 0.464723 0
    outer loop
      vertex 26.0677 -35.0192 5
      vertex 26.9685 -36.7356 5
      vertex 26.9685 -36.7356 0
    endloop
  endfacet
  facet normal 0.885456 0.464723 0
    outer loop
      vertex 26.0677 -35.0192 0
      vertex 26.0677 -35.0192 5
      vertex 26.9685 -36.7356 0
    endloop
  endfacet
  facet normal 0.885456 -0.464723 0
    outer loop
      vertex 26.9685 37.7356 0
      vertex 26.9685 37.7356 5
      vertex 26.0677 36.0192 5
    endloop
  endfacet
  facet normal 0.885456 -0.464723 0
    outer loop
      vertex 26.0677 36.0192 0
      vertex 26.9685 37.7356 0
      vertex 26.0677 36.0192 5
    endloop
  endfacet
  facet normal 1 0 0
    outer loop
      vertex 26.0677 36.0192 0
      vertex 26.0677 36.0192 5
      vertex 26.0677 34.0808 5
    endloop
  endfacet
  facet normal 1 0 0
    outer loop
      vertex 26.0677 34.0808 0
      vertex 26.0677 36.0192 0
      vertex 26.0677 34.0808 5
    endloop
  endfacet
  facet normal 0.568065 -0.822984 0
    outer loop
      vertex 28.5638 38.8368 0
      vertex 28.5638 38.8368 5
      vertex 26.9685 37.7356 5
    endloop
  endfacet
  facet normal 0.568065 -0.822984 0
    outer loop
      vertex 26.9685 37.7356 0
      vertex 28.5638 38.8368 0
      vertex 26.9685 37.7356 5
    endloop
  endfacet
  facet normal 0.120537 -0.992709 0
    outer loop
      vertex 30.4882 39.0705 0
      vertex 30.4882 39.0705 5
      vertex 28.5638 38.8368 5
    endloop
  endfacet
  facet normal 0.120537 -0.992709 0
    outer loop
      vertex 28.5638 38.8368 0
      vertex 30.4882 39.0705 0
      vertex 28.5638 38.8368 5
    endloop
  endfacet
  facet normal -0.354605 -0.935016 0
    outer loop
      vertex 32.3007 38.3831 0
      vertex 32.3007 38.3831 5
      vertex 30.4882 39.0705 5
    endloop
  endfacet
  facet normal -0.354605 -0.935016 0
    outer loop
      vertex 30.4882 39.0705 0
      vertex 32.3007 38.3831 0
      vertex 30.4882 39.0705 5
    endloop
  endfacet
  facet normal -0.748511 -0.663123 0
    outer loop
      vertex 33.5861 36.9321 5
      vertex 32.3007 38.3831 5
      vertex 33.5861 36.9321 0
    endloop
  endfacet
  facet normal -0.748511 -0.663123 0
    outer loop
      vertex 33.5861 36.9321 0
      vertex 32.3007 38.3831 5
      vertex 32.3007 38.3831 0
    endloop
  endfacet
  facet normal -0.970942 -0.239316 0
    outer loop
      vertex 34.05 35.05 5
      vertex 33.5861 36.9321 5
      vertex 34.05 35.05 0
    endloop
  endfacet
  facet normal -0.970942 -0.239316 0
    outer loop
      vertex 34.05 35.05 0
      vertex 33.5861 36.9321 5
      vertex 33.5861 36.9321 0
    endloop
  endfacet
  facet normal -0.970942 0.239316 0
    outer loop
      vertex 34.05 35.05 5
      vertex 34.05 35.05 0
      vertex 33.5861 33.1679 5
    endloop
  endfacet
  facet normal -0.970942 0.239316 0
    outer loop
      vertex 33.5861 33.1679 5
      vertex 34.05 35.05 0
      vertex 33.5861 33.1679 0
    endloop
  endfacet
  facet normal -0.748511 0.663123 0
    outer loop
      vertex 33.5861 33.1679 5
      vertex 33.5861 33.1679 0
      vertex 32.3007 31.7169 5
    endloop
  endfacet
  facet normal -0.748511 0.663123 0
    outer loop
      vertex 32.3007 31.7169 5
      vertex 33.5861 33.1679 0
      vertex 32.3007 31.7169 0
    endloop
  endfacet
  facet normal -0.354605 0.935016 0
    outer loop
      vertex 32.3007 31.7169 5
      vertex 32.3007 31.7169 0
      vertex 30.4882 31.0295 5
    endloop
  endfacet
  facet normal -0.354605 0.935016 0
    outer loop
      vertex 30.4882 31.0295 5
      vertex 32.3007 31.7169 0
      vertex 30.4882 31.0295 0
    endloop
  endfacet
  facet normal 0.120537 0.992709 0
    outer loop
      vertex 30.4882 31.0295 5
      vertex 30.4882 31.0295 0
      vertex 28.5638 31.2632 5
    endloop
  endfacet
  facet normal 0.120537 0.992709 0
    outer loop
      vertex 28.5638 31.2632 5
      vertex 30.4882 31.0295 0
      vertex 28.5638 31.2632 0
    endloop
  endfacet
  facet normal 0.568065 0.822984 0
    outer loop
      vertex 28.5638 31.2632 5
      vertex 28.5638 31.2632 0
      vertex 26.9685 32.3644 5
    endloop
  endfacet
  facet normal 0.568065 0.822984 0
    outer loop
      vertex 26.9685 32.3644 5
      vertex 28.5638 31.2632 0
      vertex 26.9685 32.3644 0
    endloop
  endfacet
  facet normal 0.885456 0.464723 0
    outer loop
      vertex 26.0677 34.0808 5
      vertex 26.9685 32.3644 5
      vertex 26.9685 32.3644 0
    endloop
  endfacet
  facet normal 0.885456 0.464723 0
    outer loop
      vertex 26.0677 34.0808 0
      vertex 26.0677 34.0808 5
      vertex 26.9685 32.3644 0
    endloop
  endfacet
  facet normal -0.994522 -0.104529 0
    outer loop
      vertex -19 0 5
      vertex -18.5848 -3.95032 5
      vertex -19 0 11
    endloop
  endfacet
  facet normal -0.994522 -0.104529 0
    outer loop
      vertex -19 0 11
      vertex -18.5848 -3.95032 5
      vertex -18.5848 -3.95032 11
    endloop
  endfacet
  facet normal -0.951057 -0.309017 0
    outer loop
      vertex -18.5848 -3.95032 5
      vertex -17.3574 -7.728 5
      vertex -18.5848 -3.95032 11
    endloop
  endfacet
  facet normal -0.951057 -0.309017 0
    outer loop
      vertex -18.5848 -3.95032 11
      vertex -17.3574 -7.728 5
      vertex -17.3574 -7.728 11
    endloop
  endfacet
  facet normal -0.866025 -0.5 0
    outer loop
      vertex -17.3574 -7.728 5
      vertex -15.3713 -11.1679 5
      vertex -17.3574 -7.728 11
    endloop
  endfacet
  facet normal -0.866025 -0.5 0
    outer loop
      vertex -17.3574 -7.728 11
      vertex -15.3713 -11.1679 5
      vertex -15.3713 -11.1679 11
    endloop
  endfacet
  facet normal -0.743145 -0.669131 0
    outer loop
      vertex -15.3713 -11.1679 5
      vertex -12.7135 -14.1198 5
      vertex -15.3713 -11.1679 11
    endloop
  endfacet
  facet normal -0.743145 -0.669131 0
    outer loop
      vertex -15.3713 -11.1679 11
      vertex -12.7135 -14.1198 5
      vertex -12.7135 -14.1198 11
    endloop
  endfacet
  facet normal -0.587785 -0.809017 0
    outer loop
      vertex -12.7135 -14.1198 11
      vertex -12.7135 -14.1198 5
      vertex -9.5 -16.4545 5
    endloop
  endfacet
  facet normal -0.587785 -0.809017 0
    outer loop
      vertex -9.5 -16.4545 11
      vertex -12.7135 -14.1198 11
      vertex -9.5 -16.4545 5
    endloop
  endfacet
  facet normal -0.406737 -0.913545 0
    outer loop
      vertex -9.5 -16.4545 11
      vertex -9.5 -16.4545 5
      vertex -5.87132 -18.0701 5
    endloop
  endfacet
  facet normal -0.406737 -0.913545 0
    outer loop
      vertex -5.87132 -18.0701 11
      vertex -9.5 -16.4545 11
      vertex -5.87132 -18.0701 5
    endloop
  endfacet
  facet normal -0.207912 -0.978148 0
    outer loop
      vertex -5.87132 -18.0701 11
      vertex -5.87132 -18.0701 5
      vertex -1.98604 -18.8959 5
    endloop
  endfacet
  facet normal -0.207912 -0.978148 0
    outer loop
      vertex -1.98604 -18.8959 11
      vertex -5.87132 -18.0701 11
      vertex -1.98604 -18.8959 5
    endloop
  endfacet
  facet normal 0 -1 0
    outer loop
      vertex -1.98604 -18.8959 11
      vertex -1.98604 -18.8959 5
      vertex 1.98604 -18.8959 5
    endloop
  endfacet
  facet normal 0 -1 0
    outer loop
      vertex 1.98604 -18.8959 11
      vertex -1.98604 -18.8959 11
      vertex 1.98604 -18.8959 5
    endloop
  endfacet
  facet normal 0.207912 -0.978148 0
    outer loop
      vertex 1.98604 -18.8959 11
      vertex 1.98604 -18.8959 5
      vertex 5.87132 -18.0701 5
    endloop
  endfacet
  facet normal 0.207912 -0.978148 0
    outer loop
      vertex 5.87132 -18.0701 11
      vertex 1.98604 -18.8959 11
      vertex 5.87132 -18.0701 5
    endloop
  endfacet
  facet normal 0.406737 -0.913545 0
    outer loop
      vertex 5.87132 -18.0701 11
      vertex 5.87132 -18.0701 5
      vertex 9.5 -16.4545 5
    endloop
  endfacet
  facet normal 0.406737 -0.913545 0
    outer loop
      vertex 9.5 -16.4545 11
      vertex 5.87132 -18.0701 11
      vertex 9.5 -16.4545 5
    endloop
  endfacet
  facet normal 0.587785 -0.809017 0
    outer loop
      vertex 9.5 -16.4545 11
      vertex 9.5 -16.4545 5
      vertex 12.7135 -14.1198 5
    endloop
  endfacet
  facet normal 0.587785 -0.809017 0
    outer loop
      vertex 12.7135 -14.1198 11
      vertex 9.5 -16.4545 11
      vertex 12.7135 -14.1198 5
    endloop
  endfacet
  facet normal 0.743145 -0.669131 0
    outer loop
      vertex 12.7135 -14.1198 11
      vertex 12.7135 -14.1198 5
      vertex 15.3713 -11.1679 5
    endloop
  endfacet
  facet normal 0.743145 -0.669131 0
    outer loop
      vertex 15.3713 -11.1679 11
      vertex 12.7135 -14.1198 11
      vertex 15.3713 -11.1679 5
    endloop
  endfacet
  facet normal 0.866025 -0.5 0
    outer loop
      vertex 15.3713 -11.1679 11
      vertex 15.3713 -11.1679 5
      vertex 17.3574 -7.728 5
    endloop
  endfacet
  facet normal 0.866025 -0.5 0
    outer loop
      vertex 17.3574 -7.728 11
      vertex 15.3713 -11.1679 11
      vertex 17.3574 -7.728 5
    endloop
  endfacet
  facet normal 0.951057 -0.309017 0
    outer loop
      vertex 17.3574 -7.728 11
      vertex 17.3574 -7.728 5
      vertex 18.5848 -3.95032 5
    endloop
  endfacet
  facet normal 0.951057 -0.309017 0
    outer loop
      vertex 18.5848 -3.95032 11
      vertex 17.3574 -7.728 11
      vertex 18.5848 -3.95032 5
    endloop
  endfacet
  facet normal 0.994522 -0.104529 0
    outer loop
      vertex 18.5848 -3.95032 11
      vertex 18.5848 -3.95032 5
      vertex 19 0 5
    endloop
  endfacet
  facet normal 0.994522 -0.104529 0
    outer loop
      vertex 19 0 11
      vertex 18.5848 -3.95032 11
      vertex 19 0 5
    endloop
  endfacet
  facet normal 0.994522 0.104529 0
    outer loop
      vertex 19 0 5
      vertex 18.5848 3.95032 5
      vertex 18.5848 3.95032 11
    endloop
  endfacet
  facet normal 0.994522 0.104529 0
    outer loop
      vertex 19 0 11
      vertex 19 0 5
      vertex 18.5848 3.95032 11
    endloop
  endfacet
  facet normal 0.951057 0.309017 0
    outer loop
      vertex 18.5848 3.95032 5
      vertex 17.3574 7.728 5
      vertex 17.3574 7.728 11
    endloop
  endfacet
  facet normal 0.951057 0.309017 0
    outer loop
      vertex 18.5848 3.95032 11
      vertex 18.5848 3.95032 5
      vertex 17.3574 7.728 11
    endloop
  endfacet
  facet normal 0.866025 0.5 0
    outer loop
      vertex 17.3574 7.728 5
      vertex 15.3713 11.1679 5
      vertex 15.3713 11.1679 11
    endloop
  endfacet
  facet normal 0.866025 0.5 0
    outer loop
      vertex 17.3574 7.728 11
      vertex 17.3574 7.728 5
      vertex 15.3713 11.1679 11
    endloop
  endfacet
  facet normal 0.743145 0.669131 0
    outer loop
      vertex 15.3713 11.1679 5
      vertex 12.7135 14.1198 5
      vertex 12.7135 14.1198 11
    endloop
  endfacet
  facet normal 0.743145 0.669131 0
    outer loop
      vertex 15.3713 11.1679 11
      vertex 15.3713 11.1679 5
      vertex 12.7135 14.1198 11
    endloop
  endfacet
  facet normal 0.587785 0.809017 0
    outer loop
      vertex 9.5 16.4545 5
      vertex 9.5 16.4545 11
      vertex 12.7135 14.1198 5
    endloop
  endfacet
  facet normal 0.587785 0.809017 0
    outer loop
      vertex 12.7135 14.1198 5
      vertex 9.5 16.4545 11
      vertex 12.7135 14.1198 11
    endloop
  endfacet
  facet normal 0.406737 0.913545 0
    outer loop
      vertex 5.87132 18.0701 5
      vertex 5.87132 18.0701 11
      vertex 9.5 16.4545 5
    endloop
  endfacet
  facet normal 0.406737 0.913545 0
    outer loop
      vertex 9.5 16.4545 5
      vertex 5.87132 18.0701 11
      vertex 9.5 16.4545 11
    endloop
  endfacet
  facet normal 0.207912 0.978148 0
    outer loop
      vertex 1.98604 18.8959 5
      vertex 1.98604 18.8959 11
      vertex 5.87132 18.0701 5
    endloop
  endfacet
  facet normal 0.207912 0.978148 0
    outer loop
      vertex 5.87132 18.0701 5
      vertex 1.98604 18.8959 11
      vertex 5.87132 18.0701 11
    endloop
  endfacet
  facet normal 0 1 0
    outer loop
      vertex -1.98604 18.8959 5
      vertex -1.98604 18.8959 11
      vertex 1.98604 18.8959 5
    endloop
  endfacet
  facet normal 0 1 0
    outer loop
      vertex 1.98604 18.8959 5
      vertex -1.98604 18.8959 11
      vertex 1.98604 18.8959 11
    endloop
  endfacet
  facet normal -0.207912 0.978148 0
    outer loop
      vertex -5.87132 18.0701 5
      vertex -5.87132 18.0701 11
      vertex -1.98604 18.8959 5
    endloop
  endfacet
  facet normal -0.207912 0.978148 0
    outer loop
      vertex -1.98604 18.8959 5
      vertex -5.87132 18.0701 11
      vertex -1.98604 18.8959 11
    endloop
  endfacet
  facet normal -0.406737 0.913545 0
    outer loop
      vertex -9.5 16.4545 5
      vertex -9.5 16.4545 11
      vertex -5.87132 18.0701 5
    endloop
  endfacet
  facet normal -0.406737 0.913545 0
    outer loop
      vertex -5.87132 18.0701 5
      vertex -9.5 16.4545 11
      vertex -5.87132 18.0701 11
    endloop
  endfacet
  facet normal -0.587785 0.809017 0
    outer loop
      vertex -12.7135 14.1198 5
      vertex -12.7135 14.1198 11
      vertex -9.5 16.4545 5
    endloop
  endfacet
  facet normal -0.587785 0.809017 0
    outer loop
      vertex -9.5 16.4545 5
      vertex -12.7135 14.1198 11
      vertex -9.5 16.4545 11
    endloop
  endfacet
  facet normal -0.743145 0.669131 0
    outer loop
      vertex -15.3713 11.1679 5
      vertex -15.3713 11.1679 11
      vertex -12.7135 14.1198 5
    endloop
  endfacet
  facet normal -0.743145 0.669131 0
    outer loop
      vertex -12.7135 14.1198 5
      vertex -15.3713 11.1679 11
      vertex -12.7135 14.1198 11
    endloop
  endfacet
  facet normal -0.866025 0.5 0
    outer loop
      vertex -17.3574 7.728 5
      vertex -17.3574 7.728 11
      vertex -15.3713 11.1679 5
    endloop
  endfacet
  facet normal -0.866025 0.5 0
    outer loop
      vertex -15.3713 11.1679 5
      vertex -17.3574 7.728 11
      vertex -15.3713 11.1679 11
    endloop
  endfacet
  facet normal -0.951057 0.309017 0
    outer loop
      vertex -18.5848 3.95032 5
      vertex -18.5848 3.95032 11
      vertex -17.3574 7.728 5
    endloop
  endfacet
  facet normal -0.951057 0.309017 0
    outer loop
      vertex -17.3574 7.728 5
      vertex -18.5848 3.95032 11
      vertex -17.3574 7.728 11
    endloop
  endfacet
  facet normal -0.994522 0.104529 0
    outer loop
      vertex -19 0 5
      vertex -19 0 11
      vertex -18.5848 3.95032 5
    endloop
  endfacet
  facet normal -0.994522 0.104529 0
    outer loop
      vertex -18.5848 3.95032 5
      vertex -19 0 11
      vertex -18.5848 3.95032 11
    endloop
  endfacet
  facet normal 0 0 1
    outer loop
      vertex -16.1394 -3.43054 1.5
      vertex -15.0735 -6.71115 1.5
      vertex -13.3488 -9.69846 1.5
    endloop
  endfacet
  facet normal 0 0 1
    outer loop
      vertex -8.25 -14.2894 1.5
      vertex -16.1394 -3.43054 1.5
      vertex -11.0407 -12.2619 1.5
    endloop
  endfacet
  facet normal 0 0 1
    outer loop
      vertex -11.0407 -12.2619 1.5
      vertex -16.1394 -3.43054 1.5
      vertex -13.3488 -9.69846 1.5
    endloop
  endfacet
  facet normal 0 0 1
    outer loop
      vertex -5.09878 -15.6924 1.5
      vertex -16.1394 -3.43054 1.5
      vertex -8.25 -14.2894 1.5
    endloop
  endfacet
  facet normal 0 0 1
    outer loop
      vertex -1.72472 -16.4096 1.5
      vertex -16.1394 -3.43054 1.5
      vertex -5.09878 -15.6924 1.5
    endloop
  endfacet
  facet normal 0 0 1
    outer loop
      vertex 1.72472 -16.4096 1.5
      vertex -16.1394 -3.43054 1.5
      vertex -1.72472 -16.4096 1.5
    endloop
  endfacet
  facet normal 0 0 1
    outer loop
      vertex 5.09878 -15.6924 1.5
      vertex -16.1394 -3.43054 1.5
      vertex 1.72472 -16.4096 1.5
    endloop
  endfacet
  facet normal 0 0 1
    outer loop
      vertex 8.25 -14.2894 1.5
      vertex -16.1394 -3.43054 1.5
      vertex 5.09878 -15.6924 1.5
    endloop
  endfacet
  facet normal 0 0 1
    outer loop
      vertex 11.0407 -12.2619 1.5
      vertex -16.1394 -3.43054 1.5
      vertex 8.25 -14.2894 1.5
    endloop
  endfacet
  facet normal 0 0 1
    outer loop
      vertex 13.3488 -9.69846 1.5
      vertex -16.1394 -3.43054 1.5
      vertex 11.0407 -12.2619 1.5
    endloop
  endfacet
  facet normal 0 0 1
    outer loop
      vertex -0.5 -6.5 1.5
      vertex -16.1394 -3.43054 1.5
      vertex 13.3488 -9.69846 1.5
    endloop
  endfacet
  facet normal 0 0 1
    outer loop
      vertex 0.5 6.5 1.5
      vertex 0.5 -6.5 1.5
      vertex 15.0735 -6.71115 1.5
    endloop
  endfacet
  facet normal 0 0 1
    outer loop
      vertex 0.5 6.5 1.5
      vertex 15.0735 -6.71115 1.5
      vertex 16.1394 -3.43054 1.5
    endloop
  endfacet
  facet normal 0 0 1
    outer loop
      vertex 0.5 6.5 1.5
      vertex 16.1394 -3.43054 1.5
      vertex 16.5 0 1.5
    endloop
  endfacet
  facet normal 0 0 1
    outer loop
      vertex 0.5 6.5 1.5
      vertex 16.5 0 1.5
      vertex 16.1394 3.43054 1.5
    endloop
  endfacet
  facet normal 0 0 1
    outer loop
      vertex 5.09878 15.6924 1.5
      vertex -16.1394 -3.43054 1.5
      vertex 8.25 14.2894 1.5
    endloop
  endfacet
  facet normal 0 0 1
    outer loop
      vertex 1.72472 16.4096 1.5
      vertex -16.1394 -3.43054 1.5
      vertex 5.09878 15.6924 1.5
    endloop
  endfacet
  facet normal 0 0 1
    outer loop
      vertex -1.72472 16.4096 1.5
      vertex -16.1394 -3.43054 1.5
      vertex 1.72472 16.4096 1.5
    endloop
  endfacet
  facet normal 0 0 1
    outer loop
      vertex -5.09878 15.6924 1.5
      vertex -16.1394 -3.43054 1.5
      vertex -1.72472 16.4096 1.5
    endloop
  endfacet
  facet normal 0 0 1
    outer loop
      vertex -8.25 14.2894 1.5
      vertex -16.1394 -3.43054 1.5
      vertex -5.09878 15.6924 1.5
    endloop
  endfacet
  facet normal 0 0 1
    outer loop
      vertex -11.0407 12.2619 1.5
      vertex -16.1394 -3.43054 1.5
      vertex -8.25 14.2894 1.5
    endloop
  endfacet
  facet normal 0 0 1
    outer loop
      vertex -13.3488 9.69846 1.5
      vertex -16.1394 -3.43054 1.5
      vertex -11.0407 12.2619 1.5
    endloop
  endfacet
  facet normal 0 0 1
    outer loop
      vertex -15.0735 6.71115 1.5
      vertex -16.1394 -3.43054 1.5
      vertex -13.3488 9.69846 1.5
    endloop
  endfacet
  facet normal 0 0 1
    outer loop
      vertex -16.1394 3.43054 1.5
      vertex -16.1394 -3.43054 1.5
      vertex -15.0735 6.71115 1.5
    endloop
  endfacet
  facet normal 0 0 1
    outer loop
      vertex -16.5 0 1.5
      vertex -16.1394 -3.43054 1.5
      vertex -16.1394 3.43054 1.5
    endloop
  endfacet
  facet normal 0 0 1
    outer loop
      vertex 8.25 14.2894 1.5
      vertex -0.5 6.5 1.5
      vertex 11.0407 12.2619 1.5
    endloop
  endfacet
  facet normal 0 0 1
    outer loop
      vertex 8.25 14.2894 1.5
      vertex -16.1394 -3.43054 1.5
      vertex -0.5 6.5 1.5
    endloop
  endfacet
  facet normal 0 0 1
    outer loop
      vertex -0.5 6.5 1.5
      vertex 0.5 6.5 1.5
      vertex 11.0407 12.2619 1.5
    endloop
  endfacet
  facet normal 0 0 1
    outer loop
      vertex 15.0735 -6.71115 1.5
      vertex 0.5 -6.5 1.5
      vertex 13.3488 -9.69846 1.5
    endloop
  endfacet
  facet normal 0 0 1
    outer loop
      vertex 0.5 -6.5 1.5
      vertex -0.5 -6.5 1.5
      vertex 13.3488 -9.69846 1.5
    endloop
  endfacet
  facet normal 0 0 1
    outer loop
      vertex 0.5 6.5 1.5
      vertex 13.3488 9.69846 1.5
      vertex 11.0407 12.2619 1.5
    endloop
  endfacet
  facet normal 0 0 1
    outer loop
      vertex 0.5 6.5 1.5
      vertex 15.0735 6.71115 1.5
      vertex 13.3488 9.69846 1.5
    endloop
  endfacet
  facet normal 0 0 1
    outer loop
      vertex 0.5 6.5 1.5
      vertex 16.1394 3.43054 1.5
      vertex 15.0735 6.71115 1.5
    endloop
  endfacet
  facet normal 0 0 1
    outer loop
      vertex -0.5 -6.5 1.5
      vertex -0.5 6.5 1.5
      vertex -16.1394 -3.43054 1.5
    endloop
  endfacet
  facet normal 0 0 1
    outer loop
      vertex -18.5848 3.95032 11
      vertex -19 0 11
      vertex -18.5848 -3.95032 11
    endloop
  endfacet
  facet normal 0 0 1
    outer loop
      vertex -15.3713 -11.1679 11
      vertex -18.5848 3.95032 11
      vertex -17.3574 -7.728 11
    endloop
  endfacet
  facet normal 0 0 1
    outer loop
      vertex -17.3574 -7.728 11
      vertex -18.5848 3.95032 11
      vertex -18.5848 -3.95032 11
    endloop
  endfacet
  facet normal 0 0 1
    outer loop
      vertex -12.7135 -14.1198 11
      vertex -18.5848 3.95032 11
      vertex -15.3713 -11.1679 11
    endloop
  endfacet
  facet normal 0 0 1
    outer loop
      vertex -16.1394 -3.43054 11
      vertex -18.5848 3.95032 11
      vertex -12.7135 -14.1198 11
    endloop
  endfacet
  facet normal 0 0 1
    outer loop
      vertex -16.1394 3.43054 11
      vertex -15.0735 6.71115 11
      vertex -18.5848 3.95032 11
    endloop
  endfacet
  facet normal 0 0 1
    outer loop
      vertex -5.09878 -15.6924 11
      vertex -8.25 -14.2894 11
      vertex -5.87132 -18.0701 11
    endloop
  endfacet
  facet normal 0 0 1
    outer loop
      vertex 15.0735 6.71115 11
      vertex 16.1394 3.43054 11
      vertex 18.5848 3.95032 11
    endloop
  endfacet
  facet normal 0 0 1
    outer loop
      vertex 13.3488 9.69846 11
      vertex 15.0735 6.71115 11
      vertex 17.3574 7.728 11
    endloop
  endfacet
  facet normal 0 0 1
    outer loop
      vertex 11.0407 12.2619 11
      vertex 13.3488 9.69846 11
      vertex 15.3713 11.1679 11
    endloop
  endfacet
  facet normal 0 0 1
    outer loop
      vertex 8.25 14.2894 11
      vertex 11.0407 12.2619 11
      vertex 12.7135 14.1198 11
    endloop
  endfacet
  facet normal 0 0 1
    outer loop
      vertex -8.25 14.2894 11
      vertex -5.09878 15.6924 11
      vertex -1.98604 18.8959 11
    endloop
  endfacet
  facet normal 0 0 1
    outer loop
      vertex -1.72472 16.4096 11
      vertex 1.72472 16.4096 11
      vertex 1.98604 18.8959 11
    endloop
  endfacet
  facet normal 0 0 1
    outer loop
      vertex -9.5 16.4545 11
      vertex -18.5848 3.95032 11
      vertex -5.87132 18.0701 11
    endloop
  endfacet
  facet normal 0 0 1
    outer loop
      vertex -12.7135 14.1198 11
      vertex -18.5848 3.95032 11
      vertex -9.5 16.4545 11
    endloop
  endfacet
  facet normal 0 0 1
    outer loop
      vertex -15.3713 11.1679 11
      vertex -18.5848 3.95032 11
      vertex -12.7135 14.1198 11
    endloop
  endfacet
  facet normal 0 0 1
    outer loop
      vertex -17.3574 7.728 11
      vertex -18.5848 3.95032 11
      vertex -15.3713 11.1679 11
    endloop
  endfacet
  facet normal 0 0 1
    outer loop
      vertex -15.0735 -6.71115 11
      vertex -16.1394 -3.43054 11
      vertex -12.7135 -14.1198 11
    endloop
  endfacet
  facet normal 0 0 1
    outer loop
      vertex 15.0735 -6.71115 11
      vertex 13.3488 -9.69846 11
      vertex 17.3574 -7.728 11
    endloop
  endfacet
  facet normal 0 0 1
    outer loop
      vertex 1.72472 16.4096 11
      vertex 5.09878 15.6924 11
      vertex 5.87132 18.0701 11
    endloop
  endfacet
  facet normal 0 0 1
    outer loop
      vertex 16.1394 3.43054 11
      vertex 16.5 0 11
      vertex 19 0 11
    endloop
  endfacet
  facet normal 0 0 1
    outer loop
      vertex -5.87132 18.0701 11
      vertex -18.5848 3.95032 11
      vertex -13.3488 9.69846 11
    endloop
  endfacet
  facet normal 0 0 1
    outer loop
      vertex -5.87132 18.0701 11
      vertex -11.0407 12.2619 11
      vertex -1.98604 18.8959 11
    endloop
  endfacet
  facet normal 0 0 1
    outer loop
      vertex -5.87132 18.0701 11
      vertex -13.3488 9.69846 11
      vertex -11.0407 12.2619 11
    endloop
  endfacet
  facet normal 0 0 1
    outer loop
      vertex -11.0407 12.2619 11
      vertex -8.25 14.2894 11
      vertex -1.98604 18.8959 11
    endloop
  endfacet
  facet normal 0 0 1
    outer loop
      vertex -1.98604 18.8959 11
      vertex -5.09878 15.6924 11
      vertex 1.98604 18.8959 11
    endloop
  endfacet
  facet normal 0 0 1
    outer loop
      vertex -5.09878 15.6924 11
      vertex -1.72472 16.4096 11
      vertex 1.98604 18.8959 11
    endloop
  endfacet
  facet normal 0 0 1
    outer loop
      vertex 1.98604 18.8959 11
      vertex 1.72472 16.4096 11
      vertex 5.87132 18.0701 11
    endloop
  endfacet
  facet normal 0 0 1
    outer loop
      vertex -15.0735 6.71115 11
      vertex -13.3488 9.69846 11
      vertex -18.5848 3.95032 11
    endloop
  endfacet
  facet normal 0 0 1
    outer loop
      vertex 5.87132 18.0701 11
      vertex 5.09878 15.6924 11
      vertex 9.5 16.4545 11
    endloop
  endfacet
  facet normal 0 0 1
    outer loop
      vertex 9.5 16.4545 11
      vertex 8.25 14.2894 11
      vertex 12.7135 14.1198 11
    endloop
  endfacet
  facet normal 0 0 1
    outer loop
      vertex 12.7135 14.1198 11
      vertex 11.0407 12.2619 11
      vertex 15.3713 11.1679 11
    endloop
  endfacet
  facet normal 0 0 1
    outer loop
      vertex 15.3713 11.1679 11
      vertex 13.3488 9.69846 11
      vertex 17.3574 7.728 11
    endloop
  endfacet
  facet normal 0 0 1
    outer loop
      vertex 17.3574 7.728 11
      vertex 15.0735 6.71115 11
      vertex 18.5848 3.95032 11
    endloop
  endfacet
  facet normal 0 0 1
    outer loop
      vertex 18.5848 3.95032 11
      vertex 16.1394 3.43054 11
      vertex 19 0 11
    endloop
  endfacet
  facet normal 0 0 1
    outer loop
      vertex 19 0 11
      vertex 16.5 0 11
      vertex 18.5848 -3.95032 11
    endloop
  endfacet
  facet normal 0 0 1
    outer loop
      vertex 18.5848 -3.95032 11
      vertex 16.1394 -3.43054 11
      vertex 17.3574 -7.728 11
    endloop
  endfacet
  facet normal 0 0 1
    outer loop
      vertex 5.09878 15.6924 11
      vertex 8.25 14.2894 11
      vertex 9.5 16.4545 11
    endloop
  endfacet
  facet normal 0 0 1
    outer loop
      vertex 16.1394 -3.43054 11
      vertex 15.0735 -6.71115 11
      vertex 17.3574 -7.728 11
    endloop
  endfacet
  facet normal 0 0 1
    outer loop
      vertex 17.3574 -7.728 11
      vertex 13.3488 -9.69846 11
      vertex 15.3713 -11.1679 11
    endloop
  endfacet
  facet normal 0 0 1
    outer loop
      vertex 15.3713 -11.1679 11
      vertex 11.0407 -12.2619 11
      vertex 12.7135 -14.1198 11
    endloop
  endfacet
  facet normal 0 0 1
    outer loop
      vertex 12.7135 -14.1198 11
      vertex 8.25 -14.2894 11
      vertex 9.5 -16.4545 11
    endloop
  endfacet
  facet normal 0 0 1
    outer loop
      vertex 9.5 -16.4545 11
      vertex 5.09878 -15.6924 11
      vertex 5.87132 -18.0701 11
    endloop
  endfacet
  facet normal 0 0 1
    outer loop
      vertex 5.87132 -18.0701 11
      vertex 1.72472 -16.4096 11
      vertex 1.98604 -18.8959 11
    endloop
  endfacet
  facet normal 0 0 1
    outer loop
      vertex 1.98604 -18.8959 11
      vertex -1.72472 -16.4096 11
      vertex -1.98604 -18.8959 11
    endloop
  endfacet
  facet normal 0 0 1
    outer loop
      vertex 16.5 0 11
      vertex 16.1394 -3.43054 11
      vertex 18.5848 -3.95032 11
    endloop
  endfacet
  facet normal 0 0 1
    outer loop
      vertex -1.98604 -18.8959 11
      vertex -5.09878 -15.6924 11
      vertex -5.87132 -18.0701 11
    endloop
  endfacet
  facet normal 0 0 1
    outer loop
      vertex -5.87132 -18.0701 11
      vertex -8.25 -14.2894 11
      vertex -9.5 -16.4545 11
    endloop
  endfacet
  facet normal 0 0 1
    outer loop
      vertex -8.25 -14.2894 11
      vertex -11.0407 -12.2619 11
      vertex -9.5 -16.4545 11
    endloop
  endfacet
  facet normal 0 0 1
    outer loop
      vertex -9.5 -16.4545 11
      vertex -13.3488 -9.69846 11
      vertex -12.7135 -14.1198 11
    endloop
  endfacet
  facet normal 0 0 1
    outer loop
      vertex -13.3488 -9.69846 11
      vertex -15.0735 -6.71115 11
      vertex -12.7135 -14.1198 11
    endloop
  endfacet
  facet normal 0 0 1
    outer loop
      vertex -16.1394 -3.43054 11
      vertex -16.5 0 11
      vertex -18.5848 3.95032 11
    endloop
  endfacet
  facet normal 0 0 1
    outer loop
      vertex 13.3488 -9.69846 11
      vertex 11.0407 -12.2619 11
      vertex 15.3713 -11.1679 11
    endloop
  endfacet
  facet normal 0 0 1
    outer loop
      vertex 11.0407 -12.2619 11
      vertex 8.25 -14.2894 11
      vertex 12.7135 -14.1198 11
    endloop
  endfacet
  facet normal 0 0 1
    outer loop
      vertex 8.25 -14.2894 11
      vertex 5.09878 -15.6924 11
      vertex 9.5 -16.4545 11
    endloop
  endfacet
  facet normal 0 0 1
    outer loop
      vertex 5.09878 -15.6924 11
      vertex 1.72472 -16.4096 11
      vertex 5.87132 -18.0701 11
    endloop
  endfacet
  facet normal 0 0 1
    outer loop
      vertex 1.72472 -16.4096 11
      vertex -1.72472 -16.4096 11
      vertex 1.98604 -18.8959 11
    endloop
  endfacet
  facet normal 0 0 1
    outer loop
      vertex -1.72472 -16.4096 11
      vertex -5.09878 -15.6924 11
      vertex -1.98604 -18.8959 11
    endloop
  endfacet
  facet normal 0 0 1
    outer loop
      vertex -11.0407 -12.2619 11
      vertex -13.3488 -9.69846 11
      vertex -9.5 -16.4545 11
    endloop
  endfacet
  facet normal 0 0 1
    outer loop
      vertex -16.5 0 11
      vertex -16.1394 3.43054 11
      vertex -18.5848 3.95032 11
    endloop
  endfacet
  facet normal 0.951057 0.309017 0
    outer loop
      vertex -16.1394 -3.43054 11
      vertex -15.0735 -6.71115 11
      vertex -15.0735 -6.71115 1.5
    endloop
  endfacet
  facet normal 0.951057 0.309017 0
    outer loop
      vertex -16.1394 -3.43054 1.5
      vertex -16.1394 -3.43054 11
      vertex -15.0735 -6.71115 1.5
    endloop
  endfacet
  facet normal 0.994522 0.104529 0
    outer loop
      vertex -16.5 0 11
      vertex -16.1394 -3.43054 11
      vertex -16.1394 -3.43054 1.5
    endloop
  endfacet
  facet normal 0.994522 0.104529 0
    outer loop
      vertex -16.5 0 1.5
      vertex -16.5 0 11
      vertex -16.1394 -3.43054 1.5
    endloop
  endfacet
  facet normal 0.994522 -0.104529 0
    outer loop
      vertex -16.1394 3.43054 1.5
      vertex -16.1394 3.43054 11
      vertex -16.5 0 11
    endloop
  endfacet
  facet normal 0.994522 -0.104529 0
    outer loop
      vertex -16.5 0 1.5
      vertex -16.1394 3.43054 1.5
      vertex -16.5 0 11
    endloop
  endfacet
  facet normal 0.951057 -0.309017 0
    outer loop
      vertex -15.0735 6.71115 1.5
      vertex -15.0735 6.71115 11
      vertex -16.1394 3.43054 11
    endloop
  endfacet
  facet normal 0.951057 -0.309017 0
    outer loop
      vertex -16.1394 3.43054 1.5
      vertex -15.0735 6.71115 1.5
      vertex -16.1394 3.43054 11
    endloop
  endfacet
  facet normal 0.866025 -0.5 0
    outer loop
      vertex -13.3488 9.69846 1.5
      vertex -13.3488 9.69846 11
      vertex -15.0735 6.71115 11
    endloop
  endfacet
  facet normal 0.866025 -0.5 0
    outer loop
      vertex -15.0735 6.71115 1.5
      vertex -13.3488 9.69846 1.5
      vertex -15.0735 6.71115 11
    endloop
  endfacet
  facet normal 0.743145 -0.669131 0
    outer loop
      vertex -11.0407 12.2619 1.5
      vertex -11.0407 12.2619 11
      vertex -13.3488 9.69846 11
    endloop
  endfacet
  facet normal 0.743145 -0.669131 0
    outer loop
      vertex -13.3488 9.69846 1.5
      vertex -11.0407 12.2619 1.5
      vertex -13.3488 9.69846 11
    endloop
  endfacet
  facet normal 0.587785 -0.809017 0
    outer loop
      vertex -8.25 14.2894 1.5
      vertex -8.25 14.2894 11
      vertex -11.0407 12.2619 11
    endloop
  endfacet
  facet normal 0.587785 -0.809017 0
    outer loop
      vertex -11.0407 12.2619 1.5
      vertex -8.25 14.2894 1.5
      vertex -11.0407 12.2619 11
    endloop
  endfacet
  facet normal 0.406737 -0.913545 0
    outer loop
      vertex -5.09878 15.6924 1.5
      vertex -5.09878 15.6924 11
      vertex -8.25 14.2894 11
    endloop
  endfacet
  facet normal 0.406737 -0.913545 0
    outer loop
      vertex -8.25 14.2894 1.5
      vertex -5.09878 15.6924 1.5
      vertex -8.25 14.2894 11
    endloop
  endfacet
  facet normal 0.207912 -0.978148 0
    outer loop
      vertex -1.72472 16.4096 1.5
      vertex -1.72472 16.4096 11
      vertex -5.09878 15.6924 11
    endloop
  endfacet
  facet normal 0.207912 -0.978148 0
    outer loop
      vertex -5.09878 15.6924 1.5
      vertex -1.72472 16.4096 1.5
      vertex -5.09878 15.6924 11
    endloop
  endfacet
  facet normal 0 -1 0
    outer loop
      vertex 1.72472 16.4096 1.5
      vertex 1.72472 16.4096 11
      vertex -1.72472 16.4096 11
    endloop
  endfacet
  facet normal 0 -1 0
    outer loop
      vertex -1.72472 16.4096 1.5
      vertex 1.72472 16.4096 1.5
      vertex -1.72472 16.4096 11
    endloop
  endfacet
  facet normal -0.207912 -0.978148 0
    outer loop
      vertex 5.09878 15.6924 1.5
      vertex 5.09878 15.6924 11
      vertex 1.72472 16.4096 11
    endloop
  endfacet
  facet normal -0.207912 -0.978148 0
    outer loop
      vertex 1.72472 16.4096 1.5
      vertex 5.09878 15.6924 1.5
      vertex 1.72472 16.4096 11
    endloop
  endfacet
  facet normal -0.406737 -0.913545 0
    outer loop
      vertex 8.25 14.2894 1.5
      vertex 8.25 14.2894 11
      vertex 5.09878 15.6924 11
    endloop
  endfacet
  facet normal -0.406737 -0.913545 0
    outer loop
      vertex 5.09878 15.6924 1.5
      vertex 8.25 14.2894 1.5
      vertex 5.09878 15.6924 11
    endloop
  endfacet
  facet normal -0.587785 -0.809017 0
    outer loop
      vertex 11.0407 12.2619 1.5
      vertex 11.0407 12.2619 11
      vertex 8.25 14.2894 11
    endloop
  endfacet
  facet normal -0.587785 -0.809017 0
    outer loop
      vertex 8.25 14.2894 1.5
      vertex 11.0407 12.2619 1.5
      vertex 8.25 14.2894 11
    endloop
  endfacet
  facet normal -0.743145 -0.669131 0
    outer loop
      vertex 13.3488 9.69846 11
      vertex 11.0407 12.2619 11
      vertex 13.3488 9.69846 1.5
    endloop
  endfacet
  facet normal -0.743145 -0.669131 0
    outer loop
      vertex 13.3488 9.69846 1.5
      vertex 11.0407 12.2619 11
      vertex 11.0407 12.2619 1.5
    endloop
  endfacet
  facet normal -0.866025 -0.5 0
    outer loop
      vertex 15.0735 6.71115 11
      vertex 13.3488 9.69846 11
      vertex 15.0735 6.71115 1.5
    endloop
  endfacet
  facet normal -0.866025 -0.5 0
    outer loop
      vertex 15.0735 6.71115 1.5
      vertex 13.3488 9.69846 11
      vertex 13.3488 9.69846 1.5
    endloop
  endfacet
  facet normal -0.951057 -0.309017 0
    outer loop
      vertex 16.1394 3.43054 11
      vertex 15.0735 6.71115 11
      vertex 16.1394 3.43054 1.5
    endloop
  endfacet
  facet normal -0.951057 -0.309017 0
    outer loop
      vertex 16.1394 3.43054 1.5
      vertex 15.0735 6.71115 11
      vertex 15.0735 6.71115 1.5
    endloop
  endfacet
  facet normal -0.994522 -0.104529 0
    outer loop
      vertex 16.5 0 11
      vertex 16.1394 3.43054 11
      vertex 16.5 0 1.5
    endloop
  endfacet
  facet normal -0.994522 -0.104529 0
    outer loop
      vertex 16.5 0 1.5
      vertex 16.1394 3.43054 11
      vertex 16.1394 3.43054 1.5
    endloop
  endfacet
  facet normal -0.994522 0.104529 0
    outer loop
      vertex 16.5 0 11
      vertex 16.5 0 1.5
      vertex 16.1394 -3.43054 11
    endloop
  endfacet
  facet normal -0.994522 0.104529 0
    outer loop
      vertex 16.1394 -3.43054 11
      vertex 16.5 0 1.5
      vertex 16.1394 -3.43054 1.5
    endloop
  endfacet
  facet normal -0.951057 0.309017 0
    outer loop
      vertex 16.1394 -3.43054 11
      vertex 16.1394 -3.43054 1.5
      vertex 15.0735 -6.71115 11
    endloop
  endfacet
  facet normal -0.951057 0.309017 0
    outer loop
      vertex 15.0735 -6.71115 11
      vertex 16.1394 -3.43054 1.5
      vertex 15.0735 -6.71115 1.5
    endloop
  endfacet
  facet normal -0.866025 0.5 0
    outer loop
      vertex 15.0735 -6.71115 11
      vertex 15.0735 -6.71115 1.5
      vertex 13.3488 -9.69846 11
    endloop
  endfacet
  facet normal -0.866025 0.5 0
    outer loop
      vertex 13.3488 -9.69846 11
      vertex 15.0735 -6.71115 1.5
      vertex 13.3488 -9.69846 1.5
    endloop
  endfacet
  facet normal -0.743145 0.669131 0
    outer loop
      vertex 13.3488 -9.69846 11
      vertex 13.3488 -9.69846 1.5
      vertex 11.0407 -12.2619 11
    endloop
  endfacet
  facet normal -0.743145 0.669131 0
    outer loop
      vertex 11.0407 -12.2619 11
      vertex 13.3488 -9.69846 1.5
      vertex 11.0407 -12.2619 1.5
    endloop
  endfacet
  facet normal -0.587785 0.809017 0
    outer loop
      vertex 11.0407 -12.2619 11
      vertex 11.0407 -12.2619 1.5
      vertex 8.25 -14.2894 11
    endloop
  endfacet
  facet normal -0.587785 0.809017 0
    outer loop
      vertex 8.25 -14.2894 11
      vertex 11.0407 -12.2619 1.5
      vertex 8.25 -14.2894 1.5
    endloop
  endfacet
  facet normal -0.406737 0.913545 0
    outer loop
      vertex 8.25 -14.2894 11
      vertex 8.25 -14.2894 1.5
      vertex 5.09878 -15.6924 11
    endloop
  endfacet
  facet normal -0.406737 0.913545 0
    outer loop
      vertex 5.09878 -15.6924 11
      vertex 8.25 -14.2894 1.5
      vertex 5.09878 -15.6924 1.5
    endloop
  endfacet
  facet normal -0.207912 0.978148 0
    outer loop
      vertex 5.09878 -15.6924 11
      vertex 5.09878 -15.6924 1.5
      vertex 1.72472 -16.4096 11
    endloop
  endfacet
  facet normal -0.207912 0.978148 0
    outer loop
      vertex 1.72472 -16.4096 11
      vertex 5.09878 -15.6924 1.5
      vertex 1.72472 -16.4096 1.5
    endloop
  endfacet
  facet normal 0 1 0
    outer loop
      vertex 1.72472 -16.4096 11
      vertex 1.72472 -16.4096 1.5
      vertex -1.72472 -16.4096 11
    endloop
  endfacet
  facet normal 0 1 0
    outer loop
      vertex -1.72472 -16.4096 11
      vertex 1.72472 -16.4096 1.5
      vertex -1.72472 -16.4096 1.5
    endloop
  endfacet
  facet normal 0.207912 0.978148 0
    outer loop
      vertex -1.72472 -16.4096 11
      vertex -1.72472 -16.4096 1.5
      vertex -5.09878 -15.6924 11
    endloop
  endfacet
  facet normal 0.207912 0.978148 0
    outer loop
      vertex -5.09878 -15.6924 11
      vertex -1.72472 -16.4096 1.5
      vertex -5.09878 -15.6924 1.5
    endloop
  endfacet
  facet normal 0.406737 0.913545 0
    outer loop
      vertex -5.09878 -15.6924 11
      vertex -5.09878 -15.6924 1.5
      vertex -8.25 -14.2894 11
    endloop
  endfacet
  facet normal 0.406737 0.913545 0
    outer loop
      vertex -8.25 -14.2894 11
      vertex -5.09878 -15.6924 1.5
      vertex -8.25 -14.2894 1.5
    endloop
  endfacet
  facet normal 0.587785 0.809017 0
    outer loop
      vertex -8.25 -14.2894 11
      vertex -8.25 -14.2894 1.5
      vertex -11.0407 -12.2619 11
    endloop
  endfacet
  facet normal 0.587785 0.809017 0
    outer loop
      vertex -11.0407 -12.2619 11
      vertex -8.25 -14.2894 1.5
      vertex -11.0407 -12.2619 1.5
    endloop
  endfacet
  facet normal 0.743145 0.669131 0
    outer loop
      vertex -13.3488 -9.69846 11
      vertex -11.0407 -12.2619 11
      vertex -11.0407 -12.2619 1.5
    endloop
  endfacet
  facet normal 0.743145 0.669131 0
    outer loop
      vertex -13.3488 -9.69846 1.5
      vertex -13.3488 -9.69846 11
      vertex -11.0407 -12.2619 1.5
    endloop
  endfacet
  facet normal 0.866025 0.5 0
    outer loop
      vertex -15.0735 -6.71115 11
      vertex -13.3488 -9.69846 11
      vertex -13.3488 -9.69846 1.5
    endloop
  endfacet
  facet normal 0.866025 0.5 0
    outer loop
      vertex -15.0735 -6.71115 1.5
      vertex -15.0735 -6.71115 11
      vertex -13.3488 -9.69846 1.5
    endloop
  endfacet
endsolid OpenSCAD_Model
