solid OpenSCAD_Model
  facet normal -1 0 0
    outer loop
      vertex -36.075 -40.6 0
      vertex -36.075 -40.6 2
      vertex -36.075 40.6 0
    endloop
  endfacet
  facet normal -1 0 0
    outer loop
      vertex -36.075 40.6 0
      vertex -36.075 -40.6 2
      vertex -36.075 40.6 2
    endloop
  endfacet
  facet normal 0 -1 0
    outer loop
      vertex -36.075 -40.6 2
      vertex -36.075 -40.6 0
      vertex 41.075 -40.6 0
    endloop
  endfacet
  facet normal 0 -1 0
    outer loop
      vertex 41.075 -40.6 2
      vertex -36.075 -40.6 2
      vertex 41.075 -40.6 0
    endloop
  endfacet
  facet normal 0 0 -1
    outer loop
      vertex -15.5118 39.0705 0
      vertex -36.075 40.6 0
      vertex 41.075 40.6 0
    endloop
  endfacet
  facet normal 0 0 -1
    outer loop
      vertex -36.075 -40.6 0
      vertex -36.075 40.6 0
      vertex -22 0 0
    endloop
  endfacet
  facet normal 0 0 -1
    outer loop
      vertex 17.7984 -12.9313 0
      vertex 32.3007 -30.7169 0
      vertex 30.4882 -30.0295 0
    endloop
  endfacet
  facet normal 0 0 -1
    outer loop
      vertex -36.075 -40.6 0
      vertex -22 0 0
      vertex -21.5192 -4.57406 0
    endloop
  endfacet
  facet normal 0 0 -1
    outer loop
      vertex -36.075 -40.6 0
      vertex -21.5192 -4.57406 0
      vertex -20.098 -8.94821 0
    endloop
  endfacet
  facet normal 0 0 -1
    outer loop
      vertex 26.0677 -35.0192 0
      vertex -2.29963 -21.8795 0
      vertex 2.29963 -21.8795 0
    endloop
  endfacet
  facet normal 0 0 -1
    outer loop
      vertex -36.075 -40.6 0
      vertex -20.098 -8.94821 0
      vertex -17.7984 -12.9313 0
    endloop
  endfacet
  facet normal 0 0 -1
    outer loop
      vertex 6.79837 -20.9232 0
      vertex 26.0677 -33.0808 0
      vertex 2.29963 -21.8795 0
    endloop
  endfacet
  facet normal 0 0 -1
    outer loop
      vertex -36.075 -40.6 0
      vertex -17.7984 -12.9313 0
      vertex -14.7209 -16.3492 0
    endloop
  endfacet
  facet normal 0 0 -1
    outer loop
      vertex -36.075 -40.6 0
      vertex -14.7209 -16.3492 0
      vertex -11 -19.0526 0
    endloop
  endfacet
  facet normal 0 0 -1
    outer loop
      vertex -36.075 -40.6 0
      vertex -11 -19.0526 0
      vertex -6.79837 -20.9232 0
    endloop
  endfacet
  facet normal 0 0 -1
    outer loop
      vertex 32.3007 -37.3831 0
      vertex 41.075 -40.6 0
      vertex 30.4882 -38.0705 0
    endloop
  endfacet
  facet normal 0 0 -1
    outer loop
      vertex 26.0677 -35.0192 0
      vertex -6.79837 -20.9232 0
      vertex -2.29963 -21.8795 0
    endloop
  endfacet
  facet normal 0 0 -1
    outer loop
      vertex -13.6993 -37.3831 0
      vertex 41.075 -40.6 0
      vertex -15.5118 -38.0705 0
    endloop
  endfacet
  facet normal 0 0 -1
    outer loop
      vertex -17.7984 12.9313 0
      vertex -36.075 40.6 0
      vertex -14.7209 16.3492 0
    endloop
  endfacet
  facet normal 0 0 -1
    outer loop
      vertex 22 0 0
      vertex 41.075 40.6 0
      vertex 21.5192 -4.57406 0
    endloop
  endfacet
  facet normal 0 0 -1
    outer loop
      vertex -13.6993 31.7169 0
      vertex 11 19.0526 0
      vertex 6.79837 20.9232 0
    endloop
  endfacet
  facet normal 0 0 -1
    outer loop
      vertex 41.075 -40.6 0
      vertex 17.7984 -12.9313 0
      vertex 20.098 -8.94821 0
    endloop
  endfacet
  facet normal 0 0 -1
    outer loop
      vertex 41.075 -40.6 0
      vertex 20.098 -8.94821 0
      vertex 41.075 40.6 0
    endloop
  endfacet
  facet normal 0 0 -1
    outer loop
      vertex 20.098 -8.94821 0
      vertex 21.5192 -4.57406 0
      vertex 41.075 40.6 0
    endloop
  endfacet
  facet normal 0 0 -1
    outer loop
      vertex -14.7209 16.3492 0
      vertex -36.075 40.6 0
      vertex -11 19.0526 0
    endloop
  endfacet
  facet normal 0 0 -1
    outer loop
      vertex -17.4361 31.2632 0
      vertex -36.075 40.6 0
      vertex -19.0315 32.3644 0
    endloop
  endfacet
  facet normal 0 0 -1
    outer loop
      vertex -11 19.0526 0
      vertex -36.075 40.6 0
      vertex -6.79837 20.9232 0
    endloop
  endfacet
  facet normal 0 0 -1
    outer loop
      vertex 22 0 0
      vertex 21.5192 4.57406 0
      vertex 41.075 40.6 0
    endloop
  endfacet
  facet normal 0 0 -1
    outer loop
      vertex 21.5192 4.57406 0
      vertex 20.098 8.94821 0
      vertex 41.075 40.6 0
    endloop
  endfacet
  facet normal 0 0 -1
    outer loop
      vertex -6.79837 20.9232 0
      vertex -36.075 40.6 0
      vertex -2.29963 21.8795 0
    endloop
  endfacet
  facet normal 0 0 -1
    outer loop
      vertex 20.098 8.94821 0
      vertex 17.7984 12.9313 0
      vertex 41.075 40.6 0
    endloop
  endfacet
  facet normal 0 0 -1
    outer loop
      vertex -2.29963 21.8795 0
      vertex -17.4361 31.2632 0
      vertex 2.29963 21.8795 0
    endloop
  endfacet
  facet normal 0 0 -1
    outer loop
      vertex 32.3007 31.7169 0
      vertex 14.7209 16.3492 0
      vertex 30.4882 31.0295 0
    endloop
  endfacet
  facet normal 0 0 -1
    outer loop
      vertex -13.6993 31.7169 0
      vertex 6.79837 20.9232 0
      vertex -15.5118 31.0295 0
    endloop
  endfacet
  facet normal 0 0 -1
    outer loop
      vertex -15.5118 31.0295 0
      vertex 2.29963 21.8795 0
      vertex -17.4361 31.2632 0
    endloop
  endfacet
  facet normal 0 0 -1
    outer loop
      vertex -20.098 8.94821 0
      vertex -36.075 40.6 0
      vertex -17.7984 12.9313 0
    endloop
  endfacet
  facet normal 0 0 -1
    outer loop
      vertex -21.5192 4.57406 0
      vertex -36.075 40.6 0
      vertex -20.098 8.94821 0
    endloop
  endfacet
  facet normal 0 0 -1
    outer loop
      vertex -22 0 0
      vertex -36.075 40.6 0
      vertex -21.5192 4.57406 0
    endloop
  endfacet
  facet normal 0 0 -1
    outer loop
      vertex -19.0315 32.3644 0
      vertex -36.075 40.6 0
      vertex -19.9323 34.0808 0
    endloop
  endfacet
  facet normal 0 0 -1
    outer loop
      vertex -36.075 -40.6 0
      vertex -19.9323 -33.0808 0
      vertex -19.9323 -35.0192 0
    endloop
  endfacet
  facet normal 0 0 -1
    outer loop
      vertex -36.075 -40.6 0
      vertex -19.9323 -35.0192 0
      vertex -19.0315 -36.7356 0
    endloop
  endfacet
  facet normal 0 0 -1
    outer loop
      vertex -36.075 -40.6 0
      vertex -19.0315 -36.7356 0
      vertex -17.4361 -37.8368 0
    endloop
  endfacet
  facet normal 0 0 -1
    outer loop
      vertex -36.075 -40.6 0
      vertex -17.4361 -37.8368 0
      vertex -15.5118 -38.0705 0
    endloop
  endfacet
  facet normal 0 0 -1
    outer loop
      vertex -36.075 -40.6 0
      vertex -15.5118 -38.0705 0
      vertex 41.075 -40.6 0
    endloop
  endfacet
  facet normal 0 0 -1
    outer loop
      vertex -12.4139 -35.9321 0
      vertex 41.075 -40.6 0
      vertex -13.6993 -37.3831 0
    endloop
  endfacet
  facet normal 0 0 -1
    outer loop
      vertex -11.95 -34.05 0
      vertex 41.075 -40.6 0
      vertex -12.4139 -35.9321 0
    endloop
  endfacet
  facet normal 0 0 -1
    outer loop
      vertex -12.4139 -32.1679 0
      vertex -6.79837 -20.9232 0
      vertex -11.95 -34.05 0
    endloop
  endfacet
  facet normal 0 0 -1
    outer loop
      vertex -17.4361 -30.2632 0
      vertex -6.79837 -20.9232 0
      vertex -15.5118 -30.0295 0
    endloop
  endfacet
  facet normal 0 0 -1
    outer loop
      vertex -13.6993 -30.7169 0
      vertex -6.79837 -20.9232 0
      vertex -12.4139 -32.1679 0
    endloop
  endfacet
  facet normal 0 0 -1
    outer loop
      vertex -15.5118 -30.0295 0
      vertex -6.79837 -20.9232 0
      vertex -13.6993 -30.7169 0
    endloop
  endfacet
  facet normal 0 0 -1
    outer loop
      vertex -36.075 -40.6 0
      vertex -6.79837 -20.9232 0
      vertex -17.4361 -30.2632 0
    endloop
  endfacet
  facet normal 0 0 -1
    outer loop
      vertex -36.075 -40.6 0
      vertex -17.4361 -30.2632 0
      vertex -19.0315 -31.3644 0
    endloop
  endfacet
  facet normal 0 0 -1
    outer loop
      vertex -36.075 -40.6 0
      vertex -19.0315 -31.3644 0
      vertex -19.9323 -33.0808 0
    endloop
  endfacet
  facet normal 0 0 -1
    outer loop
      vertex -19.9323 34.0808 0
      vertex -36.075 40.6 0
      vertex -19.9323 36.0192 0
    endloop
  endfacet
  facet normal 0 0 -1
    outer loop
      vertex 28.5638 31.2632 0
      vertex 11 19.0526 0
      vertex 26.9685 32.3644 0
    endloop
  endfacet
  facet normal 0 0 -1
    outer loop
      vertex -2.29963 21.8795 0
      vertex -36.075 40.6 0
      vertex -17.4361 31.2632 0
    endloop
  endfacet
  facet normal 0 0 -1
    outer loop
      vertex -12.4139 33.1679 0
      vertex 11 19.0526 0
      vertex -13.6993 31.7169 0
    endloop
  endfacet
  facet normal 0 0 -1
    outer loop
      vertex -12.4139 36.9321 0
      vertex 41.075 40.6 0
      vertex -11.95 35.05 0
    endloop
  endfacet
  facet normal 0 0 -1
    outer loop
      vertex 28.5638 38.8368 0
      vertex -12.4139 33.1679 0
      vertex 41.075 40.6 0
    endloop
  endfacet
  facet normal 0 0 -1
    outer loop
      vertex -12.4139 33.1679 0
      vertex -11.95 35.05 0
      vertex 41.075 40.6 0
    endloop
  endfacet
  facet normal 0 0 -1
    outer loop
      vertex 26.0677 -33.0808 0
      vertex 6.79837 -20.9232 0
      vertex 26.9685 -31.3644 0
    endloop
  endfacet
  facet normal 0 0 -1
    outer loop
      vertex -19.0315 37.7356 0
      vertex -36.075 40.6 0
      vertex -17.4361 38.8368 0
    endloop
  endfacet
  facet normal 0 0 -1
    outer loop
      vertex 34.05 -34.05 0
      vertex 41.075 -40.6 0
      vertex 33.5861 -35.9321 0
    endloop
  endfacet
  facet normal 0 0 -1
    outer loop
      vertex -12.4139 36.9321 0
      vertex -13.6993 38.3831 0
      vertex 41.075 40.6 0
    endloop
  endfacet
  facet normal 0 0 -1
    outer loop
      vertex -17.4361 38.8368 0
      vertex -36.075 40.6 0
      vertex -15.5118 39.0705 0
    endloop
  endfacet
  facet normal 0 0 -1
    outer loop
      vertex -13.6993 38.3831 0
      vertex -15.5118 39.0705 0
      vertex 41.075 40.6 0
    endloop
  endfacet
  facet normal 0 0 -1
    outer loop
      vertex -19.9323 36.0192 0
      vertex -36.075 40.6 0
      vertex -19.0315 37.7356 0
    endloop
  endfacet
  facet normal 0 0 -1
    outer loop
      vertex 26.0677 -35.0192 0
      vertex 2.29963 -21.8795 0
      vertex 26.0677 -33.0808 0
    endloop
  endfacet
  facet normal 0 0 -1
    outer loop
      vertex 26.9685 -31.3644 0
      vertex 11 -19.0526 0
      vertex 28.5638 -30.2632 0
    endloop
  endfacet
  facet normal 0 0 -1
    outer loop
      vertex -11.95 -34.05 0
      vertex -6.79837 -20.9232 0
      vertex 26.0677 -35.0192 0
    endloop
  endfacet
  facet normal 0 0 -1
    outer loop
      vertex -11.95 -34.05 0
      vertex 26.0677 -35.0192 0
      vertex 26.9685 -36.7356 0
    endloop
  endfacet
  facet normal 0 0 -1
    outer loop
      vertex -11.95 -34.05 0
      vertex 26.9685 -36.7356 0
      vertex 28.5638 -37.8368 0
    endloop
  endfacet
  facet normal 0 0 -1
    outer loop
      vertex -11.95 -34.05 0
      vertex 28.5638 -37.8368 0
      vertex 41.075 -40.6 0
    endloop
  endfacet
  facet normal 0 0 -1
    outer loop
      vertex 28.5638 -37.8368 0
      vertex 30.4882 -38.0705 0
      vertex 41.075 -40.6 0
    endloop
  endfacet
  facet normal 0 0 -1
    outer loop
      vertex 33.5861 -35.9321 0
      vertex 41.075 -40.6 0
      vertex 32.3007 -37.3831 0
    endloop
  endfacet
  facet normal 0 0 -1
    outer loop
      vertex 17.7984 -12.9313 0
      vertex 30.4882 -30.0295 0
      vertex 14.7209 -16.3492 0
    endloop
  endfacet
  facet normal 0 0 -1
    outer loop
      vertex 33.5861 -32.1679 0
      vertex 41.075 -40.6 0
      vertex 34.05 -34.05 0
    endloop
  endfacet
  facet normal 0 0 -1
    outer loop
      vertex 2.29963 21.8795 0
      vertex -15.5118 31.0295 0
      vertex 6.79837 20.9232 0
    endloop
  endfacet
  facet normal 0 0 -1
    outer loop
      vertex 41.075 -40.6 0
      vertex 33.5861 -32.1679 0
      vertex 17.7984 -12.9313 0
    endloop
  endfacet
  facet normal 0 0 -1
    outer loop
      vertex 33.5861 -32.1679 0
      vertex 32.3007 -30.7169 0
      vertex 17.7984 -12.9313 0
    endloop
  endfacet
  facet normal 0 0 -1
    outer loop
      vertex 11 -19.0526 0
      vertex 14.7209 -16.3492 0
      vertex 28.5638 -30.2632 0
    endloop
  endfacet
  facet normal 0 0 -1
    outer loop
      vertex 28.5638 -30.2632 0
      vertex 14.7209 -16.3492 0
      vertex 30.4882 -30.0295 0
    endloop
  endfacet
  facet normal 0 0 -1
    outer loop
      vertex 11 19.0526 0
      vertex -12.4139 33.1679 0
      vertex 26.0677 36.0192 0
    endloop
  endfacet
  facet normal 0 0 -1
    outer loop
      vertex 11 19.0526 0
      vertex 26.0677 36.0192 0
      vertex 26.0677 34.0808 0
    endloop
  endfacet
  facet normal 0 0 -1
    outer loop
      vertex 11 19.0526 0
      vertex 26.0677 34.0808 0
      vertex 26.9685 32.3644 0
    endloop
  endfacet
  facet normal 0 0 -1
    outer loop
      vertex 14.7209 16.3492 0
      vertex 11 19.0526 0
      vertex 28.5638 31.2632 0
    endloop
  endfacet
  facet normal 0 0 -1
    outer loop
      vertex 14.7209 16.3492 0
      vertex 28.5638 31.2632 0
      vertex 30.4882 31.0295 0
    endloop
  endfacet
  facet normal 0 0 -1
    outer loop
      vertex 17.7984 12.9313 0
      vertex 14.7209 16.3492 0
      vertex 32.3007 31.7169 0
    endloop
  endfacet
  facet normal 0 0 -1
    outer loop
      vertex 17.7984 12.9313 0
      vertex 32.3007 31.7169 0
      vertex 41.075 40.6 0
    endloop
  endfacet
  facet normal 0 0 -1
    outer loop
      vertex 34.05 35.05 0
      vertex 41.075 40.6 0
      vertex 33.5861 33.1679 0
    endloop
  endfacet
  facet normal 0 0 -1
    outer loop
      vertex 32.3007 31.7169 0
      vertex 33.5861 33.1679 0
      vertex 41.075 40.6 0
    endloop
  endfacet
  facet normal 0 0 -1
    outer loop
      vertex 33.5861 36.9321 0
      vertex 41.075 40.6 0
      vertex 34.05 35.05 0
    endloop
  endfacet
  facet normal 0 0 -1
    outer loop
      vertex 32.3007 38.3831 0
      vertex 41.075 40.6 0
      vertex 33.5861 36.9321 0
    endloop
  endfacet
  facet normal 0 0 -1
    outer loop
      vertex 26.9685 37.7356 0
      vertex -12.4139 33.1679 0
      vertex 28.5638 38.8368 0
    endloop
  endfacet
  facet normal 0 0 -1
    outer loop
      vertex 32.3007 38.3831 0
      vertex 30.4882 39.0705 0
      vertex 41.075 40.6 0
    endloop
  endfacet
  facet normal 0 0 -1
    outer loop
      vertex 30.4882 39.0705 0
      vertex 28.5638 38.8368 0
      vertex 41.075 40.6 0
    endloop
  endfacet
  facet normal 0 0 -1
    outer loop
      vertex 26.0677 36.0192 0
      vertex -12.4139 33.1679 0
      vertex 26.9685 37.7356 0
    endloop
  endfacet
  facet normal 0 0 -1
    outer loop
      vertex 11 -19.0526 0
      vertex 26.9685 -31.3644 0
      vertex 6.79837 -20.9232 0
    endloop
  endfacet
  facet normal 0 1 0
    outer loop
      vertex -36.075 40.6 0
      vertex -36.075 40.6 2
      vertex 41.075 40.6 0
    endloop
  endfacet
  facet normal 0 1 0
    outer loop
      vertex 41.075 40.6 0
      vertex -36.075 40.6 2
      vertex 41.075 40.6 2
    endloop
  endfacet
  facet normal 0 0 1
    outer loop
      vertex -15.5118 -38.0705 2
      vertex -36.075 -40.6 2
      vertex 41.075 -40.6 2
    endloop
  endfacet
  facet normal 0 0 1
    outer loop
      vertex 24 0 2
      vertex 23.4755 -4.98988 2
      vertex 41.075 -40.6 2
    endloop
  endfacet
  facet normal 0 0 1
    outer loop
      vertex 26.0677 -33.0808 2
      vertex 26.9685 -31.3644 2
      vertex 7.41641 -22.8254 2
    endloop
  endfacet
  facet normal 0 0 1
    outer loop
      vertex -36.075 40.6 2
      vertex -36.075 -40.6 2
      vertex -23.4755 -4.98988 2
    endloop
  endfacet
  facet normal 0 0 1
    outer loop
      vertex -36.075 40.6 2
      vertex -23.4755 -4.98988 2
      vertex -24 0 2
    endloop
  endfacet
  facet normal 0 0 1
    outer loop
      vertex -36.075 40.6 2
      vertex -24 0 2
      vertex -23.4755 4.98988 2
    endloop
  endfacet
  facet normal 0 0 1
    outer loop
      vertex -36.075 40.6 2
      vertex -23.4755 4.98988 2
      vertex -21.9251 9.76168 2
    endloop
  endfacet
  facet normal 0 0 1
    outer loop
      vertex 12 -20.7846 2
      vertex 7.41641 -22.8254 2
      vertex 26.9685 -31.3644 2
    endloop
  endfacet
  facet normal 0 0 1
    outer loop
      vertex -36.075 40.6 2
      vertex -21.9251 9.76168 2
      vertex -19.4164 14.1068 2
    endloop
  endfacet
  facet normal 0 0 1
    outer loop
      vertex -36.075 40.6 2
      vertex -19.4164 14.1068 2
      vertex -16.0591 17.8355 2
    endloop
  endfacet
  facet normal 0 0 1
    outer loop
      vertex -7.41641 22.8254 2
      vertex -36.075 40.6 2
      vertex -12 20.7846 2
    endloop
  endfacet
  facet normal 0 0 1
    outer loop
      vertex 23.4755 4.98988 2
      vertex 24 0 2
      vertex 41.075 -40.6 2
    endloop
  endfacet
  facet normal 0 0 1
    outer loop
      vertex -17.4361 31.2632 2
      vertex -36.075 40.6 2
      vertex -7.41641 22.8254 2
    endloop
  endfacet
  facet normal 0 0 1
    outer loop
      vertex 21.9251 -9.76168 2
      vertex 19.4164 -14.1068 2
      vertex 41.075 -40.6 2
    endloop
  endfacet
  facet normal 0 0 1
    outer loop
      vertex 32.3007 38.3831 2
      vertex 33.5861 36.9321 2
      vertex 41.075 40.6 2
    endloop
  endfacet
  facet normal 0 0 1
    outer loop
      vertex 19.4164 -14.1068 2
      vertex 32.3007 -30.7169 2
      vertex 41.075 -40.6 2
    endloop
  endfacet
  facet normal 0 0 1
    outer loop
      vertex 26.0677 34.0808 2
      vertex 2.50868 23.8685 2
      vertex 7.41641 22.8254 2
    endloop
  endfacet
  facet normal 0 0 1
    outer loop
      vertex 26.9685 32.3644 2
      vertex 7.41641 22.8254 2
      vertex 12 20.7846 2
    endloop
  endfacet
  facet normal 0 0 1
    outer loop
      vertex 23.4755 -4.98988 2
      vertex 21.9251 -9.76168 2
      vertex 41.075 -40.6 2
    endloop
  endfacet
  facet normal 0 0 1
    outer loop
      vertex 28.5638 31.2632 2
      vertex 12 20.7846 2
      vertex 16.0591 17.8355 2
    endloop
  endfacet
  facet normal 0 0 1
    outer loop
      vertex 32.3007 31.7169 2
      vertex 16.0591 17.8355 2
      vertex 19.4164 14.1068 2
    endloop
  endfacet
  facet normal 0 0 1
    outer loop
      vertex 41.075 40.6 2
      vertex 21.9251 9.76168 2
      vertex 41.075 -40.6 2
    endloop
  endfacet
  facet normal 0 0 1
    outer loop
      vertex 41.075 40.6 2
      vertex 19.4164 14.1068 2
      vertex 21.9251 9.76168 2
    endloop
  endfacet
  facet normal 0 0 1
    outer loop
      vertex 21.9251 9.76168 2
      vertex 23.4755 4.98988 2
      vertex 41.075 -40.6 2
    endloop
  endfacet
  facet normal 0 0 1
    outer loop
      vertex 33.5861 -32.1679 2
      vertex 34.05 -34.05 2
      vertex 41.075 -40.6 2
    endloop
  endfacet
  facet normal 0 0 1
    outer loop
      vertex -13.6993 -30.7169 2
      vertex 7.41641 -22.8254 2
      vertex 2.50868 -23.8685 2
    endloop
  endfacet
  facet normal 0 0 1
    outer loop
      vertex -19.9323 -33.0808 2
      vertex -19.0315 -31.3644 2
      vertex -36.075 -40.6 2
    endloop
  endfacet
  facet normal 0 0 1
    outer loop
      vertex -17.4361 -30.2632 2
      vertex -15.5118 -30.0295 2
      vertex -2.50868 -23.8685 2
    endloop
  endfacet
  facet normal 0 0 1
    outer loop
      vertex -12 -20.7846 2
      vertex -36.075 -40.6 2
      vertex -7.41641 -22.8254 2
    endloop
  endfacet
  facet normal 0 0 1
    outer loop
      vertex -16.0591 -17.8355 2
      vertex -36.075 -40.6 2
      vertex -12 -20.7846 2
    endloop
  endfacet
  facet normal 0 0 1
    outer loop
      vertex -19.4164 -14.1068 2
      vertex -36.075 -40.6 2
      vertex -16.0591 -17.8355 2
    endloop
  endfacet
  facet normal 0 0 1
    outer loop
      vertex -21.9251 -9.76168 2
      vertex -36.075 -40.6 2
      vertex -19.4164 -14.1068 2
    endloop
  endfacet
  facet normal 0 0 1
    outer loop
      vertex -23.4755 -4.98988 2
      vertex -36.075 -40.6 2
      vertex -21.9251 -9.76168 2
    endloop
  endfacet
  facet normal 0 0 1
    outer loop
      vertex -15.5118 -38.0705 2
      vertex -17.4361 -37.8368 2
      vertex -36.075 -40.6 2
    endloop
  endfacet
  facet normal 0 0 1
    outer loop
      vertex 26.0677 34.0808 2
      vertex 26.0677 36.0192 2
      vertex -7.41641 22.8254 2
    endloop
  endfacet
  facet normal 0 0 1
    outer loop
      vertex -15.5118 -30.0295 2
      vertex -13.6993 -30.7169 2
      vertex 2.50868 -23.8685 2
    endloop
  endfacet
  facet normal 0 0 1
    outer loop
      vertex -15.5118 -30.0295 2
      vertex 2.50868 -23.8685 2
      vertex -2.50868 -23.8685 2
    endloop
  endfacet
  facet normal 0 0 1
    outer loop
      vertex -7.41641 -22.8254 2
      vertex -36.075 -40.6 2
      vertex -19.0315 -31.3644 2
    endloop
  endfacet
  facet normal 0 0 1
    outer loop
      vertex -7.41641 -22.8254 2
      vertex -17.4361 -30.2632 2
      vertex -2.50868 -23.8685 2
    endloop
  endfacet
  facet normal 0 0 1
    outer loop
      vertex -7.41641 -22.8254 2
      vertex -19.0315 -31.3644 2
      vertex -17.4361 -30.2632 2
    endloop
  endfacet
  facet normal 0 0 1
    outer loop
      vertex -13.6993 -30.7169 2
      vertex -12.4139 -32.1679 2
      vertex 7.41641 -22.8254 2
    endloop
  endfacet
  facet normal 0 0 1
    outer loop
      vertex 28.5638 -37.8368 2
      vertex -12.4139 -32.1679 2
      vertex 41.075 -40.6 2
    endloop
  endfacet
  facet normal 0 0 1
    outer loop
      vertex -12.4139 -32.1679 2
      vertex -11.95 -34.05 2
      vertex 41.075 -40.6 2
    endloop
  endfacet
  facet normal 0 0 1
    outer loop
      vertex -12.4139 -35.9321 2
      vertex -13.6993 -37.3831 2
      vertex 41.075 -40.6 2
    endloop
  endfacet
  facet normal 0 0 1
    outer loop
      vertex -13.6993 -37.3831 2
      vertex -15.5118 -38.0705 2
      vertex 41.075 -40.6 2
    endloop
  endfacet
  facet normal 0 0 1
    outer loop
      vertex -17.4361 -37.8368 2
      vertex -19.0315 -36.7356 2
      vertex -36.075 -40.6 2
    endloop
  endfacet
  facet normal 0 0 1
    outer loop
      vertex -15.5118 39.0705 2
      vertex -13.6993 38.3831 2
      vertex 41.075 40.6 2
    endloop
  endfacet
  facet normal 0 0 1
    outer loop
      vertex -19.9323 -35.0192 2
      vertex -36.075 -40.6 2
      vertex -19.0315 -36.7356 2
    endloop
  endfacet
  facet normal 0 0 1
    outer loop
      vertex -19.9323 36.0192 2
      vertex -36.075 40.6 2
      vertex -19.9323 34.0808 2
    endloop
  endfacet
  facet normal 0 0 1
    outer loop
      vertex -19.0315 37.7356 2
      vertex -36.075 40.6 2
      vertex -19.9323 36.0192 2
    endloop
  endfacet
  facet normal 0 0 1
    outer loop
      vertex -17.4361 38.8368 2
      vertex -36.075 40.6 2
      vertex -19.0315 37.7356 2
    endloop
  endfacet
  facet normal 0 0 1
    outer loop
      vertex -15.5118 39.0705 2
      vertex -36.075 40.6 2
      vertex -17.4361 38.8368 2
    endloop
  endfacet
  facet normal 0 0 1
    outer loop
      vertex -13.6993 38.3831 2
      vertex -12.4139 36.9321 2
      vertex 41.075 40.6 2
    endloop
  endfacet
  facet normal 0 0 1
    outer loop
      vertex 41.075 40.6 2
      vertex -36.075 40.6 2
      vertex -15.5118 39.0705 2
    endloop
  endfacet
  facet normal 0 0 1
    outer loop
      vertex -12.4139 36.9321 2
      vertex -11.95 35.05 2
      vertex 41.075 40.6 2
    endloop
  endfacet
  facet normal 0 0 1
    outer loop
      vertex -11.95 35.05 2
      vertex -12.4139 33.1679 2
      vertex 41.075 40.6 2
    endloop
  endfacet
  facet normal 0 0 1
    outer loop
      vertex -15.5118 31.0295 2
      vertex -17.4361 31.2632 2
      vertex -7.41641 22.8254 2
    endloop
  endfacet
  facet normal 0 0 1
    outer loop
      vertex 26.0677 36.0192 2
      vertex -12.4139 33.1679 2
      vertex -7.41641 22.8254 2
    endloop
  endfacet
  facet normal 0 0 1
    outer loop
      vertex -12.4139 33.1679 2
      vertex -13.6993 31.7169 2
      vertex -7.41641 22.8254 2
    endloop
  endfacet
  facet normal 0 0 1
    outer loop
      vertex -13.6993 31.7169 2
      vertex -15.5118 31.0295 2
      vertex -7.41641 22.8254 2
    endloop
  endfacet
  facet normal 0 0 1
    outer loop
      vertex 28.5638 -37.8368 2
      vertex 26.9685 -36.7356 2
      vertex -12.4139 -32.1679 2
    endloop
  endfacet
  facet normal 0 0 1
    outer loop
      vertex -19.0315 32.3644 2
      vertex -36.075 40.6 2
      vertex -17.4361 31.2632 2
    endloop
  endfacet
  facet normal 0 0 1
    outer loop
      vertex -19.9323 34.0808 2
      vertex -36.075 40.6 2
      vertex -19.0315 32.3644 2
    endloop
  endfacet
  facet normal 0 0 1
    outer loop
      vertex 7.41641 -22.8254 2
      vertex -12.4139 -32.1679 2
      vertex 26.0677 -35.0192 2
    endloop
  endfacet
  facet normal 0 0 1
    outer loop
      vertex 28.5638 -30.2632 2
      vertex 30.4882 -30.0295 2
      vertex 16.0591 -17.8355 2
    endloop
  endfacet
  facet normal 0 0 1
    outer loop
      vertex 7.41641 -22.8254 2
      vertex 26.0677 -35.0192 2
      vertex 26.0677 -33.0808 2
    endloop
  endfacet
  facet normal 0 0 1
    outer loop
      vertex 26.9685 -31.3644 2
      vertex 28.5638 -30.2632 2
      vertex 12 -20.7846 2
    endloop
  endfacet
  facet normal 0 0 1
    outer loop
      vertex 16.0591 -17.8355 2
      vertex 12 -20.7846 2
      vertex 28.5638 -30.2632 2
    endloop
  endfacet
  facet normal 0 0 1
    outer loop
      vertex 32.3007 -30.7169 2
      vertex 33.5861 -32.1679 2
      vertex 41.075 -40.6 2
    endloop
  endfacet
  facet normal 0 0 1
    outer loop
      vertex 30.4882 39.0705 2
      vertex 32.3007 38.3831 2
      vertex 41.075 40.6 2
    endloop
  endfacet
  facet normal 0 0 1
    outer loop
      vertex -19.9323 -35.0192 2
      vertex -19.9323 -33.0808 2
      vertex -36.075 -40.6 2
    endloop
  endfacet
  facet normal 0 0 1
    outer loop
      vertex -11.95 -34.05 2
      vertex -12.4139 -35.9321 2
      vertex 41.075 -40.6 2
    endloop
  endfacet
  facet normal 0 0 1
    outer loop
      vertex 34.05 35.05 2
      vertex 33.5861 33.1679 2
      vertex 41.075 40.6 2
    endloop
  endfacet
  facet normal 0 0 1
    outer loop
      vertex 32.3007 -37.3831 2
      vertex 30.4882 -38.0705 2
      vertex 41.075 -40.6 2
    endloop
  endfacet
  facet normal 0 0 1
    outer loop
      vertex 30.4882 -38.0705 2
      vertex 28.5638 -37.8368 2
      vertex 41.075 -40.6 2
    endloop
  endfacet
  facet normal 0 0 1
    outer loop
      vertex 26.9685 32.3644 2
      vertex 26.0677 34.0808 2
      vertex 7.41641 22.8254 2
    endloop
  endfacet
  facet normal 0 0 1
    outer loop
      vertex 26.0677 -35.0192 2
      vertex -12.4139 -32.1679 2
      vertex 26.9685 -36.7356 2
    endloop
  endfacet
  facet normal 0 0 1
    outer loop
      vertex 26.9685 37.7356 2
      vertex -12.4139 33.1679 2
      vertex 26.0677 36.0192 2
    endloop
  endfacet
  facet normal 0 0 1
    outer loop
      vertex 28.5638 38.8368 2
      vertex -12.4139 33.1679 2
      vertex 26.9685 37.7356 2
    endloop
  endfacet
  facet normal 0 0 1
    outer loop
      vertex 41.075 40.6 2
      vertex -12.4139 33.1679 2
      vertex 28.5638 38.8368 2
    endloop
  endfacet
  facet normal 0 0 1
    outer loop
      vertex 41.075 40.6 2
      vertex 28.5638 38.8368 2
      vertex 30.4882 39.0705 2
    endloop
  endfacet
  facet normal 0 0 1
    outer loop
      vertex 33.5861 36.9321 2
      vertex 34.05 35.05 2
      vertex 41.075 40.6 2
    endloop
  endfacet
  facet normal 0 0 1
    outer loop
      vertex 26.0677 34.0808 2
      vertex -2.50868 23.8685 2
      vertex 2.50868 23.8685 2
    endloop
  endfacet
  facet normal 0 0 1
    outer loop
      vertex 28.5638 31.2632 2
      vertex 26.9685 32.3644 2
      vertex 12 20.7846 2
    endloop
  endfacet
  facet normal 0 0 1
    outer loop
      vertex 41.075 40.6 2
      vertex 33.5861 33.1679 2
      vertex 19.4164 14.1068 2
    endloop
  endfacet
  facet normal 0 0 1
    outer loop
      vertex 33.5861 33.1679 2
      vertex 32.3007 31.7169 2
      vertex 19.4164 14.1068 2
    endloop
  endfacet
  facet normal 0 0 1
    outer loop
      vertex 30.4882 31.0295 2
      vertex 28.5638 31.2632 2
      vertex 16.0591 17.8355 2
    endloop
  endfacet
  facet normal 0 0 1
    outer loop
      vertex 32.3007 31.7169 2
      vertex 30.4882 31.0295 2
      vertex 16.0591 17.8355 2
    endloop
  endfacet
  facet normal 0 0 1
    outer loop
      vertex 26.0677 34.0808 2
      vertex -7.41641 22.8254 2
      vertex -2.50868 23.8685 2
    endloop
  endfacet
  facet normal 0 0 1
    outer loop
      vertex 34.05 -34.05 2
      vertex 33.5861 -35.9321 2
      vertex 41.075 -40.6 2
    endloop
  endfacet
  facet normal 0 0 1
    outer loop
      vertex 33.5861 -35.9321 2
      vertex 32.3007 -37.3831 2
      vertex 41.075 -40.6 2
    endloop
  endfacet
  facet normal 0 0 1
    outer loop
      vertex -16.0591 17.8355 2
      vertex -12 20.7846 2
      vertex -36.075 40.6 2
    endloop
  endfacet
  facet normal 0 0 1
    outer loop
      vertex 19.4164 -14.1068 2
      vertex 30.4882 -30.0295 2
      vertex 32.3007 -30.7169 2
    endloop
  endfacet
  facet normal 0 0 1
    outer loop
      vertex 19.4164 -14.1068 2
      vertex 16.0591 -17.8355 2
      vertex 30.4882 -30.0295 2
    endloop
  endfacet
  facet normal 1 0 0
    outer loop
      vertex 41.075 -40.6 2
      vertex 41.075 -40.6 0
      vertex 41.075 40.6 0
    endloop
  endfacet
  facet normal 1 0 0
    outer loop
      vertex 41.075 40.6 2
      vertex 41.075 -40.6 2
      vertex 41.075 40.6 0
    endloop
  endfacet
  facet normal 0.994522 -0.104529 0
    outer loop
      vertex -21.5192 4.57406 0
      vertex -21.5192 4.57406 92.9
      vertex -22 0 92.9
    endloop
  endfacet
  facet normal 0.994522 -0.104529 0
    outer loop
      vertex -22 0 0
      vertex -21.5192 4.57406 0
      vertex -22 0 92.9
    endloop
  endfacet
  facet normal 0.994522 0.104529 0
    outer loop
      vertex -22 0 92.9
      vertex -21.5192 -4.57406 92.9
      vertex -21.5192 -4.57406 0
    endloop
  endfacet
  facet normal 0.994522 0.104529 0
    outer loop
      vertex -22 0 0
      vertex -22 0 92.9
      vertex -21.5192 -4.57406 0
    endloop
  endfacet
  facet normal 0.951057 -0.309017 0
    outer loop
      vertex -20.098 8.94821 0
      vertex -20.098 8.94821 92.9
      vertex -21.5192 4.57406 92.9
    endloop
  endfacet
  facet normal 0.951057 -0.309017 0
    outer loop
      vertex -21.5192 4.57406 0
      vertex -20.098 8.94821 0
      vertex -21.5192 4.57406 92.9
    endloop
  endfacet
  facet normal 0.866025 -0.5 0
    outer loop
      vertex -17.7984 12.9313 0
      vertex -17.7984 12.9313 92.9
      vertex -20.098 8.94821 92.9
    endloop
  endfacet
  facet normal 0.866025 -0.5 0
    outer loop
      vertex -20.098 8.94821 0
      vertex -17.7984 12.9313 0
      vertex -20.098 8.94821 92.9
    endloop
  endfacet
  facet normal 0.743145 -0.669131 0
    outer loop
      vertex -14.7209 16.3492 0
      vertex -14.7209 16.3492 92.9
      vertex -17.7984 12.9313 92.9
    endloop
  endfacet
  facet normal 0.743145 -0.669131 0
    outer loop
      vertex -17.7984 12.9313 0
      vertex -14.7209 16.3492 0
      vertex -17.7984 12.9313 92.9
    endloop
  endfacet
  facet normal 0.587785 -0.809017 0
    outer loop
      vertex -11 19.0526 0
      vertex -11 19.0526 92.9
      vertex -14.7209 16.3492 92.9
    endloop
  endfacet
  facet normal 0.587785 -0.809017 0
    outer loop
      vertex -14.7209 16.3492 0
      vertex -11 19.0526 0
      vertex -14.7209 16.3492 92.9
    endloop
  endfacet
  facet normal 0.406737 -0.913545 0
    outer loop
      vertex -6.79837 20.9232 0
      vertex -6.79837 20.9232 92.9
      vertex -11 19.0526 92.9
    endloop
  endfacet
  facet normal 0.406737 -0.913545 0
    outer loop
      vertex -11 19.0526 0
      vertex -6.79837 20.9232 0
      vertex -11 19.0526 92.9
    endloop
  endfacet
  facet normal 0.207912 -0.978148 0
    outer loop
      vertex -2.29963 21.8795 0
      vertex -2.29963 21.8795 92.9
      vertex -6.79837 20.9232 92.9
    endloop
  endfacet
  facet normal 0.207912 -0.978148 0
    outer loop
      vertex -6.79837 20.9232 0
      vertex -2.29963 21.8795 0
      vertex -6.79837 20.9232 92.9
    endloop
  endfacet
  facet normal 0 -1 0
    outer loop
      vertex 2.29963 21.8795 0
      vertex 2.29963 21.8795 92.9
      vertex -2.29963 21.8795 92.9
    endloop
  endfacet
  facet normal 0 -1 0
    outer loop
      vertex -2.29963 21.8795 0
      vertex 2.29963 21.8795 0
      vertex -2.29963 21.8795 92.9
    endloop
  endfacet
  facet normal -0.207912 -0.978148 0
    outer loop
      vertex 6.79837 20.9232 0
      vertex 6.79837 20.9232 92.9
      vertex 2.29963 21.8795 92.9
    endloop
  endfacet
  facet normal -0.207912 -0.978148 0
    outer loop
      vertex 2.29963 21.8795 0
      vertex 6.79837 20.9232 0
      vertex 2.29963 21.8795 92.9
    endloop
  endfacet
  facet normal -0.406737 -0.913545 0
    outer loop
      vertex 11 19.0526 0
      vertex 11 19.0526 92.9
      vertex 6.79837 20.9232 92.9
    endloop
  endfacet
  facet normal -0.406737 -0.913545 0
    outer loop
      vertex 6.79837 20.9232 0
      vertex 11 19.0526 0
      vertex 6.79837 20.9232 92.9
    endloop
  endfacet
  facet normal -0.587785 -0.809017 0
    outer loop
      vertex 14.7209 16.3492 0
      vertex 14.7209 16.3492 92.9
      vertex 11 19.0526 92.9
    endloop
  endfacet
  facet normal -0.587785 -0.809017 0
    outer loop
      vertex 11 19.0526 0
      vertex 14.7209 16.3492 0
      vertex 11 19.0526 92.9
    endloop
  endfacet
  facet normal -0.743145 -0.669131 0
    outer loop
      vertex 17.7984 12.9313 92.9
      vertex 14.7209 16.3492 92.9
      vertex 17.7984 12.9313 0
    endloop
  endfacet
  facet normal -0.743145 -0.669131 0
    outer loop
      vertex 17.7984 12.9313 0
      vertex 14.7209 16.3492 92.9
      vertex 14.7209 16.3492 0
    endloop
  endfacet
  facet normal -0.866025 -0.5 0
    outer loop
      vertex 20.098 8.94821 92.9
      vertex 17.7984 12.9313 92.9
      vertex 20.098 8.94821 0
    endloop
  endfacet
  facet normal -0.866025 -0.5 0
    outer loop
      vertex 20.098 8.94821 0
      vertex 17.7984 12.9313 92.9
      vertex 17.7984 12.9313 0
    endloop
  endfacet
  facet normal -0.951057 -0.309017 0
    outer loop
      vertex 21.5192 4.57406 92.9
      vertex 20.098 8.94821 92.9
      vertex 21.5192 4.57406 0
    endloop
  endfacet
  facet normal -0.951057 -0.309017 0
    outer loop
      vertex 21.5192 4.57406 0
      vertex 20.098 8.94821 92.9
      vertex 20.098 8.94821 0
    endloop
  endfacet
  facet normal -0.994522 -0.104529 0
    outer loop
      vertex 22 0 92.9
      vertex 21.5192 4.57406 92.9
      vertex 22 0 0
    endloop
  endfacet
  facet normal -0.994522 -0.104529 0
    outer loop
      vertex 22 0 0
      vertex 21.5192 4.57406 92.9
      vertex 21.5192 4.57406 0
    endloop
  endfacet
  facet normal -0.994522 0.104529 0
    outer loop
      vertex 22 0 92.9
      vertex 22 0 0
      vertex 21.5192 -4.57406 92.9
    endloop
  endfacet
  facet normal -0.994522 0.104529 0
    outer loop
      vertex 21.5192 -4.57406 92.9
      vertex 22 0 0
      vertex 21.5192 -4.57406 0
    endloop
  endfacet
  facet normal -0.951057 0.309017 0
    outer loop
      vertex 21.5192 -4.57406 92.9
      vertex 21.5192 -4.57406 0
      vertex 20.098 -8.94821 92.9
    endloop
  endfacet
  facet normal -0.951057 0.309017 0
    outer loop
      vertex 20.098 -8.94821 92.9
      vertex 21.5192 -4.57406 0
      vertex 20.098 -8.94821 0
    endloop
  endfacet
  facet normal -0.866025 0.5 0
    outer loop
      vertex 20.098 -8.94821 92.9
      vertex 20.098 -8.94821 0
      vertex 17.7984 -12.9313 92.9
    endloop
  endfacet
  facet normal -0.866025 0.5 0
    outer loop
      vertex 17.7984 -12.9313 92.9
      vertex 20.098 -8.94821 0
      vertex 17.7984 -12.9313 0
    endloop
  endfacet
  facet normal -0.743145 0.669131 0
    outer loop
      vertex 17.7984 -12.9313 92.9
      vertex 17.7984 -12.9313 0
      vertex 14.7209 -16.3492 92.9
    endloop
  endfacet
  facet normal -0.743145 0.669131 0
    outer loop
      vertex 14.7209 -16.3492 92.9
      vertex 17.7984 -12.9313 0
      vertex 14.7209 -16.3492 0
    endloop
  endfacet
  facet normal -0.587785 0.809017 0
    outer loop
      vertex 14.7209 -16.3492 92.9
      vertex 14.7209 -16.3492 0
      vertex 11 -19.0526 92.9
    endloop
  endfacet
  facet normal -0.587785 0.809017 0
    outer loop
      vertex 11 -19.0526 92.9
      vertex 14.7209 -16.3492 0
      vertex 11 -19.0526 0
    endloop
  endfacet
  facet normal -0.406737 0.913545 0
    outer loop
      vertex 11 -19.0526 92.9
      vertex 11 -19.0526 0
      vertex 6.79837 -20.9232 92.9
    endloop
  endfacet
  facet normal -0.406737 0.913545 0
    outer loop
      vertex 6.79837 -20.9232 92.9
      vertex 11 -19.0526 0
      vertex 6.79837 -20.9232 0
    endloop
  endfacet
  facet normal -0.207912 0.978148 0
    outer loop
      vertex 6.79837 -20.9232 92.9
      vertex 6.79837 -20.9232 0
      vertex 2.29963 -21.8795 92.9
    endloop
  endfacet
  facet normal -0.207912 0.978148 0
    outer loop
      vertex 2.29963 -21.8795 92.9
      vertex 6.79837 -20.9232 0
      vertex 2.29963 -21.8795 0
    endloop
  endfacet
  facet normal 0 1 0
    outer loop
      vertex 2.29963 -21.8795 92.9
      vertex 2.29963 -21.8795 0
      vertex -2.29963 -21.8795 92.9
    endloop
  endfacet
  facet normal 0 1 0
    outer loop
      vertex -2.29963 -21.8795 92.9
      vertex 2.29963 -21.8795 0
      vertex -2.29963 -21.8795 0
    endloop
  endfacet
  facet normal 0.207912 0.978148 0
    outer loop
      vertex -2.29963 -21.8795 92.9
      vertex -2.29963 -21.8795 0
      vertex -6.79837 -20.9232 92.9
    endloop
  endfacet
  facet normal 0.207912 0.978148 0
    outer loop
      vertex -6.79837 -20.9232 92.9
      vertex -2.29963 -21.8795 0
      vertex -6.79837 -20.9232 0
    endloop
  endfacet
  facet normal 0.406737 0.913545 0
    outer loop
      vertex -6.79837 -20.9232 92.9
      vertex -6.79837 -20.9232 0
      vertex -11 -19.0526 92.9
    endloop
  endfacet
  facet normal 0.406737 0.913545 0
    outer loop
      vertex -11 -19.0526 92.9
      vertex -6.79837 -20.9232 0
      vertex -11 -19.0526 0
    endloop
  endfacet
  facet normal 0.587785 0.809017 0
    outer loop
      vertex -11 -19.0526 92.9
      vertex -11 -19.0526 0
      vertex -14.7209 -16.3492 92.9
    endloop
  endfacet
  facet normal 0.587785 0.809017 0
    outer loop
      vertex -14.7209 -16.3492 92.9
      vertex -11 -19.0526 0
      vertex -14.7209 -16.3492 0
    endloop
  endfacet
  facet normal 0.743145 0.669131 0
    outer loop
      vertex -17.7984 -12.9313 92.9
      vertex -14.7209 -16.3492 92.9
      vertex -14.7209 -16.3492 0
    endloop
  endfacet
  facet normal 0.743145 0.669131 0
    outer loop
      vertex -17.7984 -12.9313 0
      vertex -17.7984 -12.9313 92.9
      vertex -14.7209 -16.3492 0
    endloop
  endfacet
  facet normal 0.866025 0.5 0
    outer loop
      vertex -20.098 -8.94821 92.9
      vertex -17.7984 -12.9313 92.9
      vertex -17.7984 -12.9313 0
    endloop
  endfacet
  facet normal 0.866025 0.5 0
    outer loop
      vertex -20.098 -8.94821 0
      vertex -20.098 -8.94821 92.9
      vertex -17.7984 -12.9313 0
    endloop
  endfacet
  facet normal 0.951057 0.309017 0
    outer loop
      vertex -21.5192 -4.57406 92.9
      vertex -20.098 -8.94821 92.9
      vertex -20.098 -8.94821 0
    endloop
  endfacet
  facet normal 0.951057 0.309017 0
    outer loop
      vertex -21.5192 -4.57406 0
      vertex -21.5192 -4.57406 92.9
      vertex -20.098 -8.94821 0
    endloop
  endfacet
  facet normal 1 0 0
    outer loop
      vertex -19.9323 -33.0808 0
      vertex -19.9323 -33.0808 2
      vertex -19.9323 -35.0192 2
    endloop
  endfacet
  facet normal 1 0 0
    outer loop
      vertex -19.9323 -35.0192 0
      vertex -19.9323 -33.0808 0
      vertex -19.9323 -35.0192 2
    endloop
  endfacet
  facet normal 0.885456 -0.464723 0
    outer loop
      vertex -19.0315 -31.3644 0
      vertex -19.0315 -31.3644 2
      vertex -19.9323 -33.0808 2
    endloop
  endfacet
  facet normal 0.885456 -0.464723 0
    outer loop
      vertex -19.9323 -33.0808 0
      vertex -19.0315 -31.3644 0
      vertex -19.9323 -33.0808 2
    endloop
  endfacet
  facet normal 0.568065 -0.822984 0
    outer loop
      vertex -17.4361 -30.2632 0
      vertex -17.4361 -30.2632 2
      vertex -19.0315 -31.3644 2
    endloop
  endfacet
  facet normal 0.568065 -0.822984 0
    outer loop
      vertex -19.0315 -31.3644 0
      vertex -17.4361 -30.2632 0
      vertex -19.0315 -31.3644 2
    endloop
  endfacet
  facet normal 0.120537 -0.992709 0
    outer loop
      vertex -15.5118 -30.0295 0
      vertex -15.5118 -30.0295 2
      vertex -17.4361 -30.2632 2
    endloop
  endfacet
  facet normal 0.120537 -0.992709 0
    outer loop
      vertex -17.4361 -30.2632 0
      vertex -15.5118 -30.0295 0
      vertex -17.4361 -30.2632 2
    endloop
  endfacet
  facet normal -0.354605 -0.935016 0
    outer loop
      vertex -13.6993 -30.7169 0
      vertex -13.6993 -30.7169 2
      vertex -15.5118 -30.0295 2
    endloop
  endfacet
  facet normal -0.354605 -0.935016 0
    outer loop
      vertex -15.5118 -30.0295 0
      vertex -13.6993 -30.7169 0
      vertex -15.5118 -30.0295 2
    endloop
  endfacet
  facet normal -0.748511 -0.663123 0
    outer loop
      vertex -12.4139 -32.1679 2
      vertex -13.6993 -30.7169 2
      vertex -12.4139 -32.1679 0
    endloop
  endfacet
  facet normal -0.748511 -0.663123 0
    outer loop
      vertex -12.4139 -32.1679 0
      vertex -13.6993 -30.7169 2
      vertex -13.6993 -30.7169 0
    endloop
  endfacet
  facet normal -0.970942 -0.239316 0
    outer loop
      vertex -11.95 -34.05 2
      vertex -12.4139 -32.1679 2
      vertex -11.95 -34.05 0
    endloop
  endfacet
  facet normal -0.970942 -0.239316 0
    outer loop
      vertex -11.95 -34.05 0
      vertex -12.4139 -32.1679 2
      vertex -12.4139 -32.1679 0
    endloop
  endfacet
  facet normal -0.970942 0.239316 0
    outer loop
      vertex -11.95 -34.05 2
      vertex -11.95 -34.05 0
      vertex -12.4139 -35.9321 2
    endloop
  endfacet
  facet normal -0.970942 0.239316 0
    outer loop
      vertex -12.4139 -35.9321 2
      vertex -11.95 -34.05 0
      vertex -12.4139 -35.9321 0
    endloop
  endfacet
  facet normal -0.748511 0.663123 0
    outer loop
      vertex -12.4139 -35.9321 2
      vertex -12.4139 -35.9321 0
      vertex -13.6993 -37.3831 2
    endloop
  endfacet
  facet normal -0.748511 0.663123 0
    outer loop
      vertex -13.6993 -37.3831 2
      vertex -12.4139 -35.9321 0
      vertex -13.6993 -37.3831 0
    endloop
  endfacet
  facet normal -0.354605 0.935016 0
    outer loop
      vertex -13.6993 -37.3831 2
      vertex -13.6993 -37.3831 0
      vertex -15.5118 -38.0705 2
    endloop
  endfacet
  facet normal -0.354605 0.935016 0
    outer loop
      vertex -15.5118 -38.0705 2
      vertex -13.6993 -37.3831 0
      vertex -15.5118 -38.0705 0
    endloop
  endfacet
  facet normal 0.120537 0.992709 0
    outer loop
      vertex -15.5118 -38.0705 2
      vertex -15.5118 -38.0705 0
      vertex -17.4361 -37.8368 2
    endloop
  endfacet
  facet normal 0.120537 0.992709 0
    outer loop
      vertex -17.4361 -37.8368 2
      vertex -15.5118 -38.0705 0
      vertex -17.4361 -37.8368 0
    endloop
  endfacet
  facet normal 0.568065 0.822984 0
    outer loop
      vertex -17.4361 -37.8368 2
      vertex -17.4361 -37.8368 0
      vertex -19.0315 -36.7356 2
    endloop
  endfacet
  facet normal 0.568065 0.822984 0
    outer loop
      vertex -19.0315 -36.7356 2
      vertex -17.4361 -37.8368 0
      vertex -19.0315 -36.7356 0
    endloop
  endfacet
  facet normal 0.885456 0.464723 0
    outer loop
      vertex -19.9323 -35.0192 2
      vertex -19.0315 -36.7356 2
      vertex -19.0315 -36.7356 0
    endloop
  endfacet
  facet normal 0.885456 0.464723 0
    outer loop
      vertex -19.9323 -35.0192 0
      vertex -19.9323 -35.0192 2
      vertex -19.0315 -36.7356 0
    endloop
  endfacet
  facet normal 0.885456 -0.464723 0
    outer loop
      vertex -19.0315 37.7356 0
      vertex -19.0315 37.7356 2
      vertex -19.9323 36.0192 2
    endloop
  endfacet
  facet normal 0.885456 -0.464723 0
    outer loop
      vertex -19.9323 36.0192 0
      vertex -19.0315 37.7356 0
      vertex -19.9323 36.0192 2
    endloop
  endfacet
  facet normal 1 0 0
    outer loop
      vertex -19.9323 36.0192 0
      vertex -19.9323 36.0192 2
      vertex -19.9323 34.0808 2
    endloop
  endfacet
  facet normal 1 0 0
    outer loop
      vertex -19.9323 34.0808 0
      vertex -19.9323 36.0192 0
      vertex -19.9323 34.0808 2
    endloop
  endfacet
  facet normal 0.568065 -0.822984 0
    outer loop
      vertex -17.4361 38.8368 0
      vertex -17.4361 38.8368 2
      vertex -19.0315 37.7356 2
    endloop
  endfacet
  facet normal 0.568065 -0.822984 0
    outer loop
      vertex -19.0315 37.7356 0
      vertex -17.4361 38.8368 0
      vertex -19.0315 37.7356 2
    endloop
  endfacet
  facet normal 0.120537 -0.992709 0
    outer loop
      vertex -15.5118 39.0705 0
      vertex -15.5118 39.0705 2
      vertex -17.4361 38.8368 2
    endloop
  endfacet
  facet normal 0.120537 -0.992709 0
    outer loop
      vertex -17.4361 38.8368 0
      vertex -15.5118 39.0705 0
      vertex -17.4361 38.8368 2
    endloop
  endfacet
  facet normal -0.354605 -0.935016 0
    outer loop
      vertex -13.6993 38.3831 0
      vertex -13.6993 38.3831 2
      vertex -15.5118 39.0705 2
    endloop
  endfacet
  facet normal -0.354605 -0.935016 0
    outer loop
      vertex -15.5118 39.0705 0
      vertex -13.6993 38.3831 0
      vertex -15.5118 39.0705 2
    endloop
  endfacet
  facet normal -0.748511 -0.663123 0
    outer loop
      vertex -12.4139 36.9321 2
      vertex -13.6993 38.3831 2
      vertex -12.4139 36.9321 0
    endloop
  endfacet
  facet normal -0.748511 -0.663123 0
    outer loop
      vertex -12.4139 36.9321 0
      vertex -13.6993 38.3831 2
      vertex -13.6993 38.3831 0
    endloop
  endfacet
  facet normal -0.970942 -0.239316 0
    outer loop
      vertex -11.95 35.05 2
      vertex -12.4139 36.9321 2
      vertex -11.95 35.05 0
    endloop
  endfacet
  facet normal -0.970942 -0.239316 0
    outer loop
      vertex -11.95 35.05 0
      vertex -12.4139 36.9321 2
      vertex -12.4139 36.9321 0
    endloop
  endfacet
  facet normal -0.970942 0.239316 0
    outer loop
      vertex -11.95 35.05 2
      vertex -11.95 35.05 0
      vertex -12.4139 33.1679 2
    endloop
  endfacet
  facet normal -0.970942 0.239316 0
    outer loop
      vertex -12.4139 33.1679 2
      vertex -11.95 35.05 0
      vertex -12.4139 33.1679 0
    endloop
  endfacet
  facet normal -0.748511 0.663123 0
    outer loop
      vertex -12.4139 33.1679 2
      vertex -12.4139 33.1679 0
      vertex -13.6993 31.7169 2
    endloop
  endfacet
  facet normal -0.748511 0.663123 0
    outer loop
      vertex -13.6993 31.7169 2
      vertex -12.4139 33.1679 0
      vertex -13.6993 31.7169 0
    endloop
  endfacet
  facet normal -0.354605 0.935016 0
    outer loop
      vertex -13.6993 31.7169 2
      vertex -13.6993 31.7169 0
      vertex -15.5118 31.0295 2
    endloop
  endfacet
  facet normal -0.354605 0.935016 0
    outer loop
      vertex -15.5118 31.0295 2
      vertex -13.6993 31.7169 0
      vertex -15.5118 31.0295 0
    endloop
  endfacet
  facet normal 0.120537 0.992709 0
    outer loop
      vertex -15.5118 31.0295 2
      vertex -15.5118 31.0295 0
      vertex -17.4361 31.2632 2
    endloop
  endfacet
  facet normal 0.120537 0.992709 0
    outer loop
      vertex -17.4361 31.2632 2
      vertex -15.5118 31.0295 0
      vertex -17.4361 31.2632 0
    endloop
  endfacet
  facet normal 0.568065 0.822984 0
    outer loop
      vertex -17.4361 31.2632 2
      vertex -17.4361 31.2632 0
      vertex -19.0315 32.3644 2
    endloop
  endfacet
  facet normal 0.568065 0.822984 0
    outer loop
      vertex -19.0315 32.3644 2
      vertex -17.4361 31.2632 0
      vertex -19.0315 32.3644 0
    endloop
  endfacet
  facet normal 0.885456 0.464723 0
    outer loop
      vertex -19.9323 34.0808 2
      vertex -19.0315 32.3644 2
      vertex -19.0315 32.3644 0
    endloop
  endfacet
  facet normal 0.885456 0.464723 0
    outer loop
      vertex -19.9323 34.0808 0
      vertex -19.9323 34.0808 2
      vertex -19.0315 32.3644 0
    endloop
  endfacet
  facet normal 1 0 0
    outer loop
      vertex 26.0677 -33.0808 0
      vertex 26.0677 -33.0808 2
      vertex 26.0677 -35.0192 2
    endloop
  endfacet
  facet normal 1 0 0
    outer loop
      vertex 26.0677 -35.0192 0
      vertex 26.0677 -33.0808 0
      vertex 26.0677 -35.0192 2
    endloop
  endfacet
  facet normal 0.885456 -0.464723 0
    outer loop
      vertex 26.9685 -31.3644 0
      vertex 26.9685 -31.3644 2
      vertex 26.0677 -33.0808 2
    endloop
  endfacet
  facet normal 0.885456 -0.464723 0
    outer loop
      vertex 26.0677 -33.0808 0
      vertex 26.9685 -31.3644 0
      vertex 26.0677 -33.0808 2
    endloop
  endfacet
  facet normal 0.568065 -0.822984 0
    outer loop
      vertex 28.5638 -30.2632 0
      vertex 28.5638 -30.2632 2
      vertex 26.9685 -31.3644 2
    endloop
  endfacet
  facet normal 0.568065 -0.822984 0
    outer loop
      vertex 26.9685 -31.3644 0
      vertex 28.5638 -30.2632 0
      vertex 26.9685 -31.3644 2
    endloop
  endfacet
  facet normal 0.120537 -0.992709 0
    outer loop
      vertex 30.4882 -30.0295 0
      vertex 30.4882 -30.0295 2
      vertex 28.5638 -30.2632 2
    endloop
  endfacet
  facet normal 0.120537 -0.992709 0
    outer loop
      vertex 28.5638 -30.2632 0
      vertex 30.4882 -30.0295 0
      vertex 28.5638 -30.2632 2
    endloop
  endfacet
  facet normal -0.354605 -0.935016 0
    outer loop
      vertex 32.3007 -30.7169 0
      vertex 32.3007 -30.7169 2
      vertex 30.4882 -30.0295 2
    endloop
  endfacet
  facet normal -0.354605 -0.935016 0
    outer loop
      vertex 30.4882 -30.0295 0
      vertex 32.3007 -30.7169 0
      vertex 30.4882 -30.0295 2
    endloop
  endfacet
  facet normal -0.748511 -0.663123 0
    outer loop
      vertex 33.5861 -32.1679 2
      vertex 32.3007 -30.7169 2
      vertex 33.5861 -32.1679 0
    endloop
  endfacet
  facet normal -0.748511 -0.663123 0
    outer loop
      vertex 33.5861 -32.1679 0
      vertex 32.3007 -30.7169 2
      vertex 32.3007 -30.7169 0
    endloop
  endfacet
  facet normal -0.970942 -0.239316 0
    outer loop
      vertex 34.05 -34.05 2
      vertex 33.5861 -32.1679 2
      vertex 34.05 -34.05 0
    endloop
  endfacet
  facet normal -0.970942 -0.239316 0
    outer loop
      vertex 34.05 -34.05 0
      vertex 33.5861 -32.1679 2
      vertex 33.5861 -32.1679 0
    endloop
  endfacet
  facet normal -0.970942 0.239316 0
    outer loop
      vertex 34.05 -34.05 2
      vertex 34.05 -34.05 0
      vertex 33.5861 -35.9321 2
    endloop
  endfacet
  facet normal -0.970942 0.239316 0
    outer loop
      vertex 33.5861 -35.9321 2
      vertex 34.05 -34.05 0
      vertex 33.5861 -35.9321 0
    endloop
  endfacet
  facet normal -0.748511 0.663123 0
    outer loop
      vertex 33.5861 -35.9321 2
      vertex 33.5861 -35.9321 0
      vertex 32.3007 -37.3831 2
    endloop
  endfacet
  facet normal -0.748511 0.663123 0
    outer loop
      vertex 32.3007 -37.3831 2
      vertex 33.5861 -35.9321 0
      vertex 32.3007 -37.3831 0
    endloop
  endfacet
  facet normal -0.354605 0.935016 0
    outer loop
      vertex 32.3007 -37.3831 2
      vertex 32.3007 -37.3831 0
      vertex 30.4882 -38.0705 2
    endloop
  endfacet
  facet normal -0.354605 0.935016 0
    outer loop
      vertex 30.4882 -38.0705 2
      vertex 32.3007 -37.3831 0
      vertex 30.4882 -38.0705 0
    endloop
  endfacet
  facet normal 0.120537 0.992709 0
    outer loop
      vertex 30.4882 -38.0705 2
      vertex 30.4882 -38.0705 0
      vertex 28.5638 -37.8368 2
    endloop
  endfacet
  facet normal 0.120537 0.992709 0
    outer loop
      vertex 28.5638 -37.8368 2
      vertex 30.4882 -38.0705 0
      vertex 28.5638 -37.8368 0
    endloop
  endfacet
  facet normal 0.568065 0.822984 0
    outer loop
      vertex 28.5638 -37.8368 2
      vertex 28.5638 -37.8368 0
      vertex 26.9685 -36.7356 2
    endloop
  endfacet
  facet normal 0.568065 0.822984 0
    outer loop
      vertex 26.9685 -36.7356 2
      vertex 28.5638 -37.8368 0
      vertex 26.9685 -36.7356 0
    endloop
  endfacet
  facet normal 0.885456 0.464723 0
    outer loop
      vertex 26.0677 -35.0192 2
      vertex 26.9685 -36.7356 2
      vertex 26.9685 -36.7356 0
    endloop
  endfacet
  facet normal 0.885456 0.464723 0
    outer loop
      vertex 26.0677 -35.0192 0
      vertex 26.0677 -35.0192 2
      vertex 26.9685 -36.7356 0
    endloop
  endfacet
  facet normal 0.885456 -0.464723 0
    outer loop
      vertex 26.9685 37.7356 0
      vertex 26.9685 37.7356 2
      vertex 26.0677 36.0192 2
    endloop
  endfacet
  facet normal 0.885456 -0.464723 0
    outer loop
      vertex 26.0677 36.0192 0
      vertex 26.9685 37.7356 0
      vertex 26.0677 36.0192 2
    endloop
  endfacet
  facet normal 1 0 0
    outer loop
      vertex 26.0677 36.0192 0
      vertex 26.0677 36.0192 2
      vertex 26.0677 34.0808 2
    endloop
  endfacet
  facet normal 1 0 0
    outer loop
      vertex 26.0677 34.0808 0
      vertex 26.0677 36.0192 0
      vertex 26.0677 34.0808 2
    endloop
  endfacet
  facet normal 0.568065 -0.822984 0
    outer loop
      vertex 28.5638 38.8368 0
      vertex 28.5638 38.8368 2
      vertex 26.9685 37.7356 2
    endloop
  endfacet
  facet normal 0.568065 -0.822984 0
    outer loop
      vertex 26.9685 37.7356 0
      vertex 28.5638 38.8368 0
      vertex 26.9685 37.7356 2
    endloop
  endfacet
  facet normal 0.120537 -0.992709 0
    outer loop
      vertex 30.4882 39.0705 0
      vertex 30.4882 39.0705 2
      vertex 28.5638 38.8368 2
    endloop
  endfacet
  facet normal 0.120537 -0.992709 0
    outer loop
      vertex 28.5638 38.8368 0
      vertex 30.4882 39.0705 0
      vertex 28.5638 38.8368 2
    endloop
  endfacet
  facet normal -0.354605 -0.935016 0
    outer loop
      vertex 32.3007 38.3831 0
      vertex 32.3007 38.3831 2
      vertex 30.4882 39.0705 2
    endloop
  endfacet
  facet normal -0.354605 -0.935016 0
    outer loop
      vertex 30.4882 39.0705 0
      vertex 32.3007 38.3831 0
      vertex 30.4882 39.0705 2
    endloop
  endfacet
  facet normal -0.748511 -0.663123 0
    outer loop
      vertex 33.5861 36.9321 2
      vertex 32.3007 38.3831 2
      vertex 33.5861 36.9321 0
    endloop
  endfacet
  facet normal -0.748511 -0.663123 0
    outer loop
      vertex 33.5861 36.9321 0
      vertex 32.3007 38.3831 2
      vertex 32.3007 38.3831 0
    endloop
  endfacet
  facet normal -0.970942 -0.239316 0
    outer loop
      vertex 34.05 35.05 2
      vertex 33.5861 36.9321 2
      vertex 34.05 35.05 0
    endloop
  endfacet
  facet normal -0.970942 -0.239316 0
    outer loop
      vertex 34.05 35.05 0
      vertex 33.5861 36.9321 2
      vertex 33.5861 36.9321 0
    endloop
  endfacet
  facet normal -0.970942 0.239316 0
    outer loop
      vertex 34.05 35.05 2
      vertex 34.05 35.05 0
      vertex 33.5861 33.1679 2
    endloop
  endfacet
  facet normal -0.970942 0.239316 0
    outer loop
      vertex 33.5861 33.1679 2
      vertex 34.05 35.05 0
      vertex 33.5861 33.1679 0
    endloop
  endfacet
  facet normal -0.748511 0.663123 0
    outer loop
      vertex 33.5861 33.1679 2
      vertex 33.5861 33.1679 0
      vertex 32.3007 31.7169 2
    endloop
  endfacet
  facet normal -0.748511 0.663123 0
    outer loop
      vertex 32.3007 31.7169 2
      vertex 33.5861 33.1679 0
      vertex 32.3007 31.7169 0
    endloop
  endfacet
  facet normal -0.354605 0.935016 0
    outer loop
      vertex 32.3007 31.7169 2
      vertex 32.3007 31.7169 0
      vertex 30.4882 31.0295 2
    endloop
  endfacet
  facet normal -0.354605 0.935016 0
    outer loop
      vertex 30.4882 31.0295 2
      vertex 32.3007 31.7169 0
      vertex 30.4882 31.0295 0
    endloop
  endfacet
  facet normal 0.120537 0.992709 0
    outer loop
      vertex 30.4882 31.0295 2
      vertex 30.4882 31.0295 0
      vertex 28.5638 31.2632 2
    endloop
  endfacet
  facet normal 0.120537 0.992709 0
    outer loop
      vertex 28.5638 31.2632 2
      vertex 30.4882 31.0295 0
      vertex 28.5638 31.2632 0
    endloop
  endfacet
  facet normal 0.568065 0.822984 0
    outer loop
      vertex 28.5638 31.2632 2
      vertex 28.5638 31.2632 0
      vertex 26.9685 32.3644 2
    endloop
  endfacet
  facet normal 0.568065 0.822984 0
    outer loop
      vertex 26.9685 32.3644 2
      vertex 28.5638 31.2632 0
      vertex 26.9685 32.3644 0
    endloop
  endfacet
  facet normal 0.885456 0.464723 0
    outer loop
      vertex 26.0677 34.0808 2
      vertex 26.9685 32.3644 2
      vertex 26.9685 32.3644 0
    endloop
  endfacet
  facet normal 0.885456 0.464723 0
    outer loop
      vertex 26.0677 34.0808 0
      vertex 26.0677 34.0808 2
      vertex 26.9685 32.3644 0
    endloop
  endfacet
  facet normal -0.994522 -0.104529 0
    outer loop
      vertex -24 0 2
      vertex -23.4755 -4.98988 2
      vertex -24 0 92.9
    endloop
  endfacet
  facet normal -0.994522 -0.104529 0
    outer loop
      vertex -24 0 92.9
      vertex -23.4755 -4.98988 2
      vertex -23.4755 -4.98988 92.9
    endloop
  endfacet
  facet normal -0.951057 -0.309017 0
    outer loop
      vertex -23.4755 -4.98988 2
      vertex -21.9251 -9.76168 2
      vertex -23.4755 -4.98988 92.9
    endloop
  endfacet
  facet normal -0.951057 -0.309017 0
    outer loop
      vertex -23.4755 -4.98988 92.9
      vertex -21.9251 -9.76168 2
      vertex -21.9251 -9.76168 92.9
    endloop
  endfacet
  facet normal -0.866025 -0.5 0
    outer loop
      vertex -21.9251 -9.76168 2
      vertex -19.4164 -14.1068 2
      vertex -21.9251 -9.76168 92.9
    endloop
  endfacet
  facet normal -0.866025 -0.5 0
    outer loop
      vertex -21.9251 -9.76168 92.9
      vertex -19.4164 -14.1068 2
      vertex -19.4164 -14.1068 92.9
    endloop
  endfacet
  facet normal -0.743145 -0.669131 0
    outer loop
      vertex -19.4164 -14.1068 2
      vertex -16.0591 -17.8355 2
      vertex -19.4164 -14.1068 92.9
    endloop
  endfacet
  facet normal -0.743145 -0.669131 0
    outer loop
      vertex -19.4164 -14.1068 92.9
      vertex -16.0591 -17.8355 2
      vertex -16.0591 -17.8355 92.9
    endloop
  endfacet
  facet normal -0.587785 -0.809017 0
    outer loop
      vertex -16.0591 -17.8355 92.9
      vertex -16.0591 -17.8355 2
      vertex -12 -20.7846 2
    endloop
  endfacet
  facet normal -0.587785 -0.809017 0
    outer loop
      vertex -12 -20.7846 92.9
      vertex -16.0591 -17.8355 92.9
      vertex -12 -20.7846 2
    endloop
  endfacet
  facet normal -0.406737 -0.913546 0
    outer loop
      vertex -12 -20.7846 92.9
      vertex -12 -20.7846 2
      vertex -7.41641 -22.8254 2
    endloop
  endfacet
  facet normal -0.406737 -0.913546 0
    outer loop
      vertex -7.41641 -22.8254 92.9
      vertex -12 -20.7846 92.9
      vertex -7.41641 -22.8254 2
    endloop
  endfacet
  facet normal -0.207912 -0.978148 0
    outer loop
      vertex -7.41641 -22.8254 92.9
      vertex -7.41641 -22.8254 2
      vertex -2.50868 -23.8685 2
    endloop
  endfacet
  facet normal -0.207912 -0.978148 0
    outer loop
      vertex -2.50868 -23.8685 92.9
      vertex -7.41641 -22.8254 92.9
      vertex -2.50868 -23.8685 2
    endloop
  endfacet
  facet normal 0 -1 0
    outer loop
      vertex -2.50868 -23.8685 92.9
      vertex -2.50868 -23.8685 2
      vertex 2.50868 -23.8685 2
    endloop
  endfacet
  facet normal 0 -1 0
    outer loop
      vertex 2.50868 -23.8685 92.9
      vertex -2.50868 -23.8685 92.9
      vertex 2.50868 -23.8685 2
    endloop
  endfacet
  facet normal 0.207912 -0.978148 0
    outer loop
      vertex 2.50868 -23.8685 92.9
      vertex 2.50868 -23.8685 2
      vertex 7.41641 -22.8254 2
    endloop
  endfacet
  facet normal 0.207912 -0.978148 0
    outer loop
      vertex 7.41641 -22.8254 92.9
      vertex 2.50868 -23.8685 92.9
      vertex 7.41641 -22.8254 2
    endloop
  endfacet
  facet normal 0.406737 -0.913546 0
    outer loop
      vertex 7.41641 -22.8254 92.9
      vertex 7.41641 -22.8254 2
      vertex 12 -20.7846 2
    endloop
  endfacet
  facet normal 0.406737 -0.913546 0
    outer loop
      vertex 12 -20.7846 92.9
      vertex 7.41641 -22.8254 92.9
      vertex 12 -20.7846 2
    endloop
  endfacet
  facet normal 0.587785 -0.809017 0
    outer loop
      vertex 12 -20.7846 92.9
      vertex 12 -20.7846 2
      vertex 16.0591 -17.8355 2
    endloop
  endfacet
  facet normal 0.587785 -0.809017 0
    outer loop
      vertex 16.0591 -17.8355 92.9
      vertex 12 -20.7846 92.9
      vertex 16.0591 -17.8355 2
    endloop
  endfacet
  facet normal 0.743145 -0.669131 0
    outer loop
      vertex 16.0591 -17.8355 92.9
      vertex 16.0591 -17.8355 2
      vertex 19.4164 -14.1068 2
    endloop
  endfacet
  facet normal 0.743145 -0.669131 0
    outer loop
      vertex 19.4164 -14.1068 92.9
      vertex 16.0591 -17.8355 92.9
      vertex 19.4164 -14.1068 2
    endloop
  endfacet
  facet normal 0.866025 -0.5 0
    outer loop
      vertex 19.4164 -14.1068 92.9
      vertex 19.4164 -14.1068 2
      vertex 21.9251 -9.76168 2
    endloop
  endfacet
  facet normal 0.866025 -0.5 0
    outer loop
      vertex 21.9251 -9.76168 92.9
      vertex 19.4164 -14.1068 92.9
      vertex 21.9251 -9.76168 2
    endloop
  endfacet
  facet normal 0.951057 -0.309017 0
    outer loop
      vertex 21.9251 -9.76168 92.9
      vertex 21.9251 -9.76168 2
      vertex 23.4755 -4.98988 2
    endloop
  endfacet
  facet normal 0.951057 -0.309017 0
    outer loop
      vertex 23.4755 -4.98988 92.9
      vertex 21.9251 -9.76168 92.9
      vertex 23.4755 -4.98988 2
    endloop
  endfacet
  facet normal 0.994522 -0.104529 0
    outer loop
      vertex 23.4755 -4.98988 92.9
      vertex 23.4755 -4.98988 2
      vertex 24 0 2
    endloop
  endfacet
  facet normal 0.994522 -0.104529 0
    outer loop
      vertex 24 0 92.9
      vertex 23.4755 -4.98988 92.9
      vertex 24 0 2
    endloop
  endfacet
  facet normal 0.994522 0.104529 0
    outer loop
      vertex 24 0 2
      vertex 23.4755 4.98988 2
      vertex 23.4755 4.98988 92.9
    endloop
  endfacet
  facet normal 0.994522 0.104529 0
    outer loop
      vertex 24 0 92.9
      vertex 24 0 2
      vertex 23.4755 4.98988 92.9
    endloop
  endfacet
  facet normal 0.951057 0.309017 0
    outer loop
      vertex 23.4755 4.98988 2
      vertex 21.9251 9.76168 2
      vertex 21.9251 9.76168 92.9
    endloop
  endfacet
  facet normal 0.951057 0.309017 0
    outer loop
      vertex 23.4755 4.98988 92.9
      vertex 23.4755 4.98988 2
      vertex 21.9251 9.76168 92.9
    endloop
  endfacet
  facet normal 0.866025 0.5 0
    outer loop
      vertex 21.9251 9.76168 2
      vertex 19.4164 14.1068 2
      vertex 19.4164 14.1068 92.9
    endloop
  endfacet
  facet normal 0.866025 0.5 0
    outer loop
      vertex 21.9251 9.76168 92.9
      vertex 21.9251 9.76168 2
      vertex 19.4164 14.1068 92.9
    endloop
  endfacet
  facet normal 0.743145 0.669131 0
    outer loop
      vertex 19.4164 14.1068 2
      vertex 16.0591 17.8355 2
      vertex 16.0591 17.8355 92.9
    endloop
  endfacet
  facet normal 0.743145 0.669131 0
    outer loop
      vertex 19.4164 14.1068 92.9
      vertex 19.4164 14.1068 2
      vertex 16.0591 17.8355 92.9
    endloop
  endfacet
  facet normal 0.587785 0.809017 0
    outer loop
      vertex 12 20.7846 2
      vertex 12 20.7846 92.9
      vertex 16.0591 17.8355 2
    endloop
  endfacet
  facet normal 0.587785 0.809017 0
    outer loop
      vertex 16.0591 17.8355 2
      vertex 12 20.7846 92.9
      vertex 16.0591 17.8355 92.9
    endloop
  endfacet
  facet normal 0.406737 0.913546 0
    outer loop
      vertex 7.41641 22.8254 2
      vertex 7.41641 22.8254 92.9
      vertex 12 20.7846 2
    endloop
  endfacet
  facet normal 0.406737 0.913546 0
    outer loop
      vertex 12 20.7846 2
      vertex 7.41641 22.8254 92.9
      vertex 12 20.7846 92.9
    endloop
  endfacet
  facet normal 0.207912 0.978148 0
    outer loop
      vertex 2.50868 23.8685 2
      vertex 2.50868 23.8685 92.9
      vertex 7.41641 22.8254 2
    endloop
  endfacet
  facet normal 0.207912 0.978148 0
    outer loop
      vertex 7.41641 22.8254 2
      vertex 2.50868 23.8685 92.9
      vertex 7.41641 22.8254 92.9
    endloop
  endfacet
  facet normal 0 1 0
    outer loop
      vertex -2.50868 23.8685 2
      vertex -2.50868 23.8685 92.9
      vertex 2.50868 23.8685 2
    endloop
  endfacet
  facet normal 0 1 0
    outer loop
      vertex 2.50868 23.8685 2
      vertex -2.50868 23.8685 92.9
      vertex 2.50868 23.8685 92.9
    endloop
  endfacet
  facet normal -0.207912 0.978148 0
    outer loop
      vertex -7.41641 22.8254 2
      vertex -7.41641 22.8254 92.9
      vertex -2.50868 23.8685 2
    endloop
  endfacet
  facet normal -0.207912 0.978148 0
    outer loop
      vertex -2.50868 23.8685 2
      vertex -7.41641 22.8254 92.9
      vertex -2.50868 23.8685 92.9
    endloop
  endfacet
  facet normal -0.406737 0.913546 0
    outer loop
      vertex -12 20.7846 2
      vertex -12 20.7846 92.9
      vertex -7.41641 22.8254 2
    endloop
  endfacet
  facet normal -0.406737 0.913546 0
    outer loop
      vertex -7.41641 22.8254 2
      vertex -12 20.7846 92.9
      vertex -7.41641 22.8254 92.9
    endloop
  endfacet
  facet normal -0.587785 0.809017 0
    outer loop
      vertex -16.0591 17.8355 2
      vertex -16.0591 17.8355 92.9
      vertex -12 20.7846 2
    endloop
  endfacet
  facet normal -0.587785 0.809017 0
    outer loop
      vertex -12 20.7846 2
      vertex -16.0591 17.8355 92.9
      vertex -12 20.7846 92.9
    endloop
  endfacet
  facet normal -0.743145 0.669131 0
    outer loop
      vertex -19.4164 14.1068 2
      vertex -19.4164 14.1068 92.9
      vertex -16.0591 17.8355 2
    endloop
  endfacet
  facet normal -0.743145 0.669131 0
    outer loop
      vertex -16.0591 17.8355 2
      vertex -19.4164 14.1068 92.9
      vertex -16.0591 17.8355 92.9
    endloop
  endfacet
  facet normal -0.866025 0.5 0
    outer loop
      vertex -21.9251 9.76168 2
      vertex -21.9251 9.76168 92.9
      vertex -19.4164 14.1068 2
    endloop
  endfacet
  facet normal -0.866025 0.5 0
    outer loop
      vertex -19.4164 14.1068 2
      vertex -21.9251 9.76168 92.9
      vertex -19.4164 14.1068 92.9
    endloop
  endfacet
  facet normal -0.951057 0.309017 0
    outer loop
      vertex -23.4755 4.98988 2
      vertex -23.4755 4.98988 92.9
      vertex -21.9251 9.76168 2
    endloop
  endfacet
  facet normal -0.951057 0.309017 0
    outer loop
      vertex -21.9251 9.76168 2
      vertex -23.4755 4.98988 92.9
      vertex -21.9251 9.76168 92.9
    endloop
  endfacet
  facet normal -0.994522 0.104529 0
    outer loop
      vertex -24 0 2
      vertex -24 0 92.9
      vertex -23.4755 4.98988 2
    endloop
  endfacet
  facet normal -0.994522 0.104529 0
    outer loop
      vertex -23.4755 4.98988 2
      vertex -24 0 92.9
      vertex -23.4755 4.98988 92.9
    endloop
  endfacet
  facet normal 0 0 1
    outer loop
      vertex -23.4755 4.98988 92.9
      vertex -24 0 92.9
      vertex -23.4755 -4.98988 92.9
    endloop
  endfacet
  facet normal 0 0 1
    outer loop
      vertex -21.5192 -4.57406 92.9
      vertex -23.4755 4.98988 92.9
      vertex -21.9251 -9.76168 92.9
    endloop
  endfacet
  facet normal 0 0 1
    outer loop
      vertex -21.9251 -9.76168 92.9
      vertex -23.4755 4.98988 92.9
      vertex -23.4755 -4.98988 92.9
    endloop
  endfacet
  facet normal 0 0 1
    outer loop
      vertex 14.7209 -16.3492 92.9
      vertex 11 -19.0526 92.9
      vertex 16.0591 -17.8355 92.9
    endloop
  endfacet
  facet normal 0 0 1
    outer loop
      vertex -14.7209 -16.3492 92.9
      vertex -17.7984 -12.9313 92.9
      vertex -16.0591 -17.8355 92.9
    endloop
  endfacet
  facet normal 0 0 1
    outer loop
      vertex -11 19.0526 92.9
      vertex -6.79837 20.9232 92.9
      vertex -7.41641 22.8254 92.9
    endloop
  endfacet
  facet normal 0 0 1
    outer loop
      vertex -19.4164 14.1068 92.9
      vertex -23.4755 4.98988 92.9
      vertex -16.0591 17.8355 92.9
    endloop
  endfacet
  facet normal 0 0 1
    outer loop
      vertex -21.9251 9.76168 92.9
      vertex -23.4755 4.98988 92.9
      vertex -19.4164 14.1068 92.9
    endloop
  endfacet
  facet normal 0 0 1
    outer loop
      vertex -19.4164 -14.1068 92.9
      vertex -21.5192 -4.57406 92.9
      vertex -21.9251 -9.76168 92.9
    endloop
  endfacet
  facet normal 0 0 1
    outer loop
      vertex 17.7984 -12.9313 92.9
      vertex 14.7209 -16.3492 92.9
      vertex 19.4164 -14.1068 92.9
    endloop
  endfacet
  facet normal 0 0 1
    outer loop
      vertex -6.79837 20.9232 92.9
      vertex -2.29963 21.8795 92.9
      vertex -2.50868 23.8685 92.9
    endloop
  endfacet
  facet normal 0 0 1
    outer loop
      vertex -17.7984 12.9313 92.9
      vertex -14.7209 16.3492 92.9
      vertex -12 20.7846 92.9
    endloop
  endfacet
  facet normal 0 0 1
    outer loop
      vertex -16.0591 17.8355 92.9
      vertex -17.7984 12.9313 92.9
      vertex -12 20.7846 92.9
    endloop
  endfacet
  facet normal 0 0 1
    outer loop
      vertex -16.0591 17.8355 92.9
      vertex -23.4755 4.98988 92.9
      vertex -17.7984 12.9313 92.9
    endloop
  endfacet
  facet normal 0 0 1
    outer loop
      vertex -12 20.7846 92.9
      vertex -14.7209 16.3492 92.9
      vertex -7.41641 22.8254 92.9
    endloop
  endfacet
  facet normal 0 0 1
    outer loop
      vertex -14.7209 16.3492 92.9
      vertex -11 19.0526 92.9
      vertex -7.41641 22.8254 92.9
    endloop
  endfacet
  facet normal 0 0 1
    outer loop
      vertex -7.41641 22.8254 92.9
      vertex -6.79837 20.9232 92.9
      vertex -2.50868 23.8685 92.9
    endloop
  endfacet
  facet normal 0 0 1
    outer loop
      vertex -20.098 8.94821 92.9
      vertex -17.7984 12.9313 92.9
      vertex -23.4755 4.98988 92.9
    endloop
  endfacet
  facet normal 0 0 1
    outer loop
      vertex -2.50868 23.8685 92.9
      vertex -2.29963 21.8795 92.9
      vertex 2.50868 23.8685 92.9
    endloop
  endfacet
  facet normal 0 0 1
    outer loop
      vertex 2.50868 23.8685 92.9
      vertex 2.29963 21.8795 92.9
      vertex 7.41641 22.8254 92.9
    endloop
  endfacet
  facet normal 0 0 1
    outer loop
      vertex 7.41641 22.8254 92.9
      vertex 6.79837 20.9232 92.9
      vertex 12 20.7846 92.9
    endloop
  endfacet
  facet normal 0 0 1
    outer loop
      vertex 12 20.7846 92.9
      vertex 11 19.0526 92.9
      vertex 16.0591 17.8355 92.9
    endloop
  endfacet
  facet normal 0 0 1
    outer loop
      vertex 16.0591 17.8355 92.9
      vertex 14.7209 16.3492 92.9
      vertex 19.4164 14.1068 92.9
    endloop
  endfacet
  facet normal 0 0 1
    outer loop
      vertex 19.4164 14.1068 92.9
      vertex 17.7984 12.9313 92.9
      vertex 21.9251 9.76168 92.9
    endloop
  endfacet
  facet normal 0 0 1
    outer loop
      vertex 21.9251 9.76168 92.9
      vertex 20.098 8.94821 92.9
      vertex 23.4755 4.98988 92.9
    endloop
  endfacet
  facet normal 0 0 1
    outer loop
      vertex 23.4755 4.98988 92.9
      vertex 21.5192 4.57406 92.9
      vertex 24 0 92.9
    endloop
  endfacet
  facet normal 0 0 1
    outer loop
      vertex 24 0 92.9
      vertex 22 0 92.9
      vertex 23.4755 -4.98988 92.9
    endloop
  endfacet
  facet normal 0 0 1
    outer loop
      vertex 22 0 92.9
      vertex 21.5192 -4.57406 92.9
      vertex 23.4755 -4.98988 92.9
    endloop
  endfacet
  facet normal 0 0 1
    outer loop
      vertex 23.4755 -4.98988 92.9
      vertex 20.098 -8.94821 92.9
      vertex 21.9251 -9.76168 92.9
    endloop
  endfacet
  facet normal 0 0 1
    outer loop
      vertex 21.9251 -9.76168 92.9
      vertex 17.7984 -12.9313 92.9
      vertex 19.4164 -14.1068 92.9
    endloop
  endfacet
  facet normal 0 0 1
    outer loop
      vertex -2.29963 21.8795 92.9
      vertex 2.29963 21.8795 92.9
      vertex 2.50868 23.8685 92.9
    endloop
  endfacet
  facet normal 0 0 1
    outer loop
      vertex 19.4164 -14.1068 92.9
      vertex 14.7209 -16.3492 92.9
      vertex 16.0591 -17.8355 92.9
    endloop
  endfacet
  facet normal 0 0 1
    outer loop
      vertex 2.29963 21.8795 92.9
      vertex 6.79837 20.9232 92.9
      vertex 7.41641 22.8254 92.9
    endloop
  endfacet
  facet normal 0 0 1
    outer loop
      vertex 16.0591 -17.8355 92.9
      vertex 11 -19.0526 92.9
      vertex 12 -20.7846 92.9
    endloop
  endfacet
  facet normal 0 0 1
    outer loop
      vertex 6.79837 20.9232 92.9
      vertex 11 19.0526 92.9
      vertex 12 20.7846 92.9
    endloop
  endfacet
  facet normal 0 0 1
    outer loop
      vertex 12 -20.7846 92.9
      vertex 6.79837 -20.9232 92.9
      vertex 7.41641 -22.8254 92.9
    endloop
  endfacet
  facet normal 0 0 1
    outer loop
      vertex 11 19.0526 92.9
      vertex 14.7209 16.3492 92.9
      vertex 16.0591 17.8355 92.9
    endloop
  endfacet
  facet normal 0 0 1
    outer loop
      vertex 7.41641 -22.8254 92.9
      vertex 2.29963 -21.8795 92.9
      vertex 2.50868 -23.8685 92.9
    endloop
  endfacet
  facet normal 0 0 1
    outer loop
      vertex 14.7209 16.3492 92.9
      vertex 17.7984 12.9313 92.9
      vertex 19.4164 14.1068 92.9
    endloop
  endfacet
  facet normal 0 0 1
    outer loop
      vertex 2.50868 -23.8685 92.9
      vertex -2.29963 -21.8795 92.9
      vertex -2.50868 -23.8685 92.9
    endloop
  endfacet
  facet normal 0 0 1
    outer loop
      vertex 17.7984 12.9313 92.9
      vertex 20.098 8.94821 92.9
      vertex 21.9251 9.76168 92.9
    endloop
  endfacet
  facet normal 0 0 1
    outer loop
      vertex -2.50868 -23.8685 92.9
      vertex -6.79837 -20.9232 92.9
      vertex -7.41641 -22.8254 92.9
    endloop
  endfacet
  facet normal 0 0 1
    outer loop
      vertex 20.098 8.94821 92.9
      vertex 21.5192 4.57406 92.9
      vertex 23.4755 4.98988 92.9
    endloop
  endfacet
  facet normal 0 0 1
    outer loop
      vertex -7.41641 -22.8254 92.9
      vertex -11 -19.0526 92.9
      vertex -12 -20.7846 92.9
    endloop
  endfacet
  facet normal 0 0 1
    outer loop
      vertex 21.5192 4.57406 92.9
      vertex 22 0 92.9
      vertex 24 0 92.9
    endloop
  endfacet
  facet normal 0 0 1
    outer loop
      vertex -12 -20.7846 92.9
      vertex -14.7209 -16.3492 92.9
      vertex -16.0591 -17.8355 92.9
    endloop
  endfacet
  facet normal 0 0 1
    outer loop
      vertex 21.5192 -4.57406 92.9
      vertex 20.098 -8.94821 92.9
      vertex 23.4755 -4.98988 92.9
    endloop
  endfacet
  facet normal 0 0 1
    outer loop
      vertex -16.0591 -17.8355 92.9
      vertex -17.7984 -12.9313 92.9
      vertex -19.4164 -14.1068 92.9
    endloop
  endfacet
  facet normal 0 0 1
    outer loop
      vertex -17.7984 -12.9313 92.9
      vertex -20.098 -8.94821 92.9
      vertex -19.4164 -14.1068 92.9
    endloop
  endfacet
  facet normal 0 0 1
    outer loop
      vertex -21.5192 -4.57406 92.9
      vertex -22 0 92.9
      vertex -23.4755 4.98988 92.9
    endloop
  endfacet
  facet normal 0 0 1
    outer loop
      vertex -20.098 -8.94821 92.9
      vertex -21.5192 -4.57406 92.9
      vertex -19.4164 -14.1068 92.9
    endloop
  endfacet
  facet normal 0 0 1
    outer loop
      vertex 11 -19.0526 92.9
      vertex 6.79837 -20.9232 92.9
      vertex 12 -20.7846 92.9
    endloop
  endfacet
  facet normal 0 0 1
    outer loop
      vertex 6.79837 -20.9232 92.9
      vertex 2.29963 -21.8795 92.9
      vertex 7.41641 -22.8254 92.9
    endloop
  endfacet
  facet normal 0 0 1
    outer loop
      vertex 2.29963 -21.8795 92.9
      vertex -2.29963 -21.8795 92.9
      vertex 2.50868 -23.8685 92.9
    endloop
  endfacet
  facet normal 0 0 1
    outer loop
      vertex -2.29963 -21.8795 92.9
      vertex -6.79837 -20.9232 92.9
      vertex -2.50868 -23.8685 92.9
    endloop
  endfacet
  facet normal 0 0 1
    outer loop
      vertex -6.79837 -20.9232 92.9
      vertex -11 -19.0526 92.9
      vertex -7.41641 -22.8254 92.9
    endloop
  endfacet
  facet normal 0 0 1
    outer loop
      vertex -11 -19.0526 92.9
      vertex -14.7209 -16.3492 92.9
      vertex -12 -20.7846 92.9
    endloop
  endfacet
  facet normal 0 0 1
    outer loop
      vertex -22 0 92.9
      vertex -21.5192 4.57406 92.9
      vertex -23.4755 4.98988 92.9
    endloop
  endfacet
  facet normal 0 0 1
    outer loop
      vertex 20.098 -8.94821 92.9
      vertex 17.7984 -12.9313 92.9
      vertex 21.9251 -9.76168 92.9
    endloop
  endfacet
  facet normal 0 0 1
    outer loop
      vertex -21.5192 4.57406 92.9
      vertex -20.098 8.94821 92.9
      vertex -23.4755 4.98988 92.9
    endloop
  endfacet
endsolid OpenSCAD_Model
