solid OpenSCAD_Model
  facet normal -1 0 0
    outer loop
      vertex -24.5 -24.067 -3.00038e-15
      vertex -24.5 24.067 4.5
      vertex -24.5 24.067 -3.00038e-15
    endloop
  endfacet
  facet normal -1 -0 0
    outer loop
      vertex -24.5 24.067 4.5
      vertex -24.5 -24.067 -3.00038e-15
      vertex -24.5 -24.067 4.5
    endloop
  endfacet
  facet normal 1 -0 0
    outer loop
      vertex 24.5 -24.067 4.5
      vertex 24.5 24.067 3.00038e-15
      vertex 24.5 24.067 4.5
    endloop
  endfacet
  facet normal 1 0 0
    outer loop
      vertex 24.5 24.067 3.00038e-15
      vertex 24.5 -24.067 4.5
      vertex 24.5 -24.067 3.00038e-15
    endloop
  endfacet
  facet normal 0 -1 0
    outer loop
      vertex -24.1101 -24.5 4.5
      vertex 24.1101 -24.5 2.95264e-15
      vertex 24.1101 -24.5 4.5
    endloop
  endfacet
  facet normal -0 -1 0
    outer loop
      vertex 24.1101 -24.5 2.95264e-15
      vertex -24.1101 -24.5 4.5
      vertex -24.1101 -24.5 -2.95264e-15
    endloop
  endfacet
  facet normal 0 1 -0
    outer loop
      vertex 24.1101 24.5 2.95264e-15
      vertex -24.1101 24.5 4.5
      vertex 24.1101 24.5 4.5
    endloop
  endfacet
  facet normal 0 1 0
    outer loop
      vertex -24.1101 24.5 4.5
      vertex 24.1101 24.5 2.95264e-15
      vertex -24.1101 24.5 -2.95264e-15
    endloop
  endfacet
  facet normal -0.743145 0.66913 0
    outer loop
      vertex -24.5 24.067 -3.00038e-15
      vertex -24.1101 24.5 4.5
      vertex -24.1101 24.5 -2.95264e-15
    endloop
  endfacet
  facet normal -0.743145 0.66913 0
    outer loop
      vertex -24.1101 24.5 4.5
      vertex -24.5 24.067 -3.00038e-15
      vertex -24.5 24.067 4.5
    endloop
  endfacet
  facet normal 0.743145 0.66913 0
    outer loop
      vertex 24.5 24.067 4.5
      vertex 24.1101 24.5 2.95264e-15
      vertex 24.1101 24.5 4.5
    endloop
  endfacet
  facet normal 0.743145 0.66913 0
    outer loop
      vertex 24.1101 24.5 2.95264e-15
      vertex 24.5 24.067 4.5
      vertex 24.5 24.067 3.00038e-15
    endloop
  endfacet
  facet normal 0.743145 -0.66913 0
    outer loop
      vertex 24.1101 -24.5 4.5
      vertex 24.5 -24.067 3.00038e-15
      vertex 24.5 -24.067 4.5
    endloop
  endfacet
  facet normal 0.743145 -0.66913 0
    outer loop
      vertex 24.5 -24.067 3.00038e-15
      vertex 24.1101 -24.5 4.5
      vertex 24.1101 -24.5 2.95264e-15
    endloop
  endfacet
  facet normal -0.743145 -0.66913 0
    outer loop
      vertex -24.1101 -24.5 -2.95264e-15
      vertex -24.5 -24.067 4.5
      vertex -24.5 -24.067 -3.00038e-15
    endloop
  endfacet
  facet normal -0.743145 -0.66913 0
    outer loop
      vertex -24.5 -24.067 4.5
      vertex -24.1101 -24.5 -2.95264e-15
      vertex -24.1101 -24.5 4.5
    endloop
  endfacet
  facet normal 1.22465e-16 1.02174e-22 -1
    outer loop
      vertex -6.5 11.2583 -7.9602e-16
      vertex -9.96607 12.5828 -1.22049e-15
      vertex -9.9 13 -1.2124e-15
    endloop
  endfacet
  facet normal 1.22464e-16 -1.15358e-22 -1
    outer loop
      vertex -8.6987 9.66088 -1.06528e-15
      vertex -10.1578 12.2065 -1.24397e-15
      vertex -9.96607 12.5828 -1.22049e-15
    endloop
  endfacet
  facet normal 1.22465e-16 6.41241e-23 -1
    outer loop
      vertex -8.6987 9.66088 -1.06528e-15
      vertex -10.4565 11.9078 -1.28055e-15
      vertex -10.1578 12.2065 -1.24397e-15
    endloop
  endfacet
  facet normal 1.22465e-16 -9.96415e-24 -1
    outer loop
      vertex -10.8328 11.7161 -1.32664e-15
      vertex -8.6987 9.66088 -1.06528e-15
      vertex -10.5172 7.64121 -1.28799e-15
    endloop
  endfacet
  facet normal 1.22465e-16 2.77256e-23 -1
    outer loop
      vertex -8.6987 9.66088 -1.06528e-15
      vertex -10.8328 11.7161 -1.32664e-15
      vertex -10.4565 11.9078 -1.28055e-15
    endloop
  endfacet
  facet normal 1.22465e-16 -1.00691e-23 -1
    outer loop
      vertex -10.5172 7.64121 -1.28799e-15
      vertex -11.25 11.65 -1.37773e-15
      vertex -10.8328 11.7161 -1.32664e-15
    endloop
  endfacet
  facet normal 1.22465e-16 -5.74554e-24 -1
    outer loop
      vertex -10.5172 7.64121 -1.28799e-15
      vertex -11.6672 11.7161 -1.42882e-15
      vertex -11.25 11.65 -1.37773e-15
    endloop
  endfacet
  facet normal 1.22465e-16 2.17237e-25 -1
    outer loop
      vertex -12.0435 11.9078 -1.4749e-15
      vertex -10.5172 7.64121 -1.28799e-15
      vertex -11.8761 5.28758 -1.4544e-15
    endloop
  endfacet
  facet normal 1.22464e-16 -9.01703e-23 -1
    outer loop
      vertex -10.5172 7.64121 -1.28799e-15
      vertex -12.0435 11.9078 -1.4749e-15
      vertex -11.6672 11.7161 -1.42882e-15
    endloop
  endfacet
  facet normal 1.22465e-16 4.66309e-24 -1
    outer loop
      vertex -11.8761 5.28758 -1.4544e-15
      vertex -12.3422 12.2065 -1.51148e-15
      vertex -12.0435 11.9078 -1.4749e-15
    endloop
  endfacet
  facet normal 1.22465e-16 1.01463e-24 -1
    outer loop
      vertex -11.8761 5.28758 -1.4544e-15
      vertex -12.5339 12.5828 -1.53496e-15
      vertex -12.3422 12.2065 -1.51148e-15
    endloop
  endfacet
  facet normal 1.22465e-16 -1.04599e-24 -1
    outer loop
      vertex -12.7159 2.70285 -1.55725e-15
      vertex -12.5339 12.5828 -1.53496e-15
      vertex -11.8761 5.28758 -1.4544e-15
    endloop
  endfacet
  facet normal 1.22465e-16 3.25777e-25 -1
    outer loop
      vertex -24.5 24.067 -3.00038e-15
      vertex -12.5339 12.5828 -1.53496e-15
      vertex -12.7159 2.70285 -1.55725e-15
    endloop
  endfacet
  facet normal 1.22465e-16 1.39262e-23 -1
    outer loop
      vertex -6.5 -11.2583 -7.9602e-16
      vertex -9.96607 -12.5828 -1.22049e-15
      vertex -8.6987 -9.66088 -1.06528e-15
    endloop
  endfacet
  facet normal 1.22464e-16 1.15358e-22 -1
    outer loop
      vertex -10.1578 -12.2065 -1.24397e-15
      vertex -8.6987 -9.66088 -1.06528e-15
      vertex -9.96607 -12.5828 -1.22049e-15
    endloop
  endfacet
  facet normal 1.22465e-16 -6.41241e-23 -1
    outer loop
      vertex -10.4565 -11.9078 -1.28055e-15
      vertex -8.6987 -9.66088 -1.06528e-15
      vertex -10.1578 -12.2065 -1.24397e-15
    endloop
  endfacet
  facet normal 1.22465e-16 -2.77256e-23 -1
    outer loop
      vertex -10.8328 -11.7161 -1.32664e-15
      vertex -8.6987 -9.66088 -1.06528e-15
      vertex -10.4565 -11.9078 -1.28055e-15
    endloop
  endfacet
  facet normal 1.22465e-16 9.96415e-24 -1
    outer loop
      vertex -8.6987 -9.66088 -1.06528e-15
      vertex -10.8328 -11.7161 -1.32664e-15
      vertex -10.5172 -7.64121 -1.28799e-15
    endloop
  endfacet
  facet normal 1.22465e-16 1.00691e-23 -1
    outer loop
      vertex -11.25 -11.65 -1.37773e-15
      vertex -10.5172 -7.64121 -1.28799e-15
      vertex -10.8328 -11.7161 -1.32664e-15
    endloop
  endfacet
  facet normal 1.22465e-16 5.74554e-24 -1
    outer loop
      vertex -11.6672 -11.7161 -1.42882e-15
      vertex -10.5172 -7.64121 -1.28799e-15
      vertex -11.25 -11.65 -1.37773e-15
    endloop
  endfacet
  facet normal 1.22464e-16 9.01703e-23 -1
    outer loop
      vertex -12.0435 -11.9078 -1.4749e-15
      vertex -10.5172 -7.64121 -1.28799e-15
      vertex -11.6672 -11.7161 -1.42882e-15
    endloop
  endfacet
  facet normal 1.22465e-16 -2.17237e-25 -1
    outer loop
      vertex -10.5172 -7.64121 -1.28799e-15
      vertex -12.0435 -11.9078 -1.4749e-15
      vertex -11.8761 -5.28758 -1.4544e-15
    endloop
  endfacet
  facet normal 1.22465e-16 -4.66309e-24 -1
    outer loop
      vertex -12.3422 -12.2065 -1.51148e-15
      vertex -11.8761 -5.28758 -1.4544e-15
      vertex -12.0435 -11.9078 -1.4749e-15
    endloop
  endfacet
  facet normal 1.22465e-16 -1.01463e-24 -1
    outer loop
      vertex -12.5339 -12.5828 -1.53496e-15
      vertex -11.8761 -5.28758 -1.4544e-15
      vertex -12.3422 -12.2065 -1.51148e-15
    endloop
  endfacet
  facet normal 1.22465e-16 -1.69823e-22 -1
    outer loop
      vertex -24.5 -24.067 -3.00038e-15
      vertex -12.5339 -12.5828 -1.53496e-15
      vertex -12.6 -13 -1.54305e-15
    endloop
  endfacet
  facet normal 1.22465e-16 1.04599e-24 -1
    outer loop
      vertex -12.5339 -12.5828 -1.53496e-15
      vertex -12.7159 -2.70285 -1.55725e-15
      vertex -11.8761 -5.28758 -1.4544e-15
    endloop
  endfacet
  facet normal 1.22465e-16 -1.69823e-22 -1
    outer loop
      vertex 24.5 24.067 3.00038e-15
      vertex 12.5339 12.5828 1.53496e-15
      vertex 12.6 13 1.54305e-15
    endloop
  endfacet
  facet normal 1.22465e-16 1.04599e-24 -1
    outer loop
      vertex 11.8761 5.28758 1.4544e-15
      vertex 12.5339 12.5828 1.53496e-15
      vertex 12.7159 2.70285 1.55725e-15
    endloop
  endfacet
  facet normal 1.22465e-16 -1.01463e-24 -1
    outer loop
      vertex 12.5339 12.5828 1.53496e-15
      vertex 11.8761 5.28758 1.4544e-15
      vertex 12.3422 12.2065 1.51148e-15
    endloop
  endfacet
  facet normal 1.22465e-16 -4.66309e-24 -1
    outer loop
      vertex 12.3422 12.2065 1.51148e-15
      vertex 11.8761 5.28758 1.4544e-15
      vertex 12.0435 11.9078 1.4749e-15
    endloop
  endfacet
  facet normal 1.22465e-16 -2.17237e-25 -1
    outer loop
      vertex 10.5172 7.64121 1.28799e-15
      vertex 12.0435 11.9078 1.4749e-15
      vertex 11.8761 5.28758 1.4544e-15
    endloop
  endfacet
  facet normal 1.22464e-16 9.01703e-23 -1
    outer loop
      vertex 12.0435 11.9078 1.4749e-15
      vertex 10.5172 7.64121 1.28799e-15
      vertex 11.6672 11.7161 1.42882e-15
    endloop
  endfacet
  facet normal 1.22465e-16 5.74554e-24 -1
    outer loop
      vertex 11.6672 11.7161 1.42882e-15
      vertex 10.5172 7.64121 1.28799e-15
      vertex 11.25 11.65 1.37773e-15
    endloop
  endfacet
  facet normal 1.22465e-16 1.00691e-23 -1
    outer loop
      vertex 11.25 11.65 1.37773e-15
      vertex 10.5172 7.64121 1.28799e-15
      vertex 10.8328 11.7161 1.32664e-15
    endloop
  endfacet
  facet normal 1.22465e-16 9.96415e-24 -1
    outer loop
      vertex 8.6987 9.66088 1.06528e-15
      vertex 10.8328 11.7161 1.32664e-15
      vertex 10.5172 7.64121 1.28799e-15
    endloop
  endfacet
  facet normal 1.22465e-16 -2.77256e-23 -1
    outer loop
      vertex 10.8328 11.7161 1.32664e-15
      vertex 8.6987 9.66088 1.06528e-15
      vertex 10.4565 11.9078 1.28055e-15
    endloop
  endfacet
  facet normal 1.22465e-16 -6.41241e-23 -1
    outer loop
      vertex 10.4565 11.9078 1.28055e-15
      vertex 8.6987 9.66088 1.06528e-15
      vertex 10.1578 12.2065 1.24397e-15
    endloop
  endfacet
  facet normal 1.22464e-16 1.15358e-22 -1
    outer loop
      vertex 10.1578 12.2065 1.24397e-15
      vertex 8.6987 9.66088 1.06528e-15
      vertex 9.96607 12.5828 1.22049e-15
    endloop
  endfacet
  facet normal 1.22465e-16 7.62199e-24 -1
    outer loop
      vertex 6.5 11.2583 7.9602e-16
      vertex 9.96607 12.5828 1.22049e-15
      vertex 8.6987 9.66088 1.06528e-15
    endloop
  endfacet
  facet normal 1.22465e-16 1.17233e-22 -1
    outer loop
      vertex 12.3422 -13.7935 1.51148e-15
      vertex 24.5 -24.067 3.00038e-15
      vertex 24.1101 -24.5 2.95264e-15
    endloop
  endfacet
  facet normal 1.22465e-16 0 -1
    outer loop
      vertex 24.5 -24.067 3.00038e-15
      vertex 13 0 1.59204e-15
      vertex 24.5 24.067 3.00038e-15
    endloop
  endfacet
  facet normal 1.22465e-16 -8.58354e-24 -1
    outer loop
      vertex 12.7159 2.70285 1.55725e-15
      vertex 24.5 24.067 3.00038e-15
      vertex 13 0 1.59204e-15
    endloop
  endfacet
  facet normal 1.22465e-16 8.58354e-24 -1
    outer loop
      vertex 24.5 -24.067 3.00038e-15
      vertex 12.7159 -2.70285 1.55725e-15
      vertex 13 0 1.59204e-15
    endloop
  endfacet
  facet normal 1.22465e-16 1.69823e-22 -1
    outer loop
      vertex 24.5 -24.067 3.00038e-15
      vertex 12.6 -13 1.54305e-15
      vertex 12.5339 -12.5828 1.53496e-15
    endloop
  endfacet
  facet normal 1.22465e-16 -1.26218e-22 -1
    outer loop
      vertex 24.5 -24.067 3.00038e-15
      vertex 12.5339 -13.4172 1.53496e-15
      vertex 12.6 -13 1.54305e-15
    endloop
  endfacet
  facet normal 1.22465e-16 3.35285e-23 -1
    outer loop
      vertex 24.5 -24.067 3.00038e-15
      vertex 12.3422 -13.7935 1.51148e-15
      vertex 12.5339 -13.4172 1.53496e-15
    endloop
  endfacet
  facet normal 1.22465e-16 8.02282e-23 -1
    outer loop
      vertex 24.1101 -24.5 2.95264e-15
      vertex 12.0435 -14.0922 1.4749e-15
      vertex 12.3422 -13.7935 1.51148e-15
    endloop
  endfacet
  facet normal 1.22465e-16 -1.66493e-22 -1
    outer loop
      vertex 24.1101 -24.5 2.95264e-15
      vertex 11.6672 -14.2839 1.42882e-15
      vertex 12.0435 -14.0922 1.4749e-15
    endloop
  endfacet
  facet normal 1.22465e-16 3.32818e-23 -1
    outer loop
      vertex 24.1101 -24.5 2.95264e-15
      vertex 11.25 -14.35 1.37773e-15
      vertex 11.6672 -14.2839 1.42882e-15
    endloop
  endfacet
  facet normal 1.22465e-16 8.53033e-24 -1
    outer loop
      vertex 24.1101 -24.5 2.95264e-15
      vertex 10.8328 -14.2839 1.32664e-15
      vertex 11.25 -14.35 1.37773e-15
    endloop
  endfacet
  facet normal 1.22465e-16 1.84966e-23 -1
    outer loop
      vertex 1.35887 -12.9288 1.66414e-16
      vertex 10.8328 -14.2839 1.32664e-15
      vertex 24.1101 -24.5 2.95264e-15
    endloop
  endfacet
  facet normal 1.22465e-16 -1.20217e-22 -1
    outer loop
      vertex 6.5 -11.2583 7.9602e-16
      vertex 9.9 -13 1.2124e-15
      vertex 9.96607 -13.4172 1.22049e-15
    endloop
  endfacet
  facet normal 1.22465e-16 -1.73099e-24 -1
    outer loop
      vertex 9.9 -13 1.2124e-15
      vertex 6.5 -11.2583 7.9602e-16
      vertex 8.6987 -9.66088 1.06528e-15
    endloop
  endfacet
  facet normal 1.22465e-16 2.58877e-22 -1
    outer loop
      vertex 4.01722 -12.3637 4.91968e-16
      vertex 9.96607 -13.4172 1.22049e-15
      vertex 10.1578 -13.7935 1.24397e-15
    endloop
  endfacet
  facet normal 1.22465e-16 -2.03157e-22 -1
    outer loop
      vertex 4.01722 -12.3637 4.91968e-16
      vertex 10.1578 -13.7935 1.24397e-15
      vertex 10.4565 -14.0922 1.28055e-15
    endloop
  endfacet
  facet normal 1.22465e-16 -1.28243e-22 -1
    outer loop
      vertex 10.8328 -14.2839 1.32664e-15
      vertex 1.35887 -12.9288 1.66414e-16
      vertex 10.4565 -14.0922 1.28055e-15
    endloop
  endfacet
  facet normal 1.22465e-16 -7.50059e-24 -1
    outer loop
      vertex 9.96607 -13.4172 1.22049e-15
      vertex 4.01722 -12.3637 4.91968e-16
      vertex 6.5 -11.2583 7.9602e-16
    endloop
  endfacet
  facet normal 1.22465e-16 2.24663e-23 -1
    outer loop
      vertex 10.4565 -14.0922 1.28055e-15
      vertex 1.35887 -12.9288 1.66414e-16
      vertex 4.01722 -12.3637 4.91968e-16
    endloop
  endfacet
  facet normal 1.22465e-16 -1.96167e-24 -1
    outer loop
      vertex 24.1101 -24.5 2.95264e-15
      vertex -1.35887 -12.9288 -1.66414e-16
      vertex 1.35887 -12.9288 1.66414e-16
    endloop
  endfacet
  facet normal 1.22465e-16 1.10562e-25 -1
    outer loop
      vertex -24.1101 -24.5 -2.95264e-15
      vertex -1.35887 -12.9288 -1.66414e-16
      vertex 24.1101 -24.5 2.95264e-15
    endloop
  endfacet
  facet normal 1.22465e-16 -1.02174e-22 -1
    outer loop
      vertex -9.96607 -12.5828 -1.22049e-15
      vertex -6.5 -11.2583 -7.9602e-16
      vertex -9.9 -13 -1.2124e-15
    endloop
  endfacet
  facet normal 1.22465e-16 7.50059e-24 -1
    outer loop
      vertex -9.96607 -13.4172 -1.22049e-15
      vertex -6.5 -11.2583 -7.9602e-16
      vertex -4.01722 -12.3637 -4.91968e-16
    endloop
  endfacet
  facet normal 1.22465e-16 1.28243e-22 -1
    outer loop
      vertex -10.4565 -14.0922 -1.28055e-15
      vertex -1.35887 -12.9288 -1.66414e-16
      vertex -10.8328 -14.2839 -1.32664e-15
    endloop
  endfacet
  facet normal 1.22465e-16 1.20217e-22 -1
    outer loop
      vertex -6.5 -11.2583 -7.9602e-16
      vertex -9.96607 -13.4172 -1.22049e-15
      vertex -9.9 -13 -1.2124e-15
    endloop
  endfacet
  facet normal 1.22465e-16 -2.58877e-22 -1
    outer loop
      vertex -4.01722 -12.3637 -4.91968e-16
      vertex -10.1578 -13.7935 -1.24397e-15
      vertex -9.96607 -13.4172 -1.22049e-15
    endloop
  endfacet
  facet normal 1.22465e-16 2.03157e-22 -1
    outer loop
      vertex -4.01722 -12.3637 -4.91968e-16
      vertex -10.4565 -14.0922 -1.28055e-15
      vertex -10.1578 -13.7935 -1.24397e-15
    endloop
  endfacet
  facet normal 1.22465e-16 -2.24663e-23 -1
    outer loop
      vertex -1.35887 -12.9288 -1.66414e-16
      vertex -10.4565 -14.0922 -1.28055e-15
      vertex -4.01722 -12.3637 -4.91968e-16
    endloop
  endfacet
  facet normal 1.22465e-16 -1.84966e-23 -1
    outer loop
      vertex -1.35887 -12.9288 -1.66414e-16
      vertex -24.1101 -24.5 -2.95264e-15
      vertex -10.8328 -14.2839 -1.32664e-15
    endloop
  endfacet
  facet normal 1.22465e-16 -8.53033e-24 -1
    outer loop
      vertex -10.8328 -14.2839 -1.32664e-15
      vertex -24.1101 -24.5 -2.95264e-15
      vertex -11.25 -14.35 -1.37773e-15
    endloop
  endfacet
  facet normal 1.22465e-16 -3.25777e-25 -1
    outer loop
      vertex -12.5339 -12.5828 -1.53496e-15
      vertex -24.5 -24.067 -3.00038e-15
      vertex -12.7159 -2.70285 -1.55725e-15
    endloop
  endfacet
  facet normal 1.22465e-16 1.26218e-22 -1
    outer loop
      vertex -12.5339 -13.4172 -1.53496e-15
      vertex -24.5 -24.067 -3.00038e-15
      vertex -12.6 -13 -1.54305e-15
    endloop
  endfacet
  facet normal 1.22465e-16 -3.35285e-23 -1
    outer loop
      vertex -12.3422 -13.7935 -1.51148e-15
      vertex -24.5 -24.067 -3.00038e-15
      vertex -12.5339 -13.4172 -1.53496e-15
    endloop
  endfacet
  facet normal 1.22465e-16 -1.17233e-22 -1
    outer loop
      vertex -24.5 -24.067 -3.00038e-15
      vertex -12.3422 -13.7935 -1.51148e-15
      vertex -24.1101 -24.5 -2.95264e-15
    endloop
  endfacet
  facet normal 1.22465e-16 -8.02282e-23 -1
    outer loop
      vertex -12.0435 -14.0922 -1.4749e-15
      vertex -24.1101 -24.5 -2.95264e-15
      vertex -12.3422 -13.7935 -1.51148e-15
    endloop
  endfacet
  facet normal 1.22465e-16 1.66493e-22 -1
    outer loop
      vertex -11.6672 -14.2839 -1.42882e-15
      vertex -24.1101 -24.5 -2.95264e-15
      vertex -12.0435 -14.0922 -1.4749e-15
    endloop
  endfacet
  facet normal 1.22465e-16 -3.32818e-23 -1
    outer loop
      vertex -11.25 -14.35 -1.37773e-15
      vertex -24.1101 -24.5 -2.95264e-15
      vertex -11.6672 -14.2839 -1.42882e-15
    endloop
  endfacet
  facet normal 1.22465e-16 -3.25777e-25 -1
    outer loop
      vertex 12.5339 12.5828 1.53496e-15
      vertex 24.5 24.067 3.00038e-15
      vertex 12.7159 2.70285 1.55725e-15
    endloop
  endfacet
  facet normal 1.22465e-16 1.26218e-22 -1
    outer loop
      vertex 12.5339 13.4172 1.53496e-15
      vertex 24.5 24.067 3.00038e-15
      vertex 12.6 13 1.54305e-15
    endloop
  endfacet
  facet normal 1.22465e-16 -3.35285e-23 -1
    outer loop
      vertex 12.3422 13.7935 1.51148e-15
      vertex 24.5 24.067 3.00038e-15
      vertex 12.5339 13.4172 1.53496e-15
    endloop
  endfacet
  facet normal 1.22465e-16 -1.17233e-22 -1
    outer loop
      vertex 24.5 24.067 3.00038e-15
      vertex 12.3422 13.7935 1.51148e-15
      vertex 24.1101 24.5 2.95264e-15
    endloop
  endfacet
  facet normal 1.22465e-16 -8.02282e-23 -1
    outer loop
      vertex 12.0435 14.0922 1.4749e-15
      vertex 24.1101 24.5 2.95264e-15
      vertex 12.3422 13.7935 1.51148e-15
    endloop
  endfacet
  facet normal 1.22465e-16 1.66493e-22 -1
    outer loop
      vertex 11.6672 14.2839 1.42882e-15
      vertex 24.1101 24.5 2.95264e-15
      vertex 12.0435 14.0922 1.4749e-15
    endloop
  endfacet
  facet normal 1.22465e-16 -3.32818e-23 -1
    outer loop
      vertex 11.25 14.35 1.37773e-15
      vertex 24.1101 24.5 2.95264e-15
      vertex 11.6672 14.2839 1.42882e-15
    endloop
  endfacet
  facet normal 1.22465e-16 -8.53033e-24 -1
    outer loop
      vertex 10.8328 14.2839 1.32664e-15
      vertex 24.1101 24.5 2.95264e-15
      vertex 11.25 14.35 1.37773e-15
    endloop
  endfacet
  facet normal 1.22465e-16 1.28243e-22 -1
    outer loop
      vertex 1.35887 12.9288 1.66414e-16
      vertex 10.8328 14.2839 1.32664e-15
      vertex 10.4565 14.0922 1.28055e-15
    endloop
  endfacet
  facet normal 1.22465e-16 -1.00363e-22 -1
    outer loop
      vertex 9.96607 12.5828 1.22049e-15
      vertex 6.5 11.2583 7.9602e-16
      vertex 9.9 13 1.2124e-15
    endloop
  endfacet
  facet normal 1.22465e-16 1.18086e-22 -1
    outer loop
      vertex 9.9 13 1.2124e-15
      vertex 6.5 11.2583 7.9602e-16
      vertex 9.96607 13.4172 1.22049e-15
    endloop
  endfacet
  facet normal 1.22465e-16 3.47016e-23 -1
    outer loop
      vertex 4.01722 12.3637 4.91968e-16
      vertex 9.96607 13.4172 1.22049e-15
      vertex 6.5 11.2583 7.9602e-16
    endloop
  endfacet
  facet normal 1.22465e-16 -2.58877e-22 -1
    outer loop
      vertex 9.96607 13.4172 1.22049e-15
      vertex 4.01722 12.3637 4.91968e-16
      vertex 10.1578 13.7935 1.24397e-15
    endloop
  endfacet
  facet normal 1.22465e-16 2.03157e-22 -1
    outer loop
      vertex 10.1578 13.7935 1.24397e-15
      vertex 4.01722 12.3637 4.91968e-16
      vertex 10.4565 14.0922 1.28055e-15
    endloop
  endfacet
  facet normal 1.22465e-16 -2.24663e-23 -1
    outer loop
      vertex 1.35887 12.9288 1.66414e-16
      vertex 10.4565 14.0922 1.28055e-15
      vertex 4.01722 12.3637 4.91968e-16
    endloop
  endfacet
  facet normal 1.22465e-16 -1.84966e-23 -1
    outer loop
      vertex 10.8328 14.2839 1.32664e-15
      vertex 1.35887 12.9288 1.66414e-16
      vertex 24.1101 24.5 2.95264e-15
    endloop
  endfacet
  facet normal 1.22465e-16 1.96167e-24 -1
    outer loop
      vertex -1.35887 12.9288 -1.66414e-16
      vertex 24.1101 24.5 2.95264e-15
      vertex 1.35887 12.9288 1.66414e-16
    endloop
  endfacet
  facet normal 1.22465e-16 2.24663e-23 -1
    outer loop
      vertex -10.4565 14.0922 -1.28055e-15
      vertex -1.35887 12.9288 -1.66414e-16
      vertex -4.01722 12.3637 -4.91968e-16
    endloop
  endfacet
  facet normal 1.22465e-16 -1.39262e-23 -1
    outer loop
      vertex -9.96607 12.5828 -1.22049e-15
      vertex -6.5 11.2583 -7.9602e-16
      vertex -8.6987 9.66088 -1.06528e-15
    endloop
  endfacet
  facet normal 1.22465e-16 -1.20217e-22 -1
    outer loop
      vertex -9.96607 13.4172 -1.22049e-15
      vertex -6.5 11.2583 -7.9602e-16
      vertex -9.9 13 -1.2124e-15
    endloop
  endfacet
  facet normal 1.22465e-16 -7.50059e-24 -1
    outer loop
      vertex -6.5 11.2583 -7.9602e-16
      vertex -9.96607 13.4172 -1.22049e-15
      vertex -4.01722 12.3637 -4.91968e-16
    endloop
  endfacet
  facet normal 1.22465e-16 2.58877e-22 -1
    outer loop
      vertex -10.1578 13.7935 -1.24397e-15
      vertex -4.01722 12.3637 -4.91968e-16
      vertex -9.96607 13.4172 -1.22049e-15
    endloop
  endfacet
  facet normal 1.22465e-16 -2.03157e-22 -1
    outer loop
      vertex -10.4565 14.0922 -1.28055e-15
      vertex -4.01722 12.3637 -4.91968e-16
      vertex -10.1578 13.7935 -1.24397e-15
    endloop
  endfacet
  facet normal 1.22465e-16 -1.28243e-22 -1
    outer loop
      vertex -1.35887 12.9288 -1.66414e-16
      vertex -10.4565 14.0922 -1.28055e-15
      vertex -10.8328 14.2839 -1.32664e-15
    endloop
  endfacet
  facet normal 1.22465e-16 1.84966e-23 -1
    outer loop
      vertex -24.1101 24.5 -2.95264e-15
      vertex -1.35887 12.9288 -1.66414e-16
      vertex -10.8328 14.2839 -1.32664e-15
    endloop
  endfacet
  facet normal 1.22465e-16 8.53033e-24 -1
    outer loop
      vertex -24.1101 24.5 -2.95264e-15
      vertex -10.8328 14.2839 -1.32664e-15
      vertex -11.25 14.35 -1.37773e-15
    endloop
  endfacet
  facet normal 1.22465e-16 3.32818e-23 -1
    outer loop
      vertex -24.1101 24.5 -2.95264e-15
      vertex -11.25 14.35 -1.37773e-15
      vertex -11.6672 14.2839 -1.42882e-15
    endloop
  endfacet
  facet normal 1.22465e-16 8.58354e-24 -1
    outer loop
      vertex -24.5 24.067 -3.00038e-15
      vertex -12.7159 2.70285 -1.55725e-15
      vertex -13 0 -1.59204e-15
    endloop
  endfacet
  facet normal 1.22465e-16 -8.58354e-24 -1
    outer loop
      vertex -12.7159 -2.70285 -1.55725e-15
      vertex -24.5 -24.067 -3.00038e-15
      vertex -13 0 -1.59204e-15
    endloop
  endfacet
  facet normal 1.22465e-16 0 -1
    outer loop
      vertex -24.5 24.067 -3.00038e-15
      vertex -13 0 -1.59204e-15
      vertex -24.5 -24.067 -3.00038e-15
    endloop
  endfacet
  facet normal 1.22465e-16 -1.10562e-25 -1
    outer loop
      vertex -1.35887 12.9288 -1.66414e-16
      vertex -24.1101 24.5 -2.95264e-15
      vertex 24.1101 24.5 2.95264e-15
    endloop
  endfacet
  facet normal 1.22465e-16 -1.66493e-22 -1
    outer loop
      vertex -12.0435 14.0922 -1.4749e-15
      vertex -24.1101 24.5 -2.95264e-15
      vertex -11.6672 14.2839 -1.42882e-15
    endloop
  endfacet
  facet normal 1.22465e-16 8.02282e-23 -1
    outer loop
      vertex -12.3422 13.7935 -1.51148e-15
      vertex -24.1101 24.5 -2.95264e-15
      vertex -12.0435 14.0922 -1.4749e-15
    endloop
  endfacet
  facet normal 1.22465e-16 3.35285e-23 -1
    outer loop
      vertex -24.5 24.067 -3.00038e-15
      vertex -12.3422 13.7935 -1.51148e-15
      vertex -12.5339 13.4172 -1.53496e-15
    endloop
  endfacet
  facet normal 1.22465e-16 1.69823e-22 -1
    outer loop
      vertex -12.5339 12.5828 -1.53496e-15
      vertex -24.5 24.067 -3.00038e-15
      vertex -12.6 13 -1.54305e-15
    endloop
  endfacet
  facet normal 1.22465e-16 -1.26218e-22 -1
    outer loop
      vertex -12.6 13 -1.54305e-15
      vertex -24.5 24.067 -3.00038e-15
      vertex -12.5339 13.4172 -1.53496e-15
    endloop
  endfacet
  facet normal 1.22465e-16 1.17233e-22 -1
    outer loop
      vertex -12.3422 13.7935 -1.51148e-15
      vertex -24.5 24.067 -3.00038e-15
      vertex -24.1101 24.5 -2.95264e-15
    endloop
  endfacet
  facet normal 1.22465e-16 3.25777e-25 -1
    outer loop
      vertex 24.5 -24.067 3.00038e-15
      vertex 12.5339 -12.5828 1.53496e-15
      vertex 12.7159 -2.70285 1.55725e-15
    endloop
  endfacet
  facet normal 1.22465e-16 1.01463e-24 -1
    outer loop
      vertex 11.8761 -5.28758 1.4544e-15
      vertex 12.5339 -12.5828 1.53496e-15
      vertex 12.3422 -12.2065 1.51148e-15
    endloop
  endfacet
  facet normal 1.22465e-16 4.66309e-24 -1
    outer loop
      vertex 11.8761 -5.28758 1.4544e-15
      vertex 12.3422 -12.2065 1.51148e-15
      vertex 12.0435 -11.9078 1.4749e-15
    endloop
  endfacet
  facet normal 1.22465e-16 -1.04599e-24 -1
    outer loop
      vertex 12.5339 -12.5828 1.53496e-15
      vertex 11.8761 -5.28758 1.4544e-15
      vertex 12.7159 -2.70285 1.55725e-15
    endloop
  endfacet
  facet normal 1.22464e-16 -9.01703e-23 -1
    outer loop
      vertex 10.5172 -7.64121 1.28799e-15
      vertex 12.0435 -11.9078 1.4749e-15
      vertex 11.6672 -11.7161 1.42882e-15
    endloop
  endfacet
  facet normal 1.22465e-16 -5.74554e-24 -1
    outer loop
      vertex 10.5172 -7.64121 1.28799e-15
      vertex 11.6672 -11.7161 1.42882e-15
      vertex 11.25 -11.65 1.37773e-15
    endloop
  endfacet
  facet normal 1.22465e-16 -1.00691e-23 -1
    outer loop
      vertex 10.5172 -7.64121 1.28799e-15
      vertex 11.25 -11.65 1.37773e-15
      vertex 10.8328 -11.7161 1.32664e-15
    endloop
  endfacet
  facet normal 1.22465e-16 2.17237e-25 -1
    outer loop
      vertex 12.0435 -11.9078 1.4749e-15
      vertex 10.5172 -7.64121 1.28799e-15
      vertex 11.8761 -5.28758 1.4544e-15
    endloop
  endfacet
  facet normal 1.22465e-16 2.77256e-23 -1
    outer loop
      vertex 8.6987 -9.66088 1.06528e-15
      vertex 10.8328 -11.7161 1.32664e-15
      vertex 10.4565 -11.9078 1.28055e-15
    endloop
  endfacet
  facet normal 1.22465e-16 6.41241e-23 -1
    outer loop
      vertex 8.6987 -9.66088 1.06528e-15
      vertex 10.4565 -11.9078 1.28055e-15
      vertex 10.1578 -12.2065 1.24397e-15
    endloop
  endfacet
  facet normal 1.22464e-16 -1.15358e-22 -1
    outer loop
      vertex 8.6987 -9.66088 1.06528e-15
      vertex 10.1578 -12.2065 1.24397e-15
      vertex 9.96607 -12.5828 1.22049e-15
    endloop
  endfacet
  facet normal 1.22465e-16 7.62662e-23 -1
    outer loop
      vertex 8.6987 -9.66088 1.06528e-15
      vertex 9.96607 -12.5828 1.22049e-15
      vertex 9.9 -13 1.2124e-15
    endloop
  endfacet
  facet normal 1.22465e-16 -9.96415e-24 -1
    outer loop
      vertex 10.8328 -11.7161 1.32664e-15
      vertex 8.6987 -9.66088 1.06528e-15
      vertex 10.5172 -7.64121 1.28799e-15
    endloop
  endfacet
  facet normal 0 0 1
    outer loop
      vertex 4.4 -19.5 4.5
      vertex -4.4 -19.5 4.5
      vertex 4.4 -21.5 4.5
    endloop
  endfacet
  facet normal 0 0 1
    outer loop
      vertex 22.5 21.5 4.5
      vertex 24.5 24.067 4.5
      vertex 24.1101 24.5 4.5
    endloop
  endfacet
  facet normal 0 0 1
    outer loop
      vertex 24.5 24.067 4.5
      vertex 22.5 21.5 4.5
      vertex 24.5 -24.067 4.5
    endloop
  endfacet
  facet normal -0 0 1
    outer loop
      vertex 22.5 -21.5 4.5
      vertex 24.5 -24.067 4.5
      vertex 22.5 21.5 4.5
    endloop
  endfacet
  facet normal 0 0 1
    outer loop
      vertex 24.1101 24.5 4.5
      vertex 4.4 21.5 4.5
      vertex 22.5 21.5 4.5
    endloop
  endfacet
  facet normal 0 0 1
    outer loop
      vertex 4.4 21.5 4.5
      vertex -4.4 21.5 4.5
      vertex 4.4 19.5 4.5
    endloop
  endfacet
  facet normal 0 0 1
    outer loop
      vertex 24.1101 24.5 4.5
      vertex -4.4 21.5 4.5
      vertex 4.4 21.5 4.5
    endloop
  endfacet
  facet normal -0 0 1
    outer loop
      vertex -24.1101 24.5 4.5
      vertex -4.4 21.5 4.5
      vertex 24.1101 24.5 4.5
    endloop
  endfacet
  facet normal -0 0 1
    outer loop
      vertex -24.5 24.067 4.5
      vertex -22.5 21.5 4.5
      vertex -24.1101 24.5 4.5
    endloop
  endfacet
  facet normal 0 0 1
    outer loop
      vertex -4.4 21.5 4.5
      vertex -24.1101 24.5 4.5
      vertex -22.5 21.5 4.5
    endloop
  endfacet
  facet normal 0 0 1
    outer loop
      vertex 24.5 -24.067 4.5
      vertex 22.5 -21.5 4.5
      vertex 24.1101 -24.5 4.5
    endloop
  endfacet
  facet normal -0 0 1
    outer loop
      vertex 4.4 -21.5 4.5
      vertex 24.1101 -24.5 4.5
      vertex 22.5 -21.5 4.5
    endloop
  endfacet
  facet normal 0 0 1
    outer loop
      vertex -4.4 -21.5 4.5
      vertex 4.4 -21.5 4.5
      vertex -4.4 -19.5 4.5
    endloop
  endfacet
  facet normal -0 0 1
    outer loop
      vertex -4.4 -21.5 4.5
      vertex 24.1101 -24.5 4.5
      vertex 4.4 -21.5 4.5
    endloop
  endfacet
  facet normal 0 0 1
    outer loop
      vertex -24.1101 -24.5 4.5
      vertex -4.4 -21.5 4.5
      vertex -22.5 -21.5 4.5
    endloop
  endfacet
  facet normal 0 0 1
    outer loop
      vertex -4.4 -21.5 4.5
      vertex -24.1101 -24.5 4.5
      vertex 24.1101 -24.5 4.5
    endloop
  endfacet
  facet normal 0 0 1
    outer loop
      vertex -22.5 21.5 4.5
      vertex -24.5 24.067 4.5
      vertex -22.5 -21.5 4.5
    endloop
  endfacet
  facet normal 0 0 1
    outer loop
      vertex -24.5 -24.067 4.5
      vertex -22.5 -21.5 4.5
      vertex -24.5 24.067 4.5
    endloop
  endfacet
  facet normal 0 0 1
    outer loop
      vertex -22.5 -21.5 4.5
      vertex -24.5 -24.067 4.5
      vertex -24.1101 -24.5 4.5
    endloop
  endfacet
  facet normal 0 0 1
    outer loop
      vertex 4.4 19.5 4.5
      vertex -4.4 21.5 4.5
      vertex -4.4 19.5 4.5
    endloop
  endfacet
  facet normal -1 0 0
    outer loop
      vertex 22.5 -21.5 1.6
      vertex 22.5 21.5 4.5
      vertex 22.5 21.5 1.6
    endloop
  endfacet
  facet normal -1 -0 0
    outer loop
      vertex 22.5 21.5 4.5
      vertex 22.5 -21.5 1.6
      vertex 22.5 -21.5 4.5
    endloop
  endfacet
  facet normal 0 0 1
    outer loop
      vertex -6.5 -11.2583 1.6
      vertex -9.96607 -12.5828 1.6
      vertex -9.9 -13 1.6
    endloop
  endfacet
  facet normal 0 0 1
    outer loop
      vertex -8.6987 -9.66088 1.6
      vertex -10.1578 -12.2065 1.6
      vertex -9.96607 -12.5828 1.6
    endloop
  endfacet
  facet normal 0 0 1
    outer loop
      vertex -8.6987 -9.66088 1.6
      vertex -10.4565 -11.9078 1.6
      vertex -10.1578 -12.2065 1.6
    endloop
  endfacet
  facet normal 0 0 1
    outer loop
      vertex -10.8328 -11.7161 1.6
      vertex -8.6987 -9.66088 1.6
      vertex -10.5172 -7.64121 1.6
    endloop
  endfacet
  facet normal 0 0 1
    outer loop
      vertex -8.6987 -9.66088 1.6
      vertex -10.8328 -11.7161 1.6
      vertex -10.4565 -11.9078 1.6
    endloop
  endfacet
  facet normal 0 0 1
    outer loop
      vertex -10.5172 -7.64121 1.6
      vertex -11.25 -11.65 1.6
      vertex -10.8328 -11.7161 1.6
    endloop
  endfacet
  facet normal 0 0 1
    outer loop
      vertex -10.5172 -7.64121 1.6
      vertex -11.6672 -11.7161 1.6
      vertex -11.25 -11.65 1.6
    endloop
  endfacet
  facet normal 0 0 1
    outer loop
      vertex -12.0435 -11.9078 1.6
      vertex -10.5172 -7.64121 1.6
      vertex -11.8761 -5.28758 1.6
    endloop
  endfacet
  facet normal 0 0 1
    outer loop
      vertex -10.5172 -7.64121 1.6
      vertex -12.0435 -11.9078 1.6
      vertex -11.6672 -11.7161 1.6
    endloop
  endfacet
  facet normal 0 0 1
    outer loop
      vertex -11.8761 -5.28758 1.6
      vertex -12.3422 -12.2065 1.6
      vertex -12.0435 -11.9078 1.6
    endloop
  endfacet
  facet normal 0 0 1
    outer loop
      vertex -11.8761 -5.28758 1.6
      vertex -12.5339 -12.5828 1.6
      vertex -12.3422 -12.2065 1.6
    endloop
  endfacet
  facet normal 0 0 1
    outer loop
      vertex -12.7159 -2.70285 1.6
      vertex -12.5339 -12.5828 1.6
      vertex -11.8761 -5.28758 1.6
    endloop
  endfacet
  facet normal 0 0 1
    outer loop
      vertex -22.5 -21.5 1.6
      vertex -12.5339 -12.5828 1.6
      vertex -12.7159 -2.70285 1.6
    endloop
  endfacet
  facet normal 0 0 1
    outer loop
      vertex -11.25 14.35 1.6
      vertex -4.4 19.5 1.6
      vertex -4.4 21.5 1.6
    endloop
  endfacet
  facet normal 0 0 1
    outer loop
      vertex -4.4 19.5 1.6
      vertex -10.1578 13.7935 1.6
      vertex -6.5 11.2583 1.6
    endloop
  endfacet
  facet normal -0 0 1
    outer loop
      vertex -9.96607 12.5828 1.6
      vertex -6.5 11.2583 1.6
      vertex -9.9 13 1.6
    endloop
  endfacet
  facet normal 0 0 1
    outer loop
      vertex -6.5 11.2583 1.6
      vertex -9.96607 13.4172 1.6
      vertex -9.9 13 1.6
    endloop
  endfacet
  facet normal 0 0 1
    outer loop
      vertex -6.5 11.2583 1.6
      vertex -10.1578 13.7935 1.6
      vertex -9.96607 13.4172 1.6
    endloop
  endfacet
  facet normal 0 0 1
    outer loop
      vertex -4.4 19.5 1.6
      vertex -10.4565 14.0922 1.6
      vertex -10.1578 13.7935 1.6
    endloop
  endfacet
  facet normal 0 0 1
    outer loop
      vertex -4.4 19.5 1.6
      vertex -10.8328 14.2839 1.6
      vertex -10.4565 14.0922 1.6
    endloop
  endfacet
  facet normal 0 0 1
    outer loop
      vertex -4.4 19.5 1.6
      vertex -11.25 14.35 1.6
      vertex -10.8328 14.2839 1.6
    endloop
  endfacet
  facet normal 0 0 1
    outer loop
      vertex -4.4 21.5 1.6
      vertex -11.6672 14.2839 1.6
      vertex -11.25 14.35 1.6
    endloop
  endfacet
  facet normal -0 0 1
    outer loop
      vertex -22.5 21.5 1.6
      vertex -11.6672 14.2839 1.6
      vertex -4.4 21.5 1.6
    endloop
  endfacet
  facet normal 0 0 1
    outer loop
      vertex -12.5339 12.5828 1.6
      vertex -22.5 21.5 1.6
      vertex -12.7159 2.70285 1.6
    endloop
  endfacet
  facet normal 0 0 1
    outer loop
      vertex -12.7159 2.70285 1.6
      vertex -22.5 21.5 1.6
      vertex -13 0 1.6
    endloop
  endfacet
  facet normal 0 0 1
    outer loop
      vertex -12.5339 13.4172 1.6
      vertex -22.5 21.5 1.6
      vertex -12.6 13 1.6
    endloop
  endfacet
  facet normal 0 0 1
    outer loop
      vertex -12.3422 13.7935 1.6
      vertex -22.5 21.5 1.6
      vertex -12.5339 13.4172 1.6
    endloop
  endfacet
  facet normal 0 0 1
    outer loop
      vertex -12.0435 14.0922 1.6
      vertex -22.5 21.5 1.6
      vertex -12.3422 13.7935 1.6
    endloop
  endfacet
  facet normal 0 0 1
    outer loop
      vertex -11.6672 14.2839 1.6
      vertex -22.5 21.5 1.6
      vertex -12.0435 14.0922 1.6
    endloop
  endfacet
  facet normal 0 0 1
    outer loop
      vertex 10.1578 -13.7935 1.6
      vertex 4.01722 -12.3637 1.6
      vertex 4.4 -19.5 1.6
    endloop
  endfacet
  facet normal -0 0 1
    outer loop
      vertex 1.35887 -12.9288 1.6
      vertex 4.4 -19.5 1.6
      vertex 4.01722 -12.3637 1.6
    endloop
  endfacet
  facet normal -0 0 1
    outer loop
      vertex -1.35887 -12.9288 1.6
      vertex 4.4 -19.5 1.6
      vertex 1.35887 -12.9288 1.6
    endloop
  endfacet
  facet normal 0 0 1
    outer loop
      vertex -4.4 -19.5 1.6
      vertex -1.35887 -12.9288 1.6
      vertex -4.01722 -12.3637 1.6
    endloop
  endfacet
  facet normal 0 0 1
    outer loop
      vertex -1.35887 -12.9288 1.6
      vertex -4.4 -19.5 1.6
      vertex 4.4 -19.5 1.6
    endloop
  endfacet
  facet normal 0 0 1
    outer loop
      vertex -9.96607 -13.4172 1.6
      vertex -4.01722 -12.3637 1.6
      vertex -6.5 -11.2583 1.6
    endloop
  endfacet
  facet normal 0 0 1
    outer loop
      vertex -4.01722 -12.3637 1.6
      vertex -10.1578 -13.7935 1.6
      vertex -4.4 -19.5 1.6
    endloop
  endfacet
  facet normal 0 0 1
    outer loop
      vertex -9.96607 -12.5828 1.6
      vertex -6.5 -11.2583 1.6
      vertex -8.6987 -9.66088 1.6
    endloop
  endfacet
  facet normal 0 0 1
    outer loop
      vertex -9.96607 -13.4172 1.6
      vertex -6.5 -11.2583 1.6
      vertex -9.9 -13 1.6
    endloop
  endfacet
  facet normal 0 0 1
    outer loop
      vertex -4.01722 -12.3637 1.6
      vertex -9.96607 -13.4172 1.6
      vertex -10.1578 -13.7935 1.6
    endloop
  endfacet
  facet normal -0 0 1
    outer loop
      vertex -10.4565 -14.0922 1.6
      vertex -4.4 -19.5 1.6
      vertex -10.1578 -13.7935 1.6
    endloop
  endfacet
  facet normal -0 0 1
    outer loop
      vertex -10.8328 -14.2839 1.6
      vertex -4.4 -19.5 1.6
      vertex -10.4565 -14.0922 1.6
    endloop
  endfacet
  facet normal -0 0 1
    outer loop
      vertex -11.25 -14.35 1.6
      vertex -4.4 -19.5 1.6
      vertex -10.8328 -14.2839 1.6
    endloop
  endfacet
  facet normal 0 0 1
    outer loop
      vertex -4.4 -19.5 1.6
      vertex -11.25 -14.35 1.6
      vertex -4.4 -21.5 1.6
    endloop
  endfacet
  facet normal 0 0 1
    outer loop
      vertex -11.6672 -14.2839 1.6
      vertex -4.4 -21.5 1.6
      vertex -11.25 -14.35 1.6
    endloop
  endfacet
  facet normal 0 0 1
    outer loop
      vertex -22.5 -21.5 1.6
      vertex -11.6672 -14.2839 1.6
      vertex -12.0435 -14.0922 1.6
    endloop
  endfacet
  facet normal 0 0 1
    outer loop
      vertex -22.5 -21.5 1.6
      vertex -12.7159 -2.70285 1.6
      vertex -13 0 1.6
    endloop
  endfacet
  facet normal 0 0 1
    outer loop
      vertex -22.5 -21.5 1.6
      vertex -13 0 1.6
      vertex -22.5 21.5 1.6
    endloop
  endfacet
  facet normal 0 0 1
    outer loop
      vertex -12.5339 -12.5828 1.6
      vertex -22.5 -21.5 1.6
      vertex -12.6 -13 1.6
    endloop
  endfacet
  facet normal 0 0 1
    outer loop
      vertex -11.6672 -14.2839 1.6
      vertex -22.5 -21.5 1.6
      vertex -4.4 -21.5 1.6
    endloop
  endfacet
  facet normal 0 0 1
    outer loop
      vertex -12.3422 -13.7935 1.6
      vertex -22.5 -21.5 1.6
      vertex -12.0435 -14.0922 1.6
    endloop
  endfacet
  facet normal 0 0 1
    outer loop
      vertex -12.5339 -13.4172 1.6
      vertex -22.5 -21.5 1.6
      vertex -12.3422 -13.7935 1.6
    endloop
  endfacet
  facet normal 0 0 1
    outer loop
      vertex -12.6 -13 1.6
      vertex -22.5 -21.5 1.6
      vertex -12.5339 -13.4172 1.6
    endloop
  endfacet
  facet normal 0 0 1
    outer loop
      vertex -6.5 11.2583 1.6
      vertex -9.96607 12.5828 1.6
      vertex -8.6987 9.66088 1.6
    endloop
  endfacet
  facet normal -0 0 1
    outer loop
      vertex -10.1578 12.2065 1.6
      vertex -8.6987 9.66088 1.6
      vertex -9.96607 12.5828 1.6
    endloop
  endfacet
  facet normal -0 0 1
    outer loop
      vertex -10.4565 11.9078 1.6
      vertex -8.6987 9.66088 1.6
      vertex -10.1578 12.2065 1.6
    endloop
  endfacet
  facet normal -0 0 1
    outer loop
      vertex -10.8328 11.7161 1.6
      vertex -8.6987 9.66088 1.6
      vertex -10.4565 11.9078 1.6
    endloop
  endfacet
  facet normal 0 0 1
    outer loop
      vertex -8.6987 9.66088 1.6
      vertex -10.8328 11.7161 1.6
      vertex -10.5172 7.64121 1.6
    endloop
  endfacet
  facet normal -0 0 1
    outer loop
      vertex -11.25 11.65 1.6
      vertex -10.5172 7.64121 1.6
      vertex -10.8328 11.7161 1.6
    endloop
  endfacet
  facet normal 0 0 1
    outer loop
      vertex -11.6672 11.7161 1.6
      vertex -10.5172 7.64121 1.6
      vertex -11.25 11.65 1.6
    endloop
  endfacet
  facet normal 0 0 1
    outer loop
      vertex -12.0435 11.9078 1.6
      vertex -10.5172 7.64121 1.6
      vertex -11.6672 11.7161 1.6
    endloop
  endfacet
  facet normal 0 0 1
    outer loop
      vertex -10.5172 7.64121 1.6
      vertex -12.0435 11.9078 1.6
      vertex -11.8761 5.28758 1.6
    endloop
  endfacet
  facet normal 0 0 1
    outer loop
      vertex -12.3422 12.2065 1.6
      vertex -11.8761 5.28758 1.6
      vertex -12.0435 11.9078 1.6
    endloop
  endfacet
  facet normal 0 0 1
    outer loop
      vertex -12.5339 12.5828 1.6
      vertex -11.8761 5.28758 1.6
      vertex -12.3422 12.2065 1.6
    endloop
  endfacet
  facet normal 0 0 1
    outer loop
      vertex -22.5 21.5 1.6
      vertex -12.5339 12.5828 1.6
      vertex -12.6 13 1.6
    endloop
  endfacet
  facet normal 0 0 1
    outer loop
      vertex -12.5339 12.5828 1.6
      vertex -12.7159 2.70285 1.6
      vertex -11.8761 5.28758 1.6
    endloop
  endfacet
  facet normal 0 0 1
    outer loop
      vertex 22.5 -21.5 1.6
      vertex 12.5339 -12.5828 1.6
      vertex 12.6 -13 1.6
    endloop
  endfacet
  facet normal -0 0 1
    outer loop
      vertex 11.8761 -5.28758 1.6
      vertex 12.5339 -12.5828 1.6
      vertex 12.7159 -2.70285 1.6
    endloop
  endfacet
  facet normal 0 0 1
    outer loop
      vertex 12.5339 -12.5828 1.6
      vertex 11.8761 -5.28758 1.6
      vertex 12.3422 -12.2065 1.6
    endloop
  endfacet
  facet normal 0 0 1
    outer loop
      vertex 12.3422 -12.2065 1.6
      vertex 11.8761 -5.28758 1.6
      vertex 12.0435 -11.9078 1.6
    endloop
  endfacet
  facet normal -0 0 1
    outer loop
      vertex 10.5172 -7.64121 1.6
      vertex 12.0435 -11.9078 1.6
      vertex 11.8761 -5.28758 1.6
    endloop
  endfacet
  facet normal 0 0 1
    outer loop
      vertex 12.0435 -11.9078 1.6
      vertex 10.5172 -7.64121 1.6
      vertex 11.6672 -11.7161 1.6
    endloop
  endfacet
  facet normal 0 0 1
    outer loop
      vertex 11.6672 -11.7161 1.6
      vertex 10.5172 -7.64121 1.6
      vertex 11.25 -11.65 1.6
    endloop
  endfacet
  facet normal 0 0 1
    outer loop
      vertex 11.25 -11.65 1.6
      vertex 10.5172 -7.64121 1.6
      vertex 10.8328 -11.7161 1.6
    endloop
  endfacet
  facet normal -0 0 1
    outer loop
      vertex 8.6987 -9.66088 1.6
      vertex 10.8328 -11.7161 1.6
      vertex 10.5172 -7.64121 1.6
    endloop
  endfacet
  facet normal 0 0 1
    outer loop
      vertex 10.8328 -11.7161 1.6
      vertex 8.6987 -9.66088 1.6
      vertex 10.4565 -11.9078 1.6
    endloop
  endfacet
  facet normal 0 0 1
    outer loop
      vertex 10.4565 -11.9078 1.6
      vertex 8.6987 -9.66088 1.6
      vertex 10.1578 -12.2065 1.6
    endloop
  endfacet
  facet normal 0 0 1
    outer loop
      vertex 10.1578 -12.2065 1.6
      vertex 8.6987 -9.66088 1.6
      vertex 9.96607 -12.5828 1.6
    endloop
  endfacet
  facet normal -0 0 1
    outer loop
      vertex 6.5 -11.2583 1.6
      vertex 9.96607 -12.5828 1.6
      vertex 8.6987 -9.66088 1.6
    endloop
  endfacet
  facet normal 0 0 1
    outer loop
      vertex 22.5 21.5 1.6
      vertex 13 0 1.6
      vertex 22.5 -21.5 1.6
    endloop
  endfacet
  facet normal 0 0 1
    outer loop
      vertex 22.5 21.5 1.6
      vertex 12.7159 2.70285 1.6
      vertex 13 0 1.6
    endloop
  endfacet
  facet normal 0 0 1
    outer loop
      vertex 12.5339 12.5828 1.6
      vertex 22.5 21.5 1.6
      vertex 12.6 13 1.6
    endloop
  endfacet
  facet normal 0 0 1
    outer loop
      vertex 22.5 21.5 1.6
      vertex 12.5339 13.4172 1.6
      vertex 12.6 13 1.6
    endloop
  endfacet
  facet normal 0 0 1
    outer loop
      vertex 22.5 21.5 1.6
      vertex 12.3422 13.7935 1.6
      vertex 12.5339 13.4172 1.6
    endloop
  endfacet
  facet normal 0 0 1
    outer loop
      vertex 22.5 21.5 1.6
      vertex 12.0435 14.0922 1.6
      vertex 12.3422 13.7935 1.6
    endloop
  endfacet
  facet normal 0 0 1
    outer loop
      vertex 22.5 21.5 1.6
      vertex 11.6672 14.2839 1.6
      vertex 12.0435 14.0922 1.6
    endloop
  endfacet
  facet normal -0 0 1
    outer loop
      vertex 4.4 21.5 1.6
      vertex 11.6672 14.2839 1.6
      vertex 22.5 21.5 1.6
    endloop
  endfacet
  facet normal 0 0 1
    outer loop
      vertex 11.6672 14.2839 1.6
      vertex 4.4 21.5 1.6
      vertex 11.25 14.35 1.6
    endloop
  endfacet
  facet normal -0 0 1
    outer loop
      vertex 4.4 19.5 1.6
      vertex 11.25 14.35 1.6
      vertex 4.4 21.5 1.6
    endloop
  endfacet
  facet normal 0 0 1
    outer loop
      vertex 6.5 11.2583 1.6
      vertex 9.9 13 1.6
      vertex 9.96607 13.4172 1.6
    endloop
  endfacet
  facet normal 0 0 1
    outer loop
      vertex 9.9 13 1.6
      vertex 6.5 11.2583 1.6
      vertex 8.6987 9.66088 1.6
    endloop
  endfacet
  facet normal 0 0 1
    outer loop
      vertex 4.01722 12.3637 1.6
      vertex 9.96607 13.4172 1.6
      vertex 10.1578 13.7935 1.6
    endloop
  endfacet
  facet normal 0 0 1
    outer loop
      vertex 4.4 19.5 1.6
      vertex 10.1578 13.7935 1.6
      vertex 10.4565 14.0922 1.6
    endloop
  endfacet
  facet normal 0 0 1
    outer loop
      vertex 11.25 14.35 1.6
      vertex 4.4 19.5 1.6
      vertex 10.8328 14.2839 1.6
    endloop
  endfacet
  facet normal 0 0 1
    outer loop
      vertex 10.8328 14.2839 1.6
      vertex 4.4 19.5 1.6
      vertex 10.4565 14.0922 1.6
    endloop
  endfacet
  facet normal 0 0 1
    outer loop
      vertex 10.1578 13.7935 1.6
      vertex 4.4 19.5 1.6
      vertex 4.01722 12.3637 1.6
    endloop
  endfacet
  facet normal 0 0 1
    outer loop
      vertex 9.96607 13.4172 1.6
      vertex 4.01722 12.3637 1.6
      vertex 6.5 11.2583 1.6
    endloop
  endfacet
  facet normal 0 0 1
    outer loop
      vertex 4.4 19.5 1.6
      vertex 1.35887 12.9288 1.6
      vertex 4.01722 12.3637 1.6
    endloop
  endfacet
  facet normal 0 0 1
    outer loop
      vertex 4.4 19.5 1.6
      vertex -1.35887 12.9288 1.6
      vertex 1.35887 12.9288 1.6
    endloop
  endfacet
  facet normal -0 0 1
    outer loop
      vertex -4.4 19.5 1.6
      vertex -1.35887 12.9288 1.6
      vertex 4.4 19.5 1.6
    endloop
  endfacet
  facet normal 0 0 1
    outer loop
      vertex -1.35887 12.9288 1.6
      vertex -4.4 19.5 1.6
      vertex -4.01722 12.3637 1.6
    endloop
  endfacet
  facet normal 0 0 1
    outer loop
      vertex -4.01722 12.3637 1.6
      vertex -4.4 19.5 1.6
      vertex -6.5 11.2583 1.6
    endloop
  endfacet
  facet normal -0 0 1
    outer loop
      vertex 12.7159 -2.70285 1.6
      vertex 22.5 -21.5 1.6
      vertex 13 0 1.6
    endloop
  endfacet
  facet normal -0 0 1
    outer loop
      vertex 12.5339 -12.5828 1.6
      vertex 22.5 -21.5 1.6
      vertex 12.7159 -2.70285 1.6
    endloop
  endfacet
  facet normal -0 0 1
    outer loop
      vertex 12.5339 -13.4172 1.6
      vertex 22.5 -21.5 1.6
      vertex 12.6 -13 1.6
    endloop
  endfacet
  facet normal -0 0 1
    outer loop
      vertex 12.3422 -13.7935 1.6
      vertex 22.5 -21.5 1.6
      vertex 12.5339 -13.4172 1.6
    endloop
  endfacet
  facet normal -0 0 1
    outer loop
      vertex 12.0435 -14.0922 1.6
      vertex 22.5 -21.5 1.6
      vertex 12.3422 -13.7935 1.6
    endloop
  endfacet
  facet normal -0 0 1
    outer loop
      vertex 11.6672 -14.2839 1.6
      vertex 22.5 -21.5 1.6
      vertex 12.0435 -14.0922 1.6
    endloop
  endfacet
  facet normal 0 0 1
    outer loop
      vertex 4.4 -21.5 1.6
      vertex 11.6672 -14.2839 1.6
      vertex 11.25 -14.35 1.6
    endloop
  endfacet
  facet normal 0 0 1
    outer loop
      vertex 4.4 -19.5 1.6
      vertex 11.25 -14.35 1.6
      vertex 10.8328 -14.2839 1.6
    endloop
  endfacet
  facet normal 0 0 1
    outer loop
      vertex 4.4 -19.5 1.6
      vertex 10.8328 -14.2839 1.6
      vertex 10.4565 -14.0922 1.6
    endloop
  endfacet
  facet normal 0 0 1
    outer loop
      vertex 9.96607 -12.5828 1.6
      vertex 6.5 -11.2583 1.6
      vertex 9.9 -13 1.6
    endloop
  endfacet
  facet normal 0 0 1
    outer loop
      vertex 9.9 -13 1.6
      vertex 6.5 -11.2583 1.6
      vertex 9.96607 -13.4172 1.6
    endloop
  endfacet
  facet normal -0 0 1
    outer loop
      vertex 4.01722 -12.3637 1.6
      vertex 9.96607 -13.4172 1.6
      vertex 6.5 -11.2583 1.6
    endloop
  endfacet
  facet normal 0 0 1
    outer loop
      vertex 9.96607 -13.4172 1.6
      vertex 4.01722 -12.3637 1.6
      vertex 10.1578 -13.7935 1.6
    endloop
  endfacet
  facet normal 0 0 1
    outer loop
      vertex 10.1578 -13.7935 1.6
      vertex 4.4 -19.5 1.6
      vertex 10.4565 -14.0922 1.6
    endloop
  endfacet
  facet normal 0 0 1
    outer loop
      vertex 11.25 -14.35 1.6
      vertex 4.4 -19.5 1.6
      vertex 4.4 -21.5 1.6
    endloop
  endfacet
  facet normal 0 0 1
    outer loop
      vertex 11.6672 -14.2839 1.6
      vertex 4.4 -21.5 1.6
      vertex 22.5 -21.5 1.6
    endloop
  endfacet
  facet normal 0 0 1
    outer loop
      vertex 22.5 21.5 1.6
      vertex 12.5339 12.5828 1.6
      vertex 12.7159 2.70285 1.6
    endloop
  endfacet
  facet normal 0 0 1
    outer loop
      vertex 11.8761 5.28758 1.6
      vertex 12.5339 12.5828 1.6
      vertex 12.3422 12.2065 1.6
    endloop
  endfacet
  facet normal 0 0 1
    outer loop
      vertex 11.8761 5.28758 1.6
      vertex 12.3422 12.2065 1.6
      vertex 12.0435 11.9078 1.6
    endloop
  endfacet
  facet normal 0 0 1
    outer loop
      vertex 12.5339 12.5828 1.6
      vertex 11.8761 5.28758 1.6
      vertex 12.7159 2.70285 1.6
    endloop
  endfacet
  facet normal 0 0 1
    outer loop
      vertex 10.5172 7.64121 1.6
      vertex 12.0435 11.9078 1.6
      vertex 11.6672 11.7161 1.6
    endloop
  endfacet
  facet normal 0 0 1
    outer loop
      vertex 10.5172 7.64121 1.6
      vertex 11.6672 11.7161 1.6
      vertex 11.25 11.65 1.6
    endloop
  endfacet
  facet normal 0 0 1
    outer loop
      vertex 10.5172 7.64121 1.6
      vertex 11.25 11.65 1.6
      vertex 10.8328 11.7161 1.6
    endloop
  endfacet
  facet normal 0 0 1
    outer loop
      vertex 12.0435 11.9078 1.6
      vertex 10.5172 7.64121 1.6
      vertex 11.8761 5.28758 1.6
    endloop
  endfacet
  facet normal 0 0 1
    outer loop
      vertex 8.6987 9.66088 1.6
      vertex 10.8328 11.7161 1.6
      vertex 10.4565 11.9078 1.6
    endloop
  endfacet
  facet normal 0 0 1
    outer loop
      vertex 8.6987 9.66088 1.6
      vertex 10.4565 11.9078 1.6
      vertex 10.1578 12.2065 1.6
    endloop
  endfacet
  facet normal 0 0 1
    outer loop
      vertex 8.6987 9.66088 1.6
      vertex 10.1578 12.2065 1.6
      vertex 9.96607 12.5828 1.6
    endloop
  endfacet
  facet normal 0 0 1
    outer loop
      vertex 8.6987 9.66088 1.6
      vertex 9.96607 12.5828 1.6
      vertex 9.9 13 1.6
    endloop
  endfacet
  facet normal 0 0 1
    outer loop
      vertex 10.8328 11.7161 1.6
      vertex 8.6987 9.66088 1.6
      vertex 10.5172 7.64121 1.6
    endloop
  endfacet
  facet normal 1 -0 0
    outer loop
      vertex -22.5 -21.5 4.5
      vertex -22.5 21.5 1.6
      vertex -22.5 21.5 4.5
    endloop
  endfacet
  facet normal 1 0 0
    outer loop
      vertex -22.5 21.5 1.6
      vertex -22.5 -21.5 4.5
      vertex -22.5 -21.5 1.6
    endloop
  endfacet
  facet normal 0 -1 0
    outer loop
      vertex 4.4 21.5 1.6
      vertex 22.5 21.5 4.5
      vertex 4.4 21.5 4.5
    endloop
  endfacet
  facet normal 0 -1 -0
    outer loop
      vertex 22.5 21.5 4.5
      vertex 4.4 21.5 1.6
      vertex 22.5 21.5 1.6
    endloop
  endfacet
  facet normal 0 -1 0
    outer loop
      vertex -22.5 21.5 1.6
      vertex -4.4 21.5 4.5
      vertex -22.5 21.5 4.5
    endloop
  endfacet
  facet normal 0 -1 -0
    outer loop
      vertex -4.4 21.5 4.5
      vertex -22.5 21.5 1.6
      vertex -4.4 21.5 1.6
    endloop
  endfacet
  facet normal 0 1 -0
    outer loop
      vertex 22.5 -21.5 1.6
      vertex 4.4 -21.5 4.5
      vertex 22.5 -21.5 4.5
    endloop
  endfacet
  facet normal 0 1 0
    outer loop
      vertex 4.4 -21.5 4.5
      vertex 22.5 -21.5 1.6
      vertex 4.4 -21.5 1.6
    endloop
  endfacet
  facet normal 0 1 -0
    outer loop
      vertex -4.4 -21.5 1.6
      vertex -22.5 -21.5 4.5
      vertex -4.4 -21.5 4.5
    endloop
  endfacet
  facet normal 0 1 0
    outer loop
      vertex -22.5 -21.5 4.5
      vertex -4.4 -21.5 1.6
      vertex -22.5 -21.5 1.6
    endloop
  endfacet
  facet normal 0.866025 -0.5 0
    outer loop
      vertex -11.8761 5.28758 1.6
      vertex -10.5172 7.64121 -1.28799e-15
      vertex -10.5172 7.64121 1.6
    endloop
  endfacet
  facet normal 0.866025 -0.5 0
    outer loop
      vertex -10.5172 7.64121 -1.28799e-15
      vertex -11.8761 5.28758 1.6
      vertex -11.8761 5.28758 -1.4544e-15
    endloop
  endfacet
  facet normal -0.994522 -0.104529 0
    outer loop
      vertex 13 0 1.59204e-15
      vertex 12.7159 2.70285 1.6
      vertex 12.7159 2.70285 1.55725e-15
    endloop
  endfacet
  facet normal -0.994522 -0.104529 0
    outer loop
      vertex 12.7159 2.70285 1.6
      vertex 13 0 1.59204e-15
      vertex 13 0 1.6
    endloop
  endfacet
  facet normal 0.743145 -0.669131 0
    outer loop
      vertex -10.5172 7.64121 1.6
      vertex -8.6987 9.66088 -1.06528e-15
      vertex -8.6987 9.66088 1.6
    endloop
  endfacet
  facet normal 0.743145 -0.669131 0
    outer loop
      vertex -8.6987 9.66088 -1.06528e-15
      vertex -10.5172 7.64121 1.6
      vertex -10.5172 7.64121 -1.28799e-15
    endloop
  endfacet
  facet normal 0.406737 -0.913545 0
    outer loop
      vertex -6.5 11.2583 1.6
      vertex -4.01722 12.3637 -4.91968e-16
      vertex -4.01722 12.3637 1.6
    endloop
  endfacet
  facet normal 0.406737 -0.913545 0
    outer loop
      vertex -4.01722 12.3637 -4.91968e-16
      vertex -6.5 11.2583 1.6
      vertex -6.5 11.2583 -7.9602e-16
    endloop
  endfacet
  facet normal -0.406737 -0.913545 0
    outer loop
      vertex 4.01722 12.3637 1.6
      vertex 6.5 11.2583 7.9602e-16
      vertex 6.5 11.2583 1.6
    endloop
  endfacet
  facet normal -0.406737 -0.913545 0
    outer loop
      vertex 6.5 11.2583 7.9602e-16
      vertex 4.01722 12.3637 1.6
      vertex 4.01722 12.3637 4.91968e-16
    endloop
  endfacet
  facet normal -0.951056 -0.309017 0
    outer loop
      vertex 12.7159 2.70285 1.55725e-15
      vertex 11.8761 5.28758 1.6
      vertex 11.8761 5.28758 1.4544e-15
    endloop
  endfacet
  facet normal -0.951056 -0.309017 0
    outer loop
      vertex 11.8761 5.28758 1.6
      vertex 12.7159 2.70285 1.55725e-15
      vertex 12.7159 2.70285 1.6
    endloop
  endfacet
  facet normal 0.994522 0.104529 0
    outer loop
      vertex -12.7159 -2.70285 1.6
      vertex -13 0 -1.59204e-15
      vertex -13 0 1.6
    endloop
  endfacet
  facet normal 0.994522 0.104529 0
    outer loop
      vertex -13 0 -1.59204e-15
      vertex -12.7159 -2.70285 1.6
      vertex -12.7159 -2.70285 -1.55725e-15
    endloop
  endfacet
  facet normal 0.951056 -0.309017 0
    outer loop
      vertex -12.7159 2.70285 1.6
      vertex -11.8761 5.28758 -1.4544e-15
      vertex -11.8761 5.28758 1.6
    endloop
  endfacet
  facet normal 0.951056 -0.309017 0
    outer loop
      vertex -11.8761 5.28758 -1.4544e-15
      vertex -12.7159 2.70285 1.6
      vertex -12.7159 2.70285 -1.55725e-15
    endloop
  endfacet
  facet normal 0.587785 -0.809017 0
    outer loop
      vertex -8.6987 9.66088 1.6
      vertex -6.5 11.2583 -7.9602e-16
      vertex -6.5 11.2583 1.6
    endloop
  endfacet
  facet normal 0.587785 -0.809017 0
    outer loop
      vertex -6.5 11.2583 -7.9602e-16
      vertex -8.6987 9.66088 1.6
      vertex -8.6987 9.66088 -1.06528e-15
    endloop
  endfacet
  facet normal 0 -1 0
    outer loop
      vertex -1.35887 12.9288 1.6
      vertex 1.35887 12.9288 1.66414e-16
      vertex 1.35887 12.9288 1.6
    endloop
  endfacet
  facet normal -0 -1 0
    outer loop
      vertex 1.35887 12.9288 1.66414e-16
      vertex -1.35887 12.9288 1.6
      vertex -1.35887 12.9288 -1.66414e-16
    endloop
  endfacet
  facet normal -0.866025 -0.5 0
    outer loop
      vertex 11.8761 5.28758 1.4544e-15
      vertex 10.5172 7.64121 1.6
      vertex 10.5172 7.64121 1.28799e-15
    endloop
  endfacet
  facet normal -0.866025 -0.5 0
    outer loop
      vertex 10.5172 7.64121 1.6
      vertex 11.8761 5.28758 1.4544e-15
      vertex 11.8761 5.28758 1.6
    endloop
  endfacet
  facet normal -0.587785 -0.809017 0
    outer loop
      vertex 6.5 11.2583 1.6
      vertex 8.6987 9.66088 1.06528e-15
      vertex 8.6987 9.66088 1.6
    endloop
  endfacet
  facet normal -0.587785 -0.809017 0
    outer loop
      vertex 8.6987 9.66088 1.06528e-15
      vertex 6.5 11.2583 1.6
      vertex 6.5 11.2583 7.9602e-16
    endloop
  endfacet
  facet normal -0.207912 -0.978148 0
    outer loop
      vertex 1.35887 12.9288 1.6
      vertex 4.01722 12.3637 4.91968e-16
      vertex 4.01722 12.3637 1.6
    endloop
  endfacet
  facet normal -0.207912 -0.978148 0
    outer loop
      vertex 4.01722 12.3637 4.91968e-16
      vertex 1.35887 12.9288 1.6
      vertex 1.35887 12.9288 1.66414e-16
    endloop
  endfacet
  facet normal -0.743145 -0.669131 0
    outer loop
      vertex 10.5172 7.64121 1.28799e-15
      vertex 8.6987 9.66088 1.6
      vertex 8.6987 9.66088 1.06528e-15
    endloop
  endfacet
  facet normal -0.743145 -0.669131 0
    outer loop
      vertex 8.6987 9.66088 1.6
      vertex 10.5172 7.64121 1.28799e-15
      vertex 10.5172 7.64121 1.6
    endloop
  endfacet
  facet normal 0.994522 -0.104529 0
    outer loop
      vertex -13 0 1.6
      vertex -12.7159 2.70285 -1.55725e-15
      vertex -12.7159 2.70285 1.6
    endloop
  endfacet
  facet normal 0.994522 -0.104529 0
    outer loop
      vertex -12.7159 2.70285 -1.55725e-15
      vertex -13 0 1.6
      vertex -13 0 -1.59204e-15
    endloop
  endfacet
  facet normal -0.207912 0.978148 0
    outer loop
      vertex 4.01722 -12.3637 4.91968e-16
      vertex 1.35887 -12.9288 1.6
      vertex 4.01722 -12.3637 1.6
    endloop
  endfacet
  facet normal -0.207912 0.978148 0
    outer loop
      vertex 1.35887 -12.9288 1.6
      vertex 4.01722 -12.3637 4.91968e-16
      vertex 1.35887 -12.9288 1.66414e-16
    endloop
  endfacet
  facet normal -0.994522 0.104529 0
    outer loop
      vertex 12.7159 -2.70285 1.55725e-15
      vertex 13 0 1.6
      vertex 13 0 1.59204e-15
    endloop
  endfacet
  facet normal -0.994522 0.104529 0
    outer loop
      vertex 13 0 1.6
      vertex 12.7159 -2.70285 1.55725e-15
      vertex 12.7159 -2.70285 1.6
    endloop
  endfacet
  facet normal -0.951056 0.309017 0
    outer loop
      vertex 11.8761 -5.28758 1.4544e-15
      vertex 12.7159 -2.70285 1.6
      vertex 12.7159 -2.70285 1.55725e-15
    endloop
  endfacet
  facet normal -0.951056 0.309017 0
    outer loop
      vertex 12.7159 -2.70285 1.6
      vertex 11.8761 -5.28758 1.4544e-15
      vertex 11.8761 -5.28758 1.6
    endloop
  endfacet
  facet normal 0.587785 0.809017 -0
    outer loop
      vertex -6.5 -11.2583 -7.9602e-16
      vertex -8.6987 -9.66088 1.6
      vertex -6.5 -11.2583 1.6
    endloop
  endfacet
  facet normal 0.587785 0.809017 0
    outer loop
      vertex -8.6987 -9.66088 1.6
      vertex -6.5 -11.2583 -7.9602e-16
      vertex -8.6987 -9.66088 -1.06528e-15
    endloop
  endfacet
  facet normal 0.207912 -0.978148 0
    outer loop
      vertex -4.01722 12.3637 1.6
      vertex -1.35887 12.9288 -1.66414e-16
      vertex -1.35887 12.9288 1.6
    endloop
  endfacet
  facet normal 0.207912 -0.978148 0
    outer loop
      vertex -1.35887 12.9288 -1.66414e-16
      vertex -4.01722 12.3637 1.6
      vertex -4.01722 12.3637 -4.91968e-16
    endloop
  endfacet
  facet normal 0.951056 0.309017 0
    outer loop
      vertex -11.8761 -5.28758 1.6
      vertex -12.7159 -2.70285 -1.55725e-15
      vertex -12.7159 -2.70285 1.6
    endloop
  endfacet
  facet normal 0.951056 0.309017 0
    outer loop
      vertex -12.7159 -2.70285 -1.55725e-15
      vertex -11.8761 -5.28758 1.6
      vertex -11.8761 -5.28758 -1.4544e-15
    endloop
  endfacet
  facet normal 0.866025 0.5 0
    outer loop
      vertex -10.5172 -7.64121 1.6
      vertex -11.8761 -5.28758 -1.4544e-15
      vertex -11.8761 -5.28758 1.6
    endloop
  endfacet
  facet normal 0.866025 0.5 0
    outer loop
      vertex -11.8761 -5.28758 -1.4544e-15
      vertex -10.5172 -7.64121 1.6
      vertex -10.5172 -7.64121 -1.28799e-15
    endloop
  endfacet
  facet normal 0.207912 0.978148 -0
    outer loop
      vertex -1.35887 -12.9288 -1.66414e-16
      vertex -4.01722 -12.3637 1.6
      vertex -1.35887 -12.9288 1.6
    endloop
  endfacet
  facet normal 0.207912 0.978148 0
    outer loop
      vertex -4.01722 -12.3637 1.6
      vertex -1.35887 -12.9288 -1.66414e-16
      vertex -4.01722 -12.3637 -4.91968e-16
    endloop
  endfacet
  facet normal 0.406737 0.913545 -0
    outer loop
      vertex -4.01722 -12.3637 -4.91968e-16
      vertex -6.5 -11.2583 1.6
      vertex -4.01722 -12.3637 1.6
    endloop
  endfacet
  facet normal 0.406737 0.913545 0
    outer loop
      vertex -6.5 -11.2583 1.6
      vertex -4.01722 -12.3637 -4.91968e-16
      vertex -6.5 -11.2583 -7.9602e-16
    endloop
  endfacet
  facet normal 0.743145 0.669131 0
    outer loop
      vertex -8.6987 -9.66088 1.6
      vertex -10.5172 -7.64121 -1.28799e-15
      vertex -10.5172 -7.64121 1.6
    endloop
  endfacet
  facet normal 0.743145 0.669131 0
    outer loop
      vertex -10.5172 -7.64121 -1.28799e-15
      vertex -8.6987 -9.66088 1.6
      vertex -8.6987 -9.66088 -1.06528e-15
    endloop
  endfacet
  facet normal -0.743145 0.669131 0
    outer loop
      vertex 8.6987 -9.66088 1.06528e-15
      vertex 10.5172 -7.64121 1.6
      vertex 10.5172 -7.64121 1.28799e-15
    endloop
  endfacet
  facet normal -0.743145 0.669131 0
    outer loop
      vertex 10.5172 -7.64121 1.6
      vertex 8.6987 -9.66088 1.06528e-15
      vertex 8.6987 -9.66088 1.6
    endloop
  endfacet
  facet normal -0.866025 0.5 0
    outer loop
      vertex 10.5172 -7.64121 1.28799e-15
      vertex 11.8761 -5.28758 1.6
      vertex 11.8761 -5.28758 1.4544e-15
    endloop
  endfacet
  facet normal -0.866025 0.5 0
    outer loop
      vertex 11.8761 -5.28758 1.6
      vertex 10.5172 -7.64121 1.28799e-15
      vertex 10.5172 -7.64121 1.6
    endloop
  endfacet
  facet normal -0.406737 0.913545 0
    outer loop
      vertex 6.5 -11.2583 7.9602e-16
      vertex 4.01722 -12.3637 1.6
      vertex 6.5 -11.2583 1.6
    endloop
  endfacet
  facet normal -0.406737 0.913545 0
    outer loop
      vertex 4.01722 -12.3637 1.6
      vertex 6.5 -11.2583 7.9602e-16
      vertex 4.01722 -12.3637 4.91968e-16
    endloop
  endfacet
  facet normal 0 1 -0
    outer loop
      vertex 1.35887 -12.9288 1.66414e-16
      vertex -1.35887 -12.9288 1.6
      vertex 1.35887 -12.9288 1.6
    endloop
  endfacet
  facet normal 0 1 0
    outer loop
      vertex -1.35887 -12.9288 1.6
      vertex 1.35887 -12.9288 1.66414e-16
      vertex -1.35887 -12.9288 -1.66414e-16
    endloop
  endfacet
  facet normal -0.587785 0.809017 0
    outer loop
      vertex 8.6987 -9.66088 1.06528e-15
      vertex 6.5 -11.2583 1.6
      vertex 8.6987 -9.66088 1.6
    endloop
  endfacet
  facet normal -0.587785 0.809017 0
    outer loop
      vertex 6.5 -11.2583 1.6
      vertex 8.6987 -9.66088 1.06528e-15
      vertex 6.5 -11.2583 7.9602e-16
    endloop
  endfacet
  facet normal 0.987688 -0.156434 0
    outer loop
      vertex 9.9 13 1.6
      vertex 9.96607 13.4172 1.22049e-15
      vertex 9.96607 13.4172 1.6
    endloop
  endfacet
  facet normal 0.987688 -0.156434 0
    outer loop
      vertex 9.96607 13.4172 1.22049e-15
      vertex 9.9 13 1.6
      vertex 9.9 13 1.2124e-15
    endloop
  endfacet
  facet normal 0.156434 -0.987688 0
    outer loop
      vertex 10.8328 14.2839 1.6
      vertex 11.25 14.35 1.37773e-15
      vertex 11.25 14.35 1.6
    endloop
  endfacet
  facet normal 0.156434 -0.987688 0
    outer loop
      vertex 11.25 14.35 1.37773e-15
      vertex 10.8328 14.2839 1.6
      vertex 10.8328 14.2839 1.32664e-15
    endloop
  endfacet
  facet normal -0.987688 0.156434 0
    outer loop
      vertex 12.5339 12.5828 1.53496e-15
      vertex 12.6 13 1.6
      vertex 12.6 13 1.54305e-15
    endloop
  endfacet
  facet normal -0.987688 0.156434 0
    outer loop
      vertex 12.6 13 1.6
      vertex 12.5339 12.5828 1.53496e-15
      vertex 12.5339 12.5828 1.6
    endloop
  endfacet
  facet normal 0.156434 0.987688 -0
    outer loop
      vertex 11.25 11.65 1.37773e-15
      vertex 10.8328 11.7161 1.6
      vertex 11.25 11.65 1.6
    endloop
  endfacet
  facet normal 0.156434 0.987688 0
    outer loop
      vertex 10.8328 11.7161 1.6
      vertex 11.25 11.65 1.37773e-15
      vertex 10.8328 11.7161 1.32664e-15
    endloop
  endfacet
  facet normal 0.891006 -0.453991 0
    outer loop
      vertex 9.96607 13.4172 1.6
      vertex 10.1578 13.7935 1.24397e-15
      vertex 10.1578 13.7935 1.6
    endloop
  endfacet
  facet normal 0.891006 -0.453991 0
    outer loop
      vertex 10.1578 13.7935 1.24397e-15
      vertex 9.96607 13.4172 1.6
      vertex 9.96607 13.4172 1.22049e-15
    endloop
  endfacet
  facet normal -0.156434 -0.987688 0
    outer loop
      vertex 11.25 14.35 1.6
      vertex 11.6672 14.2839 1.42882e-15
      vertex 11.6672 14.2839 1.6
    endloop
  endfacet
  facet normal -0.156434 -0.987688 0
    outer loop
      vertex 11.6672 14.2839 1.42882e-15
      vertex 11.25 14.35 1.6
      vertex 11.25 14.35 1.37773e-15
    endloop
  endfacet
  facet normal -0.453991 -0.891006 0
    outer loop
      vertex 11.6672 14.2839 1.6
      vertex 12.0435 14.0922 1.4749e-15
      vertex 12.0435 14.0922 1.6
    endloop
  endfacet
  facet normal -0.453991 -0.891006 0
    outer loop
      vertex 12.0435 14.0922 1.4749e-15
      vertex 11.6672 14.2839 1.6
      vertex 11.6672 14.2839 1.42882e-15
    endloop
  endfacet
  facet normal 0.987688 0.156434 0
    outer loop
      vertex 9.96607 12.5828 1.6
      vertex 9.9 13 1.2124e-15
      vertex 9.9 13 1.6
    endloop
  endfacet
  facet normal 0.987688 0.156434 0
    outer loop
      vertex 9.9 13 1.2124e-15
      vertex 9.96607 12.5828 1.6
      vertex 9.96607 12.5828 1.22049e-15
    endloop
  endfacet
  facet normal 0.453991 0.891006 -0
    outer loop
      vertex 10.8328 11.7161 1.32664e-15
      vertex 10.4565 11.9078 1.6
      vertex 10.8328 11.7161 1.6
    endloop
  endfacet
  facet normal 0.453991 0.891006 0
    outer loop
      vertex 10.4565 11.9078 1.6
      vertex 10.8328 11.7161 1.32664e-15
      vertex 10.4565 11.9078 1.28055e-15
    endloop
  endfacet
  facet normal 0.707107 0.707107 0
    outer loop
      vertex 10.4565 11.9078 1.6
      vertex 10.1578 12.2065 1.24397e-15
      vertex 10.1578 12.2065 1.6
    endloop
  endfacet
  facet normal 0.707107 0.707107 0
    outer loop
      vertex 10.1578 12.2065 1.24397e-15
      vertex 10.4565 11.9078 1.6
      vertex 10.4565 11.9078 1.28055e-15
    endloop
  endfacet
  facet normal -0.891006 0.453991 0
    outer loop
      vertex 12.3422 12.2065 1.51148e-15
      vertex 12.5339 12.5828 1.6
      vertex 12.5339 12.5828 1.53496e-15
    endloop
  endfacet
  facet normal -0.891006 0.453991 0
    outer loop
      vertex 12.5339 12.5828 1.6
      vertex 12.3422 12.2065 1.51148e-15
      vertex 12.3422 12.2065 1.6
    endloop
  endfacet
  facet normal -0.156434 0.987688 0
    outer loop
      vertex 11.6672 11.7161 1.42882e-15
      vertex 11.25 11.65 1.6
      vertex 11.6672 11.7161 1.6
    endloop
  endfacet
  facet normal -0.156434 0.987688 0
    outer loop
      vertex 11.25 11.65 1.6
      vertex 11.6672 11.7161 1.42882e-15
      vertex 11.25 11.65 1.37773e-15
    endloop
  endfacet
  facet normal 0.707107 -0.707107 0
    outer loop
      vertex 10.1578 13.7935 1.6
      vertex 10.4565 14.0922 1.28055e-15
      vertex 10.4565 14.0922 1.6
    endloop
  endfacet
  facet normal 0.707107 -0.707107 0
    outer loop
      vertex 10.4565 14.0922 1.28055e-15
      vertex 10.1578 13.7935 1.6
      vertex 10.1578 13.7935 1.24397e-15
    endloop
  endfacet
  facet normal 0.453991 -0.891006 0
    outer loop
      vertex 10.4565 14.0922 1.6
      vertex 10.8328 14.2839 1.32664e-15
      vertex 10.8328 14.2839 1.6
    endloop
  endfacet
  facet normal 0.453991 -0.891006 0
    outer loop
      vertex 10.8328 14.2839 1.32664e-15
      vertex 10.4565 14.0922 1.6
      vertex 10.4565 14.0922 1.28055e-15
    endloop
  endfacet
  facet normal -0.987688 -0.156434 0
    outer loop
      vertex 12.6 13 1.54305e-15
      vertex 12.5339 13.4172 1.6
      vertex 12.5339 13.4172 1.53496e-15
    endloop
  endfacet
  facet normal -0.987688 -0.156434 0
    outer loop
      vertex 12.5339 13.4172 1.6
      vertex 12.6 13 1.54305e-15
      vertex 12.6 13 1.6
    endloop
  endfacet
  facet normal -0.707107 -0.707107 0
    outer loop
      vertex 12.3422 13.7935 1.51148e-15
      vertex 12.0435 14.0922 1.6
      vertex 12.0435 14.0922 1.4749e-15
    endloop
  endfacet
  facet normal -0.707107 -0.707107 0
    outer loop
      vertex 12.0435 14.0922 1.6
      vertex 12.3422 13.7935 1.51148e-15
      vertex 12.3422 13.7935 1.6
    endloop
  endfacet
  facet normal -0.891006 -0.453991 0
    outer loop
      vertex 12.5339 13.4172 1.53496e-15
      vertex 12.3422 13.7935 1.6
      vertex 12.3422 13.7935 1.51148e-15
    endloop
  endfacet
  facet normal -0.891006 -0.453991 0
    outer loop
      vertex 12.3422 13.7935 1.6
      vertex 12.5339 13.4172 1.53496e-15
      vertex 12.5339 13.4172 1.6
    endloop
  endfacet
  facet normal 0.891006 0.453991 0
    outer loop
      vertex 10.1578 12.2065 1.6
      vertex 9.96607 12.5828 1.22049e-15
      vertex 9.96607 12.5828 1.6
    endloop
  endfacet
  facet normal 0.891006 0.453991 0
    outer loop
      vertex 9.96607 12.5828 1.22049e-15
      vertex 10.1578 12.2065 1.6
      vertex 10.1578 12.2065 1.24397e-15
    endloop
  endfacet
  facet normal -0.707107 0.707107 0
    outer loop
      vertex 12.0435 11.9078 1.4749e-15
      vertex 12.3422 12.2065 1.6
      vertex 12.3422 12.2065 1.51148e-15
    endloop
  endfacet
  facet normal -0.707107 0.707107 0
    outer loop
      vertex 12.3422 12.2065 1.6
      vertex 12.0435 11.9078 1.4749e-15
      vertex 12.0435 11.9078 1.6
    endloop
  endfacet
  facet normal -0.453991 0.891006 0
    outer loop
      vertex 12.0435 11.9078 1.4749e-15
      vertex 11.6672 11.7161 1.6
      vertex 12.0435 11.9078 1.6
    endloop
  endfacet
  facet normal -0.453991 0.891006 0
    outer loop
      vertex 11.6672 11.7161 1.6
      vertex 12.0435 11.9078 1.4749e-15
      vertex 11.6672 11.7161 1.42882e-15
    endloop
  endfacet
  facet normal 0.987688 -0.156434 0
    outer loop
      vertex -12.6 13 1.6
      vertex -12.5339 13.4172 -1.53496e-15
      vertex -12.5339 13.4172 1.6
    endloop
  endfacet
  facet normal 0.987688 -0.156434 0
    outer loop
      vertex -12.5339 13.4172 -1.53496e-15
      vertex -12.6 13 1.6
      vertex -12.6 13 -1.54305e-15
    endloop
  endfacet
  facet normal -0.156434 -0.987688 0
    outer loop
      vertex -11.25 14.35 1.6
      vertex -10.8328 14.2839 -1.32664e-15
      vertex -10.8328 14.2839 1.6
    endloop
  endfacet
  facet normal -0.156434 -0.987688 0
    outer loop
      vertex -10.8328 14.2839 -1.32664e-15
      vertex -11.25 14.35 1.6
      vertex -11.25 14.35 -1.37773e-15
    endloop
  endfacet
  facet normal -0.453991 0.891006 0
    outer loop
      vertex -10.4565 11.9078 -1.28055e-15
      vertex -10.8328 11.7161 1.6
      vertex -10.4565 11.9078 1.6
    endloop
  endfacet
  facet normal -0.453991 0.891006 0
    outer loop
      vertex -10.8328 11.7161 1.6
      vertex -10.4565 11.9078 -1.28055e-15
      vertex -10.8328 11.7161 -1.32664e-15
    endloop
  endfacet
  facet normal 0.453991 -0.891006 0
    outer loop
      vertex -12.0435 14.0922 1.6
      vertex -11.6672 14.2839 -1.42882e-15
      vertex -11.6672 14.2839 1.6
    endloop
  endfacet
  facet normal 0.453991 -0.891006 0
    outer loop
      vertex -11.6672 14.2839 -1.42882e-15
      vertex -12.0435 14.0922 1.6
      vertex -12.0435 14.0922 -1.4749e-15
    endloop
  endfacet
  facet normal 0.891006 -0.453991 0
    outer loop
      vertex -12.5339 13.4172 1.6
      vertex -12.3422 13.7935 -1.51148e-15
      vertex -12.3422 13.7935 1.6
    endloop
  endfacet
  facet normal 0.891006 -0.453991 0
    outer loop
      vertex -12.3422 13.7935 -1.51148e-15
      vertex -12.5339 13.4172 1.6
      vertex -12.5339 13.4172 -1.53496e-15
    endloop
  endfacet
  facet normal 0.156434 -0.987688 0
    outer loop
      vertex -11.6672 14.2839 1.6
      vertex -11.25 14.35 -1.37773e-15
      vertex -11.25 14.35 1.6
    endloop
  endfacet
  facet normal 0.156434 -0.987688 0
    outer loop
      vertex -11.25 14.35 -1.37773e-15
      vertex -11.6672 14.2839 1.6
      vertex -11.6672 14.2839 -1.42882e-15
    endloop
  endfacet
  facet normal -0.891006 -0.453991 0
    outer loop
      vertex -9.96607 13.4172 -1.22049e-15
      vertex -10.1578 13.7935 1.6
      vertex -10.1578 13.7935 -1.24397e-15
    endloop
  endfacet
  facet normal -0.891006 -0.453991 0
    outer loop
      vertex -10.1578 13.7935 1.6
      vertex -9.96607 13.4172 -1.22049e-15
      vertex -9.96607 13.4172 1.6
    endloop
  endfacet
  facet normal -0.987688 -0.156434 0
    outer loop
      vertex -9.9 13 -1.2124e-15
      vertex -9.96607 13.4172 1.6
      vertex -9.96607 13.4172 -1.22049e-15
    endloop
  endfacet
  facet normal -0.987688 -0.156434 0
    outer loop
      vertex -9.96607 13.4172 1.6
      vertex -9.9 13 -1.2124e-15
      vertex -9.9 13 1.6
    endloop
  endfacet
  facet normal -0.453991 -0.891006 0
    outer loop
      vertex -10.8328 14.2839 1.6
      vertex -10.4565 14.0922 -1.28055e-15
      vertex -10.4565 14.0922 1.6
    endloop
  endfacet
  facet normal -0.453991 -0.891006 0
    outer loop
      vertex -10.4565 14.0922 -1.28055e-15
      vertex -10.8328 14.2839 1.6
      vertex -10.8328 14.2839 -1.32664e-15
    endloop
  endfacet
  facet normal 0.987688 0.156434 0
    outer loop
      vertex -12.5339 12.5828 1.6
      vertex -12.6 13 -1.54305e-15
      vertex -12.6 13 1.6
    endloop
  endfacet
  facet normal 0.987688 0.156434 0
    outer loop
      vertex -12.6 13 -1.54305e-15
      vertex -12.5339 12.5828 1.6
      vertex -12.5339 12.5828 -1.53496e-15
    endloop
  endfacet
  facet normal 0.453991 0.891006 -0
    outer loop
      vertex -11.6672 11.7161 -1.42882e-15
      vertex -12.0435 11.9078 1.6
      vertex -11.6672 11.7161 1.6
    endloop
  endfacet
  facet normal 0.453991 0.891006 0
    outer loop
      vertex -12.0435 11.9078 1.6
      vertex -11.6672 11.7161 -1.42882e-15
      vertex -12.0435 11.9078 -1.4749e-15
    endloop
  endfacet
  facet normal 0.891006 0.453991 0
    outer loop
      vertex -12.3422 12.2065 1.6
      vertex -12.5339 12.5828 -1.53496e-15
      vertex -12.5339 12.5828 1.6
    endloop
  endfacet
  facet normal 0.891006 0.453991 0
    outer loop
      vertex -12.5339 12.5828 -1.53496e-15
      vertex -12.3422 12.2065 1.6
      vertex -12.3422 12.2065 -1.51148e-15
    endloop
  endfacet
  facet normal -0.156434 0.987688 0
    outer loop
      vertex -10.8328 11.7161 -1.32664e-15
      vertex -11.25 11.65 1.6
      vertex -10.8328 11.7161 1.6
    endloop
  endfacet
  facet normal -0.156434 0.987688 0
    outer loop
      vertex -11.25 11.65 1.6
      vertex -10.8328 11.7161 -1.32664e-15
      vertex -11.25 11.65 -1.37773e-15
    endloop
  endfacet
  facet normal -0.891006 0.453991 0
    outer loop
      vertex -10.1578 12.2065 -1.24397e-15
      vertex -9.96607 12.5828 1.6
      vertex -9.96607 12.5828 -1.22049e-15
    endloop
  endfacet
  facet normal -0.891006 0.453991 0
    outer loop
      vertex -9.96607 12.5828 1.6
      vertex -10.1578 12.2065 -1.24397e-15
      vertex -10.1578 12.2065 1.6
    endloop
  endfacet
  facet normal 0.707107 -0.707107 0
    outer loop
      vertex -12.3422 13.7935 1.6
      vertex -12.0435 14.0922 -1.4749e-15
      vertex -12.0435 14.0922 1.6
    endloop
  endfacet
  facet normal 0.707107 -0.707107 0
    outer loop
      vertex -12.0435 14.0922 -1.4749e-15
      vertex -12.3422 13.7935 1.6
      vertex -12.3422 13.7935 -1.51148e-15
    endloop
  endfacet
  facet normal -0.987688 0.156434 0
    outer loop
      vertex -9.96607 12.5828 -1.22049e-15
      vertex -9.9 13 1.6
      vertex -9.9 13 -1.2124e-15
    endloop
  endfacet
  facet normal -0.987688 0.156434 0
    outer loop
      vertex -9.9 13 1.6
      vertex -9.96607 12.5828 -1.22049e-15
      vertex -9.96607 12.5828 1.6
    endloop
  endfacet
  facet normal -0.707107 -0.707107 0
    outer loop
      vertex -10.1578 13.7935 -1.24397e-15
      vertex -10.4565 14.0922 1.6
      vertex -10.4565 14.0922 -1.28055e-15
    endloop
  endfacet
  facet normal -0.707107 -0.707107 0
    outer loop
      vertex -10.4565 14.0922 1.6
      vertex -10.1578 13.7935 -1.24397e-15
      vertex -10.1578 13.7935 1.6
    endloop
  endfacet
  facet normal 0.707107 0.707107 0
    outer loop
      vertex -12.0435 11.9078 1.6
      vertex -12.3422 12.2065 -1.51148e-15
      vertex -12.3422 12.2065 1.6
    endloop
  endfacet
  facet normal 0.707107 0.707107 0
    outer loop
      vertex -12.3422 12.2065 -1.51148e-15
      vertex -12.0435 11.9078 1.6
      vertex -12.0435 11.9078 -1.4749e-15
    endloop
  endfacet
  facet normal 0.156434 0.987688 -0
    outer loop
      vertex -11.25 11.65 -1.37773e-15
      vertex -11.6672 11.7161 1.6
      vertex -11.25 11.65 1.6
    endloop
  endfacet
  facet normal 0.156434 0.987688 0
    outer loop
      vertex -11.6672 11.7161 1.6
      vertex -11.25 11.65 -1.37773e-15
      vertex -11.6672 11.7161 -1.42882e-15
    endloop
  endfacet
  facet normal -0.707107 0.707107 0
    outer loop
      vertex -10.4565 11.9078 -1.28055e-15
      vertex -10.1578 12.2065 1.6
      vertex -10.1578 12.2065 -1.24397e-15
    endloop
  endfacet
  facet normal -0.707107 0.707107 0
    outer loop
      vertex -10.1578 12.2065 1.6
      vertex -10.4565 11.9078 -1.28055e-15
      vertex -10.4565 11.9078 1.6
    endloop
  endfacet
  facet normal 0.987688 -0.156434 0
    outer loop
      vertex 9.9 -13 1.6
      vertex 9.96607 -12.5828 1.22049e-15
      vertex 9.96607 -12.5828 1.6
    endloop
  endfacet
  facet normal 0.987688 -0.156434 0
    outer loop
      vertex 9.96607 -12.5828 1.22049e-15
      vertex 9.9 -13 1.6
      vertex 9.9 -13 1.2124e-15
    endloop
  endfacet
  facet normal -0.987688 -0.156434 0
    outer loop
      vertex 12.6 -13 1.54305e-15
      vertex 12.5339 -12.5828 1.6
      vertex 12.5339 -12.5828 1.53496e-15
    endloop
  endfacet
  facet normal -0.987688 -0.156434 0
    outer loop
      vertex 12.5339 -12.5828 1.6
      vertex 12.6 -13 1.54305e-15
      vertex 12.6 -13 1.6
    endloop
  endfacet
  facet normal -0.987688 0.156434 0
    outer loop
      vertex 12.5339 -13.4172 1.53496e-15
      vertex 12.6 -13 1.6
      vertex 12.6 -13 1.54305e-15
    endloop
  endfacet
  facet normal -0.987688 0.156434 0
    outer loop
      vertex 12.6 -13 1.6
      vertex 12.5339 -13.4172 1.53496e-15
      vertex 12.5339 -13.4172 1.6
    endloop
  endfacet
  facet normal -0.156434 -0.987688 0
    outer loop
      vertex 11.25 -11.65 1.6
      vertex 11.6672 -11.7161 1.42882e-15
      vertex 11.6672 -11.7161 1.6
    endloop
  endfacet
  facet normal -0.156434 -0.987688 0
    outer loop
      vertex 11.6672 -11.7161 1.42882e-15
      vertex 11.25 -11.65 1.6
      vertex 11.25 -11.65 1.37773e-15
    endloop
  endfacet
  facet normal 0.707107 -0.707107 0
    outer loop
      vertex 10.1578 -12.2065 1.6
      vertex 10.4565 -11.9078 1.28055e-15
      vertex 10.4565 -11.9078 1.6
    endloop
  endfacet
  facet normal 0.707107 -0.707107 0
    outer loop
      vertex 10.4565 -11.9078 1.28055e-15
      vertex 10.1578 -12.2065 1.6
      vertex 10.1578 -12.2065 1.24397e-15
    endloop
  endfacet
  facet normal 0.891006 -0.453991 0
    outer loop
      vertex 9.96607 -12.5828 1.6
      vertex 10.1578 -12.2065 1.24397e-15
      vertex 10.1578 -12.2065 1.6
    endloop
  endfacet
  facet normal 0.891006 -0.453991 0
    outer loop
      vertex 10.1578 -12.2065 1.24397e-15
      vertex 9.96607 -12.5828 1.6
      vertex 9.96607 -12.5828 1.22049e-15
    endloop
  endfacet
  facet normal 0.156434 -0.987688 0
    outer loop
      vertex 10.8328 -11.7161 1.6
      vertex 11.25 -11.65 1.37773e-15
      vertex 11.25 -11.65 1.6
    endloop
  endfacet
  facet normal 0.156434 -0.987688 0
    outer loop
      vertex 11.25 -11.65 1.37773e-15
      vertex 10.8328 -11.7161 1.6
      vertex 10.8328 -11.7161 1.32664e-15
    endloop
  endfacet
  facet normal -0.453991 -0.891006 0
    outer loop
      vertex 11.6672 -11.7161 1.6
      vertex 12.0435 -11.9078 1.4749e-15
      vertex 12.0435 -11.9078 1.6
    endloop
  endfacet
  facet normal -0.453991 -0.891006 0
    outer loop
      vertex 12.0435 -11.9078 1.4749e-15
      vertex 11.6672 -11.7161 1.6
      vertex 11.6672 -11.7161 1.42882e-15
    endloop
  endfacet
  facet normal -0.707107 -0.707107 0
    outer loop
      vertex 12.3422 -12.2065 1.51148e-15
      vertex 12.0435 -11.9078 1.6
      vertex 12.0435 -11.9078 1.4749e-15
    endloop
  endfacet
  facet normal -0.707107 -0.707107 0
    outer loop
      vertex 12.0435 -11.9078 1.6
      vertex 12.3422 -12.2065 1.51148e-15
      vertex 12.3422 -12.2065 1.6
    endloop
  endfacet
  facet normal 0.453991 -0.891006 0
    outer loop
      vertex 10.4565 -11.9078 1.6
      vertex 10.8328 -11.7161 1.32664e-15
      vertex 10.8328 -11.7161 1.6
    endloop
  endfacet
  facet normal 0.453991 -0.891006 0
    outer loop
      vertex 10.8328 -11.7161 1.32664e-15
      vertex 10.4565 -11.9078 1.6
      vertex 10.4565 -11.9078 1.28055e-15
    endloop
  endfacet
  facet normal -0.891006 -0.453991 0
    outer loop
      vertex 12.5339 -12.5828 1.53496e-15
      vertex 12.3422 -12.2065 1.6
      vertex 12.3422 -12.2065 1.51148e-15
    endloop
  endfacet
  facet normal -0.891006 -0.453991 0
    outer loop
      vertex 12.3422 -12.2065 1.6
      vertex 12.5339 -12.5828 1.53496e-15
      vertex 12.5339 -12.5828 1.6
    endloop
  endfacet
  facet normal 0.453991 0.891006 -0
    outer loop
      vertex 10.8328 -14.2839 1.32664e-15
      vertex 10.4565 -14.0922 1.6
      vertex 10.8328 -14.2839 1.6
    endloop
  endfacet
  facet normal 0.453991 0.891006 0
    outer loop
      vertex 10.4565 -14.0922 1.6
      vertex 10.8328 -14.2839 1.32664e-15
      vertex 10.4565 -14.0922 1.28055e-15
    endloop
  endfacet
  facet normal 0.987688 0.156434 0
    outer loop
      vertex 9.96607 -13.4172 1.6
      vertex 9.9 -13 1.2124e-15
      vertex 9.9 -13 1.6
    endloop
  endfacet
  facet normal 0.987688 0.156434 0
    outer loop
      vertex 9.9 -13 1.2124e-15
      vertex 9.96607 -13.4172 1.6
      vertex 9.96607 -13.4172 1.22049e-15
    endloop
  endfacet
  facet normal -0.891006 0.453991 0
    outer loop
      vertex 12.3422 -13.7935 1.51148e-15
      vertex 12.5339 -13.4172 1.6
      vertex 12.5339 -13.4172 1.53496e-15
    endloop
  endfacet
  facet normal -0.891006 0.453991 0
    outer loop
      vertex 12.5339 -13.4172 1.6
      vertex 12.3422 -13.7935 1.51148e-15
      vertex 12.3422 -13.7935 1.6
    endloop
  endfacet
  facet normal 0.707107 0.707107 0
    outer loop
      vertex 10.4565 -14.0922 1.6
      vertex 10.1578 -13.7935 1.24397e-15
      vertex 10.1578 -13.7935 1.6
    endloop
  endfacet
  facet normal 0.707107 0.707107 0
    outer loop
      vertex 10.1578 -13.7935 1.24397e-15
      vertex 10.4565 -14.0922 1.6
      vertex 10.4565 -14.0922 1.28055e-15
    endloop
  endfacet
  facet normal 0.891006 0.453991 0
    outer loop
      vertex 10.1578 -13.7935 1.6
      vertex 9.96607 -13.4172 1.22049e-15
      vertex 9.96607 -13.4172 1.6
    endloop
  endfacet
  facet normal 0.891006 0.453991 0
    outer loop
      vertex 9.96607 -13.4172 1.22049e-15
      vertex 10.1578 -13.7935 1.6
      vertex 10.1578 -13.7935 1.24397e-15
    endloop
  endfacet
  facet normal 0.156434 0.987688 -0
    outer loop
      vertex 11.25 -14.35 1.37773e-15
      vertex 10.8328 -14.2839 1.6
      vertex 11.25 -14.35 1.6
    endloop
  endfacet
  facet normal 0.156434 0.987688 0
    outer loop
      vertex 10.8328 -14.2839 1.6
      vertex 11.25 -14.35 1.37773e-15
      vertex 10.8328 -14.2839 1.32664e-15
    endloop
  endfacet
  facet normal -0.156434 0.987688 0
    outer loop
      vertex 11.6672 -14.2839 1.42882e-15
      vertex 11.25 -14.35 1.6
      vertex 11.6672 -14.2839 1.6
    endloop
  endfacet
  facet normal -0.156434 0.987688 0
    outer loop
      vertex 11.25 -14.35 1.6
      vertex 11.6672 -14.2839 1.42882e-15
      vertex 11.25 -14.35 1.37773e-15
    endloop
  endfacet
  facet normal -0.707107 0.707107 0
    outer loop
      vertex 12.0435 -14.0922 1.4749e-15
      vertex 12.3422 -13.7935 1.6
      vertex 12.3422 -13.7935 1.51148e-15
    endloop
  endfacet
  facet normal -0.707107 0.707107 0
    outer loop
      vertex 12.3422 -13.7935 1.6
      vertex 12.0435 -14.0922 1.4749e-15
      vertex 12.0435 -14.0922 1.6
    endloop
  endfacet
  facet normal -0.453991 0.891006 0
    outer loop
      vertex 12.0435 -14.0922 1.4749e-15
      vertex 11.6672 -14.2839 1.6
      vertex 12.0435 -14.0922 1.6
    endloop
  endfacet
  facet normal -0.453991 0.891006 0
    outer loop
      vertex 11.6672 -14.2839 1.6
      vertex 12.0435 -14.0922 1.4749e-15
      vertex 11.6672 -14.2839 1.42882e-15
    endloop
  endfacet
  facet normal 0.987688 -0.156434 0
    outer loop
      vertex -12.6 -13 1.6
      vertex -12.5339 -12.5828 -1.53496e-15
      vertex -12.5339 -12.5828 1.6
    endloop
  endfacet
  facet normal 0.987688 -0.156434 0
    outer loop
      vertex -12.5339 -12.5828 -1.53496e-15
      vertex -12.6 -13 1.6
      vertex -12.6 -13 -1.54305e-15
    endloop
  endfacet
  facet normal -0.987688 -0.156434 0
    outer loop
      vertex -9.9 -13 -1.2124e-15
      vertex -9.96607 -12.5828 1.6
      vertex -9.96607 -12.5828 -1.22049e-15
    endloop
  endfacet
  facet normal -0.987688 -0.156434 0
    outer loop
      vertex -9.96607 -12.5828 1.6
      vertex -9.9 -13 -1.2124e-15
      vertex -9.9 -13 1.6
    endloop
  endfacet
  facet normal -0.156434 -0.987688 0
    outer loop
      vertex -11.25 -11.65 1.6
      vertex -10.8328 -11.7161 -1.32664e-15
      vertex -10.8328 -11.7161 1.6
    endloop
  endfacet
  facet normal -0.156434 -0.987688 0
    outer loop
      vertex -10.8328 -11.7161 -1.32664e-15
      vertex -11.25 -11.65 1.6
      vertex -11.25 -11.65 -1.37773e-15
    endloop
  endfacet
  facet normal 0.156434 0.987688 -0
    outer loop
      vertex -11.25 -14.35 -1.37773e-15
      vertex -11.6672 -14.2839 1.6
      vertex -11.25 -14.35 1.6
    endloop
  endfacet
  facet normal 0.156434 0.987688 0
    outer loop
      vertex -11.6672 -14.2839 1.6
      vertex -11.25 -14.35 -1.37773e-15
      vertex -11.6672 -14.2839 -1.42882e-15
    endloop
  endfacet
  facet normal 0.891006 0.453991 0
    outer loop
      vertex -12.3422 -13.7935 1.6
      vertex -12.5339 -13.4172 -1.53496e-15
      vertex -12.5339 -13.4172 1.6
    endloop
  endfacet
  facet normal 0.891006 0.453991 0
    outer loop
      vertex -12.5339 -13.4172 -1.53496e-15
      vertex -12.3422 -13.7935 1.6
      vertex -12.3422 -13.7935 -1.51148e-15
    endloop
  endfacet
  facet normal 0.453991 -0.891006 0
    outer loop
      vertex -12.0435 -11.9078 1.6
      vertex -11.6672 -11.7161 -1.42882e-15
      vertex -11.6672 -11.7161 1.6
    endloop
  endfacet
  facet normal 0.453991 -0.891006 0
    outer loop
      vertex -11.6672 -11.7161 -1.42882e-15
      vertex -12.0435 -11.9078 1.6
      vertex -12.0435 -11.9078 -1.4749e-15
    endloop
  endfacet
  facet normal 0.891006 -0.453991 0
    outer loop
      vertex -12.5339 -12.5828 1.6
      vertex -12.3422 -12.2065 -1.51148e-15
      vertex -12.3422 -12.2065 1.6
    endloop
  endfacet
  facet normal 0.891006 -0.453991 0
    outer loop
      vertex -12.3422 -12.2065 -1.51148e-15
      vertex -12.5339 -12.5828 1.6
      vertex -12.5339 -12.5828 -1.53496e-15
    endloop
  endfacet
  facet normal 0.156434 -0.987688 0
    outer loop
      vertex -11.6672 -11.7161 1.6
      vertex -11.25 -11.65 -1.37773e-15
      vertex -11.25 -11.65 1.6
    endloop
  endfacet
  facet normal 0.156434 -0.987688 0
    outer loop
      vertex -11.25 -11.65 -1.37773e-15
      vertex -11.6672 -11.7161 1.6
      vertex -11.6672 -11.7161 -1.42882e-15
    endloop
  endfacet
  facet normal -0.707107 -0.707107 0
    outer loop
      vertex -10.1578 -12.2065 -1.24397e-15
      vertex -10.4565 -11.9078 1.6
      vertex -10.4565 -11.9078 -1.28055e-15
    endloop
  endfacet
  facet normal -0.707107 -0.707107 0
    outer loop
      vertex -10.4565 -11.9078 1.6
      vertex -10.1578 -12.2065 -1.24397e-15
      vertex -10.1578 -12.2065 1.6
    endloop
  endfacet
  facet normal -0.891006 -0.453991 0
    outer loop
      vertex -9.96607 -12.5828 -1.22049e-15
      vertex -10.1578 -12.2065 1.6
      vertex -10.1578 -12.2065 -1.24397e-15
    endloop
  endfacet
  facet normal -0.891006 -0.453991 0
    outer loop
      vertex -10.1578 -12.2065 1.6
      vertex -9.96607 -12.5828 -1.22049e-15
      vertex -9.96607 -12.5828 1.6
    endloop
  endfacet
  facet normal -0.453991 -0.891006 0
    outer loop
      vertex -10.8328 -11.7161 1.6
      vertex -10.4565 -11.9078 -1.28055e-15
      vertex -10.4565 -11.9078 1.6
    endloop
  endfacet
  facet normal -0.453991 -0.891006 0
    outer loop
      vertex -10.4565 -11.9078 -1.28055e-15
      vertex -10.8328 -11.7161 1.6
      vertex -10.8328 -11.7161 -1.32664e-15
    endloop
  endfacet
  facet normal 0.987688 0.156434 0
    outer loop
      vertex -12.5339 -13.4172 1.6
      vertex -12.6 -13 -1.54305e-15
      vertex -12.6 -13 1.6
    endloop
  endfacet
  facet normal 0.987688 0.156434 0
    outer loop
      vertex -12.6 -13 -1.54305e-15
      vertex -12.5339 -13.4172 1.6
      vertex -12.5339 -13.4172 -1.53496e-15
    endloop
  endfacet
  facet normal 0.707107 -0.707107 0
    outer loop
      vertex -12.3422 -12.2065 1.6
      vertex -12.0435 -11.9078 -1.4749e-15
      vertex -12.0435 -11.9078 1.6
    endloop
  endfacet
  facet normal 0.707107 -0.707107 0
    outer loop
      vertex -12.0435 -11.9078 -1.4749e-15
      vertex -12.3422 -12.2065 1.6
      vertex -12.3422 -12.2065 -1.51148e-15
    endloop
  endfacet
  facet normal 0.453991 0.891006 -0
    outer loop
      vertex -11.6672 -14.2839 -1.42882e-15
      vertex -12.0435 -14.0922 1.6
      vertex -11.6672 -14.2839 1.6
    endloop
  endfacet
  facet normal 0.453991 0.891006 0
    outer loop
      vertex -12.0435 -14.0922 1.6
      vertex -11.6672 -14.2839 -1.42882e-15
      vertex -12.0435 -14.0922 -1.4749e-15
    endloop
  endfacet
  facet normal 0.707107 0.707107 0
    outer loop
      vertex -12.0435 -14.0922 1.6
      vertex -12.3422 -13.7935 -1.51148e-15
      vertex -12.3422 -13.7935 1.6
    endloop
  endfacet
  facet normal 0.707107 0.707107 0
    outer loop
      vertex -12.3422 -13.7935 -1.51148e-15
      vertex -12.0435 -14.0922 1.6
      vertex -12.0435 -14.0922 -1.4749e-15
    endloop
  endfacet
  facet normal -0.453991 0.891006 0
    outer loop
      vertex -10.4565 -14.0922 -1.28055e-15
      vertex -10.8328 -14.2839 1.6
      vertex -10.4565 -14.0922 1.6
    endloop
  endfacet
  facet normal -0.453991 0.891006 0
    outer loop
      vertex -10.8328 -14.2839 1.6
      vertex -10.4565 -14.0922 -1.28055e-15
      vertex -10.8328 -14.2839 -1.32664e-15
    endloop
  endfacet
  facet normal -0.891006 0.453991 0
    outer loop
      vertex -10.1578 -13.7935 -1.24397e-15
      vertex -9.96607 -13.4172 1.6
      vertex -9.96607 -13.4172 -1.22049e-15
    endloop
  endfacet
  facet normal -0.891006 0.453991 0
    outer loop
      vertex -9.96607 -13.4172 1.6
      vertex -10.1578 -13.7935 -1.24397e-15
      vertex -10.1578 -13.7935 1.6
    endloop
  endfacet
  facet normal -0.987688 0.156434 0
    outer loop
      vertex -9.96607 -13.4172 -1.22049e-15
      vertex -9.9 -13 1.6
      vertex -9.9 -13 -1.2124e-15
    endloop
  endfacet
  facet normal -0.987688 0.156434 0
    outer loop
      vertex -9.9 -13 1.6
      vertex -9.96607 -13.4172 -1.22049e-15
      vertex -9.96607 -13.4172 1.6
    endloop
  endfacet
  facet normal -0.707107 0.707107 0
    outer loop
      vertex -10.4565 -14.0922 -1.28055e-15
      vertex -10.1578 -13.7935 1.6
      vertex -10.1578 -13.7935 -1.24397e-15
    endloop
  endfacet
  facet normal -0.707107 0.707107 0
    outer loop
      vertex -10.1578 -13.7935 1.6
      vertex -10.4565 -14.0922 -1.28055e-15
      vertex -10.4565 -14.0922 1.6
    endloop
  endfacet
  facet normal -0.156434 0.987688 0
    outer loop
      vertex -10.8328 -14.2839 -1.32664e-15
      vertex -11.25 -14.35 1.6
      vertex -10.8328 -14.2839 1.6
    endloop
  endfacet
  facet normal -0.156434 0.987688 0
    outer loop
      vertex -11.25 -14.35 1.6
      vertex -10.8328 -14.2839 -1.32664e-15
      vertex -11.25 -14.35 -1.37773e-15
    endloop
  endfacet
  facet normal 1 -0 0
    outer loop
      vertex 4.4 -21.5 4.5
      vertex 4.4 -19.5 1.6
      vertex 4.4 -19.5 4.5
    endloop
  endfacet
  facet normal 1 0 0
    outer loop
      vertex 4.4 -19.5 1.6
      vertex 4.4 -21.5 4.5
      vertex 4.4 -21.5 1.6
    endloop
  endfacet
  facet normal -1 0 0
    outer loop
      vertex -4.4 -21.5 1.6
      vertex -4.4 -19.5 4.5
      vertex -4.4 -19.5 1.6
    endloop
  endfacet
  facet normal -1 -0 0
    outer loop
      vertex -4.4 -19.5 4.5
      vertex -4.4 -21.5 1.6
      vertex -4.4 -21.5 4.5
    endloop
  endfacet
  facet normal 0 1 -0
    outer loop
      vertex 4.4 -19.5 1.6
      vertex -4.4 -19.5 4.5
      vertex 4.4 -19.5 4.5
    endloop
  endfacet
  facet normal 0 1 0
    outer loop
      vertex -4.4 -19.5 4.5
      vertex 4.4 -19.5 1.6
      vertex -4.4 -19.5 1.6
    endloop
  endfacet
  facet normal 1 -0 0
    outer loop
      vertex 4.4 19.5 4.5
      vertex 4.4 21.5 1.6
      vertex 4.4 21.5 4.5
    endloop
  endfacet
  facet normal 1 0 0
    outer loop
      vertex 4.4 21.5 1.6
      vertex 4.4 19.5 4.5
      vertex 4.4 19.5 1.6
    endloop
  endfacet
  facet normal -1 0 0
    outer loop
      vertex -4.4 19.5 1.6
      vertex -4.4 21.5 4.5
      vertex -4.4 21.5 1.6
    endloop
  endfacet
  facet normal -1 -0 0
    outer loop
      vertex -4.4 21.5 4.5
      vertex -4.4 19.5 1.6
      vertex -4.4 19.5 4.5
    endloop
  endfacet
  facet normal 0 -1 0
    outer loop
      vertex -4.4 19.5 1.6
      vertex 4.4 19.5 4.5
      vertex -4.4 19.5 4.5
    endloop
  endfacet
  facet normal 0 -1 -0
    outer loop
      vertex 4.4 19.5 4.5
      vertex -4.4 19.5 1.6
      vertex 4.4 19.5 1.6
    endloop
  endfacet
endsolid OpenSCAD_Model
