solid OpenSCAD_Model
  facet normal -1 0 0
    outer loop
      vertex -32 -26.75 0
      vertex -32 -26.75 2.5
      vertex -32 26.75 0
    endloop
  endfacet
  facet normal -1 0 0
    outer loop
      vertex -32 26.75 0
      vertex -32 -26.75 2.5
      vertex -32 26.75 2.5
    endloop
  endfacet
  facet normal 0 -1 0
    outer loop
      vertex -32 -26.75 2.5
      vertex -32 -26.75 0
      vertex 32 -26.75 0
    endloop
  endfacet
  facet normal 0 -1 0
    outer loop
      vertex 32 -26.75 2.5
      vertex -32 -26.75 2.5
      vertex 32 -26.75 0
    endloop
  endfacet
  facet normal 0 0 -1
    outer loop
      vertex 27.5 -16.75 0
      vertex 32 -26.75 0
      vertex -27.5 -16.75 0
    endloop
  endfacet
  facet normal 0 0 -1
    outer loop
      vertex 27.5 16.75 0
      vertex -32 26.75 0
      vertex 32 26.75 0
    endloop
  endfacet
  facet normal 0 0 -1
    outer loop
      vertex -32 -26.75 0
      vertex -32 26.75 0
      vertex -27.5 16.75 0
    endloop
  endfacet
  facet normal 0 0 -1
    outer loop
      vertex -32 -26.75 0
      vertex -27.5 16.75 0
      vertex -27.5 -16.75 0
    endloop
  endfacet
  facet normal 0 0 -1
    outer loop
      vertex -32 -26.75 0
      vertex -27.5 -16.75 0
      vertex 32 -26.75 0
    endloop
  endfacet
  facet normal 0 0 -1
    outer loop
      vertex 32 -26.75 0
      vertex 27.5 -16.75 0
      vertex 32 26.75 0
    endloop
  endfacet
  facet normal 0 0 -1
    outer loop
      vertex 27.5 -16.75 0
      vertex 27.5 16.75 0
      vertex 32 26.75 0
    endloop
  endfacet
  facet normal 0 0 -1
    outer loop
      vertex -27.5 16.75 0
      vertex -32 26.75 0
      vertex 27.5 16.75 0
    endloop
  endfacet
  facet normal 0 1 0
    outer loop
      vertex -32 26.75 0
      vertex -32 26.75 2.5
      vertex 32 26.75 0
    endloop
  endfacet
  facet normal 0 1 0
    outer loop
      vertex 32 26.75 0
      vertex -32 26.75 2.5
      vertex 32 26.75 2.5
    endloop
  endfacet
  facet normal 0 0 1
    outer loop
      vertex -30 -23.25 2.5
      vertex -32 -26.75 2.5
      vertex 32 -26.75 2.5
    endloop
  endfacet
  facet normal 0 0 1
    outer loop
      vertex -32 26.75 2.5
      vertex -32 -26.75 2.5
      vertex -30 -23.25 2.5
    endloop
  endfacet
  facet normal 0 0 1
    outer loop
      vertex -30 23.25 2.5
      vertex 30 23.25 2.5
      vertex -32 26.75 2.5
    endloop
  endfacet
  facet normal 0 0 1
    outer loop
      vertex -32 26.75 2.5
      vertex -30 -23.25 2.5
      vertex -30 23.25 2.5
    endloop
  endfacet
  facet normal 0 0 1
    outer loop
      vertex 32 26.75 2.5
      vertex 30 23.25 2.5
      vertex 32 -26.75 2.5
    endloop
  endfacet
  facet normal 0 0 1
    outer loop
      vertex 32 26.75 2.5
      vertex -32 26.75 2.5
      vertex 30 23.25 2.5
    endloop
  endfacet
  facet normal 0 0 1
    outer loop
      vertex 30 23.25 2.5
      vertex 30 -23.25 2.5
      vertex 32 -26.75 2.5
    endloop
  endfacet
  facet normal 0 0 1
    outer loop
      vertex 30 -23.25 2.5
      vertex -30 -23.25 2.5
      vertex 32 -26.75 2.5
    endloop
  endfacet
  facet normal 1 0 0
    outer loop
      vertex 32 -26.75 2.5
      vertex 32 -26.75 0
      vertex 32 26.75 0
    endloop
  endfacet
  facet normal 1 0 0
    outer loop
      vertex 32 26.75 2.5
      vertex 32 -26.75 2.5
      vertex 32 26.75 0
    endloop
  endfacet
  facet normal 1 0 0
    outer loop
      vertex -27.5 16.75 0
      vertex -27.5 16.75 1.7
      vertex -27.5 -16.75 1.7
    endloop
  endfacet
  facet normal 1 0 0
    outer loop
      vertex -27.5 -16.75 0
      vertex -27.5 16.75 0
      vertex -27.5 -16.75 1.7
    endloop
  endfacet
  facet normal 0 -1 0
    outer loop
      vertex 27.5 16.75 0
      vertex 27.5 16.75 1.7
      vertex -27.5 16.75 1.7
    endloop
  endfacet
  facet normal 0 -1 0
    outer loop
      vertex -27.5 16.75 0
      vertex 27.5 16.75 0
      vertex -27.5 16.75 1.7
    endloop
  endfacet
  facet normal -1 0 0
    outer loop
      vertex 27.5 16.75 1.7
      vertex 27.5 16.75 0
      vertex 27.5 -16.75 1.7
    endloop
  endfacet
  facet normal -1 0 0
    outer loop
      vertex 27.5 -16.75 1.7
      vertex 27.5 16.75 0
      vertex 27.5 -16.75 0
    endloop
  endfacet
  facet normal 0 1 0
    outer loop
      vertex 27.5 -16.75 1.7
      vertex 27.5 -16.75 0
      vertex -27.5 -16.75 1.7
    endloop
  endfacet
  facet normal 0 1 0
    outer loop
      vertex -27.5 -16.75 1.7
      vertex 27.5 -16.75 0
      vertex -27.5 -16.75 0
    endloop
  endfacet
  facet normal 1 0 0
    outer loop
      vertex -30 23.25 1.7
      vertex -30 23.25 2.5
      vertex -30 -23.25 2.5
    endloop
  endfacet
  facet normal 1 0 0
    outer loop
      vertex -30 -23.25 1.7
      vertex -30 23.25 1.7
      vertex -30 -23.25 2.5
    endloop
  endfacet
  facet normal 0 1 0
    outer loop
      vertex 30 -23.25 2.5
      vertex 30 -23.25 1.7
      vertex -30 -23.25 2.5
    endloop
  endfacet
  facet normal 0 1 0
    outer loop
      vertex -30 -23.25 2.5
      vertex 30 -23.25 1.7
      vertex -30 -23.25 1.7
    endloop
  endfacet
  facet normal -1 0 0
    outer loop
      vertex 30 23.25 2.5
      vertex 30 23.25 1.7
      vertex 30 -23.25 2.5
    endloop
  endfacet
  facet normal -1 0 0
    outer loop
      vertex 30 -23.25 2.5
      vertex 30 23.25 1.7
      vertex 30 -23.25 1.7
    endloop
  endfacet
  facet normal 0 -1 0
    outer loop
      vertex 30 23.25 1.7
      vertex 30 23.25 2.5
      vertex -30 23.25 2.5
    endloop
  endfacet
  facet normal 0 -1 0
    outer loop
      vertex -30 23.25 1.7
      vertex 30 23.25 1.7
      vertex -30 23.25 2.5
    endloop
  endfacet
  facet normal 0 0 1
    outer loop
      vertex 27.5 16.75 1.7
      vertex 30 23.25 1.7
      vertex -30 23.25 1.7
    endloop
  endfacet
  facet normal 0 0 1
    outer loop
      vertex -30 -23.25 1.7
      vertex -27.5 16.75 1.7
      vertex -30 23.25 1.7
    endloop
  endfacet
  facet normal 0 0 1
    outer loop
      vertex 30 -23.25 1.7
      vertex 30 23.25 1.7
      vertex 27.5 16.75 1.7
    endloop
  endfacet
  facet normal 0 0 1
    outer loop
      vertex 27.5 -16.75 1.7
      vertex -27.5 -16.75 1.7
      vertex 30 -23.25 1.7
    endloop
  endfacet
  facet normal 0 0 1
    outer loop
      vertex 30 -23.25 1.7
      vertex 27.5 16.75 1.7
      vertex 27.5 -16.75 1.7
    endloop
  endfacet
  facet normal 0 0 1
    outer loop
      vertex -30 -23.25 1.7
      vertex -27.5 -16.75 1.7
      vertex -27.5 16.75 1.7
    endloop
  endfacet
  facet normal 0 0 1
    outer loop
      vertex -30 -23.25 1.7
      vertex 30 -23.25 1.7
      vertex -27.5 -16.75 1.7
    endloop
  endfacet
  facet normal 0 0 1
    outer loop
      vertex -27.5 16.75 1.7
      vertex 27.5 16.75 1.7
      vertex -30 23.25 1.7
    endloop
  endfacet
endsolid OpenSCAD_Model
