solid OpenSCAD_Model
  facet normal -1 0 0
    outer loop
      vertex -4 80.6 5.8
      vertex -4 89 0
      vertex -4 68.6 5.8
    endloop
  endfacet
  facet normal -1 0 0
    outer loop
      vertex -4 68.6 13.8
      vertex -4 -4 30.5
      vertex -4 89 30.5
    endloop
  endfacet
  facet normal -1 0 0
    outer loop
      vertex -4 80.6 13.8
      vertex -4 68.6 13.8
      vertex -4 89 30.5
    endloop
  endfacet
  facet normal -1 0 0
    outer loop
      vertex -4 -4 0
      vertex -4 -4 30.5
      vertex -4 68.6 5.8
    endloop
  endfacet
  facet normal -1 0 0
    outer loop
      vertex -4 -4 0
      vertex -4 68.6 5.8
      vertex -4 89 0
    endloop
  endfacet
  facet normal -1 0 0
    outer loop
      vertex -4 89 0
      vertex -4 80.6 5.8
      vertex -4 89 30.5
    endloop
  endfacet
  facet normal -1 0 0
    outer loop
      vertex -4 80.6 5.8
      vertex -4 80.6 13.8
      vertex -4 89 30.5
    endloop
  endfacet
  facet normal -1 0 0
    outer loop
      vertex -4 68.6 5.8
      vertex -4 -4 30.5
      vertex -4 68.6 13.8
    endloop
  endfacet
  facet normal 0 -1 0
    outer loop
      vertex 2.4 -4 7.9
      vertex -4 -4 0
      vertex 60 -4 0
    endloop
  endfacet
  facet normal 0 -1 0
    outer loop
      vertex 60 -4 30.5
      vertex -4 -4 30.5
      vertex 60 -4 0
    endloop
  endfacet
  facet normal 0 -1 0
    outer loop
      vertex 18.4 -4 7.9
      vertex 2.4 -4 7.9
      vertex 60 -4 0
    endloop
  endfacet
  facet normal 0 -1 0
    outer loop
      vertex -4 -4 30.5
      vertex -4 -4 0
      vertex 2.4 -4 7.9
    endloop
  endfacet
  facet normal 0 -1 0
    outer loop
      vertex -4 -4 30.5
      vertex 2.4 -4 7.9
      vertex 2.4 -4 19.2
    endloop
  endfacet
  facet normal 0 -1 0
    outer loop
      vertex -4 -4 30.5
      vertex 18.4 -4 19.2
      vertex 60 -4 0
    endloop
  endfacet
  facet normal 0 -1 0
    outer loop
      vertex -4 -4 30.5
      vertex 2.4 -4 19.2
      vertex 18.4 -4 19.2
    endloop
  endfacet
  facet normal 0 -1 0
    outer loop
      vertex 18.4 -4 19.2
      vertex 18.4 -4 7.9
      vertex 60 -4 0
    endloop
  endfacet
  facet normal 0 0 -1
    outer loop
      vertex -4 -4 0
      vertex -4 89 0
      vertex 60 -4 0
    endloop
  endfacet
  facet normal 0 0 -1
    outer loop
      vertex 60 -4 0
      vertex -4 89 0
      vertex 60 89 0
    endloop
  endfacet
  facet normal 0 1 0
    outer loop
      vertex -4 89 0
      vertex -4 89 30.5
      vertex 60 89 0
    endloop
  endfacet
  facet normal 0 1 0
    outer loop
      vertex 60 89 0
      vertex -4 89 30.5
      vertex 60 89 30.5
    endloop
  endfacet
  facet normal 0 0 1
    outer loop
      vertex -2 -2 30.5
      vertex -4 -4 30.5
      vertex 60 -4 30.5
    endloop
  endfacet
  facet normal 0 0 1
    outer loop
      vertex 58 -2 30.5
      vertex -2 -2 30.5
      vertex 60 -4 30.5
    endloop
  endfacet
  facet normal 0 0 1
    outer loop
      vertex -4 89 30.5
      vertex -4 -4 30.5
      vertex -2 -2 30.5
    endloop
  endfacet
  facet normal 0 0 1
    outer loop
      vertex 60 89 30.5
      vertex -4 89 30.5
      vertex -2 87 30.5
    endloop
  endfacet
  facet normal 0 0 1
    outer loop
      vertex 60 89 30.5
      vertex 58 87 30.5
      vertex 60 -4 30.5
    endloop
  endfacet
  facet normal 0 0 1
    outer loop
      vertex 60 89 30.5
      vertex -2 87 30.5
      vertex 58 87 30.5
    endloop
  endfacet
  facet normal 0 0 1
    outer loop
      vertex 58 87 30.5
      vertex 58 -2 30.5
      vertex 60 -4 30.5
    endloop
  endfacet
  facet normal 0 0 1
    outer loop
      vertex -2 -2 30.5
      vertex -2 87 30.5
      vertex -4 89 30.5
    endloop
  endfacet
  facet normal 0 0 -1
    outer loop
      vertex -2.8 80.6 13.8
      vertex -2.8 68.6 13.8
      vertex -4 80.6 13.8
    endloop
  endfacet
  facet normal 0 0 -1
    outer loop
      vertex -4 80.6 13.8
      vertex -2.8 68.6 13.8
      vertex -4 68.6 13.8
    endloop
  endfacet
  facet normal 0 1 0
    outer loop
      vertex -2.8 68.6 13.8
      vertex -2.8 68.6 5.8
      vertex -4 68.6 13.8
    endloop
  endfacet
  facet normal 0 1 0
    outer loop
      vertex -4 68.6 13.8
      vertex -2.8 68.6 5.8
      vertex -4 68.6 5.8
    endloop
  endfacet
  facet normal 0 -1 0
    outer loop
      vertex -2.8 80.6 5.8
      vertex -2.8 80.6 13.8
      vertex -4 80.6 13.8
    endloop
  endfacet
  facet normal 0 -1 0
    outer loop
      vertex -4 80.6 5.8
      vertex -2.8 80.6 5.8
      vertex -4 80.6 13.8
    endloop
  endfacet
  facet normal 0 0 1
    outer loop
      vertex -2.8 68.6 5.8
      vertex -2.8 80.6 5.8
      vertex -4 80.6 5.8
    endloop
  endfacet
  facet normal 0 0 1
    outer loop
      vertex -4 68.6 5.8
      vertex -2.8 68.6 5.8
      vertex -4 80.6 5.8
    endloop
  endfacet
  facet normal 1 0 0
    outer loop
      vertex 60 -4 30.5
      vertex 60 -4 0
      vertex 60 89 0
    endloop
  endfacet
  facet normal 1 0 0
    outer loop
      vertex 60 89 30.5
      vertex 60 -4 30.5
      vertex 60 89 0
    endloop
  endfacet
  facet normal 1 0 0
    outer loop
      vertex 2.4 -3.1 7.9
      vertex 2.4 -3.1 19.2
      vertex 2.4 -4 19.2
    endloop
  endfacet
  facet normal 1 0 0
    outer loop
      vertex 2.4 -4 7.9
      vertex 2.4 -3.1 7.9
      vertex 2.4 -4 19.2
    endloop
  endfacet
  facet normal 0 0 1
    outer loop
      vertex 18.4 -4 7.9
      vertex 18.4 -3.1 7.9
      vertex 2.4 -3.1 7.9
    endloop
  endfacet
  facet normal 0 0 1
    outer loop
      vertex 2.4 -4 7.9
      vertex 18.4 -4 7.9
      vertex 2.4 -3.1 7.9
    endloop
  endfacet
  facet normal -1 0 0
    outer loop
      vertex 18.4 -3.1 19.2
      vertex 18.4 -3.1 7.9
      vertex 18.4 -4 19.2
    endloop
  endfacet
  facet normal -1 0 0
    outer loop
      vertex 18.4 -4 19.2
      vertex 18.4 -3.1 7.9
      vertex 18.4 -4 7.9
    endloop
  endfacet
  facet normal 0 0 -1
    outer loop
      vertex 18.4 -3.1 19.2
      vertex 18.4 -4 19.2
      vertex 2.4 -3.1 19.2
    endloop
  endfacet
  facet normal 0 0 -1
    outer loop
      vertex 2.4 -3.1 19.2
      vertex 18.4 -4 19.2
      vertex 2.4 -4 19.2
    endloop
  endfacet
  facet normal 1 0 0
    outer loop
      vertex -2 -2 30.5
      vertex -2 -2 26.6
      vertex -2 27.5 26.6
    endloop
  endfacet
  facet normal 1 0 0
    outer loop
      vertex -2 87 26.6
      vertex -2 -2 30.5
      vertex -2 62.5 26.6
    endloop
  endfacet
  facet normal 1 0 0
    outer loop
      vertex -2 62.5 26.6
      vertex -2 -2 30.5
      vertex -2 27.5 26.6
    endloop
  endfacet
  facet normal 1 0 0
    outer loop
      vertex -2 87 30.5
      vertex -2 -2 30.5
      vertex -2 87 26.6
    endloop
  endfacet
  facet normal 0 1 0
    outer loop
      vertex 58 -2 30.5
      vertex 58 -2 26.6
      vertex -2 -2 30.5
    endloop
  endfacet
  facet normal 0 1 0
    outer loop
      vertex -2 -2 30.5
      vertex 58 -2 26.6
      vertex 55 -2 26.6
    endloop
  endfacet
  facet normal 0 1 0
    outer loop
      vertex -2 -2 30.5
      vertex 55 -2 26.6
      vertex 55 -2 6.6
    endloop
  endfacet
  facet normal 0 1 0
    outer loop
      vertex 2.4 -2 7.9
      vertex 55 -2 6.6
      vertex 1 -2 6.6
    endloop
  endfacet
  facet normal 0 1 0
    outer loop
      vertex -2 -2 30.5
      vertex 55 -2 6.6
      vertex 1 -2 26.6
    endloop
  endfacet
  facet normal 0 1 0
    outer loop
      vertex 2.4 -2 19.2
      vertex 1 -2 26.6
      vertex 18.4 -2 19.2
    endloop
  endfacet
  facet normal 0 1 0
    outer loop
      vertex 18.4 -2 7.9
      vertex 55 -2 6.6
      vertex 2.4 -2 7.9
    endloop
  endfacet
  facet normal 0 1 0
    outer loop
      vertex 1 -2 26.6
      vertex 2.4 -2 7.9
      vertex 1 -2 6.6
    endloop
  endfacet
  facet normal 0 1 0
    outer loop
      vertex 18.4 -2 19.2
      vertex 55 -2 6.6
      vertex 18.4 -2 7.9
    endloop
  endfacet
  facet normal 0 1 0
    outer loop
      vertex 1 -2 26.6
      vertex 55 -2 6.6
      vertex 18.4 -2 19.2
    endloop
  endfacet
  facet normal 0 1 0
    outer loop
      vertex 1 -2 26.6
      vertex 2.4 -2 19.2
      vertex 2.4 -2 7.9
    endloop
  endfacet
  facet normal 0 1 0
    outer loop
      vertex -2 -2 26.6
      vertex -2 -2 30.5
      vertex 1 -2 26.6
    endloop
  endfacet
  facet normal -1 0 0
    outer loop
      vertex 58 87 30.5
      vertex 58 87 26.6
      vertex 58 -2 30.5
    endloop
  endfacet
  facet normal -1 0 0
    outer loop
      vertex 58 -2 30.5
      vertex 58 87 26.6
      vertex 58 -2 26.6
    endloop
  endfacet
  facet normal 0 -1 0
    outer loop
      vertex 20 87 26.6
      vertex 20 87 4
      vertex 35 87 4
    endloop
  endfacet
  facet normal 0 -1 0
    outer loop
      vertex 58 87 30.5
      vertex 20 87 26.6
      vertex 35 87 26.6
    endloop
  endfacet
  facet normal 0 -1 0
    outer loop
      vertex 35 87 26.6
      vertex 20 87 26.6
      vertex 35 87 4
    endloop
  endfacet
  facet normal 0 -1 0
    outer loop
      vertex 58 87 30.5
      vertex 35 87 26.6
      vertex 58 87 26.6
    endloop
  endfacet
  facet normal 0 -1 0
    outer loop
      vertex -2 87 30.5
      vertex 20 87 26.6
      vertex 58 87 30.5
    endloop
  endfacet
  facet normal 0 -1 0
    outer loop
      vertex -2 87 26.6
      vertex 20 87 26.6
      vertex -2 87 30.5
    endloop
  endfacet
  facet normal -1 0 0
    outer loop
      vertex -2.8 70.6 11.3
      vertex -2.8 68.6 13.8
      vertex -2.8 78.6 11.3
    endloop
  endfacet
  facet normal -1 0 0
    outer loop
      vertex -2.8 70.6 8
      vertex -2.8 80.6 5.8
      vertex -2.8 68.6 5.8
    endloop
  endfacet
  facet normal -1 0 0
    outer loop
      vertex -2.8 68.6 13.8
      vertex -2.8 70.6 8
      vertex -2.8 68.6 5.8
    endloop
  endfacet
  facet normal -1 0 0
    outer loop
      vertex -2.8 80.6 13.8
      vertex -2.8 80.6 5.8
      vertex -2.8 78.6 8
    endloop
  endfacet
  facet normal -1 0 0
    outer loop
      vertex -2.8 80.6 13.8
      vertex -2.8 78.6 8
      vertex -2.8 78.6 11.3
    endloop
  endfacet
  facet normal -1 0 0
    outer loop
      vertex -2.8 80.6 13.8
      vertex -2.8 78.6 11.3
      vertex -2.8 68.6 13.8
    endloop
  endfacet
  facet normal -1 0 0
    outer loop
      vertex -2.8 68.6 13.8
      vertex -2.8 70.6 11.3
      vertex -2.8 70.6 8
    endloop
  endfacet
  facet normal -1 0 0
    outer loop
      vertex -2.8 78.6 8
      vertex -2.8 80.6 5.8
      vertex -2.8 70.6 8
    endloop
  endfacet
  facet normal 0 -1 0
    outer loop
      vertex 18.4 -3.1 7.9
      vertex 18.4 -3.1 19.2
      vertex 2.4 -3.1 19.2
    endloop
  endfacet
  facet normal 0 -1 0
    outer loop
      vertex 2.4 -3.1 7.9
      vertex 18.4 -3.1 7.9
      vertex 2.4 -3.1 19.2
    endloop
  endfacet
  facet normal 0 0 1
    outer loop
      vertex -1 80.5 26.6
      vertex -2 87 26.6
      vertex -1 68.5 26.6
    endloop
  endfacet
  facet normal 0 0 1
    outer loop
      vertex 0 62.5 26.6
      vertex 0 68.5 26.6
      vertex -1 68.5 26.6
    endloop
  endfacet
  facet normal 0 0 1
    outer loop
      vertex 0 85 26.6
      vertex -2 87 26.6
      vertex -1 80.5 26.6
    endloop
  endfacet
  facet normal 0 0 1
    outer loop
      vertex -2 62.5 26.6
      vertex 0 62.5 26.6
      vertex -1 68.5 26.6
    endloop
  endfacet
  facet normal 0 0 1
    outer loop
      vertex 0 80.5 26.6
      vertex 0 85 26.6
      vertex -1 80.5 26.6
    endloop
  endfacet
  facet normal 0 0 1
    outer loop
      vertex 20 85 26.6
      vertex 20 87 26.6
      vertex 0 85 26.6
    endloop
  endfacet
  facet normal 0 0 1
    outer loop
      vertex 20 87 26.6
      vertex -2 87 26.6
      vertex 0 85 26.6
    endloop
  endfacet
  facet normal 0 0 1
    outer loop
      vertex -2 87 26.6
      vertex -2 62.5 26.6
      vertex -1 68.5 26.6
    endloop
  endfacet
  facet normal 0 -1 0
    outer loop
      vertex 0 62.5 6
      vertex 0 62.5 26.6
      vertex -2 62.5 26.6
    endloop
  endfacet
  facet normal 0 -1 0
    outer loop
      vertex -2 62.5 6
      vertex 0 62.5 6
      vertex -2 62.5 26.5
    endloop
  endfacet
  facet normal 0 -1 0
    outer loop
      vertex -2 62.5 26.5
      vertex 0 62.5 6
      vertex -2 62.5 26.6
    endloop
  endfacet
  facet normal 1 0 0
    outer loop
      vertex -2 27.5 26.6
      vertex -2 27.5 26.5
      vertex -2 62.5 26.5
    endloop
  endfacet
  facet normal 1 0 0
    outer loop
      vertex -2 62.5 26.6
      vertex -2 27.5 26.6
      vertex -2 62.5 26.5
    endloop
  endfacet
  facet normal 0 0 1
    outer loop
      vertex 1 -2 26.6
      vertex 1 0 26.6
      vertex 0 0 26.6
    endloop
  endfacet
  facet normal 0 0 1
    outer loop
      vertex -2 -2 26.6
      vertex 1 -2 26.6
      vertex 0 0 26.6
    endloop
  endfacet
  facet normal 0 0 1
    outer loop
      vertex 0 27.5 26.6
      vertex -2 27.5 26.6
      vertex 0 0 26.6
    endloop
  endfacet
  facet normal 0 0 1
    outer loop
      vertex -2 27.5 26.6
      vertex -2 -2 26.6
      vertex 0 0 26.6
    endloop
  endfacet
  facet normal 0 1 0
    outer loop
      vertex -2 27.5 26.6
      vertex 0 27.5 26.6
      vertex -2 27.5 26.5
    endloop
  endfacet
  facet normal 0 1 0
    outer loop
      vertex -2 27.5 26.5
      vertex 0 27.5 26.6
      vertex 0 27.5 6
    endloop
  endfacet
  facet normal 0 1 0
    outer loop
      vertex -2 27.5 26.5
      vertex 0 27.5 6
      vertex -2 27.5 6
    endloop
  endfacet
  facet normal 1 0 0
    outer loop
      vertex 1 0 6.6
      vertex 1 0 26.6
      vertex 1 -2 26.6
    endloop
  endfacet
  facet normal 1 0 0
    outer loop
      vertex 1 -2 6.6
      vertex 1 0 6.6
      vertex 1 -2 26.6
    endloop
  endfacet
  facet normal 0 0 1
    outer loop
      vertex 55 -2 6.6
      vertex 55 0 6.6
      vertex 1 0 6.6
    endloop
  endfacet
  facet normal 0 0 1
    outer loop
      vertex 1 -2 6.6
      vertex 55 -2 6.6
      vertex 1 0 6.6
    endloop
  endfacet
  facet normal -1 0 0
    outer loop
      vertex 55 0 26.6
      vertex 55 0 6.6
      vertex 55 -2 26.6
    endloop
  endfacet
  facet normal -1 0 0
    outer loop
      vertex 55 -2 26.6
      vertex 55 0 6.6
      vertex 55 -2 6.6
    endloop
  endfacet
  facet normal 0 0 1
    outer loop
      vertex 55 -2 26.6
      vertex 56 0 26.6
      vertex 55 0 26.6
    endloop
  endfacet
  facet normal 0 0 1
    outer loop
      vertex 58 -2 26.6
      vertex 56 0 26.6
      vertex 55 -2 26.6
    endloop
  endfacet
  facet normal 0 0 1
    outer loop
      vertex 56 85 26.6
      vertex 56 0 26.6
      vertex 58 -2 26.6
    endloop
  endfacet
  facet normal 0 0 1
    outer loop
      vertex 58 87 26.6
      vertex 56 85 26.6
      vertex 58 -2 26.6
    endloop
  endfacet
  facet normal 0 0 1
    outer loop
      vertex 35 87 26.6
      vertex 56 85 26.6
      vertex 58 87 26.6
    endloop
  endfacet
  facet normal 0 0 1
    outer loop
      vertex 35 85 26.6
      vertex 56 85 26.6
      vertex 35 87 26.6
    endloop
  endfacet
  facet normal 1 0 0
    outer loop
      vertex 2.4 -2 7.9
      vertex 2.4 -2 19.2
      vertex 2.4 -3 19.2
    endloop
  endfacet
  facet normal 1 0 0
    outer loop
      vertex 2.4 -3 7.9
      vertex 2.4 -2 7.9
      vertex 2.4 -3 19.2
    endloop
  endfacet
  facet normal 0 0 1
    outer loop
      vertex 18.4 -3 7.9
      vertex 18.4 -2 7.9
      vertex 2.4 -2 7.9
    endloop
  endfacet
  facet normal 0 0 1
    outer loop
      vertex 2.4 -3 7.9
      vertex 18.4 -3 7.9
      vertex 2.4 -2 7.9
    endloop
  endfacet
  facet normal 0 0 -1
    outer loop
      vertex 18.4 -2 19.2
      vertex 18.4 -3 19.2
      vertex 2.4 -2 19.2
    endloop
  endfacet
  facet normal 0 0 -1
    outer loop
      vertex 2.4 -2 19.2
      vertex 18.4 -3 19.2
      vertex 2.4 -3 19.2
    endloop
  endfacet
  facet normal -1 0 0
    outer loop
      vertex 18.4 -2 19.2
      vertex 18.4 -2 7.9
      vertex 18.4 -3 19.2
    endloop
  endfacet
  facet normal -1 0 0
    outer loop
      vertex 18.4 -3 19.2
      vertex 18.4 -2 7.9
      vertex 18.4 -3 7.9
    endloop
  endfacet
  facet normal 1 0 0
    outer loop
      vertex 20 86 4
      vertex 20 87 4
      vertex 20 87 26.6
    endloop
  endfacet
  facet normal 1 0 0
    outer loop
      vertex 20 85 4
      vertex 20 86 4
      vertex 20 85 26.6
    endloop
  endfacet
  facet normal 1 0 0
    outer loop
      vertex 20 85 26.6
      vertex 20 86 4
      vertex 20 87 26.6
    endloop
  endfacet
  facet normal -1 0 0
    outer loop
      vertex 35 87 26.6
      vertex 35 87 4
      vertex 35 85 26.6
    endloop
  endfacet
  facet normal -1 0 0
    outer loop
      vertex 35 85 26.6
      vertex 35 87 4
      vertex 35 86 4
    endloop
  endfacet
  facet normal -1 0 0
    outer loop
      vertex 35 85 26.6
      vertex 35 86 4
      vertex 35 85 4
    endloop
  endfacet
  facet normal 0 0 1
    outer loop
      vertex 20 87 4
      vertex 20 86 4
      vertex 35 86 4
    endloop
  endfacet
  facet normal 0 0 1
    outer loop
      vertex 35 87 4
      vertex 20 87 4
      vertex 35 86 4
    endloop
  endfacet
  facet normal 0 1 0
    outer loop
      vertex -2 70.6 11.3
      vertex -2 70.6 8
      vertex -2.8 70.6 11.3
    endloop
  endfacet
  facet normal 0 1 0
    outer loop
      vertex -2.8 70.6 11.3
      vertex -2 70.6 8
      vertex -2.8 70.6 8
    endloop
  endfacet
  facet normal 0 0 1
    outer loop
      vertex -2 70.6 8
      vertex -2 78.6 8
      vertex -2.8 78.6 8
    endloop
  endfacet
  facet normal 0 0 1
    outer loop
      vertex -2.8 70.6 8
      vertex -2 70.6 8
      vertex -2.8 78.6 8
    endloop
  endfacet
  facet normal 0 0 -1
    outer loop
      vertex -2 78.6 11.3
      vertex -2 70.6 11.3
      vertex -2.8 78.6 11.3
    endloop
  endfacet
  facet normal 0 0 -1
    outer loop
      vertex -2.8 78.6 11.3
      vertex -2 70.6 11.3
      vertex -2.8 70.6 11.3
    endloop
  endfacet
  facet normal 0 -1 0
    outer loop
      vertex -2 78.6 8
      vertex -2 78.6 11.3
      vertex -2.8 78.6 11.3
    endloop
  endfacet
  facet normal 0 -1 0
    outer loop
      vertex -2.8 78.6 8
      vertex -2 78.6 8
      vertex -2.8 78.6 11.3
    endloop
  endfacet
  facet normal 1 0 0
    outer loop
      vertex 0 68.5 6
      vertex 0 0 4
      vertex 0 85 4
    endloop
  endfacet
  facet normal 1 0 0
    outer loop
      vertex 0 27.5 6
      vertex 0 27.5 26.6
      vertex 0 0 26.6
    endloop
  endfacet
  facet normal 1 0 0
    outer loop
      vertex 0 85 26.6
      vertex 0 80.5 26.6
      vertex 0 85 4
    endloop
  endfacet
  facet normal 1 0 0
    outer loop
      vertex 0 80.5 26.6
      vertex 0 80.5 6
      vertex 0 85 4
    endloop
  endfacet
  facet normal 1 0 0
    outer loop
      vertex 0 62.5 26.6
      vertex 0 62.5 6
      vertex 0 68.5 6
    endloop
  endfacet
  facet normal 1 0 0
    outer loop
      vertex 0 62.5 6
      vertex 0 0 4
      vertex 0 68.5 6
    endloop
  endfacet
  facet normal 1 0 0
    outer loop
      vertex 0 27.5 6
      vertex 0 0 4
      vertex 0 62.5 6
    endloop
  endfacet
  facet normal 1 0 0
    outer loop
      vertex 0 0 26.6
      vertex 0 0 4
      vertex 0 27.5 6
    endloop
  endfacet
  facet normal 1 0 0
    outer loop
      vertex 0 80.5 6
      vertex 0 68.5 6
      vertex 0 85 4
    endloop
  endfacet
  facet normal 1 0 0
    outer loop
      vertex 0 68.5 6
      vertex 0 68.5 26.6
      vertex 0 62.5 26.6
    endloop
  endfacet
  facet normal 0 -1 0
    outer loop
      vertex 0 85 26.6
      vertex 0 85 4
      vertex 20 85 4
    endloop
  endfacet
  facet normal 0 -1 0
    outer loop
      vertex 20 85 26.6
      vertex 0 85 26.6
      vertex 20 85 4
    endloop
  endfacet
  facet normal 0 -1 0
    outer loop
      vertex 0 80.5 6
      vertex 0 80.5 26.6
      vertex -1 80.5 26.6
    endloop
  endfacet
  facet normal 0 -1 0
    outer loop
      vertex -1 80.5 6
      vertex 0 80.5 6
      vertex -1 80.5 26.6
    endloop
  endfacet
  facet normal 1 0 0
    outer loop
      vertex -1 78.6 11.3
      vertex -1 80.5 26.6
      vertex -1 68.5 26.6
    endloop
  endfacet
  facet normal 1 0 0
    outer loop
      vertex -1 78.6 8
      vertex -1 70.6 8
      vertex -1 80.5 6
    endloop
  endfacet
  facet normal 1 0 0
    outer loop
      vertex -1 68.5 6
      vertex -1 70.6 11.3
      vertex -1 68.5 26.6
    endloop
  endfacet
  facet normal 1 0 0
    outer loop
      vertex -1 80.5 6
      vertex -1 80.5 26.6
      vertex -1 78.6 11.3
    endloop
  endfacet
  facet normal 1 0 0
    outer loop
      vertex -1 68.5 6
      vertex -1 70.6 8
      vertex -1 70.6 11.3
    endloop
  endfacet
  facet normal 1 0 0
    outer loop
      vertex -1 68.5 6
      vertex -1 80.5 6
      vertex -1 70.6 8
    endloop
  endfacet
  facet normal 1 0 0
    outer loop
      vertex -1 78.6 11.3
      vertex -1 78.6 8
      vertex -1 80.5 6
    endloop
  endfacet
  facet normal 1 0 0
    outer loop
      vertex -1 70.6 11.3
      vertex -1 78.6 11.3
      vertex -1 68.5 26.6
    endloop
  endfacet
  facet normal 0 1 0
    outer loop
      vertex 0 68.5 26.6
      vertex 0 68.5 6
      vertex -1 68.5 26.6
    endloop
  endfacet
  facet normal 0 1 0
    outer loop
      vertex -1 68.5 26.6
      vertex 0 68.5 6
      vertex -1 68.5 6
    endloop
  endfacet
  facet normal 0 0 1
    outer loop
      vertex 0 27.5 6
      vertex 0 62.5 6
      vertex -2 62.5 6
    endloop
  endfacet
  facet normal 0 0 1
    outer loop
      vertex -2 27.5 6
      vertex 0 27.5 6
      vertex -2 62.5 6
    endloop
  endfacet
  facet normal 1 0 0
    outer loop
      vertex -2 27.5 26.5
      vertex -2 27.5 6
      vertex -2 62.5 6
    endloop
  endfacet
  facet normal 1 0 0
    outer loop
      vertex -2 62.5 26.5
      vertex -2 27.5 26.5
      vertex -2 62.5 6
    endloop
  endfacet
  facet normal 0 1 0
    outer loop
      vertex 55 0 6.6
      vertex 56 0 4
      vertex 1 0 6.6
    endloop
  endfacet
  facet normal 0 1 0
    outer loop
      vertex 0 0 4
      vertex 0 0 26.6
      vertex 1 0 6.6
    endloop
  endfacet
  facet normal 0 1 0
    outer loop
      vertex 0 0 4
      vertex 1 0 6.6
      vertex 56 0 4
    endloop
  endfacet
  facet normal 0 1 0
    outer loop
      vertex 56 0 4
      vertex 55 0 6.6
      vertex 55 0 26.6
    endloop
  endfacet
  facet normal 0 1 0
    outer loop
      vertex 56 0 4
      vertex 55 0 26.6
      vertex 56 0 26.6
    endloop
  endfacet
  facet normal 0 1 0
    outer loop
      vertex 1 0 6.6
      vertex 0 0 26.6
      vertex 1 0 26.6
    endloop
  endfacet
  facet normal 0 -1 0
    outer loop
      vertex 35 85 26.6
      vertex 35 85 4
      vertex 56 85 4
    endloop
  endfacet
  facet normal 0 -1 0
    outer loop
      vertex 56 85 26.6
      vertex 35 85 26.6
      vertex 56 85 4
    endloop
  endfacet
  facet normal -1 0 0
    outer loop
      vertex 56 0 4
      vertex 56 0 26.6
      vertex 56 85 4
    endloop
  endfacet
  facet normal -1 0 0
    outer loop
      vertex 56 85 4
      vertex 56 0 26.6
      vertex 56 85 26.6
    endloop
  endfacet
  facet normal 0 1 0
    outer loop
      vertex 18.4 -3 19.2
      vertex 18.4 -3 7.9
      vertex 2.4 -3 19.2
    endloop
  endfacet
  facet normal 0 1 0
    outer loop
      vertex 2.4 -3 19.2
      vertex 18.4 -3 7.9
      vertex 2.4 -3 7.9
    endloop
  endfacet
  facet normal 0 0 1
    outer loop
      vertex 3.93621 20.7425 4
      vertex 0 0 4
      vertex 56 0 4
    endloop
  endfacet
  facet normal 0 0 1
    outer loop
      vertex 49.9189 22.5423 4
      vertex 20 85 4
      vertex 56 0 4
    endloop
  endfacet
  facet normal 0 0 1
    outer loop
      vertex 53.0362 84.3075 4
      vertex 54.6949 83.3498 4
      vertex 56 85 4
    endloop
  endfacet
  facet normal 0 0 1
    outer loop
      vertex 5.59492 25.2998 4
      vertex 6.25 23.5 4
      vertex 56 0 4
    endloop
  endfacet
  facet normal 0 0 1
    outer loop
      vertex 35 86 4
      vertex 20 85 4
      vertex 35 85 4
    endloop
  endfacet
  facet normal 0 0 1
    outer loop
      vertex 0 85 4
      vertex 0 0 4
      vertex 0.818861 22.5423 4
    endloop
  endfacet
  facet normal 0 0 1
    outer loop
      vertex 5.59492 21.7002 4
      vertex 3.93621 20.7425 4
      vertex 56 0 4
    endloop
  endfacet
  facet normal 0 0 1
    outer loop
      vertex 0 85 4
      vertex 0.818861 22.5423 4
      vertex 0.818861 24.4577 4
    endloop
  endfacet
  facet normal 0 0 1
    outer loop
      vertex 6.25 23.5 4
      vertex 5.59492 21.7002 4
      vertex 56 0 4
    endloop
  endfacet
  facet normal 0 0 1
    outer loop
      vertex 0 85 4
      vertex 0.818861 24.4577 4
      vertex 2.05 25.9249 4
    endloop
  endfacet
  facet normal 0 0 1
    outer loop
      vertex 0.818861 80.5923 4
      vertex 3.93621 26.2575 4
      vertex 56 0 4
    endloop
  endfacet
  facet normal 0 0 1
    outer loop
      vertex 0 85 4
      vertex 2.05 25.9249 4
      vertex 3.93621 26.2575 4
    endloop
  endfacet
  facet normal 0 0 1
    outer loop
      vertex 3.93621 26.2575 4
      vertex 5.59492 25.2998 4
      vertex 56 0 4
    endloop
  endfacet
  facet normal 0 0 1
    outer loop
      vertex 2.05 21.0751 4
      vertex 0 0 4
      vertex 3.93621 20.7425 4
    endloop
  endfacet
  facet normal 0 0 1
    outer loop
      vertex 0.818861 22.5423 4
      vertex 0 0 4
      vertex 2.05 21.0751 4
    endloop
  endfacet
  facet normal 0 0 1
    outer loop
      vertex 2.05 79.1251 4
      vertex 0.818861 80.5923 4
      vertex 56 0 4
    endloop
  endfacet
  facet normal 0 0 1
    outer loop
      vertex 0 85 4
      vertex 3.93621 26.2575 4
      vertex 0.818861 80.5923 4
    endloop
  endfacet
  facet normal 0 0 1
    outer loop
      vertex 0 85 4
      vertex 0.818861 80.5923 4
      vertex 0.818861 82.5077 4
    endloop
  endfacet
  facet normal 0 0 1
    outer loop
      vertex 3.93621 78.7925 4
      vertex 2.05 79.1251 4
      vertex 56 0 4
    endloop
  endfacet
  facet normal 0 0 1
    outer loop
      vertex 3.93621 84.3075 4
      vertex 0 85 4
      vertex 2.05 83.9749 4
    endloop
  endfacet
  facet normal 0 0 1
    outer loop
      vertex 5.59492 79.7502 4
      vertex 3.93621 78.7925 4
      vertex 56 0 4
    endloop
  endfacet
  facet normal 0 0 1
    outer loop
      vertex 20 85 4
      vertex 0 85 4
      vertex 3.93621 84.3075 4
    endloop
  endfacet
  facet normal 0 0 1
    outer loop
      vertex 20 85 4
      vertex 5.59492 83.3498 4
      vertex 56 0 4
    endloop
  endfacet
  facet normal 0 0 1
    outer loop
      vertex 5.59492 83.3498 4
      vertex 6.25 81.55 4
      vertex 56 0 4
    endloop
  endfacet
  facet normal 0 0 1
    outer loop
      vertex 6.25 81.55 4
      vertex 5.59492 79.7502 4
      vertex 56 0 4
    endloop
  endfacet
  facet normal 0 0 1
    outer loop
      vertex 3.93621 84.3075 4
      vertex 5.59492 83.3498 4
      vertex 20 85 4
    endloop
  endfacet
  facet normal 0 0 1
    outer loop
      vertex 51.15 21.0751 4
      vertex 49.9189 22.5423 4
      vertex 56 0 4
    endloop
  endfacet
  facet normal 0 0 1
    outer loop
      vertex 55.35 23.5 4
      vertex 54.6949 21.7002 4
      vertex 56 0 4
    endloop
  endfacet
  facet normal 0 0 1
    outer loop
      vertex 35 85 4
      vertex 20 85 4
      vertex 49.9189 22.5423 4
    endloop
  endfacet
  facet normal 0 0 1
    outer loop
      vertex 49.9189 24.4577 4
      vertex 51.15 25.9249 4
      vertex 35 85 4
    endloop
  endfacet
  facet normal 0 0 1
    outer loop
      vertex 35 85 4
      vertex 49.9189 22.5423 4
      vertex 49.9189 24.4577 4
    endloop
  endfacet
  facet normal 0 0 1
    outer loop
      vertex 49.9189 80.5923 4
      vertex 35 85 4
      vertex 51.15 25.9249 4
    endloop
  endfacet
  facet normal 0 0 1
    outer loop
      vertex 53.0362 20.7425 4
      vertex 51.15 21.0751 4
      vertex 56 0 4
    endloop
  endfacet
  facet normal 0 0 1
    outer loop
      vertex 56 85 4
      vertex 51.15 25.9249 4
      vertex 53.0362 26.2575 4
    endloop
  endfacet
  facet normal 0 0 1
    outer loop
      vertex 54.6949 21.7002 4
      vertex 53.0362 20.7425 4
      vertex 56 0 4
    endloop
  endfacet
  facet normal 0 0 1
    outer loop
      vertex 56 85 4
      vertex 53.0362 26.2575 4
      vertex 54.6949 25.2998 4
    endloop
  endfacet
  facet normal 0 0 1
    outer loop
      vertex 56 85 4
      vertex 55.35 23.5 4
      vertex 56 0 4
    endloop
  endfacet
  facet normal 0 0 1
    outer loop
      vertex 56 85 4
      vertex 54.6949 25.2998 4
      vertex 55.35 23.5 4
    endloop
  endfacet
  facet normal 0 0 1
    outer loop
      vertex 51.15 79.1251 4
      vertex 49.9189 80.5923 4
      vertex 51.15 25.9249 4
    endloop
  endfacet
  facet normal 0 0 1
    outer loop
      vertex 49.9189 82.5077 4
      vertex 35 85 4
      vertex 49.9189 80.5923 4
    endloop
  endfacet
  facet normal 0 0 1
    outer loop
      vertex 54.6949 79.7502 4
      vertex 53.0362 78.7925 4
      vertex 51.15 25.9249 4
    endloop
  endfacet
  facet normal 0 0 1
    outer loop
      vertex 51.15 83.9749 4
      vertex 35 85 4
      vertex 49.9189 82.5077 4
    endloop
  endfacet
  facet normal 0 0 1
    outer loop
      vertex 56 85 4
      vertex 35 85 4
      vertex 51.15 83.9749 4
    endloop
  endfacet
  facet normal 0 0 1
    outer loop
      vertex 56 85 4
      vertex 51.15 83.9749 4
      vertex 53.0362 84.3075 4
    endloop
  endfacet
  facet normal 0 0 1
    outer loop
      vertex 56 85 4
      vertex 55.35 81.55 4
      vertex 51.15 25.9249 4
    endloop
  endfacet
  facet normal 0 0 1
    outer loop
      vertex 56 85 4
      vertex 54.6949 83.3498 4
      vertex 55.35 81.55 4
    endloop
  endfacet
  facet normal 0 0 1
    outer loop
      vertex 55.35 81.55 4
      vertex 54.6949 79.7502 4
      vertex 51.15 25.9249 4
    endloop
  endfacet
  facet normal 0 0 1
    outer loop
      vertex 53.0362 78.7925 4
      vertex 51.15 79.1251 4
      vertex 51.15 25.9249 4
    endloop
  endfacet
  facet normal 0 0 1
    outer loop
      vertex 20 86 4
      vertex 20 85 4
      vertex 35 86 4
    endloop
  endfacet
  facet normal 0 0 1
    outer loop
      vertex 0.818861 82.5077 4
      vertex 2.05 83.9749 4
      vertex 0 85 4
    endloop
  endfacet
  facet normal -1 0 0
    outer loop
      vertex -2 78.6 11.3
      vertex -2 78.6 8
      vertex -2 70.6 11.3
    endloop
  endfacet
  facet normal -1 0 0
    outer loop
      vertex -2 70.6 11.3
      vertex -2 78.6 8
      vertex -2 70.6 8
    endloop
  endfacet
  facet normal 0 0 1
    outer loop
      vertex 0 68.5 6
      vertex 0 80.5 6
      vertex -1 80.5 6
    endloop
  endfacet
  facet normal 0 0 1
    outer loop
      vertex -1 68.5 6
      vertex 0 68.5 6
      vertex -1 80.5 6
    endloop
  endfacet
  facet normal 0 0 -1
    outer loop
      vertex -1 78.6 11.3
      vertex -1 70.6 11.3
      vertex -1.9 78.6 11.3
    endloop
  endfacet
  facet normal 0 0 -1
    outer loop
      vertex -1.9 78.6 11.3
      vertex -1 70.6 11.3
      vertex -1.9 70.6 11.3
    endloop
  endfacet
  facet normal 0 1 0
    outer loop
      vertex -1 70.6 11.3
      vertex -1 70.6 8
      vertex -1.9 70.6 11.3
    endloop
  endfacet
  facet normal 0 1 0
    outer loop
      vertex -1.9 70.6 11.3
      vertex -1 70.6 8
      vertex -1.9 70.6 8
    endloop
  endfacet
  facet normal 0 0 1
    outer loop
      vertex -1 70.6 8
      vertex -1 78.6 8
      vertex -1.9 78.6 8
    endloop
  endfacet
  facet normal 0 0 1
    outer loop
      vertex -1.9 70.6 8
      vertex -1 70.6 8
      vertex -1.9 78.6 8
    endloop
  endfacet
  facet normal 0 -1 0
    outer loop
      vertex -1 78.6 8
      vertex -1 78.6 11.3
      vertex -1.9 78.6 11.3
    endloop
  endfacet
  facet normal 0 -1 0
    outer loop
      vertex -1.9 78.6 8
      vertex -1 78.6 8
      vertex -1.9 78.6 11.3
    endloop
  endfacet
  facet normal -1 0 0
    outer loop
      vertex 0.818861 22.5423 4
      vertex 0.818861 22.5423 6.6
      vertex 0.818861 24.4577 4
    endloop
  endfacet
  facet normal -1 0 0
    outer loop
      vertex 0.818861 24.4577 4
      vertex 0.818861 22.5423 6.6
      vertex 0.818861 24.4577 6.6
    endloop
  endfacet
  facet normal -0.766045 -0.642787 0
    outer loop
      vertex 0.818861 22.5423 4
      vertex 2.05 21.0751 4
      vertex 0.818861 22.5423 6.6
    endloop
  endfacet
  facet normal -0.766045 -0.642787 0
    outer loop
      vertex 0.818861 22.5423 6.6
      vertex 2.05 21.0751 4
      vertex 2.05 21.0751 6.6
    endloop
  endfacet
  facet normal -0.173648 -0.984808 0
    outer loop
      vertex 2.05 21.0751 6.6
      vertex 2.05 21.0751 4
      vertex 3.93621 20.7425 4
    endloop
  endfacet
  facet normal -0.173648 -0.984808 0
    outer loop
      vertex 3.93621 20.7425 6.6
      vertex 2.05 21.0751 6.6
      vertex 3.93621 20.7425 4
    endloop
  endfacet
  facet normal 0.5 -0.866025 0
    outer loop
      vertex 3.93621 20.7425 6.6
      vertex 3.93621 20.7425 4
      vertex 5.59492 21.7002 4
    endloop
  endfacet
  facet normal 0.5 -0.866025 0
    outer loop
      vertex 5.59492 21.7002 6.6
      vertex 3.93621 20.7425 6.6
      vertex 5.59492 21.7002 4
    endloop
  endfacet
  facet normal 0.939693 -0.34202 0
    outer loop
      vertex 5.59492 21.7002 6.6
      vertex 5.59492 21.7002 4
      vertex 6.25 23.5 4
    endloop
  endfacet
  facet normal 0.939693 -0.34202 0
    outer loop
      vertex 6.25 23.5 6.6
      vertex 5.59492 21.7002 6.6
      vertex 6.25 23.5 4
    endloop
  endfacet
  facet normal 0.939693 0.34202 0
    outer loop
      vertex 6.25 23.5 4
      vertex 5.59492 25.2998 4
      vertex 5.59492 25.2998 6.6
    endloop
  endfacet
  facet normal 0.939693 0.34202 0
    outer loop
      vertex 6.25 23.5 6.6
      vertex 6.25 23.5 4
      vertex 5.59492 25.2998 6.6
    endloop
  endfacet
  facet normal 0.5 0.866025 0
    outer loop
      vertex 3.93621 26.2575 4
      vertex 3.93621 26.2575 6.6
      vertex 5.59492 25.2998 4
    endloop
  endfacet
  facet normal 0.5 0.866025 0
    outer loop
      vertex 5.59492 25.2998 4
      vertex 3.93621 26.2575 6.6
      vertex 5.59492 25.2998 6.6
    endloop
  endfacet
  facet normal -0.173648 0.984808 0
    outer loop
      vertex 2.05 25.9249 4
      vertex 2.05 25.9249 6.6
      vertex 3.93621 26.2575 4
    endloop
  endfacet
  facet normal -0.173648 0.984808 0
    outer loop
      vertex 3.93621 26.2575 4
      vertex 2.05 25.9249 6.6
      vertex 3.93621 26.2575 6.6
    endloop
  endfacet
  facet normal -0.766045 0.642787 0
    outer loop
      vertex 0.818861 24.4577 4
      vertex 0.818861 24.4577 6.6
      vertex 2.05 25.9249 4
    endloop
  endfacet
  facet normal -0.766045 0.642787 0
    outer loop
      vertex 2.05 25.9249 4
      vertex 0.818861 24.4577 6.6
      vertex 2.05 25.9249 6.6
    endloop
  endfacet
  facet normal -1 0 0
    outer loop
      vertex 0.818861 80.5923 4
      vertex 0.818861 80.5923 6.6
      vertex 0.818861 82.5077 4
    endloop
  endfacet
  facet normal -1 0 0
    outer loop
      vertex 0.818861 82.5077 4
      vertex 0.818861 80.5923 6.6
      vertex 0.818861 82.5077 6.6
    endloop
  endfacet
  facet normal -0.766045 -0.642787 0
    outer loop
      vertex 0.818861 80.5923 4
      vertex 2.05 79.1251 4
      vertex 0.818861 80.5923 6.6
    endloop
  endfacet
  facet normal -0.766045 -0.642787 0
    outer loop
      vertex 0.818861 80.5923 6.6
      vertex 2.05 79.1251 4
      vertex 2.05 79.1251 6.6
    endloop
  endfacet
  facet normal -0.173648 -0.984808 0
    outer loop
      vertex 2.05 79.1251 6.6
      vertex 2.05 79.1251 4
      vertex 3.93621 78.7925 4
    endloop
  endfacet
  facet normal -0.173648 -0.984808 0
    outer loop
      vertex 3.93621 78.7925 6.6
      vertex 2.05 79.1251 6.6
      vertex 3.93621 78.7925 4
    endloop
  endfacet
  facet normal 0.5 -0.866025 0
    outer loop
      vertex 3.93621 78.7925 6.6
      vertex 3.93621 78.7925 4
      vertex 5.59492 79.7502 4
    endloop
  endfacet
  facet normal 0.5 -0.866025 0
    outer loop
      vertex 5.59492 79.7502 6.6
      vertex 3.93621 78.7925 6.6
      vertex 5.59492 79.7502 4
    endloop
  endfacet
  facet normal 0.939693 -0.34202 0
    outer loop
      vertex 5.59492 79.7502 6.6
      vertex 5.59492 79.7502 4
      vertex 6.25 81.55 4
    endloop
  endfacet
  facet normal 0.939693 -0.34202 0
    outer loop
      vertex 6.25 81.55 6.6
      vertex 5.59492 79.7502 6.6
      vertex 6.25 81.55 4
    endloop
  endfacet
  facet normal 0.939693 0.34202 0
    outer loop
      vertex 6.25 81.55 4
      vertex 5.59492 83.3498 4
      vertex 5.59492 83.3498 6.6
    endloop
  endfacet
  facet normal 0.939693 0.34202 0
    outer loop
      vertex 6.25 81.55 6.6
      vertex 6.25 81.55 4
      vertex 5.59492 83.3498 6.6
    endloop
  endfacet
  facet normal 0.5 0.866025 0
    outer loop
      vertex 3.93621 84.3075 4
      vertex 3.93621 84.3075 6.6
      vertex 5.59492 83.3498 4
    endloop
  endfacet
  facet normal 0.5 0.866025 0
    outer loop
      vertex 5.59492 83.3498 4
      vertex 3.93621 84.3075 6.6
      vertex 5.59492 83.3498 6.6
    endloop
  endfacet
  facet normal -0.173648 0.984808 0
    outer loop
      vertex 2.05 83.9749 4
      vertex 2.05 83.9749 6.6
      vertex 3.93621 84.3075 4
    endloop
  endfacet
  facet normal -0.173648 0.984808 0
    outer loop
      vertex 3.93621 84.3075 4
      vertex 2.05 83.9749 6.6
      vertex 3.93621 84.3075 6.6
    endloop
  endfacet
  facet normal -0.766045 0.642787 0
    outer loop
      vertex 0.818861 82.5077 4
      vertex 0.818861 82.5077 6.6
      vertex 2.05 83.9749 4
    endloop
  endfacet
  facet normal -0.766045 0.642787 0
    outer loop
      vertex 2.05 83.9749 4
      vertex 0.818861 82.5077 6.6
      vertex 2.05 83.9749 6.6
    endloop
  endfacet
  facet normal -1 0 0
    outer loop
      vertex 49.9189 22.5423 4
      vertex 49.9189 22.5423 6.6
      vertex 49.9189 24.4577 4
    endloop
  endfacet
  facet normal -1 0 0
    outer loop
      vertex 49.9189 24.4577 4
      vertex 49.9189 22.5423 6.6
      vertex 49.9189 24.4577 6.6
    endloop
  endfacet
  facet normal -0.766045 -0.642787 0
    outer loop
      vertex 49.9189 22.5423 4
      vertex 51.15 21.0751 4
      vertex 49.9189 22.5423 6.6
    endloop
  endfacet
  facet normal -0.766045 -0.642787 0
    outer loop
      vertex 49.9189 22.5423 6.6
      vertex 51.15 21.0751 4
      vertex 51.15 21.0751 6.6
    endloop
  endfacet
  facet normal -0.173648 -0.984808 0
    outer loop
      vertex 51.15 21.0751 6.6
      vertex 51.15 21.0751 4
      vertex 53.0362 20.7425 4
    endloop
  endfacet
  facet normal -0.173648 -0.984808 0
    outer loop
      vertex 53.0362 20.7425 6.6
      vertex 51.15 21.0751 6.6
      vertex 53.0362 20.7425 4
    endloop
  endfacet
  facet normal 0.5 -0.866025 0
    outer loop
      vertex 53.0362 20.7425 6.6
      vertex 53.0362 20.7425 4
      vertex 54.6949 21.7002 4
    endloop
  endfacet
  facet normal 0.5 -0.866025 0
    outer loop
      vertex 54.6949 21.7002 6.6
      vertex 53.0362 20.7425 6.6
      vertex 54.6949 21.7002 4
    endloop
  endfacet
  facet normal 0.939693 -0.34202 0
    outer loop
      vertex 54.6949 21.7002 6.6
      vertex 54.6949 21.7002 4
      vertex 55.35 23.5 4
    endloop
  endfacet
  facet normal 0.939693 -0.34202 0
    outer loop
      vertex 55.35 23.5 6.6
      vertex 54.6949 21.7002 6.6
      vertex 55.35 23.5 4
    endloop
  endfacet
  facet normal 0.939693 0.34202 0
    outer loop
      vertex 55.35 23.5 4
      vertex 54.6949 25.2998 4
      vertex 54.6949 25.2998 6.6
    endloop
  endfacet
  facet normal 0.939693 0.34202 0
    outer loop
      vertex 55.35 23.5 6.6
      vertex 55.35 23.5 4
      vertex 54.6949 25.2998 6.6
    endloop
  endfacet
  facet normal 0.5 0.866025 0
    outer loop
      vertex 53.0362 26.2575 4
      vertex 53.0362 26.2575 6.6
      vertex 54.6949 25.2998 4
    endloop
  endfacet
  facet normal 0.5 0.866025 0
    outer loop
      vertex 54.6949 25.2998 4
      vertex 53.0362 26.2575 6.6
      vertex 54.6949 25.2998 6.6
    endloop
  endfacet
  facet normal -0.173648 0.984808 0
    outer loop
      vertex 51.15 25.9249 4
      vertex 51.15 25.9249 6.6
      vertex 53.0362 26.2575 4
    endloop
  endfacet
  facet normal -0.173648 0.984808 0
    outer loop
      vertex 53.0362 26.2575 4
      vertex 51.15 25.9249 6.6
      vertex 53.0362 26.2575 6.6
    endloop
  endfacet
  facet normal -0.766045 0.642787 0
    outer loop
      vertex 49.9189 24.4577 4
      vertex 49.9189 24.4577 6.6
      vertex 51.15 25.9249 4
    endloop
  endfacet
  facet normal -0.766045 0.642787 0
    outer loop
      vertex 51.15 25.9249 4
      vertex 49.9189 24.4577 6.6
      vertex 51.15 25.9249 6.6
    endloop
  endfacet
  facet normal -1 0 0
    outer loop
      vertex 49.9189 80.5923 4
      vertex 49.9189 80.5923 6.6
      vertex 49.9189 82.5077 4
    endloop
  endfacet
  facet normal -1 0 0
    outer loop
      vertex 49.9189 82.5077 4
      vertex 49.9189 80.5923 6.6
      vertex 49.9189 82.5077 6.6
    endloop
  endfacet
  facet normal -0.766045 -0.642787 0
    outer loop
      vertex 49.9189 80.5923 4
      vertex 51.15 79.1251 4
      vertex 49.9189 80.5923 6.6
    endloop
  endfacet
  facet normal -0.766045 -0.642787 0
    outer loop
      vertex 49.9189 80.5923 6.6
      vertex 51.15 79.1251 4
      vertex 51.15 79.1251 6.6
    endloop
  endfacet
  facet normal -0.173648 -0.984808 0
    outer loop
      vertex 51.15 79.1251 6.6
      vertex 51.15 79.1251 4
      vertex 53.0362 78.7925 4
    endloop
  endfacet
  facet normal -0.173648 -0.984808 0
    outer loop
      vertex 53.0362 78.7925 6.6
      vertex 51.15 79.1251 6.6
      vertex 53.0362 78.7925 4
    endloop
  endfacet
  facet normal 0.5 -0.866025 0
    outer loop
      vertex 53.0362 78.7925 6.6
      vertex 53.0362 78.7925 4
      vertex 54.6949 79.7502 4
    endloop
  endfacet
  facet normal 0.5 -0.866025 0
    outer loop
      vertex 54.6949 79.7502 6.6
      vertex 53.0362 78.7925 6.6
      vertex 54.6949 79.7502 4
    endloop
  endfacet
  facet normal 0.939693 -0.34202 0
    outer loop
      vertex 54.6949 79.7502 6.6
      vertex 54.6949 79.7502 4
      vertex 55.35 81.55 4
    endloop
  endfacet
  facet normal 0.939693 -0.34202 0
    outer loop
      vertex 55.35 81.55 6.6
      vertex 54.6949 79.7502 6.6
      vertex 55.35 81.55 4
    endloop
  endfacet
  facet normal 0.939693 0.34202 0
    outer loop
      vertex 55.35 81.55 4
      vertex 54.6949 83.3498 4
      vertex 54.6949 83.3498 6.6
    endloop
  endfacet
  facet normal 0.939693 0.34202 0
    outer loop
      vertex 55.35 81.55 6.6
      vertex 55.35 81.55 4
      vertex 54.6949 83.3498 6.6
    endloop
  endfacet
  facet normal 0.5 0.866025 0
    outer loop
      vertex 53.0362 84.3075 4
      vertex 53.0362 84.3075 6.6
      vertex 54.6949 83.3498 4
    endloop
  endfacet
  facet normal 0.5 0.866025 0
    outer loop
      vertex 54.6949 83.3498 4
      vertex 53.0362 84.3075 6.6
      vertex 54.6949 83.3498 6.6
    endloop
  endfacet
  facet normal -0.173648 0.984808 0
    outer loop
      vertex 51.15 83.9749 4
      vertex 51.15 83.9749 6.6
      vertex 53.0362 84.3075 4
    endloop
  endfacet
  facet normal -0.173648 0.984808 0
    outer loop
      vertex 53.0362 84.3075 4
      vertex 51.15 83.9749 6.6
      vertex 53.0362 84.3075 6.6
    endloop
  endfacet
  facet normal -0.766045 0.642787 0
    outer loop
      vertex 49.9189 82.5077 4
      vertex 49.9189 82.5077 6.6
      vertex 51.15 83.9749 4
    endloop
  endfacet
  facet normal -0.766045 0.642787 0
    outer loop
      vertex 51.15 83.9749 4
      vertex 49.9189 82.5077 6.6
      vertex 51.15 83.9749 6.6
    endloop
  endfacet
  facet normal 1 0 0
    outer loop
      vertex -1.9 78.6 8
      vertex -1.9 78.6 11.3
      vertex -1.9 70.6 11.3
    endloop
  endfacet
  facet normal 1 0 0
    outer loop
      vertex -1.9 70.6 8
      vertex -1.9 78.6 8
      vertex -1.9 70.6 11.3
    endloop
  endfacet
  facet normal 0 0 1
    outer loop
      vertex 0.818861 24.4577 6.6
      vertex 0.818861 22.5423 6.6
      vertex 2.05 21.0751 6.6
    endloop
  endfacet
  facet normal 0 0 1
    outer loop
      vertex 2.23647 22.6183 6.6
      vertex 0.818861 24.4577 6.6
      vertex 2.05 21.0751 6.6
    endloop
  endfacet
  facet normal 0 0 1
    outer loop
      vertex 3.91352 24.9266 6.6
      vertex 4.95 23.5 6.6
      vertex 6.25 23.5 6.6
    endloop
  endfacet
  facet normal 0 0 1
    outer loop
      vertex 3.93621 26.2575 6.6
      vertex 0.818861 24.4577 6.6
      vertex 5.59492 25.2998 6.6
    endloop
  endfacet
  facet normal 0 0 1
    outer loop
      vertex 2.05 25.9249 6.6
      vertex 0.818861 24.4577 6.6
      vertex 3.93621 26.2575 6.6
    endloop
  endfacet
  facet normal 0 0 1
    outer loop
      vertex 3.93621 20.7425 6.6
      vertex 2.23647 22.6183 6.6
      vertex 2.05 21.0751 6.6
    endloop
  endfacet
  facet normal 0 0 1
    outer loop
      vertex 4.95 23.5 6.6
      vertex 3.91352 22.0734 6.6
      vertex 5.59492 21.7002 6.6
    endloop
  endfacet
  facet normal 0 0 1
    outer loop
      vertex 3.91352 24.9266 6.6
      vertex 0.818861 24.4577 6.6
      vertex 2.23647 24.3817 6.6
    endloop
  endfacet
  facet normal 0 0 1
    outer loop
      vertex 5.59492 25.2998 6.6
      vertex 0.818861 24.4577 6.6
      vertex 3.91352 24.9266 6.6
    endloop
  endfacet
  facet normal 0 0 1
    outer loop
      vertex 6.25 23.5 6.6
      vertex 4.95 23.5 6.6
      vertex 5.59492 21.7002 6.6
    endloop
  endfacet
  facet normal 0 0 1
    outer loop
      vertex 3.91352 24.9266 6.6
      vertex 6.25 23.5 6.6
      vertex 5.59492 25.2998 6.6
    endloop
  endfacet
  facet normal 0 0 1
    outer loop
      vertex 5.59492 21.7002 6.6
      vertex 3.91352 22.0734 6.6
      vertex 3.93621 20.7425 6.6
    endloop
  endfacet
  facet normal 0 0 1
    outer loop
      vertex 3.91352 22.0734 6.6
      vertex 2.23647 22.6183 6.6
      vertex 3.93621 20.7425 6.6
    endloop
  endfacet
  facet normal 0 0 1
    outer loop
      vertex 2.23647 22.6183 6.6
      vertex 2.23647 24.3817 6.6
      vertex 0.818861 24.4577 6.6
    endloop
  endfacet
  facet normal 0 0 1
    outer loop
      vertex 0.818861 82.5077 6.6
      vertex 0.818861 80.5923 6.6
      vertex 2.05 79.1251 6.6
    endloop
  endfacet
  facet normal 0 0 1
    outer loop
      vertex 2.23647 80.6683 6.6
      vertex 0.818861 82.5077 6.6
      vertex 2.05 79.1251 6.6
    endloop
  endfacet
  facet normal 0 0 1
    outer loop
      vertex 3.91352 82.9766 6.6
      vertex 4.95 81.55 6.6
      vertex 6.25 81.55 6.6
    endloop
  endfacet
  facet normal 0 0 1
    outer loop
      vertex 3.93621 84.3075 6.6
      vertex 0.818861 82.5077 6.6
      vertex 5.59492 83.3498 6.6
    endloop
  endfacet
  facet normal 0 0 1
    outer loop
      vertex 2.05 83.9749 6.6
      vertex 0.818861 82.5077 6.6
      vertex 3.93621 84.3075 6.6
    endloop
  endfacet
  facet normal 0 0 1
    outer loop
      vertex 3.93621 78.7925 6.6
      vertex 2.23647 80.6683 6.6
      vertex 2.05 79.1251 6.6
    endloop
  endfacet
  facet normal 0 0 1
    outer loop
      vertex 4.95 81.55 6.6
      vertex 3.91352 80.1234 6.6
      vertex 5.59492 79.7502 6.6
    endloop
  endfacet
  facet normal 0 0 1
    outer loop
      vertex 3.91352 82.9766 6.6
      vertex 0.818861 82.5077 6.6
      vertex 2.23647 82.4317 6.6
    endloop
  endfacet
  facet normal 0 0 1
    outer loop
      vertex 5.59492 83.3498 6.6
      vertex 0.818861 82.5077 6.6
      vertex 3.91352 82.9766 6.6
    endloop
  endfacet
  facet normal 0 0 1
    outer loop
      vertex 6.25 81.55 6.6
      vertex 4.95 81.55 6.6
      vertex 5.59492 79.7502 6.6
    endloop
  endfacet
  facet normal 0 0 1
    outer loop
      vertex 3.91352 82.9766 6.6
      vertex 6.25 81.55 6.6
      vertex 5.59492 83.3498 6.6
    endloop
  endfacet
  facet normal 0 0 1
    outer loop
      vertex 5.59492 79.7502 6.6
      vertex 3.91352 80.1234 6.6
      vertex 3.93621 78.7925 6.6
    endloop
  endfacet
  facet normal 0 0 1
    outer loop
      vertex 3.91352 80.1234 6.6
      vertex 2.23647 80.6683 6.6
      vertex 3.93621 78.7925 6.6
    endloop
  endfacet
  facet normal 0 0 1
    outer loop
      vertex 2.23647 80.6683 6.6
      vertex 2.23647 82.4317 6.6
      vertex 0.818861 82.5077 6.6
    endloop
  endfacet
  facet normal 0 0 1
    outer loop
      vertex 49.9189 24.4577 6.6
      vertex 49.9189 22.5423 6.6
      vertex 51.15 21.0751 6.6
    endloop
  endfacet
  facet normal 0 0 1
    outer loop
      vertex 51.3365 22.6183 6.6
      vertex 49.9189 24.4577 6.6
      vertex 51.15 21.0751 6.6
    endloop
  endfacet
  facet normal 0 0 1
    outer loop
      vertex 53.0135 24.9266 6.6
      vertex 54.05 23.5 6.6
      vertex 55.35 23.5 6.6
    endloop
  endfacet
  facet normal 0 0 1
    outer loop
      vertex 53.0362 26.2575 6.6
      vertex 49.9189 24.4577 6.6
      vertex 54.6949 25.2998 6.6
    endloop
  endfacet
  facet normal 0 0 1
    outer loop
      vertex 51.15 25.9249 6.6
      vertex 49.9189 24.4577 6.6
      vertex 53.0362 26.2575 6.6
    endloop
  endfacet
  facet normal 0 0 1
    outer loop
      vertex 53.0362 20.7425 6.6
      vertex 51.3365 22.6183 6.6
      vertex 51.15 21.0751 6.6
    endloop
  endfacet
  facet normal 0 0 1
    outer loop
      vertex 54.05 23.5 6.6
      vertex 53.0135 22.0734 6.6
      vertex 54.6949 21.7002 6.6
    endloop
  endfacet
  facet normal 0 0 1
    outer loop
      vertex 53.0135 24.9266 6.6
      vertex 49.9189 24.4577 6.6
      vertex 51.3365 24.3817 6.6
    endloop
  endfacet
  facet normal 0 0 1
    outer loop
      vertex 54.6949 25.2998 6.6
      vertex 49.9189 24.4577 6.6
      vertex 53.0135 24.9266 6.6
    endloop
  endfacet
  facet normal 0 0 1
    outer loop
      vertex 55.35 23.5 6.6
      vertex 54.05 23.5 6.6
      vertex 54.6949 21.7002 6.6
    endloop
  endfacet
  facet normal 0 0 1
    outer loop
      vertex 53.0135 24.9266 6.6
      vertex 55.35 23.5 6.6
      vertex 54.6949 25.2998 6.6
    endloop
  endfacet
  facet normal 0 0 1
    outer loop
      vertex 54.6949 21.7002 6.6
      vertex 53.0135 22.0734 6.6
      vertex 53.0362 20.7425 6.6
    endloop
  endfacet
  facet normal 0 0 1
    outer loop
      vertex 53.0135 22.0734 6.6
      vertex 51.3365 22.6183 6.6
      vertex 53.0362 20.7425 6.6
    endloop
  endfacet
  facet normal 0 0 1
    outer loop
      vertex 51.3365 22.6183 6.6
      vertex 51.3365 24.3817 6.6
      vertex 49.9189 24.4577 6.6
    endloop
  endfacet
  facet normal 0 0 1
    outer loop
      vertex 49.9189 82.5077 6.6
      vertex 49.9189 80.5923 6.6
      vertex 51.15 79.1251 6.6
    endloop
  endfacet
  facet normal 0 0 1
    outer loop
      vertex 51.3365 80.6683 6.6
      vertex 49.9189 82.5077 6.6
      vertex 51.15 79.1251 6.6
    endloop
  endfacet
  facet normal 0 0 1
    outer loop
      vertex 53.0135 82.9766 6.6
      vertex 54.05 81.55 6.6
      vertex 55.35 81.55 6.6
    endloop
  endfacet
  facet normal 0 0 1
    outer loop
      vertex 53.0362 84.3075 6.6
      vertex 49.9189 82.5077 6.6
      vertex 54.6949 83.3498 6.6
    endloop
  endfacet
  facet normal 0 0 1
    outer loop
      vertex 51.15 83.9749 6.6
      vertex 49.9189 82.5077 6.6
      vertex 53.0362 84.3075 6.6
    endloop
  endfacet
  facet normal 0 0 1
    outer loop
      vertex 53.0362 78.7925 6.6
      vertex 51.3365 80.6683 6.6
      vertex 51.15 79.1251 6.6
    endloop
  endfacet
  facet normal 0 0 1
    outer loop
      vertex 54.05 81.55 6.6
      vertex 53.0135 80.1234 6.6
      vertex 54.6949 79.7502 6.6
    endloop
  endfacet
  facet normal 0 0 1
    outer loop
      vertex 53.0135 82.9766 6.6
      vertex 49.9189 82.5077 6.6
      vertex 51.3365 82.4317 6.6
    endloop
  endfacet
  facet normal 0 0 1
    outer loop
      vertex 54.6949 83.3498 6.6
      vertex 49.9189 82.5077 6.6
      vertex 53.0135 82.9766 6.6
    endloop
  endfacet
  facet normal 0 0 1
    outer loop
      vertex 55.35 81.55 6.6
      vertex 54.05 81.55 6.6
      vertex 54.6949 79.7502 6.6
    endloop
  endfacet
  facet normal 0 0 1
    outer loop
      vertex 53.0135 82.9766 6.6
      vertex 55.35 81.55 6.6
      vertex 54.6949 83.3498 6.6
    endloop
  endfacet
  facet normal 0 0 1
    outer loop
      vertex 54.6949 79.7502 6.6
      vertex 53.0135 80.1234 6.6
      vertex 53.0362 78.7925 6.6
    endloop
  endfacet
  facet normal 0 0 1
    outer loop
      vertex 53.0135 80.1234 6.6
      vertex 51.3365 80.6683 6.6
      vertex 53.0362 78.7925 6.6
    endloop
  endfacet
  facet normal 0 0 1
    outer loop
      vertex 51.3365 80.6683 6.6
      vertex 51.3365 82.4317 6.6
      vertex 49.9189 82.5077 6.6
    endloop
  endfacet
  facet normal 1 0 0
    outer loop
      vertex 2.23647 24.3817 4
      vertex 2.23647 24.3817 6.6
      vertex 2.23647 22.6183 6.6
    endloop
  endfacet
  facet normal 1 0 0
    outer loop
      vertex 2.23647 22.6183 4
      vertex 2.23647 24.3817 4
      vertex 2.23647 22.6183 6.6
    endloop
  endfacet
  facet normal 0.309017 0.951056 0
    outer loop
      vertex 3.91352 22.0734 6.6
      vertex 3.91352 22.0734 4
      vertex 2.23647 22.6183 6.6
    endloop
  endfacet
  facet normal 0.309017 0.951056 0
    outer loop
      vertex 2.23647 22.6183 6.6
      vertex 3.91352 22.0734 4
      vertex 2.23647 22.6183 4
    endloop
  endfacet
  facet normal -0.809017 0.587785 0
    outer loop
      vertex 4.95 23.5 6.6
      vertex 4.95 23.5 4
      vertex 3.91352 22.0734 6.6
    endloop
  endfacet
  facet normal -0.809017 0.587785 0
    outer loop
      vertex 3.91352 22.0734 6.6
      vertex 4.95 23.5 4
      vertex 3.91352 22.0734 4
    endloop
  endfacet
  facet normal -0.809017 -0.587785 0
    outer loop
      vertex 4.95 23.5 6.6
      vertex 3.91352 24.9266 6.6
      vertex 4.95 23.5 4
    endloop
  endfacet
  facet normal -0.809017 -0.587785 0
    outer loop
      vertex 4.95 23.5 4
      vertex 3.91352 24.9266 6.6
      vertex 3.91352 24.9266 4
    endloop
  endfacet
  facet normal 0.309017 -0.951056 0
    outer loop
      vertex 3.91352 24.9266 4
      vertex 3.91352 24.9266 6.6
      vertex 2.23647 24.3817 6.6
    endloop
  endfacet
  facet normal 0.309017 -0.951056 0
    outer loop
      vertex 2.23647 24.3817 4
      vertex 3.91352 24.9266 4
      vertex 2.23647 24.3817 6.6
    endloop
  endfacet
  facet normal 1 0 0
    outer loop
      vertex 2.23647 82.4317 4
      vertex 2.23647 82.4317 6.6
      vertex 2.23647 80.6683 6.6
    endloop
  endfacet
  facet normal 1 0 0
    outer loop
      vertex 2.23647 80.6683 4
      vertex 2.23647 82.4317 4
      vertex 2.23647 80.6683 6.6
    endloop
  endfacet
  facet normal 0.309017 0.951056 0
    outer loop
      vertex 3.91352 80.1234 6.6
      vertex 3.91352 80.1234 4
      vertex 2.23647 80.6683 6.6
    endloop
  endfacet
  facet normal 0.309017 0.951056 0
    outer loop
      vertex 2.23647 80.6683 6.6
      vertex 3.91352 80.1234 4
      vertex 2.23647 80.6683 4
    endloop
  endfacet
  facet normal -0.809017 0.587785 0
    outer loop
      vertex 4.95 81.55 6.6
      vertex 4.95 81.55 4
      vertex 3.91352 80.1234 6.6
    endloop
  endfacet
  facet normal -0.809017 0.587785 0
    outer loop
      vertex 3.91352 80.1234 6.6
      vertex 4.95 81.55 4
      vertex 3.91352 80.1234 4
    endloop
  endfacet
  facet normal -0.809017 -0.587785 0
    outer loop
      vertex 4.95 81.55 6.6
      vertex 3.91352 82.9766 6.6
      vertex 4.95 81.55 4
    endloop
  endfacet
  facet normal -0.809017 -0.587785 0
    outer loop
      vertex 4.95 81.55 4
      vertex 3.91352 82.9766 6.6
      vertex 3.91352 82.9766 4
    endloop
  endfacet
  facet normal 0.309017 -0.951056 0
    outer loop
      vertex 3.91352 82.9766 4
      vertex 3.91352 82.9766 6.6
      vertex 2.23647 82.4317 6.6
    endloop
  endfacet
  facet normal 0.309017 -0.951056 0
    outer loop
      vertex 2.23647 82.4317 4
      vertex 3.91352 82.9766 4
      vertex 2.23647 82.4317 6.6
    endloop
  endfacet
  facet normal 1 0 0
    outer loop
      vertex 51.3365 24.3817 4
      vertex 51.3365 24.3817 6.6
      vertex 51.3365 22.6183 6.6
    endloop
  endfacet
  facet normal 1 0 0
    outer loop
      vertex 51.3365 22.6183 4
      vertex 51.3365 24.3817 4
      vertex 51.3365 22.6183 6.6
    endloop
  endfacet
  facet normal 0.309017 0.951056 0
    outer loop
      vertex 53.0135 22.0734 6.6
      vertex 53.0135 22.0734 4
      vertex 51.3365 22.6183 6.6
    endloop
  endfacet
  facet normal 0.309017 0.951056 0
    outer loop
      vertex 51.3365 22.6183 6.6
      vertex 53.0135 22.0734 4
      vertex 51.3365 22.6183 4
    endloop
  endfacet
  facet normal -0.809017 0.587785 0
    outer loop
      vertex 54.05 23.5 6.6
      vertex 54.05 23.5 4
      vertex 53.0135 22.0734 6.6
    endloop
  endfacet
  facet normal -0.809017 0.587785 0
    outer loop
      vertex 53.0135 22.0734 6.6
      vertex 54.05 23.5 4
      vertex 53.0135 22.0734 4
    endloop
  endfacet
  facet normal -0.809017 -0.587785 0
    outer loop
      vertex 54.05 23.5 6.6
      vertex 53.0135 24.9266 6.6
      vertex 54.05 23.5 4
    endloop
  endfacet
  facet normal -0.809017 -0.587785 0
    outer loop
      vertex 54.05 23.5 4
      vertex 53.0135 24.9266 6.6
      vertex 53.0135 24.9266 4
    endloop
  endfacet
  facet normal 0.309017 -0.951056 0
    outer loop
      vertex 53.0135 24.9266 4
      vertex 53.0135 24.9266 6.6
      vertex 51.3365 24.3817 6.6
    endloop
  endfacet
  facet normal 0.309017 -0.951056 0
    outer loop
      vertex 51.3365 24.3817 4
      vertex 53.0135 24.9266 4
      vertex 51.3365 24.3817 6.6
    endloop
  endfacet
  facet normal 1 0 0
    outer loop
      vertex 51.3365 82.4317 4
      vertex 51.3365 82.4317 6.6
      vertex 51.3365 80.6683 6.6
    endloop
  endfacet
  facet normal 1 0 0
    outer loop
      vertex 51.3365 80.6683 4
      vertex 51.3365 82.4317 4
      vertex 51.3365 80.6683 6.6
    endloop
  endfacet
  facet normal 0.309017 0.951056 0
    outer loop
      vertex 53.0135 80.1234 6.6
      vertex 53.0135 80.1234 4
      vertex 51.3365 80.6683 6.6
    endloop
  endfacet
  facet normal 0.309017 0.951056 0
    outer loop
      vertex 51.3365 80.6683 6.6
      vertex 53.0135 80.1234 4
      vertex 51.3365 80.6683 4
    endloop
  endfacet
  facet normal -0.809017 0.587785 0
    outer loop
      vertex 54.05 81.55 6.6
      vertex 54.05 81.55 4
      vertex 53.0135 80.1234 6.6
    endloop
  endfacet
  facet normal -0.809017 0.587785 0
    outer loop
      vertex 53.0135 80.1234 6.6
      vertex 54.05 81.55 4
      vertex 53.0135 80.1234 4
    endloop
  endfacet
  facet normal -0.809017 -0.587785 0
    outer loop
      vertex 54.05 81.55 6.6
      vertex 53.0135 82.9766 6.6
      vertex 54.05 81.55 4
    endloop
  endfacet
  facet normal -0.809017 -0.587785 0
    outer loop
      vertex 54.05 81.55 4
      vertex 53.0135 82.9766 6.6
      vertex 53.0135 82.9766 4
    endloop
  endfacet
  facet normal 0.309017 -0.951056 0
    outer loop
      vertex 53.0135 82.9766 4
      vertex 53.0135 82.9766 6.6
      vertex 51.3365 82.4317 6.6
    endloop
  endfacet
  facet normal 0.309017 -0.951056 0
    outer loop
      vertex 51.3365 82.4317 4
      vertex 53.0135 82.9766 4
      vertex 51.3365 82.4317 6.6
    endloop
  endfacet
  facet normal 0 0 1
    outer loop
      vertex 2.23647 24.3817 4
      vertex 2.23647 22.6183 4
      vertex 3.91352 22.0734 4
    endloop
  endfacet
  facet normal 0 0 1
    outer loop
      vertex 3.91352 24.9266 4
      vertex 2.23647 24.3817 4
      vertex 4.95 23.5 4
    endloop
  endfacet
  facet normal 0 0 1
    outer loop
      vertex 4.95 23.5 4
      vertex 2.23647 24.3817 4
      vertex 3.91352 22.0734 4
    endloop
  endfacet
  facet normal 0 0 1
    outer loop
      vertex 2.23647 82.4317 4
      vertex 2.23647 80.6683 4
      vertex 3.91352 80.1234 4
    endloop
  endfacet
  facet normal 0 0 1
    outer loop
      vertex 3.91352 82.9766 4
      vertex 2.23647 82.4317 4
      vertex 4.95 81.55 4
    endloop
  endfacet
  facet normal 0 0 1
    outer loop
      vertex 4.95 81.55 4
      vertex 2.23647 82.4317 4
      vertex 3.91352 80.1234 4
    endloop
  endfacet
  facet normal 0 0 1
    outer loop
      vertex 51.3365 24.3817 4
      vertex 51.3365 22.6183 4
      vertex 53.0135 22.0734 4
    endloop
  endfacet
  facet normal 0 0 1
    outer loop
      vertex 53.0135 24.9266 4
      vertex 51.3365 24.3817 4
      vertex 54.05 23.5 4
    endloop
  endfacet
  facet normal 0 0 1
    outer loop
      vertex 54.05 23.5 4
      vertex 51.3365 24.3817 4
      vertex 53.0135 22.0734 4
    endloop
  endfacet
  facet normal 0 0 1
    outer loop
      vertex 51.3365 82.4317 4
      vertex 51.3365 80.6683 4
      vertex 53.0135 80.1234 4
    endloop
  endfacet
  facet normal 0 0 1
    outer loop
      vertex 53.0135 82.9766 4
      vertex 51.3365 82.4317 4
      vertex 54.05 81.55 4
    endloop
  endfacet
  facet normal 0 0 1
    outer loop
      vertex 54.05 81.55 4
      vertex 51.3365 82.4317 4
      vertex 53.0135 80.1234 4
    endloop
  endfacet
endsolid OpenSCAD_Model
