solid OpenSCAD_Model
  facet normal 0 0 -1
    outer loop
      vertex -27.6811 -29.4577 0
      vertex -27.6811 -27.5423 0
      vertex -27.5 -29.6735 0
    endloop
  endfacet
  facet normal 0 0 -1
    outer loop
      vertex -27.5 -29.6735 0
      vertex -27.6811 -27.5423 0
      vertex -27.5 -27.3265 0
    endloop
  endfacet
  facet normal 0 0 -1
    outer loop
      vertex -25.495 -26.5501 0
      vertex -17.3305 -19.2475 0
      vertex -23.803 -26.9363 0
    endloop
  endfacet
  facet normal 0 0 -1
    outer loop
      vertex -27.5 28.3765 0
      vertex -27.6811 28.5923 0
      vertex -27.6811 30.5077 0
    endloop
  endfacet
  facet normal 0 0 -1
    outer loop
      vertex -27.5 28.3765 0
      vertex -27.6811 30.5077 0
      vertex -27.5 30.7235 0
    endloop
  endfacet
  facet normal 0 0 -1
    outer loop
      vertex -23.803 31.1137 0
      vertex -27.5 32.4 0
      vertex 27 32.4 0
    endloop
  endfacet
  facet normal 0 0 -1
    outer loop
      vertex -17.3305 -19.2475 0
      vertex -27.5 -27.3265 0
      vertex -20.9535 -15.2236 0
    endloop
  endfacet
  facet normal 0 0 -1
    outer loop
      vertex 25.9 0 0
      vertex 27 32.4 0
      vertex 27 -31.3 0
    endloop
  endfacet
  facet normal 0 0 -1
    outer loop
      vertex -25.495 -30.4499 0
      vertex 27 -31.3 0
      vertex -27.5 -31.3 0
    endloop
  endfacet
  facet normal 0 0 -1
    outer loop
      vertex -27.5 -27.3265 0
      vertex -26.8519 -27.6322 0
      vertex -27.5 -29.6735 0
    endloop
  endfacet
  facet normal 0 0 -1
    outer loop
      vertex -25.495 -30.4499 0
      vertex -27.5 -29.6735 0
      vertex -26.8519 -29.3678 0
    endloop
  endfacet
  facet normal 0 0 -1
    outer loop
      vertex -23.803 -30.0637 0
      vertex 27 -31.3 0
      vertex -25.495 -30.4499 0
    endloop
  endfacet
  facet normal 0 0 -1
    outer loop
      vertex -27.5 -29.6735 0
      vertex -25.495 -30.4499 0
      vertex -27.5 -31.3 0
    endloop
  endfacet
  facet normal 0 0 -1
    outer loop
      vertex -23.05 -28.5 0
      vertex 27 -31.3 0
      vertex -23.803 -30.0637 0
    endloop
  endfacet
  facet normal 0 0 -1
    outer loop
      vertex -12.95 -22.4301 0
      vertex -23.05 -28.5 0
      vertex -23.803 -26.9363 0
    endloop
  endfacet
  facet normal 0 0 -1
    outer loop
      vertex -12.95 -22.4301 0
      vertex -23.803 -26.9363 0
      vertex -17.3305 -19.2475 0
    endloop
  endfacet
  facet normal 0 0 -1
    outer loop
      vertex -25.495 27.6001 0
      vertex -27.5 28.3765 0
      vertex -26.8519 28.6822 0
    endloop
  endfacet
  facet normal 0 0 -1
    outer loop
      vertex -27.5 30.7235 0
      vertex -26.8519 30.4178 0
      vertex -27.5 28.3765 0
    endloop
  endfacet
  facet normal 0 0 -1
    outer loop
      vertex -23.803 31.1137 0
      vertex 27 32.4 0
      vertex -23.05 29.55 0
    endloop
  endfacet
  facet normal 0 0 -1
    outer loop
      vertex -26.8519 30.4178 0
      vertex -26.8519 28.6822 0
      vertex -27.5 28.3765 0
    endloop
  endfacet
  facet normal 0 0 -1
    outer loop
      vertex -23.803 27.9863 0
      vertex 27 32.4 0
      vertex -25.495 27.6001 0
    endloop
  endfacet
  facet normal 0 0 -1
    outer loop
      vertex -27.5 28.3765 0
      vertex -25.495 27.6001 0
      vertex -27.5 -27.3265 0
    endloop
  endfacet
  facet normal 0 0 -1
    outer loop
      vertex -23.05 29.55 0
      vertex 27 32.4 0
      vertex -23.803 27.9863 0
    endloop
  endfacet
  facet normal 0 0 -1
    outer loop
      vertex -17.3305 -19.2475 0
      vertex -26.8519 -27.6322 0
      vertex -27.5 -27.3265 0
    endloop
  endfacet
  facet normal 0 0 -1
    outer loop
      vertex -25.495 31.4999 0
      vertex -27.5 32.4 0
      vertex -23.803 31.1137 0
    endloop
  endfacet
  facet normal 0 0 -1
    outer loop
      vertex -27.5 30.7235 0
      vertex -27.5 32.4 0
      vertex -25.495 31.4999 0
    endloop
  endfacet
  facet normal 0 0 -1
    outer loop
      vertex -25.495 27.6001 0
      vertex -25.9 0 0
      vertex -27.5 -27.3265 0
    endloop
  endfacet
  facet normal 0 0 -1
    outer loop
      vertex -25.9 0 0
      vertex -25.334 -5.38491 0
      vertex -27.5 -27.3265 0
    endloop
  endfacet
  facet normal 0 0 -1
    outer loop
      vertex -25.334 -5.38491 0
      vertex -23.6608 -10.5345 0
      vertex -27.5 -27.3265 0
    endloop
  endfacet
  facet normal 0 0 -1
    outer loop
      vertex -23.6608 -10.5345 0
      vertex -20.9535 -15.2236 0
      vertex -27.5 -27.3265 0
    endloop
  endfacet
  facet normal 0 0 -1
    outer loop
      vertex -17.3305 -19.2475 0
      vertex -25.495 -26.5501 0
      vertex -26.8519 -27.6322 0
    endloop
  endfacet
  facet normal 0 0 -1
    outer loop
      vertex -23.05 -28.5 0
      vertex -12.95 -22.4301 0
      vertex -8.00354 -24.6324 0
    endloop
  endfacet
  facet normal 0 0 -1
    outer loop
      vertex -23.05 -28.5 0
      vertex -8.00354 -24.6324 0
      vertex -2.70729 -25.7581 0
    endloop
  endfacet
  facet normal 0 0 -1
    outer loop
      vertex -23.05 -28.5 0
      vertex -2.70729 -25.7581 0
      vertex 27 -31.3 0
    endloop
  endfacet
  facet normal 0 0 -1
    outer loop
      vertex 12.95 22.4301 0
      vertex 22.2481 28.6822 0
      vertex 17.3305 19.2475 0
    endloop
  endfacet
  facet normal 0 0 -1
    outer loop
      vertex 25.334 5.38491 0
      vertex 27 32.4 0
      vertex 25.9 0 0
    endloop
  endfacet
  facet normal 0 0 -1
    outer loop
      vertex 25.297 -30.0637 0
      vertex 27 -31.3 0
      vertex 23.605 -30.4499 0
    endloop
  endfacet
  facet normal 0 0 -1
    outer loop
      vertex 17.3305 19.2475 0
      vertex 23.605 27.6001 0
      vertex 25.297 27.9863 0
    endloop
  endfacet
  facet normal 0 0 -1
    outer loop
      vertex 23.605 -30.4499 0
      vertex 8.00354 -24.6324 0
      vertex 22.2481 -29.3678 0
    endloop
  endfacet
  facet normal 0 0 -1
    outer loop
      vertex 17.3305 19.2475 0
      vertex 25.297 27.9863 0
      vertex 20.9535 15.2236 0
    endloop
  endfacet
  facet normal 0 0 -1
    outer loop
      vertex 22.2481 -29.3678 0
      vertex 12.95 -22.4301 0
      vertex 22.2481 -27.6322 0
    endloop
  endfacet
  facet normal 0 0 -1
    outer loop
      vertex 26.05 29.55 0
      vertex 27 32.4 0
      vertex 23.6608 10.5345 0
    endloop
  endfacet
  facet normal 0 0 -1
    outer loop
      vertex 22.2481 30.4178 0
      vertex 2.70729 25.7581 0
      vertex 23.605 31.4999 0
    endloop
  endfacet
  facet normal 0 0 -1
    outer loop
      vertex 20.9535 15.2236 0
      vertex 26.05 29.55 0
      vertex 23.6608 10.5345 0
    endloop
  endfacet
  facet normal 0 0 -1
    outer loop
      vertex 26.05 -28.5 0
      vertex 23.6608 -10.5345 0
      vertex 27 -31.3 0
    endloop
  endfacet
  facet normal 0 0 -1
    outer loop
      vertex 23.6608 10.5345 0
      vertex 27 32.4 0
      vertex 25.334 5.38491 0
    endloop
  endfacet
  facet normal 0 0 -1
    outer loop
      vertex 23.6608 -10.5345 0
      vertex 25.334 -5.38491 0
      vertex 27 -31.3 0
    endloop
  endfacet
  facet normal 0 0 -1
    outer loop
      vertex 25.334 -5.38491 0
      vertex 25.9 0 0
      vertex 27 -31.3 0
    endloop
  endfacet
  facet normal 0 0 -1
    outer loop
      vertex 2.70729 -25.7581 0
      vertex 27 -31.3 0
      vertex -2.70729 -25.7581 0
    endloop
  endfacet
  facet normal 0 0 -1
    outer loop
      vertex -25.495 27.6001 0
      vertex 2.70729 25.7581 0
      vertex -2.70729 25.7581 0
    endloop
  endfacet
  facet normal 0 0 -1
    outer loop
      vertex 22.2481 -27.6322 0
      vertex 17.3305 -19.2475 0
      vertex 23.605 -26.5501 0
    endloop
  endfacet
  facet normal 0 0 -1
    outer loop
      vertex -25.495 27.6001 0
      vertex -8.00354 24.6324 0
      vertex -12.95 22.4301 0
    endloop
  endfacet
  facet normal 0 0 -1
    outer loop
      vertex -25.495 27.6001 0
      vertex -12.95 22.4301 0
      vertex -17.3305 19.2475 0
    endloop
  endfacet
  facet normal 0 0 -1
    outer loop
      vertex -25.495 27.6001 0
      vertex -17.3305 19.2475 0
      vertex -20.9535 15.2236 0
    endloop
  endfacet
  facet normal 0 0 -1
    outer loop
      vertex -25.495 27.6001 0
      vertex -20.9535 15.2236 0
      vertex -23.6608 10.5345 0
    endloop
  endfacet
  facet normal 0 0 -1
    outer loop
      vertex -25.495 27.6001 0
      vertex -23.6608 10.5345 0
      vertex -25.334 5.38491 0
    endloop
  endfacet
  facet normal 0 0 -1
    outer loop
      vertex -25.495 27.6001 0
      vertex -25.334 5.38491 0
      vertex -25.9 0 0
    endloop
  endfacet
  facet normal 0 0 -1
    outer loop
      vertex 12.95 -22.4301 0
      vertex 17.3305 -19.2475 0
      vertex 22.2481 -27.6322 0
    endloop
  endfacet
  facet normal 0 0 -1
    outer loop
      vertex 8.00354 -24.6324 0
      vertex 12.95 -22.4301 0
      vertex 22.2481 -29.3678 0
    endloop
  endfacet
  facet normal 0 0 -1
    outer loop
      vertex 2.70729 -25.7581 0
      vertex 8.00354 -24.6324 0
      vertex 23.605 -30.4499 0
    endloop
  endfacet
  facet normal 0 0 -1
    outer loop
      vertex 2.70729 -25.7581 0
      vertex 23.605 -30.4499 0
      vertex 27 -31.3 0
    endloop
  endfacet
  facet normal 0 0 -1
    outer loop
      vertex 20.9535 -15.2236 0
      vertex 23.6608 -10.5345 0
      vertex 26.05 -28.5 0
    endloop
  endfacet
  facet normal 0 0 -1
    outer loop
      vertex 22.2481 30.4178 0
      vertex 8.00354 24.6324 0
      vertex 2.70729 25.7581 0
    endloop
  endfacet
  facet normal 0 0 -1
    outer loop
      vertex 17.3305 -19.2475 0
      vertex 20.9535 -15.2236 0
      vertex 25.297 -26.9363 0
    endloop
  endfacet
  facet normal 0 0 -1
    outer loop
      vertex 17.3305 -19.2475 0
      vertex 25.297 -26.9363 0
      vertex 23.605 -26.5501 0
    endloop
  endfacet
  facet normal 0 0 -1
    outer loop
      vertex 26.05 -28.5 0
      vertex 27 -31.3 0
      vertex 25.297 -30.0637 0
    endloop
  endfacet
  facet normal 0 0 -1
    outer loop
      vertex 22.2481 28.6822 0
      vertex 12.95 22.4301 0
      vertex 22.2481 30.4178 0
    endloop
  endfacet
  facet normal 0 0 -1
    outer loop
      vertex -8.00354 24.6324 0
      vertex -25.495 27.6001 0
      vertex -2.70729 25.7581 0
    endloop
  endfacet
  facet normal 0 0 -1
    outer loop
      vertex 23.605 31.4999 0
      vertex 27 32.4 0
      vertex 25.297 31.1137 0
    endloop
  endfacet
  facet normal 0 0 -1
    outer loop
      vertex 25.297 -26.9363 0
      vertex 20.9535 -15.2236 0
      vertex 26.05 -28.5 0
    endloop
  endfacet
  facet normal 0 0 -1
    outer loop
      vertex 23.605 27.6001 0
      vertex 17.3305 19.2475 0
      vertex 22.2481 28.6822 0
    endloop
  endfacet
  facet normal 0 0 -1
    outer loop
      vertex 25.297 31.1137 0
      vertex 27 32.4 0
      vertex 26.05 29.55 0
    endloop
  endfacet
  facet normal 0 0 -1
    outer loop
      vertex 26.05 29.55 0
      vertex 20.9535 15.2236 0
      vertex 25.297 27.9863 0
    endloop
  endfacet
  facet normal 0 0 -1
    outer loop
      vertex 8.00354 24.6324 0
      vertex 22.2481 30.4178 0
      vertex 12.95 22.4301 0
    endloop
  endfacet
  facet normal 0 0 -1
    outer loop
      vertex -25.495 27.6001 0
      vertex 27 32.4 0
      vertex 23.605 31.4999 0
    endloop
  endfacet
  facet normal 0 0 -1
    outer loop
      vertex -25.495 27.6001 0
      vertex 23.605 31.4999 0
      vertex 2.70729 25.7581 0
    endloop
  endfacet
  facet normal 0 0 -1
    outer loop
      vertex -26.8519 -29.3678 0
      vertex -27.5 -29.6735 0
      vertex -26.8519 -27.6322 0
    endloop
  endfacet
  facet normal 0 0 -1
    outer loop
      vertex -26.8519 30.4178 0
      vertex -27.5 30.7235 0
      vertex -25.495 31.4999 0
    endloop
  endfacet
  facet normal -1 0 0
    outer loop
      vertex -27.6811 -29.4577 0
      vertex -27.6811 -29.4577 13
      vertex -27.6811 -27.5423 0
    endloop
  endfacet
  facet normal -1 0 0
    outer loop
      vertex -27.6811 -27.5423 0
      vertex -27.6811 -29.4577 13
      vertex -27.6811 -27.5423 13
    endloop
  endfacet
  facet normal -0.766045 -0.642787 0
    outer loop
      vertex -27.6811 -29.4577 0
      vertex -27.5 -29.6735 0
      vertex -27.6811 -29.4577 13
    endloop
  endfacet
  facet normal -0.766045 -0.642787 0
    outer loop
      vertex -27.6811 -29.4577 13
      vertex -27.5 -29.6735 0
      vertex -27.5 -29.6735 4
    endloop
  endfacet
  facet normal -0.766045 -0.642787 0
    outer loop
      vertex -27.6811 -29.4577 13
      vertex -27.5 -29.6735 4
      vertex -26.45 -30.9249 4
    endloop
  endfacet
  facet normal -0.766045 -0.642787 0
    outer loop
      vertex -27.6811 -29.4577 13
      vertex -26.45 -30.9249 4
      vertex -26.45 -30.9249 13
    endloop
  endfacet
  facet normal -1 0 0
    outer loop
      vertex -27.5 -31.3 0
      vertex -27.5 -31.3 4
      vertex -27.5 -29.6735 0
    endloop
  endfacet
  facet normal -1 0 0
    outer loop
      vertex -27.5 -29.6735 0
      vertex -27.5 -31.3 4
      vertex -27.5 -29.6735 4
    endloop
  endfacet
  facet normal 0 -1 0
    outer loop
      vertex -27.5 -31.3 4
      vertex -27.5 -31.3 0
      vertex 27 -31.3 0
    endloop
  endfacet
  facet normal 0 -1 0
    outer loop
      vertex 27 -31.3 4
      vertex -27.5 -31.3 4
      vertex 27 -31.3 0
    endloop
  endfacet
  facet normal 1 0 0
    outer loop
      vertex 27 -31.3 4
      vertex 27 -31.3 0
      vertex 27 32.4 0
    endloop
  endfacet
  facet normal 1 0 0
    outer loop
      vertex 27 32.4 4
      vertex 27 -31.3 4
      vertex 27 32.4 0
    endloop
  endfacet
  facet normal 0 1 0
    outer loop
      vertex -27.5 32.4 0
      vertex -27.5 32.4 4
      vertex 27 32.4 0
    endloop
  endfacet
  facet normal 0 1 0
    outer loop
      vertex 27 32.4 0
      vertex -27.5 32.4 4
      vertex 27 32.4 4
    endloop
  endfacet
  facet normal -1 0 0
    outer loop
      vertex -27.5 30.7235 0
      vertex -27.5 30.7235 4
      vertex -27.5 32.4 0
    endloop
  endfacet
  facet normal -1 0 0
    outer loop
      vertex -27.5 32.4 0
      vertex -27.5 30.7235 4
      vertex -27.5 32.4 4
    endloop
  endfacet
  facet normal -0.766045 0.642787 0
    outer loop
      vertex -27.6811 30.5077 0
      vertex -27.6811 30.5077 13
      vertex -27.5 30.7235 0
    endloop
  endfacet
  facet normal -0.766045 0.642787 0
    outer loop
      vertex -27.5 30.7235 4
      vertex -27.6811 30.5077 13
      vertex -26.45 31.9749 13
    endloop
  endfacet
  facet normal -0.766045 0.642787 0
    outer loop
      vertex -27.5 30.7235 0
      vertex -27.6811 30.5077 13
      vertex -27.5 30.7235 4
    endloop
  endfacet
  facet normal -0.766045 0.642787 0
    outer loop
      vertex -27.5 30.7235 4
      vertex -26.45 31.9749 13
      vertex -26.45 31.9749 4
    endloop
  endfacet
  facet normal -1 0 0
    outer loop
      vertex -27.6811 28.5923 0
      vertex -27.6811 28.5923 13
      vertex -27.6811 30.5077 0
    endloop
  endfacet
  facet normal -1 0 0
    outer loop
      vertex -27.6811 30.5077 0
      vertex -27.6811 28.5923 13
      vertex -27.6811 30.5077 13
    endloop
  endfacet
  facet normal -0.766045 -0.642787 0
    outer loop
      vertex -27.6811 28.5923 0
      vertex -27.5 28.3765 0
      vertex -27.6811 28.5923 13
    endloop
  endfacet
  facet normal -0.766045 -0.642787 0
    outer loop
      vertex -27.6811 28.5923 13
      vertex -27.5 28.3765 0
      vertex -27.5 28.3765 4
    endloop
  endfacet
  facet normal -0.766045 -0.642787 0
    outer loop
      vertex -27.6811 28.5923 13
      vertex -27.5 28.3765 4
      vertex -26.45 27.1251 4
    endloop
  endfacet
  facet normal -0.766045 -0.642787 0
    outer loop
      vertex -27.6811 28.5923 13
      vertex -26.45 27.1251 4
      vertex -26.45 27.1251 13
    endloop
  endfacet
  facet normal -1 0 0
    outer loop
      vertex -27.5 -27.3265 0
      vertex -27.5 -27.3265 4
      vertex -27.5 28.3765 0
    endloop
  endfacet
  facet normal -1 0 0
    outer loop
      vertex -27.5 28.3765 0
      vertex -27.5 -27.3265 4
      vertex -27.5 28.3765 4
    endloop
  endfacet
  facet normal -0.766045 0.642787 0
    outer loop
      vertex -27.6811 -27.5423 0
      vertex -27.6811 -27.5423 13
      vertex -27.5 -27.3265 0
    endloop
  endfacet
  facet normal -0.766045 0.642787 0
    outer loop
      vertex -27.5 -27.3265 4
      vertex -27.6811 -27.5423 13
      vertex -26.45 -26.0751 13
    endloop
  endfacet
  facet normal -0.766045 0.642787 0
    outer loop
      vertex -27.5 -27.3265 0
      vertex -27.6811 -27.5423 13
      vertex -27.5 -27.3265 4
    endloop
  endfacet
  facet normal -0.766045 0.642787 0
    outer loop
      vertex -27.5 -27.3265 4
      vertex -26.45 -26.0751 13
      vertex -26.45 -26.0751 4
    endloop
  endfacet
  facet normal 1 0 0
    outer loop
      vertex -26.8519 -27.6322 0
      vertex -26.8519 -27.6322 13
      vertex -26.8519 -29.3678 13
    endloop
  endfacet
  facet normal 1 0 0
    outer loop
      vertex -26.8519 -29.3678 0
      vertex -26.8519 -27.6322 0
      vertex -26.8519 -29.3678 13
    endloop
  endfacet
  facet normal 0.62349 -0.781831 0
    outer loop
      vertex -25.495 -26.5501 0
      vertex -25.495 -26.5501 13
      vertex -26.8519 -27.6322 13
    endloop
  endfacet
  facet normal 0.62349 -0.781831 0
    outer loop
      vertex -26.8519 -27.6322 0
      vertex -25.495 -26.5501 0
      vertex -26.8519 -27.6322 13
    endloop
  endfacet
  facet normal -0.222521 -0.974928 0
    outer loop
      vertex -23.803 -26.9363 0
      vertex -23.803 -26.9363 13
      vertex -25.495 -26.5501 13
    endloop
  endfacet
  facet normal -0.222521 -0.974928 0
    outer loop
      vertex -25.495 -26.5501 0
      vertex -23.803 -26.9363 0
      vertex -25.495 -26.5501 13
    endloop
  endfacet
  facet normal -0.900969 -0.433884 0
    outer loop
      vertex -23.05 -28.5 13
      vertex -23.803 -26.9363 13
      vertex -23.05 -28.5 0
    endloop
  endfacet
  facet normal -0.900969 -0.433884 0
    outer loop
      vertex -23.05 -28.5 0
      vertex -23.803 -26.9363 13
      vertex -23.803 -26.9363 0
    endloop
  endfacet
  facet normal -0.900969 0.433884 0
    outer loop
      vertex -23.05 -28.5 13
      vertex -23.05 -28.5 0
      vertex -23.803 -30.0637 13
    endloop
  endfacet
  facet normal -0.900969 0.433884 0
    outer loop
      vertex -23.803 -30.0637 13
      vertex -23.05 -28.5 0
      vertex -23.803 -30.0637 0
    endloop
  endfacet
  facet normal -0.222521 0.974928 0
    outer loop
      vertex -23.803 -30.0637 13
      vertex -23.803 -30.0637 0
      vertex -25.495 -30.4499 13
    endloop
  endfacet
  facet normal -0.222521 0.974928 0
    outer loop
      vertex -25.495 -30.4499 13
      vertex -23.803 -30.0637 0
      vertex -25.495 -30.4499 0
    endloop
  endfacet
  facet normal 0.62349 0.781831 0
    outer loop
      vertex -25.495 -30.4499 13
      vertex -25.495 -30.4499 0
      vertex -26.8519 -29.3678 13
    endloop
  endfacet
  facet normal 0.62349 0.781831 0
    outer loop
      vertex -26.8519 -29.3678 13
      vertex -25.495 -30.4499 0
      vertex -26.8519 -29.3678 0
    endloop
  endfacet
  facet normal 1 0 0
    outer loop
      vertex -26.8519 30.4178 0
      vertex -26.8519 30.4178 13
      vertex -26.8519 28.6822 13
    endloop
  endfacet
  facet normal 1 0 0
    outer loop
      vertex -26.8519 28.6822 0
      vertex -26.8519 30.4178 0
      vertex -26.8519 28.6822 13
    endloop
  endfacet
  facet normal 0.62349 -0.781831 0
    outer loop
      vertex -25.495 31.4999 0
      vertex -25.495 31.4999 13
      vertex -26.8519 30.4178 13
    endloop
  endfacet
  facet normal 0.62349 -0.781831 0
    outer loop
      vertex -26.8519 30.4178 0
      vertex -25.495 31.4999 0
      vertex -26.8519 30.4178 13
    endloop
  endfacet
  facet normal -0.222521 -0.974928 0
    outer loop
      vertex -23.803 31.1137 0
      vertex -23.803 31.1137 13
      vertex -25.495 31.4999 13
    endloop
  endfacet
  facet normal -0.222521 -0.974928 0
    outer loop
      vertex -25.495 31.4999 0
      vertex -23.803 31.1137 0
      vertex -25.495 31.4999 13
    endloop
  endfacet
  facet normal -0.900969 -0.433884 0
    outer loop
      vertex -23.05 29.55 13
      vertex -23.803 31.1137 13
      vertex -23.05 29.55 0
    endloop
  endfacet
  facet normal -0.900969 -0.433884 0
    outer loop
      vertex -23.05 29.55 0
      vertex -23.803 31.1137 13
      vertex -23.803 31.1137 0
    endloop
  endfacet
  facet normal -0.900969 0.433884 0
    outer loop
      vertex -23.05 29.55 13
      vertex -23.05 29.55 0
      vertex -23.803 27.9863 13
    endloop
  endfacet
  facet normal -0.900969 0.433884 0
    outer loop
      vertex -23.803 27.9863 13
      vertex -23.05 29.55 0
      vertex -23.803 27.9863 0
    endloop
  endfacet
  facet normal -0.222521 0.974928 0
    outer loop
      vertex -23.803 27.9863 13
      vertex -23.803 27.9863 0
      vertex -25.495 27.6001 13
    endloop
  endfacet
  facet normal -0.222521 0.974928 0
    outer loop
      vertex -25.495 27.6001 13
      vertex -23.803 27.9863 0
      vertex -25.495 27.6001 0
    endloop
  endfacet
  facet normal 0.62349 0.781831 0
    outer loop
      vertex -25.495 27.6001 13
      vertex -25.495 27.6001 0
      vertex -26.8519 28.6822 13
    endloop
  endfacet
  facet normal 0.62349 0.781831 0
    outer loop
      vertex -26.8519 28.6822 13
      vertex -25.495 27.6001 0
      vertex -26.8519 28.6822 0
    endloop
  endfacet
  facet normal 0.994522 -0.104528 0
    outer loop
      vertex -25.334 5.38491 0
      vertex -25.334 5.38491 2.4
      vertex -25.9 0 2.4
    endloop
  endfacet
  facet normal 0.994522 -0.104528 0
    outer loop
      vertex -25.9 0 0
      vertex -25.334 5.38491 0
      vertex -25.9 0 2.4
    endloop
  endfacet
  facet normal 0.994522 0.104528 0
    outer loop
      vertex -25.9 0 2.4
      vertex -25.334 -5.38491 2.4
      vertex -25.334 -5.38491 0
    endloop
  endfacet
  facet normal 0.994522 0.104528 0
    outer loop
      vertex -25.9 0 0
      vertex -25.9 0 2.4
      vertex -25.334 -5.38491 0
    endloop
  endfacet
  facet normal 0.951056 -0.309017 0
    outer loop
      vertex -23.6608 10.5345 0
      vertex -23.6608 10.5345 2.4
      vertex -25.334 5.38491 2.4
    endloop
  endfacet
  facet normal 0.951056 -0.309017 0
    outer loop
      vertex -25.334 5.38491 0
      vertex -23.6608 10.5345 0
      vertex -25.334 5.38491 2.4
    endloop
  endfacet
  facet normal 0.866025 -0.5 0
    outer loop
      vertex -20.9535 15.2236 0
      vertex -20.9535 15.2236 2.4
      vertex -23.6608 10.5345 2.4
    endloop
  endfacet
  facet normal 0.866025 -0.5 0
    outer loop
      vertex -23.6608 10.5345 0
      vertex -20.9535 15.2236 0
      vertex -23.6608 10.5345 2.4
    endloop
  endfacet
  facet normal 0.743145 -0.669131 0
    outer loop
      vertex -17.3305 19.2475 0
      vertex -17.3305 19.2475 2.4
      vertex -20.9535 15.2236 2.4
    endloop
  endfacet
  facet normal 0.743145 -0.669131 0
    outer loop
      vertex -20.9535 15.2236 0
      vertex -17.3305 19.2475 0
      vertex -20.9535 15.2236 2.4
    endloop
  endfacet
  facet normal 0.587785 -0.809017 0
    outer loop
      vertex -12.95 22.4301 0
      vertex -12.95 22.4301 2.4
      vertex -17.3305 19.2475 2.4
    endloop
  endfacet
  facet normal 0.587785 -0.809017 0
    outer loop
      vertex -17.3305 19.2475 0
      vertex -12.95 22.4301 0
      vertex -17.3305 19.2475 2.4
    endloop
  endfacet
  facet normal 0.406737 -0.913545 0
    outer loop
      vertex -8.00354 24.6324 0
      vertex -8.00354 24.6324 2.4
      vertex -12.95 22.4301 2.4
    endloop
  endfacet
  facet normal 0.406737 -0.913545 0
    outer loop
      vertex -12.95 22.4301 0
      vertex -8.00354 24.6324 0
      vertex -12.95 22.4301 2.4
    endloop
  endfacet
  facet normal 0.207912 -0.978148 0
    outer loop
      vertex -2.70729 25.7581 0
      vertex -2.70729 25.7581 2.4
      vertex -8.00354 24.6324 2.4
    endloop
  endfacet
  facet normal 0.207912 -0.978148 0
    outer loop
      vertex -8.00354 24.6324 0
      vertex -2.70729 25.7581 0
      vertex -8.00354 24.6324 2.4
    endloop
  endfacet
  facet normal 0 -1 0
    outer loop
      vertex 2.70729 25.7581 0
      vertex 2.70729 25.7581 2.4
      vertex -2.70729 25.7581 2.4
    endloop
  endfacet
  facet normal 0 -1 0
    outer loop
      vertex -2.70729 25.7581 0
      vertex 2.70729 25.7581 0
      vertex -2.70729 25.7581 2.4
    endloop
  endfacet
  facet normal -0.207912 -0.978148 0
    outer loop
      vertex 8.00354 24.6324 0
      vertex 8.00354 24.6324 2.4
      vertex 2.70729 25.7581 2.4
    endloop
  endfacet
  facet normal -0.207912 -0.978148 0
    outer loop
      vertex 2.70729 25.7581 0
      vertex 8.00354 24.6324 0
      vertex 2.70729 25.7581 2.4
    endloop
  endfacet
  facet normal -0.406737 -0.913545 0
    outer loop
      vertex 12.95 22.4301 0
      vertex 12.95 22.4301 2.4
      vertex 8.00354 24.6324 2.4
    endloop
  endfacet
  facet normal -0.406737 -0.913545 0
    outer loop
      vertex 8.00354 24.6324 0
      vertex 12.95 22.4301 0
      vertex 8.00354 24.6324 2.4
    endloop
  endfacet
  facet normal -0.587785 -0.809017 0
    outer loop
      vertex 17.3305 19.2475 0
      vertex 17.3305 19.2475 2.4
      vertex 12.95 22.4301 2.4
    endloop
  endfacet
  facet normal -0.587785 -0.809017 0
    outer loop
      vertex 12.95 22.4301 0
      vertex 17.3305 19.2475 0
      vertex 12.95 22.4301 2.4
    endloop
  endfacet
  facet normal -0.743145 -0.669131 0
    outer loop
      vertex 20.9535 15.2236 2.4
      vertex 17.3305 19.2475 2.4
      vertex 20.9535 15.2236 0
    endloop
  endfacet
  facet normal -0.743145 -0.669131 0
    outer loop
      vertex 20.9535 15.2236 0
      vertex 17.3305 19.2475 2.4
      vertex 17.3305 19.2475 0
    endloop
  endfacet
  facet normal -0.866025 -0.5 0
    outer loop
      vertex 23.6608 10.5345 2.4
      vertex 20.9535 15.2236 2.4
      vertex 23.6608 10.5345 0
    endloop
  endfacet
  facet normal -0.866025 -0.5 0
    outer loop
      vertex 23.6608 10.5345 0
      vertex 20.9535 15.2236 2.4
      vertex 20.9535 15.2236 0
    endloop
  endfacet
  facet normal -0.951056 -0.309017 0
    outer loop
      vertex 25.334 5.38491 2.4
      vertex 23.6608 10.5345 2.4
      vertex 25.334 5.38491 0
    endloop
  endfacet
  facet normal -0.951056 -0.309017 0
    outer loop
      vertex 25.334 5.38491 0
      vertex 23.6608 10.5345 2.4
      vertex 23.6608 10.5345 0
    endloop
  endfacet
  facet normal -0.994522 -0.104528 0
    outer loop
      vertex 25.9 0 2.4
      vertex 25.334 5.38491 2.4
      vertex 25.9 0 0
    endloop
  endfacet
  facet normal -0.994522 -0.104528 0
    outer loop
      vertex 25.9 0 0
      vertex 25.334 5.38491 2.4
      vertex 25.334 5.38491 0
    endloop
  endfacet
  facet normal -0.994522 0.104528 0
    outer loop
      vertex 25.9 0 2.4
      vertex 25.9 0 0
      vertex 25.334 -5.38491 2.4
    endloop
  endfacet
  facet normal -0.994522 0.104528 0
    outer loop
      vertex 25.334 -5.38491 2.4
      vertex 25.9 0 0
      vertex 25.334 -5.38491 0
    endloop
  endfacet
  facet normal -0.951056 0.309017 0
    outer loop
      vertex 25.334 -5.38491 2.4
      vertex 25.334 -5.38491 0
      vertex 23.6608 -10.5345 2.4
    endloop
  endfacet
  facet normal -0.951056 0.309017 0
    outer loop
      vertex 23.6608 -10.5345 2.4
      vertex 25.334 -5.38491 0
      vertex 23.6608 -10.5345 0
    endloop
  endfacet
  facet normal -0.866025 0.5 0
    outer loop
      vertex 23.6608 -10.5345 2.4
      vertex 23.6608 -10.5345 0
      vertex 20.9535 -15.2236 2.4
    endloop
  endfacet
  facet normal -0.866025 0.5 0
    outer loop
      vertex 20.9535 -15.2236 2.4
      vertex 23.6608 -10.5345 0
      vertex 20.9535 -15.2236 0
    endloop
  endfacet
  facet normal -0.743145 0.669131 0
    outer loop
      vertex 20.9535 -15.2236 2.4
      vertex 20.9535 -15.2236 0
      vertex 17.3305 -19.2475 2.4
    endloop
  endfacet
  facet normal -0.743145 0.669131 0
    outer loop
      vertex 17.3305 -19.2475 2.4
      vertex 20.9535 -15.2236 0
      vertex 17.3305 -19.2475 0
    endloop
  endfacet
  facet normal -0.587785 0.809017 0
    outer loop
      vertex 17.3305 -19.2475 2.4
      vertex 17.3305 -19.2475 0
      vertex 12.95 -22.4301 2.4
    endloop
  endfacet
  facet normal -0.587785 0.809017 0
    outer loop
      vertex 12.95 -22.4301 2.4
      vertex 17.3305 -19.2475 0
      vertex 12.95 -22.4301 0
    endloop
  endfacet
  facet normal -0.406737 0.913545 0
    outer loop
      vertex 12.95 -22.4301 2.4
      vertex 12.95 -22.4301 0
      vertex 8.00354 -24.6324 2.4
    endloop
  endfacet
  facet normal -0.406737 0.913545 0
    outer loop
      vertex 8.00354 -24.6324 2.4
      vertex 12.95 -22.4301 0
      vertex 8.00354 -24.6324 0
    endloop
  endfacet
  facet normal -0.207912 0.978148 0
    outer loop
      vertex 8.00354 -24.6324 2.4
      vertex 8.00354 -24.6324 0
      vertex 2.70729 -25.7581 2.4
    endloop
  endfacet
  facet normal -0.207912 0.978148 0
    outer loop
      vertex 2.70729 -25.7581 2.4
      vertex 8.00354 -24.6324 0
      vertex 2.70729 -25.7581 0
    endloop
  endfacet
  facet normal 0 1 0
    outer loop
      vertex 2.70729 -25.7581 2.4
      vertex 2.70729 -25.7581 0
      vertex -2.70729 -25.7581 2.4
    endloop
  endfacet
  facet normal 0 1 0
    outer loop
      vertex -2.70729 -25.7581 2.4
      vertex 2.70729 -25.7581 0
      vertex -2.70729 -25.7581 0
    endloop
  endfacet
  facet normal 0.207912 0.978148 0
    outer loop
      vertex -2.70729 -25.7581 2.4
      vertex -2.70729 -25.7581 0
      vertex -8.00354 -24.6324 2.4
    endloop
  endfacet
  facet normal 0.207912 0.978148 0
    outer loop
      vertex -8.00354 -24.6324 2.4
      vertex -2.70729 -25.7581 0
      vertex -8.00354 -24.6324 0
    endloop
  endfacet
  facet normal 0.406737 0.913545 0
    outer loop
      vertex -8.00354 -24.6324 2.4
      vertex -8.00354 -24.6324 0
      vertex -12.95 -22.4301 2.4
    endloop
  endfacet
  facet normal 0.406737 0.913545 0
    outer loop
      vertex -12.95 -22.4301 2.4
      vertex -8.00354 -24.6324 0
      vertex -12.95 -22.4301 0
    endloop
  endfacet
  facet normal 0.587785 0.809017 0
    outer loop
      vertex -12.95 -22.4301 2.4
      vertex -12.95 -22.4301 0
      vertex -17.3305 -19.2475 2.4
    endloop
  endfacet
  facet normal 0.587785 0.809017 0
    outer loop
      vertex -17.3305 -19.2475 2.4
      vertex -12.95 -22.4301 0
      vertex -17.3305 -19.2475 0
    endloop
  endfacet
  facet normal 0.743145 0.669131 0
    outer loop
      vertex -20.9535 -15.2236 2.4
      vertex -17.3305 -19.2475 2.4
      vertex -17.3305 -19.2475 0
    endloop
  endfacet
  facet normal 0.743145 0.669131 0
    outer loop
      vertex -20.9535 -15.2236 0
      vertex -20.9535 -15.2236 2.4
      vertex -17.3305 -19.2475 0
    endloop
  endfacet
  facet normal 0.866025 0.5 0
    outer loop
      vertex -23.6608 -10.5345 2.4
      vertex -20.9535 -15.2236 2.4
      vertex -20.9535 -15.2236 0
    endloop
  endfacet
  facet normal 0.866025 0.5 0
    outer loop
      vertex -23.6608 -10.5345 0
      vertex -23.6608 -10.5345 2.4
      vertex -20.9535 -15.2236 0
    endloop
  endfacet
  facet normal 0.951056 0.309017 0
    outer loop
      vertex -25.334 -5.38491 2.4
      vertex -23.6608 -10.5345 2.4
      vertex -23.6608 -10.5345 0
    endloop
  endfacet
  facet normal 0.951056 0.309017 0
    outer loop
      vertex -25.334 -5.38491 0
      vertex -25.334 -5.38491 2.4
      vertex -23.6608 -10.5345 0
    endloop
  endfacet
  facet normal 1 0 0
    outer loop
      vertex 22.2481 -27.6322 0
      vertex 22.2481 -27.6322 13
      vertex 22.2481 -29.3678 13
    endloop
  endfacet
  facet normal 1 0 0
    outer loop
      vertex 22.2481 -29.3678 0
      vertex 22.2481 -27.6322 0
      vertex 22.2481 -29.3678 13
    endloop
  endfacet
  facet normal 0.62349 -0.781831 0
    outer loop
      vertex 23.605 -26.5501 0
      vertex 23.605 -26.5501 13
      vertex 22.2481 -27.6322 13
    endloop
  endfacet
  facet normal 0.62349 -0.781831 0
    outer loop
      vertex 22.2481 -27.6322 0
      vertex 23.605 -26.5501 0
      vertex 22.2481 -27.6322 13
    endloop
  endfacet
  facet normal -0.222521 -0.974928 0
    outer loop
      vertex 25.297 -26.9363 0
      vertex 25.297 -26.9363 13
      vertex 23.605 -26.5501 13
    endloop
  endfacet
  facet normal -0.222521 -0.974928 0
    outer loop
      vertex 23.605 -26.5501 0
      vertex 25.297 -26.9363 0
      vertex 23.605 -26.5501 13
    endloop
  endfacet
  facet normal -0.900969 -0.433884 0
    outer loop
      vertex 26.05 -28.5 13
      vertex 25.297 -26.9363 13
      vertex 26.05 -28.5 0
    endloop
  endfacet
  facet normal -0.900969 -0.433884 0
    outer loop
      vertex 26.05 -28.5 0
      vertex 25.297 -26.9363 13
      vertex 25.297 -26.9363 0
    endloop
  endfacet
  facet normal -0.900969 0.433884 0
    outer loop
      vertex 26.05 -28.5 13
      vertex 26.05 -28.5 0
      vertex 25.297 -30.0637 13
    endloop
  endfacet
  facet normal -0.900969 0.433884 0
    outer loop
      vertex 25.297 -30.0637 13
      vertex 26.05 -28.5 0
      vertex 25.297 -30.0637 0
    endloop
  endfacet
  facet normal -0.222521 0.974928 0
    outer loop
      vertex 25.297 -30.0637 13
      vertex 25.297 -30.0637 0
      vertex 23.605 -30.4499 13
    endloop
  endfacet
  facet normal -0.222521 0.974928 0
    outer loop
      vertex 23.605 -30.4499 13
      vertex 25.297 -30.0637 0
      vertex 23.605 -30.4499 0
    endloop
  endfacet
  facet normal 0.62349 0.781831 0
    outer loop
      vertex 23.605 -30.4499 13
      vertex 23.605 -30.4499 0
      vertex 22.2481 -29.3678 13
    endloop
  endfacet
  facet normal 0.62349 0.781831 0
    outer loop
      vertex 22.2481 -29.3678 13
      vertex 23.605 -30.4499 0
      vertex 22.2481 -29.3678 0
    endloop
  endfacet
  facet normal 1 0 0
    outer loop
      vertex 22.2481 30.4178 0
      vertex 22.2481 30.4178 13
      vertex 22.2481 28.6822 13
    endloop
  endfacet
  facet normal 1 0 0
    outer loop
      vertex 22.2481 28.6822 0
      vertex 22.2481 30.4178 0
      vertex 22.2481 28.6822 13
    endloop
  endfacet
  facet normal 0.62349 -0.781831 0
    outer loop
      vertex 23.605 31.4999 0
      vertex 23.605 31.4999 13
      vertex 22.2481 30.4178 13
    endloop
  endfacet
  facet normal 0.62349 -0.781831 0
    outer loop
      vertex 22.2481 30.4178 0
      vertex 23.605 31.4999 0
      vertex 22.2481 30.4178 13
    endloop
  endfacet
  facet normal -0.222521 -0.974928 0
    outer loop
      vertex 25.297 31.1137 0
      vertex 25.297 31.1137 13
      vertex 23.605 31.4999 13
    endloop
  endfacet
  facet normal -0.222521 -0.974928 0
    outer loop
      vertex 23.605 31.4999 0
      vertex 25.297 31.1137 0
      vertex 23.605 31.4999 13
    endloop
  endfacet
  facet normal -0.900969 -0.433884 0
    outer loop
      vertex 26.05 29.55 13
      vertex 25.297 31.1137 13
      vertex 26.05 29.55 0
    endloop
  endfacet
  facet normal -0.900969 -0.433884 0
    outer loop
      vertex 26.05 29.55 0
      vertex 25.297 31.1137 13
      vertex 25.297 31.1137 0
    endloop
  endfacet
  facet normal -0.900969 0.433884 0
    outer loop
      vertex 26.05 29.55 13
      vertex 26.05 29.55 0
      vertex 25.297 27.9863 13
    endloop
  endfacet
  facet normal -0.900969 0.433884 0
    outer loop
      vertex 25.297 27.9863 13
      vertex 26.05 29.55 0
      vertex 25.297 27.9863 0
    endloop
  endfacet
  facet normal -0.222521 0.974928 0
    outer loop
      vertex 25.297 27.9863 13
      vertex 25.297 27.9863 0
      vertex 23.605 27.6001 13
    endloop
  endfacet
  facet normal -0.222521 0.974928 0
    outer loop
      vertex 23.605 27.6001 13
      vertex 25.297 27.9863 0
      vertex 23.605 27.6001 0
    endloop
  endfacet
  facet normal 0.62349 0.781831 0
    outer loop
      vertex 23.605 27.6001 13
      vertex 23.605 27.6001 0
      vertex 22.2481 28.6822 13
    endloop
  endfacet
  facet normal 0.62349 0.781831 0
    outer loop
      vertex 22.2481 28.6822 13
      vertex 23.605 27.6001 0
      vertex 22.2481 28.6822 0
    endloop
  endfacet
  facet normal 0 0 1
    outer loop
      vertex -27.6811 -27.5423 13
      vertex -27.6811 -29.4577 13
      vertex -26.45 -30.9249 13
    endloop
  endfacet
  facet normal 0 0 1
    outer loop
      vertex -26.8519 -29.3678 13
      vertex -27.6811 -27.5423 13
      vertex -26.45 -30.9249 13
    endloop
  endfacet
  facet normal 0 0 1
    outer loop
      vertex -23.803 -26.9363 13
      vertex -23.05 -28.5 13
      vertex -22.25 -28.5 13
    endloop
  endfacet
  facet normal 0 0 1
    outer loop
      vertex -26.45 -26.0751 13
      vertex -27.6811 -27.5423 13
      vertex -24.5638 -25.7425 13
    endloop
  endfacet
  facet normal 0 0 1
    outer loop
      vertex -24.5638 -31.2575 13
      vertex -26.8519 -29.3678 13
      vertex -26.45 -30.9249 13
    endloop
  endfacet
  facet normal 0 0 1
    outer loop
      vertex -23.05 -28.5 13
      vertex -23.803 -30.0637 13
      vertex -22.9051 -30.2998 13
    endloop
  endfacet
  facet normal 0 0 1
    outer loop
      vertex -25.495 -26.5501 13
      vertex -23.803 -26.9363 13
      vertex -22.9051 -26.7002 13
    endloop
  endfacet
  facet normal 0 0 1
    outer loop
      vertex -24.5638 -25.7425 13
      vertex -25.495 -26.5501 13
      vertex -22.9051 -26.7002 13
    endloop
  endfacet
  facet normal 0 0 1
    outer loop
      vertex -24.5638 -25.7425 13
      vertex -27.6811 -27.5423 13
      vertex -25.495 -26.5501 13
    endloop
  endfacet
  facet normal 0 0 1
    outer loop
      vertex -22.9051 -26.7002 13
      vertex -23.803 -26.9363 13
      vertex -22.25 -28.5 13
    endloop
  endfacet
  facet normal 0 0 1
    outer loop
      vertex -22.25 -28.5 13
      vertex -23.05 -28.5 13
      vertex -22.9051 -30.2998 13
    endloop
  endfacet
  facet normal 0 0 1
    outer loop
      vertex -26.8519 -27.6322 13
      vertex -25.495 -26.5501 13
      vertex -27.6811 -27.5423 13
    endloop
  endfacet
  facet normal 0 0 1
    outer loop
      vertex -22.9051 -30.2998 13
      vertex -23.803 -30.0637 13
      vertex -24.5638 -31.2575 13
    endloop
  endfacet
  facet normal 0 0 1
    outer loop
      vertex -24.5638 -31.2575 13
      vertex -25.495 -30.4499 13
      vertex -26.8519 -29.3678 13
    endloop
  endfacet
  facet normal 0 0 1
    outer loop
      vertex -23.803 -30.0637 13
      vertex -25.495 -30.4499 13
      vertex -24.5638 -31.2575 13
    endloop
  endfacet
  facet normal 0 0 1
    outer loop
      vertex -26.8519 -29.3678 13
      vertex -26.8519 -27.6322 13
      vertex -27.6811 -27.5423 13
    endloop
  endfacet
  facet normal -0.173648 -0.984808 0
    outer loop
      vertex -26.45 -30.9249 13
      vertex -26.45 -30.9249 4
      vertex -24.5638 -31.2575 4
    endloop
  endfacet
  facet normal -0.173648 -0.984808 0
    outer loop
      vertex -24.5638 -31.2575 13
      vertex -26.45 -30.9249 13
      vertex -24.5638 -31.2575 4
    endloop
  endfacet
  facet normal 0 0 1
    outer loop
      vertex -24.5638 -31.2575 4
      vertex -27.5 -31.3 4
      vertex 27 -31.3 4
    endloop
  endfacet
  facet normal 0 0 1
    outer loop
      vertex -24.5638 -31.2575 4
      vertex -26.45 -30.9249 4
      vertex -27.5 -31.3 4
    endloop
  endfacet
  facet normal 0 0 1
    outer loop
      vertex -27.5 -27.3265 4
      vertex -22.9051 27.7502 4
      vertex -24.5638 26.7925 4
    endloop
  endfacet
  facet normal 0 0 1
    outer loop
      vertex -22.9051 31.3498 4
      vertex 24.5362 32.3075 4
      vertex 27 32.4 4
    endloop
  endfacet
  facet normal 0 0 1
    outer loop
      vertex -27.5 32.4 4
      vertex -27.5 30.7235 4
      vertex -26.45 31.9749 4
    endloop
  endfacet
  facet normal 0 0 1
    outer loop
      vertex -27.5 32.4 4
      vertex -24.5638 32.3075 4
      vertex 27 32.4 4
    endloop
  endfacet
  facet normal 0 0 1
    outer loop
      vertex -27.5 32.4 4
      vertex -26.45 31.9749 4
      vertex -24.5638 32.3075 4
    endloop
  endfacet
  facet normal 0 0 1
    outer loop
      vertex -15 13 4
      vertex 10 13 4
      vertex 21.4189 28.5923 4
    endloop
  endfacet
  facet normal 0 0 1
    outer loop
      vertex 10 13 4
      vertex 10 -13 4
      vertex 22.65 27.1251 4
    endloop
  endfacet
  facet normal 0 0 1
    outer loop
      vertex -27.5 28.3765 4
      vertex -27.5 -27.3265 4
      vertex -26.45 27.1251 4
    endloop
  endfacet
  facet normal 0 0 1
    outer loop
      vertex 24.5362 26.7925 4
      vertex 22.65 27.1251 4
      vertex 10 -13 4
    endloop
  endfacet
  facet normal 0 0 1
    outer loop
      vertex 22.65 27.1251 4
      vertex 21.4189 28.5923 4
      vertex 10 13 4
    endloop
  endfacet
  facet normal 0 0 1
    outer loop
      vertex 24.5362 32.3075 4
      vertex 26.1949 31.3498 4
      vertex 27 32.4 4
    endloop
  endfacet
  facet normal 0 0 1
    outer loop
      vertex 24.5362 -31.2575 4
      vertex -24.5638 -31.2575 4
      vertex 27 -31.3 4
    endloop
  endfacet
  facet normal 0 0 1
    outer loop
      vertex 21.4189 28.5923 4
      vertex 21.4189 30.5077 4
      vertex -15 13 4
    endloop
  endfacet
  facet normal 0 0 1
    outer loop
      vertex -27.5 -29.6735 4
      vertex -27.5 -31.3 4
      vertex -26.45 -30.9249 4
    endloop
  endfacet
  facet normal 0 0 1
    outer loop
      vertex 22.65 -30.9249 4
      vertex 21.4189 -29.4577 4
      vertex -22.9051 -26.7002 4
    endloop
  endfacet
  facet normal 0 0 1
    outer loop
      vertex -22.25 29.55 4
      vertex -26.45 -26.0751 4
      vertex -15 -13 4
    endloop
  endfacet
  facet normal 0 0 1
    outer loop
      vertex -22.25 29.55 4
      vertex -15 -13 4
      vertex -15 13 4
    endloop
  endfacet
  facet normal 0 0 1
    outer loop
      vertex 26.1949 31.3498 4
      vertex 26.85 29.55 4
      vertex 27 32.4 4
    endloop
  endfacet
  facet normal 0 0 1
    outer loop
      vertex 10 -13 4
      vertex -22.9051 -26.7002 4
      vertex 21.4189 -29.4577 4
    endloop
  endfacet
  facet normal 0 0 1
    outer loop
      vertex 10 -13 4
      vertex 21.4189 -29.4577 4
      vertex 21.4189 -27.5423 4
    endloop
  endfacet
  facet normal 0 0 1
    outer loop
      vertex 26.1949 27.7502 4
      vertex 10 -13 4
      vertex 22.65 -26.0751 4
    endloop
  endfacet
  facet normal 0 0 1
    outer loop
      vertex 24.5362 -31.2575 4
      vertex 22.65 -30.9249 4
      vertex -22.25 -28.5 4
    endloop
  endfacet
  facet normal 0 0 1
    outer loop
      vertex 26.85 29.55 4
      vertex 22.65 -26.0751 4
      vertex 24.5362 -25.7425 4
    endloop
  endfacet
  facet normal 0 0 1
    outer loop
      vertex 27 32.4 4
      vertex 24.5362 -25.7425 4
      vertex 26.1949 -26.7002 4
    endloop
  endfacet
  facet normal 0 0 1
    outer loop
      vertex 27 32.4 4
      vertex 26.85 -28.5 4
      vertex 27 -31.3 4
    endloop
  endfacet
  facet normal 0 0 1
    outer loop
      vertex 27 32.4 4
      vertex 26.1949 -26.7002 4
      vertex 26.85 -28.5 4
    endloop
  endfacet
  facet normal 0 0 1
    outer loop
      vertex 24.5362 -31.2575 4
      vertex -22.25 -28.5 4
      vertex -22.9051 -30.2998 4
    endloop
  endfacet
  facet normal 0 0 1
    outer loop
      vertex 26.85 29.55 4
      vertex 26.1949 27.7502 4
      vertex 22.65 -26.0751 4
    endloop
  endfacet
  facet normal 0 0 1
    outer loop
      vertex -22.9051 -30.2998 4
      vertex -24.5638 -31.2575 4
      vertex 24.5362 -31.2575 4
    endloop
  endfacet
  facet normal 0 0 1
    outer loop
      vertex 21.4189 -27.5423 4
      vertex 22.65 -26.0751 4
      vertex 10 -13 4
    endloop
  endfacet
  facet normal 0 0 1
    outer loop
      vertex -22.9051 -26.7002 4
      vertex -22.25 -28.5 4
      vertex 22.65 -30.9249 4
    endloop
  endfacet
  facet normal 0 0 1
    outer loop
      vertex 22.65 31.9749 4
      vertex 24.5362 32.3075 4
      vertex -22.25 29.55 4
    endloop
  endfacet
  facet normal 0 0 1
    outer loop
      vertex 26.85 -28.5 4
      vertex 26.1949 -30.2998 4
      vertex 27 -31.3 4
    endloop
  endfacet
  facet normal 0 0 1
    outer loop
      vertex -22.25 29.55 4
      vertex -15 13 4
      vertex 21.4189 30.5077 4
    endloop
  endfacet
  facet normal 0 0 1
    outer loop
      vertex -22.25 29.55 4
      vertex 21.4189 30.5077 4
      vertex 22.65 31.9749 4
    endloop
  endfacet
  facet normal 0 0 1
    outer loop
      vertex -27.5 -27.3265 4
      vertex -24.5638 26.7925 4
      vertex -26.45 27.1251 4
    endloop
  endfacet
  facet normal 0 0 1
    outer loop
      vertex 27 32.4 4
      vertex 26.85 29.55 4
      vertex 24.5362 -25.7425 4
    endloop
  endfacet
  facet normal 0 0 1
    outer loop
      vertex 26.1949 27.7502 4
      vertex 24.5362 26.7925 4
      vertex 10 -13 4
    endloop
  endfacet
  facet normal 0 0 1
    outer loop
      vertex 26.1949 -30.2998 4
      vertex 24.5362 -31.2575 4
      vertex 27 -31.3 4
    endloop
  endfacet
  facet normal 0 0 1
    outer loop
      vertex -24.5638 32.3075 4
      vertex -22.9051 31.3498 4
      vertex 27 32.4 4
    endloop
  endfacet
  facet normal 0 0 1
    outer loop
      vertex -22.9051 31.3498 4
      vertex -22.25 29.55 4
      vertex 24.5362 32.3075 4
    endloop
  endfacet
  facet normal 0 0 1
    outer loop
      vertex -27.5 -27.3265 4
      vertex -22.25 29.55 4
      vertex -22.9051 27.7502 4
    endloop
  endfacet
  facet normal 0 0 1
    outer loop
      vertex -27.5 -27.3265 4
      vertex -26.45 -26.0751 4
      vertex -22.25 29.55 4
    endloop
  endfacet
  facet normal 0 0 1
    outer loop
      vertex 10 -13 4
      vertex -24.5638 -25.7425 4
      vertex -22.9051 -26.7002 4
    endloop
  endfacet
  facet normal 0 0 1
    outer loop
      vertex 10 -13 4
      vertex -26.45 -26.0751 4
      vertex -24.5638 -25.7425 4
    endloop
  endfacet
  facet normal 0 0 1
    outer loop
      vertex 10 -13 4
      vertex -15 -13 4
      vertex -26.45 -26.0751 4
    endloop
  endfacet
  facet normal -0.173648 0.984808 0
    outer loop
      vertex -26.45 31.9749 4
      vertex -26.45 31.9749 13
      vertex -24.5638 32.3075 4
    endloop
  endfacet
  facet normal -0.173648 0.984808 0
    outer loop
      vertex -24.5638 32.3075 4
      vertex -26.45 31.9749 13
      vertex -24.5638 32.3075 13
    endloop
  endfacet
  facet normal 0 0 1
    outer loop
      vertex -27.6811 30.5077 13
      vertex -27.6811 28.5923 13
      vertex -26.45 27.1251 13
    endloop
  endfacet
  facet normal 0 0 1
    outer loop
      vertex -26.8519 28.6822 13
      vertex -27.6811 30.5077 13
      vertex -26.45 27.1251 13
    endloop
  endfacet
  facet normal 0 0 1
    outer loop
      vertex -23.803 31.1137 13
      vertex -23.05 29.55 13
      vertex -22.25 29.55 13
    endloop
  endfacet
  facet normal 0 0 1
    outer loop
      vertex -26.45 31.9749 13
      vertex -27.6811 30.5077 13
      vertex -24.5638 32.3075 13
    endloop
  endfacet
  facet normal 0 0 1
    outer loop
      vertex -24.5638 26.7925 13
      vertex -26.8519 28.6822 13
      vertex -26.45 27.1251 13
    endloop
  endfacet
  facet normal 0 0 1
    outer loop
      vertex -23.05 29.55 13
      vertex -23.803 27.9863 13
      vertex -22.9051 27.7502 13
    endloop
  endfacet
  facet normal 0 0 1
    outer loop
      vertex -25.495 31.4999 13
      vertex -23.803 31.1137 13
      vertex -22.9051 31.3498 13
    endloop
  endfacet
  facet normal 0 0 1
    outer loop
      vertex -24.5638 32.3075 13
      vertex -25.495 31.4999 13
      vertex -22.9051 31.3498 13
    endloop
  endfacet
  facet normal 0 0 1
    outer loop
      vertex -24.5638 32.3075 13
      vertex -27.6811 30.5077 13
      vertex -25.495 31.4999 13
    endloop
  endfacet
  facet normal 0 0 1
    outer loop
      vertex -22.9051 31.3498 13
      vertex -23.803 31.1137 13
      vertex -22.25 29.55 13
    endloop
  endfacet
  facet normal 0 0 1
    outer loop
      vertex -22.25 29.55 13
      vertex -23.05 29.55 13
      vertex -22.9051 27.7502 13
    endloop
  endfacet
  facet normal 0 0 1
    outer loop
      vertex -26.8519 30.4178 13
      vertex -25.495 31.4999 13
      vertex -27.6811 30.5077 13
    endloop
  endfacet
  facet normal 0 0 1
    outer loop
      vertex -22.9051 27.7502 13
      vertex -23.803 27.9863 13
      vertex -24.5638 26.7925 13
    endloop
  endfacet
  facet normal 0 0 1
    outer loop
      vertex -24.5638 26.7925 13
      vertex -25.495 27.6001 13
      vertex -26.8519 28.6822 13
    endloop
  endfacet
  facet normal 0 0 1
    outer loop
      vertex -23.803 27.9863 13
      vertex -25.495 27.6001 13
      vertex -24.5638 26.7925 13
    endloop
  endfacet
  facet normal 0 0 1
    outer loop
      vertex -26.8519 28.6822 13
      vertex -26.8519 30.4178 13
      vertex -27.6811 30.5077 13
    endloop
  endfacet
  facet normal -0.173648 -0.984808 0
    outer loop
      vertex -26.45 27.1251 13
      vertex -26.45 27.1251 4
      vertex -24.5638 26.7925 4
    endloop
  endfacet
  facet normal -0.173648 -0.984808 0
    outer loop
      vertex -24.5638 26.7925 13
      vertex -26.45 27.1251 13
      vertex -24.5638 26.7925 4
    endloop
  endfacet
  facet normal -0.173648 0.984808 0
    outer loop
      vertex -26.45 -26.0751 4
      vertex -26.45 -26.0751 13
      vertex -24.5638 -25.7425 4
    endloop
  endfacet
  facet normal -0.173648 0.984808 0
    outer loop
      vertex -24.5638 -25.7425 4
      vertex -26.45 -26.0751 13
      vertex -24.5638 -25.7425 13
    endloop
  endfacet
  facet normal 0 0 -1
    outer loop
      vertex -23.6608 10.5345 2.4
      vertex -20.9535 15.2236 2.4
      vertex -25.334 5.38491 2.4
    endloop
  endfacet
  facet normal 0 0 -1
    outer loop
      vertex -25.334 5.38491 2.4
      vertex -20.9535 15.2236 2.4
      vertex -17.3305 19.2475 2.4
    endloop
  endfacet
  facet normal 0 0 -1
    outer loop
      vertex -25.334 5.38491 2.4
      vertex -17.3305 19.2475 2.4
      vertex -12.95 22.4301 2.4
    endloop
  endfacet
  facet normal 0 0 -1
    outer loop
      vertex -25.334 5.38491 2.4
      vertex -12.95 22.4301 2.4
      vertex -8.00354 24.6324 2.4
    endloop
  endfacet
  facet normal 0 0 -1
    outer loop
      vertex -25.334 5.38491 2.4
      vertex -8.00354 24.6324 2.4
      vertex -2.70729 25.7581 2.4
    endloop
  endfacet
  facet normal 0 0 -1
    outer loop
      vertex -25.334 5.38491 2.4
      vertex -2.70729 25.7581 2.4
      vertex 2.70729 25.7581 2.4
    endloop
  endfacet
  facet normal 0 0 -1
    outer loop
      vertex -25.334 5.38491 2.4
      vertex 2.70729 25.7581 2.4
      vertex 8.00354 24.6324 2.4
    endloop
  endfacet
  facet normal 0 0 -1
    outer loop
      vertex -25.334 5.38491 2.4
      vertex 8.00354 24.6324 2.4
      vertex 12.95 22.4301 2.4
    endloop
  endfacet
  facet normal 0 0 -1
    outer loop
      vertex -25.334 5.38491 2.4
      vertex 12.95 22.4301 2.4
      vertex 17.3305 19.2475 2.4
    endloop
  endfacet
  facet normal 0 0 -1
    outer loop
      vertex -25.334 5.38491 2.4
      vertex 17.3305 19.2475 2.4
      vertex 20.9535 15.2236 2.4
    endloop
  endfacet
  facet normal 0 0 -1
    outer loop
      vertex -25.334 5.38491 2.4
      vertex 20.9535 15.2236 2.4
      vertex 23.6608 10.5345 2.4
    endloop
  endfacet
  facet normal 0 0 -1
    outer loop
      vertex -25.334 5.38491 2.4
      vertex 23.6608 10.5345 2.4
      vertex 25.334 5.38491 2.4
    endloop
  endfacet
  facet normal 0 0 -1
    outer loop
      vertex 4.5 4.5 2.4
      vertex 25.334 5.38491 2.4
      vertex 25.9 0 2.4
    endloop
  endfacet
  facet normal 0 0 -1
    outer loop
      vertex 4.5 -4.5 2.4
      vertex 23.6608 -10.5345 2.4
      vertex 20.9535 -15.2236 2.4
    endloop
  endfacet
  facet normal 0 0 -1
    outer loop
      vertex -4.5 -4.5 2.4
      vertex 20.9535 -15.2236 2.4
      vertex 17.3305 -19.2475 2.4
    endloop
  endfacet
  facet normal 0 0 -1
    outer loop
      vertex -25.334 5.38491 2.4
      vertex 17.3305 -19.2475 2.4
      vertex 12.95 -22.4301 2.4
    endloop
  endfacet
  facet normal 0 0 -1
    outer loop
      vertex -25.334 5.38491 2.4
      vertex 12.95 -22.4301 2.4
      vertex 8.00354 -24.6324 2.4
    endloop
  endfacet
  facet normal 0 0 -1
    outer loop
      vertex -25.334 5.38491 2.4
      vertex 8.00354 -24.6324 2.4
      vertex 2.70729 -25.7581 2.4
    endloop
  endfacet
  facet normal 0 0 -1
    outer loop
      vertex -25.334 5.38491 2.4
      vertex 2.70729 -25.7581 2.4
      vertex -2.70729 -25.7581 2.4
    endloop
  endfacet
  facet normal 0 0 -1
    outer loop
      vertex -25.334 5.38491 2.4
      vertex -2.70729 -25.7581 2.4
      vertex -8.00354 -24.6324 2.4
    endloop
  endfacet
  facet normal 0 0 -1
    outer loop
      vertex -25.334 5.38491 2.4
      vertex -8.00354 -24.6324 2.4
      vertex -12.95 -22.4301 2.4
    endloop
  endfacet
  facet normal 0 0 -1
    outer loop
      vertex -25.334 5.38491 2.4
      vertex -12.95 -22.4301 2.4
      vertex -17.3305 -19.2475 2.4
    endloop
  endfacet
  facet normal 0 0 -1
    outer loop
      vertex -25.334 5.38491 2.4
      vertex -17.3305 -19.2475 2.4
      vertex -20.9535 -15.2236 2.4
    endloop
  endfacet
  facet normal 0 0 -1
    outer loop
      vertex -25.334 5.38491 2.4
      vertex -20.9535 -15.2236 2.4
      vertex -23.6608 -10.5345 2.4
    endloop
  endfacet
  facet normal 0 0 -1
    outer loop
      vertex -25.334 5.38491 2.4
      vertex -23.6608 -10.5345 2.4
      vertex -25.334 -5.38491 2.4
    endloop
  endfacet
  facet normal 0 0 -1
    outer loop
      vertex -25.334 5.38491 2.4
      vertex -25.334 -5.38491 2.4
      vertex -25.9 0 2.4
    endloop
  endfacet
  facet normal 0 0 -1
    outer loop
      vertex 4.5 4.5 2.4
      vertex 25.9 0 2.4
      vertex 25.334 -5.38491 2.4
    endloop
  endfacet
  facet normal 0 0 -1
    outer loop
      vertex -25.334 5.38491 2.4
      vertex -4.5 -4.5 2.4
      vertex 17.3305 -19.2475 2.4
    endloop
  endfacet
  facet normal 0 0 -1
    outer loop
      vertex 4.5 4.5 2.4
      vertex 23.6608 -10.5345 2.4
      vertex 4.5 -4.5 2.4
    endloop
  endfacet
  facet normal 0 0 -1
    outer loop
      vertex 4.5 4.5 2.4
      vertex 25.334 -5.38491 2.4
      vertex 23.6608 -10.5345 2.4
    endloop
  endfacet
  facet normal 0 0 -1
    outer loop
      vertex -25.334 5.38491 2.4
      vertex 25.334 5.38491 2.4
      vertex 4.5 4.5 2.4
    endloop
  endfacet
  facet normal 0 0 -1
    outer loop
      vertex -25.334 5.38491 2.4
      vertex 4.5 4.5 2.4
      vertex -4.5 4.5 2.4
    endloop
  endfacet
  facet normal 0 0 -1
    outer loop
      vertex -4.5 -4.5 2.4
      vertex -25.334 5.38491 2.4
      vertex -4.5 4.5 2.4
    endloop
  endfacet
  facet normal 0 0 -1
    outer loop
      vertex 4.5 -4.5 2.4
      vertex 20.9535 -15.2236 2.4
      vertex -4.5 -4.5 2.4
    endloop
  endfacet
  facet normal 0 0 1
    outer loop
      vertex 21.4189 -27.5423 13
      vertex 21.4189 -29.4577 13
      vertex 22.65 -30.9249 13
    endloop
  endfacet
  facet normal 0 0 1
    outer loop
      vertex 22.2481 -29.3678 13
      vertex 21.4189 -27.5423 13
      vertex 22.65 -30.9249 13
    endloop
  endfacet
  facet normal 0 0 1
    outer loop
      vertex 25.297 -26.9363 13
      vertex 26.05 -28.5 13
      vertex 26.85 -28.5 13
    endloop
  endfacet
  facet normal 0 0 1
    outer loop
      vertex 22.65 -26.0751 13
      vertex 21.4189 -27.5423 13
      vertex 24.5362 -25.7425 13
    endloop
  endfacet
  facet normal 0 0 1
    outer loop
      vertex 24.5362 -31.2575 13
      vertex 22.2481 -29.3678 13
      vertex 22.65 -30.9249 13
    endloop
  endfacet
  facet normal 0 0 1
    outer loop
      vertex 26.05 -28.5 13
      vertex 25.297 -30.0637 13
      vertex 26.1949 -30.2998 13
    endloop
  endfacet
  facet normal 0 0 1
    outer loop
      vertex 23.605 -26.5501 13
      vertex 25.297 -26.9363 13
      vertex 26.1949 -26.7002 13
    endloop
  endfacet
  facet normal 0 0 1
    outer loop
      vertex 24.5362 -25.7425 13
      vertex 23.605 -26.5501 13
      vertex 26.1949 -26.7002 13
    endloop
  endfacet
  facet normal 0 0 1
    outer loop
      vertex 24.5362 -25.7425 13
      vertex 21.4189 -27.5423 13
      vertex 23.605 -26.5501 13
    endloop
  endfacet
  facet normal 0 0 1
    outer loop
      vertex 26.1949 -26.7002 13
      vertex 25.297 -26.9363 13
      vertex 26.85 -28.5 13
    endloop
  endfacet
  facet normal 0 0 1
    outer loop
      vertex 26.85 -28.5 13
      vertex 26.05 -28.5 13
      vertex 26.1949 -30.2998 13
    endloop
  endfacet
  facet normal 0 0 1
    outer loop
      vertex 22.2481 -27.6322 13
      vertex 23.605 -26.5501 13
      vertex 21.4189 -27.5423 13
    endloop
  endfacet
  facet normal 0 0 1
    outer loop
      vertex 26.1949 -30.2998 13
      vertex 25.297 -30.0637 13
      vertex 24.5362 -31.2575 13
    endloop
  endfacet
  facet normal 0 0 1
    outer loop
      vertex 24.5362 -31.2575 13
      vertex 23.605 -30.4499 13
      vertex 22.2481 -29.3678 13
    endloop
  endfacet
  facet normal 0 0 1
    outer loop
      vertex 25.297 -30.0637 13
      vertex 23.605 -30.4499 13
      vertex 24.5362 -31.2575 13
    endloop
  endfacet
  facet normal 0 0 1
    outer loop
      vertex 22.2481 -29.3678 13
      vertex 22.2481 -27.6322 13
      vertex 21.4189 -27.5423 13
    endloop
  endfacet
  facet normal 0 0 1
    outer loop
      vertex 21.4189 30.5077 13
      vertex 21.4189 28.5923 13
      vertex 22.65 27.1251 13
    endloop
  endfacet
  facet normal 0 0 1
    outer loop
      vertex 22.2481 28.6822 13
      vertex 21.4189 30.5077 13
      vertex 22.65 27.1251 13
    endloop
  endfacet
  facet normal 0 0 1
    outer loop
      vertex 25.297 31.1137 13
      vertex 26.05 29.55 13
      vertex 26.85 29.55 13
    endloop
  endfacet
  facet normal 0 0 1
    outer loop
      vertex 22.65 31.9749 13
      vertex 21.4189 30.5077 13
      vertex 24.5362 32.3075 13
    endloop
  endfacet
  facet normal 0 0 1
    outer loop
      vertex 24.5362 26.7925 13
      vertex 22.2481 28.6822 13
      vertex 22.65 27.1251 13
    endloop
  endfacet
  facet normal 0 0 1
    outer loop
      vertex 26.05 29.55 13
      vertex 25.297 27.9863 13
      vertex 26.1949 27.7502 13
    endloop
  endfacet
  facet normal 0 0 1
    outer loop
      vertex 23.605 31.4999 13
      vertex 25.297 31.1137 13
      vertex 26.1949 31.3498 13
    endloop
  endfacet
  facet normal 0 0 1
    outer loop
      vertex 24.5362 32.3075 13
      vertex 23.605 31.4999 13
      vertex 26.1949 31.3498 13
    endloop
  endfacet
  facet normal 0 0 1
    outer loop
      vertex 24.5362 32.3075 13
      vertex 21.4189 30.5077 13
      vertex 23.605 31.4999 13
    endloop
  endfacet
  facet normal 0 0 1
    outer loop
      vertex 26.1949 31.3498 13
      vertex 25.297 31.1137 13
      vertex 26.85 29.55 13
    endloop
  endfacet
  facet normal 0 0 1
    outer loop
      vertex 26.85 29.55 13
      vertex 26.05 29.55 13
      vertex 26.1949 27.7502 13
    endloop
  endfacet
  facet normal 0 0 1
    outer loop
      vertex 22.2481 30.4178 13
      vertex 23.605 31.4999 13
      vertex 21.4189 30.5077 13
    endloop
  endfacet
  facet normal 0 0 1
    outer loop
      vertex 26.1949 27.7502 13
      vertex 25.297 27.9863 13
      vertex 24.5362 26.7925 13
    endloop
  endfacet
  facet normal 0 0 1
    outer loop
      vertex 24.5362 26.7925 13
      vertex 23.605 27.6001 13
      vertex 22.2481 28.6822 13
    endloop
  endfacet
  facet normal 0 0 1
    outer loop
      vertex 25.297 27.9863 13
      vertex 23.605 27.6001 13
      vertex 24.5362 26.7925 13
    endloop
  endfacet
  facet normal 0 0 1
    outer loop
      vertex 22.2481 28.6822 13
      vertex 22.2481 30.4178 13
      vertex 21.4189 30.5077 13
    endloop
  endfacet
  facet normal 0.5 0.866025 0
    outer loop
      vertex -24.5638 -25.7425 4
      vertex -24.5638 -25.7425 13
      vertex -22.9051 -26.7002 4
    endloop
  endfacet
  facet normal 0.5 0.866025 0
    outer loop
      vertex -22.9051 -26.7002 4
      vertex -24.5638 -25.7425 13
      vertex -22.9051 -26.7002 13
    endloop
  endfacet
  facet normal 0.939693 0.34202 0
    outer loop
      vertex -22.25 -28.5 4
      vertex -22.9051 -26.7002 4
      vertex -22.9051 -26.7002 13
    endloop
  endfacet
  facet normal 0.939693 0.34202 0
    outer loop
      vertex -22.25 -28.5 13
      vertex -22.25 -28.5 4
      vertex -22.9051 -26.7002 13
    endloop
  endfacet
  facet normal 0.939693 -0.34202 0
    outer loop
      vertex -22.9051 -30.2998 13
      vertex -22.9051 -30.2998 4
      vertex -22.25 -28.5 4
    endloop
  endfacet
  facet normal 0.939693 -0.34202 0
    outer loop
      vertex -22.25 -28.5 13
      vertex -22.9051 -30.2998 13
      vertex -22.25 -28.5 4
    endloop
  endfacet
  facet normal 0.5 -0.866025 0
    outer loop
      vertex -24.5638 -31.2575 13
      vertex -24.5638 -31.2575 4
      vertex -22.9051 -30.2998 4
    endloop
  endfacet
  facet normal 0.5 -0.866025 0
    outer loop
      vertex -22.9051 -30.2998 13
      vertex -24.5638 -31.2575 13
      vertex -22.9051 -30.2998 4
    endloop
  endfacet
  facet normal 0.5 -0.866025 0
    outer loop
      vertex -24.5638 26.7925 13
      vertex -24.5638 26.7925 4
      vertex -22.9051 27.7502 4
    endloop
  endfacet
  facet normal 0.5 -0.866025 0
    outer loop
      vertex -22.9051 27.7502 13
      vertex -24.5638 26.7925 13
      vertex -22.9051 27.7502 4
    endloop
  endfacet
  facet normal 0.939693 -0.34202 0
    outer loop
      vertex -22.9051 27.7502 13
      vertex -22.9051 27.7502 4
      vertex -22.25 29.55 4
    endloop
  endfacet
  facet normal 0.939693 -0.34202 0
    outer loop
      vertex -22.25 29.55 13
      vertex -22.9051 27.7502 13
      vertex -22.25 29.55 4
    endloop
  endfacet
  facet normal 0.939693 0.34202 0
    outer loop
      vertex -22.25 29.55 4
      vertex -22.9051 31.3498 4
      vertex -22.9051 31.3498 13
    endloop
  endfacet
  facet normal 0.939693 0.34202 0
    outer loop
      vertex -22.25 29.55 13
      vertex -22.25 29.55 4
      vertex -22.9051 31.3498 13
    endloop
  endfacet
  facet normal 0.5 0.866025 0
    outer loop
      vertex -24.5638 32.3075 4
      vertex -24.5638 32.3075 13
      vertex -22.9051 31.3498 4
    endloop
  endfacet
  facet normal 0.5 0.866025 0
    outer loop
      vertex -22.9051 31.3498 4
      vertex -24.5638 32.3075 13
      vertex -22.9051 31.3498 13
    endloop
  endfacet
  facet normal -1 0 0
    outer loop
      vertex -15 -13 4
      vertex -15 -13 6
      vertex -15 13 4
    endloop
  endfacet
  facet normal -1 0 0
    outer loop
      vertex -15 13 4
      vertex -15 -13 6
      vertex -15 13 6
    endloop
  endfacet
  facet normal 0 -1 0
    outer loop
      vertex -15 -13 6
      vertex -15 -13 4
      vertex 10 -13 4
    endloop
  endfacet
  facet normal 0 -1 0
    outer loop
      vertex 10 -13 6
      vertex -15 -13 6
      vertex 10 -13 4
    endloop
  endfacet
  facet normal 1 0 0
    outer loop
      vertex 10 -13 6
      vertex 10 -13 4
      vertex 10 13 4
    endloop
  endfacet
  facet normal 1 0 0
    outer loop
      vertex 10 13 6
      vertex 10 -13 6
      vertex 10 13 4
    endloop
  endfacet
  facet normal 0 1 0
    outer loop
      vertex -15 13 4
      vertex -15 13 6
      vertex 10 13 4
    endloop
  endfacet
  facet normal 0 1 0
    outer loop
      vertex 10 13 4
      vertex -15 13 6
      vertex 10 13 6
    endloop
  endfacet
  facet normal -1 0 0
    outer loop
      vertex 21.4189 -29.4577 4
      vertex 21.4189 -29.4577 13
      vertex 21.4189 -27.5423 4
    endloop
  endfacet
  facet normal -1 0 0
    outer loop
      vertex 21.4189 -27.5423 4
      vertex 21.4189 -29.4577 13
      vertex 21.4189 -27.5423 13
    endloop
  endfacet
  facet normal -0.766045 -0.642787 0
    outer loop
      vertex 21.4189 -29.4577 4
      vertex 22.65 -30.9249 4
      vertex 21.4189 -29.4577 13
    endloop
  endfacet
  facet normal -0.766045 -0.642787 0
    outer loop
      vertex 21.4189 -29.4577 13
      vertex 22.65 -30.9249 4
      vertex 22.65 -30.9249 13
    endloop
  endfacet
  facet normal -0.173648 -0.984808 0
    outer loop
      vertex 22.65 -30.9249 13
      vertex 22.65 -30.9249 4
      vertex 24.5362 -31.2575 4
    endloop
  endfacet
  facet normal -0.173648 -0.984808 0
    outer loop
      vertex 24.5362 -31.2575 13
      vertex 22.65 -30.9249 13
      vertex 24.5362 -31.2575 4
    endloop
  endfacet
  facet normal 0.5 -0.866025 0
    outer loop
      vertex 24.5362 -31.2575 13
      vertex 24.5362 -31.2575 4
      vertex 26.1949 -30.2998 4
    endloop
  endfacet
  facet normal 0.5 -0.866025 0
    outer loop
      vertex 26.1949 -30.2998 13
      vertex 24.5362 -31.2575 13
      vertex 26.1949 -30.2998 4
    endloop
  endfacet
  facet normal 0.939693 -0.34202 0
    outer loop
      vertex 26.1949 -30.2998 13
      vertex 26.1949 -30.2998 4
      vertex 26.85 -28.5 4
    endloop
  endfacet
  facet normal 0.939693 -0.34202 0
    outer loop
      vertex 26.85 -28.5 13
      vertex 26.1949 -30.2998 13
      vertex 26.85 -28.5 4
    endloop
  endfacet
  facet normal 0.939693 0.34202 0
    outer loop
      vertex 26.85 -28.5 4
      vertex 26.1949 -26.7002 4
      vertex 26.1949 -26.7002 13
    endloop
  endfacet
  facet normal 0.939693 0.34202 0
    outer loop
      vertex 26.85 -28.5 13
      vertex 26.85 -28.5 4
      vertex 26.1949 -26.7002 13
    endloop
  endfacet
  facet normal 0.5 0.866025 0
    outer loop
      vertex 24.5362 -25.7425 4
      vertex 24.5362 -25.7425 13
      vertex 26.1949 -26.7002 4
    endloop
  endfacet
  facet normal 0.5 0.866025 0
    outer loop
      vertex 26.1949 -26.7002 4
      vertex 24.5362 -25.7425 13
      vertex 26.1949 -26.7002 13
    endloop
  endfacet
  facet normal -0.173648 0.984808 0
    outer loop
      vertex 22.65 -26.0751 4
      vertex 22.65 -26.0751 13
      vertex 24.5362 -25.7425 4
    endloop
  endfacet
  facet normal -0.173648 0.984808 0
    outer loop
      vertex 24.5362 -25.7425 4
      vertex 22.65 -26.0751 13
      vertex 24.5362 -25.7425 13
    endloop
  endfacet
  facet normal -0.766045 0.642787 0
    outer loop
      vertex 21.4189 -27.5423 4
      vertex 21.4189 -27.5423 13
      vertex 22.65 -26.0751 4
    endloop
  endfacet
  facet normal -0.766045 0.642787 0
    outer loop
      vertex 22.65 -26.0751 4
      vertex 21.4189 -27.5423 13
      vertex 22.65 -26.0751 13
    endloop
  endfacet
  facet normal -1 0 0
    outer loop
      vertex 21.4189 28.5923 4
      vertex 21.4189 28.5923 13
      vertex 21.4189 30.5077 4
    endloop
  endfacet
  facet normal -1 0 0
    outer loop
      vertex 21.4189 30.5077 4
      vertex 21.4189 28.5923 13
      vertex 21.4189 30.5077 13
    endloop
  endfacet
  facet normal -0.766045 -0.642787 0
    outer loop
      vertex 21.4189 28.5923 4
      vertex 22.65 27.1251 4
      vertex 21.4189 28.5923 13
    endloop
  endfacet
  facet normal -0.766045 -0.642787 0
    outer loop
      vertex 21.4189 28.5923 13
      vertex 22.65 27.1251 4
      vertex 22.65 27.1251 13
    endloop
  endfacet
  facet normal -0.173648 -0.984808 0
    outer loop
      vertex 22.65 27.1251 13
      vertex 22.65 27.1251 4
      vertex 24.5362 26.7925 4
    endloop
  endfacet
  facet normal -0.173648 -0.984808 0
    outer loop
      vertex 24.5362 26.7925 13
      vertex 22.65 27.1251 13
      vertex 24.5362 26.7925 4
    endloop
  endfacet
  facet normal 0.5 -0.866025 0
    outer loop
      vertex 24.5362 26.7925 13
      vertex 24.5362 26.7925 4
      vertex 26.1949 27.7502 4
    endloop
  endfacet
  facet normal 0.5 -0.866025 0
    outer loop
      vertex 26.1949 27.7502 13
      vertex 24.5362 26.7925 13
      vertex 26.1949 27.7502 4
    endloop
  endfacet
  facet normal 0.939693 -0.34202 0
    outer loop
      vertex 26.1949 27.7502 13
      vertex 26.1949 27.7502 4
      vertex 26.85 29.55 4
    endloop
  endfacet
  facet normal 0.939693 -0.34202 0
    outer loop
      vertex 26.85 29.55 13
      vertex 26.1949 27.7502 13
      vertex 26.85 29.55 4
    endloop
  endfacet
  facet normal 0.939693 0.34202 0
    outer loop
      vertex 26.85 29.55 4
      vertex 26.1949 31.3498 4
      vertex 26.1949 31.3498 13
    endloop
  endfacet
  facet normal 0.939693 0.34202 0
    outer loop
      vertex 26.85 29.55 13
      vertex 26.85 29.55 4
      vertex 26.1949 31.3498 13
    endloop
  endfacet
  facet normal 0.5 0.866025 0
    outer loop
      vertex 24.5362 32.3075 4
      vertex 24.5362 32.3075 13
      vertex 26.1949 31.3498 4
    endloop
  endfacet
  facet normal 0.5 0.866025 0
    outer loop
      vertex 26.1949 31.3498 4
      vertex 24.5362 32.3075 13
      vertex 26.1949 31.3498 13
    endloop
  endfacet
  facet normal -0.173648 0.984808 0
    outer loop
      vertex 22.65 31.9749 4
      vertex 22.65 31.9749 13
      vertex 24.5362 32.3075 4
    endloop
  endfacet
  facet normal -0.173648 0.984808 0
    outer loop
      vertex 24.5362 32.3075 4
      vertex 22.65 31.9749 13
      vertex 24.5362 32.3075 13
    endloop
  endfacet
  facet normal -0.766045 0.642787 0
    outer loop
      vertex 21.4189 30.5077 4
      vertex 21.4189 30.5077 13
      vertex 22.65 31.9749 4
    endloop
  endfacet
  facet normal -0.766045 0.642787 0
    outer loop
      vertex 22.65 31.9749 4
      vertex 21.4189 30.5077 13
      vertex 22.65 31.9749 13
    endloop
  endfacet
  facet normal 1 0 0
    outer loop
      vertex -4.5 4.5 2.4
      vertex -4.5 4.5 4.25
      vertex -4.5 -4 4.25
    endloop
  endfacet
  facet normal 1 0 0
    outer loop
      vertex -4.5 -4.5 2.4
      vertex -4.5 4.5 2.4
      vertex -4.5 -4 4.25
    endloop
  endfacet
  facet normal 1 0 0
    outer loop
      vertex -4.5 -4 6
      vertex -4.5 -4.5 6
      vertex -4.5 -4 4.25
    endloop
  endfacet
  facet normal 1 0 0
    outer loop
      vertex -4.5 -4.5 6
      vertex -4.5 -4.5 2.4
      vertex -4.5 -4 4.25
    endloop
  endfacet
  facet normal 0 1 0
    outer loop
      vertex 4.5 -4.5 6
      vertex 4.5 -4.5 2.4
      vertex -4.5 -4.5 6
    endloop
  endfacet
  facet normal 0 1 0
    outer loop
      vertex -4.5 -4.5 6
      vertex 4.5 -4.5 2.4
      vertex -4.5 -4.5 2.4
    endloop
  endfacet
  facet normal 0 -1 0
    outer loop
      vertex 4.5 4.5 2.4
      vertex 4.5 4.5 6
      vertex -4 4.5 6
    endloop
  endfacet
  facet normal 0 -1 0
    outer loop
      vertex -4.5 4.5 4.25
      vertex 4.5 4.5 2.4
      vertex -4 4.5 4.25
    endloop
  endfacet
  facet normal 0 -1 0
    outer loop
      vertex -4 4.5 4.25
      vertex 4.5 4.5 2.4
      vertex -4 4.5 6
    endloop
  endfacet
  facet normal 0 -1 0
    outer loop
      vertex -4.5 4.5 2.4
      vertex 4.5 4.5 2.4
      vertex -4.5 4.5 4.25
    endloop
  endfacet
  facet normal -1 0 0
    outer loop
      vertex 4.5 4.5 6
      vertex 4.5 4.5 2.4
      vertex 4.5 -4.5 6
    endloop
  endfacet
  facet normal -1 0 0
    outer loop
      vertex 4.5 -4.5 6
      vertex 4.5 4.5 2.4
      vertex 4.5 -4.5 2.4
    endloop
  endfacet
  facet normal 0 0 1
    outer loop
      vertex -11.391 -11.7011 6
      vertex -15 -13 6
      vertex 10 -13 6
    endloop
  endfacet
  facet normal 0 0 1
    outer loop
      vertex -4.5 -4.5 6
      vertex -13 -4 6
      vertex 10 -13 6
    endloop
  endfacet
  facet normal 0 0 1
    outer loop
      vertex -15 13 6
      vertex -15 -13 6
      vertex -13 -4 6
    endloop
  endfacet
  facet normal 0 0 1
    outer loop
      vertex -15 13 6
      vertex -13 -4 6
      vertex -13 5.8 6
    endloop
  endfacet
  facet normal 0 0 1
    outer loop
      vertex -10.7 10.75 6
      vertex -11.391 9.79894 6
      vertex -4 5.8 6
    endloop
  endfacet
  facet normal 0 0 1
    outer loop
      vertex 10 13 6
      vertex 4.5 4.5 6
      vertex 10 -13 6
    endloop
  endfacet
  facet normal 0 0 1
    outer loop
      vertex 10 13 6
      vertex -4 5.8 6
      vertex 4.5 4.5 6
    endloop
  endfacet
  facet normal 0 0 1
    outer loop
      vertex 4.5 4.5 6
      vertex 4.5 -4.5 6
      vertex 10 -13 6
    endloop
  endfacet
  facet normal 0 0 1
    outer loop
      vertex -11.391 -9.79894 6
      vertex -10.7 -10.75 6
      vertex 0.309017 -11.7011 6
    endloop
  endfacet
  facet normal 0 0 1
    outer loop
      vertex 0.309017 -11.7011 6
      vertex -10.7 -10.75 6
      vertex 10 -13 6
    endloop
  endfacet
  facet normal 0 0 1
    outer loop
      vertex -12.509 10.1622 6
      vertex -12.509 11.3378 6
      vertex -15 13 6
    endloop
  endfacet
  facet normal 0 0 1
    outer loop
      vertex -13 -4 6
      vertex -15 -13 6
      vertex -12.509 -11.3378 6
    endloop
  endfacet
  facet normal 0 0 1
    outer loop
      vertex -10.7 -10.75 6
      vertex -11.391 -11.7011 6
      vertex 10 -13 6
    endloop
  endfacet
  facet normal 0 0 1
    outer loop
      vertex -13 -4 6
      vertex -12.509 -11.3378 6
      vertex -12.509 -10.1622 6
    endloop
  endfacet
  facet normal 0 0 1
    outer loop
      vertex -13 -4 6
      vertex -12.509 -10.1622 6
      vertex -11.391 -9.79894 6
    endloop
  endfacet
  facet normal 0 0 1
    outer loop
      vertex -12.509 -11.3378 6
      vertex -15 -13 6
      vertex -11.391 -11.7011 6
    endloop
  endfacet
  facet normal 0 0 1
    outer loop
      vertex -15 13 6
      vertex -13 5.8 6
      vertex -12.509 10.1622 6
    endloop
  endfacet
  facet normal 0 0 1
    outer loop
      vertex -0.809017 10.1622 6
      vertex -11.391 11.7011 6
      vertex -4 5.8 6
    endloop
  endfacet
  facet normal 0 0 1
    outer loop
      vertex 10 13 6
      vertex -15 13 6
      vertex -11.391 11.7011 6
    endloop
  endfacet
  facet normal 0 0 1
    outer loop
      vertex -11.391 11.7011 6
      vertex -10.7 10.75 6
      vertex -4 5.8 6
    endloop
  endfacet
  facet normal 0 0 1
    outer loop
      vertex 4.5 -4.5 6
      vertex -4.5 -4.5 6
      vertex 10 -13 6
    endloop
  endfacet
  facet normal 0 0 1
    outer loop
      vertex -4 4.5 6
      vertex 4.5 4.5 6
      vertex -4 5.8 6
    endloop
  endfacet
  facet normal 0 0 1
    outer loop
      vertex 0.309017 11.7011 6
      vertex 1 10.75 6
      vertex 10 13 6
    endloop
  endfacet
  facet normal 0 0 1
    outer loop
      vertex -13 -4 6
      vertex -11.391 -9.79894 6
      vertex -0.809017 -11.3378 6
    endloop
  endfacet
  facet normal 0 0 1
    outer loop
      vertex 1 -10.75 6
      vertex 0.309017 -11.7011 6
      vertex 10 -13 6
    endloop
  endfacet
  facet normal 0 0 1
    outer loop
      vertex -13 -4 6
      vertex -0.809017 -11.3378 6
      vertex -0.809017 -10.1622 6
    endloop
  endfacet
  facet normal 0 0 1
    outer loop
      vertex -13 -4 6
      vertex 0.309017 -9.79894 6
      vertex 10 -13 6
    endloop
  endfacet
  facet normal 0 0 1
    outer loop
      vertex -13 -4 6
      vertex -0.809017 -10.1622 6
      vertex 0.309017 -9.79894 6
    endloop
  endfacet
  facet normal 0 0 1
    outer loop
      vertex 0.309017 -9.79894 6
      vertex 1 -10.75 6
      vertex 10 -13 6
    endloop
  endfacet
  facet normal 0 0 1
    outer loop
      vertex -12.509 11.3378 6
      vertex -11.391 11.7011 6
      vertex -15 13 6
    endloop
  endfacet
  facet normal 0 0 1
    outer loop
      vertex 0.309017 9.79894 6
      vertex -0.809017 10.1622 6
      vertex -4 5.8 6
    endloop
  endfacet
  facet normal 0 0 1
    outer loop
      vertex -0.809017 11.3378 6
      vertex -11.391 11.7011 6
      vertex -0.809017 10.1622 6
    endloop
  endfacet
  facet normal 0 0 1
    outer loop
      vertex 0.309017 11.7011 6
      vertex -11.391 11.7011 6
      vertex -0.809017 11.3378 6
    endloop
  endfacet
  facet normal 0 0 1
    outer loop
      vertex 1 10.75 6
      vertex 0.309017 9.79894 6
      vertex 10 13 6
    endloop
  endfacet
  facet normal 0 0 1
    outer loop
      vertex 10 13 6
      vertex -11.391 11.7011 6
      vertex 0.309017 11.7011 6
    endloop
  endfacet
  facet normal 0 0 1
    outer loop
      vertex 10 13 6
      vertex 0.309017 9.79894 6
      vertex -4 5.8 6
    endloop
  endfacet
  facet normal 0 0 1
    outer loop
      vertex -4.5 -4 6
      vertex -13 -4 6
      vertex -4.5 -4.5 6
    endloop
  endfacet
  facet normal 0 0 1
    outer loop
      vertex -13 5.8 6
      vertex -11.391 9.79894 6
      vertex -12.509 10.1622 6
    endloop
  endfacet
  facet normal 0 0 1
    outer loop
      vertex 0.309017 -11.7011 6
      vertex -0.809017 -11.3378 6
      vertex -11.391 -9.79894 6
    endloop
  endfacet
  facet normal 0 0 1
    outer loop
      vertex -13 5.8 6
      vertex -4 5.8 6
      vertex -11.391 9.79894 6
    endloop
  endfacet
  facet normal 0 1 0
    outer loop
      vertex -4.5 -4 6
      vertex -4.5 -4 4.25
      vertex -13 -4 6
    endloop
  endfacet
  facet normal 0 1 0
    outer loop
      vertex -13 -4 6
      vertex -4.5 -4 4.25
      vertex -13 -4 4.25
    endloop
  endfacet
  facet normal 0 0 1
    outer loop
      vertex -4 5.8 4.25
      vertex -4.5 4.5 4.25
      vertex -4 4.5 4.25
    endloop
  endfacet
  facet normal 0 0 1
    outer loop
      vertex -13 5.8 4.25
      vertex -4.5 4.5 4.25
      vertex -4 5.8 4.25
    endloop
  endfacet
  facet normal 0 0 1
    outer loop
      vertex -4.5 -4 4.25
      vertex -4.5 4.5 4.25
      vertex -13 5.8 4.25
    endloop
  endfacet
  facet normal 0 0 1
    outer loop
      vertex -13 -4 4.25
      vertex -4.5 -4 4.25
      vertex -13 5.8 4.25
    endloop
  endfacet
  facet normal -1 0 0
    outer loop
      vertex -4 5.8 6
      vertex -4 5.8 4.25
      vertex -4 4.5 6
    endloop
  endfacet
  facet normal -1 0 0
    outer loop
      vertex -4 4.5 6
      vertex -4 5.8 4.25
      vertex -4 4.5 4.25
    endloop
  endfacet
  facet normal 1 0 0
    outer loop
      vertex -13 5.8 4.25
      vertex -13 5.8 6
      vertex -13 -4 6
    endloop
  endfacet
  facet normal 1 0 0
    outer loop
      vertex -13 -4 4.25
      vertex -13 5.8 4.25
      vertex -13 -4 6
    endloop
  endfacet
  facet normal 0 -1 0
    outer loop
      vertex -4 5.8 4.25
      vertex -4 5.8 6
      vertex -13 5.8 6
    endloop
  endfacet
  facet normal 0 -1 0
    outer loop
      vertex -13 5.8 4.25
      vertex -4 5.8 4.25
      vertex -13 5.8 6
    endloop
  endfacet
  facet normal 1 0 0
    outer loop
      vertex -12.509 -10.1622 3.5
      vertex -12.509 -10.1622 6
      vertex -12.509 -11.3378 6
    endloop
  endfacet
  facet normal 1 0 0
    outer loop
      vertex -12.509 -11.3378 3.5
      vertex -12.509 -10.1622 3.5
      vertex -12.509 -11.3378 6
    endloop
  endfacet
  facet normal 0.309018 0.951056 0
    outer loop
      vertex -11.391 -11.7011 6
      vertex -11.391 -11.7011 3.5
      vertex -12.509 -11.3378 6
    endloop
  endfacet
  facet normal 0.309018 0.951056 0
    outer loop
      vertex -12.509 -11.3378 6
      vertex -11.391 -11.7011 3.5
      vertex -12.509 -11.3378 3.5
    endloop
  endfacet
  facet normal -0.809017 0.587785 0
    outer loop
      vertex -10.7 -10.75 6
      vertex -10.7 -10.75 3.5
      vertex -11.391 -11.7011 6
    endloop
  endfacet
  facet normal -0.809017 0.587785 0
    outer loop
      vertex -11.391 -11.7011 6
      vertex -10.7 -10.75 3.5
      vertex -11.391 -11.7011 3.5
    endloop
  endfacet
  facet normal -0.809017 -0.587785 0
    outer loop
      vertex -10.7 -10.75 6
      vertex -11.391 -9.79894 6
      vertex -10.7 -10.75 3.5
    endloop
  endfacet
  facet normal -0.809017 -0.587785 0
    outer loop
      vertex -10.7 -10.75 3.5
      vertex -11.391 -9.79894 6
      vertex -11.391 -9.79894 3.5
    endloop
  endfacet
  facet normal 0.309018 -0.951056 0
    outer loop
      vertex -11.391 -9.79894 3.5
      vertex -11.391 -9.79894 6
      vertex -12.509 -10.1622 6
    endloop
  endfacet
  facet normal 0.309018 -0.951056 0
    outer loop
      vertex -12.509 -10.1622 3.5
      vertex -11.391 -9.79894 3.5
      vertex -12.509 -10.1622 6
    endloop
  endfacet
  facet normal 1 0 0
    outer loop
      vertex -12.509 11.3378 3.5
      vertex -12.509 11.3378 6
      vertex -12.509 10.1622 6
    endloop
  endfacet
  facet normal 1 0 0
    outer loop
      vertex -12.509 10.1622 3.5
      vertex -12.509 11.3378 3.5
      vertex -12.509 10.1622 6
    endloop
  endfacet
  facet normal 0.309018 0.951056 0
    outer loop
      vertex -11.391 9.79894 6
      vertex -11.391 9.79894 3.5
      vertex -12.509 10.1622 6
    endloop
  endfacet
  facet normal 0.309018 0.951056 0
    outer loop
      vertex -12.509 10.1622 6
      vertex -11.391 9.79894 3.5
      vertex -12.509 10.1622 3.5
    endloop
  endfacet
  facet normal -0.809017 0.587785 0
    outer loop
      vertex -10.7 10.75 6
      vertex -10.7 10.75 3.5
      vertex -11.391 9.79894 6
    endloop
  endfacet
  facet normal -0.809017 0.587785 0
    outer loop
      vertex -11.391 9.79894 6
      vertex -10.7 10.75 3.5
      vertex -11.391 9.79894 3.5
    endloop
  endfacet
  facet normal -0.809017 -0.587785 0
    outer loop
      vertex -10.7 10.75 6
      vertex -11.391 11.7011 6
      vertex -10.7 10.75 3.5
    endloop
  endfacet
  facet normal -0.809017 -0.587785 0
    outer loop
      vertex -10.7 10.75 3.5
      vertex -11.391 11.7011 6
      vertex -11.391 11.7011 3.5
    endloop
  endfacet
  facet normal 0.309018 -0.951056 0
    outer loop
      vertex -11.391 11.7011 3.5
      vertex -11.391 11.7011 6
      vertex -12.509 11.3378 6
    endloop
  endfacet
  facet normal 0.309018 -0.951056 0
    outer loop
      vertex -12.509 11.3378 3.5
      vertex -11.391 11.7011 3.5
      vertex -12.509 11.3378 6
    endloop
  endfacet
  facet normal 1 0 0
    outer loop
      vertex -0.809017 -10.1622 3.5
      vertex -0.809017 -10.1622 6
      vertex -0.809017 -11.3378 6
    endloop
  endfacet
  facet normal 1 0 0
    outer loop
      vertex -0.809017 -11.3378 3.5
      vertex -0.809017 -10.1622 3.5
      vertex -0.809017 -11.3378 6
    endloop
  endfacet
  facet normal 0.309018 0.951056 0
    outer loop
      vertex 0.309017 -11.7011 6
      vertex 0.309017 -11.7011 3.5
      vertex -0.809017 -11.3378 6
    endloop
  endfacet
  facet normal 0.309018 0.951056 0
    outer loop
      vertex -0.809017 -11.3378 6
      vertex 0.309017 -11.7011 3.5
      vertex -0.809017 -11.3378 3.5
    endloop
  endfacet
  facet normal -0.809017 0.587785 0
    outer loop
      vertex 1 -10.75 6
      vertex 1 -10.75 3.5
      vertex 0.309017 -11.7011 6
    endloop
  endfacet
  facet normal -0.809017 0.587785 0
    outer loop
      vertex 0.309017 -11.7011 6
      vertex 1 -10.75 3.5
      vertex 0.309017 -11.7011 3.5
    endloop
  endfacet
  facet normal -0.809017 -0.587785 0
    outer loop
      vertex 1 -10.75 6
      vertex 0.309017 -9.79894 6
      vertex 1 -10.75 3.5
    endloop
  endfacet
  facet normal -0.809017 -0.587785 0
    outer loop
      vertex 1 -10.75 3.5
      vertex 0.309017 -9.79894 6
      vertex 0.309017 -9.79894 3.5
    endloop
  endfacet
  facet normal 0.309018 -0.951056 0
    outer loop
      vertex 0.309017 -9.79894 3.5
      vertex 0.309017 -9.79894 6
      vertex -0.809017 -10.1622 6
    endloop
  endfacet
  facet normal 0.309018 -0.951056 0
    outer loop
      vertex -0.809017 -10.1622 3.5
      vertex 0.309017 -9.79894 3.5
      vertex -0.809017 -10.1622 6
    endloop
  endfacet
  facet normal 1 0 0
    outer loop
      vertex -0.809017 11.3378 3.5
      vertex -0.809017 11.3378 6
      vertex -0.809017 10.1622 6
    endloop
  endfacet
  facet normal 1 0 0
    outer loop
      vertex -0.809017 10.1622 3.5
      vertex -0.809017 11.3378 3.5
      vertex -0.809017 10.1622 6
    endloop
  endfacet
  facet normal 0.309018 0.951056 0
    outer loop
      vertex 0.309017 9.79894 6
      vertex 0.309017 9.79894 3.5
      vertex -0.809017 10.1622 6
    endloop
  endfacet
  facet normal 0.309018 0.951056 0
    outer loop
      vertex -0.809017 10.1622 6
      vertex 0.309017 9.79894 3.5
      vertex -0.809017 10.1622 3.5
    endloop
  endfacet
  facet normal -0.809017 0.587785 0
    outer loop
      vertex 1 10.75 6
      vertex 1 10.75 3.5
      vertex 0.309017 9.79894 6
    endloop
  endfacet
  facet normal -0.809017 0.587785 0
    outer loop
      vertex 0.309017 9.79894 6
      vertex 1 10.75 3.5
      vertex 0.309017 9.79894 3.5
    endloop
  endfacet
  facet normal -0.809017 -0.587785 0
    outer loop
      vertex 1 10.75 6
      vertex 0.309017 11.7011 6
      vertex 1 10.75 3.5
    endloop
  endfacet
  facet normal -0.809017 -0.587785 0
    outer loop
      vertex 1 10.75 3.5
      vertex 0.309017 11.7011 6
      vertex 0.309017 11.7011 3.5
    endloop
  endfacet
  facet normal 0.309018 -0.951056 0
    outer loop
      vertex 0.309017 11.7011 3.5
      vertex 0.309017 11.7011 6
      vertex -0.809017 11.3378 6
    endloop
  endfacet
  facet normal 0.309018 -0.951056 0
    outer loop
      vertex -0.809017 11.3378 3.5
      vertex 0.309017 11.7011 3.5
      vertex -0.809017 11.3378 6
    endloop
  endfacet
  facet normal 0 0 1
    outer loop
      vertex -11.391 -11.7011 3.5
      vertex -10.7 -10.75 3.5
      vertex -11.391 -9.79894 3.5
    endloop
  endfacet
  facet normal 0 0 1
    outer loop
      vertex -12.509 -11.3378 3.5
      vertex -11.391 -11.7011 3.5
      vertex -12.509 -10.1622 3.5
    endloop
  endfacet
  facet normal 0 0 1
    outer loop
      vertex -12.509 -10.1622 3.5
      vertex -11.391 -11.7011 3.5
      vertex -11.391 -9.79894 3.5
    endloop
  endfacet
  facet normal 0 0 1
    outer loop
      vertex -11.391 9.79894 3.5
      vertex -10.7 10.75 3.5
      vertex -11.391 11.7011 3.5
    endloop
  endfacet
  facet normal 0 0 1
    outer loop
      vertex -12.509 10.1622 3.5
      vertex -11.391 9.79894 3.5
      vertex -12.509 11.3378 3.5
    endloop
  endfacet
  facet normal 0 0 1
    outer loop
      vertex -12.509 11.3378 3.5
      vertex -11.391 9.79894 3.5
      vertex -11.391 11.7011 3.5
    endloop
  endfacet
  facet normal 0 0 1
    outer loop
      vertex 0.309017 -11.7011 3.5
      vertex 1 -10.75 3.5
      vertex 0.309017 -9.79894 3.5
    endloop
  endfacet
  facet normal 0 0 1
    outer loop
      vertex -0.809017 -11.3378 3.5
      vertex 0.309017 -11.7011 3.5
      vertex -0.809017 -10.1622 3.5
    endloop
  endfacet
  facet normal 0 0 1
    outer loop
      vertex -0.809017 -10.1622 3.5
      vertex 0.309017 -11.7011 3.5
      vertex 0.309017 -9.79894 3.5
    endloop
  endfacet
  facet normal 0 0 1
    outer loop
      vertex 0.309017 9.79894 3.5
      vertex 1 10.75 3.5
      vertex 0.309017 11.7011 3.5
    endloop
  endfacet
  facet normal 0 0 1
    outer loop
      vertex -0.809017 10.1622 3.5
      vertex 0.309017 9.79894 3.5
      vertex -0.809017 11.3378 3.5
    endloop
  endfacet
  facet normal 0 0 1
    outer loop
      vertex -0.809017 11.3378 3.5
      vertex 0.309017 9.79894 3.5
      vertex 0.309017 11.7011 3.5
    endloop
  endfacet
endsolid OpenSCAD_Model
