solid OpenSCAD_Model
  facet normal 0 0 -1
    outer loop
      vertex 0 3 0
      vertex 0 86 0
      vertex 0.572949 1.23664 0
    endloop
  endfacet
  facet normal 0 0 -1
    outer loop
      vertex 0.572949 1.23664 0
      vertex 0 86 0
      vertex 0.572949 87.7634 0
    endloop
  endfacet
  facet normal 0 0 -1
    outer loop
      vertex 0.572949 1.23664 0
      vertex 0.572949 87.7634 0
      vertex 2.07295 88.8532 0
    endloop
  endfacet
  facet normal 0 0 -1
    outer loop
      vertex 6.74698 85.0637 0
      vertex 2.07295 88.8532 0
      vertex 57.9271 88.8532 0
    endloop
  endfacet
  facet normal 0 0 -1
    outer loop
      vertex 55.747 81.9363 0
      vertex 59.4271 87.7634 0
      vertex 60 86 0
    endloop
  endfacet
  facet normal 0 0 -1
    outer loop
      vertex 56.5 25.5 0
      vertex 60 86 0
      vertex 60 3 0
    endloop
  endfacet
  facet normal 0 0 -1
    outer loop
      vertex 0.572949 1.23664 0
      vertex 60 3 0
      vertex 59.4271 1.23664 0
    endloop
  endfacet
  facet normal 0 0 -1
    outer loop
      vertex 0.572949 1.23664 0
      vertex 59.4271 1.23664 0
      vertex 57.9271 0.14683 0
    endloop
  endfacet
  facet normal 0 0 -1
    outer loop
      vertex 0.572949 1.23664 0
      vertex 57.9271 0.14683 0
      vertex 2.07295 0.14683 0
    endloop
  endfacet
  facet normal 0 0 -1
    outer loop
      vertex 0.572949 1.23664 0
      vertex 2.07295 88.8532 0
      vertex 3.69806 26.3678 0
    endloop
  endfacet
  facet normal 0 0 -1
    outer loop
      vertex 25.4555 47.4161 0
      vertex 7.5 25.5 0
      vertex 6.74698 27.0637 0
    endloop
  endfacet
  facet normal 0 0 -1
    outer loop
      vertex 0.572949 1.23664 0
      vertex 3.69806 26.3678 0
      vertex 3.69806 24.6322 0
    endloop
  endfacet
  facet normal 0 0 -1
    outer loop
      vertex 0.572949 1.23664 0
      vertex 3.69806 24.6322 0
      vertex 5.05496 23.5501 0
    endloop
  endfacet
  facet normal 0 0 -1
    outer loop
      vertex 5.05496 27.4499 0
      vertex 24.0119 48.695 0
      vertex 6.74698 27.0637 0
    endloop
  endfacet
  facet normal 0 0 -1
    outer loop
      vertex 0.572949 1.23664 0
      vertex 5.05496 23.5501 0
      vertex 6.74698 23.9363 0
    endloop
  endfacet
  facet normal 0 0 -1
    outer loop
      vertex 30.9643 46.0583 0
      vertex 0.572949 1.23664 0
      vertex 29.0357 46.0583 0
    endloop
  endfacet
  facet normal 0 0 -1
    outer loop
      vertex 56.5 83.5 0
      vertex 59.4271 87.7634 0
      vertex 55.747 81.9363 0
    endloop
  endfacet
  facet normal 0 0 -1
    outer loop
      vertex 25.4555 47.4161 0
      vertex 6.74698 23.9363 0
      vertex 7.5 25.5 0
    endloop
  endfacet
  facet normal 0 0 -1
    outer loop
      vertex 3.69806 26.3678 0
      vertex 2.07295 88.8532 0
      vertex 3.69806 82.6322 0
    endloop
  endfacet
  facet normal 0 0 -1
    outer loop
      vertex 24.0119 48.695 0
      vertex 3.69806 26.3678 0
      vertex 22.9164 50.2822 0
    endloop
  endfacet
  facet normal 0 0 -1
    outer loop
      vertex 2.07295 88.8532 0
      vertex 3.69806 84.3678 0
      vertex 3.69806 82.6322 0
    endloop
  endfacet
  facet normal 0 0 -1
    outer loop
      vertex 3.69806 26.3678 0
      vertex 3.69806 82.6322 0
      vertex 5.05496 81.5501 0
    endloop
  endfacet
  facet normal 0 0 -1
    outer loop
      vertex 52.6981 84.3678 0
      vertex 5.05496 81.5501 0
      vertex 57.9271 88.8532 0
    endloop
  endfacet
  facet normal 0 0 -1
    outer loop
      vertex 5.05496 81.5501 0
      vertex 6.74698 81.9363 0
      vertex 57.9271 88.8532 0
    endloop
  endfacet
  facet normal 0 0 -1
    outer loop
      vertex 6.74698 85.0637 0
      vertex 57.9271 88.8532 0
      vertex 7.5 83.5 0
    endloop
  endfacet
  facet normal 0 0 -1
    outer loop
      vertex 5.05496 85.4499 0
      vertex 2.07295 88.8532 0
      vertex 6.74698 85.0637 0
    endloop
  endfacet
  facet normal 0 0 -1
    outer loop
      vertex 24.0119 48.695 0
      vertex 5.05496 27.4499 0
      vertex 3.69806 26.3678 0
    endloop
  endfacet
  facet normal 0 0 -1
    outer loop
      vertex 3.69806 84.3678 0
      vertex 2.07295 88.8532 0
      vertex 5.05496 85.4499 0
    endloop
  endfacet
  facet normal 0 0 -1
    outer loop
      vertex 3.69806 26.3678 0
      vertex 5.05496 81.5501 0
      vertex 22 54 0
    endloop
  endfacet
  facet normal 0 0 -1
    outer loop
      vertex 3.69806 26.3678 0
      vertex 22 54 0
      vertex 22.2325 52.0855 0
    endloop
  endfacet
  facet normal 0 0 -1
    outer loop
      vertex 3.69806 26.3678 0
      vertex 22.2325 52.0855 0
      vertex 22.9164 50.2822 0
    endloop
  endfacet
  facet normal 0 0 -1
    outer loop
      vertex 25.4555 47.4161 0
      vertex 6.74698 27.0637 0
      vertex 24.0119 48.695 0
    endloop
  endfacet
  facet normal 0 0 -1
    outer loop
      vertex 7.5 83.5 0
      vertex 57.9271 88.8532 0
      vertex 6.74698 81.9363 0
    endloop
  endfacet
  facet normal 0 0 -1
    outer loop
      vertex 0.572949 1.23664 0
      vertex 6.74698 23.9363 0
      vertex 25.4555 47.4161 0
    endloop
  endfacet
  facet normal 0 0 -1
    outer loop
      vertex 32.8368 61.4801 0
      vertex 52.6981 82.6322 0
      vertex 34.5445 60.5839 0
    endloop
  endfacet
  facet normal 0 0 -1
    outer loop
      vertex 0.572949 1.23664 0
      vertex 25.4555 47.4161 0
      vertex 27.1632 46.5199 0
    endloop
  endfacet
  facet normal 0 0 -1
    outer loop
      vertex 0.572949 1.23664 0
      vertex 27.1632 46.5199 0
      vertex 29.0357 46.0583 0
    endloop
  endfacet
  facet normal 0 0 -1
    outer loop
      vertex 32.8368 46.5199 0
      vertex 0.572949 1.23664 0
      vertex 30.9643 46.0583 0
    endloop
  endfacet
  facet normal 0 0 -1
    outer loop
      vertex 55.747 85.0637 0
      vertex 59.4271 87.7634 0
      vertex 56.5 83.5 0
    endloop
  endfacet
  facet normal 0 0 -1
    outer loop
      vertex 37.7675 52.0855 0
      vertex 60 86 0
      vertex 37.0836 50.2822 0
    endloop
  endfacet
  facet normal 0 0 -1
    outer loop
      vertex 0.572949 1.23664 0
      vertex 32.8368 46.5199 0
      vertex 60 3 0
    endloop
  endfacet
  facet normal 0 0 -1
    outer loop
      vertex 37.7675 55.9145 0
      vertex 60 86 0
      vertex 38 54 0
    endloop
  endfacet
  facet normal 0 0 -1
    outer loop
      vertex 32.8368 46.5199 0
      vertex 34.5445 47.4161 0
      vertex 60 3 0
    endloop
  endfacet
  facet normal 0 0 -1
    outer loop
      vertex 38 54 0
      vertex 60 86 0
      vertex 37.7675 52.0855 0
    endloop
  endfacet
  facet normal 0 0 -1
    outer loop
      vertex 34.5445 47.4161 0
      vertex 35.9881 48.695 0
      vertex 60 3 0
    endloop
  endfacet
  facet normal 0 0 -1
    outer loop
      vertex 35.9881 48.695 0
      vertex 37.0836 50.2822 0
      vertex 60 3 0
    endloop
  endfacet
  facet normal 0 0 -1
    outer loop
      vertex 55.747 81.9363 0
      vertex 37.0836 57.7178 0
      vertex 54.055 81.5501 0
    endloop
  endfacet
  facet normal 0 0 -1
    outer loop
      vertex 52.6981 82.6322 0
      vertex 29.0357 61.9417 0
      vertex 52.6981 84.3678 0
    endloop
  endfacet
  facet normal 0 0 -1
    outer loop
      vertex 54.055 81.5501 0
      vertex 35.9881 59.305 0
      vertex 34.5445 60.5839 0
    endloop
  endfacet
  facet normal 0 0 -1
    outer loop
      vertex 54.055 81.5501 0
      vertex 34.5445 60.5839 0
      vertex 52.6981 82.6322 0
    endloop
  endfacet
  facet normal 0 0 -1
    outer loop
      vertex 27.1632 61.4801 0
      vertex 5.05496 81.5501 0
      vertex 29.0357 61.9417 0
    endloop
  endfacet
  facet normal 0 0 -1
    outer loop
      vertex 54.055 23.5501 0
      vertex 60 3 0
      vertex 52.6981 24.6322 0
    endloop
  endfacet
  facet normal 0 0 -1
    outer loop
      vertex 25.4555 60.5839 0
      vertex 5.05496 81.5501 0
      vertex 27.1632 61.4801 0
    endloop
  endfacet
  facet normal 0 0 -1
    outer loop
      vertex 24.0119 59.305 0
      vertex 5.05496 81.5501 0
      vertex 25.4555 60.5839 0
    endloop
  endfacet
  facet normal 0 0 -1
    outer loop
      vertex 22.9164 57.7178 0
      vertex 5.05496 81.5501 0
      vertex 24.0119 59.305 0
    endloop
  endfacet
  facet normal 0 0 -1
    outer loop
      vertex 22.2325 55.9145 0
      vertex 5.05496 81.5501 0
      vertex 22.9164 57.7178 0
    endloop
  endfacet
  facet normal 0 0 -1
    outer loop
      vertex 22 54 0
      vertex 5.05496 81.5501 0
      vertex 22.2325 55.9145 0
    endloop
  endfacet
  facet normal 0 0 -1
    outer loop
      vertex 37.0836 50.2822 0
      vertex 60 86 0
      vertex 52.6981 26.3678 0
    endloop
  endfacet
  facet normal 0 0 -1
    outer loop
      vertex 37.0836 50.2822 0
      vertex 52.6981 26.3678 0
      vertex 52.6981 24.6322 0
    endloop
  endfacet
  facet normal 0 0 -1
    outer loop
      vertex 37.0836 50.2822 0
      vertex 52.6981 24.6322 0
      vertex 60 3 0
    endloop
  endfacet
  facet normal 0 0 -1
    outer loop
      vertex 52.6981 82.6322 0
      vertex 32.8368 61.4801 0
      vertex 30.9643 61.9417 0
    endloop
  endfacet
  facet normal 0 0 -1
    outer loop
      vertex 55.747 27.0637 0
      vertex 60 86 0
      vertex 56.5 25.5 0
    endloop
  endfacet
  facet normal 0 0 -1
    outer loop
      vertex 54.055 27.4499 0
      vertex 60 86 0
      vertex 55.747 27.0637 0
    endloop
  endfacet
  facet normal 0 0 -1
    outer loop
      vertex 54.055 23.5501 0
      vertex 55.747 23.9363 0
      vertex 60 3 0
    endloop
  endfacet
  facet normal 0 0 -1
    outer loop
      vertex 55.747 23.9363 0
      vertex 56.5 25.5 0
      vertex 60 3 0
    endloop
  endfacet
  facet normal 0 0 -1
    outer loop
      vertex 52.6981 82.6322 0
      vertex 30.9643 61.9417 0
      vertex 29.0357 61.9417 0
    endloop
  endfacet
  facet normal 0 0 -1
    outer loop
      vertex 52.6981 26.3678 0
      vertex 60 86 0
      vertex 54.055 27.4499 0
    endloop
  endfacet
  facet normal 0 0 -1
    outer loop
      vertex 29.0357 61.9417 0
      vertex 5.05496 81.5501 0
      vertex 52.6981 84.3678 0
    endloop
  endfacet
  facet normal 0 0 -1
    outer loop
      vertex 54.055 85.4499 0
      vertex 52.6981 84.3678 0
      vertex 57.9271 88.8532 0
    endloop
  endfacet
  facet normal 0 0 -1
    outer loop
      vertex 54.055 85.4499 0
      vertex 57.9271 88.8532 0
      vertex 55.747 85.0637 0
    endloop
  endfacet
  facet normal 0 0 -1
    outer loop
      vertex 55.747 85.0637 0
      vertex 57.9271 88.8532 0
      vertex 59.4271 87.7634 0
    endloop
  endfacet
  facet normal 0 0 -1
    outer loop
      vertex 37.7675 55.9145 0
      vertex 55.747 81.9363 0
      vertex 60 86 0
    endloop
  endfacet
  facet normal 0 0 -1
    outer loop
      vertex 55.747 81.9363 0
      vertex 37.7675 55.9145 0
      vertex 37.0836 57.7178 0
    endloop
  endfacet
  facet normal 0 0 -1
    outer loop
      vertex 54.055 81.5501 0
      vertex 37.0836 57.7178 0
      vertex 35.9881 59.305 0
    endloop
  endfacet
  facet normal -1 0 0
    outer loop
      vertex 0 3 0
      vertex 0 3 4
      vertex 0 86 0
    endloop
  endfacet
  facet normal -1 0 0
    outer loop
      vertex 0 86 0
      vertex 0 3 4
      vertex 0 86 4
    endloop
  endfacet
  facet normal -0.951057 -0.309017 0
    outer loop
      vertex 0 3 0
      vertex 0.572949 1.23664 0
      vertex 0 3 4
    endloop
  endfacet
  facet normal -0.951057 -0.309017 0
    outer loop
      vertex 0 3 4
      vertex 0.572949 1.23664 0
      vertex 0.572949 1.23664 4
    endloop
  endfacet
  facet normal -0.587785 -0.809017 0
    outer loop
      vertex 0.572949 1.23664 4
      vertex 0.572949 1.23664 0
      vertex 2.07295 0.14683 0
    endloop
  endfacet
  facet normal -0.587785 -0.809017 0
    outer loop
      vertex 2.07295 0.14683 4
      vertex 0.572949 1.23664 4
      vertex 2.07295 0.14683 0
    endloop
  endfacet
  facet normal 0 -1 0
    outer loop
      vertex 2.07295 0.14683 4
      vertex 2.07295 0.14683 0
      vertex 57.9271 0.14683 0
    endloop
  endfacet
  facet normal 0 -1 0
    outer loop
      vertex 57.9271 0.14683 4
      vertex 2.07295 0.14683 4
      vertex 57.9271 0.14683 0
    endloop
  endfacet
  facet normal 0.587785 -0.809017 0
    outer loop
      vertex 57.9271 0.14683 4
      vertex 57.9271 0.14683 0
      vertex 59.4271 1.23664 0
    endloop
  endfacet
  facet normal 0.587785 -0.809017 0
    outer loop
      vertex 59.4271 1.23664 4
      vertex 57.9271 0.14683 4
      vertex 59.4271 1.23664 0
    endloop
  endfacet
  facet normal 0.951057 -0.309017 0
    outer loop
      vertex 59.4271 1.23664 4
      vertex 59.4271 1.23664 0
      vertex 60 3 0
    endloop
  endfacet
  facet normal 0.951057 -0.309017 0
    outer loop
      vertex 60 3 4
      vertex 59.4271 1.23664 4
      vertex 60 3 0
    endloop
  endfacet
  facet normal 1 0 0
    outer loop
      vertex 60 3 4
      vertex 60 3 0
      vertex 60 86 0
    endloop
  endfacet
  facet normal 1 0 0
    outer loop
      vertex 60 86 4
      vertex 60 3 4
      vertex 60 86 0
    endloop
  endfacet
  facet normal 0.951057 0.309017 0
    outer loop
      vertex 60 86 0
      vertex 59.4271 87.7634 0
      vertex 59.4271 87.7634 4
    endloop
  endfacet
  facet normal 0.951057 0.309017 0
    outer loop
      vertex 60 86 4
      vertex 60 86 0
      vertex 59.4271 87.7634 4
    endloop
  endfacet
  facet normal 0.587785 0.809017 0
    outer loop
      vertex 57.9271 88.8532 0
      vertex 57.9271 88.8532 4
      vertex 59.4271 87.7634 0
    endloop
  endfacet
  facet normal 0.587785 0.809017 0
    outer loop
      vertex 59.4271 87.7634 0
      vertex 57.9271 88.8532 4
      vertex 59.4271 87.7634 4
    endloop
  endfacet
  facet normal 0 1 0
    outer loop
      vertex 2.07295 88.8532 0
      vertex 2.07295 88.8532 4
      vertex 57.9271 88.8532 0
    endloop
  endfacet
  facet normal 0 1 0
    outer loop
      vertex 57.9271 88.8532 0
      vertex 2.07295 88.8532 4
      vertex 57.9271 88.8532 4
    endloop
  endfacet
  facet normal -0.587785 0.809017 0
    outer loop
      vertex 0.572949 87.7634 0
      vertex 0.572949 87.7634 4
      vertex 2.07295 88.8532 0
    endloop
  endfacet
  facet normal -0.587785 0.809017 0
    outer loop
      vertex 2.07295 88.8532 0
      vertex 0.572949 87.7634 4
      vertex 2.07295 88.8532 4
    endloop
  endfacet
  facet normal -0.951057 0.309017 0
    outer loop
      vertex 0 86 0
      vertex 0 86 4
      vertex 0.572949 87.7634 0
    endloop
  endfacet
  facet normal -0.951057 0.309017 0
    outer loop
      vertex 0.572949 87.7634 0
      vertex 0 86 4
      vertex 0.572949 87.7634 4
    endloop
  endfacet
  facet normal 0.62349 -0.781831 0
    outer loop
      vertex 5.05496 27.4499 0
      vertex 5.05496 27.4499 2
      vertex 3.69806 26.3678 2
    endloop
  endfacet
  facet normal 0.62349 -0.781831 0
    outer loop
      vertex 3.69806 26.3678 0
      vertex 5.05496 27.4499 0
      vertex 3.69806 26.3678 2
    endloop
  endfacet
  facet normal 1 0 0
    outer loop
      vertex 3.69806 26.3678 0
      vertex 3.69806 26.3678 2
      vertex 3.69806 24.6322 2
    endloop
  endfacet
  facet normal 1 0 0
    outer loop
      vertex 3.69806 24.6322 0
      vertex 3.69806 26.3678 0
      vertex 3.69806 24.6322 2
    endloop
  endfacet
  facet normal -0.222521 -0.974928 0
    outer loop
      vertex 6.74698 27.0637 0
      vertex 6.74698 27.0637 2
      vertex 5.05496 27.4499 2
    endloop
  endfacet
  facet normal -0.222521 -0.974928 0
    outer loop
      vertex 5.05496 27.4499 0
      vertex 6.74698 27.0637 0
      vertex 5.05496 27.4499 2
    endloop
  endfacet
  facet normal -0.900969 -0.433884 0
    outer loop
      vertex 7.5 25.5 2
      vertex 6.74698 27.0637 2
      vertex 7.5 25.5 0
    endloop
  endfacet
  facet normal -0.900969 -0.433884 0
    outer loop
      vertex 7.5 25.5 0
      vertex 6.74698 27.0637 2
      vertex 6.74698 27.0637 0
    endloop
  endfacet
  facet normal -0.900969 0.433884 0
    outer loop
      vertex 7.5 25.5 2
      vertex 7.5 25.5 0
      vertex 6.74698 23.9363 2
    endloop
  endfacet
  facet normal -0.900969 0.433884 0
    outer loop
      vertex 6.74698 23.9363 2
      vertex 7.5 25.5 0
      vertex 6.74698 23.9363 0
    endloop
  endfacet
  facet normal -0.222521 0.974928 0
    outer loop
      vertex 6.74698 23.9363 2
      vertex 6.74698 23.9363 0
      vertex 5.05496 23.5501 2
    endloop
  endfacet
  facet normal -0.222521 0.974928 0
    outer loop
      vertex 5.05496 23.5501 2
      vertex 6.74698 23.9363 0
      vertex 5.05496 23.5501 0
    endloop
  endfacet
  facet normal 0.62349 0.781831 0
    outer loop
      vertex 5.05496 23.5501 2
      vertex 5.05496 23.5501 0
      vertex 3.69806 24.6322 2
    endloop
  endfacet
  facet normal 0.62349 0.781831 0
    outer loop
      vertex 3.69806 24.6322 2
      vertex 5.05496 23.5501 0
      vertex 3.69806 24.6322 0
    endloop
  endfacet
  facet normal 0.62349 -0.781831 0
    outer loop
      vertex 5.05496 85.4499 0
      vertex 5.05496 85.4499 2
      vertex 3.69806 84.3678 2
    endloop
  endfacet
  facet normal 0.62349 -0.781831 0
    outer loop
      vertex 3.69806 84.3678 0
      vertex 5.05496 85.4499 0
      vertex 3.69806 84.3678 2
    endloop
  endfacet
  facet normal 1 0 0
    outer loop
      vertex 3.69806 84.3678 0
      vertex 3.69806 84.3678 2
      vertex 3.69806 82.6322 2
    endloop
  endfacet
  facet normal 1 0 0
    outer loop
      vertex 3.69806 82.6322 0
      vertex 3.69806 84.3678 0
      vertex 3.69806 82.6322 2
    endloop
  endfacet
  facet normal -0.222521 -0.974928 0
    outer loop
      vertex 6.74698 85.0637 0
      vertex 6.74698 85.0637 2
      vertex 5.05496 85.4499 2
    endloop
  endfacet
  facet normal -0.222521 -0.974928 0
    outer loop
      vertex 5.05496 85.4499 0
      vertex 6.74698 85.0637 0
      vertex 5.05496 85.4499 2
    endloop
  endfacet
  facet normal -0.900969 -0.433884 0
    outer loop
      vertex 7.5 83.5 2
      vertex 6.74698 85.0637 2
      vertex 7.5 83.5 0
    endloop
  endfacet
  facet normal -0.900969 -0.433884 0
    outer loop
      vertex 7.5 83.5 0
      vertex 6.74698 85.0637 2
      vertex 6.74698 85.0637 0
    endloop
  endfacet
  facet normal -0.900969 0.433884 0
    outer loop
      vertex 7.5 83.5 2
      vertex 7.5 83.5 0
      vertex 6.74698 81.9363 2
    endloop
  endfacet
  facet normal -0.900969 0.433884 0
    outer loop
      vertex 6.74698 81.9363 2
      vertex 7.5 83.5 0
      vertex 6.74698 81.9363 0
    endloop
  endfacet
  facet normal -0.222521 0.974928 0
    outer loop
      vertex 6.74698 81.9363 2
      vertex 6.74698 81.9363 0
      vertex 5.05496 81.5501 2
    endloop
  endfacet
  facet normal -0.222521 0.974928 0
    outer loop
      vertex 5.05496 81.5501 2
      vertex 6.74698 81.9363 0
      vertex 5.05496 81.5501 0
    endloop
  endfacet
  facet normal 0.62349 0.781831 0
    outer loop
      vertex 5.05496 81.5501 2
      vertex 5.05496 81.5501 0
      vertex 3.69806 82.6322 2
    endloop
  endfacet
  facet normal 0.62349 0.781831 0
    outer loop
      vertex 3.69806 82.6322 2
      vertex 5.05496 81.5501 0
      vertex 3.69806 82.6322 0
    endloop
  endfacet
  facet normal 0.992709 -0.120536 0
    outer loop
      vertex 22.2325 55.9145 0
      vertex 22.2325 55.9145 1.3
      vertex 22 54 1.3
    endloop
  endfacet
  facet normal 0.992709 -0.120536 0
    outer loop
      vertex 22 54 0
      vertex 22.2325 55.9145 0
      vertex 22 54 1.3
    endloop
  endfacet
  facet normal 0.992709 0.120536 0
    outer loop
      vertex 22 54 1.3
      vertex 22.2325 52.0855 1.3
      vertex 22.2325 52.0855 0
    endloop
  endfacet
  facet normal 0.992709 0.120536 0
    outer loop
      vertex 22 54 0
      vertex 22 54 1.3
      vertex 22.2325 52.0855 0
    endloop
  endfacet
  facet normal 0.935016 -0.354605 0
    outer loop
      vertex 22.9164 57.7178 0
      vertex 22.9164 57.7178 1.3
      vertex 22.2325 55.9145 1.3
    endloop
  endfacet
  facet normal 0.935016 -0.354605 0
    outer loop
      vertex 22.2325 55.9145 0
      vertex 22.9164 57.7178 0
      vertex 22.2325 55.9145 1.3
    endloop
  endfacet
  facet normal 0.822984 -0.568065 0
    outer loop
      vertex 24.0119 59.305 0
      vertex 24.0119 59.305 1.3
      vertex 22.9164 57.7178 1.3
    endloop
  endfacet
  facet normal 0.822984 -0.568065 0
    outer loop
      vertex 22.9164 57.7178 0
      vertex 24.0119 59.305 0
      vertex 22.9164 57.7178 1.3
    endloop
  endfacet
  facet normal 0.663123 -0.748511 0
    outer loop
      vertex 25.4555 60.5839 0
      vertex 25.4555 60.5839 1.3
      vertex 24.0119 59.305 1.3
    endloop
  endfacet
  facet normal 0.663123 -0.748511 0
    outer loop
      vertex 24.0119 59.305 0
      vertex 25.4555 60.5839 0
      vertex 24.0119 59.305 1.3
    endloop
  endfacet
  facet normal 0.464723 -0.885456 0
    outer loop
      vertex 27.1632 61.4801 0
      vertex 27.1632 61.4801 1.3
      vertex 25.4555 60.5839 1.3
    endloop
  endfacet
  facet normal 0.464723 -0.885456 0
    outer loop
      vertex 25.4555 60.5839 0
      vertex 27.1632 61.4801 0
      vertex 25.4555 60.5839 1.3
    endloop
  endfacet
  facet normal 0.239316 -0.970942 0
    outer loop
      vertex 29.0357 61.9417 0
      vertex 29.0357 61.9417 1.3
      vertex 27.1632 61.4801 1.3
    endloop
  endfacet
  facet normal 0.239316 -0.970942 0
    outer loop
      vertex 27.1632 61.4801 0
      vertex 29.0357 61.9417 0
      vertex 27.1632 61.4801 1.3
    endloop
  endfacet
  facet normal 0 -1 0
    outer loop
      vertex 30.9643 61.9417 0
      vertex 30.9643 61.9417 1.3
      vertex 29.0357 61.9417 1.3
    endloop
  endfacet
  facet normal 0 -1 0
    outer loop
      vertex 29.0357 61.9417 0
      vertex 30.9643 61.9417 0
      vertex 29.0357 61.9417 1.3
    endloop
  endfacet
  facet normal -0.239316 -0.970942 0
    outer loop
      vertex 32.8368 61.4801 0
      vertex 32.8368 61.4801 1.3
      vertex 30.9643 61.9417 1.3
    endloop
  endfacet
  facet normal -0.239316 -0.970942 0
    outer loop
      vertex 30.9643 61.9417 0
      vertex 32.8368 61.4801 0
      vertex 30.9643 61.9417 1.3
    endloop
  endfacet
  facet normal -0.464723 -0.885456 0
    outer loop
      vertex 34.5445 60.5839 0
      vertex 34.5445 60.5839 1.3
      vertex 32.8368 61.4801 1.3
    endloop
  endfacet
  facet normal -0.464723 -0.885456 0
    outer loop
      vertex 32.8368 61.4801 0
      vertex 34.5445 60.5839 0
      vertex 32.8368 61.4801 1.3
    endloop
  endfacet
  facet normal -0.663123 -0.748511 0
    outer loop
      vertex 35.9881 59.305 0
      vertex 35.9881 59.305 1.3
      vertex 34.5445 60.5839 1.3
    endloop
  endfacet
  facet normal -0.663123 -0.748511 0
    outer loop
      vertex 34.5445 60.5839 0
      vertex 35.9881 59.305 0
      vertex 34.5445 60.5839 1.3
    endloop
  endfacet
  facet normal -0.822984 -0.568065 0
    outer loop
      vertex 37.0836 57.7178 1.3
      vertex 35.9881 59.305 1.3
      vertex 37.0836 57.7178 0
    endloop
  endfacet
  facet normal -0.822984 -0.568065 0
    outer loop
      vertex 37.0836 57.7178 0
      vertex 35.9881 59.305 1.3
      vertex 35.9881 59.305 0
    endloop
  endfacet
  facet normal -0.935016 -0.354605 0
    outer loop
      vertex 37.7675 55.9145 1.3
      vertex 37.0836 57.7178 1.3
      vertex 37.7675 55.9145 0
    endloop
  endfacet
  facet normal -0.935016 -0.354605 0
    outer loop
      vertex 37.7675 55.9145 0
      vertex 37.0836 57.7178 1.3
      vertex 37.0836 57.7178 0
    endloop
  endfacet
  facet normal -0.992709 -0.120536 0
    outer loop
      vertex 38 54 1.3
      vertex 37.7675 55.9145 1.3
      vertex 38 54 0
    endloop
  endfacet
  facet normal -0.992709 -0.120536 0
    outer loop
      vertex 38 54 0
      vertex 37.7675 55.9145 1.3
      vertex 37.7675 55.9145 0
    endloop
  endfacet
  facet normal -0.992709 0.120536 0
    outer loop
      vertex 38 54 1.3
      vertex 38 54 0
      vertex 37.7675 52.0855 1.3
    endloop
  endfacet
  facet normal -0.992709 0.120536 0
    outer loop
      vertex 37.7675 52.0855 1.3
      vertex 38 54 0
      vertex 37.7675 52.0855 0
    endloop
  endfacet
  facet normal -0.935016 0.354605 0
    outer loop
      vertex 37.7675 52.0855 1.3
      vertex 37.7675 52.0855 0
      vertex 37.0836 50.2822 1.3
    endloop
  endfacet
  facet normal -0.935016 0.354605 0
    outer loop
      vertex 37.0836 50.2822 1.3
      vertex 37.7675 52.0855 0
      vertex 37.0836 50.2822 0
    endloop
  endfacet
  facet normal -0.822984 0.568065 0
    outer loop
      vertex 37.0836 50.2822 1.3
      vertex 37.0836 50.2822 0
      vertex 35.9881 48.695 1.3
    endloop
  endfacet
  facet normal -0.822984 0.568065 0
    outer loop
      vertex 35.9881 48.695 1.3
      vertex 37.0836 50.2822 0
      vertex 35.9881 48.695 0
    endloop
  endfacet
  facet normal -0.663123 0.748511 0
    outer loop
      vertex 35.9881 48.695 1.3
      vertex 35.9881 48.695 0
      vertex 34.5445 47.4161 1.3
    endloop
  endfacet
  facet normal -0.663123 0.748511 0
    outer loop
      vertex 34.5445 47.4161 1.3
      vertex 35.9881 48.695 0
      vertex 34.5445 47.4161 0
    endloop
  endfacet
  facet normal -0.464723 0.885456 0
    outer loop
      vertex 34.5445 47.4161 1.3
      vertex 34.5445 47.4161 0
      vertex 32.8368 46.5199 1.3
    endloop
  endfacet
  facet normal -0.464723 0.885456 0
    outer loop
      vertex 32.8368 46.5199 1.3
      vertex 34.5445 47.4161 0
      vertex 32.8368 46.5199 0
    endloop
  endfacet
  facet normal -0.239316 0.970942 0
    outer loop
      vertex 32.8368 46.5199 1.3
      vertex 32.8368 46.5199 0
      vertex 30.9643 46.0583 1.3
    endloop
  endfacet
  facet normal -0.239316 0.970942 0
    outer loop
      vertex 30.9643 46.0583 1.3
      vertex 32.8368 46.5199 0
      vertex 30.9643 46.0583 0
    endloop
  endfacet
  facet normal 0 1 0
    outer loop
      vertex 30.9643 46.0583 1.3
      vertex 30.9643 46.0583 0
      vertex 29.0357 46.0583 1.3
    endloop
  endfacet
  facet normal 0 1 0
    outer loop
      vertex 29.0357 46.0583 1.3
      vertex 30.9643 46.0583 0
      vertex 29.0357 46.0583 0
    endloop
  endfacet
  facet normal 0.239316 0.970942 0
    outer loop
      vertex 29.0357 46.0583 1.3
      vertex 29.0357 46.0583 0
      vertex 27.1632 46.5199 1.3
    endloop
  endfacet
  facet normal 0.239316 0.970942 0
    outer loop
      vertex 27.1632 46.5199 1.3
      vertex 29.0357 46.0583 0
      vertex 27.1632 46.5199 0
    endloop
  endfacet
  facet normal 0.464723 0.885456 0
    outer loop
      vertex 27.1632 46.5199 1.3
      vertex 27.1632 46.5199 0
      vertex 25.4555 47.4161 1.3
    endloop
  endfacet
  facet normal 0.464723 0.885456 0
    outer loop
      vertex 25.4555 47.4161 1.3
      vertex 27.1632 46.5199 0
      vertex 25.4555 47.4161 0
    endloop
  endfacet
  facet normal 0.663123 0.748511 0
    outer loop
      vertex 25.4555 47.4161 1.3
      vertex 25.4555 47.4161 0
      vertex 24.0119 48.695 1.3
    endloop
  endfacet
  facet normal 0.663123 0.748511 0
    outer loop
      vertex 24.0119 48.695 1.3
      vertex 25.4555 47.4161 0
      vertex 24.0119 48.695 0
    endloop
  endfacet
  facet normal 0.822984 0.568065 0
    outer loop
      vertex 22.9164 50.2822 1.3
      vertex 24.0119 48.695 1.3
      vertex 24.0119 48.695 0
    endloop
  endfacet
  facet normal 0.822984 0.568065 0
    outer loop
      vertex 22.9164 50.2822 0
      vertex 22.9164 50.2822 1.3
      vertex 24.0119 48.695 0
    endloop
  endfacet
  facet normal 0.935016 0.354605 0
    outer loop
      vertex 22.2325 52.0855 1.3
      vertex 22.9164 50.2822 1.3
      vertex 22.9164 50.2822 0
    endloop
  endfacet
  facet normal 0.935016 0.354605 0
    outer loop
      vertex 22.2325 52.0855 0
      vertex 22.2325 52.0855 1.3
      vertex 22.9164 50.2822 0
    endloop
  endfacet
  facet normal 0.62349 -0.781831 0
    outer loop
      vertex 54.055 27.4499 0
      vertex 54.055 27.4499 2
      vertex 52.6981 26.3678 2
    endloop
  endfacet
  facet normal 0.62349 -0.781831 0
    outer loop
      vertex 52.6981 26.3678 0
      vertex 54.055 27.4499 0
      vertex 52.6981 26.3678 2
    endloop
  endfacet
  facet normal 1 0 0
    outer loop
      vertex 52.6981 26.3678 0
      vertex 52.6981 26.3678 2
      vertex 52.6981 24.6322 2
    endloop
  endfacet
  facet normal 1 0 0
    outer loop
      vertex 52.6981 24.6322 0
      vertex 52.6981 26.3678 0
      vertex 52.6981 24.6322 2
    endloop
  endfacet
  facet normal -0.222521 -0.974928 0
    outer loop
      vertex 55.747 27.0637 0
      vertex 55.747 27.0637 2
      vertex 54.055 27.4499 2
    endloop
  endfacet
  facet normal -0.222521 -0.974928 0
    outer loop
      vertex 54.055 27.4499 0
      vertex 55.747 27.0637 0
      vertex 54.055 27.4499 2
    endloop
  endfacet
  facet normal -0.900969 -0.433884 0
    outer loop
      vertex 56.5 25.5 2
      vertex 55.747 27.0637 2
      vertex 56.5 25.5 0
    endloop
  endfacet
  facet normal -0.900969 -0.433884 0
    outer loop
      vertex 56.5 25.5 0
      vertex 55.747 27.0637 2
      vertex 55.747 27.0637 0
    endloop
  endfacet
  facet normal -0.900969 0.433884 0
    outer loop
      vertex 56.5 25.5 2
      vertex 56.5 25.5 0
      vertex 55.747 23.9363 2
    endloop
  endfacet
  facet normal -0.900969 0.433884 0
    outer loop
      vertex 55.747 23.9363 2
      vertex 56.5 25.5 0
      vertex 55.747 23.9363 0
    endloop
  endfacet
  facet normal -0.222521 0.974928 0
    outer loop
      vertex 55.747 23.9363 2
      vertex 55.747 23.9363 0
      vertex 54.055 23.5501 2
    endloop
  endfacet
  facet normal -0.222521 0.974928 0
    outer loop
      vertex 54.055 23.5501 2
      vertex 55.747 23.9363 0
      vertex 54.055 23.5501 0
    endloop
  endfacet
  facet normal 0.62349 0.781831 0
    outer loop
      vertex 54.055 23.5501 2
      vertex 54.055 23.5501 0
      vertex 52.6981 24.6322 2
    endloop
  endfacet
  facet normal 0.62349 0.781831 0
    outer loop
      vertex 52.6981 24.6322 2
      vertex 54.055 23.5501 0
      vertex 52.6981 24.6322 0
    endloop
  endfacet
  facet normal 0.62349 -0.781831 0
    outer loop
      vertex 54.055 85.4499 0
      vertex 54.055 85.4499 2
      vertex 52.6981 84.3678 2
    endloop
  endfacet
  facet normal 0.62349 -0.781831 0
    outer loop
      vertex 52.6981 84.3678 0
      vertex 54.055 85.4499 0
      vertex 52.6981 84.3678 2
    endloop
  endfacet
  facet normal 1 0 0
    outer loop
      vertex 52.6981 84.3678 0
      vertex 52.6981 84.3678 2
      vertex 52.6981 82.6322 2
    endloop
  endfacet
  facet normal 1 0 0
    outer loop
      vertex 52.6981 82.6322 0
      vertex 52.6981 84.3678 0
      vertex 52.6981 82.6322 2
    endloop
  endfacet
  facet normal -0.222521 -0.974928 0
    outer loop
      vertex 55.747 85.0637 0
      vertex 55.747 85.0637 2
      vertex 54.055 85.4499 2
    endloop
  endfacet
  facet normal -0.222521 -0.974928 0
    outer loop
      vertex 54.055 85.4499 0
      vertex 55.747 85.0637 0
      vertex 54.055 85.4499 2
    endloop
  endfacet
  facet normal -0.900969 -0.433884 0
    outer loop
      vertex 56.5 83.5 2
      vertex 55.747 85.0637 2
      vertex 56.5 83.5 0
    endloop
  endfacet
  facet normal -0.900969 -0.433884 0
    outer loop
      vertex 56.5 83.5 0
      vertex 55.747 85.0637 2
      vertex 55.747 85.0637 0
    endloop
  endfacet
  facet normal -0.900969 0.433884 0
    outer loop
      vertex 56.5 83.5 2
      vertex 56.5 83.5 0
      vertex 55.747 81.9363 2
    endloop
  endfacet
  facet normal -0.900969 0.433884 0
    outer loop
      vertex 55.747 81.9363 2
      vertex 56.5 83.5 0
      vertex 55.747 81.9363 0
    endloop
  endfacet
  facet normal -0.222521 0.974928 0
    outer loop
      vertex 55.747 81.9363 2
      vertex 55.747 81.9363 0
      vertex 54.055 81.5501 2
    endloop
  endfacet
  facet normal -0.222521 0.974928 0
    outer loop
      vertex 54.055 81.5501 2
      vertex 55.747 81.9363 0
      vertex 54.055 81.5501 0
    endloop
  endfacet
  facet normal 0.62349 0.781831 0
    outer loop
      vertex 54.055 81.5501 2
      vertex 54.055 81.5501 0
      vertex 52.6981 82.6322 2
    endloop
  endfacet
  facet normal 0.62349 0.781831 0
    outer loop
      vertex 52.6981 82.6322 2
      vertex 54.055 81.5501 0
      vertex 52.6981 82.6322 0
    endloop
  endfacet
  facet normal 0 0 1
    outer loop
      vertex 0 86 4
      vertex 0 3 4
      vertex 0.572949 1.23664 4
    endloop
  endfacet
  facet normal 0 0 1
    outer loop
      vertex 2.14177 24.5139 4
      vertex 0 86 4
      vertex 2.07295 0.14683 4
    endloop
  endfacet
  facet normal 0 0 1
    outer loop
      vertex 2.07295 0.14683 4
      vertex 0 86 4
      vertex 0.572949 1.23664 4
    endloop
  endfacet
  facet normal 0 0 1
    outer loop
      vertex 55.954 86.6837 4
      vertex 57.4444 85.3922 4
      vertex 60 86 4
    endloop
  endfacet
  facet normal 0 0 1
    outer loop
      vertex 6.95395 86.6837 4
      vertex 52.208 86.1451 4
      vertex 54.0019 86.9644 4
    endloop
  endfacet
  facet normal 0 0 1
    outer loop
      vertex 9.20826 69.1061 4
      vertex 6.95395 80.3163 4
      vertex 5.0019 80.0356 4
    endloop
  endfacet
  facet normal 0 0 1
    outer loop
      vertex 6.95395 86.6837 4
      vertex 59.4271 87.7634 4
      vertex 57.9271 88.8532 4
    endloop
  endfacet
  facet normal 0 0 1
    outer loop
      vertex 0.572949 87.7634 4
      vertex 0 86 4
      vertex 2.07295 88.8532 4
    endloop
  endfacet
  facet normal 0 0 1
    outer loop
      vertex 3.20799 22.8549 4
      vertex 2.14177 24.5139 4
      vertex 2.07295 0.14683 4
    endloop
  endfacet
  facet normal 0 0 1
    outer loop
      vertex 2.14177 26.4861 4
      vertex 0 86 4
      vertex 2.14177 24.5139 4
    endloop
  endfacet
  facet normal 0 0 1
    outer loop
      vertex 12.8033 73.0988 4
      vertex 17.15 76.2569 4
      vertex 9 83.5 4
    endloop
  endfacet
  facet normal 0 0 1
    outer loop
      vertex 3.20799 28.1451 4
      vertex 0 86 4
      vertex 2.14177 26.4861 4
    endloop
  endfacet
  facet normal 0 0 1
    outer loop
      vertex 5.0019 28.9644 4
      vertex 0 86 4
      vertex 3.20799 28.1451 4
    endloop
  endfacet
  facet normal 0 0 1
    outer loop
      vertex 6.95395 28.6837 4
      vertex 0 86 4
      vertex 5.0019 28.9644 4
    endloop
  endfacet
  facet normal 0 0 1
    outer loop
      vertex 4.86161 48.6567 4
      vertex 0 86 4
      vertex 6.95395 28.6837 4
    endloop
  endfacet
  facet normal 0 0 1
    outer loop
      vertex 9 25.5 4
      vertex 8.44439 23.6078 4
      vertex 57.9271 0.14683 4
    endloop
  endfacet
  facet normal 0 0 1
    outer loop
      vertex 57.9271 0.14683 4
      vertex 6.95395 28.6837 4
      vertex 8.44439 27.3922 4
    endloop
  endfacet
  facet normal 0 0 1
    outer loop
      vertex 37.9417 29.5578 4
      vertex 32.6864 28.4408 4
      vertex 57.9271 0.14683 4
    endloop
  endfacet
  facet normal 0 0 1
    outer loop
      vertex 57.9271 0.14683 4
      vertex 6.95395 22.3163 4
      vertex 2.07295 0.14683 4
    endloop
  endfacet
  facet normal 0 0 1
    outer loop
      vertex 12.8033 73.0988 4
      vertex 9 83.5 4
      vertex 8.44439 81.6078 4
    endloop
  endfacet
  facet normal 0 0 1
    outer loop
      vertex 6.95395 22.3163 4
      vertex 5.0019 22.0356 4
      vertex 2.07295 0.14683 4
    endloop
  endfacet
  facet normal 0 0 1
    outer loop
      vertex 5.0019 22.0356 4
      vertex 3.20799 22.8549 4
      vertex 2.07295 0.14683 4
    endloop
  endfacet
  facet normal 0 0 1
    outer loop
      vertex 4.3 54 4
      vertex 3.20799 80.8549 4
      vertex 2.14177 82.5139 4
    endloop
  endfacet
  facet normal 0 0 1
    outer loop
      vertex 54.0019 86.9644 4
      vertex 55.954 86.6837 4
      vertex 59.4271 87.7634 4
    endloop
  endfacet
  facet normal 0 0 1
    outer loop
      vertex 9.20826 69.1061 4
      vertex 5.0019 80.0356 4
      vertex 3.20799 80.8549 4
    endloop
  endfacet
  facet normal 0 0 1
    outer loop
      vertex 6.95395 86.6837 4
      vertex 54.0019 86.9644 4
      vertex 59.4271 87.7634 4
    endloop
  endfacet
  facet normal 0 0 1
    outer loop
      vertex 2.07295 88.8532 4
      vertex 5.0019 86.9644 4
      vertex 57.9271 88.8532 4
    endloop
  endfacet
  facet normal 0 0 1
    outer loop
      vertex 2.07295 88.8532 4
      vertex 0 86 4
      vertex 5.0019 86.9644 4
    endloop
  endfacet
  facet normal 0 0 1
    outer loop
      vertex 5.0019 86.9644 4
      vertex 6.95395 86.6837 4
      vertex 57.9271 88.8532 4
    endloop
  endfacet
  facet normal 0 0 1
    outer loop
      vertex 51.1418 84.4861 4
      vertex 8.44439 85.3922 4
      vertex 9 83.5 4
    endloop
  endfacet
  facet normal 0 0 1
    outer loop
      vertex 51.1418 82.5139 4
      vertex 32.6864 79.5592 4
      vertex 37.9417 78.4422 4
    endloop
  endfacet
  facet normal 0 0 1
    outer loop
      vertex 6.52188 43.5469 4
      vertex 4.86161 48.6567 4
      vertex 6.95395 28.6837 4
    endloop
  endfacet
  facet normal 0 0 1
    outer loop
      vertex 4.3 54 4
      vertex 4.86161 59.3433 4
      vertex 3.20799 80.8549 4
    endloop
  endfacet
  facet normal 0 0 1
    outer loop
      vertex 4.3 54 4
      vertex 0 86 4
      vertex 4.86161 48.6567 4
    endloop
  endfacet
  facet normal 0 0 1
    outer loop
      vertex 2.14177 82.5139 4
      vertex 0 86 4
      vertex 4.3 54 4
    endloop
  endfacet
  facet normal 0 0 1
    outer loop
      vertex 6.52188 64.4531 4
      vertex 3.20799 80.8549 4
      vertex 4.86161 59.3433 4
    endloop
  endfacet
  facet normal 0 0 1
    outer loop
      vertex 9.20826 69.1061 4
      vertex 3.20799 80.8549 4
      vertex 6.52188 64.4531 4
    endloop
  endfacet
  facet normal 0 0 1
    outer loop
      vertex 32.6864 28.4408 4
      vertex 27.3136 28.4408 4
      vertex 57.9271 0.14683 4
    endloop
  endfacet
  facet normal 0 0 1
    outer loop
      vertex 50.7917 38.8939 4
      vertex 47.1967 34.9012 4
      vertex 51.1418 26.4861 4
    endloop
  endfacet
  facet normal 0 0 1
    outer loop
      vertex 55.7 54 4
      vertex 57.4444 27.3922 4
      vertex 58 25.5 4
    endloop
  endfacet
  facet normal 0 0 1
    outer loop
      vertex 8.44439 81.6078 4
      vertex 6.95395 80.3163 4
      vertex 12.8033 73.0988 4
    endloop
  endfacet
  facet normal 0 0 1
    outer loop
      vertex 42.85 31.7431 4
      vertex 59.4271 1.23664 4
      vertex 60 3 4
    endloop
  endfacet
  facet normal 0 0 1
    outer loop
      vertex 22.0583 78.4422 4
      vertex 9 83.5 4
      vertex 17.15 76.2569 4
    endloop
  endfacet
  facet normal 0 0 1
    outer loop
      vertex 27.3136 79.5592 4
      vertex 9 83.5 4
      vertex 22.0583 78.4422 4
    endloop
  endfacet
  facet normal 0 0 1
    outer loop
      vertex 55.7 54 4
      vertex 58 25.5 4
      vertex 60 3 4
    endloop
  endfacet
  facet normal 0 0 1
    outer loop
      vertex 51.1418 84.4861 4
      vertex 9 83.5 4
      vertex 27.3136 79.5592 4
    endloop
  endfacet
  facet normal 0 0 1
    outer loop
      vertex 47.1967 34.9012 4
      vertex 42.85 31.7431 4
      vertex 51.1418 24.5139 4
    endloop
  endfacet
  facet normal 0 0 1
    outer loop
      vertex 51.1418 84.4861 4
      vertex 52.208 86.1451 4
      vertex 6.95395 86.6837 4
    endloop
  endfacet
  facet normal 0 0 1
    outer loop
      vertex 51.1418 82.5139 4
      vertex 37.9417 78.4422 4
      vertex 42.85 76.2569 4
    endloop
  endfacet
  facet normal 0 0 1
    outer loop
      vertex 50.7917 38.8939 4
      vertex 51.1418 26.4861 4
      vertex 52.208 28.1451 4
    endloop
  endfacet
  facet normal 0 0 1
    outer loop
      vertex 54.0019 80.0356 4
      vertex 42.85 76.2569 4
      vertex 47.1967 73.0988 4
    endloop
  endfacet
  facet normal 0 0 1
    outer loop
      vertex 55.954 80.3163 4
      vertex 47.1967 73.0988 4
      vertex 50.7917 69.1061 4
    endloop
  endfacet
  facet normal 0 0 1
    outer loop
      vertex 60 86 4
      vertex 50.7917 69.1061 4
      vertex 53.4781 64.4531 4
    endloop
  endfacet
  facet normal 0 0 1
    outer loop
      vertex 53.4781 43.5469 4
      vertex 50.7917 38.8939 4
      vertex 54.0019 28.9644 4
    endloop
  endfacet
  facet normal 0 0 1
    outer loop
      vertex 60 86 4
      vertex 53.4781 64.4531 4
      vertex 55.1384 59.3433 4
    endloop
  endfacet
  facet normal 0 0 1
    outer loop
      vertex 60 86 4
      vertex 55.7 54 4
      vertex 60 3 4
    endloop
  endfacet
  facet normal 0 0 1
    outer loop
      vertex 60 86 4
      vertex 55.1384 59.3433 4
      vertex 55.7 54 4
    endloop
  endfacet
  facet normal 0 0 1
    outer loop
      vertex 51.1418 24.5139 4
      vertex 51.1418 26.4861 4
      vertex 47.1967 34.9012 4
    endloop
  endfacet
  facet normal 0 0 1
    outer loop
      vertex 54.0019 28.9644 4
      vertex 55.954 28.6837 4
      vertex 53.4781 43.5469 4
    endloop
  endfacet
  facet normal 0 0 1
    outer loop
      vertex 55.7 54 4
      vertex 55.1384 48.6567 4
      vertex 57.4444 27.3922 4
    endloop
  endfacet
  facet normal 0 0 1
    outer loop
      vertex 52.208 22.8549 4
      vertex 51.1418 24.5139 4
      vertex 60 3 4
    endloop
  endfacet
  facet normal 0 0 1
    outer loop
      vertex 57.9271 0.14683 4
      vertex 27.3136 28.4408 4
      vertex 6.95395 28.6837 4
    endloop
  endfacet
  facet normal 0 0 1
    outer loop
      vertex 52.208 28.1451 4
      vertex 54.0019 28.9644 4
      vertex 50.7917 38.8939 4
    endloop
  endfacet
  facet normal 0 0 1
    outer loop
      vertex 27.3136 28.4408 4
      vertex 22.0583 29.5578 4
      vertex 6.95395 28.6837 4
    endloop
  endfacet
  facet normal 0 0 1
    outer loop
      vertex 22.0583 29.5578 4
      vertex 17.15 31.7431 4
      vertex 6.95395 28.6837 4
    endloop
  endfacet
  facet normal 0 0 1
    outer loop
      vertex 17.15 31.7431 4
      vertex 12.8033 34.9012 4
      vertex 6.95395 28.6837 4
    endloop
  endfacet
  facet normal 0 0 1
    outer loop
      vertex 12.8033 34.9012 4
      vertex 9.20826 38.8939 4
      vertex 6.95395 28.6837 4
    endloop
  endfacet
  facet normal 0 0 1
    outer loop
      vertex 9.20826 38.8939 4
      vertex 6.52188 43.5469 4
      vertex 6.95395 28.6837 4
    endloop
  endfacet
  facet normal 0 0 1
    outer loop
      vertex 42.85 31.7431 4
      vertex 57.9271 0.14683 4
      vertex 59.4271 1.23664 4
    endloop
  endfacet
  facet normal 0 0 1
    outer loop
      vertex 51.1418 24.5139 4
      vertex 42.85 31.7431 4
      vertex 60 3 4
    endloop
  endfacet
  facet normal 0 0 1
    outer loop
      vertex 51.1418 82.5139 4
      vertex 51.1418 84.4861 4
      vertex 27.3136 79.5592 4
    endloop
  endfacet
  facet normal 0 0 1
    outer loop
      vertex 51.1418 82.5139 4
      vertex 27.3136 79.5592 4
      vertex 32.6864 79.5592 4
    endloop
  endfacet
  facet normal 0 0 1
    outer loop
      vertex 57.4444 23.6078 4
      vertex 55.954 22.3163 4
      vertex 60 3 4
    endloop
  endfacet
  facet normal 0 0 1
    outer loop
      vertex 55.954 22.3163 4
      vertex 54.0019 22.0356 4
      vertex 60 3 4
    endloop
  endfacet
  facet normal 0 0 1
    outer loop
      vertex 55.1384 48.6567 4
      vertex 53.4781 43.5469 4
      vertex 55.954 28.6837 4
    endloop
  endfacet
  facet normal 0 0 1
    outer loop
      vertex 58 25.5 4
      vertex 57.4444 23.6078 4
      vertex 60 3 4
    endloop
  endfacet
  facet normal 0 0 1
    outer loop
      vertex 55.954 28.6837 4
      vertex 57.4444 27.3922 4
      vertex 55.1384 48.6567 4
    endloop
  endfacet
  facet normal 0 0 1
    outer loop
      vertex 52.208 80.8549 4
      vertex 51.1418 82.5139 4
      vertex 42.85 76.2569 4
    endloop
  endfacet
  facet normal 0 0 1
    outer loop
      vertex 42.85 31.7431 4
      vertex 37.9417 29.5578 4
      vertex 57.9271 0.14683 4
    endloop
  endfacet
  facet normal 0 0 1
    outer loop
      vertex 54.0019 22.0356 4
      vertex 52.208 22.8549 4
      vertex 60 3 4
    endloop
  endfacet
  facet normal 0 0 1
    outer loop
      vertex 3.20799 86.1451 4
      vertex 5.0019 86.9644 4
      vertex 0 86 4
    endloop
  endfacet
  facet normal 0 0 1
    outer loop
      vertex 59.4271 87.7634 4
      vertex 55.954 86.6837 4
      vertex 60 86 4
    endloop
  endfacet
  facet normal 0 0 1
    outer loop
      vertex 57.4444 85.3922 4
      vertex 58 83.5 4
      vertex 60 86 4
    endloop
  endfacet
  facet normal 0 0 1
    outer loop
      vertex 51.1418 84.4861 4
      vertex 6.95395 86.6837 4
      vertex 8.44439 85.3922 4
    endloop
  endfacet
  facet normal 0 0 1
    outer loop
      vertex 55.954 80.3163 4
      vertex 54.0019 80.0356 4
      vertex 47.1967 73.0988 4
    endloop
  endfacet
  facet normal 0 0 1
    outer loop
      vertex 60 86 4
      vertex 57.4444 81.6078 4
      vertex 50.7917 69.1061 4
    endloop
  endfacet
  facet normal 0 0 1
    outer loop
      vertex 60 86 4
      vertex 58 83.5 4
      vertex 57.4444 81.6078 4
    endloop
  endfacet
  facet normal 0 0 1
    outer loop
      vertex 57.4444 81.6078 4
      vertex 55.954 80.3163 4
      vertex 50.7917 69.1061 4
    endloop
  endfacet
  facet normal 0 0 1
    outer loop
      vertex 52.208 80.8549 4
      vertex 42.85 76.2569 4
      vertex 54.0019 80.0356 4
    endloop
  endfacet
  facet normal 0 0 1
    outer loop
      vertex 8.44439 27.3922 4
      vertex 9 25.5 4
      vertex 57.9271 0.14683 4
    endloop
  endfacet
  facet normal 0 0 1
    outer loop
      vertex 8.44439 23.6078 4
      vertex 6.95395 22.3163 4
      vertex 57.9271 0.14683 4
    endloop
  endfacet
  facet normal 0 0 1
    outer loop
      vertex 2.14177 82.5139 4
      vertex 2.14177 84.4861 4
      vertex 0 86 4
    endloop
  endfacet
  facet normal 0 0 1
    outer loop
      vertex 2.14177 84.4861 4
      vertex 3.20799 86.1451 4
      vertex 0 86 4
    endloop
  endfacet
  facet normal 0 0 1
    outer loop
      vertex 9.20826 69.1061 4
      vertex 12.8033 73.0988 4
      vertex 6.95395 80.3163 4
    endloop
  endfacet
  facet normal 0 0 1
    outer loop
      vertex 3.20799 22.8549 2
      vertex 5.0019 22.0356 2
      vertex 6.95395 22.3163 2
    endloop
  endfacet
  facet normal 0 0 1
    outer loop
      vertex 6.74698 23.9363 2
      vertex 3.20799 22.8549 2
      vertex 8.44439 23.6078 2
    endloop
  endfacet
  facet normal 0 0 1
    outer loop
      vertex 8.44439 23.6078 2
      vertex 3.20799 22.8549 2
      vertex 6.95395 22.3163 2
    endloop
  endfacet
  facet normal 0 0 1
    outer loop
      vertex 6.74698 27.0637 2
      vertex 7.5 25.5 2
      vertex 8.44439 27.3922 2
    endloop
  endfacet
  facet normal 0 0 1
    outer loop
      vertex 5.05496 27.4499 2
      vertex 6.74698 27.0637 2
      vertex 6.95395 28.6837 2
    endloop
  endfacet
  facet normal 0 0 1
    outer loop
      vertex 2.14177 26.4861 2
      vertex 3.20799 22.8549 2
      vertex 3.20799 28.1451 2
    endloop
  endfacet
  facet normal 0 0 1
    outer loop
      vertex 2.14177 24.5139 2
      vertex 3.20799 22.8549 2
      vertex 2.14177 26.4861 2
    endloop
  endfacet
  facet normal 0 0 1
    outer loop
      vertex 3.20799 28.1451 2
      vertex 3.69806 26.3678 2
      vertex 5.0019 28.9644 2
    endloop
  endfacet
  facet normal 0 0 1
    outer loop
      vertex 3.20799 28.1451 2
      vertex 3.20799 22.8549 2
      vertex 3.69806 26.3678 2
    endloop
  endfacet
  facet normal 0 0 1
    outer loop
      vertex 5.0019 28.9644 2
      vertex 5.05496 27.4499 2
      vertex 6.95395 28.6837 2
    endloop
  endfacet
  facet normal 0 0 1
    outer loop
      vertex 6.95395 28.6837 2
      vertex 6.74698 27.0637 2
      vertex 8.44439 27.3922 2
    endloop
  endfacet
  facet normal 0 0 1
    outer loop
      vertex 8.44439 27.3922 2
      vertex 7.5 25.5 2
      vertex 9 25.5 2
    endloop
  endfacet
  facet normal 0 0 1
    outer loop
      vertex 9 25.5 2
      vertex 6.74698 23.9363 2
      vertex 8.44439 23.6078 2
    endloop
  endfacet
  facet normal 0 0 1
    outer loop
      vertex 5.05496 23.5501 2
      vertex 3.20799 22.8549 2
      vertex 6.74698 23.9363 2
    endloop
  endfacet
  facet normal 0 0 1
    outer loop
      vertex 7.5 25.5 2
      vertex 6.74698 23.9363 2
      vertex 9 25.5 2
    endloop
  endfacet
  facet normal 0 0 1
    outer loop
      vertex 3.69806 26.3678 2
      vertex 3.20799 22.8549 2
      vertex 3.69806 24.6322 2
    endloop
  endfacet
  facet normal 0 0 1
    outer loop
      vertex 3.69806 26.3678 2
      vertex 5.05496 27.4499 2
      vertex 5.0019 28.9644 2
    endloop
  endfacet
  facet normal 0 0 1
    outer loop
      vertex 5.05496 23.5501 2
      vertex 3.69806 24.6322 2
      vertex 3.20799 22.8549 2
    endloop
  endfacet
  facet normal 0 0 1
    outer loop
      vertex 3.20799 80.8549 2
      vertex 5.0019 80.0356 2
      vertex 6.95395 80.3163 2
    endloop
  endfacet
  facet normal 0 0 1
    outer loop
      vertex 6.74698 81.9363 2
      vertex 3.20799 80.8549 2
      vertex 8.44439 81.6078 2
    endloop
  endfacet
  facet normal 0 0 1
    outer loop
      vertex 8.44439 81.6078 2
      vertex 3.20799 80.8549 2
      vertex 6.95395 80.3163 2
    endloop
  endfacet
  facet normal 0 0 1
    outer loop
      vertex 6.74698 85.0637 2
      vertex 7.5 83.5 2
      vertex 8.44439 85.3922 2
    endloop
  endfacet
  facet normal 0 0 1
    outer loop
      vertex 5.05496 85.4499 2
      vertex 6.74698 85.0637 2
      vertex 6.95395 86.6837 2
    endloop
  endfacet
  facet normal 0 0 1
    outer loop
      vertex 2.14177 84.4861 2
      vertex 3.20799 80.8549 2
      vertex 3.20799 86.1451 2
    endloop
  endfacet
  facet normal 0 0 1
    outer loop
      vertex 2.14177 82.5139 2
      vertex 3.20799 80.8549 2
      vertex 2.14177 84.4861 2
    endloop
  endfacet
  facet normal 0 0 1
    outer loop
      vertex 3.20799 86.1451 2
      vertex 3.69806 84.3678 2
      vertex 5.0019 86.9644 2
    endloop
  endfacet
  facet normal 0 0 1
    outer loop
      vertex 3.20799 86.1451 2
      vertex 3.20799 80.8549 2
      vertex 3.69806 84.3678 2
    endloop
  endfacet
  facet normal 0 0 1
    outer loop
      vertex 5.0019 86.9644 2
      vertex 5.05496 85.4499 2
      vertex 6.95395 86.6837 2
    endloop
  endfacet
  facet normal 0 0 1
    outer loop
      vertex 6.95395 86.6837 2
      vertex 6.74698 85.0637 2
      vertex 8.44439 85.3922 2
    endloop
  endfacet
  facet normal 0 0 1
    outer loop
      vertex 8.44439 85.3922 2
      vertex 7.5 83.5 2
      vertex 9 83.5 2
    endloop
  endfacet
  facet normal 0 0 1
    outer loop
      vertex 9 83.5 2
      vertex 6.74698 81.9363 2
      vertex 8.44439 81.6078 2
    endloop
  endfacet
  facet normal 0 0 1
    outer loop
      vertex 5.05496 81.5501 2
      vertex 3.20799 80.8549 2
      vertex 6.74698 81.9363 2
    endloop
  endfacet
  facet normal 0 0 1
    outer loop
      vertex 7.5 83.5 2
      vertex 6.74698 81.9363 2
      vertex 9 83.5 2
    endloop
  endfacet
  facet normal 0 0 1
    outer loop
      vertex 3.69806 84.3678 2
      vertex 3.20799 80.8549 2
      vertex 3.69806 82.6322 2
    endloop
  endfacet
  facet normal 0 0 1
    outer loop
      vertex 3.69806 84.3678 2
      vertex 5.05496 85.4499 2
      vertex 5.0019 86.9644 2
    endloop
  endfacet
  facet normal 0 0 1
    outer loop
      vertex 5.05496 81.5501 2
      vertex 3.69806 82.6322 2
      vertex 3.20799 80.8549 2
    endloop
  endfacet
  facet normal 0 0 1
    outer loop
      vertex 29.0357 61.9417 1.3
      vertex 40 64 1.3
      vertex 20 64 1.3
    endloop
  endfacet
  facet normal 0 0 1
    outer loop
      vertex 29.0357 61.9417 1.3
      vertex 30.9643 61.9417 1.3
      vertex 40 64 1.3
    endloop
  endfacet
  facet normal 0 0 1
    outer loop
      vertex 20 44 1.3
      vertex 22 54 1.3
      vertex 20 64 1.3
    endloop
  endfacet
  facet normal 0 0 1
    outer loop
      vertex 22 54 1.3
      vertex 22.2325 55.9145 1.3
      vertex 20 64 1.3
    endloop
  endfacet
  facet normal 0 0 1
    outer loop
      vertex 22.2325 55.9145 1.3
      vertex 22.9164 57.7178 1.3
      vertex 20 64 1.3
    endloop
  endfacet
  facet normal 0 0 1
    outer loop
      vertex 34.5445 47.4161 1.3
      vertex 32.8368 46.5199 1.3
      vertex 40 44 1.3
    endloop
  endfacet
  facet normal 0 0 1
    outer loop
      vertex 22.9164 57.7178 1.3
      vertex 24.0119 59.305 1.3
      vertex 20 64 1.3
    endloop
  endfacet
  facet normal 0 0 1
    outer loop
      vertex 25.4555 60.5839 1.3
      vertex 27.1632 61.4801 1.3
      vertex 20 64 1.3
    endloop
  endfacet
  facet normal 0 0 1
    outer loop
      vertex 27.1632 61.4801 1.3
      vertex 29.0357 61.9417 1.3
      vertex 20 64 1.3
    endloop
  endfacet
  facet normal 0 0 1
    outer loop
      vertex 30.9643 61.9417 1.3
      vertex 32.8368 61.4801 1.3
      vertex 40 64 1.3
    endloop
  endfacet
  facet normal 0 0 1
    outer loop
      vertex 34.5445 60.5839 1.3
      vertex 40 64 1.3
      vertex 32.8368 61.4801 1.3
    endloop
  endfacet
  facet normal 0 0 1
    outer loop
      vertex 35.9881 59.305 1.3
      vertex 40 64 1.3
      vertex 34.5445 60.5839 1.3
    endloop
  endfacet
  facet normal 0 0 1
    outer loop
      vertex 37.0836 57.7178 1.3
      vertex 40 64 1.3
      vertex 35.9881 59.305 1.3
    endloop
  endfacet
  facet normal 0 0 1
    outer loop
      vertex 37.7675 55.9145 1.3
      vertex 40 64 1.3
      vertex 37.0836 57.7178 1.3
    endloop
  endfacet
  facet normal 0 0 1
    outer loop
      vertex 40 44 1.3
      vertex 40 64 1.3
      vertex 37.7675 55.9145 1.3
    endloop
  endfacet
  facet normal 0 0 1
    outer loop
      vertex 37.7675 52.0855 1.3
      vertex 37.0836 50.2822 1.3
      vertex 40 44 1.3
    endloop
  endfacet
  facet normal 0 0 1
    outer loop
      vertex 40 44 1.3
      vertex 37.7675 55.9145 1.3
      vertex 38 54 1.3
    endloop
  endfacet
  facet normal 0 0 1
    outer loop
      vertex 40 44 1.3
      vertex 37.0836 50.2822 1.3
      vertex 35.9881 48.695 1.3
    endloop
  endfacet
  facet normal 0 0 1
    outer loop
      vertex 30.9643 46.0583 1.3
      vertex 29.0357 46.0583 1.3
      vertex 20 44 1.3
    endloop
  endfacet
  facet normal 0 0 1
    outer loop
      vertex 30.9643 46.0583 1.3
      vertex 40 44 1.3
      vertex 32.8368 46.5199 1.3
    endloop
  endfacet
  facet normal 0 0 1
    outer loop
      vertex 20 44 1.3
      vertex 40 44 1.3
      vertex 30.9643 46.0583 1.3
    endloop
  endfacet
  facet normal 0 0 1
    outer loop
      vertex 20 44 1.3
      vertex 29.0357 46.0583 1.3
      vertex 27.1632 46.5199 1.3
    endloop
  endfacet
  facet normal 0 0 1
    outer loop
      vertex 20 44 1.3
      vertex 27.1632 46.5199 1.3
      vertex 25.4555 47.4161 1.3
    endloop
  endfacet
  facet normal 0 0 1
    outer loop
      vertex 20 44 1.3
      vertex 25.4555 47.4161 1.3
      vertex 24.0119 48.695 1.3
    endloop
  endfacet
  facet normal 0 0 1
    outer loop
      vertex 20 44 1.3
      vertex 24.0119 48.695 1.3
      vertex 22.9164 50.2822 1.3
    endloop
  endfacet
  facet normal 0 0 1
    outer loop
      vertex 20 44 1.3
      vertex 22.2325 52.0855 1.3
      vertex 22 54 1.3
    endloop
  endfacet
  facet normal 0 0 1
    outer loop
      vertex 20 44 1.3
      vertex 22.9164 50.2822 1.3
      vertex 22.2325 52.0855 1.3
    endloop
  endfacet
  facet normal 0 0 1
    outer loop
      vertex 24.0119 59.305 1.3
      vertex 25.4555 60.5839 1.3
      vertex 20 64 1.3
    endloop
  endfacet
  facet normal 0 0 1
    outer loop
      vertex 38 54 1.3
      vertex 37.7675 52.0855 1.3
      vertex 40 44 1.3
    endloop
  endfacet
  facet normal 0 0 1
    outer loop
      vertex 35.9881 48.695 1.3
      vertex 34.5445 47.4161 1.3
      vertex 40 44 1.3
    endloop
  endfacet
  facet normal 0 0 1
    outer loop
      vertex 52.208 22.8549 2
      vertex 54.0019 22.0356 2
      vertex 55.954 22.3163 2
    endloop
  endfacet
  facet normal 0 0 1
    outer loop
      vertex 55.747 23.9363 2
      vertex 52.208 22.8549 2
      vertex 57.4444 23.6078 2
    endloop
  endfacet
  facet normal 0 0 1
    outer loop
      vertex 57.4444 23.6078 2
      vertex 52.208 22.8549 2
      vertex 55.954 22.3163 2
    endloop
  endfacet
  facet normal 0 0 1
    outer loop
      vertex 55.747 27.0637 2
      vertex 56.5 25.5 2
      vertex 57.4444 27.3922 2
    endloop
  endfacet
  facet normal 0 0 1
    outer loop
      vertex 54.055 27.4499 2
      vertex 55.747 27.0637 2
      vertex 55.954 28.6837 2
    endloop
  endfacet
  facet normal 0 0 1
    outer loop
      vertex 51.1418 26.4861 2
      vertex 52.208 22.8549 2
      vertex 52.208 28.1451 2
    endloop
  endfacet
  facet normal 0 0 1
    outer loop
      vertex 51.1418 24.5139 2
      vertex 52.208 22.8549 2
      vertex 51.1418 26.4861 2
    endloop
  endfacet
  facet normal 0 0 1
    outer loop
      vertex 52.208 28.1451 2
      vertex 52.6981 26.3678 2
      vertex 54.0019 28.9644 2
    endloop
  endfacet
  facet normal 0 0 1
    outer loop
      vertex 52.208 28.1451 2
      vertex 52.208 22.8549 2
      vertex 52.6981 26.3678 2
    endloop
  endfacet
  facet normal 0 0 1
    outer loop
      vertex 54.0019 28.9644 2
      vertex 54.055 27.4499 2
      vertex 55.954 28.6837 2
    endloop
  endfacet
  facet normal 0 0 1
    outer loop
      vertex 55.954 28.6837 2
      vertex 55.747 27.0637 2
      vertex 57.4444 27.3922 2
    endloop
  endfacet
  facet normal 0 0 1
    outer loop
      vertex 57.4444 27.3922 2
      vertex 56.5 25.5 2
      vertex 58 25.5 2
    endloop
  endfacet
  facet normal 0 0 1
    outer loop
      vertex 58 25.5 2
      vertex 55.747 23.9363 2
      vertex 57.4444 23.6078 2
    endloop
  endfacet
  facet normal 0 0 1
    outer loop
      vertex 54.055 23.5501 2
      vertex 52.208 22.8549 2
      vertex 55.747 23.9363 2
    endloop
  endfacet
  facet normal 0 0 1
    outer loop
      vertex 56.5 25.5 2
      vertex 55.747 23.9363 2
      vertex 58 25.5 2
    endloop
  endfacet
  facet normal 0 0 1
    outer loop
      vertex 52.6981 26.3678 2
      vertex 52.208 22.8549 2
      vertex 52.6981 24.6322 2
    endloop
  endfacet
  facet normal 0 0 1
    outer loop
      vertex 52.6981 26.3678 2
      vertex 54.055 27.4499 2
      vertex 54.0019 28.9644 2
    endloop
  endfacet
  facet normal 0 0 1
    outer loop
      vertex 54.055 23.5501 2
      vertex 52.6981 24.6322 2
      vertex 52.208 22.8549 2
    endloop
  endfacet
  facet normal 0 0 1
    outer loop
      vertex 52.208 80.8549 2
      vertex 54.0019 80.0356 2
      vertex 55.954 80.3163 2
    endloop
  endfacet
  facet normal 0 0 1
    outer loop
      vertex 55.747 81.9363 2
      vertex 52.208 80.8549 2
      vertex 57.4444 81.6078 2
    endloop
  endfacet
  facet normal 0 0 1
    outer loop
      vertex 57.4444 81.6078 2
      vertex 52.208 80.8549 2
      vertex 55.954 80.3163 2
    endloop
  endfacet
  facet normal 0 0 1
    outer loop
      vertex 55.747 85.0637 2
      vertex 56.5 83.5 2
      vertex 57.4444 85.3922 2
    endloop
  endfacet
  facet normal 0 0 1
    outer loop
      vertex 54.055 85.4499 2
      vertex 55.747 85.0637 2
      vertex 55.954 86.6837 2
    endloop
  endfacet
  facet normal 0 0 1
    outer loop
      vertex 51.1418 84.4861 2
      vertex 52.208 80.8549 2
      vertex 52.208 86.1451 2
    endloop
  endfacet
  facet normal 0 0 1
    outer loop
      vertex 51.1418 82.5139 2
      vertex 52.208 80.8549 2
      vertex 51.1418 84.4861 2
    endloop
  endfacet
  facet normal 0 0 1
    outer loop
      vertex 52.208 86.1451 2
      vertex 52.6981 84.3678 2
      vertex 54.0019 86.9644 2
    endloop
  endfacet
  facet normal 0 0 1
    outer loop
      vertex 52.208 86.1451 2
      vertex 52.208 80.8549 2
      vertex 52.6981 84.3678 2
    endloop
  endfacet
  facet normal 0 0 1
    outer loop
      vertex 54.0019 86.9644 2
      vertex 54.055 85.4499 2
      vertex 55.954 86.6837 2
    endloop
  endfacet
  facet normal 0 0 1
    outer loop
      vertex 55.954 86.6837 2
      vertex 55.747 85.0637 2
      vertex 57.4444 85.3922 2
    endloop
  endfacet
  facet normal 0 0 1
    outer loop
      vertex 57.4444 85.3922 2
      vertex 56.5 83.5 2
      vertex 58 83.5 2
    endloop
  endfacet
  facet normal 0 0 1
    outer loop
      vertex 58 83.5 2
      vertex 55.747 81.9363 2
      vertex 57.4444 81.6078 2
    endloop
  endfacet
  facet normal 0 0 1
    outer loop
      vertex 54.055 81.5501 2
      vertex 52.208 80.8549 2
      vertex 55.747 81.9363 2
    endloop
  endfacet
  facet normal 0 0 1
    outer loop
      vertex 56.5 83.5 2
      vertex 55.747 81.9363 2
      vertex 58 83.5 2
    endloop
  endfacet
  facet normal 0 0 1
    outer loop
      vertex 52.6981 84.3678 2
      vertex 52.208 80.8549 2
      vertex 52.6981 82.6322 2
    endloop
  endfacet
  facet normal 0 0 1
    outer loop
      vertex 52.6981 84.3678 2
      vertex 54.055 85.4499 2
      vertex 54.0019 86.9644 2
    endloop
  endfacet
  facet normal 0 0 1
    outer loop
      vertex 54.055 81.5501 2
      vertex 52.6981 82.6322 2
      vertex 52.208 80.8549 2
    endloop
  endfacet
  facet normal 1 0 0
    outer loop
      vertex 2.14177 26.4861 2
      vertex 2.14177 26.4861 4
      vertex 2.14177 24.5139 4
    endloop
  endfacet
  facet normal 1 0 0
    outer loop
      vertex 2.14177 24.5139 2
      vertex 2.14177 26.4861 2
      vertex 2.14177 24.5139 4
    endloop
  endfacet
  facet normal 0.841254 0.54064 0
    outer loop
      vertex 2.14177 24.5139 4
      vertex 3.20799 22.8549 4
      vertex 3.20799 22.8549 2
    endloop
  endfacet
  facet normal 0.841254 0.54064 0
    outer loop
      vertex 2.14177 24.5139 2
      vertex 2.14177 24.5139 4
      vertex 3.20799 22.8549 2
    endloop
  endfacet
  facet normal 0.415415 0.909632 0
    outer loop
      vertex 5.0019 22.0356 4
      vertex 5.0019 22.0356 2
      vertex 3.20799 22.8549 4
    endloop
  endfacet
  facet normal 0.415415 0.909632 0
    outer loop
      vertex 3.20799 22.8549 4
      vertex 5.0019 22.0356 2
      vertex 3.20799 22.8549 2
    endloop
  endfacet
  facet normal -0.142315 0.989821 0
    outer loop
      vertex 6.95395 22.3163 4
      vertex 6.95395 22.3163 2
      vertex 5.0019 22.0356 4
    endloop
  endfacet
  facet normal -0.142315 0.989821 0
    outer loop
      vertex 5.0019 22.0356 4
      vertex 6.95395 22.3163 2
      vertex 5.0019 22.0356 2
    endloop
  endfacet
  facet normal -0.654861 0.755749 0
    outer loop
      vertex 8.44439 23.6078 4
      vertex 8.44439 23.6078 2
      vertex 6.95395 22.3163 4
    endloop
  endfacet
  facet normal -0.654861 0.755749 0
    outer loop
      vertex 6.95395 22.3163 4
      vertex 8.44439 23.6078 2
      vertex 6.95395 22.3163 2
    endloop
  endfacet
  facet normal -0.959493 0.281733 0
    outer loop
      vertex 9 25.5 4
      vertex 9 25.5 2
      vertex 8.44439 23.6078 4
    endloop
  endfacet
  facet normal -0.959493 0.281733 0
    outer loop
      vertex 8.44439 23.6078 4
      vertex 9 25.5 2
      vertex 8.44439 23.6078 2
    endloop
  endfacet
  facet normal -0.959493 -0.281733 0
    outer loop
      vertex 9 25.5 4
      vertex 8.44439 27.3922 4
      vertex 9 25.5 2
    endloop
  endfacet
  facet normal -0.959493 -0.281733 0
    outer loop
      vertex 9 25.5 2
      vertex 8.44439 27.3922 4
      vertex 8.44439 27.3922 2
    endloop
  endfacet
  facet normal -0.654861 -0.755749 0
    outer loop
      vertex 8.44439 27.3922 2
      vertex 8.44439 27.3922 4
      vertex 6.95395 28.6837 4
    endloop
  endfacet
  facet normal -0.654861 -0.755749 0
    outer loop
      vertex 6.95395 28.6837 2
      vertex 8.44439 27.3922 2
      vertex 6.95395 28.6837 4
    endloop
  endfacet
  facet normal -0.142315 -0.989821 0
    outer loop
      vertex 6.95395 28.6837 2
      vertex 6.95395 28.6837 4
      vertex 5.0019 28.9644 4
    endloop
  endfacet
  facet normal -0.142315 -0.989821 0
    outer loop
      vertex 5.0019 28.9644 2
      vertex 6.95395 28.6837 2
      vertex 5.0019 28.9644 4
    endloop
  endfacet
  facet normal 0.415415 -0.909632 0
    outer loop
      vertex 5.0019 28.9644 2
      vertex 5.0019 28.9644 4
      vertex 3.20799 28.1451 4
    endloop
  endfacet
  facet normal 0.415415 -0.909632 0
    outer loop
      vertex 3.20799 28.1451 2
      vertex 5.0019 28.9644 2
      vertex 3.20799 28.1451 4
    endloop
  endfacet
  facet normal 0.841254 -0.54064 0
    outer loop
      vertex 3.20799 28.1451 2
      vertex 3.20799 28.1451 4
      vertex 2.14177 26.4861 4
    endloop
  endfacet
  facet normal 0.841254 -0.54064 0
    outer loop
      vertex 2.14177 26.4861 2
      vertex 3.20799 28.1451 2
      vertex 2.14177 26.4861 4
    endloop
  endfacet
  facet normal 1 0 0
    outer loop
      vertex 2.14177 84.4861 2
      vertex 2.14177 84.4861 4
      vertex 2.14177 82.5139 4
    endloop
  endfacet
  facet normal 1 0 0
    outer loop
      vertex 2.14177 82.5139 2
      vertex 2.14177 84.4861 2
      vertex 2.14177 82.5139 4
    endloop
  endfacet
  facet normal 0.841254 0.54064 0
    outer loop
      vertex 2.14177 82.5139 4
      vertex 3.20799 80.8549 4
      vertex 3.20799 80.8549 2
    endloop
  endfacet
  facet normal 0.841254 0.54064 0
    outer loop
      vertex 2.14177 82.5139 2
      vertex 2.14177 82.5139 4
      vertex 3.20799 80.8549 2
    endloop
  endfacet
  facet normal 0.415415 0.909632 0
    outer loop
      vertex 5.0019 80.0356 4
      vertex 5.0019 80.0356 2
      vertex 3.20799 80.8549 4
    endloop
  endfacet
  facet normal 0.415415 0.909632 0
    outer loop
      vertex 3.20799 80.8549 4
      vertex 5.0019 80.0356 2
      vertex 3.20799 80.8549 2
    endloop
  endfacet
  facet normal -0.142315 0.989821 0
    outer loop
      vertex 6.95395 80.3163 4
      vertex 6.95395 80.3163 2
      vertex 5.0019 80.0356 4
    endloop
  endfacet
  facet normal -0.142315 0.989821 0
    outer loop
      vertex 5.0019 80.0356 4
      vertex 6.95395 80.3163 2
      vertex 5.0019 80.0356 2
    endloop
  endfacet
  facet normal -0.654861 0.755749 0
    outer loop
      vertex 8.44439 81.6078 4
      vertex 8.44439 81.6078 2
      vertex 6.95395 80.3163 4
    endloop
  endfacet
  facet normal -0.654861 0.755749 0
    outer loop
      vertex 6.95395 80.3163 4
      vertex 8.44439 81.6078 2
      vertex 6.95395 80.3163 2
    endloop
  endfacet
  facet normal -0.959493 0.281733 0
    outer loop
      vertex 9 83.5 4
      vertex 9 83.5 2
      vertex 8.44439 81.6078 4
    endloop
  endfacet
  facet normal -0.959493 0.281733 0
    outer loop
      vertex 8.44439 81.6078 4
      vertex 9 83.5 2
      vertex 8.44439 81.6078 2
    endloop
  endfacet
  facet normal -0.959493 -0.281733 0
    outer loop
      vertex 9 83.5 4
      vertex 8.44439 85.3922 4
      vertex 9 83.5 2
    endloop
  endfacet
  facet normal -0.959493 -0.281733 0
    outer loop
      vertex 9 83.5 2
      vertex 8.44439 85.3922 4
      vertex 8.44439 85.3922 2
    endloop
  endfacet
  facet normal -0.654861 -0.755749 0
    outer loop
      vertex 8.44439 85.3922 2
      vertex 8.44439 85.3922 4
      vertex 6.95395 86.6837 4
    endloop
  endfacet
  facet normal -0.654861 -0.755749 0
    outer loop
      vertex 6.95395 86.6837 2
      vertex 8.44439 85.3922 2
      vertex 6.95395 86.6837 4
    endloop
  endfacet
  facet normal -0.142315 -0.989821 0
    outer loop
      vertex 6.95395 86.6837 2
      vertex 6.95395 86.6837 4
      vertex 5.0019 86.9644 4
    endloop
  endfacet
  facet normal -0.142315 -0.989821 0
    outer loop
      vertex 5.0019 86.9644 2
      vertex 6.95395 86.6837 2
      vertex 5.0019 86.9644 4
    endloop
  endfacet
  facet normal 0.415415 -0.909632 0
    outer loop
      vertex 5.0019 86.9644 2
      vertex 5.0019 86.9644 4
      vertex 3.20799 86.1451 4
    endloop
  endfacet
  facet normal 0.415415 -0.909632 0
    outer loop
      vertex 3.20799 86.1451 2
      vertex 5.0019 86.9644 2
      vertex 3.20799 86.1451 4
    endloop
  endfacet
  facet normal 0.841254 -0.54064 0
    outer loop
      vertex 3.20799 86.1451 2
      vertex 3.20799 86.1451 4
      vertex 2.14177 84.4861 4
    endloop
  endfacet
  facet normal 0.841254 -0.54064 0
    outer loop
      vertex 2.14177 84.4861 2
      vertex 3.20799 86.1451 2
      vertex 2.14177 84.4861 4
    endloop
  endfacet
  facet normal 0.994522 0.104529 0
    outer loop
      vertex 4.3 54 4
      vertex 4.86161 48.6567 4
      vertex 4.86161 48.6567 1.3
    endloop
  endfacet
  facet normal 0.994522 0.104529 0
    outer loop
      vertex 4.3 54 1.3
      vertex 4.3 54 4
      vertex 4.86161 48.6567 1.3
    endloop
  endfacet
  facet normal 0.951057 0.309017 0
    outer loop
      vertex 4.86161 48.6567 4
      vertex 6.52188 43.5469 4
      vertex 6.52188 43.5469 1.3
    endloop
  endfacet
  facet normal 0.951057 0.309017 0
    outer loop
      vertex 4.86161 48.6567 1.3
      vertex 4.86161 48.6567 4
      vertex 6.52188 43.5469 1.3
    endloop
  endfacet
  facet normal 0.866025 0.5 0
    outer loop
      vertex 6.52188 43.5469 4
      vertex 9.20826 38.8939 4
      vertex 9.20826 38.8939 1.3
    endloop
  endfacet
  facet normal 0.866025 0.5 0
    outer loop
      vertex 6.52188 43.5469 1.3
      vertex 6.52188 43.5469 4
      vertex 9.20826 38.8939 1.3
    endloop
  endfacet
  facet normal 0.743145 0.669131 0
    outer loop
      vertex 9.20826 38.8939 4
      vertex 12.8033 34.9012 4
      vertex 12.8033 34.9012 1.3
    endloop
  endfacet
  facet normal 0.743145 0.669131 0
    outer loop
      vertex 9.20826 38.8939 1.3
      vertex 9.20826 38.8939 4
      vertex 12.8033 34.9012 1.3
    endloop
  endfacet
  facet normal 0.587785 0.809017 0
    outer loop
      vertex 17.15 31.7431 4
      vertex 17.15 31.7431 1.3
      vertex 12.8033 34.9012 4
    endloop
  endfacet
  facet normal 0.587785 0.809017 0
    outer loop
      vertex 12.8033 34.9012 4
      vertex 17.15 31.7431 1.3
      vertex 12.8033 34.9012 1.3
    endloop
  endfacet
  facet normal 0.406737 0.913545 0
    outer loop
      vertex 22.0583 29.5578 4
      vertex 22.0583 29.5578 1.3
      vertex 17.15 31.7431 4
    endloop
  endfacet
  facet normal 0.406737 0.913545 0
    outer loop
      vertex 17.15 31.7431 4
      vertex 22.0583 29.5578 1.3
      vertex 17.15 31.7431 1.3
    endloop
  endfacet
  facet normal 0.207912 0.978148 0
    outer loop
      vertex 27.3136 28.4408 4
      vertex 27.3136 28.4408 1.3
      vertex 22.0583 29.5578 4
    endloop
  endfacet
  facet normal 0.207912 0.978148 0
    outer loop
      vertex 22.0583 29.5578 4
      vertex 27.3136 28.4408 1.3
      vertex 22.0583 29.5578 1.3
    endloop
  endfacet
  facet normal 0 1 0
    outer loop
      vertex 32.6864 28.4408 4
      vertex 32.6864 28.4408 1.3
      vertex 27.3136 28.4408 4
    endloop
  endfacet
  facet normal 0 1 0
    outer loop
      vertex 27.3136 28.4408 4
      vertex 32.6864 28.4408 1.3
      vertex 27.3136 28.4408 1.3
    endloop
  endfacet
  facet normal -0.207912 0.978148 0
    outer loop
      vertex 37.9417 29.5578 4
      vertex 37.9417 29.5578 1.3
      vertex 32.6864 28.4408 4
    endloop
  endfacet
  facet normal -0.207912 0.978148 0
    outer loop
      vertex 32.6864 28.4408 4
      vertex 37.9417 29.5578 1.3
      vertex 32.6864 28.4408 1.3
    endloop
  endfacet
  facet normal -0.406737 0.913545 0
    outer loop
      vertex 42.85 31.7431 4
      vertex 42.85 31.7431 1.3
      vertex 37.9417 29.5578 4
    endloop
  endfacet
  facet normal -0.406737 0.913545 0
    outer loop
      vertex 37.9417 29.5578 4
      vertex 42.85 31.7431 1.3
      vertex 37.9417 29.5578 1.3
    endloop
  endfacet
  facet normal -0.587785 0.809017 0
    outer loop
      vertex 47.1967 34.9012 4
      vertex 47.1967 34.9012 1.3
      vertex 42.85 31.7431 4
    endloop
  endfacet
  facet normal -0.587785 0.809017 0
    outer loop
      vertex 42.85 31.7431 4
      vertex 47.1967 34.9012 1.3
      vertex 42.85 31.7431 1.3
    endloop
  endfacet
  facet normal -0.743145 0.669131 0
    outer loop
      vertex 50.7917 38.8939 4
      vertex 50.7917 38.8939 1.3
      vertex 47.1967 34.9012 4
    endloop
  endfacet
  facet normal -0.743145 0.669131 0
    outer loop
      vertex 47.1967 34.9012 4
      vertex 50.7917 38.8939 1.3
      vertex 47.1967 34.9012 1.3
    endloop
  endfacet
  facet normal -0.866025 0.5 0
    outer loop
      vertex 53.4781 43.5469 4
      vertex 53.4781 43.5469 1.3
      vertex 50.7917 38.8939 4
    endloop
  endfacet
  facet normal -0.866025 0.5 0
    outer loop
      vertex 50.7917 38.8939 4
      vertex 53.4781 43.5469 1.3
      vertex 50.7917 38.8939 1.3
    endloop
  endfacet
  facet normal -0.951057 0.309017 0
    outer loop
      vertex 55.1384 48.6567 4
      vertex 55.1384 48.6567 1.3
      vertex 53.4781 43.5469 4
    endloop
  endfacet
  facet normal -0.951057 0.309017 0
    outer loop
      vertex 53.4781 43.5469 4
      vertex 55.1384 48.6567 1.3
      vertex 53.4781 43.5469 1.3
    endloop
  endfacet
  facet normal -0.994522 0.104529 0
    outer loop
      vertex 55.7 54 4
      vertex 55.7 54 1.3
      vertex 55.1384 48.6567 4
    endloop
  endfacet
  facet normal -0.994522 0.104529 0
    outer loop
      vertex 55.1384 48.6567 4
      vertex 55.7 54 1.3
      vertex 55.1384 48.6567 1.3
    endloop
  endfacet
  facet normal -0.994522 -0.104529 0
    outer loop
      vertex 55.7 54 4
      vertex 55.1384 59.3433 4
      vertex 55.7 54 1.3
    endloop
  endfacet
  facet normal -0.994522 -0.104529 0
    outer loop
      vertex 55.7 54 1.3
      vertex 55.1384 59.3433 4
      vertex 55.1384 59.3433 1.3
    endloop
  endfacet
  facet normal -0.951057 -0.309017 0
    outer loop
      vertex 55.1384 59.3433 4
      vertex 53.4781 64.4531 4
      vertex 55.1384 59.3433 1.3
    endloop
  endfacet
  facet normal -0.951057 -0.309017 0
    outer loop
      vertex 55.1384 59.3433 1.3
      vertex 53.4781 64.4531 4
      vertex 53.4781 64.4531 1.3
    endloop
  endfacet
  facet normal -0.866025 -0.5 0
    outer loop
      vertex 53.4781 64.4531 4
      vertex 50.7917 69.1061 4
      vertex 53.4781 64.4531 1.3
    endloop
  endfacet
  facet normal -0.866025 -0.5 0
    outer loop
      vertex 53.4781 64.4531 1.3
      vertex 50.7917 69.1061 4
      vertex 50.7917 69.1061 1.3
    endloop
  endfacet
  facet normal -0.743145 -0.669131 0
    outer loop
      vertex 50.7917 69.1061 4
      vertex 47.1967 73.0988 4
      vertex 50.7917 69.1061 1.3
    endloop
  endfacet
  facet normal -0.743145 -0.669131 0
    outer loop
      vertex 50.7917 69.1061 1.3
      vertex 47.1967 73.0988 4
      vertex 47.1967 73.0988 1.3
    endloop
  endfacet
  facet normal -0.587785 -0.809017 0
    outer loop
      vertex 47.1967 73.0988 1.3
      vertex 47.1967 73.0988 4
      vertex 42.85 76.2569 4
    endloop
  endfacet
  facet normal -0.587785 -0.809017 0
    outer loop
      vertex 42.85 76.2569 1.3
      vertex 47.1967 73.0988 1.3
      vertex 42.85 76.2569 4
    endloop
  endfacet
  facet normal -0.406737 -0.913545 0
    outer loop
      vertex 42.85 76.2569 1.3
      vertex 42.85 76.2569 4
      vertex 37.9417 78.4422 4
    endloop
  endfacet
  facet normal -0.406737 -0.913545 0
    outer loop
      vertex 37.9417 78.4422 1.3
      vertex 42.85 76.2569 1.3
      vertex 37.9417 78.4422 4
    endloop
  endfacet
  facet normal -0.207912 -0.978148 0
    outer loop
      vertex 37.9417 78.4422 1.3
      vertex 37.9417 78.4422 4
      vertex 32.6864 79.5592 4
    endloop
  endfacet
  facet normal -0.207912 -0.978148 0
    outer loop
      vertex 32.6864 79.5592 1.3
      vertex 37.9417 78.4422 1.3
      vertex 32.6864 79.5592 4
    endloop
  endfacet
  facet normal 0 -1 0
    outer loop
      vertex 32.6864 79.5592 1.3
      vertex 32.6864 79.5592 4
      vertex 27.3136 79.5592 4
    endloop
  endfacet
  facet normal 0 -1 0
    outer loop
      vertex 27.3136 79.5592 1.3
      vertex 32.6864 79.5592 1.3
      vertex 27.3136 79.5592 4
    endloop
  endfacet
  facet normal 0.207912 -0.978148 0
    outer loop
      vertex 27.3136 79.5592 1.3
      vertex 27.3136 79.5592 4
      vertex 22.0583 78.4422 4
    endloop
  endfacet
  facet normal 0.207912 -0.978148 0
    outer loop
      vertex 22.0583 78.4422 1.3
      vertex 27.3136 79.5592 1.3
      vertex 22.0583 78.4422 4
    endloop
  endfacet
  facet normal 0.406737 -0.913545 0
    outer loop
      vertex 22.0583 78.4422 1.3
      vertex 22.0583 78.4422 4
      vertex 17.15 76.2569 4
    endloop
  endfacet
  facet normal 0.406737 -0.913545 0
    outer loop
      vertex 17.15 76.2569 1.3
      vertex 22.0583 78.4422 1.3
      vertex 17.15 76.2569 4
    endloop
  endfacet
  facet normal 0.587785 -0.809017 0
    outer loop
      vertex 17.15 76.2569 1.3
      vertex 17.15 76.2569 4
      vertex 12.8033 73.0988 4
    endloop
  endfacet
  facet normal 0.587785 -0.809017 0
    outer loop
      vertex 12.8033 73.0988 1.3
      vertex 17.15 76.2569 1.3
      vertex 12.8033 73.0988 4
    endloop
  endfacet
  facet normal 0.743145 -0.669131 0
    outer loop
      vertex 12.8033 73.0988 1.3
      vertex 12.8033 73.0988 4
      vertex 9.20826 69.1061 4
    endloop
  endfacet
  facet normal 0.743145 -0.669131 0
    outer loop
      vertex 9.20826 69.1061 1.3
      vertex 12.8033 73.0988 1.3
      vertex 9.20826 69.1061 4
    endloop
  endfacet
  facet normal 0.866025 -0.5 0
    outer loop
      vertex 9.20826 69.1061 1.3
      vertex 9.20826 69.1061 4
      vertex 6.52188 64.4531 4
    endloop
  endfacet
  facet normal 0.866025 -0.5 0
    outer loop
      vertex 6.52188 64.4531 1.3
      vertex 9.20826 69.1061 1.3
      vertex 6.52188 64.4531 4
    endloop
  endfacet
  facet normal 0.951057 -0.309017 0
    outer loop
      vertex 6.52188 64.4531 1.3
      vertex 6.52188 64.4531 4
      vertex 4.86161 59.3433 4
    endloop
  endfacet
  facet normal 0.951057 -0.309017 0
    outer loop
      vertex 4.86161 59.3433 1.3
      vertex 6.52188 64.4531 1.3
      vertex 4.86161 59.3433 4
    endloop
  endfacet
  facet normal 0.994522 -0.104529 0
    outer loop
      vertex 4.86161 59.3433 1.3
      vertex 4.86161 59.3433 4
      vertex 4.3 54 4
    endloop
  endfacet
  facet normal 0.994522 -0.104529 0
    outer loop
      vertex 4.3 54 1.3
      vertex 4.86161 59.3433 1.3
      vertex 4.3 54 4
    endloop
  endfacet
  facet normal 1 0 0
    outer loop
      vertex 51.1418 26.4861 2
      vertex 51.1418 26.4861 4
      vertex 51.1418 24.5139 4
    endloop
  endfacet
  facet normal 1 0 0
    outer loop
      vertex 51.1418 24.5139 2
      vertex 51.1418 26.4861 2
      vertex 51.1418 24.5139 4
    endloop
  endfacet
  facet normal 0.841254 0.54064 0
    outer loop
      vertex 51.1418 24.5139 4
      vertex 52.208 22.8549 4
      vertex 52.208 22.8549 2
    endloop
  endfacet
  facet normal 0.841254 0.54064 0
    outer loop
      vertex 51.1418 24.5139 2
      vertex 51.1418 24.5139 4
      vertex 52.208 22.8549 2
    endloop
  endfacet
  facet normal 0.415415 0.909632 0
    outer loop
      vertex 54.0019 22.0356 4
      vertex 54.0019 22.0356 2
      vertex 52.208 22.8549 4
    endloop
  endfacet
  facet normal 0.415415 0.909632 0
    outer loop
      vertex 52.208 22.8549 4
      vertex 54.0019 22.0356 2
      vertex 52.208 22.8549 2
    endloop
  endfacet
  facet normal -0.142315 0.989821 0
    outer loop
      vertex 55.954 22.3163 4
      vertex 55.954 22.3163 2
      vertex 54.0019 22.0356 4
    endloop
  endfacet
  facet normal -0.142315 0.989821 0
    outer loop
      vertex 54.0019 22.0356 4
      vertex 55.954 22.3163 2
      vertex 54.0019 22.0356 2
    endloop
  endfacet
  facet normal -0.654861 0.755749 0
    outer loop
      vertex 57.4444 23.6078 4
      vertex 57.4444 23.6078 2
      vertex 55.954 22.3163 4
    endloop
  endfacet
  facet normal -0.654861 0.755749 0
    outer loop
      vertex 55.954 22.3163 4
      vertex 57.4444 23.6078 2
      vertex 55.954 22.3163 2
    endloop
  endfacet
  facet normal -0.959493 0.281733 0
    outer loop
      vertex 58 25.5 4
      vertex 58 25.5 2
      vertex 57.4444 23.6078 4
    endloop
  endfacet
  facet normal -0.959493 0.281733 0
    outer loop
      vertex 57.4444 23.6078 4
      vertex 58 25.5 2
      vertex 57.4444 23.6078 2
    endloop
  endfacet
  facet normal -0.959493 -0.281733 0
    outer loop
      vertex 58 25.5 4
      vertex 57.4444 27.3922 4
      vertex 58 25.5 2
    endloop
  endfacet
  facet normal -0.959493 -0.281733 0
    outer loop
      vertex 58 25.5 2
      vertex 57.4444 27.3922 4
      vertex 57.4444 27.3922 2
    endloop
  endfacet
  facet normal -0.654861 -0.755749 0
    outer loop
      vertex 57.4444 27.3922 2
      vertex 57.4444 27.3922 4
      vertex 55.954 28.6837 4
    endloop
  endfacet
  facet normal -0.654861 -0.755749 0
    outer loop
      vertex 55.954 28.6837 2
      vertex 57.4444 27.3922 2
      vertex 55.954 28.6837 4
    endloop
  endfacet
  facet normal -0.142315 -0.989821 0
    outer loop
      vertex 55.954 28.6837 2
      vertex 55.954 28.6837 4
      vertex 54.0019 28.9644 4
    endloop
  endfacet
  facet normal -0.142315 -0.989821 0
    outer loop
      vertex 54.0019 28.9644 2
      vertex 55.954 28.6837 2
      vertex 54.0019 28.9644 4
    endloop
  endfacet
  facet normal 0.415415 -0.909632 0
    outer loop
      vertex 54.0019 28.9644 2
      vertex 54.0019 28.9644 4
      vertex 52.208 28.1451 4
    endloop
  endfacet
  facet normal 0.415415 -0.909632 0
    outer loop
      vertex 52.208 28.1451 2
      vertex 54.0019 28.9644 2
      vertex 52.208 28.1451 4
    endloop
  endfacet
  facet normal 0.841254 -0.54064 0
    outer loop
      vertex 52.208 28.1451 2
      vertex 52.208 28.1451 4
      vertex 51.1418 26.4861 4
    endloop
  endfacet
  facet normal 0.841254 -0.54064 0
    outer loop
      vertex 51.1418 26.4861 2
      vertex 52.208 28.1451 2
      vertex 51.1418 26.4861 4
    endloop
  endfacet
  facet normal 1 0 0
    outer loop
      vertex 51.1418 84.4861 2
      vertex 51.1418 84.4861 4
      vertex 51.1418 82.5139 4
    endloop
  endfacet
  facet normal 1 0 0
    outer loop
      vertex 51.1418 82.5139 2
      vertex 51.1418 84.4861 2
      vertex 51.1418 82.5139 4
    endloop
  endfacet
  facet normal 0.841254 0.54064 0
    outer loop
      vertex 51.1418 82.5139 4
      vertex 52.208 80.8549 4
      vertex 52.208 80.8549 2
    endloop
  endfacet
  facet normal 0.841254 0.54064 0
    outer loop
      vertex 51.1418 82.5139 2
      vertex 51.1418 82.5139 4
      vertex 52.208 80.8549 2
    endloop
  endfacet
  facet normal 0.415415 0.909632 0
    outer loop
      vertex 54.0019 80.0356 4
      vertex 54.0019 80.0356 2
      vertex 52.208 80.8549 4
    endloop
  endfacet
  facet normal 0.415415 0.909632 0
    outer loop
      vertex 52.208 80.8549 4
      vertex 54.0019 80.0356 2
      vertex 52.208 80.8549 2
    endloop
  endfacet
  facet normal -0.142315 0.989821 0
    outer loop
      vertex 55.954 80.3163 4
      vertex 55.954 80.3163 2
      vertex 54.0019 80.0356 4
    endloop
  endfacet
  facet normal -0.142315 0.989821 0
    outer loop
      vertex 54.0019 80.0356 4
      vertex 55.954 80.3163 2
      vertex 54.0019 80.0356 2
    endloop
  endfacet
  facet normal -0.654861 0.755749 0
    outer loop
      vertex 57.4444 81.6078 4
      vertex 57.4444 81.6078 2
      vertex 55.954 80.3163 4
    endloop
  endfacet
  facet normal -0.654861 0.755749 0
    outer loop
      vertex 55.954 80.3163 4
      vertex 57.4444 81.6078 2
      vertex 55.954 80.3163 2
    endloop
  endfacet
  facet normal -0.959493 0.281733 0
    outer loop
      vertex 58 83.5 4
      vertex 58 83.5 2
      vertex 57.4444 81.6078 4
    endloop
  endfacet
  facet normal -0.959493 0.281733 0
    outer loop
      vertex 57.4444 81.6078 4
      vertex 58 83.5 2
      vertex 57.4444 81.6078 2
    endloop
  endfacet
  facet normal -0.959493 -0.281733 0
    outer loop
      vertex 58 83.5 4
      vertex 57.4444 85.3922 4
      vertex 58 83.5 2
    endloop
  endfacet
  facet normal -0.959493 -0.281733 0
    outer loop
      vertex 58 83.5 2
      vertex 57.4444 85.3922 4
      vertex 57.4444 85.3922 2
    endloop
  endfacet
  facet normal -0.654861 -0.755749 0
    outer loop
      vertex 57.4444 85.3922 2
      vertex 57.4444 85.3922 4
      vertex 55.954 86.6837 4
    endloop
  endfacet
  facet normal -0.654861 -0.755749 0
    outer loop
      vertex 55.954 86.6837 2
      vertex 57.4444 85.3922 2
      vertex 55.954 86.6837 4
    endloop
  endfacet
  facet normal -0.142315 -0.989821 0
    outer loop
      vertex 55.954 86.6837 2
      vertex 55.954 86.6837 4
      vertex 54.0019 86.9644 4
    endloop
  endfacet
  facet normal -0.142315 -0.989821 0
    outer loop
      vertex 54.0019 86.9644 2
      vertex 55.954 86.6837 2
      vertex 54.0019 86.9644 4
    endloop
  endfacet
  facet normal 0.415415 -0.909632 0
    outer loop
      vertex 54.0019 86.9644 2
      vertex 54.0019 86.9644 4
      vertex 52.208 86.1451 4
    endloop
  endfacet
  facet normal 0.415415 -0.909632 0
    outer loop
      vertex 52.208 86.1451 2
      vertex 54.0019 86.9644 2
      vertex 52.208 86.1451 4
    endloop
  endfacet
  facet normal 0.841254 -0.54064 0
    outer loop
      vertex 52.208 86.1451 2
      vertex 52.208 86.1451 4
      vertex 51.1418 84.4861 4
    endloop
  endfacet
  facet normal 0.841254 -0.54064 0
    outer loop
      vertex 51.1418 84.4861 2
      vertex 52.208 86.1451 2
      vertex 51.1418 84.4861 4
    endloop
  endfacet
  facet normal -1 0 0
    outer loop
      vertex 40 64 2.5
      vertex 40 64 1.3
      vertex 40 44 2.5
    endloop
  endfacet
  facet normal -1 0 0
    outer loop
      vertex 40 44 2.5
      vertex 40 64 1.3
      vertex 40 44 1.3
    endloop
  endfacet
  facet normal 0 1 0
    outer loop
      vertex 40 44 2.5
      vertex 40 44 1.3
      vertex 20 44 2.5
    endloop
  endfacet
  facet normal 0 1 0
    outer loop
      vertex 20 44 2.5
      vertex 40 44 1.3
      vertex 20 44 1.3
    endloop
  endfacet
  facet normal 1 0 0
    outer loop
      vertex 20 64 1.3
      vertex 20 64 2.5
      vertex 20 44 2.5
    endloop
  endfacet
  facet normal 1 0 0
    outer loop
      vertex 20 44 1.3
      vertex 20 64 1.3
      vertex 20 44 2.5
    endloop
  endfacet
  facet normal 0 -1 0
    outer loop
      vertex 40 64 1.3
      vertex 40 64 2.5
      vertex 20 64 2.5
    endloop
  endfacet
  facet normal 0 -1 0
    outer loop
      vertex 20 64 1.3
      vertex 40 64 1.3
      vertex 20 64 2.5
    endloop
  endfacet
  facet normal 0 0 1
    outer loop
      vertex 4.86161 48.6567 1.3
      vertex 6.52188 43.5469 1.3
      vertex 9.20826 38.8939 1.3
    endloop
  endfacet
  facet normal 0 0 1
    outer loop
      vertex 17.15 31.7431 1.3
      vertex 4.86161 48.6567 1.3
      vertex 12.8033 34.9012 1.3
    endloop
  endfacet
  facet normal 0 0 1
    outer loop
      vertex 12.8033 34.9012 1.3
      vertex 4.86161 48.6567 1.3
      vertex 9.20826 38.8939 1.3
    endloop
  endfacet
  facet normal 0 0 1
    outer loop
      vertex 22.0583 29.5578 1.3
      vertex 4.86161 48.6567 1.3
      vertex 17.15 31.7431 1.3
    endloop
  endfacet
  facet normal 0 0 1
    outer loop
      vertex 27.3136 28.4408 1.3
      vertex 4.86161 48.6567 1.3
      vertex 22.0583 29.5578 1.3
    endloop
  endfacet
  facet normal 0 0 1
    outer loop
      vertex 32.6864 28.4408 1.3
      vertex 4.86161 48.6567 1.3
      vertex 27.3136 28.4408 1.3
    endloop
  endfacet
  facet normal 0 0 1
    outer loop
      vertex 37.9417 29.5578 1.3
      vertex 4.86161 48.6567 1.3
      vertex 32.6864 28.4408 1.3
    endloop
  endfacet
  facet normal 0 0 1
    outer loop
      vertex 42.85 31.7431 1.3
      vertex 4.86161 48.6567 1.3
      vertex 37.9417 29.5578 1.3
    endloop
  endfacet
  facet normal 0 0 1
    outer loop
      vertex 19 43 1.3
      vertex 4.86161 48.6567 1.3
      vertex 42.85 31.7431 1.3
    endloop
  endfacet
  facet normal 0 0 1
    outer loop
      vertex 41 65 1.3
      vertex 41 43 1.3
      vertex 53.4781 43.5469 1.3
    endloop
  endfacet
  facet normal 0 0 1
    outer loop
      vertex 41 65 1.3
      vertex 55.1384 48.6567 1.3
      vertex 55.7 54 1.3
    endloop
  endfacet
  facet normal 0 0 1
    outer loop
      vertex 41 65 1.3
      vertex 55.7 54 1.3
      vertex 55.1384 59.3433 1.3
    endloop
  endfacet
  facet normal 0 0 1
    outer loop
      vertex 41 65 1.3
      vertex 55.1384 59.3433 1.3
      vertex 53.4781 64.4531 1.3
    endloop
  endfacet
  facet normal 0 0 1
    outer loop
      vertex 22.0583 78.4422 1.3
      vertex 4.86161 48.6567 1.3
      vertex 27.3136 79.5592 1.3
    endloop
  endfacet
  facet normal 0 0 1
    outer loop
      vertex 17.15 76.2569 1.3
      vertex 4.86161 48.6567 1.3
      vertex 22.0583 78.4422 1.3
    endloop
  endfacet
  facet normal 0 0 1
    outer loop
      vertex 12.8033 73.0988 1.3
      vertex 4.86161 48.6567 1.3
      vertex 17.15 76.2569 1.3
    endloop
  endfacet
  facet normal 0 0 1
    outer loop
      vertex 9.20826 69.1061 1.3
      vertex 4.86161 48.6567 1.3
      vertex 12.8033 73.0988 1.3
    endloop
  endfacet
  facet normal 0 0 1
    outer loop
      vertex 6.52188 64.4531 1.3
      vertex 4.86161 48.6567 1.3
      vertex 9.20826 69.1061 1.3
    endloop
  endfacet
  facet normal 0 0 1
    outer loop
      vertex 4.86161 59.3433 1.3
      vertex 4.86161 48.6567 1.3
      vertex 6.52188 64.4531 1.3
    endloop
  endfacet
  facet normal 0 0 1
    outer loop
      vertex 4.3 54 1.3
      vertex 4.86161 48.6567 1.3
      vertex 4.86161 59.3433 1.3
    endloop
  endfacet
  facet normal 0 0 1
    outer loop
      vertex 27.3136 79.5592 1.3
      vertex 19 65 1.3
      vertex 32.6864 79.5592 1.3
    endloop
  endfacet
  facet normal 0 0 1
    outer loop
      vertex 27.3136 79.5592 1.3
      vertex 4.86161 48.6567 1.3
      vertex 19 65 1.3
    endloop
  endfacet
  facet normal 0 0 1
    outer loop
      vertex 47.1967 73.0988 1.3
      vertex 41 65 1.3
      vertex 50.7917 69.1061 1.3
    endloop
  endfacet
  facet normal 0 0 1
    outer loop
      vertex 41 65 1.3
      vertex 53.4781 43.5469 1.3
      vertex 55.1384 48.6567 1.3
    endloop
  endfacet
  facet normal 0 0 1
    outer loop
      vertex 53.4781 43.5469 1.3
      vertex 41 43 1.3
      vertex 50.7917 38.8939 1.3
    endloop
  endfacet
  facet normal 0 0 1
    outer loop
      vertex 47.1967 34.9012 1.3
      vertex 19 43 1.3
      vertex 42.85 31.7431 1.3
    endloop
  endfacet
  facet normal 0 0 1
    outer loop
      vertex 19 65 1.3
      vertex 37.9417 78.4422 1.3
      vertex 32.6864 79.5592 1.3
    endloop
  endfacet
  facet normal 0 0 1
    outer loop
      vertex 19 65 1.3
      vertex 42.85 76.2569 1.3
      vertex 37.9417 78.4422 1.3
    endloop
  endfacet
  facet normal 0 0 1
    outer loop
      vertex 19 65 1.3
      vertex 47.1967 73.0988 1.3
      vertex 42.85 76.2569 1.3
    endloop
  endfacet
  facet normal 0 0 1
    outer loop
      vertex 19 65 1.3
      vertex 41 65 1.3
      vertex 47.1967 73.0988 1.3
    endloop
  endfacet
  facet normal 0 0 1
    outer loop
      vertex 41 65 1.3
      vertex 53.4781 64.4531 1.3
      vertex 50.7917 69.1061 1.3
    endloop
  endfacet
  facet normal 0 0 1
    outer loop
      vertex 41 43 1.3
      vertex 19 43 1.3
      vertex 47.1967 34.9012 1.3
    endloop
  endfacet
  facet normal 0 0 1
    outer loop
      vertex 41 43 1.3
      vertex 47.1967 34.9012 1.3
      vertex 50.7917 38.8939 1.3
    endloop
  endfacet
  facet normal 0 0 1
    outer loop
      vertex 19 43 1.3
      vertex 19 65 1.3
      vertex 4.86161 48.6567 1.3
    endloop
  endfacet
  facet normal 0 0 1
    outer loop
      vertex 20 44 2.5
      vertex 19 43 2.5
      vertex 41 43 2.5
    endloop
  endfacet
  facet normal 0 0 1
    outer loop
      vertex 20 64 2.5
      vertex 19 65 2.5
      vertex 20 44 2.5
    endloop
  endfacet
  facet normal 0 0 1
    outer loop
      vertex 40 44 2.5
      vertex 20 44 2.5
      vertex 41 43 2.5
    endloop
  endfacet
  facet normal 0 0 1
    outer loop
      vertex 19 65 2.5
      vertex 19 43 2.5
      vertex 20 44 2.5
    endloop
  endfacet
  facet normal 0 0 1
    outer loop
      vertex 41 65 2.5
      vertex 19 65 2.5
      vertex 20 64 2.5
    endloop
  endfacet
  facet normal 0 0 1
    outer loop
      vertex 41 65 2.5
      vertex 40 64 2.5
      vertex 41 43 2.5
    endloop
  endfacet
  facet normal 0 0 1
    outer loop
      vertex 41 65 2.5
      vertex 20 64 2.5
      vertex 40 64 2.5
    endloop
  endfacet
  facet normal 0 0 1
    outer loop
      vertex 40 64 2.5
      vertex 40 44 2.5
      vertex 41 43 2.5
    endloop
  endfacet
  facet normal -1 0 0
    outer loop
      vertex 19 43 1.3
      vertex 19 43 2.5
      vertex 19 65 1.3
    endloop
  endfacet
  facet normal -1 0 0
    outer loop
      vertex 19 65 1.3
      vertex 19 43 2.5
      vertex 19 65 2.5
    endloop
  endfacet
  facet normal 0 1 0
    outer loop
      vertex 19 65 1.3
      vertex 19 65 2.5
      vertex 41 65 1.3
    endloop
  endfacet
  facet normal 0 1 0
    outer loop
      vertex 41 65 1.3
      vertex 19 65 2.5
      vertex 41 65 2.5
    endloop
  endfacet
  facet normal 0 -1 0
    outer loop
      vertex 19 43 2.5
      vertex 19 43 1.3
      vertex 41 43 1.3
    endloop
  endfacet
  facet normal 0 -1 0
    outer loop
      vertex 41 43 2.5
      vertex 19 43 2.5
      vertex 41 43 1.3
    endloop
  endfacet
  facet normal 1 0 0
    outer loop
      vertex 41 43 2.5
      vertex 41 43 1.3
      vertex 41 65 1.3
    endloop
  endfacet
  facet normal 1 0 0
    outer loop
      vertex 41 65 2.5
      vertex 41 43 2.5
      vertex 41 65 1.3
    endloop
  endfacet
endsolid OpenSCAD_Model
