solid OpenSCAD_Model
  facet normal 0 0 -1
    outer loop
      vertex -28 0 0
      vertex -27.3881 5.82153 0
      vertex -27.3881 -5.82153 0
    endloop
  endfacet
  facet normal 0 0 -1
    outer loop
      vertex -27.3881 -5.82153 0
      vertex -27.3881 5.82153 0
      vertex -25.5793 11.3886 0
    endloop
  endfacet
  facet normal 0 0 -1
    outer loop
      vertex -25.4318 5.4057 0
      vertex -25.5793 11.3886 0
      vertex -22.6525 16.458 0
    endloop
  endfacet
  facet normal 0 0 -1
    outer loop
      vertex -21.0344 15.2824 0
      vertex -22.6525 16.458 0
      vertex -18.7357 20.8081 0
    endloop
  endfacet
  facet normal 0 0 -1
    outer loop
      vertex -17.3974 19.3218 0
      vertex -18.7357 20.8081 0
      vertex -14 24.2487 0
    endloop
  endfacet
  facet normal 0 0 -1
    outer loop
      vertex -13 22.5167 0
      vertex -14 24.2487 0
      vertex -8.65248 26.6296 0
    endloop
  endfacet
  facet normal 0 0 -1
    outer loop
      vertex -8.03444 24.7275 0
      vertex -8.65248 26.6296 0
      vertex -2.9268 27.8466 0
    endloop
  endfacet
  facet normal 0 0 -1
    outer loop
      vertex -2.71774 25.8576 0
      vertex -2.9268 27.8466 0
      vertex 2.9268 27.8466 0
    endloop
  endfacet
  facet normal 0 0 -1
    outer loop
      vertex 2.71774 25.8576 0
      vertex 2.9268 27.8466 0
      vertex 8.65248 26.6296 0
    endloop
  endfacet
  facet normal 0 0 -1
    outer loop
      vertex 8.03444 24.7275 0
      vertex 8.65248 26.6296 0
      vertex 14 24.2487 0
    endloop
  endfacet
  facet normal 0 0 -1
    outer loop
      vertex 13 22.5167 0
      vertex 14 24.2487 0
      vertex 18.7357 20.8081 0
    endloop
  endfacet
  facet normal 0 0 -1
    outer loop
      vertex 17.3974 19.3218 0
      vertex 18.7357 20.8081 0
      vertex 22.6525 16.458 0
    endloop
  endfacet
  facet normal 0 0 -1
    outer loop
      vertex 21.0344 15.2824 0
      vertex 22.6525 16.458 0
      vertex 25.5793 11.3886 0
    endloop
  endfacet
  facet normal 0 0 -1
    outer loop
      vertex 25.4318 5.4057 0
      vertex 25.5793 11.3886 0
      vertex 27.3881 5.82153 0
    endloop
  endfacet
  facet normal 0 0 -1
    outer loop
      vertex 26 0 0
      vertex 27.3881 5.82153 0
      vertex 28 0 0
    endloop
  endfacet
  facet normal 0 0 -1
    outer loop
      vertex 25.4318 -5.4057 0
      vertex 28 0 0
      vertex 27.3881 -5.82153 0
    endloop
  endfacet
  facet normal 0 0 -1
    outer loop
      vertex 23.7522 -10.5752 0
      vertex 27.3881 -5.82153 0
      vertex 25.5793 -11.3886 0
    endloop
  endfacet
  facet normal 0 0 -1
    outer loop
      vertex 21.0344 -15.2824 0
      vertex 25.5793 -11.3886 0
      vertex 22.6525 -16.458 0
    endloop
  endfacet
  facet normal 0 0 -1
    outer loop
      vertex 17.3974 -19.3218 0
      vertex 22.6525 -16.458 0
      vertex 18.7357 -20.8081 0
    endloop
  endfacet
  facet normal 0 0 -1
    outer loop
      vertex 13 -22.5167 0
      vertex 18.7357 -20.8081 0
      vertex 14 -24.2487 0
    endloop
  endfacet
  facet normal 0 0 -1
    outer loop
      vertex 8.03444 -24.7275 0
      vertex 14 -24.2487 0
      vertex 8.65248 -26.6296 0
    endloop
  endfacet
  facet normal 0 0 -1
    outer loop
      vertex 2.71774 -25.8576 0
      vertex 8.65248 -26.6296 0
      vertex 2.9268 -27.8466 0
    endloop
  endfacet
  facet normal 0 0 -1
    outer loop
      vertex -2.71774 -25.8576 0
      vertex 2.9268 -27.8466 0
      vertex -2.9268 -27.8466 0
    endloop
  endfacet
  facet normal 0 0 -1
    outer loop
      vertex -8.03444 -24.7275 0
      vertex -2.9268 -27.8466 0
      vertex -8.65248 -26.6296 0
    endloop
  endfacet
  facet normal 0 0 -1
    outer loop
      vertex -17.3974 -19.3218 0
      vertex -8.65248 -26.6296 0
      vertex -14 -24.2487 0
    endloop
  endfacet
  facet normal 0 0 -1
    outer loop
      vertex -21.0344 -15.2824 0
      vertex -14 -24.2487 0
      vertex -18.7357 -20.8081 0
    endloop
  endfacet
  facet normal 0 0 -1
    outer loop
      vertex -27.3881 -5.82153 0
      vertex -18.7357 -20.8081 0
      vertex -22.6525 -16.458 0
    endloop
  endfacet
  facet normal 0 0 -1
    outer loop
      vertex -27.3881 -5.82153 0
      vertex -22.6525 -16.458 0
      vertex -25.5793 -11.3886 0
    endloop
  endfacet
  facet normal 0 0 -1
    outer loop
      vertex -25.4318 -5.4057 0
      vertex -27.3881 -5.82153 0
      vertex -26 0 0
    endloop
  endfacet
  facet normal 0 0 -1
    outer loop
      vertex -23.7522 -10.5752 0
      vertex -27.3881 -5.82153 0
      vertex -25.4318 -5.4057 0
    endloop
  endfacet
  facet normal 0 0 -1
    outer loop
      vertex -21.0344 -15.2824 0
      vertex -27.3881 -5.82153 0
      vertex -23.7522 -10.5752 0
    endloop
  endfacet
  facet normal 0 0 -1
    outer loop
      vertex -17.3974 -19.3218 0
      vertex -14 -24.2487 0
      vertex -21.0344 -15.2824 0
    endloop
  endfacet
  facet normal 0 0 -1
    outer loop
      vertex -27.3881 -5.82153 0
      vertex -21.0344 -15.2824 0
      vertex -18.7357 -20.8081 0
    endloop
  endfacet
  facet normal 0 0 -1
    outer loop
      vertex -13 -22.5167 0
      vertex -8.65248 -26.6296 0
      vertex -17.3974 -19.3218 0
    endloop
  endfacet
  facet normal 0 0 -1
    outer loop
      vertex -8.03444 -24.7275 0
      vertex -8.65248 -26.6296 0
      vertex -13 -22.5167 0
    endloop
  endfacet
  facet normal 0 0 -1
    outer loop
      vertex 25.4318 5.4057 0
      vertex 27.3881 5.82153 0
      vertex 26 0 0
    endloop
  endfacet
  facet normal 0 0 -1
    outer loop
      vertex 23.7522 10.5752 0
      vertex 25.5793 11.3886 0
      vertex 25.4318 5.4057 0
    endloop
  endfacet
  facet normal 0 0 -1
    outer loop
      vertex 26 0 0
      vertex 28 0 0
      vertex 25.4318 -5.4057 0
    endloop
  endfacet
  facet normal 0 0 -1
    outer loop
      vertex 25.4318 -5.4057 0
      vertex 27.3881 -5.82153 0
      vertex 23.7522 -10.5752 0
    endloop
  endfacet
  facet normal 0 0 -1
    outer loop
      vertex 23.7522 -10.5752 0
      vertex 25.5793 -11.3886 0
      vertex 21.0344 -15.2824 0
    endloop
  endfacet
  facet normal 0 0 -1
    outer loop
      vertex 21.0344 -15.2824 0
      vertex 22.6525 -16.458 0
      vertex 17.3974 -19.3218 0
    endloop
  endfacet
  facet normal 0 0 -1
    outer loop
      vertex 17.3974 -19.3218 0
      vertex 18.7357 -20.8081 0
      vertex 13 -22.5167 0
    endloop
  endfacet
  facet normal 0 0 -1
    outer loop
      vertex 13 -22.5167 0
      vertex 14 -24.2487 0
      vertex 8.03444 -24.7275 0
    endloop
  endfacet
  facet normal 0 0 -1
    outer loop
      vertex 8.03444 -24.7275 0
      vertex 8.65248 -26.6296 0
      vertex 2.71774 -25.8576 0
    endloop
  endfacet
  facet normal 0 0 -1
    outer loop
      vertex 2.71774 -25.8576 0
      vertex 2.9268 -27.8466 0
      vertex -2.71774 -25.8576 0
    endloop
  endfacet
  facet normal 0 0 -1
    outer loop
      vertex -2.71774 -25.8576 0
      vertex -2.9268 -27.8466 0
      vertex -8.03444 -24.7275 0
    endloop
  endfacet
  facet normal 0 0 -1
    outer loop
      vertex -23.7522 10.5752 0
      vertex -22.6525 16.458 0
      vertex -21.0344 15.2824 0
    endloop
  endfacet
  facet normal 0 0 -1
    outer loop
      vertex -25.4318 5.4057 0
      vertex -22.6525 16.458 0
      vertex -23.7522 10.5752 0
    endloop
  endfacet
  facet normal 0 0 -1
    outer loop
      vertex -27.3881 -5.82153 0
      vertex -25.5793 11.3886 0
      vertex -25.4318 5.4057 0
    endloop
  endfacet
  facet normal 0 0 -1
    outer loop
      vertex -26 0 0
      vertex -27.3881 -5.82153 0
      vertex -25.4318 5.4057 0
    endloop
  endfacet
  facet normal 0 0 -1
    outer loop
      vertex -21.0344 15.2824 0
      vertex -18.7357 20.8081 0
      vertex -17.3974 19.3218 0
    endloop
  endfacet
  facet normal 0 0 -1
    outer loop
      vertex -17.3974 19.3218 0
      vertex -14 24.2487 0
      vertex -13 22.5167 0
    endloop
  endfacet
  facet normal 0 0 -1
    outer loop
      vertex -13 22.5167 0
      vertex -8.65248 26.6296 0
      vertex -8.03444 24.7275 0
    endloop
  endfacet
  facet normal 0 0 -1
    outer loop
      vertex -8.03444 24.7275 0
      vertex -2.9268 27.8466 0
      vertex -2.71774 25.8576 0
    endloop
  endfacet
  facet normal 0 0 -1
    outer loop
      vertex -2.71774 25.8576 0
      vertex 2.9268 27.8466 0
      vertex 2.71774 25.8576 0
    endloop
  endfacet
  facet normal 0 0 -1
    outer loop
      vertex 2.71774 25.8576 0
      vertex 8.65248 26.6296 0
      vertex 8.03444 24.7275 0
    endloop
  endfacet
  facet normal 0 0 -1
    outer loop
      vertex 8.03444 24.7275 0
      vertex 14 24.2487 0
      vertex 13 22.5167 0
    endloop
  endfacet
  facet normal 0 0 -1
    outer loop
      vertex 13 22.5167 0
      vertex 18.7357 20.8081 0
      vertex 17.3974 19.3218 0
    endloop
  endfacet
  facet normal 0 0 -1
    outer loop
      vertex 17.3974 19.3218 0
      vertex 22.6525 16.458 0
      vertex 21.0344 15.2824 0
    endloop
  endfacet
  facet normal 0 0 -1
    outer loop
      vertex 21.0344 15.2824 0
      vertex 25.5793 11.3886 0
      vertex 23.7522 10.5752 0
    endloop
  endfacet
  facet normal -0.994522 0.104528 0
    outer loop
      vertex -28 0 0
      vertex -28 0 4
      vertex -27.3881 5.82153 0
    endloop
  endfacet
  facet normal -0.994522 0.104528 0
    outer loop
      vertex -27.3881 5.82153 0
      vertex -28 0 4
      vertex -27.3881 5.82153 4
    endloop
  endfacet
  facet normal -0.994522 -0.104528 0
    outer loop
      vertex -28 0 0
      vertex -27.3881 -5.82153 0
      vertex -28 0 4
    endloop
  endfacet
  facet normal -0.994522 -0.104528 0
    outer loop
      vertex -28 0 4
      vertex -27.3881 -5.82153 0
      vertex -27.3881 -5.82153 4
    endloop
  endfacet
  facet normal -0.951057 -0.309017 0
    outer loop
      vertex -27.3881 -5.82153 0
      vertex -25.5793 -11.3886 0
      vertex -27.3881 -5.82153 4
    endloop
  endfacet
  facet normal -0.951057 -0.309017 0
    outer loop
      vertex -27.3881 -5.82153 4
      vertex -25.5793 -11.3886 0
      vertex -25.5793 -11.3886 4
    endloop
  endfacet
  facet normal -0.866025 -0.5 0
    outer loop
      vertex -25.5793 -11.3886 0
      vertex -22.6525 -16.458 0
      vertex -25.5793 -11.3886 4
    endloop
  endfacet
  facet normal -0.866025 -0.5 0
    outer loop
      vertex -25.5793 -11.3886 4
      vertex -22.6525 -16.458 0
      vertex -22.6525 -16.458 4
    endloop
  endfacet
  facet normal -0.743145 -0.669131 0
    outer loop
      vertex -22.6525 -16.458 0
      vertex -18.7357 -20.8081 0
      vertex -22.6525 -16.458 4
    endloop
  endfacet
  facet normal -0.743145 -0.669131 0
    outer loop
      vertex -22.6525 -16.458 4
      vertex -18.7357 -20.8081 0
      vertex -18.7357 -20.8081 4
    endloop
  endfacet
  facet normal -0.587785 -0.809017 0
    outer loop
      vertex -18.7357 -20.8081 4
      vertex -18.7357 -20.8081 0
      vertex -14 -24.2487 0
    endloop
  endfacet
  facet normal -0.587785 -0.809017 0
    outer loop
      vertex -14 -24.2487 4
      vertex -18.7357 -20.8081 4
      vertex -14 -24.2487 0
    endloop
  endfacet
  facet normal -0.406737 -0.913545 0
    outer loop
      vertex -14 -24.2487 4
      vertex -14 -24.2487 0
      vertex -8.65248 -26.6296 0
    endloop
  endfacet
  facet normal -0.406737 -0.913545 0
    outer loop
      vertex -8.65248 -26.6296 4
      vertex -14 -24.2487 4
      vertex -8.65248 -26.6296 0
    endloop
  endfacet
  facet normal -0.207912 -0.978148 0
    outer loop
      vertex -8.65248 -26.6296 4
      vertex -8.65248 -26.6296 0
      vertex -2.9268 -27.8466 0
    endloop
  endfacet
  facet normal -0.207912 -0.978148 0
    outer loop
      vertex -2.9268 -27.8466 4
      vertex -8.65248 -26.6296 4
      vertex -2.9268 -27.8466 0
    endloop
  endfacet
  facet normal 0 -1 0
    outer loop
      vertex -2.9268 -27.8466 4
      vertex -2.9268 -27.8466 0
      vertex 2.9268 -27.8466 0
    endloop
  endfacet
  facet normal 0 -1 0
    outer loop
      vertex 2.9268 -27.8466 4
      vertex -2.9268 -27.8466 4
      vertex 2.9268 -27.8466 0
    endloop
  endfacet
  facet normal 0.207912 -0.978148 0
    outer loop
      vertex 2.9268 -27.8466 4
      vertex 2.9268 -27.8466 0
      vertex 8.65248 -26.6296 0
    endloop
  endfacet
  facet normal 0.207912 -0.978148 0
    outer loop
      vertex 8.65248 -26.6296 4
      vertex 2.9268 -27.8466 4
      vertex 8.65248 -26.6296 0
    endloop
  endfacet
  facet normal 0.406737 -0.913545 0
    outer loop
      vertex 8.65248 -26.6296 4
      vertex 8.65248 -26.6296 0
      vertex 14 -24.2487 0
    endloop
  endfacet
  facet normal 0.406737 -0.913545 0
    outer loop
      vertex 14 -24.2487 4
      vertex 8.65248 -26.6296 4
      vertex 14 -24.2487 0
    endloop
  endfacet
  facet normal 0.587785 -0.809017 0
    outer loop
      vertex 14 -24.2487 4
      vertex 14 -24.2487 0
      vertex 18.7357 -20.8081 0
    endloop
  endfacet
  facet normal 0.587785 -0.809017 0
    outer loop
      vertex 18.7357 -20.8081 4
      vertex 14 -24.2487 4
      vertex 18.7357 -20.8081 0
    endloop
  endfacet
  facet normal 0.743145 -0.669131 0
    outer loop
      vertex 18.7357 -20.8081 4
      vertex 18.7357 -20.8081 0
      vertex 22.6525 -16.458 0
    endloop
  endfacet
  facet normal 0.743145 -0.669131 0
    outer loop
      vertex 22.6525 -16.458 4
      vertex 18.7357 -20.8081 4
      vertex 22.6525 -16.458 0
    endloop
  endfacet
  facet normal 0.866025 -0.5 0
    outer loop
      vertex 22.6525 -16.458 4
      vertex 22.6525 -16.458 0
      vertex 25.5793 -11.3886 0
    endloop
  endfacet
  facet normal 0.866025 -0.5 0
    outer loop
      vertex 25.5793 -11.3886 4
      vertex 22.6525 -16.458 4
      vertex 25.5793 -11.3886 0
    endloop
  endfacet
  facet normal 0.951057 -0.309017 0
    outer loop
      vertex 25.5793 -11.3886 4
      vertex 25.5793 -11.3886 0
      vertex 27.3881 -5.82153 0
    endloop
  endfacet
  facet normal 0.951057 -0.309017 0
    outer loop
      vertex 27.3881 -5.82153 4
      vertex 25.5793 -11.3886 4
      vertex 27.3881 -5.82153 0
    endloop
  endfacet
  facet normal 0.994522 -0.104528 0
    outer loop
      vertex 27.3881 -5.82153 4
      vertex 27.3881 -5.82153 0
      vertex 28 0 0
    endloop
  endfacet
  facet normal 0.994522 -0.104528 0
    outer loop
      vertex 28 0 4
      vertex 27.3881 -5.82153 4
      vertex 28 0 0
    endloop
  endfacet
  facet normal 0.994522 0.104528 0
    outer loop
      vertex 28 0 0
      vertex 27.3881 5.82153 0
      vertex 27.3881 5.82153 4
    endloop
  endfacet
  facet normal 0.994522 0.104528 0
    outer loop
      vertex 28 0 4
      vertex 28 0 0
      vertex 27.3881 5.82153 4
    endloop
  endfacet
  facet normal 0.951057 0.309017 0
    outer loop
      vertex 27.3881 5.82153 0
      vertex 25.5793 11.3886 0
      vertex 25.5793 11.3886 4
    endloop
  endfacet
  facet normal 0.951057 0.309017 0
    outer loop
      vertex 27.3881 5.82153 4
      vertex 27.3881 5.82153 0
      vertex 25.5793 11.3886 4
    endloop
  endfacet
  facet normal 0.866025 0.5 0
    outer loop
      vertex 25.5793 11.3886 0
      vertex 22.6525 16.458 0
      vertex 22.6525 16.458 4
    endloop
  endfacet
  facet normal 0.866025 0.5 0
    outer loop
      vertex 25.5793 11.3886 4
      vertex 25.5793 11.3886 0
      vertex 22.6525 16.458 4
    endloop
  endfacet
  facet normal 0.743145 0.669131 0
    outer loop
      vertex 22.6525 16.458 0
      vertex 18.7357 20.8081 0
      vertex 18.7357 20.8081 4
    endloop
  endfacet
  facet normal 0.743145 0.669131 0
    outer loop
      vertex 22.6525 16.458 4
      vertex 22.6525 16.458 0
      vertex 18.7357 20.8081 4
    endloop
  endfacet
  facet normal 0.587785 0.809017 0
    outer loop
      vertex 14 24.2487 0
      vertex 14 24.2487 4
      vertex 18.7357 20.8081 0
    endloop
  endfacet
  facet normal 0.587785 0.809017 0
    outer loop
      vertex 18.7357 20.8081 0
      vertex 14 24.2487 4
      vertex 18.7357 20.8081 4
    endloop
  endfacet
  facet normal 0.406737 0.913545 0
    outer loop
      vertex 8.65248 26.6296 0
      vertex 8.65248 26.6296 4
      vertex 14 24.2487 0
    endloop
  endfacet
  facet normal 0.406737 0.913545 0
    outer loop
      vertex 14 24.2487 0
      vertex 8.65248 26.6296 4
      vertex 14 24.2487 4
    endloop
  endfacet
  facet normal 0.207912 0.978148 0
    outer loop
      vertex 2.9268 27.8466 0
      vertex 2.9268 27.8466 4
      vertex 8.65248 26.6296 0
    endloop
  endfacet
  facet normal 0.207912 0.978148 0
    outer loop
      vertex 8.65248 26.6296 0
      vertex 2.9268 27.8466 4
      vertex 8.65248 26.6296 4
    endloop
  endfacet
  facet normal 0 1 0
    outer loop
      vertex -2.9268 27.8466 0
      vertex -2.9268 27.8466 4
      vertex 2.9268 27.8466 0
    endloop
  endfacet
  facet normal 0 1 0
    outer loop
      vertex 2.9268 27.8466 0
      vertex -2.9268 27.8466 4
      vertex 2.9268 27.8466 4
    endloop
  endfacet
  facet normal -0.207912 0.978148 0
    outer loop
      vertex -8.65248 26.6296 0
      vertex -8.65248 26.6296 4
      vertex -2.9268 27.8466 0
    endloop
  endfacet
  facet normal -0.207912 0.978148 0
    outer loop
      vertex -2.9268 27.8466 0
      vertex -8.65248 26.6296 4
      vertex -2.9268 27.8466 4
    endloop
  endfacet
  facet normal -0.406737 0.913545 0
    outer loop
      vertex -14 24.2487 0
      vertex -14 24.2487 4
      vertex -8.65248 26.6296 0
    endloop
  endfacet
  facet normal -0.406737 0.913545 0
    outer loop
      vertex -8.65248 26.6296 0
      vertex -14 24.2487 4
      vertex -8.65248 26.6296 4
    endloop
  endfacet
  facet normal -0.587785 0.809017 0
    outer loop
      vertex -18.7357 20.8081 0
      vertex -18.7357 20.8081 4
      vertex -14 24.2487 0
    endloop
  endfacet
  facet normal -0.587785 0.809017 0
    outer loop
      vertex -14 24.2487 0
      vertex -18.7357 20.8081 4
      vertex -14 24.2487 4
    endloop
  endfacet
  facet normal -0.743145 0.669131 0
    outer loop
      vertex -22.6525 16.458 0
      vertex -22.6525 16.458 4
      vertex -18.7357 20.8081 0
    endloop
  endfacet
  facet normal -0.743145 0.669131 0
    outer loop
      vertex -18.7357 20.8081 0
      vertex -22.6525 16.458 4
      vertex -18.7357 20.8081 4
    endloop
  endfacet
  facet normal -0.866025 0.5 0
    outer loop
      vertex -25.5793 11.3886 0
      vertex -25.5793 11.3886 4
      vertex -22.6525 16.458 0
    endloop
  endfacet
  facet normal -0.866025 0.5 0
    outer loop
      vertex -22.6525 16.458 0
      vertex -25.5793 11.3886 4
      vertex -22.6525 16.458 4
    endloop
  endfacet
  facet normal -0.951057 0.309017 0
    outer loop
      vertex -27.3881 5.82153 0
      vertex -27.3881 5.82153 4
      vertex -25.5793 11.3886 0
    endloop
  endfacet
  facet normal -0.951057 0.309017 0
    outer loop
      vertex -25.5793 11.3886 0
      vertex -27.3881 5.82153 4
      vertex -25.5793 11.3886 4
    endloop
  endfacet
  facet normal 0.994522 -0.104528 0
    outer loop
      vertex -25.4318 5.4057 0
      vertex -25.4318 5.4057 1
      vertex -26 0 1
    endloop
  endfacet
  facet normal 0.994522 -0.104528 0
    outer loop
      vertex -26 0 0
      vertex -25.4318 5.4057 0
      vertex -26 0 1
    endloop
  endfacet
  facet normal 0.994522 0.104528 0
    outer loop
      vertex -26 0 1
      vertex -25.4318 -5.4057 1
      vertex -25.4318 -5.4057 0
    endloop
  endfacet
  facet normal 0.994522 0.104528 0
    outer loop
      vertex -26 0 0
      vertex -26 0 1
      vertex -25.4318 -5.4057 0
    endloop
  endfacet
  facet normal 0.951057 -0.309017 0
    outer loop
      vertex -23.7522 10.5752 0
      vertex -23.7522 10.5752 1
      vertex -25.4318 5.4057 1
    endloop
  endfacet
  facet normal 0.951057 -0.309017 0
    outer loop
      vertex -25.4318 5.4057 0
      vertex -23.7522 10.5752 0
      vertex -25.4318 5.4057 1
    endloop
  endfacet
  facet normal 0.866025 -0.5 0
    outer loop
      vertex -21.0344 15.2824 0
      vertex -21.0344 15.2824 1
      vertex -23.7522 10.5752 1
    endloop
  endfacet
  facet normal 0.866025 -0.5 0
    outer loop
      vertex -23.7522 10.5752 0
      vertex -21.0344 15.2824 0
      vertex -23.7522 10.5752 1
    endloop
  endfacet
  facet normal 0.743145 -0.669131 0
    outer loop
      vertex -17.3974 19.3218 0
      vertex -17.3974 19.3218 1
      vertex -21.0344 15.2824 1
    endloop
  endfacet
  facet normal 0.743145 -0.669131 0
    outer loop
      vertex -21.0344 15.2824 0
      vertex -17.3974 19.3218 0
      vertex -21.0344 15.2824 1
    endloop
  endfacet
  facet normal 0.587785 -0.809017 0
    outer loop
      vertex -13 22.5167 0
      vertex -13 22.5167 1
      vertex -17.3974 19.3218 1
    endloop
  endfacet
  facet normal 0.587785 -0.809017 0
    outer loop
      vertex -17.3974 19.3218 0
      vertex -13 22.5167 0
      vertex -17.3974 19.3218 1
    endloop
  endfacet
  facet normal 0.406737 -0.913545 0
    outer loop
      vertex -8.03444 24.7275 0
      vertex -8.03444 24.7275 1
      vertex -13 22.5167 1
    endloop
  endfacet
  facet normal 0.406737 -0.913545 0
    outer loop
      vertex -13 22.5167 0
      vertex -8.03444 24.7275 0
      vertex -13 22.5167 1
    endloop
  endfacet
  facet normal 0.207912 -0.978148 0
    outer loop
      vertex -2.71774 25.8576 0
      vertex -2.71774 25.8576 1
      vertex -8.03444 24.7275 1
    endloop
  endfacet
  facet normal 0.207912 -0.978148 0
    outer loop
      vertex -8.03444 24.7275 0
      vertex -2.71774 25.8576 0
      vertex -8.03444 24.7275 1
    endloop
  endfacet
  facet normal 0 -1 0
    outer loop
      vertex 2.71774 25.8576 0
      vertex 2.71774 25.8576 1
      vertex -2.71774 25.8576 1
    endloop
  endfacet
  facet normal 0 -1 0
    outer loop
      vertex -2.71774 25.8576 0
      vertex 2.71774 25.8576 0
      vertex -2.71774 25.8576 1
    endloop
  endfacet
  facet normal -0.207912 -0.978148 0
    outer loop
      vertex 8.03444 24.7275 0
      vertex 8.03444 24.7275 1
      vertex 2.71774 25.8576 1
    endloop
  endfacet
  facet normal -0.207912 -0.978148 0
    outer loop
      vertex 2.71774 25.8576 0
      vertex 8.03444 24.7275 0
      vertex 2.71774 25.8576 1
    endloop
  endfacet
  facet normal -0.406737 -0.913545 0
    outer loop
      vertex 13 22.5167 0
      vertex 13 22.5167 1
      vertex 8.03444 24.7275 1
    endloop
  endfacet
  facet normal -0.406737 -0.913545 0
    outer loop
      vertex 8.03444 24.7275 0
      vertex 13 22.5167 0
      vertex 8.03444 24.7275 1
    endloop
  endfacet
  facet normal -0.587785 -0.809017 0
    outer loop
      vertex 17.3974 19.3218 0
      vertex 17.3974 19.3218 1
      vertex 13 22.5167 1
    endloop
  endfacet
  facet normal -0.587785 -0.809017 0
    outer loop
      vertex 13 22.5167 0
      vertex 17.3974 19.3218 0
      vertex 13 22.5167 1
    endloop
  endfacet
  facet normal -0.743145 -0.669131 0
    outer loop
      vertex 21.0344 15.2824 1
      vertex 17.3974 19.3218 1
      vertex 21.0344 15.2824 0
    endloop
  endfacet
  facet normal -0.743145 -0.669131 0
    outer loop
      vertex 21.0344 15.2824 0
      vertex 17.3974 19.3218 1
      vertex 17.3974 19.3218 0
    endloop
  endfacet
  facet normal -0.866025 -0.5 0
    outer loop
      vertex 23.7522 10.5752 1
      vertex 21.0344 15.2824 1
      vertex 23.7522 10.5752 0
    endloop
  endfacet
  facet normal -0.866025 -0.5 0
    outer loop
      vertex 23.7522 10.5752 0
      vertex 21.0344 15.2824 1
      vertex 21.0344 15.2824 0
    endloop
  endfacet
  facet normal -0.951057 -0.309017 0
    outer loop
      vertex 25.4318 5.4057 1
      vertex 23.7522 10.5752 1
      vertex 25.4318 5.4057 0
    endloop
  endfacet
  facet normal -0.951057 -0.309017 0
    outer loop
      vertex 25.4318 5.4057 0
      vertex 23.7522 10.5752 1
      vertex 23.7522 10.5752 0
    endloop
  endfacet
  facet normal -0.994522 -0.104528 0
    outer loop
      vertex 26 0 1
      vertex 25.4318 5.4057 1
      vertex 26 0 0
    endloop
  endfacet
  facet normal -0.994522 -0.104528 0
    outer loop
      vertex 26 0 0
      vertex 25.4318 5.4057 1
      vertex 25.4318 5.4057 0
    endloop
  endfacet
  facet normal -0.994522 0.104528 0
    outer loop
      vertex 26 0 1
      vertex 26 0 0
      vertex 25.4318 -5.4057 1
    endloop
  endfacet
  facet normal -0.994522 0.104528 0
    outer loop
      vertex 25.4318 -5.4057 1
      vertex 26 0 0
      vertex 25.4318 -5.4057 0
    endloop
  endfacet
  facet normal -0.951057 0.309017 0
    outer loop
      vertex 25.4318 -5.4057 1
      vertex 25.4318 -5.4057 0
      vertex 23.7522 -10.5752 1
    endloop
  endfacet
  facet normal -0.951057 0.309017 0
    outer loop
      vertex 23.7522 -10.5752 1
      vertex 25.4318 -5.4057 0
      vertex 23.7522 -10.5752 0
    endloop
  endfacet
  facet normal -0.866025 0.5 0
    outer loop
      vertex 23.7522 -10.5752 1
      vertex 23.7522 -10.5752 0
      vertex 21.0344 -15.2824 1
    endloop
  endfacet
  facet normal -0.866025 0.5 0
    outer loop
      vertex 21.0344 -15.2824 1
      vertex 23.7522 -10.5752 0
      vertex 21.0344 -15.2824 0
    endloop
  endfacet
  facet normal -0.743145 0.669131 0
    outer loop
      vertex 21.0344 -15.2824 1
      vertex 21.0344 -15.2824 0
      vertex 17.3974 -19.3218 1
    endloop
  endfacet
  facet normal -0.743145 0.669131 0
    outer loop
      vertex 17.3974 -19.3218 1
      vertex 21.0344 -15.2824 0
      vertex 17.3974 -19.3218 0
    endloop
  endfacet
  facet normal -0.587785 0.809017 0
    outer loop
      vertex 17.3974 -19.3218 1
      vertex 17.3974 -19.3218 0
      vertex 13 -22.5167 1
    endloop
  endfacet
  facet normal -0.587785 0.809017 0
    outer loop
      vertex 13 -22.5167 1
      vertex 17.3974 -19.3218 0
      vertex 13 -22.5167 0
    endloop
  endfacet
  facet normal -0.406737 0.913545 0
    outer loop
      vertex 13 -22.5167 1
      vertex 13 -22.5167 0
      vertex 8.03444 -24.7275 1
    endloop
  endfacet
  facet normal -0.406737 0.913545 0
    outer loop
      vertex 8.03444 -24.7275 1
      vertex 13 -22.5167 0
      vertex 8.03444 -24.7275 0
    endloop
  endfacet
  facet normal -0.207912 0.978148 0
    outer loop
      vertex 8.03444 -24.7275 1
      vertex 8.03444 -24.7275 0
      vertex 2.71774 -25.8576 1
    endloop
  endfacet
  facet normal -0.207912 0.978148 0
    outer loop
      vertex 2.71774 -25.8576 1
      vertex 8.03444 -24.7275 0
      vertex 2.71774 -25.8576 0
    endloop
  endfacet
  facet normal 0 1 0
    outer loop
      vertex 2.71774 -25.8576 1
      vertex 2.71774 -25.8576 0
      vertex -2.71774 -25.8576 1
    endloop
  endfacet
  facet normal 0 1 0
    outer loop
      vertex -2.71774 -25.8576 1
      vertex 2.71774 -25.8576 0
      vertex -2.71774 -25.8576 0
    endloop
  endfacet
  facet normal 0.207912 0.978148 0
    outer loop
      vertex -2.71774 -25.8576 1
      vertex -2.71774 -25.8576 0
      vertex -8.03444 -24.7275 1
    endloop
  endfacet
  facet normal 0.207912 0.978148 0
    outer loop
      vertex -8.03444 -24.7275 1
      vertex -2.71774 -25.8576 0
      vertex -8.03444 -24.7275 0
    endloop
  endfacet
  facet normal 0.406737 0.913545 0
    outer loop
      vertex -8.03444 -24.7275 1
      vertex -8.03444 -24.7275 0
      vertex -13 -22.5167 1
    endloop
  endfacet
  facet normal 0.406737 0.913545 0
    outer loop
      vertex -13 -22.5167 1
      vertex -8.03444 -24.7275 0
      vertex -13 -22.5167 0
    endloop
  endfacet
  facet normal 0.587785 0.809017 0
    outer loop
      vertex -13 -22.5167 1
      vertex -13 -22.5167 0
      vertex -17.3974 -19.3218 1
    endloop
  endfacet
  facet normal 0.587785 0.809017 0
    outer loop
      vertex -17.3974 -19.3218 1
      vertex -13 -22.5167 0
      vertex -17.3974 -19.3218 0
    endloop
  endfacet
  facet normal 0.743145 0.669131 0
    outer loop
      vertex -21.0344 -15.2824 1
      vertex -17.3974 -19.3218 1
      vertex -17.3974 -19.3218 0
    endloop
  endfacet
  facet normal 0.743145 0.669131 0
    outer loop
      vertex -21.0344 -15.2824 0
      vertex -21.0344 -15.2824 1
      vertex -17.3974 -19.3218 0
    endloop
  endfacet
  facet normal 0.866025 0.5 0
    outer loop
      vertex -23.7522 -10.5752 1
      vertex -21.0344 -15.2824 1
      vertex -21.0344 -15.2824 0
    endloop
  endfacet
  facet normal 0.866025 0.5 0
    outer loop
      vertex -23.7522 -10.5752 0
      vertex -23.7522 -10.5752 1
      vertex -21.0344 -15.2824 0
    endloop
  endfacet
  facet normal 0.951057 0.309017 0
    outer loop
      vertex -25.4318 -5.4057 1
      vertex -23.7522 -10.5752 1
      vertex -23.7522 -10.5752 0
    endloop
  endfacet
  facet normal 0.951057 0.309017 0
    outer loop
      vertex -25.4318 -5.4057 0
      vertex -25.4318 -5.4057 1
      vertex -23.7522 -10.5752 0
    endloop
  endfacet
  facet normal 0 0 1
    outer loop
      vertex -27.3881 5.82153 4
      vertex -28 0 4
      vertex -27.3881 -5.82153 4
    endloop
  endfacet
  facet normal 0 0 1
    outer loop
      vertex -25.4318 -5.4057 4
      vertex -27.3881 5.82153 4
      vertex -25.5793 -11.3886 4
    endloop
  endfacet
  facet normal 0 0 1
    outer loop
      vertex -25.5793 -11.3886 4
      vertex -27.3881 5.82153 4
      vertex -27.3881 -5.82153 4
    endloop
  endfacet
  facet normal 0 0 1
    outer loop
      vertex -25.4318 5.4057 4
      vertex -23.7522 10.5752 4
      vertex -27.3881 5.82153 4
    endloop
  endfacet
  facet normal 0 0 1
    outer loop
      vertex -17.3974 -19.3218 4
      vertex -21.0344 -15.2824 4
      vertex -18.7357 -20.8081 4
    endloop
  endfacet
  facet normal 0 0 1
    outer loop
      vertex 23.7522 10.5752 4
      vertex 25.4318 5.4057 4
      vertex 27.3881 5.82153 4
    endloop
  endfacet
  facet normal 0 0 1
    outer loop
      vertex 21.0344 15.2824 4
      vertex 23.7522 10.5752 4
      vertex 25.5793 11.3886 4
    endloop
  endfacet
  facet normal 0 0 1
    outer loop
      vertex 17.3974 19.3218 4
      vertex 21.0344 15.2824 4
      vertex 22.6525 16.458 4
    endloop
  endfacet
  facet normal 0 0 1
    outer loop
      vertex 13 22.5167 4
      vertex 17.3974 19.3218 4
      vertex 18.7357 20.8081 4
    endloop
  endfacet
  facet normal 0 0 1
    outer loop
      vertex 8.03444 24.7275 4
      vertex 13 22.5167 4
      vertex 14 24.2487 4
    endloop
  endfacet
  facet normal 0 0 1
    outer loop
      vertex 2.71774 25.8576 4
      vertex 8.03444 24.7275 4
      vertex 8.65248 26.6296 4
    endloop
  endfacet
  facet normal 0 0 1
    outer loop
      vertex 25.4318 5.4057 4
      vertex 26 0 4
      vertex 28 0 4
    endloop
  endfacet
  facet normal 0 0 1
    outer loop
      vertex -13 22.5167 4
      vertex -8.03444 24.7275 4
      vertex -8.65248 26.6296 4
    endloop
  endfacet
  facet normal 0 0 1
    outer loop
      vertex -22.6525 16.458 4
      vertex -27.3881 5.82153 4
      vertex -18.7357 20.8081 4
    endloop
  endfacet
  facet normal 0 0 1
    outer loop
      vertex -25.5793 11.3886 4
      vertex -27.3881 5.82153 4
      vertex -22.6525 16.458 4
    endloop
  endfacet
  facet normal 0 0 1
    outer loop
      vertex -22.6525 -16.458 4
      vertex -25.4318 -5.4057 4
      vertex -25.5793 -11.3886 4
    endloop
  endfacet
  facet normal 0 0 1
    outer loop
      vertex 21.0344 -15.2824 4
      vertex 17.3974 -19.3218 4
      vertex 22.6525 -16.458 4
    endloop
  endfacet
  facet normal 0 0 1
    outer loop
      vertex 23.7522 -10.5752 4
      vertex 21.0344 -15.2824 4
      vertex 25.5793 -11.3886 4
    endloop
  endfacet
  facet normal 0 0 1
    outer loop
      vertex -8.03444 24.7275 4
      vertex -2.71774 25.8576 4
      vertex -2.9268 27.8466 4
    endloop
  endfacet
  facet normal 0 0 1
    outer loop
      vertex -21.0344 15.2824 4
      vertex -17.3974 19.3218 4
      vertex -14 24.2487 4
    endloop
  endfacet
  facet normal 0 0 1
    outer loop
      vertex -18.7357 20.8081 4
      vertex -21.0344 15.2824 4
      vertex -14 24.2487 4
    endloop
  endfacet
  facet normal 0 0 1
    outer loop
      vertex -18.7357 20.8081 4
      vertex -27.3881 5.82153 4
      vertex -21.0344 15.2824 4
    endloop
  endfacet
  facet normal 0 0 1
    outer loop
      vertex -14 24.2487 4
      vertex -17.3974 19.3218 4
      vertex -8.65248 26.6296 4
    endloop
  endfacet
  facet normal 0 0 1
    outer loop
      vertex -17.3974 19.3218 4
      vertex -13 22.5167 4
      vertex -8.65248 26.6296 4
    endloop
  endfacet
  facet normal 0 0 1
    outer loop
      vertex -8.65248 26.6296 4
      vertex -8.03444 24.7275 4
      vertex -2.9268 27.8466 4
    endloop
  endfacet
  facet normal 0 0 1
    outer loop
      vertex -23.7522 10.5752 4
      vertex -21.0344 15.2824 4
      vertex -27.3881 5.82153 4
    endloop
  endfacet
  facet normal 0 0 1
    outer loop
      vertex -2.9268 27.8466 4
      vertex -2.71774 25.8576 4
      vertex 2.9268 27.8466 4
    endloop
  endfacet
  facet normal 0 0 1
    outer loop
      vertex 2.9268 27.8466 4
      vertex 2.71774 25.8576 4
      vertex 8.65248 26.6296 4
    endloop
  endfacet
  facet normal 0 0 1
    outer loop
      vertex 8.65248 26.6296 4
      vertex 8.03444 24.7275 4
      vertex 14 24.2487 4
    endloop
  endfacet
  facet normal 0 0 1
    outer loop
      vertex 14 24.2487 4
      vertex 13 22.5167 4
      vertex 18.7357 20.8081 4
    endloop
  endfacet
  facet normal 0 0 1
    outer loop
      vertex 18.7357 20.8081 4
      vertex 17.3974 19.3218 4
      vertex 22.6525 16.458 4
    endloop
  endfacet
  facet normal 0 0 1
    outer loop
      vertex 22.6525 16.458 4
      vertex 21.0344 15.2824 4
      vertex 25.5793 11.3886 4
    endloop
  endfacet
  facet normal 0 0 1
    outer loop
      vertex 25.5793 11.3886 4
      vertex 23.7522 10.5752 4
      vertex 27.3881 5.82153 4
    endloop
  endfacet
  facet normal 0 0 1
    outer loop
      vertex 27.3881 5.82153 4
      vertex 25.4318 5.4057 4
      vertex 28 0 4
    endloop
  endfacet
  facet normal 0 0 1
    outer loop
      vertex 28 0 4
      vertex 26 0 4
      vertex 27.3881 -5.82153 4
    endloop
  endfacet
  facet normal 0 0 1
    outer loop
      vertex 27.3881 -5.82153 4
      vertex 25.4318 -5.4057 4
      vertex 25.5793 -11.3886 4
    endloop
  endfacet
  facet normal 0 0 1
    outer loop
      vertex -2.71774 25.8576 4
      vertex 2.71774 25.8576 4
      vertex 2.9268 27.8466 4
    endloop
  endfacet
  facet normal 0 0 1
    outer loop
      vertex 25.4318 -5.4057 4
      vertex 23.7522 -10.5752 4
      vertex 25.5793 -11.3886 4
    endloop
  endfacet
  facet normal 0 0 1
    outer loop
      vertex 25.5793 -11.3886 4
      vertex 21.0344 -15.2824 4
      vertex 22.6525 -16.458 4
    endloop
  endfacet
  facet normal 0 0 1
    outer loop
      vertex 22.6525 -16.458 4
      vertex 17.3974 -19.3218 4
      vertex 18.7357 -20.8081 4
    endloop
  endfacet
  facet normal 0 0 1
    outer loop
      vertex 18.7357 -20.8081 4
      vertex 13 -22.5167 4
      vertex 14 -24.2487 4
    endloop
  endfacet
  facet normal 0 0 1
    outer loop
      vertex 14 -24.2487 4
      vertex 8.03444 -24.7275 4
      vertex 8.65248 -26.6296 4
    endloop
  endfacet
  facet normal 0 0 1
    outer loop
      vertex 8.65248 -26.6296 4
      vertex 2.71774 -25.8576 4
      vertex 2.9268 -27.8466 4
    endloop
  endfacet
  facet normal 0 0 1
    outer loop
      vertex 2.9268 -27.8466 4
      vertex -2.71774 -25.8576 4
      vertex -2.9268 -27.8466 4
    endloop
  endfacet
  facet normal 0 0 1
    outer loop
      vertex -2.9268 -27.8466 4
      vertex -8.03444 -24.7275 4
      vertex -8.65248 -26.6296 4
    endloop
  endfacet
  facet normal 0 0 1
    outer loop
      vertex -8.65248 -26.6296 4
      vertex -13 -22.5167 4
      vertex -14 -24.2487 4
    endloop
  endfacet
  facet normal 0 0 1
    outer loop
      vertex 26 0 4
      vertex 25.4318 -5.4057 4
      vertex 27.3881 -5.82153 4
    endloop
  endfacet
  facet normal 0 0 1
    outer loop
      vertex -14 -24.2487 4
      vertex -17.3974 -19.3218 4
      vertex -18.7357 -20.8081 4
    endloop
  endfacet
  facet normal 0 0 1
    outer loop
      vertex -18.7357 -20.8081 4
      vertex -21.0344 -15.2824 4
      vertex -22.6525 -16.458 4
    endloop
  endfacet
  facet normal 0 0 1
    outer loop
      vertex -21.0344 -15.2824 4
      vertex -23.7522 -10.5752 4
      vertex -22.6525 -16.458 4
    endloop
  endfacet
  facet normal 0 0 1
    outer loop
      vertex -25.4318 -5.4057 4
      vertex -26 0 4
      vertex -27.3881 5.82153 4
    endloop
  endfacet
  facet normal 0 0 1
    outer loop
      vertex -23.7522 -10.5752 4
      vertex -25.4318 -5.4057 4
      vertex -22.6525 -16.458 4
    endloop
  endfacet
  facet normal 0 0 1
    outer loop
      vertex 17.3974 -19.3218 4
      vertex 13 -22.5167 4
      vertex 18.7357 -20.8081 4
    endloop
  endfacet
  facet normal 0 0 1
    outer loop
      vertex 13 -22.5167 4
      vertex 8.03444 -24.7275 4
      vertex 14 -24.2487 4
    endloop
  endfacet
  facet normal 0 0 1
    outer loop
      vertex 8.03444 -24.7275 4
      vertex 2.71774 -25.8576 4
      vertex 8.65248 -26.6296 4
    endloop
  endfacet
  facet normal 0 0 1
    outer loop
      vertex 2.71774 -25.8576 4
      vertex -2.71774 -25.8576 4
      vertex 2.9268 -27.8466 4
    endloop
  endfacet
  facet normal 0 0 1
    outer loop
      vertex -2.71774 -25.8576 4
      vertex -8.03444 -24.7275 4
      vertex -2.9268 -27.8466 4
    endloop
  endfacet
  facet normal 0 0 1
    outer loop
      vertex -8.03444 -24.7275 4
      vertex -13 -22.5167 4
      vertex -8.65248 -26.6296 4
    endloop
  endfacet
  facet normal 0 0 1
    outer loop
      vertex -13 -22.5167 4
      vertex -17.3974 -19.3218 4
      vertex -14 -24.2487 4
    endloop
  endfacet
  facet normal 0 0 1
    outer loop
      vertex -26 0 4
      vertex -25.4318 5.4057 4
      vertex -27.3881 5.82153 4
    endloop
  endfacet
  facet normal 0 0 -1
    outer loop
      vertex -26 0 1
      vertex -25.4318 5.4057 1
      vertex -25.4318 -5.4057 1
    endloop
  endfacet
  facet normal 0 0 -1
    outer loop
      vertex -24.6982 5.24977 1
      vertex -25.4318 5.4057 1
      vertex -23.7522 10.5752 1
    endloop
  endfacet
  facet normal 0 0 -1
    outer loop
      vertex -23.067 10.2701 1
      vertex -23.7522 10.5752 1
      vertex -21.0344 15.2824 1
    endloop
  endfacet
  facet normal 0 0 -1
    outer loop
      vertex -20.4277 14.8416 1
      vertex -21.0344 15.2824 1
      vertex -17.3974 19.3218 1
    endloop
  endfacet
  facet normal 0 0 -1
    outer loop
      vertex -16.8955 18.7644 1
      vertex -17.3974 19.3218 1
      vertex -13 22.5167 1
    endloop
  endfacet
  facet normal 0 0 -1
    outer loop
      vertex -12.625 21.8671 1
      vertex -13 22.5167 1
      vertex -8.03444 24.7275 1
    endloop
  endfacet
  facet normal 0 0 -1
    outer loop
      vertex -7.80268 24.0142 1
      vertex -8.03444 24.7275 1
      vertex -2.71774 25.8576 1
    endloop
  endfacet
  facet normal 0 0 -1
    outer loop
      vertex -2.63934 25.1117 1
      vertex -2.71774 25.8576 1
      vertex 2.71774 25.8576 1
    endloop
  endfacet
  facet normal 0 0 -1
    outer loop
      vertex 2.63934 25.1117 1
      vertex 2.71774 25.8576 1
      vertex 8.03444 24.7275 1
    endloop
  endfacet
  facet normal 0 0 -1
    outer loop
      vertex 7.80268 24.0142 1
      vertex 8.03444 24.7275 1
      vertex 13 22.5167 1
    endloop
  endfacet
  facet normal 0 0 -1
    outer loop
      vertex 12.625 21.8671 1
      vertex 13 22.5167 1
      vertex 17.3974 19.3218 1
    endloop
  endfacet
  facet normal 0 0 -1
    outer loop
      vertex 16.8955 18.7644 1
      vertex 17.3974 19.3218 1
      vertex 21.0344 15.2824 1
    endloop
  endfacet
  facet normal 0 0 -1
    outer loop
      vertex 20.4277 14.8416 1
      vertex 21.0344 15.2824 1
      vertex 23.7522 10.5752 1
    endloop
  endfacet
  facet normal 0 0 -1
    outer loop
      vertex 23.067 10.2701 1
      vertex 23.7522 10.5752 1
      vertex 25.4318 5.4057 1
    endloop
  endfacet
  facet normal 0 0 -1
    outer loop
      vertex 25.25 0 1
      vertex 25.4318 5.4057 1
      vertex 26 0 1
    endloop
  endfacet
  facet normal 0 0 -1
    outer loop
      vertex 24.6982 -5.24977 1
      vertex 26 0 1
      vertex 25.4318 -5.4057 1
    endloop
  endfacet
  facet normal 0 0 -1
    outer loop
      vertex 23.067 -10.2701 1
      vertex 25.4318 -5.4057 1
      vertex 23.7522 -10.5752 1
    endloop
  endfacet
  facet normal 0 0 -1
    outer loop
      vertex 20.4277 -14.8416 1
      vertex 23.7522 -10.5752 1
      vertex 21.0344 -15.2824 1
    endloop
  endfacet
  facet normal 0 0 -1
    outer loop
      vertex 16.8955 -18.7644 1
      vertex 21.0344 -15.2824 1
      vertex 17.3974 -19.3218 1
    endloop
  endfacet
  facet normal 0 0 -1
    outer loop
      vertex 12.625 -21.8671 1
      vertex 17.3974 -19.3218 1
      vertex 13 -22.5167 1
    endloop
  endfacet
  facet normal 0 0 -1
    outer loop
      vertex 7.80268 -24.0142 1
      vertex 13 -22.5167 1
      vertex 8.03444 -24.7275 1
    endloop
  endfacet
  facet normal 0 0 -1
    outer loop
      vertex 2.63934 -25.1117 1
      vertex 8.03444 -24.7275 1
      vertex 2.71774 -25.8576 1
    endloop
  endfacet
  facet normal 0 0 -1
    outer loop
      vertex -2.63934 -25.1117 1
      vertex 2.71774 -25.8576 1
      vertex -2.71774 -25.8576 1
    endloop
  endfacet
  facet normal 0 0 -1
    outer loop
      vertex -7.80268 -24.0142 1
      vertex -2.71774 -25.8576 1
      vertex -8.03444 -24.7275 1
    endloop
  endfacet
  facet normal 0 0 -1
    outer loop
      vertex -12.625 -21.8671 1
      vertex -8.03444 -24.7275 1
      vertex -13 -22.5167 1
    endloop
  endfacet
  facet normal 0 0 -1
    outer loop
      vertex -16.8955 -18.7644 1
      vertex -13 -22.5167 1
      vertex -17.3974 -19.3218 1
    endloop
  endfacet
  facet normal 0 0 -1
    outer loop
      vertex -20.4277 -14.8416 1
      vertex -17.3974 -19.3218 1
      vertex -21.0344 -15.2824 1
    endloop
  endfacet
  facet normal 0 0 -1
    outer loop
      vertex -25.4318 -5.4057 1
      vertex -21.0344 -15.2824 1
      vertex -23.7522 -10.5752 1
    endloop
  endfacet
  facet normal 0 0 -1
    outer loop
      vertex -25.4318 -5.4057 1
      vertex -25.4318 5.4057 1
      vertex -25.25 0 1
    endloop
  endfacet
  facet normal 0 0 -1
    outer loop
      vertex -7.80268 -24.0142 1
      vertex -8.03444 -24.7275 1
      vertex -12.625 -21.8671 1
    endloop
  endfacet
  facet normal 0 0 -1
    outer loop
      vertex -23.067 -10.2701 1
      vertex -25.4318 -5.4057 1
      vertex -24.6982 -5.24977 1
    endloop
  endfacet
  facet normal 0 0 -1
    outer loop
      vertex -16.8955 -18.7644 1
      vertex -17.3974 -19.3218 1
      vertex -20.4277 -14.8416 1
    endloop
  endfacet
  facet normal 0 0 -1
    outer loop
      vertex -25.4318 -5.4057 1
      vertex -23.067 -10.2701 1
      vertex -21.0344 -15.2824 1
    endloop
  endfacet
  facet normal 0 0 -1
    outer loop
      vertex -23.067 -10.2701 1
      vertex -20.4277 -14.8416 1
      vertex -21.0344 -15.2824 1
    endloop
  endfacet
  facet normal 0 0 -1
    outer loop
      vertex 24.6982 5.24977 1
      vertex 25.4318 5.4057 1
      vertex 25.25 0 1
    endloop
  endfacet
  facet normal 0 0 -1
    outer loop
      vertex 20.4277 14.8416 1
      vertex 23.7522 10.5752 1
      vertex 23.067 10.2701 1
    endloop
  endfacet
  facet normal 0 0 -1
    outer loop
      vertex 23.067 10.2701 1
      vertex 25.4318 5.4057 1
      vertex 24.6982 5.24977 1
    endloop
  endfacet
  facet normal 0 0 -1
    outer loop
      vertex 25.25 0 1
      vertex 26 0 1
      vertex 24.6982 -5.24977 1
    endloop
  endfacet
  facet normal 0 0 -1
    outer loop
      vertex 24.6982 -5.24977 1
      vertex 25.4318 -5.4057 1
      vertex 23.067 -10.2701 1
    endloop
  endfacet
  facet normal 0 0 -1
    outer loop
      vertex 23.067 -10.2701 1
      vertex 23.7522 -10.5752 1
      vertex 20.4277 -14.8416 1
    endloop
  endfacet
  facet normal 0 0 -1
    outer loop
      vertex 20.4277 -14.8416 1
      vertex 21.0344 -15.2824 1
      vertex 16.8955 -18.7644 1
    endloop
  endfacet
  facet normal 0 0 -1
    outer loop
      vertex 16.8955 -18.7644 1
      vertex 17.3974 -19.3218 1
      vertex 12.625 -21.8671 1
    endloop
  endfacet
  facet normal 0 0 -1
    outer loop
      vertex 12.625 -21.8671 1
      vertex 13 -22.5167 1
      vertex 7.80268 -24.0142 1
    endloop
  endfacet
  facet normal 0 0 -1
    outer loop
      vertex 7.80268 -24.0142 1
      vertex 8.03444 -24.7275 1
      vertex 2.63934 -25.1117 1
    endloop
  endfacet
  facet normal 0 0 -1
    outer loop
      vertex 2.63934 -25.1117 1
      vertex 2.71774 -25.8576 1
      vertex -2.63934 -25.1117 1
    endloop
  endfacet
  facet normal 0 0 -1
    outer loop
      vertex -2.63934 -25.1117 1
      vertex -2.71774 -25.8576 1
      vertex -7.80268 -24.0142 1
    endloop
  endfacet
  facet normal 0 0 -1
    outer loop
      vertex -25.25 0 1
      vertex -25.4318 5.4057 1
      vertex -24.6982 5.24977 1
    endloop
  endfacet
  facet normal 0 0 -1
    outer loop
      vertex -24.6982 -5.24977 1
      vertex -25.4318 -5.4057 1
      vertex -25.25 0 1
    endloop
  endfacet
  facet normal 0 0 -1
    outer loop
      vertex -24.6982 5.24977 1
      vertex -23.7522 10.5752 1
      vertex -23.067 10.2701 1
    endloop
  endfacet
  facet normal 0 0 -1
    outer loop
      vertex -23.067 10.2701 1
      vertex -21.0344 15.2824 1
      vertex -20.4277 14.8416 1
    endloop
  endfacet
  facet normal 0 0 -1
    outer loop
      vertex -20.4277 14.8416 1
      vertex -17.3974 19.3218 1
      vertex -16.8955 18.7644 1
    endloop
  endfacet
  facet normal 0 0 -1
    outer loop
      vertex -16.8955 18.7644 1
      vertex -13 22.5167 1
      vertex -12.625 21.8671 1
    endloop
  endfacet
  facet normal 0 0 -1
    outer loop
      vertex -12.625 21.8671 1
      vertex -8.03444 24.7275 1
      vertex -7.80268 24.0142 1
    endloop
  endfacet
  facet normal 0 0 -1
    outer loop
      vertex -7.80268 24.0142 1
      vertex -2.71774 25.8576 1
      vertex -2.63934 25.1117 1
    endloop
  endfacet
  facet normal 0 0 -1
    outer loop
      vertex -2.63934 25.1117 1
      vertex 2.71774 25.8576 1
      vertex 2.63934 25.1117 1
    endloop
  endfacet
  facet normal 0 0 -1
    outer loop
      vertex 2.63934 25.1117 1
      vertex 8.03444 24.7275 1
      vertex 7.80268 24.0142 1
    endloop
  endfacet
  facet normal 0 0 -1
    outer loop
      vertex 7.80268 24.0142 1
      vertex 13 22.5167 1
      vertex 12.625 21.8671 1
    endloop
  endfacet
  facet normal 0 0 -1
    outer loop
      vertex 12.625 21.8671 1
      vertex 17.3974 19.3218 1
      vertex 16.8955 18.7644 1
    endloop
  endfacet
  facet normal 0 0 -1
    outer loop
      vertex 16.8955 18.7644 1
      vertex 21.0344 15.2824 1
      vertex 20.4277 14.8416 1
    endloop
  endfacet
  facet normal 0 0 -1
    outer loop
      vertex -12.625 -21.8671 1
      vertex -13 -22.5167 1
      vertex -16.8955 -18.7644 1
    endloop
  endfacet
  facet normal 0.994522 0.104528 0
    outer loop
      vertex -26 0 4
      vertex -25.4318 -5.4057 4
      vertex -25.4318 -5.4057 2.5
    endloop
  endfacet
  facet normal 0.994522 0.104528 0
    outer loop
      vertex -26 0 2.5
      vertex -26 0 4
      vertex -25.4318 -5.4057 2.5
    endloop
  endfacet
  facet normal 0.951057 0.309017 0
    outer loop
      vertex -25.4318 -5.4057 4
      vertex -23.7522 -10.5752 4
      vertex -23.7522 -10.5752 2.5
    endloop
  endfacet
  facet normal 0.951057 0.309017 0
    outer loop
      vertex -25.4318 -5.4057 2.5
      vertex -25.4318 -5.4057 4
      vertex -23.7522 -10.5752 2.5
    endloop
  endfacet
  facet normal 0.866025 0.5 0
    outer loop
      vertex -23.7522 -10.5752 4
      vertex -21.0344 -15.2824 4
      vertex -21.0344 -15.2824 2.5
    endloop
  endfacet
  facet normal 0.866025 0.5 0
    outer loop
      vertex -23.7522 -10.5752 2.5
      vertex -23.7522 -10.5752 4
      vertex -21.0344 -15.2824 2.5
    endloop
  endfacet
  facet normal 0.743145 0.669131 0
    outer loop
      vertex -21.0344 -15.2824 4
      vertex -17.3974 -19.3218 4
      vertex -17.3974 -19.3218 2.5
    endloop
  endfacet
  facet normal 0.743145 0.669131 0
    outer loop
      vertex -21.0344 -15.2824 2.5
      vertex -21.0344 -15.2824 4
      vertex -17.3974 -19.3218 2.5
    endloop
  endfacet
  facet normal 0.587785 0.809017 0
    outer loop
      vertex -13 -22.5167 4
      vertex -13 -22.5167 2.5
      vertex -17.3974 -19.3218 4
    endloop
  endfacet
  facet normal 0.587785 0.809017 0
    outer loop
      vertex -17.3974 -19.3218 4
      vertex -13 -22.5167 2.5
      vertex -17.3974 -19.3218 2.5
    endloop
  endfacet
  facet normal 0.406737 0.913545 0
    outer loop
      vertex -8.03444 -24.7275 4
      vertex -8.03444 -24.7275 2.5
      vertex -13 -22.5167 4
    endloop
  endfacet
  facet normal 0.406737 0.913545 0
    outer loop
      vertex -13 -22.5167 4
      vertex -8.03444 -24.7275 2.5
      vertex -13 -22.5167 2.5
    endloop
  endfacet
  facet normal 0.207912 0.978148 0
    outer loop
      vertex -2.71774 -25.8576 4
      vertex -2.71774 -25.8576 2.5
      vertex -8.03444 -24.7275 4
    endloop
  endfacet
  facet normal 0.207912 0.978148 0
    outer loop
      vertex -8.03444 -24.7275 4
      vertex -2.71774 -25.8576 2.5
      vertex -8.03444 -24.7275 2.5
    endloop
  endfacet
  facet normal 0 1 0
    outer loop
      vertex 2.71774 -25.8576 4
      vertex 2.71774 -25.8576 2.5
      vertex -2.71774 -25.8576 4
    endloop
  endfacet
  facet normal 0 1 0
    outer loop
      vertex -2.71774 -25.8576 4
      vertex 2.71774 -25.8576 2.5
      vertex -2.71774 -25.8576 2.5
    endloop
  endfacet
  facet normal -0.207912 0.978148 0
    outer loop
      vertex 8.03444 -24.7275 4
      vertex 8.03444 -24.7275 2.5
      vertex 2.71774 -25.8576 4
    endloop
  endfacet
  facet normal -0.207912 0.978148 0
    outer loop
      vertex 2.71774 -25.8576 4
      vertex 8.03444 -24.7275 2.5
      vertex 2.71774 -25.8576 2.5
    endloop
  endfacet
  facet normal -0.406737 0.913545 0
    outer loop
      vertex 13 -22.5167 4
      vertex 13 -22.5167 2.5
      vertex 8.03444 -24.7275 4
    endloop
  endfacet
  facet normal -0.406737 0.913545 0
    outer loop
      vertex 8.03444 -24.7275 4
      vertex 13 -22.5167 2.5
      vertex 8.03444 -24.7275 2.5
    endloop
  endfacet
  facet normal -0.587785 0.809017 0
    outer loop
      vertex 17.3974 -19.3218 4
      vertex 17.3974 -19.3218 2.5
      vertex 13 -22.5167 4
    endloop
  endfacet
  facet normal -0.587785 0.809017 0
    outer loop
      vertex 13 -22.5167 4
      vertex 17.3974 -19.3218 2.5
      vertex 13 -22.5167 2.5
    endloop
  endfacet
  facet normal -0.743145 0.669131 0
    outer loop
      vertex 21.0344 -15.2824 4
      vertex 21.0344 -15.2824 2.5
      vertex 17.3974 -19.3218 4
    endloop
  endfacet
  facet normal -0.743145 0.669131 0
    outer loop
      vertex 17.3974 -19.3218 4
      vertex 21.0344 -15.2824 2.5
      vertex 17.3974 -19.3218 2.5
    endloop
  endfacet
  facet normal -0.866025 0.5 0
    outer loop
      vertex 23.7522 -10.5752 4
      vertex 23.7522 -10.5752 2.5
      vertex 21.0344 -15.2824 4
    endloop
  endfacet
  facet normal -0.866025 0.5 0
    outer loop
      vertex 21.0344 -15.2824 4
      vertex 23.7522 -10.5752 2.5
      vertex 21.0344 -15.2824 2.5
    endloop
  endfacet
  facet normal -0.951057 0.309017 0
    outer loop
      vertex 25.4318 -5.4057 4
      vertex 25.4318 -5.4057 2.5
      vertex 23.7522 -10.5752 4
    endloop
  endfacet
  facet normal -0.951057 0.309017 0
    outer loop
      vertex 23.7522 -10.5752 4
      vertex 25.4318 -5.4057 2.5
      vertex 23.7522 -10.5752 2.5
    endloop
  endfacet
  facet normal -0.994522 0.104528 0
    outer loop
      vertex 26 0 4
      vertex 26 0 2.5
      vertex 25.4318 -5.4057 4
    endloop
  endfacet
  facet normal -0.994522 0.104528 0
    outer loop
      vertex 25.4318 -5.4057 4
      vertex 26 0 2.5
      vertex 25.4318 -5.4057 2.5
    endloop
  endfacet
  facet normal -0.994522 -0.104528 0
    outer loop
      vertex 26 0 4
      vertex 25.4318 5.4057 4
      vertex 26 0 2.5
    endloop
  endfacet
  facet normal -0.994522 -0.104528 0
    outer loop
      vertex 26 0 2.5
      vertex 25.4318 5.4057 4
      vertex 25.4318 5.4057 2.5
    endloop
  endfacet
  facet normal -0.951057 -0.309017 0
    outer loop
      vertex 25.4318 5.4057 4
      vertex 23.7522 10.5752 4
      vertex 25.4318 5.4057 2.5
    endloop
  endfacet
  facet normal -0.951057 -0.309017 0
    outer loop
      vertex 25.4318 5.4057 2.5
      vertex 23.7522 10.5752 4
      vertex 23.7522 10.5752 2.5
    endloop
  endfacet
  facet normal -0.866025 -0.5 0
    outer loop
      vertex 23.7522 10.5752 4
      vertex 21.0344 15.2824 4
      vertex 23.7522 10.5752 2.5
    endloop
  endfacet
  facet normal -0.866025 -0.5 0
    outer loop
      vertex 23.7522 10.5752 2.5
      vertex 21.0344 15.2824 4
      vertex 21.0344 15.2824 2.5
    endloop
  endfacet
  facet normal -0.743145 -0.669131 0
    outer loop
      vertex 21.0344 15.2824 4
      vertex 17.3974 19.3218 4
      vertex 21.0344 15.2824 2.5
    endloop
  endfacet
  facet normal -0.743145 -0.669131 0
    outer loop
      vertex 21.0344 15.2824 2.5
      vertex 17.3974 19.3218 4
      vertex 17.3974 19.3218 2.5
    endloop
  endfacet
  facet normal -0.587785 -0.809017 0
    outer loop
      vertex 17.3974 19.3218 2.5
      vertex 17.3974 19.3218 4
      vertex 13 22.5167 4
    endloop
  endfacet
  facet normal -0.587785 -0.809017 0
    outer loop
      vertex 13 22.5167 2.5
      vertex 17.3974 19.3218 2.5
      vertex 13 22.5167 4
    endloop
  endfacet
  facet normal -0.406737 -0.913545 0
    outer loop
      vertex 13 22.5167 2.5
      vertex 13 22.5167 4
      vertex 8.03444 24.7275 4
    endloop
  endfacet
  facet normal -0.406737 -0.913545 0
    outer loop
      vertex 8.03444 24.7275 2.5
      vertex 13 22.5167 2.5
      vertex 8.03444 24.7275 4
    endloop
  endfacet
  facet normal -0.207912 -0.978148 0
    outer loop
      vertex 8.03444 24.7275 2.5
      vertex 8.03444 24.7275 4
      vertex 2.71774 25.8576 4
    endloop
  endfacet
  facet normal -0.207912 -0.978148 0
    outer loop
      vertex 2.71774 25.8576 2.5
      vertex 8.03444 24.7275 2.5
      vertex 2.71774 25.8576 4
    endloop
  endfacet
  facet normal 0 -1 0
    outer loop
      vertex 2.71774 25.8576 2.5
      vertex 2.71774 25.8576 4
      vertex -2.71774 25.8576 4
    endloop
  endfacet
  facet normal 0 -1 0
    outer loop
      vertex -2.71774 25.8576 2.5
      vertex 2.71774 25.8576 2.5
      vertex -2.71774 25.8576 4
    endloop
  endfacet
  facet normal 0.207912 -0.978148 0
    outer loop
      vertex -2.71774 25.8576 2.5
      vertex -2.71774 25.8576 4
      vertex -8.03444 24.7275 4
    endloop
  endfacet
  facet normal 0.207912 -0.978148 0
    outer loop
      vertex -8.03444 24.7275 2.5
      vertex -2.71774 25.8576 2.5
      vertex -8.03444 24.7275 4
    endloop
  endfacet
  facet normal 0.406737 -0.913545 0
    outer loop
      vertex -8.03444 24.7275 2.5
      vertex -8.03444 24.7275 4
      vertex -13 22.5167 4
    endloop
  endfacet
  facet normal 0.406737 -0.913545 0
    outer loop
      vertex -13 22.5167 2.5
      vertex -8.03444 24.7275 2.5
      vertex -13 22.5167 4
    endloop
  endfacet
  facet normal 0.587785 -0.809017 0
    outer loop
      vertex -13 22.5167 2.5
      vertex -13 22.5167 4
      vertex -17.3974 19.3218 4
    endloop
  endfacet
  facet normal 0.587785 -0.809017 0
    outer loop
      vertex -17.3974 19.3218 2.5
      vertex -13 22.5167 2.5
      vertex -17.3974 19.3218 4
    endloop
  endfacet
  facet normal 0.743145 -0.669131 0
    outer loop
      vertex -17.3974 19.3218 2.5
      vertex -17.3974 19.3218 4
      vertex -21.0344 15.2824 4
    endloop
  endfacet
  facet normal 0.743145 -0.669131 0
    outer loop
      vertex -21.0344 15.2824 2.5
      vertex -17.3974 19.3218 2.5
      vertex -21.0344 15.2824 4
    endloop
  endfacet
  facet normal 0.866025 -0.5 0
    outer loop
      vertex -21.0344 15.2824 2.5
      vertex -21.0344 15.2824 4
      vertex -23.7522 10.5752 4
    endloop
  endfacet
  facet normal 0.866025 -0.5 0
    outer loop
      vertex -23.7522 10.5752 2.5
      vertex -21.0344 15.2824 2.5
      vertex -23.7522 10.5752 4
    endloop
  endfacet
  facet normal 0.951057 -0.309017 0
    outer loop
      vertex -23.7522 10.5752 2.5
      vertex -23.7522 10.5752 4
      vertex -25.4318 5.4057 4
    endloop
  endfacet
  facet normal 0.951057 -0.309017 0
    outer loop
      vertex -25.4318 5.4057 2.5
      vertex -23.7522 10.5752 2.5
      vertex -25.4318 5.4057 4
    endloop
  endfacet
  facet normal 0.994522 -0.104528 0
    outer loop
      vertex -25.4318 5.4057 2.5
      vertex -25.4318 5.4057 4
      vertex -26 0 4
    endloop
  endfacet
  facet normal 0.994522 -0.104528 0
    outer loop
      vertex -26 0 2.5
      vertex -25.4318 5.4057 2.5
      vertex -26 0 4
    endloop
  endfacet
  facet normal 0.994522 -0.104528 0
    outer loop
      vertex -24.6982 5.24977 1
      vertex -24.6982 5.24977 2.5
      vertex -25.25 0 2.5
    endloop
  endfacet
  facet normal 0.994522 -0.104528 0
    outer loop
      vertex -25.25 0 1
      vertex -24.6982 5.24977 1
      vertex -25.25 0 2.5
    endloop
  endfacet
  facet normal 0.994522 0.104528 0
    outer loop
      vertex -25.25 0 2.5
      vertex -24.6982 -5.24977 2.5
      vertex -24.6982 -5.24977 1
    endloop
  endfacet
  facet normal 0.994522 0.104528 0
    outer loop
      vertex -25.25 0 1
      vertex -25.25 0 2.5
      vertex -24.6982 -5.24977 1
    endloop
  endfacet
  facet normal 0.951057 -0.309017 0
    outer loop
      vertex -23.067 10.2701 1
      vertex -23.067 10.2701 2.5
      vertex -24.6982 5.24977 2.5
    endloop
  endfacet
  facet normal 0.951057 -0.309017 0
    outer loop
      vertex -24.6982 5.24977 1
      vertex -23.067 10.2701 1
      vertex -24.6982 5.24977 2.5
    endloop
  endfacet
  facet normal 0.866025 -0.5 0
    outer loop
      vertex -20.4277 14.8416 1
      vertex -20.4277 14.8416 2.5
      vertex -23.067 10.2701 2.5
    endloop
  endfacet
  facet normal 0.866025 -0.5 0
    outer loop
      vertex -23.067 10.2701 1
      vertex -20.4277 14.8416 1
      vertex -23.067 10.2701 2.5
    endloop
  endfacet
  facet normal 0.743145 -0.669131 0
    outer loop
      vertex -16.8955 18.7644 1
      vertex -16.8955 18.7644 2.5
      vertex -20.4277 14.8416 2.5
    endloop
  endfacet
  facet normal 0.743145 -0.669131 0
    outer loop
      vertex -20.4277 14.8416 1
      vertex -16.8955 18.7644 1
      vertex -20.4277 14.8416 2.5
    endloop
  endfacet
  facet normal 0.587785 -0.809017 0
    outer loop
      vertex -12.625 21.8671 1
      vertex -12.625 21.8671 2.5
      vertex -16.8955 18.7644 2.5
    endloop
  endfacet
  facet normal 0.587785 -0.809017 0
    outer loop
      vertex -16.8955 18.7644 1
      vertex -12.625 21.8671 1
      vertex -16.8955 18.7644 2.5
    endloop
  endfacet
  facet normal 0.406737 -0.913545 0
    outer loop
      vertex -7.80268 24.0142 1
      vertex -7.80268 24.0142 2.5
      vertex -12.625 21.8671 2.5
    endloop
  endfacet
  facet normal 0.406737 -0.913545 0
    outer loop
      vertex -12.625 21.8671 1
      vertex -7.80268 24.0142 1
      vertex -12.625 21.8671 2.5
    endloop
  endfacet
  facet normal 0.207912 -0.978148 0
    outer loop
      vertex -2.63934 25.1117 1
      vertex -2.63934 25.1117 2.5
      vertex -7.80268 24.0142 2.5
    endloop
  endfacet
  facet normal 0.207912 -0.978148 0
    outer loop
      vertex -7.80268 24.0142 1
      vertex -2.63934 25.1117 1
      vertex -7.80268 24.0142 2.5
    endloop
  endfacet
  facet normal 0 -1 0
    outer loop
      vertex 2.63934 25.1117 1
      vertex 2.63934 25.1117 2.5
      vertex -2.63934 25.1117 2.5
    endloop
  endfacet
  facet normal 0 -1 0
    outer loop
      vertex -2.63934 25.1117 1
      vertex 2.63934 25.1117 1
      vertex -2.63934 25.1117 2.5
    endloop
  endfacet
  facet normal -0.207912 -0.978148 0
    outer loop
      vertex 7.80268 24.0142 1
      vertex 7.80268 24.0142 2.5
      vertex 2.63934 25.1117 2.5
    endloop
  endfacet
  facet normal -0.207912 -0.978148 0
    outer loop
      vertex 2.63934 25.1117 1
      vertex 7.80268 24.0142 1
      vertex 2.63934 25.1117 2.5
    endloop
  endfacet
  facet normal -0.406737 -0.913545 0
    outer loop
      vertex 12.625 21.8671 1
      vertex 12.625 21.8671 2.5
      vertex 7.80268 24.0142 2.5
    endloop
  endfacet
  facet normal -0.406737 -0.913545 0
    outer loop
      vertex 7.80268 24.0142 1
      vertex 12.625 21.8671 1
      vertex 7.80268 24.0142 2.5
    endloop
  endfacet
  facet normal -0.587785 -0.809017 0
    outer loop
      vertex 16.8955 18.7644 1
      vertex 16.8955 18.7644 2.5
      vertex 12.625 21.8671 2.5
    endloop
  endfacet
  facet normal -0.587785 -0.809017 0
    outer loop
      vertex 12.625 21.8671 1
      vertex 16.8955 18.7644 1
      vertex 12.625 21.8671 2.5
    endloop
  endfacet
  facet normal -0.743145 -0.669131 0
    outer loop
      vertex 20.4277 14.8416 2.5
      vertex 16.8955 18.7644 2.5
      vertex 20.4277 14.8416 1
    endloop
  endfacet
  facet normal -0.743145 -0.669131 0
    outer loop
      vertex 20.4277 14.8416 1
      vertex 16.8955 18.7644 2.5
      vertex 16.8955 18.7644 1
    endloop
  endfacet
  facet normal -0.866025 -0.5 0
    outer loop
      vertex 23.067 10.2701 2.5
      vertex 20.4277 14.8416 2.5
      vertex 23.067 10.2701 1
    endloop
  endfacet
  facet normal -0.866025 -0.5 0
    outer loop
      vertex 23.067 10.2701 1
      vertex 20.4277 14.8416 2.5
      vertex 20.4277 14.8416 1
    endloop
  endfacet
  facet normal -0.951057 -0.309017 0
    outer loop
      vertex 24.6982 5.24977 2.5
      vertex 23.067 10.2701 2.5
      vertex 24.6982 5.24977 1
    endloop
  endfacet
  facet normal -0.951057 -0.309017 0
    outer loop
      vertex 24.6982 5.24977 1
      vertex 23.067 10.2701 2.5
      vertex 23.067 10.2701 1
    endloop
  endfacet
  facet normal -0.994522 -0.104528 0
    outer loop
      vertex 25.25 0 2.5
      vertex 24.6982 5.24977 2.5
      vertex 25.25 0 1
    endloop
  endfacet
  facet normal -0.994522 -0.104528 0
    outer loop
      vertex 25.25 0 1
      vertex 24.6982 5.24977 2.5
      vertex 24.6982 5.24977 1
    endloop
  endfacet
  facet normal -0.994522 0.104528 0
    outer loop
      vertex 25.25 0 2.5
      vertex 25.25 0 1
      vertex 24.6982 -5.24977 2.5
    endloop
  endfacet
  facet normal -0.994522 0.104528 0
    outer loop
      vertex 24.6982 -5.24977 2.5
      vertex 25.25 0 1
      vertex 24.6982 -5.24977 1
    endloop
  endfacet
  facet normal -0.951057 0.309017 0
    outer loop
      vertex 24.6982 -5.24977 2.5
      vertex 24.6982 -5.24977 1
      vertex 23.067 -10.2701 2.5
    endloop
  endfacet
  facet normal -0.951057 0.309017 0
    outer loop
      vertex 23.067 -10.2701 2.5
      vertex 24.6982 -5.24977 1
      vertex 23.067 -10.2701 1
    endloop
  endfacet
  facet normal -0.866025 0.5 0
    outer loop
      vertex 23.067 -10.2701 2.5
      vertex 23.067 -10.2701 1
      vertex 20.4277 -14.8416 2.5
    endloop
  endfacet
  facet normal -0.866025 0.5 0
    outer loop
      vertex 20.4277 -14.8416 2.5
      vertex 23.067 -10.2701 1
      vertex 20.4277 -14.8416 1
    endloop
  endfacet
  facet normal -0.743145 0.669131 0
    outer loop
      vertex 20.4277 -14.8416 2.5
      vertex 20.4277 -14.8416 1
      vertex 16.8955 -18.7644 2.5
    endloop
  endfacet
  facet normal -0.743145 0.669131 0
    outer loop
      vertex 16.8955 -18.7644 2.5
      vertex 20.4277 -14.8416 1
      vertex 16.8955 -18.7644 1
    endloop
  endfacet
  facet normal -0.587785 0.809017 0
    outer loop
      vertex 16.8955 -18.7644 2.5
      vertex 16.8955 -18.7644 1
      vertex 12.625 -21.8671 2.5
    endloop
  endfacet
  facet normal -0.587785 0.809017 0
    outer loop
      vertex 12.625 -21.8671 2.5
      vertex 16.8955 -18.7644 1
      vertex 12.625 -21.8671 1
    endloop
  endfacet
  facet normal -0.406737 0.913545 0
    outer loop
      vertex 12.625 -21.8671 2.5
      vertex 12.625 -21.8671 1
      vertex 7.80268 -24.0142 2.5
    endloop
  endfacet
  facet normal -0.406737 0.913545 0
    outer loop
      vertex 7.80268 -24.0142 2.5
      vertex 12.625 -21.8671 1
      vertex 7.80268 -24.0142 1
    endloop
  endfacet
  facet normal -0.207912 0.978148 0
    outer loop
      vertex 7.80268 -24.0142 2.5
      vertex 7.80268 -24.0142 1
      vertex 2.63934 -25.1117 2.5
    endloop
  endfacet
  facet normal -0.207912 0.978148 0
    outer loop
      vertex 2.63934 -25.1117 2.5
      vertex 7.80268 -24.0142 1
      vertex 2.63934 -25.1117 1
    endloop
  endfacet
  facet normal 0 1 0
    outer loop
      vertex 2.63934 -25.1117 2.5
      vertex 2.63934 -25.1117 1
      vertex -2.63934 -25.1117 2.5
    endloop
  endfacet
  facet normal 0 1 0
    outer loop
      vertex -2.63934 -25.1117 2.5
      vertex 2.63934 -25.1117 1
      vertex -2.63934 -25.1117 1
    endloop
  endfacet
  facet normal 0.207912 0.978148 0
    outer loop
      vertex -2.63934 -25.1117 2.5
      vertex -2.63934 -25.1117 1
      vertex -7.80268 -24.0142 2.5
    endloop
  endfacet
  facet normal 0.207912 0.978148 0
    outer loop
      vertex -7.80268 -24.0142 2.5
      vertex -2.63934 -25.1117 1
      vertex -7.80268 -24.0142 1
    endloop
  endfacet
  facet normal 0.406737 0.913545 0
    outer loop
      vertex -7.80268 -24.0142 2.5
      vertex -7.80268 -24.0142 1
      vertex -12.625 -21.8671 2.5
    endloop
  endfacet
  facet normal 0.406737 0.913545 0
    outer loop
      vertex -12.625 -21.8671 2.5
      vertex -7.80268 -24.0142 1
      vertex -12.625 -21.8671 1
    endloop
  endfacet
  facet normal 0.587785 0.809017 0
    outer loop
      vertex -12.625 -21.8671 2.5
      vertex -12.625 -21.8671 1
      vertex -16.8955 -18.7644 2.5
    endloop
  endfacet
  facet normal 0.587785 0.809017 0
    outer loop
      vertex -16.8955 -18.7644 2.5
      vertex -12.625 -21.8671 1
      vertex -16.8955 -18.7644 1
    endloop
  endfacet
  facet normal 0.743145 0.669131 0
    outer loop
      vertex -20.4277 -14.8416 2.5
      vertex -16.8955 -18.7644 2.5
      vertex -16.8955 -18.7644 1
    endloop
  endfacet
  facet normal 0.743145 0.669131 0
    outer loop
      vertex -20.4277 -14.8416 1
      vertex -20.4277 -14.8416 2.5
      vertex -16.8955 -18.7644 1
    endloop
  endfacet
  facet normal 0.866025 0.5 0
    outer loop
      vertex -23.067 -10.2701 2.5
      vertex -20.4277 -14.8416 2.5
      vertex -20.4277 -14.8416 1
    endloop
  endfacet
  facet normal 0.866025 0.5 0
    outer loop
      vertex -23.067 -10.2701 1
      vertex -23.067 -10.2701 2.5
      vertex -20.4277 -14.8416 1
    endloop
  endfacet
  facet normal 0.951057 0.309017 0
    outer loop
      vertex -24.6982 -5.24977 2.5
      vertex -23.067 -10.2701 2.5
      vertex -23.067 -10.2701 1
    endloop
  endfacet
  facet normal 0.951057 0.309017 0
    outer loop
      vertex -24.6982 -5.24977 1
      vertex -24.6982 -5.24977 2.5
      vertex -23.067 -10.2701 1
    endloop
  endfacet
  facet normal 0 0 1
    outer loop
      vertex -25.4318 5.4057 2.5
      vertex -26 0 2.5
      vertex -25.4318 -5.4057 2.5
    endloop
  endfacet
  facet normal 0 0 1
    outer loop
      vertex 16.8955 -18.7644 2.5
      vertex 12.625 -21.8671 2.5
      vertex 17.3974 -19.3218 2.5
    endloop
  endfacet
  facet normal 0 0 1
    outer loop
      vertex -25.25 0 2.5
      vertex -25.4318 5.4057 2.5
      vertex -25.4318 -5.4057 2.5
    endloop
  endfacet
  facet normal 0 0 1
    outer loop
      vertex -23.7522 10.5752 2.5
      vertex -25.4318 5.4057 2.5
      vertex -21.0344 15.2824 2.5
    endloop
  endfacet
  facet normal 0 0 1
    outer loop
      vertex -23.7522 -10.5752 2.5
      vertex -24.6982 -5.24977 2.5
      vertex -25.4318 -5.4057 2.5
    endloop
  endfacet
  facet normal 0 0 1
    outer loop
      vertex -24.6982 -5.24977 2.5
      vertex -25.25 0 2.5
      vertex -25.4318 -5.4057 2.5
    endloop
  endfacet
  facet normal 0 0 1
    outer loop
      vertex 20.4277 -14.8416 2.5
      vertex 16.8955 -18.7644 2.5
      vertex 21.0344 -15.2824 2.5
    endloop
  endfacet
  facet normal 0 0 1
    outer loop
      vertex -16.8955 18.7644 2.5
      vertex -12.625 21.8671 2.5
      vertex -13 22.5167 2.5
    endloop
  endfacet
  facet normal 0 0 1
    outer loop
      vertex -21.0344 15.2824 2.5
      vertex -25.4318 5.4057 2.5
      vertex -23.067 10.2701 2.5
    endloop
  endfacet
  facet normal 0 0 1
    outer loop
      vertex -21.0344 15.2824 2.5
      vertex -20.4277 14.8416 2.5
      vertex -17.3974 19.3218 2.5
    endloop
  endfacet
  facet normal 0 0 1
    outer loop
      vertex -21.0344 15.2824 2.5
      vertex -23.067 10.2701 2.5
      vertex -20.4277 14.8416 2.5
    endloop
  endfacet
  facet normal 0 0 1
    outer loop
      vertex -17.3974 19.3218 2.5
      vertex -16.8955 18.7644 2.5
      vertex -13 22.5167 2.5
    endloop
  endfacet
  facet normal 0 0 1
    outer loop
      vertex -20.4277 14.8416 2.5
      vertex -16.8955 18.7644 2.5
      vertex -17.3974 19.3218 2.5
    endloop
  endfacet
  facet normal 0 0 1
    outer loop
      vertex -13 22.5167 2.5
      vertex -12.625 21.8671 2.5
      vertex -8.03444 24.7275 2.5
    endloop
  endfacet
  facet normal 0 0 1
    outer loop
      vertex -8.03444 24.7275 2.5
      vertex -7.80268 24.0142 2.5
      vertex -2.71774 25.8576 2.5
    endloop
  endfacet
  facet normal 0 0 1
    outer loop
      vertex -2.71774 25.8576 2.5
      vertex -2.63934 25.1117 2.5
      vertex 2.71774 25.8576 2.5
    endloop
  endfacet
  facet normal 0 0 1
    outer loop
      vertex 2.71774 25.8576 2.5
      vertex 2.63934 25.1117 2.5
      vertex 8.03444 24.7275 2.5
    endloop
  endfacet
  facet normal 0 0 1
    outer loop
      vertex 8.03444 24.7275 2.5
      vertex 7.80268 24.0142 2.5
      vertex 13 22.5167 2.5
    endloop
  endfacet
  facet normal 0 0 1
    outer loop
      vertex 13 22.5167 2.5
      vertex 12.625 21.8671 2.5
      vertex 17.3974 19.3218 2.5
    endloop
  endfacet
  facet normal 0 0 1
    outer loop
      vertex 17.3974 19.3218 2.5
      vertex 16.8955 18.7644 2.5
      vertex 21.0344 15.2824 2.5
    endloop
  endfacet
  facet normal 0 0 1
    outer loop
      vertex 21.0344 15.2824 2.5
      vertex 20.4277 14.8416 2.5
      vertex 23.7522 10.5752 2.5
    endloop
  endfacet
  facet normal 0 0 1
    outer loop
      vertex 23.7522 10.5752 2.5
      vertex 23.067 10.2701 2.5
      vertex 25.4318 5.4057 2.5
    endloop
  endfacet
  facet normal 0 0 1
    outer loop
      vertex 25.4318 5.4057 2.5
      vertex 24.6982 5.24977 2.5
      vertex 26 0 2.5
    endloop
  endfacet
  facet normal 0 0 1
    outer loop
      vertex 26 0 2.5
      vertex 25.25 0 2.5
      vertex 25.4318 -5.4057 2.5
    endloop
  endfacet
  facet normal 0 0 1
    outer loop
      vertex 25.25 0 2.5
      vertex 24.6982 -5.24977 2.5
      vertex 25.4318 -5.4057 2.5
    endloop
  endfacet
  facet normal 0 0 1
    outer loop
      vertex 25.4318 -5.4057 2.5
      vertex 23.067 -10.2701 2.5
      vertex 23.7522 -10.5752 2.5
    endloop
  endfacet
  facet normal 0 0 1
    outer loop
      vertex 23.7522 -10.5752 2.5
      vertex 20.4277 -14.8416 2.5
      vertex 21.0344 -15.2824 2.5
    endloop
  endfacet
  facet normal 0 0 1
    outer loop
      vertex -12.625 21.8671 2.5
      vertex -7.80268 24.0142 2.5
      vertex -8.03444 24.7275 2.5
    endloop
  endfacet
  facet normal 0 0 1
    outer loop
      vertex 21.0344 -15.2824 2.5
      vertex 16.8955 -18.7644 2.5
      vertex 17.3974 -19.3218 2.5
    endloop
  endfacet
  facet normal 0 0 1
    outer loop
      vertex -7.80268 24.0142 2.5
      vertex -2.63934 25.1117 2.5
      vertex -2.71774 25.8576 2.5
    endloop
  endfacet
  facet normal 0 0 1
    outer loop
      vertex 17.3974 -19.3218 2.5
      vertex 12.625 -21.8671 2.5
      vertex 13 -22.5167 2.5
    endloop
  endfacet
  facet normal 0 0 1
    outer loop
      vertex -2.63934 25.1117 2.5
      vertex 2.63934 25.1117 2.5
      vertex 2.71774 25.8576 2.5
    endloop
  endfacet
  facet normal 0 0 1
    outer loop
      vertex 13 -22.5167 2.5
      vertex 7.80268 -24.0142 2.5
      vertex 8.03444 -24.7275 2.5
    endloop
  endfacet
  facet normal 0 0 1
    outer loop
      vertex 2.63934 25.1117 2.5
      vertex 7.80268 24.0142 2.5
      vertex 8.03444 24.7275 2.5
    endloop
  endfacet
  facet normal 0 0 1
    outer loop
      vertex 8.03444 -24.7275 2.5
      vertex 2.63934 -25.1117 2.5
      vertex 2.71774 -25.8576 2.5
    endloop
  endfacet
  facet normal 0 0 1
    outer loop
      vertex 7.80268 24.0142 2.5
      vertex 12.625 21.8671 2.5
      vertex 13 22.5167 2.5
    endloop
  endfacet
  facet normal 0 0 1
    outer loop
      vertex 2.71774 -25.8576 2.5
      vertex -2.63934 -25.1117 2.5
      vertex -2.71774 -25.8576 2.5
    endloop
  endfacet
  facet normal 0 0 1
    outer loop
      vertex 12.625 21.8671 2.5
      vertex 16.8955 18.7644 2.5
      vertex 17.3974 19.3218 2.5
    endloop
  endfacet
  facet normal 0 0 1
    outer loop
      vertex -2.71774 -25.8576 2.5
      vertex -7.80268 -24.0142 2.5
      vertex -8.03444 -24.7275 2.5
    endloop
  endfacet
  facet normal 0 0 1
    outer loop
      vertex 16.8955 18.7644 2.5
      vertex 20.4277 14.8416 2.5
      vertex 21.0344 15.2824 2.5
    endloop
  endfacet
  facet normal 0 0 1
    outer loop
      vertex -8.03444 -24.7275 2.5
      vertex -12.625 -21.8671 2.5
      vertex -13 -22.5167 2.5
    endloop
  endfacet
  facet normal 0 0 1
    outer loop
      vertex 20.4277 14.8416 2.5
      vertex 23.067 10.2701 2.5
      vertex 23.7522 10.5752 2.5
    endloop
  endfacet
  facet normal 0 0 1
    outer loop
      vertex -13 -22.5167 2.5
      vertex -16.8955 -18.7644 2.5
      vertex -17.3974 -19.3218 2.5
    endloop
  endfacet
  facet normal 0 0 1
    outer loop
      vertex 23.067 10.2701 2.5
      vertex 24.6982 5.24977 2.5
      vertex 25.4318 5.4057 2.5
    endloop
  endfacet
  facet normal 0 0 1
    outer loop
      vertex -17.3974 -19.3218 2.5
      vertex -20.4277 -14.8416 2.5
      vertex -21.0344 -15.2824 2.5
    endloop
  endfacet
  facet normal 0 0 1
    outer loop
      vertex 24.6982 5.24977 2.5
      vertex 25.25 0 2.5
      vertex 26 0 2.5
    endloop
  endfacet
  facet normal 0 0 1
    outer loop
      vertex -21.0344 -15.2824 2.5
      vertex -23.067 -10.2701 2.5
      vertex -23.7522 -10.5752 2.5
    endloop
  endfacet
  facet normal 0 0 1
    outer loop
      vertex 24.6982 -5.24977 2.5
      vertex 23.067 -10.2701 2.5
      vertex 25.4318 -5.4057 2.5
    endloop
  endfacet
  facet normal 0 0 1
    outer loop
      vertex -23.067 -10.2701 2.5
      vertex -24.6982 -5.24977 2.5
      vertex -23.7522 -10.5752 2.5
    endloop
  endfacet
  facet normal 0 0 1
    outer loop
      vertex 12.625 -21.8671 2.5
      vertex 7.80268 -24.0142 2.5
      vertex 13 -22.5167 2.5
    endloop
  endfacet
  facet normal 0 0 1
    outer loop
      vertex 7.80268 -24.0142 2.5
      vertex 2.63934 -25.1117 2.5
      vertex 8.03444 -24.7275 2.5
    endloop
  endfacet
  facet normal 0 0 1
    outer loop
      vertex 2.63934 -25.1117 2.5
      vertex -2.63934 -25.1117 2.5
      vertex 2.71774 -25.8576 2.5
    endloop
  endfacet
  facet normal 0 0 1
    outer loop
      vertex -2.63934 -25.1117 2.5
      vertex -7.80268 -24.0142 2.5
      vertex -2.71774 -25.8576 2.5
    endloop
  endfacet
  facet normal 0 0 1
    outer loop
      vertex -7.80268 -24.0142 2.5
      vertex -12.625 -21.8671 2.5
      vertex -8.03444 -24.7275 2.5
    endloop
  endfacet
  facet normal 0 0 1
    outer loop
      vertex -12.625 -21.8671 2.5
      vertex -16.8955 -18.7644 2.5
      vertex -13 -22.5167 2.5
    endloop
  endfacet
  facet normal 0 0 1
    outer loop
      vertex -16.8955 -18.7644 2.5
      vertex -20.4277 -14.8416 2.5
      vertex -17.3974 -19.3218 2.5
    endloop
  endfacet
  facet normal 0 0 1
    outer loop
      vertex -20.4277 -14.8416 2.5
      vertex -23.067 -10.2701 2.5
      vertex -21.0344 -15.2824 2.5
    endloop
  endfacet
  facet normal 0 0 1
    outer loop
      vertex -25.25 0 2.5
      vertex -24.6982 5.24977 2.5
      vertex -25.4318 5.4057 2.5
    endloop
  endfacet
  facet normal 0 0 1
    outer loop
      vertex 23.067 -10.2701 2.5
      vertex 20.4277 -14.8416 2.5
      vertex 23.7522 -10.5752 2.5
    endloop
  endfacet
  facet normal 0 0 1
    outer loop
      vertex -24.6982 5.24977 2.5
      vertex -23.067 10.2701 2.5
      vertex -25.4318 5.4057 2.5
    endloop
  endfacet
endsolid OpenSCAD_Model
