solid OpenSCAD_Model
  facet normal -1 0 0
    outer loop
      vertex 0 0 0
      vertex 0 0 3
      vertex 0 56 0
    endloop
  endfacet
  facet normal -1 0 0
    outer loop
      vertex 0 56 0
      vertex 0 0 3
      vertex 0 56 3
    endloop
  endfacet
  facet normal 0 -1 0
    outer loop
      vertex 0 0 3
      vertex 0 0 0
      vertex 84.5 0 0
    endloop
  endfacet
  facet normal 0 -1 0
    outer loop
      vertex 84.5 0 3
      vertex 0 0 3
      vertex 84.5 0 0
    endloop
  endfacet
  facet normal 0 0 -1
    outer loop
      vertex 81.747 2.43634 0
      vertex 84.5 0 0
      vertex 80.055 2.05014 0
    endloop
  endfacet
  facet normal 0 0 -1
    outer loop
      vertex 23.055 53.9499 0
      vertex 0 56 0
      vertex 84.5 56 0
    endloop
  endfacet
  facet normal 0 0 -1
    outer loop
      vertex 0 0 0
      vertex 0 56 0
      vertex 21.6981 4.86777 0
    endloop
  endfacet
  facet normal 0 0 -1
    outer loop
      vertex 0 0 0
      vertex 21.6981 4.86777 0
      vertex 21.6981 3.13223 0
    endloop
  endfacet
  facet normal 0 0 -1
    outer loop
      vertex 0 0 0
      vertex 21.6981 3.13223 0
      vertex 23.055 2.05014 0
    endloop
  endfacet
  facet normal 0 0 -1
    outer loop
      vertex 0 0 0
      vertex 23.055 2.05014 0
      vertex 84.5 0 0
    endloop
  endfacet
  facet normal 0 0 -1
    outer loop
      vertex 23.055 2.05014 0
      vertex 24.747 2.43634 0
      vertex 84.5 0 0
    endloop
  endfacet
  facet normal 0 0 -1
    outer loop
      vertex 24.747 5.56366 0
      vertex 84.5 0 0
      vertex 25.5 4 0
    endloop
  endfacet
  facet normal 0 0 -1
    outer loop
      vertex 23.055 5.94986 0
      vertex 0 56 0
      vertex 24.747 5.56366 0
    endloop
  endfacet
  facet normal 0 0 -1
    outer loop
      vertex 21.6981 52.8678 0
      vertex 0 56 0
      vertex 23.055 53.9499 0
    endloop
  endfacet
  facet normal 0 0 -1
    outer loop
      vertex 21.6981 4.86777 0
      vertex 0 56 0
      vertex 23.055 5.94986 0
    endloop
  endfacet
  facet normal 0 0 -1
    outer loop
      vertex 21.6981 51.1322 0
      vertex 0 56 0
      vertex 21.6981 52.8678 0
    endloop
  endfacet
  facet normal 0 0 -1
    outer loop
      vertex 81.747 5.56366 0
      vertex 84.5 56 0
      vertex 82.5 4 0
    endloop
  endfacet
  facet normal 0 0 -1
    outer loop
      vertex 24.747 53.5637 0
      vertex 84.5 56 0
      vertex 25.5 52 0
    endloop
  endfacet
  facet normal 0 0 -1
    outer loop
      vertex 80.055 53.9499 0
      vertex 24.747 50.4363 0
      vertex 84.5 56 0
    endloop
  endfacet
  facet normal 0 0 -1
    outer loop
      vertex 24.747 50.4363 0
      vertex 25.5 52 0
      vertex 84.5 56 0
    endloop
  endfacet
  facet normal 0 0 -1
    outer loop
      vertex 78.6981 3.13223 0
      vertex 0 56 0
      vertex 21.6981 51.1322 0
    endloop
  endfacet
  facet normal 0 0 -1
    outer loop
      vertex 78.6981 4.86777 0
      vertex 24.747 50.4363 0
      vertex 80.055 5.94986 0
    endloop
  endfacet
  facet normal 0 0 -1
    outer loop
      vertex 24.747 50.4363 0
      vertex 78.6981 4.86777 0
      vertex 23.055 50.0501 0
    endloop
  endfacet
  facet normal 0 0 -1
    outer loop
      vertex 24.747 53.5637 0
      vertex 23.055 53.9499 0
      vertex 84.5 56 0
    endloop
  endfacet
  facet normal 0 0 -1
    outer loop
      vertex 24.747 5.56366 0
      vertex 0 56 0
      vertex 78.6981 3.13223 0
    endloop
  endfacet
  facet normal 0 0 -1
    outer loop
      vertex 24.747 5.56366 0
      vertex 78.6981 3.13223 0
      vertex 80.055 2.05014 0
    endloop
  endfacet
  facet normal 0 0 -1
    outer loop
      vertex 24.747 5.56366 0
      vertex 80.055 2.05014 0
      vertex 84.5 0 0
    endloop
  endfacet
  facet normal 0 0 -1
    outer loop
      vertex 78.6981 3.13223 0
      vertex 21.6981 51.1322 0
      vertex 23.055 50.0501 0
    endloop
  endfacet
  facet normal 0 0 -1
    outer loop
      vertex 84.5 0 0
      vertex 81.747 2.43634 0
      vertex 82.5 4 0
    endloop
  endfacet
  facet normal 0 0 -1
    outer loop
      vertex 84.5 0 0
      vertex 82.5 4 0
      vertex 84.5 56 0
    endloop
  endfacet
  facet normal 0 0 -1
    outer loop
      vertex 80.055 5.94986 0
      vertex 24.747 50.4363 0
      vertex 81.747 5.56366 0
    endloop
  endfacet
  facet normal 0 0 -1
    outer loop
      vertex 80.055 50.0501 0
      vertex 81.747 5.56366 0
      vertex 78.6981 51.1322 0
    endloop
  endfacet
  facet normal 0 0 -1
    outer loop
      vertex 78.6981 3.13223 0
      vertex 23.055 50.0501 0
      vertex 78.6981 4.86777 0
    endloop
  endfacet
  facet normal 0 0 -1
    outer loop
      vertex 78.6981 51.1322 0
      vertex 24.747 50.4363 0
      vertex 78.6981 52.8678 0
    endloop
  endfacet
  facet normal 0 0 -1
    outer loop
      vertex 81.747 5.56366 0
      vertex 24.747 50.4363 0
      vertex 78.6981 51.1322 0
    endloop
  endfacet
  facet normal 0 0 -1
    outer loop
      vertex 81.747 53.5637 0
      vertex 84.5 56 0
      vertex 82.5 52 0
    endloop
  endfacet
  facet normal 0 0 -1
    outer loop
      vertex 81.747 5.56366 0
      vertex 80.055 50.0501 0
      vertex 81.747 50.4363 0
    endloop
  endfacet
  facet normal 0 0 -1
    outer loop
      vertex 81.747 5.56366 0
      vertex 81.747 50.4363 0
      vertex 84.5 56 0
    endloop
  endfacet
  facet normal 0 0 -1
    outer loop
      vertex 81.747 50.4363 0
      vertex 82.5 52 0
      vertex 84.5 56 0
    endloop
  endfacet
  facet normal 0 0 -1
    outer loop
      vertex 80.055 53.9499 0
      vertex 84.5 56 0
      vertex 81.747 53.5637 0
    endloop
  endfacet
  facet normal 0 0 -1
    outer loop
      vertex 78.6981 52.8678 0
      vertex 24.747 50.4363 0
      vertex 80.055 53.9499 0
    endloop
  endfacet
  facet normal 0 0 -1
    outer loop
      vertex 25.5 4 0
      vertex 84.5 0 0
      vertex 24.747 2.43634 0
    endloop
  endfacet
  facet normal 0 1 0
    outer loop
      vertex 0 56 0
      vertex 0 56 3
      vertex 84.5 56 0
    endloop
  endfacet
  facet normal 0 1 0
    outer loop
      vertex 84.5 56 0
      vertex 0 56 3
      vertex 84.5 56 3
    endloop
  endfacet
  facet normal 0 0 1
    outer loop
      vertex 23.055 2.05014 3
      vertex 0 0 3
      vertex 84.5 0 3
    endloop
  endfacet
  facet normal 0 0 1
    outer loop
      vertex 78.6981 4.86777 3
      vertex 80.055 5.94986 3
      vertex 24.747 50.4363 3
    endloop
  endfacet
  facet normal 0 0 1
    outer loop
      vertex 24.747 53.5637 3
      vertex 25.5 52 3
      vertex 84.5 56 3
    endloop
  endfacet
  facet normal 0 0 1
    outer loop
      vertex 0 56 3
      vertex 0 0 3
      vertex 21.6981 3.13223 3
    endloop
  endfacet
  facet normal 0 0 1
    outer loop
      vertex 25.5 4 3
      vertex 24.747 2.43634 3
      vertex 84.5 0 3
    endloop
  endfacet
  facet normal 0 0 1
    outer loop
      vertex 0 56 3
      vertex 21.6981 3.13223 3
      vertex 21.6981 4.86777 3
    endloop
  endfacet
  facet normal 0 0 1
    outer loop
      vertex 80.055 2.05014 3
      vertex 23.055 5.94986 3
      vertex 84.5 0 3
    endloop
  endfacet
  facet normal 0 0 1
    outer loop
      vertex 0 56 3
      vertex 21.6981 4.86777 3
      vertex 23.055 5.94986 3
    endloop
  endfacet
  facet normal 0 0 1
    outer loop
      vertex 23.055 5.94986 3
      vertex 24.747 5.56366 3
      vertex 84.5 0 3
    endloop
  endfacet
  facet normal 0 0 1
    outer loop
      vertex 24.747 2.43634 3
      vertex 23.055 2.05014 3
      vertex 84.5 0 3
    endloop
  endfacet
  facet normal 0 0 1
    outer loop
      vertex 24.747 5.56366 3
      vertex 25.5 4 3
      vertex 84.5 0 3
    endloop
  endfacet
  facet normal 0 0 1
    outer loop
      vertex 21.6981 52.8678 3
      vertex 0 56 3
      vertex 21.6981 51.1322 3
    endloop
  endfacet
  facet normal 0 0 1
    outer loop
      vertex 23.055 53.9499 3
      vertex 0 56 3
      vertex 21.6981 52.8678 3
    endloop
  endfacet
  facet normal 0 0 1
    outer loop
      vertex 84.5 56 3
      vertex 0 56 3
      vertex 23.055 53.9499 3
    endloop
  endfacet
  facet normal 0 0 1
    outer loop
      vertex 25.5 52 3
      vertex 24.747 50.4363 3
      vertex 84.5 56 3
    endloop
  endfacet
  facet normal 0 0 1
    outer loop
      vertex 84.5 56 3
      vertex 23.055 53.9499 3
      vertex 24.747 53.5637 3
    endloop
  endfacet
  facet normal 0 0 1
    outer loop
      vertex 78.6981 3.13223 3
      vertex 21.6981 51.1322 3
      vertex 0 56 3
    endloop
  endfacet
  facet normal 0 0 1
    outer loop
      vertex 82.5 4 3
      vertex 81.747 2.43634 3
      vertex 84.5 0 3
    endloop
  endfacet
  facet normal 0 0 1
    outer loop
      vertex 80.055 53.9499 3
      vertex 81.747 53.5637 3
      vertex 84.5 56 3
    endloop
  endfacet
  facet normal 0 0 1
    outer loop
      vertex 0 56 3
      vertex 23.055 5.94986 3
      vertex 78.6981 3.13223 3
    endloop
  endfacet
  facet normal 0 0 1
    outer loop
      vertex 81.747 2.43634 3
      vertex 80.055 2.05014 3
      vertex 84.5 0 3
    endloop
  endfacet
  facet normal 0 0 1
    outer loop
      vertex 24.747 50.4363 3
      vertex 23.055 50.0501 3
      vertex 78.6981 4.86777 3
    endloop
  endfacet
  facet normal 0 0 1
    outer loop
      vertex 78.6981 51.1322 3
      vertex 24.747 50.4363 3
      vertex 80.055 5.94986 3
    endloop
  endfacet
  facet normal 0 0 1
    outer loop
      vertex 84.5 56 3
      vertex 81.747 5.56366 3
      vertex 84.5 0 3
    endloop
  endfacet
  facet normal 0 0 1
    outer loop
      vertex 84.5 56 3
      vertex 80.055 5.94986 3
      vertex 81.747 5.56366 3
    endloop
  endfacet
  facet normal 0 0 1
    outer loop
      vertex 81.747 5.56366 3
      vertex 82.5 4 3
      vertex 84.5 0 3
    endloop
  endfacet
  facet normal 0 0 1
    outer loop
      vertex 78.6981 3.13223 3
      vertex 23.055 5.94986 3
      vertex 80.055 2.05014 3
    endloop
  endfacet
  facet normal 0 0 1
    outer loop
      vertex 80.055 50.0501 3
      vertex 78.6981 51.1322 3
      vertex 80.055 5.94986 3
    endloop
  endfacet
  facet normal 0 0 1
    outer loop
      vertex 78.6981 52.8678 3
      vertex 24.747 50.4363 3
      vertex 78.6981 51.1322 3
    endloop
  endfacet
  facet normal 0 0 1
    outer loop
      vertex 81.747 50.4363 3
      vertex 80.055 50.0501 3
      vertex 80.055 5.94986 3
    endloop
  endfacet
  facet normal 0 0 1
    outer loop
      vertex 80.055 53.9499 3
      vertex 24.747 50.4363 3
      vertex 78.6981 52.8678 3
    endloop
  endfacet
  facet normal 0 0 1
    outer loop
      vertex 84.5 56 3
      vertex 24.747 50.4363 3
      vertex 80.055 53.9499 3
    endloop
  endfacet
  facet normal 0 0 1
    outer loop
      vertex 84.5 56 3
      vertex 82.5 52 3
      vertex 80.055 5.94986 3
    endloop
  endfacet
  facet normal 0 0 1
    outer loop
      vertex 84.5 56 3
      vertex 81.747 53.5637 3
      vertex 82.5 52 3
    endloop
  endfacet
  facet normal 0 0 1
    outer loop
      vertex 82.5 52 3
      vertex 81.747 50.4363 3
      vertex 80.055 5.94986 3
    endloop
  endfacet
  facet normal 0 0 1
    outer loop
      vertex 23.055 2.05014 3
      vertex 21.6981 3.13223 3
      vertex 0 0 3
    endloop
  endfacet
  facet normal 0 0 1
    outer loop
      vertex 78.6981 3.13223 3
      vertex 23.055 50.0501 3
      vertex 21.6981 51.1322 3
    endloop
  endfacet
  facet normal 0 0 1
    outer loop
      vertex 78.6981 3.13223 3
      vertex 78.6981 4.86777 3
      vertex 23.055 50.0501 3
    endloop
  endfacet
  facet normal 1 0 0
    outer loop
      vertex 84.5 0 3
      vertex 84.5 0 0
      vertex 84.5 56 0
    endloop
  endfacet
  facet normal 1 0 0
    outer loop
      vertex 84.5 56 3
      vertex 84.5 0 3
      vertex 84.5 56 0
    endloop
  endfacet
  facet normal 0.62349 -0.781831 0
    outer loop
      vertex 23.055 5.94986 0
      vertex 23.055 5.94986 3
      vertex 21.6981 4.86777 3
    endloop
  endfacet
  facet normal 0.62349 -0.781831 0
    outer loop
      vertex 21.6981 4.86777 0
      vertex 23.055 5.94986 0
      vertex 21.6981 4.86777 3
    endloop
  endfacet
  facet normal 1 0 0
    outer loop
      vertex 21.6981 4.86777 0
      vertex 21.6981 4.86777 3
      vertex 21.6981 3.13223 3
    endloop
  endfacet
  facet normal 1 0 0
    outer loop
      vertex 21.6981 3.13223 0
      vertex 21.6981 4.86777 0
      vertex 21.6981 3.13223 3
    endloop
  endfacet
  facet normal -0.222521 -0.974928 0
    outer loop
      vertex 24.747 5.56366 0
      vertex 24.747 5.56366 3
      vertex 23.055 5.94986 3
    endloop
  endfacet
  facet normal -0.222521 -0.974928 0
    outer loop
      vertex 23.055 5.94986 0
      vertex 24.747 5.56366 0
      vertex 23.055 5.94986 3
    endloop
  endfacet
  facet normal -0.900969 -0.433884 0
    outer loop
      vertex 25.5 4 3
      vertex 24.747 5.56366 3
      vertex 25.5 4 0
    endloop
  endfacet
  facet normal -0.900969 -0.433884 0
    outer loop
      vertex 25.5 4 0
      vertex 24.747 5.56366 3
      vertex 24.747 5.56366 0
    endloop
  endfacet
  facet normal -0.900969 0.433884 0
    outer loop
      vertex 25.5 4 3
      vertex 25.5 4 0
      vertex 24.747 2.43634 3
    endloop
  endfacet
  facet normal -0.900969 0.433884 0
    outer loop
      vertex 24.747 2.43634 3
      vertex 25.5 4 0
      vertex 24.747 2.43634 0
    endloop
  endfacet
  facet normal -0.222521 0.974928 0
    outer loop
      vertex 24.747 2.43634 3
      vertex 24.747 2.43634 0
      vertex 23.055 2.05014 3
    endloop
  endfacet
  facet normal -0.222521 0.974928 0
    outer loop
      vertex 23.055 2.05014 3
      vertex 24.747 2.43634 0
      vertex 23.055 2.05014 0
    endloop
  endfacet
  facet normal 0.62349 0.781831 0
    outer loop
      vertex 23.055 2.05014 3
      vertex 23.055 2.05014 0
      vertex 21.6981 3.13223 3
    endloop
  endfacet
  facet normal 0.62349 0.781831 0
    outer loop
      vertex 21.6981 3.13223 3
      vertex 23.055 2.05014 0
      vertex 21.6981 3.13223 0
    endloop
  endfacet
  facet normal 0.62349 -0.781831 0
    outer loop
      vertex 23.055 53.9499 0
      vertex 23.055 53.9499 3
      vertex 21.6981 52.8678 3
    endloop
  endfacet
  facet normal 0.62349 -0.781831 0
    outer loop
      vertex 21.6981 52.8678 0
      vertex 23.055 53.9499 0
      vertex 21.6981 52.8678 3
    endloop
  endfacet
  facet normal 1 0 0
    outer loop
      vertex 21.6981 52.8678 0
      vertex 21.6981 52.8678 3
      vertex 21.6981 51.1322 3
    endloop
  endfacet
  facet normal 1 0 0
    outer loop
      vertex 21.6981 51.1322 0
      vertex 21.6981 52.8678 0
      vertex 21.6981 51.1322 3
    endloop
  endfacet
  facet normal -0.222521 -0.974928 0
    outer loop
      vertex 24.747 53.5637 0
      vertex 24.747 53.5637 3
      vertex 23.055 53.9499 3
    endloop
  endfacet
  facet normal -0.222521 -0.974928 0
    outer loop
      vertex 23.055 53.9499 0
      vertex 24.747 53.5637 0
      vertex 23.055 53.9499 3
    endloop
  endfacet
  facet normal -0.900969 -0.433884 0
    outer loop
      vertex 25.5 52 3
      vertex 24.747 53.5637 3
      vertex 25.5 52 0
    endloop
  endfacet
  facet normal -0.900969 -0.433884 0
    outer loop
      vertex 25.5 52 0
      vertex 24.747 53.5637 3
      vertex 24.747 53.5637 0
    endloop
  endfacet
  facet normal -0.900969 0.433884 0
    outer loop
      vertex 25.5 52 3
      vertex 25.5 52 0
      vertex 24.747 50.4363 3
    endloop
  endfacet
  facet normal -0.900969 0.433884 0
    outer loop
      vertex 24.747 50.4363 3
      vertex 25.5 52 0
      vertex 24.747 50.4363 0
    endloop
  endfacet
  facet normal -0.222521 0.974928 0
    outer loop
      vertex 24.747 50.4363 3
      vertex 24.747 50.4363 0
      vertex 23.055 50.0501 3
    endloop
  endfacet
  facet normal -0.222521 0.974928 0
    outer loop
      vertex 23.055 50.0501 3
      vertex 24.747 50.4363 0
      vertex 23.055 50.0501 0
    endloop
  endfacet
  facet normal 0.62349 0.781831 0
    outer loop
      vertex 23.055 50.0501 3
      vertex 23.055 50.0501 0
      vertex 21.6981 51.1322 3
    endloop
  endfacet
  facet normal 0.62349 0.781831 0
    outer loop
      vertex 21.6981 51.1322 3
      vertex 23.055 50.0501 0
      vertex 21.6981 51.1322 0
    endloop
  endfacet
  facet normal 1 0 0
    outer loop
      vertex 78.6981 4.86777 0
      vertex 78.6981 4.86777 3
      vertex 78.6981 3.13223 3
    endloop
  endfacet
  facet normal 1 0 0
    outer loop
      vertex 78.6981 3.13223 0
      vertex 78.6981 4.86777 0
      vertex 78.6981 3.13223 3
    endloop
  endfacet
  facet normal 0.62349 -0.781831 0
    outer loop
      vertex 80.055 5.94986 0
      vertex 80.055 5.94986 3
      vertex 78.6981 4.86777 3
    endloop
  endfacet
  facet normal 0.62349 -0.781831 0
    outer loop
      vertex 78.6981 4.86777 0
      vertex 80.055 5.94986 0
      vertex 78.6981 4.86777 3
    endloop
  endfacet
  facet normal -0.222521 -0.974928 0
    outer loop
      vertex 81.747 5.56366 0
      vertex 81.747 5.56366 3
      vertex 80.055 5.94986 3
    endloop
  endfacet
  facet normal -0.222521 -0.974928 0
    outer loop
      vertex 80.055 5.94986 0
      vertex 81.747 5.56366 0
      vertex 80.055 5.94986 3
    endloop
  endfacet
  facet normal -0.900969 -0.433884 0
    outer loop
      vertex 82.5 4 3
      vertex 81.747 5.56366 3
      vertex 82.5 4 0
    endloop
  endfacet
  facet normal -0.900969 -0.433884 0
    outer loop
      vertex 82.5 4 0
      vertex 81.747 5.56366 3
      vertex 81.747 5.56366 0
    endloop
  endfacet
  facet normal -0.900969 0.433884 0
    outer loop
      vertex 82.5 4 3
      vertex 82.5 4 0
      vertex 81.747 2.43634 3
    endloop
  endfacet
  facet normal -0.900969 0.433884 0
    outer loop
      vertex 81.747 2.43634 3
      vertex 82.5 4 0
      vertex 81.747 2.43634 0
    endloop
  endfacet
  facet normal -0.222521 0.974928 0
    outer loop
      vertex 81.747 2.43634 3
      vertex 81.747 2.43634 0
      vertex 80.055 2.05014 3
    endloop
  endfacet
  facet normal -0.222521 0.974928 0
    outer loop
      vertex 80.055 2.05014 3
      vertex 81.747 2.43634 0
      vertex 80.055 2.05014 0
    endloop
  endfacet
  facet normal 0.62349 0.781831 0
    outer loop
      vertex 80.055 2.05014 3
      vertex 80.055 2.05014 0
      vertex 78.6981 3.13223 3
    endloop
  endfacet
  facet normal 0.62349 0.781831 0
    outer loop
      vertex 78.6981 3.13223 3
      vertex 80.055 2.05014 0
      vertex 78.6981 3.13223 0
    endloop
  endfacet
  facet normal 0.62349 -0.781831 0
    outer loop
      vertex 80.055 53.9499 0
      vertex 80.055 53.9499 3
      vertex 78.6981 52.8678 3
    endloop
  endfacet
  facet normal 0.62349 -0.781831 0
    outer loop
      vertex 78.6981 52.8678 0
      vertex 80.055 53.9499 0
      vertex 78.6981 52.8678 3
    endloop
  endfacet
  facet normal 1 0 0
    outer loop
      vertex 78.6981 52.8678 0
      vertex 78.6981 52.8678 3
      vertex 78.6981 51.1322 3
    endloop
  endfacet
  facet normal 1 0 0
    outer loop
      vertex 78.6981 51.1322 0
      vertex 78.6981 52.8678 0
      vertex 78.6981 51.1322 3
    endloop
  endfacet
  facet normal -0.222521 -0.974928 0
    outer loop
      vertex 81.747 53.5637 0
      vertex 81.747 53.5637 3
      vertex 80.055 53.9499 3
    endloop
  endfacet
  facet normal -0.222521 -0.974928 0
    outer loop
      vertex 80.055 53.9499 0
      vertex 81.747 53.5637 0
      vertex 80.055 53.9499 3
    endloop
  endfacet
  facet normal -0.900969 -0.433884 0
    outer loop
      vertex 82.5 52 3
      vertex 81.747 53.5637 3
      vertex 82.5 52 0
    endloop
  endfacet
  facet normal -0.900969 -0.433884 0
    outer loop
      vertex 82.5 52 0
      vertex 81.747 53.5637 3
      vertex 81.747 53.5637 0
    endloop
  endfacet
  facet normal -0.900969 0.433884 0
    outer loop
      vertex 82.5 52 3
      vertex 82.5 52 0
      vertex 81.747 50.4363 3
    endloop
  endfacet
  facet normal -0.900969 0.433884 0
    outer loop
      vertex 81.747 50.4363 3
      vertex 82.5 52 0
      vertex 81.747 50.4363 0
    endloop
  endfacet
  facet normal -0.222521 0.974928 0
    outer loop
      vertex 81.747 50.4363 3
      vertex 81.747 50.4363 0
      vertex 80.055 50.0501 3
    endloop
  endfacet
  facet normal -0.222521 0.974928 0
    outer loop
      vertex 80.055 50.0501 3
      vertex 81.747 50.4363 0
      vertex 80.055 50.0501 0
    endloop
  endfacet
  facet normal 0.62349 0.781831 0
    outer loop
      vertex 80.055 50.0501 3
      vertex 80.055 50.0501 0
      vertex 78.6981 51.1322 3
    endloop
  endfacet
  facet normal 0.62349 0.781831 0
    outer loop
      vertex 78.6981 51.1322 3
      vertex 80.055 50.0501 0
      vertex 78.6981 51.1322 0
    endloop
  endfacet
endsolid OpenSCAD_Model
