solid OpenSCAD_Model
  facet normal -1 0 0
    outer loop
      vertex 0 14 79.5
      vertex 0 0 103.5
      vertex 0 29.4 103.5
    endloop
  endfacet
  facet normal -1 0 0
    outer loop
      vertex 0 0 0
      vertex 0 0 103.5
      vertex 0 14 36.5
    endloop
  endfacet
  facet normal -1 0 0
    outer loop
      vertex 0 14 62
      vertex 0 14 68.5
      vertex 0 22 62
    endloop
  endfacet
  facet normal -1 0 0
    outer loop
      vertex 0 0 0
      vertex 0 14 36.5
      vertex 0 14 27.5
    endloop
  endfacet
  facet normal -1 0 0
    outer loop
      vertex 0 0 0
      vertex 0 14 27.5
      vertex 0 29.4 0
    endloop
  endfacet
  facet normal -1 0 0
    outer loop
      vertex 0 14 68.5
      vertex 0 0 103.5
      vertex 0 14 79.5
    endloop
  endfacet
  facet normal -1 0 0
    outer loop
      vertex 0 29.4 0
      vertex 0 23 27.5
      vertex 0 29.4 103.5
    endloop
  endfacet
  facet normal -1 0 0
    outer loop
      vertex 0 22 44
      vertex 0 23 36.5
      vertex 0 14 44
    endloop
  endfacet
  facet normal -1 0 0
    outer loop
      vertex 0 23 27.5
      vertex 0 23 36.5
      vertex 0 29.4 103.5
    endloop
  endfacet
  facet normal -1 0 0
    outer loop
      vertex 0 14 36.5
      vertex 0 0 103.5
      vertex 0 14 44
    endloop
  endfacet
  facet normal -1 0 0
    outer loop
      vertex 0 23 27.5
      vertex 0 29.4 0
      vertex 0 14 27.5
    endloop
  endfacet
  facet normal -1 0 0
    outer loop
      vertex 0 23 36.5
      vertex 0 22 44
      vertex 0 29.4 103.5
    endloop
  endfacet
  facet normal -1 0 0
    outer loop
      vertex 0 21 68.5
      vertex 0 22 62
      vertex 0 14 68.5
    endloop
  endfacet
  facet normal -1 0 0
    outer loop
      vertex 0 22 44
      vertex 0 22 62
      vertex 0 29.4 103.5
    endloop
  endfacet
  facet normal -1 0 0
    outer loop
      vertex 0 21 79.5
      vertex 0 14 79.5
      vertex 0 29.4 103.5
    endloop
  endfacet
  facet normal -1 0 0
    outer loop
      vertex 0 22 62
      vertex 0 21 68.5
      vertex 0 29.4 103.5
    endloop
  endfacet
  facet normal -1 0 0
    outer loop
      vertex 0 21 68.5
      vertex 0 21 79.5
      vertex 0 29.4 103.5
    endloop
  endfacet
  facet normal -1 0 0
    outer loop
      vertex 0 14 44
      vertex 0 0 103.5
      vertex 0 14 62
    endloop
  endfacet
  facet normal -1 0 0
    outer loop
      vertex 0 14 36.5
      vertex 0 14 44
      vertex 0 23 36.5
    endloop
  endfacet
  facet normal -1 0 0
    outer loop
      vertex 0 14 62
      vertex 0 0 103.5
      vertex 0 14 68.5
    endloop
  endfacet
  facet normal 0 -1 0
    outer loop
      vertex 4.14177 0 23.6
      vertex 0 0 0
      vertex 88.4 0 0
    endloop
  endfacet
  facet normal 0 -1 0
    outer loop
      vertex 88.4 0 4
      vertex 0 0 103.5
      vertex 88.4 0 0
    endloop
  endfacet
  facet normal 0 -1 0
    outer loop
      vertex 88.4 0 61.75
      vertex 54.1418 0 81.9
      vertex 0 0 103.5
    endloop
  endfacet
  facet normal 0 -1 0
    outer loop
      vertex 96.9 0 41.75
      vertex 0 0 103.5
      vertex 88.4 0 41.75
    endloop
  endfacet
  facet normal 0 -1 0
    outer loop
      vertex 88.4 0 61.75
      vertex 0 0 103.5
      vertex 96.9 0 41.75
    endloop
  endfacet
  facet normal 0 -1 0
    outer loop
      vertex 96.9 0 61.75
      vertex 88.4 0 61.75
      vertex 96.9 0 41.75
    endloop
  endfacet
  facet normal 0 -1 0
    outer loop
      vertex 0 0 103.5
      vertex 0 0 0
      vertex 4.14177 0 23.6
    endloop
  endfacet
  facet normal 0 -1 0
    outer loop
      vertex 8.95395 0 26.7837
      vertex 10.4444 0 25.4922
      vertex 88.4 0 0
    endloop
  endfacet
  facet normal 0 -1 0
    outer loop
      vertex 0 0 103.5
      vertex 4.14177 0 23.6
      vertex 4.14177 0 24.5861
    endloop
  endfacet
  facet normal 0 -1 0
    outer loop
      vertex 0 0 103.5
      vertex 4.14177 0 24.5861
      vertex 5.20799 0 26.2451
    endloop
  endfacet
  facet normal 0 -1 0
    outer loop
      vertex 10.4444 0 25.4922
      vertex 11 0 23.6
      vertex 88.4 0 0
    endloop
  endfacet
  facet normal 0 -1 0
    outer loop
      vertex 0 0 103.5
      vertex 5.20799 0 26.2451
      vertex 7.0019 0 27.0644
    endloop
  endfacet
  facet normal 0 -1 0
    outer loop
      vertex 54.1418 0 23.6
      vertex 8.95395 0 26.7837
      vertex 88.4 0 0
    endloop
  endfacet
  facet normal 0 -1 0
    outer loop
      vertex 0 0 103.5
      vertex 7.0019 0 27.0644
      vertex 8.95395 0 26.7837
    endloop
  endfacet
  facet normal 0 -1 0
    outer loop
      vertex 0 0 103.5
      vertex 8.95395 0 26.7837
      vertex 4.14177 0 81.9
    endloop
  endfacet
  facet normal 0 -1 0
    outer loop
      vertex 36.5 0 56.5
      vertex 36.5 0 47.5
      vertex 88.4 0 0
    endloop
  endfacet
  facet normal 0 -1 0
    outer loop
      vertex 0 0 103.5
      vertex 4.14177 0 81.9
      vertex 4.14177 0 82.8861
    endloop
  endfacet
  facet normal 0 -1 0
    outer loop
      vertex 27.5 0 56.5
      vertex 10.4444 0 83.7922
      vertex 11 0 81.9
    endloop
  endfacet
  facet normal 0 -1 0
    outer loop
      vertex 0 0 103.5
      vertex 4.14177 0 82.8861
      vertex 5.20799 0 84.5451
    endloop
  endfacet
  facet normal 0 -1 0
    outer loop
      vertex 27.5 0 56.5
      vertex 36.5 0 56.5
      vertex 10.4444 0 83.7922
    endloop
  endfacet
  facet normal 0 -1 0
    outer loop
      vertex 0 0 103.5
      vertex 5.20799 0 84.5451
      vertex 7.0019 0 85.3644
    endloop
  endfacet
  facet normal 0 -1 0
    outer loop
      vertex 27.5 0 56.5
      vertex 11 0 81.9
      vertex 4.14177 0 81.9
    endloop
  endfacet
  facet normal 0 -1 0
    outer loop
      vertex 0 0 103.5
      vertex 7.0019 0 85.3644
      vertex 8.95395 0 85.0837
    endloop
  endfacet
  facet normal 0 -1 0
    outer loop
      vertex 0 0 103.5
      vertex 8.95395 0 85.0837
      vertex 10.4444 0 83.7922
    endloop
  endfacet
  facet normal 0 -1 0
    outer loop
      vertex 60.4444 0 25.4922
      vertex 61 0 23.6
      vertex 88.4 0 0
    endloop
  endfacet
  facet normal 0 -1 0
    outer loop
      vertex 4.14177 0 81.9
      vertex 8.95395 0 26.7837
      vertex 27.5 0 47.5
    endloop
  endfacet
  facet normal 0 -1 0
    outer loop
      vertex 61 0 23.6
      vertex 54.1418 0 23.6
      vertex 88.4 0 0
    endloop
  endfacet
  facet normal 0 -1 0
    outer loop
      vertex 4.14177 0 81.9
      vertex 27.5 0 47.5
      vertex 27.5 0 56.5
    endloop
  endfacet
  facet normal 0 -1 0
    outer loop
      vertex 0 0 103.5
      vertex 36.5 0 56.5
      vertex 88.4 0 0
    endloop
  endfacet
  facet normal 0 -1 0
    outer loop
      vertex 0 0 103.5
      vertex 10.4444 0 83.7922
      vertex 36.5 0 56.5
    endloop
  endfacet
  facet normal 0 -1 0
    outer loop
      vertex 54.1418 0 24.5861
      vertex 55.208 0 26.2451
      vertex 27.5 0 47.5
    endloop
  endfacet
  facet normal 0 -1 0
    outer loop
      vertex 27.5 0 47.5
      vertex 8.95395 0 26.7837
      vertex 54.1418 0 23.6
    endloop
  endfacet
  facet normal 0 -1 0
    outer loop
      vertex 27.5 0 47.5
      vertex 54.1418 0 23.6
      vertex 54.1418 0 24.5861
    endloop
  endfacet
  facet normal 0 -1 0
    outer loop
      vertex 36.5 0 47.5
      vertex 27.5 0 47.5
      vertex 55.208 0 26.2451
    endloop
  endfacet
  facet normal 0 -1 0
    outer loop
      vertex 57.0019 0 85.3644
      vertex 58.954 0 85.0837
      vertex 88.4 0 103.5
    endloop
  endfacet
  facet normal 0 -1 0
    outer loop
      vertex 36.5 0 47.5
      vertex 55.208 0 26.2451
      vertex 57.0019 0 27.0644
    endloop
  endfacet
  facet normal 0 -1 0
    outer loop
      vertex 36.5 0 47.5
      vertex 57.0019 0 27.0644
      vertex 58.954 0 26.7837
    endloop
  endfacet
  facet normal 0 -1 0
    outer loop
      vertex 36.5 0 47.5
      vertex 60.4444 0 25.4922
      vertex 88.4 0 0
    endloop
  endfacet
  facet normal 0 -1 0
    outer loop
      vertex 36.5 0 47.5
      vertex 58.954 0 26.7837
      vertex 60.4444 0 25.4922
    endloop
  endfacet
  facet normal 0 -1 0
    outer loop
      vertex 54.1418 0 82.8861
      vertex 0 0 103.5
      vertex 54.1418 0 81.9
    endloop
  endfacet
  facet normal 0 -1 0
    outer loop
      vertex 55.208 0 84.5451
      vertex 0 0 103.5
      vertex 54.1418 0 82.8861
    endloop
  endfacet
  facet normal 0 -1 0
    outer loop
      vertex 88.4 0 103.5
      vertex 0 0 103.5
      vertex 55.208 0 84.5451
    endloop
  endfacet
  facet normal 0 -1 0
    outer loop
      vertex 58.954 0 85.0837
      vertex 60.4444 0 83.7922
      vertex 88.4 0 103.5
    endloop
  endfacet
  facet normal 0 -1 0
    outer loop
      vertex 88.4 0 103.5
      vertex 55.208 0 84.5451
      vertex 57.0019 0 85.3644
    endloop
  endfacet
  facet normal 0 -1 0
    outer loop
      vertex 11 0 23.6
      vertex 4.14177 0 23.6
      vertex 88.4 0 0
    endloop
  endfacet
  facet normal 0 -1 0
    outer loop
      vertex 88.4 0 4
      vertex 88.4 0 41.75
      vertex 0 0 103.5
    endloop
  endfacet
  facet normal 0 -1 0
    outer loop
      vertex 88.4 0 61.75
      vertex 61 0 81.9
      vertex 54.1418 0 81.9
    endloop
  endfacet
  facet normal 0 -1 0
    outer loop
      vertex 88.4 0 61.75
      vertex 60.4444 0 83.7922
      vertex 61 0 81.9
    endloop
  endfacet
  facet normal 0 -1 0
    outer loop
      vertex 88.4 0 61.75
      vertex 88.4 0 103.5
      vertex 60.4444 0 83.7922
    endloop
  endfacet
  facet normal 0 0 -1
    outer loop
      vertex 0 0 0
      vertex 0 29.4 0
      vertex 4.1 4.1 0
    endloop
  endfacet
  facet normal 0 0 -1
    outer loop
      vertex 0 0 0
      vertex 4.1 4.1 0
      vertex 88.4 0 0
    endloop
  endfacet
  facet normal 0 0 -1
    outer loop
      vertex 82.4 6 0
      vertex 88.4 0 0
      vertex 62 6 0
    endloop
  endfacet
  facet normal 0 0 -1
    outer loop
      vertex 4.1 4.1 0
      vertex 62 4.1 0
      vertex 88.4 0 0
    endloop
  endfacet
  facet normal 0 0 -1
    outer loop
      vertex 62 4.1 0
      vertex 62 6 0
      vertex 88.4 0 0
    endloop
  endfacet
  facet normal 0 0 -1
    outer loop
      vertex 88.4 0 0
      vertex 82.4 6 0
      vertex 82.4 29.4 0
    endloop
  endfacet
  facet normal 0 0 -1
    outer loop
      vertex 88.4 0 0
      vertex 82.4 29.4 0
      vertex 88.4 29.4 0
    endloop
  endfacet
  facet normal 0 0 -1
    outer loop
      vertex 4.1 4.1 0
      vertex 0 29.4 0
      vertex 4.1 29.4 0
    endloop
  endfacet
  facet normal 0 1 0
    outer loop
      vertex 4.1 29.4 4
      vertex 4.1 29.4 0
      vertex 2 29.4 4
    endloop
  endfacet
  facet normal 0 1 0
    outer loop
      vertex 86.4 29.4 101.5
      vertex 0 29.4 103.5
      vertex 88.4 29.4 103.5
    endloop
  endfacet
  facet normal 0 1 0
    outer loop
      vertex 88.4 29.4 41.75
      vertex 96.9 29.4 61.75
      vertex 96.9 29.4 41.75
    endloop
  endfacet
  facet normal 0 1 0
    outer loop
      vertex 86.4 29.4 4
      vertex 88.4 29.4 4
      vertex 82.4 29.4 0
    endloop
  endfacet
  facet normal 0 1 0
    outer loop
      vertex 86.4 29.4 101.5
      vertex 88.4 29.4 61.75
      vertex 88.4 29.4 41.75
    endloop
  endfacet
  facet normal 0 1 0
    outer loop
      vertex 82.4 29.4 0
      vertex 88.4 29.4 4
      vertex 88.4 29.4 0
    endloop
  endfacet
  facet normal 0 1 0
    outer loop
      vertex 86.4 29.4 101.5
      vertex 88.4 29.4 41.75
      vertex 86.4 29.4 4
    endloop
  endfacet
  facet normal 0 1 0
    outer loop
      vertex 82.4 29.4 4
      vertex 86.4 29.4 4
      vertex 82.4 29.4 0
    endloop
  endfacet
  facet normal 0 1 0
    outer loop
      vertex 86.4 29.4 101.5
      vertex 88.4 29.4 103.5
      vertex 88.4 29.4 61.75
    endloop
  endfacet
  facet normal 0 1 0
    outer loop
      vertex 88.4 29.4 61.75
      vertex 96.9 29.4 61.75
      vertex 88.4 29.4 41.75
    endloop
  endfacet
  facet normal 0 1 0
    outer loop
      vertex 2 29.4 101.5
      vertex 0 29.4 103.5
      vertex 86.4 29.4 101.5
    endloop
  endfacet
  facet normal 0 1 0
    outer loop
      vertex 2 29.4 4
      vertex 0 29.4 103.5
      vertex 2 29.4 101.5
    endloop
  endfacet
  facet normal 0 1 0
    outer loop
      vertex 0 29.4 0
      vertex 0 29.4 103.5
      vertex 2 29.4 4
    endloop
  endfacet
  facet normal 0 1 0
    outer loop
      vertex 0 29.4 0
      vertex 2 29.4 4
      vertex 4.1 29.4 0
    endloop
  endfacet
  facet normal 0 1 0
    outer loop
      vertex 88.4 29.4 4
      vertex 86.4 29.4 4
      vertex 88.4 29.4 41.75
    endloop
  endfacet
  facet normal 0 0 1
    outer loop
      vertex 0 29.4 103.5
      vertex 0 0 103.5
      vertex 88.4 0 103.5
    endloop
  endfacet
  facet normal 0 0 1
    outer loop
      vertex 88.4 29.4 103.5
      vertex 0 29.4 103.5
      vertex 88.4 0 103.5
    endloop
  endfacet
  facet normal 0 0 -1
    outer loop
      vertex 4.1 23 36.5
      vertex 4.1 14 36.5
      vertex 0 23 36.5
    endloop
  endfacet
  facet normal 0 0 -1
    outer loop
      vertex 0 23 36.5
      vertex 4.1 14 36.5
      vertex 0 14 36.5
    endloop
  endfacet
  facet normal 0 1 0
    outer loop
      vertex 4.1 14 36.5
      vertex 4.1 14 27.5
      vertex 0 14 36.5
    endloop
  endfacet
  facet normal 0 1 0
    outer loop
      vertex 0 14 36.5
      vertex 4.1 14 27.5
      vertex 0 14 27.5
    endloop
  endfacet
  facet normal 0 -1 0
    outer loop
      vertex 4.1 23 27.5
      vertex 4.1 23 36.5
      vertex 0 23 36.5
    endloop
  endfacet
  facet normal 0 -1 0
    outer loop
      vertex 0 23 27.5
      vertex 4.1 23 27.5
      vertex 0 23 36.5
    endloop
  endfacet
  facet normal 0 0 1
    outer loop
      vertex 4.1 14 27.5
      vertex 4.1 23 27.5
      vertex 0 23 27.5
    endloop
  endfacet
  facet normal 0 0 1
    outer loop
      vertex 0 14 27.5
      vertex 4.1 14 27.5
      vertex 0 23 27.5
    endloop
  endfacet
  facet normal 0 0 -1
    outer loop
      vertex 4.1 22 62
      vertex 4.1 14 62
      vertex 0 22 62
    endloop
  endfacet
  facet normal 0 0 -1
    outer loop
      vertex 0 22 62
      vertex 4.1 14 62
      vertex 0 14 62
    endloop
  endfacet
  facet normal 0 1 0
    outer loop
      vertex 4.1 14 62
      vertex 4.1 14 44
      vertex 0 14 62
    endloop
  endfacet
  facet normal 0 1 0
    outer loop
      vertex 0 14 62
      vertex 4.1 14 44
      vertex 0 14 44
    endloop
  endfacet
  facet normal 0 -1 0
    outer loop
      vertex 4.1 22 44
      vertex 4.1 22 62
      vertex 0 22 62
    endloop
  endfacet
  facet normal 0 -1 0
    outer loop
      vertex 0 22 44
      vertex 4.1 22 44
      vertex 0 22 62
    endloop
  endfacet
  facet normal 0 0 1
    outer loop
      vertex 4.1 14 44
      vertex 4.1 22 44
      vertex 0 22 44
    endloop
  endfacet
  facet normal 0 0 1
    outer loop
      vertex 0 14 44
      vertex 4.1 14 44
      vertex 0 22 44
    endloop
  endfacet
  facet normal 0 0 -1
    outer loop
      vertex 4.1 21 79.5
      vertex 4.1 14 79.5
      vertex 0 21 79.5
    endloop
  endfacet
  facet normal 0 0 -1
    outer loop
      vertex 0 21 79.5
      vertex 4.1 14 79.5
      vertex 0 14 79.5
    endloop
  endfacet
  facet normal 0 1 0
    outer loop
      vertex 4.1 14 79.5
      vertex 4.1 14 68.5
      vertex 0 14 79.5
    endloop
  endfacet
  facet normal 0 1 0
    outer loop
      vertex 0 14 79.5
      vertex 4.1 14 68.5
      vertex 0 14 68.5
    endloop
  endfacet
  facet normal 0 -1 0
    outer loop
      vertex 4.1 21 68.5
      vertex 4.1 21 79.5
      vertex 0 21 79.5
    endloop
  endfacet
  facet normal 0 -1 0
    outer loop
      vertex 0 21 68.5
      vertex 4.1 21 68.5
      vertex 0 21 79.5
    endloop
  endfacet
  facet normal 0 0 1
    outer loop
      vertex 4.1 14 68.5
      vertex 4.1 21 68.5
      vertex 0 21 68.5
    endloop
  endfacet
  facet normal 0 0 1
    outer loop
      vertex 0 14 68.5
      vertex 4.1 14 68.5
      vertex 0 21 68.5
    endloop
  endfacet
  facet normal 1 0 0
    outer loop
      vertex 88.4 0 103.5
      vertex 88.4 0 61.75
      vertex 88.4 29.4 61.75
    endloop
  endfacet
  facet normal 1 0 0
    outer loop
      vertex 88.4 29.4 103.5
      vertex 88.4 0 103.5
      vertex 88.4 29.4 61.75
    endloop
  endfacet
  facet normal 0 0 1
    outer loop
      vertex 88.4 29.4 61.75
      vertex 88.4 0 61.75
      vertex 96.9 0 61.75
    endloop
  endfacet
  facet normal 0 0 1
    outer loop
      vertex 96.9 29.4 61.75
      vertex 88.4 29.4 61.75
      vertex 96.9 0 61.75
    endloop
  endfacet
  facet normal 1 0 0
    outer loop
      vertex 96.9 14.7 48.75
      vertex 96.9 0 41.75
      vertex 96.9 29.4 41.75
    endloop
  endfacet
  facet normal 1 0 0
    outer loop
      vertex 96.9 0 61.75
      vertex 96.9 0 41.75
      vertex 96.9 11.8468 50.8229
    endloop
  endfacet
  facet normal 1 0 0
    outer loop
      vertex 96.9 17.5532 52.6771
      vertex 96.9 17.5532 50.8229
      vertex 96.9 29.4 41.75
    endloop
  endfacet
  facet normal 1 0 0
    outer loop
      vertex 96.9 0 61.75
      vertex 96.9 11.8468 50.8229
      vertex 96.9 11.8468 52.6771
    endloop
  endfacet
  facet normal 1 0 0
    outer loop
      vertex 96.9 29.4 61.75
      vertex 96.9 0 61.75
      vertex 96.9 12.9366 54.1771
    endloop
  endfacet
  facet normal 1 0 0
    outer loop
      vertex 96.9 29.4 61.75
      vertex 96.9 12.9366 54.1771
      vertex 96.9 14.7 54.75
    endloop
  endfacet
  facet normal 1 0 0
    outer loop
      vertex 96.9 29.4 61.75
      vertex 96.9 16.4634 54.1771
      vertex 96.9 29.4 41.75
    endloop
  endfacet
  facet normal 1 0 0
    outer loop
      vertex 96.9 29.4 61.75
      vertex 96.9 14.7 54.75
      vertex 96.9 16.4634 54.1771
    endloop
  endfacet
  facet normal 1 0 0
    outer loop
      vertex 96.9 16.4634 54.1771
      vertex 96.9 17.5532 52.6771
      vertex 96.9 29.4 41.75
    endloop
  endfacet
  facet normal 1 0 0
    outer loop
      vertex 96.9 12.9366 49.3229
      vertex 96.9 0 41.75
      vertex 96.9 14.7 48.75
    endloop
  endfacet
  facet normal 1 0 0
    outer loop
      vertex 96.9 11.8468 50.8229
      vertex 96.9 0 41.75
      vertex 96.9 12.9366 49.3229
    endloop
  endfacet
  facet normal 1 0 0
    outer loop
      vertex 96.9 16.4634 49.3229
      vertex 96.9 14.7 48.75
      vertex 96.9 29.4 41.75
    endloop
  endfacet
  facet normal 1 0 0
    outer loop
      vertex 96.9 11.8468 52.6771
      vertex 96.9 12.9366 54.1771
      vertex 96.9 0 61.75
    endloop
  endfacet
  facet normal 1 0 0
    outer loop
      vertex 96.9 17.5532 50.8229
      vertex 96.9 16.4634 49.3229
      vertex 96.9 29.4 41.75
    endloop
  endfacet
  facet normal 0 0 -1
    outer loop
      vertex 88.4 0 41.75
      vertex 88.4 29.4 41.75
      vertex 96.9 0 41.75
    endloop
  endfacet
  facet normal 0 0 -1
    outer loop
      vertex 96.9 0 41.75
      vertex 88.4 29.4 41.75
      vertex 96.9 29.4 41.75
    endloop
  endfacet
  facet normal 1 0 0
    outer loop
      vertex 88.4 0 41.75
      vertex 88.4 0 4
      vertex 88.4 29.4 4
    endloop
  endfacet
  facet normal 1 0 0
    outer loop
      vertex 88.4 29.4 41.75
      vertex 88.4 0 41.75
      vertex 88.4 29.4 4
    endloop
  endfacet
  facet normal 1 0 0
    outer loop
      vertex 88.4 0 4
      vertex 88.4 0 0
      vertex 88.4 29.4 0
    endloop
  endfacet
  facet normal 1 0 0
    outer loop
      vertex 88.4 29.4 4
      vertex 88.4 0 4
      vertex 88.4 29.4 0
    endloop
  endfacet
  facet normal 0 -1 -2.22045e-16
    outer loop
      vertex 5.20799 -5.87336e-16 26.2451
      vertex 4.14177 -2.1895e-16 24.5861
      vertex 4.14177 0 23.6
    endloop
  endfacet
  facet normal 0 -1 -2.22045e-16
    outer loop
      vertex 10.4444 -4.20162e-16 25.4922
      vertex 5.20799 -5.87336e-16 26.2451
      vertex 11 0 23.6
    endloop
  endfacet
  facet normal 0 -1 -2.22045e-16
    outer loop
      vertex 11 0 23.6
      vertex 5.20799 -5.87336e-16 26.2451
      vertex 4.14177 0 23.6
    endloop
  endfacet
  facet normal 0 -1 -2.22045e-16
    outer loop
      vertex 8.95395 -7.06926e-16 26.7837
      vertex 5.20799 -5.87336e-16 26.2451
      vertex 10.4444 -4.20162e-16 25.4922
    endloop
  endfacet
  facet normal 0 -1 -2.22045e-16
    outer loop
      vertex 7.0019 -7.69246e-16 27.0644
      vertex 5.20799 -5.87336e-16 26.2451
      vertex 8.95395 -7.06926e-16 26.7837
    endloop
  endfacet
  facet normal -1 0 0
    outer loop
      vertex 4.14177 0 23.6
      vertex 4.14177 -2.1895e-16 24.5861
      vertex 4.14177 0 24.5861
    endloop
  endfacet
  facet normal 0.959493 -6.25572e-17 0.281733
    outer loop
      vertex 10.4444 0 25.4922
      vertex 10.4444 -4.20162e-16 25.4922
      vertex 11 0 23.6
    endloop
  endfacet
  facet normal 0.654861 -1.6781e-16 0.755749
    outer loop
      vertex 8.95395 0 26.7837
      vertex 8.95395 -7.06926e-16 26.7837
      vertex 10.4444 -4.20162e-16 25.4922
    endloop
  endfacet
  facet normal 0.654861 -1.6781e-16 0.755749
    outer loop
      vertex 10.4444 0 25.4922
      vertex 8.95395 0 26.7837
      vertex 10.4444 -4.20162e-16 25.4922
    endloop
  endfacet
  facet normal 0.142315 -2.19785e-16 0.989821
    outer loop
      vertex 7.0019 0 27.0644
      vertex 7.0019 -7.69246e-16 27.0644
      vertex 8.95395 -7.06926e-16 26.7837
    endloop
  endfacet
  facet normal 0.142315 -2.19785e-16 0.989821
    outer loop
      vertex 8.95395 0 26.7837
      vertex 7.0019 0 27.0644
      vertex 8.95395 -7.06926e-16 26.7837
    endloop
  endfacet
  facet normal -0.415415 -2.01979e-16 0.909632
    outer loop
      vertex 5.20799 0 26.2451
      vertex 5.20799 -5.87336e-16 26.2451
      vertex 7.0019 -7.69246e-16 27.0644
    endloop
  endfacet
  facet normal -0.415415 -2.01979e-16 0.909632
    outer loop
      vertex 7.0019 0 27.0644
      vertex 5.20799 0 26.2451
      vertex 7.0019 -7.69246e-16 27.0644
    endloop
  endfacet
  facet normal -0.841254 -1.20046e-16 0.54064
    outer loop
      vertex 4.14177 -2.1895e-16 24.5861
      vertex 5.20799 -5.87336e-16 26.2451
      vertex 4.14177 0 24.5861
    endloop
  endfacet
  facet normal -0.841254 -1.20046e-16 0.54064
    outer loop
      vertex 4.14177 0 24.5861
      vertex 5.20799 -5.87336e-16 26.2451
      vertex 5.20799 0 26.2451
    endloop
  endfacet
  facet normal 0 -1 -2.22045e-16
    outer loop
      vertex 5.20799 -5.87336e-16 84.5451
      vertex 4.14177 -2.1895e-16 82.8861
      vertex 4.14177 0 81.9
    endloop
  endfacet
  facet normal 0 -1 -2.22045e-16
    outer loop
      vertex 10.4444 -4.20162e-16 83.7922
      vertex 5.20799 -5.87336e-16 84.5451
      vertex 11 0 81.9
    endloop
  endfacet
  facet normal 0 -1 -2.22045e-16
    outer loop
      vertex 11 0 81.9
      vertex 5.20799 -5.87336e-16 84.5451
      vertex 4.14177 0 81.9
    endloop
  endfacet
  facet normal 0 -1 -2.22045e-16
    outer loop
      vertex 8.95395 -7.06926e-16 85.0837
      vertex 5.20799 -5.87336e-16 84.5451
      vertex 10.4444 -4.20162e-16 83.7922
    endloop
  endfacet
  facet normal 0 -1 -2.22045e-16
    outer loop
      vertex 7.0019 -7.69246e-16 85.3644
      vertex 5.20799 -5.87336e-16 84.5451
      vertex 8.95395 -7.06926e-16 85.0837
    endloop
  endfacet
  facet normal -1 0 0
    outer loop
      vertex 4.14177 0 81.9
      vertex 4.14177 -2.1895e-16 82.8861
      vertex 4.14177 0 82.8861
    endloop
  endfacet
  facet normal 0.959493 -6.25572e-17 0.281733
    outer loop
      vertex 10.4444 0 83.7922
      vertex 10.4444 -4.20162e-16 83.7922
      vertex 11 0 81.9
    endloop
  endfacet
  facet normal 0.654861 -1.6781e-16 0.755749
    outer loop
      vertex 8.95395 0 85.0837
      vertex 8.95395 -7.06926e-16 85.0837
      vertex 10.4444 -4.20162e-16 83.7922
    endloop
  endfacet
  facet normal 0.654861 -1.6781e-16 0.755749
    outer loop
      vertex 10.4444 0 83.7922
      vertex 8.95395 0 85.0837
      vertex 10.4444 -4.20162e-16 83.7922
    endloop
  endfacet
  facet normal 0.142315 -2.19785e-16 0.989821
    outer loop
      vertex 7.0019 0 85.3644
      vertex 7.0019 -7.69246e-16 85.3644
      vertex 8.95395 -7.06926e-16 85.0837
    endloop
  endfacet
  facet normal 0.142315 -2.19785e-16 0.989821
    outer loop
      vertex 8.95395 0 85.0837
      vertex 7.0019 0 85.3644
      vertex 8.95395 -7.06926e-16 85.0837
    endloop
  endfacet
  facet normal -0.415415 -2.01979e-16 0.909632
    outer loop
      vertex 5.20799 0 84.5451
      vertex 5.20799 -5.87336e-16 84.5451
      vertex 7.0019 -7.69246e-16 85.3644
    endloop
  endfacet
  facet normal -0.415415 -2.01979e-16 0.909632
    outer loop
      vertex 7.0019 0 85.3644
      vertex 5.20799 0 84.5451
      vertex 7.0019 -7.69246e-16 85.3644
    endloop
  endfacet
  facet normal -0.841254 -1.20046e-16 0.54064
    outer loop
      vertex 4.14177 -2.1895e-16 82.8861
      vertex 5.20799 -5.87336e-16 84.5451
      vertex 4.14177 0 82.8861
    endloop
  endfacet
  facet normal -0.841254 -1.20046e-16 0.54064
    outer loop
      vertex 4.14177 0 82.8861
      vertex 5.20799 -5.87336e-16 84.5451
      vertex 5.20799 0 84.5451
    endloop
  endfacet
  facet normal 1 0 0
    outer loop
      vertex 27.5 6 47.5
      vertex 27.5 6 56.5
      vertex 27.5 0 56.5
    endloop
  endfacet
  facet normal 1 0 0
    outer loop
      vertex 27.5 0 47.5
      vertex 27.5 6 47.5
      vertex 27.5 0 56.5
    endloop
  endfacet
  facet normal 0 0 1
    outer loop
      vertex 36.5 0 47.5
      vertex 36.5 6 47.5
      vertex 27.5 6 47.5
    endloop
  endfacet
  facet normal 0 0 1
    outer loop
      vertex 27.5 0 47.5
      vertex 36.5 0 47.5
      vertex 27.5 6 47.5
    endloop
  endfacet
  facet normal -1 0 0
    outer loop
      vertex 36.5 6 56.5
      vertex 36.5 6 47.5
      vertex 36.5 0 56.5
    endloop
  endfacet
  facet normal -1 0 0
    outer loop
      vertex 36.5 0 56.5
      vertex 36.5 6 47.5
      vertex 36.5 0 47.5
    endloop
  endfacet
  facet normal 0 0 -1
    outer loop
      vertex 36.5 6 56.5
      vertex 36.5 0 56.5
      vertex 27.5 6 56.5
    endloop
  endfacet
  facet normal 0 0 -1
    outer loop
      vertex 27.5 6 56.5
      vertex 36.5 0 56.5
      vertex 27.5 0 56.5
    endloop
  endfacet
  facet normal 0 -1 -2.22045e-16
    outer loop
      vertex 55.208 -5.87336e-16 26.2451
      vertex 54.1418 -2.1895e-16 24.5861
      vertex 54.1418 0 23.6
    endloop
  endfacet
  facet normal 0 -1 -2.22045e-16
    outer loop
      vertex 60.4444 -4.20162e-16 25.4922
      vertex 55.208 -5.87336e-16 26.2451
      vertex 61 0 23.6
    endloop
  endfacet
  facet normal 0 -1 -2.22045e-16
    outer loop
      vertex 61 0 23.6
      vertex 55.208 -5.87336e-16 26.2451
      vertex 54.1418 0 23.6
    endloop
  endfacet
  facet normal 0 -1 -2.22045e-16
    outer loop
      vertex 58.954 -7.06926e-16 26.7837
      vertex 55.208 -5.87336e-16 26.2451
      vertex 60.4444 -4.20162e-16 25.4922
    endloop
  endfacet
  facet normal 0 -1 -2.22045e-16
    outer loop
      vertex 57.0019 -7.69246e-16 27.0644
      vertex 55.208 -5.87336e-16 26.2451
      vertex 58.954 -7.06926e-16 26.7837
    endloop
  endfacet
  facet normal -1 0 0
    outer loop
      vertex 54.1418 0 23.6
      vertex 54.1418 -2.1895e-16 24.5861
      vertex 54.1418 0 24.5861
    endloop
  endfacet
  facet normal 0.959493 -6.25572e-17 0.281733
    outer loop
      vertex 60.4444 0 25.4922
      vertex 60.4444 -4.20162e-16 25.4922
      vertex 61 0 23.6
    endloop
  endfacet
  facet normal 0.654861 -1.6781e-16 0.755749
    outer loop
      vertex 58.954 0 26.7837
      vertex 58.954 -7.06926e-16 26.7837
      vertex 60.4444 -4.20162e-16 25.4922
    endloop
  endfacet
  facet normal 0.654861 -1.6781e-16 0.755749
    outer loop
      vertex 60.4444 0 25.4922
      vertex 58.954 0 26.7837
      vertex 60.4444 -4.20162e-16 25.4922
    endloop
  endfacet
  facet normal 0.142315 -2.19785e-16 0.989821
    outer loop
      vertex 57.0019 0 27.0644
      vertex 57.0019 -7.69246e-16 27.0644
      vertex 58.954 -7.06926e-16 26.7837
    endloop
  endfacet
  facet normal 0.142315 -2.19785e-16 0.989821
    outer loop
      vertex 58.954 0 26.7837
      vertex 57.0019 0 27.0644
      vertex 58.954 -7.06926e-16 26.7837
    endloop
  endfacet
  facet normal -0.415415 -2.01979e-16 0.909632
    outer loop
      vertex 55.208 0 26.2451
      vertex 55.208 -5.87336e-16 26.2451
      vertex 57.0019 -7.69246e-16 27.0644
    endloop
  endfacet
  facet normal -0.415415 -2.01979e-16 0.909632
    outer loop
      vertex 57.0019 0 27.0644
      vertex 55.208 0 26.2451
      vertex 57.0019 -7.69246e-16 27.0644
    endloop
  endfacet
  facet normal -0.841254 -1.20046e-16 0.54064
    outer loop
      vertex 54.1418 -2.1895e-16 24.5861
      vertex 55.208 -5.87336e-16 26.2451
      vertex 54.1418 0 24.5861
    endloop
  endfacet
  facet normal -0.841254 -1.20046e-16 0.54064
    outer loop
      vertex 54.1418 0 24.5861
      vertex 55.208 -5.87336e-16 26.2451
      vertex 55.208 0 26.2451
    endloop
  endfacet
  facet normal 0 -1 -2.22045e-16
    outer loop
      vertex 55.208 -5.87336e-16 84.5451
      vertex 54.1418 -2.1895e-16 82.8861
      vertex 54.1418 0 81.9
    endloop
  endfacet
  facet normal 0 -1 -2.22045e-16
    outer loop
      vertex 60.4444 -4.20162e-16 83.7922
      vertex 55.208 -5.87336e-16 84.5451
      vertex 61 0 81.9
    endloop
  endfacet
  facet normal 0 -1 -2.22045e-16
    outer loop
      vertex 61 0 81.9
      vertex 55.208 -5.87336e-16 84.5451
      vertex 54.1418 0 81.9
    endloop
  endfacet
  facet normal 0 -1 -2.22045e-16
    outer loop
      vertex 58.954 -7.06926e-16 85.0837
      vertex 55.208 -5.87336e-16 84.5451
      vertex 60.4444 -4.20162e-16 83.7922
    endloop
  endfacet
  facet normal 0 -1 -2.22045e-16
    outer loop
      vertex 57.0019 -7.69246e-16 85.3644
      vertex 55.208 -5.87336e-16 84.5451
      vertex 58.954 -7.06926e-16 85.0837
    endloop
  endfacet
  facet normal -1 0 0
    outer loop
      vertex 54.1418 0 81.9
      vertex 54.1418 -2.1895e-16 82.8861
      vertex 54.1418 0 82.8861
    endloop
  endfacet
  facet normal 0.959493 -6.25572e-17 0.281733
    outer loop
      vertex 60.4444 0 83.7922
      vertex 60.4444 -4.20162e-16 83.7922
      vertex 61 0 81.9
    endloop
  endfacet
  facet normal 0.654861 -1.6781e-16 0.755749
    outer loop
      vertex 58.954 0 85.0837
      vertex 58.954 -7.06926e-16 85.0837
      vertex 60.4444 -4.20162e-16 83.7922
    endloop
  endfacet
  facet normal 0.654861 -1.6781e-16 0.755749
    outer loop
      vertex 60.4444 0 83.7922
      vertex 58.954 0 85.0837
      vertex 60.4444 -4.20162e-16 83.7922
    endloop
  endfacet
  facet normal 0.142315 -2.19785e-16 0.989821
    outer loop
      vertex 57.0019 0 85.3644
      vertex 57.0019 -7.69246e-16 85.3644
      vertex 58.954 -7.06926e-16 85.0837
    endloop
  endfacet
  facet normal 0.142315 -2.19785e-16 0.989821
    outer loop
      vertex 58.954 0 85.0837
      vertex 57.0019 0 85.3644
      vertex 58.954 -7.06926e-16 85.0837
    endloop
  endfacet
  facet normal -0.415415 -2.01979e-16 0.909632
    outer loop
      vertex 55.208 0 84.5451
      vertex 55.208 -5.87336e-16 84.5451
      vertex 57.0019 -7.69246e-16 85.3644
    endloop
  endfacet
  facet normal -0.415415 -2.01979e-16 0.909632
    outer loop
      vertex 57.0019 0 85.3644
      vertex 55.208 0 84.5451
      vertex 57.0019 -7.69246e-16 85.3644
    endloop
  endfacet
  facet normal -0.841254 -1.20046e-16 0.54064
    outer loop
      vertex 54.1418 -2.1895e-16 82.8861
      vertex 55.208 -5.87336e-16 84.5451
      vertex 54.1418 0 82.8861
    endloop
  endfacet
  facet normal -0.841254 -1.20046e-16 0.54064
    outer loop
      vertex 54.1418 0 82.8861
      vertex 55.208 -5.87336e-16 84.5451
      vertex 55.208 0 84.5451
    endloop
  endfacet
  facet normal -1 0 0
    outer loop
      vertex 82.4 6 0
      vertex 82.4 6 4
      vertex 82.4 29.4 0
    endloop
  endfacet
  facet normal -1 0 0
    outer loop
      vertex 82.4 29.4 0
      vertex 82.4 6 4
      vertex 82.4 25.4 4
    endloop
  endfacet
  facet normal -1 0 0
    outer loop
      vertex 82.4 29.4 0
      vertex 82.4 25.4 4
      vertex 82.4 29.4 4
    endloop
  endfacet
  facet normal 0 1 0
    outer loop
      vertex 62 6 0
      vertex 62 6 4
      vertex 82.4 6 0
    endloop
  endfacet
  facet normal 0 1 0
    outer loop
      vertex 82.4 6 0
      vertex 62 6 4
      vertex 82.4 6 4
    endloop
  endfacet
  facet normal -1 0 0
    outer loop
      vertex 62 4.1 0
      vertex 62 4.1 4
      vertex 62 6 0
    endloop
  endfacet
  facet normal -1 0 0
    outer loop
      vertex 62 6 0
      vertex 62 4.1 4
      vertex 62 6 4
    endloop
  endfacet
  facet normal 0 1 0
    outer loop
      vertex 10.4444 4.1 83.7922
      vertex 4.1 4.1 99.4
      vertex 52 4.1 72
    endloop
  endfacet
  facet normal 0 1 0
    outer loop
      vertex 57.0019 4.1 20.1356
      vertex 84.5 4.1 4
      vertex 62 4.1 4
    endloop
  endfacet
  facet normal 0 1 0
    outer loop
      vertex 52 4.1 72
      vertex 58.954 4.1 26.7837
      vertex 52 4.1 32
    endloop
  endfacet
  facet normal 0 1 0
    outer loop
      vertex 7.0019 4.1 20.1356
      vertex 62 4.1 0
      vertex 4.1 4.1 0
    endloop
  endfacet
  facet normal 0 1 0
    outer loop
      vertex 4.1 4.1 99.4
      vertex 4.14177 4.1 22.6139
      vertex 4.1 4.1 0
    endloop
  endfacet
  facet normal 0 1 0
    outer loop
      vertex 10.4444 4.1 21.7078
      vertex 62 4.1 0
      vertex 8.95395 4.1 20.4163
    endloop
  endfacet
  facet normal 0 1 0
    outer loop
      vertex 4.14177 4.1 22.6139
      vertex 5.20799 4.1 20.9549
      vertex 4.1 4.1 0
    endloop
  endfacet
  facet normal 0 1 0
    outer loop
      vertex 5.20799 4.1 20.9549
      vertex 7.0019 4.1 20.1356
      vertex 4.1 4.1 0
    endloop
  endfacet
  facet normal 0 1 0
    outer loop
      vertex 12 4.1 72
      vertex 8.95395 4.1 78.7163
      vertex 10.4444 4.1 80.0078
    endloop
  endfacet
  facet normal 0 1 0
    outer loop
      vertex 11 4.1 23.6
      vertex 62 4.1 0
      vertex 10.4444 4.1 21.7078
    endloop
  endfacet
  facet normal 0 1 0
    outer loop
      vertex 12 4.1 32
      vertex 62 4.1 0
      vertex 11 4.1 23.6
    endloop
  endfacet
  facet normal 0 1 0
    outer loop
      vertex 12 4.1 32
      vertex 7.0019 4.1 78.4356
      vertex 12 4.1 72
    endloop
  endfacet
  facet normal 0 1 0
    outer loop
      vertex 5.20799 4.1 79.2549
      vertex 7.0019 4.1 27.0644
      vertex 5.20799 4.1 26.2451
    endloop
  endfacet
  facet normal 0 1 0
    outer loop
      vertex 5.20799 4.1 79.2549
      vertex 8.95395 4.1 26.7837
      vertex 7.0019 4.1 27.0644
    endloop
  endfacet
  facet normal 0 1 0
    outer loop
      vertex 7.0019 4.1 78.4356
      vertex 10.4444 4.1 25.4922
      vertex 8.95395 4.1 26.7837
    endloop
  endfacet
  facet normal 0 1 0
    outer loop
      vertex 4.14177 4.1 80.9139
      vertex 5.20799 4.1 26.2451
      vertex 4.14177 4.1 24.5861
    endloop
  endfacet
  facet normal 0 1 0
    outer loop
      vertex 4.1 4.1 99.4
      vertex 4.14177 4.1 24.5861
      vertex 4.14177 4.1 22.6139
    endloop
  endfacet
  facet normal 0 1 0
    outer loop
      vertex 4.1 4.1 99.4
      vertex 4.14177 4.1 80.9139
      vertex 4.14177 4.1 24.5861
    endloop
  endfacet
  facet normal 0 1 0
    outer loop
      vertex 7.0019 4.1 78.4356
      vertex 11 4.1 23.6
      vertex 10.4444 4.1 25.4922
    endloop
  endfacet
  facet normal 0 1 0
    outer loop
      vertex 54.1418 4.1 22.6139
      vertex 62 4.1 0
      vertex 12 4.1 32
    endloop
  endfacet
  facet normal 0 1 0
    outer loop
      vertex 8.95395 4.1 85.0837
      vertex 4.1 4.1 99.4
      vertex 10.4444 4.1 83.7922
    endloop
  endfacet
  facet normal 0 1 0
    outer loop
      vertex 7.0019 4.1 85.3644
      vertex 4.1 4.1 99.4
      vertex 8.95395 4.1 85.0837
    endloop
  endfacet
  facet normal 0 1 0
    outer loop
      vertex 52 4.1 32
      vertex 54.1418 4.1 22.6139
      vertex 12 4.1 32
    endloop
  endfacet
  facet normal 0 1 0
    outer loop
      vertex 5.20799 4.1 84.5451
      vertex 4.1 4.1 99.4
      vertex 7.0019 4.1 85.3644
    endloop
  endfacet
  facet normal 0 1 0
    outer loop
      vertex 5.20799 4.1 79.2549
      vertex 5.20799 4.1 26.2451
      vertex 4.14177 4.1 80.9139
    endloop
  endfacet
  facet normal 0 1 0
    outer loop
      vertex 12 4.1 72
      vertex 10.4444 4.1 80.0078
      vertex 11 4.1 81.9
    endloop
  endfacet
  facet normal 0 1 0
    outer loop
      vertex 7.0019 4.1 78.4356
      vertex 8.95395 4.1 26.7837
      vertex 5.20799 4.1 79.2549
    endloop
  endfacet
  facet normal 0 1 0
    outer loop
      vertex 4.1 4.1 99.4
      vertex 4.14177 4.1 82.8861
      vertex 4.14177 4.1 80.9139
    endloop
  endfacet
  facet normal 0 1 0
    outer loop
      vertex 54.1418 4.1 22.6139
      vertex 62 4.1 4
      vertex 62 4.1 0
    endloop
  endfacet
  facet normal 0 1 0
    outer loop
      vertex 7.0019 4.1 78.4356
      vertex 12 4.1 32
      vertex 11 4.1 23.6
    endloop
  endfacet
  facet normal 0 1 0
    outer loop
      vertex 57.0019 4.1 27.0644
      vertex 52 4.1 32
      vertex 58.954 4.1 26.7837
    endloop
  endfacet
  facet normal 0 1 0
    outer loop
      vertex 84.5 4.1 99.4
      vertex 84.5 4.1 4
      vertex 52 4.1 72
    endloop
  endfacet
  facet normal 0 1 0
    outer loop
      vertex 54.1418 4.1 80.9139
      vertex 52 4.1 72
      vertex 4.1 4.1 99.4
    endloop
  endfacet
  facet normal 0 1 0
    outer loop
      vertex 8.95395 4.1 78.7163
      vertex 12 4.1 72
      vertex 7.0019 4.1 78.4356
    endloop
  endfacet
  facet normal 0 1 0
    outer loop
      vertex 52 4.1 72
      vertex 84.5 4.1 4
      vertex 60.4444 4.1 25.4922
    endloop
  endfacet
  facet normal 0 1 0
    outer loop
      vertex 52 4.1 72
      vertex 60.4444 4.1 25.4922
      vertex 58.954 4.1 26.7837
    endloop
  endfacet
  facet normal 0 1 0
    outer loop
      vertex 61 4.1 81.9
      vertex 84.5 4.1 99.4
      vertex 60.4444 4.1 80.0078
    endloop
  endfacet
  facet normal 0 1 0
    outer loop
      vertex 54.1418 4.1 22.6139
      vertex 55.208 4.1 20.9549
      vertex 62 4.1 4
    endloop
  endfacet
  facet normal 0 1 0
    outer loop
      vertex 58.954 4.1 20.4163
      vertex 84.5 4.1 4
      vertex 57.0019 4.1 20.1356
    endloop
  endfacet
  facet normal 0 1 0
    outer loop
      vertex 60.4444 4.1 25.4922
      vertex 84.5 4.1 4
      vertex 61 4.1 23.6
    endloop
  endfacet
  facet normal 0 1 0
    outer loop
      vertex 60.4444 4.1 21.7078
      vertex 84.5 4.1 4
      vertex 58.954 4.1 20.4163
    endloop
  endfacet
  facet normal 0 1 0
    outer loop
      vertex 61 4.1 23.6
      vertex 84.5 4.1 4
      vertex 60.4444 4.1 21.7078
    endloop
  endfacet
  facet normal 0 1 0
    outer loop
      vertex 11 4.1 81.9
      vertex 10.4444 4.1 83.7922
      vertex 52 4.1 72
    endloop
  endfacet
  facet normal 0 1 0
    outer loop
      vertex 12 4.1 72
      vertex 11 4.1 81.9
      vertex 52 4.1 72
    endloop
  endfacet
  facet normal 0 1 0
    outer loop
      vertex 55.208 4.1 26.2451
      vertex 52 4.1 32
      vertex 57.0019 4.1 27.0644
    endloop
  endfacet
  facet normal 0 1 0
    outer loop
      vertex 54.1418 4.1 24.5861
      vertex 52 4.1 32
      vertex 55.208 4.1 26.2451
    endloop
  endfacet
  facet normal 0 1 0
    outer loop
      vertex 54.1418 4.1 22.6139
      vertex 52 4.1 32
      vertex 54.1418 4.1 24.5861
    endloop
  endfacet
  facet normal 0 1 0
    outer loop
      vertex 55.208 4.1 79.2549
      vertex 52 4.1 72
      vertex 54.1418 4.1 80.9139
    endloop
  endfacet
  facet normal 0 1 0
    outer loop
      vertex 54.1418 4.1 82.8861
      vertex 54.1418 4.1 80.9139
      vertex 4.1 4.1 99.4
    endloop
  endfacet
  facet normal 0 1 0
    outer loop
      vertex 57.0019 4.1 78.4356
      vertex 52 4.1 72
      vertex 55.208 4.1 79.2549
    endloop
  endfacet
  facet normal 0 1 0
    outer loop
      vertex 58.954 4.1 78.7163
      vertex 52 4.1 72
      vertex 57.0019 4.1 78.4356
    endloop
  endfacet
  facet normal 0 1 0
    outer loop
      vertex 84.5 4.1 99.4
      vertex 52 4.1 72
      vertex 58.954 4.1 78.7163
    endloop
  endfacet
  facet normal 0 1 0
    outer loop
      vertex 84.5 4.1 99.4
      vertex 58.954 4.1 78.7163
      vertex 60.4444 4.1 80.0078
    endloop
  endfacet
  facet normal 0 1 0
    outer loop
      vertex 60.4444 4.1 83.7922
      vertex 84.5 4.1 99.4
      vertex 61 4.1 81.9
    endloop
  endfacet
  facet normal 0 1 0
    outer loop
      vertex 58.954 4.1 85.0837
      vertex 84.5 4.1 99.4
      vertex 60.4444 4.1 83.7922
    endloop
  endfacet
  facet normal 0 1 0
    outer loop
      vertex 84.5 4.1 99.4
      vertex 58.954 4.1 85.0837
      vertex 4.1 4.1 99.4
    endloop
  endfacet
  facet normal 0 1 0
    outer loop
      vertex 58.954 4.1 85.0837
      vertex 57.0019 4.1 85.3644
      vertex 4.1 4.1 99.4
    endloop
  endfacet
  facet normal 0 1 0
    outer loop
      vertex 57.0019 4.1 85.3644
      vertex 55.208 4.1 84.5451
      vertex 4.1 4.1 99.4
    endloop
  endfacet
  facet normal 0 1 0
    outer loop
      vertex 55.208 4.1 84.5451
      vertex 54.1418 4.1 82.8861
      vertex 4.1 4.1 99.4
    endloop
  endfacet
  facet normal 0 1 0
    outer loop
      vertex 8.95395 4.1 20.4163
      vertex 62 4.1 0
      vertex 7.0019 4.1 20.1356
    endloop
  endfacet
  facet normal 0 1 0
    outer loop
      vertex 4.14177 4.1 82.8861
      vertex 4.1 4.1 99.4
      vertex 5.20799 4.1 84.5451
    endloop
  endfacet
  facet normal 0 1 0
    outer loop
      vertex 57.0019 4.1 20.1356
      vertex 62 4.1 4
      vertex 55.208 4.1 20.9549
    endloop
  endfacet
  facet normal 1 0 0
    outer loop
      vertex 4.1 29.4 0
      vertex 4.1 29.4 4
      vertex 4.1 25.4 4
    endloop
  endfacet
  facet normal 1 0 0
    outer loop
      vertex 4.1 4.1 0
      vertex 4.1 29.4 0
      vertex 4.1 25.4 4
    endloop
  endfacet
  facet normal 1 0 0
    outer loop
      vertex 4.1 14 62
      vertex 4.1 14 68.5
      vertex 4.1 4.1 99.4
    endloop
  endfacet
  facet normal 1 0 0
    outer loop
      vertex 4.1 14 27.5
      vertex 4.1 4.1 0
      vertex 4.1 25.4 4
    endloop
  endfacet
  facet normal 1 0 0
    outer loop
      vertex 4.1 14 62
      vertex 4.1 22 62
      vertex 4.1 14 68.5
    endloop
  endfacet
  facet normal 1 0 0
    outer loop
      vertex 4.1 4.1 99.4
      vertex 4.1 4.1 0
      vertex 4.1 14 36.5
    endloop
  endfacet
  facet normal 1 0 0
    outer loop
      vertex 4.1 25.4 99.4
      vertex 4.1 23 36.5
      vertex 4.1 25.4 4
    endloop
  endfacet
  facet normal 1 0 0
    outer loop
      vertex 4.1 23 36.5
      vertex 4.1 23 27.5
      vertex 4.1 25.4 4
    endloop
  endfacet
  facet normal 1 0 0
    outer loop
      vertex 4.1 23 27.5
      vertex 4.1 14 27.5
      vertex 4.1 25.4 4
    endloop
  endfacet
  facet normal 1 0 0
    outer loop
      vertex 4.1 14 68.5
      vertex 4.1 14 79.5
      vertex 4.1 4.1 99.4
    endloop
  endfacet
  facet normal 1 0 0
    outer loop
      vertex 4.1 14 36.5
      vertex 4.1 4.1 0
      vertex 4.1 14 27.5
    endloop
  endfacet
  facet normal 1 0 0
    outer loop
      vertex 4.1 25.4 99.4
      vertex 4.1 22 62
      vertex 4.1 23 36.5
    endloop
  endfacet
  facet normal 1 0 0
    outer loop
      vertex 4.1 22 62
      vertex 4.1 22 44
      vertex 4.1 23 36.5
    endloop
  endfacet
  facet normal 1 0 0
    outer loop
      vertex 4.1 21 68.5
      vertex 4.1 14 68.5
      vertex 4.1 22 62
    endloop
  endfacet
  facet normal 1 0 0
    outer loop
      vertex 4.1 4.1 99.4
      vertex 4.1 14 36.5
      vertex 4.1 14 44
    endloop
  endfacet
  facet normal 1 0 0
    outer loop
      vertex 4.1 25.4 99.4
      vertex 4.1 4.1 99.4
      vertex 4.1 14 79.5
    endloop
  endfacet
  facet normal 1 0 0
    outer loop
      vertex 4.1 25.4 99.4
      vertex 4.1 21 79.5
      vertex 4.1 22 62
    endloop
  endfacet
  facet normal 1 0 0
    outer loop
      vertex 4.1 25.4 99.4
      vertex 4.1 14 79.5
      vertex 4.1 21 79.5
    endloop
  endfacet
  facet normal 1 0 0
    outer loop
      vertex 4.1 21 79.5
      vertex 4.1 21 68.5
      vertex 4.1 22 62
    endloop
  endfacet
  facet normal 1 0 0
    outer loop
      vertex 4.1 22 44
      vertex 4.1 14 44
      vertex 4.1 23 36.5
    endloop
  endfacet
  facet normal 1 0 0
    outer loop
      vertex 4.1 14 44
      vertex 4.1 14 62
      vertex 4.1 4.1 99.4
    endloop
  endfacet
  facet normal 1 0 0
    outer loop
      vertex 4.1 14 36.5
      vertex 4.1 23 36.5
      vertex 4.1 14 44
    endloop
  endfacet
  facet normal 0 0 1
    outer loop
      vertex 2 29.4 4
      vertex 2 25.4 4
      vertex 4.1 25.4 4
    endloop
  endfacet
  facet normal 0 0 1
    outer loop
      vertex 4.1 29.4 4
      vertex 2 29.4 4
      vertex 4.1 25.4 4
    endloop
  endfacet
  facet normal 1 0 0
    outer loop
      vertex 2 29.4 4
      vertex 2 29.4 101.5
      vertex 2 25.4 101.5
    endloop
  endfacet
  facet normal 1 0 0
    outer loop
      vertex 2 25.4 4
      vertex 2 29.4 4
      vertex 2 25.4 101.5
    endloop
  endfacet
  facet normal 0 0 -1
    outer loop
      vertex 86.4 29.4 101.5
      vertex 86.4 25.4 101.5
      vertex 2 29.4 101.5
    endloop
  endfacet
  facet normal 0 0 -1
    outer loop
      vertex 2 29.4 101.5
      vertex 86.4 25.4 101.5
      vertex 2 25.4 101.5
    endloop
  endfacet
  facet normal -1 0 0
    outer loop
      vertex 86.4 29.4 101.5
      vertex 86.4 29.4 4
      vertex 86.4 25.4 101.5
    endloop
  endfacet
  facet normal -1 0 0
    outer loop
      vertex 86.4 25.4 101.5
      vertex 86.4 29.4 4
      vertex 86.4 25.4 4
    endloop
  endfacet
  facet normal 0 0 1
    outer loop
      vertex 82.4 29.4 4
      vertex 82.4 25.4 4
      vertex 84.5 25.4 4
    endloop
  endfacet
  facet normal 0 0 1
    outer loop
      vertex 86.4 29.4 4
      vertex 82.4 29.4 4
      vertex 86.4 25.4 4
    endloop
  endfacet
  facet normal 0 0 1
    outer loop
      vertex 86.4 25.4 4
      vertex 82.4 29.4 4
      vertex 84.5 25.4 4
    endloop
  endfacet
  facet normal 0 1 0
    outer loop
      vertex 96.9 11.8468 50.8229
      vertex 92 11.8468 50.8229
      vertex 96.9 11.8468 52.6771
    endloop
  endfacet
  facet normal 0 1 0
    outer loop
      vertex 96.9 11.8468 52.6771
      vertex 92 11.8468 50.8229
      vertex 92 11.8468 52.6771
    endloop
  endfacet
  facet normal -1.30515e-16 0.809017 0.587785
    outer loop
      vertex 96.9 12.9366 49.3229
      vertex 92 12.9366 49.3229
      vertex 96.9 11.8468 50.8229
    endloop
  endfacet
  facet normal -1.30515e-16 0.809017 0.587785
    outer loop
      vertex 96.9 11.8468 50.8229
      vertex 92 12.9366 49.3229
      vertex 92 11.8468 50.8229
    endloop
  endfacet
  facet normal -2.11177e-16 0.309017 0.951057
    outer loop
      vertex 96.9 12.9366 49.3229
      vertex 96.9 14.7 48.75
      vertex 92 14.7 48.75
    endloop
  endfacet
  facet normal -2.11177e-16 0.309017 0.951057
    outer loop
      vertex 92 12.9366 49.3229
      vertex 96.9 12.9366 49.3229
      vertex 92 14.7 48.75
    endloop
  endfacet
  facet normal -2.11177e-16 -0.309017 0.951057
    outer loop
      vertex 92 14.7 48.75
      vertex 96.9 14.7 48.75
      vertex 96.9 16.4634 49.3229
    endloop
  endfacet
  facet normal -2.11177e-16 -0.309017 0.951057
    outer loop
      vertex 92 16.4634 49.3229
      vertex 92 14.7 48.75
      vertex 96.9 16.4634 49.3229
    endloop
  endfacet
  facet normal -1.30515e-16 -0.809017 0.587785
    outer loop
      vertex 92 16.4634 49.3229
      vertex 96.9 16.4634 49.3229
      vertex 96.9 17.5532 50.8229
    endloop
  endfacet
  facet normal -1.30515e-16 -0.809017 0.587785
    outer loop
      vertex 92 17.5532 50.8229
      vertex 92 16.4634 49.3229
      vertex 96.9 17.5532 50.8229
    endloop
  endfacet
  facet normal 0 -1 0
    outer loop
      vertex 92 17.5532 50.8229
      vertex 96.9 17.5532 50.8229
      vertex 96.9 17.5532 52.6771
    endloop
  endfacet
  facet normal 0 -1 0
    outer loop
      vertex 92 17.5532 52.6771
      vertex 92 17.5532 50.8229
      vertex 96.9 17.5532 52.6771
    endloop
  endfacet
  facet normal 1.30515e-16 -0.809017 -0.587785
    outer loop
      vertex 92 17.5532 52.6771
      vertex 96.9 17.5532 52.6771
      vertex 96.9 16.4634 54.1771
    endloop
  endfacet
  facet normal 1.30515e-16 -0.809017 -0.587785
    outer loop
      vertex 92 16.4634 54.1771
      vertex 92 17.5532 52.6771
      vertex 96.9 16.4634 54.1771
    endloop
  endfacet
  facet normal 2.11177e-16 -0.309017 -0.951057
    outer loop
      vertex 96.9 16.4634 54.1771
      vertex 96.9 14.7 54.75
      vertex 92 16.4634 54.1771
    endloop
  endfacet
  facet normal 2.11177e-16 -0.309017 -0.951057
    outer loop
      vertex 92 16.4634 54.1771
      vertex 96.9 14.7 54.75
      vertex 92 14.7 54.75
    endloop
  endfacet
  facet normal 2.11177e-16 0.309017 -0.951057
    outer loop
      vertex 96.9 12.9366 54.1771
      vertex 92 12.9366 54.1771
      vertex 96.9 14.7 54.75
    endloop
  endfacet
  facet normal 2.11177e-16 0.309017 -0.951057
    outer loop
      vertex 96.9 14.7 54.75
      vertex 92 12.9366 54.1771
      vertex 92 14.7 54.75
    endloop
  endfacet
  facet normal 1.30515e-16 0.809017 -0.587785
    outer loop
      vertex 96.9 11.8468 52.6771
      vertex 92 11.8468 52.6771
      vertex 96.9 12.9366 54.1771
    endloop
  endfacet
  facet normal 1.30515e-16 0.809017 -0.587785
    outer loop
      vertex 96.9 12.9366 54.1771
      vertex 92 11.8468 52.6771
      vertex 92 12.9366 54.1771
    endloop
  endfacet
  facet normal 0 1 0
    outer loop
      vertex 27.5 6 47.5
      vertex 36.5 6 47.5
      vertex 52 6 32
    endloop
  endfacet
  facet normal 0 1 0
    outer loop
      vertex 27.5 6 56.5
      vertex 12 6 72
      vertex 52 6 72
    endloop
  endfacet
  facet normal 0 1 0
    outer loop
      vertex 12 6 32
      vertex 12 6 72
      vertex 27.5 6 56.5
    endloop
  endfacet
  facet normal 0 1 0
    outer loop
      vertex 36.5 6 56.5
      vertex 27.5 6 56.5
      vertex 52 6 72
    endloop
  endfacet
  facet normal 0 1 0
    outer loop
      vertex 12 6 32
      vertex 27.5 6 56.5
      vertex 27.5 6 47.5
    endloop
  endfacet
  facet normal 0 1 0
    outer loop
      vertex 12 6 32
      vertex 27.5 6 47.5
      vertex 52 6 32
    endloop
  endfacet
  facet normal 0 1 0
    outer loop
      vertex 52 6 32
      vertex 36.5 6 47.5
      vertex 52 6 72
    endloop
  endfacet
  facet normal 0 1 0
    outer loop
      vertex 36.5 6 47.5
      vertex 36.5 6 56.5
      vertex 52 6 72
    endloop
  endfacet
  facet normal 0 0 1
    outer loop
      vertex 62 6 4
      vertex 62 4.1 4
      vertex 84.5 4.1 4
    endloop
  endfacet
  facet normal 0 0 1
    outer loop
      vertex 82.4 6 4
      vertex 62 6 4
      vertex 84.5 4.1 4
    endloop
  endfacet
  facet normal 0 0 1
    outer loop
      vertex 84.5 25.4 4
      vertex 82.4 6 4
      vertex 84.5 4.1 4
    endloop
  endfacet
  facet normal 0 0 1
    outer loop
      vertex 82.4 25.4 4
      vertex 82.4 6 4
      vertex 84.5 25.4 4
    endloop
  endfacet
  facet normal 0 0 -1
    outer loop
      vertex 84.5 25.4 99.4
      vertex 84.5 4.1 99.4
      vertex 4.1 25.4 99.4
    endloop
  endfacet
  facet normal 0 0 -1
    outer loop
      vertex 4.1 25.4 99.4
      vertex 84.5 4.1 99.4
      vertex 4.1 4.1 99.4
    endloop
  endfacet
  facet normal -1 0 0
    outer loop
      vertex 84.5 25.4 99.4
      vertex 84.5 25.4 4
      vertex 84.5 4.1 99.4
    endloop
  endfacet
  facet normal -1 0 0
    outer loop
      vertex 84.5 4.1 99.4
      vertex 84.5 25.4 4
      vertex 84.5 4.1 4
    endloop
  endfacet
  facet normal -0.841254 1.20046e-16 -0.54064
    outer loop
      vertex 4.14177 4.1 22.6139
      vertex 4.14177 22 22.6139
      vertex 5.20799 4.1 20.9549
    endloop
  endfacet
  facet normal -0.841254 1.20046e-16 -0.54064
    outer loop
      vertex 5.20799 4.1 20.9549
      vertex 4.14177 22 22.6139
      vertex 5.20799 22 20.9549
    endloop
  endfacet
  facet normal -1 0 0
    outer loop
      vertex 4.14177 4.1 22.6139
      vertex 4.14177 4.1 24.5861
      vertex 4.14177 22 22.6139
    endloop
  endfacet
  facet normal -1 0 0
    outer loop
      vertex 4.14177 22 22.6139
      vertex 4.14177 4.1 24.5861
      vertex 4.14177 22 24.5861
    endloop
  endfacet
  facet normal -0.841254 -1.20046e-16 0.54064
    outer loop
      vertex 4.14177 4.1 24.5861
      vertex 5.20799 4.1 26.2451
      vertex 4.14177 22 24.5861
    endloop
  endfacet
  facet normal -0.841254 -1.20046e-16 0.54064
    outer loop
      vertex 4.14177 22 24.5861
      vertex 5.20799 4.1 26.2451
      vertex 5.20799 22 26.2451
    endloop
  endfacet
  facet normal -0.415415 -2.01979e-16 0.909632
    outer loop
      vertex 5.20799 22 26.2451
      vertex 5.20799 4.1 26.2451
      vertex 7.0019 4.1 27.0644
    endloop
  endfacet
  facet normal -0.415415 -2.01979e-16 0.909632
    outer loop
      vertex 7.0019 22 27.0644
      vertex 5.20799 22 26.2451
      vertex 7.0019 4.1 27.0644
    endloop
  endfacet
  facet normal 0.142315 -2.19785e-16 0.989821
    outer loop
      vertex 7.0019 22 27.0644
      vertex 7.0019 4.1 27.0644
      vertex 8.95395 4.1 26.7837
    endloop
  endfacet
  facet normal 0.142315 -2.19785e-16 0.989821
    outer loop
      vertex 8.95395 22 26.7837
      vertex 7.0019 22 27.0644
      vertex 8.95395 4.1 26.7837
    endloop
  endfacet
  facet normal 0.654861 -1.6781e-16 0.755749
    outer loop
      vertex 8.95395 22 26.7837
      vertex 8.95395 4.1 26.7837
      vertex 10.4444 4.1 25.4922
    endloop
  endfacet
  facet normal 0.654861 -1.6781e-16 0.755749
    outer loop
      vertex 10.4444 22 25.4922
      vertex 8.95395 22 26.7837
      vertex 10.4444 4.1 25.4922
    endloop
  endfacet
  facet normal 0.959493 -6.25572e-17 0.281733
    outer loop
      vertex 10.4444 22 25.4922
      vertex 10.4444 4.1 25.4922
      vertex 11 4.1 23.6
    endloop
  endfacet
  facet normal 0.959493 -6.25572e-17 0.281733
    outer loop
      vertex 11 22 23.6
      vertex 10.4444 22 25.4922
      vertex 11 4.1 23.6
    endloop
  endfacet
  facet normal 0.959493 6.25572e-17 -0.281733
    outer loop
      vertex 11 4.1 23.6
      vertex 10.4444 4.1 21.7078
      vertex 10.4444 22 21.7078
    endloop
  endfacet
  facet normal 0.959493 6.25572e-17 -0.281733
    outer loop
      vertex 11 22 23.6
      vertex 11 4.1 23.6
      vertex 10.4444 22 21.7078
    endloop
  endfacet
  facet normal 0.654861 1.6781e-16 -0.755749
    outer loop
      vertex 8.95395 4.1 20.4163
      vertex 8.95395 22 20.4163
      vertex 10.4444 4.1 21.7078
    endloop
  endfacet
  facet normal 0.654861 1.6781e-16 -0.755749
    outer loop
      vertex 10.4444 4.1 21.7078
      vertex 8.95395 22 20.4163
      vertex 10.4444 22 21.7078
    endloop
  endfacet
  facet normal 0.142315 2.19785e-16 -0.989821
    outer loop
      vertex 7.0019 4.1 20.1356
      vertex 7.0019 22 20.1356
      vertex 8.95395 4.1 20.4163
    endloop
  endfacet
  facet normal 0.142315 2.19785e-16 -0.989821
    outer loop
      vertex 8.95395 4.1 20.4163
      vertex 7.0019 22 20.1356
      vertex 8.95395 22 20.4163
    endloop
  endfacet
  facet normal -0.415415 2.01979e-16 -0.909632
    outer loop
      vertex 5.20799 4.1 20.9549
      vertex 5.20799 22 20.9549
      vertex 7.0019 4.1 20.1356
    endloop
  endfacet
  facet normal -0.415415 2.01979e-16 -0.909632
    outer loop
      vertex 7.0019 4.1 20.1356
      vertex 5.20799 22 20.9549
      vertex 7.0019 22 20.1356
    endloop
  endfacet
  facet normal -0.841254 1.20046e-16 -0.54064
    outer loop
      vertex 4.14177 4.1 80.9139
      vertex 4.14177 22 80.9139
      vertex 5.20799 4.1 79.2549
    endloop
  endfacet
  facet normal -0.841254 1.20046e-16 -0.54064
    outer loop
      vertex 5.20799 4.1 79.2549
      vertex 4.14177 22 80.9139
      vertex 5.20799 22 79.2549
    endloop
  endfacet
  facet normal -1 0 0
    outer loop
      vertex 4.14177 4.1 80.9139
      vertex 4.14177 4.1 82.8861
      vertex 4.14177 22 80.9139
    endloop
  endfacet
  facet normal -1 0 0
    outer loop
      vertex 4.14177 22 80.9139
      vertex 4.14177 4.1 82.8861
      vertex 4.14177 22 82.8861
    endloop
  endfacet
  facet normal -0.841254 -1.20046e-16 0.54064
    outer loop
      vertex 4.14177 4.1 82.8861
      vertex 5.20799 4.1 84.5451
      vertex 4.14177 22 82.8861
    endloop
  endfacet
  facet normal -0.841254 -1.20046e-16 0.54064
    outer loop
      vertex 4.14177 22 82.8861
      vertex 5.20799 4.1 84.5451
      vertex 5.20799 22 84.5451
    endloop
  endfacet
  facet normal -0.415415 -2.01979e-16 0.909632
    outer loop
      vertex 5.20799 22 84.5451
      vertex 5.20799 4.1 84.5451
      vertex 7.0019 4.1 85.3644
    endloop
  endfacet
  facet normal -0.415415 -2.01979e-16 0.909632
    outer loop
      vertex 7.0019 22 85.3644
      vertex 5.20799 22 84.5451
      vertex 7.0019 4.1 85.3644
    endloop
  endfacet
  facet normal 0.142315 -2.19785e-16 0.989821
    outer loop
      vertex 7.0019 22 85.3644
      vertex 7.0019 4.1 85.3644
      vertex 8.95395 4.1 85.0837
    endloop
  endfacet
  facet normal 0.142315 -2.19785e-16 0.989821
    outer loop
      vertex 8.95395 22 85.0837
      vertex 7.0019 22 85.3644
      vertex 8.95395 4.1 85.0837
    endloop
  endfacet
  facet normal 0.654861 -1.6781e-16 0.755749
    outer loop
      vertex 8.95395 22 85.0837
      vertex 8.95395 4.1 85.0837
      vertex 10.4444 4.1 83.7922
    endloop
  endfacet
  facet normal 0.654861 -1.6781e-16 0.755749
    outer loop
      vertex 10.4444 22 83.7922
      vertex 8.95395 22 85.0837
      vertex 10.4444 4.1 83.7922
    endloop
  endfacet
  facet normal 0.959493 -6.25572e-17 0.281733
    outer loop
      vertex 10.4444 22 83.7922
      vertex 10.4444 4.1 83.7922
      vertex 11 4.1 81.9
    endloop
  endfacet
  facet normal 0.959493 -6.25572e-17 0.281733
    outer loop
      vertex 11 22 81.9
      vertex 10.4444 22 83.7922
      vertex 11 4.1 81.9
    endloop
  endfacet
  facet normal 0.959493 6.25572e-17 -0.281733
    outer loop
      vertex 11 4.1 81.9
      vertex 10.4444 4.1 80.0078
      vertex 10.4444 22 80.0078
    endloop
  endfacet
  facet normal 0.959493 6.25572e-17 -0.281733
    outer loop
      vertex 11 22 81.9
      vertex 11 4.1 81.9
      vertex 10.4444 22 80.0078
    endloop
  endfacet
  facet normal 0.654861 1.6781e-16 -0.755749
    outer loop
      vertex 8.95395 4.1 78.7163
      vertex 8.95395 22 78.7163
      vertex 10.4444 4.1 80.0078
    endloop
  endfacet
  facet normal 0.654861 1.6781e-16 -0.755749
    outer loop
      vertex 10.4444 4.1 80.0078
      vertex 8.95395 22 78.7163
      vertex 10.4444 22 80.0078
    endloop
  endfacet
  facet normal 0.142315 2.19785e-16 -0.989821
    outer loop
      vertex 7.0019 4.1 78.4356
      vertex 7.0019 22 78.4356
      vertex 8.95395 4.1 78.7163
    endloop
  endfacet
  facet normal 0.142315 2.19785e-16 -0.989821
    outer loop
      vertex 8.95395 4.1 78.7163
      vertex 7.0019 22 78.4356
      vertex 8.95395 22 78.7163
    endloop
  endfacet
  facet normal -0.415415 2.01979e-16 -0.909632
    outer loop
      vertex 5.20799 4.1 79.2549
      vertex 5.20799 22 79.2549
      vertex 7.0019 4.1 78.4356
    endloop
  endfacet
  facet normal -0.415415 2.01979e-16 -0.909632
    outer loop
      vertex 7.0019 4.1 78.4356
      vertex 5.20799 22 79.2549
      vertex 7.0019 22 78.4356
    endloop
  endfacet
  facet normal -1 0 0
    outer loop
      vertex 12 4.1 32
      vertex 12 4.1 72
      vertex 12 6 32
    endloop
  endfacet
  facet normal -1 0 0
    outer loop
      vertex 12 6 32
      vertex 12 4.1 72
      vertex 12 6 72
    endloop
  endfacet
  facet normal 0 0 -1
    outer loop
      vertex 12 4.1 32
      vertex 12 6 32
      vertex 52 4.1 32
    endloop
  endfacet
  facet normal 0 0 -1
    outer loop
      vertex 52 4.1 32
      vertex 12 6 32
      vertex 52 6 32
    endloop
  endfacet
  facet normal 0 0 1
    outer loop
      vertex 12 6 72
      vertex 12 4.1 72
      vertex 52 4.1 72
    endloop
  endfacet
  facet normal 0 0 1
    outer loop
      vertex 52 6 72
      vertex 12 6 72
      vertex 52 4.1 72
    endloop
  endfacet
  facet normal 1 0 0
    outer loop
      vertex 52 4.1 72
      vertex 52 4.1 32
      vertex 52 6 32
    endloop
  endfacet
  facet normal 1 0 0
    outer loop
      vertex 52 6 72
      vertex 52 4.1 72
      vertex 52 6 32
    endloop
  endfacet
  facet normal -0.841254 1.20046e-16 -0.54064
    outer loop
      vertex 54.1418 4.1 22.6139
      vertex 54.1418 22 22.6139
      vertex 55.208 4.1 20.9549
    endloop
  endfacet
  facet normal -0.841254 1.20046e-16 -0.54064
    outer loop
      vertex 55.208 4.1 20.9549
      vertex 54.1418 22 22.6139
      vertex 55.208 22 20.9549
    endloop
  endfacet
  facet normal -1 0 0
    outer loop
      vertex 54.1418 4.1 22.6139
      vertex 54.1418 4.1 24.5861
      vertex 54.1418 22 22.6139
    endloop
  endfacet
  facet normal -1 0 0
    outer loop
      vertex 54.1418 22 22.6139
      vertex 54.1418 4.1 24.5861
      vertex 54.1418 22 24.5861
    endloop
  endfacet
  facet normal -0.841254 -1.20046e-16 0.54064
    outer loop
      vertex 54.1418 4.1 24.5861
      vertex 55.208 4.1 26.2451
      vertex 54.1418 22 24.5861
    endloop
  endfacet
  facet normal -0.841254 -1.20046e-16 0.54064
    outer loop
      vertex 54.1418 22 24.5861
      vertex 55.208 4.1 26.2451
      vertex 55.208 22 26.2451
    endloop
  endfacet
  facet normal -0.415415 -2.01979e-16 0.909632
    outer loop
      vertex 55.208 22 26.2451
      vertex 55.208 4.1 26.2451
      vertex 57.0019 4.1 27.0644
    endloop
  endfacet
  facet normal -0.415415 -2.01979e-16 0.909632
    outer loop
      vertex 57.0019 22 27.0644
      vertex 55.208 22 26.2451
      vertex 57.0019 4.1 27.0644
    endloop
  endfacet
  facet normal 0.142315 -2.19785e-16 0.989821
    outer loop
      vertex 57.0019 22 27.0644
      vertex 57.0019 4.1 27.0644
      vertex 58.954 4.1 26.7837
    endloop
  endfacet
  facet normal 0.142315 -2.19785e-16 0.989821
    outer loop
      vertex 58.954 22 26.7837
      vertex 57.0019 22 27.0644
      vertex 58.954 4.1 26.7837
    endloop
  endfacet
  facet normal 0.654861 -1.6781e-16 0.755749
    outer loop
      vertex 58.954 22 26.7837
      vertex 58.954 4.1 26.7837
      vertex 60.4444 4.1 25.4922
    endloop
  endfacet
  facet normal 0.654861 -1.6781e-16 0.755749
    outer loop
      vertex 60.4444 22 25.4922
      vertex 58.954 22 26.7837
      vertex 60.4444 4.1 25.4922
    endloop
  endfacet
  facet normal 0.959493 -6.25572e-17 0.281733
    outer loop
      vertex 60.4444 22 25.4922
      vertex 60.4444 4.1 25.4922
      vertex 61 4.1 23.6
    endloop
  endfacet
  facet normal 0.959493 -6.25572e-17 0.281733
    outer loop
      vertex 61 22 23.6
      vertex 60.4444 22 25.4922
      vertex 61 4.1 23.6
    endloop
  endfacet
  facet normal 0.959493 6.25572e-17 -0.281733
    outer loop
      vertex 61 4.1 23.6
      vertex 60.4444 4.1 21.7078
      vertex 60.4444 22 21.7078
    endloop
  endfacet
  facet normal 0.959493 6.25572e-17 -0.281733
    outer loop
      vertex 61 22 23.6
      vertex 61 4.1 23.6
      vertex 60.4444 22 21.7078
    endloop
  endfacet
  facet normal 0.654861 1.6781e-16 -0.755749
    outer loop
      vertex 58.954 4.1 20.4163
      vertex 58.954 22 20.4163
      vertex 60.4444 4.1 21.7078
    endloop
  endfacet
  facet normal 0.654861 1.6781e-16 -0.755749
    outer loop
      vertex 60.4444 4.1 21.7078
      vertex 58.954 22 20.4163
      vertex 60.4444 22 21.7078
    endloop
  endfacet
  facet normal 0.142315 2.19785e-16 -0.989821
    outer loop
      vertex 57.0019 4.1 20.1356
      vertex 57.0019 22 20.1356
      vertex 58.954 4.1 20.4163
    endloop
  endfacet
  facet normal 0.142315 2.19785e-16 -0.989821
    outer loop
      vertex 58.954 4.1 20.4163
      vertex 57.0019 22 20.1356
      vertex 58.954 22 20.4163
    endloop
  endfacet
  facet normal -0.415415 2.01979e-16 -0.909632
    outer loop
      vertex 55.208 4.1 20.9549
      vertex 55.208 22 20.9549
      vertex 57.0019 4.1 20.1356
    endloop
  endfacet
  facet normal -0.415415 2.01979e-16 -0.909632
    outer loop
      vertex 57.0019 4.1 20.1356
      vertex 55.208 22 20.9549
      vertex 57.0019 22 20.1356
    endloop
  endfacet
  facet normal -0.841254 1.20046e-16 -0.54064
    outer loop
      vertex 54.1418 4.1 80.9139
      vertex 54.1418 22 80.9139
      vertex 55.208 4.1 79.2549
    endloop
  endfacet
  facet normal -0.841254 1.20046e-16 -0.54064
    outer loop
      vertex 55.208 4.1 79.2549
      vertex 54.1418 22 80.9139
      vertex 55.208 22 79.2549
    endloop
  endfacet
  facet normal -1 0 0
    outer loop
      vertex 54.1418 4.1 80.9139
      vertex 54.1418 4.1 82.8861
      vertex 54.1418 22 80.9139
    endloop
  endfacet
  facet normal -1 0 0
    outer loop
      vertex 54.1418 22 80.9139
      vertex 54.1418 4.1 82.8861
      vertex 54.1418 22 82.8861
    endloop
  endfacet
  facet normal -0.841254 -1.20046e-16 0.54064
    outer loop
      vertex 54.1418 4.1 82.8861
      vertex 55.208 4.1 84.5451
      vertex 54.1418 22 82.8861
    endloop
  endfacet
  facet normal -0.841254 -1.20046e-16 0.54064
    outer loop
      vertex 54.1418 22 82.8861
      vertex 55.208 4.1 84.5451
      vertex 55.208 22 84.5451
    endloop
  endfacet
  facet normal -0.415415 -2.01979e-16 0.909632
    outer loop
      vertex 55.208 22 84.5451
      vertex 55.208 4.1 84.5451
      vertex 57.0019 4.1 85.3644
    endloop
  endfacet
  facet normal -0.415415 -2.01979e-16 0.909632
    outer loop
      vertex 57.0019 22 85.3644
      vertex 55.208 22 84.5451
      vertex 57.0019 4.1 85.3644
    endloop
  endfacet
  facet normal 0.142315 -2.19785e-16 0.989821
    outer loop
      vertex 57.0019 22 85.3644
      vertex 57.0019 4.1 85.3644
      vertex 58.954 4.1 85.0837
    endloop
  endfacet
  facet normal 0.142315 -2.19785e-16 0.989821
    outer loop
      vertex 58.954 22 85.0837
      vertex 57.0019 22 85.3644
      vertex 58.954 4.1 85.0837
    endloop
  endfacet
  facet normal 0.654861 -1.6781e-16 0.755749
    outer loop
      vertex 58.954 22 85.0837
      vertex 58.954 4.1 85.0837
      vertex 60.4444 4.1 83.7922
    endloop
  endfacet
  facet normal 0.654861 -1.6781e-16 0.755749
    outer loop
      vertex 60.4444 22 83.7922
      vertex 58.954 22 85.0837
      vertex 60.4444 4.1 83.7922
    endloop
  endfacet
  facet normal 0.959493 -6.25572e-17 0.281733
    outer loop
      vertex 60.4444 22 83.7922
      vertex 60.4444 4.1 83.7922
      vertex 61 4.1 81.9
    endloop
  endfacet
  facet normal 0.959493 -6.25572e-17 0.281733
    outer loop
      vertex 61 22 81.9
      vertex 60.4444 22 83.7922
      vertex 61 4.1 81.9
    endloop
  endfacet
  facet normal 0.959493 6.25572e-17 -0.281733
    outer loop
      vertex 61 4.1 81.9
      vertex 60.4444 4.1 80.0078
      vertex 60.4444 22 80.0078
    endloop
  endfacet
  facet normal 0.959493 6.25572e-17 -0.281733
    outer loop
      vertex 61 22 81.9
      vertex 61 4.1 81.9
      vertex 60.4444 22 80.0078
    endloop
  endfacet
  facet normal 0.654861 1.6781e-16 -0.755749
    outer loop
      vertex 58.954 4.1 78.7163
      vertex 58.954 22 78.7163
      vertex 60.4444 4.1 80.0078
    endloop
  endfacet
  facet normal 0.654861 1.6781e-16 -0.755749
    outer loop
      vertex 60.4444 4.1 80.0078
      vertex 58.954 22 78.7163
      vertex 60.4444 22 80.0078
    endloop
  endfacet
  facet normal 0.142315 2.19785e-16 -0.989821
    outer loop
      vertex 57.0019 4.1 78.4356
      vertex 57.0019 22 78.4356
      vertex 58.954 4.1 78.7163
    endloop
  endfacet
  facet normal 0.142315 2.19785e-16 -0.989821
    outer loop
      vertex 58.954 4.1 78.7163
      vertex 57.0019 22 78.4356
      vertex 58.954 22 78.7163
    endloop
  endfacet
  facet normal -0.415415 2.01979e-16 -0.909632
    outer loop
      vertex 55.208 4.1 79.2549
      vertex 55.208 22 79.2549
      vertex 57.0019 4.1 78.4356
    endloop
  endfacet
  facet normal -0.415415 2.01979e-16 -0.909632
    outer loop
      vertex 57.0019 4.1 78.4356
      vertex 55.208 22 79.2549
      vertex 57.0019 22 78.4356
    endloop
  endfacet
  facet normal 0 1 0
    outer loop
      vertex 86.4 25.4 101.5
      vertex 86.4 25.4 4
      vertex 84.5 25.4 99.4
    endloop
  endfacet
  facet normal 0 1 0
    outer loop
      vertex 86.4 25.4 101.5
      vertex 84.5 25.4 99.4
      vertex 2 25.4 101.5
    endloop
  endfacet
  facet normal 0 1 0
    outer loop
      vertex 4.1 25.4 4
      vertex 2 25.4 101.5
      vertex 4.1 25.4 99.4
    endloop
  endfacet
  facet normal 0 1 0
    outer loop
      vertex 84.5 25.4 99.4
      vertex 4.1 25.4 99.4
      vertex 2 25.4 101.5
    endloop
  endfacet
  facet normal 0 1 0
    outer loop
      vertex 2 25.4 101.5
      vertex 4.1 25.4 4
      vertex 2 25.4 4
    endloop
  endfacet
  facet normal 0 1 0
    outer loop
      vertex 84.5 25.4 99.4
      vertex 86.4 25.4 4
      vertex 84.5 25.4 4
    endloop
  endfacet
  facet normal 1 0 2.22045e-16
    outer loop
      vertex 92 12.9366 54.1771
      vertex 92 11.8468 52.6771
      vertex 92 11.8468 50.8229
    endloop
  endfacet
  facet normal 1 0 2.22045e-16
    outer loop
      vertex 92 14.7 48.75
      vertex 92 12.9366 54.1771
      vertex 92 12.9366 49.3229
    endloop
  endfacet
  facet normal 1 0 2.22045e-16
    outer loop
      vertex 92 12.9366 49.3229
      vertex 92 12.9366 54.1771
      vertex 92 11.8468 50.8229
    endloop
  endfacet
  facet normal 1 0 2.22045e-16
    outer loop
      vertex 92 16.4634 49.3229
      vertex 92 12.9366 54.1771
      vertex 92 14.7 48.75
    endloop
  endfacet
  facet normal 1 0 2.22045e-16
    outer loop
      vertex 92 17.5532 50.8229
      vertex 92 12.9366 54.1771
      vertex 92 16.4634 49.3229
    endloop
  endfacet
  facet normal 1 0 2.22045e-16
    outer loop
      vertex 92 17.5532 52.6771
      vertex 92 12.9366 54.1771
      vertex 92 17.5532 50.8229
    endloop
  endfacet
  facet normal 1 0 2.22045e-16
    outer loop
      vertex 92 16.4634 54.1771
      vertex 92 12.9366 54.1771
      vertex 92 17.5532 52.6771
    endloop
  endfacet
  facet normal 1 0 2.22045e-16
    outer loop
      vertex 92 14.7 54.75
      vertex 92 12.9366 54.1771
      vertex 92 16.4634 54.1771
    endloop
  endfacet
  facet normal 0 1 2.22045e-16
    outer loop
      vertex 4.14177 22 24.5861
      vertex 5.20799 22 26.2451
      vertex 4.14177 22 22.6139
    endloop
  endfacet
  facet normal 0 1 2.22045e-16
    outer loop
      vertex 4.14177 22 22.6139
      vertex 5.20799 22 26.2451
      vertex 7.0019 22 27.0644
    endloop
  endfacet
  facet normal 0 1 2.22045e-16
    outer loop
      vertex 7.05496 22 25.5499
      vertex 7.0019 22 27.0644
      vertex 8.95395 22 26.7837
    endloop
  endfacet
  facet normal 0 1 2.22045e-16
    outer loop
      vertex 8.74698 22 25.1637
      vertex 8.95395 22 26.7837
      vertex 10.4444 22 25.4922
    endloop
  endfacet
  facet normal 0 1 2.22045e-16
    outer loop
      vertex 9.5 22 23.6
      vertex 10.4444 22 25.4922
      vertex 11 22 23.6
    endloop
  endfacet
  facet normal 0 1 2.22045e-16
    outer loop
      vertex 7.05496 22 21.6501
      vertex 10.4444 22 21.7078
      vertex 8.95395 22 20.4163
    endloop
  endfacet
  facet normal 0 1 2.22045e-16
    outer loop
      vertex 4.14177 22 22.6139
      vertex 8.95395 22 20.4163
      vertex 7.0019 22 20.1356
    endloop
  endfacet
  facet normal 0 1 2.22045e-16
    outer loop
      vertex 4.14177 22 22.6139
      vertex 7.0019 22 20.1356
      vertex 5.20799 22 20.9549
    endloop
  endfacet
  facet normal 0 1 2.22045e-16
    outer loop
      vertex 4.14177 22 22.6139
      vertex 7.0019 22 27.0644
      vertex 5.69806 22 24.4678
    endloop
  endfacet
  facet normal 0 1 2.22045e-16
    outer loop
      vertex 7.05496 22 21.6501
      vertex 4.14177 22 22.6139
      vertex 5.69806 22 22.7322
    endloop
  endfacet
  facet normal 0 1 2.22045e-16
    outer loop
      vertex 9.5 22 23.6
      vertex 11 22 23.6
      vertex 10.4444 22 21.7078
    endloop
  endfacet
  facet normal 0 1 2.22045e-16
    outer loop
      vertex 4.14177 22 22.6139
      vertex 7.05496 22 21.6501
      vertex 8.95395 22 20.4163
    endloop
  endfacet
  facet normal 0 1 2.22045e-16
    outer loop
      vertex 9.5 22 23.6
      vertex 10.4444 22 21.7078
      vertex 8.74698 22 22.0363
    endloop
  endfacet
  facet normal 0 1 2.22045e-16
    outer loop
      vertex 8.74698 22 22.0363
      vertex 10.4444 22 21.7078
      vertex 7.05496 22 21.6501
    endloop
  endfacet
  facet normal 0 1 2.22045e-16
    outer loop
      vertex 5.69806 22 24.4678
      vertex 7.0019 22 27.0644
      vertex 7.05496 22 25.5499
    endloop
  endfacet
  facet normal 0 1 2.22045e-16
    outer loop
      vertex 5.69806 22 22.7322
      vertex 4.14177 22 22.6139
      vertex 5.69806 22 24.4678
    endloop
  endfacet
  facet normal 0 1 2.22045e-16
    outer loop
      vertex 7.05496 22 25.5499
      vertex 8.95395 22 26.7837
      vertex 8.74698 22 25.1637
    endloop
  endfacet
  facet normal 0 1 2.22045e-16
    outer loop
      vertex 8.74698 22 25.1637
      vertex 10.4444 22 25.4922
      vertex 9.5 22 23.6
    endloop
  endfacet
  facet normal 0 1 2.22045e-16
    outer loop
      vertex 4.14177 22 82.8861
      vertex 5.20799 22 84.5451
      vertex 4.14177 22 80.9139
    endloop
  endfacet
  facet normal 0 1 2.22045e-16
    outer loop
      vertex 4.14177 22 80.9139
      vertex 5.20799 22 84.5451
      vertex 7.0019 22 85.3644
    endloop
  endfacet
  facet normal 0 1 2.22045e-16
    outer loop
      vertex 7.05496 22 83.8499
      vertex 7.0019 22 85.3644
      vertex 8.95395 22 85.0837
    endloop
  endfacet
  facet normal 0 1 2.22045e-16
    outer loop
      vertex 8.74698 22 83.4637
      vertex 8.95395 22 85.0837
      vertex 10.4444 22 83.7922
    endloop
  endfacet
  facet normal 0 1 2.22045e-16
    outer loop
      vertex 9.5 22 81.9
      vertex 10.4444 22 83.7922
      vertex 11 22 81.9
    endloop
  endfacet
  facet normal 0 1 2.22045e-16
    outer loop
      vertex 7.05496 22 79.9501
      vertex 10.4444 22 80.0078
      vertex 8.95395 22 78.7163
    endloop
  endfacet
  facet normal 0 1 2.22045e-16
    outer loop
      vertex 4.14177 22 80.9139
      vertex 8.95395 22 78.7163
      vertex 7.0019 22 78.4356
    endloop
  endfacet
  facet normal 0 1 2.22045e-16
    outer loop
      vertex 4.14177 22 80.9139
      vertex 7.0019 22 78.4356
      vertex 5.20799 22 79.2549
    endloop
  endfacet
  facet normal 0 1 2.22045e-16
    outer loop
      vertex 4.14177 22 80.9139
      vertex 7.0019 22 85.3644
      vertex 5.69806 22 82.7678
    endloop
  endfacet
  facet normal 0 1 2.22045e-16
    outer loop
      vertex 7.05496 22 79.9501
      vertex 4.14177 22 80.9139
      vertex 5.69806 22 81.0322
    endloop
  endfacet
  facet normal 0 1 2.22045e-16
    outer loop
      vertex 9.5 22 81.9
      vertex 11 22 81.9
      vertex 10.4444 22 80.0078
    endloop
  endfacet
  facet normal 0 1 2.22045e-16
    outer loop
      vertex 4.14177 22 80.9139
      vertex 7.05496 22 79.9501
      vertex 8.95395 22 78.7163
    endloop
  endfacet
  facet normal 0 1 2.22045e-16
    outer loop
      vertex 9.5 22 81.9
      vertex 10.4444 22 80.0078
      vertex 8.74698 22 80.3363
    endloop
  endfacet
  facet normal 0 1 2.22045e-16
    outer loop
      vertex 8.74698 22 80.3363
      vertex 10.4444 22 80.0078
      vertex 7.05496 22 79.9501
    endloop
  endfacet
  facet normal 0 1 2.22045e-16
    outer loop
      vertex 5.69806 22 82.7678
      vertex 7.0019 22 85.3644
      vertex 7.05496 22 83.8499
    endloop
  endfacet
  facet normal 0 1 2.22045e-16
    outer loop
      vertex 5.69806 22 81.0322
      vertex 4.14177 22 80.9139
      vertex 5.69806 22 82.7678
    endloop
  endfacet
  facet normal 0 1 2.22045e-16
    outer loop
      vertex 7.05496 22 83.8499
      vertex 8.95395 22 85.0837
      vertex 8.74698 22 83.4637
    endloop
  endfacet
  facet normal 0 1 2.22045e-16
    outer loop
      vertex 8.74698 22 83.4637
      vertex 10.4444 22 83.7922
      vertex 9.5 22 81.9
    endloop
  endfacet
  facet normal 0 1 2.22045e-16
    outer loop
      vertex 54.1418 22 24.5861
      vertex 55.208 22 26.2451
      vertex 54.1418 22 22.6139
    endloop
  endfacet
  facet normal 0 1 2.22045e-16
    outer loop
      vertex 54.1418 22 22.6139
      vertex 55.208 22 26.2451
      vertex 57.0019 22 27.0644
    endloop
  endfacet
  facet normal 0 1 2.22045e-16
    outer loop
      vertex 57.055 22 25.5499
      vertex 57.0019 22 27.0644
      vertex 58.954 22 26.7837
    endloop
  endfacet
  facet normal 0 1 2.22045e-16
    outer loop
      vertex 58.747 22 25.1637
      vertex 58.954 22 26.7837
      vertex 60.4444 22 25.4922
    endloop
  endfacet
  facet normal 0 1 2.22045e-16
    outer loop
      vertex 59.5 22 23.6
      vertex 60.4444 22 25.4922
      vertex 61 22 23.6
    endloop
  endfacet
  facet normal 0 1 2.22045e-16
    outer loop
      vertex 57.055 22 21.6501
      vertex 60.4444 22 21.7078
      vertex 58.954 22 20.4163
    endloop
  endfacet
  facet normal 0 1 2.22045e-16
    outer loop
      vertex 54.1418 22 22.6139
      vertex 58.954 22 20.4163
      vertex 57.0019 22 20.1356
    endloop
  endfacet
  facet normal 0 1 2.22045e-16
    outer loop
      vertex 54.1418 22 22.6139
      vertex 57.0019 22 20.1356
      vertex 55.208 22 20.9549
    endloop
  endfacet
  facet normal 0 1 2.22045e-16
    outer loop
      vertex 54.1418 22 22.6139
      vertex 57.0019 22 27.0644
      vertex 55.6981 22 24.4678
    endloop
  endfacet
  facet normal 0 1 2.22045e-16
    outer loop
      vertex 57.055 22 21.6501
      vertex 54.1418 22 22.6139
      vertex 55.6981 22 22.7322
    endloop
  endfacet
  facet normal 0 1 2.22045e-16
    outer loop
      vertex 59.5 22 23.6
      vertex 61 22 23.6
      vertex 60.4444 22 21.7078
    endloop
  endfacet
  facet normal 0 1 2.22045e-16
    outer loop
      vertex 54.1418 22 22.6139
      vertex 57.055 22 21.6501
      vertex 58.954 22 20.4163
    endloop
  endfacet
  facet normal 0 1 2.22045e-16
    outer loop
      vertex 59.5 22 23.6
      vertex 60.4444 22 21.7078
      vertex 58.747 22 22.0363
    endloop
  endfacet
  facet normal 0 1 2.22045e-16
    outer loop
      vertex 58.747 22 22.0363
      vertex 60.4444 22 21.7078
      vertex 57.055 22 21.6501
    endloop
  endfacet
  facet normal 0 1 2.22045e-16
    outer loop
      vertex 55.6981 22 24.4678
      vertex 57.0019 22 27.0644
      vertex 57.055 22 25.5499
    endloop
  endfacet
  facet normal 0 1 2.22045e-16
    outer loop
      vertex 55.6981 22 22.7322
      vertex 54.1418 22 22.6139
      vertex 55.6981 22 24.4678
    endloop
  endfacet
  facet normal 0 1 2.22045e-16
    outer loop
      vertex 57.055 22 25.5499
      vertex 58.954 22 26.7837
      vertex 58.747 22 25.1637
    endloop
  endfacet
  facet normal 0 1 2.22045e-16
    outer loop
      vertex 58.747 22 25.1637
      vertex 60.4444 22 25.4922
      vertex 59.5 22 23.6
    endloop
  endfacet
  facet normal 0 1 2.22045e-16
    outer loop
      vertex 54.1418 22 82.8861
      vertex 55.208 22 84.5451
      vertex 54.1418 22 80.9139
    endloop
  endfacet
  facet normal 0 1 2.22045e-16
    outer loop
      vertex 54.1418 22 80.9139
      vertex 55.208 22 84.5451
      vertex 57.0019 22 85.3644
    endloop
  endfacet
  facet normal 0 1 2.22045e-16
    outer loop
      vertex 57.055 22 83.8499
      vertex 57.0019 22 85.3644
      vertex 58.954 22 85.0837
    endloop
  endfacet
  facet normal 0 1 2.22045e-16
    outer loop
      vertex 58.747 22 83.4637
      vertex 58.954 22 85.0837
      vertex 60.4444 22 83.7922
    endloop
  endfacet
  facet normal 0 1 2.22045e-16
    outer loop
      vertex 59.5 22 81.9
      vertex 60.4444 22 83.7922
      vertex 61 22 81.9
    endloop
  endfacet
  facet normal 0 1 2.22045e-16
    outer loop
      vertex 57.055 22 79.9501
      vertex 60.4444 22 80.0078
      vertex 58.954 22 78.7163
    endloop
  endfacet
  facet normal 0 1 2.22045e-16
    outer loop
      vertex 54.1418 22 80.9139
      vertex 58.954 22 78.7163
      vertex 57.0019 22 78.4356
    endloop
  endfacet
  facet normal 0 1 2.22045e-16
    outer loop
      vertex 54.1418 22 80.9139
      vertex 57.0019 22 78.4356
      vertex 55.208 22 79.2549
    endloop
  endfacet
  facet normal 0 1 2.22045e-16
    outer loop
      vertex 54.1418 22 80.9139
      vertex 57.0019 22 85.3644
      vertex 55.6981 22 82.7678
    endloop
  endfacet
  facet normal 0 1 2.22045e-16
    outer loop
      vertex 57.055 22 79.9501
      vertex 54.1418 22 80.9139
      vertex 55.6981 22 81.0322
    endloop
  endfacet
  facet normal 0 1 2.22045e-16
    outer loop
      vertex 59.5 22 81.9
      vertex 61 22 81.9
      vertex 60.4444 22 80.0078
    endloop
  endfacet
  facet normal 0 1 2.22045e-16
    outer loop
      vertex 54.1418 22 80.9139
      vertex 57.055 22 79.9501
      vertex 58.954 22 78.7163
    endloop
  endfacet
  facet normal 0 1 2.22045e-16
    outer loop
      vertex 59.5 22 81.9
      vertex 60.4444 22 80.0078
      vertex 58.747 22 80.3363
    endloop
  endfacet
  facet normal 0 1 2.22045e-16
    outer loop
      vertex 58.747 22 80.3363
      vertex 60.4444 22 80.0078
      vertex 57.055 22 79.9501
    endloop
  endfacet
  facet normal 0 1 2.22045e-16
    outer loop
      vertex 55.6981 22 82.7678
      vertex 57.0019 22 85.3644
      vertex 57.055 22 83.8499
    endloop
  endfacet
  facet normal 0 1 2.22045e-16
    outer loop
      vertex 55.6981 22 81.0322
      vertex 54.1418 22 80.9139
      vertex 55.6981 22 82.7678
    endloop
  endfacet
  facet normal 0 1 2.22045e-16
    outer loop
      vertex 57.055 22 83.8499
      vertex 58.954 22 85.0837
      vertex 58.747 22 83.4637
    endloop
  endfacet
  facet normal 0 1 2.22045e-16
    outer loop
      vertex 58.747 22 83.4637
      vertex 60.4444 22 83.7922
      vertex 59.5 22 81.9
    endloop
  endfacet
  facet normal 1 0 0
    outer loop
      vertex 5.69806 12 22.7322
      vertex 5.69806 22 22.7322
      vertex 5.69806 22 24.4678
    endloop
  endfacet
  facet normal 1 0 0
    outer loop
      vertex 5.69806 12 24.4678
      vertex 5.69806 12 22.7322
      vertex 5.69806 22 24.4678
    endloop
  endfacet
  facet normal 0.62349 1.73601e-16 -0.781831
    outer loop
      vertex 7.05496 22 25.5499
      vertex 7.05496 12 25.5499
      vertex 5.69806 22 24.4678
    endloop
  endfacet
  facet normal 0.62349 1.73601e-16 -0.781831
    outer loop
      vertex 5.69806 22 24.4678
      vertex 7.05496 12 25.5499
      vertex 5.69806 12 24.4678
    endloop
  endfacet
  facet normal -0.222521 2.16477e-16 -0.974928
    outer loop
      vertex 8.74698 22 25.1637
      vertex 8.74698 12 25.1637
      vertex 7.05496 22 25.5499
    endloop
  endfacet
  facet normal -0.222521 2.16477e-16 -0.974928
    outer loop
      vertex 7.05496 22 25.5499
      vertex 8.74698 12 25.1637
      vertex 7.05496 12 25.5499
    endloop
  endfacet
  facet normal -0.900969 9.63415e-17 -0.433884
    outer loop
      vertex 9.5 22 23.6
      vertex 9.5 12 23.6
      vertex 8.74698 22 25.1637
    endloop
  endfacet
  facet normal -0.900969 9.63415e-17 -0.433884
    outer loop
      vertex 8.74698 22 25.1637
      vertex 9.5 12 23.6
      vertex 8.74698 12 25.1637
    endloop
  endfacet
  facet normal -0.900969 -9.63415e-17 0.433884
    outer loop
      vertex 9.5 22 23.6
      vertex 8.74698 22 22.0363
      vertex 9.5 12 23.6
    endloop
  endfacet
  facet normal -0.900969 -9.63415e-17 0.433884
    outer loop
      vertex 9.5 12 23.6
      vertex 8.74698 22 22.0363
      vertex 8.74698 12 22.0363
    endloop
  endfacet
  facet normal -0.222521 -2.16477e-16 0.974928
    outer loop
      vertex 8.74698 12 22.0363
      vertex 8.74698 22 22.0363
      vertex 7.05496 22 21.6501
    endloop
  endfacet
  facet normal -0.222521 -2.16477e-16 0.974928
    outer loop
      vertex 7.05496 12 21.6501
      vertex 8.74698 12 22.0363
      vertex 7.05496 22 21.6501
    endloop
  endfacet
  facet normal 0.62349 -1.73601e-16 0.781831
    outer loop
      vertex 7.05496 12 21.6501
      vertex 7.05496 22 21.6501
      vertex 5.69806 22 22.7322
    endloop
  endfacet
  facet normal 0.62349 -1.73601e-16 0.781831
    outer loop
      vertex 5.69806 12 22.7322
      vertex 7.05496 12 21.6501
      vertex 5.69806 22 22.7322
    endloop
  endfacet
  facet normal 1 0 0
    outer loop
      vertex 5.69806 12 81.0322
      vertex 5.69806 22 81.0322
      vertex 5.69806 22 82.7678
    endloop
  endfacet
  facet normal 1 0 0
    outer loop
      vertex 5.69806 12 82.7678
      vertex 5.69806 12 81.0322
      vertex 5.69806 22 82.7678
    endloop
  endfacet
  facet normal 0.62349 1.73601e-16 -0.781831
    outer loop
      vertex 7.05496 22 83.8499
      vertex 7.05496 12 83.8499
      vertex 5.69806 22 82.7678
    endloop
  endfacet
  facet normal 0.62349 1.73601e-16 -0.781831
    outer loop
      vertex 5.69806 22 82.7678
      vertex 7.05496 12 83.8499
      vertex 5.69806 12 82.7678
    endloop
  endfacet
  facet normal -0.222521 2.16477e-16 -0.974928
    outer loop
      vertex 8.74698 22 83.4637
      vertex 8.74698 12 83.4637
      vertex 7.05496 22 83.8499
    endloop
  endfacet
  facet normal -0.222521 2.16477e-16 -0.974928
    outer loop
      vertex 7.05496 22 83.8499
      vertex 8.74698 12 83.4637
      vertex 7.05496 12 83.8499
    endloop
  endfacet
  facet normal -0.900969 9.63415e-17 -0.433884
    outer loop
      vertex 9.5 22 81.9
      vertex 9.5 12 81.9
      vertex 8.74698 22 83.4637
    endloop
  endfacet
  facet normal -0.900969 9.63415e-17 -0.433884
    outer loop
      vertex 8.74698 22 83.4637
      vertex 9.5 12 81.9
      vertex 8.74698 12 83.4637
    endloop
  endfacet
  facet normal -0.900969 -9.63415e-17 0.433884
    outer loop
      vertex 9.5 22 81.9
      vertex 8.74698 22 80.3363
      vertex 9.5 12 81.9
    endloop
  endfacet
  facet normal -0.900969 -9.63415e-17 0.433884
    outer loop
      vertex 9.5 12 81.9
      vertex 8.74698 22 80.3363
      vertex 8.74698 12 80.3363
    endloop
  endfacet
  facet normal -0.222521 -2.16477e-16 0.974928
    outer loop
      vertex 8.74698 12 80.3363
      vertex 8.74698 22 80.3363
      vertex 7.05496 22 79.9501
    endloop
  endfacet
  facet normal -0.222521 -2.16477e-16 0.974928
    outer loop
      vertex 7.05496 12 79.9501
      vertex 8.74698 12 80.3363
      vertex 7.05496 22 79.9501
    endloop
  endfacet
  facet normal 0.62349 -1.73601e-16 0.781831
    outer loop
      vertex 7.05496 12 79.9501
      vertex 7.05496 22 79.9501
      vertex 5.69806 22 81.0322
    endloop
  endfacet
  facet normal 0.62349 -1.73601e-16 0.781831
    outer loop
      vertex 5.69806 12 81.0322
      vertex 7.05496 12 79.9501
      vertex 5.69806 22 81.0322
    endloop
  endfacet
  facet normal 1 0 0
    outer loop
      vertex 55.6981 12 22.7322
      vertex 55.6981 22 22.7322
      vertex 55.6981 22 24.4678
    endloop
  endfacet
  facet normal 1 0 0
    outer loop
      vertex 55.6981 12 24.4678
      vertex 55.6981 12 22.7322
      vertex 55.6981 22 24.4678
    endloop
  endfacet
  facet normal 0.62349 1.73601e-16 -0.781831
    outer loop
      vertex 57.055 22 25.5499
      vertex 57.055 12 25.5499
      vertex 55.6981 22 24.4678
    endloop
  endfacet
  facet normal 0.62349 1.73601e-16 -0.781831
    outer loop
      vertex 55.6981 22 24.4678
      vertex 57.055 12 25.5499
      vertex 55.6981 12 24.4678
    endloop
  endfacet
  facet normal -0.222521 2.16477e-16 -0.974928
    outer loop
      vertex 58.747 22 25.1637
      vertex 58.747 12 25.1637
      vertex 57.055 22 25.5499
    endloop
  endfacet
  facet normal -0.222521 2.16477e-16 -0.974928
    outer loop
      vertex 57.055 22 25.5499
      vertex 58.747 12 25.1637
      vertex 57.055 12 25.5499
    endloop
  endfacet
  facet normal -0.900969 9.63415e-17 -0.433884
    outer loop
      vertex 59.5 22 23.6
      vertex 59.5 12 23.6
      vertex 58.747 22 25.1637
    endloop
  endfacet
  facet normal -0.900969 9.63415e-17 -0.433884
    outer loop
      vertex 58.747 22 25.1637
      vertex 59.5 12 23.6
      vertex 58.747 12 25.1637
    endloop
  endfacet
  facet normal -0.900969 -9.63415e-17 0.433884
    outer loop
      vertex 59.5 22 23.6
      vertex 58.747 22 22.0363
      vertex 59.5 12 23.6
    endloop
  endfacet
  facet normal -0.900969 -9.63415e-17 0.433884
    outer loop
      vertex 59.5 12 23.6
      vertex 58.747 22 22.0363
      vertex 58.747 12 22.0363
    endloop
  endfacet
  facet normal -0.222521 -2.16477e-16 0.974928
    outer loop
      vertex 58.747 12 22.0363
      vertex 58.747 22 22.0363
      vertex 57.055 22 21.6501
    endloop
  endfacet
  facet normal -0.222521 -2.16477e-16 0.974928
    outer loop
      vertex 57.055 12 21.6501
      vertex 58.747 12 22.0363
      vertex 57.055 22 21.6501
    endloop
  endfacet
  facet normal 0.62349 -1.73601e-16 0.781831
    outer loop
      vertex 57.055 12 21.6501
      vertex 57.055 22 21.6501
      vertex 55.6981 22 22.7322
    endloop
  endfacet
  facet normal 0.62349 -1.73601e-16 0.781831
    outer loop
      vertex 55.6981 12 22.7322
      vertex 57.055 12 21.6501
      vertex 55.6981 22 22.7322
    endloop
  endfacet
  facet normal 1 0 0
    outer loop
      vertex 55.6981 12 81.0322
      vertex 55.6981 22 81.0322
      vertex 55.6981 22 82.7678
    endloop
  endfacet
  facet normal 1 0 0
    outer loop
      vertex 55.6981 12 82.7678
      vertex 55.6981 12 81.0322
      vertex 55.6981 22 82.7678
    endloop
  endfacet
  facet normal 0.62349 1.73601e-16 -0.781831
    outer loop
      vertex 57.055 22 83.8499
      vertex 57.055 12 83.8499
      vertex 55.6981 22 82.7678
    endloop
  endfacet
  facet normal 0.62349 1.73601e-16 -0.781831
    outer loop
      vertex 55.6981 22 82.7678
      vertex 57.055 12 83.8499
      vertex 55.6981 12 82.7678
    endloop
  endfacet
  facet normal -0.222521 2.16477e-16 -0.974928
    outer loop
      vertex 58.747 22 83.4637
      vertex 58.747 12 83.4637
      vertex 57.055 22 83.8499
    endloop
  endfacet
  facet normal -0.222521 2.16477e-16 -0.974928
    outer loop
      vertex 57.055 22 83.8499
      vertex 58.747 12 83.4637
      vertex 57.055 12 83.8499
    endloop
  endfacet
  facet normal -0.900969 9.63415e-17 -0.433884
    outer loop
      vertex 59.5 22 81.9
      vertex 59.5 12 81.9
      vertex 58.747 22 83.4637
    endloop
  endfacet
  facet normal -0.900969 9.63415e-17 -0.433884
    outer loop
      vertex 58.747 22 83.4637
      vertex 59.5 12 81.9
      vertex 58.747 12 83.4637
    endloop
  endfacet
  facet normal -0.900969 -9.63415e-17 0.433884
    outer loop
      vertex 59.5 22 81.9
      vertex 58.747 22 80.3363
      vertex 59.5 12 81.9
    endloop
  endfacet
  facet normal -0.900969 -9.63415e-17 0.433884
    outer loop
      vertex 59.5 12 81.9
      vertex 58.747 22 80.3363
      vertex 58.747 12 80.3363
    endloop
  endfacet
  facet normal -0.222521 -2.16477e-16 0.974928
    outer loop
      vertex 58.747 12 80.3363
      vertex 58.747 22 80.3363
      vertex 57.055 22 79.9501
    endloop
  endfacet
  facet normal -0.222521 -2.16477e-16 0.974928
    outer loop
      vertex 57.055 12 79.9501
      vertex 58.747 12 80.3363
      vertex 57.055 22 79.9501
    endloop
  endfacet
  facet normal 0.62349 -1.73601e-16 0.781831
    outer loop
      vertex 57.055 12 79.9501
      vertex 57.055 22 79.9501
      vertex 55.6981 22 81.0322
    endloop
  endfacet
  facet normal 0.62349 -1.73601e-16 0.781831
    outer loop
      vertex 55.6981 12 81.0322
      vertex 57.055 12 79.9501
      vertex 55.6981 22 81.0322
    endloop
  endfacet
  facet normal 0 1 2.22045e-16
    outer loop
      vertex 8.74698 12 25.1637
      vertex 9.5 12 23.6
      vertex 7.05496 12 25.5499
    endloop
  endfacet
  facet normal 0 1 2.22045e-16
    outer loop
      vertex 7.05496 12 25.5499
      vertex 9.5 12 23.6
      vertex 8.74698 12 22.0363
    endloop
  endfacet
  facet normal 0 1 2.22045e-16
    outer loop
      vertex 7.05496 12 25.5499
      vertex 8.74698 12 22.0363
      vertex 7.05496 12 21.6501
    endloop
  endfacet
  facet normal 0 1 2.22045e-16
    outer loop
      vertex 7.05496 12 25.5499
      vertex 7.05496 12 21.6501
      vertex 5.69806 12 22.7322
    endloop
  endfacet
  facet normal 0 1 2.22045e-16
    outer loop
      vertex 7.05496 12 25.5499
      vertex 5.69806 12 22.7322
      vertex 5.69806 12 24.4678
    endloop
  endfacet
  facet normal 0 1 2.22045e-16
    outer loop
      vertex 8.74698 12 83.4637
      vertex 9.5 12 81.9
      vertex 7.05496 12 83.8499
    endloop
  endfacet
  facet normal 0 1 2.22045e-16
    outer loop
      vertex 7.05496 12 83.8499
      vertex 9.5 12 81.9
      vertex 8.74698 12 80.3363
    endloop
  endfacet
  facet normal 0 1 2.22045e-16
    outer loop
      vertex 7.05496 12 83.8499
      vertex 8.74698 12 80.3363
      vertex 7.05496 12 79.9501
    endloop
  endfacet
  facet normal 0 1 2.22045e-16
    outer loop
      vertex 7.05496 12 83.8499
      vertex 7.05496 12 79.9501
      vertex 5.69806 12 81.0322
    endloop
  endfacet
  facet normal 0 1 2.22045e-16
    outer loop
      vertex 7.05496 12 83.8499
      vertex 5.69806 12 81.0322
      vertex 5.69806 12 82.7678
    endloop
  endfacet
  facet normal 0 1 2.22045e-16
    outer loop
      vertex 58.747 12 25.1637
      vertex 59.5 12 23.6
      vertex 57.055 12 25.5499
    endloop
  endfacet
  facet normal 0 1 2.22045e-16
    outer loop
      vertex 57.055 12 25.5499
      vertex 59.5 12 23.6
      vertex 58.747 12 22.0363
    endloop
  endfacet
  facet normal 0 1 2.22045e-16
    outer loop
      vertex 57.055 12 25.5499
      vertex 58.747 12 22.0363
      vertex 57.055 12 21.6501
    endloop
  endfacet
  facet normal 0 1 2.22045e-16
    outer loop
      vertex 57.055 12 25.5499
      vertex 57.055 12 21.6501
      vertex 55.6981 12 22.7322
    endloop
  endfacet
  facet normal 0 1 2.22045e-16
    outer loop
      vertex 57.055 12 25.5499
      vertex 55.6981 12 22.7322
      vertex 55.6981 12 24.4678
    endloop
  endfacet
  facet normal 0 1 2.22045e-16
    outer loop
      vertex 58.747 12 83.4637
      vertex 59.5 12 81.9
      vertex 57.055 12 83.8499
    endloop
  endfacet
  facet normal 0 1 2.22045e-16
    outer loop
      vertex 57.055 12 83.8499
      vertex 59.5 12 81.9
      vertex 58.747 12 80.3363
    endloop
  endfacet
  facet normal 0 1 2.22045e-16
    outer loop
      vertex 57.055 12 83.8499
      vertex 58.747 12 80.3363
      vertex 57.055 12 79.9501
    endloop
  endfacet
  facet normal 0 1 2.22045e-16
    outer loop
      vertex 57.055 12 83.8499
      vertex 57.055 12 79.9501
      vertex 55.6981 12 81.0322
    endloop
  endfacet
  facet normal 0 1 2.22045e-16
    outer loop
      vertex 57.055 12 83.8499
      vertex 55.6981 12 81.0322
      vertex 55.6981 12 82.7678
    endloop
  endfacet
endsolid OpenSCAD_Model
